%TF.GenerationSoftware,KiCad,Pcbnew,(6.0.7)*%
%TF.CreationDate,2022-10-27T11:54:34+02:00*%
%TF.ProjectId,sensorNode,73656e73-6f72-44e6-9f64-652e6b696361,rev?*%
%TF.SameCoordinates,Original*%
%TF.FileFunction,Drillmap*%
%TF.FilePolarity,Positive*%
%FSLAX45Y45*%
G04 Gerber Fmt 4.5, Leading zero omitted, Abs format (unit mm)*
G04 Created by KiCad (PCBNEW (6.0.7)) date 2022-10-27 11:54:34*
%MOMM*%
%LPD*%
G01*
G04 APERTURE LIST*
%ADD10C,0.100000*%
%ADD11C,0.200000*%
%ADD12C,0.020000*%
%ADD13C,0.045000*%
%ADD14C,0.089000*%
%ADD15C,0.095000*%
%ADD16C,0.119000*%
%ADD17C,0.201000*%
G04 APERTURE END LIST*
D10*
X24250000Y-12500000D02*
G75*
G03*
X24550000Y-12200000I0J300000D01*
G01*
X21000000Y-12200000D02*
G75*
G03*
X21300000Y-12500000I300000J0D01*
G01*
X24250000Y-9000000D02*
X21300000Y-9000000D01*
X21000000Y-9300000D02*
X21000000Y-12200000D01*
X21300000Y-12500000D02*
X24250000Y-12500000D01*
X24550000Y-9300000D02*
G75*
G03*
X24250000Y-9000000I-300000J0D01*
G01*
X24550000Y-12200000D02*
X24550000Y-9300000D01*
X21300000Y-9000000D02*
G75*
G03*
X21000000Y-9300000I0J-300000D01*
G01*
D11*
D12*
X21061402Y-10539273D02*
X21081402Y-10559273D01*
X21081402Y-10539273D02*
X21061402Y-10559273D01*
X21070000Y-10710000D02*
X21090000Y-10730000D01*
X21090000Y-10710000D02*
X21070000Y-10730000D01*
X21120000Y-10260000D02*
X21140000Y-10280000D01*
X21140000Y-10260000D02*
X21120000Y-10280000D01*
X21170000Y-11407350D02*
X21190000Y-11427350D01*
X21190000Y-11407350D02*
X21170000Y-11427350D01*
X21170000Y-11470000D02*
X21190000Y-11490000D01*
X21190000Y-11470000D02*
X21170000Y-11490000D01*
X21170000Y-11540000D02*
X21190000Y-11560000D01*
X21190000Y-11540000D02*
X21170000Y-11560000D01*
X21190000Y-11330000D02*
X21210000Y-11350000D01*
X21210000Y-11330000D02*
X21190000Y-11350000D01*
X21230000Y-10950000D02*
X21250000Y-10970000D01*
X21250000Y-10950000D02*
X21230000Y-10970000D01*
X21255000Y-11605000D02*
X21275000Y-11625000D01*
X21275000Y-11605000D02*
X21255000Y-11625000D01*
X21281250Y-10270000D02*
X21301250Y-10290000D01*
X21301250Y-10270000D02*
X21281250Y-10290000D01*
X21314850Y-10585000D02*
X21334850Y-10605000D01*
X21334850Y-10585000D02*
X21314850Y-10605000D01*
X21315000Y-11795000D02*
X21335000Y-11815000D01*
X21335000Y-11795000D02*
X21315000Y-11815000D01*
X21350000Y-11456550D02*
X21370000Y-11476550D01*
X21370000Y-11456550D02*
X21350000Y-11476550D01*
X21393750Y-10270000D02*
X21413750Y-10290000D01*
X21413750Y-10270000D02*
X21393750Y-10290000D01*
X21465000Y-11585000D02*
X21485000Y-11605000D01*
X21485000Y-11585000D02*
X21465000Y-11605000D01*
X21540000Y-10720000D02*
X21560000Y-10740000D01*
X21560000Y-10720000D02*
X21540000Y-10740000D01*
X21550000Y-10260000D02*
X21570000Y-10280000D01*
X21570000Y-10260000D02*
X21550000Y-10280000D01*
X21558071Y-11072520D02*
X21578071Y-11092520D01*
X21578071Y-11072520D02*
X21558071Y-11092520D01*
X21655000Y-11065000D02*
X21675000Y-11085000D01*
X21675000Y-11065000D02*
X21655000Y-11085000D01*
X21710000Y-10960000D02*
X21730000Y-10980000D01*
X21730000Y-10960000D02*
X21710000Y-10980000D01*
X21730000Y-10550000D02*
X21750000Y-10570000D01*
X21750000Y-10550000D02*
X21730000Y-10570000D01*
X21730000Y-10660000D02*
X21750000Y-10680000D01*
X21750000Y-10660000D02*
X21730000Y-10680000D01*
X21740000Y-11060000D02*
X21760000Y-11080000D01*
X21760000Y-11060000D02*
X21740000Y-11080000D01*
X21780000Y-12395000D02*
X21800000Y-12415000D01*
X21800000Y-12395000D02*
X21780000Y-12415000D01*
X21790000Y-12025000D02*
X21810000Y-12045000D01*
X21810000Y-12025000D02*
X21790000Y-12045000D01*
X21820000Y-11080000D02*
X21840000Y-11100000D01*
X21840000Y-11080000D02*
X21820000Y-11100000D01*
X21830928Y-11408675D02*
X21850928Y-11428675D01*
X21850928Y-11408675D02*
X21830928Y-11428675D01*
X21855000Y-11565000D02*
X21875000Y-11585000D01*
X21875000Y-11565000D02*
X21855000Y-11585000D01*
X21855000Y-11651400D02*
X21875000Y-11671400D01*
X21875000Y-11651400D02*
X21855000Y-11671400D01*
X21855000Y-11730000D02*
X21875000Y-11750000D01*
X21875000Y-11730000D02*
X21855000Y-11750000D01*
X21855000Y-11815000D02*
X21875000Y-11835000D01*
X21875000Y-11815000D02*
X21855000Y-11835000D01*
X21905000Y-11405000D02*
X21925000Y-11425000D01*
X21925000Y-11405000D02*
X21905000Y-11425000D01*
X21940000Y-11720000D02*
X21960000Y-11740000D01*
X21960000Y-11720000D02*
X21940000Y-11740000D01*
X21940000Y-11795000D02*
X21960000Y-11815000D01*
X21960000Y-11795000D02*
X21940000Y-11815000D01*
X21980000Y-11400000D02*
X22000000Y-11420000D01*
X22000000Y-11400000D02*
X21980000Y-11420000D01*
X22010000Y-10770000D02*
X22030000Y-10790000D01*
X22030000Y-10770000D02*
X22010000Y-10790000D01*
X22057500Y-11402350D02*
X22077500Y-11422350D01*
X22077500Y-11402350D02*
X22057500Y-11422350D01*
X22095000Y-11195000D02*
X22115000Y-11215000D01*
X22115000Y-11195000D02*
X22095000Y-11215000D01*
X22120000Y-10710000D02*
X22140000Y-10730000D01*
X22140000Y-10710000D02*
X22120000Y-10730000D01*
X22135000Y-11402350D02*
X22155000Y-11422350D01*
X22155000Y-11402350D02*
X22135000Y-11422350D01*
X22135000Y-12135000D02*
X22155000Y-12155000D01*
X22155000Y-12135000D02*
X22135000Y-12155000D01*
X22220000Y-11397350D02*
X22240000Y-11417350D01*
X22240000Y-11397350D02*
X22220000Y-11417350D01*
X22220000Y-11600000D02*
X22240000Y-11620000D01*
X22240000Y-11600000D02*
X22220000Y-11620000D01*
X22220000Y-12230000D02*
X22240000Y-12250000D01*
X22240000Y-12230000D02*
X22220000Y-12250000D01*
X22250000Y-11050000D02*
X22270000Y-11070000D01*
X22270000Y-11050000D02*
X22250000Y-11070000D01*
X22250000Y-11140000D02*
X22270000Y-11160000D01*
X22270000Y-11140000D02*
X22250000Y-11160000D01*
X22260000Y-10430000D02*
X22280000Y-10450000D01*
X22280000Y-10430000D02*
X22260000Y-10450000D01*
X22280000Y-11670000D02*
X22300000Y-11690000D01*
X22300000Y-11670000D02*
X22280000Y-11690000D01*
X22285000Y-11600000D02*
X22305000Y-11620000D01*
X22305000Y-11600000D02*
X22285000Y-11620000D01*
X22300000Y-11397350D02*
X22320000Y-11417350D01*
X22320000Y-11397350D02*
X22300000Y-11417350D01*
X22330000Y-11900000D02*
X22350000Y-11920000D01*
X22350000Y-11900000D02*
X22330000Y-11920000D01*
X22350000Y-11600000D02*
X22370000Y-11620000D01*
X22370000Y-11600000D02*
X22350000Y-11620000D01*
X22375000Y-11397350D02*
X22395000Y-11417350D01*
X22395000Y-11397350D02*
X22375000Y-11417350D01*
X22460000Y-11700000D02*
X22480000Y-11720000D01*
X22480000Y-11700000D02*
X22460000Y-11720000D01*
X22490000Y-11020000D02*
X22510000Y-11040000D01*
X22510000Y-11020000D02*
X22490000Y-11040000D01*
X22500000Y-10430000D02*
X22520000Y-10450000D01*
X22520000Y-10430000D02*
X22500000Y-10450000D01*
X22540000Y-11910000D02*
X22560000Y-11930000D01*
X22560000Y-11910000D02*
X22540000Y-11930000D01*
X22580000Y-10780000D02*
X22600000Y-10800000D01*
X22600000Y-10780000D02*
X22580000Y-10800000D01*
X22585000Y-11320000D02*
X22605000Y-11340000D01*
X22605000Y-11320000D02*
X22585000Y-11340000D01*
X22651113Y-11079400D02*
X22671113Y-11099400D01*
X22671113Y-11079400D02*
X22651113Y-11099400D01*
X22713230Y-11087552D02*
X22733230Y-11107552D01*
X22733230Y-11087552D02*
X22713230Y-11107552D01*
X22750000Y-11000000D02*
X22770000Y-11020000D01*
X22770000Y-11000000D02*
X22750000Y-11020000D01*
X22820000Y-11010000D02*
X22840000Y-11030000D01*
X22840000Y-11010000D02*
X22820000Y-11030000D01*
X22850000Y-10845000D02*
X22870000Y-10865000D01*
X22870000Y-10845000D02*
X22850000Y-10865000D01*
X22870000Y-10906000D02*
X22890000Y-10926000D01*
X22890000Y-10906000D02*
X22870000Y-10926000D01*
X22895000Y-10800000D02*
X22915000Y-10820000D01*
X22915000Y-10800000D02*
X22895000Y-10820000D01*
X22895000Y-11630000D02*
X22915000Y-11650000D01*
X22915000Y-11630000D02*
X22895000Y-11650000D01*
X22895000Y-11720000D02*
X22915000Y-11740000D01*
X22915000Y-11720000D02*
X22895000Y-11740000D01*
X22895000Y-11810000D02*
X22915000Y-11830000D01*
X22915000Y-11810000D02*
X22895000Y-11830000D01*
X22940000Y-11234850D02*
X22960000Y-11254850D01*
X22960000Y-11234850D02*
X22940000Y-11254850D01*
X23000000Y-11480000D02*
X23020000Y-11500000D01*
X23020000Y-11480000D02*
X23000000Y-11500000D01*
X23010000Y-11234000D02*
X23030000Y-11254000D01*
X23030000Y-11234000D02*
X23010000Y-11254000D01*
X23180000Y-10932650D02*
X23200000Y-10952650D01*
X23200000Y-10932650D02*
X23180000Y-10952650D01*
X23189850Y-10870000D02*
X23209850Y-10890000D01*
X23209850Y-10870000D02*
X23189850Y-10890000D01*
X23220000Y-11390000D02*
X23240000Y-11410000D01*
X23240000Y-11390000D02*
X23220000Y-11410000D01*
X23290000Y-10700000D02*
X23310000Y-10720000D01*
X23310000Y-10700000D02*
X23290000Y-10720000D01*
X23300000Y-9590000D02*
X23320000Y-9610000D01*
X23320000Y-9590000D02*
X23300000Y-9610000D01*
X23300000Y-9750000D02*
X23320000Y-9770000D01*
X23320000Y-9750000D02*
X23300000Y-9770000D01*
X23310000Y-11565000D02*
X23330000Y-11585000D01*
X23330000Y-11565000D02*
X23310000Y-11585000D01*
X23320000Y-11040000D02*
X23340000Y-11060000D01*
X23340000Y-11040000D02*
X23320000Y-11060000D01*
X23332500Y-11377500D02*
X23352500Y-11397500D01*
X23352500Y-11377500D02*
X23332500Y-11397500D01*
X23340000Y-10870000D02*
X23360000Y-10890000D01*
X23360000Y-10870000D02*
X23340000Y-10890000D01*
X23352650Y-10700000D02*
X23372650Y-10720000D01*
X23372650Y-10700000D02*
X23352650Y-10720000D01*
X23394717Y-11384850D02*
X23414717Y-11404850D01*
X23414717Y-11384850D02*
X23394717Y-11404850D01*
X23400000Y-11560000D02*
X23420000Y-11580000D01*
X23420000Y-11560000D02*
X23400000Y-11580000D01*
X23410000Y-11040000D02*
X23430000Y-11060000D01*
X23430000Y-11040000D02*
X23410000Y-11060000D01*
X23415485Y-10695202D02*
X23435485Y-10715202D01*
X23435485Y-10695202D02*
X23415485Y-10715202D01*
X23465000Y-11385000D02*
X23485000Y-11405000D01*
X23485000Y-11385000D02*
X23465000Y-11405000D01*
X23470000Y-11560000D02*
X23490000Y-11580000D01*
X23490000Y-11560000D02*
X23470000Y-11580000D01*
X23477951Y-10700000D02*
X23497951Y-10720000D01*
X23497951Y-10700000D02*
X23477951Y-10720000D01*
X23510000Y-11040000D02*
X23530000Y-11060000D01*
X23530000Y-11040000D02*
X23510000Y-11060000D01*
X23550000Y-10620000D02*
X23570000Y-10640000D01*
X23570000Y-10620000D02*
X23550000Y-10640000D01*
X23608169Y-10643268D02*
X23628169Y-10663268D01*
X23628169Y-10643268D02*
X23608169Y-10663268D01*
X23616500Y-10705538D02*
X23636500Y-10725538D01*
X23636500Y-10705538D02*
X23616500Y-10725538D01*
X23625000Y-11055000D02*
X23645000Y-11075000D01*
X23645000Y-11055000D02*
X23625000Y-11075000D01*
X23670000Y-9750000D02*
X23690000Y-9770000D01*
X23690000Y-9750000D02*
X23670000Y-9770000D01*
X23680000Y-10705000D02*
X23700000Y-10725000D01*
X23700000Y-10705000D02*
X23680000Y-10725000D01*
X23760000Y-10795000D02*
X23780000Y-10815000D01*
X23780000Y-10795000D02*
X23760000Y-10815000D01*
X23790000Y-11480000D02*
X23810000Y-11500000D01*
X23810000Y-11480000D02*
X23790000Y-11500000D01*
X23805000Y-11560000D02*
X23825000Y-11580000D01*
X23825000Y-11560000D02*
X23805000Y-11580000D01*
X23860000Y-11290000D02*
X23880000Y-11310000D01*
X23880000Y-11290000D02*
X23860000Y-11310000D01*
X23880000Y-11145000D02*
X23900000Y-11165000D01*
X23900000Y-11145000D02*
X23880000Y-11165000D01*
X23980000Y-10225000D02*
X24000000Y-10245000D01*
X24000000Y-10225000D02*
X23980000Y-10245000D01*
X23990000Y-11680000D02*
X24010000Y-11700000D01*
X24010000Y-11680000D02*
X23990000Y-11700000D01*
X24040000Y-10399000D02*
X24060000Y-10419000D01*
X24060000Y-10399000D02*
X24040000Y-10419000D01*
X24110000Y-10562500D02*
X24130000Y-10582500D01*
X24130000Y-10562500D02*
X24110000Y-10582500D01*
X24240000Y-11360000D02*
X24260000Y-11380000D01*
X24260000Y-11360000D02*
X24240000Y-11380000D01*
X24240000Y-11450000D02*
X24260000Y-11470000D01*
X24260000Y-11450000D02*
X24240000Y-11470000D01*
X24244601Y-11522179D02*
X24264601Y-11542179D01*
X24264601Y-11522179D02*
X24244601Y-11542179D01*
D13*
X24422500Y-11042500D02*
G75*
G03*
X24422500Y-11042500I-22500J0D01*
G01*
D11*
X24360000Y-11065000D02*
X24440000Y-11065000D01*
X24360000Y-11020000D02*
X24440000Y-11020000D01*
X24440000Y-11065000D02*
G75*
G03*
X24440000Y-11020000I0J22500D01*
G01*
X24360000Y-11020000D02*
G75*
G03*
X24360000Y-11065000I0J-22500D01*
G01*
D13*
X24422500Y-11757500D02*
G75*
G03*
X24422500Y-11757500I-22500J0D01*
G01*
D11*
X24440000Y-11735000D02*
X24360000Y-11735000D01*
X24440000Y-11780000D02*
X24360000Y-11780000D01*
X24360000Y-11735000D02*
G75*
G03*
X24360000Y-11780000I0J-22500D01*
G01*
X24440000Y-11780000D02*
G75*
G03*
X24440000Y-11735000I0J22500D01*
G01*
D14*
X22136000Y-10225500D02*
X22136000Y-10314500D01*
X22091500Y-10270000D02*
X22180500Y-10270000D01*
X22390000Y-10225500D02*
X22390000Y-10314500D01*
X22345500Y-10270000D02*
X22434500Y-10270000D01*
D15*
X24333588Y-9898588D02*
X24333588Y-9831412D01*
X24266412Y-9831412D01*
X24266412Y-9898588D01*
X24333588Y-9898588D01*
X24333588Y-10148588D02*
X24333588Y-10081412D01*
X24266412Y-10081412D01*
X24266412Y-10148588D01*
X24333588Y-10148588D01*
X24333588Y-10398588D02*
X24333588Y-10331412D01*
X24266412Y-10331412D01*
X24266412Y-10398588D01*
X24333588Y-10398588D01*
X24333588Y-10648588D02*
X24333588Y-10581412D01*
X24266412Y-10581412D01*
X24266412Y-10648588D01*
X24333588Y-10648588D01*
D10*
X21170000Y-9915000D02*
X21220000Y-9865000D01*
X21170000Y-9815000D01*
X21120000Y-9865000D01*
X21170000Y-9915000D01*
X21170000Y-10165000D02*
X21220000Y-10115000D01*
X21170000Y-10065000D01*
X21120000Y-10115000D01*
X21170000Y-10165000D01*
X22755000Y-10687500D02*
X22805000Y-10637500D01*
X22755000Y-10587500D01*
X22705000Y-10637500D01*
X22755000Y-10687500D01*
X23009000Y-10687500D02*
X23059000Y-10637500D01*
X23009000Y-10587500D01*
X22959000Y-10637500D01*
X23009000Y-10687500D01*
X23236000Y-11800000D02*
X23286000Y-11750000D01*
X23236000Y-11700000D01*
X23186000Y-11750000D01*
X23236000Y-11800000D01*
X23425000Y-9230000D02*
X23475000Y-9180000D01*
X23425000Y-9130000D01*
X23375000Y-9180000D01*
X23425000Y-9230000D01*
X23435000Y-10050000D02*
X23485000Y-10000000D01*
X23435000Y-9950000D01*
X23385000Y-10000000D01*
X23435000Y-10050000D01*
X23435000Y-10480000D02*
X23485000Y-10430000D01*
X23435000Y-10380000D01*
X23385000Y-10430000D01*
X23435000Y-10480000D01*
X23490000Y-11800000D02*
X23540000Y-11750000D01*
X23490000Y-11700000D01*
X23440000Y-11750000D01*
X23490000Y-11800000D01*
X23675000Y-9230000D02*
X23725000Y-9180000D01*
X23675000Y-9130000D01*
X23625000Y-9180000D01*
X23675000Y-9230000D01*
X23685000Y-10050000D02*
X23735000Y-10000000D01*
X23685000Y-9950000D01*
X23635000Y-10000000D01*
X23685000Y-10050000D01*
X23685000Y-10480000D02*
X23735000Y-10430000D01*
X23685000Y-10380000D01*
X23635000Y-10430000D01*
X23685000Y-10480000D01*
X23744000Y-11800000D02*
X23794000Y-11750000D01*
X23744000Y-11700000D01*
X23694000Y-11750000D01*
X23744000Y-11800000D01*
D16*
X22416500Y-12132500D02*
X22535500Y-12251500D01*
X22535500Y-12132500D02*
X22416500Y-12251500D01*
X22535500Y-12192000D02*
G75*
G03*
X22535500Y-12192000I-59500J0D01*
G01*
X22670500Y-12132500D02*
X22789500Y-12251500D01*
X22789500Y-12132500D02*
X22670500Y-12251500D01*
X22789500Y-12192000D02*
G75*
G03*
X22789500Y-12192000I-59500J0D01*
G01*
X22924500Y-12132500D02*
X23043500Y-12251500D01*
X23043500Y-12132500D02*
X22924500Y-12251500D01*
X23043500Y-12192000D02*
G75*
G03*
X23043500Y-12192000I-59500J0D01*
G01*
X23236500Y-12132500D02*
X23355500Y-12251500D01*
X23355500Y-12132500D02*
X23236500Y-12251500D01*
X23355500Y-12192000D02*
G75*
G03*
X23355500Y-12192000I-59500J0D01*
G01*
X23490500Y-12132500D02*
X23609500Y-12251500D01*
X23609500Y-12132500D02*
X23490500Y-12251500D01*
X23609500Y-12192000D02*
G75*
G03*
X23609500Y-12192000I-59500J0D01*
G01*
X23744500Y-12132500D02*
X23863500Y-12251500D01*
X23863500Y-12132500D02*
X23744500Y-12251500D01*
X23863500Y-12192000D02*
G75*
G03*
X23863500Y-12192000I-59500J0D01*
G01*
D17*
X21781500Y-9661500D02*
X21982500Y-9862500D01*
X21982500Y-9661500D02*
X21781500Y-9862500D01*
X21882000Y-9661500D02*
X21882000Y-9862500D01*
X21781500Y-9762000D02*
X21982500Y-9762000D01*
X22797500Y-9661500D02*
X22998500Y-9862500D01*
X22998500Y-9661500D02*
X22797500Y-9862500D01*
X22898000Y-9661500D02*
X22898000Y-9862500D01*
X22797500Y-9762000D02*
X22998500Y-9762000D01*
D11*
X21252619Y-12815476D02*
X21252619Y-12615476D01*
X21300238Y-12615476D01*
X21328810Y-12625000D01*
X21347857Y-12644048D01*
X21357381Y-12663095D01*
X21366905Y-12701190D01*
X21366905Y-12729762D01*
X21357381Y-12767857D01*
X21347857Y-12786905D01*
X21328810Y-12805952D01*
X21300238Y-12815476D01*
X21252619Y-12815476D01*
X21452619Y-12815476D02*
X21452619Y-12682143D01*
X21452619Y-12720238D02*
X21462143Y-12701190D01*
X21471667Y-12691667D01*
X21490714Y-12682143D01*
X21509762Y-12682143D01*
X21576429Y-12815476D02*
X21576429Y-12682143D01*
X21576429Y-12615476D02*
X21566905Y-12625000D01*
X21576429Y-12634524D01*
X21585952Y-12625000D01*
X21576429Y-12615476D01*
X21576429Y-12634524D01*
X21700238Y-12815476D02*
X21681190Y-12805952D01*
X21671667Y-12786905D01*
X21671667Y-12615476D01*
X21805000Y-12815476D02*
X21785952Y-12805952D01*
X21776429Y-12786905D01*
X21776429Y-12615476D01*
X22033571Y-12815476D02*
X22033571Y-12615476D01*
X22100238Y-12758333D01*
X22166905Y-12615476D01*
X22166905Y-12815476D01*
X22347857Y-12815476D02*
X22347857Y-12710714D01*
X22338333Y-12691667D01*
X22319286Y-12682143D01*
X22281190Y-12682143D01*
X22262143Y-12691667D01*
X22347857Y-12805952D02*
X22328810Y-12815476D01*
X22281190Y-12815476D01*
X22262143Y-12805952D01*
X22252619Y-12786905D01*
X22252619Y-12767857D01*
X22262143Y-12748809D01*
X22281190Y-12739286D01*
X22328810Y-12739286D01*
X22347857Y-12729762D01*
X22443095Y-12682143D02*
X22443095Y-12882143D01*
X22443095Y-12691667D02*
X22462143Y-12682143D01*
X22500238Y-12682143D01*
X22519286Y-12691667D01*
X22528809Y-12701190D01*
X22538333Y-12720238D01*
X22538333Y-12777381D01*
X22528809Y-12796428D01*
X22519286Y-12805952D01*
X22500238Y-12815476D01*
X22462143Y-12815476D01*
X22443095Y-12805952D01*
X22624048Y-12796428D02*
X22633571Y-12805952D01*
X22624048Y-12815476D01*
X22614524Y-12805952D01*
X22624048Y-12796428D01*
X22624048Y-12815476D01*
X22624048Y-12691667D02*
X22633571Y-12701190D01*
X22624048Y-12710714D01*
X22614524Y-12701190D01*
X22624048Y-12691667D01*
X22624048Y-12710714D01*
D12*
X20975000Y-13135000D02*
X20995000Y-13155000D01*
X20995000Y-13135000D02*
X20975000Y-13155000D01*
D11*
X21290714Y-13035476D02*
X21309762Y-13035476D01*
X21328810Y-13045000D01*
X21338333Y-13054524D01*
X21347857Y-13073571D01*
X21357381Y-13111667D01*
X21357381Y-13159286D01*
X21347857Y-13197381D01*
X21338333Y-13216428D01*
X21328810Y-13225952D01*
X21309762Y-13235476D01*
X21290714Y-13235476D01*
X21271667Y-13225952D01*
X21262143Y-13216428D01*
X21252619Y-13197381D01*
X21243095Y-13159286D01*
X21243095Y-13111667D01*
X21252619Y-13073571D01*
X21262143Y-13054524D01*
X21271667Y-13045000D01*
X21290714Y-13035476D01*
X21443095Y-13216428D02*
X21452619Y-13225952D01*
X21443095Y-13235476D01*
X21433571Y-13225952D01*
X21443095Y-13216428D01*
X21443095Y-13235476D01*
X21528810Y-13054524D02*
X21538333Y-13045000D01*
X21557381Y-13035476D01*
X21605000Y-13035476D01*
X21624048Y-13045000D01*
X21633571Y-13054524D01*
X21643095Y-13073571D01*
X21643095Y-13092619D01*
X21633571Y-13121190D01*
X21519286Y-13235476D01*
X21643095Y-13235476D01*
X21766905Y-13035476D02*
X21785952Y-13035476D01*
X21805000Y-13045000D01*
X21814524Y-13054524D01*
X21824048Y-13073571D01*
X21833571Y-13111667D01*
X21833571Y-13159286D01*
X21824048Y-13197381D01*
X21814524Y-13216428D01*
X21805000Y-13225952D01*
X21785952Y-13235476D01*
X21766905Y-13235476D01*
X21747857Y-13225952D01*
X21738333Y-13216428D01*
X21728810Y-13197381D01*
X21719286Y-13159286D01*
X21719286Y-13111667D01*
X21728810Y-13073571D01*
X21738333Y-13054524D01*
X21747857Y-13045000D01*
X21766905Y-13035476D01*
X21957381Y-13035476D02*
X21976429Y-13035476D01*
X21995476Y-13045000D01*
X22005000Y-13054524D01*
X22014524Y-13073571D01*
X22024048Y-13111667D01*
X22024048Y-13159286D01*
X22014524Y-13197381D01*
X22005000Y-13216428D01*
X21995476Y-13225952D01*
X21976429Y-13235476D01*
X21957381Y-13235476D01*
X21938333Y-13225952D01*
X21928810Y-13216428D01*
X21919286Y-13197381D01*
X21909762Y-13159286D01*
X21909762Y-13111667D01*
X21919286Y-13073571D01*
X21928810Y-13054524D01*
X21938333Y-13045000D01*
X21957381Y-13035476D01*
X22109762Y-13235476D02*
X22109762Y-13102143D01*
X22109762Y-13121190D02*
X22119286Y-13111667D01*
X22138333Y-13102143D01*
X22166905Y-13102143D01*
X22185952Y-13111667D01*
X22195476Y-13130714D01*
X22195476Y-13235476D01*
X22195476Y-13130714D02*
X22205000Y-13111667D01*
X22224048Y-13102143D01*
X22252619Y-13102143D01*
X22271667Y-13111667D01*
X22281190Y-13130714D01*
X22281190Y-13235476D01*
X22376428Y-13235476D02*
X22376428Y-13102143D01*
X22376428Y-13121190D02*
X22385952Y-13111667D01*
X22405000Y-13102143D01*
X22433571Y-13102143D01*
X22452619Y-13111667D01*
X22462143Y-13130714D01*
X22462143Y-13235476D01*
X22462143Y-13130714D02*
X22471667Y-13111667D01*
X22490714Y-13102143D01*
X22519286Y-13102143D01*
X22538333Y-13111667D01*
X22547857Y-13130714D01*
X22547857Y-13235476D01*
X22938333Y-13025952D02*
X22766905Y-13283095D01*
X23195476Y-13035476D02*
X23214524Y-13035476D01*
X23233571Y-13045000D01*
X23243095Y-13054524D01*
X23252619Y-13073571D01*
X23262143Y-13111667D01*
X23262143Y-13159286D01*
X23252619Y-13197381D01*
X23243095Y-13216428D01*
X23233571Y-13225952D01*
X23214524Y-13235476D01*
X23195476Y-13235476D01*
X23176428Y-13225952D01*
X23166905Y-13216428D01*
X23157381Y-13197381D01*
X23147857Y-13159286D01*
X23147857Y-13111667D01*
X23157381Y-13073571D01*
X23166905Y-13054524D01*
X23176428Y-13045000D01*
X23195476Y-13035476D01*
X23347857Y-13216428D02*
X23357381Y-13225952D01*
X23347857Y-13235476D01*
X23338333Y-13225952D01*
X23347857Y-13216428D01*
X23347857Y-13235476D01*
X23481190Y-13035476D02*
X23500238Y-13035476D01*
X23519286Y-13045000D01*
X23528809Y-13054524D01*
X23538333Y-13073571D01*
X23547857Y-13111667D01*
X23547857Y-13159286D01*
X23538333Y-13197381D01*
X23528809Y-13216428D01*
X23519286Y-13225952D01*
X23500238Y-13235476D01*
X23481190Y-13235476D01*
X23462143Y-13225952D01*
X23452619Y-13216428D01*
X23443095Y-13197381D01*
X23433571Y-13159286D01*
X23433571Y-13111667D01*
X23443095Y-13073571D01*
X23452619Y-13054524D01*
X23462143Y-13045000D01*
X23481190Y-13035476D01*
X23671667Y-13035476D02*
X23690714Y-13035476D01*
X23709762Y-13045000D01*
X23719286Y-13054524D01*
X23728809Y-13073571D01*
X23738333Y-13111667D01*
X23738333Y-13159286D01*
X23728809Y-13197381D01*
X23719286Y-13216428D01*
X23709762Y-13225952D01*
X23690714Y-13235476D01*
X23671667Y-13235476D01*
X23652619Y-13225952D01*
X23643095Y-13216428D01*
X23633571Y-13197381D01*
X23624048Y-13159286D01*
X23624048Y-13111667D01*
X23633571Y-13073571D01*
X23643095Y-13054524D01*
X23652619Y-13045000D01*
X23671667Y-13035476D01*
X23805000Y-13035476D02*
X23938333Y-13035476D01*
X23852619Y-13235476D01*
X24024048Y-13235476D02*
X24062143Y-13235476D01*
X24081190Y-13225952D01*
X24090714Y-13216428D01*
X24109762Y-13187857D01*
X24119286Y-13149762D01*
X24119286Y-13073571D01*
X24109762Y-13054524D01*
X24100238Y-13045000D01*
X24081190Y-13035476D01*
X24043095Y-13035476D01*
X24024048Y-13045000D01*
X24014524Y-13054524D01*
X24005000Y-13073571D01*
X24005000Y-13121190D01*
X24014524Y-13140238D01*
X24024048Y-13149762D01*
X24043095Y-13159286D01*
X24081190Y-13159286D01*
X24100238Y-13149762D01*
X24109762Y-13140238D01*
X24119286Y-13121190D01*
X24195476Y-13035476D02*
X24195476Y-13073571D01*
X24271667Y-13035476D02*
X24271667Y-13073571D01*
X24566905Y-13311667D02*
X24557381Y-13302143D01*
X24538333Y-13273571D01*
X24528809Y-13254524D01*
X24519286Y-13225952D01*
X24509762Y-13178333D01*
X24509762Y-13140238D01*
X24519286Y-13092619D01*
X24528809Y-13064048D01*
X24538333Y-13045000D01*
X24557381Y-13016428D01*
X24566905Y-13006905D01*
X24747857Y-13235476D02*
X24633571Y-13235476D01*
X24690714Y-13235476D02*
X24690714Y-13035476D01*
X24671667Y-13064048D01*
X24652619Y-13083095D01*
X24633571Y-13092619D01*
X24871667Y-13035476D02*
X24890714Y-13035476D01*
X24909762Y-13045000D01*
X24919286Y-13054524D01*
X24928809Y-13073571D01*
X24938333Y-13111667D01*
X24938333Y-13159286D01*
X24928809Y-13197381D01*
X24919286Y-13216428D01*
X24909762Y-13225952D01*
X24890714Y-13235476D01*
X24871667Y-13235476D01*
X24852619Y-13225952D01*
X24843095Y-13216428D01*
X24833571Y-13197381D01*
X24824048Y-13159286D01*
X24824048Y-13111667D01*
X24833571Y-13073571D01*
X24843095Y-13054524D01*
X24852619Y-13045000D01*
X24871667Y-13035476D01*
X25033571Y-13235476D02*
X25071667Y-13235476D01*
X25090714Y-13225952D01*
X25100238Y-13216428D01*
X25119286Y-13187857D01*
X25128809Y-13149762D01*
X25128809Y-13073571D01*
X25119286Y-13054524D01*
X25109762Y-13045000D01*
X25090714Y-13035476D01*
X25052619Y-13035476D01*
X25033571Y-13045000D01*
X25024048Y-13054524D01*
X25014524Y-13073571D01*
X25014524Y-13121190D01*
X25024048Y-13140238D01*
X25033571Y-13149762D01*
X25052619Y-13159286D01*
X25090714Y-13159286D01*
X25109762Y-13149762D01*
X25119286Y-13140238D01*
X25128809Y-13121190D01*
X25366905Y-13235476D02*
X25366905Y-13035476D01*
X25452619Y-13235476D02*
X25452619Y-13130714D01*
X25443095Y-13111667D01*
X25424048Y-13102143D01*
X25395476Y-13102143D01*
X25376428Y-13111667D01*
X25366905Y-13121190D01*
X25576428Y-13235476D02*
X25557381Y-13225952D01*
X25547857Y-13216428D01*
X25538333Y-13197381D01*
X25538333Y-13140238D01*
X25547857Y-13121190D01*
X25557381Y-13111667D01*
X25576428Y-13102143D01*
X25605000Y-13102143D01*
X25624048Y-13111667D01*
X25633571Y-13121190D01*
X25643095Y-13140238D01*
X25643095Y-13197381D01*
X25633571Y-13216428D01*
X25624048Y-13225952D01*
X25605000Y-13235476D01*
X25576428Y-13235476D01*
X25757381Y-13235476D02*
X25738333Y-13225952D01*
X25728809Y-13206905D01*
X25728809Y-13035476D01*
X25909762Y-13225952D02*
X25890714Y-13235476D01*
X25852619Y-13235476D01*
X25833571Y-13225952D01*
X25824048Y-13206905D01*
X25824048Y-13130714D01*
X25833571Y-13111667D01*
X25852619Y-13102143D01*
X25890714Y-13102143D01*
X25909762Y-13111667D01*
X25919286Y-13130714D01*
X25919286Y-13149762D01*
X25824048Y-13168809D01*
X25995476Y-13225952D02*
X26014524Y-13235476D01*
X26052619Y-13235476D01*
X26071667Y-13225952D01*
X26081190Y-13206905D01*
X26081190Y-13197381D01*
X26071667Y-13178333D01*
X26052619Y-13168809D01*
X26024048Y-13168809D01*
X26005000Y-13159286D01*
X25995476Y-13140238D01*
X25995476Y-13130714D01*
X26005000Y-13111667D01*
X26024048Y-13102143D01*
X26052619Y-13102143D01*
X26071667Y-13111667D01*
X26147857Y-13311667D02*
X26157381Y-13302143D01*
X26176428Y-13273571D01*
X26185952Y-13254524D01*
X26195476Y-13225952D01*
X26205000Y-13178333D01*
X26205000Y-13140238D01*
X26195476Y-13092619D01*
X26185952Y-13064048D01*
X26176428Y-13045000D01*
X26157381Y-13016428D01*
X26147857Y-13006905D01*
D13*
X20995000Y-13409000D02*
G75*
G03*
X20995000Y-13409000I-22500J0D01*
G01*
D11*
X21290714Y-13299476D02*
X21309762Y-13299476D01*
X21328810Y-13309000D01*
X21338333Y-13318524D01*
X21347857Y-13337571D01*
X21357381Y-13375667D01*
X21357381Y-13423286D01*
X21347857Y-13461381D01*
X21338333Y-13480428D01*
X21328810Y-13489952D01*
X21309762Y-13499476D01*
X21290714Y-13499476D01*
X21271667Y-13489952D01*
X21262143Y-13480428D01*
X21252619Y-13461381D01*
X21243095Y-13423286D01*
X21243095Y-13375667D01*
X21252619Y-13337571D01*
X21262143Y-13318524D01*
X21271667Y-13309000D01*
X21290714Y-13299476D01*
X21443095Y-13480428D02*
X21452619Y-13489952D01*
X21443095Y-13499476D01*
X21433571Y-13489952D01*
X21443095Y-13480428D01*
X21443095Y-13499476D01*
X21624048Y-13366143D02*
X21624048Y-13499476D01*
X21576429Y-13289952D02*
X21528810Y-13432809D01*
X21652619Y-13432809D01*
X21824048Y-13299476D02*
X21728810Y-13299476D01*
X21719286Y-13394714D01*
X21728810Y-13385190D01*
X21747857Y-13375667D01*
X21795476Y-13375667D01*
X21814524Y-13385190D01*
X21824048Y-13394714D01*
X21833571Y-13413762D01*
X21833571Y-13461381D01*
X21824048Y-13480428D01*
X21814524Y-13489952D01*
X21795476Y-13499476D01*
X21747857Y-13499476D01*
X21728810Y-13489952D01*
X21719286Y-13480428D01*
X21957381Y-13299476D02*
X21976429Y-13299476D01*
X21995476Y-13309000D01*
X22005000Y-13318524D01*
X22014524Y-13337571D01*
X22024048Y-13375667D01*
X22024048Y-13423286D01*
X22014524Y-13461381D01*
X22005000Y-13480428D01*
X21995476Y-13489952D01*
X21976429Y-13499476D01*
X21957381Y-13499476D01*
X21938333Y-13489952D01*
X21928810Y-13480428D01*
X21919286Y-13461381D01*
X21909762Y-13423286D01*
X21909762Y-13375667D01*
X21919286Y-13337571D01*
X21928810Y-13318524D01*
X21938333Y-13309000D01*
X21957381Y-13299476D01*
X22109762Y-13499476D02*
X22109762Y-13366143D01*
X22109762Y-13385190D02*
X22119286Y-13375667D01*
X22138333Y-13366143D01*
X22166905Y-13366143D01*
X22185952Y-13375667D01*
X22195476Y-13394714D01*
X22195476Y-13499476D01*
X22195476Y-13394714D02*
X22205000Y-13375667D01*
X22224048Y-13366143D01*
X22252619Y-13366143D01*
X22271667Y-13375667D01*
X22281190Y-13394714D01*
X22281190Y-13499476D01*
X22376428Y-13499476D02*
X22376428Y-13366143D01*
X22376428Y-13385190D02*
X22385952Y-13375667D01*
X22405000Y-13366143D01*
X22433571Y-13366143D01*
X22452619Y-13375667D01*
X22462143Y-13394714D01*
X22462143Y-13499476D01*
X22462143Y-13394714D02*
X22471667Y-13375667D01*
X22490714Y-13366143D01*
X22519286Y-13366143D01*
X22538333Y-13375667D01*
X22547857Y-13394714D01*
X22547857Y-13499476D01*
X22938333Y-13289952D02*
X22766905Y-13547095D01*
X23195476Y-13299476D02*
X23214524Y-13299476D01*
X23233571Y-13309000D01*
X23243095Y-13318524D01*
X23252619Y-13337571D01*
X23262143Y-13375667D01*
X23262143Y-13423286D01*
X23252619Y-13461381D01*
X23243095Y-13480428D01*
X23233571Y-13489952D01*
X23214524Y-13499476D01*
X23195476Y-13499476D01*
X23176428Y-13489952D01*
X23166905Y-13480428D01*
X23157381Y-13461381D01*
X23147857Y-13423286D01*
X23147857Y-13375667D01*
X23157381Y-13337571D01*
X23166905Y-13318524D01*
X23176428Y-13309000D01*
X23195476Y-13299476D01*
X23347857Y-13480428D02*
X23357381Y-13489952D01*
X23347857Y-13499476D01*
X23338333Y-13489952D01*
X23347857Y-13480428D01*
X23347857Y-13499476D01*
X23481190Y-13299476D02*
X23500238Y-13299476D01*
X23519286Y-13309000D01*
X23528809Y-13318524D01*
X23538333Y-13337571D01*
X23547857Y-13375667D01*
X23547857Y-13423286D01*
X23538333Y-13461381D01*
X23528809Y-13480428D01*
X23519286Y-13489952D01*
X23500238Y-13499476D01*
X23481190Y-13499476D01*
X23462143Y-13489952D01*
X23452619Y-13480428D01*
X23443095Y-13461381D01*
X23433571Y-13423286D01*
X23433571Y-13375667D01*
X23443095Y-13337571D01*
X23452619Y-13318524D01*
X23462143Y-13309000D01*
X23481190Y-13299476D01*
X23738333Y-13499476D02*
X23624048Y-13499476D01*
X23681190Y-13499476D02*
X23681190Y-13299476D01*
X23662143Y-13328048D01*
X23643095Y-13347095D01*
X23624048Y-13356619D01*
X23805000Y-13299476D02*
X23938333Y-13299476D01*
X23852619Y-13499476D01*
X23995476Y-13299476D02*
X24128809Y-13299476D01*
X24043095Y-13499476D01*
X24195476Y-13299476D02*
X24195476Y-13337571D01*
X24271667Y-13299476D02*
X24271667Y-13337571D01*
X24566905Y-13575667D02*
X24557381Y-13566143D01*
X24538333Y-13537571D01*
X24528809Y-13518524D01*
X24519286Y-13489952D01*
X24509762Y-13442333D01*
X24509762Y-13404238D01*
X24519286Y-13356619D01*
X24528809Y-13328048D01*
X24538333Y-13309000D01*
X24557381Y-13280428D01*
X24566905Y-13270905D01*
X24681190Y-13299476D02*
X24700238Y-13299476D01*
X24719286Y-13309000D01*
X24728809Y-13318524D01*
X24738333Y-13337571D01*
X24747857Y-13375667D01*
X24747857Y-13423286D01*
X24738333Y-13461381D01*
X24728809Y-13480428D01*
X24719286Y-13489952D01*
X24700238Y-13499476D01*
X24681190Y-13499476D01*
X24662143Y-13489952D01*
X24652619Y-13480428D01*
X24643095Y-13461381D01*
X24633571Y-13423286D01*
X24633571Y-13375667D01*
X24643095Y-13337571D01*
X24652619Y-13318524D01*
X24662143Y-13309000D01*
X24681190Y-13299476D01*
X24985952Y-13499476D02*
X24985952Y-13299476D01*
X25071667Y-13499476D02*
X25071667Y-13394714D01*
X25062143Y-13375667D01*
X25043095Y-13366143D01*
X25014524Y-13366143D01*
X24995476Y-13375667D01*
X24985952Y-13385190D01*
X25195476Y-13499476D02*
X25176428Y-13489952D01*
X25166905Y-13480428D01*
X25157381Y-13461381D01*
X25157381Y-13404238D01*
X25166905Y-13385190D01*
X25176428Y-13375667D01*
X25195476Y-13366143D01*
X25224048Y-13366143D01*
X25243095Y-13375667D01*
X25252619Y-13385190D01*
X25262143Y-13404238D01*
X25262143Y-13461381D01*
X25252619Y-13480428D01*
X25243095Y-13489952D01*
X25224048Y-13499476D01*
X25195476Y-13499476D01*
X25376428Y-13499476D02*
X25357381Y-13489952D01*
X25347857Y-13470905D01*
X25347857Y-13299476D01*
X25528809Y-13489952D02*
X25509762Y-13499476D01*
X25471667Y-13499476D01*
X25452619Y-13489952D01*
X25443095Y-13470905D01*
X25443095Y-13394714D01*
X25452619Y-13375667D01*
X25471667Y-13366143D01*
X25509762Y-13366143D01*
X25528809Y-13375667D01*
X25538333Y-13394714D01*
X25538333Y-13413762D01*
X25443095Y-13432809D01*
X25614524Y-13489952D02*
X25633571Y-13499476D01*
X25671667Y-13499476D01*
X25690714Y-13489952D01*
X25700238Y-13470905D01*
X25700238Y-13461381D01*
X25690714Y-13442333D01*
X25671667Y-13432809D01*
X25643095Y-13432809D01*
X25624048Y-13423286D01*
X25614524Y-13404238D01*
X25614524Y-13394714D01*
X25624048Y-13375667D01*
X25643095Y-13366143D01*
X25671667Y-13366143D01*
X25690714Y-13375667D01*
X25938333Y-13423286D02*
X26090714Y-13423286D01*
X26014524Y-13499476D02*
X26014524Y-13347095D01*
X26328809Y-13318524D02*
X26338333Y-13309000D01*
X26357381Y-13299476D01*
X26405000Y-13299476D01*
X26424048Y-13309000D01*
X26433571Y-13318524D01*
X26443095Y-13337571D01*
X26443095Y-13356619D01*
X26433571Y-13385190D01*
X26319286Y-13499476D01*
X26443095Y-13499476D01*
X26671667Y-13489952D02*
X26690714Y-13499476D01*
X26728809Y-13499476D01*
X26747857Y-13489952D01*
X26757381Y-13470905D01*
X26757381Y-13461381D01*
X26747857Y-13442333D01*
X26728809Y-13432809D01*
X26700238Y-13432809D01*
X26681190Y-13423286D01*
X26671667Y-13404238D01*
X26671667Y-13394714D01*
X26681190Y-13375667D01*
X26700238Y-13366143D01*
X26728809Y-13366143D01*
X26747857Y-13375667D01*
X26871667Y-13499476D02*
X26852619Y-13489952D01*
X26843095Y-13470905D01*
X26843095Y-13299476D01*
X26976428Y-13499476D02*
X26957381Y-13489952D01*
X26947857Y-13480428D01*
X26938333Y-13461381D01*
X26938333Y-13404238D01*
X26947857Y-13385190D01*
X26957381Y-13375667D01*
X26976428Y-13366143D01*
X27005000Y-13366143D01*
X27024048Y-13375667D01*
X27033571Y-13385190D01*
X27043095Y-13404238D01*
X27043095Y-13461381D01*
X27033571Y-13480428D01*
X27024048Y-13489952D01*
X27005000Y-13499476D01*
X26976428Y-13499476D01*
X27100238Y-13366143D02*
X27176428Y-13366143D01*
X27128809Y-13299476D02*
X27128809Y-13470905D01*
X27138333Y-13489952D01*
X27157381Y-13499476D01*
X27176428Y-13499476D01*
X27233571Y-13489952D02*
X27252619Y-13499476D01*
X27290714Y-13499476D01*
X27309762Y-13489952D01*
X27319286Y-13470905D01*
X27319286Y-13461381D01*
X27309762Y-13442333D01*
X27290714Y-13432809D01*
X27262143Y-13432809D01*
X27243095Y-13423286D01*
X27233571Y-13404238D01*
X27233571Y-13394714D01*
X27243095Y-13375667D01*
X27262143Y-13366143D01*
X27290714Y-13366143D01*
X27309762Y-13375667D01*
X27385952Y-13575667D02*
X27395476Y-13566143D01*
X27414524Y-13537571D01*
X27424048Y-13518524D01*
X27433571Y-13489952D01*
X27443095Y-13442333D01*
X27443095Y-13404238D01*
X27433571Y-13356619D01*
X27424048Y-13328048D01*
X27414524Y-13309000D01*
X27395476Y-13280428D01*
X27385952Y-13270905D01*
D14*
X20950500Y-13628500D02*
X20950500Y-13717500D01*
X20906000Y-13673000D02*
X20995000Y-13673000D01*
D11*
X21290714Y-13563476D02*
X21309762Y-13563476D01*
X21328810Y-13573000D01*
X21338333Y-13582524D01*
X21347857Y-13601571D01*
X21357381Y-13639667D01*
X21357381Y-13687286D01*
X21347857Y-13725381D01*
X21338333Y-13744428D01*
X21328810Y-13753952D01*
X21309762Y-13763476D01*
X21290714Y-13763476D01*
X21271667Y-13753952D01*
X21262143Y-13744428D01*
X21252619Y-13725381D01*
X21243095Y-13687286D01*
X21243095Y-13639667D01*
X21252619Y-13601571D01*
X21262143Y-13582524D01*
X21271667Y-13573000D01*
X21290714Y-13563476D01*
X21443095Y-13744428D02*
X21452619Y-13753952D01*
X21443095Y-13763476D01*
X21433571Y-13753952D01*
X21443095Y-13744428D01*
X21443095Y-13763476D01*
X21566905Y-13649190D02*
X21547857Y-13639667D01*
X21538333Y-13630143D01*
X21528810Y-13611095D01*
X21528810Y-13601571D01*
X21538333Y-13582524D01*
X21547857Y-13573000D01*
X21566905Y-13563476D01*
X21605000Y-13563476D01*
X21624048Y-13573000D01*
X21633571Y-13582524D01*
X21643095Y-13601571D01*
X21643095Y-13611095D01*
X21633571Y-13630143D01*
X21624048Y-13639667D01*
X21605000Y-13649190D01*
X21566905Y-13649190D01*
X21547857Y-13658714D01*
X21538333Y-13668238D01*
X21528810Y-13687286D01*
X21528810Y-13725381D01*
X21538333Y-13744428D01*
X21547857Y-13753952D01*
X21566905Y-13763476D01*
X21605000Y-13763476D01*
X21624048Y-13753952D01*
X21633571Y-13744428D01*
X21643095Y-13725381D01*
X21643095Y-13687286D01*
X21633571Y-13668238D01*
X21624048Y-13658714D01*
X21605000Y-13649190D01*
X21738333Y-13763476D02*
X21776429Y-13763476D01*
X21795476Y-13753952D01*
X21805000Y-13744428D01*
X21824048Y-13715857D01*
X21833571Y-13677762D01*
X21833571Y-13601571D01*
X21824048Y-13582524D01*
X21814524Y-13573000D01*
X21795476Y-13563476D01*
X21757381Y-13563476D01*
X21738333Y-13573000D01*
X21728810Y-13582524D01*
X21719286Y-13601571D01*
X21719286Y-13649190D01*
X21728810Y-13668238D01*
X21738333Y-13677762D01*
X21757381Y-13687286D01*
X21795476Y-13687286D01*
X21814524Y-13677762D01*
X21824048Y-13668238D01*
X21833571Y-13649190D01*
X21957381Y-13563476D02*
X21976429Y-13563476D01*
X21995476Y-13573000D01*
X22005000Y-13582524D01*
X22014524Y-13601571D01*
X22024048Y-13639667D01*
X22024048Y-13687286D01*
X22014524Y-13725381D01*
X22005000Y-13744428D01*
X21995476Y-13753952D01*
X21976429Y-13763476D01*
X21957381Y-13763476D01*
X21938333Y-13753952D01*
X21928810Y-13744428D01*
X21919286Y-13725381D01*
X21909762Y-13687286D01*
X21909762Y-13639667D01*
X21919286Y-13601571D01*
X21928810Y-13582524D01*
X21938333Y-13573000D01*
X21957381Y-13563476D01*
X22109762Y-13763476D02*
X22109762Y-13630143D01*
X22109762Y-13649190D02*
X22119286Y-13639667D01*
X22138333Y-13630143D01*
X22166905Y-13630143D01*
X22185952Y-13639667D01*
X22195476Y-13658714D01*
X22195476Y-13763476D01*
X22195476Y-13658714D02*
X22205000Y-13639667D01*
X22224048Y-13630143D01*
X22252619Y-13630143D01*
X22271667Y-13639667D01*
X22281190Y-13658714D01*
X22281190Y-13763476D01*
X22376428Y-13763476D02*
X22376428Y-13630143D01*
X22376428Y-13649190D02*
X22385952Y-13639667D01*
X22405000Y-13630143D01*
X22433571Y-13630143D01*
X22452619Y-13639667D01*
X22462143Y-13658714D01*
X22462143Y-13763476D01*
X22462143Y-13658714D02*
X22471667Y-13639667D01*
X22490714Y-13630143D01*
X22519286Y-13630143D01*
X22538333Y-13639667D01*
X22547857Y-13658714D01*
X22547857Y-13763476D01*
X22938333Y-13553952D02*
X22766905Y-13811095D01*
X23195476Y-13563476D02*
X23214524Y-13563476D01*
X23233571Y-13573000D01*
X23243095Y-13582524D01*
X23252619Y-13601571D01*
X23262143Y-13639667D01*
X23262143Y-13687286D01*
X23252619Y-13725381D01*
X23243095Y-13744428D01*
X23233571Y-13753952D01*
X23214524Y-13763476D01*
X23195476Y-13763476D01*
X23176428Y-13753952D01*
X23166905Y-13744428D01*
X23157381Y-13725381D01*
X23147857Y-13687286D01*
X23147857Y-13639667D01*
X23157381Y-13601571D01*
X23166905Y-13582524D01*
X23176428Y-13573000D01*
X23195476Y-13563476D01*
X23347857Y-13744428D02*
X23357381Y-13753952D01*
X23347857Y-13763476D01*
X23338333Y-13753952D01*
X23347857Y-13744428D01*
X23347857Y-13763476D01*
X23481190Y-13563476D02*
X23500238Y-13563476D01*
X23519286Y-13573000D01*
X23528809Y-13582524D01*
X23538333Y-13601571D01*
X23547857Y-13639667D01*
X23547857Y-13687286D01*
X23538333Y-13725381D01*
X23528809Y-13744428D01*
X23519286Y-13753952D01*
X23500238Y-13763476D01*
X23481190Y-13763476D01*
X23462143Y-13753952D01*
X23452619Y-13744428D01*
X23443095Y-13725381D01*
X23433571Y-13687286D01*
X23433571Y-13639667D01*
X23443095Y-13601571D01*
X23452619Y-13582524D01*
X23462143Y-13573000D01*
X23481190Y-13563476D01*
X23614524Y-13563476D02*
X23738333Y-13563476D01*
X23671667Y-13639667D01*
X23700238Y-13639667D01*
X23719286Y-13649190D01*
X23728809Y-13658714D01*
X23738333Y-13677762D01*
X23738333Y-13725381D01*
X23728809Y-13744428D01*
X23719286Y-13753952D01*
X23700238Y-13763476D01*
X23643095Y-13763476D01*
X23624048Y-13753952D01*
X23614524Y-13744428D01*
X23919286Y-13563476D02*
X23824048Y-13563476D01*
X23814524Y-13658714D01*
X23824048Y-13649190D01*
X23843095Y-13639667D01*
X23890714Y-13639667D01*
X23909762Y-13649190D01*
X23919286Y-13658714D01*
X23928809Y-13677762D01*
X23928809Y-13725381D01*
X23919286Y-13744428D01*
X23909762Y-13753952D01*
X23890714Y-13763476D01*
X23843095Y-13763476D01*
X23824048Y-13753952D01*
X23814524Y-13744428D01*
X24052619Y-13563476D02*
X24071667Y-13563476D01*
X24090714Y-13573000D01*
X24100238Y-13582524D01*
X24109762Y-13601571D01*
X24119286Y-13639667D01*
X24119286Y-13687286D01*
X24109762Y-13725381D01*
X24100238Y-13744428D01*
X24090714Y-13753952D01*
X24071667Y-13763476D01*
X24052619Y-13763476D01*
X24033571Y-13753952D01*
X24024048Y-13744428D01*
X24014524Y-13725381D01*
X24005000Y-13687286D01*
X24005000Y-13639667D01*
X24014524Y-13601571D01*
X24024048Y-13582524D01*
X24033571Y-13573000D01*
X24052619Y-13563476D01*
X24195476Y-13563476D02*
X24195476Y-13601571D01*
X24271667Y-13563476D02*
X24271667Y-13601571D01*
X24566905Y-13839667D02*
X24557381Y-13830143D01*
X24538333Y-13801571D01*
X24528809Y-13782524D01*
X24519286Y-13753952D01*
X24509762Y-13706333D01*
X24509762Y-13668238D01*
X24519286Y-13620619D01*
X24528809Y-13592048D01*
X24538333Y-13573000D01*
X24557381Y-13544428D01*
X24566905Y-13534905D01*
X24633571Y-13582524D02*
X24643095Y-13573000D01*
X24662143Y-13563476D01*
X24709762Y-13563476D01*
X24728809Y-13573000D01*
X24738333Y-13582524D01*
X24747857Y-13601571D01*
X24747857Y-13620619D01*
X24738333Y-13649190D01*
X24624048Y-13763476D01*
X24747857Y-13763476D01*
X24985952Y-13763476D02*
X24985952Y-13563476D01*
X25071667Y-13763476D02*
X25071667Y-13658714D01*
X25062143Y-13639667D01*
X25043095Y-13630143D01*
X25014524Y-13630143D01*
X24995476Y-13639667D01*
X24985952Y-13649190D01*
X25195476Y-13763476D02*
X25176428Y-13753952D01*
X25166905Y-13744428D01*
X25157381Y-13725381D01*
X25157381Y-13668238D01*
X25166905Y-13649190D01*
X25176428Y-13639667D01*
X25195476Y-13630143D01*
X25224048Y-13630143D01*
X25243095Y-13639667D01*
X25252619Y-13649190D01*
X25262143Y-13668238D01*
X25262143Y-13725381D01*
X25252619Y-13744428D01*
X25243095Y-13753952D01*
X25224048Y-13763476D01*
X25195476Y-13763476D01*
X25376428Y-13763476D02*
X25357381Y-13753952D01*
X25347857Y-13734905D01*
X25347857Y-13563476D01*
X25528809Y-13753952D02*
X25509762Y-13763476D01*
X25471667Y-13763476D01*
X25452619Y-13753952D01*
X25443095Y-13734905D01*
X25443095Y-13658714D01*
X25452619Y-13639667D01*
X25471667Y-13630143D01*
X25509762Y-13630143D01*
X25528809Y-13639667D01*
X25538333Y-13658714D01*
X25538333Y-13677762D01*
X25443095Y-13696809D01*
X25614524Y-13753952D02*
X25633571Y-13763476D01*
X25671667Y-13763476D01*
X25690714Y-13753952D01*
X25700238Y-13734905D01*
X25700238Y-13725381D01*
X25690714Y-13706333D01*
X25671667Y-13696809D01*
X25643095Y-13696809D01*
X25624048Y-13687286D01*
X25614524Y-13668238D01*
X25614524Y-13658714D01*
X25624048Y-13639667D01*
X25643095Y-13630143D01*
X25671667Y-13630143D01*
X25690714Y-13639667D01*
X25766905Y-13839667D02*
X25776428Y-13830143D01*
X25795476Y-13801571D01*
X25805000Y-13782524D01*
X25814524Y-13753952D01*
X25824048Y-13706333D01*
X25824048Y-13668238D01*
X25814524Y-13620619D01*
X25805000Y-13592048D01*
X25795476Y-13573000D01*
X25776428Y-13544428D01*
X25766905Y-13534905D01*
D15*
X20981088Y-13970588D02*
X20981088Y-13903412D01*
X20913912Y-13903412D01*
X20913912Y-13970588D01*
X20981088Y-13970588D01*
D11*
X21290714Y-13827476D02*
X21309762Y-13827476D01*
X21328810Y-13837000D01*
X21338333Y-13846524D01*
X21347857Y-13865571D01*
X21357381Y-13903667D01*
X21357381Y-13951286D01*
X21347857Y-13989381D01*
X21338333Y-14008428D01*
X21328810Y-14017952D01*
X21309762Y-14027476D01*
X21290714Y-14027476D01*
X21271667Y-14017952D01*
X21262143Y-14008428D01*
X21252619Y-13989381D01*
X21243095Y-13951286D01*
X21243095Y-13903667D01*
X21252619Y-13865571D01*
X21262143Y-13846524D01*
X21271667Y-13837000D01*
X21290714Y-13827476D01*
X21443095Y-14008428D02*
X21452619Y-14017952D01*
X21443095Y-14027476D01*
X21433571Y-14017952D01*
X21443095Y-14008428D01*
X21443095Y-14027476D01*
X21547857Y-14027476D02*
X21585952Y-14027476D01*
X21605000Y-14017952D01*
X21614524Y-14008428D01*
X21633571Y-13979857D01*
X21643095Y-13941762D01*
X21643095Y-13865571D01*
X21633571Y-13846524D01*
X21624048Y-13837000D01*
X21605000Y-13827476D01*
X21566905Y-13827476D01*
X21547857Y-13837000D01*
X21538333Y-13846524D01*
X21528810Y-13865571D01*
X21528810Y-13913190D01*
X21538333Y-13932238D01*
X21547857Y-13941762D01*
X21566905Y-13951286D01*
X21605000Y-13951286D01*
X21624048Y-13941762D01*
X21633571Y-13932238D01*
X21643095Y-13913190D01*
X21824048Y-13827476D02*
X21728810Y-13827476D01*
X21719286Y-13922714D01*
X21728810Y-13913190D01*
X21747857Y-13903667D01*
X21795476Y-13903667D01*
X21814524Y-13913190D01*
X21824048Y-13922714D01*
X21833571Y-13941762D01*
X21833571Y-13989381D01*
X21824048Y-14008428D01*
X21814524Y-14017952D01*
X21795476Y-14027476D01*
X21747857Y-14027476D01*
X21728810Y-14017952D01*
X21719286Y-14008428D01*
X21957381Y-13827476D02*
X21976429Y-13827476D01*
X21995476Y-13837000D01*
X22005000Y-13846524D01*
X22014524Y-13865571D01*
X22024048Y-13903667D01*
X22024048Y-13951286D01*
X22014524Y-13989381D01*
X22005000Y-14008428D01*
X21995476Y-14017952D01*
X21976429Y-14027476D01*
X21957381Y-14027476D01*
X21938333Y-14017952D01*
X21928810Y-14008428D01*
X21919286Y-13989381D01*
X21909762Y-13951286D01*
X21909762Y-13903667D01*
X21919286Y-13865571D01*
X21928810Y-13846524D01*
X21938333Y-13837000D01*
X21957381Y-13827476D01*
X22109762Y-14027476D02*
X22109762Y-13894143D01*
X22109762Y-13913190D02*
X22119286Y-13903667D01*
X22138333Y-13894143D01*
X22166905Y-13894143D01*
X22185952Y-13903667D01*
X22195476Y-13922714D01*
X22195476Y-14027476D01*
X22195476Y-13922714D02*
X22205000Y-13903667D01*
X22224048Y-13894143D01*
X22252619Y-13894143D01*
X22271667Y-13903667D01*
X22281190Y-13922714D01*
X22281190Y-14027476D01*
X22376428Y-14027476D02*
X22376428Y-13894143D01*
X22376428Y-13913190D02*
X22385952Y-13903667D01*
X22405000Y-13894143D01*
X22433571Y-13894143D01*
X22452619Y-13903667D01*
X22462143Y-13922714D01*
X22462143Y-14027476D01*
X22462143Y-13922714D02*
X22471667Y-13903667D01*
X22490714Y-13894143D01*
X22519286Y-13894143D01*
X22538333Y-13903667D01*
X22547857Y-13922714D01*
X22547857Y-14027476D01*
X22938333Y-13817952D02*
X22766905Y-14075095D01*
X23195476Y-13827476D02*
X23214524Y-13827476D01*
X23233571Y-13837000D01*
X23243095Y-13846524D01*
X23252619Y-13865571D01*
X23262143Y-13903667D01*
X23262143Y-13951286D01*
X23252619Y-13989381D01*
X23243095Y-14008428D01*
X23233571Y-14017952D01*
X23214524Y-14027476D01*
X23195476Y-14027476D01*
X23176428Y-14017952D01*
X23166905Y-14008428D01*
X23157381Y-13989381D01*
X23147857Y-13951286D01*
X23147857Y-13903667D01*
X23157381Y-13865571D01*
X23166905Y-13846524D01*
X23176428Y-13837000D01*
X23195476Y-13827476D01*
X23347857Y-14008428D02*
X23357381Y-14017952D01*
X23347857Y-14027476D01*
X23338333Y-14017952D01*
X23347857Y-14008428D01*
X23347857Y-14027476D01*
X23481190Y-13827476D02*
X23500238Y-13827476D01*
X23519286Y-13837000D01*
X23528809Y-13846524D01*
X23538333Y-13865571D01*
X23547857Y-13903667D01*
X23547857Y-13951286D01*
X23538333Y-13989381D01*
X23528809Y-14008428D01*
X23519286Y-14017952D01*
X23500238Y-14027476D01*
X23481190Y-14027476D01*
X23462143Y-14017952D01*
X23452619Y-14008428D01*
X23443095Y-13989381D01*
X23433571Y-13951286D01*
X23433571Y-13903667D01*
X23443095Y-13865571D01*
X23452619Y-13846524D01*
X23462143Y-13837000D01*
X23481190Y-13827476D01*
X23614524Y-13827476D02*
X23738333Y-13827476D01*
X23671667Y-13903667D01*
X23700238Y-13903667D01*
X23719286Y-13913190D01*
X23728809Y-13922714D01*
X23738333Y-13941762D01*
X23738333Y-13989381D01*
X23728809Y-14008428D01*
X23719286Y-14017952D01*
X23700238Y-14027476D01*
X23643095Y-14027476D01*
X23624048Y-14017952D01*
X23614524Y-14008428D01*
X23805000Y-13827476D02*
X23938333Y-13827476D01*
X23852619Y-14027476D01*
X24100238Y-13894143D02*
X24100238Y-14027476D01*
X24052619Y-13817952D02*
X24005000Y-13960809D01*
X24128809Y-13960809D01*
X24195476Y-13827476D02*
X24195476Y-13865571D01*
X24271667Y-13827476D02*
X24271667Y-13865571D01*
X24566905Y-14103667D02*
X24557381Y-14094143D01*
X24538333Y-14065571D01*
X24528809Y-14046524D01*
X24519286Y-14017952D01*
X24509762Y-13970333D01*
X24509762Y-13932238D01*
X24519286Y-13884619D01*
X24528809Y-13856048D01*
X24538333Y-13837000D01*
X24557381Y-13808428D01*
X24566905Y-13798905D01*
X24728809Y-13894143D02*
X24728809Y-14027476D01*
X24681190Y-13817952D02*
X24633571Y-13960809D01*
X24757381Y-13960809D01*
X24985952Y-14027476D02*
X24985952Y-13827476D01*
X25071667Y-14027476D02*
X25071667Y-13922714D01*
X25062143Y-13903667D01*
X25043095Y-13894143D01*
X25014524Y-13894143D01*
X24995476Y-13903667D01*
X24985952Y-13913190D01*
X25195476Y-14027476D02*
X25176428Y-14017952D01*
X25166905Y-14008428D01*
X25157381Y-13989381D01*
X25157381Y-13932238D01*
X25166905Y-13913190D01*
X25176428Y-13903667D01*
X25195476Y-13894143D01*
X25224048Y-13894143D01*
X25243095Y-13903667D01*
X25252619Y-13913190D01*
X25262143Y-13932238D01*
X25262143Y-13989381D01*
X25252619Y-14008428D01*
X25243095Y-14017952D01*
X25224048Y-14027476D01*
X25195476Y-14027476D01*
X25376428Y-14027476D02*
X25357381Y-14017952D01*
X25347857Y-13998905D01*
X25347857Y-13827476D01*
X25528809Y-14017952D02*
X25509762Y-14027476D01*
X25471667Y-14027476D01*
X25452619Y-14017952D01*
X25443095Y-13998905D01*
X25443095Y-13922714D01*
X25452619Y-13903667D01*
X25471667Y-13894143D01*
X25509762Y-13894143D01*
X25528809Y-13903667D01*
X25538333Y-13922714D01*
X25538333Y-13941762D01*
X25443095Y-13960809D01*
X25614524Y-14017952D02*
X25633571Y-14027476D01*
X25671667Y-14027476D01*
X25690714Y-14017952D01*
X25700238Y-13998905D01*
X25700238Y-13989381D01*
X25690714Y-13970333D01*
X25671667Y-13960809D01*
X25643095Y-13960809D01*
X25624048Y-13951286D01*
X25614524Y-13932238D01*
X25614524Y-13922714D01*
X25624048Y-13903667D01*
X25643095Y-13894143D01*
X25671667Y-13894143D01*
X25690714Y-13903667D01*
X25766905Y-14103667D02*
X25776428Y-14094143D01*
X25795476Y-14065571D01*
X25805000Y-14046524D01*
X25814524Y-14017952D01*
X25824048Y-13970333D01*
X25824048Y-13932238D01*
X25814524Y-13884619D01*
X25805000Y-13856048D01*
X25795476Y-13837000D01*
X25776428Y-13808428D01*
X25766905Y-13798905D01*
D10*
X20945000Y-14251000D02*
X20995000Y-14201000D01*
X20945000Y-14151000D01*
X20895000Y-14201000D01*
X20945000Y-14251000D01*
D11*
X21357381Y-14291476D02*
X21243095Y-14291476D01*
X21300238Y-14291476D02*
X21300238Y-14091476D01*
X21281190Y-14120048D01*
X21262143Y-14139095D01*
X21243095Y-14148619D01*
X21443095Y-14272428D02*
X21452619Y-14281952D01*
X21443095Y-14291476D01*
X21433571Y-14281952D01*
X21443095Y-14272428D01*
X21443095Y-14291476D01*
X21576429Y-14091476D02*
X21595476Y-14091476D01*
X21614524Y-14101000D01*
X21624048Y-14110524D01*
X21633571Y-14129571D01*
X21643095Y-14167667D01*
X21643095Y-14215286D01*
X21633571Y-14253381D01*
X21624048Y-14272428D01*
X21614524Y-14281952D01*
X21595476Y-14291476D01*
X21576429Y-14291476D01*
X21557381Y-14281952D01*
X21547857Y-14272428D01*
X21538333Y-14253381D01*
X21528810Y-14215286D01*
X21528810Y-14167667D01*
X21538333Y-14129571D01*
X21547857Y-14110524D01*
X21557381Y-14101000D01*
X21576429Y-14091476D01*
X21766905Y-14091476D02*
X21785952Y-14091476D01*
X21805000Y-14101000D01*
X21814524Y-14110524D01*
X21824048Y-14129571D01*
X21833571Y-14167667D01*
X21833571Y-14215286D01*
X21824048Y-14253381D01*
X21814524Y-14272428D01*
X21805000Y-14281952D01*
X21785952Y-14291476D01*
X21766905Y-14291476D01*
X21747857Y-14281952D01*
X21738333Y-14272428D01*
X21728810Y-14253381D01*
X21719286Y-14215286D01*
X21719286Y-14167667D01*
X21728810Y-14129571D01*
X21738333Y-14110524D01*
X21747857Y-14101000D01*
X21766905Y-14091476D01*
X21957381Y-14091476D02*
X21976429Y-14091476D01*
X21995476Y-14101000D01*
X22005000Y-14110524D01*
X22014524Y-14129571D01*
X22024048Y-14167667D01*
X22024048Y-14215286D01*
X22014524Y-14253381D01*
X22005000Y-14272428D01*
X21995476Y-14281952D01*
X21976429Y-14291476D01*
X21957381Y-14291476D01*
X21938333Y-14281952D01*
X21928810Y-14272428D01*
X21919286Y-14253381D01*
X21909762Y-14215286D01*
X21909762Y-14167667D01*
X21919286Y-14129571D01*
X21928810Y-14110524D01*
X21938333Y-14101000D01*
X21957381Y-14091476D01*
X22109762Y-14291476D02*
X22109762Y-14158143D01*
X22109762Y-14177190D02*
X22119286Y-14167667D01*
X22138333Y-14158143D01*
X22166905Y-14158143D01*
X22185952Y-14167667D01*
X22195476Y-14186714D01*
X22195476Y-14291476D01*
X22195476Y-14186714D02*
X22205000Y-14167667D01*
X22224048Y-14158143D01*
X22252619Y-14158143D01*
X22271667Y-14167667D01*
X22281190Y-14186714D01*
X22281190Y-14291476D01*
X22376428Y-14291476D02*
X22376428Y-14158143D01*
X22376428Y-14177190D02*
X22385952Y-14167667D01*
X22405000Y-14158143D01*
X22433571Y-14158143D01*
X22452619Y-14167667D01*
X22462143Y-14186714D01*
X22462143Y-14291476D01*
X22462143Y-14186714D02*
X22471667Y-14167667D01*
X22490714Y-14158143D01*
X22519286Y-14158143D01*
X22538333Y-14167667D01*
X22547857Y-14186714D01*
X22547857Y-14291476D01*
X22938333Y-14081952D02*
X22766905Y-14339095D01*
X23195476Y-14091476D02*
X23214524Y-14091476D01*
X23233571Y-14101000D01*
X23243095Y-14110524D01*
X23252619Y-14129571D01*
X23262143Y-14167667D01*
X23262143Y-14215286D01*
X23252619Y-14253381D01*
X23243095Y-14272428D01*
X23233571Y-14281952D01*
X23214524Y-14291476D01*
X23195476Y-14291476D01*
X23176428Y-14281952D01*
X23166905Y-14272428D01*
X23157381Y-14253381D01*
X23147857Y-14215286D01*
X23147857Y-14167667D01*
X23157381Y-14129571D01*
X23166905Y-14110524D01*
X23176428Y-14101000D01*
X23195476Y-14091476D01*
X23347857Y-14272428D02*
X23357381Y-14281952D01*
X23347857Y-14291476D01*
X23338333Y-14281952D01*
X23347857Y-14272428D01*
X23347857Y-14291476D01*
X23481190Y-14091476D02*
X23500238Y-14091476D01*
X23519286Y-14101000D01*
X23528809Y-14110524D01*
X23538333Y-14129571D01*
X23547857Y-14167667D01*
X23547857Y-14215286D01*
X23538333Y-14253381D01*
X23528809Y-14272428D01*
X23519286Y-14281952D01*
X23500238Y-14291476D01*
X23481190Y-14291476D01*
X23462143Y-14281952D01*
X23452619Y-14272428D01*
X23443095Y-14253381D01*
X23433571Y-14215286D01*
X23433571Y-14167667D01*
X23443095Y-14129571D01*
X23452619Y-14110524D01*
X23462143Y-14101000D01*
X23481190Y-14091476D01*
X23614524Y-14091476D02*
X23738333Y-14091476D01*
X23671667Y-14167667D01*
X23700238Y-14167667D01*
X23719286Y-14177190D01*
X23728809Y-14186714D01*
X23738333Y-14205762D01*
X23738333Y-14253381D01*
X23728809Y-14272428D01*
X23719286Y-14281952D01*
X23700238Y-14291476D01*
X23643095Y-14291476D01*
X23624048Y-14281952D01*
X23614524Y-14272428D01*
X23833571Y-14291476D02*
X23871667Y-14291476D01*
X23890714Y-14281952D01*
X23900238Y-14272428D01*
X23919286Y-14243857D01*
X23928809Y-14205762D01*
X23928809Y-14129571D01*
X23919286Y-14110524D01*
X23909762Y-14101000D01*
X23890714Y-14091476D01*
X23852619Y-14091476D01*
X23833571Y-14101000D01*
X23824048Y-14110524D01*
X23814524Y-14129571D01*
X23814524Y-14177190D01*
X23824048Y-14196238D01*
X23833571Y-14205762D01*
X23852619Y-14215286D01*
X23890714Y-14215286D01*
X23909762Y-14205762D01*
X23919286Y-14196238D01*
X23928809Y-14177190D01*
X24100238Y-14158143D02*
X24100238Y-14291476D01*
X24052619Y-14081952D02*
X24005000Y-14224809D01*
X24128809Y-14224809D01*
X24195476Y-14091476D02*
X24195476Y-14129571D01*
X24271667Y-14091476D02*
X24271667Y-14129571D01*
X24566905Y-14367667D02*
X24557381Y-14358143D01*
X24538333Y-14329571D01*
X24528809Y-14310524D01*
X24519286Y-14281952D01*
X24509762Y-14234333D01*
X24509762Y-14196238D01*
X24519286Y-14148619D01*
X24528809Y-14120048D01*
X24538333Y-14101000D01*
X24557381Y-14072428D01*
X24566905Y-14062905D01*
X24747857Y-14291476D02*
X24633571Y-14291476D01*
X24690714Y-14291476D02*
X24690714Y-14091476D01*
X24671667Y-14120048D01*
X24652619Y-14139095D01*
X24633571Y-14148619D01*
X24814524Y-14091476D02*
X24938333Y-14091476D01*
X24871667Y-14167667D01*
X24900238Y-14167667D01*
X24919286Y-14177190D01*
X24928809Y-14186714D01*
X24938333Y-14205762D01*
X24938333Y-14253381D01*
X24928809Y-14272428D01*
X24919286Y-14281952D01*
X24900238Y-14291476D01*
X24843095Y-14291476D01*
X24824048Y-14281952D01*
X24814524Y-14272428D01*
X25176428Y-14291476D02*
X25176428Y-14091476D01*
X25262143Y-14291476D02*
X25262143Y-14186714D01*
X25252619Y-14167667D01*
X25233571Y-14158143D01*
X25205000Y-14158143D01*
X25185952Y-14167667D01*
X25176428Y-14177190D01*
X25385952Y-14291476D02*
X25366905Y-14281952D01*
X25357381Y-14272428D01*
X25347857Y-14253381D01*
X25347857Y-14196238D01*
X25357381Y-14177190D01*
X25366905Y-14167667D01*
X25385952Y-14158143D01*
X25414524Y-14158143D01*
X25433571Y-14167667D01*
X25443095Y-14177190D01*
X25452619Y-14196238D01*
X25452619Y-14253381D01*
X25443095Y-14272428D01*
X25433571Y-14281952D01*
X25414524Y-14291476D01*
X25385952Y-14291476D01*
X25566905Y-14291476D02*
X25547857Y-14281952D01*
X25538333Y-14262905D01*
X25538333Y-14091476D01*
X25719286Y-14281952D02*
X25700238Y-14291476D01*
X25662143Y-14291476D01*
X25643095Y-14281952D01*
X25633571Y-14262905D01*
X25633571Y-14186714D01*
X25643095Y-14167667D01*
X25662143Y-14158143D01*
X25700238Y-14158143D01*
X25719286Y-14167667D01*
X25728809Y-14186714D01*
X25728809Y-14205762D01*
X25633571Y-14224809D01*
X25805000Y-14281952D02*
X25824048Y-14291476D01*
X25862143Y-14291476D01*
X25881190Y-14281952D01*
X25890714Y-14262905D01*
X25890714Y-14253381D01*
X25881190Y-14234333D01*
X25862143Y-14224809D01*
X25833571Y-14224809D01*
X25814524Y-14215286D01*
X25805000Y-14196238D01*
X25805000Y-14186714D01*
X25814524Y-14167667D01*
X25833571Y-14158143D01*
X25862143Y-14158143D01*
X25881190Y-14167667D01*
X25957381Y-14367667D02*
X25966905Y-14358143D01*
X25985952Y-14329571D01*
X25995476Y-14310524D01*
X26005000Y-14281952D01*
X26014524Y-14234333D01*
X26014524Y-14196238D01*
X26005000Y-14148619D01*
X25995476Y-14120048D01*
X25985952Y-14101000D01*
X25966905Y-14072428D01*
X25957381Y-14062905D01*
D16*
X20876000Y-14405500D02*
X20995000Y-14524500D01*
X20995000Y-14405500D02*
X20876000Y-14524500D01*
X20995000Y-14465000D02*
G75*
G03*
X20995000Y-14465000I-59500J0D01*
G01*
D11*
X21357381Y-14555476D02*
X21243095Y-14555476D01*
X21300238Y-14555476D02*
X21300238Y-14355476D01*
X21281190Y-14384048D01*
X21262143Y-14403095D01*
X21243095Y-14412619D01*
X21443095Y-14536428D02*
X21452619Y-14545952D01*
X21443095Y-14555476D01*
X21433571Y-14545952D01*
X21443095Y-14536428D01*
X21443095Y-14555476D01*
X21643095Y-14555476D02*
X21528810Y-14555476D01*
X21585952Y-14555476D02*
X21585952Y-14355476D01*
X21566905Y-14384048D01*
X21547857Y-14403095D01*
X21528810Y-14412619D01*
X21738333Y-14555476D02*
X21776429Y-14555476D01*
X21795476Y-14545952D01*
X21805000Y-14536428D01*
X21824048Y-14507857D01*
X21833571Y-14469762D01*
X21833571Y-14393571D01*
X21824048Y-14374524D01*
X21814524Y-14365000D01*
X21795476Y-14355476D01*
X21757381Y-14355476D01*
X21738333Y-14365000D01*
X21728810Y-14374524D01*
X21719286Y-14393571D01*
X21719286Y-14441190D01*
X21728810Y-14460238D01*
X21738333Y-14469762D01*
X21757381Y-14479286D01*
X21795476Y-14479286D01*
X21814524Y-14469762D01*
X21824048Y-14460238D01*
X21833571Y-14441190D01*
X21957381Y-14355476D02*
X21976429Y-14355476D01*
X21995476Y-14365000D01*
X22005000Y-14374524D01*
X22014524Y-14393571D01*
X22024048Y-14431667D01*
X22024048Y-14479286D01*
X22014524Y-14517381D01*
X22005000Y-14536428D01*
X21995476Y-14545952D01*
X21976429Y-14555476D01*
X21957381Y-14555476D01*
X21938333Y-14545952D01*
X21928810Y-14536428D01*
X21919286Y-14517381D01*
X21909762Y-14479286D01*
X21909762Y-14431667D01*
X21919286Y-14393571D01*
X21928810Y-14374524D01*
X21938333Y-14365000D01*
X21957381Y-14355476D01*
X22109762Y-14555476D02*
X22109762Y-14422143D01*
X22109762Y-14441190D02*
X22119286Y-14431667D01*
X22138333Y-14422143D01*
X22166905Y-14422143D01*
X22185952Y-14431667D01*
X22195476Y-14450714D01*
X22195476Y-14555476D01*
X22195476Y-14450714D02*
X22205000Y-14431667D01*
X22224048Y-14422143D01*
X22252619Y-14422143D01*
X22271667Y-14431667D01*
X22281190Y-14450714D01*
X22281190Y-14555476D01*
X22376428Y-14555476D02*
X22376428Y-14422143D01*
X22376428Y-14441190D02*
X22385952Y-14431667D01*
X22405000Y-14422143D01*
X22433571Y-14422143D01*
X22452619Y-14431667D01*
X22462143Y-14450714D01*
X22462143Y-14555476D01*
X22462143Y-14450714D02*
X22471667Y-14431667D01*
X22490714Y-14422143D01*
X22519286Y-14422143D01*
X22538333Y-14431667D01*
X22547857Y-14450714D01*
X22547857Y-14555476D01*
X22938333Y-14345952D02*
X22766905Y-14603095D01*
X23195476Y-14355476D02*
X23214524Y-14355476D01*
X23233571Y-14365000D01*
X23243095Y-14374524D01*
X23252619Y-14393571D01*
X23262143Y-14431667D01*
X23262143Y-14479286D01*
X23252619Y-14517381D01*
X23243095Y-14536428D01*
X23233571Y-14545952D01*
X23214524Y-14555476D01*
X23195476Y-14555476D01*
X23176428Y-14545952D01*
X23166905Y-14536428D01*
X23157381Y-14517381D01*
X23147857Y-14479286D01*
X23147857Y-14431667D01*
X23157381Y-14393571D01*
X23166905Y-14374524D01*
X23176428Y-14365000D01*
X23195476Y-14355476D01*
X23347857Y-14536428D02*
X23357381Y-14545952D01*
X23347857Y-14555476D01*
X23338333Y-14545952D01*
X23347857Y-14536428D01*
X23347857Y-14555476D01*
X23481190Y-14355476D02*
X23500238Y-14355476D01*
X23519286Y-14365000D01*
X23528809Y-14374524D01*
X23538333Y-14393571D01*
X23547857Y-14431667D01*
X23547857Y-14479286D01*
X23538333Y-14517381D01*
X23528809Y-14536428D01*
X23519286Y-14545952D01*
X23500238Y-14555476D01*
X23481190Y-14555476D01*
X23462143Y-14545952D01*
X23452619Y-14536428D01*
X23443095Y-14517381D01*
X23433571Y-14479286D01*
X23433571Y-14431667D01*
X23443095Y-14393571D01*
X23452619Y-14374524D01*
X23462143Y-14365000D01*
X23481190Y-14355476D01*
X23719286Y-14422143D02*
X23719286Y-14555476D01*
X23671667Y-14345952D02*
X23624048Y-14488809D01*
X23747857Y-14488809D01*
X23909762Y-14355476D02*
X23871667Y-14355476D01*
X23852619Y-14365000D01*
X23843095Y-14374524D01*
X23824048Y-14403095D01*
X23814524Y-14441190D01*
X23814524Y-14517381D01*
X23824048Y-14536428D01*
X23833571Y-14545952D01*
X23852619Y-14555476D01*
X23890714Y-14555476D01*
X23909762Y-14545952D01*
X23919286Y-14536428D01*
X23928809Y-14517381D01*
X23928809Y-14469762D01*
X23919286Y-14450714D01*
X23909762Y-14441190D01*
X23890714Y-14431667D01*
X23852619Y-14431667D01*
X23833571Y-14441190D01*
X23824048Y-14450714D01*
X23814524Y-14469762D01*
X24024048Y-14555476D02*
X24062143Y-14555476D01*
X24081190Y-14545952D01*
X24090714Y-14536428D01*
X24109762Y-14507857D01*
X24119286Y-14469762D01*
X24119286Y-14393571D01*
X24109762Y-14374524D01*
X24100238Y-14365000D01*
X24081190Y-14355476D01*
X24043095Y-14355476D01*
X24024048Y-14365000D01*
X24014524Y-14374524D01*
X24005000Y-14393571D01*
X24005000Y-14441190D01*
X24014524Y-14460238D01*
X24024048Y-14469762D01*
X24043095Y-14479286D01*
X24081190Y-14479286D01*
X24100238Y-14469762D01*
X24109762Y-14460238D01*
X24119286Y-14441190D01*
X24195476Y-14355476D02*
X24195476Y-14393571D01*
X24271667Y-14355476D02*
X24271667Y-14393571D01*
X24566905Y-14631667D02*
X24557381Y-14622143D01*
X24538333Y-14593571D01*
X24528809Y-14574524D01*
X24519286Y-14545952D01*
X24509762Y-14498333D01*
X24509762Y-14460238D01*
X24519286Y-14412619D01*
X24528809Y-14384048D01*
X24538333Y-14365000D01*
X24557381Y-14336428D01*
X24566905Y-14326905D01*
X24728809Y-14355476D02*
X24690714Y-14355476D01*
X24671667Y-14365000D01*
X24662143Y-14374524D01*
X24643095Y-14403095D01*
X24633571Y-14441190D01*
X24633571Y-14517381D01*
X24643095Y-14536428D01*
X24652619Y-14545952D01*
X24671667Y-14555476D01*
X24709762Y-14555476D01*
X24728809Y-14545952D01*
X24738333Y-14536428D01*
X24747857Y-14517381D01*
X24747857Y-14469762D01*
X24738333Y-14450714D01*
X24728809Y-14441190D01*
X24709762Y-14431667D01*
X24671667Y-14431667D01*
X24652619Y-14441190D01*
X24643095Y-14450714D01*
X24633571Y-14469762D01*
X24985952Y-14555476D02*
X24985952Y-14355476D01*
X25071667Y-14555476D02*
X25071667Y-14450714D01*
X25062143Y-14431667D01*
X25043095Y-14422143D01*
X25014524Y-14422143D01*
X24995476Y-14431667D01*
X24985952Y-14441190D01*
X25195476Y-14555476D02*
X25176428Y-14545952D01*
X25166905Y-14536428D01*
X25157381Y-14517381D01*
X25157381Y-14460238D01*
X25166905Y-14441190D01*
X25176428Y-14431667D01*
X25195476Y-14422143D01*
X25224048Y-14422143D01*
X25243095Y-14431667D01*
X25252619Y-14441190D01*
X25262143Y-14460238D01*
X25262143Y-14517381D01*
X25252619Y-14536428D01*
X25243095Y-14545952D01*
X25224048Y-14555476D01*
X25195476Y-14555476D01*
X25376428Y-14555476D02*
X25357381Y-14545952D01*
X25347857Y-14526905D01*
X25347857Y-14355476D01*
X25528809Y-14545952D02*
X25509762Y-14555476D01*
X25471667Y-14555476D01*
X25452619Y-14545952D01*
X25443095Y-14526905D01*
X25443095Y-14450714D01*
X25452619Y-14431667D01*
X25471667Y-14422143D01*
X25509762Y-14422143D01*
X25528809Y-14431667D01*
X25538333Y-14450714D01*
X25538333Y-14469762D01*
X25443095Y-14488809D01*
X25614524Y-14545952D02*
X25633571Y-14555476D01*
X25671667Y-14555476D01*
X25690714Y-14545952D01*
X25700238Y-14526905D01*
X25700238Y-14517381D01*
X25690714Y-14498333D01*
X25671667Y-14488809D01*
X25643095Y-14488809D01*
X25624048Y-14479286D01*
X25614524Y-14460238D01*
X25614524Y-14450714D01*
X25624048Y-14431667D01*
X25643095Y-14422143D01*
X25671667Y-14422143D01*
X25690714Y-14431667D01*
X25766905Y-14631667D02*
X25776428Y-14622143D01*
X25795476Y-14593571D01*
X25805000Y-14574524D01*
X25814524Y-14545952D01*
X25824048Y-14498333D01*
X25824048Y-14460238D01*
X25814524Y-14412619D01*
X25805000Y-14384048D01*
X25795476Y-14365000D01*
X25776428Y-14336428D01*
X25766905Y-14326905D01*
X20795000Y-14629000D02*
X20995000Y-14829000D01*
X20995000Y-14629000D02*
X20795000Y-14829000D01*
X20895000Y-14629000D02*
X20895000Y-14829000D01*
X20795000Y-14729000D02*
X20995000Y-14729000D01*
X21243095Y-14638524D02*
X21252619Y-14629000D01*
X21271667Y-14619476D01*
X21319286Y-14619476D01*
X21338333Y-14629000D01*
X21347857Y-14638524D01*
X21357381Y-14657571D01*
X21357381Y-14676619D01*
X21347857Y-14705190D01*
X21233571Y-14819476D01*
X21357381Y-14819476D01*
X21443095Y-14800428D02*
X21452619Y-14809952D01*
X21443095Y-14819476D01*
X21433571Y-14809952D01*
X21443095Y-14800428D01*
X21443095Y-14819476D01*
X21576429Y-14619476D02*
X21595476Y-14619476D01*
X21614524Y-14629000D01*
X21624048Y-14638524D01*
X21633571Y-14657571D01*
X21643095Y-14695667D01*
X21643095Y-14743286D01*
X21633571Y-14781381D01*
X21624048Y-14800428D01*
X21614524Y-14809952D01*
X21595476Y-14819476D01*
X21576429Y-14819476D01*
X21557381Y-14809952D01*
X21547857Y-14800428D01*
X21538333Y-14781381D01*
X21528810Y-14743286D01*
X21528810Y-14695667D01*
X21538333Y-14657571D01*
X21547857Y-14638524D01*
X21557381Y-14629000D01*
X21576429Y-14619476D01*
X21833571Y-14819476D02*
X21719286Y-14819476D01*
X21776429Y-14819476D02*
X21776429Y-14619476D01*
X21757381Y-14648048D01*
X21738333Y-14667095D01*
X21719286Y-14676619D01*
X21957381Y-14619476D02*
X21976429Y-14619476D01*
X21995476Y-14629000D01*
X22005000Y-14638524D01*
X22014524Y-14657571D01*
X22024048Y-14695667D01*
X22024048Y-14743286D01*
X22014524Y-14781381D01*
X22005000Y-14800428D01*
X21995476Y-14809952D01*
X21976429Y-14819476D01*
X21957381Y-14819476D01*
X21938333Y-14809952D01*
X21928810Y-14800428D01*
X21919286Y-14781381D01*
X21909762Y-14743286D01*
X21909762Y-14695667D01*
X21919286Y-14657571D01*
X21928810Y-14638524D01*
X21938333Y-14629000D01*
X21957381Y-14619476D01*
X22109762Y-14819476D02*
X22109762Y-14686143D01*
X22109762Y-14705190D02*
X22119286Y-14695667D01*
X22138333Y-14686143D01*
X22166905Y-14686143D01*
X22185952Y-14695667D01*
X22195476Y-14714714D01*
X22195476Y-14819476D01*
X22195476Y-14714714D02*
X22205000Y-14695667D01*
X22224048Y-14686143D01*
X22252619Y-14686143D01*
X22271667Y-14695667D01*
X22281190Y-14714714D01*
X22281190Y-14819476D01*
X22376428Y-14819476D02*
X22376428Y-14686143D01*
X22376428Y-14705190D02*
X22385952Y-14695667D01*
X22405000Y-14686143D01*
X22433571Y-14686143D01*
X22452619Y-14695667D01*
X22462143Y-14714714D01*
X22462143Y-14819476D01*
X22462143Y-14714714D02*
X22471667Y-14695667D01*
X22490714Y-14686143D01*
X22519286Y-14686143D01*
X22538333Y-14695667D01*
X22547857Y-14714714D01*
X22547857Y-14819476D01*
X22938333Y-14609952D02*
X22766905Y-14867095D01*
X23195476Y-14619476D02*
X23214524Y-14619476D01*
X23233571Y-14629000D01*
X23243095Y-14638524D01*
X23252619Y-14657571D01*
X23262143Y-14695667D01*
X23262143Y-14743286D01*
X23252619Y-14781381D01*
X23243095Y-14800428D01*
X23233571Y-14809952D01*
X23214524Y-14819476D01*
X23195476Y-14819476D01*
X23176428Y-14809952D01*
X23166905Y-14800428D01*
X23157381Y-14781381D01*
X23147857Y-14743286D01*
X23147857Y-14695667D01*
X23157381Y-14657571D01*
X23166905Y-14638524D01*
X23176428Y-14629000D01*
X23195476Y-14619476D01*
X23347857Y-14800428D02*
X23357381Y-14809952D01*
X23347857Y-14819476D01*
X23338333Y-14809952D01*
X23347857Y-14800428D01*
X23347857Y-14819476D01*
X23481190Y-14619476D02*
X23500238Y-14619476D01*
X23519286Y-14629000D01*
X23528809Y-14638524D01*
X23538333Y-14657571D01*
X23547857Y-14695667D01*
X23547857Y-14743286D01*
X23538333Y-14781381D01*
X23528809Y-14800428D01*
X23519286Y-14809952D01*
X23500238Y-14819476D01*
X23481190Y-14819476D01*
X23462143Y-14809952D01*
X23452619Y-14800428D01*
X23443095Y-14781381D01*
X23433571Y-14743286D01*
X23433571Y-14695667D01*
X23443095Y-14657571D01*
X23452619Y-14638524D01*
X23462143Y-14629000D01*
X23481190Y-14619476D01*
X23614524Y-14619476D02*
X23747857Y-14619476D01*
X23662143Y-14819476D01*
X23833571Y-14819476D02*
X23871667Y-14819476D01*
X23890714Y-14809952D01*
X23900238Y-14800428D01*
X23919286Y-14771857D01*
X23928809Y-14733762D01*
X23928809Y-14657571D01*
X23919286Y-14638524D01*
X23909762Y-14629000D01*
X23890714Y-14619476D01*
X23852619Y-14619476D01*
X23833571Y-14629000D01*
X23824048Y-14638524D01*
X23814524Y-14657571D01*
X23814524Y-14705190D01*
X23824048Y-14724238D01*
X23833571Y-14733762D01*
X23852619Y-14743286D01*
X23890714Y-14743286D01*
X23909762Y-14733762D01*
X23919286Y-14724238D01*
X23928809Y-14705190D01*
X24119286Y-14819476D02*
X24005000Y-14819476D01*
X24062143Y-14819476D02*
X24062143Y-14619476D01*
X24043095Y-14648048D01*
X24024048Y-14667095D01*
X24005000Y-14676619D01*
X24195476Y-14619476D02*
X24195476Y-14657571D01*
X24271667Y-14619476D02*
X24271667Y-14657571D01*
X24566905Y-14895667D02*
X24557381Y-14886143D01*
X24538333Y-14857571D01*
X24528809Y-14838524D01*
X24519286Y-14809952D01*
X24509762Y-14762333D01*
X24509762Y-14724238D01*
X24519286Y-14676619D01*
X24528809Y-14648048D01*
X24538333Y-14629000D01*
X24557381Y-14600428D01*
X24566905Y-14590905D01*
X24633571Y-14638524D02*
X24643095Y-14629000D01*
X24662143Y-14619476D01*
X24709762Y-14619476D01*
X24728809Y-14629000D01*
X24738333Y-14638524D01*
X24747857Y-14657571D01*
X24747857Y-14676619D01*
X24738333Y-14705190D01*
X24624048Y-14819476D01*
X24747857Y-14819476D01*
X24985952Y-14819476D02*
X24985952Y-14619476D01*
X25071667Y-14819476D02*
X25071667Y-14714714D01*
X25062143Y-14695667D01*
X25043095Y-14686143D01*
X25014524Y-14686143D01*
X24995476Y-14695667D01*
X24985952Y-14705190D01*
X25195476Y-14819476D02*
X25176428Y-14809952D01*
X25166905Y-14800428D01*
X25157381Y-14781381D01*
X25157381Y-14724238D01*
X25166905Y-14705190D01*
X25176428Y-14695667D01*
X25195476Y-14686143D01*
X25224048Y-14686143D01*
X25243095Y-14695667D01*
X25252619Y-14705190D01*
X25262143Y-14724238D01*
X25262143Y-14781381D01*
X25252619Y-14800428D01*
X25243095Y-14809952D01*
X25224048Y-14819476D01*
X25195476Y-14819476D01*
X25376428Y-14819476D02*
X25357381Y-14809952D01*
X25347857Y-14790905D01*
X25347857Y-14619476D01*
X25528809Y-14809952D02*
X25509762Y-14819476D01*
X25471667Y-14819476D01*
X25452619Y-14809952D01*
X25443095Y-14790905D01*
X25443095Y-14714714D01*
X25452619Y-14695667D01*
X25471667Y-14686143D01*
X25509762Y-14686143D01*
X25528809Y-14695667D01*
X25538333Y-14714714D01*
X25538333Y-14733762D01*
X25443095Y-14752809D01*
X25614524Y-14809952D02*
X25633571Y-14819476D01*
X25671667Y-14819476D01*
X25690714Y-14809952D01*
X25700238Y-14790905D01*
X25700238Y-14781381D01*
X25690714Y-14762333D01*
X25671667Y-14752809D01*
X25643095Y-14752809D01*
X25624048Y-14743286D01*
X25614524Y-14724238D01*
X25614524Y-14714714D01*
X25624048Y-14695667D01*
X25643095Y-14686143D01*
X25671667Y-14686143D01*
X25690714Y-14695667D01*
X25766905Y-14895667D02*
X25776428Y-14886143D01*
X25795476Y-14857571D01*
X25805000Y-14838524D01*
X25814524Y-14809952D01*
X25824048Y-14762333D01*
X25824048Y-14724238D01*
X25814524Y-14676619D01*
X25805000Y-14648048D01*
X25795476Y-14629000D01*
X25776428Y-14600428D01*
X25766905Y-14590905D01*
M02*
