%TF.GenerationSoftware,KiCad,Pcbnew,7.0.9*%
%TF.CreationDate,2024-01-01T14:08:33+01:00*%
%TF.ProjectId,LEDPcb,4c454450-6362-42e6-9b69-6361645f7063,rev?*%
%TF.SameCoordinates,Original*%
%TF.FileFunction,Drillmap*%
%TF.FilePolarity,Positive*%
%FSLAX45Y45*%
G04 Gerber Fmt 4.5, Leading zero omitted, Abs format (unit mm)*
G04 Created by KiCad (PCBNEW 7.0.9) date 2024-01-01 14:08:33*
%MOMM*%
%LPD*%
G01*
G04 APERTURE LIST*
%ADD10C,0.100000*%
%ADD11C,0.200000*%
%ADD12C,0.210000*%
G04 APERTURE END LIST*
D10*
X10250000Y-4510000D02*
G75*
G03*
X10000000Y-4760000I0J-250000D01*
G01*
X10000000Y-7405000D02*
X10000000Y-4760000D01*
X17490000Y-8905000D02*
X17490000Y-4760000D01*
X17240000Y-4510000D02*
X10250000Y-4510000D01*
X10000000Y-7405000D02*
X10100000Y-7405000D01*
X17490000Y-8905000D02*
X17390000Y-8905000D01*
X10000000Y-7605000D02*
X10100000Y-7605000D01*
X17490000Y-4760000D02*
G75*
G03*
X17240000Y-4510000I-250000J0D01*
G01*
X10250000Y-12000000D02*
X17240000Y-12000000D01*
X10100000Y-7605000D02*
G75*
G03*
X10100000Y-7405000I0J100000D01*
G01*
X10000000Y-11750000D02*
G75*
G03*
X10250000Y-12000000I250000J0D01*
G01*
X10000000Y-7605000D02*
X10000000Y-11750000D01*
X17490000Y-9105000D02*
X17490000Y-11750000D01*
X17490000Y-9105000D02*
X17390000Y-9105000D01*
X17390000Y-8905000D02*
G75*
G03*
X17390000Y-9105000I0J-100000D01*
G01*
X17240000Y-12000000D02*
G75*
G03*
X17490000Y-11750000I0J250000D01*
G01*
D11*
D12*
X11390000Y-5900000D02*
X11600000Y-6110000D01*
X11600000Y-5900000D02*
X11390000Y-6110000D01*
X11390000Y-10400000D02*
X11600000Y-10610000D01*
X11600000Y-10400000D02*
X11390000Y-10610000D01*
X15890000Y-5900000D02*
X16100000Y-6110000D01*
X16100000Y-5900000D02*
X15890000Y-6110000D01*
X15890000Y-10400000D02*
X16100000Y-10610000D01*
X16100000Y-10400000D02*
X15890000Y-10610000D01*
D11*
X10255777Y-12316484D02*
X10255777Y-12116484D01*
X10255777Y-12116484D02*
X10303396Y-12116484D01*
X10303396Y-12116484D02*
X10331967Y-12126008D01*
X10331967Y-12126008D02*
X10351015Y-12145055D01*
X10351015Y-12145055D02*
X10360539Y-12164103D01*
X10360539Y-12164103D02*
X10370063Y-12202198D01*
X10370063Y-12202198D02*
X10370063Y-12230769D01*
X10370063Y-12230769D02*
X10360539Y-12268865D01*
X10360539Y-12268865D02*
X10351015Y-12287912D01*
X10351015Y-12287912D02*
X10331967Y-12306960D01*
X10331967Y-12306960D02*
X10303396Y-12316484D01*
X10303396Y-12316484D02*
X10255777Y-12316484D01*
X10455777Y-12316484D02*
X10455777Y-12183150D01*
X10455777Y-12221246D02*
X10465301Y-12202198D01*
X10465301Y-12202198D02*
X10474824Y-12192674D01*
X10474824Y-12192674D02*
X10493872Y-12183150D01*
X10493872Y-12183150D02*
X10512920Y-12183150D01*
X10579586Y-12316484D02*
X10579586Y-12183150D01*
X10579586Y-12116484D02*
X10570063Y-12126008D01*
X10570063Y-12126008D02*
X10579586Y-12135531D01*
X10579586Y-12135531D02*
X10589110Y-12126008D01*
X10589110Y-12126008D02*
X10579586Y-12116484D01*
X10579586Y-12116484D02*
X10579586Y-12135531D01*
X10703396Y-12316484D02*
X10684348Y-12306960D01*
X10684348Y-12306960D02*
X10674824Y-12287912D01*
X10674824Y-12287912D02*
X10674824Y-12116484D01*
X10808158Y-12316484D02*
X10789110Y-12306960D01*
X10789110Y-12306960D02*
X10779586Y-12287912D01*
X10779586Y-12287912D02*
X10779586Y-12116484D01*
X11036729Y-12316484D02*
X11036729Y-12116484D01*
X11036729Y-12116484D02*
X11103396Y-12259341D01*
X11103396Y-12259341D02*
X11170063Y-12116484D01*
X11170063Y-12116484D02*
X11170063Y-12316484D01*
X11351015Y-12316484D02*
X11351015Y-12211722D01*
X11351015Y-12211722D02*
X11341491Y-12192674D01*
X11341491Y-12192674D02*
X11322443Y-12183150D01*
X11322443Y-12183150D02*
X11284348Y-12183150D01*
X11284348Y-12183150D02*
X11265301Y-12192674D01*
X11351015Y-12306960D02*
X11331967Y-12316484D01*
X11331967Y-12316484D02*
X11284348Y-12316484D01*
X11284348Y-12316484D02*
X11265301Y-12306960D01*
X11265301Y-12306960D02*
X11255777Y-12287912D01*
X11255777Y-12287912D02*
X11255777Y-12268865D01*
X11255777Y-12268865D02*
X11265301Y-12249817D01*
X11265301Y-12249817D02*
X11284348Y-12240293D01*
X11284348Y-12240293D02*
X11331967Y-12240293D01*
X11331967Y-12240293D02*
X11351015Y-12230769D01*
X11446253Y-12183150D02*
X11446253Y-12383150D01*
X11446253Y-12192674D02*
X11465301Y-12183150D01*
X11465301Y-12183150D02*
X11503396Y-12183150D01*
X11503396Y-12183150D02*
X11522443Y-12192674D01*
X11522443Y-12192674D02*
X11531967Y-12202198D01*
X11531967Y-12202198D02*
X11541491Y-12221246D01*
X11541491Y-12221246D02*
X11541491Y-12278388D01*
X11541491Y-12278388D02*
X11531967Y-12297436D01*
X11531967Y-12297436D02*
X11522443Y-12306960D01*
X11522443Y-12306960D02*
X11503396Y-12316484D01*
X11503396Y-12316484D02*
X11465301Y-12316484D01*
X11465301Y-12316484D02*
X11446253Y-12306960D01*
X11627205Y-12297436D02*
X11636729Y-12306960D01*
X11636729Y-12306960D02*
X11627205Y-12316484D01*
X11627205Y-12316484D02*
X11617682Y-12306960D01*
X11617682Y-12306960D02*
X11627205Y-12297436D01*
X11627205Y-12297436D02*
X11627205Y-12316484D01*
X11627205Y-12192674D02*
X11636729Y-12202198D01*
X11636729Y-12202198D02*
X11627205Y-12211722D01*
X11627205Y-12211722D02*
X11617682Y-12202198D01*
X11617682Y-12202198D02*
X11627205Y-12192674D01*
X11627205Y-12192674D02*
X11627205Y-12211722D01*
X9795000Y-12545000D02*
X9995000Y-12745000D01*
X9995000Y-12545000D02*
X9795000Y-12745000D01*
X10246253Y-12555531D02*
X10255777Y-12546008D01*
X10255777Y-12546008D02*
X10274824Y-12536484D01*
X10274824Y-12536484D02*
X10322444Y-12536484D01*
X10322444Y-12536484D02*
X10341491Y-12546008D01*
X10341491Y-12546008D02*
X10351015Y-12555531D01*
X10351015Y-12555531D02*
X10360539Y-12574579D01*
X10360539Y-12574579D02*
X10360539Y-12593627D01*
X10360539Y-12593627D02*
X10351015Y-12622198D01*
X10351015Y-12622198D02*
X10236729Y-12736484D01*
X10236729Y-12736484D02*
X10360539Y-12736484D01*
X10446253Y-12717436D02*
X10455777Y-12726960D01*
X10455777Y-12726960D02*
X10446253Y-12736484D01*
X10446253Y-12736484D02*
X10436729Y-12726960D01*
X10436729Y-12726960D02*
X10446253Y-12717436D01*
X10446253Y-12717436D02*
X10446253Y-12736484D01*
X10646253Y-12736484D02*
X10531967Y-12736484D01*
X10589110Y-12736484D02*
X10589110Y-12536484D01*
X10589110Y-12536484D02*
X10570063Y-12565055D01*
X10570063Y-12565055D02*
X10551015Y-12584103D01*
X10551015Y-12584103D02*
X10531967Y-12593627D01*
X10770063Y-12536484D02*
X10789110Y-12536484D01*
X10789110Y-12536484D02*
X10808158Y-12546008D01*
X10808158Y-12546008D02*
X10817682Y-12555531D01*
X10817682Y-12555531D02*
X10827205Y-12574579D01*
X10827205Y-12574579D02*
X10836729Y-12612674D01*
X10836729Y-12612674D02*
X10836729Y-12660293D01*
X10836729Y-12660293D02*
X10827205Y-12698388D01*
X10827205Y-12698388D02*
X10817682Y-12717436D01*
X10817682Y-12717436D02*
X10808158Y-12726960D01*
X10808158Y-12726960D02*
X10789110Y-12736484D01*
X10789110Y-12736484D02*
X10770063Y-12736484D01*
X10770063Y-12736484D02*
X10751015Y-12726960D01*
X10751015Y-12726960D02*
X10741491Y-12717436D01*
X10741491Y-12717436D02*
X10731967Y-12698388D01*
X10731967Y-12698388D02*
X10722444Y-12660293D01*
X10722444Y-12660293D02*
X10722444Y-12612674D01*
X10722444Y-12612674D02*
X10731967Y-12574579D01*
X10731967Y-12574579D02*
X10741491Y-12555531D01*
X10741491Y-12555531D02*
X10751015Y-12546008D01*
X10751015Y-12546008D02*
X10770063Y-12536484D01*
X10960539Y-12536484D02*
X10979586Y-12536484D01*
X10979586Y-12536484D02*
X10998634Y-12546008D01*
X10998634Y-12546008D02*
X11008158Y-12555531D01*
X11008158Y-12555531D02*
X11017682Y-12574579D01*
X11017682Y-12574579D02*
X11027205Y-12612674D01*
X11027205Y-12612674D02*
X11027205Y-12660293D01*
X11027205Y-12660293D02*
X11017682Y-12698388D01*
X11017682Y-12698388D02*
X11008158Y-12717436D01*
X11008158Y-12717436D02*
X10998634Y-12726960D01*
X10998634Y-12726960D02*
X10979586Y-12736484D01*
X10979586Y-12736484D02*
X10960539Y-12736484D01*
X10960539Y-12736484D02*
X10941491Y-12726960D01*
X10941491Y-12726960D02*
X10931967Y-12717436D01*
X10931967Y-12717436D02*
X10922444Y-12698388D01*
X10922444Y-12698388D02*
X10912920Y-12660293D01*
X10912920Y-12660293D02*
X10912920Y-12612674D01*
X10912920Y-12612674D02*
X10922444Y-12574579D01*
X10922444Y-12574579D02*
X10931967Y-12555531D01*
X10931967Y-12555531D02*
X10941491Y-12546008D01*
X10941491Y-12546008D02*
X10960539Y-12536484D01*
X11112920Y-12736484D02*
X11112920Y-12603150D01*
X11112920Y-12622198D02*
X11122444Y-12612674D01*
X11122444Y-12612674D02*
X11141491Y-12603150D01*
X11141491Y-12603150D02*
X11170063Y-12603150D01*
X11170063Y-12603150D02*
X11189110Y-12612674D01*
X11189110Y-12612674D02*
X11198634Y-12631722D01*
X11198634Y-12631722D02*
X11198634Y-12736484D01*
X11198634Y-12631722D02*
X11208158Y-12612674D01*
X11208158Y-12612674D02*
X11227205Y-12603150D01*
X11227205Y-12603150D02*
X11255777Y-12603150D01*
X11255777Y-12603150D02*
X11274824Y-12612674D01*
X11274824Y-12612674D02*
X11284348Y-12631722D01*
X11284348Y-12631722D02*
X11284348Y-12736484D01*
X11379586Y-12736484D02*
X11379586Y-12603150D01*
X11379586Y-12622198D02*
X11389110Y-12612674D01*
X11389110Y-12612674D02*
X11408158Y-12603150D01*
X11408158Y-12603150D02*
X11436729Y-12603150D01*
X11436729Y-12603150D02*
X11455777Y-12612674D01*
X11455777Y-12612674D02*
X11465301Y-12631722D01*
X11465301Y-12631722D02*
X11465301Y-12736484D01*
X11465301Y-12631722D02*
X11474824Y-12612674D01*
X11474824Y-12612674D02*
X11493872Y-12603150D01*
X11493872Y-12603150D02*
X11522443Y-12603150D01*
X11522443Y-12603150D02*
X11541491Y-12612674D01*
X11541491Y-12612674D02*
X11551015Y-12631722D01*
X11551015Y-12631722D02*
X11551015Y-12736484D01*
X11941491Y-12526960D02*
X11770063Y-12784103D01*
X12198634Y-12536484D02*
X12217682Y-12536484D01*
X12217682Y-12536484D02*
X12236729Y-12546008D01*
X12236729Y-12546008D02*
X12246253Y-12555531D01*
X12246253Y-12555531D02*
X12255777Y-12574579D01*
X12255777Y-12574579D02*
X12265301Y-12612674D01*
X12265301Y-12612674D02*
X12265301Y-12660293D01*
X12265301Y-12660293D02*
X12255777Y-12698388D01*
X12255777Y-12698388D02*
X12246253Y-12717436D01*
X12246253Y-12717436D02*
X12236729Y-12726960D01*
X12236729Y-12726960D02*
X12217682Y-12736484D01*
X12217682Y-12736484D02*
X12198634Y-12736484D01*
X12198634Y-12736484D02*
X12179586Y-12726960D01*
X12179586Y-12726960D02*
X12170063Y-12717436D01*
X12170063Y-12717436D02*
X12160539Y-12698388D01*
X12160539Y-12698388D02*
X12151015Y-12660293D01*
X12151015Y-12660293D02*
X12151015Y-12612674D01*
X12151015Y-12612674D02*
X12160539Y-12574579D01*
X12160539Y-12574579D02*
X12170063Y-12555531D01*
X12170063Y-12555531D02*
X12179586Y-12546008D01*
X12179586Y-12546008D02*
X12198634Y-12536484D01*
X12351015Y-12717436D02*
X12360539Y-12726960D01*
X12360539Y-12726960D02*
X12351015Y-12736484D01*
X12351015Y-12736484D02*
X12341491Y-12726960D01*
X12341491Y-12726960D02*
X12351015Y-12717436D01*
X12351015Y-12717436D02*
X12351015Y-12736484D01*
X12484348Y-12536484D02*
X12503396Y-12536484D01*
X12503396Y-12536484D02*
X12522444Y-12546008D01*
X12522444Y-12546008D02*
X12531967Y-12555531D01*
X12531967Y-12555531D02*
X12541491Y-12574579D01*
X12541491Y-12574579D02*
X12551015Y-12612674D01*
X12551015Y-12612674D02*
X12551015Y-12660293D01*
X12551015Y-12660293D02*
X12541491Y-12698388D01*
X12541491Y-12698388D02*
X12531967Y-12717436D01*
X12531967Y-12717436D02*
X12522444Y-12726960D01*
X12522444Y-12726960D02*
X12503396Y-12736484D01*
X12503396Y-12736484D02*
X12484348Y-12736484D01*
X12484348Y-12736484D02*
X12465301Y-12726960D01*
X12465301Y-12726960D02*
X12455777Y-12717436D01*
X12455777Y-12717436D02*
X12446253Y-12698388D01*
X12446253Y-12698388D02*
X12436729Y-12660293D01*
X12436729Y-12660293D02*
X12436729Y-12612674D01*
X12436729Y-12612674D02*
X12446253Y-12574579D01*
X12446253Y-12574579D02*
X12455777Y-12555531D01*
X12455777Y-12555531D02*
X12465301Y-12546008D01*
X12465301Y-12546008D02*
X12484348Y-12536484D01*
X12665301Y-12622198D02*
X12646253Y-12612674D01*
X12646253Y-12612674D02*
X12636729Y-12603150D01*
X12636729Y-12603150D02*
X12627206Y-12584103D01*
X12627206Y-12584103D02*
X12627206Y-12574579D01*
X12627206Y-12574579D02*
X12636729Y-12555531D01*
X12636729Y-12555531D02*
X12646253Y-12546008D01*
X12646253Y-12546008D02*
X12665301Y-12536484D01*
X12665301Y-12536484D02*
X12703396Y-12536484D01*
X12703396Y-12536484D02*
X12722444Y-12546008D01*
X12722444Y-12546008D02*
X12731967Y-12555531D01*
X12731967Y-12555531D02*
X12741491Y-12574579D01*
X12741491Y-12574579D02*
X12741491Y-12584103D01*
X12741491Y-12584103D02*
X12731967Y-12603150D01*
X12731967Y-12603150D02*
X12722444Y-12612674D01*
X12722444Y-12612674D02*
X12703396Y-12622198D01*
X12703396Y-12622198D02*
X12665301Y-12622198D01*
X12665301Y-12622198D02*
X12646253Y-12631722D01*
X12646253Y-12631722D02*
X12636729Y-12641246D01*
X12636729Y-12641246D02*
X12627206Y-12660293D01*
X12627206Y-12660293D02*
X12627206Y-12698388D01*
X12627206Y-12698388D02*
X12636729Y-12717436D01*
X12636729Y-12717436D02*
X12646253Y-12726960D01*
X12646253Y-12726960D02*
X12665301Y-12736484D01*
X12665301Y-12736484D02*
X12703396Y-12736484D01*
X12703396Y-12736484D02*
X12722444Y-12726960D01*
X12722444Y-12726960D02*
X12731967Y-12717436D01*
X12731967Y-12717436D02*
X12741491Y-12698388D01*
X12741491Y-12698388D02*
X12741491Y-12660293D01*
X12741491Y-12660293D02*
X12731967Y-12641246D01*
X12731967Y-12641246D02*
X12722444Y-12631722D01*
X12722444Y-12631722D02*
X12703396Y-12622198D01*
X12817682Y-12555531D02*
X12827206Y-12546008D01*
X12827206Y-12546008D02*
X12846253Y-12536484D01*
X12846253Y-12536484D02*
X12893872Y-12536484D01*
X12893872Y-12536484D02*
X12912920Y-12546008D01*
X12912920Y-12546008D02*
X12922444Y-12555531D01*
X12922444Y-12555531D02*
X12931967Y-12574579D01*
X12931967Y-12574579D02*
X12931967Y-12593627D01*
X12931967Y-12593627D02*
X12922444Y-12622198D01*
X12922444Y-12622198D02*
X12808158Y-12736484D01*
X12808158Y-12736484D02*
X12931967Y-12736484D01*
X12998634Y-12536484D02*
X13131967Y-12536484D01*
X13131967Y-12536484D02*
X13046253Y-12736484D01*
X13198634Y-12536484D02*
X13198634Y-12574579D01*
X13274825Y-12536484D02*
X13274825Y-12574579D01*
X13570063Y-12812674D02*
X13560539Y-12803150D01*
X13560539Y-12803150D02*
X13541491Y-12774579D01*
X13541491Y-12774579D02*
X13531968Y-12755531D01*
X13531968Y-12755531D02*
X13522444Y-12726960D01*
X13522444Y-12726960D02*
X13512920Y-12679341D01*
X13512920Y-12679341D02*
X13512920Y-12641246D01*
X13512920Y-12641246D02*
X13522444Y-12593627D01*
X13522444Y-12593627D02*
X13531968Y-12565055D01*
X13531968Y-12565055D02*
X13541491Y-12546008D01*
X13541491Y-12546008D02*
X13560539Y-12517436D01*
X13560539Y-12517436D02*
X13570063Y-12507912D01*
X13731968Y-12603150D02*
X13731968Y-12736484D01*
X13684348Y-12526960D02*
X13636729Y-12669817D01*
X13636729Y-12669817D02*
X13760539Y-12669817D01*
X13989110Y-12736484D02*
X13989110Y-12536484D01*
X14074825Y-12736484D02*
X14074825Y-12631722D01*
X14074825Y-12631722D02*
X14065301Y-12612674D01*
X14065301Y-12612674D02*
X14046253Y-12603150D01*
X14046253Y-12603150D02*
X14017682Y-12603150D01*
X14017682Y-12603150D02*
X13998634Y-12612674D01*
X13998634Y-12612674D02*
X13989110Y-12622198D01*
X14198634Y-12736484D02*
X14179587Y-12726960D01*
X14179587Y-12726960D02*
X14170063Y-12717436D01*
X14170063Y-12717436D02*
X14160539Y-12698388D01*
X14160539Y-12698388D02*
X14160539Y-12641246D01*
X14160539Y-12641246D02*
X14170063Y-12622198D01*
X14170063Y-12622198D02*
X14179587Y-12612674D01*
X14179587Y-12612674D02*
X14198634Y-12603150D01*
X14198634Y-12603150D02*
X14227206Y-12603150D01*
X14227206Y-12603150D02*
X14246253Y-12612674D01*
X14246253Y-12612674D02*
X14255777Y-12622198D01*
X14255777Y-12622198D02*
X14265301Y-12641246D01*
X14265301Y-12641246D02*
X14265301Y-12698388D01*
X14265301Y-12698388D02*
X14255777Y-12717436D01*
X14255777Y-12717436D02*
X14246253Y-12726960D01*
X14246253Y-12726960D02*
X14227206Y-12736484D01*
X14227206Y-12736484D02*
X14198634Y-12736484D01*
X14379587Y-12736484D02*
X14360539Y-12726960D01*
X14360539Y-12726960D02*
X14351015Y-12707912D01*
X14351015Y-12707912D02*
X14351015Y-12536484D01*
X14531968Y-12726960D02*
X14512920Y-12736484D01*
X14512920Y-12736484D02*
X14474825Y-12736484D01*
X14474825Y-12736484D02*
X14455777Y-12726960D01*
X14455777Y-12726960D02*
X14446253Y-12707912D01*
X14446253Y-12707912D02*
X14446253Y-12631722D01*
X14446253Y-12631722D02*
X14455777Y-12612674D01*
X14455777Y-12612674D02*
X14474825Y-12603150D01*
X14474825Y-12603150D02*
X14512920Y-12603150D01*
X14512920Y-12603150D02*
X14531968Y-12612674D01*
X14531968Y-12612674D02*
X14541491Y-12631722D01*
X14541491Y-12631722D02*
X14541491Y-12650769D01*
X14541491Y-12650769D02*
X14446253Y-12669817D01*
X14617682Y-12726960D02*
X14636730Y-12736484D01*
X14636730Y-12736484D02*
X14674825Y-12736484D01*
X14674825Y-12736484D02*
X14693872Y-12726960D01*
X14693872Y-12726960D02*
X14703396Y-12707912D01*
X14703396Y-12707912D02*
X14703396Y-12698388D01*
X14703396Y-12698388D02*
X14693872Y-12679341D01*
X14693872Y-12679341D02*
X14674825Y-12669817D01*
X14674825Y-12669817D02*
X14646253Y-12669817D01*
X14646253Y-12669817D02*
X14627206Y-12660293D01*
X14627206Y-12660293D02*
X14617682Y-12641246D01*
X14617682Y-12641246D02*
X14617682Y-12631722D01*
X14617682Y-12631722D02*
X14627206Y-12612674D01*
X14627206Y-12612674D02*
X14646253Y-12603150D01*
X14646253Y-12603150D02*
X14674825Y-12603150D01*
X14674825Y-12603150D02*
X14693872Y-12612674D01*
X14770063Y-12812674D02*
X14779587Y-12803150D01*
X14779587Y-12803150D02*
X14798634Y-12774579D01*
X14798634Y-12774579D02*
X14808158Y-12755531D01*
X14808158Y-12755531D02*
X14817682Y-12726960D01*
X14817682Y-12726960D02*
X14827206Y-12679341D01*
X14827206Y-12679341D02*
X14827206Y-12641246D01*
X14827206Y-12641246D02*
X14817682Y-12593627D01*
X14817682Y-12593627D02*
X14808158Y-12565055D01*
X14808158Y-12565055D02*
X14798634Y-12546008D01*
X14798634Y-12546008D02*
X14779587Y-12517436D01*
X14779587Y-12517436D02*
X14770063Y-12507912D01*
X15131968Y-12812674D02*
X15122444Y-12803150D01*
X15122444Y-12803150D02*
X15103396Y-12774579D01*
X15103396Y-12774579D02*
X15093872Y-12755531D01*
X15093872Y-12755531D02*
X15084349Y-12726960D01*
X15084349Y-12726960D02*
X15074825Y-12679341D01*
X15074825Y-12679341D02*
X15074825Y-12641246D01*
X15074825Y-12641246D02*
X15084349Y-12593627D01*
X15084349Y-12593627D02*
X15093872Y-12565055D01*
X15093872Y-12565055D02*
X15103396Y-12546008D01*
X15103396Y-12546008D02*
X15122444Y-12517436D01*
X15122444Y-12517436D02*
X15131968Y-12507912D01*
X15208158Y-12603150D02*
X15208158Y-12736484D01*
X15208158Y-12622198D02*
X15217682Y-12612674D01*
X15217682Y-12612674D02*
X15236730Y-12603150D01*
X15236730Y-12603150D02*
X15265301Y-12603150D01*
X15265301Y-12603150D02*
X15284349Y-12612674D01*
X15284349Y-12612674D02*
X15293872Y-12631722D01*
X15293872Y-12631722D02*
X15293872Y-12736484D01*
X15417682Y-12736484D02*
X15398634Y-12726960D01*
X15398634Y-12726960D02*
X15389111Y-12717436D01*
X15389111Y-12717436D02*
X15379587Y-12698388D01*
X15379587Y-12698388D02*
X15379587Y-12641246D01*
X15379587Y-12641246D02*
X15389111Y-12622198D01*
X15389111Y-12622198D02*
X15398634Y-12612674D01*
X15398634Y-12612674D02*
X15417682Y-12603150D01*
X15417682Y-12603150D02*
X15446253Y-12603150D01*
X15446253Y-12603150D02*
X15465301Y-12612674D01*
X15465301Y-12612674D02*
X15474825Y-12622198D01*
X15474825Y-12622198D02*
X15484349Y-12641246D01*
X15484349Y-12641246D02*
X15484349Y-12698388D01*
X15484349Y-12698388D02*
X15474825Y-12717436D01*
X15474825Y-12717436D02*
X15465301Y-12726960D01*
X15465301Y-12726960D02*
X15446253Y-12736484D01*
X15446253Y-12736484D02*
X15417682Y-12736484D01*
X15541492Y-12603150D02*
X15617682Y-12603150D01*
X15570063Y-12536484D02*
X15570063Y-12707912D01*
X15570063Y-12707912D02*
X15579587Y-12726960D01*
X15579587Y-12726960D02*
X15598634Y-12736484D01*
X15598634Y-12736484D02*
X15617682Y-12736484D01*
X15836730Y-12603150D02*
X15836730Y-12803150D01*
X15836730Y-12612674D02*
X15855777Y-12603150D01*
X15855777Y-12603150D02*
X15893873Y-12603150D01*
X15893873Y-12603150D02*
X15912920Y-12612674D01*
X15912920Y-12612674D02*
X15922444Y-12622198D01*
X15922444Y-12622198D02*
X15931968Y-12641246D01*
X15931968Y-12641246D02*
X15931968Y-12698388D01*
X15931968Y-12698388D02*
X15922444Y-12717436D01*
X15922444Y-12717436D02*
X15912920Y-12726960D01*
X15912920Y-12726960D02*
X15893873Y-12736484D01*
X15893873Y-12736484D02*
X15855777Y-12736484D01*
X15855777Y-12736484D02*
X15836730Y-12726960D01*
X16046253Y-12736484D02*
X16027206Y-12726960D01*
X16027206Y-12726960D02*
X16017682Y-12707912D01*
X16017682Y-12707912D02*
X16017682Y-12536484D01*
X16208158Y-12736484D02*
X16208158Y-12631722D01*
X16208158Y-12631722D02*
X16198634Y-12612674D01*
X16198634Y-12612674D02*
X16179587Y-12603150D01*
X16179587Y-12603150D02*
X16141492Y-12603150D01*
X16141492Y-12603150D02*
X16122444Y-12612674D01*
X16208158Y-12726960D02*
X16189111Y-12736484D01*
X16189111Y-12736484D02*
X16141492Y-12736484D01*
X16141492Y-12736484D02*
X16122444Y-12726960D01*
X16122444Y-12726960D02*
X16112920Y-12707912D01*
X16112920Y-12707912D02*
X16112920Y-12688865D01*
X16112920Y-12688865D02*
X16122444Y-12669817D01*
X16122444Y-12669817D02*
X16141492Y-12660293D01*
X16141492Y-12660293D02*
X16189111Y-12660293D01*
X16189111Y-12660293D02*
X16208158Y-12650769D01*
X16274825Y-12603150D02*
X16351015Y-12603150D01*
X16303396Y-12536484D02*
X16303396Y-12707912D01*
X16303396Y-12707912D02*
X16312920Y-12726960D01*
X16312920Y-12726960D02*
X16331968Y-12736484D01*
X16331968Y-12736484D02*
X16351015Y-12736484D01*
X16493873Y-12726960D02*
X16474825Y-12736484D01*
X16474825Y-12736484D02*
X16436730Y-12736484D01*
X16436730Y-12736484D02*
X16417682Y-12726960D01*
X16417682Y-12726960D02*
X16408158Y-12707912D01*
X16408158Y-12707912D02*
X16408158Y-12631722D01*
X16408158Y-12631722D02*
X16417682Y-12612674D01*
X16417682Y-12612674D02*
X16436730Y-12603150D01*
X16436730Y-12603150D02*
X16474825Y-12603150D01*
X16474825Y-12603150D02*
X16493873Y-12612674D01*
X16493873Y-12612674D02*
X16503396Y-12631722D01*
X16503396Y-12631722D02*
X16503396Y-12650769D01*
X16503396Y-12650769D02*
X16408158Y-12669817D01*
X16674825Y-12736484D02*
X16674825Y-12536484D01*
X16674825Y-12726960D02*
X16655777Y-12736484D01*
X16655777Y-12736484D02*
X16617682Y-12736484D01*
X16617682Y-12736484D02*
X16598634Y-12726960D01*
X16598634Y-12726960D02*
X16589111Y-12717436D01*
X16589111Y-12717436D02*
X16579587Y-12698388D01*
X16579587Y-12698388D02*
X16579587Y-12641246D01*
X16579587Y-12641246D02*
X16589111Y-12622198D01*
X16589111Y-12622198D02*
X16598634Y-12612674D01*
X16598634Y-12612674D02*
X16617682Y-12603150D01*
X16617682Y-12603150D02*
X16655777Y-12603150D01*
X16655777Y-12603150D02*
X16674825Y-12612674D01*
X16751015Y-12812674D02*
X16760539Y-12803150D01*
X16760539Y-12803150D02*
X16779587Y-12774579D01*
X16779587Y-12774579D02*
X16789111Y-12755531D01*
X16789111Y-12755531D02*
X16798635Y-12726960D01*
X16798635Y-12726960D02*
X16808158Y-12679341D01*
X16808158Y-12679341D02*
X16808158Y-12641246D01*
X16808158Y-12641246D02*
X16798635Y-12593627D01*
X16798635Y-12593627D02*
X16789111Y-12565055D01*
X16789111Y-12565055D02*
X16779587Y-12546008D01*
X16779587Y-12546008D02*
X16760539Y-12517436D01*
X16760539Y-12517436D02*
X16751015Y-12507912D01*
M02*
