G04 #@! TF.GenerationSoftware,KiCad,Pcbnew,7.0.9*
G04 #@! TF.CreationDate,2024-01-02T20:26:41+01:00*
G04 #@! TF.ProjectId,LEDPcb,4c454450-6362-42e6-9b69-6361645f7063,rev?*
G04 #@! TF.SameCoordinates,Original*
G04 #@! TF.FileFunction,Soldermask,Top*
G04 #@! TF.FilePolarity,Negative*
%FSLAX46Y46*%
G04 Gerber Fmt 4.6, Leading zero omitted, Abs format (unit mm)*
G04 Created by KiCad (PCBNEW 7.0.9) date 2024-01-02 20:26:41*
%MOMM*%
%LPD*%
G01*
G04 APERTURE LIST*
G04 Aperture macros list*
%AMRoundRect*
0 Rectangle with rounded corners*
0 $1 Rounding radius*
0 $2 $3 $4 $5 $6 $7 $8 $9 X,Y pos of 4 corners*
0 Add a 4 corners polygon primitive as box body*
4,1,4,$2,$3,$4,$5,$6,$7,$8,$9,$2,$3,0*
0 Add four circle primitives for the rounded corners*
1,1,$1+$1,$2,$3*
1,1,$1+$1,$4,$5*
1,1,$1+$1,$6,$7*
1,1,$1+$1,$8,$9*
0 Add four rect primitives between the rounded corners*
20,1,$1+$1,$2,$3,$4,$5,0*
20,1,$1+$1,$4,$5,$6,$7,0*
20,1,$1+$1,$6,$7,$8,$9,0*
20,1,$1+$1,$8,$9,$2,$3,0*%
G04 Aperture macros list end*
%ADD10R,2.200000X1.800000*%
%ADD11R,1.100000X1.800000*%
%ADD12C,2.100000*%
%ADD13RoundRect,0.250000X-0.750000X-0.250000X0.750000X-0.250000X0.750000X0.250000X-0.750000X0.250000X0*%
G04 APERTURE END LIST*
D10*
X136605000Y-112550000D03*
D11*
X138845000Y-112550000D03*
D12*
X114950000Y-105050000D03*
D10*
X136605000Y-52550000D03*
D11*
X138845000Y-52550000D03*
D12*
X114950000Y-60050000D03*
D10*
X166605000Y-82550000D03*
D11*
X168845000Y-82550000D03*
D10*
X151605000Y-52550000D03*
D11*
X153845000Y-52550000D03*
D10*
X106605000Y-82550000D03*
D11*
X108845000Y-82550000D03*
D10*
X166605000Y-67550000D03*
D11*
X168845000Y-67550000D03*
D10*
X121605000Y-97550000D03*
D11*
X123845000Y-97550000D03*
D10*
X136605000Y-67550000D03*
D11*
X138845000Y-67550000D03*
D10*
X121605000Y-112550000D03*
D11*
X123845000Y-112550000D03*
D12*
X159950000Y-105050000D03*
D13*
X106450000Y-75050000D03*
D10*
X106605000Y-112550000D03*
D11*
X108845000Y-112550000D03*
D10*
X121605000Y-52550000D03*
D11*
X123845000Y-52550000D03*
D12*
X159950000Y-60050000D03*
D10*
X151605000Y-112550000D03*
D11*
X153845000Y-112550000D03*
D10*
X106605000Y-97550000D03*
D11*
X108845000Y-97550000D03*
D10*
X106605000Y-67550000D03*
D11*
X108845000Y-67550000D03*
D10*
X151605000Y-82550000D03*
D11*
X153845000Y-82550000D03*
D10*
X166605000Y-52550000D03*
D11*
X168845000Y-52550000D03*
D10*
X121605000Y-67550000D03*
D11*
X123845000Y-67550000D03*
D10*
X151605000Y-67550000D03*
D11*
X153845000Y-67550000D03*
D10*
X166605000Y-112550000D03*
D11*
X168845000Y-112550000D03*
D10*
X166605000Y-97550000D03*
D11*
X168845000Y-97550000D03*
D13*
X168450000Y-90050000D03*
D10*
X121605000Y-82550000D03*
D11*
X123845000Y-82550000D03*
D10*
X136605000Y-97550000D03*
D11*
X138845000Y-97550000D03*
D10*
X136605000Y-82550000D03*
D11*
X138845000Y-82550000D03*
D10*
X106605000Y-52550000D03*
D11*
X108845000Y-52550000D03*
D10*
X151605000Y-97550000D03*
D11*
X153845000Y-97550000D03*
M02*
