G04 #@! TF.GenerationSoftware,KiCad,Pcbnew,7.0.9*
G04 #@! TF.CreationDate,2024-01-01T14:08:29+01:00*
G04 #@! TF.ProjectId,LEDPcb,4c454450-6362-42e6-9b69-6361645f7063,rev?*
G04 #@! TF.SameCoordinates,Original*
G04 #@! TF.FileFunction,Legend,Top*
G04 #@! TF.FilePolarity,Positive*
%FSLAX46Y46*%
G04 Gerber Fmt 4.6, Leading zero omitted, Abs format (unit mm)*
G04 Created by KiCad (PCBNEW 7.0.9) date 2024-01-01 14:08:29*
%MOMM*%
%LPD*%
G01*
G04 APERTURE LIST*
G04 Aperture macros list*
%AMRoundRect*
0 Rectangle with rounded corners*
0 $1 Rounding radius*
0 $2 $3 $4 $5 $6 $7 $8 $9 X,Y pos of 4 corners*
0 Add a 4 corners polygon primitive as box body*
4,1,4,$2,$3,$4,$5,$6,$7,$8,$9,$2,$3,0*
0 Add four circle primitives for the rounded corners*
1,1,$1+$1,$2,$3*
1,1,$1+$1,$4,$5*
1,1,$1+$1,$6,$7*
1,1,$1+$1,$8,$9*
0 Add four rect primitives between the rounded corners*
20,1,$1+$1,$2,$3,$4,$5,0*
20,1,$1+$1,$4,$5,$6,$7,0*
20,1,$1+$1,$6,$7,$8,$9,0*
20,1,$1+$1,$8,$9,$2,$3,0*%
G04 Aperture macros list end*
%ADD10C,0.150000*%
%ADD11C,0.120000*%
%ADD12R,2.200000X1.800000*%
%ADD13R,1.100000X1.800000*%
%ADD14C,2.100000*%
%ADD15RoundRect,0.250000X-0.750000X-0.250000X0.750000X-0.250000X0.750000X0.250000X-0.750000X0.250000X0*%
G04 APERTURE END LIST*
D10*
X169112969Y-92269819D02*
X168636779Y-92269819D01*
X168636779Y-92269819D02*
X168636779Y-91269819D01*
X169446303Y-91746009D02*
X169779636Y-91746009D01*
X169922493Y-92269819D02*
X169446303Y-92269819D01*
X169446303Y-92269819D02*
X169446303Y-91269819D01*
X169446303Y-91269819D02*
X169922493Y-91269819D01*
X170351065Y-92269819D02*
X170351065Y-91269819D01*
X170351065Y-91269819D02*
X170589160Y-91269819D01*
X170589160Y-91269819D02*
X170732017Y-91317438D01*
X170732017Y-91317438D02*
X170827255Y-91412676D01*
X170827255Y-91412676D02*
X170874874Y-91507914D01*
X170874874Y-91507914D02*
X170922493Y-91698390D01*
X170922493Y-91698390D02*
X170922493Y-91841247D01*
X170922493Y-91841247D02*
X170874874Y-92031723D01*
X170874874Y-92031723D02*
X170827255Y-92126961D01*
X170827255Y-92126961D02*
X170732017Y-92222200D01*
X170732017Y-92222200D02*
X170589160Y-92269819D01*
X170589160Y-92269819D02*
X170351065Y-92269819D01*
X171351065Y-91888866D02*
X172112970Y-91888866D01*
X171732017Y-92269819D02*
X171732017Y-91507914D01*
X104462969Y-73719819D02*
X103986779Y-73719819D01*
X103986779Y-73719819D02*
X103986779Y-72719819D01*
X104796303Y-73196009D02*
X105129636Y-73196009D01*
X105272493Y-73719819D02*
X104796303Y-73719819D01*
X104796303Y-73719819D02*
X104796303Y-72719819D01*
X104796303Y-72719819D02*
X105272493Y-72719819D01*
X105701065Y-73719819D02*
X105701065Y-72719819D01*
X105701065Y-72719819D02*
X105939160Y-72719819D01*
X105939160Y-72719819D02*
X106082017Y-72767438D01*
X106082017Y-72767438D02*
X106177255Y-72862676D01*
X106177255Y-72862676D02*
X106224874Y-72957914D01*
X106224874Y-72957914D02*
X106272493Y-73148390D01*
X106272493Y-73148390D02*
X106272493Y-73291247D01*
X106272493Y-73291247D02*
X106224874Y-73481723D01*
X106224874Y-73481723D02*
X106177255Y-73576961D01*
X106177255Y-73576961D02*
X106082017Y-73672200D01*
X106082017Y-73672200D02*
X105939160Y-73719819D01*
X105939160Y-73719819D02*
X105701065Y-73719819D01*
X106701065Y-73338866D02*
X107462970Y-73338866D01*
D11*
X135250000Y-110950000D02*
X135250000Y-114150000D01*
X138850000Y-110950000D02*
X135250000Y-110950000D01*
X138850000Y-114150000D02*
X135250000Y-114150000D01*
X135250000Y-50950000D02*
X135250000Y-54150000D01*
X138850000Y-50950000D02*
X135250000Y-50950000D01*
X138850000Y-54150000D02*
X135250000Y-54150000D01*
X165250000Y-80950000D02*
X165250000Y-84150000D01*
X168850000Y-80950000D02*
X165250000Y-80950000D01*
X168850000Y-84150000D02*
X165250000Y-84150000D01*
X150250000Y-50950000D02*
X150250000Y-54150000D01*
X153850000Y-50950000D02*
X150250000Y-50950000D01*
X153850000Y-54150000D02*
X150250000Y-54150000D01*
X105250000Y-80950000D02*
X105250000Y-84150000D01*
X108850000Y-80950000D02*
X105250000Y-80950000D01*
X108850000Y-84150000D02*
X105250000Y-84150000D01*
X165250000Y-65950000D02*
X165250000Y-69150000D01*
X168850000Y-65950000D02*
X165250000Y-65950000D01*
X168850000Y-69150000D02*
X165250000Y-69150000D01*
X120250000Y-95950000D02*
X120250000Y-99150000D01*
X123850000Y-95950000D02*
X120250000Y-95950000D01*
X123850000Y-99150000D02*
X120250000Y-99150000D01*
X135250000Y-65950000D02*
X135250000Y-69150000D01*
X138850000Y-65950000D02*
X135250000Y-65950000D01*
X138850000Y-69150000D02*
X135250000Y-69150000D01*
X120250000Y-110950000D02*
X120250000Y-114150000D01*
X123850000Y-110950000D02*
X120250000Y-110950000D01*
X123850000Y-114150000D02*
X120250000Y-114150000D01*
X105250000Y-110950000D02*
X105250000Y-114150000D01*
X108850000Y-110950000D02*
X105250000Y-110950000D01*
X108850000Y-114150000D02*
X105250000Y-114150000D01*
X120250000Y-50950000D02*
X120250000Y-54150000D01*
X123850000Y-50950000D02*
X120250000Y-50950000D01*
X123850000Y-54150000D02*
X120250000Y-54150000D01*
X150250000Y-110950000D02*
X150250000Y-114150000D01*
X153850000Y-110950000D02*
X150250000Y-110950000D01*
X153850000Y-114150000D02*
X150250000Y-114150000D01*
X105250000Y-95950000D02*
X105250000Y-99150000D01*
X108850000Y-95950000D02*
X105250000Y-95950000D01*
X108850000Y-99150000D02*
X105250000Y-99150000D01*
X105250000Y-65950000D02*
X105250000Y-69150000D01*
X108850000Y-65950000D02*
X105250000Y-65950000D01*
X108850000Y-69150000D02*
X105250000Y-69150000D01*
X150250000Y-80950000D02*
X150250000Y-84150000D01*
X153850000Y-80950000D02*
X150250000Y-80950000D01*
X153850000Y-84150000D02*
X150250000Y-84150000D01*
X165250000Y-50950000D02*
X165250000Y-54150000D01*
X168850000Y-50950000D02*
X165250000Y-50950000D01*
X168850000Y-54150000D02*
X165250000Y-54150000D01*
X120250000Y-65950000D02*
X120250000Y-69150000D01*
X123850000Y-65950000D02*
X120250000Y-65950000D01*
X123850000Y-69150000D02*
X120250000Y-69150000D01*
X150250000Y-65950000D02*
X150250000Y-69150000D01*
X153850000Y-65950000D02*
X150250000Y-65950000D01*
X153850000Y-69150000D02*
X150250000Y-69150000D01*
X165250000Y-110950000D02*
X165250000Y-114150000D01*
X168850000Y-110950000D02*
X165250000Y-110950000D01*
X168850000Y-114150000D02*
X165250000Y-114150000D01*
X165250000Y-95950000D02*
X165250000Y-99150000D01*
X168850000Y-95950000D02*
X165250000Y-95950000D01*
X168850000Y-99150000D02*
X165250000Y-99150000D01*
X120250000Y-80950000D02*
X120250000Y-84150000D01*
X123850000Y-80950000D02*
X120250000Y-80950000D01*
X123850000Y-84150000D02*
X120250000Y-84150000D01*
X135250000Y-95950000D02*
X135250000Y-99150000D01*
X138850000Y-95950000D02*
X135250000Y-95950000D01*
X138850000Y-99150000D02*
X135250000Y-99150000D01*
X135250000Y-80950000D02*
X135250000Y-84150000D01*
X138850000Y-80950000D02*
X135250000Y-80950000D01*
X138850000Y-84150000D02*
X135250000Y-84150000D01*
X105250000Y-50950000D02*
X105250000Y-54150000D01*
X108850000Y-50950000D02*
X105250000Y-50950000D01*
X108850000Y-54150000D02*
X105250000Y-54150000D01*
X150250000Y-95950000D02*
X150250000Y-99150000D01*
X153850000Y-95950000D02*
X150250000Y-95950000D01*
X153850000Y-99150000D02*
X150250000Y-99150000D01*
%LPC*%
D12*
X136605000Y-112550000D03*
D13*
X138845000Y-112550000D03*
D14*
X114950000Y-105050000D03*
D12*
X136605000Y-52550000D03*
D13*
X138845000Y-52550000D03*
D14*
X114950000Y-60050000D03*
D12*
X166605000Y-82550000D03*
D13*
X168845000Y-82550000D03*
D12*
X151605000Y-52550000D03*
D13*
X153845000Y-52550000D03*
D12*
X106605000Y-82550000D03*
D13*
X108845000Y-82550000D03*
D12*
X166605000Y-67550000D03*
D13*
X168845000Y-67550000D03*
D12*
X121605000Y-97550000D03*
D13*
X123845000Y-97550000D03*
D12*
X136605000Y-67550000D03*
D13*
X138845000Y-67550000D03*
D12*
X121605000Y-112550000D03*
D13*
X123845000Y-112550000D03*
D14*
X159950000Y-105050000D03*
D15*
X106450000Y-75050000D03*
D12*
X106605000Y-112550000D03*
D13*
X108845000Y-112550000D03*
D12*
X121605000Y-52550000D03*
D13*
X123845000Y-52550000D03*
D14*
X159950000Y-60050000D03*
D12*
X151605000Y-112550000D03*
D13*
X153845000Y-112550000D03*
D12*
X106605000Y-97550000D03*
D13*
X108845000Y-97550000D03*
D12*
X106605000Y-67550000D03*
D13*
X108845000Y-67550000D03*
D12*
X151605000Y-82550000D03*
D13*
X153845000Y-82550000D03*
D12*
X166605000Y-52550000D03*
D13*
X168845000Y-52550000D03*
D12*
X121605000Y-67550000D03*
D13*
X123845000Y-67550000D03*
D12*
X151605000Y-67550000D03*
D13*
X153845000Y-67550000D03*
D12*
X166605000Y-112550000D03*
D13*
X168845000Y-112550000D03*
D12*
X166605000Y-97550000D03*
D13*
X168845000Y-97550000D03*
D15*
X168450000Y-90050000D03*
D12*
X121605000Y-82550000D03*
D13*
X123845000Y-82550000D03*
D12*
X136605000Y-97550000D03*
D13*
X138845000Y-97550000D03*
D12*
X136605000Y-82550000D03*
D13*
X138845000Y-82550000D03*
D12*
X106605000Y-52550000D03*
D13*
X108845000Y-52550000D03*
D12*
X151605000Y-97550000D03*
D13*
X153845000Y-97550000D03*
%LPD*%
M02*
