G04 #@! TF.GenerationSoftware,KiCad,Pcbnew,7.0.9*
G04 #@! TF.CreationDate,2024-01-02T20:26:41+01:00*
G04 #@! TF.ProjectId,LEDPcb,4c454450-6362-42e6-9b69-6361645f7063,rev?*
G04 #@! TF.SameCoordinates,Original*
G04 #@! TF.FileFunction,Legend,Top*
G04 #@! TF.FilePolarity,Positive*
%FSLAX46Y46*%
G04 Gerber Fmt 4.6, Leading zero omitted, Abs format (unit mm)*
G04 Created by KiCad (PCBNEW 7.0.9) date 2024-01-02 20:26:41*
%MOMM*%
%LPD*%
G01*
G04 APERTURE LIST*
G04 Aperture macros list*
%AMRoundRect*
0 Rectangle with rounded corners*
0 $1 Rounding radius*
0 $2 $3 $4 $5 $6 $7 $8 $9 X,Y pos of 4 corners*
0 Add a 4 corners polygon primitive as box body*
4,1,4,$2,$3,$4,$5,$6,$7,$8,$9,$2,$3,0*
0 Add four circle primitives for the rounded corners*
1,1,$1+$1,$2,$3*
1,1,$1+$1,$4,$5*
1,1,$1+$1,$6,$7*
1,1,$1+$1,$8,$9*
0 Add four rect primitives between the rounded corners*
20,1,$1+$1,$2,$3,$4,$5,0*
20,1,$1+$1,$4,$5,$6,$7,0*
20,1,$1+$1,$6,$7,$8,$9,0*
20,1,$1+$1,$8,$9,$2,$3,0*%
G04 Aperture macros list end*
%ADD10C,0.300000*%
%ADD11C,0.150000*%
%ADD12C,0.120000*%
%ADD13R,2.200000X1.800000*%
%ADD14R,1.100000X1.800000*%
%ADD15C,2.100000*%
%ADD16RoundRect,0.250000X-0.750000X-0.250000X0.750000X-0.250000X0.750000X0.250000X-0.750000X0.250000X0*%
G04 APERTURE END LIST*
D10*
X131968796Y-118900828D02*
X131254510Y-118900828D01*
X131254510Y-118900828D02*
X131254510Y-117400828D01*
X132468796Y-118115114D02*
X132968796Y-118115114D01*
X133183082Y-118900828D02*
X132468796Y-118900828D01*
X132468796Y-118900828D02*
X132468796Y-117400828D01*
X132468796Y-117400828D02*
X133183082Y-117400828D01*
X133825939Y-118900828D02*
X133825939Y-117400828D01*
X133825939Y-117400828D02*
X134183082Y-117400828D01*
X134183082Y-117400828D02*
X134397368Y-117472257D01*
X134397368Y-117472257D02*
X134540225Y-117615114D01*
X134540225Y-117615114D02*
X134611654Y-117757971D01*
X134611654Y-117757971D02*
X134683082Y-118043685D01*
X134683082Y-118043685D02*
X134683082Y-118257971D01*
X134683082Y-118257971D02*
X134611654Y-118543685D01*
X134611654Y-118543685D02*
X134540225Y-118686542D01*
X134540225Y-118686542D02*
X134397368Y-118829400D01*
X134397368Y-118829400D02*
X134183082Y-118900828D01*
X134183082Y-118900828D02*
X133825939Y-118900828D01*
X135325939Y-118900828D02*
X135325939Y-117400828D01*
X135325939Y-117400828D02*
X135897368Y-117400828D01*
X135897368Y-117400828D02*
X136040225Y-117472257D01*
X136040225Y-117472257D02*
X136111654Y-117543685D01*
X136111654Y-117543685D02*
X136183082Y-117686542D01*
X136183082Y-117686542D02*
X136183082Y-117900828D01*
X136183082Y-117900828D02*
X136111654Y-118043685D01*
X136111654Y-118043685D02*
X136040225Y-118115114D01*
X136040225Y-118115114D02*
X135897368Y-118186542D01*
X135897368Y-118186542D02*
X135325939Y-118186542D01*
X137468797Y-118829400D02*
X137325939Y-118900828D01*
X137325939Y-118900828D02*
X137040225Y-118900828D01*
X137040225Y-118900828D02*
X136897368Y-118829400D01*
X136897368Y-118829400D02*
X136825939Y-118757971D01*
X136825939Y-118757971D02*
X136754511Y-118615114D01*
X136754511Y-118615114D02*
X136754511Y-118186542D01*
X136754511Y-118186542D02*
X136825939Y-118043685D01*
X136825939Y-118043685D02*
X136897368Y-117972257D01*
X136897368Y-117972257D02*
X137040225Y-117900828D01*
X137040225Y-117900828D02*
X137325939Y-117900828D01*
X137325939Y-117900828D02*
X137468797Y-117972257D01*
X138111653Y-118900828D02*
X138111653Y-117400828D01*
X138111653Y-117972257D02*
X138254511Y-117900828D01*
X138254511Y-117900828D02*
X138540225Y-117900828D01*
X138540225Y-117900828D02*
X138683082Y-117972257D01*
X138683082Y-117972257D02*
X138754511Y-118043685D01*
X138754511Y-118043685D02*
X138825939Y-118186542D01*
X138825939Y-118186542D02*
X138825939Y-118615114D01*
X138825939Y-118615114D02*
X138754511Y-118757971D01*
X138754511Y-118757971D02*
X138683082Y-118829400D01*
X138683082Y-118829400D02*
X138540225Y-118900828D01*
X138540225Y-118900828D02*
X138254511Y-118900828D01*
X138254511Y-118900828D02*
X138111653Y-118829400D01*
X140397368Y-117400828D02*
X140897368Y-118900828D01*
X140897368Y-118900828D02*
X141397368Y-117400828D01*
X142683082Y-118900828D02*
X141825939Y-118900828D01*
X142254510Y-118900828D02*
X142254510Y-117400828D01*
X142254510Y-117400828D02*
X142111653Y-117615114D01*
X142111653Y-117615114D02*
X141968796Y-117757971D01*
X141968796Y-117757971D02*
X141825939Y-117829400D01*
X143325938Y-118757971D02*
X143397367Y-118829400D01*
X143397367Y-118829400D02*
X143325938Y-118900828D01*
X143325938Y-118900828D02*
X143254510Y-118829400D01*
X143254510Y-118829400D02*
X143325938Y-118757971D01*
X143325938Y-118757971D02*
X143325938Y-118900828D01*
X144325939Y-117400828D02*
X144468796Y-117400828D01*
X144468796Y-117400828D02*
X144611653Y-117472257D01*
X144611653Y-117472257D02*
X144683082Y-117543685D01*
X144683082Y-117543685D02*
X144754510Y-117686542D01*
X144754510Y-117686542D02*
X144825939Y-117972257D01*
X144825939Y-117972257D02*
X144825939Y-118329400D01*
X144825939Y-118329400D02*
X144754510Y-118615114D01*
X144754510Y-118615114D02*
X144683082Y-118757971D01*
X144683082Y-118757971D02*
X144611653Y-118829400D01*
X144611653Y-118829400D02*
X144468796Y-118900828D01*
X144468796Y-118900828D02*
X144325939Y-118900828D01*
X144325939Y-118900828D02*
X144183082Y-118829400D01*
X144183082Y-118829400D02*
X144111653Y-118757971D01*
X144111653Y-118757971D02*
X144040224Y-118615114D01*
X144040224Y-118615114D02*
X143968796Y-118329400D01*
X143968796Y-118329400D02*
X143968796Y-117972257D01*
X143968796Y-117972257D02*
X144040224Y-117686542D01*
X144040224Y-117686542D02*
X144111653Y-117543685D01*
X144111653Y-117543685D02*
X144183082Y-117472257D01*
X144183082Y-117472257D02*
X144325939Y-117400828D01*
D11*
X169112969Y-92269819D02*
X168636779Y-92269819D01*
X168636779Y-92269819D02*
X168636779Y-91269819D01*
X169446303Y-91746009D02*
X169779636Y-91746009D01*
X169922493Y-92269819D02*
X169446303Y-92269819D01*
X169446303Y-92269819D02*
X169446303Y-91269819D01*
X169446303Y-91269819D02*
X169922493Y-91269819D01*
X170351065Y-92269819D02*
X170351065Y-91269819D01*
X170351065Y-91269819D02*
X170589160Y-91269819D01*
X170589160Y-91269819D02*
X170732017Y-91317438D01*
X170732017Y-91317438D02*
X170827255Y-91412676D01*
X170827255Y-91412676D02*
X170874874Y-91507914D01*
X170874874Y-91507914D02*
X170922493Y-91698390D01*
X170922493Y-91698390D02*
X170922493Y-91841247D01*
X170922493Y-91841247D02*
X170874874Y-92031723D01*
X170874874Y-92031723D02*
X170827255Y-92126961D01*
X170827255Y-92126961D02*
X170732017Y-92222200D01*
X170732017Y-92222200D02*
X170589160Y-92269819D01*
X170589160Y-92269819D02*
X170351065Y-92269819D01*
X171351065Y-91888866D02*
X172112970Y-91888866D01*
X171732017Y-92269819D02*
X171732017Y-91507914D01*
X104462969Y-73719819D02*
X103986779Y-73719819D01*
X103986779Y-73719819D02*
X103986779Y-72719819D01*
X104796303Y-73196009D02*
X105129636Y-73196009D01*
X105272493Y-73719819D02*
X104796303Y-73719819D01*
X104796303Y-73719819D02*
X104796303Y-72719819D01*
X104796303Y-72719819D02*
X105272493Y-72719819D01*
X105701065Y-73719819D02*
X105701065Y-72719819D01*
X105701065Y-72719819D02*
X105939160Y-72719819D01*
X105939160Y-72719819D02*
X106082017Y-72767438D01*
X106082017Y-72767438D02*
X106177255Y-72862676D01*
X106177255Y-72862676D02*
X106224874Y-72957914D01*
X106224874Y-72957914D02*
X106272493Y-73148390D01*
X106272493Y-73148390D02*
X106272493Y-73291247D01*
X106272493Y-73291247D02*
X106224874Y-73481723D01*
X106224874Y-73481723D02*
X106177255Y-73576961D01*
X106177255Y-73576961D02*
X106082017Y-73672200D01*
X106082017Y-73672200D02*
X105939160Y-73719819D01*
X105939160Y-73719819D02*
X105701065Y-73719819D01*
X106701065Y-73338866D02*
X107462970Y-73338866D01*
D12*
X135250000Y-110950000D02*
X135250000Y-114150000D01*
X138850000Y-110950000D02*
X135250000Y-110950000D01*
X138850000Y-114150000D02*
X135250000Y-114150000D01*
X135250000Y-50950000D02*
X135250000Y-54150000D01*
X138850000Y-50950000D02*
X135250000Y-50950000D01*
X138850000Y-54150000D02*
X135250000Y-54150000D01*
X165250000Y-80950000D02*
X165250000Y-84150000D01*
X168850000Y-80950000D02*
X165250000Y-80950000D01*
X168850000Y-84150000D02*
X165250000Y-84150000D01*
X150250000Y-50950000D02*
X150250000Y-54150000D01*
X153850000Y-50950000D02*
X150250000Y-50950000D01*
X153850000Y-54150000D02*
X150250000Y-54150000D01*
X105250000Y-80950000D02*
X105250000Y-84150000D01*
X108850000Y-80950000D02*
X105250000Y-80950000D01*
X108850000Y-84150000D02*
X105250000Y-84150000D01*
X165250000Y-65950000D02*
X165250000Y-69150000D01*
X168850000Y-65950000D02*
X165250000Y-65950000D01*
X168850000Y-69150000D02*
X165250000Y-69150000D01*
X120250000Y-95950000D02*
X120250000Y-99150000D01*
X123850000Y-95950000D02*
X120250000Y-95950000D01*
X123850000Y-99150000D02*
X120250000Y-99150000D01*
X135250000Y-65950000D02*
X135250000Y-69150000D01*
X138850000Y-65950000D02*
X135250000Y-65950000D01*
X138850000Y-69150000D02*
X135250000Y-69150000D01*
X120250000Y-110950000D02*
X120250000Y-114150000D01*
X123850000Y-110950000D02*
X120250000Y-110950000D01*
X123850000Y-114150000D02*
X120250000Y-114150000D01*
X105250000Y-110950000D02*
X105250000Y-114150000D01*
X108850000Y-110950000D02*
X105250000Y-110950000D01*
X108850000Y-114150000D02*
X105250000Y-114150000D01*
X120250000Y-50950000D02*
X120250000Y-54150000D01*
X123850000Y-50950000D02*
X120250000Y-50950000D01*
X123850000Y-54150000D02*
X120250000Y-54150000D01*
X150250000Y-110950000D02*
X150250000Y-114150000D01*
X153850000Y-110950000D02*
X150250000Y-110950000D01*
X153850000Y-114150000D02*
X150250000Y-114150000D01*
X105250000Y-95950000D02*
X105250000Y-99150000D01*
X108850000Y-95950000D02*
X105250000Y-95950000D01*
X108850000Y-99150000D02*
X105250000Y-99150000D01*
X105250000Y-65950000D02*
X105250000Y-69150000D01*
X108850000Y-65950000D02*
X105250000Y-65950000D01*
X108850000Y-69150000D02*
X105250000Y-69150000D01*
X150250000Y-80950000D02*
X150250000Y-84150000D01*
X153850000Y-80950000D02*
X150250000Y-80950000D01*
X153850000Y-84150000D02*
X150250000Y-84150000D01*
X165250000Y-50950000D02*
X165250000Y-54150000D01*
X168850000Y-50950000D02*
X165250000Y-50950000D01*
X168850000Y-54150000D02*
X165250000Y-54150000D01*
X120250000Y-65950000D02*
X120250000Y-69150000D01*
X123850000Y-65950000D02*
X120250000Y-65950000D01*
X123850000Y-69150000D02*
X120250000Y-69150000D01*
X150250000Y-65950000D02*
X150250000Y-69150000D01*
X153850000Y-65950000D02*
X150250000Y-65950000D01*
X153850000Y-69150000D02*
X150250000Y-69150000D01*
X165250000Y-110950000D02*
X165250000Y-114150000D01*
X168850000Y-110950000D02*
X165250000Y-110950000D01*
X168850000Y-114150000D02*
X165250000Y-114150000D01*
X165250000Y-95950000D02*
X165250000Y-99150000D01*
X168850000Y-95950000D02*
X165250000Y-95950000D01*
X168850000Y-99150000D02*
X165250000Y-99150000D01*
X120250000Y-80950000D02*
X120250000Y-84150000D01*
X123850000Y-80950000D02*
X120250000Y-80950000D01*
X123850000Y-84150000D02*
X120250000Y-84150000D01*
X135250000Y-95950000D02*
X135250000Y-99150000D01*
X138850000Y-95950000D02*
X135250000Y-95950000D01*
X138850000Y-99150000D02*
X135250000Y-99150000D01*
X135250000Y-80950000D02*
X135250000Y-84150000D01*
X138850000Y-80950000D02*
X135250000Y-80950000D01*
X138850000Y-84150000D02*
X135250000Y-84150000D01*
X105250000Y-50950000D02*
X105250000Y-54150000D01*
X108850000Y-50950000D02*
X105250000Y-50950000D01*
X108850000Y-54150000D02*
X105250000Y-54150000D01*
X150250000Y-95950000D02*
X150250000Y-99150000D01*
X153850000Y-95950000D02*
X150250000Y-95950000D01*
X153850000Y-99150000D02*
X150250000Y-99150000D01*
%LPC*%
D13*
X136605000Y-112550000D03*
D14*
X138845000Y-112550000D03*
D15*
X114950000Y-105050000D03*
D13*
X136605000Y-52550000D03*
D14*
X138845000Y-52550000D03*
D15*
X114950000Y-60050000D03*
D13*
X166605000Y-82550000D03*
D14*
X168845000Y-82550000D03*
D13*
X151605000Y-52550000D03*
D14*
X153845000Y-52550000D03*
D13*
X106605000Y-82550000D03*
D14*
X108845000Y-82550000D03*
D13*
X166605000Y-67550000D03*
D14*
X168845000Y-67550000D03*
D13*
X121605000Y-97550000D03*
D14*
X123845000Y-97550000D03*
D13*
X136605000Y-67550000D03*
D14*
X138845000Y-67550000D03*
D13*
X121605000Y-112550000D03*
D14*
X123845000Y-112550000D03*
D15*
X159950000Y-105050000D03*
D16*
X106450000Y-75050000D03*
D13*
X106605000Y-112550000D03*
D14*
X108845000Y-112550000D03*
D13*
X121605000Y-52550000D03*
D14*
X123845000Y-52550000D03*
D15*
X159950000Y-60050000D03*
D13*
X151605000Y-112550000D03*
D14*
X153845000Y-112550000D03*
D13*
X106605000Y-97550000D03*
D14*
X108845000Y-97550000D03*
D13*
X106605000Y-67550000D03*
D14*
X108845000Y-67550000D03*
D13*
X151605000Y-82550000D03*
D14*
X153845000Y-82550000D03*
D13*
X166605000Y-52550000D03*
D14*
X168845000Y-52550000D03*
D13*
X121605000Y-67550000D03*
D14*
X123845000Y-67550000D03*
D13*
X151605000Y-67550000D03*
D14*
X153845000Y-67550000D03*
D13*
X166605000Y-112550000D03*
D14*
X168845000Y-112550000D03*
D13*
X166605000Y-97550000D03*
D14*
X168845000Y-97550000D03*
D16*
X168450000Y-90050000D03*
D13*
X121605000Y-82550000D03*
D14*
X123845000Y-82550000D03*
D13*
X136605000Y-97550000D03*
D14*
X138845000Y-97550000D03*
D13*
X136605000Y-82550000D03*
D14*
X138845000Y-82550000D03*
D13*
X106605000Y-52550000D03*
D14*
X108845000Y-52550000D03*
D13*
X151605000Y-97550000D03*
D14*
X153845000Y-97550000D03*
%LPD*%
M02*
