G04 #@! TF.GenerationSoftware,KiCad,Pcbnew,(6.0.7)*
G04 #@! TF.CreationDate,2022-10-27T11:41:06+02:00*
G04 #@! TF.ProjectId,FPS_AL,4650535f-414c-42e6-9b69-6361645f7063,rev?*
G04 #@! TF.SameCoordinates,Original*
G04 #@! TF.FileFunction,Copper,L2,Bot*
G04 #@! TF.FilePolarity,Positive*
%FSLAX46Y46*%
G04 Gerber Fmt 4.6, Leading zero omitted, Abs format (unit mm)*
G04 Created by KiCad (PCBNEW (6.0.7)) date 2022-10-27 11:41:06*
%MOMM*%
%LPD*%
G01*
G04 APERTURE LIST*
G04 Aperture macros list*
%AMRoundRect*
0 Rectangle with rounded corners*
0 $1 Rounding radius*
0 $2 $3 $4 $5 $6 $7 $8 $9 X,Y pos of 4 corners*
0 Add a 4 corners polygon primitive as box body*
4,1,4,$2,$3,$4,$5,$6,$7,$8,$9,$2,$3,0*
0 Add four circle primitives for the rounded corners*
1,1,$1+$1,$2,$3*
1,1,$1+$1,$4,$5*
1,1,$1+$1,$6,$7*
1,1,$1+$1,$8,$9*
0 Add four rect primitives between the rounded corners*
20,1,$1+$1,$2,$3,$4,$5,0*
20,1,$1+$1,$4,$5,$6,$7,0*
20,1,$1+$1,$6,$7,$8,$9,0*
20,1,$1+$1,$8,$9,$2,$3,0*%
G04 Aperture macros list end*
G04 #@! TA.AperFunction,SMDPad,CuDef*
%ADD10RoundRect,0.125000X-2.375000X-0.375000X2.375000X-0.375000X2.375000X0.375000X-2.375000X0.375000X0*%
G04 #@! TD*
G04 #@! TA.AperFunction,ViaPad*
%ADD11C,0.500000*%
G04 #@! TD*
G04 #@! TA.AperFunction,Conductor*
%ADD12C,0.500000*%
G04 #@! TD*
G04 APERTURE END LIST*
D10*
X107300000Y-62550000D03*
X86800000Y-62550000D03*
D11*
X89850000Y-62800000D03*
X84550000Y-63500000D03*
X109550000Y-70000000D03*
X84550000Y-70000000D03*
X109550000Y-63500000D03*
X105300000Y-62550000D03*
X106300000Y-62550000D03*
X107300000Y-62550000D03*
X108300000Y-62550000D03*
X109300000Y-62550000D03*
D12*
X100250000Y-63500000D02*
X109550000Y-63500000D01*
X84550000Y-63500000D02*
X84550000Y-70000000D01*
X84550000Y-70000000D02*
X109550000Y-70000000D01*
X99550000Y-62800000D02*
X100250000Y-63500000D01*
X89850000Y-62800000D02*
X99550000Y-62800000D01*
X89850000Y-62800000D02*
X87050000Y-62800000D01*
X87050000Y-62800000D02*
X86800000Y-62550000D01*
X109550000Y-70000000D02*
X109550000Y-63500000D01*
X84550000Y-62550000D02*
X84550000Y-63500000D01*
X86800000Y-62550000D02*
X84550000Y-62550000D01*
G04 #@! TA.AperFunction,Conductor*
G36*
X87054000Y-63539884D02*
G01*
X87058475Y-63555123D01*
X87059865Y-63556328D01*
X87067548Y-63557999D01*
X89236454Y-63557999D01*
X89241389Y-63557805D01*
X89268392Y-63555681D01*
X89280993Y-63553380D01*
X89420780Y-63512768D01*
X89435217Y-63506520D01*
X89559227Y-63433181D01*
X89571665Y-63423532D01*
X89673532Y-63321665D01*
X89683181Y-63309227D01*
X89756520Y-63185217D01*
X89762768Y-63170780D01*
X89803382Y-63030987D01*
X89805680Y-63018400D01*
X89807807Y-62991384D01*
X89808000Y-62986458D01*
X89807999Y-62676000D01*
X89828001Y-62607880D01*
X89881656Y-62561387D01*
X89933999Y-62550000D01*
X99571622Y-62550000D01*
X99639743Y-62570002D01*
X99660717Y-62586905D01*
X100523812Y-63450000D01*
X109410906Y-63450000D01*
X109479027Y-63470002D01*
X109525520Y-63523658D01*
X109536906Y-63576000D01*
X109536906Y-69874000D01*
X109516904Y-69942121D01*
X109463248Y-69988614D01*
X109410906Y-70000000D01*
X84662906Y-70000000D01*
X84594785Y-69979998D01*
X84548292Y-69926342D01*
X84536906Y-69874000D01*
X84536906Y-63684000D01*
X84556908Y-63615879D01*
X84610564Y-63569386D01*
X84662906Y-63558000D01*
X86527885Y-63558000D01*
X86543124Y-63553525D01*
X86544329Y-63552135D01*
X86546000Y-63544452D01*
X86546000Y-62550000D01*
X87054000Y-62550000D01*
X87054000Y-63539884D01*
G37*
G04 #@! TD.AperFunction*
M02*
