M48
; DRILL file {KiCad (6.0.7)} date Thu Oct 27 11:39:42 2022
; FORMAT={-:-/ absolute / metric / decimal}
; #@! TF.CreationDate,2022-10-27T11:39:42+02:00
; #@! TF.GenerationSoftware,Kicad,Pcbnew,(6.0.7)
; #@! TF.FileFunction,Plated,1,4,PTH
FMAT,2
METRIC
; #@! TA.AperFunction,Plated,PTH,ViaDrill
T1C0.200
; #@! TA.AperFunction,Plated,PTH,ComponentDrill
T2C0.450
; #@! TA.AperFunction,Plated,PTH,ComponentDrill
T3C1.000
; #@! TA.AperFunction,Plated,PTH,ComponentDrill
T4C1.190
%
G90
G05
T1
X75.85Y-41.0
X76.15Y-65.35
X76.5Y-91.5
X79.6Y-37.8
X80.25Y-37.6
X81.048Y-35.0
X81.124Y-36.51
X81.8Y-40.45
X82.6Y-36.3
X83.2Y-39.95
X84.0Y-48.8
X84.0Y-60.2
X84.0Y-71.6
X84.0Y-83.0
X84.25Y-33.45
X84.25Y-34.05
X84.3Y-39.95
X85.4Y-39.95
X85.5Y-48.75
X85.5Y-60.2
X85.5Y-71.6
X85.5Y-83.0
X86.2Y-30.75
X86.2Y-31.8
X86.2Y-32.9
X86.2Y-33.85
X86.5Y-39.95
X86.95Y-47.15
X86.95Y-52.85
X86.95Y-58.65
X86.95Y-64.2
X86.95Y-70.15
X86.95Y-75.6
X86.95Y-81.6
X87.0Y-86.95
X87.15Y-30.75
X87.15Y-31.8
X87.15Y-32.9
X87.15Y-33.85
X87.6Y-39.95
X88.35Y-34.6
X88.7Y-39.95
X89.25Y-31.0
X89.25Y-31.65
X89.25Y-32.35
X89.7Y-32.85
X89.8Y-39.95
X89.95Y-41.8
X90.048Y-36.381
X90.45Y-32.05
X90.5Y-35.75
X90.9Y-39.95
X92.15Y-36.8
X92.2Y-32.15
X92.861Y-30.539
X92.95Y-32.127
X93.2Y-33.75
X93.25Y-37.25
X93.487Y-30.555
X93.986Y-39.006
X94.05Y-37.25
X94.541Y-30.6
X94.923Y-39.002
X94.95Y-37.24
X95.1Y-33.8
X95.168Y-30.603
X95.55Y-39.002
X96.1Y-33.8
X96.55Y-30.6
X97.043Y-33.459
X97.114Y-32.836
X97.15Y-32.2
X97.2Y-30.6
X97.386Y-37.197
X98.7Y-31.4
X98.7Y-39.55
X98.761Y-38.344
X98.95Y-35.8
X99.65Y-39.95
X100.3Y-41.3
X100.55Y-34.55
X100.75Y-39.95
X101.062Y-35.796
X101.2Y-33.0
X101.489Y-34.54
X101.85Y-39.95
X102.95Y-39.95
X103.05Y-47.05
X103.05Y-53.0
X103.05Y-58.4
X103.05Y-64.4
X103.05Y-69.9
X103.05Y-75.85
X103.05Y-81.25
X103.1Y-87.2
X103.911Y-34.991
X104.05Y-39.95
X104.5Y-65.9
X104.5Y-77.3
X104.5Y-88.7
X104.55Y-54.5
X105.15Y-32.94
X105.15Y-39.95
X105.8Y-32.94
X106.0Y-65.9
X106.0Y-77.3
X106.0Y-88.7
X106.05Y-54.5
X106.25Y-39.95
X107.35Y-39.95
X107.8Y-33.0
X107.8Y-33.95
X108.3Y-92.2
X108.6Y-34.5
X108.85Y-40.45
X111.5Y-38.75
X111.55Y-38.1
X113.5Y-91.5
X114.1Y-40.4
T3
X76.51Y-39.175
X79.05Y-39.175
X102.42Y-35.75
X104.96Y-35.75
X107.5Y-35.75
T4
X78.17Y-31.36
X78.17Y-33.9
X78.17Y-36.44
X111.92Y-31.36
X111.92Y-33.9
X111.92Y-36.44
T2
X100.925Y-31.65G85X100.925Y-30.85
G05
X108.075Y-30.85G85X108.075Y-31.65
G05
T0
M30
