G04 #@! TF.GenerationSoftware,KiCad,Pcbnew,(6.0.7)*
G04 #@! TF.CreationDate,2022-10-27T11:48:24+02:00*
G04 #@! TF.ProjectId,mainControl,6d61696e-436f-46e7-9472-6f6c2e6b6963,rev?*
G04 #@! TF.SameCoordinates,Original*
G04 #@! TF.FileFunction,Copper,L2,Inr*
G04 #@! TF.FilePolarity,Positive*
%FSLAX46Y46*%
G04 Gerber Fmt 4.6, Leading zero omitted, Abs format (unit mm)*
G04 Created by KiCad (PCBNEW (6.0.7)) date 2022-10-27 11:48:24*
%MOMM*%
%LPD*%
G01*
G04 APERTURE LIST*
G04 Aperture macros list*
%AMRoundRect*
0 Rectangle with rounded corners*
0 $1 Rounding radius*
0 $2 $3 $4 $5 $6 $7 $8 $9 X,Y pos of 4 corners*
0 Add a 4 corners polygon primitive as box body*
4,1,4,$2,$3,$4,$5,$6,$7,$8,$9,$2,$3,0*
0 Add four circle primitives for the rounded corners*
1,1,$1+$1,$2,$3*
1,1,$1+$1,$4,$5*
1,1,$1+$1,$6,$7*
1,1,$1+$1,$8,$9*
0 Add four rect primitives between the rounded corners*
20,1,$1+$1,$2,$3,$4,$5,0*
20,1,$1+$1,$4,$5,$6,$7,0*
20,1,$1+$1,$6,$7,$8,$9,0*
20,1,$1+$1,$8,$9,$2,$3,0*%
G04 Aperture macros list end*
G04 #@! TA.AperFunction,ComponentPad*
%ADD10R,1.700000X1.700000*%
G04 #@! TD*
G04 #@! TA.AperFunction,ComponentPad*
%ADD11O,1.700000X1.700000*%
G04 #@! TD*
G04 #@! TA.AperFunction,ComponentPad*
%ADD12RoundRect,0.250000X-0.620000X-0.845000X0.620000X-0.845000X0.620000X0.845000X-0.620000X0.845000X0*%
G04 #@! TD*
G04 #@! TA.AperFunction,ComponentPad*
%ADD13O,1.740000X2.190000*%
G04 #@! TD*
G04 #@! TA.AperFunction,ComponentPad*
%ADD14R,1.600000X1.600000*%
G04 #@! TD*
G04 #@! TA.AperFunction,ComponentPad*
%ADD15C,1.600000*%
G04 #@! TD*
G04 #@! TA.AperFunction,ComponentPad*
%ADD16RoundRect,0.249999X0.790001X1.550001X-0.790001X1.550001X-0.790001X-1.550001X0.790001X-1.550001X0*%
G04 #@! TD*
G04 #@! TA.AperFunction,ComponentPad*
%ADD17O,2.080000X3.600000*%
G04 #@! TD*
G04 #@! TA.AperFunction,ComponentPad*
%ADD18O,1.900000X1.050000*%
G04 #@! TD*
G04 #@! TA.AperFunction,ViaPad*
%ADD19C,0.500000*%
G04 #@! TD*
G04 APERTURE END LIST*
D10*
X91650000Y-162875000D03*
D11*
X94190000Y-162875000D03*
D12*
X100800000Y-174100000D03*
D13*
X103340000Y-174100000D03*
X105880000Y-174100000D03*
D10*
X101950000Y-133375000D03*
D11*
X104490000Y-133375000D03*
X107030000Y-133375000D03*
X109570000Y-133375000D03*
D10*
X93000000Y-160075000D03*
D11*
X93000000Y-157535000D03*
X93000000Y-154995000D03*
D10*
X82900000Y-153225000D03*
D11*
X80360000Y-153225000D03*
D14*
X87582380Y-167600000D03*
D15*
X85082380Y-167600000D03*
D12*
X85160000Y-174120000D03*
D13*
X87700000Y-174120000D03*
X90240000Y-174120000D03*
D12*
X93000000Y-174100000D03*
D13*
X95540000Y-174100000D03*
X98080000Y-174100000D03*
D14*
X103382380Y-167600000D03*
D15*
X100882380Y-167600000D03*
D14*
X95482380Y-167600000D03*
D15*
X92982380Y-167600000D03*
D16*
X116240000Y-165877500D03*
D17*
X111160000Y-165877500D03*
D10*
X88700000Y-153225000D03*
D11*
X86160000Y-153225000D03*
D12*
X77360000Y-174120000D03*
D13*
X79900000Y-174120000D03*
X82440000Y-174120000D03*
D18*
X71470000Y-162955000D03*
X71470000Y-155805000D03*
X71400000Y-139050000D03*
X71400000Y-146200000D03*
D14*
X79782380Y-167600000D03*
D15*
X77282380Y-167600000D03*
D19*
X109600000Y-159800000D03*
X110600000Y-137800000D03*
X107700000Y-159800000D03*
X111500000Y-159800000D03*
X108600000Y-137800000D03*
X108600000Y-159800000D03*
X107600000Y-137800000D03*
X109600000Y-137800000D03*
X111500000Y-137800000D03*
X110500000Y-159800000D03*
X84850000Y-155550000D03*
X78650000Y-138200000D03*
X84250000Y-159600000D03*
X98100000Y-142150000D03*
X107514286Y-142450000D03*
X92555000Y-133145000D03*
X110800000Y-172600000D03*
X110150000Y-158600000D03*
X103700000Y-153100000D03*
X97006717Y-161952748D03*
X103700000Y-152500000D03*
X103700000Y-150650000D03*
X99350000Y-157050000D03*
X111350000Y-172600000D03*
X84550000Y-164550000D03*
X85800000Y-139550000D03*
X85800000Y-141750000D03*
X103700000Y-151900000D03*
X79950000Y-142950000D03*
X97450000Y-139300000D03*
X87900000Y-148900000D03*
X97150000Y-159100000D03*
X84250000Y-160700000D03*
X103700000Y-151300000D03*
X110250000Y-172600000D03*
X83600000Y-141750000D03*
X98450000Y-157000000D03*
X79950000Y-164950000D03*
X108214286Y-143850000D03*
X107514286Y-141650000D03*
X87750000Y-162400000D03*
X103700000Y-150000000D03*
X79950000Y-141650000D03*
X110750000Y-158600000D03*
X83600000Y-139550000D03*
X78850000Y-154800000D03*
X95950000Y-133150000D03*
X78945000Y-133145000D03*
X89850000Y-156400000D03*
X87750000Y-161800000D03*
X97650000Y-161950000D03*
X81250000Y-142950000D03*
X79550000Y-133150000D03*
X115014286Y-140550000D03*
X100850000Y-161500000D03*
X75500000Y-139300000D03*
X81250000Y-141650000D03*
X84250000Y-158500000D03*
X87882394Y-160596938D03*
X88150000Y-148050000D03*
X81050000Y-159550000D03*
X83300000Y-161600000D03*
X103950000Y-158600000D03*
X86350000Y-164350000D03*
X98700000Y-150500000D03*
X100700000Y-154200000D03*
X79700000Y-163400000D03*
X99350000Y-141250000D03*
X81900000Y-156850000D03*
X78650000Y-140500000D03*
X86550000Y-155750000D03*
X99450000Y-150500000D03*
X103800000Y-140650000D03*
X78650000Y-139950000D03*
X100250000Y-151600000D03*
X95400000Y-160250000D03*
X89800000Y-160176503D03*
X100700000Y-153350000D03*
X81900000Y-156250000D03*
X100700000Y-152450000D03*
X100250000Y-150500000D03*
X79550000Y-134450000D03*
X78950000Y-134450000D03*
X97950000Y-150500000D03*
X91500000Y-145450000D03*
X96550000Y-142300000D03*
X116650000Y-159450000D03*
X110750000Y-174550000D03*
X73850000Y-153950000D03*
X110100000Y-174550000D03*
X117450000Y-160250000D03*
X112050000Y-174550000D03*
X109450000Y-174550000D03*
X117050000Y-159850000D03*
X108200000Y-173900000D03*
X111400000Y-174550000D03*
X116250000Y-159050000D03*
X112700000Y-173850000D03*
X89800000Y-159550000D03*
X81050000Y-160250000D03*
X81050000Y-158000000D03*
X84500000Y-145600000D03*
X75250000Y-140950000D03*
X75300000Y-142000000D03*
X75300000Y-142626503D03*
X85950000Y-146050000D03*
X82450000Y-144350000D03*
X92750000Y-149650000D03*
X87900000Y-159900000D03*
X83100000Y-164350000D03*
X91450000Y-149200000D03*
X92000000Y-138300000D03*
X92650000Y-137000000D03*
X82188873Y-164361127D03*
X82050000Y-165950000D03*
X80897226Y-161604923D03*
X80890725Y-160963249D03*
X82700000Y-161300000D03*
X100550000Y-160450000D03*
X95950000Y-164250000D03*
X99450000Y-165050000D03*
X96850000Y-161300000D03*
X99950000Y-143750000D03*
X100980837Y-142319163D03*
X94850000Y-157700000D03*
X89733309Y-161694436D03*
X89750893Y-161068181D03*
X94800000Y-158500000D03*
X85650000Y-155300000D03*
X78850000Y-161050000D03*
X82250000Y-155350000D03*
X83965000Y-155448583D03*
G04 #@! TA.AperFunction,Conductor*
G36*
X100614355Y-132268806D02*
G01*
X100632661Y-132313000D01*
X100628684Y-132334939D01*
X100600123Y-132411125D01*
X100598325Y-132418689D01*
X100592183Y-132475230D01*
X100592000Y-132478598D01*
X100592000Y-133108569D01*
X100595641Y-133117359D01*
X100604431Y-133121000D01*
X103295568Y-133121000D01*
X103304358Y-133117359D01*
X103307999Y-133108569D01*
X103307999Y-132478604D01*
X103307817Y-132475234D01*
X103301675Y-132418690D01*
X103299876Y-132411122D01*
X103271316Y-132334939D01*
X103272944Y-132287132D01*
X103307900Y-132254477D01*
X103329839Y-132250500D01*
X113637500Y-132250500D01*
X113681694Y-132268806D01*
X113700000Y-132313000D01*
X113700000Y-138100000D01*
X115300000Y-139700000D01*
X119687000Y-139700000D01*
X119731194Y-139718306D01*
X119749500Y-139762500D01*
X119749500Y-170187500D01*
X119731194Y-170231694D01*
X119687000Y-170250000D01*
X115350000Y-170250000D01*
X113050000Y-172550000D01*
X113050000Y-173515246D01*
X113031694Y-173559440D01*
X112987500Y-173577746D01*
X112943306Y-173559440D01*
X112924655Y-173540789D01*
X112865008Y-173510397D01*
X112822489Y-173488732D01*
X112822488Y-173488732D01*
X112818108Y-173486500D01*
X112700000Y-173467794D01*
X112581892Y-173486500D01*
X112577512Y-173488732D01*
X112577511Y-173488732D01*
X112534992Y-173510397D01*
X112475345Y-173540789D01*
X112390789Y-173625345D01*
X112336500Y-173731892D01*
X112317794Y-173850000D01*
X112336500Y-173968108D01*
X112338732Y-173972488D01*
X112338732Y-173972489D01*
X112359502Y-174013252D01*
X112390789Y-174074655D01*
X112475345Y-174159211D01*
X112479724Y-174161442D01*
X112577511Y-174211268D01*
X112577512Y-174211268D01*
X112581892Y-174213500D01*
X112700000Y-174232206D01*
X112818108Y-174213500D01*
X112822488Y-174211268D01*
X112822489Y-174211268D01*
X112920276Y-174161442D01*
X112924655Y-174159211D01*
X112943306Y-174140560D01*
X112987500Y-174122254D01*
X113031694Y-174140560D01*
X113050000Y-174184754D01*
X113050000Y-176687000D01*
X113031694Y-176731194D01*
X112987500Y-176749500D01*
X76362500Y-176749500D01*
X76318306Y-176731194D01*
X76300000Y-176687000D01*
X76300000Y-175696190D01*
X76318306Y-175651996D01*
X76362500Y-175633690D01*
X76395296Y-175642986D01*
X76414389Y-175654755D01*
X76420919Y-175657800D01*
X76582004Y-175711230D01*
X76588632Y-175712651D01*
X76688052Y-175722838D01*
X76691234Y-175723000D01*
X77093569Y-175723000D01*
X77102359Y-175719359D01*
X77106000Y-175710569D01*
X77106000Y-175710568D01*
X77614000Y-175710568D01*
X77617641Y-175719358D01*
X77626431Y-175722999D01*
X78028752Y-175722999D01*
X78031966Y-175722833D01*
X78132664Y-175712385D01*
X78139301Y-175710952D01*
X78300286Y-175657244D01*
X78306822Y-175654182D01*
X78450953Y-175564990D01*
X78456596Y-175560518D01*
X78576346Y-175440559D01*
X78580817Y-175434898D01*
X78669753Y-175290615D01*
X78672800Y-175284081D01*
X78726230Y-175122996D01*
X78727651Y-175116368D01*
X78737838Y-175016948D01*
X78738000Y-175013766D01*
X78738000Y-174395641D01*
X78902500Y-174395641D01*
X78917835Y-174546610D01*
X78918779Y-174549623D01*
X78918780Y-174549627D01*
X78977487Y-174736962D01*
X78978434Y-174739983D01*
X79019546Y-174814150D01*
X79075043Y-174914269D01*
X79076680Y-174917223D01*
X79078736Y-174919622D01*
X79078739Y-174919626D01*
X79206496Y-175068683D01*
X79206499Y-175068686D01*
X79208557Y-175071087D01*
X79211057Y-175073026D01*
X79211060Y-175073029D01*
X79365680Y-175192963D01*
X79368680Y-175195290D01*
X79371517Y-175196686D01*
X79547662Y-175283361D01*
X79547666Y-175283362D01*
X79550506Y-175284760D01*
X79746610Y-175335841D01*
X79948979Y-175346447D01*
X79952105Y-175345974D01*
X79952109Y-175345974D01*
X80146215Y-175316618D01*
X80146218Y-175316617D01*
X80149347Y-175316144D01*
X80339530Y-175246170D01*
X80511758Y-175139384D01*
X80658997Y-175000148D01*
X80695297Y-174948307D01*
X80773417Y-174836740D01*
X80773419Y-174836736D01*
X80775230Y-174834150D01*
X80855711Y-174648169D01*
X80859284Y-174631069D01*
X80896658Y-174452164D01*
X80897151Y-174449805D01*
X80897500Y-174443146D01*
X80897500Y-174395641D01*
X81442500Y-174395641D01*
X81457835Y-174546610D01*
X81458779Y-174549623D01*
X81458780Y-174549627D01*
X81517487Y-174736962D01*
X81518434Y-174739983D01*
X81559546Y-174814150D01*
X81615043Y-174914269D01*
X81616680Y-174917223D01*
X81618736Y-174919622D01*
X81618739Y-174919626D01*
X81746496Y-175068683D01*
X81746499Y-175068686D01*
X81748557Y-175071087D01*
X81751057Y-175073026D01*
X81751060Y-175073029D01*
X81905680Y-175192963D01*
X81908680Y-175195290D01*
X81911517Y-175196686D01*
X82087662Y-175283361D01*
X82087666Y-175283362D01*
X82090506Y-175284760D01*
X82286610Y-175335841D01*
X82488979Y-175346447D01*
X82492105Y-175345974D01*
X82492109Y-175345974D01*
X82686215Y-175316618D01*
X82686218Y-175316617D01*
X82689347Y-175316144D01*
X82879530Y-175246170D01*
X83051758Y-175139384D01*
X83184611Y-175013752D01*
X83782001Y-175013752D01*
X83782167Y-175016966D01*
X83792615Y-175117664D01*
X83794048Y-175124301D01*
X83847756Y-175285286D01*
X83850818Y-175291822D01*
X83940010Y-175435953D01*
X83944482Y-175441596D01*
X84064441Y-175561346D01*
X84070102Y-175565817D01*
X84214385Y-175654753D01*
X84220919Y-175657800D01*
X84382004Y-175711230D01*
X84388632Y-175712651D01*
X84488052Y-175722838D01*
X84491234Y-175723000D01*
X84893569Y-175723000D01*
X84902359Y-175719359D01*
X84906000Y-175710569D01*
X84906000Y-175710568D01*
X85414000Y-175710568D01*
X85417641Y-175719358D01*
X85426431Y-175722999D01*
X85828752Y-175722999D01*
X85831966Y-175722833D01*
X85932664Y-175712385D01*
X85939301Y-175710952D01*
X86100286Y-175657244D01*
X86106822Y-175654182D01*
X86250953Y-175564990D01*
X86256596Y-175560518D01*
X86376346Y-175440559D01*
X86380817Y-175434898D01*
X86469753Y-175290615D01*
X86472800Y-175284081D01*
X86526230Y-175122996D01*
X86527651Y-175116368D01*
X86537838Y-175016948D01*
X86538000Y-175013766D01*
X86538000Y-174395641D01*
X86702500Y-174395641D01*
X86717835Y-174546610D01*
X86718779Y-174549623D01*
X86718780Y-174549627D01*
X86777487Y-174736962D01*
X86778434Y-174739983D01*
X86819546Y-174814150D01*
X86875043Y-174914269D01*
X86876680Y-174917223D01*
X86878736Y-174919622D01*
X86878739Y-174919626D01*
X87006496Y-175068683D01*
X87006499Y-175068686D01*
X87008557Y-175071087D01*
X87011057Y-175073026D01*
X87011060Y-175073029D01*
X87165680Y-175192963D01*
X87168680Y-175195290D01*
X87171517Y-175196686D01*
X87347662Y-175283361D01*
X87347666Y-175283362D01*
X87350506Y-175284760D01*
X87546610Y-175335841D01*
X87748979Y-175346447D01*
X87752105Y-175345974D01*
X87752109Y-175345974D01*
X87946215Y-175316618D01*
X87946218Y-175316617D01*
X87949347Y-175316144D01*
X88139530Y-175246170D01*
X88311758Y-175139384D01*
X88458997Y-175000148D01*
X88495297Y-174948307D01*
X88573417Y-174836740D01*
X88573419Y-174836736D01*
X88575230Y-174834150D01*
X88655711Y-174648169D01*
X88659284Y-174631069D01*
X88696658Y-174452164D01*
X88697151Y-174449805D01*
X88697500Y-174443146D01*
X88697500Y-174395641D01*
X89242500Y-174395641D01*
X89257835Y-174546610D01*
X89258779Y-174549623D01*
X89258780Y-174549627D01*
X89317487Y-174736962D01*
X89318434Y-174739983D01*
X89359546Y-174814150D01*
X89415043Y-174914269D01*
X89416680Y-174917223D01*
X89418736Y-174919622D01*
X89418739Y-174919626D01*
X89546496Y-175068683D01*
X89546499Y-175068686D01*
X89548557Y-175071087D01*
X89551057Y-175073026D01*
X89551060Y-175073029D01*
X89705680Y-175192963D01*
X89708680Y-175195290D01*
X89711517Y-175196686D01*
X89887662Y-175283361D01*
X89887666Y-175283362D01*
X89890506Y-175284760D01*
X90086610Y-175335841D01*
X90288979Y-175346447D01*
X90292105Y-175345974D01*
X90292109Y-175345974D01*
X90486215Y-175316618D01*
X90486218Y-175316617D01*
X90489347Y-175316144D01*
X90679530Y-175246170D01*
X90851758Y-175139384D01*
X90998997Y-175000148D01*
X91003476Y-174993752D01*
X91622001Y-174993752D01*
X91622167Y-174996966D01*
X91632615Y-175097664D01*
X91634048Y-175104301D01*
X91687756Y-175265286D01*
X91690818Y-175271822D01*
X91780010Y-175415953D01*
X91784482Y-175421596D01*
X91904441Y-175541346D01*
X91910102Y-175545817D01*
X92054385Y-175634753D01*
X92060919Y-175637800D01*
X92222004Y-175691230D01*
X92228632Y-175692651D01*
X92328052Y-175702838D01*
X92331234Y-175703000D01*
X92733569Y-175703000D01*
X92742359Y-175699359D01*
X92746000Y-175690569D01*
X92746000Y-175690568D01*
X93254000Y-175690568D01*
X93257641Y-175699358D01*
X93266431Y-175702999D01*
X93668752Y-175702999D01*
X93671966Y-175702833D01*
X93772664Y-175692385D01*
X93779301Y-175690952D01*
X93940286Y-175637244D01*
X93946822Y-175634182D01*
X94090953Y-175544990D01*
X94096596Y-175540518D01*
X94216346Y-175420559D01*
X94220817Y-175414898D01*
X94309753Y-175270615D01*
X94312800Y-175264081D01*
X94366230Y-175102996D01*
X94367651Y-175096368D01*
X94377838Y-174996948D01*
X94378000Y-174993766D01*
X94378000Y-174375641D01*
X94542500Y-174375641D01*
X94557835Y-174526610D01*
X94558779Y-174529623D01*
X94558780Y-174529627D01*
X94617487Y-174716962D01*
X94618434Y-174719983D01*
X94619968Y-174722750D01*
X94695610Y-174859211D01*
X94716680Y-174897223D01*
X94718736Y-174899622D01*
X94718739Y-174899626D01*
X94846496Y-175048683D01*
X94846499Y-175048686D01*
X94848557Y-175051087D01*
X94851057Y-175053026D01*
X94851060Y-175053029D01*
X95006180Y-175173351D01*
X95008680Y-175175290D01*
X95011517Y-175176686D01*
X95187662Y-175263361D01*
X95187666Y-175263362D01*
X95190506Y-175264760D01*
X95386610Y-175315841D01*
X95588979Y-175326447D01*
X95592105Y-175325974D01*
X95592109Y-175325974D01*
X95786215Y-175296618D01*
X95786218Y-175296617D01*
X95789347Y-175296144D01*
X95804375Y-175290615D01*
X95855452Y-175271822D01*
X95979530Y-175226170D01*
X96151758Y-175119384D01*
X96298997Y-174980148D01*
X96386113Y-174855734D01*
X96413417Y-174816740D01*
X96413419Y-174816736D01*
X96415230Y-174814150D01*
X96495711Y-174628169D01*
X96507804Y-174570285D01*
X96534532Y-174442340D01*
X96537151Y-174429805D01*
X96537500Y-174423146D01*
X96537500Y-174375641D01*
X97082500Y-174375641D01*
X97097835Y-174526610D01*
X97098779Y-174529623D01*
X97098780Y-174529627D01*
X97157487Y-174716962D01*
X97158434Y-174719983D01*
X97159968Y-174722750D01*
X97235610Y-174859211D01*
X97256680Y-174897223D01*
X97258736Y-174899622D01*
X97258739Y-174899626D01*
X97386496Y-175048683D01*
X97386499Y-175048686D01*
X97388557Y-175051087D01*
X97391057Y-175053026D01*
X97391060Y-175053029D01*
X97546180Y-175173351D01*
X97548680Y-175175290D01*
X97551517Y-175176686D01*
X97727662Y-175263361D01*
X97727666Y-175263362D01*
X97730506Y-175264760D01*
X97926610Y-175315841D01*
X98128979Y-175326447D01*
X98132105Y-175325974D01*
X98132109Y-175325974D01*
X98326215Y-175296618D01*
X98326218Y-175296617D01*
X98329347Y-175296144D01*
X98344375Y-175290615D01*
X98395452Y-175271822D01*
X98519530Y-175226170D01*
X98691758Y-175119384D01*
X98824611Y-174993752D01*
X99422001Y-174993752D01*
X99422167Y-174996966D01*
X99432615Y-175097664D01*
X99434048Y-175104301D01*
X99487756Y-175265286D01*
X99490818Y-175271822D01*
X99580010Y-175415953D01*
X99584482Y-175421596D01*
X99704441Y-175541346D01*
X99710102Y-175545817D01*
X99854385Y-175634753D01*
X99860919Y-175637800D01*
X100022004Y-175691230D01*
X100028632Y-175692651D01*
X100128052Y-175702838D01*
X100131234Y-175703000D01*
X100533569Y-175703000D01*
X100542359Y-175699359D01*
X100546000Y-175690569D01*
X100546000Y-175690568D01*
X101054000Y-175690568D01*
X101057641Y-175699358D01*
X101066431Y-175702999D01*
X101468752Y-175702999D01*
X101471966Y-175702833D01*
X101572664Y-175692385D01*
X101579301Y-175690952D01*
X101740286Y-175637244D01*
X101746822Y-175634182D01*
X101890953Y-175544990D01*
X101896596Y-175540518D01*
X102016346Y-175420559D01*
X102020817Y-175414898D01*
X102109753Y-175270615D01*
X102112800Y-175264081D01*
X102166230Y-175102996D01*
X102167651Y-175096368D01*
X102177838Y-174996948D01*
X102178000Y-174993766D01*
X102178000Y-174375641D01*
X102342500Y-174375641D01*
X102357835Y-174526610D01*
X102358779Y-174529623D01*
X102358780Y-174529627D01*
X102417487Y-174716962D01*
X102418434Y-174719983D01*
X102419968Y-174722750D01*
X102495610Y-174859211D01*
X102516680Y-174897223D01*
X102518736Y-174899622D01*
X102518739Y-174899626D01*
X102646496Y-175048683D01*
X102646499Y-175048686D01*
X102648557Y-175051087D01*
X102651057Y-175053026D01*
X102651060Y-175053029D01*
X102806180Y-175173351D01*
X102808680Y-175175290D01*
X102811517Y-175176686D01*
X102987662Y-175263361D01*
X102987666Y-175263362D01*
X102990506Y-175264760D01*
X103186610Y-175315841D01*
X103388979Y-175326447D01*
X103392105Y-175325974D01*
X103392109Y-175325974D01*
X103586215Y-175296618D01*
X103586218Y-175296617D01*
X103589347Y-175296144D01*
X103604375Y-175290615D01*
X103655452Y-175271822D01*
X103779530Y-175226170D01*
X103951758Y-175119384D01*
X104098997Y-174980148D01*
X104186113Y-174855734D01*
X104213417Y-174816740D01*
X104213419Y-174816736D01*
X104215230Y-174814150D01*
X104295711Y-174628169D01*
X104307804Y-174570285D01*
X104334532Y-174442340D01*
X104337151Y-174429805D01*
X104337500Y-174423146D01*
X104337500Y-174375641D01*
X104882500Y-174375641D01*
X104897835Y-174526610D01*
X104898779Y-174529623D01*
X104898780Y-174529627D01*
X104957487Y-174716962D01*
X104958434Y-174719983D01*
X104959968Y-174722750D01*
X105035610Y-174859211D01*
X105056680Y-174897223D01*
X105058736Y-174899622D01*
X105058739Y-174899626D01*
X105186496Y-175048683D01*
X105186499Y-175048686D01*
X105188557Y-175051087D01*
X105191057Y-175053026D01*
X105191060Y-175053029D01*
X105346180Y-175173351D01*
X105348680Y-175175290D01*
X105351517Y-175176686D01*
X105527662Y-175263361D01*
X105527666Y-175263362D01*
X105530506Y-175264760D01*
X105726610Y-175315841D01*
X105928979Y-175326447D01*
X105932105Y-175325974D01*
X105932109Y-175325974D01*
X106126215Y-175296618D01*
X106126218Y-175296617D01*
X106129347Y-175296144D01*
X106144375Y-175290615D01*
X106195452Y-175271822D01*
X106319530Y-175226170D01*
X106491758Y-175119384D01*
X106638997Y-174980148D01*
X106726113Y-174855734D01*
X106753417Y-174816740D01*
X106753419Y-174816736D01*
X106755230Y-174814150D01*
X106835711Y-174628169D01*
X106847804Y-174570285D01*
X106852042Y-174550000D01*
X109067794Y-174550000D01*
X109086500Y-174668108D01*
X109140789Y-174774655D01*
X109225345Y-174859211D01*
X109229724Y-174861442D01*
X109327511Y-174911268D01*
X109327512Y-174911268D01*
X109331892Y-174913500D01*
X109450000Y-174932206D01*
X109568108Y-174913500D01*
X109572488Y-174911268D01*
X109572489Y-174911268D01*
X109670276Y-174861442D01*
X109674655Y-174859211D01*
X109730806Y-174803060D01*
X109775000Y-174784754D01*
X109819194Y-174803060D01*
X109875345Y-174859211D01*
X109879724Y-174861442D01*
X109977511Y-174911268D01*
X109977512Y-174911268D01*
X109981892Y-174913500D01*
X110100000Y-174932206D01*
X110218108Y-174913500D01*
X110222488Y-174911268D01*
X110222489Y-174911268D01*
X110320276Y-174861442D01*
X110324655Y-174859211D01*
X110380806Y-174803060D01*
X110425000Y-174784754D01*
X110469194Y-174803060D01*
X110525345Y-174859211D01*
X110529724Y-174861442D01*
X110627511Y-174911268D01*
X110627512Y-174911268D01*
X110631892Y-174913500D01*
X110750000Y-174932206D01*
X110868108Y-174913500D01*
X110872488Y-174911268D01*
X110872489Y-174911268D01*
X110970276Y-174861442D01*
X110974655Y-174859211D01*
X111030806Y-174803060D01*
X111075000Y-174784754D01*
X111119194Y-174803060D01*
X111175345Y-174859211D01*
X111179724Y-174861442D01*
X111277511Y-174911268D01*
X111277512Y-174911268D01*
X111281892Y-174913500D01*
X111400000Y-174932206D01*
X111518108Y-174913500D01*
X111522488Y-174911268D01*
X111522489Y-174911268D01*
X111620276Y-174861442D01*
X111624655Y-174859211D01*
X111680806Y-174803060D01*
X111725000Y-174784754D01*
X111769194Y-174803060D01*
X111825345Y-174859211D01*
X111829724Y-174861442D01*
X111927511Y-174911268D01*
X111927512Y-174911268D01*
X111931892Y-174913500D01*
X112050000Y-174932206D01*
X112168108Y-174913500D01*
X112172488Y-174911268D01*
X112172489Y-174911268D01*
X112270276Y-174861442D01*
X112274655Y-174859211D01*
X112359211Y-174774655D01*
X112413500Y-174668108D01*
X112432206Y-174550000D01*
X112413500Y-174431892D01*
X112409458Y-174423958D01*
X112375000Y-174356332D01*
X112359211Y-174325345D01*
X112274655Y-174240789D01*
X112212680Y-174209211D01*
X112172489Y-174188732D01*
X112172488Y-174188732D01*
X112168108Y-174186500D01*
X112050000Y-174167794D01*
X111931892Y-174186500D01*
X111927512Y-174188732D01*
X111927511Y-174188732D01*
X111887320Y-174209211D01*
X111825345Y-174240789D01*
X111769194Y-174296940D01*
X111725000Y-174315246D01*
X111680806Y-174296940D01*
X111624655Y-174240789D01*
X111562680Y-174209211D01*
X111522489Y-174188732D01*
X111522488Y-174188732D01*
X111518108Y-174186500D01*
X111400000Y-174167794D01*
X111281892Y-174186500D01*
X111277512Y-174188732D01*
X111277511Y-174188732D01*
X111237320Y-174209211D01*
X111175345Y-174240789D01*
X111119194Y-174296940D01*
X111075000Y-174315246D01*
X111030806Y-174296940D01*
X110974655Y-174240789D01*
X110912680Y-174209211D01*
X110872489Y-174188732D01*
X110872488Y-174188732D01*
X110868108Y-174186500D01*
X110750000Y-174167794D01*
X110631892Y-174186500D01*
X110627512Y-174188732D01*
X110627511Y-174188732D01*
X110587320Y-174209211D01*
X110525345Y-174240789D01*
X110469194Y-174296940D01*
X110425000Y-174315246D01*
X110380806Y-174296940D01*
X110324655Y-174240789D01*
X110262680Y-174209211D01*
X110222489Y-174188732D01*
X110222488Y-174188732D01*
X110218108Y-174186500D01*
X110100000Y-174167794D01*
X109981892Y-174186500D01*
X109977512Y-174188732D01*
X109977511Y-174188732D01*
X109937320Y-174209211D01*
X109875345Y-174240789D01*
X109819194Y-174296940D01*
X109775000Y-174315246D01*
X109730806Y-174296940D01*
X109674655Y-174240789D01*
X109612680Y-174209211D01*
X109572489Y-174188732D01*
X109572488Y-174188732D01*
X109568108Y-174186500D01*
X109450000Y-174167794D01*
X109331892Y-174186500D01*
X109327512Y-174188732D01*
X109327511Y-174188732D01*
X109287320Y-174209211D01*
X109225345Y-174240789D01*
X109140789Y-174325345D01*
X109125000Y-174356332D01*
X109090543Y-174423958D01*
X109086500Y-174431892D01*
X109067794Y-174550000D01*
X106852042Y-174550000D01*
X106874532Y-174442340D01*
X106877151Y-174429805D01*
X106877500Y-174423146D01*
X106877500Y-173900000D01*
X107817794Y-173900000D01*
X107836500Y-174018108D01*
X107890789Y-174124655D01*
X107975345Y-174209211D01*
X108018966Y-174231437D01*
X108077511Y-174261268D01*
X108077512Y-174261268D01*
X108081892Y-174263500D01*
X108200000Y-174282206D01*
X108318108Y-174263500D01*
X108322488Y-174261268D01*
X108322489Y-174261268D01*
X108381034Y-174231437D01*
X108424655Y-174209211D01*
X108509211Y-174124655D01*
X108563500Y-174018108D01*
X108582206Y-173900000D01*
X108563500Y-173781892D01*
X108509211Y-173675345D01*
X108424655Y-173590789D01*
X108363130Y-173559440D01*
X108322489Y-173538732D01*
X108322488Y-173538732D01*
X108318108Y-173536500D01*
X108200000Y-173517794D01*
X108081892Y-173536500D01*
X108077512Y-173538732D01*
X108077511Y-173538732D01*
X108036870Y-173559440D01*
X107975345Y-173590789D01*
X107890789Y-173675345D01*
X107836500Y-173781892D01*
X107817794Y-173900000D01*
X106877500Y-173900000D01*
X106877500Y-173824359D01*
X106862165Y-173673390D01*
X106846020Y-173621868D01*
X106802513Y-173483038D01*
X106802512Y-173483036D01*
X106801566Y-173480017D01*
X106703320Y-173302777D01*
X106701264Y-173300378D01*
X106701261Y-173300374D01*
X106573504Y-173151317D01*
X106573501Y-173151314D01*
X106571443Y-173148913D01*
X106568943Y-173146974D01*
X106568940Y-173146971D01*
X106413820Y-173026649D01*
X106413819Y-173026648D01*
X106411320Y-173024710D01*
X106305700Y-172972738D01*
X106232338Y-172936639D01*
X106232334Y-172936638D01*
X106229494Y-172935240D01*
X106033390Y-172884159D01*
X105831021Y-172873553D01*
X105827895Y-172874026D01*
X105827891Y-172874026D01*
X105633785Y-172903382D01*
X105633782Y-172903383D01*
X105630653Y-172903856D01*
X105440470Y-172973830D01*
X105268242Y-173080616D01*
X105121003Y-173219852D01*
X105108521Y-173237678D01*
X105006583Y-173383260D01*
X105006581Y-173383264D01*
X105004770Y-173385850D01*
X104924289Y-173571831D01*
X104923643Y-173574925D01*
X104923642Y-173574927D01*
X104920111Y-173591831D01*
X104882849Y-173770195D01*
X104882500Y-173776854D01*
X104882500Y-174375641D01*
X104337500Y-174375641D01*
X104337500Y-173824359D01*
X104322165Y-173673390D01*
X104306020Y-173621868D01*
X104262513Y-173483038D01*
X104262512Y-173483036D01*
X104261566Y-173480017D01*
X104163320Y-173302777D01*
X104161264Y-173300378D01*
X104161261Y-173300374D01*
X104033504Y-173151317D01*
X104033501Y-173151314D01*
X104031443Y-173148913D01*
X104028943Y-173146974D01*
X104028940Y-173146971D01*
X103873820Y-173026649D01*
X103873819Y-173026648D01*
X103871320Y-173024710D01*
X103765700Y-172972738D01*
X103692338Y-172936639D01*
X103692334Y-172936638D01*
X103689494Y-172935240D01*
X103493390Y-172884159D01*
X103291021Y-172873553D01*
X103287895Y-172874026D01*
X103287891Y-172874026D01*
X103093785Y-172903382D01*
X103093782Y-172903383D01*
X103090653Y-172903856D01*
X102900470Y-172973830D01*
X102728242Y-173080616D01*
X102581003Y-173219852D01*
X102568521Y-173237678D01*
X102466583Y-173383260D01*
X102466581Y-173383264D01*
X102464770Y-173385850D01*
X102384289Y-173571831D01*
X102383643Y-173574925D01*
X102383642Y-173574927D01*
X102380111Y-173591831D01*
X102342849Y-173770195D01*
X102342500Y-173776854D01*
X102342500Y-174375641D01*
X102178000Y-174375641D01*
X102178000Y-174366431D01*
X102174359Y-174357641D01*
X102165569Y-174354000D01*
X101066431Y-174354000D01*
X101057641Y-174357641D01*
X101054000Y-174366431D01*
X101054000Y-175690568D01*
X100546000Y-175690568D01*
X100546000Y-174366431D01*
X100542359Y-174357641D01*
X100533569Y-174354000D01*
X99434432Y-174354000D01*
X99425642Y-174357641D01*
X99422001Y-174366431D01*
X99422001Y-174993752D01*
X98824611Y-174993752D01*
X98838997Y-174980148D01*
X98926113Y-174855734D01*
X98953417Y-174816740D01*
X98953419Y-174816736D01*
X98955230Y-174814150D01*
X99035711Y-174628169D01*
X99047804Y-174570285D01*
X99074532Y-174442340D01*
X99077151Y-174429805D01*
X99077500Y-174423146D01*
X99077500Y-173833569D01*
X99422000Y-173833569D01*
X99425641Y-173842359D01*
X99434431Y-173846000D01*
X100533569Y-173846000D01*
X100542359Y-173842359D01*
X100546000Y-173833569D01*
X101054000Y-173833569D01*
X101057641Y-173842359D01*
X101066431Y-173846000D01*
X102165568Y-173846000D01*
X102174358Y-173842359D01*
X102177999Y-173833569D01*
X102177999Y-173206248D01*
X102177833Y-173203034D01*
X102167385Y-173102336D01*
X102165952Y-173095699D01*
X102112244Y-172934714D01*
X102109182Y-172928178D01*
X102019990Y-172784047D01*
X102015518Y-172778404D01*
X101895559Y-172658654D01*
X101889898Y-172654183D01*
X101745615Y-172565247D01*
X101739081Y-172562200D01*
X101577996Y-172508770D01*
X101571368Y-172507349D01*
X101471948Y-172497162D01*
X101468766Y-172497000D01*
X101066431Y-172497000D01*
X101057641Y-172500641D01*
X101054000Y-172509431D01*
X101054000Y-173833569D01*
X100546000Y-173833569D01*
X100546000Y-172509432D01*
X100542359Y-172500642D01*
X100533569Y-172497001D01*
X100131248Y-172497001D01*
X100128034Y-172497167D01*
X100027336Y-172507615D01*
X100020699Y-172509048D01*
X99859714Y-172562756D01*
X99853178Y-172565818D01*
X99709047Y-172655010D01*
X99703404Y-172659482D01*
X99583654Y-172779441D01*
X99579183Y-172785102D01*
X99490247Y-172929385D01*
X99487200Y-172935919D01*
X99433770Y-173097004D01*
X99432349Y-173103632D01*
X99422162Y-173203052D01*
X99422000Y-173206234D01*
X99422000Y-173833569D01*
X99077500Y-173833569D01*
X99077500Y-173824359D01*
X99062165Y-173673390D01*
X99046020Y-173621868D01*
X99002513Y-173483038D01*
X99002512Y-173483036D01*
X99001566Y-173480017D01*
X98903320Y-173302777D01*
X98901264Y-173300378D01*
X98901261Y-173300374D01*
X98773504Y-173151317D01*
X98773501Y-173151314D01*
X98771443Y-173148913D01*
X98768943Y-173146974D01*
X98768940Y-173146971D01*
X98613820Y-173026649D01*
X98613819Y-173026648D01*
X98611320Y-173024710D01*
X98505700Y-172972738D01*
X98432338Y-172936639D01*
X98432334Y-172936638D01*
X98429494Y-172935240D01*
X98233390Y-172884159D01*
X98031021Y-172873553D01*
X98027895Y-172874026D01*
X98027891Y-172874026D01*
X97833785Y-172903382D01*
X97833782Y-172903383D01*
X97830653Y-172903856D01*
X97640470Y-172973830D01*
X97468242Y-173080616D01*
X97321003Y-173219852D01*
X97308521Y-173237678D01*
X97206583Y-173383260D01*
X97206581Y-173383264D01*
X97204770Y-173385850D01*
X97124289Y-173571831D01*
X97123643Y-173574925D01*
X97123642Y-173574927D01*
X97120111Y-173591831D01*
X97082849Y-173770195D01*
X97082500Y-173776854D01*
X97082500Y-174375641D01*
X96537500Y-174375641D01*
X96537500Y-173824359D01*
X96522165Y-173673390D01*
X96506020Y-173621868D01*
X96462513Y-173483038D01*
X96462512Y-173483036D01*
X96461566Y-173480017D01*
X96363320Y-173302777D01*
X96361264Y-173300378D01*
X96361261Y-173300374D01*
X96233504Y-173151317D01*
X96233501Y-173151314D01*
X96231443Y-173148913D01*
X96228943Y-173146974D01*
X96228940Y-173146971D01*
X96073820Y-173026649D01*
X96073819Y-173026648D01*
X96071320Y-173024710D01*
X95965700Y-172972738D01*
X95892338Y-172936639D01*
X95892334Y-172936638D01*
X95889494Y-172935240D01*
X95693390Y-172884159D01*
X95491021Y-172873553D01*
X95487895Y-172874026D01*
X95487891Y-172874026D01*
X95293785Y-172903382D01*
X95293782Y-172903383D01*
X95290653Y-172903856D01*
X95100470Y-172973830D01*
X94928242Y-173080616D01*
X94781003Y-173219852D01*
X94768521Y-173237678D01*
X94666583Y-173383260D01*
X94666581Y-173383264D01*
X94664770Y-173385850D01*
X94584289Y-173571831D01*
X94583643Y-173574925D01*
X94583642Y-173574927D01*
X94580111Y-173591831D01*
X94542849Y-173770195D01*
X94542500Y-173776854D01*
X94542500Y-174375641D01*
X94378000Y-174375641D01*
X94378000Y-174366431D01*
X94374359Y-174357641D01*
X94365569Y-174354000D01*
X93266431Y-174354000D01*
X93257641Y-174357641D01*
X93254000Y-174366431D01*
X93254000Y-175690568D01*
X92746000Y-175690568D01*
X92746000Y-174366431D01*
X92742359Y-174357641D01*
X92733569Y-174354000D01*
X91634432Y-174354000D01*
X91625642Y-174357641D01*
X91622001Y-174366431D01*
X91622001Y-174993752D01*
X91003476Y-174993752D01*
X91035297Y-174948307D01*
X91113417Y-174836740D01*
X91113419Y-174836736D01*
X91115230Y-174834150D01*
X91195711Y-174648169D01*
X91199284Y-174631069D01*
X91236658Y-174452164D01*
X91237151Y-174449805D01*
X91237500Y-174443146D01*
X91237500Y-173844359D01*
X91236404Y-173833569D01*
X91622000Y-173833569D01*
X91625641Y-173842359D01*
X91634431Y-173846000D01*
X92733569Y-173846000D01*
X92742359Y-173842359D01*
X92746000Y-173833569D01*
X93254000Y-173833569D01*
X93257641Y-173842359D01*
X93266431Y-173846000D01*
X94365568Y-173846000D01*
X94374358Y-173842359D01*
X94377999Y-173833569D01*
X94377999Y-173206248D01*
X94377833Y-173203034D01*
X94367385Y-173102336D01*
X94365952Y-173095699D01*
X94312244Y-172934714D01*
X94309182Y-172928178D01*
X94219990Y-172784047D01*
X94215518Y-172778404D01*
X94095559Y-172658654D01*
X94089898Y-172654183D01*
X93945615Y-172565247D01*
X93939081Y-172562200D01*
X93777996Y-172508770D01*
X93771368Y-172507349D01*
X93671948Y-172497162D01*
X93668766Y-172497000D01*
X93266431Y-172497000D01*
X93257641Y-172500641D01*
X93254000Y-172509431D01*
X93254000Y-173833569D01*
X92746000Y-173833569D01*
X92746000Y-172509432D01*
X92742359Y-172500642D01*
X92733569Y-172497001D01*
X92331248Y-172497001D01*
X92328034Y-172497167D01*
X92227336Y-172507615D01*
X92220699Y-172509048D01*
X92059714Y-172562756D01*
X92053178Y-172565818D01*
X91909047Y-172655010D01*
X91903404Y-172659482D01*
X91783654Y-172779441D01*
X91779183Y-172785102D01*
X91690247Y-172929385D01*
X91687200Y-172935919D01*
X91633770Y-173097004D01*
X91632349Y-173103632D01*
X91622162Y-173203052D01*
X91622000Y-173206234D01*
X91622000Y-173833569D01*
X91236404Y-173833569D01*
X91222165Y-173693390D01*
X91217883Y-173679724D01*
X91162513Y-173503038D01*
X91162512Y-173503036D01*
X91161566Y-173500017D01*
X91063320Y-173322777D01*
X91061264Y-173320378D01*
X91061261Y-173320374D01*
X90933504Y-173171317D01*
X90933501Y-173171314D01*
X90931443Y-173168913D01*
X90928943Y-173166974D01*
X90928940Y-173166971D01*
X90773820Y-173046649D01*
X90773819Y-173046648D01*
X90771320Y-173044710D01*
X90768483Y-173043314D01*
X90592338Y-172956639D01*
X90592334Y-172956638D01*
X90589494Y-172955240D01*
X90393390Y-172904159D01*
X90191021Y-172893553D01*
X90187895Y-172894026D01*
X90187891Y-172894026D01*
X89993785Y-172923382D01*
X89993782Y-172923383D01*
X89990653Y-172923856D01*
X89987683Y-172924949D01*
X89987682Y-172924949D01*
X89961884Y-172934441D01*
X89800470Y-172993830D01*
X89628242Y-173100616D01*
X89481003Y-173239852D01*
X89444703Y-173291693D01*
X89366583Y-173403260D01*
X89366581Y-173403264D01*
X89364770Y-173405850D01*
X89284289Y-173591831D01*
X89283643Y-173594925D01*
X89283642Y-173594927D01*
X89276373Y-173629724D01*
X89242849Y-173790195D01*
X89242500Y-173796854D01*
X89242500Y-174395641D01*
X88697500Y-174395641D01*
X88697500Y-173844359D01*
X88682165Y-173693390D01*
X88677883Y-173679724D01*
X88622513Y-173503038D01*
X88622512Y-173503036D01*
X88621566Y-173500017D01*
X88523320Y-173322777D01*
X88521264Y-173320378D01*
X88521261Y-173320374D01*
X88393504Y-173171317D01*
X88393501Y-173171314D01*
X88391443Y-173168913D01*
X88388943Y-173166974D01*
X88388940Y-173166971D01*
X88233820Y-173046649D01*
X88233819Y-173046648D01*
X88231320Y-173044710D01*
X88228483Y-173043314D01*
X88052338Y-172956639D01*
X88052334Y-172956638D01*
X88049494Y-172955240D01*
X87853390Y-172904159D01*
X87651021Y-172893553D01*
X87647895Y-172894026D01*
X87647891Y-172894026D01*
X87453785Y-172923382D01*
X87453782Y-172923383D01*
X87450653Y-172923856D01*
X87447683Y-172924949D01*
X87447682Y-172924949D01*
X87421884Y-172934441D01*
X87260470Y-172993830D01*
X87088242Y-173100616D01*
X86941003Y-173239852D01*
X86904703Y-173291693D01*
X86826583Y-173403260D01*
X86826581Y-173403264D01*
X86824770Y-173405850D01*
X86744289Y-173591831D01*
X86743643Y-173594925D01*
X86743642Y-173594927D01*
X86736373Y-173629724D01*
X86702849Y-173790195D01*
X86702500Y-173796854D01*
X86702500Y-174395641D01*
X86538000Y-174395641D01*
X86538000Y-174386431D01*
X86534359Y-174377641D01*
X86525569Y-174374000D01*
X85426431Y-174374000D01*
X85417641Y-174377641D01*
X85414000Y-174386431D01*
X85414000Y-175710568D01*
X84906000Y-175710568D01*
X84906000Y-174386431D01*
X84902359Y-174377641D01*
X84893569Y-174374000D01*
X83794432Y-174374000D01*
X83785642Y-174377641D01*
X83782001Y-174386431D01*
X83782001Y-175013752D01*
X83184611Y-175013752D01*
X83198997Y-175000148D01*
X83235297Y-174948307D01*
X83313417Y-174836740D01*
X83313419Y-174836736D01*
X83315230Y-174834150D01*
X83395711Y-174648169D01*
X83399284Y-174631069D01*
X83436658Y-174452164D01*
X83437151Y-174449805D01*
X83437500Y-174443146D01*
X83437500Y-173853569D01*
X83782000Y-173853569D01*
X83785641Y-173862359D01*
X83794431Y-173866000D01*
X84893569Y-173866000D01*
X84902359Y-173862359D01*
X84906000Y-173853569D01*
X85414000Y-173853569D01*
X85417641Y-173862359D01*
X85426431Y-173866000D01*
X86525568Y-173866000D01*
X86534358Y-173862359D01*
X86537999Y-173853569D01*
X86537999Y-173226248D01*
X86537833Y-173223034D01*
X86527385Y-173122336D01*
X86525952Y-173115699D01*
X86472244Y-172954714D01*
X86469182Y-172948178D01*
X86379990Y-172804047D01*
X86375518Y-172798404D01*
X86255559Y-172678654D01*
X86249898Y-172674183D01*
X86105615Y-172585247D01*
X86099081Y-172582200D01*
X85937996Y-172528770D01*
X85931368Y-172527349D01*
X85831948Y-172517162D01*
X85828766Y-172517000D01*
X85426431Y-172517000D01*
X85417641Y-172520641D01*
X85414000Y-172529431D01*
X85414000Y-173853569D01*
X84906000Y-173853569D01*
X84906000Y-172529432D01*
X84902359Y-172520642D01*
X84893569Y-172517001D01*
X84491248Y-172517001D01*
X84488034Y-172517167D01*
X84387336Y-172527615D01*
X84380699Y-172529048D01*
X84219714Y-172582756D01*
X84213178Y-172585818D01*
X84069047Y-172675010D01*
X84063404Y-172679482D01*
X83943654Y-172799441D01*
X83939183Y-172805102D01*
X83850247Y-172949385D01*
X83847200Y-172955919D01*
X83793770Y-173117004D01*
X83792349Y-173123632D01*
X83782162Y-173223052D01*
X83782000Y-173226234D01*
X83782000Y-173853569D01*
X83437500Y-173853569D01*
X83437500Y-173844359D01*
X83422165Y-173693390D01*
X83417883Y-173679724D01*
X83362513Y-173503038D01*
X83362512Y-173503036D01*
X83361566Y-173500017D01*
X83263320Y-173322777D01*
X83261264Y-173320378D01*
X83261261Y-173320374D01*
X83133504Y-173171317D01*
X83133501Y-173171314D01*
X83131443Y-173168913D01*
X83128943Y-173166974D01*
X83128940Y-173166971D01*
X82973820Y-173046649D01*
X82973819Y-173046648D01*
X82971320Y-173044710D01*
X82968483Y-173043314D01*
X82792338Y-172956639D01*
X82792334Y-172956638D01*
X82789494Y-172955240D01*
X82593390Y-172904159D01*
X82391021Y-172893553D01*
X82387895Y-172894026D01*
X82387891Y-172894026D01*
X82193785Y-172923382D01*
X82193782Y-172923383D01*
X82190653Y-172923856D01*
X82187683Y-172924949D01*
X82187682Y-172924949D01*
X82161884Y-172934441D01*
X82000470Y-172993830D01*
X81828242Y-173100616D01*
X81681003Y-173239852D01*
X81644703Y-173291693D01*
X81566583Y-173403260D01*
X81566581Y-173403264D01*
X81564770Y-173405850D01*
X81484289Y-173591831D01*
X81483643Y-173594925D01*
X81483642Y-173594927D01*
X81476373Y-173629724D01*
X81442849Y-173790195D01*
X81442500Y-173796854D01*
X81442500Y-174395641D01*
X80897500Y-174395641D01*
X80897500Y-173844359D01*
X80882165Y-173693390D01*
X80877883Y-173679724D01*
X80822513Y-173503038D01*
X80822512Y-173503036D01*
X80821566Y-173500017D01*
X80723320Y-173322777D01*
X80721264Y-173320378D01*
X80721261Y-173320374D01*
X80593504Y-173171317D01*
X80593501Y-173171314D01*
X80591443Y-173168913D01*
X80588943Y-173166974D01*
X80588940Y-173166971D01*
X80433820Y-173046649D01*
X80433819Y-173046648D01*
X80431320Y-173044710D01*
X80428483Y-173043314D01*
X80252338Y-172956639D01*
X80252334Y-172956638D01*
X80249494Y-172955240D01*
X80053390Y-172904159D01*
X79851021Y-172893553D01*
X79847895Y-172894026D01*
X79847891Y-172894026D01*
X79653785Y-172923382D01*
X79653782Y-172923383D01*
X79650653Y-172923856D01*
X79647683Y-172924949D01*
X79647682Y-172924949D01*
X79621884Y-172934441D01*
X79460470Y-172993830D01*
X79288242Y-173100616D01*
X79141003Y-173239852D01*
X79104703Y-173291693D01*
X79026583Y-173403260D01*
X79026581Y-173403264D01*
X79024770Y-173405850D01*
X78944289Y-173591831D01*
X78943643Y-173594925D01*
X78943642Y-173594927D01*
X78936373Y-173629724D01*
X78902849Y-173790195D01*
X78902500Y-173796854D01*
X78902500Y-174395641D01*
X78738000Y-174395641D01*
X78738000Y-174386431D01*
X78734359Y-174377641D01*
X78725569Y-174374000D01*
X77626431Y-174374000D01*
X77617641Y-174377641D01*
X77614000Y-174386431D01*
X77614000Y-175710568D01*
X77106000Y-175710568D01*
X77106000Y-173853569D01*
X77614000Y-173853569D01*
X77617641Y-173862359D01*
X77626431Y-173866000D01*
X78725568Y-173866000D01*
X78734358Y-173862359D01*
X78737999Y-173853569D01*
X78737999Y-173226248D01*
X78737833Y-173223034D01*
X78727385Y-173122336D01*
X78725952Y-173115699D01*
X78672244Y-172954714D01*
X78669182Y-172948178D01*
X78579990Y-172804047D01*
X78575518Y-172798404D01*
X78455559Y-172678654D01*
X78449898Y-172674183D01*
X78305615Y-172585247D01*
X78299081Y-172582200D01*
X78137996Y-172528770D01*
X78131368Y-172527349D01*
X78031948Y-172517162D01*
X78028766Y-172517000D01*
X77626431Y-172517000D01*
X77617641Y-172520641D01*
X77614000Y-172529431D01*
X77614000Y-173853569D01*
X77106000Y-173853569D01*
X77106000Y-172529432D01*
X77102359Y-172520642D01*
X77093569Y-172517001D01*
X76691248Y-172517001D01*
X76688034Y-172517167D01*
X76587336Y-172527615D01*
X76580699Y-172529048D01*
X76419711Y-172582757D01*
X76413179Y-172585817D01*
X76395388Y-172596827D01*
X76348175Y-172604516D01*
X76309353Y-172576568D01*
X76300000Y-172543680D01*
X76300000Y-172350000D01*
X74500000Y-170550000D01*
X70313000Y-170550000D01*
X70268806Y-170531694D01*
X70250500Y-170487500D01*
X70250500Y-168687099D01*
X76559640Y-168687099D01*
X76561744Y-168692178D01*
X76623650Y-168735525D01*
X76628353Y-168738240D01*
X76830836Y-168832660D01*
X76835946Y-168834520D01*
X77051745Y-168892343D01*
X77057099Y-168893287D01*
X77279660Y-168912758D01*
X77285100Y-168912758D01*
X77507661Y-168893287D01*
X77513015Y-168892343D01*
X77728814Y-168834520D01*
X77733924Y-168832660D01*
X77936407Y-168738240D01*
X77941110Y-168735525D01*
X78000086Y-168694229D01*
X78004628Y-168687099D01*
X84359640Y-168687099D01*
X84361744Y-168692178D01*
X84423650Y-168735525D01*
X84428353Y-168738240D01*
X84630836Y-168832660D01*
X84635946Y-168834520D01*
X84851745Y-168892343D01*
X84857099Y-168893287D01*
X85079660Y-168912758D01*
X85085100Y-168912758D01*
X85307661Y-168893287D01*
X85313015Y-168892343D01*
X85528814Y-168834520D01*
X85533924Y-168832660D01*
X85736407Y-168738240D01*
X85741110Y-168735525D01*
X85800086Y-168694229D01*
X85804628Y-168687099D01*
X92259640Y-168687099D01*
X92261744Y-168692178D01*
X92323650Y-168735525D01*
X92328353Y-168738240D01*
X92530836Y-168832660D01*
X92535946Y-168834520D01*
X92751745Y-168892343D01*
X92757099Y-168893287D01*
X92979660Y-168912758D01*
X92985100Y-168912758D01*
X93207661Y-168893287D01*
X93213015Y-168892343D01*
X93428814Y-168834520D01*
X93433924Y-168832660D01*
X93636407Y-168738240D01*
X93641110Y-168735525D01*
X93700086Y-168694229D01*
X93704628Y-168687099D01*
X100159640Y-168687099D01*
X100161744Y-168692178D01*
X100223650Y-168735525D01*
X100228353Y-168738240D01*
X100430836Y-168832660D01*
X100435946Y-168834520D01*
X100651745Y-168892343D01*
X100657099Y-168893287D01*
X100879660Y-168912758D01*
X100885100Y-168912758D01*
X101107661Y-168893287D01*
X101113015Y-168892343D01*
X101328814Y-168834520D01*
X101333924Y-168832660D01*
X101536407Y-168738240D01*
X101541110Y-168735525D01*
X101600086Y-168694229D01*
X101605198Y-168686205D01*
X101604009Y-168680839D01*
X101335728Y-168412558D01*
X102454880Y-168412558D01*
X102462278Y-168449748D01*
X102490458Y-168491922D01*
X102532632Y-168520102D01*
X102538665Y-168521302D01*
X102538667Y-168521303D01*
X102564764Y-168526494D01*
X102569822Y-168527500D01*
X104194938Y-168527500D01*
X104199996Y-168526494D01*
X104226093Y-168521303D01*
X104226095Y-168521302D01*
X104232128Y-168520102D01*
X104274302Y-168491922D01*
X104302482Y-168449748D01*
X104309880Y-168412558D01*
X104309880Y-166787442D01*
X104302482Y-166750252D01*
X104274302Y-166708078D01*
X104250144Y-166691936D01*
X109992500Y-166691936D01*
X110007132Y-166851172D01*
X110007911Y-166853932D01*
X110007911Y-166853935D01*
X110033869Y-166945973D01*
X110065375Y-167057687D01*
X110160278Y-167250131D01*
X110288661Y-167422057D01*
X110446226Y-167567708D01*
X110627695Y-167682207D01*
X110826991Y-167761718D01*
X110829797Y-167762276D01*
X110829800Y-167762277D01*
X111034634Y-167803021D01*
X111034636Y-167803021D01*
X111037440Y-167803579D01*
X111138558Y-167804903D01*
X111249131Y-167806351D01*
X111249136Y-167806351D01*
X111251993Y-167806388D01*
X111254813Y-167805903D01*
X111254818Y-167805903D01*
X111378010Y-167784734D01*
X111463466Y-167770050D01*
X111466154Y-167769058D01*
X111466159Y-167769057D01*
X111662087Y-167696775D01*
X111662090Y-167696773D01*
X111664775Y-167695783D01*
X111667236Y-167694319D01*
X111846714Y-167587541D01*
X111846718Y-167587538D01*
X111849179Y-167586074D01*
X111974405Y-167476254D01*
X114692000Y-167476254D01*
X114692166Y-167479467D01*
X114702615Y-167580164D01*
X114704049Y-167586804D01*
X114757757Y-167747790D01*
X114760817Y-167754322D01*
X114850003Y-167898444D01*
X114854489Y-167904105D01*
X114974438Y-168023843D01*
X114980101Y-168028316D01*
X115124383Y-168117252D01*
X115130921Y-168120301D01*
X115292003Y-168173730D01*
X115298631Y-168175151D01*
X115398051Y-168185338D01*
X115401233Y-168185500D01*
X115973569Y-168185500D01*
X115982359Y-168181859D01*
X115986000Y-168173069D01*
X116494000Y-168173069D01*
X116497641Y-168181859D01*
X116506431Y-168185500D01*
X117078754Y-168185500D01*
X117081967Y-168185334D01*
X117182664Y-168174885D01*
X117189304Y-168173451D01*
X117350290Y-168119743D01*
X117356822Y-168116683D01*
X117500944Y-168027497D01*
X117506605Y-168023011D01*
X117626343Y-167903062D01*
X117630816Y-167897399D01*
X117719752Y-167753117D01*
X117722801Y-167746579D01*
X117776230Y-167585497D01*
X117777651Y-167578869D01*
X117787838Y-167479449D01*
X117788000Y-167476267D01*
X117788000Y-166143931D01*
X117784359Y-166135141D01*
X117775569Y-166131500D01*
X116506431Y-166131500D01*
X116497641Y-166135141D01*
X116494000Y-166143931D01*
X116494000Y-168173069D01*
X115986000Y-168173069D01*
X115986000Y-166143931D01*
X115982359Y-166135141D01*
X115973569Y-166131500D01*
X114704431Y-166131500D01*
X114695641Y-166135141D01*
X114692000Y-166143931D01*
X114692000Y-167476254D01*
X111974405Y-167476254D01*
X112010503Y-167444597D01*
X112028272Y-167422057D01*
X112141567Y-167278343D01*
X112141568Y-167278342D01*
X112143343Y-167276090D01*
X112243251Y-167086197D01*
X112286792Y-166945973D01*
X112306032Y-166884008D01*
X112306880Y-166881277D01*
X112327500Y-166707058D01*
X112327500Y-165611069D01*
X114692000Y-165611069D01*
X114695641Y-165619859D01*
X114704431Y-165623500D01*
X115973569Y-165623500D01*
X115982359Y-165619859D01*
X115986000Y-165611069D01*
X116494000Y-165611069D01*
X116497641Y-165619859D01*
X116506431Y-165623500D01*
X117775569Y-165623500D01*
X117784359Y-165619859D01*
X117788000Y-165611069D01*
X117788000Y-164278746D01*
X117787834Y-164275533D01*
X117777385Y-164174836D01*
X117775951Y-164168196D01*
X117722243Y-164007210D01*
X117719183Y-164000678D01*
X117629997Y-163856556D01*
X117625511Y-163850895D01*
X117505562Y-163731157D01*
X117499899Y-163726684D01*
X117355617Y-163637748D01*
X117349079Y-163634699D01*
X117187997Y-163581270D01*
X117181369Y-163579849D01*
X117081949Y-163569662D01*
X117078767Y-163569500D01*
X116506431Y-163569500D01*
X116497641Y-163573141D01*
X116494000Y-163581931D01*
X116494000Y-165611069D01*
X115986000Y-165611069D01*
X115986000Y-163581931D01*
X115982359Y-163573141D01*
X115973569Y-163569500D01*
X115401246Y-163569500D01*
X115398033Y-163569666D01*
X115297336Y-163580115D01*
X115290696Y-163581549D01*
X115129710Y-163635257D01*
X115123178Y-163638317D01*
X114979056Y-163727503D01*
X114973395Y-163731989D01*
X114853657Y-163851938D01*
X114849184Y-163857601D01*
X114760248Y-164001883D01*
X114757199Y-164008421D01*
X114703770Y-164169503D01*
X114702349Y-164176131D01*
X114692162Y-164275551D01*
X114692000Y-164278733D01*
X114692000Y-165611069D01*
X112327500Y-165611069D01*
X112327500Y-165063064D01*
X112312868Y-164903828D01*
X112304378Y-164873723D01*
X112255403Y-164700070D01*
X112255401Y-164700066D01*
X112254625Y-164697313D01*
X112159722Y-164504869D01*
X112133890Y-164470276D01*
X112033056Y-164335242D01*
X112033054Y-164335240D01*
X112031339Y-164332943D01*
X111873774Y-164187292D01*
X111692305Y-164072793D01*
X111493009Y-163993282D01*
X111490203Y-163992724D01*
X111490200Y-163992723D01*
X111285366Y-163951979D01*
X111285364Y-163951979D01*
X111282560Y-163951421D01*
X111181442Y-163950097D01*
X111070869Y-163948649D01*
X111070864Y-163948649D01*
X111068007Y-163948612D01*
X111065187Y-163949097D01*
X111065182Y-163949097D01*
X110956375Y-163967794D01*
X110856534Y-163984950D01*
X110853846Y-163985942D01*
X110853841Y-163985943D01*
X110657913Y-164058225D01*
X110657910Y-164058227D01*
X110655225Y-164059217D01*
X110652765Y-164060680D01*
X110652764Y-164060681D01*
X110473286Y-164167459D01*
X110473282Y-164167462D01*
X110470821Y-164168926D01*
X110309497Y-164310403D01*
X110307721Y-164312656D01*
X110307720Y-164312657D01*
X110185173Y-164468108D01*
X110176657Y-164478910D01*
X110076749Y-164668803D01*
X110075902Y-164671530D01*
X110075901Y-164671533D01*
X110054397Y-164740789D01*
X110013120Y-164873723D01*
X109992500Y-165047942D01*
X109992500Y-166691936D01*
X104250144Y-166691936D01*
X104232128Y-166679898D01*
X104226095Y-166678698D01*
X104226093Y-166678697D01*
X104197949Y-166673099D01*
X104194938Y-166672500D01*
X102569822Y-166672500D01*
X102566811Y-166673099D01*
X102538667Y-166678697D01*
X102538665Y-166678698D01*
X102532632Y-166679898D01*
X102490458Y-166708078D01*
X102462278Y-166750252D01*
X102454880Y-166787442D01*
X102454880Y-168412558D01*
X101335728Y-168412558D01*
X100891170Y-167968000D01*
X100882380Y-167964359D01*
X100873590Y-167968000D01*
X100163281Y-168678309D01*
X100159640Y-168687099D01*
X93704628Y-168687099D01*
X93705198Y-168686205D01*
X93704009Y-168680839D01*
X93435728Y-168412558D01*
X94554880Y-168412558D01*
X94562278Y-168449748D01*
X94590458Y-168491922D01*
X94632632Y-168520102D01*
X94638665Y-168521302D01*
X94638667Y-168521303D01*
X94664764Y-168526494D01*
X94669822Y-168527500D01*
X96294938Y-168527500D01*
X96299996Y-168526494D01*
X96326093Y-168521303D01*
X96326095Y-168521302D01*
X96332128Y-168520102D01*
X96374302Y-168491922D01*
X96402482Y-168449748D01*
X96409880Y-168412558D01*
X96409880Y-167602720D01*
X99569622Y-167602720D01*
X99589093Y-167825281D01*
X99590037Y-167830635D01*
X99647860Y-168046434D01*
X99649720Y-168051544D01*
X99744140Y-168254027D01*
X99746855Y-168258730D01*
X99788151Y-168317706D01*
X99796175Y-168322818D01*
X99801541Y-168321629D01*
X100514380Y-167608790D01*
X100518021Y-167600000D01*
X101246739Y-167600000D01*
X101250380Y-167608790D01*
X101960689Y-168319099D01*
X101969479Y-168322740D01*
X101974558Y-168320636D01*
X102017905Y-168258730D01*
X102020620Y-168254027D01*
X102115040Y-168051544D01*
X102116900Y-168046434D01*
X102174723Y-167830635D01*
X102175667Y-167825281D01*
X102195138Y-167602720D01*
X102195138Y-167597280D01*
X102175667Y-167374719D01*
X102174723Y-167369365D01*
X102116900Y-167153566D01*
X102115040Y-167148456D01*
X102020620Y-166945973D01*
X102017905Y-166941270D01*
X101976609Y-166882294D01*
X101968585Y-166877182D01*
X101963219Y-166878371D01*
X101250380Y-167591210D01*
X101246739Y-167600000D01*
X100518021Y-167600000D01*
X100514380Y-167591210D01*
X99804071Y-166880901D01*
X99795281Y-166877260D01*
X99790202Y-166879364D01*
X99746855Y-166941270D01*
X99744140Y-166945973D01*
X99649720Y-167148456D01*
X99647860Y-167153566D01*
X99590037Y-167369365D01*
X99589093Y-167374719D01*
X99569622Y-167597280D01*
X99569622Y-167602720D01*
X96409880Y-167602720D01*
X96409880Y-166787442D01*
X96402482Y-166750252D01*
X96374302Y-166708078D01*
X96332128Y-166679898D01*
X96326095Y-166678698D01*
X96326093Y-166678697D01*
X96297949Y-166673099D01*
X96294938Y-166672500D01*
X94669822Y-166672500D01*
X94666811Y-166673099D01*
X94638667Y-166678697D01*
X94638665Y-166678698D01*
X94632632Y-166679898D01*
X94590458Y-166708078D01*
X94562278Y-166750252D01*
X94554880Y-166787442D01*
X94554880Y-168412558D01*
X93435728Y-168412558D01*
X92991170Y-167968000D01*
X92982380Y-167964359D01*
X92973590Y-167968000D01*
X92263281Y-168678309D01*
X92259640Y-168687099D01*
X85804628Y-168687099D01*
X85805198Y-168686205D01*
X85804009Y-168680839D01*
X85535728Y-168412558D01*
X86654880Y-168412558D01*
X86662278Y-168449748D01*
X86690458Y-168491922D01*
X86732632Y-168520102D01*
X86738665Y-168521302D01*
X86738667Y-168521303D01*
X86764764Y-168526494D01*
X86769822Y-168527500D01*
X88394938Y-168527500D01*
X88399996Y-168526494D01*
X88426093Y-168521303D01*
X88426095Y-168521302D01*
X88432128Y-168520102D01*
X88474302Y-168491922D01*
X88502482Y-168449748D01*
X88509880Y-168412558D01*
X88509880Y-167602720D01*
X91669622Y-167602720D01*
X91689093Y-167825281D01*
X91690037Y-167830635D01*
X91747860Y-168046434D01*
X91749720Y-168051544D01*
X91844140Y-168254027D01*
X91846855Y-168258730D01*
X91888151Y-168317706D01*
X91896175Y-168322818D01*
X91901541Y-168321629D01*
X92614380Y-167608790D01*
X92618021Y-167600000D01*
X93346739Y-167600000D01*
X93350380Y-167608790D01*
X94060689Y-168319099D01*
X94069479Y-168322740D01*
X94074558Y-168320636D01*
X94117905Y-168258730D01*
X94120620Y-168254027D01*
X94215040Y-168051544D01*
X94216900Y-168046434D01*
X94274723Y-167830635D01*
X94275667Y-167825281D01*
X94295138Y-167602720D01*
X94295138Y-167597280D01*
X94275667Y-167374719D01*
X94274723Y-167369365D01*
X94216900Y-167153566D01*
X94215040Y-167148456D01*
X94120620Y-166945973D01*
X94117905Y-166941270D01*
X94076609Y-166882294D01*
X94068585Y-166877182D01*
X94063219Y-166878371D01*
X93350380Y-167591210D01*
X93346739Y-167600000D01*
X92618021Y-167600000D01*
X92614380Y-167591210D01*
X91904071Y-166880901D01*
X91895281Y-166877260D01*
X91890202Y-166879364D01*
X91846855Y-166941270D01*
X91844140Y-166945973D01*
X91749720Y-167148456D01*
X91747860Y-167153566D01*
X91690037Y-167369365D01*
X91689093Y-167374719D01*
X91669622Y-167597280D01*
X91669622Y-167602720D01*
X88509880Y-167602720D01*
X88509880Y-166787442D01*
X88502482Y-166750252D01*
X88474302Y-166708078D01*
X88432128Y-166679898D01*
X88426095Y-166678698D01*
X88426093Y-166678697D01*
X88397949Y-166673099D01*
X88394938Y-166672500D01*
X86769822Y-166672500D01*
X86766811Y-166673099D01*
X86738667Y-166678697D01*
X86738665Y-166678698D01*
X86732632Y-166679898D01*
X86690458Y-166708078D01*
X86662278Y-166750252D01*
X86654880Y-166787442D01*
X86654880Y-168412558D01*
X85535728Y-168412558D01*
X85091170Y-167968000D01*
X85082380Y-167964359D01*
X85073590Y-167968000D01*
X84363281Y-168678309D01*
X84359640Y-168687099D01*
X78004628Y-168687099D01*
X78005198Y-168686205D01*
X78004009Y-168680839D01*
X77735728Y-168412558D01*
X78854880Y-168412558D01*
X78862278Y-168449748D01*
X78890458Y-168491922D01*
X78932632Y-168520102D01*
X78938665Y-168521302D01*
X78938667Y-168521303D01*
X78964764Y-168526494D01*
X78969822Y-168527500D01*
X80594938Y-168527500D01*
X80599996Y-168526494D01*
X80626093Y-168521303D01*
X80626095Y-168521302D01*
X80632128Y-168520102D01*
X80674302Y-168491922D01*
X80702482Y-168449748D01*
X80709880Y-168412558D01*
X80709880Y-167602720D01*
X83769622Y-167602720D01*
X83789093Y-167825281D01*
X83790037Y-167830635D01*
X83847860Y-168046434D01*
X83849720Y-168051544D01*
X83944140Y-168254027D01*
X83946855Y-168258730D01*
X83988151Y-168317706D01*
X83996175Y-168322818D01*
X84001541Y-168321629D01*
X84714380Y-167608790D01*
X84718021Y-167600000D01*
X85446739Y-167600000D01*
X85450380Y-167608790D01*
X86160689Y-168319099D01*
X86169479Y-168322740D01*
X86174558Y-168320636D01*
X86217905Y-168258730D01*
X86220620Y-168254027D01*
X86315040Y-168051544D01*
X86316900Y-168046434D01*
X86374723Y-167830635D01*
X86375667Y-167825281D01*
X86395138Y-167602720D01*
X86395138Y-167597280D01*
X86375667Y-167374719D01*
X86374723Y-167369365D01*
X86316900Y-167153566D01*
X86315040Y-167148456D01*
X86220620Y-166945973D01*
X86217905Y-166941270D01*
X86176609Y-166882294D01*
X86168585Y-166877182D01*
X86163219Y-166878371D01*
X85450380Y-167591210D01*
X85446739Y-167600000D01*
X84718021Y-167600000D01*
X84714380Y-167591210D01*
X84004071Y-166880901D01*
X83995281Y-166877260D01*
X83990202Y-166879364D01*
X83946855Y-166941270D01*
X83944140Y-166945973D01*
X83849720Y-167148456D01*
X83847860Y-167153566D01*
X83790037Y-167369365D01*
X83789093Y-167374719D01*
X83769622Y-167597280D01*
X83769622Y-167602720D01*
X80709880Y-167602720D01*
X80709880Y-166787442D01*
X80702482Y-166750252D01*
X80674302Y-166708078D01*
X80632128Y-166679898D01*
X80626095Y-166678698D01*
X80626093Y-166678697D01*
X80597949Y-166673099D01*
X80594938Y-166672500D01*
X78969822Y-166672500D01*
X78966811Y-166673099D01*
X78938667Y-166678697D01*
X78938665Y-166678698D01*
X78932632Y-166679898D01*
X78890458Y-166708078D01*
X78862278Y-166750252D01*
X78854880Y-166787442D01*
X78854880Y-168412558D01*
X77735728Y-168412558D01*
X77291170Y-167968000D01*
X77282380Y-167964359D01*
X77273590Y-167968000D01*
X76563281Y-168678309D01*
X76559640Y-168687099D01*
X70250500Y-168687099D01*
X70250500Y-167602720D01*
X75969622Y-167602720D01*
X75989093Y-167825281D01*
X75990037Y-167830635D01*
X76047860Y-168046434D01*
X76049720Y-168051544D01*
X76144140Y-168254027D01*
X76146855Y-168258730D01*
X76188151Y-168317706D01*
X76196175Y-168322818D01*
X76201541Y-168321629D01*
X76914380Y-167608790D01*
X76918021Y-167600000D01*
X77646739Y-167600000D01*
X77650380Y-167608790D01*
X78360689Y-168319099D01*
X78369479Y-168322740D01*
X78374558Y-168320636D01*
X78417905Y-168258730D01*
X78420620Y-168254027D01*
X78515040Y-168051544D01*
X78516900Y-168046434D01*
X78574723Y-167830635D01*
X78575667Y-167825281D01*
X78595138Y-167602720D01*
X78595138Y-167597280D01*
X78575667Y-167374719D01*
X78574723Y-167369365D01*
X78516900Y-167153566D01*
X78515040Y-167148456D01*
X78420620Y-166945973D01*
X78417905Y-166941270D01*
X78376609Y-166882294D01*
X78368585Y-166877182D01*
X78363219Y-166878371D01*
X77650380Y-167591210D01*
X77646739Y-167600000D01*
X76918021Y-167600000D01*
X76914380Y-167591210D01*
X76204071Y-166880901D01*
X76195281Y-166877260D01*
X76190202Y-166879364D01*
X76146855Y-166941270D01*
X76144140Y-166945973D01*
X76049720Y-167148456D01*
X76047860Y-167153566D01*
X75990037Y-167369365D01*
X75989093Y-167374719D01*
X75969622Y-167597280D01*
X75969622Y-167602720D01*
X70250500Y-167602720D01*
X70250500Y-166513795D01*
X76559562Y-166513795D01*
X76560751Y-166519161D01*
X77273590Y-167232000D01*
X77282380Y-167235641D01*
X77291170Y-167232000D01*
X78001479Y-166521691D01*
X78004750Y-166513795D01*
X84359562Y-166513795D01*
X84360751Y-166519161D01*
X85073590Y-167232000D01*
X85082380Y-167235641D01*
X85091170Y-167232000D01*
X85801479Y-166521691D01*
X85804750Y-166513795D01*
X92259562Y-166513795D01*
X92260751Y-166519161D01*
X92973590Y-167232000D01*
X92982380Y-167235641D01*
X92991170Y-167232000D01*
X93701479Y-166521691D01*
X93704750Y-166513795D01*
X100159562Y-166513795D01*
X100160751Y-166519161D01*
X100873590Y-167232000D01*
X100882380Y-167235641D01*
X100891170Y-167232000D01*
X101601479Y-166521691D01*
X101605120Y-166512901D01*
X101603016Y-166507822D01*
X101541110Y-166464475D01*
X101536407Y-166461760D01*
X101333924Y-166367340D01*
X101328814Y-166365480D01*
X101113015Y-166307657D01*
X101107661Y-166306713D01*
X100885100Y-166287242D01*
X100879660Y-166287242D01*
X100657099Y-166306713D01*
X100651745Y-166307657D01*
X100435946Y-166365480D01*
X100430836Y-166367340D01*
X100228353Y-166461760D01*
X100223650Y-166464475D01*
X100164674Y-166505771D01*
X100159562Y-166513795D01*
X93704750Y-166513795D01*
X93705120Y-166512901D01*
X93703016Y-166507822D01*
X93641110Y-166464475D01*
X93636407Y-166461760D01*
X93433924Y-166367340D01*
X93428814Y-166365480D01*
X93213015Y-166307657D01*
X93207661Y-166306713D01*
X92985100Y-166287242D01*
X92979660Y-166287242D01*
X92757099Y-166306713D01*
X92751745Y-166307657D01*
X92535946Y-166365480D01*
X92530836Y-166367340D01*
X92328353Y-166461760D01*
X92323650Y-166464475D01*
X92264674Y-166505771D01*
X92259562Y-166513795D01*
X85804750Y-166513795D01*
X85805120Y-166512901D01*
X85803016Y-166507822D01*
X85741110Y-166464475D01*
X85736407Y-166461760D01*
X85533924Y-166367340D01*
X85528814Y-166365480D01*
X85313015Y-166307657D01*
X85307661Y-166306713D01*
X85085100Y-166287242D01*
X85079660Y-166287242D01*
X84857099Y-166306713D01*
X84851745Y-166307657D01*
X84635946Y-166365480D01*
X84630836Y-166367340D01*
X84428353Y-166461760D01*
X84423650Y-166464475D01*
X84364674Y-166505771D01*
X84359562Y-166513795D01*
X78004750Y-166513795D01*
X78005120Y-166512901D01*
X78003016Y-166507822D01*
X77941110Y-166464475D01*
X77936407Y-166461760D01*
X77733924Y-166367340D01*
X77728814Y-166365480D01*
X77513015Y-166307657D01*
X77507661Y-166306713D01*
X77285100Y-166287242D01*
X77279660Y-166287242D01*
X77057099Y-166306713D01*
X77051745Y-166307657D01*
X76835946Y-166365480D01*
X76830836Y-166367340D01*
X76628353Y-166461760D01*
X76623650Y-166464475D01*
X76564674Y-166505771D01*
X76559562Y-166513795D01*
X70250500Y-166513795D01*
X70250500Y-165950000D01*
X81667794Y-165950000D01*
X81686500Y-166068108D01*
X81740789Y-166174655D01*
X81825345Y-166259211D01*
X81829724Y-166261442D01*
X81927511Y-166311268D01*
X81927512Y-166311268D01*
X81931892Y-166313500D01*
X82050000Y-166332206D01*
X82168108Y-166313500D01*
X82172488Y-166311268D01*
X82172489Y-166311268D01*
X82270276Y-166261442D01*
X82274655Y-166259211D01*
X82359211Y-166174655D01*
X82413500Y-166068108D01*
X82432206Y-165950000D01*
X82413500Y-165831892D01*
X82359211Y-165725345D01*
X82274655Y-165640789D01*
X82216327Y-165611069D01*
X82172489Y-165588732D01*
X82172488Y-165588732D01*
X82168108Y-165586500D01*
X82050000Y-165567794D01*
X81931892Y-165586500D01*
X81927512Y-165588732D01*
X81927511Y-165588732D01*
X81883673Y-165611069D01*
X81825345Y-165640789D01*
X81740789Y-165725345D01*
X81686500Y-165831892D01*
X81667794Y-165950000D01*
X70250500Y-165950000D01*
X70250500Y-165050000D01*
X99067794Y-165050000D01*
X99086500Y-165168108D01*
X99140789Y-165274655D01*
X99225345Y-165359211D01*
X99229724Y-165361442D01*
X99327511Y-165411268D01*
X99327512Y-165411268D01*
X99331892Y-165413500D01*
X99450000Y-165432206D01*
X99568108Y-165413500D01*
X99572488Y-165411268D01*
X99572489Y-165411268D01*
X99670276Y-165361442D01*
X99674655Y-165359211D01*
X99759211Y-165274655D01*
X99813500Y-165168108D01*
X99832206Y-165050000D01*
X99813500Y-164931892D01*
X99759211Y-164825345D01*
X99674655Y-164740789D01*
X99616717Y-164711268D01*
X99572489Y-164688732D01*
X99572488Y-164688732D01*
X99568108Y-164686500D01*
X99450000Y-164667794D01*
X99331892Y-164686500D01*
X99327512Y-164688732D01*
X99327511Y-164688732D01*
X99283283Y-164711268D01*
X99225345Y-164740789D01*
X99140789Y-164825345D01*
X99086500Y-164931892D01*
X99067794Y-165050000D01*
X70250500Y-165050000D01*
X70250500Y-164361127D01*
X81806667Y-164361127D01*
X81825373Y-164479235D01*
X81879662Y-164585782D01*
X81964218Y-164670338D01*
X82000318Y-164688732D01*
X82066384Y-164722395D01*
X82066385Y-164722395D01*
X82070765Y-164724627D01*
X82188873Y-164743333D01*
X82306981Y-164724627D01*
X82311361Y-164722395D01*
X82311362Y-164722395D01*
X82377428Y-164688732D01*
X82413528Y-164670338D01*
X82498084Y-164585782D01*
X82552373Y-164479235D01*
X82571079Y-164361127D01*
X82569317Y-164350000D01*
X82717794Y-164350000D01*
X82736500Y-164468108D01*
X82738732Y-164472488D01*
X82738732Y-164472489D01*
X82743296Y-164481446D01*
X82790789Y-164574655D01*
X82875345Y-164659211D01*
X82926722Y-164685389D01*
X82977511Y-164711268D01*
X82977512Y-164711268D01*
X82981892Y-164713500D01*
X83100000Y-164732206D01*
X83218108Y-164713500D01*
X83222488Y-164711268D01*
X83222489Y-164711268D01*
X83273278Y-164685389D01*
X83324655Y-164659211D01*
X83409211Y-164574655D01*
X83456704Y-164481446D01*
X83461268Y-164472489D01*
X83461268Y-164472488D01*
X83463500Y-164468108D01*
X83482206Y-164350000D01*
X85967794Y-164350000D01*
X85986500Y-164468108D01*
X85988732Y-164472488D01*
X85988732Y-164472489D01*
X85993296Y-164481446D01*
X86040789Y-164574655D01*
X86125345Y-164659211D01*
X86176722Y-164685389D01*
X86227511Y-164711268D01*
X86227512Y-164711268D01*
X86231892Y-164713500D01*
X86350000Y-164732206D01*
X86468108Y-164713500D01*
X86472488Y-164711268D01*
X86472489Y-164711268D01*
X86523278Y-164685389D01*
X86574655Y-164659211D01*
X86659211Y-164574655D01*
X86706704Y-164481446D01*
X86711268Y-164472489D01*
X86711268Y-164472488D01*
X86713500Y-164468108D01*
X86732206Y-164350000D01*
X86716368Y-164250000D01*
X95567794Y-164250000D01*
X95586500Y-164368108D01*
X95640789Y-164474655D01*
X95725345Y-164559211D01*
X95729724Y-164561442D01*
X95827511Y-164611268D01*
X95827512Y-164611268D01*
X95831892Y-164613500D01*
X95950000Y-164632206D01*
X96068108Y-164613500D01*
X96072488Y-164611268D01*
X96072489Y-164611268D01*
X96170276Y-164561442D01*
X96174655Y-164559211D01*
X96259211Y-164474655D01*
X96313500Y-164368108D01*
X96332206Y-164250000D01*
X96313500Y-164131892D01*
X96308393Y-164121868D01*
X96261442Y-164029724D01*
X96259211Y-164025345D01*
X96174655Y-163940789D01*
X96109495Y-163907588D01*
X96072489Y-163888732D01*
X96072488Y-163888732D01*
X96068108Y-163886500D01*
X95950000Y-163867794D01*
X95831892Y-163886500D01*
X95827512Y-163888732D01*
X95827511Y-163888732D01*
X95790505Y-163907588D01*
X95725345Y-163940789D01*
X95640789Y-164025345D01*
X95638558Y-164029724D01*
X95591608Y-164121868D01*
X95586500Y-164131892D01*
X95567794Y-164250000D01*
X86716368Y-164250000D01*
X86713500Y-164231892D01*
X86699759Y-164204923D01*
X86665021Y-164136748D01*
X86659211Y-164125345D01*
X86574655Y-164040789D01*
X86495934Y-164000678D01*
X86472489Y-163988732D01*
X86472488Y-163988732D01*
X86468108Y-163986500D01*
X86350000Y-163967794D01*
X86231892Y-163986500D01*
X86227512Y-163988732D01*
X86227511Y-163988732D01*
X86204066Y-164000678D01*
X86125345Y-164040789D01*
X86040789Y-164125345D01*
X86034979Y-164136748D01*
X86000242Y-164204923D01*
X85986500Y-164231892D01*
X85967794Y-164350000D01*
X83482206Y-164350000D01*
X83463500Y-164231892D01*
X83449759Y-164204923D01*
X83415021Y-164136748D01*
X83409211Y-164125345D01*
X83324655Y-164040789D01*
X83245934Y-164000678D01*
X83222489Y-163988732D01*
X83222488Y-163988732D01*
X83218108Y-163986500D01*
X83100000Y-163967794D01*
X82981892Y-163986500D01*
X82977512Y-163988732D01*
X82977511Y-163988732D01*
X82954066Y-164000678D01*
X82875345Y-164040789D01*
X82790789Y-164125345D01*
X82784979Y-164136748D01*
X82750242Y-164204923D01*
X82736500Y-164231892D01*
X82717794Y-164350000D01*
X82569317Y-164350000D01*
X82552373Y-164243019D01*
X82546704Y-164231892D01*
X82502145Y-164144443D01*
X82498084Y-164136472D01*
X82413528Y-164051916D01*
X82354556Y-164021868D01*
X82311362Y-163999859D01*
X82311361Y-163999859D01*
X82306981Y-163997627D01*
X82188873Y-163978921D01*
X82070765Y-163997627D01*
X82066385Y-163999859D01*
X82066384Y-163999859D01*
X82023190Y-164021868D01*
X81964218Y-164051916D01*
X81879662Y-164136472D01*
X81875601Y-164144443D01*
X81831043Y-164231892D01*
X81825373Y-164243019D01*
X81806667Y-164361127D01*
X70250500Y-164361127D01*
X70250500Y-163770910D01*
X70268806Y-163726716D01*
X70313000Y-163708410D01*
X70353174Y-163723032D01*
X70456219Y-163809497D01*
X70461249Y-163812941D01*
X70633409Y-163907588D01*
X70639006Y-163909986D01*
X70826273Y-163969390D01*
X70832227Y-163970656D01*
X70985114Y-163987805D01*
X70988592Y-163988000D01*
X71203569Y-163988000D01*
X71212359Y-163984359D01*
X71216000Y-163975569D01*
X71724000Y-163975569D01*
X71727641Y-163984359D01*
X71736431Y-163988000D01*
X71944437Y-163988000D01*
X71947497Y-163987850D01*
X72093574Y-163973527D01*
X72099539Y-163972346D01*
X72287628Y-163915559D01*
X72293247Y-163913243D01*
X72466721Y-163821006D01*
X72471786Y-163817640D01*
X72624040Y-163693465D01*
X72628358Y-163689177D01*
X72753590Y-163537797D01*
X72756993Y-163532753D01*
X72828772Y-163400000D01*
X79317794Y-163400000D01*
X79336500Y-163518108D01*
X79390789Y-163624655D01*
X79475345Y-163709211D01*
X79479724Y-163711442D01*
X79577511Y-163761268D01*
X79577512Y-163761268D01*
X79581892Y-163763500D01*
X79700000Y-163782206D01*
X79818108Y-163763500D01*
X79822488Y-163761268D01*
X79822489Y-163761268D01*
X79869022Y-163737558D01*
X90672500Y-163737558D01*
X90679898Y-163774748D01*
X90708078Y-163816922D01*
X90750252Y-163845102D01*
X90756285Y-163846302D01*
X90756287Y-163846303D01*
X90782384Y-163851494D01*
X90787442Y-163852500D01*
X92512558Y-163852500D01*
X92517616Y-163851494D01*
X92543713Y-163846303D01*
X92543715Y-163846302D01*
X92549748Y-163845102D01*
X92591922Y-163816922D01*
X92620102Y-163774748D01*
X92627500Y-163737558D01*
X92627500Y-163137051D01*
X92856924Y-163137051D01*
X92889139Y-163279994D01*
X92890664Y-163284861D01*
X92972747Y-163487008D01*
X92975057Y-163491582D01*
X93089051Y-163677602D01*
X93092072Y-163681731D01*
X93234917Y-163846635D01*
X93238580Y-163850222D01*
X93406437Y-163989580D01*
X93410631Y-163992517D01*
X93598999Y-164102590D01*
X93603615Y-164104802D01*
X93807442Y-164182635D01*
X93812343Y-164184059D01*
X93923817Y-164206738D01*
X93933158Y-164204923D01*
X93936000Y-164200709D01*
X93936000Y-164199201D01*
X94444000Y-164199201D01*
X94447641Y-164207991D01*
X94453495Y-164210416D01*
X94470762Y-164208204D01*
X94475772Y-164207139D01*
X94684749Y-164144443D01*
X94689499Y-164142581D01*
X94885436Y-164046592D01*
X94889824Y-164043976D01*
X95067449Y-163917278D01*
X95071352Y-163913980D01*
X95225897Y-163759973D01*
X95229210Y-163756080D01*
X95356522Y-163578906D01*
X95359161Y-163574515D01*
X95455825Y-163378930D01*
X95457710Y-163374170D01*
X95521136Y-163165413D01*
X95522215Y-163160420D01*
X95524728Y-163141326D01*
X95522266Y-163132135D01*
X95516835Y-163129000D01*
X94456431Y-163129000D01*
X94447641Y-163132641D01*
X94444000Y-163141431D01*
X94444000Y-164199201D01*
X93936000Y-164199201D01*
X93936000Y-163141431D01*
X93932359Y-163132641D01*
X93923569Y-163129000D01*
X92867541Y-163129000D01*
X92858751Y-163132641D01*
X92856924Y-163137051D01*
X92627500Y-163137051D01*
X92627500Y-162611924D01*
X92853628Y-162611924D01*
X92855347Y-162617767D01*
X92861274Y-162621000D01*
X93923569Y-162621000D01*
X93932359Y-162617359D01*
X93936000Y-162608569D01*
X94444000Y-162608569D01*
X94447641Y-162617359D01*
X94456431Y-162621000D01*
X95514028Y-162621000D01*
X95522818Y-162617359D01*
X95524515Y-162613261D01*
X95480580Y-162438350D01*
X95478932Y-162433510D01*
X95391937Y-162233435D01*
X95389514Y-162228917D01*
X95271013Y-162045741D01*
X95267889Y-162041684D01*
X95121057Y-161880318D01*
X95117314Y-161876827D01*
X94946091Y-161741605D01*
X94941834Y-161738777D01*
X94750831Y-161633337D01*
X94746166Y-161631240D01*
X94540503Y-161558411D01*
X94535555Y-161557103D01*
X94456239Y-161542975D01*
X94446947Y-161545018D01*
X94444000Y-161549626D01*
X94444000Y-162608569D01*
X93936000Y-162608569D01*
X93936000Y-161552418D01*
X93932359Y-161543628D01*
X93926922Y-161541376D01*
X93876745Y-161549055D01*
X93871766Y-161550241D01*
X93664394Y-161618020D01*
X93659669Y-161620006D01*
X93466153Y-161720744D01*
X93461819Y-161723474D01*
X93287348Y-161854471D01*
X93283527Y-161857863D01*
X93132793Y-162015598D01*
X93129572Y-162019575D01*
X93006629Y-162199802D01*
X93004096Y-162204261D01*
X92912240Y-162402149D01*
X92910473Y-162406950D01*
X92853628Y-162611924D01*
X92627500Y-162611924D01*
X92627500Y-162012442D01*
X92626194Y-162005878D01*
X92621303Y-161981287D01*
X92621302Y-161981285D01*
X92620102Y-161975252D01*
X92591922Y-161933078D01*
X92549748Y-161904898D01*
X92543715Y-161903698D01*
X92543713Y-161903697D01*
X92515569Y-161898099D01*
X92512558Y-161897500D01*
X90787442Y-161897500D01*
X90784431Y-161898099D01*
X90756287Y-161903697D01*
X90756285Y-161903698D01*
X90750252Y-161904898D01*
X90708078Y-161933078D01*
X90679898Y-161975252D01*
X90678698Y-161981285D01*
X90678697Y-161981287D01*
X90673806Y-162005878D01*
X90672500Y-162012442D01*
X90672500Y-163737558D01*
X79869022Y-163737558D01*
X79920276Y-163711442D01*
X79924655Y-163709211D01*
X80009211Y-163624655D01*
X80063500Y-163518108D01*
X80082206Y-163400000D01*
X80063500Y-163281892D01*
X80009211Y-163175345D01*
X79924655Y-163090789D01*
X79873278Y-163064611D01*
X79822489Y-163038732D01*
X79822488Y-163038732D01*
X79818108Y-163036500D01*
X79700000Y-163017794D01*
X79581892Y-163036500D01*
X79577512Y-163038732D01*
X79577511Y-163038732D01*
X79526722Y-163064611D01*
X79475345Y-163090789D01*
X79390789Y-163175345D01*
X79336500Y-163281892D01*
X79317794Y-163400000D01*
X72828772Y-163400000D01*
X72850440Y-163359925D01*
X72852794Y-163354325D01*
X72894104Y-163220877D01*
X72893224Y-163211402D01*
X72890332Y-163209000D01*
X71736431Y-163209000D01*
X71727641Y-163212641D01*
X71724000Y-163221431D01*
X71724000Y-163975569D01*
X71216000Y-163975569D01*
X71216000Y-162688569D01*
X71724000Y-162688569D01*
X71727641Y-162697359D01*
X71736431Y-162701000D01*
X72884670Y-162701000D01*
X72893460Y-162697359D01*
X72894962Y-162693732D01*
X72858279Y-162569095D01*
X72855998Y-162563449D01*
X72764975Y-162389336D01*
X72761645Y-162384248D01*
X72638536Y-162231132D01*
X72634281Y-162226788D01*
X72483781Y-162100503D01*
X72478751Y-162097059D01*
X72306591Y-162002412D01*
X72300994Y-162000014D01*
X72113727Y-161940610D01*
X72107773Y-161939344D01*
X71954886Y-161922195D01*
X71951408Y-161922000D01*
X71736431Y-161922000D01*
X71727641Y-161925641D01*
X71724000Y-161934431D01*
X71724000Y-162688569D01*
X71216000Y-162688569D01*
X71216000Y-161934431D01*
X71212359Y-161925641D01*
X71203569Y-161922000D01*
X70995563Y-161922000D01*
X70992503Y-161922150D01*
X70846426Y-161936473D01*
X70840461Y-161937654D01*
X70652372Y-161994441D01*
X70646753Y-161996757D01*
X70473279Y-162088994D01*
X70468214Y-162092360D01*
X70352502Y-162186732D01*
X70306684Y-162200478D01*
X70264566Y-162177800D01*
X70250500Y-162138298D01*
X70250500Y-161050000D01*
X78467794Y-161050000D01*
X78486500Y-161168108D01*
X78488732Y-161172488D01*
X78488732Y-161172489D01*
X78497996Y-161190670D01*
X78540789Y-161274655D01*
X78625345Y-161359211D01*
X78659563Y-161376646D01*
X78727511Y-161411268D01*
X78727512Y-161411268D01*
X78731892Y-161413500D01*
X78850000Y-161432206D01*
X78968108Y-161413500D01*
X78972488Y-161411268D01*
X78972489Y-161411268D01*
X79040437Y-161376646D01*
X79074655Y-161359211D01*
X79159211Y-161274655D01*
X79202004Y-161190670D01*
X79211268Y-161172489D01*
X79211268Y-161172488D01*
X79213500Y-161168108D01*
X79232206Y-161050000D01*
X79218466Y-160963249D01*
X80508519Y-160963249D01*
X80527225Y-161081357D01*
X80581514Y-161187904D01*
X80636753Y-161243143D01*
X80655059Y-161287337D01*
X80636754Y-161331529D01*
X80588015Y-161380268D01*
X80569446Y-161416712D01*
X80538467Y-161477511D01*
X80533726Y-161486815D01*
X80515020Y-161604923D01*
X80533726Y-161723031D01*
X80588015Y-161829578D01*
X80672571Y-161914134D01*
X80695155Y-161925641D01*
X80774737Y-161966191D01*
X80774738Y-161966191D01*
X80779118Y-161968423D01*
X80897226Y-161987129D01*
X81015334Y-161968423D01*
X81019714Y-161966191D01*
X81019715Y-161966191D01*
X81099297Y-161925641D01*
X81121881Y-161914134D01*
X81206437Y-161829578D01*
X81260726Y-161723031D01*
X81279432Y-161604923D01*
X81260726Y-161486815D01*
X81255986Y-161477511D01*
X81225006Y-161416712D01*
X81206437Y-161380268D01*
X81151199Y-161325030D01*
X81140831Y-161300000D01*
X82317794Y-161300000D01*
X82336500Y-161418108D01*
X82338732Y-161422488D01*
X82338732Y-161422489D01*
X82343683Y-161432206D01*
X82390789Y-161524655D01*
X82475345Y-161609211D01*
X82496531Y-161620006D01*
X82577511Y-161661268D01*
X82577512Y-161661268D01*
X82581892Y-161663500D01*
X82700000Y-161682206D01*
X82818108Y-161663500D01*
X82822488Y-161661268D01*
X82822489Y-161661268D01*
X82843007Y-161650813D01*
X82890695Y-161647060D01*
X82927070Y-161678126D01*
X82933112Y-161696724D01*
X82935729Y-161713245D01*
X82935731Y-161713250D01*
X82936500Y-161718108D01*
X82938732Y-161722488D01*
X82938732Y-161722489D01*
X82947031Y-161738777D01*
X82990789Y-161824655D01*
X83075345Y-161909211D01*
X83126722Y-161935389D01*
X83177511Y-161961268D01*
X83177512Y-161961268D01*
X83181892Y-161963500D01*
X83300000Y-161982206D01*
X83418108Y-161963500D01*
X83422488Y-161961268D01*
X83422489Y-161961268D01*
X83473278Y-161935389D01*
X83524655Y-161909211D01*
X83609211Y-161824655D01*
X83652969Y-161738777D01*
X83661268Y-161722489D01*
X83661268Y-161722488D01*
X83663500Y-161718108D01*
X83667249Y-161694436D01*
X89351103Y-161694436D01*
X89369809Y-161812544D01*
X89372041Y-161816924D01*
X89372041Y-161816925D01*
X89378488Y-161829578D01*
X89424098Y-161919091D01*
X89508654Y-162003647D01*
X89513033Y-162005878D01*
X89610820Y-162055704D01*
X89610821Y-162055704D01*
X89615201Y-162057936D01*
X89733309Y-162076642D01*
X89851417Y-162057936D01*
X89855797Y-162055704D01*
X89855798Y-162055704D01*
X89953585Y-162005878D01*
X89957964Y-162003647D01*
X90042520Y-161919091D01*
X90088130Y-161829578D01*
X90094577Y-161816925D01*
X90094577Y-161816924D01*
X90096809Y-161812544D01*
X90115515Y-161694436D01*
X90096809Y-161576328D01*
X90042520Y-161469781D01*
X90007034Y-161434295D01*
X89988728Y-161390101D01*
X90007033Y-161345907D01*
X90052940Y-161300000D01*
X96467794Y-161300000D01*
X96486500Y-161418108D01*
X96488732Y-161422488D01*
X96488732Y-161422489D01*
X96493683Y-161432206D01*
X96540789Y-161524655D01*
X96625345Y-161609211D01*
X96646531Y-161620006D01*
X96727511Y-161661268D01*
X96727512Y-161661268D01*
X96731892Y-161663500D01*
X96850000Y-161682206D01*
X96968108Y-161663500D01*
X96972488Y-161661268D01*
X96972489Y-161661268D01*
X97053469Y-161620006D01*
X97074655Y-161609211D01*
X97159211Y-161524655D01*
X97206317Y-161432206D01*
X97211268Y-161422489D01*
X97211268Y-161422488D01*
X97213500Y-161418108D01*
X97232206Y-161300000D01*
X97213500Y-161181892D01*
X97204003Y-161163252D01*
X97185389Y-161126722D01*
X97159211Y-161075345D01*
X97074655Y-160990789D01*
X97016598Y-160961207D01*
X96972489Y-160938732D01*
X96972488Y-160938732D01*
X96968108Y-160936500D01*
X96850000Y-160917794D01*
X96731892Y-160936500D01*
X96727512Y-160938732D01*
X96727511Y-160938732D01*
X96683402Y-160961207D01*
X96625345Y-160990789D01*
X96540789Y-161075345D01*
X96514611Y-161126722D01*
X96495998Y-161163252D01*
X96486500Y-161181892D01*
X96467794Y-161300000D01*
X90052940Y-161300000D01*
X90060104Y-161292836D01*
X90096261Y-161221874D01*
X90112161Y-161190670D01*
X90112161Y-161190669D01*
X90114393Y-161186289D01*
X90133099Y-161068181D01*
X90114393Y-160950073D01*
X90109551Y-160940569D01*
X90108017Y-160937558D01*
X92022500Y-160937558D01*
X92023099Y-160940569D01*
X92027611Y-160963249D01*
X92029898Y-160974748D01*
X92058078Y-161016922D01*
X92100252Y-161045102D01*
X92106285Y-161046302D01*
X92106287Y-161046303D01*
X92124874Y-161050000D01*
X92137442Y-161052500D01*
X93862558Y-161052500D01*
X93875126Y-161050000D01*
X93893713Y-161046303D01*
X93893715Y-161046302D01*
X93899748Y-161045102D01*
X93941922Y-161016922D01*
X93970102Y-160974748D01*
X93972390Y-160963249D01*
X93976901Y-160940569D01*
X93977500Y-160937558D01*
X93977500Y-160250000D01*
X95017794Y-160250000D01*
X95036500Y-160368108D01*
X95038732Y-160372488D01*
X95038732Y-160372489D01*
X95051109Y-160396779D01*
X95090789Y-160474655D01*
X95175345Y-160559211D01*
X95223534Y-160583765D01*
X95277511Y-160611268D01*
X95277512Y-160611268D01*
X95281892Y-160613500D01*
X95400000Y-160632206D01*
X95518108Y-160613500D01*
X95522488Y-160611268D01*
X95522489Y-160611268D01*
X95576466Y-160583765D01*
X95624655Y-160559211D01*
X95709211Y-160474655D01*
X95721773Y-160450000D01*
X100167794Y-160450000D01*
X100186500Y-160568108D01*
X100188732Y-160572488D01*
X100188732Y-160572489D01*
X100214611Y-160623278D01*
X100240789Y-160674655D01*
X100325345Y-160759211D01*
X100329724Y-160761442D01*
X100427511Y-160811268D01*
X100427512Y-160811268D01*
X100431892Y-160813500D01*
X100550000Y-160832206D01*
X100668108Y-160813500D01*
X100672488Y-160811268D01*
X100672489Y-160811268D01*
X100770276Y-160761442D01*
X100774655Y-160759211D01*
X100859211Y-160674655D01*
X100885389Y-160623278D01*
X100911268Y-160572489D01*
X100911268Y-160572488D01*
X100913500Y-160568108D01*
X100932206Y-160450000D01*
X100913500Y-160331892D01*
X100896737Y-160298992D01*
X100861442Y-160229724D01*
X100859211Y-160225345D01*
X100774655Y-160140789D01*
X100712680Y-160109211D01*
X100672489Y-160088732D01*
X100672488Y-160088732D01*
X100668108Y-160086500D01*
X100550000Y-160067794D01*
X100431892Y-160086500D01*
X100427512Y-160088732D01*
X100427511Y-160088732D01*
X100387320Y-160109211D01*
X100325345Y-160140789D01*
X100240789Y-160225345D01*
X100238558Y-160229724D01*
X100203264Y-160298992D01*
X100186500Y-160331892D01*
X100167794Y-160450000D01*
X95721773Y-160450000D01*
X95748891Y-160396779D01*
X95761268Y-160372489D01*
X95761268Y-160372488D01*
X95763500Y-160368108D01*
X95782206Y-160250000D01*
X95763500Y-160131892D01*
X95757582Y-160120276D01*
X95711442Y-160029724D01*
X95709211Y-160025345D01*
X95624655Y-159940789D01*
X95559218Y-159907447D01*
X95522489Y-159888732D01*
X95522488Y-159888732D01*
X95518108Y-159886500D01*
X95400000Y-159867794D01*
X95281892Y-159886500D01*
X95277512Y-159888732D01*
X95277511Y-159888732D01*
X95240782Y-159907447D01*
X95175345Y-159940789D01*
X95090789Y-160025345D01*
X95088558Y-160029724D01*
X95042419Y-160120276D01*
X95036500Y-160131892D01*
X95017794Y-160250000D01*
X93977500Y-160250000D01*
X93977500Y-159800000D01*
X107317794Y-159800000D01*
X107336500Y-159918108D01*
X107338732Y-159922488D01*
X107338732Y-159922489D01*
X107355923Y-159956227D01*
X107390789Y-160024655D01*
X107475345Y-160109211D01*
X107526722Y-160135389D01*
X107577511Y-160161268D01*
X107577512Y-160161268D01*
X107581892Y-160163500D01*
X107700000Y-160182206D01*
X107818108Y-160163500D01*
X107822488Y-160161268D01*
X107822489Y-160161268D01*
X107873278Y-160135389D01*
X107924655Y-160109211D01*
X108009211Y-160024655D01*
X108044077Y-159956227D01*
X108061268Y-159922489D01*
X108061268Y-159922488D01*
X108063500Y-159918108D01*
X108082206Y-159800000D01*
X108217794Y-159800000D01*
X108236500Y-159918108D01*
X108238732Y-159922488D01*
X108238732Y-159922489D01*
X108255923Y-159956227D01*
X108290789Y-160024655D01*
X108375345Y-160109211D01*
X108426722Y-160135389D01*
X108477511Y-160161268D01*
X108477512Y-160161268D01*
X108481892Y-160163500D01*
X108600000Y-160182206D01*
X108718108Y-160163500D01*
X108722488Y-160161268D01*
X108722489Y-160161268D01*
X108773278Y-160135389D01*
X108824655Y-160109211D01*
X108909211Y-160024655D01*
X108944077Y-159956227D01*
X108961268Y-159922489D01*
X108961268Y-159922488D01*
X108963500Y-159918108D01*
X108982206Y-159800000D01*
X109217794Y-159800000D01*
X109236500Y-159918108D01*
X109238732Y-159922488D01*
X109238732Y-159922489D01*
X109255923Y-159956227D01*
X109290789Y-160024655D01*
X109375345Y-160109211D01*
X109426722Y-160135389D01*
X109477511Y-160161268D01*
X109477512Y-160161268D01*
X109481892Y-160163500D01*
X109600000Y-160182206D01*
X109718108Y-160163500D01*
X109722488Y-160161268D01*
X109722489Y-160161268D01*
X109773278Y-160135389D01*
X109824655Y-160109211D01*
X109909211Y-160024655D01*
X109944077Y-159956227D01*
X109961268Y-159922489D01*
X109961268Y-159922488D01*
X109963500Y-159918108D01*
X109982206Y-159800000D01*
X110117794Y-159800000D01*
X110136500Y-159918108D01*
X110138732Y-159922488D01*
X110138732Y-159922489D01*
X110155923Y-159956227D01*
X110190789Y-160024655D01*
X110275345Y-160109211D01*
X110326722Y-160135389D01*
X110377511Y-160161268D01*
X110377512Y-160161268D01*
X110381892Y-160163500D01*
X110500000Y-160182206D01*
X110618108Y-160163500D01*
X110622488Y-160161268D01*
X110622489Y-160161268D01*
X110673278Y-160135389D01*
X110724655Y-160109211D01*
X110809211Y-160024655D01*
X110844077Y-159956227D01*
X110861268Y-159922489D01*
X110861268Y-159922488D01*
X110863500Y-159918108D01*
X110882206Y-159800000D01*
X111117794Y-159800000D01*
X111136500Y-159918108D01*
X111138732Y-159922488D01*
X111138732Y-159922489D01*
X111155923Y-159956227D01*
X111190789Y-160024655D01*
X111275345Y-160109211D01*
X111326722Y-160135389D01*
X111377511Y-160161268D01*
X111377512Y-160161268D01*
X111381892Y-160163500D01*
X111500000Y-160182206D01*
X111618108Y-160163500D01*
X111622488Y-160161268D01*
X111622489Y-160161268D01*
X111673278Y-160135389D01*
X111724655Y-160109211D01*
X111809211Y-160024655D01*
X111844077Y-159956227D01*
X111861268Y-159922489D01*
X111861268Y-159922488D01*
X111863500Y-159918108D01*
X111882206Y-159800000D01*
X111863500Y-159681892D01*
X111858393Y-159671868D01*
X111811442Y-159579724D01*
X111809211Y-159575345D01*
X111724655Y-159490789D01*
X111673278Y-159464611D01*
X111622489Y-159438732D01*
X111622488Y-159438732D01*
X111618108Y-159436500D01*
X111500000Y-159417794D01*
X111381892Y-159436500D01*
X111377512Y-159438732D01*
X111377511Y-159438732D01*
X111326722Y-159464611D01*
X111275345Y-159490789D01*
X111190789Y-159575345D01*
X111188558Y-159579724D01*
X111141608Y-159671868D01*
X111136500Y-159681892D01*
X111117794Y-159800000D01*
X110882206Y-159800000D01*
X110863500Y-159681892D01*
X110858393Y-159671868D01*
X110811442Y-159579724D01*
X110809211Y-159575345D01*
X110724655Y-159490789D01*
X110673278Y-159464611D01*
X110622489Y-159438732D01*
X110622488Y-159438732D01*
X110618108Y-159436500D01*
X110500000Y-159417794D01*
X110381892Y-159436500D01*
X110377512Y-159438732D01*
X110377511Y-159438732D01*
X110326722Y-159464611D01*
X110275345Y-159490789D01*
X110190789Y-159575345D01*
X110188558Y-159579724D01*
X110141608Y-159671868D01*
X110136500Y-159681892D01*
X110117794Y-159800000D01*
X109982206Y-159800000D01*
X109963500Y-159681892D01*
X109958393Y-159671868D01*
X109911442Y-159579724D01*
X109909211Y-159575345D01*
X109824655Y-159490789D01*
X109773278Y-159464611D01*
X109722489Y-159438732D01*
X109722488Y-159438732D01*
X109718108Y-159436500D01*
X109600000Y-159417794D01*
X109481892Y-159436500D01*
X109477512Y-159438732D01*
X109477511Y-159438732D01*
X109426722Y-159464611D01*
X109375345Y-159490789D01*
X109290789Y-159575345D01*
X109288558Y-159579724D01*
X109241608Y-159671868D01*
X109236500Y-159681892D01*
X109217794Y-159800000D01*
X108982206Y-159800000D01*
X108963500Y-159681892D01*
X108958393Y-159671868D01*
X108911442Y-159579724D01*
X108909211Y-159575345D01*
X108824655Y-159490789D01*
X108773278Y-159464611D01*
X108722489Y-159438732D01*
X108722488Y-159438732D01*
X108718108Y-159436500D01*
X108600000Y-159417794D01*
X108481892Y-159436500D01*
X108477512Y-159438732D01*
X108477511Y-159438732D01*
X108426722Y-159464611D01*
X108375345Y-159490789D01*
X108290789Y-159575345D01*
X108288558Y-159579724D01*
X108241608Y-159671868D01*
X108236500Y-159681892D01*
X108217794Y-159800000D01*
X108082206Y-159800000D01*
X108063500Y-159681892D01*
X108058393Y-159671868D01*
X108011442Y-159579724D01*
X108009211Y-159575345D01*
X107924655Y-159490789D01*
X107873278Y-159464611D01*
X107822489Y-159438732D01*
X107822488Y-159438732D01*
X107818108Y-159436500D01*
X107700000Y-159417794D01*
X107581892Y-159436500D01*
X107577512Y-159438732D01*
X107577511Y-159438732D01*
X107526722Y-159464611D01*
X107475345Y-159490789D01*
X107390789Y-159575345D01*
X107388558Y-159579724D01*
X107341608Y-159671868D01*
X107336500Y-159681892D01*
X107317794Y-159800000D01*
X93977500Y-159800000D01*
X93977500Y-159212442D01*
X93970102Y-159175252D01*
X93941922Y-159133078D01*
X93899748Y-159104898D01*
X93893715Y-159103698D01*
X93893713Y-159103697D01*
X93865569Y-159098099D01*
X93862558Y-159097500D01*
X92137442Y-159097500D01*
X92134431Y-159098099D01*
X92106287Y-159103697D01*
X92106285Y-159103698D01*
X92100252Y-159104898D01*
X92058078Y-159133078D01*
X92029898Y-159175252D01*
X92022500Y-159212442D01*
X92022500Y-160937558D01*
X90108017Y-160937558D01*
X90062335Y-160847905D01*
X90060104Y-160843526D01*
X89975548Y-160758970D01*
X89924171Y-160732792D01*
X89873382Y-160706913D01*
X89873381Y-160706913D01*
X89869001Y-160704681D01*
X89750893Y-160685975D01*
X89632785Y-160704681D01*
X89628405Y-160706913D01*
X89628404Y-160706913D01*
X89577615Y-160732792D01*
X89526238Y-160758970D01*
X89441682Y-160843526D01*
X89439451Y-160847905D01*
X89392236Y-160940569D01*
X89387393Y-160950073D01*
X89368687Y-161068181D01*
X89387393Y-161186289D01*
X89389625Y-161190669D01*
X89389625Y-161190670D01*
X89405525Y-161221874D01*
X89441682Y-161292836D01*
X89477169Y-161328323D01*
X89495475Y-161372517D01*
X89477170Y-161416709D01*
X89424098Y-161469781D01*
X89369809Y-161576328D01*
X89351103Y-161694436D01*
X83667249Y-161694436D01*
X83682206Y-161600000D01*
X83663500Y-161481892D01*
X83659561Y-161474160D01*
X83627515Y-161411268D01*
X83609211Y-161375345D01*
X83524655Y-161290789D01*
X83450373Y-161252940D01*
X83422489Y-161238732D01*
X83422488Y-161238732D01*
X83418108Y-161236500D01*
X83300000Y-161217794D01*
X83181892Y-161236500D01*
X83177512Y-161238732D01*
X83177511Y-161238732D01*
X83156993Y-161249187D01*
X83109305Y-161252940D01*
X83072930Y-161221874D01*
X83066888Y-161203276D01*
X83064271Y-161186755D01*
X83064269Y-161186748D01*
X83063500Y-161181892D01*
X83054003Y-161163252D01*
X83035389Y-161126722D01*
X83009211Y-161075345D01*
X82924655Y-160990789D01*
X82866598Y-160961207D01*
X82822489Y-160938732D01*
X82822488Y-160938732D01*
X82818108Y-160936500D01*
X82700000Y-160917794D01*
X82581892Y-160936500D01*
X82577512Y-160938732D01*
X82577511Y-160938732D01*
X82533402Y-160961207D01*
X82475345Y-160990789D01*
X82390789Y-161075345D01*
X82364611Y-161126722D01*
X82345998Y-161163252D01*
X82336500Y-161181892D01*
X82317794Y-161300000D01*
X81140831Y-161300000D01*
X81132893Y-161280836D01*
X81151198Y-161236642D01*
X81199936Y-161187904D01*
X81254225Y-161081357D01*
X81272931Y-160963249D01*
X81254225Y-160845141D01*
X81251631Y-160840049D01*
X81202167Y-160742973D01*
X81199936Y-160738594D01*
X81167151Y-160705809D01*
X81148845Y-160661615D01*
X81167151Y-160617421D01*
X81182971Y-160605927D01*
X81200613Y-160596938D01*
X87500188Y-160596938D01*
X87518894Y-160715046D01*
X87573183Y-160821593D01*
X87657739Y-160906149D01*
X87682103Y-160918563D01*
X87759905Y-160958206D01*
X87759906Y-160958206D01*
X87764286Y-160960438D01*
X87882394Y-160979144D01*
X88000502Y-160960438D01*
X88004882Y-160958206D01*
X88004883Y-160958206D01*
X88082685Y-160918563D01*
X88107049Y-160906149D01*
X88191605Y-160821593D01*
X88245894Y-160715046D01*
X88264600Y-160596938D01*
X88245894Y-160478830D01*
X88241536Y-160470276D01*
X88193836Y-160376662D01*
X88191605Y-160372283D01*
X88120176Y-160300854D01*
X88101870Y-160256660D01*
X88120176Y-160212466D01*
X88122998Y-160210055D01*
X88124655Y-160209211D01*
X88157363Y-160176503D01*
X89417794Y-160176503D01*
X89436500Y-160294611D01*
X89438732Y-160298991D01*
X89438732Y-160298992D01*
X89455496Y-160331892D01*
X89490789Y-160401158D01*
X89575345Y-160485714D01*
X89579724Y-160487945D01*
X89677511Y-160537771D01*
X89677512Y-160537771D01*
X89681892Y-160540003D01*
X89800000Y-160558709D01*
X89918108Y-160540003D01*
X89922488Y-160537771D01*
X89922489Y-160537771D01*
X90020276Y-160487945D01*
X90024655Y-160485714D01*
X90109211Y-160401158D01*
X90144504Y-160331892D01*
X90161268Y-160298992D01*
X90161268Y-160298991D01*
X90163500Y-160294611D01*
X90182206Y-160176503D01*
X90163500Y-160058395D01*
X90146309Y-160024655D01*
X90117496Y-159968108D01*
X90109211Y-159951848D01*
X90064809Y-159907446D01*
X90046503Y-159863252D01*
X90064808Y-159819058D01*
X90109211Y-159774655D01*
X90135389Y-159723278D01*
X90161268Y-159672489D01*
X90161268Y-159672488D01*
X90163500Y-159668108D01*
X90182206Y-159550000D01*
X90163500Y-159431892D01*
X90156709Y-159418563D01*
X90135389Y-159376722D01*
X90109211Y-159325345D01*
X90024655Y-159240789D01*
X89973278Y-159214611D01*
X89922489Y-159188732D01*
X89922488Y-159188732D01*
X89918108Y-159186500D01*
X89800000Y-159167794D01*
X89681892Y-159186500D01*
X89677512Y-159188732D01*
X89677511Y-159188732D01*
X89626722Y-159214611D01*
X89575345Y-159240789D01*
X89490789Y-159325345D01*
X89464611Y-159376722D01*
X89443292Y-159418563D01*
X89436500Y-159431892D01*
X89417794Y-159550000D01*
X89436500Y-159668108D01*
X89438732Y-159672488D01*
X89438732Y-159672489D01*
X89464611Y-159723278D01*
X89490789Y-159774655D01*
X89535192Y-159819058D01*
X89553498Y-159863252D01*
X89535193Y-159907444D01*
X89490789Y-159951848D01*
X89482504Y-159968108D01*
X89453692Y-160024655D01*
X89436500Y-160058395D01*
X89417794Y-160176503D01*
X88157363Y-160176503D01*
X88209211Y-160124655D01*
X88245205Y-160054014D01*
X88261268Y-160022489D01*
X88261268Y-160022488D01*
X88263500Y-160018108D01*
X88282206Y-159900000D01*
X88263500Y-159781892D01*
X88257582Y-159770276D01*
X88211442Y-159679724D01*
X88209211Y-159675345D01*
X88124655Y-159590789D01*
X88070611Y-159563252D01*
X88022489Y-159538732D01*
X88022488Y-159538732D01*
X88018108Y-159536500D01*
X87900000Y-159517794D01*
X87781892Y-159536500D01*
X87777512Y-159538732D01*
X87777511Y-159538732D01*
X87729389Y-159563252D01*
X87675345Y-159590789D01*
X87590789Y-159675345D01*
X87588558Y-159679724D01*
X87542419Y-159770276D01*
X87536500Y-159781892D01*
X87517794Y-159900000D01*
X87536500Y-160018108D01*
X87538732Y-160022488D01*
X87538732Y-160022489D01*
X87554795Y-160054014D01*
X87590789Y-160124655D01*
X87662218Y-160196084D01*
X87680524Y-160240278D01*
X87662218Y-160284472D01*
X87659396Y-160286883D01*
X87657739Y-160287727D01*
X87573183Y-160372283D01*
X87570952Y-160376662D01*
X87523253Y-160470276D01*
X87518894Y-160478830D01*
X87500188Y-160596938D01*
X81200613Y-160596938D01*
X81270274Y-160561444D01*
X81270277Y-160561442D01*
X81274655Y-160559211D01*
X81359211Y-160474655D01*
X81398891Y-160396779D01*
X81411268Y-160372489D01*
X81411268Y-160372488D01*
X81413500Y-160368108D01*
X81432206Y-160250000D01*
X81413500Y-160131892D01*
X81407582Y-160120276D01*
X81361442Y-160029724D01*
X81359211Y-160025345D01*
X81278060Y-159944194D01*
X81259754Y-159900000D01*
X81278060Y-159855806D01*
X81359211Y-159774655D01*
X81385389Y-159723278D01*
X81411268Y-159672489D01*
X81411268Y-159672488D01*
X81413500Y-159668108D01*
X81432206Y-159550000D01*
X81413500Y-159431892D01*
X81406709Y-159418563D01*
X81385389Y-159376722D01*
X81359211Y-159325345D01*
X81274655Y-159240789D01*
X81223278Y-159214611D01*
X81172489Y-159188732D01*
X81172488Y-159188732D01*
X81168108Y-159186500D01*
X81050000Y-159167794D01*
X80931892Y-159186500D01*
X80927512Y-159188732D01*
X80927511Y-159188732D01*
X80876722Y-159214611D01*
X80825345Y-159240789D01*
X80740789Y-159325345D01*
X80714611Y-159376722D01*
X80693292Y-159418563D01*
X80686500Y-159431892D01*
X80667794Y-159550000D01*
X80686500Y-159668108D01*
X80688732Y-159672488D01*
X80688732Y-159672489D01*
X80714611Y-159723278D01*
X80740789Y-159774655D01*
X80821940Y-159855806D01*
X80840246Y-159900000D01*
X80821940Y-159944194D01*
X80740789Y-160025345D01*
X80738558Y-160029724D01*
X80692419Y-160120276D01*
X80686500Y-160131892D01*
X80667794Y-160250000D01*
X80686500Y-160368108D01*
X80688732Y-160372488D01*
X80688732Y-160372489D01*
X80701109Y-160396779D01*
X80740789Y-160474655D01*
X80773574Y-160507440D01*
X80791880Y-160551634D01*
X80773574Y-160595828D01*
X80757754Y-160607322D01*
X80670451Y-160651805D01*
X80670448Y-160651807D01*
X80666070Y-160654038D01*
X80581514Y-160738594D01*
X80579283Y-160742973D01*
X80529820Y-160840049D01*
X80527225Y-160845141D01*
X80508519Y-160963249D01*
X79218466Y-160963249D01*
X79213500Y-160931892D01*
X79206709Y-160918563D01*
X79161442Y-160829724D01*
X79159211Y-160825345D01*
X79074655Y-160740789D01*
X79002281Y-160703912D01*
X78972489Y-160688732D01*
X78972488Y-160688732D01*
X78968108Y-160686500D01*
X78850000Y-160667794D01*
X78731892Y-160686500D01*
X78727512Y-160688732D01*
X78727511Y-160688732D01*
X78697719Y-160703912D01*
X78625345Y-160740789D01*
X78540789Y-160825345D01*
X78538558Y-160829724D01*
X78493292Y-160918563D01*
X78486500Y-160931892D01*
X78467794Y-161050000D01*
X70250500Y-161050000D01*
X70250500Y-159050000D01*
X115867794Y-159050000D01*
X115886500Y-159168108D01*
X115888732Y-159172488D01*
X115888732Y-159172489D01*
X115910654Y-159215512D01*
X115940789Y-159274655D01*
X116025345Y-159359211D01*
X116029724Y-159361442D01*
X116127511Y-159411268D01*
X116127512Y-159411268D01*
X116131892Y-159413500D01*
X116220512Y-159427536D01*
X116261297Y-159452529D01*
X116272464Y-159479487D01*
X116286500Y-159568108D01*
X116288732Y-159572488D01*
X116288732Y-159572489D01*
X116296920Y-159588558D01*
X116340789Y-159674655D01*
X116425345Y-159759211D01*
X116476722Y-159785389D01*
X116527511Y-159811268D01*
X116527512Y-159811268D01*
X116531892Y-159813500D01*
X116620512Y-159827536D01*
X116661297Y-159852529D01*
X116672464Y-159879487D01*
X116686500Y-159968108D01*
X116740789Y-160074655D01*
X116825345Y-160159211D01*
X116868966Y-160181437D01*
X116927511Y-160211268D01*
X116927512Y-160211268D01*
X116931892Y-160213500D01*
X117020512Y-160227536D01*
X117061297Y-160252529D01*
X117072464Y-160279487D01*
X117086500Y-160368108D01*
X117088732Y-160372488D01*
X117088732Y-160372489D01*
X117101109Y-160396779D01*
X117140789Y-160474655D01*
X117225345Y-160559211D01*
X117273534Y-160583765D01*
X117327511Y-160611268D01*
X117327512Y-160611268D01*
X117331892Y-160613500D01*
X117450000Y-160632206D01*
X117568108Y-160613500D01*
X117572488Y-160611268D01*
X117572489Y-160611268D01*
X117626466Y-160583765D01*
X117674655Y-160559211D01*
X117759211Y-160474655D01*
X117798891Y-160396779D01*
X117811268Y-160372489D01*
X117811268Y-160372488D01*
X117813500Y-160368108D01*
X117832206Y-160250000D01*
X117813500Y-160131892D01*
X117807582Y-160120276D01*
X117761442Y-160029724D01*
X117759211Y-160025345D01*
X117674655Y-159940789D01*
X117609218Y-159907447D01*
X117572489Y-159888732D01*
X117572488Y-159888732D01*
X117568108Y-159886500D01*
X117479488Y-159872464D01*
X117438703Y-159847471D01*
X117427536Y-159820513D01*
X117413500Y-159731892D01*
X117359211Y-159625345D01*
X117274655Y-159540789D01*
X117223278Y-159514611D01*
X117172489Y-159488732D01*
X117172488Y-159488732D01*
X117168108Y-159486500D01*
X117079488Y-159472464D01*
X117038703Y-159447471D01*
X117027536Y-159420513D01*
X117013500Y-159331892D01*
X117008393Y-159321868D01*
X116961442Y-159229724D01*
X116959211Y-159225345D01*
X116874655Y-159140789D01*
X116790872Y-159098099D01*
X116772489Y-159088732D01*
X116772488Y-159088732D01*
X116768108Y-159086500D01*
X116679488Y-159072464D01*
X116638703Y-159047471D01*
X116627536Y-159020513D01*
X116613500Y-158931892D01*
X116559211Y-158825345D01*
X116474655Y-158740789D01*
X116402406Y-158703976D01*
X116372489Y-158688732D01*
X116372488Y-158688732D01*
X116368108Y-158686500D01*
X116250000Y-158667794D01*
X116131892Y-158686500D01*
X116127512Y-158688732D01*
X116127511Y-158688732D01*
X116097594Y-158703976D01*
X116025345Y-158740789D01*
X115940789Y-158825345D01*
X115886500Y-158931892D01*
X115867794Y-159050000D01*
X70250500Y-159050000D01*
X70250500Y-158000000D01*
X80667794Y-158000000D01*
X80686500Y-158118108D01*
X80740789Y-158224655D01*
X80825345Y-158309211D01*
X80829724Y-158311442D01*
X80927511Y-158361268D01*
X80927512Y-158361268D01*
X80931892Y-158363500D01*
X81050000Y-158382206D01*
X81168108Y-158363500D01*
X81172488Y-158361268D01*
X81172489Y-158361268D01*
X81270276Y-158311442D01*
X81274655Y-158309211D01*
X81359211Y-158224655D01*
X81413500Y-158118108D01*
X81432206Y-158000000D01*
X81413500Y-157881892D01*
X81370271Y-157797051D01*
X91666924Y-157797051D01*
X91699139Y-157939994D01*
X91700664Y-157944861D01*
X91782747Y-158147008D01*
X91785057Y-158151582D01*
X91899051Y-158337602D01*
X91902072Y-158341731D01*
X92044917Y-158506635D01*
X92048580Y-158510222D01*
X92216437Y-158649580D01*
X92220631Y-158652517D01*
X92408999Y-158762590D01*
X92413615Y-158764802D01*
X92617442Y-158842635D01*
X92622343Y-158844059D01*
X92733817Y-158866738D01*
X92743158Y-158864923D01*
X92746000Y-158860709D01*
X92746000Y-158859201D01*
X93254000Y-158859201D01*
X93257641Y-158867991D01*
X93263495Y-158870416D01*
X93280762Y-158868204D01*
X93285772Y-158867139D01*
X93494749Y-158804443D01*
X93499499Y-158802581D01*
X93695436Y-158706592D01*
X93699824Y-158703976D01*
X93877449Y-158577278D01*
X93881352Y-158573980D01*
X93955590Y-158500000D01*
X94417794Y-158500000D01*
X94436500Y-158618108D01*
X94490789Y-158724655D01*
X94575345Y-158809211D01*
X94612479Y-158828132D01*
X94677511Y-158861268D01*
X94677512Y-158861268D01*
X94681892Y-158863500D01*
X94800000Y-158882206D01*
X94918108Y-158863500D01*
X94922488Y-158861268D01*
X94922489Y-158861268D01*
X94987521Y-158828132D01*
X95024655Y-158809211D01*
X95109211Y-158724655D01*
X95163500Y-158618108D01*
X95166368Y-158600000D01*
X103567794Y-158600000D01*
X103586500Y-158718108D01*
X103588732Y-158722488D01*
X103588732Y-158722489D01*
X103596920Y-158738558D01*
X103640789Y-158824655D01*
X103725345Y-158909211D01*
X103776722Y-158935389D01*
X103827511Y-158961268D01*
X103827512Y-158961268D01*
X103831892Y-158963500D01*
X103950000Y-158982206D01*
X104068108Y-158963500D01*
X104072488Y-158961268D01*
X104072489Y-158961268D01*
X104123278Y-158935389D01*
X104174655Y-158909211D01*
X104259211Y-158824655D01*
X104303080Y-158738558D01*
X104311268Y-158722489D01*
X104311268Y-158722488D01*
X104313500Y-158718108D01*
X104332206Y-158600000D01*
X104313500Y-158481892D01*
X104259211Y-158375345D01*
X104174655Y-158290789D01*
X104072830Y-158238906D01*
X104072489Y-158238732D01*
X104072488Y-158238732D01*
X104068108Y-158236500D01*
X103950000Y-158217794D01*
X103831892Y-158236500D01*
X103827512Y-158238732D01*
X103827511Y-158238732D01*
X103827170Y-158238906D01*
X103725345Y-158290789D01*
X103640789Y-158375345D01*
X103586500Y-158481892D01*
X103567794Y-158600000D01*
X95166368Y-158600000D01*
X95182206Y-158500000D01*
X95163500Y-158381892D01*
X95158393Y-158371868D01*
X95135389Y-158326722D01*
X95109211Y-158275345D01*
X95024655Y-158190789D01*
X94980766Y-158168426D01*
X94949700Y-158132051D01*
X94953453Y-158084363D01*
X94980767Y-158057050D01*
X95070274Y-158011444D01*
X95070277Y-158011442D01*
X95074655Y-158009211D01*
X95159211Y-157924655D01*
X95213500Y-157818108D01*
X95232206Y-157700000D01*
X95213500Y-157581892D01*
X95159211Y-157475345D01*
X95074655Y-157390789D01*
X95023278Y-157364611D01*
X94972489Y-157338732D01*
X94972488Y-157338732D01*
X94968108Y-157336500D01*
X94850000Y-157317794D01*
X94731892Y-157336500D01*
X94727512Y-157338732D01*
X94727511Y-157338732D01*
X94676722Y-157364611D01*
X94625345Y-157390789D01*
X94540789Y-157475345D01*
X94486500Y-157581892D01*
X94467794Y-157700000D01*
X94486500Y-157818108D01*
X94540789Y-157924655D01*
X94625345Y-158009211D01*
X94651434Y-158022504D01*
X94669234Y-158031574D01*
X94700300Y-158067949D01*
X94696547Y-158115637D01*
X94669233Y-158142950D01*
X94579726Y-158188556D01*
X94579723Y-158188558D01*
X94575345Y-158190789D01*
X94490789Y-158275345D01*
X94464611Y-158326722D01*
X94441608Y-158371868D01*
X94436500Y-158381892D01*
X94417794Y-158500000D01*
X93955590Y-158500000D01*
X94035897Y-158419973D01*
X94039210Y-158416080D01*
X94166522Y-158238906D01*
X94169161Y-158234515D01*
X94265825Y-158038930D01*
X94267710Y-158034170D01*
X94331136Y-157825413D01*
X94332215Y-157820420D01*
X94334728Y-157801326D01*
X94332266Y-157792135D01*
X94326835Y-157789000D01*
X93266431Y-157789000D01*
X93257641Y-157792641D01*
X93254000Y-157801431D01*
X93254000Y-158859201D01*
X92746000Y-158859201D01*
X92746000Y-157801431D01*
X92742359Y-157792641D01*
X92733569Y-157789000D01*
X91677541Y-157789000D01*
X91668751Y-157792641D01*
X91666924Y-157797051D01*
X81370271Y-157797051D01*
X81359211Y-157775345D01*
X81274655Y-157690789D01*
X81223278Y-157664611D01*
X81172489Y-157638732D01*
X81172488Y-157638732D01*
X81168108Y-157636500D01*
X81050000Y-157617794D01*
X80931892Y-157636500D01*
X80927512Y-157638732D01*
X80927511Y-157638732D01*
X80876722Y-157664611D01*
X80825345Y-157690789D01*
X80740789Y-157775345D01*
X80686500Y-157881892D01*
X80667794Y-158000000D01*
X70250500Y-158000000D01*
X70250500Y-157271924D01*
X91663628Y-157271924D01*
X91665347Y-157277767D01*
X91671274Y-157281000D01*
X92733569Y-157281000D01*
X92742359Y-157277359D01*
X92746000Y-157268569D01*
X93254000Y-157268569D01*
X93257641Y-157277359D01*
X93266431Y-157281000D01*
X94324028Y-157281000D01*
X94332818Y-157277359D01*
X94334515Y-157273261D01*
X94290580Y-157098350D01*
X94288932Y-157093510D01*
X94201937Y-156893435D01*
X94199514Y-156888917D01*
X94081013Y-156705741D01*
X94077889Y-156701684D01*
X93931057Y-156540318D01*
X93927314Y-156536827D01*
X93756091Y-156401605D01*
X93751834Y-156398777D01*
X93560831Y-156293337D01*
X93556166Y-156291240D01*
X93350503Y-156218411D01*
X93345555Y-156217103D01*
X93266239Y-156202975D01*
X93256947Y-156205018D01*
X93254000Y-156209626D01*
X93254000Y-157268569D01*
X92746000Y-157268569D01*
X92746000Y-156212418D01*
X92742359Y-156203628D01*
X92736922Y-156201376D01*
X92686745Y-156209055D01*
X92681766Y-156210241D01*
X92474394Y-156278020D01*
X92469669Y-156280006D01*
X92276153Y-156380744D01*
X92271819Y-156383474D01*
X92097348Y-156514471D01*
X92093527Y-156517863D01*
X91942793Y-156675598D01*
X91939572Y-156679575D01*
X91816629Y-156859802D01*
X91814096Y-156864261D01*
X91722240Y-157062149D01*
X91720473Y-157066950D01*
X91663628Y-157271924D01*
X70250500Y-157271924D01*
X70250500Y-156850000D01*
X81517794Y-156850000D01*
X81536500Y-156968108D01*
X81590789Y-157074655D01*
X81675345Y-157159211D01*
X81679724Y-157161442D01*
X81777511Y-157211268D01*
X81777512Y-157211268D01*
X81781892Y-157213500D01*
X81900000Y-157232206D01*
X82018108Y-157213500D01*
X82022488Y-157211268D01*
X82022489Y-157211268D01*
X82120276Y-157161442D01*
X82124655Y-157159211D01*
X82209211Y-157074655D01*
X82263500Y-156968108D01*
X82282206Y-156850000D01*
X82263500Y-156731892D01*
X82209211Y-156625345D01*
X82178060Y-156594194D01*
X82159754Y-156550000D01*
X82178060Y-156505806D01*
X82209211Y-156474655D01*
X82263500Y-156368108D01*
X82282206Y-156250000D01*
X82263500Y-156131892D01*
X82252992Y-156111268D01*
X82228214Y-156062641D01*
X82209211Y-156025345D01*
X82124655Y-155940789D01*
X82032021Y-155893589D01*
X82022489Y-155888732D01*
X82022488Y-155888732D01*
X82018108Y-155886500D01*
X81900000Y-155867794D01*
X81781892Y-155886500D01*
X81777512Y-155888732D01*
X81777511Y-155888732D01*
X81767979Y-155893589D01*
X81675345Y-155940789D01*
X81590789Y-156025345D01*
X81571786Y-156062641D01*
X81547009Y-156111268D01*
X81536500Y-156131892D01*
X81517794Y-156250000D01*
X81536500Y-156368108D01*
X81590789Y-156474655D01*
X81621940Y-156505806D01*
X81640246Y-156550000D01*
X81621940Y-156594194D01*
X81590789Y-156625345D01*
X81536500Y-156731892D01*
X81517794Y-156850000D01*
X70250500Y-156850000D01*
X70250500Y-156620910D01*
X70268806Y-156576716D01*
X70313000Y-156558410D01*
X70353174Y-156573032D01*
X70456219Y-156659497D01*
X70461249Y-156662941D01*
X70633409Y-156757588D01*
X70639006Y-156759986D01*
X70826273Y-156819390D01*
X70832227Y-156820656D01*
X70985114Y-156837805D01*
X70988592Y-156838000D01*
X71203569Y-156838000D01*
X71212359Y-156834359D01*
X71216000Y-156825569D01*
X71724000Y-156825569D01*
X71727641Y-156834359D01*
X71736431Y-156838000D01*
X71944437Y-156838000D01*
X71947497Y-156837850D01*
X72093574Y-156823527D01*
X72099539Y-156822346D01*
X72287628Y-156765559D01*
X72293247Y-156763243D01*
X72466721Y-156671006D01*
X72471786Y-156667640D01*
X72624040Y-156543465D01*
X72628358Y-156539177D01*
X72753590Y-156387797D01*
X72756993Y-156382753D01*
X72850440Y-156209925D01*
X72852794Y-156204325D01*
X72894104Y-156070877D01*
X72893224Y-156061402D01*
X72890332Y-156059000D01*
X71736431Y-156059000D01*
X71727641Y-156062641D01*
X71724000Y-156071431D01*
X71724000Y-156825569D01*
X71216000Y-156825569D01*
X71216000Y-155538569D01*
X71724000Y-155538569D01*
X71727641Y-155547359D01*
X71736431Y-155551000D01*
X72884670Y-155551000D01*
X72893460Y-155547359D01*
X72894962Y-155543732D01*
X72858279Y-155419095D01*
X72855998Y-155413449D01*
X72822828Y-155350000D01*
X81867794Y-155350000D01*
X81886500Y-155468108D01*
X81940789Y-155574655D01*
X82025345Y-155659211D01*
X82059698Y-155676715D01*
X82127511Y-155711268D01*
X82127512Y-155711268D01*
X82131892Y-155713500D01*
X82250000Y-155732206D01*
X82368108Y-155713500D01*
X82372488Y-155711268D01*
X82372489Y-155711268D01*
X82440302Y-155676715D01*
X82474655Y-155659211D01*
X82559211Y-155574655D01*
X82613500Y-155468108D01*
X82616592Y-155448583D01*
X83582794Y-155448583D01*
X83601500Y-155566691D01*
X83603732Y-155571071D01*
X83603732Y-155571072D01*
X83621394Y-155605734D01*
X83655789Y-155673238D01*
X83740345Y-155757794D01*
X83744724Y-155760025D01*
X83842511Y-155809851D01*
X83842512Y-155809851D01*
X83846892Y-155812083D01*
X83965000Y-155830789D01*
X84083108Y-155812083D01*
X84087488Y-155809851D01*
X84087489Y-155809851D01*
X84185276Y-155760025D01*
X84189655Y-155757794D01*
X84197449Y-155750000D01*
X86167794Y-155750000D01*
X86186500Y-155868108D01*
X86188732Y-155872488D01*
X86188732Y-155872489D01*
X86207529Y-155909380D01*
X86240789Y-155974655D01*
X86325345Y-156059211D01*
X86329724Y-156061442D01*
X86427511Y-156111268D01*
X86427512Y-156111268D01*
X86431892Y-156113500D01*
X86550000Y-156132206D01*
X86668108Y-156113500D01*
X86672488Y-156111268D01*
X86672489Y-156111268D01*
X86770276Y-156061442D01*
X86774655Y-156059211D01*
X86859211Y-155974655D01*
X86892471Y-155909380D01*
X86911268Y-155872489D01*
X86911268Y-155872488D01*
X86913500Y-155868108D01*
X86932206Y-155750000D01*
X86913500Y-155631892D01*
X86859211Y-155525345D01*
X86774655Y-155440789D01*
X86689049Y-155397170D01*
X86672489Y-155388732D01*
X86672488Y-155388732D01*
X86668108Y-155386500D01*
X86550000Y-155367794D01*
X86431892Y-155386500D01*
X86427512Y-155388732D01*
X86427511Y-155388732D01*
X86410951Y-155397170D01*
X86325345Y-155440789D01*
X86240789Y-155525345D01*
X86186500Y-155631892D01*
X86167794Y-155750000D01*
X84197449Y-155750000D01*
X84274211Y-155673238D01*
X84308606Y-155605734D01*
X84326268Y-155571072D01*
X84326268Y-155571071D01*
X84328500Y-155566691D01*
X84347206Y-155448583D01*
X84328500Y-155330475D01*
X84312972Y-155300000D01*
X85267794Y-155300000D01*
X85286500Y-155418108D01*
X85340789Y-155524655D01*
X85425345Y-155609211D01*
X85476722Y-155635389D01*
X85527511Y-155661268D01*
X85527512Y-155661268D01*
X85531892Y-155663500D01*
X85650000Y-155682206D01*
X85768108Y-155663500D01*
X85772488Y-155661268D01*
X85772489Y-155661268D01*
X85823278Y-155635389D01*
X85874655Y-155609211D01*
X85959211Y-155524655D01*
X86013500Y-155418108D01*
X86032206Y-155300000D01*
X86013500Y-155181892D01*
X85959211Y-155075345D01*
X85874655Y-154990789D01*
X85856005Y-154981286D01*
X92017866Y-154981286D01*
X92021321Y-155022425D01*
X92030954Y-155137141D01*
X92033907Y-155172311D01*
X92086746Y-155356583D01*
X92174370Y-155527082D01*
X92293443Y-155677314D01*
X92295773Y-155679297D01*
X92298288Y-155681437D01*
X92439428Y-155801557D01*
X92442092Y-155803046D01*
X92442095Y-155803048D01*
X92558506Y-155868108D01*
X92606765Y-155895079D01*
X92609669Y-155896023D01*
X92609670Y-155896023D01*
X92786168Y-155953371D01*
X92786173Y-155953372D01*
X92789081Y-155954317D01*
X92979430Y-155977015D01*
X92982472Y-155976781D01*
X92982475Y-155976781D01*
X93167514Y-155962543D01*
X93167519Y-155962542D01*
X93170562Y-155962308D01*
X93199182Y-155954317D01*
X93352260Y-155911577D01*
X93352264Y-155911576D01*
X93355199Y-155910756D01*
X93449241Y-155863252D01*
X93523585Y-155825698D01*
X93526305Y-155824324D01*
X93528703Y-155822451D01*
X93528707Y-155822448D01*
X93608604Y-155760025D01*
X93677365Y-155706303D01*
X93714312Y-155663500D01*
X93800630Y-155563500D01*
X93800634Y-155563495D01*
X93802624Y-155561189D01*
X93804132Y-155558535D01*
X93895801Y-155397170D01*
X93895803Y-155397165D01*
X93897312Y-155394509D01*
X93957821Y-155212612D01*
X93961089Y-155186748D01*
X93981627Y-155024167D01*
X93981627Y-155024166D01*
X93981847Y-155022425D01*
X93982230Y-154995000D01*
X93981818Y-154990789D01*
X93963822Y-154807257D01*
X93963524Y-154804217D01*
X93908117Y-154620701D01*
X93850023Y-154511442D01*
X93819555Y-154454140D01*
X93819553Y-154454137D01*
X93818120Y-154451442D01*
X93696962Y-154302887D01*
X93572593Y-154200000D01*
X100317794Y-154200000D01*
X100336500Y-154318108D01*
X100338732Y-154322488D01*
X100338732Y-154322489D01*
X100348937Y-154342517D01*
X100390789Y-154424655D01*
X100475345Y-154509211D01*
X100479724Y-154511442D01*
X100577511Y-154561268D01*
X100577512Y-154561268D01*
X100581892Y-154563500D01*
X100700000Y-154582206D01*
X100818108Y-154563500D01*
X100822488Y-154561268D01*
X100822489Y-154561268D01*
X100920276Y-154511442D01*
X100924655Y-154509211D01*
X101009211Y-154424655D01*
X101051063Y-154342517D01*
X101061268Y-154322489D01*
X101061268Y-154322488D01*
X101063500Y-154318108D01*
X101082206Y-154200000D01*
X101063500Y-154081892D01*
X101054003Y-154063252D01*
X101011442Y-153979724D01*
X101009211Y-153975345D01*
X100924655Y-153890789D01*
X100828082Y-153841582D01*
X100822489Y-153838732D01*
X100822488Y-153838732D01*
X100818108Y-153836500D01*
X100813252Y-153835731D01*
X100809282Y-153834441D01*
X100772908Y-153803374D01*
X100769155Y-153755686D01*
X100800222Y-153719312D01*
X100809282Y-153715559D01*
X100813252Y-153714269D01*
X100818108Y-153713500D01*
X100822488Y-153711268D01*
X100822489Y-153711268D01*
X100920276Y-153661442D01*
X100924655Y-153659211D01*
X101009211Y-153574655D01*
X101063500Y-153468108D01*
X101082206Y-153350000D01*
X101063500Y-153231892D01*
X101009211Y-153125345D01*
X100924655Y-153040789D01*
X100873278Y-153014611D01*
X100822489Y-152988732D01*
X100822488Y-152988732D01*
X100818108Y-152986500D01*
X100700000Y-152967794D01*
X100581892Y-152986500D01*
X100577512Y-152988732D01*
X100577511Y-152988732D01*
X100526722Y-153014611D01*
X100475345Y-153040789D01*
X100390789Y-153125345D01*
X100336500Y-153231892D01*
X100317794Y-153350000D01*
X100336500Y-153468108D01*
X100390789Y-153574655D01*
X100475345Y-153659211D01*
X100479724Y-153661442D01*
X100577511Y-153711268D01*
X100577512Y-153711268D01*
X100581892Y-153713500D01*
X100586748Y-153714269D01*
X100590718Y-153715559D01*
X100627092Y-153746626D01*
X100630845Y-153794314D01*
X100599778Y-153830688D01*
X100590718Y-153834441D01*
X100586748Y-153835731D01*
X100581892Y-153836500D01*
X100577512Y-153838732D01*
X100577511Y-153838732D01*
X100571918Y-153841582D01*
X100475345Y-153890789D01*
X100390789Y-153975345D01*
X100388558Y-153979724D01*
X100345998Y-154063252D01*
X100336500Y-154081892D01*
X100317794Y-154200000D01*
X93572593Y-154200000D01*
X93549256Y-154180694D01*
X93380629Y-154089518D01*
X93295777Y-154063252D01*
X93200420Y-154033734D01*
X93200417Y-154033733D01*
X93197505Y-154032832D01*
X93194472Y-154032513D01*
X93194471Y-154032513D01*
X93146787Y-154027501D01*
X93006857Y-154012794D01*
X93003824Y-154013070D01*
X93003820Y-154013070D01*
X92921118Y-154020597D01*
X92815948Y-154030168D01*
X92632050Y-154084292D01*
X92462167Y-154173105D01*
X92312770Y-154293223D01*
X92189549Y-154440072D01*
X92153451Y-154505734D01*
X92124723Y-154557991D01*
X92097198Y-154608058D01*
X92039234Y-154790783D01*
X92038894Y-154793815D01*
X92024988Y-154917794D01*
X92017866Y-154981286D01*
X85856005Y-154981286D01*
X85773003Y-154938994D01*
X85772489Y-154938732D01*
X85772488Y-154938732D01*
X85768108Y-154936500D01*
X85650000Y-154917794D01*
X85531892Y-154936500D01*
X85527512Y-154938732D01*
X85527511Y-154938732D01*
X85526997Y-154938994D01*
X85425345Y-154990789D01*
X85340789Y-155075345D01*
X85286500Y-155181892D01*
X85267794Y-155300000D01*
X84312972Y-155300000D01*
X84274211Y-155223928D01*
X84189655Y-155139372D01*
X84138278Y-155113194D01*
X84087489Y-155087315D01*
X84087488Y-155087315D01*
X84083108Y-155085083D01*
X83965000Y-155066377D01*
X83846892Y-155085083D01*
X83842512Y-155087315D01*
X83842511Y-155087315D01*
X83791722Y-155113194D01*
X83740345Y-155139372D01*
X83655789Y-155223928D01*
X83601500Y-155330475D01*
X83582794Y-155448583D01*
X82616592Y-155448583D01*
X82632206Y-155350000D01*
X82613500Y-155231892D01*
X82607671Y-155220451D01*
X82561442Y-155129724D01*
X82559211Y-155125345D01*
X82474655Y-155040789D01*
X82384790Y-154995000D01*
X82372489Y-154988732D01*
X82372488Y-154988732D01*
X82368108Y-154986500D01*
X82250000Y-154967794D01*
X82131892Y-154986500D01*
X82127512Y-154988732D01*
X82127511Y-154988732D01*
X82115210Y-154995000D01*
X82025345Y-155040789D01*
X81940789Y-155125345D01*
X81938558Y-155129724D01*
X81892330Y-155220451D01*
X81886500Y-155231892D01*
X81867794Y-155350000D01*
X72822828Y-155350000D01*
X72764975Y-155239336D01*
X72761645Y-155234248D01*
X72638536Y-155081132D01*
X72634281Y-155076788D01*
X72483781Y-154950503D01*
X72478751Y-154947059D01*
X72306591Y-154852412D01*
X72300994Y-154850014D01*
X72113727Y-154790610D01*
X72107773Y-154789344D01*
X71954886Y-154772195D01*
X71951408Y-154772000D01*
X71736431Y-154772000D01*
X71727641Y-154775641D01*
X71724000Y-154784431D01*
X71724000Y-155538569D01*
X71216000Y-155538569D01*
X71216000Y-154784431D01*
X71212359Y-154775641D01*
X71203569Y-154772000D01*
X70995563Y-154772000D01*
X70992503Y-154772150D01*
X70846426Y-154786473D01*
X70840461Y-154787654D01*
X70652372Y-154844441D01*
X70646753Y-154846757D01*
X70473279Y-154938994D01*
X70468214Y-154942360D01*
X70352502Y-155036732D01*
X70306684Y-155050478D01*
X70264566Y-155027800D01*
X70250500Y-154988298D01*
X70250500Y-153950000D01*
X73467794Y-153950000D01*
X73486500Y-154068108D01*
X73488732Y-154072488D01*
X73488732Y-154072489D01*
X73512285Y-154118713D01*
X73540789Y-154174655D01*
X73625345Y-154259211D01*
X73676722Y-154285389D01*
X73727511Y-154311268D01*
X73727512Y-154311268D01*
X73731892Y-154313500D01*
X73850000Y-154332206D01*
X73968108Y-154313500D01*
X73972488Y-154311268D01*
X73972489Y-154311268D01*
X74023278Y-154285389D01*
X74074655Y-154259211D01*
X74159211Y-154174655D01*
X74187715Y-154118713D01*
X74211268Y-154072489D01*
X74211268Y-154072488D01*
X74213500Y-154068108D01*
X74232206Y-153950000D01*
X74213500Y-153831892D01*
X74159211Y-153725345D01*
X74074655Y-153640789D01*
X74023278Y-153614611D01*
X73972489Y-153588732D01*
X73972488Y-153588732D01*
X73968108Y-153586500D01*
X73850000Y-153567794D01*
X73731892Y-153586500D01*
X73727512Y-153588732D01*
X73727511Y-153588732D01*
X73676722Y-153614611D01*
X73625345Y-153640789D01*
X73540789Y-153725345D01*
X73486500Y-153831892D01*
X73467794Y-153950000D01*
X70250500Y-153950000D01*
X70250500Y-153487051D01*
X79026924Y-153487051D01*
X79059139Y-153629994D01*
X79060664Y-153634861D01*
X79142747Y-153837008D01*
X79145057Y-153841582D01*
X79259051Y-154027602D01*
X79262072Y-154031731D01*
X79404917Y-154196635D01*
X79408580Y-154200222D01*
X79576437Y-154339580D01*
X79580631Y-154342517D01*
X79768999Y-154452590D01*
X79773615Y-154454802D01*
X79977442Y-154532635D01*
X79982343Y-154534059D01*
X80093817Y-154556738D01*
X80103158Y-154554923D01*
X80106000Y-154550709D01*
X80106000Y-154549201D01*
X80614000Y-154549201D01*
X80617641Y-154557991D01*
X80623495Y-154560416D01*
X80640762Y-154558204D01*
X80645772Y-154557139D01*
X80854749Y-154494443D01*
X80859499Y-154492581D01*
X81055436Y-154396592D01*
X81059824Y-154393976D01*
X81237449Y-154267278D01*
X81241352Y-154263980D01*
X81395897Y-154109973D01*
X81399210Y-154106080D01*
X81412519Y-154087558D01*
X81922500Y-154087558D01*
X81929898Y-154124748D01*
X81958078Y-154166922D01*
X82000252Y-154195102D01*
X82006285Y-154196302D01*
X82006287Y-154196303D01*
X82024874Y-154200000D01*
X82037442Y-154202500D01*
X83762558Y-154202500D01*
X83775126Y-154200000D01*
X83793713Y-154196303D01*
X83793715Y-154196302D01*
X83799748Y-154195102D01*
X83841922Y-154166922D01*
X83870102Y-154124748D01*
X83877500Y-154087558D01*
X83877500Y-153487051D01*
X84826924Y-153487051D01*
X84859139Y-153629994D01*
X84860664Y-153634861D01*
X84942747Y-153837008D01*
X84945057Y-153841582D01*
X85059051Y-154027602D01*
X85062072Y-154031731D01*
X85204917Y-154196635D01*
X85208580Y-154200222D01*
X85376437Y-154339580D01*
X85380631Y-154342517D01*
X85568999Y-154452590D01*
X85573615Y-154454802D01*
X85777442Y-154532635D01*
X85782343Y-154534059D01*
X85893817Y-154556738D01*
X85903158Y-154554923D01*
X85906000Y-154550709D01*
X85906000Y-154549201D01*
X86414000Y-154549201D01*
X86417641Y-154557991D01*
X86423495Y-154560416D01*
X86440762Y-154558204D01*
X86445772Y-154557139D01*
X86654749Y-154494443D01*
X86659499Y-154492581D01*
X86855436Y-154396592D01*
X86859824Y-154393976D01*
X87037449Y-154267278D01*
X87041352Y-154263980D01*
X87195897Y-154109973D01*
X87199210Y-154106080D01*
X87212519Y-154087558D01*
X87722500Y-154087558D01*
X87729898Y-154124748D01*
X87758078Y-154166922D01*
X87800252Y-154195102D01*
X87806285Y-154196302D01*
X87806287Y-154196303D01*
X87824874Y-154200000D01*
X87837442Y-154202500D01*
X89562558Y-154202500D01*
X89575126Y-154200000D01*
X89593713Y-154196303D01*
X89593715Y-154196302D01*
X89599748Y-154195102D01*
X89641922Y-154166922D01*
X89670102Y-154124748D01*
X89677500Y-154087558D01*
X89677500Y-152450000D01*
X100317794Y-152450000D01*
X100336500Y-152568108D01*
X100338732Y-152572488D01*
X100338732Y-152572489D01*
X100364611Y-152623278D01*
X100390789Y-152674655D01*
X100475345Y-152759211D01*
X100479724Y-152761442D01*
X100577511Y-152811268D01*
X100577512Y-152811268D01*
X100581892Y-152813500D01*
X100700000Y-152832206D01*
X100818108Y-152813500D01*
X100822488Y-152811268D01*
X100822489Y-152811268D01*
X100920276Y-152761442D01*
X100924655Y-152759211D01*
X101009211Y-152674655D01*
X101035389Y-152623278D01*
X101061268Y-152572489D01*
X101061268Y-152572488D01*
X101063500Y-152568108D01*
X101082206Y-152450000D01*
X101063500Y-152331892D01*
X101009211Y-152225345D01*
X100924655Y-152140789D01*
X100822577Y-152088777D01*
X100822489Y-152088732D01*
X100822488Y-152088732D01*
X100818108Y-152086500D01*
X100700000Y-152067794D01*
X100581892Y-152086500D01*
X100577512Y-152088732D01*
X100577511Y-152088732D01*
X100577423Y-152088777D01*
X100475345Y-152140789D01*
X100390789Y-152225345D01*
X100336500Y-152331892D01*
X100317794Y-152450000D01*
X89677500Y-152450000D01*
X89677500Y-152362442D01*
X89670102Y-152325252D01*
X89641922Y-152283078D01*
X89599748Y-152254898D01*
X89593715Y-152253698D01*
X89593713Y-152253697D01*
X89565569Y-152248099D01*
X89562558Y-152247500D01*
X87837442Y-152247500D01*
X87834431Y-152248099D01*
X87806287Y-152253697D01*
X87806285Y-152253698D01*
X87800252Y-152254898D01*
X87758078Y-152283078D01*
X87729898Y-152325252D01*
X87722500Y-152362442D01*
X87722500Y-154087558D01*
X87212519Y-154087558D01*
X87326522Y-153928906D01*
X87329161Y-153924515D01*
X87425825Y-153728930D01*
X87427710Y-153724170D01*
X87491136Y-153515413D01*
X87492215Y-153510420D01*
X87494728Y-153491326D01*
X87492266Y-153482135D01*
X87486835Y-153479000D01*
X86426431Y-153479000D01*
X86417641Y-153482641D01*
X86414000Y-153491431D01*
X86414000Y-154549201D01*
X85906000Y-154549201D01*
X85906000Y-153491431D01*
X85902359Y-153482641D01*
X85893569Y-153479000D01*
X84837541Y-153479000D01*
X84828751Y-153482641D01*
X84826924Y-153487051D01*
X83877500Y-153487051D01*
X83877500Y-152961924D01*
X84823628Y-152961924D01*
X84825347Y-152967767D01*
X84831274Y-152971000D01*
X85893569Y-152971000D01*
X85902359Y-152967359D01*
X85906000Y-152958569D01*
X86414000Y-152958569D01*
X86417641Y-152967359D01*
X86426431Y-152971000D01*
X87484028Y-152971000D01*
X87492818Y-152967359D01*
X87494515Y-152963261D01*
X87450580Y-152788350D01*
X87448932Y-152783510D01*
X87361937Y-152583435D01*
X87359514Y-152578917D01*
X87241013Y-152395741D01*
X87237889Y-152391684D01*
X87091057Y-152230318D01*
X87087314Y-152226827D01*
X86916091Y-152091605D01*
X86911834Y-152088777D01*
X86720831Y-151983337D01*
X86716166Y-151981240D01*
X86510503Y-151908411D01*
X86505555Y-151907103D01*
X86426239Y-151892975D01*
X86416947Y-151895018D01*
X86414000Y-151899626D01*
X86414000Y-152958569D01*
X85906000Y-152958569D01*
X85906000Y-151902418D01*
X85902359Y-151893628D01*
X85896922Y-151891376D01*
X85846745Y-151899055D01*
X85841766Y-151900241D01*
X85634394Y-151968020D01*
X85629669Y-151970006D01*
X85436153Y-152070744D01*
X85431819Y-152073474D01*
X85257348Y-152204471D01*
X85253527Y-152207863D01*
X85102793Y-152365598D01*
X85099572Y-152369575D01*
X84976629Y-152549802D01*
X84974096Y-152554261D01*
X84882240Y-152752149D01*
X84880473Y-152756950D01*
X84823628Y-152961924D01*
X83877500Y-152961924D01*
X83877500Y-152362442D01*
X83870102Y-152325252D01*
X83841922Y-152283078D01*
X83799748Y-152254898D01*
X83793715Y-152253698D01*
X83793713Y-152253697D01*
X83765569Y-152248099D01*
X83762558Y-152247500D01*
X82037442Y-152247500D01*
X82034431Y-152248099D01*
X82006287Y-152253697D01*
X82006285Y-152253698D01*
X82000252Y-152254898D01*
X81958078Y-152283078D01*
X81929898Y-152325252D01*
X81922500Y-152362442D01*
X81922500Y-154087558D01*
X81412519Y-154087558D01*
X81526522Y-153928906D01*
X81529161Y-153924515D01*
X81625825Y-153728930D01*
X81627710Y-153724170D01*
X81691136Y-153515413D01*
X81692215Y-153510420D01*
X81694728Y-153491326D01*
X81692266Y-153482135D01*
X81686835Y-153479000D01*
X80626431Y-153479000D01*
X80617641Y-153482641D01*
X80614000Y-153491431D01*
X80614000Y-154549201D01*
X80106000Y-154549201D01*
X80106000Y-153491431D01*
X80102359Y-153482641D01*
X80093569Y-153479000D01*
X79037541Y-153479000D01*
X79028751Y-153482641D01*
X79026924Y-153487051D01*
X70250500Y-153487051D01*
X70250500Y-152961924D01*
X79023628Y-152961924D01*
X79025347Y-152967767D01*
X79031274Y-152971000D01*
X80093569Y-152971000D01*
X80102359Y-152967359D01*
X80106000Y-152958569D01*
X80614000Y-152958569D01*
X80617641Y-152967359D01*
X80626431Y-152971000D01*
X81684028Y-152971000D01*
X81692818Y-152967359D01*
X81694515Y-152963261D01*
X81650580Y-152788350D01*
X81648932Y-152783510D01*
X81561937Y-152583435D01*
X81559514Y-152578917D01*
X81441013Y-152395741D01*
X81437889Y-152391684D01*
X81291057Y-152230318D01*
X81287314Y-152226827D01*
X81116091Y-152091605D01*
X81111834Y-152088777D01*
X80920831Y-151983337D01*
X80916166Y-151981240D01*
X80710503Y-151908411D01*
X80705555Y-151907103D01*
X80626239Y-151892975D01*
X80616947Y-151895018D01*
X80614000Y-151899626D01*
X80614000Y-152958569D01*
X80106000Y-152958569D01*
X80106000Y-151902418D01*
X80102359Y-151893628D01*
X80096922Y-151891376D01*
X80046745Y-151899055D01*
X80041766Y-151900241D01*
X79834394Y-151968020D01*
X79829669Y-151970006D01*
X79636153Y-152070744D01*
X79631819Y-152073474D01*
X79457348Y-152204471D01*
X79453527Y-152207863D01*
X79302793Y-152365598D01*
X79299572Y-152369575D01*
X79176629Y-152549802D01*
X79174096Y-152554261D01*
X79082240Y-152752149D01*
X79080473Y-152756950D01*
X79023628Y-152961924D01*
X70250500Y-152961924D01*
X70250500Y-151600000D01*
X99867794Y-151600000D01*
X99886500Y-151718108D01*
X99940789Y-151824655D01*
X100025345Y-151909211D01*
X100029724Y-151911442D01*
X100127511Y-151961268D01*
X100127512Y-151961268D01*
X100131892Y-151963500D01*
X100250000Y-151982206D01*
X100368108Y-151963500D01*
X100372488Y-151961268D01*
X100372489Y-151961268D01*
X100470276Y-151911442D01*
X100474655Y-151909211D01*
X100559211Y-151824655D01*
X100613500Y-151718108D01*
X100632206Y-151600000D01*
X100613500Y-151481892D01*
X100559211Y-151375345D01*
X100474655Y-151290789D01*
X100423278Y-151264611D01*
X100372489Y-151238732D01*
X100372488Y-151238732D01*
X100368108Y-151236500D01*
X100250000Y-151217794D01*
X100131892Y-151236500D01*
X100127512Y-151238732D01*
X100127511Y-151238732D01*
X100076722Y-151264611D01*
X100025345Y-151290789D01*
X99940789Y-151375345D01*
X99886500Y-151481892D01*
X99867794Y-151600000D01*
X70250500Y-151600000D01*
X70250500Y-150500000D01*
X97567794Y-150500000D01*
X97586500Y-150618108D01*
X97640789Y-150724655D01*
X97725345Y-150809211D01*
X97729724Y-150811442D01*
X97827511Y-150861268D01*
X97827512Y-150861268D01*
X97831892Y-150863500D01*
X97950000Y-150882206D01*
X98068108Y-150863500D01*
X98072488Y-150861268D01*
X98072489Y-150861268D01*
X98170276Y-150811442D01*
X98174655Y-150809211D01*
X98259211Y-150724655D01*
X98269312Y-150704831D01*
X98305687Y-150673765D01*
X98353375Y-150677518D01*
X98380688Y-150704831D01*
X98390789Y-150724655D01*
X98475345Y-150809211D01*
X98479724Y-150811442D01*
X98577511Y-150861268D01*
X98577512Y-150861268D01*
X98581892Y-150863500D01*
X98700000Y-150882206D01*
X98818108Y-150863500D01*
X98822488Y-150861268D01*
X98822489Y-150861268D01*
X98920276Y-150811442D01*
X98924655Y-150809211D01*
X99009211Y-150724655D01*
X99019312Y-150704831D01*
X99055687Y-150673765D01*
X99103375Y-150677518D01*
X99130688Y-150704831D01*
X99140789Y-150724655D01*
X99225345Y-150809211D01*
X99229724Y-150811442D01*
X99327511Y-150861268D01*
X99327512Y-150861268D01*
X99331892Y-150863500D01*
X99450000Y-150882206D01*
X99568108Y-150863500D01*
X99572488Y-150861268D01*
X99572489Y-150861268D01*
X99670276Y-150811442D01*
X99674655Y-150809211D01*
X99759211Y-150724655D01*
X99794312Y-150655766D01*
X99830687Y-150624700D01*
X99878375Y-150628453D01*
X99905688Y-150655766D01*
X99940789Y-150724655D01*
X100025345Y-150809211D01*
X100029724Y-150811442D01*
X100127511Y-150861268D01*
X100127512Y-150861268D01*
X100131892Y-150863500D01*
X100250000Y-150882206D01*
X100368108Y-150863500D01*
X100372488Y-150861268D01*
X100372489Y-150861268D01*
X100470276Y-150811442D01*
X100474655Y-150809211D01*
X100559211Y-150724655D01*
X100613500Y-150618108D01*
X100632206Y-150500000D01*
X100613500Y-150381892D01*
X100559211Y-150275345D01*
X100474655Y-150190789D01*
X100423278Y-150164611D01*
X100372489Y-150138732D01*
X100372488Y-150138732D01*
X100368108Y-150136500D01*
X100250000Y-150117794D01*
X100131892Y-150136500D01*
X100127512Y-150138732D01*
X100127511Y-150138732D01*
X100076722Y-150164611D01*
X100025345Y-150190789D01*
X99940789Y-150275345D01*
X99938558Y-150279724D01*
X99905688Y-150344234D01*
X99869313Y-150375300D01*
X99821625Y-150371547D01*
X99794312Y-150344234D01*
X99761442Y-150279724D01*
X99759211Y-150275345D01*
X99674655Y-150190789D01*
X99623278Y-150164611D01*
X99572489Y-150138732D01*
X99572488Y-150138732D01*
X99568108Y-150136500D01*
X99450000Y-150117794D01*
X99331892Y-150136500D01*
X99327512Y-150138732D01*
X99327511Y-150138732D01*
X99276722Y-150164611D01*
X99225345Y-150190789D01*
X99140789Y-150275345D01*
X99138558Y-150279724D01*
X99130688Y-150295169D01*
X99094313Y-150326235D01*
X99046625Y-150322482D01*
X99019312Y-150295169D01*
X99011442Y-150279724D01*
X99009211Y-150275345D01*
X98924655Y-150190789D01*
X98873278Y-150164611D01*
X98822489Y-150138732D01*
X98822488Y-150138732D01*
X98818108Y-150136500D01*
X98700000Y-150117794D01*
X98581892Y-150136500D01*
X98577512Y-150138732D01*
X98577511Y-150138732D01*
X98526722Y-150164611D01*
X98475345Y-150190789D01*
X98390789Y-150275345D01*
X98388558Y-150279724D01*
X98380688Y-150295169D01*
X98344313Y-150326235D01*
X98296625Y-150322482D01*
X98269312Y-150295169D01*
X98261442Y-150279724D01*
X98259211Y-150275345D01*
X98174655Y-150190789D01*
X98123278Y-150164611D01*
X98072489Y-150138732D01*
X98072488Y-150138732D01*
X98068108Y-150136500D01*
X97950000Y-150117794D01*
X97831892Y-150136500D01*
X97827512Y-150138732D01*
X97827511Y-150138732D01*
X97776722Y-150164611D01*
X97725345Y-150190789D01*
X97640789Y-150275345D01*
X97586500Y-150381892D01*
X97567794Y-150500000D01*
X70250500Y-150500000D01*
X70250500Y-149650000D01*
X92367794Y-149650000D01*
X92386500Y-149768108D01*
X92440789Y-149874655D01*
X92525345Y-149959211D01*
X92529724Y-149961442D01*
X92627511Y-150011268D01*
X92627512Y-150011268D01*
X92631892Y-150013500D01*
X92750000Y-150032206D01*
X92868108Y-150013500D01*
X92872488Y-150011268D01*
X92872489Y-150011268D01*
X92970276Y-149961442D01*
X92974655Y-149959211D01*
X93059211Y-149874655D01*
X93113500Y-149768108D01*
X93132206Y-149650000D01*
X93113500Y-149531892D01*
X93059211Y-149425345D01*
X92974655Y-149340789D01*
X92920611Y-149313252D01*
X92872489Y-149288732D01*
X92872488Y-149288732D01*
X92868108Y-149286500D01*
X92750000Y-149267794D01*
X92631892Y-149286500D01*
X92627512Y-149288732D01*
X92627511Y-149288732D01*
X92579389Y-149313252D01*
X92525345Y-149340789D01*
X92440789Y-149425345D01*
X92386500Y-149531892D01*
X92367794Y-149650000D01*
X70250500Y-149650000D01*
X70250500Y-149200000D01*
X91067794Y-149200000D01*
X91086500Y-149318108D01*
X91140789Y-149424655D01*
X91225345Y-149509211D01*
X91276722Y-149535389D01*
X91327511Y-149561268D01*
X91327512Y-149561268D01*
X91331892Y-149563500D01*
X91450000Y-149582206D01*
X91568108Y-149563500D01*
X91572488Y-149561268D01*
X91572489Y-149561268D01*
X91623278Y-149535389D01*
X91674655Y-149509211D01*
X91759211Y-149424655D01*
X91813500Y-149318108D01*
X91832206Y-149200000D01*
X91813500Y-149081892D01*
X91759211Y-148975345D01*
X91674655Y-148890789D01*
X91623278Y-148864611D01*
X91572489Y-148838732D01*
X91572488Y-148838732D01*
X91568108Y-148836500D01*
X91450000Y-148817794D01*
X91331892Y-148836500D01*
X91327512Y-148838732D01*
X91327511Y-148838732D01*
X91276722Y-148864611D01*
X91225345Y-148890789D01*
X91140789Y-148975345D01*
X91086500Y-149081892D01*
X91067794Y-149200000D01*
X70250500Y-149200000D01*
X70250500Y-148050000D01*
X87767794Y-148050000D01*
X87786500Y-148168108D01*
X87840789Y-148274655D01*
X87925345Y-148359211D01*
X87929724Y-148361442D01*
X88027511Y-148411268D01*
X88027512Y-148411268D01*
X88031892Y-148413500D01*
X88150000Y-148432206D01*
X88268108Y-148413500D01*
X88272488Y-148411268D01*
X88272489Y-148411268D01*
X88370276Y-148361442D01*
X88374655Y-148359211D01*
X88459211Y-148274655D01*
X88513500Y-148168108D01*
X88532206Y-148050000D01*
X88513500Y-147931892D01*
X88459211Y-147825345D01*
X88374655Y-147740789D01*
X88323278Y-147714611D01*
X88272489Y-147688732D01*
X88272488Y-147688732D01*
X88268108Y-147686500D01*
X88150000Y-147667794D01*
X88031892Y-147686500D01*
X88027512Y-147688732D01*
X88027511Y-147688732D01*
X87976722Y-147714611D01*
X87925345Y-147740789D01*
X87840789Y-147825345D01*
X87786500Y-147931892D01*
X87767794Y-148050000D01*
X70250500Y-148050000D01*
X70250500Y-147074647D01*
X70268806Y-147030453D01*
X70313000Y-147012147D01*
X70353175Y-147026770D01*
X70386218Y-147054497D01*
X70391249Y-147057941D01*
X70563409Y-147152588D01*
X70569006Y-147154986D01*
X70756273Y-147214390D01*
X70762227Y-147215656D01*
X70915114Y-147232805D01*
X70918592Y-147233000D01*
X71133569Y-147233000D01*
X71142359Y-147229359D01*
X71146000Y-147220569D01*
X71654000Y-147220569D01*
X71657641Y-147229359D01*
X71666431Y-147233000D01*
X71874437Y-147233000D01*
X71877497Y-147232850D01*
X72023574Y-147218527D01*
X72029539Y-147217346D01*
X72217628Y-147160559D01*
X72223247Y-147158243D01*
X72396721Y-147066006D01*
X72401786Y-147062640D01*
X72554040Y-146938465D01*
X72558358Y-146934177D01*
X72683590Y-146782797D01*
X72686993Y-146777753D01*
X72780440Y-146604925D01*
X72782794Y-146599325D01*
X72824104Y-146465877D01*
X72823224Y-146456402D01*
X72820332Y-146454000D01*
X71666431Y-146454000D01*
X71657641Y-146457641D01*
X71654000Y-146466431D01*
X71654000Y-147220569D01*
X71146000Y-147220569D01*
X71146000Y-146050000D01*
X85567794Y-146050000D01*
X85586500Y-146168108D01*
X85640789Y-146274655D01*
X85725345Y-146359211D01*
X85729724Y-146361442D01*
X85827511Y-146411268D01*
X85827512Y-146411268D01*
X85831892Y-146413500D01*
X85950000Y-146432206D01*
X86068108Y-146413500D01*
X86072488Y-146411268D01*
X86072489Y-146411268D01*
X86170276Y-146361442D01*
X86174655Y-146359211D01*
X86259211Y-146274655D01*
X86313500Y-146168108D01*
X86332206Y-146050000D01*
X86313500Y-145931892D01*
X86259211Y-145825345D01*
X86174655Y-145740789D01*
X86120611Y-145713252D01*
X86072489Y-145688732D01*
X86072488Y-145688732D01*
X86068108Y-145686500D01*
X85950000Y-145667794D01*
X85831892Y-145686500D01*
X85827512Y-145688732D01*
X85827511Y-145688732D01*
X85779389Y-145713252D01*
X85725345Y-145740789D01*
X85640789Y-145825345D01*
X85586500Y-145931892D01*
X85567794Y-146050000D01*
X71146000Y-146050000D01*
X71146000Y-145933569D01*
X71654000Y-145933569D01*
X71657641Y-145942359D01*
X71666431Y-145946000D01*
X72814670Y-145946000D01*
X72823460Y-145942359D01*
X72824962Y-145938732D01*
X72788279Y-145814095D01*
X72785998Y-145808449D01*
X72694975Y-145634336D01*
X72691645Y-145629248D01*
X72668129Y-145600000D01*
X84117794Y-145600000D01*
X84136500Y-145718108D01*
X84190789Y-145824655D01*
X84275345Y-145909211D01*
X84323150Y-145933569D01*
X84377511Y-145961268D01*
X84377512Y-145961268D01*
X84381892Y-145963500D01*
X84500000Y-145982206D01*
X84618108Y-145963500D01*
X84622488Y-145961268D01*
X84622489Y-145961268D01*
X84676850Y-145933569D01*
X84724655Y-145909211D01*
X84809211Y-145824655D01*
X84863500Y-145718108D01*
X84882206Y-145600000D01*
X84863500Y-145481892D01*
X84847250Y-145450000D01*
X91117794Y-145450000D01*
X91136500Y-145568108D01*
X91190789Y-145674655D01*
X91275345Y-145759211D01*
X91279724Y-145761442D01*
X91377511Y-145811268D01*
X91377512Y-145811268D01*
X91381892Y-145813500D01*
X91500000Y-145832206D01*
X91618108Y-145813500D01*
X91622488Y-145811268D01*
X91622489Y-145811268D01*
X91720276Y-145761442D01*
X91724655Y-145759211D01*
X91809211Y-145674655D01*
X91863500Y-145568108D01*
X91882206Y-145450000D01*
X91863500Y-145331892D01*
X91860604Y-145326207D01*
X91811442Y-145229724D01*
X91809211Y-145225345D01*
X91724655Y-145140789D01*
X91673278Y-145114611D01*
X91622489Y-145088732D01*
X91622488Y-145088732D01*
X91618108Y-145086500D01*
X91500000Y-145067794D01*
X91381892Y-145086500D01*
X91377512Y-145088732D01*
X91377511Y-145088732D01*
X91326722Y-145114611D01*
X91275345Y-145140789D01*
X91190789Y-145225345D01*
X91188558Y-145229724D01*
X91139397Y-145326207D01*
X91136500Y-145331892D01*
X91117794Y-145450000D01*
X84847250Y-145450000D01*
X84809211Y-145375345D01*
X84724655Y-145290789D01*
X84639524Y-145247412D01*
X84622489Y-145238732D01*
X84622488Y-145238732D01*
X84618108Y-145236500D01*
X84500000Y-145217794D01*
X84381892Y-145236500D01*
X84377512Y-145238732D01*
X84377511Y-145238732D01*
X84360476Y-145247412D01*
X84275345Y-145290789D01*
X84190789Y-145375345D01*
X84136500Y-145481892D01*
X84117794Y-145600000D01*
X72668129Y-145600000D01*
X72568536Y-145476132D01*
X72564281Y-145471788D01*
X72413781Y-145345503D01*
X72408751Y-145342059D01*
X72236591Y-145247412D01*
X72230994Y-145245014D01*
X72043727Y-145185610D01*
X72037773Y-145184344D01*
X71884886Y-145167195D01*
X71881408Y-145167000D01*
X71666431Y-145167000D01*
X71657641Y-145170641D01*
X71654000Y-145179431D01*
X71654000Y-145933569D01*
X71146000Y-145933569D01*
X71146000Y-145179431D01*
X71142359Y-145170641D01*
X71133569Y-145167000D01*
X70925563Y-145167000D01*
X70922503Y-145167150D01*
X70776426Y-145181473D01*
X70770461Y-145182654D01*
X70582372Y-145239441D01*
X70576753Y-145241757D01*
X70403279Y-145333994D01*
X70398214Y-145337360D01*
X70352502Y-145374641D01*
X70306684Y-145388387D01*
X70264566Y-145365709D01*
X70250500Y-145326207D01*
X70250500Y-144350000D01*
X82067794Y-144350000D01*
X82086500Y-144468108D01*
X82140789Y-144574655D01*
X82225345Y-144659211D01*
X82229724Y-144661442D01*
X82327511Y-144711268D01*
X82327512Y-144711268D01*
X82331892Y-144713500D01*
X82450000Y-144732206D01*
X82568108Y-144713500D01*
X82572488Y-144711268D01*
X82572489Y-144711268D01*
X82670276Y-144661442D01*
X82674655Y-144659211D01*
X82759211Y-144574655D01*
X82813500Y-144468108D01*
X82832206Y-144350000D01*
X82813500Y-144231892D01*
X82759211Y-144125345D01*
X82674655Y-144040789D01*
X82623278Y-144014611D01*
X82572489Y-143988732D01*
X82572488Y-143988732D01*
X82568108Y-143986500D01*
X82450000Y-143967794D01*
X82331892Y-143986500D01*
X82327512Y-143988732D01*
X82327511Y-143988732D01*
X82276722Y-144014611D01*
X82225345Y-144040789D01*
X82140789Y-144125345D01*
X82086500Y-144231892D01*
X82067794Y-144350000D01*
X70250500Y-144350000D01*
X70250500Y-143750000D01*
X99567794Y-143750000D01*
X99586500Y-143868108D01*
X99640789Y-143974655D01*
X99725345Y-144059211D01*
X99729724Y-144061442D01*
X99827511Y-144111268D01*
X99827512Y-144111268D01*
X99831892Y-144113500D01*
X99950000Y-144132206D01*
X100068108Y-144113500D01*
X100072488Y-144111268D01*
X100072489Y-144111268D01*
X100170276Y-144061442D01*
X100174655Y-144059211D01*
X100259211Y-143974655D01*
X100313500Y-143868108D01*
X100332206Y-143750000D01*
X100313500Y-143631892D01*
X100259211Y-143525345D01*
X100174655Y-143440789D01*
X100123278Y-143414611D01*
X100072489Y-143388732D01*
X100072488Y-143388732D01*
X100068108Y-143386500D01*
X99950000Y-143367794D01*
X99831892Y-143386500D01*
X99827512Y-143388732D01*
X99827511Y-143388732D01*
X99776722Y-143414611D01*
X99725345Y-143440789D01*
X99640789Y-143525345D01*
X99586500Y-143631892D01*
X99567794Y-143750000D01*
X70250500Y-143750000D01*
X70250500Y-142626503D01*
X74917794Y-142626503D01*
X74936500Y-142744611D01*
X74990789Y-142851158D01*
X75075345Y-142935714D01*
X75079724Y-142937945D01*
X75177511Y-142987771D01*
X75177512Y-142987771D01*
X75181892Y-142990003D01*
X75300000Y-143008709D01*
X75418108Y-142990003D01*
X75422488Y-142987771D01*
X75422489Y-142987771D01*
X75520276Y-142937945D01*
X75524655Y-142935714D01*
X75609211Y-142851158D01*
X75663500Y-142744611D01*
X75682206Y-142626503D01*
X75663500Y-142508395D01*
X75609211Y-142401848D01*
X75564809Y-142357446D01*
X75546503Y-142313252D01*
X75551992Y-142300000D01*
X96167794Y-142300000D01*
X96186500Y-142418108D01*
X96240789Y-142524655D01*
X96325345Y-142609211D01*
X96376722Y-142635389D01*
X96427511Y-142661268D01*
X96427512Y-142661268D01*
X96431892Y-142663500D01*
X96550000Y-142682206D01*
X96668108Y-142663500D01*
X96672488Y-142661268D01*
X96672489Y-142661268D01*
X96723278Y-142635389D01*
X96774655Y-142609211D01*
X96859211Y-142524655D01*
X96913500Y-142418108D01*
X96929171Y-142319163D01*
X100598631Y-142319163D01*
X100617337Y-142437271D01*
X100671626Y-142543818D01*
X100756182Y-142628374D01*
X100807559Y-142654552D01*
X100858348Y-142680431D01*
X100858349Y-142680431D01*
X100862729Y-142682663D01*
X100980837Y-142701369D01*
X101098945Y-142682663D01*
X101103325Y-142680431D01*
X101103326Y-142680431D01*
X101154115Y-142654552D01*
X101205492Y-142628374D01*
X101290048Y-142543818D01*
X101344337Y-142437271D01*
X101363043Y-142319163D01*
X101344337Y-142201055D01*
X101290048Y-142094508D01*
X101205492Y-142009952D01*
X101154115Y-141983774D01*
X101103326Y-141957895D01*
X101103325Y-141957895D01*
X101098945Y-141955663D01*
X100980837Y-141936957D01*
X100862729Y-141955663D01*
X100858349Y-141957895D01*
X100858348Y-141957895D01*
X100807559Y-141983774D01*
X100756182Y-142009952D01*
X100671626Y-142094508D01*
X100617337Y-142201055D01*
X100598631Y-142319163D01*
X96929171Y-142319163D01*
X96932206Y-142300000D01*
X96913500Y-142181892D01*
X96859211Y-142075345D01*
X96774655Y-141990789D01*
X96704208Y-141954894D01*
X96672489Y-141938732D01*
X96672488Y-141938732D01*
X96668108Y-141936500D01*
X96550000Y-141917794D01*
X96431892Y-141936500D01*
X96427512Y-141938732D01*
X96427511Y-141938732D01*
X96395792Y-141954894D01*
X96325345Y-141990789D01*
X96240789Y-142075345D01*
X96186500Y-142181892D01*
X96167794Y-142300000D01*
X75551992Y-142300000D01*
X75564808Y-142269058D01*
X75609211Y-142224655D01*
X75663500Y-142118108D01*
X75682206Y-142000000D01*
X75663500Y-141881892D01*
X75609211Y-141775345D01*
X75524655Y-141690789D01*
X75473278Y-141664611D01*
X75422489Y-141638732D01*
X75422488Y-141638732D01*
X75418108Y-141636500D01*
X75300000Y-141617794D01*
X75181892Y-141636500D01*
X75177512Y-141638732D01*
X75177511Y-141638732D01*
X75126722Y-141664611D01*
X75075345Y-141690789D01*
X74990789Y-141775345D01*
X74936500Y-141881892D01*
X74917794Y-142000000D01*
X74936500Y-142118108D01*
X74990789Y-142224655D01*
X75035192Y-142269058D01*
X75053498Y-142313252D01*
X75035193Y-142357444D01*
X74990789Y-142401848D01*
X74936500Y-142508395D01*
X74917794Y-142626503D01*
X70250500Y-142626503D01*
X70250500Y-140950000D01*
X74867794Y-140950000D01*
X74886500Y-141068108D01*
X74940789Y-141174655D01*
X75025345Y-141259211D01*
X75029724Y-141261442D01*
X75127511Y-141311268D01*
X75127512Y-141311268D01*
X75131892Y-141313500D01*
X75250000Y-141332206D01*
X75368108Y-141313500D01*
X75372488Y-141311268D01*
X75372489Y-141311268D01*
X75470276Y-141261442D01*
X75474655Y-141259211D01*
X75483866Y-141250000D01*
X98967794Y-141250000D01*
X98986500Y-141368108D01*
X99040789Y-141474655D01*
X99125345Y-141559211D01*
X99129724Y-141561442D01*
X99227511Y-141611268D01*
X99227512Y-141611268D01*
X99231892Y-141613500D01*
X99350000Y-141632206D01*
X99468108Y-141613500D01*
X99472488Y-141611268D01*
X99472489Y-141611268D01*
X99570276Y-141561442D01*
X99574655Y-141559211D01*
X99659211Y-141474655D01*
X99713500Y-141368108D01*
X99732206Y-141250000D01*
X99713500Y-141131892D01*
X99659211Y-141025345D01*
X99574655Y-140940789D01*
X99523278Y-140914611D01*
X99472489Y-140888732D01*
X99472488Y-140888732D01*
X99468108Y-140886500D01*
X99350000Y-140867794D01*
X99231892Y-140886500D01*
X99227512Y-140888732D01*
X99227511Y-140888732D01*
X99176722Y-140914611D01*
X99125345Y-140940789D01*
X99040789Y-141025345D01*
X98986500Y-141131892D01*
X98967794Y-141250000D01*
X75483866Y-141250000D01*
X75559211Y-141174655D01*
X75613500Y-141068108D01*
X75632206Y-140950000D01*
X75613500Y-140831892D01*
X75559211Y-140725345D01*
X75474655Y-140640789D01*
X75420611Y-140613252D01*
X75372489Y-140588732D01*
X75372488Y-140588732D01*
X75368108Y-140586500D01*
X75250000Y-140567794D01*
X75131892Y-140586500D01*
X75127512Y-140588732D01*
X75127511Y-140588732D01*
X75079389Y-140613252D01*
X75025345Y-140640789D01*
X74940789Y-140725345D01*
X74886500Y-140831892D01*
X74867794Y-140950000D01*
X70250500Y-140950000D01*
X70250500Y-140500000D01*
X78267794Y-140500000D01*
X78286500Y-140618108D01*
X78340789Y-140724655D01*
X78425345Y-140809211D01*
X78476722Y-140835389D01*
X78527511Y-140861268D01*
X78527512Y-140861268D01*
X78531892Y-140863500D01*
X78650000Y-140882206D01*
X78768108Y-140863500D01*
X78772488Y-140861268D01*
X78772489Y-140861268D01*
X78823278Y-140835389D01*
X78874655Y-140809211D01*
X78959211Y-140724655D01*
X78997250Y-140650000D01*
X103417794Y-140650000D01*
X103436500Y-140768108D01*
X103490789Y-140874655D01*
X103575345Y-140959211D01*
X103579724Y-140961442D01*
X103677511Y-141011268D01*
X103677512Y-141011268D01*
X103681892Y-141013500D01*
X103800000Y-141032206D01*
X103918108Y-141013500D01*
X103922488Y-141011268D01*
X103922489Y-141011268D01*
X104020276Y-140961442D01*
X104024655Y-140959211D01*
X104109211Y-140874655D01*
X104163500Y-140768108D01*
X104182206Y-140650000D01*
X104163500Y-140531892D01*
X104109211Y-140425345D01*
X104024655Y-140340789D01*
X103973278Y-140314611D01*
X103922489Y-140288732D01*
X103922488Y-140288732D01*
X103918108Y-140286500D01*
X103800000Y-140267794D01*
X103681892Y-140286500D01*
X103677512Y-140288732D01*
X103677511Y-140288732D01*
X103626722Y-140314611D01*
X103575345Y-140340789D01*
X103490789Y-140425345D01*
X103436500Y-140531892D01*
X103417794Y-140650000D01*
X78997250Y-140650000D01*
X79013500Y-140618108D01*
X79032206Y-140500000D01*
X79013500Y-140381892D01*
X78959211Y-140275345D01*
X78953060Y-140269194D01*
X78934754Y-140225000D01*
X78953060Y-140180806D01*
X78959211Y-140174655D01*
X79005912Y-140083000D01*
X79011268Y-140072489D01*
X79011268Y-140072488D01*
X79013500Y-140068108D01*
X79032206Y-139950000D01*
X79013500Y-139831892D01*
X78959211Y-139725345D01*
X78874655Y-139640789D01*
X78823278Y-139614611D01*
X78772489Y-139588732D01*
X78772488Y-139588732D01*
X78768108Y-139586500D01*
X78650000Y-139567794D01*
X78531892Y-139586500D01*
X78527512Y-139588732D01*
X78527511Y-139588732D01*
X78476722Y-139614611D01*
X78425345Y-139640789D01*
X78340789Y-139725345D01*
X78286500Y-139831892D01*
X78267794Y-139950000D01*
X78286500Y-140068108D01*
X78288732Y-140072488D01*
X78288732Y-140072489D01*
X78294088Y-140083000D01*
X78340789Y-140174655D01*
X78346940Y-140180806D01*
X78365246Y-140225000D01*
X78346940Y-140269194D01*
X78340789Y-140275345D01*
X78286500Y-140381892D01*
X78267794Y-140500000D01*
X70250500Y-140500000D01*
X70250500Y-139924647D01*
X70268806Y-139880453D01*
X70313000Y-139862147D01*
X70353175Y-139876770D01*
X70386218Y-139904497D01*
X70391249Y-139907941D01*
X70563409Y-140002588D01*
X70569006Y-140004986D01*
X70756273Y-140064390D01*
X70762227Y-140065656D01*
X70915114Y-140082805D01*
X70918592Y-140083000D01*
X71133569Y-140083000D01*
X71142359Y-140079359D01*
X71146000Y-140070569D01*
X71654000Y-140070569D01*
X71657641Y-140079359D01*
X71666431Y-140083000D01*
X71874437Y-140083000D01*
X71877497Y-140082850D01*
X72023574Y-140068527D01*
X72029539Y-140067346D01*
X72217628Y-140010559D01*
X72223247Y-140008243D01*
X72396721Y-139916006D01*
X72401786Y-139912640D01*
X72554040Y-139788465D01*
X72558358Y-139784177D01*
X72683590Y-139632797D01*
X72686993Y-139627753D01*
X72780440Y-139454925D01*
X72782794Y-139449325D01*
X72824104Y-139315877D01*
X72823224Y-139306402D01*
X72820332Y-139304000D01*
X71666431Y-139304000D01*
X71657641Y-139307641D01*
X71654000Y-139316431D01*
X71654000Y-140070569D01*
X71146000Y-140070569D01*
X71146000Y-138858500D01*
X71164306Y-138814306D01*
X71208500Y-138796000D01*
X72814670Y-138796000D01*
X72823460Y-138792359D01*
X72824962Y-138788732D01*
X72788279Y-138664095D01*
X72785998Y-138658449D01*
X72694975Y-138484336D01*
X72691645Y-138479248D01*
X72568536Y-138326132D01*
X72564281Y-138321788D01*
X72538315Y-138300000D01*
X91617794Y-138300000D01*
X91636500Y-138418108D01*
X91690789Y-138524655D01*
X91775345Y-138609211D01*
X91779724Y-138611442D01*
X91877511Y-138661268D01*
X91877512Y-138661268D01*
X91881892Y-138663500D01*
X92000000Y-138682206D01*
X92118108Y-138663500D01*
X92122488Y-138661268D01*
X92122489Y-138661268D01*
X92220276Y-138611442D01*
X92224655Y-138609211D01*
X92309211Y-138524655D01*
X92363500Y-138418108D01*
X92382206Y-138300000D01*
X92363500Y-138181892D01*
X92352992Y-138161268D01*
X92333149Y-138122326D01*
X92309211Y-138075345D01*
X92224655Y-137990789D01*
X92173278Y-137964611D01*
X92122489Y-137938732D01*
X92122488Y-137938732D01*
X92118108Y-137936500D01*
X92000000Y-137917794D01*
X91881892Y-137936500D01*
X91877512Y-137938732D01*
X91877511Y-137938732D01*
X91826722Y-137964611D01*
X91775345Y-137990789D01*
X91690789Y-138075345D01*
X91666851Y-138122326D01*
X91647009Y-138161268D01*
X91636500Y-138181892D01*
X91617794Y-138300000D01*
X72538315Y-138300000D01*
X72431509Y-138210378D01*
X72409421Y-138167947D01*
X72423805Y-138122326D01*
X72466236Y-138100238D01*
X72471683Y-138100000D01*
X74650000Y-138100000D01*
X74950000Y-137800000D01*
X107217794Y-137800000D01*
X107236500Y-137918108D01*
X107238732Y-137922488D01*
X107238732Y-137922489D01*
X107264611Y-137973278D01*
X107290789Y-138024655D01*
X107375345Y-138109211D01*
X107426722Y-138135389D01*
X107477511Y-138161268D01*
X107477512Y-138161268D01*
X107481892Y-138163500D01*
X107600000Y-138182206D01*
X107718108Y-138163500D01*
X107722488Y-138161268D01*
X107722489Y-138161268D01*
X107773278Y-138135389D01*
X107824655Y-138109211D01*
X107909211Y-138024655D01*
X107935389Y-137973278D01*
X107961268Y-137922489D01*
X107961268Y-137922488D01*
X107963500Y-137918108D01*
X107982206Y-137800000D01*
X108217794Y-137800000D01*
X108236500Y-137918108D01*
X108238732Y-137922488D01*
X108238732Y-137922489D01*
X108264611Y-137973278D01*
X108290789Y-138024655D01*
X108375345Y-138109211D01*
X108426722Y-138135389D01*
X108477511Y-138161268D01*
X108477512Y-138161268D01*
X108481892Y-138163500D01*
X108600000Y-138182206D01*
X108718108Y-138163500D01*
X108722488Y-138161268D01*
X108722489Y-138161268D01*
X108773278Y-138135389D01*
X108824655Y-138109211D01*
X108909211Y-138024655D01*
X108935389Y-137973278D01*
X108961268Y-137922489D01*
X108961268Y-137922488D01*
X108963500Y-137918108D01*
X108982206Y-137800000D01*
X109217794Y-137800000D01*
X109236500Y-137918108D01*
X109238732Y-137922488D01*
X109238732Y-137922489D01*
X109264611Y-137973278D01*
X109290789Y-138024655D01*
X109375345Y-138109211D01*
X109426722Y-138135389D01*
X109477511Y-138161268D01*
X109477512Y-138161268D01*
X109481892Y-138163500D01*
X109600000Y-138182206D01*
X109718108Y-138163500D01*
X109722488Y-138161268D01*
X109722489Y-138161268D01*
X109773278Y-138135389D01*
X109824655Y-138109211D01*
X109909211Y-138024655D01*
X109935389Y-137973278D01*
X109961268Y-137922489D01*
X109961268Y-137922488D01*
X109963500Y-137918108D01*
X109982206Y-137800000D01*
X110217794Y-137800000D01*
X110236500Y-137918108D01*
X110238732Y-137922488D01*
X110238732Y-137922489D01*
X110264611Y-137973278D01*
X110290789Y-138024655D01*
X110375345Y-138109211D01*
X110426722Y-138135389D01*
X110477511Y-138161268D01*
X110477512Y-138161268D01*
X110481892Y-138163500D01*
X110600000Y-138182206D01*
X110718108Y-138163500D01*
X110722488Y-138161268D01*
X110722489Y-138161268D01*
X110773278Y-138135389D01*
X110824655Y-138109211D01*
X110909211Y-138024655D01*
X110935389Y-137973278D01*
X110961268Y-137922489D01*
X110961268Y-137922488D01*
X110963500Y-137918108D01*
X110982206Y-137800000D01*
X111117794Y-137800000D01*
X111136500Y-137918108D01*
X111138732Y-137922488D01*
X111138732Y-137922489D01*
X111164611Y-137973278D01*
X111190789Y-138024655D01*
X111275345Y-138109211D01*
X111326722Y-138135389D01*
X111377511Y-138161268D01*
X111377512Y-138161268D01*
X111381892Y-138163500D01*
X111500000Y-138182206D01*
X111618108Y-138163500D01*
X111622488Y-138161268D01*
X111622489Y-138161268D01*
X111673278Y-138135389D01*
X111724655Y-138109211D01*
X111809211Y-138024655D01*
X111835389Y-137973278D01*
X111861268Y-137922489D01*
X111861268Y-137922488D01*
X111863500Y-137918108D01*
X111882206Y-137800000D01*
X111863500Y-137681892D01*
X111809211Y-137575345D01*
X111724655Y-137490789D01*
X111673278Y-137464611D01*
X111622489Y-137438732D01*
X111622488Y-137438732D01*
X111618108Y-137436500D01*
X111500000Y-137417794D01*
X111381892Y-137436500D01*
X111377512Y-137438732D01*
X111377511Y-137438732D01*
X111326722Y-137464611D01*
X111275345Y-137490789D01*
X111190789Y-137575345D01*
X111136500Y-137681892D01*
X111117794Y-137800000D01*
X110982206Y-137800000D01*
X110963500Y-137681892D01*
X110909211Y-137575345D01*
X110824655Y-137490789D01*
X110773278Y-137464611D01*
X110722489Y-137438732D01*
X110722488Y-137438732D01*
X110718108Y-137436500D01*
X110600000Y-137417794D01*
X110481892Y-137436500D01*
X110477512Y-137438732D01*
X110477511Y-137438732D01*
X110426722Y-137464611D01*
X110375345Y-137490789D01*
X110290789Y-137575345D01*
X110236500Y-137681892D01*
X110217794Y-137800000D01*
X109982206Y-137800000D01*
X109963500Y-137681892D01*
X109909211Y-137575345D01*
X109824655Y-137490789D01*
X109773278Y-137464611D01*
X109722489Y-137438732D01*
X109722488Y-137438732D01*
X109718108Y-137436500D01*
X109600000Y-137417794D01*
X109481892Y-137436500D01*
X109477512Y-137438732D01*
X109477511Y-137438732D01*
X109426722Y-137464611D01*
X109375345Y-137490789D01*
X109290789Y-137575345D01*
X109236500Y-137681892D01*
X109217794Y-137800000D01*
X108982206Y-137800000D01*
X108963500Y-137681892D01*
X108909211Y-137575345D01*
X108824655Y-137490789D01*
X108773278Y-137464611D01*
X108722489Y-137438732D01*
X108722488Y-137438732D01*
X108718108Y-137436500D01*
X108600000Y-137417794D01*
X108481892Y-137436500D01*
X108477512Y-137438732D01*
X108477511Y-137438732D01*
X108426722Y-137464611D01*
X108375345Y-137490789D01*
X108290789Y-137575345D01*
X108236500Y-137681892D01*
X108217794Y-137800000D01*
X107982206Y-137800000D01*
X107963500Y-137681892D01*
X107909211Y-137575345D01*
X107824655Y-137490789D01*
X107773278Y-137464611D01*
X107722489Y-137438732D01*
X107722488Y-137438732D01*
X107718108Y-137436500D01*
X107600000Y-137417794D01*
X107481892Y-137436500D01*
X107477512Y-137438732D01*
X107477511Y-137438732D01*
X107426722Y-137464611D01*
X107375345Y-137490789D01*
X107290789Y-137575345D01*
X107236500Y-137681892D01*
X107217794Y-137800000D01*
X74950000Y-137800000D01*
X75750000Y-137000000D01*
X92267794Y-137000000D01*
X92286500Y-137118108D01*
X92340789Y-137224655D01*
X92425345Y-137309211D01*
X92429724Y-137311442D01*
X92527511Y-137361268D01*
X92527512Y-137361268D01*
X92531892Y-137363500D01*
X92650000Y-137382206D01*
X92768108Y-137363500D01*
X92772488Y-137361268D01*
X92772489Y-137361268D01*
X92870276Y-137311442D01*
X92874655Y-137309211D01*
X92959211Y-137224655D01*
X93013500Y-137118108D01*
X93032206Y-137000000D01*
X93013500Y-136881892D01*
X92959211Y-136775345D01*
X92874655Y-136690789D01*
X92823278Y-136664611D01*
X92772489Y-136638732D01*
X92772488Y-136638732D01*
X92768108Y-136636500D01*
X92650000Y-136617794D01*
X92531892Y-136636500D01*
X92527512Y-136638732D01*
X92527511Y-136638732D01*
X92476722Y-136664611D01*
X92425345Y-136690789D01*
X92340789Y-136775345D01*
X92286500Y-136881892D01*
X92267794Y-137000000D01*
X75750000Y-137000000D01*
X76400000Y-136350000D01*
X76400000Y-134450000D01*
X78567794Y-134450000D01*
X78586500Y-134568108D01*
X78640789Y-134674655D01*
X78725345Y-134759211D01*
X78776722Y-134785389D01*
X78827511Y-134811268D01*
X78827512Y-134811268D01*
X78831892Y-134813500D01*
X78950000Y-134832206D01*
X79068108Y-134813500D01*
X79072488Y-134811268D01*
X79072489Y-134811268D01*
X79123278Y-134785389D01*
X79174655Y-134759211D01*
X79205806Y-134728060D01*
X79250000Y-134709754D01*
X79294194Y-134728060D01*
X79325345Y-134759211D01*
X79376722Y-134785389D01*
X79427511Y-134811268D01*
X79427512Y-134811268D01*
X79431892Y-134813500D01*
X79550000Y-134832206D01*
X79668108Y-134813500D01*
X79672488Y-134811268D01*
X79672489Y-134811268D01*
X79723278Y-134785389D01*
X79774655Y-134759211D01*
X79859211Y-134674655D01*
X79913500Y-134568108D01*
X79932206Y-134450000D01*
X79913500Y-134331892D01*
X79882675Y-134271396D01*
X100592001Y-134271396D01*
X100592183Y-134274766D01*
X100598325Y-134331310D01*
X100600124Y-134338878D01*
X100648264Y-134467291D01*
X100652499Y-134475026D01*
X100734428Y-134584344D01*
X100740656Y-134590572D01*
X100849974Y-134672501D01*
X100857709Y-134676736D01*
X100986125Y-134724877D01*
X100993689Y-134726675D01*
X101050230Y-134732817D01*
X101053598Y-134733000D01*
X101683569Y-134733000D01*
X101692359Y-134729359D01*
X101696000Y-134720569D01*
X101696000Y-134720568D01*
X102204000Y-134720568D01*
X102207641Y-134729358D01*
X102216431Y-134732999D01*
X102846396Y-134732999D01*
X102849766Y-134732817D01*
X102906310Y-134726675D01*
X102913878Y-134724876D01*
X103042291Y-134676736D01*
X103050026Y-134672501D01*
X103159344Y-134590572D01*
X103165572Y-134584344D01*
X103247501Y-134475026D01*
X103251736Y-134467291D01*
X103299877Y-134338875D01*
X103301675Y-134331311D01*
X103307817Y-134274770D01*
X103308000Y-134271402D01*
X103308000Y-133641431D01*
X103304359Y-133632641D01*
X103295569Y-133629000D01*
X102216431Y-133629000D01*
X102207641Y-133632641D01*
X102204000Y-133641431D01*
X102204000Y-134720568D01*
X101696000Y-134720568D01*
X101696000Y-133641431D01*
X101692359Y-133632641D01*
X101683569Y-133629000D01*
X100604432Y-133629000D01*
X100595642Y-133632641D01*
X100592001Y-133641431D01*
X100592001Y-134271396D01*
X79882675Y-134271396D01*
X79859211Y-134225345D01*
X79774655Y-134140789D01*
X79678702Y-134091898D01*
X79672489Y-134088732D01*
X79672488Y-134088732D01*
X79668108Y-134086500D01*
X79550000Y-134067794D01*
X79431892Y-134086500D01*
X79427512Y-134088732D01*
X79427511Y-134088732D01*
X79421298Y-134091898D01*
X79325345Y-134140789D01*
X79294194Y-134171940D01*
X79250000Y-134190246D01*
X79205806Y-134171940D01*
X79174655Y-134140789D01*
X79078702Y-134091898D01*
X79072489Y-134088732D01*
X79072488Y-134088732D01*
X79068108Y-134086500D01*
X78950000Y-134067794D01*
X78831892Y-134086500D01*
X78827512Y-134088732D01*
X78827511Y-134088732D01*
X78821298Y-134091898D01*
X78725345Y-134140789D01*
X78640789Y-134225345D01*
X78586500Y-134331892D01*
X78567794Y-134450000D01*
X76400000Y-134450000D01*
X76400000Y-133361286D01*
X103507866Y-133361286D01*
X103523907Y-133552311D01*
X103576746Y-133736583D01*
X103664370Y-133907082D01*
X103783443Y-134057314D01*
X103785773Y-134059297D01*
X103796661Y-134068563D01*
X103929428Y-134181557D01*
X103932092Y-134183046D01*
X103932095Y-134183048D01*
X104007777Y-134225345D01*
X104096765Y-134275079D01*
X104099669Y-134276023D01*
X104099670Y-134276023D01*
X104276168Y-134333371D01*
X104276173Y-134333372D01*
X104279081Y-134334317D01*
X104469430Y-134357015D01*
X104472472Y-134356781D01*
X104472475Y-134356781D01*
X104657514Y-134342543D01*
X104657519Y-134342542D01*
X104660562Y-134342308D01*
X104689182Y-134334317D01*
X104842260Y-134291577D01*
X104842264Y-134291576D01*
X104845199Y-134290756D01*
X105016305Y-134204324D01*
X105018703Y-134202451D01*
X105018707Y-134202448D01*
X105100482Y-134138558D01*
X105167365Y-134086303D01*
X105194455Y-134054919D01*
X105290630Y-133943500D01*
X105290634Y-133943495D01*
X105292624Y-133941189D01*
X105313544Y-133904364D01*
X105385801Y-133777170D01*
X105385803Y-133777165D01*
X105387312Y-133774509D01*
X105447821Y-133592612D01*
X105452542Y-133555247D01*
X105471627Y-133404167D01*
X105471627Y-133404166D01*
X105471847Y-133402425D01*
X105472230Y-133375000D01*
X105470886Y-133361286D01*
X106047866Y-133361286D01*
X106063907Y-133552311D01*
X106116746Y-133736583D01*
X106204370Y-133907082D01*
X106323443Y-134057314D01*
X106325773Y-134059297D01*
X106336661Y-134068563D01*
X106469428Y-134181557D01*
X106472092Y-134183046D01*
X106472095Y-134183048D01*
X106547777Y-134225345D01*
X106636765Y-134275079D01*
X106639669Y-134276023D01*
X106639670Y-134276023D01*
X106816168Y-134333371D01*
X106816173Y-134333372D01*
X106819081Y-134334317D01*
X107009430Y-134357015D01*
X107012472Y-134356781D01*
X107012475Y-134356781D01*
X107197514Y-134342543D01*
X107197519Y-134342542D01*
X107200562Y-134342308D01*
X107229182Y-134334317D01*
X107382260Y-134291577D01*
X107382264Y-134291576D01*
X107385199Y-134290756D01*
X107556305Y-134204324D01*
X107558703Y-134202451D01*
X107558707Y-134202448D01*
X107640482Y-134138558D01*
X107707365Y-134086303D01*
X107734455Y-134054919D01*
X107830630Y-133943500D01*
X107830634Y-133943495D01*
X107832624Y-133941189D01*
X107853544Y-133904364D01*
X107925801Y-133777170D01*
X107925803Y-133777165D01*
X107927312Y-133774509D01*
X107987821Y-133592612D01*
X107992542Y-133555247D01*
X108011627Y-133404167D01*
X108011627Y-133404166D01*
X108011847Y-133402425D01*
X108012230Y-133375000D01*
X108010886Y-133361286D01*
X108587866Y-133361286D01*
X108603907Y-133552311D01*
X108656746Y-133736583D01*
X108744370Y-133907082D01*
X108863443Y-134057314D01*
X108865773Y-134059297D01*
X108876661Y-134068563D01*
X109009428Y-134181557D01*
X109012092Y-134183046D01*
X109012095Y-134183048D01*
X109087777Y-134225345D01*
X109176765Y-134275079D01*
X109179669Y-134276023D01*
X109179670Y-134276023D01*
X109356168Y-134333371D01*
X109356173Y-134333372D01*
X109359081Y-134334317D01*
X109549430Y-134357015D01*
X109552472Y-134356781D01*
X109552475Y-134356781D01*
X109737514Y-134342543D01*
X109737519Y-134342542D01*
X109740562Y-134342308D01*
X109769182Y-134334317D01*
X109922260Y-134291577D01*
X109922264Y-134291576D01*
X109925199Y-134290756D01*
X110096305Y-134204324D01*
X110098703Y-134202451D01*
X110098707Y-134202448D01*
X110180482Y-134138558D01*
X110247365Y-134086303D01*
X110274455Y-134054919D01*
X110370630Y-133943500D01*
X110370634Y-133943495D01*
X110372624Y-133941189D01*
X110393544Y-133904364D01*
X110465801Y-133777170D01*
X110465803Y-133777165D01*
X110467312Y-133774509D01*
X110527821Y-133592612D01*
X110532542Y-133555247D01*
X110551627Y-133404167D01*
X110551627Y-133404166D01*
X110551847Y-133402425D01*
X110552230Y-133375000D01*
X110550886Y-133361286D01*
X110533822Y-133187257D01*
X110533524Y-133184217D01*
X110478117Y-133000701D01*
X110388120Y-132831442D01*
X110266962Y-132682887D01*
X110119256Y-132560694D01*
X109950629Y-132469518D01*
X109900189Y-132453904D01*
X109770420Y-132413734D01*
X109770417Y-132413733D01*
X109767505Y-132412832D01*
X109764472Y-132412513D01*
X109764471Y-132412513D01*
X109691019Y-132404793D01*
X109576857Y-132392794D01*
X109573824Y-132393070D01*
X109573820Y-132393070D01*
X109491118Y-132400597D01*
X109385948Y-132410168D01*
X109383019Y-132411030D01*
X109382696Y-132411125D01*
X109202050Y-132464292D01*
X109032167Y-132553105D01*
X108882770Y-132673223D01*
X108759549Y-132820072D01*
X108667198Y-132988058D01*
X108609234Y-133170783D01*
X108608894Y-133173815D01*
X108592831Y-133317025D01*
X108587866Y-133361286D01*
X108010886Y-133361286D01*
X107993822Y-133187257D01*
X107993524Y-133184217D01*
X107938117Y-133000701D01*
X107848120Y-132831442D01*
X107726962Y-132682887D01*
X107579256Y-132560694D01*
X107410629Y-132469518D01*
X107360189Y-132453904D01*
X107230420Y-132413734D01*
X107230417Y-132413733D01*
X107227505Y-132412832D01*
X107224472Y-132412513D01*
X107224471Y-132412513D01*
X107151019Y-132404793D01*
X107036857Y-132392794D01*
X107033824Y-132393070D01*
X107033820Y-132393070D01*
X106951118Y-132400597D01*
X106845948Y-132410168D01*
X106843019Y-132411030D01*
X106842696Y-132411125D01*
X106662050Y-132464292D01*
X106492167Y-132553105D01*
X106342770Y-132673223D01*
X106219549Y-132820072D01*
X106127198Y-132988058D01*
X106069234Y-133170783D01*
X106068894Y-133173815D01*
X106052831Y-133317025D01*
X106047866Y-133361286D01*
X105470886Y-133361286D01*
X105453822Y-133187257D01*
X105453524Y-133184217D01*
X105398117Y-133000701D01*
X105308120Y-132831442D01*
X105186962Y-132682887D01*
X105039256Y-132560694D01*
X104870629Y-132469518D01*
X104820189Y-132453904D01*
X104690420Y-132413734D01*
X104690417Y-132413733D01*
X104687505Y-132412832D01*
X104684472Y-132412513D01*
X104684471Y-132412513D01*
X104611019Y-132404793D01*
X104496857Y-132392794D01*
X104493824Y-132393070D01*
X104493820Y-132393070D01*
X104411118Y-132400597D01*
X104305948Y-132410168D01*
X104303019Y-132411030D01*
X104302696Y-132411125D01*
X104122050Y-132464292D01*
X103952167Y-132553105D01*
X103802770Y-132673223D01*
X103679549Y-132820072D01*
X103587198Y-132988058D01*
X103529234Y-133170783D01*
X103528894Y-133173815D01*
X103512831Y-133317025D01*
X103507866Y-133361286D01*
X76400000Y-133361286D01*
X76400000Y-132313000D01*
X76418306Y-132268806D01*
X76462500Y-132250500D01*
X100570161Y-132250500D01*
X100614355Y-132268806D01*
G37*
G04 #@! TD.AperFunction*
M02*
