M48
; DRILL file {KiCad (6.0.7)} date Thu Oct 27 11:48:30 2022
; FORMAT={-:-/ absolute / metric / decimal}
; #@! TF.CreationDate,2022-10-27T11:48:30+02:00
; #@! TF.GenerationSoftware,Kicad,Pcbnew,(6.0.7)
; #@! TF.FileFunction,Plated,1,4,PTH
FMAT,2
METRIC
; #@! TA.AperFunction,Plated,PTH,ViaDrill
T1C0.200
; #@! TA.AperFunction,Plated,PTH,ComponentDrill
T2C0.450
; #@! TA.AperFunction,Plated,PTH,ComponentDrill
T3C0.800
; #@! TA.AperFunction,Plated,PTH,ComponentDrill
T4C1.000
; #@! TA.AperFunction,Plated,PTH,ComponentDrill
T5C1.190
; #@! TA.AperFunction,Plated,PTH,ComponentDrill
T6C1.400
%
G90
G05
T1
X73.85Y-153.95
X75.25Y-140.95
X75.3Y-142.0
X75.3Y-142.627
X75.5Y-139.3
X78.65Y-138.2
X78.65Y-139.95
X78.65Y-140.5
X78.85Y-154.8
X78.85Y-161.05
X78.945Y-133.145
X78.95Y-134.45
X79.55Y-133.15
X79.55Y-134.45
X79.7Y-163.4
X79.95Y-141.65
X79.95Y-142.95
X79.95Y-164.95
X80.891Y-160.963
X80.897Y-161.605
X81.05Y-158.0
X81.05Y-159.55
X81.05Y-160.25
X81.25Y-141.65
X81.25Y-142.95
X81.9Y-156.25
X81.9Y-156.85
X82.05Y-165.95
X82.189Y-164.361
X82.25Y-155.35
X82.45Y-144.35
X82.7Y-161.3
X83.1Y-164.35
X83.3Y-161.6
X83.6Y-139.55
X83.6Y-141.75
X83.965Y-155.449
X84.25Y-158.5
X84.25Y-159.6
X84.25Y-160.7
X84.5Y-145.6
X84.55Y-164.55
X84.85Y-155.55
X85.65Y-155.3
X85.8Y-139.55
X85.8Y-141.75
X85.95Y-146.05
X86.35Y-164.35
X86.55Y-155.75
X87.75Y-161.8
X87.75Y-162.4
X87.882Y-160.597
X87.9Y-148.9
X87.9Y-159.9
X88.15Y-148.05
X89.733Y-161.694
X89.751Y-161.068
X89.8Y-159.55
X89.8Y-160.177
X89.85Y-156.4
X91.45Y-149.2
X91.5Y-145.45
X92.0Y-138.3
X92.555Y-133.145
X92.65Y-137.0
X92.75Y-149.65
X94.8Y-158.5
X94.85Y-157.7
X95.4Y-160.25
X95.95Y-133.15
X95.95Y-164.25
X96.55Y-142.3
X96.85Y-161.3
X97.007Y-161.953
X97.15Y-159.1
X97.45Y-139.3
X97.65Y-161.95
X97.95Y-150.5
X98.1Y-142.15
X98.45Y-157.0
X98.7Y-150.5
X99.35Y-141.25
X99.35Y-157.05
X99.45Y-150.5
X99.45Y-165.05
X99.95Y-143.75
X100.25Y-150.5
X100.25Y-151.6
X100.55Y-160.45
X100.7Y-152.45
X100.7Y-153.35
X100.7Y-154.2
X100.85Y-161.5
X100.981Y-142.319
X103.7Y-150.0
X103.7Y-150.65
X103.7Y-151.3
X103.7Y-151.9
X103.7Y-152.5
X103.7Y-153.1
X103.8Y-140.65
X103.95Y-158.6
X107.514Y-141.65
X107.514Y-142.45
X107.6Y-137.8
X107.7Y-159.8
X108.2Y-173.9
X108.214Y-143.85
X108.6Y-137.8
X108.6Y-159.8
X109.45Y-174.55
X109.6Y-137.8
X109.6Y-159.8
X110.1Y-174.55
X110.15Y-158.6
X110.25Y-172.6
X110.5Y-159.8
X110.6Y-137.8
X110.75Y-158.6
X110.75Y-174.55
X110.8Y-172.6
X111.35Y-172.6
X111.4Y-174.55
X111.5Y-137.8
X111.5Y-159.8
X112.05Y-174.55
X112.7Y-173.85
X115.014Y-140.55
X116.25Y-159.05
X116.65Y-159.45
X117.05Y-159.85
X117.45Y-160.25
T3
X77.282Y-167.6
X79.782Y-167.6
X85.082Y-167.6
X87.582Y-167.6
X92.982Y-167.6
X95.482Y-167.6
X100.882Y-167.6
X103.382Y-167.6
T4
X80.36Y-153.225
X82.9Y-153.225
X86.16Y-153.225
X88.7Y-153.225
X91.65Y-162.875
X93.0Y-154.995
X93.0Y-157.535
X93.0Y-160.075
X94.19Y-162.875
X101.95Y-133.375
X104.49Y-133.375
X107.03Y-133.375
X109.57Y-133.375
T5
X77.36Y-174.12
X79.9Y-174.12
X82.44Y-174.12
X85.16Y-174.12
X87.7Y-174.12
X90.24Y-174.12
X93.0Y-174.1
X95.54Y-174.1
X98.08Y-174.1
X100.8Y-174.1
X103.34Y-174.1
X105.88Y-174.1
T6
X111.16Y-165.877
X116.24Y-165.877
T2
X71.0Y-139.05G85X71.8Y-139.05
G05
X71.8Y-146.2G85X71.0Y-146.2
G05
X71.07Y-155.805G85X71.87Y-155.805
G05
X71.87Y-162.955G85X71.07Y-162.955
G05
T0
M30
