G04 #@! TF.GenerationSoftware,KiCad,Pcbnew,(6.0.7)*
G04 #@! TF.CreationDate,2022-10-27T11:48:24+02:00*
G04 #@! TF.ProjectId,mainControl,6d61696e-436f-46e7-9472-6f6c2e6b6963,rev?*
G04 #@! TF.SameCoordinates,Original*
G04 #@! TF.FileFunction,Soldermask,Top*
G04 #@! TF.FilePolarity,Negative*
%FSLAX46Y46*%
G04 Gerber Fmt 4.6, Leading zero omitted, Abs format (unit mm)*
G04 Created by KiCad (PCBNEW (6.0.7)) date 2022-10-27 11:48:24*
%MOMM*%
%LPD*%
G01*
G04 APERTURE LIST*
G04 Aperture macros list*
%AMRoundRect*
0 Rectangle with rounded corners*
0 $1 Rounding radius*
0 $2 $3 $4 $5 $6 $7 $8 $9 X,Y pos of 4 corners*
0 Add a 4 corners polygon primitive as box body*
4,1,4,$2,$3,$4,$5,$6,$7,$8,$9,$2,$3,0*
0 Add four circle primitives for the rounded corners*
1,1,$1+$1,$2,$3*
1,1,$1+$1,$4,$5*
1,1,$1+$1,$6,$7*
1,1,$1+$1,$8,$9*
0 Add four rect primitives between the rounded corners*
20,1,$1+$1,$2,$3,$4,$5,0*
20,1,$1+$1,$4,$5,$6,$7,0*
20,1,$1+$1,$6,$7,$8,$9,0*
20,1,$1+$1,$8,$9,$2,$3,0*%
G04 Aperture macros list end*
%ADD10RoundRect,0.250000X-0.275000X0.200000X-0.275000X-0.200000X0.275000X-0.200000X0.275000X0.200000X0*%
%ADD11RoundRect,0.250000X-0.200000X-0.275000X0.200000X-0.275000X0.200000X0.275000X-0.200000X0.275000X0*%
%ADD12RoundRect,0.050000X0.850000X-0.850000X0.850000X0.850000X-0.850000X0.850000X-0.850000X-0.850000X0*%
%ADD13O,1.800000X1.800000*%
%ADD14RoundRect,0.268750X-0.218750X-0.256250X0.218750X-0.256250X0.218750X0.256250X-0.218750X0.256250X0*%
%ADD15RoundRect,0.050000X-1.000000X-0.450000X1.000000X-0.450000X1.000000X0.450000X-1.000000X0.450000X0*%
%ADD16RoundRect,0.050000X0.450000X-1.000000X0.450000X1.000000X-0.450000X1.000000X-0.450000X-1.000000X0*%
%ADD17RoundRect,0.050000X-2.500000X-2.500000X2.500000X-2.500000X2.500000X2.500000X-2.500000X2.500000X0*%
%ADD18RoundRect,0.050000X2.540000X-0.635000X2.540000X0.635000X-2.540000X0.635000X-2.540000X-0.635000X0*%
%ADD19C,17.900000*%
%ADD20RoundRect,0.300000X-0.620000X-0.845000X0.620000X-0.845000X0.620000X0.845000X-0.620000X0.845000X0*%
%ADD21O,1.840000X2.290000*%
%ADD22RoundRect,0.250000X0.275000X-0.200000X0.275000X0.200000X-0.275000X0.200000X-0.275000X-0.200000X0*%
%ADD23RoundRect,0.250000X0.200000X0.275000X-0.200000X0.275000X-0.200000X-0.275000X0.200000X-0.275000X0*%
%ADD24RoundRect,0.275000X0.250000X-0.225000X0.250000X0.225000X-0.250000X0.225000X-0.250000X-0.225000X0*%
%ADD25RoundRect,0.050000X0.850000X0.850000X-0.850000X0.850000X-0.850000X-0.850000X0.850000X-0.850000X0*%
%ADD26O,0.300000X0.800000*%
%ADD27O,0.800000X0.300000*%
%ADD28RoundRect,0.050000X0.500000X-0.500000X0.500000X0.500000X-0.500000X0.500000X-0.500000X-0.500000X0*%
%ADD29C,3.300000*%
%ADD30RoundRect,0.050000X-0.850000X0.850000X-0.850000X-0.850000X0.850000X-0.850000X0.850000X0.850000X0*%
%ADD31RoundRect,0.143750X-0.106250X0.093750X-0.106250X-0.093750X0.106250X-0.093750X0.106250X0.093750X0*%
%ADD32RoundRect,0.050000X-0.800000X0.500000X-0.800000X-0.500000X0.800000X-0.500000X0.800000X0.500000X0*%
%ADD33RoundRect,0.050000X0.800000X0.800000X-0.800000X0.800000X-0.800000X-0.800000X0.800000X-0.800000X0*%
%ADD34C,1.700000*%
%ADD35RoundRect,0.050000X-0.300000X-0.225000X0.300000X-0.225000X0.300000X0.225000X-0.300000X0.225000X0*%
%ADD36RoundRect,0.299999X0.790001X1.550001X-0.790001X1.550001X-0.790001X-1.550001X0.790001X-1.550001X0*%
%ADD37O,2.180000X3.700000*%
%ADD38RoundRect,0.050000X-0.700000X0.200000X-0.700000X-0.200000X0.700000X-0.200000X0.700000X0.200000X0*%
%ADD39RoundRect,0.050000X-0.950000X0.875000X-0.950000X-0.875000X0.950000X-0.875000X0.950000X0.875000X0*%
%ADD40RoundRect,0.050000X-0.725000X0.575000X-0.725000X-0.575000X0.725000X-0.575000X0.725000X0.575000X0*%
%ADD41O,2.000000X1.150000*%
%ADD42RoundRect,0.275000X0.225000X0.250000X-0.225000X0.250000X-0.225000X-0.250000X0.225000X-0.250000X0*%
%ADD43RoundRect,0.275000X-0.250000X0.225000X-0.250000X-0.225000X0.250000X-0.225000X0.250000X0.225000X0*%
%ADD44RoundRect,0.100000X0.050000X-0.387500X0.050000X0.387500X-0.050000X0.387500X-0.050000X-0.387500X0*%
%ADD45RoundRect,0.100000X0.387500X-0.050000X0.387500X0.050000X-0.387500X0.050000X-0.387500X-0.050000X0*%
%ADD46RoundRect,0.050000X1.600000X-1.600000X1.600000X1.600000X-1.600000X1.600000X-1.600000X-1.600000X0*%
G04 APERTURE END LIST*
D10*
X75470000Y-154830000D03*
X75470000Y-156480000D03*
D11*
X76075000Y-158800000D03*
X77725000Y-158800000D03*
D12*
X91650000Y-162875000D03*
D13*
X94190000Y-162875000D03*
D14*
X70735000Y-164979533D03*
X72310000Y-164979533D03*
D15*
X77200000Y-133145000D03*
X77200000Y-134415000D03*
X77200000Y-135685000D03*
X77200000Y-136955000D03*
X77200000Y-138225000D03*
X77200000Y-139495000D03*
X77200000Y-140765000D03*
X77200000Y-142035000D03*
X77200000Y-143305000D03*
X77200000Y-144575000D03*
X77200000Y-145845000D03*
X77200000Y-147115000D03*
X77200000Y-148385000D03*
X77200000Y-149655000D03*
D16*
X79985000Y-150655000D03*
X81255000Y-150655000D03*
X82525000Y-150655000D03*
X83795000Y-150655000D03*
X85065000Y-150655000D03*
X86335000Y-150655000D03*
X87605000Y-150655000D03*
X88875000Y-150655000D03*
X90145000Y-150655000D03*
X91415000Y-150655000D03*
D15*
X94200000Y-149655000D03*
X94200000Y-148385000D03*
X94200000Y-147115000D03*
X94200000Y-145845000D03*
X94200000Y-144575000D03*
X94200000Y-143305000D03*
X94200000Y-142035000D03*
X94200000Y-140765000D03*
X94200000Y-139495000D03*
X94200000Y-138225000D03*
X94200000Y-136955000D03*
X94200000Y-135685000D03*
X94200000Y-134415000D03*
X94200000Y-133145000D03*
D17*
X84700000Y-140645000D03*
D18*
X109600000Y-159785000D03*
X109600000Y-137815000D03*
D19*
X109600000Y-148800000D03*
D11*
X76045000Y-157655000D03*
X77695000Y-157655000D03*
D20*
X100800000Y-174100000D03*
D21*
X103340000Y-174100000D03*
X105880000Y-174100000D03*
D22*
X98150000Y-168625000D03*
X98150000Y-166975000D03*
D23*
X97625000Y-145800000D03*
X95975000Y-145800000D03*
D24*
X96200000Y-160250000D03*
X96200000Y-158700000D03*
D12*
X101950000Y-133375000D03*
D13*
X104490000Y-133375000D03*
X107030000Y-133375000D03*
X109570000Y-133375000D03*
D25*
X93000000Y-160075000D03*
D13*
X93000000Y-157535000D03*
X93000000Y-154995000D03*
D26*
X98100000Y-161675000D03*
X98500000Y-161675000D03*
X98900000Y-161675000D03*
D27*
X99575000Y-161000000D03*
X99575000Y-160600000D03*
X99575000Y-160200000D03*
D26*
X98900000Y-159525000D03*
X98500000Y-159525000D03*
X98100000Y-159525000D03*
D27*
X97425000Y-160200000D03*
X97425000Y-160600000D03*
X97425000Y-161000000D03*
D28*
X98500000Y-160600000D03*
D14*
X97412500Y-163900000D03*
X98987500Y-163900000D03*
D23*
X97525000Y-147100000D03*
X95875000Y-147100000D03*
D29*
X117000000Y-174000000D03*
D30*
X82900000Y-153225000D03*
D13*
X80360000Y-153225000D03*
D31*
X111450000Y-171712500D03*
X110800000Y-171712500D03*
X110150000Y-171712500D03*
X110150000Y-173487500D03*
X110800000Y-173487500D03*
X111450000Y-173487500D03*
D32*
X110800000Y-172600000D03*
D23*
X75025000Y-165000000D03*
X73375000Y-165000000D03*
D33*
X87582380Y-167600000D03*
D34*
X85082380Y-167600000D03*
D20*
X85160000Y-174120000D03*
D21*
X87700000Y-174120000D03*
X90240000Y-174120000D03*
D11*
X103429524Y-163200000D03*
X105079524Y-163200000D03*
X76070000Y-159950000D03*
X77720000Y-159950000D03*
X100775000Y-163400000D03*
X102425000Y-163400000D03*
D29*
X117000000Y-135000000D03*
D20*
X93000000Y-174100000D03*
D21*
X95540000Y-174100000D03*
X98080000Y-174100000D03*
D33*
X103382380Y-167600000D03*
D34*
X100882380Y-167600000D03*
D35*
X74220000Y-153155000D03*
X76320000Y-153155000D03*
D33*
X95482380Y-167600000D03*
D34*
X92982380Y-167600000D03*
D36*
X116240000Y-165877500D03*
D37*
X111160000Y-165877500D03*
D29*
X73000000Y-135000000D03*
X73000000Y-174000000D03*
D30*
X88700000Y-153225000D03*
D13*
X86160000Y-153225000D03*
D22*
X82400000Y-168775000D03*
X82400000Y-167125000D03*
D20*
X77360000Y-174120000D03*
D21*
X79900000Y-174120000D03*
X82440000Y-174120000D03*
D22*
X77870000Y-156480000D03*
X77870000Y-154830000D03*
D38*
X74120000Y-158080000D03*
X74120000Y-158730000D03*
X74120000Y-159380000D03*
X74120000Y-160030000D03*
X74120000Y-160680000D03*
D39*
X71470000Y-158255000D03*
D40*
X73700000Y-157060000D03*
D39*
X71470000Y-160505000D03*
D41*
X71470000Y-162955000D03*
D40*
X73700000Y-161700000D03*
D41*
X71470000Y-155805000D03*
D38*
X74050000Y-141325000D03*
X74050000Y-141975000D03*
X74050000Y-142625000D03*
X74050000Y-143275000D03*
X74050000Y-143925000D03*
D40*
X73630000Y-140305000D03*
D39*
X71400000Y-143750000D03*
D41*
X71400000Y-139050000D03*
D39*
X71400000Y-141500000D03*
D41*
X71400000Y-146200000D03*
D40*
X73630000Y-144945000D03*
D42*
X98975000Y-162800000D03*
X97425000Y-162800000D03*
D43*
X96100000Y-161500000D03*
X96100000Y-163050000D03*
D44*
X82725000Y-163437500D03*
X83125000Y-163437500D03*
X83525000Y-163437500D03*
X83925000Y-163437500D03*
X84325000Y-163437500D03*
X84725000Y-163437500D03*
X85125000Y-163437500D03*
X85525000Y-163437500D03*
X85925000Y-163437500D03*
X86325000Y-163437500D03*
X86725000Y-163437500D03*
X87125000Y-163437500D03*
X87525000Y-163437500D03*
X87925000Y-163437500D03*
D45*
X88762500Y-162600000D03*
X88762500Y-162200000D03*
X88762500Y-161800000D03*
X88762500Y-161400000D03*
X88762500Y-161000000D03*
X88762500Y-160600000D03*
X88762500Y-160200000D03*
X88762500Y-159800000D03*
X88762500Y-159400000D03*
X88762500Y-159000000D03*
X88762500Y-158600000D03*
X88762500Y-158200000D03*
X88762500Y-157800000D03*
X88762500Y-157400000D03*
D44*
X87925000Y-156562500D03*
X87525000Y-156562500D03*
X87125000Y-156562500D03*
X86725000Y-156562500D03*
X86325000Y-156562500D03*
X85925000Y-156562500D03*
X85525000Y-156562500D03*
X85125000Y-156562500D03*
X84725000Y-156562500D03*
X84325000Y-156562500D03*
X83925000Y-156562500D03*
X83525000Y-156562500D03*
X83125000Y-156562500D03*
X82725000Y-156562500D03*
D45*
X81887500Y-157400000D03*
X81887500Y-157800000D03*
X81887500Y-158200000D03*
X81887500Y-158600000D03*
X81887500Y-159000000D03*
X81887500Y-159400000D03*
X81887500Y-159800000D03*
X81887500Y-160200000D03*
X81887500Y-160600000D03*
X81887500Y-161000000D03*
X81887500Y-161400000D03*
X81887500Y-161800000D03*
X81887500Y-162200000D03*
X81887500Y-162600000D03*
D46*
X85325000Y-160000000D03*
D22*
X106050000Y-168525000D03*
X106050000Y-166875000D03*
X90250000Y-168475000D03*
X90250000Y-166825000D03*
D10*
X76570000Y-154830000D03*
X76570000Y-156480000D03*
D33*
X79782380Y-167600000D03*
D34*
X77282380Y-167600000D03*
D42*
X102375000Y-162300000D03*
X100825000Y-162300000D03*
G36*
X99294066Y-163305269D02*
G01*
X99294456Y-163307231D01*
X99294037Y-163307939D01*
X99271573Y-163332454D01*
X99273173Y-163369081D01*
X99295062Y-163390970D01*
X99295580Y-163392902D01*
X99294166Y-163394316D01*
X99293258Y-163394346D01*
X99206051Y-163377000D01*
X98768949Y-163377000D01*
X98672808Y-163396123D01*
X98670914Y-163395480D01*
X98670524Y-163393518D01*
X98670943Y-163392810D01*
X98690927Y-163371001D01*
X98689327Y-163334375D01*
X98665943Y-163310991D01*
X98663213Y-163309718D01*
X98662066Y-163308079D01*
X98662911Y-163306267D01*
X98664448Y-163305943D01*
X98750199Y-163323000D01*
X99199801Y-163323000D01*
X99292172Y-163304626D01*
X99294066Y-163305269D01*
G37*
G36*
X97200199Y-163323000D02*
G01*
X97649801Y-163323000D01*
X97735552Y-163305943D01*
X97737446Y-163306586D01*
X97737836Y-163308548D01*
X97736787Y-163309718D01*
X97734099Y-163310972D01*
X97709073Y-163338282D01*
X97710672Y-163374908D01*
X97728391Y-163392627D01*
X97728909Y-163394559D01*
X97727495Y-163395973D01*
X97726587Y-163396003D01*
X97631051Y-163377000D01*
X97193949Y-163377000D01*
X97106563Y-163394382D01*
X97104669Y-163393739D01*
X97104279Y-163391777D01*
X97104698Y-163391069D01*
X97128427Y-163365174D01*
X97126828Y-163328548D01*
X97106347Y-163308067D01*
X97105829Y-163306135D01*
X97107243Y-163304721D01*
X97108151Y-163304691D01*
X97200199Y-163323000D01*
G37*
G36*
X100600199Y-162823000D02*
G01*
X101049801Y-162823000D01*
X101135553Y-162805943D01*
X101137447Y-162806586D01*
X101137837Y-162808548D01*
X101136788Y-162809718D01*
X101120803Y-162817172D01*
X101120219Y-162817342D01*
X101112636Y-162818340D01*
X101080558Y-162836861D01*
X101071082Y-162872224D01*
X101089541Y-162904194D01*
X101099206Y-162909927D01*
X101116565Y-162917602D01*
X101117169Y-162918016D01*
X101131480Y-162932302D01*
X101131999Y-162934233D01*
X101130586Y-162935648D01*
X101128956Y-162935380D01*
X101069892Y-162895915D01*
X100974801Y-162877000D01*
X100575199Y-162877000D01*
X100498942Y-162892168D01*
X100497048Y-162891525D01*
X100496658Y-162889563D01*
X100497102Y-162888828D01*
X100521669Y-162862986D01*
X100520741Y-162826347D01*
X100501917Y-162807175D01*
X100501417Y-162805239D01*
X100502844Y-162803837D01*
X100503734Y-162803812D01*
X100600199Y-162823000D01*
G37*
G36*
X102698549Y-162804378D02*
G01*
X102698939Y-162806340D01*
X102698520Y-162807048D01*
X102677975Y-162829468D01*
X102679574Y-162866082D01*
X102702700Y-162888749D01*
X102703237Y-162890675D01*
X102701837Y-162892104D01*
X102700910Y-162892139D01*
X102624801Y-162877000D01*
X102225199Y-162877000D01*
X102130108Y-162895915D01*
X102070856Y-162935505D01*
X102068860Y-162935636D01*
X102067749Y-162933973D01*
X102068330Y-162932429D01*
X102082470Y-162918265D01*
X102083073Y-162917850D01*
X102100702Y-162910019D01*
X102126223Y-162883171D01*
X102125296Y-162846573D01*
X102098538Y-162821137D01*
X102087730Y-162818388D01*
X102079780Y-162817342D01*
X102079196Y-162817172D01*
X102063210Y-162809718D01*
X102062063Y-162808079D01*
X102062908Y-162806267D01*
X102064445Y-162805943D01*
X102150199Y-162823000D01*
X102599801Y-162823000D01*
X102696655Y-162803735D01*
X102698549Y-162804378D01*
G37*
G36*
X77969909Y-158164080D02*
G01*
X77970299Y-158166042D01*
X77969217Y-158167227D01*
X77951972Y-158174887D01*
X77951393Y-158175045D01*
X77926092Y-158178016D01*
X77893755Y-158196088D01*
X77883787Y-158231315D01*
X77901713Y-158263391D01*
X77925308Y-158273152D01*
X77926526Y-158274738D01*
X77925761Y-158276586D01*
X77924543Y-158277000D01*
X77525199Y-158277000D01*
X77451985Y-158291563D01*
X77450091Y-158290920D01*
X77449701Y-158288958D01*
X77450783Y-158287773D01*
X77468028Y-158280113D01*
X77468607Y-158279955D01*
X77493908Y-158276984D01*
X77526245Y-158258912D01*
X77536213Y-158223685D01*
X77518287Y-158191609D01*
X77494692Y-158181848D01*
X77493474Y-158180262D01*
X77494239Y-158178414D01*
X77495457Y-158178000D01*
X77894801Y-158178000D01*
X77968015Y-158163437D01*
X77969909Y-158164080D01*
G37*
G36*
X76319909Y-158164080D02*
G01*
X76320299Y-158166042D01*
X76319217Y-158167227D01*
X76301972Y-158174887D01*
X76301393Y-158175045D01*
X76276092Y-158178016D01*
X76243755Y-158196088D01*
X76233787Y-158231315D01*
X76251713Y-158263391D01*
X76275308Y-158273152D01*
X76276526Y-158274738D01*
X76275761Y-158276586D01*
X76274543Y-158277000D01*
X75875199Y-158277000D01*
X75801985Y-158291563D01*
X75800091Y-158290920D01*
X75799701Y-158288958D01*
X75800783Y-158287773D01*
X75818028Y-158280113D01*
X75818607Y-158279955D01*
X75843908Y-158276984D01*
X75876245Y-158258912D01*
X75886213Y-158223685D01*
X75868287Y-158191609D01*
X75844692Y-158181848D01*
X75843474Y-158180262D01*
X75844239Y-158178414D01*
X75845457Y-158178000D01*
X76244801Y-158178000D01*
X76318015Y-158163437D01*
X76319909Y-158164080D01*
G37*
G36*
X75979837Y-156195393D02*
G01*
X76002833Y-156217253D01*
X76039460Y-156216325D01*
X76060078Y-156195671D01*
X76062009Y-156195152D01*
X76063424Y-156196565D01*
X76063455Y-156197474D01*
X76047000Y-156280199D01*
X76047000Y-156679801D01*
X76063503Y-156762767D01*
X76062860Y-156764661D01*
X76060898Y-156765051D01*
X76060163Y-156764607D01*
X76037167Y-156742747D01*
X76000540Y-156743675D01*
X75979922Y-156764329D01*
X75977991Y-156764848D01*
X75976576Y-156763435D01*
X75976545Y-156762526D01*
X75993000Y-156679801D01*
X75993000Y-156280199D01*
X75976497Y-156197233D01*
X75977140Y-156195339D01*
X75979102Y-156194949D01*
X75979837Y-156195393D01*
G37*
G36*
X75979837Y-154545393D02*
G01*
X76002833Y-154567253D01*
X76039460Y-154566325D01*
X76060078Y-154545671D01*
X76062009Y-154545152D01*
X76063424Y-154546565D01*
X76063455Y-154547474D01*
X76047000Y-154630199D01*
X76047000Y-155029801D01*
X76063503Y-155112767D01*
X76062860Y-155114661D01*
X76060898Y-155115051D01*
X76060163Y-155114607D01*
X76037167Y-155092747D01*
X76000540Y-155093675D01*
X75979922Y-155114329D01*
X75977991Y-155114848D01*
X75976576Y-155113435D01*
X75976545Y-155112526D01*
X75993000Y-155029801D01*
X75993000Y-154630199D01*
X75976497Y-154547233D01*
X75977140Y-154545339D01*
X75979102Y-154544949D01*
X75979837Y-154545393D01*
G37*
M02*
