G04 #@! TF.GenerationSoftware,KiCad,Pcbnew,(6.0.7)*
G04 #@! TF.CreationDate,2022-10-27T11:48:24+02:00*
G04 #@! TF.ProjectId,mainControl,6d61696e-436f-46e7-9472-6f6c2e6b6963,rev?*
G04 #@! TF.SameCoordinates,Original*
G04 #@! TF.FileFunction,Legend,Top*
G04 #@! TF.FilePolarity,Positive*
%FSLAX46Y46*%
G04 Gerber Fmt 4.6, Leading zero omitted, Abs format (unit mm)*
G04 Created by KiCad (PCBNEW (6.0.7)) date 2022-10-27 11:48:24*
%MOMM*%
%LPD*%
G01*
G04 APERTURE LIST*
G04 Aperture macros list*
%AMRoundRect*
0 Rectangle with rounded corners*
0 $1 Rounding radius*
0 $2 $3 $4 $5 $6 $7 $8 $9 X,Y pos of 4 corners*
0 Add a 4 corners polygon primitive as box body*
4,1,4,$2,$3,$4,$5,$6,$7,$8,$9,$2,$3,0*
0 Add four circle primitives for the rounded corners*
1,1,$1+$1,$2,$3*
1,1,$1+$1,$4,$5*
1,1,$1+$1,$6,$7*
1,1,$1+$1,$8,$9*
0 Add four rect primitives between the rounded corners*
20,1,$1+$1,$2,$3,$4,$5,0*
20,1,$1+$1,$4,$5,$6,$7,0*
20,1,$1+$1,$6,$7,$8,$9,0*
20,1,$1+$1,$8,$9,$2,$3,0*%
G04 Aperture macros list end*
%ADD10C,0.150000*%
%ADD11C,0.120000*%
%ADD12RoundRect,0.250000X-0.275000X0.200000X-0.275000X-0.200000X0.275000X-0.200000X0.275000X0.200000X0*%
%ADD13RoundRect,0.250000X-0.200000X-0.275000X0.200000X-0.275000X0.200000X0.275000X-0.200000X0.275000X0*%
%ADD14RoundRect,0.050000X0.850000X-0.850000X0.850000X0.850000X-0.850000X0.850000X-0.850000X-0.850000X0*%
%ADD15O,1.800000X1.800000*%
%ADD16RoundRect,0.268750X-0.218750X-0.256250X0.218750X-0.256250X0.218750X0.256250X-0.218750X0.256250X0*%
%ADD17RoundRect,0.050000X-1.000000X-0.450000X1.000000X-0.450000X1.000000X0.450000X-1.000000X0.450000X0*%
%ADD18RoundRect,0.050000X0.450000X-1.000000X0.450000X1.000000X-0.450000X1.000000X-0.450000X-1.000000X0*%
%ADD19RoundRect,0.050000X-2.500000X-2.500000X2.500000X-2.500000X2.500000X2.500000X-2.500000X2.500000X0*%
%ADD20RoundRect,0.050000X2.540000X-0.635000X2.540000X0.635000X-2.540000X0.635000X-2.540000X-0.635000X0*%
%ADD21C,17.900000*%
%ADD22RoundRect,0.300000X-0.620000X-0.845000X0.620000X-0.845000X0.620000X0.845000X-0.620000X0.845000X0*%
%ADD23O,1.840000X2.290000*%
%ADD24RoundRect,0.250000X0.275000X-0.200000X0.275000X0.200000X-0.275000X0.200000X-0.275000X-0.200000X0*%
%ADD25RoundRect,0.250000X0.200000X0.275000X-0.200000X0.275000X-0.200000X-0.275000X0.200000X-0.275000X0*%
%ADD26RoundRect,0.275000X0.250000X-0.225000X0.250000X0.225000X-0.250000X0.225000X-0.250000X-0.225000X0*%
%ADD27RoundRect,0.050000X0.850000X0.850000X-0.850000X0.850000X-0.850000X-0.850000X0.850000X-0.850000X0*%
%ADD28O,0.300000X0.800000*%
%ADD29O,0.800000X0.300000*%
%ADD30RoundRect,0.050000X0.500000X-0.500000X0.500000X0.500000X-0.500000X0.500000X-0.500000X-0.500000X0*%
%ADD31C,3.300000*%
%ADD32RoundRect,0.050000X-0.850000X0.850000X-0.850000X-0.850000X0.850000X-0.850000X0.850000X0.850000X0*%
%ADD33RoundRect,0.143750X-0.106250X0.093750X-0.106250X-0.093750X0.106250X-0.093750X0.106250X0.093750X0*%
%ADD34RoundRect,0.050000X-0.800000X0.500000X-0.800000X-0.500000X0.800000X-0.500000X0.800000X0.500000X0*%
%ADD35RoundRect,0.050000X0.800000X0.800000X-0.800000X0.800000X-0.800000X-0.800000X0.800000X-0.800000X0*%
%ADD36C,1.700000*%
%ADD37RoundRect,0.050000X-0.300000X-0.225000X0.300000X-0.225000X0.300000X0.225000X-0.300000X0.225000X0*%
%ADD38RoundRect,0.299999X0.790001X1.550001X-0.790001X1.550001X-0.790001X-1.550001X0.790001X-1.550001X0*%
%ADD39O,2.180000X3.700000*%
%ADD40RoundRect,0.050000X-0.700000X0.200000X-0.700000X-0.200000X0.700000X-0.200000X0.700000X0.200000X0*%
%ADD41RoundRect,0.050000X-0.950000X0.875000X-0.950000X-0.875000X0.950000X-0.875000X0.950000X0.875000X0*%
%ADD42RoundRect,0.050000X-0.725000X0.575000X-0.725000X-0.575000X0.725000X-0.575000X0.725000X0.575000X0*%
%ADD43O,2.000000X1.150000*%
%ADD44RoundRect,0.275000X0.225000X0.250000X-0.225000X0.250000X-0.225000X-0.250000X0.225000X-0.250000X0*%
%ADD45RoundRect,0.275000X-0.250000X0.225000X-0.250000X-0.225000X0.250000X-0.225000X0.250000X0.225000X0*%
%ADD46RoundRect,0.100000X0.050000X-0.387500X0.050000X0.387500X-0.050000X0.387500X-0.050000X-0.387500X0*%
%ADD47RoundRect,0.100000X0.387500X-0.050000X0.387500X0.050000X-0.387500X0.050000X-0.387500X-0.050000X0*%
%ADD48RoundRect,0.050000X1.600000X-1.600000X1.600000X1.600000X-1.600000X1.600000X-1.600000X-1.600000X0*%
G04 APERTURE END LIST*
D10*
X105297619Y-161702380D02*
X105297619Y-160702380D01*
X105630952Y-161416666D01*
X105964285Y-160702380D01*
X105964285Y-161702380D01*
X106869047Y-161702380D02*
X106869047Y-161178571D01*
X106821428Y-161083333D01*
X106726190Y-161035714D01*
X106535714Y-161035714D01*
X106440476Y-161083333D01*
X106869047Y-161654761D02*
X106773809Y-161702380D01*
X106535714Y-161702380D01*
X106440476Y-161654761D01*
X106392857Y-161559523D01*
X106392857Y-161464285D01*
X106440476Y-161369047D01*
X106535714Y-161321428D01*
X106773809Y-161321428D01*
X106869047Y-161273809D01*
X107345238Y-161702380D02*
X107345238Y-161035714D01*
X107345238Y-160702380D02*
X107297619Y-160750000D01*
X107345238Y-160797619D01*
X107392857Y-160750000D01*
X107345238Y-160702380D01*
X107345238Y-160797619D01*
X107821428Y-161035714D02*
X107821428Y-161702380D01*
X107821428Y-161130952D02*
X107869047Y-161083333D01*
X107964285Y-161035714D01*
X108107142Y-161035714D01*
X108202380Y-161083333D01*
X108250000Y-161178571D01*
X108250000Y-161702380D01*
X109297619Y-161607142D02*
X109250000Y-161654761D01*
X109107142Y-161702380D01*
X109011904Y-161702380D01*
X108869047Y-161654761D01*
X108773809Y-161559523D01*
X108726190Y-161464285D01*
X108678571Y-161273809D01*
X108678571Y-161130952D01*
X108726190Y-160940476D01*
X108773809Y-160845238D01*
X108869047Y-160750000D01*
X109011904Y-160702380D01*
X109107142Y-160702380D01*
X109250000Y-160750000D01*
X109297619Y-160797619D01*
X109869047Y-161702380D02*
X109773809Y-161654761D01*
X109726190Y-161607142D01*
X109678571Y-161511904D01*
X109678571Y-161226190D01*
X109726190Y-161130952D01*
X109773809Y-161083333D01*
X109869047Y-161035714D01*
X110011904Y-161035714D01*
X110107142Y-161083333D01*
X110154761Y-161130952D01*
X110202380Y-161226190D01*
X110202380Y-161511904D01*
X110154761Y-161607142D01*
X110107142Y-161654761D01*
X110011904Y-161702380D01*
X109869047Y-161702380D01*
X110630952Y-161035714D02*
X110630952Y-161702380D01*
X110630952Y-161130952D02*
X110678571Y-161083333D01*
X110773809Y-161035714D01*
X110916666Y-161035714D01*
X111011904Y-161083333D01*
X111059523Y-161178571D01*
X111059523Y-161702380D01*
X112916666Y-160702380D02*
X113250000Y-161702380D01*
X113583333Y-160702380D01*
X114440476Y-161702380D02*
X113869047Y-161702380D01*
X114154761Y-161702380D02*
X114154761Y-160702380D01*
X114059523Y-160845238D01*
X113964285Y-160940476D01*
X113869047Y-160988095D01*
X114869047Y-161607142D02*
X114916666Y-161654761D01*
X114869047Y-161702380D01*
X114821428Y-161654761D01*
X114869047Y-161607142D01*
X114869047Y-161702380D01*
X115535714Y-160702380D02*
X115630952Y-160702380D01*
X115726190Y-160750000D01*
X115773809Y-160797619D01*
X115821428Y-160892857D01*
X115869047Y-161083333D01*
X115869047Y-161321428D01*
X115821428Y-161511904D01*
X115773809Y-161607142D01*
X115726190Y-161654761D01*
X115630952Y-161702380D01*
X115535714Y-161702380D01*
X115440476Y-161654761D01*
X115392857Y-161607142D01*
X115345238Y-161511904D01*
X115297619Y-161321428D01*
X115297619Y-161083333D01*
X115345238Y-160892857D01*
X115392857Y-160797619D01*
X115440476Y-160750000D01*
X115535714Y-160702380D01*
D11*
X74947500Y-155417742D02*
X74947500Y-155892258D01*
X75992500Y-155417742D02*
X75992500Y-155892258D01*
X76662742Y-159322500D02*
X77137258Y-159322500D01*
X76662742Y-158277500D02*
X77137258Y-158277500D01*
X92920000Y-164205000D02*
X95520000Y-164205000D01*
X90320000Y-162875000D02*
X90320000Y-161545000D01*
X90320000Y-161545000D02*
X91650000Y-161545000D01*
X92920000Y-164205000D02*
X92920000Y-161545000D01*
X92920000Y-161545000D02*
X95520000Y-161545000D01*
X95520000Y-164205000D02*
X95520000Y-161545000D01*
X70037500Y-164244533D02*
X70037500Y-165714533D01*
X70037500Y-165714533D02*
X72322500Y-165714533D01*
X72322500Y-164244533D02*
X70037500Y-164244533D01*
X76580000Y-150500000D02*
X76580000Y-151280000D01*
X76580000Y-151280000D02*
X77580000Y-151280000D01*
X76580000Y-125535000D02*
X94820000Y-125535000D01*
X94820000Y-151280000D02*
X93820000Y-151280000D01*
X76580000Y-125535000D02*
X76580000Y-131955000D01*
X76580000Y-131955000D02*
X76200000Y-131955000D01*
X94820000Y-125535000D02*
X94820000Y-131955000D01*
X94820000Y-150500000D02*
X94820000Y-151280000D01*
X113230000Y-159580000D02*
X117180000Y-158140000D01*
X102060000Y-154000000D02*
X102060000Y-157500000D01*
X102060000Y-140100000D02*
X104140000Y-138020000D01*
X113230000Y-138020000D02*
X117180000Y-139460000D01*
X112600000Y-159580000D02*
X113230000Y-159580000D01*
X102060000Y-140100000D02*
X102060000Y-143600000D01*
X104140000Y-138020000D02*
X106600000Y-138020000D01*
X112600000Y-138020000D02*
X113230000Y-138020000D01*
X104140000Y-159580000D02*
X106600000Y-159580000D01*
X102060000Y-157500000D02*
X104140000Y-159580000D01*
X117180000Y-158140000D02*
G75*
G03*
X118166530Y-154803354I-730001J2030000D01*
G01*
X118149999Y-142800000D02*
G75*
G03*
X117188169Y-139474757I-1699999J1310000D01*
G01*
X76632742Y-158177500D02*
X77107258Y-158177500D01*
X76632742Y-157132500D02*
X77107258Y-157132500D01*
X106680000Y-171670000D02*
X106680000Y-171070000D01*
X100800000Y-176090000D02*
X101050000Y-175560000D01*
X101050000Y-175560000D02*
X105630000Y-175560000D01*
X104140000Y-171670000D02*
X104140000Y-171070000D01*
X102540000Y-171670000D02*
X104140000Y-171670000D01*
X99420000Y-177090000D02*
X107260000Y-177090000D01*
X105630000Y-175560000D02*
X105880000Y-176090000D01*
X99130000Y-172100000D02*
X99130000Y-176100000D01*
X100800000Y-176090000D02*
X105880000Y-176090000D01*
X101050000Y-177090000D02*
X101050000Y-176090000D01*
X107260000Y-171070000D02*
X99420000Y-171070000D01*
X105080000Y-171070000D02*
X105080000Y-171670000D01*
X99420000Y-171070000D02*
X99420000Y-177090000D01*
X100800000Y-177090000D02*
X100800000Y-176090000D01*
X105080000Y-171670000D02*
X106680000Y-171670000D01*
X100000000Y-171670000D02*
X101600000Y-171670000D01*
X105880000Y-176090000D02*
X105880000Y-177090000D01*
X105630000Y-177090000D02*
X105630000Y-176090000D01*
X102540000Y-171070000D02*
X102540000Y-171670000D01*
X100000000Y-171070000D02*
X100000000Y-171670000D01*
X101600000Y-171670000D02*
X101600000Y-171070000D01*
X107260000Y-177090000D02*
X107260000Y-171070000D01*
X97627500Y-168037258D02*
X97627500Y-167562742D01*
X98672500Y-168037258D02*
X98672500Y-167562742D01*
X97037258Y-145277500D02*
X96562742Y-145277500D01*
X97037258Y-146322500D02*
X96562742Y-146322500D01*
X95690000Y-159615580D02*
X95690000Y-159334420D01*
X96710000Y-159615580D02*
X96710000Y-159334420D01*
X100620000Y-132045000D02*
X101950000Y-132045000D01*
X103220000Y-132045000D02*
X110900000Y-132045000D01*
X103220000Y-134705000D02*
X103220000Y-132045000D01*
X100620000Y-133375000D02*
X100620000Y-132045000D01*
X110900000Y-134705000D02*
X110900000Y-132045000D01*
X103220000Y-134705000D02*
X110900000Y-134705000D01*
X94330000Y-160075000D02*
X94330000Y-161405000D01*
X94330000Y-153665000D02*
X91670000Y-153665000D01*
X94330000Y-158805000D02*
X94330000Y-153665000D01*
X91670000Y-158805000D02*
X91670000Y-153665000D01*
X94330000Y-158805000D02*
X91670000Y-158805000D01*
X94330000Y-161405000D02*
X93000000Y-161405000D01*
X99650000Y-161750000D02*
X99300000Y-161750000D01*
X97350000Y-159450000D02*
X97700000Y-159450000D01*
X99650000Y-161400000D02*
X99650000Y-161750000D01*
X99650000Y-159450000D02*
X99300000Y-159450000D01*
X97350000Y-161400000D02*
X97350000Y-161950000D01*
X99650000Y-159800000D02*
X99650000Y-159450000D01*
X97350000Y-159800000D02*
X97350000Y-159450000D01*
X98037221Y-163390000D02*
X98362779Y-163390000D01*
X98037221Y-164410000D02*
X98362779Y-164410000D01*
X96937258Y-146577500D02*
X96462742Y-146577500D01*
X96937258Y-147622500D02*
X96462742Y-147622500D01*
X81630000Y-151895000D02*
X79030000Y-151895000D01*
X81630000Y-151895000D02*
X81630000Y-154555000D01*
X84230000Y-154555000D02*
X82900000Y-154555000D01*
X84230000Y-153225000D02*
X84230000Y-154555000D01*
X81630000Y-154555000D02*
X79030000Y-154555000D01*
X79030000Y-151895000D02*
X79030000Y-154555000D01*
X111910000Y-172600000D02*
X111910000Y-173600000D01*
X109690000Y-171600000D02*
X109690000Y-173600000D01*
X74437258Y-165522500D02*
X73962742Y-165522500D01*
X74437258Y-164477500D02*
X73962742Y-164477500D01*
X85211380Y-170633000D02*
X85211380Y-168640000D01*
X84851380Y-170476000D02*
X84851380Y-168640000D01*
X86012380Y-166560000D02*
X86012380Y-164385000D01*
X85611380Y-166560000D02*
X85611380Y-164450000D01*
X83691380Y-169490000D02*
X83691380Y-165710000D01*
X86332380Y-170830000D02*
X86332380Y-164370000D01*
X84291380Y-166560000D02*
X84291380Y-165084000D01*
X84331380Y-166560000D02*
X84331380Y-165052000D01*
X85531380Y-170731000D02*
X85531380Y-168640000D01*
X85291380Y-170661000D02*
X85291380Y-168640000D01*
X84731380Y-166560000D02*
X84731380Y-164788000D01*
X83931380Y-169782000D02*
X83931380Y-165418000D01*
X83091380Y-168002000D02*
X83091380Y-167198000D01*
X85411380Y-170698000D02*
X85411380Y-168640000D01*
X89517621Y-169754000D02*
X89517621Y-169124000D01*
X84771380Y-166560000D02*
X84771380Y-164766000D01*
X84091380Y-169943000D02*
X84091380Y-168640000D01*
X85772380Y-170782000D02*
X85772380Y-168640000D01*
X84731380Y-170412000D02*
X84731380Y-168640000D01*
X84131380Y-166560000D02*
X84131380Y-165220000D01*
X85411380Y-166560000D02*
X85411380Y-164502000D01*
X85051380Y-166560000D02*
X85051380Y-164630000D01*
X85852380Y-170795000D02*
X85852380Y-168640000D01*
X83371380Y-168950000D02*
X83371380Y-166250000D01*
X85852380Y-166560000D02*
X85852380Y-164405000D01*
X84211380Y-170050000D02*
X84211380Y-168640000D01*
X84531380Y-170290000D02*
X84531380Y-168640000D01*
X85091380Y-166560000D02*
X85091380Y-164614000D01*
X84051380Y-166560000D02*
X84051380Y-165295000D01*
X85531380Y-166560000D02*
X85531380Y-164469000D01*
X84371380Y-166560000D02*
X84371380Y-165022000D01*
X86252380Y-170830000D02*
X86252380Y-164370000D01*
X84771380Y-170434000D02*
X84771380Y-168640000D01*
X83251380Y-168659000D02*
X83251380Y-166541000D01*
X84851380Y-166560000D02*
X84851380Y-164724000D01*
X84971380Y-166560000D02*
X84971380Y-164666000D01*
X85171380Y-166560000D02*
X85171380Y-164582000D01*
X85732380Y-166560000D02*
X85732380Y-164425000D01*
X83331380Y-168862000D02*
X83331380Y-166338000D01*
X84891380Y-170496000D02*
X84891380Y-168640000D01*
X85051380Y-170570000D02*
X85051380Y-168640000D01*
X84571380Y-170316000D02*
X84571380Y-168640000D01*
X83611380Y-169376000D02*
X83611380Y-165824000D01*
X85772380Y-166560000D02*
X85772380Y-164418000D01*
X84531380Y-166560000D02*
X84531380Y-164910000D01*
X84131380Y-169980000D02*
X84131380Y-168640000D01*
X85451380Y-166560000D02*
X85451380Y-164490000D01*
X85371380Y-166560000D02*
X85371380Y-164514000D01*
X85251380Y-170647000D02*
X85251380Y-168640000D01*
X86052380Y-170818000D02*
X86052380Y-168640000D01*
X85932380Y-170806000D02*
X85932380Y-168640000D01*
X85652380Y-166560000D02*
X85652380Y-164441000D01*
X85211380Y-166560000D02*
X85211380Y-164567000D01*
X83571380Y-169314000D02*
X83571380Y-165886000D01*
X85491380Y-166560000D02*
X85491380Y-164479000D01*
X83651380Y-169434000D02*
X83651380Y-165766000D01*
X83491380Y-169181000D02*
X83491380Y-166019000D01*
X86092380Y-170822000D02*
X86092380Y-168640000D01*
X85011380Y-170552000D02*
X85011380Y-168640000D01*
X86052380Y-166560000D02*
X86052380Y-164382000D01*
X83771380Y-169595000D02*
X83771380Y-165605000D01*
X83811380Y-169644000D02*
X83811380Y-165556000D01*
X86012380Y-170815000D02*
X86012380Y-168640000D01*
X83531380Y-169250000D02*
X83531380Y-165950000D01*
X85291380Y-166560000D02*
X85291380Y-164539000D01*
X85611380Y-170750000D02*
X85611380Y-168640000D01*
X85571380Y-166560000D02*
X85571380Y-164459000D01*
X84611380Y-170342000D02*
X84611380Y-168640000D01*
X85892380Y-166560000D02*
X85892380Y-164399000D01*
X85812380Y-170789000D02*
X85812380Y-168640000D01*
X86132380Y-170824000D02*
X86132380Y-164376000D01*
X85171380Y-170618000D02*
X85171380Y-168640000D01*
X84891380Y-166560000D02*
X84891380Y-164704000D01*
X86292380Y-170830000D02*
X86292380Y-164370000D01*
X84251380Y-170084000D02*
X84251380Y-168640000D01*
X83451380Y-169109000D02*
X83451380Y-166091000D01*
X85331380Y-170674000D02*
X85331380Y-168640000D01*
X84811380Y-170456000D02*
X84811380Y-168640000D01*
X85812380Y-166560000D02*
X85812380Y-164411000D01*
X84211380Y-166560000D02*
X84211380Y-165150000D01*
X83971380Y-169824000D02*
X83971380Y-165376000D01*
X85131380Y-170602000D02*
X85131380Y-168640000D01*
X85251380Y-166560000D02*
X85251380Y-164553000D01*
X89832621Y-169439000D02*
X89202621Y-169439000D01*
X84011380Y-169865000D02*
X84011380Y-165335000D01*
X84371380Y-170178000D02*
X84371380Y-168640000D01*
X84811380Y-166560000D02*
X84811380Y-164744000D01*
X84931380Y-170516000D02*
X84931380Y-168640000D01*
X83851380Y-169692000D02*
X83851380Y-165508000D01*
X85892380Y-170801000D02*
X85892380Y-168640000D01*
X84171380Y-166560000D02*
X84171380Y-165184000D01*
X86212380Y-170828000D02*
X86212380Y-164372000D01*
X85491380Y-170721000D02*
X85491380Y-168640000D01*
X85932380Y-166560000D02*
X85932380Y-164394000D01*
X83171380Y-168402000D02*
X83171380Y-166798000D01*
X85011380Y-166560000D02*
X85011380Y-164648000D01*
X84091380Y-166560000D02*
X84091380Y-165257000D01*
X84451380Y-170236000D02*
X84451380Y-168640000D01*
X84611380Y-166560000D02*
X84611380Y-164858000D01*
X85091380Y-170586000D02*
X85091380Y-168640000D01*
X84691380Y-170390000D02*
X84691380Y-168640000D01*
X84571380Y-166560000D02*
X84571380Y-164884000D01*
X84491380Y-166560000D02*
X84491380Y-164936000D01*
X83411380Y-169032000D02*
X83411380Y-166168000D01*
X84651380Y-170366000D02*
X84651380Y-168640000D01*
X84411380Y-170207000D02*
X84411380Y-168640000D01*
X83131380Y-168233000D02*
X83131380Y-166967000D01*
X84251380Y-166560000D02*
X84251380Y-165116000D01*
X84051380Y-169905000D02*
X84051380Y-168640000D01*
X85571380Y-170741000D02*
X85571380Y-168640000D01*
X84411380Y-166560000D02*
X84411380Y-164993000D01*
X85371380Y-170686000D02*
X85371380Y-168640000D01*
X83211380Y-168540000D02*
X83211380Y-166660000D01*
X86172380Y-170827000D02*
X86172380Y-164373000D01*
X85652380Y-170759000D02*
X85652380Y-168640000D01*
X85331380Y-166560000D02*
X85331380Y-164526000D01*
X83291380Y-168765000D02*
X83291380Y-166435000D01*
X85732380Y-170775000D02*
X85732380Y-168640000D01*
X85692380Y-166560000D02*
X85692380Y-164433000D01*
X84651380Y-166560000D02*
X84651380Y-164834000D01*
X83731380Y-169544000D02*
X83731380Y-165656000D01*
X84931380Y-166560000D02*
X84931380Y-164684000D01*
X84291380Y-170116000D02*
X84291380Y-168640000D01*
X84451380Y-166560000D02*
X84451380Y-164964000D01*
X84491380Y-170264000D02*
X84491380Y-168640000D01*
X85131380Y-166560000D02*
X85131380Y-164598000D01*
X83891380Y-169737000D02*
X83891380Y-165463000D01*
X84691380Y-166560000D02*
X84691380Y-164810000D01*
X84971380Y-170534000D02*
X84971380Y-168640000D01*
X84331380Y-170148000D02*
X84331380Y-168640000D01*
X85972380Y-166560000D02*
X85972380Y-164389000D01*
X86092380Y-166560000D02*
X86092380Y-164378000D01*
X85692380Y-170767000D02*
X85692380Y-168640000D01*
X84171380Y-170016000D02*
X84171380Y-168640000D01*
X85972380Y-170811000D02*
X85972380Y-168640000D01*
X85451380Y-170710000D02*
X85451380Y-168640000D01*
X89602380Y-167600000D02*
G75*
G03*
X89602380Y-167600000I-3270000J0D01*
G01*
X91040000Y-171690000D02*
X91040000Y-171090000D01*
X85410000Y-177110000D02*
X85410000Y-176110000D01*
X89990000Y-177110000D02*
X89990000Y-176110000D01*
X84360000Y-171090000D02*
X84360000Y-171690000D01*
X85160000Y-176110000D02*
X90240000Y-176110000D01*
X85160000Y-177110000D02*
X85160000Y-176110000D01*
X90240000Y-176110000D02*
X90240000Y-177110000D01*
X83780000Y-177110000D02*
X91620000Y-177110000D01*
X85960000Y-171690000D02*
X85960000Y-171090000D01*
X88500000Y-171690000D02*
X88500000Y-171090000D01*
X89440000Y-171690000D02*
X91040000Y-171690000D01*
X85160000Y-176110000D02*
X85410000Y-175580000D01*
X91620000Y-171090000D02*
X83780000Y-171090000D01*
X84360000Y-171690000D02*
X85960000Y-171690000D01*
X86900000Y-171090000D02*
X86900000Y-171690000D01*
X85410000Y-175580000D02*
X89990000Y-175580000D01*
X83780000Y-171090000D02*
X83780000Y-177110000D01*
X89440000Y-171090000D02*
X89440000Y-171690000D01*
X91620000Y-177110000D02*
X91620000Y-171090000D01*
X83490000Y-172120000D02*
X83490000Y-176120000D01*
X89990000Y-175580000D02*
X90240000Y-176110000D01*
X86900000Y-171690000D02*
X88500000Y-171690000D01*
X104017266Y-162677500D02*
X104491782Y-162677500D01*
X104017266Y-163722500D02*
X104491782Y-163722500D01*
X76657742Y-159427500D02*
X77132258Y-159427500D01*
X76657742Y-160472500D02*
X77132258Y-160472500D01*
X101362742Y-163922500D02*
X101837258Y-163922500D01*
X101362742Y-162877500D02*
X101837258Y-162877500D01*
X96340000Y-171670000D02*
X96340000Y-171070000D01*
X93250000Y-177090000D02*
X93250000Y-176090000D01*
X97280000Y-171070000D02*
X97280000Y-171670000D01*
X93250000Y-175560000D02*
X97830000Y-175560000D01*
X92200000Y-171070000D02*
X92200000Y-171670000D01*
X94740000Y-171670000D02*
X96340000Y-171670000D01*
X91620000Y-177090000D02*
X99460000Y-177090000D01*
X91620000Y-171070000D02*
X91620000Y-177090000D01*
X94740000Y-171070000D02*
X94740000Y-171670000D01*
X93000000Y-176090000D02*
X93250000Y-175560000D01*
X92200000Y-171670000D02*
X93800000Y-171670000D01*
X99460000Y-177090000D02*
X99460000Y-171070000D01*
X98880000Y-171670000D02*
X98880000Y-171070000D01*
X99460000Y-171070000D02*
X91620000Y-171070000D01*
X98080000Y-176090000D02*
X98080000Y-177090000D01*
X97280000Y-171670000D02*
X98880000Y-171670000D01*
X93800000Y-171670000D02*
X93800000Y-171070000D01*
X97830000Y-175560000D02*
X98080000Y-176090000D01*
X93000000Y-177090000D02*
X93000000Y-176090000D01*
X93000000Y-176090000D02*
X98080000Y-176090000D01*
X97830000Y-177090000D02*
X97830000Y-176090000D01*
X91330000Y-172100000D02*
X91330000Y-176100000D01*
X100851380Y-166560000D02*
X100851380Y-164630000D01*
X99371380Y-169314000D02*
X99371380Y-165886000D01*
X99731380Y-169782000D02*
X99731380Y-165418000D01*
X100531380Y-166560000D02*
X100531380Y-164788000D01*
X100611380Y-166560000D02*
X100611380Y-164744000D01*
X105317621Y-169754000D02*
X105317621Y-169124000D01*
X100691380Y-166560000D02*
X100691380Y-164704000D01*
X99771380Y-169824000D02*
X99771380Y-165376000D01*
X98931380Y-168233000D02*
X98931380Y-166967000D01*
X99931380Y-166560000D02*
X99931380Y-165220000D01*
X101852380Y-166560000D02*
X101852380Y-164382000D01*
X101211380Y-166560000D02*
X101211380Y-164502000D01*
X101051380Y-166560000D02*
X101051380Y-164553000D01*
X100651380Y-170476000D02*
X100651380Y-168640000D01*
X100691380Y-170496000D02*
X100691380Y-168640000D01*
X101772380Y-170811000D02*
X101772380Y-168640000D01*
X101612380Y-166560000D02*
X101612380Y-164411000D01*
X100971380Y-170618000D02*
X100971380Y-168640000D01*
X99611380Y-169644000D02*
X99611380Y-165556000D01*
X100331380Y-170290000D02*
X100331380Y-168640000D01*
X100731380Y-166560000D02*
X100731380Y-164684000D01*
X101732380Y-170806000D02*
X101732380Y-168640000D01*
X101492380Y-170767000D02*
X101492380Y-168640000D01*
X98971380Y-168402000D02*
X98971380Y-166798000D01*
X100051380Y-170084000D02*
X100051380Y-168640000D01*
X101411380Y-166560000D02*
X101411380Y-164450000D01*
X100931380Y-166560000D02*
X100931380Y-164598000D01*
X101652380Y-170795000D02*
X101652380Y-168640000D01*
X99931380Y-169980000D02*
X99931380Y-168640000D01*
X101452380Y-166560000D02*
X101452380Y-164441000D01*
X100371380Y-166560000D02*
X100371380Y-164884000D01*
X101652380Y-166560000D02*
X101652380Y-164405000D01*
X100891380Y-166560000D02*
X100891380Y-164614000D01*
X101291380Y-170721000D02*
X101291380Y-168640000D01*
X100091380Y-166560000D02*
X100091380Y-165084000D01*
X101692380Y-170801000D02*
X101692380Y-168640000D01*
X100251380Y-166560000D02*
X100251380Y-164964000D01*
X100971380Y-166560000D02*
X100971380Y-164582000D01*
X99331380Y-169250000D02*
X99331380Y-165950000D01*
X99451380Y-169434000D02*
X99451380Y-165766000D01*
X99531380Y-169544000D02*
X99531380Y-165656000D01*
X99971380Y-170016000D02*
X99971380Y-168640000D01*
X100131380Y-166560000D02*
X100131380Y-165052000D01*
X101131380Y-166560000D02*
X101131380Y-164526000D01*
X100651380Y-166560000D02*
X100651380Y-164724000D01*
X100771380Y-166560000D02*
X100771380Y-164666000D01*
X101251380Y-170710000D02*
X101251380Y-168640000D01*
X100251380Y-170236000D02*
X100251380Y-168640000D01*
X100491380Y-170390000D02*
X100491380Y-168640000D01*
X105632621Y-169439000D02*
X105002621Y-169439000D01*
X101371380Y-166560000D02*
X101371380Y-164459000D01*
X100731380Y-170516000D02*
X100731380Y-168640000D01*
X101131380Y-170674000D02*
X101131380Y-168640000D01*
X99211380Y-169032000D02*
X99211380Y-166168000D01*
X100531380Y-170412000D02*
X100531380Y-168640000D01*
X100091380Y-170116000D02*
X100091380Y-168640000D01*
X102092380Y-170830000D02*
X102092380Y-164370000D01*
X101211380Y-170698000D02*
X101211380Y-168640000D01*
X101812380Y-170815000D02*
X101812380Y-168640000D01*
X99851380Y-166560000D02*
X99851380Y-165295000D01*
X101171380Y-170686000D02*
X101171380Y-168640000D01*
X100171380Y-166560000D02*
X100171380Y-165022000D01*
X100411380Y-170342000D02*
X100411380Y-168640000D01*
X101892380Y-166560000D02*
X101892380Y-164378000D01*
X100331380Y-166560000D02*
X100331380Y-164910000D01*
X99491380Y-169490000D02*
X99491380Y-165710000D01*
X99011380Y-168540000D02*
X99011380Y-166660000D01*
X99131380Y-168862000D02*
X99131380Y-166338000D01*
X100291380Y-170264000D02*
X100291380Y-168640000D01*
X101852380Y-170818000D02*
X101852380Y-168640000D01*
X101812380Y-166560000D02*
X101812380Y-164385000D01*
X101171380Y-166560000D02*
X101171380Y-164514000D01*
X100211380Y-170207000D02*
X100211380Y-168640000D01*
X99971380Y-166560000D02*
X99971380Y-165184000D01*
X99891380Y-166560000D02*
X99891380Y-165257000D01*
X101972380Y-170827000D02*
X101972380Y-164373000D01*
X99291380Y-169181000D02*
X99291380Y-166019000D01*
X101411380Y-170750000D02*
X101411380Y-168640000D01*
X100371380Y-170316000D02*
X100371380Y-168640000D01*
X100011380Y-170050000D02*
X100011380Y-168640000D01*
X101452380Y-170759000D02*
X101452380Y-168640000D01*
X101492380Y-166560000D02*
X101492380Y-164433000D01*
X100931380Y-170602000D02*
X100931380Y-168640000D01*
X101011380Y-170633000D02*
X101011380Y-168640000D01*
X101011380Y-166560000D02*
X101011380Y-164567000D01*
X101932380Y-170824000D02*
X101932380Y-164376000D01*
X102052380Y-170830000D02*
X102052380Y-164370000D01*
X99091380Y-168765000D02*
X99091380Y-166435000D01*
X100771380Y-170534000D02*
X100771380Y-168640000D01*
X99851380Y-169905000D02*
X99851380Y-168640000D01*
X100811380Y-166560000D02*
X100811380Y-164648000D01*
X101612380Y-170789000D02*
X101612380Y-168640000D01*
X101572380Y-166560000D02*
X101572380Y-164418000D01*
X99811380Y-169865000D02*
X99811380Y-165335000D01*
X100011380Y-166560000D02*
X100011380Y-165150000D01*
X100051380Y-166560000D02*
X100051380Y-165116000D01*
X101732380Y-166560000D02*
X101732380Y-164394000D01*
X100811380Y-170552000D02*
X100811380Y-168640000D01*
X100571380Y-166560000D02*
X100571380Y-164766000D01*
X99411380Y-169376000D02*
X99411380Y-165824000D01*
X99691380Y-169737000D02*
X99691380Y-165463000D01*
X101532380Y-166560000D02*
X101532380Y-164425000D01*
X101051380Y-170647000D02*
X101051380Y-168640000D01*
X99251380Y-169109000D02*
X99251380Y-166091000D01*
X101692380Y-166560000D02*
X101692380Y-164399000D01*
X99571380Y-169595000D02*
X99571380Y-165605000D01*
X101532380Y-170775000D02*
X101532380Y-168640000D01*
X101251380Y-166560000D02*
X101251380Y-164490000D01*
X100451380Y-170366000D02*
X100451380Y-168640000D01*
X101892380Y-170822000D02*
X101892380Y-168640000D01*
X101331380Y-166560000D02*
X101331380Y-164469000D01*
X100171380Y-170178000D02*
X100171380Y-168640000D01*
X100851380Y-170570000D02*
X100851380Y-168640000D01*
X102132380Y-170830000D02*
X102132380Y-164370000D01*
X100411380Y-166560000D02*
X100411380Y-164858000D01*
X101772380Y-166560000D02*
X101772380Y-164389000D01*
X100291380Y-166560000D02*
X100291380Y-164936000D01*
X100491380Y-166560000D02*
X100491380Y-164810000D01*
X101091380Y-170661000D02*
X101091380Y-168640000D01*
X101572380Y-170782000D02*
X101572380Y-168640000D01*
X99891380Y-169943000D02*
X99891380Y-168640000D01*
X101091380Y-166560000D02*
X101091380Y-164539000D01*
X99051380Y-168659000D02*
X99051380Y-166541000D01*
X98891380Y-168002000D02*
X98891380Y-167198000D01*
X101371380Y-170741000D02*
X101371380Y-168640000D01*
X101331380Y-170731000D02*
X101331380Y-168640000D01*
X100571380Y-170434000D02*
X100571380Y-168640000D01*
X102012380Y-170828000D02*
X102012380Y-164372000D01*
X100451380Y-166560000D02*
X100451380Y-164834000D01*
X99171380Y-168950000D02*
X99171380Y-166250000D01*
X99651380Y-169692000D02*
X99651380Y-165508000D01*
X100891380Y-170586000D02*
X100891380Y-168640000D01*
X100611380Y-170456000D02*
X100611380Y-168640000D01*
X101291380Y-166560000D02*
X101291380Y-164479000D01*
X100211380Y-166560000D02*
X100211380Y-164993000D01*
X100131380Y-170148000D02*
X100131380Y-168640000D01*
X105402380Y-167600000D02*
G75*
G03*
X105402380Y-167600000I-3270000J0D01*
G01*
X73770000Y-152305000D02*
X73770000Y-154005000D01*
X73770000Y-152305000D02*
X76320000Y-152305000D01*
X73770000Y-154005000D02*
X76320000Y-154005000D01*
X94072380Y-170827000D02*
X94072380Y-164373000D01*
X92231380Y-170148000D02*
X92231380Y-168640000D01*
X92551380Y-166560000D02*
X92551380Y-164834000D01*
X92631380Y-170412000D02*
X92631380Y-168640000D01*
X93231380Y-170674000D02*
X93231380Y-168640000D01*
X93071380Y-170618000D02*
X93071380Y-168640000D01*
X91951380Y-166560000D02*
X91951380Y-165295000D01*
X94192380Y-170830000D02*
X94192380Y-164370000D01*
X93592380Y-170767000D02*
X93592380Y-168640000D01*
X93632380Y-170775000D02*
X93632380Y-168640000D01*
X93952380Y-166560000D02*
X93952380Y-164382000D01*
X91711380Y-169644000D02*
X91711380Y-165556000D01*
X93111380Y-170633000D02*
X93111380Y-168640000D01*
X91831380Y-169782000D02*
X91831380Y-165418000D01*
X93191380Y-170661000D02*
X93191380Y-168640000D01*
X92271380Y-170178000D02*
X92271380Y-168640000D01*
X93672380Y-170782000D02*
X93672380Y-168640000D01*
X93431380Y-166560000D02*
X93431380Y-164469000D01*
X92671380Y-170434000D02*
X92671380Y-168640000D01*
X92191380Y-166560000D02*
X92191380Y-165084000D01*
X92471380Y-166560000D02*
X92471380Y-164884000D01*
X92591380Y-170390000D02*
X92591380Y-168640000D01*
X97417621Y-169754000D02*
X97417621Y-169124000D01*
X91871380Y-169824000D02*
X91871380Y-165376000D01*
X91751380Y-169692000D02*
X91751380Y-165508000D01*
X92311380Y-170207000D02*
X92311380Y-168640000D01*
X92511380Y-170342000D02*
X92511380Y-168640000D01*
X92391380Y-166560000D02*
X92391380Y-164936000D01*
X92471380Y-170316000D02*
X92471380Y-168640000D01*
X92751380Y-170476000D02*
X92751380Y-168640000D01*
X92031380Y-166560000D02*
X92031380Y-165220000D01*
X92871380Y-166560000D02*
X92871380Y-164666000D01*
X91231380Y-168862000D02*
X91231380Y-166338000D01*
X93912380Y-170815000D02*
X93912380Y-168640000D01*
X93992380Y-166560000D02*
X93992380Y-164378000D01*
X97732621Y-169439000D02*
X97102621Y-169439000D01*
X92351380Y-166560000D02*
X92351380Y-164964000D01*
X92911380Y-166560000D02*
X92911380Y-164648000D01*
X92671380Y-166560000D02*
X92671380Y-164766000D01*
X91431380Y-169250000D02*
X91431380Y-165950000D01*
X91151380Y-168659000D02*
X91151380Y-166541000D01*
X93832380Y-166560000D02*
X93832380Y-164394000D01*
X91511380Y-169376000D02*
X91511380Y-165824000D01*
X92551380Y-170366000D02*
X92551380Y-168640000D01*
X91391380Y-169181000D02*
X91391380Y-166019000D01*
X92071380Y-166560000D02*
X92071380Y-165184000D01*
X92911380Y-170552000D02*
X92911380Y-168640000D01*
X92111380Y-166560000D02*
X92111380Y-165150000D01*
X92591380Y-166560000D02*
X92591380Y-164810000D01*
X93151380Y-166560000D02*
X93151380Y-164553000D01*
X93231380Y-166560000D02*
X93231380Y-164526000D01*
X93431380Y-170731000D02*
X93431380Y-168640000D01*
X91071380Y-168402000D02*
X91071380Y-166798000D01*
X91471380Y-169314000D02*
X91471380Y-165886000D01*
X91311380Y-169032000D02*
X91311380Y-166168000D01*
X92791380Y-166560000D02*
X92791380Y-164704000D01*
X91991380Y-166560000D02*
X91991380Y-165257000D01*
X93752380Y-166560000D02*
X93752380Y-164405000D01*
X91591380Y-169490000D02*
X91591380Y-165710000D01*
X93311380Y-166560000D02*
X93311380Y-164502000D01*
X92351380Y-170236000D02*
X92351380Y-168640000D01*
X93271380Y-170686000D02*
X93271380Y-168640000D01*
X92111380Y-170050000D02*
X92111380Y-168640000D01*
X93391380Y-166560000D02*
X93391380Y-164479000D01*
X92511380Y-166560000D02*
X92511380Y-164858000D01*
X94152380Y-170830000D02*
X94152380Y-164370000D01*
X93031380Y-166560000D02*
X93031380Y-164598000D01*
X93391380Y-170721000D02*
X93391380Y-168640000D01*
X92831380Y-166560000D02*
X92831380Y-164684000D01*
X91111380Y-168540000D02*
X91111380Y-166660000D01*
X92191380Y-170116000D02*
X92191380Y-168640000D01*
X92711380Y-170456000D02*
X92711380Y-168640000D01*
X93511380Y-166560000D02*
X93511380Y-164450000D01*
X91191380Y-168765000D02*
X91191380Y-166435000D01*
X92991380Y-170586000D02*
X92991380Y-168640000D01*
X93031380Y-170602000D02*
X93031380Y-168640000D01*
X92991380Y-166560000D02*
X92991380Y-164614000D01*
X92951380Y-170570000D02*
X92951380Y-168640000D01*
X91351380Y-169109000D02*
X91351380Y-166091000D01*
X92431380Y-170290000D02*
X92431380Y-168640000D01*
X92151380Y-166560000D02*
X92151380Y-165116000D01*
X93552380Y-166560000D02*
X93552380Y-164441000D01*
X93111380Y-166560000D02*
X93111380Y-164567000D01*
X91551380Y-169434000D02*
X91551380Y-165766000D01*
X93351380Y-170710000D02*
X93351380Y-168640000D01*
X93271380Y-166560000D02*
X93271380Y-164514000D01*
X93471380Y-170741000D02*
X93471380Y-168640000D01*
X92951380Y-166560000D02*
X92951380Y-164630000D01*
X93471380Y-166560000D02*
X93471380Y-164459000D01*
X92271380Y-166560000D02*
X92271380Y-165022000D01*
X94112380Y-170828000D02*
X94112380Y-164372000D01*
X91031380Y-168233000D02*
X91031380Y-166967000D01*
X94232380Y-170830000D02*
X94232380Y-164370000D01*
X93151380Y-170647000D02*
X93151380Y-168640000D01*
X93792380Y-166560000D02*
X93792380Y-164399000D01*
X94032380Y-170824000D02*
X94032380Y-164376000D01*
X91951380Y-169905000D02*
X91951380Y-168640000D01*
X93592380Y-166560000D02*
X93592380Y-164433000D01*
X92151380Y-170084000D02*
X92151380Y-168640000D01*
X93792380Y-170801000D02*
X93792380Y-168640000D01*
X93672380Y-166560000D02*
X93672380Y-164418000D01*
X93552380Y-170759000D02*
X93552380Y-168640000D01*
X93872380Y-166560000D02*
X93872380Y-164389000D01*
X91791380Y-169737000D02*
X91791380Y-165463000D01*
X92071380Y-170016000D02*
X92071380Y-168640000D01*
X91991380Y-169943000D02*
X91991380Y-168640000D01*
X92791380Y-170496000D02*
X92791380Y-168640000D01*
X93992380Y-170822000D02*
X93992380Y-168640000D01*
X93071380Y-166560000D02*
X93071380Y-164582000D01*
X92751380Y-166560000D02*
X92751380Y-164724000D01*
X92391380Y-170264000D02*
X92391380Y-168640000D01*
X91271380Y-168950000D02*
X91271380Y-166250000D01*
X91671380Y-169595000D02*
X91671380Y-165605000D01*
X93511380Y-170750000D02*
X93511380Y-168640000D01*
X93872380Y-170811000D02*
X93872380Y-168640000D01*
X93912380Y-166560000D02*
X93912380Y-164385000D01*
X92871380Y-170534000D02*
X92871380Y-168640000D01*
X92831380Y-170516000D02*
X92831380Y-168640000D01*
X92711380Y-166560000D02*
X92711380Y-164744000D01*
X93712380Y-166560000D02*
X93712380Y-164411000D01*
X93752380Y-170795000D02*
X93752380Y-168640000D01*
X91631380Y-169544000D02*
X91631380Y-165656000D01*
X90991380Y-168002000D02*
X90991380Y-167198000D01*
X92311380Y-166560000D02*
X92311380Y-164993000D01*
X93311380Y-170698000D02*
X93311380Y-168640000D01*
X93351380Y-166560000D02*
X93351380Y-164490000D01*
X93832380Y-170806000D02*
X93832380Y-168640000D01*
X92431380Y-166560000D02*
X92431380Y-164910000D01*
X92231380Y-166560000D02*
X92231380Y-165052000D01*
X93712380Y-170789000D02*
X93712380Y-168640000D01*
X91911380Y-169865000D02*
X91911380Y-165335000D01*
X93952380Y-170818000D02*
X93952380Y-168640000D01*
X93191380Y-166560000D02*
X93191380Y-164539000D01*
X93632380Y-166560000D02*
X93632380Y-164425000D01*
X92031380Y-169980000D02*
X92031380Y-168640000D01*
X92631380Y-166560000D02*
X92631380Y-164788000D01*
X97502380Y-167600000D02*
G75*
G03*
X97502380Y-167600000I-3270000J0D01*
G01*
X107510000Y-170787500D02*
X119890000Y-170787500D01*
X110160000Y-170787500D02*
X110160000Y-168977500D01*
X114240000Y-163677500D02*
X113160000Y-163677500D01*
X119890000Y-161967500D02*
X107510000Y-161967500D01*
X119890000Y-169977500D02*
X117350000Y-169977500D01*
X110160000Y-168977500D02*
X112160000Y-168977500D01*
X118980000Y-168977500D02*
X108420000Y-168977500D01*
X117240000Y-168977500D02*
X117240000Y-170787500D01*
X107510000Y-161967500D02*
X107510000Y-170787500D01*
X116540000Y-171587500D02*
X115940000Y-171587500D01*
X119890000Y-170787500D02*
X119890000Y-161967500D01*
X116240000Y-170987500D02*
X116540000Y-171587500D01*
X108420000Y-168977500D02*
X108420000Y-163677500D01*
X112160000Y-170787500D02*
X110160000Y-170787500D01*
X108420000Y-163677500D02*
X109160000Y-163677500D01*
X115240000Y-168977500D02*
X117240000Y-168977500D01*
X115240000Y-169977500D02*
X112160000Y-169977500D01*
X107510000Y-169977500D02*
X110050000Y-169977500D01*
X115240000Y-170787500D02*
X115240000Y-168977500D01*
X115940000Y-171587500D02*
X116240000Y-170987500D01*
X118240000Y-163677500D02*
X118980000Y-163677500D01*
X117240000Y-170787500D02*
X115240000Y-170787500D01*
X112160000Y-168977500D02*
X112160000Y-170787500D01*
X118980000Y-163677500D02*
X118980000Y-168977500D01*
X113160000Y-163677500D02*
G75*
G03*
X109173158Y-163661679I-2000000J-1650000D01*
G01*
X118240000Y-163677500D02*
G75*
G03*
X114253158Y-163661679I-2000000J-1650000D01*
G01*
X87430000Y-151895000D02*
X87430000Y-154555000D01*
X84830000Y-151895000D02*
X84830000Y-154555000D01*
X87430000Y-151895000D02*
X84830000Y-151895000D01*
X87430000Y-154555000D02*
X84830000Y-154555000D01*
X90030000Y-153225000D02*
X90030000Y-154555000D01*
X90030000Y-154555000D02*
X88700000Y-154555000D01*
X82922500Y-168187258D02*
X82922500Y-167712742D01*
X81877500Y-168187258D02*
X81877500Y-167712742D01*
X77360000Y-177110000D02*
X77360000Y-176110000D01*
X77360000Y-176110000D02*
X82440000Y-176110000D01*
X82190000Y-175580000D02*
X82440000Y-176110000D01*
X81640000Y-171690000D02*
X83240000Y-171690000D01*
X83820000Y-177110000D02*
X83820000Y-171090000D01*
X83820000Y-171090000D02*
X75980000Y-171090000D01*
X81640000Y-171090000D02*
X81640000Y-171690000D01*
X76560000Y-171090000D02*
X76560000Y-171690000D01*
X75690000Y-172120000D02*
X75690000Y-176120000D01*
X78160000Y-171690000D02*
X78160000Y-171090000D01*
X75980000Y-171090000D02*
X75980000Y-177110000D01*
X79100000Y-171690000D02*
X80700000Y-171690000D01*
X77610000Y-175580000D02*
X82190000Y-175580000D01*
X77360000Y-176110000D02*
X77610000Y-175580000D01*
X82190000Y-177110000D02*
X82190000Y-176110000D01*
X83240000Y-171690000D02*
X83240000Y-171090000D01*
X75980000Y-177110000D02*
X83820000Y-177110000D01*
X80700000Y-171690000D02*
X80700000Y-171090000D01*
X79100000Y-171090000D02*
X79100000Y-171690000D01*
X77610000Y-177110000D02*
X77610000Y-176110000D01*
X76560000Y-171690000D02*
X78160000Y-171690000D01*
X82440000Y-176110000D02*
X82440000Y-177110000D01*
X78392500Y-155892258D02*
X78392500Y-155417742D01*
X77347500Y-155892258D02*
X77347500Y-155417742D01*
X74380000Y-163190000D02*
X74380000Y-162540000D01*
X75080000Y-157620000D02*
X74690000Y-157620000D01*
X70080000Y-155570000D02*
X70290000Y-155570000D01*
X72650000Y-163190000D02*
X74380000Y-163190000D01*
X70080000Y-163190000D02*
X70290000Y-163190000D01*
X75080000Y-157620000D02*
X75080000Y-158070000D01*
X72650000Y-155570000D02*
X74380000Y-155570000D01*
X74380000Y-155570000D02*
X74380000Y-156230000D01*
X75010000Y-140865000D02*
X74620000Y-140865000D01*
X70010000Y-146435000D02*
X70220000Y-146435000D01*
X70010000Y-138815000D02*
X70220000Y-138815000D01*
X72580000Y-146435000D02*
X74310000Y-146435000D01*
X72580000Y-138815000D02*
X74310000Y-138815000D01*
X74310000Y-138815000D02*
X74310000Y-139475000D01*
X74310000Y-146435000D02*
X74310000Y-145785000D01*
X75010000Y-140865000D02*
X75010000Y-141315000D01*
X98340580Y-162290000D02*
X98059420Y-162290000D01*
X98340580Y-163310000D02*
X98059420Y-163310000D01*
X96610000Y-162134420D02*
X96610000Y-162415580D01*
X95590000Y-162134420D02*
X95590000Y-162415580D01*
X88935000Y-156390000D02*
X88285000Y-156390000D01*
X88935000Y-157040000D02*
X88935000Y-156390000D01*
X81715000Y-157040000D02*
X81715000Y-156390000D01*
X88935000Y-162960000D02*
X88935000Y-163610000D01*
X88935000Y-163610000D02*
X88285000Y-163610000D01*
X81715000Y-156390000D02*
X82365000Y-156390000D01*
X81715000Y-162960000D02*
X81715000Y-163610000D01*
X106572500Y-167937258D02*
X106572500Y-167462742D01*
X105527500Y-167937258D02*
X105527500Y-167462742D01*
X90772500Y-167887258D02*
X90772500Y-167412742D01*
X89727500Y-167887258D02*
X89727500Y-167412742D01*
X76047500Y-155417742D02*
X76047500Y-155892258D01*
X77092500Y-155417742D02*
X77092500Y-155892258D01*
X75411380Y-168540000D02*
X75411380Y-166660000D01*
X76371380Y-170016000D02*
X76371380Y-168640000D01*
X77451380Y-170647000D02*
X77451380Y-168640000D01*
X77611380Y-170698000D02*
X77611380Y-168640000D01*
X76171380Y-169824000D02*
X76171380Y-165376000D01*
X75971380Y-169595000D02*
X75971380Y-165605000D01*
X76011380Y-169644000D02*
X76011380Y-165556000D01*
X81717621Y-169754000D02*
X81717621Y-169124000D01*
X76531380Y-170148000D02*
X76531380Y-168640000D01*
X78332380Y-170824000D02*
X78332380Y-164376000D01*
X76931380Y-166560000D02*
X76931380Y-164788000D01*
X77251380Y-166560000D02*
X77251380Y-164630000D01*
X77731380Y-166560000D02*
X77731380Y-164469000D01*
X76251380Y-169905000D02*
X76251380Y-168640000D01*
X78252380Y-166560000D02*
X78252380Y-164382000D01*
X78052380Y-170795000D02*
X78052380Y-168640000D01*
X78492380Y-170830000D02*
X78492380Y-164370000D01*
X77371380Y-170618000D02*
X77371380Y-168640000D01*
X76971380Y-166560000D02*
X76971380Y-164766000D01*
X76211380Y-169865000D02*
X76211380Y-165335000D01*
X77211380Y-170552000D02*
X77211380Y-168640000D01*
X75931380Y-169544000D02*
X75931380Y-165656000D01*
X76331380Y-166560000D02*
X76331380Y-165220000D01*
X76451380Y-170084000D02*
X76451380Y-168640000D01*
X76371380Y-166560000D02*
X76371380Y-165184000D01*
X76731380Y-170290000D02*
X76731380Y-168640000D01*
X77811380Y-170750000D02*
X77811380Y-168640000D01*
X77892380Y-170767000D02*
X77892380Y-168640000D01*
X75851380Y-169434000D02*
X75851380Y-165766000D01*
X77131380Y-166560000D02*
X77131380Y-164684000D01*
X78012380Y-170789000D02*
X78012380Y-168640000D01*
X77291380Y-170586000D02*
X77291380Y-168640000D01*
X78212380Y-170815000D02*
X78212380Y-168640000D01*
X75331380Y-168233000D02*
X75331380Y-166967000D01*
X77331380Y-166560000D02*
X77331380Y-164598000D01*
X76771380Y-170316000D02*
X76771380Y-168640000D01*
X75731380Y-169250000D02*
X75731380Y-165950000D01*
X77091380Y-166560000D02*
X77091380Y-164704000D01*
X77571380Y-166560000D02*
X77571380Y-164514000D01*
X77171380Y-166560000D02*
X77171380Y-164666000D01*
X77051380Y-166560000D02*
X77051380Y-164724000D01*
X76851380Y-166560000D02*
X76851380Y-164834000D01*
X78132380Y-166560000D02*
X78132380Y-164394000D01*
X75691380Y-169181000D02*
X75691380Y-166019000D01*
X78172380Y-170811000D02*
X78172380Y-168640000D01*
X77531380Y-166560000D02*
X77531380Y-164526000D01*
X75771380Y-169314000D02*
X75771380Y-165886000D01*
X78012380Y-166560000D02*
X78012380Y-164411000D01*
X76691380Y-166560000D02*
X76691380Y-164936000D01*
X76891380Y-166560000D02*
X76891380Y-164810000D01*
X76851380Y-170366000D02*
X76851380Y-168640000D01*
X77611380Y-166560000D02*
X77611380Y-164502000D01*
X77932380Y-170775000D02*
X77932380Y-168640000D01*
X77852380Y-170759000D02*
X77852380Y-168640000D01*
X78092380Y-170801000D02*
X78092380Y-168640000D01*
X76971380Y-170434000D02*
X76971380Y-168640000D01*
X75371380Y-168402000D02*
X75371380Y-166798000D01*
X76771380Y-166560000D02*
X76771380Y-164884000D01*
X77892380Y-166560000D02*
X77892380Y-164433000D01*
X76571380Y-166560000D02*
X76571380Y-165022000D01*
X77011380Y-170456000D02*
X77011380Y-168640000D01*
X77491380Y-170661000D02*
X77491380Y-168640000D01*
X76291380Y-169943000D02*
X76291380Y-168640000D01*
X76251380Y-166560000D02*
X76251380Y-165295000D01*
X77651380Y-166560000D02*
X77651380Y-164490000D01*
X75451380Y-168659000D02*
X75451380Y-166541000D01*
X75491380Y-168765000D02*
X75491380Y-166435000D01*
X76731380Y-166560000D02*
X76731380Y-164910000D01*
X78532380Y-170830000D02*
X78532380Y-164370000D01*
X77011380Y-166560000D02*
X77011380Y-164744000D01*
X77811380Y-166560000D02*
X77811380Y-164450000D01*
X76811380Y-170342000D02*
X76811380Y-168640000D01*
X78092380Y-166560000D02*
X78092380Y-164399000D01*
X77852380Y-166560000D02*
X77852380Y-164441000D01*
X75811380Y-169376000D02*
X75811380Y-165824000D01*
X78452380Y-170830000D02*
X78452380Y-164370000D01*
X76571380Y-170178000D02*
X76571380Y-168640000D01*
X77972380Y-170782000D02*
X77972380Y-168640000D01*
X76491380Y-166560000D02*
X76491380Y-165084000D01*
X77371380Y-166560000D02*
X77371380Y-164582000D01*
X76411380Y-166560000D02*
X76411380Y-165150000D01*
X77491380Y-166560000D02*
X77491380Y-164539000D01*
X75291380Y-168002000D02*
X75291380Y-167198000D01*
X78292380Y-170822000D02*
X78292380Y-168640000D01*
X77411380Y-170633000D02*
X77411380Y-168640000D01*
X75571380Y-168950000D02*
X75571380Y-166250000D01*
X78292380Y-166560000D02*
X78292380Y-164378000D01*
X82032621Y-169439000D02*
X81402621Y-169439000D01*
X78412380Y-170828000D02*
X78412380Y-164372000D01*
X76051380Y-169692000D02*
X76051380Y-165508000D01*
X78252380Y-170818000D02*
X78252380Y-168640000D01*
X76611380Y-170207000D02*
X76611380Y-168640000D01*
X76291380Y-166560000D02*
X76291380Y-165257000D01*
X77571380Y-170686000D02*
X77571380Y-168640000D01*
X77411380Y-166560000D02*
X77411380Y-164567000D01*
X77211380Y-166560000D02*
X77211380Y-164648000D01*
X76331380Y-169980000D02*
X76331380Y-168640000D01*
X77051380Y-170476000D02*
X77051380Y-168640000D01*
X77691380Y-170721000D02*
X77691380Y-168640000D01*
X76891380Y-170390000D02*
X76891380Y-168640000D01*
X75891380Y-169490000D02*
X75891380Y-165710000D01*
X78052380Y-166560000D02*
X78052380Y-164405000D01*
X77171380Y-170534000D02*
X77171380Y-168640000D01*
X77451380Y-166560000D02*
X77451380Y-164553000D01*
X76131380Y-169782000D02*
X76131380Y-165418000D01*
X78372380Y-170827000D02*
X78372380Y-164373000D01*
X77771380Y-166560000D02*
X77771380Y-164459000D01*
X77531380Y-170674000D02*
X77531380Y-168640000D01*
X77691380Y-166560000D02*
X77691380Y-164479000D01*
X75611380Y-169032000D02*
X75611380Y-166168000D01*
X75531380Y-168862000D02*
X75531380Y-166338000D01*
X78212380Y-166560000D02*
X78212380Y-164385000D01*
X76091380Y-169737000D02*
X76091380Y-165463000D01*
X77331380Y-170602000D02*
X77331380Y-168640000D01*
X77972380Y-166560000D02*
X77972380Y-164418000D01*
X77131380Y-170516000D02*
X77131380Y-168640000D01*
X77731380Y-170731000D02*
X77731380Y-168640000D01*
X75651380Y-169109000D02*
X75651380Y-166091000D01*
X76411380Y-170050000D02*
X76411380Y-168640000D01*
X76691380Y-170264000D02*
X76691380Y-168640000D01*
X76451380Y-166560000D02*
X76451380Y-165116000D01*
X76531380Y-166560000D02*
X76531380Y-165052000D01*
X76651380Y-170236000D02*
X76651380Y-168640000D01*
X78132380Y-170806000D02*
X78132380Y-168640000D01*
X77091380Y-170496000D02*
X77091380Y-168640000D01*
X76651380Y-166560000D02*
X76651380Y-164964000D01*
X78172380Y-166560000D02*
X78172380Y-164389000D01*
X77291380Y-166560000D02*
X77291380Y-164614000D01*
X77771380Y-170741000D02*
X77771380Y-168640000D01*
X77251380Y-170570000D02*
X77251380Y-168640000D01*
X77651380Y-170710000D02*
X77651380Y-168640000D01*
X76811380Y-166560000D02*
X76811380Y-164858000D01*
X76611380Y-166560000D02*
X76611380Y-164993000D01*
X76931380Y-170412000D02*
X76931380Y-168640000D01*
X76491380Y-170116000D02*
X76491380Y-168640000D01*
X77932380Y-166560000D02*
X77932380Y-164425000D01*
X81802380Y-167600000D02*
G75*
G03*
X81802380Y-167600000I-3270000J0D01*
G01*
X101740580Y-161790000D02*
X101459420Y-161790000D01*
X101740580Y-162810000D02*
X101459420Y-162810000D01*
%LPC*%
D12*
X75470000Y-154830000D03*
X75470000Y-156480000D03*
D13*
X76075000Y-158800000D03*
X77725000Y-158800000D03*
D14*
X91650000Y-162875000D03*
D15*
X94190000Y-162875000D03*
D16*
X70735000Y-164979533D03*
X72310000Y-164979533D03*
D17*
X77200000Y-133145000D03*
X77200000Y-134415000D03*
X77200000Y-135685000D03*
X77200000Y-136955000D03*
X77200000Y-138225000D03*
X77200000Y-139495000D03*
X77200000Y-140765000D03*
X77200000Y-142035000D03*
X77200000Y-143305000D03*
X77200000Y-144575000D03*
X77200000Y-145845000D03*
X77200000Y-147115000D03*
X77200000Y-148385000D03*
X77200000Y-149655000D03*
D18*
X79985000Y-150655000D03*
X81255000Y-150655000D03*
X82525000Y-150655000D03*
X83795000Y-150655000D03*
X85065000Y-150655000D03*
X86335000Y-150655000D03*
X87605000Y-150655000D03*
X88875000Y-150655000D03*
X90145000Y-150655000D03*
X91415000Y-150655000D03*
D17*
X94200000Y-149655000D03*
X94200000Y-148385000D03*
X94200000Y-147115000D03*
X94200000Y-145845000D03*
X94200000Y-144575000D03*
X94200000Y-143305000D03*
X94200000Y-142035000D03*
X94200000Y-140765000D03*
X94200000Y-139495000D03*
X94200000Y-138225000D03*
X94200000Y-136955000D03*
X94200000Y-135685000D03*
X94200000Y-134415000D03*
X94200000Y-133145000D03*
D19*
X84700000Y-140645000D03*
D20*
X109600000Y-159785000D03*
X109600000Y-137815000D03*
D21*
X109600000Y-148800000D03*
D13*
X76045000Y-157655000D03*
X77695000Y-157655000D03*
D22*
X100800000Y-174100000D03*
D23*
X103340000Y-174100000D03*
X105880000Y-174100000D03*
D24*
X98150000Y-168625000D03*
X98150000Y-166975000D03*
D25*
X97625000Y-145800000D03*
X95975000Y-145800000D03*
D26*
X96200000Y-160250000D03*
X96200000Y-158700000D03*
D14*
X101950000Y-133375000D03*
D15*
X104490000Y-133375000D03*
X107030000Y-133375000D03*
X109570000Y-133375000D03*
D27*
X93000000Y-160075000D03*
D15*
X93000000Y-157535000D03*
X93000000Y-154995000D03*
D28*
X98100000Y-161675000D03*
X98500000Y-161675000D03*
X98900000Y-161675000D03*
D29*
X99575000Y-161000000D03*
X99575000Y-160600000D03*
X99575000Y-160200000D03*
D28*
X98900000Y-159525000D03*
X98500000Y-159525000D03*
X98100000Y-159525000D03*
D29*
X97425000Y-160200000D03*
X97425000Y-160600000D03*
X97425000Y-161000000D03*
D30*
X98500000Y-160600000D03*
D16*
X97412500Y-163900000D03*
X98987500Y-163900000D03*
D25*
X97525000Y-147100000D03*
X95875000Y-147100000D03*
D31*
X117000000Y-174000000D03*
D32*
X82900000Y-153225000D03*
D15*
X80360000Y-153225000D03*
D33*
X111450000Y-171712500D03*
X110800000Y-171712500D03*
X110150000Y-171712500D03*
X110150000Y-173487500D03*
X110800000Y-173487500D03*
X111450000Y-173487500D03*
D34*
X110800000Y-172600000D03*
D25*
X75025000Y-165000000D03*
X73375000Y-165000000D03*
D35*
X87582380Y-167600000D03*
D36*
X85082380Y-167600000D03*
D22*
X85160000Y-174120000D03*
D23*
X87700000Y-174120000D03*
X90240000Y-174120000D03*
D13*
X103429524Y-163200000D03*
X105079524Y-163200000D03*
X76070000Y-159950000D03*
X77720000Y-159950000D03*
X100775000Y-163400000D03*
X102425000Y-163400000D03*
D31*
X117000000Y-135000000D03*
D22*
X93000000Y-174100000D03*
D23*
X95540000Y-174100000D03*
X98080000Y-174100000D03*
D35*
X103382380Y-167600000D03*
D36*
X100882380Y-167600000D03*
D37*
X74220000Y-153155000D03*
X76320000Y-153155000D03*
D35*
X95482380Y-167600000D03*
D36*
X92982380Y-167600000D03*
D38*
X116240000Y-165877500D03*
D39*
X111160000Y-165877500D03*
D31*
X73000000Y-135000000D03*
X73000000Y-174000000D03*
D32*
X88700000Y-153225000D03*
D15*
X86160000Y-153225000D03*
D24*
X82400000Y-168775000D03*
X82400000Y-167125000D03*
D22*
X77360000Y-174120000D03*
D23*
X79900000Y-174120000D03*
X82440000Y-174120000D03*
D24*
X77870000Y-156480000D03*
X77870000Y-154830000D03*
D40*
X74120000Y-158080000D03*
X74120000Y-158730000D03*
X74120000Y-159380000D03*
X74120000Y-160030000D03*
X74120000Y-160680000D03*
D41*
X71470000Y-158255000D03*
D42*
X73700000Y-157060000D03*
D41*
X71470000Y-160505000D03*
D43*
X71470000Y-162955000D03*
D42*
X73700000Y-161700000D03*
D43*
X71470000Y-155805000D03*
D40*
X74050000Y-141325000D03*
X74050000Y-141975000D03*
X74050000Y-142625000D03*
X74050000Y-143275000D03*
X74050000Y-143925000D03*
D42*
X73630000Y-140305000D03*
D41*
X71400000Y-143750000D03*
D43*
X71400000Y-139050000D03*
D41*
X71400000Y-141500000D03*
D43*
X71400000Y-146200000D03*
D42*
X73630000Y-144945000D03*
D44*
X98975000Y-162800000D03*
X97425000Y-162800000D03*
D45*
X96100000Y-161500000D03*
X96100000Y-163050000D03*
D46*
X82725000Y-163437500D03*
X83125000Y-163437500D03*
X83525000Y-163437500D03*
X83925000Y-163437500D03*
X84325000Y-163437500D03*
X84725000Y-163437500D03*
X85125000Y-163437500D03*
X85525000Y-163437500D03*
X85925000Y-163437500D03*
X86325000Y-163437500D03*
X86725000Y-163437500D03*
X87125000Y-163437500D03*
X87525000Y-163437500D03*
X87925000Y-163437500D03*
D47*
X88762500Y-162600000D03*
X88762500Y-162200000D03*
X88762500Y-161800000D03*
X88762500Y-161400000D03*
X88762500Y-161000000D03*
X88762500Y-160600000D03*
X88762500Y-160200000D03*
X88762500Y-159800000D03*
X88762500Y-159400000D03*
X88762500Y-159000000D03*
X88762500Y-158600000D03*
X88762500Y-158200000D03*
X88762500Y-157800000D03*
X88762500Y-157400000D03*
D46*
X87925000Y-156562500D03*
X87525000Y-156562500D03*
X87125000Y-156562500D03*
X86725000Y-156562500D03*
X86325000Y-156562500D03*
X85925000Y-156562500D03*
X85525000Y-156562500D03*
X85125000Y-156562500D03*
X84725000Y-156562500D03*
X84325000Y-156562500D03*
X83925000Y-156562500D03*
X83525000Y-156562500D03*
X83125000Y-156562500D03*
X82725000Y-156562500D03*
D47*
X81887500Y-157400000D03*
X81887500Y-157800000D03*
X81887500Y-158200000D03*
X81887500Y-158600000D03*
X81887500Y-159000000D03*
X81887500Y-159400000D03*
X81887500Y-159800000D03*
X81887500Y-160200000D03*
X81887500Y-160600000D03*
X81887500Y-161000000D03*
X81887500Y-161400000D03*
X81887500Y-161800000D03*
X81887500Y-162200000D03*
X81887500Y-162600000D03*
D48*
X85325000Y-160000000D03*
D24*
X106050000Y-168525000D03*
X106050000Y-166875000D03*
X90250000Y-168475000D03*
X90250000Y-166825000D03*
D12*
X76570000Y-154830000D03*
X76570000Y-156480000D03*
D35*
X79782380Y-167600000D03*
D36*
X77282380Y-167600000D03*
D44*
X102375000Y-162300000D03*
X100825000Y-162300000D03*
M02*
