G04 #@! TF.GenerationSoftware,KiCad,Pcbnew,(6.0.7)*
G04 #@! TF.CreationDate,2022-10-27T11:48:24+02:00*
G04 #@! TF.ProjectId,mainControl,6d61696e-436f-46e7-9472-6f6c2e6b6963,rev?*
G04 #@! TF.SameCoordinates,Original*
G04 #@! TF.FileFunction,Copper,L1,Top*
G04 #@! TF.FilePolarity,Positive*
%FSLAX46Y46*%
G04 Gerber Fmt 4.6, Leading zero omitted, Abs format (unit mm)*
G04 Created by KiCad (PCBNEW (6.0.7)) date 2022-10-27 11:48:24*
%MOMM*%
%LPD*%
G01*
G04 APERTURE LIST*
G04 Aperture macros list*
%AMRoundRect*
0 Rectangle with rounded corners*
0 $1 Rounding radius*
0 $2 $3 $4 $5 $6 $7 $8 $9 X,Y pos of 4 corners*
0 Add a 4 corners polygon primitive as box body*
4,1,4,$2,$3,$4,$5,$6,$7,$8,$9,$2,$3,0*
0 Add four circle primitives for the rounded corners*
1,1,$1+$1,$2,$3*
1,1,$1+$1,$4,$5*
1,1,$1+$1,$6,$7*
1,1,$1+$1,$8,$9*
0 Add four rect primitives between the rounded corners*
20,1,$1+$1,$2,$3,$4,$5,0*
20,1,$1+$1,$4,$5,$6,$7,0*
20,1,$1+$1,$6,$7,$8,$9,0*
20,1,$1+$1,$8,$9,$2,$3,0*%
G04 Aperture macros list end*
G04 #@! TA.AperFunction,SMDPad,CuDef*
%ADD10RoundRect,0.200000X-0.275000X0.200000X-0.275000X-0.200000X0.275000X-0.200000X0.275000X0.200000X0*%
G04 #@! TD*
G04 #@! TA.AperFunction,SMDPad,CuDef*
%ADD11RoundRect,0.200000X-0.200000X-0.275000X0.200000X-0.275000X0.200000X0.275000X-0.200000X0.275000X0*%
G04 #@! TD*
G04 #@! TA.AperFunction,ComponentPad*
%ADD12R,1.700000X1.700000*%
G04 #@! TD*
G04 #@! TA.AperFunction,ComponentPad*
%ADD13O,1.700000X1.700000*%
G04 #@! TD*
G04 #@! TA.AperFunction,SMDPad,CuDef*
%ADD14RoundRect,0.218750X-0.218750X-0.256250X0.218750X-0.256250X0.218750X0.256250X-0.218750X0.256250X0*%
G04 #@! TD*
G04 #@! TA.AperFunction,SMDPad,CuDef*
%ADD15R,2.000000X0.900000*%
G04 #@! TD*
G04 #@! TA.AperFunction,SMDPad,CuDef*
%ADD16R,0.900000X2.000000*%
G04 #@! TD*
G04 #@! TA.AperFunction,SMDPad,CuDef*
%ADD17R,5.000000X5.000000*%
G04 #@! TD*
G04 #@! TA.AperFunction,SMDPad,CuDef*
%ADD18R,5.080000X1.270000*%
G04 #@! TD*
G04 #@! TA.AperFunction,SMDPad,CuDef*
%ADD19C,17.800000*%
G04 #@! TD*
G04 #@! TA.AperFunction,ComponentPad*
%ADD20RoundRect,0.250000X-0.620000X-0.845000X0.620000X-0.845000X0.620000X0.845000X-0.620000X0.845000X0*%
G04 #@! TD*
G04 #@! TA.AperFunction,ComponentPad*
%ADD21O,1.740000X2.190000*%
G04 #@! TD*
G04 #@! TA.AperFunction,SMDPad,CuDef*
%ADD22RoundRect,0.200000X0.275000X-0.200000X0.275000X0.200000X-0.275000X0.200000X-0.275000X-0.200000X0*%
G04 #@! TD*
G04 #@! TA.AperFunction,SMDPad,CuDef*
%ADD23RoundRect,0.200000X0.200000X0.275000X-0.200000X0.275000X-0.200000X-0.275000X0.200000X-0.275000X0*%
G04 #@! TD*
G04 #@! TA.AperFunction,SMDPad,CuDef*
%ADD24RoundRect,0.225000X0.250000X-0.225000X0.250000X0.225000X-0.250000X0.225000X-0.250000X-0.225000X0*%
G04 #@! TD*
G04 #@! TA.AperFunction,SMDPad,CuDef*
%ADD25O,0.200000X0.700000*%
G04 #@! TD*
G04 #@! TA.AperFunction,SMDPad,CuDef*
%ADD26O,0.700000X0.200000*%
G04 #@! TD*
G04 #@! TA.AperFunction,SMDPad,CuDef*
%ADD27R,1.000000X1.000000*%
G04 #@! TD*
G04 #@! TA.AperFunction,SMDPad,CuDef*
%ADD28RoundRect,0.093750X-0.106250X0.093750X-0.106250X-0.093750X0.106250X-0.093750X0.106250X0.093750X0*%
G04 #@! TD*
G04 #@! TA.AperFunction,SMDPad,CuDef*
%ADD29R,1.600000X1.000000*%
G04 #@! TD*
G04 #@! TA.AperFunction,ComponentPad*
%ADD30R,1.600000X1.600000*%
G04 #@! TD*
G04 #@! TA.AperFunction,ComponentPad*
%ADD31C,1.600000*%
G04 #@! TD*
G04 #@! TA.AperFunction,SMDPad,CuDef*
%ADD32R,0.600000X0.450000*%
G04 #@! TD*
G04 #@! TA.AperFunction,ComponentPad*
%ADD33RoundRect,0.249999X0.790001X1.550001X-0.790001X1.550001X-0.790001X-1.550001X0.790001X-1.550001X0*%
G04 #@! TD*
G04 #@! TA.AperFunction,ComponentPad*
%ADD34O,2.080000X3.600000*%
G04 #@! TD*
G04 #@! TA.AperFunction,SMDPad,CuDef*
%ADD35R,1.400000X0.400000*%
G04 #@! TD*
G04 #@! TA.AperFunction,SMDPad,CuDef*
%ADD36R,1.900000X1.750000*%
G04 #@! TD*
G04 #@! TA.AperFunction,SMDPad,CuDef*
%ADD37R,1.450000X1.150000*%
G04 #@! TD*
G04 #@! TA.AperFunction,ComponentPad*
%ADD38O,1.900000X1.050000*%
G04 #@! TD*
G04 #@! TA.AperFunction,SMDPad,CuDef*
%ADD39RoundRect,0.225000X0.225000X0.250000X-0.225000X0.250000X-0.225000X-0.250000X0.225000X-0.250000X0*%
G04 #@! TD*
G04 #@! TA.AperFunction,SMDPad,CuDef*
%ADD40RoundRect,0.225000X-0.250000X0.225000X-0.250000X-0.225000X0.250000X-0.225000X0.250000X0.225000X0*%
G04 #@! TD*
G04 #@! TA.AperFunction,SMDPad,CuDef*
%ADD41RoundRect,0.050000X0.050000X-0.387500X0.050000X0.387500X-0.050000X0.387500X-0.050000X-0.387500X0*%
G04 #@! TD*
G04 #@! TA.AperFunction,SMDPad,CuDef*
%ADD42RoundRect,0.050000X0.387500X-0.050000X0.387500X0.050000X-0.387500X0.050000X-0.387500X-0.050000X0*%
G04 #@! TD*
G04 #@! TA.AperFunction,SMDPad,CuDef*
%ADD43R,3.200000X3.200000*%
G04 #@! TD*
G04 #@! TA.AperFunction,ViaPad*
%ADD44C,0.500000*%
G04 #@! TD*
G04 #@! TA.AperFunction,Conductor*
%ADD45C,0.200000*%
G04 #@! TD*
G04 #@! TA.AperFunction,Conductor*
%ADD46C,0.500000*%
G04 #@! TD*
G04 #@! TA.AperFunction,Conductor*
%ADD47C,0.127000*%
G04 #@! TD*
G04 #@! TA.AperFunction,Conductor*
%ADD48C,0.300000*%
G04 #@! TD*
G04 APERTURE END LIST*
D10*
X75470000Y-154830000D03*
X75470000Y-156480000D03*
D11*
X76075000Y-158800000D03*
X77725000Y-158800000D03*
D12*
X91650000Y-162875000D03*
D13*
X94190000Y-162875000D03*
D14*
X70735000Y-164979533D03*
X72310000Y-164979533D03*
D15*
X77200000Y-133145000D03*
X77200000Y-134415000D03*
X77200000Y-135685000D03*
X77200000Y-136955000D03*
X77200000Y-138225000D03*
X77200000Y-139495000D03*
X77200000Y-140765000D03*
X77200000Y-142035000D03*
X77200000Y-143305000D03*
X77200000Y-144575000D03*
X77200000Y-145845000D03*
X77200000Y-147115000D03*
X77200000Y-148385000D03*
X77200000Y-149655000D03*
D16*
X79985000Y-150655000D03*
X81255000Y-150655000D03*
X82525000Y-150655000D03*
X83795000Y-150655000D03*
X85065000Y-150655000D03*
X86335000Y-150655000D03*
X87605000Y-150655000D03*
X88875000Y-150655000D03*
X90145000Y-150655000D03*
X91415000Y-150655000D03*
D15*
X94200000Y-149655000D03*
X94200000Y-148385000D03*
X94200000Y-147115000D03*
X94200000Y-145845000D03*
X94200000Y-144575000D03*
X94200000Y-143305000D03*
X94200000Y-142035000D03*
X94200000Y-140765000D03*
X94200000Y-139495000D03*
X94200000Y-138225000D03*
X94200000Y-136955000D03*
X94200000Y-135685000D03*
X94200000Y-134415000D03*
X94200000Y-133145000D03*
D17*
X84700000Y-140645000D03*
D18*
X109600000Y-159785000D03*
X109600000Y-137815000D03*
D19*
X109600000Y-148800000D03*
D11*
X76045000Y-157655000D03*
X77695000Y-157655000D03*
D20*
X100800000Y-174100000D03*
D21*
X103340000Y-174100000D03*
X105880000Y-174100000D03*
D22*
X98150000Y-168625000D03*
X98150000Y-166975000D03*
D23*
X97625000Y-145800000D03*
X95975000Y-145800000D03*
D24*
X96200000Y-160250000D03*
X96200000Y-158700000D03*
D12*
X101950000Y-133375000D03*
D13*
X104490000Y-133375000D03*
X107030000Y-133375000D03*
X109570000Y-133375000D03*
D12*
X93000000Y-160075000D03*
D13*
X93000000Y-157535000D03*
X93000000Y-154995000D03*
D25*
X98100000Y-161675000D03*
X98500000Y-161675000D03*
X98900000Y-161675000D03*
D26*
X99575000Y-161000000D03*
X99575000Y-160600000D03*
X99575000Y-160200000D03*
D25*
X98900000Y-159525000D03*
X98500000Y-159525000D03*
X98100000Y-159525000D03*
D26*
X97425000Y-160200000D03*
X97425000Y-160600000D03*
X97425000Y-161000000D03*
D27*
X98500000Y-160600000D03*
D14*
X97412500Y-163900000D03*
X98987500Y-163900000D03*
D23*
X97525000Y-147100000D03*
X95875000Y-147100000D03*
D12*
X82900000Y-153225000D03*
D13*
X80360000Y-153225000D03*
D28*
X111450000Y-171712500D03*
X110800000Y-171712500D03*
X110150000Y-171712500D03*
X110150000Y-173487500D03*
X110800000Y-173487500D03*
X111450000Y-173487500D03*
D29*
X110800000Y-172600000D03*
D23*
X75025000Y-165000000D03*
X73375000Y-165000000D03*
D30*
X87582380Y-167600000D03*
D31*
X85082380Y-167600000D03*
D20*
X85160000Y-174120000D03*
D21*
X87700000Y-174120000D03*
X90240000Y-174120000D03*
D11*
X103429524Y-163200000D03*
X105079524Y-163200000D03*
X76070000Y-159950000D03*
X77720000Y-159950000D03*
X100775000Y-163400000D03*
X102425000Y-163400000D03*
D20*
X93000000Y-174100000D03*
D21*
X95540000Y-174100000D03*
X98080000Y-174100000D03*
D30*
X103382380Y-167600000D03*
D31*
X100882380Y-167600000D03*
D32*
X74220000Y-153155000D03*
X76320000Y-153155000D03*
D30*
X95482380Y-167600000D03*
D31*
X92982380Y-167600000D03*
D33*
X116240000Y-165877500D03*
D34*
X111160000Y-165877500D03*
D12*
X88700000Y-153225000D03*
D13*
X86160000Y-153225000D03*
D22*
X82400000Y-168775000D03*
X82400000Y-167125000D03*
D20*
X77360000Y-174120000D03*
D21*
X79900000Y-174120000D03*
X82440000Y-174120000D03*
D22*
X77870000Y-156480000D03*
X77870000Y-154830000D03*
D35*
X74120000Y-158080000D03*
X74120000Y-158730000D03*
X74120000Y-159380000D03*
X74120000Y-160030000D03*
X74120000Y-160680000D03*
D36*
X71470000Y-158255000D03*
D37*
X73700000Y-157060000D03*
D36*
X71470000Y-160505000D03*
D38*
X71470000Y-162955000D03*
D37*
X73700000Y-161700000D03*
D38*
X71470000Y-155805000D03*
D35*
X74050000Y-141325000D03*
X74050000Y-141975000D03*
X74050000Y-142625000D03*
X74050000Y-143275000D03*
X74050000Y-143925000D03*
D37*
X73630000Y-140305000D03*
D36*
X71400000Y-143750000D03*
D38*
X71400000Y-139050000D03*
D36*
X71400000Y-141500000D03*
D38*
X71400000Y-146200000D03*
D37*
X73630000Y-144945000D03*
D39*
X98975000Y-162800000D03*
X97425000Y-162800000D03*
D40*
X96100000Y-161500000D03*
X96100000Y-163050000D03*
D41*
X82725000Y-163437500D03*
X83125000Y-163437500D03*
X83525000Y-163437500D03*
X83925000Y-163437500D03*
X84325000Y-163437500D03*
X84725000Y-163437500D03*
X85125000Y-163437500D03*
X85525000Y-163437500D03*
X85925000Y-163437500D03*
X86325000Y-163437500D03*
X86725000Y-163437500D03*
X87125000Y-163437500D03*
X87525000Y-163437500D03*
X87925000Y-163437500D03*
D42*
X88762500Y-162600000D03*
X88762500Y-162200000D03*
X88762500Y-161800000D03*
X88762500Y-161400000D03*
X88762500Y-161000000D03*
X88762500Y-160600000D03*
X88762500Y-160200000D03*
X88762500Y-159800000D03*
X88762500Y-159400000D03*
X88762500Y-159000000D03*
X88762500Y-158600000D03*
X88762500Y-158200000D03*
X88762500Y-157800000D03*
X88762500Y-157400000D03*
D41*
X87925000Y-156562500D03*
X87525000Y-156562500D03*
X87125000Y-156562500D03*
X86725000Y-156562500D03*
X86325000Y-156562500D03*
X85925000Y-156562500D03*
X85525000Y-156562500D03*
X85125000Y-156562500D03*
X84725000Y-156562500D03*
X84325000Y-156562500D03*
X83925000Y-156562500D03*
X83525000Y-156562500D03*
X83125000Y-156562500D03*
X82725000Y-156562500D03*
D42*
X81887500Y-157400000D03*
X81887500Y-157800000D03*
X81887500Y-158200000D03*
X81887500Y-158600000D03*
X81887500Y-159000000D03*
X81887500Y-159400000D03*
X81887500Y-159800000D03*
X81887500Y-160200000D03*
X81887500Y-160600000D03*
X81887500Y-161000000D03*
X81887500Y-161400000D03*
X81887500Y-161800000D03*
X81887500Y-162200000D03*
X81887500Y-162600000D03*
D43*
X85325000Y-160000000D03*
D22*
X106050000Y-168525000D03*
X106050000Y-166875000D03*
X90250000Y-168475000D03*
X90250000Y-166825000D03*
D10*
X76570000Y-154830000D03*
X76570000Y-156480000D03*
D30*
X79782380Y-167600000D03*
D31*
X77282380Y-167600000D03*
D39*
X102375000Y-162300000D03*
X100825000Y-162300000D03*
D44*
X109600000Y-159800000D03*
X110600000Y-137800000D03*
X107700000Y-159800000D03*
X111500000Y-159800000D03*
X108600000Y-137800000D03*
X108600000Y-159800000D03*
X107600000Y-137800000D03*
X109600000Y-137800000D03*
X111500000Y-137800000D03*
X110500000Y-159800000D03*
X84850000Y-155550000D03*
X78650000Y-138200000D03*
X84250000Y-159600000D03*
X98100000Y-142150000D03*
X107514286Y-142450000D03*
X92555000Y-133145000D03*
X110800000Y-172600000D03*
X110150000Y-158600000D03*
X103700000Y-153100000D03*
X97006717Y-161952748D03*
X103700000Y-152500000D03*
X103700000Y-150650000D03*
X99350000Y-157050000D03*
X111350000Y-172600000D03*
X84550000Y-164550000D03*
X85800000Y-139550000D03*
X85800000Y-141750000D03*
X103700000Y-151900000D03*
X79950000Y-142950000D03*
X97450000Y-139300000D03*
X87900000Y-148900000D03*
X97150000Y-159100000D03*
X84250000Y-160700000D03*
X103700000Y-151300000D03*
X110250000Y-172600000D03*
X83600000Y-141750000D03*
X98450000Y-157000000D03*
X79950000Y-164950000D03*
X108214286Y-143850000D03*
X107514286Y-141650000D03*
X87750000Y-162400000D03*
X103700000Y-150000000D03*
X79950000Y-141650000D03*
X110750000Y-158600000D03*
X83600000Y-139550000D03*
X78850000Y-154800000D03*
X95950000Y-133150000D03*
X78945000Y-133145000D03*
X89850000Y-156400000D03*
X87750000Y-161800000D03*
X97650000Y-161950000D03*
X81250000Y-142950000D03*
X79550000Y-133150000D03*
X115014286Y-140550000D03*
X100850000Y-161500000D03*
X75500000Y-139300000D03*
X81250000Y-141650000D03*
X84250000Y-158500000D03*
X87882394Y-160596938D03*
X88150000Y-148050000D03*
X81050000Y-159550000D03*
X83300000Y-161600000D03*
X103950000Y-158600000D03*
X86350000Y-164350000D03*
X98700000Y-150500000D03*
X100700000Y-154200000D03*
X79700000Y-163400000D03*
X99350000Y-141250000D03*
X81900000Y-156850000D03*
X78650000Y-140500000D03*
X86550000Y-155750000D03*
X99450000Y-150500000D03*
X103800000Y-140650000D03*
X78650000Y-139950000D03*
X100250000Y-151600000D03*
X95400000Y-160250000D03*
X89800000Y-160176503D03*
X100700000Y-153350000D03*
X81900000Y-156250000D03*
X100700000Y-152450000D03*
X100250000Y-150500000D03*
X79550000Y-134450000D03*
X78950000Y-134450000D03*
X97950000Y-150500000D03*
X91500000Y-145450000D03*
X96550000Y-142300000D03*
X116650000Y-159450000D03*
X110750000Y-174550000D03*
X73850000Y-153950000D03*
X110100000Y-174550000D03*
X117450000Y-160250000D03*
X112050000Y-174550000D03*
X109450000Y-174550000D03*
X117050000Y-159850000D03*
X108200000Y-173900000D03*
X111400000Y-174550000D03*
X116250000Y-159050000D03*
X112700000Y-173850000D03*
X89800000Y-159550000D03*
X81050000Y-160250000D03*
X81050000Y-158000000D03*
X84500000Y-145600000D03*
X75250000Y-140950000D03*
X75300000Y-142000000D03*
X75300000Y-142626503D03*
X85950000Y-146050000D03*
X82450000Y-144350000D03*
X92750000Y-149650000D03*
X87900000Y-159900000D03*
X83100000Y-164350000D03*
X91450000Y-149200000D03*
X92000000Y-138300000D03*
X92650000Y-137000000D03*
X82188873Y-164361127D03*
X82050000Y-165950000D03*
X80897226Y-161604923D03*
X80890725Y-160963249D03*
X82700000Y-161300000D03*
X100550000Y-160450000D03*
X95950000Y-164250000D03*
X99450000Y-165050000D03*
X96850000Y-161300000D03*
X99950000Y-143750000D03*
X100980837Y-142319163D03*
X94850000Y-157700000D03*
X89733309Y-161694436D03*
X89750893Y-161068181D03*
X94800000Y-158500000D03*
X85650000Y-155300000D03*
X78850000Y-161050000D03*
X82250000Y-155350000D03*
X83965000Y-155448583D03*
D45*
X109600000Y-159785000D02*
X109600000Y-159800000D01*
X98100000Y-161675000D02*
X98100000Y-161000000D01*
D46*
X95945000Y-133145000D02*
X95950000Y-133150000D01*
D45*
X79985000Y-150655000D02*
X79985000Y-152850000D01*
X84705000Y-140645000D02*
X84700000Y-140645000D01*
D46*
X94200000Y-133145000D02*
X95945000Y-133145000D01*
X100775000Y-163400000D02*
X100775000Y-162350000D01*
D45*
X83600000Y-141745000D02*
X84700000Y-140645000D01*
D46*
X70735000Y-163690000D02*
X71470000Y-162955000D01*
X77870000Y-154830000D02*
X78820000Y-154830000D01*
X79545000Y-133145000D02*
X79550000Y-133150000D01*
X100825000Y-161525000D02*
X100850000Y-161500000D01*
D45*
X98500000Y-161675000D02*
X98500000Y-160600000D01*
D46*
X78945000Y-133145000D02*
X79545000Y-133145000D01*
D45*
X87750000Y-162400000D02*
X87750000Y-161800000D01*
X87750000Y-161200000D02*
X87800000Y-161150000D01*
X88300000Y-161000000D02*
X88150000Y-161150000D01*
X85800000Y-141750000D02*
X84700000Y-140650000D01*
X84695000Y-140645000D02*
X84700000Y-140645000D01*
X97925000Y-161675000D02*
X98500000Y-161675000D01*
D46*
X94200000Y-133145000D02*
X92555000Y-133145000D01*
D45*
X88762500Y-161000000D02*
X88300000Y-161000000D01*
X96200000Y-163050000D02*
X97175000Y-163050000D01*
X98100000Y-161000000D02*
X98500000Y-160600000D01*
X83600000Y-139550000D02*
X84695000Y-140645000D01*
X97425000Y-162175000D02*
X97425000Y-162800000D01*
X87750000Y-161800000D02*
X87750000Y-161200000D01*
X85800000Y-139550000D02*
X84705000Y-140645000D01*
X84700000Y-140650000D02*
X84700000Y-140645000D01*
D46*
X70735000Y-164979533D02*
X70735000Y-163690000D01*
X100825000Y-162300000D02*
X100825000Y-161525000D01*
X78820000Y-154830000D02*
X78850000Y-154800000D01*
X100775000Y-162350000D02*
X100825000Y-162300000D01*
D45*
X87800000Y-161150000D02*
X86475000Y-161150000D01*
X86475000Y-161150000D02*
X85325000Y-160000000D01*
X97150000Y-159100000D02*
X97425000Y-159375000D01*
X88150000Y-161150000D02*
X87800000Y-161150000D01*
X97425000Y-159375000D02*
X97425000Y-160200000D01*
X97150000Y-159100000D02*
X96750000Y-158700000D01*
X83600000Y-141750000D02*
X83600000Y-141745000D01*
X79985000Y-152850000D02*
X80335000Y-153200000D01*
D46*
X77200000Y-133145000D02*
X78945000Y-133145000D01*
D45*
X97175000Y-163050000D02*
X97425000Y-162800000D01*
X97650000Y-161950000D02*
X97925000Y-161675000D01*
X96750000Y-158700000D02*
X96200000Y-158700000D01*
X97650000Y-161950000D02*
X97425000Y-162175000D01*
X87882394Y-160596938D02*
X88171518Y-160596938D01*
X88171518Y-160596938D02*
X88174580Y-160600000D01*
X88174580Y-160600000D02*
X88762500Y-160600000D01*
X89375420Y-159800000D02*
X88762500Y-159800000D01*
X89800000Y-160176503D02*
X89650497Y-160027000D01*
X89602420Y-160027000D02*
X89375420Y-159800000D01*
X96550000Y-160600000D02*
X96200000Y-160250000D01*
X97425000Y-160600000D02*
X96550000Y-160600000D01*
X89650497Y-160027000D02*
X89602420Y-160027000D01*
X86325000Y-163437500D02*
X86325000Y-164325000D01*
D46*
X78915000Y-134415000D02*
X77200000Y-134415000D01*
D47*
X81887500Y-159400000D02*
X81200000Y-159400000D01*
D45*
X81887500Y-157800000D02*
X81887500Y-157400000D01*
D46*
X78950000Y-134450000D02*
X78915000Y-134415000D01*
D45*
X83300000Y-161600000D02*
X82725000Y-162175000D01*
D47*
X81887500Y-159800000D02*
X81300000Y-159800000D01*
D46*
X78950000Y-134450000D02*
X79550000Y-134450000D01*
D45*
X82712500Y-156550000D02*
X82725000Y-156562500D01*
X82200000Y-156550000D02*
X82712500Y-156550000D01*
X81887500Y-156862500D02*
X81900000Y-156850000D01*
X81900000Y-156850000D02*
X82200000Y-156550000D01*
D47*
X81200000Y-159400000D02*
X81050000Y-159550000D01*
D45*
X86325000Y-164325000D02*
X86350000Y-164350000D01*
D46*
X96200000Y-160250000D02*
X95400000Y-160250000D01*
D47*
X81300000Y-159800000D02*
X81050000Y-159550000D01*
D45*
X81887500Y-157400000D02*
X81887500Y-156862500D01*
X86325000Y-156562500D02*
X86325000Y-155975000D01*
X86325000Y-155975000D02*
X86550000Y-155750000D01*
X82725000Y-162175000D02*
X82725000Y-163437500D01*
X112675000Y-173875000D02*
X112700000Y-173850000D01*
X110800000Y-174500000D02*
X110750000Y-174550000D01*
X107400000Y-164700000D02*
X107400000Y-172250000D01*
X109375000Y-173875000D02*
X108225000Y-173875000D01*
X109375000Y-174475000D02*
X109450000Y-174550000D01*
X111450000Y-174500000D02*
X111400000Y-174550000D01*
X111450000Y-173950000D02*
X112050000Y-174550000D01*
X109375000Y-173875000D02*
X109375000Y-174475000D01*
X105079524Y-163200000D02*
X105900000Y-163200000D01*
X110150000Y-174500000D02*
X110100000Y-174550000D01*
X109025000Y-173875000D02*
X109375000Y-173875000D01*
D46*
X74220000Y-153580000D02*
X73850000Y-153950000D01*
D45*
X108225000Y-173875000D02*
X108200000Y-173900000D01*
X109375000Y-173875000D02*
X111450000Y-173875000D01*
X110150000Y-173875000D02*
X110150000Y-174500000D01*
X107400000Y-172250000D02*
X109025000Y-173875000D01*
X111450000Y-173875000D02*
X112675000Y-173875000D01*
X105900000Y-163200000D02*
X107400000Y-164700000D01*
X111450000Y-173875000D02*
X111450000Y-173950000D01*
X111450000Y-173875000D02*
X111450000Y-174500000D01*
D46*
X74220000Y-153155000D02*
X74220000Y-153580000D01*
D45*
X110800000Y-173875000D02*
X110800000Y-174500000D01*
D47*
X81887500Y-160200000D02*
X81100000Y-160200000D01*
D45*
X81887500Y-158200000D02*
X81250000Y-158200000D01*
X82800000Y-160200000D02*
X81887500Y-160200000D01*
X89800000Y-159550000D02*
X89650000Y-159400000D01*
X83450000Y-157750000D02*
X83000000Y-158200000D01*
X87550000Y-158750000D02*
X87550000Y-158000000D01*
X88762500Y-159400000D02*
X88200000Y-159400000D01*
X83000000Y-160000000D02*
X82800000Y-160200000D01*
X88200000Y-159400000D02*
X87550000Y-158750000D01*
X87300000Y-157750000D02*
X83450000Y-157750000D01*
X83000000Y-158200000D02*
X83000000Y-160000000D01*
X81250000Y-158200000D02*
X81050000Y-158000000D01*
X89650000Y-159400000D02*
X88762500Y-159400000D01*
X87550000Y-158000000D02*
X87300000Y-157750000D01*
D47*
X81100000Y-160200000D02*
X81050000Y-160250000D01*
D45*
X83000000Y-158200000D02*
X81887500Y-158200000D01*
X81050000Y-143600000D02*
X82900000Y-143600000D01*
X82900000Y-143600000D02*
X84500000Y-145200000D01*
X84500000Y-145200000D02*
X84500000Y-145600000D01*
X77200000Y-135685000D02*
X79285000Y-135685000D01*
X80700000Y-143250000D02*
X81050000Y-143600000D01*
X79285000Y-135685000D02*
X80700000Y-137100000D01*
X80700000Y-137100000D02*
X80700000Y-143250000D01*
D46*
X76320000Y-153155000D02*
X76320000Y-154580000D01*
X75470000Y-154830000D02*
X76570000Y-154830000D01*
X76320000Y-154580000D02*
X76570000Y-154830000D01*
X72310000Y-164979533D02*
X73354533Y-164979533D01*
X73354533Y-164979533D02*
X73375000Y-165000000D01*
D48*
X76045000Y-157655000D02*
X76050000Y-157650000D01*
X76050000Y-157650000D02*
X76050000Y-156750000D01*
X75370000Y-158080000D02*
X75795000Y-157655000D01*
X76570000Y-156480000D02*
X75470000Y-156480000D01*
X75795000Y-157655000D02*
X76045000Y-157655000D01*
X75780000Y-156480000D02*
X75470000Y-156480000D01*
X74120000Y-158080000D02*
X75370000Y-158080000D01*
X76050000Y-156750000D02*
X75780000Y-156480000D01*
X75080000Y-158730000D02*
X75250000Y-158900000D01*
X75250000Y-158900000D02*
X75975000Y-158900000D01*
X74120000Y-158730000D02*
X75080000Y-158730000D01*
X75975000Y-158900000D02*
X76075000Y-158800000D01*
X75900000Y-159950000D02*
X76070000Y-159950000D01*
X75330000Y-159380000D02*
X75900000Y-159950000D01*
X74120000Y-159380000D02*
X75330000Y-159380000D01*
D47*
X88762500Y-159000000D02*
X91925000Y-159000000D01*
X91925000Y-159000000D02*
X93000000Y-160075000D01*
X90050000Y-158600000D02*
X91400000Y-157250000D01*
X92790000Y-155160000D02*
X93000000Y-155160000D01*
X91400000Y-157250000D02*
X91400000Y-156550000D01*
X91400000Y-156550000D02*
X92790000Y-155160000D01*
X88762500Y-158600000D02*
X90050000Y-158600000D01*
D45*
X82440000Y-174120000D02*
X82440000Y-168815000D01*
X82440000Y-168815000D02*
X82400000Y-168775000D01*
X90250000Y-168475000D02*
X90240000Y-168485000D01*
X90240000Y-168485000D02*
X90240000Y-174120000D01*
X98080000Y-174100000D02*
X98080000Y-168695000D01*
X98080000Y-168695000D02*
X98150000Y-168625000D01*
X105900000Y-168675000D02*
X105900000Y-174080000D01*
X106050000Y-168525000D02*
X105900000Y-168675000D01*
X105900000Y-174080000D02*
X105880000Y-174100000D01*
D48*
X75200000Y-140950000D02*
X75250000Y-140950000D01*
X74050000Y-141325000D02*
X74825000Y-141325000D01*
X74825000Y-141325000D02*
X75200000Y-140950000D01*
X74050000Y-141975000D02*
X75275000Y-141975000D01*
X75275000Y-141975000D02*
X75300000Y-142000000D01*
X75298497Y-142625000D02*
X75300000Y-142626503D01*
X74050000Y-142625000D02*
X75298497Y-142625000D01*
D47*
X82450000Y-144350000D02*
X82450000Y-145450000D01*
X82450000Y-145450000D02*
X83500000Y-146500000D01*
X85500000Y-146500000D02*
X85950000Y-146050000D01*
X83500000Y-146500000D02*
X85500000Y-146500000D01*
D45*
X94200000Y-149655000D02*
X92755000Y-149655000D01*
X92755000Y-149655000D02*
X92750000Y-149650000D01*
X88333263Y-160200000D02*
X88762500Y-160200000D01*
X88033263Y-159900000D02*
X88333263Y-160200000D01*
X87900000Y-159900000D02*
X88033263Y-159900000D01*
D48*
X80226869Y-159527000D02*
X80676935Y-159076935D01*
X77720000Y-159950000D02*
X78143000Y-159527000D01*
D47*
X81887500Y-159000000D02*
X80753870Y-159000000D01*
X80753870Y-159000000D02*
X80676935Y-159076935D01*
D48*
X78143000Y-159527000D02*
X80226869Y-159527000D01*
X80550000Y-158600000D02*
X80700000Y-158600000D01*
X78025000Y-159100000D02*
X80050000Y-159100000D01*
D47*
X81887500Y-158600000D02*
X80700000Y-158600000D01*
D48*
X77725000Y-158800000D02*
X78025000Y-159100000D01*
X80050000Y-159100000D02*
X80550000Y-158600000D01*
D47*
X82150000Y-162600000D02*
X82200000Y-162650000D01*
X81887500Y-162600000D02*
X82150000Y-162600000D01*
X82200000Y-162650000D02*
X82200000Y-163690118D01*
X82815500Y-164065500D02*
X83100000Y-164350000D01*
X82575382Y-164065500D02*
X82815500Y-164065500D01*
X82200000Y-163690118D02*
X82575382Y-164065500D01*
D45*
X83925000Y-164975000D02*
X83925000Y-163437500D01*
X82400000Y-167125000D02*
X82400000Y-166500000D01*
X84325000Y-163437500D02*
X83925000Y-163437500D01*
X82400000Y-166500000D02*
X83925000Y-164975000D01*
X85125000Y-163437500D02*
X85100000Y-163462500D01*
X85100000Y-163462500D02*
X85100000Y-165100000D01*
X85100000Y-165100000D02*
X86000000Y-166000000D01*
X89425000Y-166000000D02*
X90250000Y-166825000D01*
X84725000Y-163437500D02*
X85125000Y-163437500D01*
X86000000Y-166000000D02*
X89425000Y-166000000D01*
X95650000Y-165450000D02*
X97175000Y-166975000D01*
X86300000Y-165450000D02*
X85525000Y-164675000D01*
X95650000Y-165450000D02*
X86300000Y-165450000D01*
X97175000Y-166975000D02*
X98150000Y-166975000D01*
X85525000Y-163437500D02*
X85925000Y-163437500D01*
X85525000Y-164675000D02*
X85525000Y-163437500D01*
X105425000Y-166250000D02*
X106050000Y-166875000D01*
X97500000Y-166250000D02*
X105425000Y-166250000D01*
X87125000Y-164375000D02*
X87750000Y-165000000D01*
X96250000Y-165000000D02*
X97500000Y-166250000D01*
X87750000Y-165000000D02*
X96250000Y-165000000D01*
X87125000Y-163437500D02*
X87125000Y-164375000D01*
X87125000Y-163437500D02*
X86725000Y-163437500D01*
X94200000Y-147115000D02*
X95860000Y-147115000D01*
X95860000Y-147115000D02*
X95875000Y-147100000D01*
X94200000Y-145845000D02*
X95930000Y-145845000D01*
X95930000Y-145845000D02*
X95975000Y-145800000D01*
D47*
X91450000Y-149200000D02*
X91415000Y-149235000D01*
X91415000Y-149235000D02*
X91415000Y-150655000D01*
D45*
X92325000Y-138225000D02*
X92250000Y-138300000D01*
X92250000Y-138300000D02*
X92000000Y-138300000D01*
X94200000Y-138225000D02*
X92325000Y-138225000D01*
X94200000Y-136955000D02*
X92695000Y-136955000D01*
X92695000Y-136955000D02*
X92650000Y-137000000D01*
D47*
X81887500Y-162200000D02*
X81350000Y-162200000D01*
X81350000Y-162200000D02*
X81154000Y-162396000D01*
X81154000Y-163326254D02*
X82188873Y-164361127D01*
X81154000Y-162396000D02*
X81154000Y-163326254D01*
X80900000Y-162225111D02*
X81325111Y-161800000D01*
X82050000Y-165950000D02*
X80900000Y-164800000D01*
X80900000Y-164800000D02*
X80900000Y-162225111D01*
X81325111Y-161800000D02*
X81887500Y-161800000D01*
X81102149Y-161400000D02*
X81887500Y-161400000D01*
X80897226Y-161604923D02*
X81102149Y-161400000D01*
X80927476Y-161000000D02*
X81887500Y-161000000D01*
X80890725Y-160963249D02*
X80927476Y-161000000D01*
X82700000Y-161300000D02*
X82700000Y-160900000D01*
X82400000Y-160600000D02*
X81887500Y-160600000D01*
X82700000Y-160900000D02*
X82400000Y-160600000D01*
D45*
X102375000Y-162300000D02*
X102375000Y-163350000D01*
X101300000Y-161000000D02*
X102375000Y-162075000D01*
X102425000Y-163200000D02*
X103429524Y-163200000D01*
X102375000Y-162075000D02*
X102375000Y-162100000D01*
X99575000Y-161000000D02*
X101300000Y-161000000D01*
X100400000Y-160600000D02*
X99575000Y-160600000D01*
X100550000Y-160450000D02*
X100400000Y-160600000D01*
X98975000Y-163887500D02*
X98987500Y-163900000D01*
X98900000Y-162725000D02*
X98975000Y-162800000D01*
X98975000Y-162800000D02*
X98975000Y-163887500D01*
X98900000Y-161675000D02*
X98900000Y-162725000D01*
X97200000Y-161000000D02*
X96700000Y-161500000D01*
D46*
X99450000Y-165050000D02*
X97925000Y-165050000D01*
X97050000Y-164250000D02*
X95950000Y-164250000D01*
X97400000Y-163900000D02*
X97050000Y-164250000D01*
D45*
X97425000Y-161000000D02*
X97200000Y-161000000D01*
D46*
X97412500Y-163900000D02*
X97400000Y-163900000D01*
X97925000Y-165050000D02*
X97412500Y-164537500D01*
D45*
X96700000Y-161500000D02*
X96200000Y-161500000D01*
D46*
X97412500Y-163900000D02*
X97412500Y-164537500D01*
D47*
X88350000Y-155400000D02*
X90600000Y-155400000D01*
X97200000Y-149900000D02*
X99950000Y-147150000D01*
X93342000Y-152658000D02*
X95492000Y-152658000D01*
X87925000Y-155825000D02*
X88350000Y-155400000D01*
X99950000Y-147150000D02*
X99950000Y-143750000D01*
X97200000Y-150950000D02*
X97200000Y-149900000D01*
X87925000Y-156562500D02*
X87925000Y-155825000D01*
X90600000Y-155400000D02*
X93342000Y-152658000D01*
X95492000Y-152658000D02*
X97200000Y-150950000D01*
X87525000Y-155725000D02*
X87525000Y-156562500D01*
X100980837Y-142319163D02*
X100757875Y-142319163D01*
X95246000Y-152404000D02*
X93096000Y-152404000D01*
X99509500Y-146890500D02*
X96750000Y-149650000D01*
X88150000Y-155100000D02*
X87525000Y-155725000D01*
X96750000Y-149650000D02*
X96750000Y-150900000D01*
X96750000Y-150900000D02*
X95246000Y-152404000D01*
X100757875Y-142319163D02*
X99509500Y-143567538D01*
X93096000Y-152404000D02*
X90400000Y-155100000D01*
X99509500Y-143567538D02*
X99509500Y-146890500D01*
X90400000Y-155100000D02*
X88150000Y-155100000D01*
X89850000Y-162200000D02*
X90704000Y-161346000D01*
X94300000Y-161000000D02*
X94300000Y-157550000D01*
X93954000Y-161346000D02*
X94300000Y-161000000D01*
X95150000Y-156700000D02*
X97200000Y-156700000D01*
X88762500Y-162200000D02*
X89850000Y-162200000D01*
X99575000Y-159075000D02*
X99575000Y-160200000D01*
X90704000Y-161346000D02*
X93954000Y-161346000D01*
X97200000Y-156700000D02*
X99575000Y-159075000D01*
X94300000Y-157550000D02*
X95150000Y-156700000D01*
X94850000Y-157550000D02*
X94850000Y-157700000D01*
X95200000Y-157200000D02*
X94850000Y-157550000D01*
X95200000Y-157200000D02*
X97150000Y-157200000D01*
X89733309Y-161694436D02*
X89627745Y-161800000D01*
X98900000Y-159525000D02*
X98900000Y-158950000D01*
X97150000Y-157200000D02*
X98900000Y-158950000D01*
X89627745Y-161800000D02*
X88762500Y-161800000D01*
X95000000Y-158300000D02*
X94800000Y-158500000D01*
X96850000Y-157550000D02*
X98500000Y-159200000D01*
X95750000Y-157550000D02*
X96850000Y-157550000D01*
X89731819Y-161068181D02*
X89400000Y-161400000D01*
X89400000Y-161400000D02*
X88762500Y-161400000D01*
X98500000Y-159525000D02*
X98500000Y-159200000D01*
X89750893Y-161068181D02*
X89731819Y-161068181D01*
X95750000Y-157550000D02*
X95000000Y-158300000D01*
X94450000Y-161600000D02*
X90850000Y-161600000D01*
X95850000Y-157900000D02*
X95240500Y-158509500D01*
X89850000Y-162600000D02*
X88762500Y-162600000D01*
X98100000Y-159248000D02*
X96752000Y-157900000D01*
X90850000Y-161600000D02*
X89850000Y-162600000D01*
X95240500Y-159009500D02*
X94650000Y-159600000D01*
X94650000Y-159600000D02*
X94650000Y-161400000D01*
X94650000Y-161400000D02*
X94450000Y-161600000D01*
X98100000Y-159525000D02*
X98100000Y-159248000D01*
X95240500Y-158509500D02*
X95240500Y-159009500D01*
X96752000Y-157900000D02*
X95850000Y-157900000D01*
X78800000Y-161050000D02*
X78850000Y-161050000D01*
X85125000Y-156025000D02*
X85125000Y-156562500D01*
X85650000Y-155300000D02*
X85650000Y-155500000D01*
X75025000Y-165000000D02*
X75025000Y-164825000D01*
X75025000Y-164825000D02*
X78800000Y-161050000D01*
X85650000Y-155500000D02*
X85125000Y-156025000D01*
X79570000Y-156480000D02*
X80700000Y-155350000D01*
X84725000Y-156562500D02*
X84725000Y-156125000D01*
X84050000Y-155450000D02*
X84725000Y-156125000D01*
X83966417Y-155450000D02*
X83965000Y-155448583D01*
X84050000Y-155450000D02*
X83950000Y-155450000D01*
X77870000Y-156480000D02*
X79570000Y-156480000D01*
D46*
X77695000Y-156655000D02*
X77870000Y-156480000D01*
D47*
X80700000Y-155350000D02*
X82250000Y-155350000D01*
X84050000Y-155450000D02*
X83966417Y-155450000D01*
D46*
X77695000Y-157655000D02*
X77695000Y-156655000D01*
D47*
X92600000Y-152150000D02*
X94950000Y-152150000D01*
X83525000Y-155075000D02*
X83900000Y-154700000D01*
X100450000Y-141800000D02*
X100450000Y-139500000D01*
X98400000Y-146450000D02*
X98400000Y-143850000D01*
X98400000Y-143850000D02*
X100450000Y-141800000D01*
X97100000Y-148700000D02*
X97100000Y-147525000D01*
X109570000Y-134630000D02*
X109570000Y-133375000D01*
X108000000Y-136200000D02*
X109570000Y-134630000D01*
X97100000Y-147525000D02*
X97525000Y-147100000D01*
X83900000Y-154700000D02*
X90050000Y-154700000D01*
X83525000Y-156562500D02*
X83525000Y-155075000D01*
X100450000Y-139500000D02*
X103750000Y-136200000D01*
X97750000Y-147100000D02*
X98400000Y-146450000D01*
X90050000Y-154700000D02*
X92600000Y-152150000D01*
X95900000Y-151200000D02*
X95900000Y-149900000D01*
X97525000Y-147100000D02*
X97750000Y-147100000D01*
X94950000Y-152150000D02*
X95900000Y-151200000D01*
X95900000Y-149900000D02*
X97100000Y-148700000D01*
X103750000Y-136200000D02*
X108000000Y-136200000D01*
X107030000Y-134770000D02*
X107030000Y-133375000D01*
X94800000Y-151850000D02*
X92450000Y-151850000D01*
X95550000Y-149650000D02*
X95550000Y-151100000D01*
X95550000Y-151100000D02*
X94800000Y-151850000D01*
X97950000Y-145475000D02*
X97950000Y-143600000D01*
X100000000Y-139350000D02*
X103500000Y-135850000D01*
X92450000Y-151850000D02*
X89900000Y-154400000D01*
X103500000Y-135850000D02*
X105950000Y-135850000D01*
X97950000Y-143600000D02*
X100000000Y-141550000D01*
X96700000Y-148500000D02*
X95550000Y-149650000D01*
X97625000Y-145800000D02*
X97950000Y-145475000D01*
X97450000Y-145800000D02*
X96700000Y-146550000D01*
X96700000Y-146550000D02*
X96700000Y-148500000D01*
X97625000Y-145800000D02*
X97450000Y-145800000D01*
X100000000Y-141550000D02*
X100000000Y-139350000D01*
X83125000Y-155075000D02*
X83125000Y-156562500D01*
X83800000Y-154400000D02*
X83125000Y-155075000D01*
X105950000Y-135850000D02*
X107030000Y-134770000D01*
X89900000Y-154400000D02*
X83800000Y-154400000D01*
G04 #@! TA.AperFunction,Conductor*
G36*
X74242121Y-138570002D02*
G01*
X74288614Y-138623658D01*
X74300000Y-138676000D01*
X74300000Y-140744500D01*
X74279998Y-140812621D01*
X74226342Y-140859114D01*
X74174000Y-140870500D01*
X73340790Y-140870501D01*
X73324934Y-140870501D01*
X73289182Y-140877612D01*
X73262874Y-140882844D01*
X73262872Y-140882845D01*
X73250699Y-140885266D01*
X73240379Y-140892161D01*
X73240378Y-140892162D01*
X73179985Y-140932516D01*
X73166516Y-140941516D01*
X73110266Y-141025699D01*
X73095500Y-141099933D01*
X73095501Y-141550066D01*
X73102549Y-141585502D01*
X73110266Y-141624301D01*
X73106066Y-141625136D01*
X73111157Y-141672324D01*
X73110172Y-141675680D01*
X73110266Y-141675699D01*
X73095500Y-141749933D01*
X73095501Y-142200066D01*
X73110266Y-142274301D01*
X73106066Y-142275136D01*
X73111157Y-142322324D01*
X73110172Y-142325680D01*
X73110266Y-142325699D01*
X73095500Y-142399933D01*
X73095501Y-142850066D01*
X73110266Y-142924301D01*
X73106066Y-142925136D01*
X73111157Y-142972324D01*
X73110172Y-142975680D01*
X73110266Y-142975699D01*
X73095500Y-143049933D01*
X73095501Y-143500066D01*
X73110266Y-143574301D01*
X73166516Y-143658484D01*
X73250699Y-143714734D01*
X73324933Y-143729500D01*
X73339708Y-143729500D01*
X74174001Y-143729499D01*
X74242121Y-143749501D01*
X74288614Y-143803157D01*
X74300000Y-143855499D01*
X74300000Y-145897810D01*
X74279998Y-145965931D01*
X74263095Y-145986905D01*
X73636905Y-146613095D01*
X73574593Y-146647121D01*
X73547810Y-146650000D01*
X71052190Y-146650000D01*
X70984069Y-146629998D01*
X70963095Y-146613095D01*
X70536905Y-146186905D01*
X70502879Y-146124593D01*
X70500000Y-146097810D01*
X70500000Y-139152190D01*
X70520002Y-139084069D01*
X70536905Y-139063095D01*
X71013095Y-138586905D01*
X71075407Y-138552879D01*
X71102190Y-138550000D01*
X74174000Y-138550000D01*
X74242121Y-138570002D01*
G37*
G04 #@! TD.AperFunction*
G04 #@! TA.AperFunction,Conductor*
G36*
X118515931Y-162020002D02*
G01*
X118536905Y-162036905D01*
X119463095Y-162963095D01*
X119497121Y-163025407D01*
X119500000Y-163052190D01*
X119500000Y-169447810D01*
X119479998Y-169515931D01*
X119463095Y-169536905D01*
X118836905Y-170163095D01*
X118774593Y-170197121D01*
X118747810Y-170200000D01*
X115550000Y-170200000D01*
X113036905Y-172713095D01*
X112974593Y-172747121D01*
X112947810Y-172750000D01*
X109052190Y-172750000D01*
X108984069Y-172729998D01*
X108963095Y-172713095D01*
X108286905Y-172036905D01*
X108252879Y-171974593D01*
X108250000Y-171947810D01*
X108250000Y-169952190D01*
X108270002Y-169884069D01*
X108286905Y-169863095D01*
X109813095Y-168336905D01*
X109875407Y-168302879D01*
X109902190Y-168300000D01*
X111950000Y-168300000D01*
X113000000Y-167250000D01*
X113000000Y-164102190D01*
X113020002Y-164034069D01*
X113036905Y-164013095D01*
X115013095Y-162036905D01*
X115075407Y-162002879D01*
X115102190Y-162000000D01*
X118447810Y-162000000D01*
X118515931Y-162020002D01*
G37*
G04 #@! TD.AperFunction*
G04 #@! TA.AperFunction,Conductor*
G36*
X81416211Y-165770002D02*
G01*
X81437185Y-165786905D01*
X81504711Y-165854431D01*
X81538737Y-165916743D01*
X81541032Y-165939391D01*
X81540350Y-165943773D01*
X81541514Y-165952674D01*
X81541514Y-165952676D01*
X81543311Y-165966415D01*
X81559088Y-166087065D01*
X81617289Y-166219339D01*
X81623063Y-166226208D01*
X81691448Y-166307561D01*
X81710276Y-166329960D01*
X81717747Y-166334933D01*
X81717748Y-166334934D01*
X81800239Y-166389845D01*
X81845862Y-166444243D01*
X81854832Y-166514670D01*
X81824303Y-166578768D01*
X81811923Y-166590036D01*
X81807561Y-166594398D01*
X81799990Y-166599990D01*
X81718791Y-166709924D01*
X81673507Y-166838873D01*
X81672785Y-166846515D01*
X81672784Y-166846518D01*
X81671376Y-166861421D01*
X81670500Y-166870685D01*
X81670501Y-167379314D01*
X81670780Y-167382262D01*
X81670780Y-167382271D01*
X81672486Y-167400322D01*
X81673507Y-167411127D01*
X81718791Y-167540076D01*
X81799990Y-167650010D01*
X81909924Y-167731209D01*
X82038873Y-167776493D01*
X82046515Y-167777215D01*
X82046518Y-167777216D01*
X82061421Y-167778624D01*
X82070685Y-167779500D01*
X82399777Y-167779500D01*
X82729314Y-167779499D01*
X82732262Y-167779220D01*
X82732271Y-167779220D01*
X82753478Y-167777216D01*
X82753480Y-167777216D01*
X82761127Y-167776493D01*
X82890076Y-167731209D01*
X83000010Y-167650010D01*
X83047875Y-167585206D01*
X84022881Y-167585206D01*
X84024123Y-167600000D01*
X84039174Y-167779221D01*
X84040186Y-167791278D01*
X84097187Y-167990066D01*
X84100005Y-167995548D01*
X84100006Y-167995552D01*
X84188894Y-168168509D01*
X84188897Y-168168513D01*
X84191714Y-168173995D01*
X84320166Y-168336061D01*
X84477651Y-168470091D01*
X84658169Y-168570980D01*
X84854846Y-168634884D01*
X85060189Y-168659370D01*
X85066324Y-168658898D01*
X85066326Y-168658898D01*
X85260236Y-168643977D01*
X85260240Y-168643976D01*
X85266378Y-168643504D01*
X85465558Y-168587892D01*
X85471062Y-168585112D01*
X85471064Y-168585111D01*
X85644642Y-168497431D01*
X85644644Y-168497430D01*
X85650143Y-168494652D01*
X85813102Y-168367334D01*
X85817128Y-168362670D01*
X85817131Y-168362667D01*
X85944199Y-168215457D01*
X85944200Y-168215455D01*
X85948228Y-168210789D01*
X86006870Y-168107561D01*
X86047330Y-168036340D01*
X86047332Y-168036336D01*
X86050375Y-168030979D01*
X86052568Y-168024387D01*
X86113705Y-167840601D01*
X86113706Y-167840598D01*
X86115650Y-167834753D01*
X86141569Y-167629586D01*
X86141982Y-167600000D01*
X86140531Y-167585206D01*
X91922881Y-167585206D01*
X91924123Y-167600000D01*
X91939174Y-167779221D01*
X91940186Y-167791278D01*
X91997187Y-167990066D01*
X92000005Y-167995548D01*
X92000006Y-167995552D01*
X92088894Y-168168509D01*
X92088897Y-168168513D01*
X92091714Y-168173995D01*
X92220166Y-168336061D01*
X92377651Y-168470091D01*
X92558169Y-168570980D01*
X92754846Y-168634884D01*
X92960189Y-168659370D01*
X92966324Y-168658898D01*
X92966326Y-168658898D01*
X93160236Y-168643977D01*
X93160240Y-168643976D01*
X93166378Y-168643504D01*
X93365558Y-168587892D01*
X93371062Y-168585112D01*
X93371064Y-168585111D01*
X93544642Y-168497431D01*
X93544644Y-168497430D01*
X93550143Y-168494652D01*
X93713102Y-168367334D01*
X93717128Y-168362670D01*
X93717131Y-168362667D01*
X93844199Y-168215457D01*
X93844200Y-168215455D01*
X93848228Y-168210789D01*
X93906870Y-168107561D01*
X93947330Y-168036340D01*
X93947332Y-168036336D01*
X93950375Y-168030979D01*
X93952568Y-168024387D01*
X94013705Y-167840601D01*
X94013706Y-167840598D01*
X94015650Y-167834753D01*
X94041569Y-167629586D01*
X94041982Y-167600000D01*
X94021802Y-167394189D01*
X93962031Y-167196217D01*
X93898297Y-167076351D01*
X93867839Y-167019067D01*
X93867837Y-167019064D01*
X93864945Y-167013625D01*
X93861054Y-167008855D01*
X93861052Y-167008851D01*
X93738138Y-166858143D01*
X93738135Y-166858140D01*
X93734243Y-166853368D01*
X93729494Y-166849439D01*
X93579651Y-166725478D01*
X93579646Y-166725475D01*
X93574902Y-166721550D01*
X93569483Y-166718620D01*
X93569480Y-166718618D01*
X93398412Y-166626122D01*
X93398407Y-166626120D01*
X93392992Y-166623192D01*
X93195443Y-166562040D01*
X93189318Y-166561396D01*
X93189317Y-166561396D01*
X92995906Y-166541068D01*
X92995904Y-166541068D01*
X92989777Y-166540424D01*
X92863609Y-166551906D01*
X92789971Y-166558607D01*
X92789970Y-166558607D01*
X92783830Y-166559166D01*
X92585446Y-166617554D01*
X92579981Y-166620411D01*
X92407641Y-166710508D01*
X92407637Y-166710511D01*
X92402181Y-166713363D01*
X92241015Y-166842943D01*
X92108088Y-167001360D01*
X92008462Y-167182578D01*
X91945933Y-167379696D01*
X91945247Y-167385813D01*
X91945246Y-167385817D01*
X91928940Y-167531188D01*
X91922881Y-167585206D01*
X86140531Y-167585206D01*
X86121802Y-167394189D01*
X86062031Y-167196217D01*
X85998297Y-167076351D01*
X85967839Y-167019067D01*
X85967837Y-167019064D01*
X85964945Y-167013625D01*
X85961054Y-167008855D01*
X85961052Y-167008851D01*
X85838138Y-166858143D01*
X85838135Y-166858140D01*
X85834243Y-166853368D01*
X85829494Y-166849439D01*
X85679651Y-166725478D01*
X85679646Y-166725475D01*
X85674902Y-166721550D01*
X85669483Y-166718620D01*
X85669480Y-166718618D01*
X85498412Y-166626122D01*
X85498407Y-166626120D01*
X85492992Y-166623192D01*
X85295443Y-166562040D01*
X85289318Y-166561396D01*
X85289317Y-166561396D01*
X85095906Y-166541068D01*
X85095904Y-166541068D01*
X85089777Y-166540424D01*
X84963609Y-166551906D01*
X84889971Y-166558607D01*
X84889970Y-166558607D01*
X84883830Y-166559166D01*
X84685446Y-166617554D01*
X84679981Y-166620411D01*
X84507641Y-166710508D01*
X84507637Y-166710511D01*
X84502181Y-166713363D01*
X84341015Y-166842943D01*
X84208088Y-167001360D01*
X84108462Y-167182578D01*
X84045933Y-167379696D01*
X84045247Y-167385813D01*
X84045246Y-167385817D01*
X84028940Y-167531188D01*
X84022881Y-167585206D01*
X83047875Y-167585206D01*
X83081209Y-167540076D01*
X83126493Y-167411127D01*
X83127515Y-167400322D01*
X83128885Y-167385817D01*
X83129500Y-167379315D01*
X83129499Y-166870686D01*
X83127752Y-166852190D01*
X83127216Y-166846522D01*
X83127215Y-166846518D01*
X83126493Y-166838873D01*
X83081209Y-166709924D01*
X83000010Y-166599990D01*
X82992439Y-166594398D01*
X82988785Y-166590744D01*
X82954759Y-166528432D01*
X82959824Y-166457617D01*
X82988785Y-166412554D01*
X83614434Y-165786905D01*
X83676746Y-165752879D01*
X83703529Y-165750000D01*
X85196470Y-165750000D01*
X85264591Y-165770002D01*
X85285565Y-165786904D01*
X85713084Y-166214422D01*
X85725586Y-166229902D01*
X85728525Y-166233132D01*
X85734175Y-166241882D01*
X85758438Y-166261009D01*
X85762433Y-166264559D01*
X85762517Y-166264460D01*
X85766480Y-166267818D01*
X85770156Y-166271494D01*
X85774385Y-166274517D01*
X85774386Y-166274517D01*
X85784652Y-166281854D01*
X85789395Y-166285415D01*
X85818675Y-166308497D01*
X85818679Y-166308499D01*
X85826857Y-166314946D01*
X85834925Y-166317779D01*
X85841885Y-166322753D01*
X85851863Y-166325737D01*
X85887586Y-166336420D01*
X85893235Y-166338256D01*
X85938208Y-166354050D01*
X85943404Y-166354500D01*
X85946109Y-166354500D01*
X85948365Y-166354597D01*
X85948841Y-166354740D01*
X85948839Y-166354786D01*
X85949038Y-166354799D01*
X85954955Y-166356568D01*
X86005124Y-166354597D01*
X86010070Y-166354500D01*
X89225971Y-166354500D01*
X89294092Y-166374502D01*
X89315066Y-166391405D01*
X89483595Y-166559934D01*
X89517621Y-166622246D01*
X89520500Y-166649029D01*
X89520501Y-166863146D01*
X89520501Y-167079314D01*
X89523507Y-167111127D01*
X89568791Y-167240076D01*
X89649990Y-167350010D01*
X89759924Y-167431209D01*
X89888873Y-167476493D01*
X89896515Y-167477215D01*
X89896518Y-167477216D01*
X89911421Y-167478624D01*
X89920685Y-167479500D01*
X90249777Y-167479500D01*
X90579314Y-167479499D01*
X90582262Y-167479220D01*
X90582271Y-167479220D01*
X90603478Y-167477216D01*
X90603480Y-167477216D01*
X90611127Y-167476493D01*
X90740076Y-167431209D01*
X90850010Y-167350010D01*
X90931209Y-167240076D01*
X90976493Y-167111127D01*
X90979500Y-167079315D01*
X90979499Y-166570686D01*
X90978855Y-166563862D01*
X90977216Y-166546522D01*
X90977216Y-166546520D01*
X90976493Y-166538873D01*
X90931209Y-166409924D01*
X90850010Y-166299990D01*
X90740076Y-166218791D01*
X90611127Y-166173507D01*
X90603485Y-166172785D01*
X90603482Y-166172784D01*
X90588579Y-166171376D01*
X90579315Y-166170500D01*
X90553387Y-166170500D01*
X90149029Y-166170501D01*
X90080909Y-166150499D01*
X90059934Y-166133596D01*
X89945933Y-166019595D01*
X89911907Y-165957283D01*
X89916972Y-165886468D01*
X89959519Y-165829632D01*
X90026039Y-165804821D01*
X90035028Y-165804500D01*
X95450971Y-165804500D01*
X95519092Y-165824502D01*
X95540066Y-165841405D01*
X96888084Y-167189423D01*
X96900592Y-167204909D01*
X96903526Y-167208134D01*
X96909175Y-167216882D01*
X96924946Y-167229315D01*
X96933430Y-167236003D01*
X96937433Y-167239561D01*
X96937518Y-167239461D01*
X96941475Y-167242814D01*
X96945156Y-167246495D01*
X96949388Y-167249519D01*
X96949390Y-167249521D01*
X96959665Y-167256864D01*
X96964409Y-167260426D01*
X96993675Y-167283497D01*
X96993679Y-167283499D01*
X97001857Y-167289946D01*
X97009925Y-167292779D01*
X97016885Y-167297753D01*
X97026863Y-167300737D01*
X97062586Y-167311420D01*
X97068235Y-167313256D01*
X97113208Y-167329050D01*
X97118404Y-167329500D01*
X97121109Y-167329500D01*
X97123365Y-167329597D01*
X97123841Y-167329740D01*
X97123839Y-167329786D01*
X97124038Y-167329799D01*
X97129955Y-167331568D01*
X97180124Y-167329597D01*
X97185070Y-167329500D01*
X97362444Y-167329500D01*
X97430565Y-167349502D01*
X97468234Y-167390487D01*
X97468791Y-167390076D01*
X97549990Y-167500010D01*
X97659924Y-167581209D01*
X97788873Y-167626493D01*
X97796515Y-167627215D01*
X97796518Y-167627216D01*
X97811421Y-167628624D01*
X97820685Y-167629500D01*
X98149777Y-167629500D01*
X98479314Y-167629499D01*
X98482262Y-167629220D01*
X98482271Y-167629220D01*
X98503478Y-167627216D01*
X98503480Y-167627216D01*
X98511127Y-167626493D01*
X98640076Y-167581209D01*
X98750010Y-167500010D01*
X98831209Y-167390076D01*
X98876493Y-167261127D01*
X98879500Y-167229315D01*
X98879499Y-166730500D01*
X98899501Y-166662379D01*
X98953156Y-166615886D01*
X99005499Y-166604500D01*
X100079782Y-166604500D01*
X100147903Y-166624502D01*
X100194396Y-166678158D01*
X100204500Y-166748432D01*
X100175006Y-166813012D01*
X100158736Y-166828695D01*
X100155091Y-166831626D01*
X100145815Y-166839084D01*
X100141015Y-166842943D01*
X100008088Y-167001360D01*
X99908462Y-167182578D01*
X99845933Y-167379696D01*
X99845247Y-167385813D01*
X99845246Y-167385817D01*
X99828940Y-167531188D01*
X99822881Y-167585206D01*
X99824123Y-167600000D01*
X99839174Y-167779221D01*
X99840186Y-167791278D01*
X99897187Y-167990066D01*
X99900005Y-167995548D01*
X99900006Y-167995552D01*
X99988894Y-168168509D01*
X99988897Y-168168513D01*
X99991714Y-168173995D01*
X100120166Y-168336061D01*
X100277651Y-168470091D01*
X100458169Y-168570980D01*
X100654846Y-168634884D01*
X100860189Y-168659370D01*
X100866324Y-168658898D01*
X100866326Y-168658898D01*
X101060236Y-168643977D01*
X101060240Y-168643976D01*
X101066378Y-168643504D01*
X101265558Y-168587892D01*
X101271062Y-168585112D01*
X101271064Y-168585111D01*
X101444642Y-168497431D01*
X101444644Y-168497430D01*
X101450143Y-168494652D01*
X101613102Y-168367334D01*
X101617128Y-168362670D01*
X101617131Y-168362667D01*
X101744199Y-168215457D01*
X101744200Y-168215455D01*
X101748228Y-168210789D01*
X101806870Y-168107561D01*
X101847330Y-168036340D01*
X101847332Y-168036336D01*
X101850375Y-168030979D01*
X101852568Y-168024387D01*
X101913705Y-167840601D01*
X101913706Y-167840598D01*
X101915650Y-167834753D01*
X101941569Y-167629586D01*
X101941982Y-167600000D01*
X101921802Y-167394189D01*
X101862031Y-167196217D01*
X101798297Y-167076351D01*
X101767839Y-167019067D01*
X101767837Y-167019064D01*
X101764945Y-167013625D01*
X101761054Y-167008855D01*
X101761052Y-167008851D01*
X101638138Y-166858143D01*
X101638135Y-166858140D01*
X101634243Y-166853368D01*
X101629494Y-166849439D01*
X101629493Y-166849438D01*
X101603076Y-166827584D01*
X101563338Y-166768750D01*
X101561717Y-166697772D01*
X101598726Y-166637185D01*
X101662616Y-166606225D01*
X101683392Y-166604500D01*
X105194500Y-166604500D01*
X105262621Y-166624502D01*
X105309114Y-166678158D01*
X105320500Y-166730500D01*
X105320501Y-167129314D01*
X105323507Y-167161127D01*
X105368791Y-167290076D01*
X105449990Y-167400010D01*
X105559924Y-167481209D01*
X105688873Y-167526493D01*
X105696515Y-167527215D01*
X105696518Y-167527216D01*
X105711421Y-167528624D01*
X105720685Y-167529500D01*
X106049777Y-167529500D01*
X106379314Y-167529499D01*
X106382262Y-167529220D01*
X106382271Y-167529220D01*
X106403478Y-167527216D01*
X106403480Y-167527216D01*
X106411127Y-167526493D01*
X106540076Y-167481209D01*
X106650010Y-167400010D01*
X106731209Y-167290076D01*
X106776493Y-167161127D01*
X106779500Y-167129315D01*
X106779499Y-166620686D01*
X106779046Y-166615886D01*
X106776817Y-166592301D01*
X106790322Y-166522600D01*
X106839366Y-166471266D01*
X106908378Y-166454597D01*
X106975447Y-166477884D01*
X106991353Y-166491353D01*
X107163095Y-166663095D01*
X107197121Y-166725407D01*
X107200000Y-166752190D01*
X107200000Y-172250000D01*
X108000000Y-173050000D01*
X109627164Y-173050000D01*
X109695285Y-173070002D01*
X109741778Y-173123658D01*
X109750743Y-173151421D01*
X109756412Y-173179923D01*
X109760266Y-173199301D01*
X109767161Y-173209620D01*
X109767162Y-173209622D01*
X109776667Y-173223847D01*
X109816516Y-173283484D01*
X109900699Y-173339734D01*
X109974933Y-173354500D01*
X110799866Y-173354500D01*
X111625066Y-173354499D01*
X111660818Y-173347388D01*
X111687126Y-173342156D01*
X111687128Y-173342155D01*
X111699301Y-173339734D01*
X111709621Y-173332839D01*
X111709622Y-173332838D01*
X111773168Y-173290377D01*
X111783484Y-173283484D01*
X111839734Y-173199301D01*
X111849258Y-173151418D01*
X111882165Y-173088510D01*
X111943860Y-173053377D01*
X111972837Y-173050000D01*
X113047810Y-173050000D01*
X113115931Y-173070002D01*
X113136905Y-173086905D01*
X113563095Y-173513095D01*
X113597121Y-173575407D01*
X113600000Y-173602190D01*
X113600000Y-176147810D01*
X113579998Y-176215931D01*
X113563095Y-176236905D01*
X113136905Y-176663095D01*
X113074593Y-176697121D01*
X113047810Y-176700000D01*
X79802190Y-176700000D01*
X79734069Y-176679998D01*
X79713095Y-176663095D01*
X78536905Y-175486905D01*
X78502879Y-175424593D01*
X78500000Y-175397810D01*
X78500000Y-174398611D01*
X81315500Y-174398611D01*
X81330765Y-174558605D01*
X81391168Y-174764503D01*
X81489417Y-174955264D01*
X81621965Y-175124005D01*
X81784029Y-175264637D01*
X81969763Y-175372087D01*
X82030194Y-175393072D01*
X82166799Y-175440509D01*
X82166801Y-175440509D01*
X82172464Y-175442476D01*
X82178399Y-175443337D01*
X82178401Y-175443337D01*
X82378879Y-175472405D01*
X82378882Y-175472405D01*
X82384819Y-175473266D01*
X82599164Y-175463346D01*
X82604988Y-175461942D01*
X82604991Y-175461942D01*
X82801934Y-175414478D01*
X82801936Y-175414477D01*
X82807767Y-175413072D01*
X82813225Y-175410590D01*
X82813229Y-175410589D01*
X82988748Y-175330785D01*
X83003099Y-175324260D01*
X83178114Y-175200113D01*
X83326495Y-175045112D01*
X83347387Y-175012756D01*
X84035500Y-175012756D01*
X84042202Y-175074448D01*
X84044974Y-175081841D01*
X84044974Y-175081843D01*
X84053282Y-175104005D01*
X84092929Y-175209764D01*
X84098309Y-175216943D01*
X84098311Y-175216946D01*
X84131107Y-175260705D01*
X84179596Y-175325404D01*
X84186776Y-175330785D01*
X84288054Y-175406689D01*
X84288057Y-175406691D01*
X84295236Y-175412071D01*
X84377201Y-175442798D01*
X84423157Y-175460026D01*
X84423159Y-175460026D01*
X84430552Y-175462798D01*
X84438402Y-175463651D01*
X84438403Y-175463651D01*
X84488847Y-175469131D01*
X84492244Y-175469500D01*
X85827756Y-175469500D01*
X85831153Y-175469131D01*
X85881597Y-175463651D01*
X85881598Y-175463651D01*
X85889448Y-175462798D01*
X85896841Y-175460026D01*
X85896843Y-175460026D01*
X85942799Y-175442798D01*
X86024764Y-175412071D01*
X86031943Y-175406691D01*
X86031946Y-175406689D01*
X86133224Y-175330785D01*
X86140404Y-175325404D01*
X86188893Y-175260705D01*
X86221689Y-175216946D01*
X86221691Y-175216943D01*
X86227071Y-175209764D01*
X86266718Y-175104005D01*
X86275026Y-175081843D01*
X86275026Y-175081841D01*
X86277798Y-175074448D01*
X86284500Y-175012756D01*
X86284500Y-174398611D01*
X89115500Y-174398611D01*
X89130765Y-174558605D01*
X89191168Y-174764503D01*
X89289417Y-174955264D01*
X89421965Y-175124005D01*
X89584029Y-175264637D01*
X89769763Y-175372087D01*
X89830194Y-175393072D01*
X89966799Y-175440509D01*
X89966801Y-175440509D01*
X89972464Y-175442476D01*
X89978399Y-175443337D01*
X89978401Y-175443337D01*
X90178879Y-175472405D01*
X90178882Y-175472405D01*
X90184819Y-175473266D01*
X90399164Y-175463346D01*
X90404988Y-175461942D01*
X90404991Y-175461942D01*
X90601934Y-175414478D01*
X90601936Y-175414477D01*
X90607767Y-175413072D01*
X90613225Y-175410590D01*
X90613229Y-175410589D01*
X90788748Y-175330785D01*
X90803099Y-175324260D01*
X90978114Y-175200113D01*
X91126495Y-175045112D01*
X91160301Y-174992756D01*
X91875500Y-174992756D01*
X91875869Y-174996152D01*
X91875869Y-174996153D01*
X91877302Y-175009339D01*
X91882202Y-175054448D01*
X91884974Y-175061841D01*
X91884974Y-175061843D01*
X91892472Y-175081843D01*
X91932929Y-175189764D01*
X91938309Y-175196943D01*
X91938311Y-175196946D01*
X91971107Y-175240705D01*
X92019596Y-175305404D01*
X92026776Y-175310785D01*
X92128054Y-175386689D01*
X92128057Y-175386691D01*
X92135236Y-175392071D01*
X92218639Y-175423337D01*
X92263157Y-175440026D01*
X92263159Y-175440026D01*
X92270552Y-175442798D01*
X92278402Y-175443651D01*
X92278403Y-175443651D01*
X92328847Y-175449131D01*
X92332244Y-175449500D01*
X93667756Y-175449500D01*
X93671153Y-175449131D01*
X93721597Y-175443651D01*
X93721598Y-175443651D01*
X93729448Y-175442798D01*
X93736841Y-175440026D01*
X93736843Y-175440026D01*
X93781361Y-175423337D01*
X93864764Y-175392071D01*
X93871943Y-175386691D01*
X93871946Y-175386689D01*
X93973224Y-175310785D01*
X93980404Y-175305404D01*
X94028893Y-175240705D01*
X94061689Y-175196946D01*
X94061691Y-175196943D01*
X94067071Y-175189764D01*
X94107528Y-175081843D01*
X94115026Y-175061843D01*
X94115026Y-175061841D01*
X94117798Y-175054448D01*
X94122699Y-175009339D01*
X94124131Y-174996153D01*
X94124131Y-174996152D01*
X94124500Y-174992756D01*
X94124500Y-174378611D01*
X96955500Y-174378611D01*
X96970765Y-174538605D01*
X97031168Y-174744503D01*
X97129417Y-174935264D01*
X97261965Y-175104005D01*
X97424029Y-175244637D01*
X97609763Y-175352087D01*
X97658701Y-175369081D01*
X97806799Y-175420509D01*
X97806801Y-175420509D01*
X97812464Y-175422476D01*
X97818399Y-175423337D01*
X97818401Y-175423337D01*
X98018879Y-175452405D01*
X98018882Y-175452405D01*
X98024819Y-175453266D01*
X98239164Y-175443346D01*
X98244988Y-175441942D01*
X98244991Y-175441942D01*
X98441934Y-175394478D01*
X98441936Y-175394477D01*
X98447767Y-175393072D01*
X98453225Y-175390590D01*
X98453229Y-175390589D01*
X98599111Y-175324260D01*
X98643099Y-175304260D01*
X98818114Y-175180113D01*
X98966495Y-175025112D01*
X98987387Y-174992756D01*
X99675500Y-174992756D01*
X99675869Y-174996152D01*
X99675869Y-174996153D01*
X99677302Y-175009339D01*
X99682202Y-175054448D01*
X99684974Y-175061841D01*
X99684974Y-175061843D01*
X99692472Y-175081843D01*
X99732929Y-175189764D01*
X99738309Y-175196943D01*
X99738311Y-175196946D01*
X99771107Y-175240705D01*
X99819596Y-175305404D01*
X99826776Y-175310785D01*
X99928054Y-175386689D01*
X99928057Y-175386691D01*
X99935236Y-175392071D01*
X100018639Y-175423337D01*
X100063157Y-175440026D01*
X100063159Y-175440026D01*
X100070552Y-175442798D01*
X100078402Y-175443651D01*
X100078403Y-175443651D01*
X100128847Y-175449131D01*
X100132244Y-175449500D01*
X101467756Y-175449500D01*
X101471153Y-175449131D01*
X101521597Y-175443651D01*
X101521598Y-175443651D01*
X101529448Y-175442798D01*
X101536841Y-175440026D01*
X101536843Y-175440026D01*
X101581361Y-175423337D01*
X101664764Y-175392071D01*
X101671943Y-175386691D01*
X101671946Y-175386689D01*
X101773224Y-175310785D01*
X101780404Y-175305404D01*
X101828893Y-175240705D01*
X101861689Y-175196946D01*
X101861691Y-175196943D01*
X101867071Y-175189764D01*
X101907528Y-175081843D01*
X101915026Y-175061843D01*
X101915026Y-175061841D01*
X101917798Y-175054448D01*
X101922699Y-175009339D01*
X101924131Y-174996153D01*
X101924131Y-174996152D01*
X101924500Y-174992756D01*
X101924500Y-174378611D01*
X104755500Y-174378611D01*
X104770765Y-174538605D01*
X104831168Y-174744503D01*
X104929417Y-174935264D01*
X105061965Y-175104005D01*
X105224029Y-175244637D01*
X105409763Y-175352087D01*
X105458701Y-175369081D01*
X105606799Y-175420509D01*
X105606801Y-175420509D01*
X105612464Y-175422476D01*
X105618399Y-175423337D01*
X105618401Y-175423337D01*
X105818879Y-175452405D01*
X105818882Y-175452405D01*
X105824819Y-175453266D01*
X106039164Y-175443346D01*
X106044988Y-175441942D01*
X106044991Y-175441942D01*
X106241934Y-175394478D01*
X106241936Y-175394477D01*
X106247767Y-175393072D01*
X106253225Y-175390590D01*
X106253229Y-175390589D01*
X106399111Y-175324260D01*
X106443099Y-175304260D01*
X106618114Y-175180113D01*
X106766495Y-175025112D01*
X106882890Y-174844849D01*
X106925647Y-174738755D01*
X106960853Y-174651397D01*
X106960854Y-174651394D01*
X106963097Y-174645828D01*
X107001420Y-174449588D01*
X107003356Y-174439677D01*
X107003356Y-174439674D01*
X107004224Y-174435231D01*
X107004500Y-174429588D01*
X107004500Y-173821389D01*
X106989235Y-173661395D01*
X106928832Y-173455497D01*
X106830583Y-173264736D01*
X106698035Y-173095995D01*
X106689410Y-173088510D01*
X106606334Y-173016421D01*
X106535971Y-172955363D01*
X106350237Y-172847913D01*
X106344567Y-172845944D01*
X106339168Y-172844069D01*
X106281378Y-172802828D01*
X106255058Y-172736890D01*
X106254500Y-172725041D01*
X106254500Y-169305443D01*
X106274502Y-169237322D01*
X106328158Y-169190829D01*
X106374565Y-169179583D01*
X106376348Y-169179499D01*
X106379314Y-169179499D01*
X106382263Y-169179220D01*
X106382270Y-169179220D01*
X106403478Y-169177216D01*
X106403480Y-169177216D01*
X106411127Y-169176493D01*
X106540076Y-169131209D01*
X106650010Y-169050010D01*
X106731209Y-168940076D01*
X106776493Y-168811127D01*
X106779500Y-168779315D01*
X106779499Y-168270686D01*
X106777544Y-168249990D01*
X106777216Y-168246522D01*
X106777215Y-168246518D01*
X106776493Y-168238873D01*
X106731209Y-168109924D01*
X106650010Y-167999990D01*
X106540076Y-167918791D01*
X106411127Y-167873507D01*
X106403485Y-167872785D01*
X106403482Y-167872784D01*
X106388579Y-167871376D01*
X106379315Y-167870500D01*
X106050223Y-167870500D01*
X105720686Y-167870501D01*
X105717738Y-167870780D01*
X105717729Y-167870780D01*
X105696522Y-167872784D01*
X105696520Y-167872784D01*
X105688873Y-167873507D01*
X105559924Y-167918791D01*
X105449990Y-167999990D01*
X105368791Y-168109924D01*
X105323507Y-168238873D01*
X105322785Y-168246515D01*
X105322784Y-168246518D01*
X105321376Y-168261421D01*
X105320500Y-168270685D01*
X105320501Y-168779314D01*
X105323507Y-168811127D01*
X105368791Y-168940076D01*
X105374387Y-168947652D01*
X105442653Y-169040076D01*
X105449990Y-169050010D01*
X105457565Y-169055605D01*
X105494360Y-169082782D01*
X105537271Y-169139344D01*
X105545500Y-169184133D01*
X105545500Y-172710679D01*
X105525498Y-172778800D01*
X105471652Y-172825379D01*
X105316901Y-172895740D01*
X105141886Y-173019887D01*
X104993505Y-173174888D01*
X104877110Y-173355151D01*
X104874867Y-173360717D01*
X104828610Y-173475497D01*
X104796903Y-173554172D01*
X104755776Y-173764769D01*
X104755500Y-173770412D01*
X104755500Y-174378611D01*
X101924500Y-174378611D01*
X101924500Y-173207244D01*
X101922315Y-173187129D01*
X101918651Y-173153403D01*
X101918651Y-173153402D01*
X101917798Y-173145552D01*
X101909591Y-173123658D01*
X101896414Y-173088510D01*
X101867071Y-173010236D01*
X101861691Y-173003057D01*
X101861689Y-173003054D01*
X101785785Y-172901776D01*
X101780404Y-172894596D01*
X101700182Y-172834473D01*
X101671946Y-172813311D01*
X101671943Y-172813309D01*
X101664764Y-172807929D01*
X101564921Y-172770500D01*
X101536843Y-172759974D01*
X101536841Y-172759974D01*
X101529448Y-172757202D01*
X101521598Y-172756349D01*
X101521597Y-172756349D01*
X101471153Y-172750869D01*
X101471152Y-172750869D01*
X101467756Y-172750500D01*
X100132244Y-172750500D01*
X100128848Y-172750869D01*
X100128847Y-172750869D01*
X100078403Y-172756349D01*
X100078402Y-172756349D01*
X100070552Y-172757202D01*
X100063159Y-172759974D01*
X100063157Y-172759974D01*
X100035079Y-172770500D01*
X99935236Y-172807929D01*
X99928057Y-172813309D01*
X99928054Y-172813311D01*
X99899818Y-172834473D01*
X99819596Y-172894596D01*
X99814215Y-172901776D01*
X99738311Y-173003054D01*
X99738309Y-173003057D01*
X99732929Y-173010236D01*
X99703586Y-173088510D01*
X99690410Y-173123658D01*
X99682202Y-173145552D01*
X99681349Y-173153402D01*
X99681349Y-173153403D01*
X99677685Y-173187129D01*
X99675500Y-173207244D01*
X99675500Y-174992756D01*
X98987387Y-174992756D01*
X99082890Y-174844849D01*
X99125647Y-174738755D01*
X99160853Y-174651397D01*
X99160854Y-174651394D01*
X99163097Y-174645828D01*
X99201420Y-174449588D01*
X99203356Y-174439677D01*
X99203356Y-174439674D01*
X99204224Y-174435231D01*
X99204500Y-174429588D01*
X99204500Y-173821389D01*
X99189235Y-173661395D01*
X99128832Y-173455497D01*
X99030583Y-173264736D01*
X98898035Y-173095995D01*
X98889410Y-173088510D01*
X98806334Y-173016421D01*
X98735971Y-172955363D01*
X98550237Y-172847913D01*
X98544567Y-172845944D01*
X98519168Y-172837124D01*
X98461378Y-172795883D01*
X98435058Y-172729945D01*
X98434500Y-172718096D01*
X98434500Y-169392698D01*
X98454502Y-169324577D01*
X98508158Y-169278084D01*
X98518751Y-169273816D01*
X98584697Y-169250657D01*
X98640076Y-169231209D01*
X98750010Y-169150010D01*
X98831209Y-169040076D01*
X98876493Y-168911127D01*
X98879500Y-168879315D01*
X98879499Y-168370686D01*
X98879183Y-168367334D01*
X98877216Y-168346522D01*
X98877215Y-168346518D01*
X98876493Y-168338873D01*
X98831209Y-168209924D01*
X98750010Y-168099990D01*
X98640076Y-168018791D01*
X98511127Y-167973507D01*
X98503485Y-167972785D01*
X98503482Y-167972784D01*
X98488579Y-167971376D01*
X98479315Y-167970500D01*
X98150223Y-167970500D01*
X97820686Y-167970501D01*
X97817738Y-167970780D01*
X97817729Y-167970780D01*
X97796522Y-167972784D01*
X97796520Y-167972784D01*
X97788873Y-167973507D01*
X97659924Y-168018791D01*
X97549990Y-168099990D01*
X97468791Y-168209924D01*
X97423507Y-168338873D01*
X97420500Y-168370685D01*
X97420501Y-168879314D01*
X97420780Y-168882262D01*
X97420780Y-168882271D01*
X97422784Y-168903478D01*
X97423507Y-168911127D01*
X97468791Y-169040076D01*
X97549990Y-169150010D01*
X97659924Y-169231209D01*
X97661418Y-169231734D01*
X97709301Y-169278399D01*
X97725500Y-169340203D01*
X97725500Y-172719772D01*
X97705498Y-172787893D01*
X97651651Y-172834473D01*
X97516901Y-172895740D01*
X97341886Y-173019887D01*
X97193505Y-173174888D01*
X97077110Y-173355151D01*
X97074867Y-173360717D01*
X97028610Y-173475497D01*
X96996903Y-173554172D01*
X96955776Y-173764769D01*
X96955500Y-173770412D01*
X96955500Y-174378611D01*
X94124500Y-174378611D01*
X94124500Y-173207244D01*
X94122315Y-173187129D01*
X94118651Y-173153403D01*
X94118651Y-173153402D01*
X94117798Y-173145552D01*
X94109591Y-173123658D01*
X94096414Y-173088510D01*
X94067071Y-173010236D01*
X94061691Y-173003057D01*
X94061689Y-173003054D01*
X93985785Y-172901776D01*
X93980404Y-172894596D01*
X93900182Y-172834473D01*
X93871946Y-172813311D01*
X93871943Y-172813309D01*
X93864764Y-172807929D01*
X93764921Y-172770500D01*
X93736843Y-172759974D01*
X93736841Y-172759974D01*
X93729448Y-172757202D01*
X93721598Y-172756349D01*
X93721597Y-172756349D01*
X93671153Y-172750869D01*
X93671152Y-172750869D01*
X93667756Y-172750500D01*
X92332244Y-172750500D01*
X92328848Y-172750869D01*
X92328847Y-172750869D01*
X92278403Y-172756349D01*
X92278402Y-172756349D01*
X92270552Y-172757202D01*
X92263159Y-172759974D01*
X92263157Y-172759974D01*
X92235079Y-172770500D01*
X92135236Y-172807929D01*
X92128057Y-172813309D01*
X92128054Y-172813311D01*
X92099818Y-172834473D01*
X92019596Y-172894596D01*
X92014215Y-172901776D01*
X91938311Y-173003054D01*
X91938309Y-173003057D01*
X91932929Y-173010236D01*
X91903586Y-173088510D01*
X91890410Y-173123658D01*
X91882202Y-173145552D01*
X91881349Y-173153402D01*
X91881349Y-173153403D01*
X91877685Y-173187129D01*
X91875500Y-173207244D01*
X91875500Y-174992756D01*
X91160301Y-174992756D01*
X91242890Y-174864849D01*
X91289244Y-174749830D01*
X91320853Y-174671397D01*
X91320854Y-174671394D01*
X91323097Y-174665828D01*
X91364224Y-174455231D01*
X91364500Y-174449588D01*
X91364500Y-173841389D01*
X91349235Y-173681395D01*
X91288832Y-173475497D01*
X91190583Y-173284736D01*
X91058035Y-173115995D01*
X90895971Y-172975363D01*
X90710237Y-172867913D01*
X90704567Y-172865944D01*
X90679168Y-172857124D01*
X90621378Y-172815883D01*
X90595058Y-172749945D01*
X90594500Y-172738096D01*
X90594500Y-169221627D01*
X90614502Y-169153506D01*
X90668158Y-169107013D01*
X90678751Y-169102745D01*
X90698749Y-169095722D01*
X90740076Y-169081209D01*
X90850010Y-169000010D01*
X90931209Y-168890076D01*
X90976493Y-168761127D01*
X90979500Y-168729315D01*
X90979499Y-168220686D01*
X90978058Y-168205428D01*
X90977216Y-168196522D01*
X90977215Y-168196518D01*
X90976493Y-168188873D01*
X90931209Y-168059924D01*
X90850010Y-167949990D01*
X90740076Y-167868791D01*
X90611127Y-167823507D01*
X90603485Y-167822785D01*
X90603482Y-167822784D01*
X90588579Y-167821376D01*
X90579315Y-167820500D01*
X90250223Y-167820500D01*
X89920686Y-167820501D01*
X89917738Y-167820780D01*
X89917729Y-167820780D01*
X89896522Y-167822784D01*
X89896520Y-167822784D01*
X89888873Y-167823507D01*
X89881623Y-167826053D01*
X89867680Y-167830949D01*
X89759924Y-167868791D01*
X89649990Y-167949990D01*
X89568791Y-168059924D01*
X89523507Y-168188873D01*
X89520500Y-168220685D01*
X89520501Y-168729314D01*
X89523507Y-168761127D01*
X89568791Y-168890076D01*
X89649990Y-169000010D01*
X89657561Y-169005602D01*
X89752351Y-169075616D01*
X89752354Y-169075617D01*
X89759924Y-169081209D01*
X89768807Y-169084329D01*
X89768810Y-169084330D01*
X89801249Y-169095722D01*
X89858894Y-169137165D01*
X89884982Y-169203194D01*
X89885500Y-169214604D01*
X89885500Y-172739772D01*
X89865498Y-172807893D01*
X89811651Y-172854473D01*
X89676901Y-172915740D01*
X89501886Y-173039887D01*
X89353505Y-173194888D01*
X89237110Y-173375151D01*
X89234867Y-173380717D01*
X89167208Y-173548603D01*
X89156903Y-173574172D01*
X89140994Y-173655637D01*
X89118277Y-173771964D01*
X89115776Y-173784769D01*
X89115500Y-173790412D01*
X89115500Y-174398611D01*
X86284500Y-174398611D01*
X86284500Y-173227244D01*
X86284131Y-173223847D01*
X86278651Y-173173403D01*
X86278651Y-173173402D01*
X86277798Y-173165552D01*
X86270301Y-173145552D01*
X86253491Y-173100713D01*
X86227071Y-173030236D01*
X86221691Y-173023057D01*
X86221689Y-173023054D01*
X86145785Y-172921776D01*
X86140404Y-172914596D01*
X86051429Y-172847913D01*
X86031946Y-172833311D01*
X86031943Y-172833309D01*
X86024764Y-172827929D01*
X85917967Y-172787893D01*
X85896843Y-172779974D01*
X85896841Y-172779974D01*
X85889448Y-172777202D01*
X85881598Y-172776349D01*
X85881597Y-172776349D01*
X85831153Y-172770869D01*
X85831152Y-172770869D01*
X85827756Y-172770500D01*
X84492244Y-172770500D01*
X84488848Y-172770869D01*
X84488847Y-172770869D01*
X84438403Y-172776349D01*
X84438402Y-172776349D01*
X84430552Y-172777202D01*
X84423159Y-172779974D01*
X84423157Y-172779974D01*
X84402033Y-172787893D01*
X84295236Y-172827929D01*
X84288057Y-172833309D01*
X84288054Y-172833311D01*
X84268571Y-172847913D01*
X84179596Y-172914596D01*
X84174215Y-172921776D01*
X84098311Y-173023054D01*
X84098309Y-173023057D01*
X84092929Y-173030236D01*
X84066509Y-173100713D01*
X84049700Y-173145552D01*
X84042202Y-173165552D01*
X84041349Y-173173402D01*
X84041349Y-173173403D01*
X84035869Y-173223847D01*
X84035500Y-173227244D01*
X84035500Y-175012756D01*
X83347387Y-175012756D01*
X83442890Y-174864849D01*
X83489244Y-174749830D01*
X83520853Y-174671397D01*
X83520854Y-174671394D01*
X83523097Y-174665828D01*
X83564224Y-174455231D01*
X83564500Y-174449588D01*
X83564500Y-173841389D01*
X83549235Y-173681395D01*
X83488832Y-173475497D01*
X83390583Y-173284736D01*
X83258035Y-173115995D01*
X83095971Y-172975363D01*
X82910237Y-172867913D01*
X82904567Y-172865944D01*
X82879168Y-172857124D01*
X82821378Y-172815883D01*
X82795058Y-172749945D01*
X82794500Y-172738096D01*
X82794500Y-169504068D01*
X82814502Y-169435947D01*
X82868158Y-169389454D01*
X82878738Y-169385191D01*
X82890076Y-169381209D01*
X83000010Y-169300010D01*
X83081209Y-169190076D01*
X83126493Y-169061127D01*
X83128260Y-169042439D01*
X83128624Y-169038579D01*
X83129500Y-169029315D01*
X83129499Y-168520686D01*
X83126493Y-168488873D01*
X83081209Y-168359924D01*
X83000010Y-168249990D01*
X82890076Y-168168791D01*
X82761127Y-168123507D01*
X82753485Y-168122785D01*
X82753482Y-168122784D01*
X82738579Y-168121376D01*
X82729315Y-168120500D01*
X82400223Y-168120500D01*
X82070686Y-168120501D01*
X82067738Y-168120780D01*
X82067729Y-168120780D01*
X82046522Y-168122784D01*
X82046520Y-168122784D01*
X82038873Y-168123507D01*
X81909924Y-168168791D01*
X81799990Y-168249990D01*
X81718791Y-168359924D01*
X81673507Y-168488873D01*
X81670500Y-168520685D01*
X81670501Y-169029314D01*
X81670780Y-169032262D01*
X81670780Y-169032271D01*
X81672784Y-169053478D01*
X81673507Y-169061127D01*
X81718791Y-169190076D01*
X81799990Y-169300010D01*
X81909924Y-169381209D01*
X82001253Y-169413282D01*
X82058894Y-169454723D01*
X82084982Y-169520752D01*
X82085500Y-169532162D01*
X82085500Y-172739772D01*
X82065498Y-172807893D01*
X82011651Y-172854473D01*
X81876901Y-172915740D01*
X81701886Y-173039887D01*
X81553505Y-173194888D01*
X81437110Y-173375151D01*
X81434867Y-173380717D01*
X81367208Y-173548603D01*
X81356903Y-173574172D01*
X81340994Y-173655637D01*
X81318277Y-173771964D01*
X81315776Y-173784769D01*
X81315500Y-173790412D01*
X81315500Y-174398611D01*
X78500000Y-174398611D01*
X78500000Y-166852190D01*
X78520002Y-166784069D01*
X78536905Y-166763095D01*
X79513095Y-165786905D01*
X79575407Y-165752879D01*
X79602190Y-165750000D01*
X81348090Y-165750000D01*
X81416211Y-165770002D01*
G37*
G04 #@! TD.AperFunction*
G04 #@! TA.AperFunction,Conductor*
G36*
X98531694Y-160918306D02*
G01*
X98550000Y-160962500D01*
X98550000Y-162124112D01*
X98531694Y-162168306D01*
X97618306Y-163081694D01*
X97574112Y-163100000D01*
X95862500Y-163100000D01*
X95818306Y-163081694D01*
X95800000Y-163037500D01*
X95800000Y-162675888D01*
X95818306Y-162631694D01*
X96081694Y-162368306D01*
X96125888Y-162350000D01*
X96500000Y-162350000D01*
X97031694Y-161818306D01*
X97075888Y-161800000D01*
X97500000Y-161800000D01*
X98050000Y-161250000D01*
X98050000Y-160962500D01*
X98068306Y-160918306D01*
X98112500Y-160900000D01*
X98487500Y-160900000D01*
X98531694Y-160918306D01*
G37*
G04 #@! TD.AperFunction*
G04 #@! TA.AperFunction,Conductor*
G36*
X74342121Y-155820002D02*
G01*
X74388614Y-155873658D01*
X74400000Y-155926000D01*
X74400000Y-157499500D01*
X74379998Y-157567621D01*
X74326342Y-157614114D01*
X74274000Y-157625500D01*
X73410481Y-157625501D01*
X73394934Y-157625501D01*
X73359182Y-157632612D01*
X73332874Y-157637844D01*
X73332872Y-157637845D01*
X73320699Y-157640266D01*
X73310379Y-157647161D01*
X73310378Y-157647162D01*
X73267968Y-157675500D01*
X73236516Y-157696516D01*
X73180266Y-157780699D01*
X73165500Y-157854933D01*
X73165501Y-158305066D01*
X73180266Y-158379301D01*
X73176066Y-158380136D01*
X73181157Y-158427324D01*
X73180172Y-158430680D01*
X73180266Y-158430699D01*
X73165500Y-158504933D01*
X73165501Y-158955066D01*
X73172549Y-158990502D01*
X73180266Y-159029301D01*
X73176066Y-159030136D01*
X73181157Y-159077324D01*
X73180172Y-159080680D01*
X73180266Y-159080699D01*
X73165500Y-159154933D01*
X73165501Y-159605066D01*
X73180266Y-159679301D01*
X73176066Y-159680136D01*
X73181157Y-159727324D01*
X73180172Y-159730680D01*
X73180266Y-159730699D01*
X73165500Y-159804933D01*
X73165501Y-160255066D01*
X73180266Y-160329301D01*
X73236516Y-160413484D01*
X73320699Y-160469734D01*
X73394933Y-160484500D01*
X73410476Y-160484500D01*
X74274001Y-160484499D01*
X74342121Y-160504501D01*
X74388614Y-160558157D01*
X74400000Y-160610499D01*
X74400000Y-162697810D01*
X74379998Y-162765931D01*
X74363095Y-162786905D01*
X73736905Y-163413095D01*
X73674593Y-163447121D01*
X73647810Y-163450000D01*
X71052190Y-163450000D01*
X70984069Y-163429998D01*
X70963095Y-163413095D01*
X70586905Y-163036905D01*
X70552879Y-162974593D01*
X70550000Y-162947810D01*
X70550000Y-155926000D01*
X70570002Y-155857879D01*
X70623658Y-155811386D01*
X70676000Y-155800000D01*
X74274000Y-155800000D01*
X74342121Y-155820002D01*
G37*
G04 #@! TD.AperFunction*
M02*
