G04 #@! TF.GenerationSoftware,KiCad,Pcbnew,(6.0.7)*
G04 #@! TF.CreationDate,2022-10-27T11:37:51+02:00*
G04 #@! TF.ProjectId,DualValveCon,4475616c-5661-46c7-9665-436f6e2e6b69,rev?*
G04 #@! TF.SameCoordinates,Original*
G04 #@! TF.FileFunction,Legend,Bot*
G04 #@! TF.FilePolarity,Positive*
%FSLAX46Y46*%
G04 Gerber Fmt 4.6, Leading zero omitted, Abs format (unit mm)*
G04 Created by KiCad (PCBNEW (6.0.7)) date 2022-10-27 11:37:51*
%MOMM*%
%LPD*%
G01*
G04 APERTURE LIST*
G04 Aperture macros list*
%AMRoundRect*
0 Rectangle with rounded corners*
0 $1 Rounding radius*
0 $2 $3 $4 $5 $6 $7 $8 $9 X,Y pos of 4 corners*
0 Add a 4 corners polygon primitive as box body*
4,1,4,$2,$3,$4,$5,$6,$7,$8,$9,$2,$3,0*
0 Add four circle primitives for the rounded corners*
1,1,$1+$1,$2,$3*
1,1,$1+$1,$4,$5*
1,1,$1+$1,$6,$7*
1,1,$1+$1,$8,$9*
0 Add four rect primitives between the rounded corners*
20,1,$1+$1,$2,$3,$4,$5,0*
20,1,$1+$1,$4,$5,$6,$7,0*
20,1,$1+$1,$6,$7,$8,$9,0*
20,1,$1+$1,$8,$9,$2,$3,0*%
G04 Aperture macros list end*
%ADD10C,0.150000*%
%ADD11C,3.300000*%
%ADD12RoundRect,0.300000X0.750000X-0.600000X0.750000X0.600000X-0.750000X0.600000X-0.750000X-0.600000X0*%
%ADD13O,2.100000X1.800000*%
%ADD14RoundRect,0.300000X-0.620000X-0.845000X0.620000X-0.845000X0.620000X0.845000X-0.620000X0.845000X0*%
%ADD15O,1.840000X2.290000*%
%ADD16O,1.150000X2.000000*%
%ADD17RoundRect,0.050000X0.850000X-0.850000X0.850000X0.850000X-0.850000X0.850000X-0.850000X-0.850000X0*%
%ADD18O,1.800000X1.800000*%
%ADD19RoundRect,0.050000X0.850000X0.850000X-0.850000X0.850000X-0.850000X-0.850000X0.850000X-0.850000X0*%
%ADD20RoundRect,0.050000X0.800000X-0.800000X0.800000X0.800000X-0.800000X0.800000X-0.800000X-0.800000X0*%
%ADD21C,1.700000*%
G04 APERTURE END LIST*
D10*
X167785714Y-110452380D02*
X167785714Y-109452380D01*
X167547619Y-109452380D01*
X167404761Y-109500000D01*
X167309523Y-109595238D01*
X167261904Y-109690476D01*
X167214285Y-109880952D01*
X167214285Y-110023809D01*
X167261904Y-110214285D01*
X167309523Y-110309523D01*
X167404761Y-110404761D01*
X167547619Y-110452380D01*
X167785714Y-110452380D01*
X166357142Y-109785714D02*
X166357142Y-110452380D01*
X166785714Y-109785714D02*
X166785714Y-110309523D01*
X166738095Y-110404761D01*
X166642857Y-110452380D01*
X166500000Y-110452380D01*
X166404761Y-110404761D01*
X166357142Y-110357142D01*
X165452380Y-110452380D02*
X165452380Y-109928571D01*
X165500000Y-109833333D01*
X165595238Y-109785714D01*
X165785714Y-109785714D01*
X165880952Y-109833333D01*
X165452380Y-110404761D02*
X165547619Y-110452380D01*
X165785714Y-110452380D01*
X165880952Y-110404761D01*
X165928571Y-110309523D01*
X165928571Y-110214285D01*
X165880952Y-110119047D01*
X165785714Y-110071428D01*
X165547619Y-110071428D01*
X165452380Y-110023809D01*
X164833333Y-110452380D02*
X164928571Y-110404761D01*
X164976190Y-110309523D01*
X164976190Y-109452380D01*
X164595238Y-109452380D02*
X164261904Y-110452380D01*
X163928571Y-109452380D01*
X163166666Y-110452380D02*
X163166666Y-109928571D01*
X163214285Y-109833333D01*
X163309523Y-109785714D01*
X163500000Y-109785714D01*
X163595238Y-109833333D01*
X163166666Y-110404761D02*
X163261904Y-110452380D01*
X163500000Y-110452380D01*
X163595238Y-110404761D01*
X163642857Y-110309523D01*
X163642857Y-110214285D01*
X163595238Y-110119047D01*
X163500000Y-110071428D01*
X163261904Y-110071428D01*
X163166666Y-110023809D01*
X162547619Y-110452380D02*
X162642857Y-110404761D01*
X162690476Y-110309523D01*
X162690476Y-109452380D01*
X162261904Y-109785714D02*
X162023809Y-110452380D01*
X161785714Y-109785714D01*
X161023809Y-110404761D02*
X161119047Y-110452380D01*
X161309523Y-110452380D01*
X161404761Y-110404761D01*
X161452380Y-110309523D01*
X161452380Y-109928571D01*
X161404761Y-109833333D01*
X161309523Y-109785714D01*
X161119047Y-109785714D01*
X161023809Y-109833333D01*
X160976190Y-109928571D01*
X160976190Y-110023809D01*
X161452380Y-110119047D01*
X159976190Y-110357142D02*
X160023809Y-110404761D01*
X160166666Y-110452380D01*
X160261904Y-110452380D01*
X160404761Y-110404761D01*
X160500000Y-110309523D01*
X160547619Y-110214285D01*
X160595238Y-110023809D01*
X160595238Y-109880952D01*
X160547619Y-109690476D01*
X160500000Y-109595238D01*
X160404761Y-109500000D01*
X160261904Y-109452380D01*
X160166666Y-109452380D01*
X160023809Y-109500000D01*
X159976190Y-109547619D01*
X159404761Y-110452380D02*
X159500000Y-110404761D01*
X159547619Y-110357142D01*
X159595238Y-110261904D01*
X159595238Y-109976190D01*
X159547619Y-109880952D01*
X159500000Y-109833333D01*
X159404761Y-109785714D01*
X159261904Y-109785714D01*
X159166666Y-109833333D01*
X159119047Y-109880952D01*
X159071428Y-109976190D01*
X159071428Y-110261904D01*
X159119047Y-110357142D01*
X159166666Y-110404761D01*
X159261904Y-110452380D01*
X159404761Y-110452380D01*
X158642857Y-109785714D02*
X158642857Y-110452380D01*
X158642857Y-109880952D02*
X158595238Y-109833333D01*
X158500000Y-109785714D01*
X158357142Y-109785714D01*
X158261904Y-109833333D01*
X158214285Y-109928571D01*
X158214285Y-110452380D01*
X157119047Y-109452380D02*
X156785714Y-110452380D01*
X156452380Y-109452380D01*
X155595238Y-110452380D02*
X156166666Y-110452380D01*
X155880952Y-110452380D02*
X155880952Y-109452380D01*
X155976190Y-109595238D01*
X156071428Y-109690476D01*
X156166666Y-109738095D01*
X155166666Y-110357142D02*
X155119047Y-110404761D01*
X155166666Y-110452380D01*
X155214285Y-110404761D01*
X155166666Y-110357142D01*
X155166666Y-110452380D01*
X154500000Y-109452380D02*
X154404761Y-109452380D01*
X154309523Y-109500000D01*
X154261904Y-109547619D01*
X154214285Y-109642857D01*
X154166666Y-109833333D01*
X154166666Y-110071428D01*
X154214285Y-110261904D01*
X154261904Y-110357142D01*
X154309523Y-110404761D01*
X154404761Y-110452380D01*
X154500000Y-110452380D01*
X154595238Y-110404761D01*
X154642857Y-110357142D01*
X154690476Y-110261904D01*
X154738095Y-110071428D01*
X154738095Y-109833333D01*
X154690476Y-109642857D01*
X154642857Y-109547619D01*
X154595238Y-109500000D01*
X154500000Y-109452380D01*
%LPC*%
D11*
X190000000Y-66000000D03*
D12*
X175000000Y-98250000D03*
D13*
X175000000Y-95750000D03*
D14*
X161400000Y-72520000D03*
D15*
X163940000Y-72520000D03*
X166480000Y-72520000D03*
D16*
X138425000Y-64700000D03*
X145575000Y-64700000D03*
D12*
X175000000Y-90250000D03*
D13*
X175000000Y-87750000D03*
D11*
X190000000Y-108000000D03*
D17*
X144075000Y-99400000D03*
D18*
X146615000Y-99400000D03*
X149155000Y-99400000D03*
D11*
X130000000Y-108000000D03*
X130000000Y-66000000D03*
D14*
X153560000Y-72520000D03*
D15*
X156100000Y-72520000D03*
X158640000Y-72520000D03*
D19*
X138225000Y-76750000D03*
D18*
X138225000Y-74210000D03*
D20*
X166000000Y-82000000D03*
D21*
X166000000Y-79500000D03*
M02*
