G04 #@! TF.GenerationSoftware,KiCad,Pcbnew,(6.0.7)*
G04 #@! TF.CreationDate,2022-10-27T11:37:51+02:00*
G04 #@! TF.ProjectId,DualValveCon,4475616c-5661-46c7-9665-436f6e2e6b69,rev?*
G04 #@! TF.SameCoordinates,Original*
G04 #@! TF.FileFunction,Copper,L1,Top*
G04 #@! TF.FilePolarity,Positive*
%FSLAX46Y46*%
G04 Gerber Fmt 4.6, Leading zero omitted, Abs format (unit mm)*
G04 Created by KiCad (PCBNEW (6.0.7)) date 2022-10-27 11:37:51*
%MOMM*%
%LPD*%
G01*
G04 APERTURE LIST*
G04 Aperture macros list*
%AMRoundRect*
0 Rectangle with rounded corners*
0 $1 Rounding radius*
0 $2 $3 $4 $5 $6 $7 $8 $9 X,Y pos of 4 corners*
0 Add a 4 corners polygon primitive as box body*
4,1,4,$2,$3,$4,$5,$6,$7,$8,$9,$2,$3,0*
0 Add four circle primitives for the rounded corners*
1,1,$1+$1,$2,$3*
1,1,$1+$1,$4,$5*
1,1,$1+$1,$6,$7*
1,1,$1+$1,$8,$9*
0 Add four rect primitives between the rounded corners*
20,1,$1+$1,$2,$3,$4,$5,0*
20,1,$1+$1,$4,$5,$6,$7,0*
20,1,$1+$1,$6,$7,$8,$9,0*
20,1,$1+$1,$8,$9,$2,$3,0*%
G04 Aperture macros list end*
G04 #@! TA.AperFunction,SMDPad,CuDef*
%ADD10RoundRect,0.250000X0.325000X1.100000X-0.325000X1.100000X-0.325000X-1.100000X0.325000X-1.100000X0*%
G04 #@! TD*
G04 #@! TA.AperFunction,SMDPad,CuDef*
%ADD11RoundRect,0.050000X-0.387500X-0.050000X0.387500X-0.050000X0.387500X0.050000X-0.387500X0.050000X0*%
G04 #@! TD*
G04 #@! TA.AperFunction,SMDPad,CuDef*
%ADD12RoundRect,0.050000X-0.050000X-0.387500X0.050000X-0.387500X0.050000X0.387500X-0.050000X0.387500X0*%
G04 #@! TD*
G04 #@! TA.AperFunction,SMDPad,CuDef*
%ADD13R,3.200000X3.200000*%
G04 #@! TD*
G04 #@! TA.AperFunction,SMDPad,CuDef*
%ADD14RoundRect,0.200000X-0.275000X0.200000X-0.275000X-0.200000X0.275000X-0.200000X0.275000X0.200000X0*%
G04 #@! TD*
G04 #@! TA.AperFunction,ComponentPad*
%ADD15RoundRect,0.250000X0.750000X-0.600000X0.750000X0.600000X-0.750000X0.600000X-0.750000X-0.600000X0*%
G04 #@! TD*
G04 #@! TA.AperFunction,ComponentPad*
%ADD16O,2.000000X1.700000*%
G04 #@! TD*
G04 #@! TA.AperFunction,SMDPad,CuDef*
%ADD17RoundRect,0.250000X-0.325000X-0.650000X0.325000X-0.650000X0.325000X0.650000X-0.325000X0.650000X0*%
G04 #@! TD*
G04 #@! TA.AperFunction,SMDPad,CuDef*
%ADD18RoundRect,0.225000X0.225000X0.250000X-0.225000X0.250000X-0.225000X-0.250000X0.225000X-0.250000X0*%
G04 #@! TD*
G04 #@! TA.AperFunction,SMDPad,CuDef*
%ADD19RoundRect,0.218750X0.218750X0.256250X-0.218750X0.256250X-0.218750X-0.256250X0.218750X-0.256250X0*%
G04 #@! TD*
G04 #@! TA.AperFunction,SMDPad,CuDef*
%ADD20RoundRect,0.225000X-0.225000X-0.250000X0.225000X-0.250000X0.225000X0.250000X-0.225000X0.250000X0*%
G04 #@! TD*
G04 #@! TA.AperFunction,SMDPad,CuDef*
%ADD21R,0.750000X0.300000*%
G04 #@! TD*
G04 #@! TA.AperFunction,SMDPad,CuDef*
%ADD22R,0.300000X1.700000*%
G04 #@! TD*
G04 #@! TA.AperFunction,ComponentPad*
%ADD23RoundRect,0.250000X-0.620000X-0.845000X0.620000X-0.845000X0.620000X0.845000X-0.620000X0.845000X0*%
G04 #@! TD*
G04 #@! TA.AperFunction,ComponentPad*
%ADD24O,1.740000X2.190000*%
G04 #@! TD*
G04 #@! TA.AperFunction,SMDPad,CuDef*
%ADD25R,1.000000X1.150000*%
G04 #@! TD*
G04 #@! TA.AperFunction,SMDPad,CuDef*
%ADD26R,0.400000X1.400000*%
G04 #@! TD*
G04 #@! TA.AperFunction,ComponentPad*
%ADD27O,1.050000X1.900000*%
G04 #@! TD*
G04 #@! TA.AperFunction,SMDPad,CuDef*
%ADD28R,1.150000X1.450000*%
G04 #@! TD*
G04 #@! TA.AperFunction,SMDPad,CuDef*
%ADD29R,1.750000X1.900000*%
G04 #@! TD*
G04 #@! TA.AperFunction,SMDPad,CuDef*
%ADD30RoundRect,0.218750X0.256250X-0.218750X0.256250X0.218750X-0.256250X0.218750X-0.256250X-0.218750X0*%
G04 #@! TD*
G04 #@! TA.AperFunction,SMDPad,CuDef*
%ADD31RoundRect,0.200000X0.275000X-0.200000X0.275000X0.200000X-0.275000X0.200000X-0.275000X-0.200000X0*%
G04 #@! TD*
G04 #@! TA.AperFunction,SMDPad,CuDef*
%ADD32RoundRect,0.218750X-0.256250X0.218750X-0.256250X-0.218750X0.256250X-0.218750X0.256250X0.218750X0*%
G04 #@! TD*
G04 #@! TA.AperFunction,SMDPad,CuDef*
%ADD33RoundRect,0.055000X-0.145000X-0.055000X0.145000X-0.055000X0.145000X0.055000X-0.145000X0.055000X0*%
G04 #@! TD*
G04 #@! TA.AperFunction,SMDPad,CuDef*
%ADD34RoundRect,0.137500X-0.137500X-0.237500X0.137500X-0.237500X0.137500X0.237500X-0.137500X0.237500X0*%
G04 #@! TD*
G04 #@! TA.AperFunction,SMDPad,CuDef*
%ADD35RoundRect,0.140000X-0.140000X-0.170000X0.140000X-0.170000X0.140000X0.170000X-0.140000X0.170000X0*%
G04 #@! TD*
G04 #@! TA.AperFunction,SMDPad,CuDef*
%ADD36R,0.600000X0.450000*%
G04 #@! TD*
G04 #@! TA.AperFunction,SMDPad,CuDef*
%ADD37RoundRect,0.200000X0.200000X0.275000X-0.200000X0.275000X-0.200000X-0.275000X0.200000X-0.275000X0*%
G04 #@! TD*
G04 #@! TA.AperFunction,SMDPad,CuDef*
%ADD38RoundRect,0.250000X0.850000X-0.375000X0.850000X0.375000X-0.850000X0.375000X-0.850000X-0.375000X0*%
G04 #@! TD*
G04 #@! TA.AperFunction,SMDPad,CuDef*
%ADD39RoundRect,0.225000X-0.250000X0.225000X-0.250000X-0.225000X0.250000X-0.225000X0.250000X0.225000X0*%
G04 #@! TD*
G04 #@! TA.AperFunction,ComponentPad*
%ADD40R,1.700000X1.700000*%
G04 #@! TD*
G04 #@! TA.AperFunction,ComponentPad*
%ADD41O,1.700000X1.700000*%
G04 #@! TD*
G04 #@! TA.AperFunction,SMDPad,CuDef*
%ADD42R,0.500000X0.250000*%
G04 #@! TD*
G04 #@! TA.AperFunction,SMDPad,CuDef*
%ADD43R,0.900000X1.600000*%
G04 #@! TD*
G04 #@! TA.AperFunction,SMDPad,CuDef*
%ADD44RoundRect,0.225000X0.250000X-0.225000X0.250000X0.225000X-0.250000X0.225000X-0.250000X-0.225000X0*%
G04 #@! TD*
G04 #@! TA.AperFunction,SMDPad,CuDef*
%ADD45RoundRect,0.200000X-0.200000X-0.275000X0.200000X-0.275000X0.200000X0.275000X-0.200000X0.275000X0*%
G04 #@! TD*
G04 #@! TA.AperFunction,SMDPad,CuDef*
%ADD46R,5.400000X2.900000*%
G04 #@! TD*
G04 #@! TA.AperFunction,SMDPad,CuDef*
%ADD47RoundRect,0.200000X-0.200000X-0.525000X0.200000X-0.525000X0.200000X0.525000X-0.200000X0.525000X0*%
G04 #@! TD*
G04 #@! TA.AperFunction,SMDPad,CuDef*
%ADD48RoundRect,0.075000X-0.225000X-0.075000X0.225000X-0.075000X0.225000X0.075000X-0.225000X0.075000X0*%
G04 #@! TD*
G04 #@! TA.AperFunction,SMDPad,CuDef*
%ADD49RoundRect,0.075000X-0.075000X-0.787500X0.075000X-0.787500X0.075000X0.787500X-0.075000X0.787500X0*%
G04 #@! TD*
G04 #@! TA.AperFunction,SMDPad,CuDef*
%ADD50RoundRect,0.218750X0.381250X-0.218750X0.381250X0.218750X-0.381250X0.218750X-0.381250X-0.218750X0*%
G04 #@! TD*
G04 #@! TA.AperFunction,ComponentPad*
%ADD51R,1.600000X1.600000*%
G04 #@! TD*
G04 #@! TA.AperFunction,ComponentPad*
%ADD52C,1.600000*%
G04 #@! TD*
G04 #@! TA.AperFunction,ViaPad*
%ADD53C,0.500000*%
G04 #@! TD*
G04 #@! TA.AperFunction,Conductor*
%ADD54C,0.127000*%
G04 #@! TD*
G04 #@! TA.AperFunction,Conductor*
%ADD55C,0.200000*%
G04 #@! TD*
G04 #@! TA.AperFunction,Conductor*
%ADD56C,0.500000*%
G04 #@! TD*
G04 #@! TA.AperFunction,Conductor*
%ADD57C,0.300000*%
G04 #@! TD*
G04 #@! TA.AperFunction,Conductor*
%ADD58C,1.000000*%
G04 #@! TD*
G04 #@! TA.AperFunction,Conductor*
%ADD59C,2.000000*%
G04 #@! TD*
G04 APERTURE END LIST*
D10*
X157900000Y-88250000D03*
X154950000Y-88250000D03*
D11*
X139362500Y-86100000D03*
X139362500Y-86500000D03*
X139362500Y-86900000D03*
X139362500Y-87300000D03*
X139362500Y-87700000D03*
X139362500Y-88100000D03*
X139362500Y-88500000D03*
X139362500Y-88900000D03*
X139362500Y-89300000D03*
X139362500Y-89700000D03*
X139362500Y-90100000D03*
X139362500Y-90500000D03*
X139362500Y-90900000D03*
X139362500Y-91300000D03*
D12*
X140200000Y-92137500D03*
X140600000Y-92137500D03*
X141000000Y-92137500D03*
X141400000Y-92137500D03*
X141800000Y-92137500D03*
X142200000Y-92137500D03*
X142600000Y-92137500D03*
X143000000Y-92137500D03*
X143400000Y-92137500D03*
X143800000Y-92137500D03*
X144200000Y-92137500D03*
X144600000Y-92137500D03*
X145000000Y-92137500D03*
X145400000Y-92137500D03*
D11*
X146237500Y-91300000D03*
X146237500Y-90900000D03*
X146237500Y-90500000D03*
X146237500Y-90100000D03*
X146237500Y-89700000D03*
X146237500Y-89300000D03*
X146237500Y-88900000D03*
X146237500Y-88500000D03*
X146237500Y-88100000D03*
X146237500Y-87700000D03*
X146237500Y-87300000D03*
X146237500Y-86900000D03*
X146237500Y-86500000D03*
X146237500Y-86100000D03*
D12*
X145400000Y-85262500D03*
X145000000Y-85262500D03*
X144600000Y-85262500D03*
X144200000Y-85262500D03*
X143800000Y-85262500D03*
X143400000Y-85262500D03*
X143000000Y-85262500D03*
X142600000Y-85262500D03*
X142200000Y-85262500D03*
X141800000Y-85262500D03*
X141400000Y-85262500D03*
X141000000Y-85262500D03*
X140600000Y-85262500D03*
X140200000Y-85262500D03*
D13*
X142800000Y-88700000D03*
D14*
X143400000Y-78175000D03*
X143400000Y-79825000D03*
D15*
X175000000Y-98250000D03*
D16*
X175000000Y-95750000D03*
D17*
X159350000Y-87950000D03*
X162300000Y-87950000D03*
D10*
X181242500Y-94200000D03*
X178292500Y-94200000D03*
D18*
X139775000Y-80300000D03*
X138225000Y-80300000D03*
D19*
X147700000Y-83300000D03*
X146125000Y-83300000D03*
D20*
X141475000Y-82800000D03*
X143025000Y-82800000D03*
D21*
X136950000Y-81350000D03*
X136950000Y-81850000D03*
X136950000Y-82350000D03*
X136950000Y-82850000D03*
X139850000Y-82850000D03*
X139850000Y-82350000D03*
X139850000Y-81850000D03*
X139850000Y-81350000D03*
D22*
X138400000Y-82100000D03*
D14*
X149700000Y-74175000D03*
X149700000Y-75825000D03*
D23*
X161400000Y-72520000D03*
D24*
X163940000Y-72520000D03*
X166480000Y-72520000D03*
D25*
X138700000Y-95425000D03*
X138700000Y-97175000D03*
X140100000Y-97175000D03*
X140100000Y-95425000D03*
D26*
X143300000Y-67350000D03*
X142650000Y-67350000D03*
X142000000Y-67350000D03*
X141350000Y-67350000D03*
X140700000Y-67350000D03*
D27*
X138425000Y-64700000D03*
X145575000Y-64700000D03*
D28*
X144320000Y-66930000D03*
D29*
X140875000Y-64700000D03*
X143125000Y-64700000D03*
D28*
X139680000Y-66930000D03*
D30*
X127000000Y-97787500D03*
X127000000Y-96212500D03*
D18*
X180575000Y-91800000D03*
X179025000Y-91800000D03*
D20*
X138625000Y-94100000D03*
X140175000Y-94100000D03*
D31*
X135700000Y-97825000D03*
X135700000Y-96175000D03*
D15*
X175000000Y-90250000D03*
D16*
X175000000Y-87750000D03*
D32*
X127000000Y-76212500D03*
X127000000Y-77787500D03*
D33*
X198300000Y-87250000D03*
X199700000Y-87250000D03*
X199700000Y-86750000D03*
X198300000Y-86750000D03*
D34*
X199000000Y-87000000D03*
D35*
X120520000Y-88000000D03*
X121480000Y-88000000D03*
D14*
X182600000Y-96975000D03*
X182600000Y-98625000D03*
D18*
X180775000Y-100000000D03*
X179225000Y-100000000D03*
D36*
X148200000Y-70900000D03*
X146100000Y-70900000D03*
D14*
X144600000Y-78175000D03*
X144600000Y-79825000D03*
D30*
X193000000Y-97787500D03*
X193000000Y-96212500D03*
D37*
X180825000Y-98800000D03*
X179175000Y-98800000D03*
D32*
X193000000Y-76212500D03*
X193000000Y-77787500D03*
D38*
X161725000Y-91925000D03*
X161725000Y-89775000D03*
D35*
X198520000Y-88000000D03*
X199480000Y-88000000D03*
D20*
X148225000Y-86100000D03*
X149775000Y-86100000D03*
D39*
X144000000Y-94025000D03*
X144000000Y-95575000D03*
D40*
X144075000Y-99400000D03*
D41*
X146615000Y-99400000D03*
X149155000Y-99400000D03*
D37*
X184225000Y-106600000D03*
X182575000Y-106600000D03*
D14*
X157925000Y-94225000D03*
X157925000Y-95875000D03*
D20*
X141475000Y-81650000D03*
X143025000Y-81650000D03*
D42*
X180417500Y-89550000D03*
X180417500Y-89050000D03*
X180417500Y-88550000D03*
X180417500Y-88050000D03*
X178517500Y-88050000D03*
X178517500Y-88550000D03*
X178517500Y-89050000D03*
X178517500Y-89550000D03*
D43*
X179467500Y-88800000D03*
D37*
X145075000Y-71500000D03*
X143425000Y-71500000D03*
D19*
X136787500Y-63000000D03*
X135212500Y-63000000D03*
D31*
X137000000Y-80325000D03*
X137000000Y-78675000D03*
D18*
X162300000Y-93450000D03*
X160750000Y-93450000D03*
X137375000Y-86100000D03*
X135825000Y-86100000D03*
D39*
X142800000Y-94025000D03*
X142800000Y-95575000D03*
D44*
X147412500Y-82175000D03*
X147412500Y-80625000D03*
D23*
X153560000Y-72520000D03*
D24*
X156100000Y-72520000D03*
X158640000Y-72520000D03*
D40*
X138225000Y-76750000D03*
D41*
X138225000Y-74210000D03*
D10*
X157900000Y-85250000D03*
X154950000Y-85250000D03*
D14*
X151000000Y-74175000D03*
X151000000Y-75825000D03*
D37*
X145075000Y-70300000D03*
X143425000Y-70300000D03*
D33*
X120300000Y-87250000D03*
X121700000Y-87250000D03*
X121700000Y-86750000D03*
X120300000Y-86750000D03*
D34*
X121000000Y-87000000D03*
D45*
X145075000Y-73900000D03*
X146725000Y-73900000D03*
D31*
X135800000Y-69325000D03*
X135800000Y-67675000D03*
D14*
X183800000Y-77175000D03*
X183800000Y-78825000D03*
D20*
X148425000Y-89900000D03*
X149975000Y-89900000D03*
D42*
X180417500Y-97650000D03*
X180417500Y-97150000D03*
X180417500Y-96650000D03*
X180417500Y-96150000D03*
X178517500Y-96150000D03*
X178517500Y-96650000D03*
X178517500Y-97150000D03*
X178517500Y-97650000D03*
D43*
X179467500Y-96900000D03*
D18*
X137675000Y-89700000D03*
X136125000Y-89700000D03*
D44*
X156525000Y-95850000D03*
X156525000Y-94300000D03*
X145000000Y-83075000D03*
X145000000Y-81525000D03*
D46*
X176000000Y-82950000D03*
X176000000Y-73050000D03*
D20*
X159125000Y-95950000D03*
X160675000Y-95950000D03*
D14*
X141400000Y-96975000D03*
X141400000Y-98625000D03*
D18*
X140175000Y-98500000D03*
X138625000Y-98500000D03*
D47*
X157875000Y-91162500D03*
D48*
X157775000Y-92212500D03*
X157775000Y-92662500D03*
X157775000Y-93112500D03*
X159475000Y-93112500D03*
X159475000Y-92662500D03*
X159475000Y-92212500D03*
D47*
X159375000Y-91162500D03*
D49*
X158625000Y-91025000D03*
D45*
X143425000Y-72700000D03*
X145075000Y-72700000D03*
D10*
X181342500Y-86000000D03*
X178392500Y-86000000D03*
D37*
X156450000Y-93100000D03*
X154800000Y-93100000D03*
X180625000Y-90600000D03*
X178975000Y-90600000D03*
D50*
X153525000Y-87812500D03*
X153525000Y-85687500D03*
D51*
X166000000Y-82000000D03*
D52*
X166000000Y-79500000D03*
D37*
X160700000Y-94750000D03*
X159050000Y-94750000D03*
D44*
X182567500Y-87975000D03*
X182567500Y-86425000D03*
X182600000Y-95975000D03*
X182600000Y-94425000D03*
X155325000Y-95875000D03*
X155325000Y-94325000D03*
X146212500Y-82175000D03*
X146212500Y-80625000D03*
D14*
X182500000Y-88975000D03*
X182500000Y-90625000D03*
D17*
X159350000Y-85850000D03*
X162300000Y-85850000D03*
D31*
X135700000Y-76925000D03*
X135700000Y-75275000D03*
D53*
X142000000Y-87750000D03*
X180200000Y-93700000D03*
X146300000Y-79600000D03*
X182700000Y-84700000D03*
X143500000Y-104500000D03*
X195400000Y-86700000D03*
X160425000Y-86350000D03*
X182200000Y-93700000D03*
X180200000Y-94300000D03*
X135400000Y-90200000D03*
X160425000Y-85350000D03*
X144000000Y-96500000D03*
X150700000Y-89700000D03*
X160425000Y-87450000D03*
X141000000Y-105500000D03*
X147200000Y-70400000D03*
X137750000Y-82750000D03*
X125000000Y-87226500D03*
X185600000Y-86700000D03*
X178400000Y-100000000D03*
X147200000Y-71200000D03*
X199400000Y-88700000D03*
X125000000Y-85900000D03*
X149800000Y-85300000D03*
X134800000Y-89100000D03*
X143000000Y-80800000D03*
X143750000Y-87750000D03*
X143750000Y-89750000D03*
X143000000Y-83700000D03*
X138750000Y-99500000D03*
X140600000Y-71400000D03*
X156925000Y-85350000D03*
X195400000Y-85300000D03*
X178200000Y-91800000D03*
X134300000Y-89100000D03*
X124400000Y-85900000D03*
X147500000Y-79750000D03*
X180400000Y-86600000D03*
X179500000Y-96532500D03*
X180400000Y-85400000D03*
X156525000Y-96650000D03*
X179467500Y-88332500D03*
X180200000Y-94900000D03*
X156925000Y-84450000D03*
X160425000Y-88350000D03*
X135100000Y-85700000D03*
X122200000Y-88000000D03*
X134300000Y-87500000D03*
X145000000Y-80750000D03*
X141000000Y-104500000D03*
X146700000Y-72800000D03*
X155325000Y-96650000D03*
X185000000Y-86700000D03*
X143500000Y-105500000D03*
X179467500Y-89232500D03*
X141800000Y-91200000D03*
X141500000Y-71800000D03*
X157925000Y-96650000D03*
X196000000Y-86700000D03*
X156925000Y-87450000D03*
X160025000Y-89950000D03*
X185000000Y-85300000D03*
X140250000Y-93250000D03*
X141500000Y-70400000D03*
X139600000Y-70400000D03*
X196000000Y-85300000D03*
X179500000Y-97300000D03*
X138250000Y-79250000D03*
X185600000Y-85300000D03*
X141800000Y-89700000D03*
X156925000Y-86450000D03*
X134800000Y-87500000D03*
X156925000Y-88450000D03*
X147200000Y-71900000D03*
X124400000Y-87227000D03*
X143000000Y-96500000D03*
X159425000Y-89950000D03*
X193700000Y-88000000D03*
X187800000Y-78800000D03*
X128000000Y-89000000D03*
X149850000Y-68750000D03*
X142252000Y-102500000D03*
X127300000Y-89000000D03*
X132500000Y-85000000D03*
X142252000Y-102000000D03*
X133000000Y-85000000D03*
X137375000Y-70125000D03*
X181800000Y-107000000D03*
X133000000Y-91000000D03*
X147500000Y-89100000D03*
X150300000Y-68300000D03*
X147500000Y-86423500D03*
X181800000Y-106400000D03*
X132000000Y-91000000D03*
X186500000Y-70500000D03*
X187000000Y-70000000D03*
X133000000Y-96100000D03*
X185000000Y-72000000D03*
X186000000Y-71000000D03*
X134000000Y-73000000D03*
X185500000Y-71500000D03*
X193000000Y-88000000D03*
X187175000Y-78825000D03*
X137000000Y-69750000D03*
X153600000Y-94800000D03*
X152288063Y-96061937D03*
X147200000Y-77100000D03*
X149200000Y-77100000D03*
X150000000Y-88600000D03*
X150800000Y-86400000D03*
X152200000Y-86900000D03*
X151250000Y-88200000D03*
X152336937Y-94263063D03*
X150863063Y-95736937D03*
X153750000Y-95550000D03*
X152863063Y-96636937D03*
D54*
X142200000Y-92937552D02*
X142200000Y-92137500D01*
X138800000Y-96300000D02*
X140800000Y-96300000D01*
X140800000Y-96300000D02*
X141073000Y-96027000D01*
X141073000Y-96027000D02*
X141073000Y-94064552D01*
X141073000Y-94064552D02*
X142200000Y-92937552D01*
X138700000Y-96200000D02*
X138800000Y-96300000D01*
D55*
X138625000Y-95350000D02*
X138700000Y-95425000D01*
D54*
X138700000Y-95425000D02*
X138700000Y-96200000D01*
D55*
X138625000Y-94100000D02*
X138625000Y-95350000D01*
X137650000Y-82850000D02*
X137750000Y-82750000D01*
D56*
X179467500Y-88800000D02*
X179467500Y-88332500D01*
X147412500Y-80625000D02*
X147412500Y-79837500D01*
X199480000Y-88000000D02*
X199480000Y-88620000D01*
X179225000Y-100000000D02*
X178400000Y-100000000D01*
X199480000Y-88620000D02*
X199400000Y-88700000D01*
D55*
X141800000Y-91200000D02*
X141800000Y-89700000D01*
X138400000Y-82100000D02*
X138400000Y-80475000D01*
D56*
X138700000Y-97175000D02*
X138700000Y-98425000D01*
D57*
X155325000Y-95875000D02*
X155325000Y-96650000D01*
D55*
X141800000Y-89700000D02*
X142800000Y-88700000D01*
D56*
X180150000Y-95150000D02*
X181100000Y-94200000D01*
X179500000Y-95800000D02*
X180150000Y-95150000D01*
X181900000Y-84700000D02*
X182700000Y-84700000D01*
X145000000Y-81525000D02*
X145000000Y-81500000D01*
D57*
X155325000Y-95875000D02*
X157925000Y-95875000D01*
D56*
X149800000Y-86075000D02*
X149775000Y-86100000D01*
X135100000Y-85700000D02*
X135500000Y-86100000D01*
D58*
X147200000Y-71200000D02*
X147200000Y-71900000D01*
D57*
X156525000Y-95850000D02*
X156525000Y-96650000D01*
D56*
X138625000Y-99375000D02*
X138625000Y-98500000D01*
X147412500Y-79837500D02*
X147500000Y-79750000D01*
X121480000Y-87480000D02*
X121480000Y-88000000D01*
X195400000Y-85300000D02*
X196000000Y-85300000D01*
D55*
X138225000Y-79275000D02*
X138250000Y-79250000D01*
D56*
X125000000Y-87226500D02*
X124999500Y-87227000D01*
X143025000Y-82800000D02*
X143025000Y-83675000D01*
X138750000Y-99500000D02*
X138625000Y-99375000D01*
X129900000Y-89100000D02*
X134800000Y-89100000D01*
D55*
X146725000Y-73900000D02*
X146725000Y-72825000D01*
D56*
X179025000Y-90650000D02*
X178975000Y-90600000D01*
X180200000Y-94900000D02*
X180200000Y-94300000D01*
D55*
X179217500Y-89050000D02*
X179467500Y-88800000D01*
D56*
X195400000Y-86700000D02*
X196000000Y-86700000D01*
X145000000Y-81500000D02*
X145875000Y-80625000D01*
X138700000Y-98425000D02*
X138625000Y-98500000D01*
X140100000Y-93400000D02*
X140250000Y-93250000D01*
D55*
X121480000Y-88000000D02*
X122200000Y-88000000D01*
D56*
X125000000Y-85900000D02*
X128700000Y-85900000D01*
X140100000Y-94175000D02*
X140175000Y-94100000D01*
X181467500Y-94425000D02*
X181242500Y-94200000D01*
D55*
X179217500Y-97150000D02*
X179467500Y-96900000D01*
D56*
X185000000Y-86700000D02*
X195400000Y-86700000D01*
X179225000Y-100000000D02*
X179225000Y-98850000D01*
X180400000Y-86600000D02*
X181000000Y-86000000D01*
X181342500Y-86000000D02*
X181342500Y-85257500D01*
D55*
X141800000Y-92137500D02*
X141800000Y-91200000D01*
D56*
X179025000Y-91800000D02*
X178200000Y-91800000D01*
D58*
X145575000Y-67575000D02*
X146600000Y-68600000D01*
D55*
X199700000Y-87250000D02*
X199700000Y-87780000D01*
D56*
X185600000Y-85300000D02*
X195400000Y-85300000D01*
X180400000Y-86600000D02*
X179467500Y-87532500D01*
X140100000Y-95425000D02*
X140100000Y-94175000D01*
X149800000Y-85300000D02*
X149800000Y-86075000D01*
X179025000Y-91800000D02*
X179025000Y-90650000D01*
X181342500Y-85257500D02*
X181900000Y-84700000D01*
X143500000Y-104500000D02*
X141000000Y-104500000D01*
D55*
X138400000Y-82750000D02*
X137750000Y-82750000D01*
D56*
X143000000Y-95775000D02*
X143000000Y-96500000D01*
X145000000Y-81525000D02*
X145000000Y-80750000D01*
X179467500Y-87532500D02*
X179467500Y-88332500D01*
X179500000Y-96932500D02*
X179467500Y-96900000D01*
D58*
X146600000Y-68600000D02*
X147200000Y-69200000D01*
D56*
X135400000Y-90200000D02*
X135625000Y-90200000D01*
X130300000Y-87500000D02*
X134800000Y-87500000D01*
D55*
X136887500Y-62800000D02*
X138425000Y-64337500D01*
X178517500Y-97150000D02*
X179217500Y-97150000D01*
D56*
X146212500Y-79687500D02*
X146300000Y-79600000D01*
X180150000Y-95150000D02*
X180200000Y-95100000D01*
X144000000Y-95575000D02*
X144000000Y-96500000D01*
X143025000Y-80825000D02*
X143025000Y-81650000D01*
X128026500Y-87226500D02*
X129900000Y-89100000D01*
X128700000Y-85900000D02*
X130300000Y-87500000D01*
D58*
X147200000Y-70400000D02*
X147200000Y-70900000D01*
D56*
X178975000Y-90600000D02*
X178975000Y-90425000D01*
X185000000Y-85300000D02*
X185600000Y-85300000D01*
D55*
X178517500Y-89050000D02*
X179217500Y-89050000D01*
D56*
X179467500Y-89232500D02*
X179467500Y-88800000D01*
X182600000Y-94425000D02*
X181467500Y-94425000D01*
D57*
X157925000Y-95875000D02*
X157925000Y-96650000D01*
D56*
X179225000Y-98850000D02*
X179175000Y-98800000D01*
X125000000Y-87226500D02*
X128026500Y-87226500D01*
X142800000Y-95575000D02*
X144000000Y-95575000D01*
X181100000Y-94200000D02*
X181242500Y-94200000D01*
X179500000Y-96532500D02*
X179500000Y-95800000D01*
X179467500Y-96565000D02*
X179500000Y-96532500D01*
D55*
X138400000Y-80475000D02*
X138225000Y-80300000D01*
D56*
X140100000Y-95425000D02*
X140100000Y-93400000D01*
D58*
X147200000Y-70900000D02*
X147200000Y-71200000D01*
D56*
X135500000Y-86100000D02*
X135825000Y-86100000D01*
X179175000Y-98800000D02*
X179500000Y-98475000D01*
X179500000Y-97300000D02*
X179500000Y-96932500D01*
X180200000Y-95100000D02*
X180200000Y-94900000D01*
X124999500Y-87227000D02*
X124400000Y-87227000D01*
X143000000Y-80800000D02*
X143025000Y-80825000D01*
X143025000Y-82800000D02*
X143025000Y-81650000D01*
D55*
X138400000Y-82100000D02*
X138400000Y-82750000D01*
D56*
X125000000Y-85900000D02*
X124400000Y-85900000D01*
X199480000Y-87480000D02*
X199480000Y-88000000D01*
X181000000Y-86000000D02*
X181342500Y-86000000D01*
X149775000Y-89700000D02*
X150700000Y-89700000D01*
X146212500Y-80625000D02*
X146212500Y-79687500D01*
X199000000Y-87000000D02*
X199480000Y-87480000D01*
X179500000Y-98475000D02*
X179500000Y-97300000D01*
D58*
X147200000Y-69200000D02*
X147200000Y-70400000D01*
D56*
X142800000Y-95575000D02*
X143000000Y-95775000D01*
X180200000Y-94300000D02*
X180200000Y-93700000D01*
X143500000Y-105500000D02*
X141000000Y-105500000D01*
X143025000Y-83675000D02*
X143000000Y-83700000D01*
D55*
X146725000Y-72825000D02*
X146700000Y-72800000D01*
X136950000Y-82850000D02*
X137650000Y-82850000D01*
D56*
X179467500Y-96900000D02*
X179467500Y-96565000D01*
D55*
X199700000Y-87780000D02*
X199480000Y-88000000D01*
X138425000Y-64337500D02*
X138425000Y-64700000D01*
D56*
X145875000Y-80625000D02*
X147412500Y-80625000D01*
X138225000Y-80300000D02*
X138225000Y-79275000D01*
D58*
X145575000Y-64700000D02*
X145575000Y-67575000D01*
D56*
X179467500Y-89932500D02*
X179467500Y-89232500D01*
D55*
X121480000Y-88000000D02*
X121480000Y-87470000D01*
D56*
X135625000Y-90200000D02*
X136125000Y-89700000D01*
X178975000Y-90425000D02*
X179467500Y-89932500D01*
D55*
X121480000Y-87470000D02*
X121700000Y-87250000D01*
D56*
X121000000Y-87000000D02*
X121480000Y-87480000D01*
D54*
X140300000Y-98625000D02*
X140175000Y-98500000D01*
X140100000Y-97175000D02*
X140100000Y-98425000D01*
X140100000Y-98425000D02*
X140175000Y-98500000D01*
X141400000Y-98625000D02*
X140300000Y-98625000D01*
D55*
X147100000Y-89700000D02*
X147600000Y-89200000D01*
X142348000Y-82523000D02*
X141475000Y-81650000D01*
D56*
X127300000Y-89000000D02*
X128000000Y-89000000D01*
X141475000Y-80375000D02*
X140925000Y-79825000D01*
X135700000Y-96175000D02*
X135625000Y-96100000D01*
D55*
X143400000Y-85262500D02*
X143000000Y-85262500D01*
D56*
X147500000Y-86423500D02*
X147823500Y-86100000D01*
X142252000Y-102000000D02*
X142252000Y-96353357D01*
D55*
X145000000Y-84833263D02*
X145933263Y-83900000D01*
D56*
X135700000Y-75075000D02*
X135700000Y-74700000D01*
D58*
X162300000Y-85850000D02*
X162300000Y-87950000D01*
D57*
X139850000Y-80375000D02*
X139775000Y-80300000D01*
D56*
X183800000Y-78825000D02*
X187175000Y-78825000D01*
D57*
X163725000Y-91775000D02*
X161725000Y-89775000D01*
D55*
X120520000Y-87470000D02*
X120300000Y-87250000D01*
D58*
X148225000Y-86100000D02*
X148225000Y-84975000D01*
D56*
X181800000Y-107000000D02*
X181800000Y-106700000D01*
D59*
X185500000Y-71500000D02*
X186000000Y-71000000D01*
D56*
X142252000Y-102000000D02*
X142252000Y-102500000D01*
D55*
X137800000Y-89700000D02*
X139362500Y-89700000D01*
D56*
X137375000Y-70125000D02*
X137000000Y-69750000D01*
X142252000Y-96353357D02*
X141948000Y-96049357D01*
D58*
X148900000Y-84300000D02*
X148900000Y-81400000D01*
D56*
X139775000Y-80300000D02*
X140450000Y-80300000D01*
D58*
X162300000Y-87950000D02*
X162300000Y-89200000D01*
D56*
X137375000Y-85375000D02*
X137000000Y-85000000D01*
D55*
X142348000Y-83848000D02*
X142348000Y-82523000D01*
D56*
X198520000Y-88000000D02*
X193700000Y-88000000D01*
D58*
X148900000Y-79300000D02*
X148500000Y-78900000D01*
D57*
X160700000Y-94750000D02*
X162825000Y-94750000D01*
D56*
X141948000Y-94877000D02*
X142800000Y-94025000D01*
D55*
X147500000Y-86423500D02*
X147901500Y-86423500D01*
D59*
X179700000Y-77300000D02*
X185000000Y-72000000D01*
D57*
X146212500Y-81987500D02*
X146700000Y-81500000D01*
D56*
X148300000Y-89900000D02*
X148425000Y-89900000D01*
D57*
X139850000Y-81350000D02*
X139850000Y-80375000D01*
D56*
X141948000Y-96049357D02*
X141948000Y-94877000D01*
X141475000Y-81650000D02*
X141475000Y-80375000D01*
D59*
X164700000Y-77300000D02*
X179700000Y-77300000D01*
D56*
X120520000Y-88000000D02*
X120520000Y-88520000D01*
D55*
X147176500Y-86100000D02*
X147500000Y-86423500D01*
D56*
X147823500Y-86100000D02*
X148225000Y-86100000D01*
X193700000Y-88000000D02*
X193000000Y-88000000D01*
X187175000Y-78825000D02*
X187775000Y-78825000D01*
X181800000Y-107000000D02*
X181800000Y-106400000D01*
X135700000Y-74700000D02*
X134000000Y-73000000D01*
D58*
X148900000Y-81400000D02*
X148900000Y-79300000D01*
D56*
X133000000Y-85000000D02*
X132500000Y-85000000D01*
D58*
X149373000Y-71800000D02*
X149373000Y-69227000D01*
D56*
X187775000Y-78825000D02*
X187800000Y-78800000D01*
X135625000Y-96100000D02*
X133000000Y-96100000D01*
D55*
X145945763Y-83300000D02*
X146125000Y-83300000D01*
D56*
X137375000Y-86100000D02*
X137375000Y-85375000D01*
D55*
X146237500Y-86100000D02*
X147176500Y-86100000D01*
D57*
X146800000Y-81400000D02*
X148900000Y-81400000D01*
D55*
X198300000Y-87250000D02*
X198300000Y-87780000D01*
D57*
X160700000Y-95925000D02*
X160675000Y-95950000D01*
D55*
X139362500Y-86100000D02*
X137375000Y-86100000D01*
D58*
X148200000Y-73300000D02*
X149373000Y-72127000D01*
D55*
X145933263Y-83491737D02*
X146125000Y-83300000D01*
D56*
X147600000Y-89200000D02*
X148300000Y-89900000D01*
D57*
X162825000Y-94750000D02*
X163725000Y-93850000D01*
D56*
X137600000Y-90400000D02*
X137000000Y-91000000D01*
X181900000Y-106600000D02*
X182575000Y-106600000D01*
D55*
X145933263Y-83900000D02*
X145933263Y-83491737D01*
D56*
X137000000Y-91000000D02*
X135000000Y-91000000D01*
X140900000Y-73650000D02*
X137375000Y-70125000D01*
D55*
X147901500Y-86423500D02*
X148225000Y-86100000D01*
X137600000Y-89900000D02*
X137800000Y-89700000D01*
D58*
X149850000Y-68750000D02*
X150300000Y-68300000D01*
D59*
X163175000Y-78825000D02*
X164700000Y-77300000D01*
D57*
X146700000Y-81500000D02*
X146800000Y-81400000D01*
X146212500Y-82175000D02*
X146212500Y-81987500D01*
D58*
X148225000Y-84975000D02*
X148900000Y-84300000D01*
D56*
X121000000Y-89000000D02*
X127300000Y-89000000D01*
X140900000Y-79800000D02*
X140900000Y-73650000D01*
X120520000Y-88520000D02*
X121000000Y-89000000D01*
X137000000Y-85000000D02*
X133000000Y-85000000D01*
X181800000Y-106700000D02*
X181900000Y-106600000D01*
D59*
X186000000Y-71000000D02*
X186500000Y-70500000D01*
D58*
X149373000Y-72127000D02*
X149373000Y-71800000D01*
D55*
X120520000Y-88000000D02*
X120520000Y-87470000D01*
D59*
X163175000Y-85900000D02*
X163175000Y-78825000D01*
D58*
X162300000Y-89200000D02*
X161725000Y-89775000D01*
D56*
X140450000Y-80300000D02*
X140925000Y-79825000D01*
D57*
X160700000Y-94750000D02*
X160700000Y-95925000D01*
D55*
X143000000Y-92137500D02*
X143000000Y-94025000D01*
X145000000Y-85262500D02*
X145000000Y-84833263D01*
D58*
X149373000Y-69227000D02*
X149850000Y-68750000D01*
D55*
X146237500Y-89700000D02*
X147100000Y-89700000D01*
X143000000Y-85262500D02*
X143000000Y-84500000D01*
X146125000Y-82262500D02*
X146212500Y-82175000D01*
X146125000Y-83300000D02*
X146125000Y-82262500D01*
D57*
X163725000Y-93850000D02*
X163725000Y-91775000D01*
D55*
X143000000Y-84500000D02*
X142348000Y-83848000D01*
D59*
X185000000Y-72000000D02*
X185500000Y-71500000D01*
D55*
X198300000Y-87780000D02*
X198520000Y-88000000D01*
D56*
X147600000Y-89200000D02*
X147500000Y-89100000D01*
D58*
X148200000Y-78600000D02*
X148200000Y-73300000D01*
D56*
X133000000Y-91000000D02*
X132000000Y-91000000D01*
D58*
X148500000Y-78900000D02*
X148200000Y-78600000D01*
D56*
X135000000Y-91000000D02*
X133000000Y-91000000D01*
X140925000Y-79825000D02*
X140900000Y-79800000D01*
D59*
X186500000Y-70500000D02*
X187000000Y-70000000D01*
D56*
X137600000Y-89900000D02*
X137600000Y-90400000D01*
D55*
X147412500Y-83012500D02*
X147700000Y-83300000D01*
X146950000Y-84800000D02*
X147700000Y-84050000D01*
X145400000Y-85000000D02*
X145600000Y-84800000D01*
X147700000Y-84050000D02*
X147700000Y-83300000D01*
X145400000Y-85262500D02*
X145400000Y-85000000D01*
X147412500Y-82175000D02*
X147412500Y-83012500D01*
X145600000Y-84800000D02*
X146950000Y-84800000D01*
D59*
X164000000Y-75000000D02*
X169000000Y-75000000D01*
D56*
X166750000Y-66750000D02*
X170000000Y-70000000D01*
X170000000Y-70000000D02*
X170000000Y-74000000D01*
D59*
X156100000Y-74100000D02*
X156100000Y-82450000D01*
X154125000Y-83500000D02*
X154125000Y-83950000D01*
X156100000Y-72520000D02*
X156100000Y-74100000D01*
X157000000Y-75000000D02*
X164000000Y-75000000D01*
X174050000Y-75000000D02*
X176000000Y-73050000D01*
X163940000Y-72520000D02*
X163940000Y-74940000D01*
D56*
X148200000Y-70900000D02*
X148200000Y-68800000D01*
X148200000Y-68800000D02*
X150250000Y-66750000D01*
D59*
X169000000Y-75000000D02*
X174050000Y-75000000D01*
X156100000Y-74100000D02*
X157000000Y-75000000D01*
D56*
X170000000Y-74000000D02*
X169000000Y-75000000D01*
D59*
X155225000Y-82400000D02*
X154125000Y-83500000D01*
D56*
X150250000Y-66750000D02*
X166750000Y-66750000D01*
D59*
X163940000Y-74940000D02*
X164000000Y-75000000D01*
D55*
X142600000Y-85262500D02*
X142600000Y-85900000D01*
X142600000Y-85900000D02*
X142900000Y-86200000D01*
X144700000Y-90900000D02*
X143700000Y-90900000D01*
X143400000Y-91200000D02*
X143400000Y-92137500D01*
X144600000Y-86200000D02*
X145200000Y-86800000D01*
X144600000Y-84500000D02*
X145000000Y-84100000D01*
X143700000Y-90900000D02*
X143400000Y-91200000D01*
X142900000Y-86200000D02*
X144600000Y-86200000D01*
X144600000Y-86200000D02*
X144600000Y-85262500D01*
X145000000Y-84100000D02*
X145000000Y-83075000D01*
X143400000Y-93425000D02*
X144000000Y-94025000D01*
X145200000Y-90400000D02*
X144700000Y-90900000D01*
X144600000Y-85262500D02*
X144600000Y-84500000D01*
X142600000Y-85262500D02*
X142600000Y-84600000D01*
X141475000Y-83475000D02*
X141475000Y-82800000D01*
X145200000Y-86800000D02*
X145200000Y-90400000D01*
X143400000Y-92137500D02*
X143400000Y-93425000D01*
X142600000Y-84600000D02*
X141475000Y-83475000D01*
D57*
X154800000Y-93100000D02*
X154800000Y-93800000D01*
X154800000Y-93800000D02*
X155325000Y-94325000D01*
X161437500Y-92212500D02*
X161725000Y-91925000D01*
X162300000Y-92500000D02*
X161725000Y-91925000D01*
X158625000Y-92050000D02*
X158787500Y-92212500D01*
X159475000Y-92212500D02*
X161437500Y-92212500D01*
X162300000Y-93450000D02*
X162300000Y-92500000D01*
X158787500Y-92212500D02*
X159475000Y-92212500D01*
X158625000Y-91025000D02*
X158625000Y-92050000D01*
X159475000Y-92662500D02*
X159962500Y-92662500D01*
X159962500Y-92662500D02*
X160750000Y-93450000D01*
X156462500Y-93112500D02*
X156450000Y-93100000D01*
X157775000Y-93112500D02*
X156462500Y-93112500D01*
X156525000Y-93175000D02*
X156450000Y-93100000D01*
X156525000Y-94300000D02*
X156525000Y-93175000D01*
X157925000Y-94225000D02*
X158525000Y-94225000D01*
X159050000Y-95875000D02*
X159125000Y-95950000D01*
X158525000Y-92850000D02*
X158525000Y-93625000D01*
X158525000Y-93625000D02*
X157925000Y-94225000D01*
X158337500Y-92662500D02*
X158525000Y-92850000D01*
X159050000Y-94750000D02*
X159050000Y-95875000D01*
X157775000Y-92662500D02*
X158337500Y-92662500D01*
X158525000Y-94225000D02*
X159050000Y-94750000D01*
D55*
X180417500Y-88050000D02*
X182492500Y-88050000D01*
X182500000Y-88042500D02*
X182567500Y-87975000D01*
X182492500Y-88050000D02*
X182567500Y-87975000D01*
X182500000Y-88975000D02*
X182500000Y-88042500D01*
X180417500Y-96150000D02*
X182600000Y-96150000D01*
X182600000Y-96150000D02*
X182600000Y-96975000D01*
X181321250Y-91800000D02*
X180575000Y-91800000D01*
X180592000Y-103008000D02*
X183400000Y-100200000D01*
X183400000Y-100200000D02*
X183400000Y-93878750D01*
X158508000Y-103008000D02*
X180592000Y-103008000D01*
X151550000Y-87700000D02*
X146237500Y-87700000D01*
X183400000Y-93878750D02*
X181321250Y-91800000D01*
X180417500Y-91642500D02*
X180575000Y-91800000D01*
X152288063Y-96061937D02*
X152288063Y-96788063D01*
X153600000Y-93600000D02*
X152150000Y-92150000D01*
X180417500Y-89550000D02*
X180417500Y-91642500D01*
X152150000Y-92150000D02*
X152150000Y-88300000D01*
X152150000Y-88300000D02*
X151550000Y-87700000D01*
X152288063Y-96788063D02*
X158508000Y-103008000D01*
X153600000Y-94800000D02*
X153600000Y-93600000D01*
X179300000Y-101700000D02*
X159600000Y-101700000D01*
X154300000Y-93837552D02*
X152477000Y-92014552D01*
X159600000Y-101700000D02*
X154300000Y-96400000D01*
X152477000Y-92014552D02*
X152477000Y-88027000D01*
X180417500Y-97650000D02*
X180417500Y-98100000D01*
X180825000Y-99092500D02*
X180825000Y-100175000D01*
X180417500Y-98100000D02*
X181117500Y-98800000D01*
X154300000Y-96400000D02*
X154300000Y-93837552D01*
X152477000Y-88027000D02*
X151750000Y-87300000D01*
X151750000Y-87300000D02*
X146237500Y-87300000D01*
X181117500Y-98800000D02*
X180825000Y-99092500D01*
X180825000Y-100175000D02*
X179300000Y-101700000D01*
D59*
X176400000Y-93000000D02*
X176800000Y-93400000D01*
X171050000Y-85150000D02*
X171050000Y-91450000D01*
X169150000Y-85150000D02*
X171050000Y-85150000D01*
X176950000Y-85150000D02*
X177100000Y-85300000D01*
X171200000Y-91600000D02*
X172600000Y-93000000D01*
X171050000Y-85150000D02*
X176950000Y-85150000D01*
X175100000Y-93000000D02*
X176400000Y-93000000D01*
X166000000Y-82000000D02*
X169150000Y-85150000D01*
X172600000Y-93000000D02*
X175100000Y-93000000D01*
X171050000Y-91450000D02*
X171200000Y-91600000D01*
D57*
X145075000Y-70300000D02*
X145500000Y-70300000D01*
X145500000Y-70300000D02*
X146100000Y-70900000D01*
X145500000Y-71500000D02*
X146100000Y-70900000D01*
X145075000Y-71500000D02*
X145500000Y-71500000D01*
D55*
X127000000Y-97787500D02*
X135662500Y-97787500D01*
X135662500Y-97787500D02*
X135700000Y-97825000D01*
X135800000Y-67675000D02*
X135800000Y-63287500D01*
X135800000Y-63287500D02*
X135312500Y-62800000D01*
X131412500Y-76212500D02*
X132125000Y-76925000D01*
X132125000Y-76925000D02*
X135700000Y-76925000D01*
X127000000Y-76212500D02*
X131412500Y-76212500D01*
X132289972Y-85927000D02*
X134064552Y-85927000D01*
X127000000Y-80637028D02*
X132289972Y-85927000D01*
X134064552Y-85927000D02*
X135837552Y-87700000D01*
X127000000Y-77787500D02*
X127000000Y-80637028D01*
X135837552Y-87700000D02*
X139362500Y-87700000D01*
D56*
X193000000Y-76212500D02*
X184762500Y-76212500D01*
X184762500Y-76212500D02*
X183800000Y-77175000D01*
X184825000Y-106600000D02*
X193000000Y-98425000D01*
X193000000Y-98425000D02*
X193000000Y-97787500D01*
X184225000Y-106600000D02*
X184825000Y-106600000D01*
X143300000Y-69200000D02*
X143425000Y-69325000D01*
D57*
X143425000Y-72175000D02*
X143425000Y-70300000D01*
X143300000Y-67350000D02*
X143300000Y-69200000D01*
D56*
X143425000Y-69325000D02*
X143425000Y-72175000D01*
D57*
X143425000Y-72700000D02*
X143425000Y-72175000D01*
X143425000Y-70175000D02*
X143425000Y-70300000D01*
X142627000Y-74623131D02*
X144127000Y-76123131D01*
X142650000Y-67350000D02*
X142627000Y-67373000D01*
X144127000Y-77702000D02*
X144600000Y-78175000D01*
X142627000Y-67373000D02*
X142627000Y-74623131D01*
X144127000Y-76123131D02*
X144127000Y-77702000D01*
X143700000Y-77875000D02*
X143400000Y-78175000D01*
X142200000Y-74800000D02*
X143700000Y-76300000D01*
X142000000Y-68127000D02*
X142200000Y-68327000D01*
X143700000Y-76300000D02*
X143700000Y-77875000D01*
X142000000Y-67350000D02*
X142000000Y-68127000D01*
X142200000Y-68327000D02*
X142200000Y-74800000D01*
D54*
X145700000Y-94600000D02*
X145700000Y-97000000D01*
X144075000Y-98625000D02*
X144075000Y-99400000D01*
X143800000Y-92700000D02*
X145700000Y-94600000D01*
X145700000Y-97000000D02*
X144075000Y-98625000D01*
X143800000Y-92137500D02*
X143800000Y-92700000D01*
X146000000Y-96200000D02*
X149155000Y-99355000D01*
X146000000Y-94440790D02*
X146000000Y-96200000D01*
X149155000Y-99355000D02*
X149155000Y-99400000D01*
X144200000Y-92137500D02*
X144200000Y-92640790D01*
X144200000Y-92640790D02*
X146000000Y-94440790D01*
D55*
X137000000Y-77935000D02*
X137960000Y-76975000D01*
X137000000Y-78675000D02*
X137000000Y-77935000D01*
X152000000Y-70000000D02*
X163960000Y-70000000D01*
X150500000Y-73375000D02*
X150500000Y-71500000D01*
X150500000Y-71500000D02*
X152000000Y-70000000D01*
X163960000Y-70000000D02*
X166480000Y-72520000D01*
X149700000Y-74175000D02*
X150500000Y-73375000D01*
X152000000Y-71000000D02*
X151000000Y-72000000D01*
X151000000Y-72000000D02*
X151000000Y-74175000D01*
X158640000Y-72520000D02*
X157120000Y-71000000D01*
X157120000Y-71000000D02*
X152000000Y-71000000D01*
X175700000Y-89550000D02*
X175000000Y-90250000D01*
X178517500Y-89550000D02*
X175700000Y-89550000D01*
X178517500Y-88550000D02*
X175800000Y-88550000D01*
X175800000Y-88550000D02*
X175000000Y-87750000D01*
X178517500Y-97650000D02*
X175600000Y-97650000D01*
X175600000Y-97650000D02*
X175000000Y-98250000D01*
X175058750Y-95750000D02*
X175000000Y-95750000D01*
X178517500Y-96650000D02*
X175958750Y-96650000D01*
X175958750Y-96650000D02*
X175058750Y-95750000D01*
D54*
X142600000Y-93000000D02*
X141400000Y-94200000D01*
X142600000Y-92137500D02*
X142600000Y-93000000D01*
X141400000Y-94200000D02*
X141400000Y-96975000D01*
D55*
X143800000Y-85262500D02*
X143800000Y-84200000D01*
D57*
X143800000Y-80225000D02*
X143400000Y-79825000D01*
X143800000Y-84200000D02*
X143800000Y-80225000D01*
X144600000Y-79825000D02*
X144575000Y-79825000D01*
X144227000Y-80173000D02*
X144227000Y-84200000D01*
D55*
X144200000Y-84200000D02*
X144200000Y-85262500D01*
D57*
X144575000Y-79825000D02*
X144227000Y-80173000D01*
D54*
X136300000Y-84200000D02*
X135600000Y-83500000D01*
D55*
X137000000Y-80325000D02*
X137000000Y-81300000D01*
D54*
X140200000Y-84800000D02*
X139600000Y-84200000D01*
X140200000Y-85262500D02*
X140200000Y-84800000D01*
X135600000Y-83500000D02*
X135600000Y-81800000D01*
X139600000Y-84200000D02*
X136300000Y-84200000D01*
D55*
X137000000Y-81300000D02*
X136950000Y-81350000D01*
D54*
X135600000Y-81800000D02*
X136050000Y-81350000D01*
X136050000Y-81350000D02*
X136950000Y-81350000D01*
D55*
X132023000Y-81977000D02*
X132023000Y-85197580D01*
X132425420Y-85600000D02*
X134200000Y-85600000D01*
X136500000Y-77500000D02*
X132023000Y-81977000D01*
X134200000Y-85600000D02*
X135900000Y-87300000D01*
X135800000Y-69325000D02*
X136500000Y-70025000D01*
X135900000Y-87300000D02*
X139362500Y-87300000D01*
X132023000Y-85197580D02*
X132425420Y-85600000D01*
X136500000Y-70025000D02*
X136500000Y-77500000D01*
X147300000Y-88500000D02*
X146900000Y-88900000D01*
X145075000Y-73900000D02*
X145075000Y-74975000D01*
X145075000Y-73900000D02*
X145075000Y-72700000D01*
X146900000Y-88900000D02*
X146237500Y-88900000D01*
X150800000Y-86400000D02*
X150800000Y-78700000D01*
X150000000Y-88600000D02*
X149900000Y-88500000D01*
X149900000Y-88500000D02*
X147300000Y-88500000D01*
X150800000Y-78700000D02*
X149200000Y-77100000D01*
X145075000Y-74975000D02*
X147200000Y-77100000D01*
X146237500Y-88500000D02*
X146237500Y-88100000D01*
X151250000Y-88200000D02*
X151150000Y-88100000D01*
X151150000Y-88100000D02*
X146237500Y-88100000D01*
X151800000Y-76625000D02*
X151000000Y-75825000D01*
X151800000Y-86500000D02*
X151800000Y-76625000D01*
X152200000Y-86900000D02*
X151800000Y-86500000D01*
X146237500Y-86900000D02*
X151000000Y-86900000D01*
X151450000Y-86450000D02*
X151450000Y-77575000D01*
X151000000Y-86900000D02*
X151450000Y-86450000D01*
X146237500Y-86500000D02*
X146237500Y-86900000D01*
X151450000Y-77575000D02*
X149700000Y-75825000D01*
X182500000Y-91300000D02*
X182500000Y-90625000D01*
X184400000Y-93200000D02*
X182500000Y-91300000D01*
X184400000Y-100862448D02*
X184400000Y-93200000D01*
X150863063Y-95736937D02*
X150863063Y-97263063D01*
X157600000Y-104000000D02*
X181262448Y-104000000D01*
X147200000Y-90500000D02*
X146237500Y-90500000D01*
X149573874Y-91500000D02*
X148200000Y-91500000D01*
X152336937Y-94263063D02*
X149573874Y-91500000D01*
X150863063Y-97263063D02*
X157600000Y-104000000D01*
X181262448Y-104000000D02*
X184400000Y-100862448D01*
X148200000Y-91500000D02*
X147200000Y-90500000D01*
X148473000Y-91173000D02*
X147400000Y-90100000D01*
X158881000Y-102681000D02*
X180419000Y-102681000D01*
X147400000Y-90100000D02*
X146237500Y-90100000D01*
X152863063Y-96636937D02*
X152863063Y-96663063D01*
X153600000Y-95550000D02*
X152900000Y-94850000D01*
X180419000Y-102681000D02*
X182600000Y-100500000D01*
X152863063Y-96663063D02*
X158881000Y-102681000D01*
X152900000Y-94850000D02*
X152900000Y-94000000D01*
X150073000Y-91173000D02*
X148473000Y-91173000D01*
X152900000Y-94000000D02*
X150073000Y-91173000D01*
X182600000Y-100500000D02*
X182600000Y-98625000D01*
X153750000Y-95550000D02*
X153600000Y-95550000D01*
D54*
X139700000Y-83900000D02*
X136400000Y-83900000D01*
X135900000Y-83400000D02*
X135900000Y-82200000D01*
X140600000Y-84800000D02*
X139700000Y-83900000D01*
X136250000Y-81850000D02*
X136950000Y-81850000D01*
X135900000Y-82200000D02*
X136250000Y-81850000D01*
X136400000Y-83900000D02*
X135900000Y-83400000D01*
X140600000Y-85262500D02*
X140600000Y-84800000D01*
X136650000Y-82350000D02*
X136950000Y-82350000D01*
X141000000Y-84700000D02*
X139900000Y-83600000D01*
X141000000Y-85262500D02*
X141000000Y-84700000D01*
X136500000Y-83600000D02*
X136200000Y-83300000D01*
X136200000Y-82800000D02*
X136650000Y-82350000D01*
X139900000Y-83600000D02*
X136500000Y-83600000D01*
X136200000Y-83300000D02*
X136200000Y-82800000D01*
X140150000Y-82850000D02*
X139850000Y-82850000D01*
X140250000Y-82950000D02*
X140150000Y-82850000D01*
X141400000Y-85262500D02*
X141400000Y-84700000D01*
X141400000Y-84700000D02*
X140250000Y-83550000D01*
X140250000Y-83550000D02*
X140250000Y-82950000D01*
X140350000Y-82350000D02*
X140504000Y-82504000D01*
X139850000Y-82350000D02*
X140350000Y-82350000D01*
X140504000Y-83363210D02*
X141800000Y-84659210D01*
X141800000Y-84659210D02*
X141800000Y-85262500D01*
X140504000Y-82504000D02*
X140504000Y-83363210D01*
X140400000Y-81850000D02*
X139850000Y-81850000D01*
X140758000Y-82208000D02*
X140400000Y-81850000D01*
X140758000Y-83258000D02*
X140758000Y-82208000D01*
X142200000Y-85262500D02*
X142200000Y-84700000D01*
X142200000Y-84700000D02*
X140758000Y-83258000D01*
D55*
X185100000Y-92900000D02*
X185100000Y-101200000D01*
X137300000Y-92400000D02*
X138800000Y-90900000D01*
X183927000Y-86273000D02*
X183927000Y-91727000D01*
X198900000Y-85800000D02*
X184400000Y-85800000D01*
X199700000Y-86600000D02*
X198900000Y-85800000D01*
X144327000Y-103327000D02*
X139401896Y-103327000D01*
X183927000Y-91727000D02*
X185100000Y-92900000D01*
X145727000Y-104727000D02*
X144327000Y-103327000D01*
X184400000Y-85800000D02*
X183927000Y-86273000D01*
X181573000Y-104727000D02*
X145727000Y-104727000D01*
X138800000Y-90900000D02*
X139362500Y-90900000D01*
X199700000Y-86750000D02*
X199700000Y-86600000D01*
X185100000Y-101200000D02*
X181573000Y-104727000D01*
X137300000Y-101225104D02*
X137300000Y-92400000D01*
X139401896Y-103327000D02*
X137300000Y-101225104D01*
X145591552Y-105054000D02*
X181746000Y-105054000D01*
X198000000Y-86200000D02*
X198300000Y-86500000D01*
X144191552Y-103654000D02*
X145591552Y-105054000D01*
X136973000Y-92264552D02*
X136973000Y-101360552D01*
X181746000Y-105054000D02*
X185427000Y-101373000D01*
X184254000Y-86446000D02*
X184500000Y-86200000D01*
X139266448Y-103654000D02*
X144191552Y-103654000D01*
X136973000Y-101360552D02*
X139266448Y-103654000D01*
X138737552Y-90500000D02*
X136973000Y-92264552D01*
X184254000Y-91554000D02*
X184254000Y-86446000D01*
X139362500Y-90500000D02*
X138737552Y-90500000D01*
X185427000Y-101373000D02*
X185427000Y-92727000D01*
X198300000Y-86500000D02*
X198300000Y-86750000D01*
X185427000Y-92727000D02*
X184254000Y-91554000D01*
X184500000Y-86200000D02*
X198000000Y-86200000D01*
X130000000Y-88500000D02*
X139362500Y-88500000D01*
X128250000Y-86750000D02*
X130000000Y-88500000D01*
X121700000Y-86750000D02*
X128250000Y-86750000D01*
X130100000Y-88100000D02*
X128400000Y-86400000D01*
X139362500Y-88100000D02*
X130100000Y-88100000D01*
X120652000Y-86398000D02*
X120300000Y-86750000D01*
X121288481Y-86398000D02*
X120652000Y-86398000D01*
X121290481Y-86400000D02*
X121288481Y-86398000D01*
X128400000Y-86400000D02*
X121290481Y-86400000D01*
X157962000Y-103662000D02*
X181138000Y-103662000D01*
X184054000Y-93391552D02*
X181700000Y-91037552D01*
X151450000Y-97150000D02*
X157962000Y-103662000D01*
X151450000Y-95650000D02*
X151450000Y-97150000D01*
X149000000Y-93200000D02*
X151450000Y-95650000D01*
X181138000Y-103662000D02*
X184054000Y-100746000D01*
X145000000Y-92137500D02*
X145000000Y-92700000D01*
X184054000Y-100746000D02*
X184054000Y-93391552D01*
X145000000Y-92700000D02*
X145500000Y-93200000D01*
X181700000Y-89500000D02*
X180750000Y-88550000D01*
X181700000Y-91037552D02*
X181700000Y-89500000D01*
X145500000Y-93200000D02*
X149000000Y-93200000D01*
X180750000Y-88550000D02*
X180417500Y-88550000D01*
X180700000Y-89050000D02*
X181300000Y-89650000D01*
X180417500Y-89050000D02*
X180700000Y-89050000D01*
X181300000Y-89650000D02*
X181300000Y-91100000D01*
X145400000Y-92600000D02*
X145400000Y-92137500D01*
X181300000Y-91100000D02*
X183727000Y-93527000D01*
X151777000Y-95477000D02*
X149092000Y-92792000D01*
X158135000Y-103335000D02*
X151777000Y-96977000D01*
X180865000Y-103335000D02*
X158135000Y-103335000D01*
X183727000Y-93527000D02*
X183727000Y-100473000D01*
X149092000Y-92792000D02*
X145592000Y-92792000D01*
X183727000Y-100473000D02*
X180865000Y-103335000D01*
X145592000Y-92792000D02*
X145400000Y-92600000D01*
X151777000Y-96977000D02*
X151777000Y-95477000D01*
X147800000Y-92300000D02*
X146800000Y-91300000D01*
X181827000Y-100773000D02*
X180246000Y-102354000D01*
X180417500Y-96650000D02*
X181050000Y-96650000D01*
X159254000Y-102354000D02*
X149200000Y-92300000D01*
X181827000Y-97427000D02*
X181827000Y-100773000D01*
X180246000Y-102354000D02*
X159254000Y-102354000D01*
X181050000Y-96650000D02*
X181827000Y-97427000D01*
X146800000Y-91300000D02*
X146237500Y-91300000D01*
X149200000Y-92300000D02*
X147800000Y-92300000D01*
X180950000Y-97150000D02*
X180417500Y-97150000D01*
X159427000Y-102027000D02*
X180073000Y-102027000D01*
X149300000Y-91900000D02*
X159427000Y-102027000D01*
X148000000Y-91900000D02*
X149300000Y-91900000D01*
X181500000Y-97700000D02*
X180950000Y-97150000D01*
X147000000Y-90900000D02*
X148000000Y-91900000D01*
X180073000Y-102027000D02*
X181500000Y-100600000D01*
X146237500Y-90900000D02*
X147000000Y-90900000D01*
X181500000Y-100600000D02*
X181500000Y-97700000D01*
X128300000Y-89700000D02*
X135000000Y-89700000D01*
X127000000Y-96212500D02*
X127000000Y-91000000D01*
X135800000Y-88900000D02*
X139362500Y-88900000D01*
X127000000Y-91000000D02*
X128300000Y-89700000D01*
X135000000Y-89700000D02*
X135800000Y-88900000D01*
X137700000Y-92500000D02*
X138900000Y-91300000D01*
X139537344Y-103000000D02*
X137700000Y-101162656D01*
X146400000Y-104400000D02*
X145000000Y-103000000D01*
X181400000Y-104400000D02*
X146400000Y-104400000D01*
X138900000Y-91300000D02*
X139362500Y-91300000D01*
X145000000Y-103000000D02*
X139537344Y-103000000D01*
X183600000Y-83900000D02*
X183600000Y-91862448D01*
X184727000Y-92989448D02*
X184727000Y-101073000D01*
X183600000Y-91862448D02*
X184727000Y-92989448D01*
X189712500Y-77787500D02*
X183600000Y-83900000D01*
X193000000Y-77787500D02*
X189712500Y-77787500D01*
X137700000Y-101162656D02*
X137700000Y-92500000D01*
X184727000Y-101073000D02*
X181400000Y-104400000D01*
X139131000Y-103981000D02*
X136646000Y-101496000D01*
X191187500Y-96212500D02*
X182019000Y-105381000D01*
X136646000Y-101496000D02*
X136646000Y-92129104D01*
X182019000Y-105381000D02*
X145399776Y-105381000D01*
X138675104Y-90100000D02*
X139424948Y-90100000D01*
X143999776Y-103981000D02*
X139131000Y-103981000D01*
X136646000Y-92129104D02*
X138675104Y-90100000D01*
X193000000Y-96212500D02*
X191187500Y-96212500D01*
X145399776Y-105381000D02*
X143999776Y-103981000D01*
G04 #@! TA.AperFunction,Conductor*
G36*
X178681694Y-89418306D02*
G01*
X178700000Y-89462500D01*
X178700000Y-89674112D01*
X178681694Y-89718306D01*
X177318306Y-91081694D01*
X177274112Y-91100000D01*
X175262500Y-91100000D01*
X175218306Y-91081694D01*
X175200000Y-91037500D01*
X175200000Y-89462500D01*
X175218306Y-89418306D01*
X175262500Y-89400000D01*
X178637500Y-89400000D01*
X178681694Y-89418306D01*
G37*
G04 #@! TD.AperFunction*
G04 #@! TA.AperFunction,Conductor*
G36*
X177818306Y-92018306D02*
G01*
X178781694Y-92981694D01*
X178800000Y-93025888D01*
X178800000Y-96237500D01*
X178781694Y-96281694D01*
X178737500Y-96300000D01*
X178325888Y-96300000D01*
X178281694Y-96281694D01*
X176318306Y-94318306D01*
X176300000Y-94274112D01*
X176300000Y-92062500D01*
X176318306Y-92018306D01*
X176362500Y-92000000D01*
X177774112Y-92000000D01*
X177818306Y-92018306D01*
G37*
G04 #@! TD.AperFunction*
G04 #@! TA.AperFunction,Conductor*
G36*
X163343306Y-84968306D02*
G01*
X164006694Y-85631694D01*
X164025000Y-85675888D01*
X164025000Y-89524112D01*
X164006694Y-89568306D01*
X162843306Y-90731694D01*
X162799112Y-90750000D01*
X161750888Y-90750000D01*
X161706694Y-90731694D01*
X161343306Y-90368306D01*
X161325000Y-90324112D01*
X161325000Y-85012500D01*
X161343306Y-84968306D01*
X161387500Y-84950000D01*
X163299112Y-84950000D01*
X163343306Y-84968306D01*
G37*
G04 #@! TD.AperFunction*
G04 #@! TA.AperFunction,Conductor*
G36*
X182718306Y-84418306D02*
G01*
X182981694Y-84681694D01*
X183000000Y-84725888D01*
X183000000Y-86674112D01*
X182981694Y-86718306D01*
X182818306Y-86881694D01*
X182774112Y-86900000D01*
X182300000Y-86900000D01*
X181918306Y-87281694D01*
X181874112Y-87300000D01*
X180062500Y-87300000D01*
X180018306Y-87281694D01*
X180000000Y-87237500D01*
X180000000Y-84925888D01*
X180018306Y-84881694D01*
X180481694Y-84418306D01*
X180525888Y-84400000D01*
X182674112Y-84400000D01*
X182718306Y-84418306D01*
G37*
G04 #@! TD.AperFunction*
G04 #@! TA.AperFunction,Conductor*
G36*
X176568306Y-86818306D02*
G01*
X178150000Y-88400000D01*
X178737500Y-88400000D01*
X178781694Y-88418306D01*
X178800000Y-88462500D01*
X178800000Y-88637500D01*
X178781694Y-88681694D01*
X178737500Y-88700000D01*
X178250000Y-88700000D01*
X177868306Y-89081694D01*
X177824112Y-89100000D01*
X175125888Y-89100000D01*
X175081694Y-89081694D01*
X174368306Y-88368306D01*
X174350000Y-88324112D01*
X174350000Y-87225888D01*
X174368306Y-87181694D01*
X174731694Y-86818306D01*
X174775888Y-86800000D01*
X176524112Y-86800000D01*
X176568306Y-86818306D01*
G37*
G04 #@! TD.AperFunction*
G04 #@! TA.AperFunction,Conductor*
G36*
X178581694Y-97618306D02*
G01*
X178600000Y-97662500D01*
X178600000Y-98574112D01*
X178581694Y-98618306D01*
X178118306Y-99081694D01*
X178074112Y-99100000D01*
X175362500Y-99100000D01*
X175318306Y-99081694D01*
X175300000Y-99037500D01*
X175300000Y-97662500D01*
X175318306Y-97618306D01*
X175362500Y-97600000D01*
X178537500Y-97600000D01*
X178581694Y-97618306D01*
G37*
G04 #@! TD.AperFunction*
G04 #@! TA.AperFunction,Conductor*
G36*
X160343306Y-83468306D02*
G01*
X160806694Y-83931694D01*
X160825000Y-83975888D01*
X160825000Y-88624112D01*
X160806694Y-88668306D01*
X160325000Y-89150000D01*
X160325000Y-91124112D01*
X160306694Y-91168306D01*
X159643306Y-91831694D01*
X159599112Y-91850000D01*
X159187500Y-91850000D01*
X159143306Y-91831694D01*
X159125000Y-91787500D01*
X159125000Y-90250000D01*
X158825000Y-89950000D01*
X157150888Y-89950000D01*
X157106694Y-89931694D01*
X156543306Y-89368306D01*
X156525000Y-89324112D01*
X156525000Y-84475888D01*
X156543306Y-84431694D01*
X157506694Y-83468306D01*
X157550888Y-83450000D01*
X160299112Y-83450000D01*
X160343306Y-83468306D01*
G37*
G04 #@! TD.AperFunction*
G04 #@! TA.AperFunction,Conductor*
G36*
X155243306Y-82168306D02*
G01*
X155906694Y-82831694D01*
X155925000Y-82875888D01*
X155925000Y-85824112D01*
X155906694Y-85868306D01*
X155243306Y-86531694D01*
X155199112Y-86550000D01*
X152750888Y-86550000D01*
X152706694Y-86531694D01*
X152243306Y-86068306D01*
X152225000Y-86024112D01*
X152225000Y-83375888D01*
X152243306Y-83331694D01*
X153406694Y-82168306D01*
X153450888Y-82150000D01*
X155199112Y-82150000D01*
X155243306Y-82168306D01*
G37*
G04 #@! TD.AperFunction*
G04 #@! TA.AperFunction,Conductor*
G36*
X162543306Y-91168306D02*
G01*
X163206694Y-91831694D01*
X163225000Y-91875888D01*
X163225000Y-93824112D01*
X163206694Y-93868306D01*
X162743306Y-94331694D01*
X162699112Y-94350000D01*
X161950888Y-94350000D01*
X161906694Y-94331694D01*
X161743306Y-94168306D01*
X161725000Y-94124112D01*
X161725000Y-93050000D01*
X161425000Y-92750000D01*
X160750888Y-92750000D01*
X160706694Y-92731694D01*
X160125000Y-92150000D01*
X159987500Y-92150000D01*
X159943306Y-92131694D01*
X159925000Y-92087500D01*
X159925000Y-92075888D01*
X159943306Y-92031694D01*
X160806694Y-91168306D01*
X160850888Y-91150000D01*
X162499112Y-91150000D01*
X162543306Y-91168306D01*
G37*
G04 #@! TD.AperFunction*
G04 #@! TA.AperFunction,Conductor*
G36*
X178681694Y-81918306D02*
G01*
X178700000Y-81962500D01*
X178700000Y-87937500D01*
X178681694Y-87981694D01*
X178637500Y-88000000D01*
X178225888Y-88000000D01*
X178181694Y-87981694D01*
X175818306Y-85618306D01*
X175800000Y-85574112D01*
X175800000Y-81962500D01*
X175818306Y-81918306D01*
X175862500Y-81900000D01*
X178637500Y-81900000D01*
X178681694Y-81918306D01*
G37*
G04 #@! TD.AperFunction*
G04 #@! TA.AperFunction,Conductor*
G36*
X147142121Y-62274502D02*
G01*
X147188614Y-62328158D01*
X147200000Y-62380500D01*
X147200000Y-67347810D01*
X147179998Y-67415931D01*
X147163095Y-67436905D01*
X145836905Y-68763095D01*
X145774593Y-68797121D01*
X145747810Y-68800000D01*
X143830500Y-68800000D01*
X143762379Y-68779998D01*
X143715886Y-68726342D01*
X143704500Y-68674000D01*
X143704500Y-68240254D01*
X143725735Y-68170252D01*
X143732839Y-68159620D01*
X143739734Y-68149301D01*
X143754500Y-68075067D01*
X143754499Y-66624934D01*
X143739734Y-66550699D01*
X143683484Y-66466516D01*
X143599301Y-66410266D01*
X143525067Y-66395500D01*
X143300037Y-66395500D01*
X143074934Y-66395501D01*
X143000699Y-66410266D01*
X142999864Y-66406066D01*
X142952676Y-66411157D01*
X142949320Y-66410172D01*
X142949301Y-66410266D01*
X142881135Y-66396707D01*
X142875067Y-66395500D01*
X142650037Y-66395500D01*
X142424934Y-66395501D01*
X142350699Y-66410266D01*
X142349864Y-66406066D01*
X142302676Y-66411157D01*
X142299320Y-66410172D01*
X142299301Y-66410266D01*
X142231135Y-66396707D01*
X142225067Y-66395500D01*
X142000037Y-66395500D01*
X141774934Y-66395501D01*
X141700699Y-66410266D01*
X141699864Y-66406066D01*
X141652676Y-66411157D01*
X141649320Y-66410172D01*
X141649301Y-66410266D01*
X141581135Y-66396707D01*
X141575067Y-66395500D01*
X141350037Y-66395500D01*
X141124934Y-66395501D01*
X141089182Y-66402612D01*
X141062874Y-66407844D01*
X141062872Y-66407845D01*
X141050699Y-66410266D01*
X141040379Y-66417161D01*
X141040378Y-66417162D01*
X140979985Y-66457516D01*
X140966516Y-66466516D01*
X140910266Y-66550699D01*
X140895500Y-66624933D01*
X140895501Y-68075066D01*
X140910266Y-68149301D01*
X140966516Y-68233484D01*
X141050699Y-68289734D01*
X141124933Y-68304500D01*
X141258845Y-68304500D01*
X141560456Y-68304499D01*
X141628576Y-68324501D01*
X141662390Y-68356435D01*
X141664172Y-68358887D01*
X141668674Y-68367723D01*
X141691462Y-68390511D01*
X141691465Y-68390515D01*
X141758595Y-68457645D01*
X141792621Y-68519957D01*
X141795500Y-68546740D01*
X141795500Y-72074000D01*
X141775498Y-72142121D01*
X141721842Y-72188614D01*
X141669500Y-72200000D01*
X140952190Y-72200000D01*
X140884069Y-72179998D01*
X140863095Y-72163095D01*
X136566405Y-67866405D01*
X136532379Y-67804093D01*
X136529500Y-67777310D01*
X136529499Y-67423654D01*
X136529499Y-67420686D01*
X136526493Y-67388873D01*
X136507118Y-67333701D01*
X136500000Y-67291953D01*
X136500000Y-62380500D01*
X136520002Y-62312379D01*
X136573658Y-62265886D01*
X136626000Y-62254500D01*
X147074000Y-62254500D01*
X147142121Y-62274502D01*
G37*
G04 #@! TD.AperFunction*
G04 #@! TA.AperFunction,Conductor*
G36*
X176618306Y-94918306D02*
G01*
X178200000Y-96500000D01*
X178737500Y-96500000D01*
X178781694Y-96518306D01*
X178800000Y-96562500D01*
X178800000Y-96737500D01*
X178781694Y-96781694D01*
X178737500Y-96800000D01*
X178100000Y-96800000D01*
X177818306Y-97081694D01*
X177774112Y-97100000D01*
X175025888Y-97100000D01*
X174981694Y-97081694D01*
X174244194Y-96344194D01*
X174225888Y-96300000D01*
X174244194Y-96255806D01*
X175000000Y-95500000D01*
X175000000Y-94962500D01*
X175018306Y-94918306D01*
X175062500Y-94900000D01*
X176574112Y-94900000D01*
X176618306Y-94918306D01*
G37*
G04 #@! TD.AperFunction*
G04 #@! TA.AperFunction,Conductor*
G36*
X181818306Y-92918306D02*
G01*
X182855806Y-93955806D01*
X182874112Y-94000000D01*
X182855806Y-94044194D01*
X181118306Y-95781694D01*
X181074112Y-95800000D01*
X179700000Y-95800000D01*
X179700000Y-96137500D01*
X179681694Y-96181694D01*
X179637500Y-96200000D01*
X179162500Y-96200000D01*
X179118306Y-96181694D01*
X179100000Y-96137500D01*
X179100000Y-95625888D01*
X179118306Y-95581694D01*
X179900000Y-94800000D01*
X179900000Y-93625888D01*
X179918306Y-93581694D01*
X180581694Y-92918306D01*
X180625888Y-92900000D01*
X181774112Y-92900000D01*
X181818306Y-92918306D01*
G37*
G04 #@! TD.AperFunction*
G04 #@! TA.AperFunction,Conductor*
G36*
X155343306Y-86968306D02*
G01*
X156206694Y-87831694D01*
X156225000Y-87875888D01*
X156225000Y-89650000D01*
X156925000Y-90350000D01*
X157999112Y-90350000D01*
X158043306Y-90368306D01*
X158206694Y-90531694D01*
X158225000Y-90575888D01*
X158225000Y-92124112D01*
X158206694Y-92168306D01*
X158043306Y-92331694D01*
X157999112Y-92350000D01*
X155150888Y-92350000D01*
X155106694Y-92331694D01*
X152943306Y-90168306D01*
X152925000Y-90124112D01*
X152925000Y-87375888D01*
X152943306Y-87331694D01*
X153306694Y-86968306D01*
X153350888Y-86950000D01*
X155299112Y-86950000D01*
X155343306Y-86968306D01*
G37*
G04 #@! TD.AperFunction*
M02*
