%TF.GenerationSoftware,KiCad,Pcbnew,(6.0.7)*%
%TF.CreationDate,2022-10-27T11:38:15+02:00*%
%TF.ProjectId,DualValveCon,4475616c-5661-46c7-9665-436f6e2e6b69,rev?*%
%TF.SameCoordinates,Original*%
%TF.FileFunction,Drillmap*%
%TF.FilePolarity,Positive*%
%FSLAX45Y45*%
G04 Gerber Fmt 4.5, Leading zero omitted, Abs format (unit mm)*
G04 Created by KiCad (PCBNEW (6.0.7)) date 2022-10-27 11:38:15*
%MOMM*%
%LPD*%
G01*
G04 APERTURE LIST*
%ADD10C,0.100000*%
%ADD11C,0.200000*%
%ADD12C,0.320000*%
G04 APERTURE END LIST*
D10*
X20100000Y-8400000D02*
X19600000Y-8400000D01*
X12400000Y-8400000D02*
X11900000Y-8400000D01*
X12600000Y-6200000D02*
X19400000Y-6200000D01*
X20100000Y-9000000D02*
X20100000Y-8400000D01*
X12600000Y-9200000D02*
G75*
G03*
X12400000Y-9000000I-200000J0D01*
G01*
X11900000Y-8400000D02*
X11900000Y-9000000D01*
X11900000Y-9000000D02*
X12400000Y-9000000D01*
X12400000Y-8400000D02*
G75*
G03*
X12600000Y-8200000I0J200000D01*
G01*
X19400000Y-9200000D02*
X19400000Y-11200000D01*
X19400000Y-8200000D02*
X19400000Y-6200000D01*
X12600000Y-8200000D02*
X12600000Y-6200000D01*
X19400000Y-11200000D02*
X12600000Y-11200000D01*
X19600000Y-9000000D02*
G75*
G03*
X19400000Y-9200000I0J-200000D01*
G01*
X12600000Y-11200000D02*
X12600000Y-9200000D01*
X19400000Y-8200000D02*
G75*
G03*
X19600000Y-8400000I200000J0D01*
G01*
X19600000Y-9000000D02*
X20100000Y-9000000D01*
D11*
D12*
X12840000Y-6440000D02*
X13160000Y-6760000D01*
X13160000Y-6440000D02*
X12840000Y-6760000D01*
X12840000Y-10640000D02*
X13160000Y-10960000D01*
X13160000Y-10640000D02*
X12840000Y-10960000D01*
X18840000Y-6440000D02*
X19160000Y-6760000D01*
X19160000Y-6440000D02*
X18840000Y-6760000D01*
X18840000Y-10640000D02*
X19160000Y-10960000D01*
X19160000Y-10640000D02*
X18840000Y-10960000D01*
D11*
X12152619Y-11515476D02*
X12152619Y-11315476D01*
X12200238Y-11315476D01*
X12228809Y-11325000D01*
X12247857Y-11344048D01*
X12257381Y-11363095D01*
X12266905Y-11401190D01*
X12266905Y-11429762D01*
X12257381Y-11467857D01*
X12247857Y-11486905D01*
X12228809Y-11505952D01*
X12200238Y-11515476D01*
X12152619Y-11515476D01*
X12352619Y-11515476D02*
X12352619Y-11382143D01*
X12352619Y-11420238D02*
X12362143Y-11401190D01*
X12371667Y-11391667D01*
X12390714Y-11382143D01*
X12409762Y-11382143D01*
X12476428Y-11515476D02*
X12476428Y-11382143D01*
X12476428Y-11315476D02*
X12466905Y-11325000D01*
X12476428Y-11334524D01*
X12485952Y-11325000D01*
X12476428Y-11315476D01*
X12476428Y-11334524D01*
X12600238Y-11515476D02*
X12581190Y-11505952D01*
X12571667Y-11486905D01*
X12571667Y-11315476D01*
X12705000Y-11515476D02*
X12685952Y-11505952D01*
X12676428Y-11486905D01*
X12676428Y-11315476D01*
X12933571Y-11515476D02*
X12933571Y-11315476D01*
X13000238Y-11458333D01*
X13066905Y-11315476D01*
X13066905Y-11515476D01*
X13247857Y-11515476D02*
X13247857Y-11410714D01*
X13238333Y-11391667D01*
X13219286Y-11382143D01*
X13181190Y-11382143D01*
X13162143Y-11391667D01*
X13247857Y-11505952D02*
X13228809Y-11515476D01*
X13181190Y-11515476D01*
X13162143Y-11505952D01*
X13152619Y-11486905D01*
X13152619Y-11467857D01*
X13162143Y-11448809D01*
X13181190Y-11439286D01*
X13228809Y-11439286D01*
X13247857Y-11429762D01*
X13343095Y-11382143D02*
X13343095Y-11582143D01*
X13343095Y-11391667D02*
X13362143Y-11382143D01*
X13400238Y-11382143D01*
X13419286Y-11391667D01*
X13428809Y-11401190D01*
X13438333Y-11420238D01*
X13438333Y-11477381D01*
X13428809Y-11496428D01*
X13419286Y-11505952D01*
X13400238Y-11515476D01*
X13362143Y-11515476D01*
X13343095Y-11505952D01*
X13524048Y-11496428D02*
X13533571Y-11505952D01*
X13524048Y-11515476D01*
X13514524Y-11505952D01*
X13524048Y-11496428D01*
X13524048Y-11515476D01*
X13524048Y-11391667D02*
X13533571Y-11401190D01*
X13524048Y-11410714D01*
X13514524Y-11401190D01*
X13524048Y-11391667D01*
X13524048Y-11410714D01*
X11695000Y-11745000D02*
X11895000Y-11945000D01*
X11895000Y-11745000D02*
X11695000Y-11945000D01*
X12133571Y-11735476D02*
X12257381Y-11735476D01*
X12190714Y-11811667D01*
X12219286Y-11811667D01*
X12238333Y-11821190D01*
X12247857Y-11830714D01*
X12257381Y-11849762D01*
X12257381Y-11897381D01*
X12247857Y-11916428D01*
X12238333Y-11925952D01*
X12219286Y-11935476D01*
X12162143Y-11935476D01*
X12143095Y-11925952D01*
X12133571Y-11916428D01*
X12343095Y-11916428D02*
X12352619Y-11925952D01*
X12343095Y-11935476D01*
X12333571Y-11925952D01*
X12343095Y-11916428D01*
X12343095Y-11935476D01*
X12428809Y-11754524D02*
X12438333Y-11745000D01*
X12457381Y-11735476D01*
X12505000Y-11735476D01*
X12524048Y-11745000D01*
X12533571Y-11754524D01*
X12543095Y-11773571D01*
X12543095Y-11792619D01*
X12533571Y-11821190D01*
X12419286Y-11935476D01*
X12543095Y-11935476D01*
X12666905Y-11735476D02*
X12685952Y-11735476D01*
X12705000Y-11745000D01*
X12714524Y-11754524D01*
X12724048Y-11773571D01*
X12733571Y-11811667D01*
X12733571Y-11859286D01*
X12724048Y-11897381D01*
X12714524Y-11916428D01*
X12705000Y-11925952D01*
X12685952Y-11935476D01*
X12666905Y-11935476D01*
X12647857Y-11925952D01*
X12638333Y-11916428D01*
X12628809Y-11897381D01*
X12619286Y-11859286D01*
X12619286Y-11811667D01*
X12628809Y-11773571D01*
X12638333Y-11754524D01*
X12647857Y-11745000D01*
X12666905Y-11735476D01*
X12857381Y-11735476D02*
X12876428Y-11735476D01*
X12895476Y-11745000D01*
X12905000Y-11754524D01*
X12914524Y-11773571D01*
X12924048Y-11811667D01*
X12924048Y-11859286D01*
X12914524Y-11897381D01*
X12905000Y-11916428D01*
X12895476Y-11925952D01*
X12876428Y-11935476D01*
X12857381Y-11935476D01*
X12838333Y-11925952D01*
X12828809Y-11916428D01*
X12819286Y-11897381D01*
X12809762Y-11859286D01*
X12809762Y-11811667D01*
X12819286Y-11773571D01*
X12828809Y-11754524D01*
X12838333Y-11745000D01*
X12857381Y-11735476D01*
X13009762Y-11935476D02*
X13009762Y-11802143D01*
X13009762Y-11821190D02*
X13019286Y-11811667D01*
X13038333Y-11802143D01*
X13066905Y-11802143D01*
X13085952Y-11811667D01*
X13095476Y-11830714D01*
X13095476Y-11935476D01*
X13095476Y-11830714D02*
X13105000Y-11811667D01*
X13124048Y-11802143D01*
X13152619Y-11802143D01*
X13171667Y-11811667D01*
X13181190Y-11830714D01*
X13181190Y-11935476D01*
X13276428Y-11935476D02*
X13276428Y-11802143D01*
X13276428Y-11821190D02*
X13285952Y-11811667D01*
X13305000Y-11802143D01*
X13333571Y-11802143D01*
X13352619Y-11811667D01*
X13362143Y-11830714D01*
X13362143Y-11935476D01*
X13362143Y-11830714D02*
X13371667Y-11811667D01*
X13390714Y-11802143D01*
X13419286Y-11802143D01*
X13438333Y-11811667D01*
X13447857Y-11830714D01*
X13447857Y-11935476D01*
X13838333Y-11725952D02*
X13666905Y-11983095D01*
X14095476Y-11735476D02*
X14114524Y-11735476D01*
X14133571Y-11745000D01*
X14143095Y-11754524D01*
X14152619Y-11773571D01*
X14162143Y-11811667D01*
X14162143Y-11859286D01*
X14152619Y-11897381D01*
X14143095Y-11916428D01*
X14133571Y-11925952D01*
X14114524Y-11935476D01*
X14095476Y-11935476D01*
X14076428Y-11925952D01*
X14066905Y-11916428D01*
X14057381Y-11897381D01*
X14047857Y-11859286D01*
X14047857Y-11811667D01*
X14057381Y-11773571D01*
X14066905Y-11754524D01*
X14076428Y-11745000D01*
X14095476Y-11735476D01*
X14247857Y-11916428D02*
X14257381Y-11925952D01*
X14247857Y-11935476D01*
X14238333Y-11925952D01*
X14247857Y-11916428D01*
X14247857Y-11935476D01*
X14447857Y-11935476D02*
X14333571Y-11935476D01*
X14390714Y-11935476D02*
X14390714Y-11735476D01*
X14371667Y-11764048D01*
X14352619Y-11783095D01*
X14333571Y-11792619D01*
X14524048Y-11754524D02*
X14533571Y-11745000D01*
X14552619Y-11735476D01*
X14600238Y-11735476D01*
X14619286Y-11745000D01*
X14628809Y-11754524D01*
X14638333Y-11773571D01*
X14638333Y-11792619D01*
X14628809Y-11821190D01*
X14514524Y-11935476D01*
X14638333Y-11935476D01*
X14809762Y-11735476D02*
X14771667Y-11735476D01*
X14752619Y-11745000D01*
X14743095Y-11754524D01*
X14724048Y-11783095D01*
X14714524Y-11821190D01*
X14714524Y-11897381D01*
X14724048Y-11916428D01*
X14733571Y-11925952D01*
X14752619Y-11935476D01*
X14790714Y-11935476D01*
X14809762Y-11925952D01*
X14819286Y-11916428D01*
X14828809Y-11897381D01*
X14828809Y-11849762D01*
X14819286Y-11830714D01*
X14809762Y-11821190D01*
X14790714Y-11811667D01*
X14752619Y-11811667D01*
X14733571Y-11821190D01*
X14724048Y-11830714D01*
X14714524Y-11849762D01*
X14952619Y-11735476D02*
X14971667Y-11735476D01*
X14990714Y-11745000D01*
X15000238Y-11754524D01*
X15009762Y-11773571D01*
X15019286Y-11811667D01*
X15019286Y-11859286D01*
X15009762Y-11897381D01*
X15000238Y-11916428D01*
X14990714Y-11925952D01*
X14971667Y-11935476D01*
X14952619Y-11935476D01*
X14933571Y-11925952D01*
X14924048Y-11916428D01*
X14914524Y-11897381D01*
X14905000Y-11859286D01*
X14905000Y-11811667D01*
X14914524Y-11773571D01*
X14924048Y-11754524D01*
X14933571Y-11745000D01*
X14952619Y-11735476D01*
X15095476Y-11735476D02*
X15095476Y-11773571D01*
X15171667Y-11735476D02*
X15171667Y-11773571D01*
X15466905Y-12011667D02*
X15457381Y-12002143D01*
X15438333Y-11973571D01*
X15428809Y-11954524D01*
X15419286Y-11925952D01*
X15409762Y-11878333D01*
X15409762Y-11840238D01*
X15419286Y-11792619D01*
X15428809Y-11764048D01*
X15438333Y-11745000D01*
X15457381Y-11716428D01*
X15466905Y-11706905D01*
X15628809Y-11802143D02*
X15628809Y-11935476D01*
X15581190Y-11725952D02*
X15533571Y-11868809D01*
X15657381Y-11868809D01*
X15885952Y-11935476D02*
X15885952Y-11735476D01*
X15971667Y-11935476D02*
X15971667Y-11830714D01*
X15962143Y-11811667D01*
X15943095Y-11802143D01*
X15914524Y-11802143D01*
X15895476Y-11811667D01*
X15885952Y-11821190D01*
X16095476Y-11935476D02*
X16076428Y-11925952D01*
X16066905Y-11916428D01*
X16057381Y-11897381D01*
X16057381Y-11840238D01*
X16066905Y-11821190D01*
X16076428Y-11811667D01*
X16095476Y-11802143D01*
X16124048Y-11802143D01*
X16143095Y-11811667D01*
X16152619Y-11821190D01*
X16162143Y-11840238D01*
X16162143Y-11897381D01*
X16152619Y-11916428D01*
X16143095Y-11925952D01*
X16124048Y-11935476D01*
X16095476Y-11935476D01*
X16276428Y-11935476D02*
X16257381Y-11925952D01*
X16247857Y-11906905D01*
X16247857Y-11735476D01*
X16428809Y-11925952D02*
X16409762Y-11935476D01*
X16371667Y-11935476D01*
X16352619Y-11925952D01*
X16343095Y-11906905D01*
X16343095Y-11830714D01*
X16352619Y-11811667D01*
X16371667Y-11802143D01*
X16409762Y-11802143D01*
X16428809Y-11811667D01*
X16438333Y-11830714D01*
X16438333Y-11849762D01*
X16343095Y-11868809D01*
X16514524Y-11925952D02*
X16533571Y-11935476D01*
X16571667Y-11935476D01*
X16590714Y-11925952D01*
X16600238Y-11906905D01*
X16600238Y-11897381D01*
X16590714Y-11878333D01*
X16571667Y-11868809D01*
X16543095Y-11868809D01*
X16524048Y-11859286D01*
X16514524Y-11840238D01*
X16514524Y-11830714D01*
X16524048Y-11811667D01*
X16543095Y-11802143D01*
X16571667Y-11802143D01*
X16590714Y-11811667D01*
X16666905Y-12011667D02*
X16676428Y-12002143D01*
X16695476Y-11973571D01*
X16705000Y-11954524D01*
X16714524Y-11925952D01*
X16724048Y-11878333D01*
X16724048Y-11840238D01*
X16714524Y-11792619D01*
X16705000Y-11764048D01*
X16695476Y-11745000D01*
X16676428Y-11716428D01*
X16666905Y-11706905D01*
X17028810Y-12011667D02*
X17019286Y-12002143D01*
X17000238Y-11973571D01*
X16990714Y-11954524D01*
X16981190Y-11925952D01*
X16971667Y-11878333D01*
X16971667Y-11840238D01*
X16981190Y-11792619D01*
X16990714Y-11764048D01*
X17000238Y-11745000D01*
X17019286Y-11716428D01*
X17028810Y-11706905D01*
X17105000Y-11802143D02*
X17105000Y-11935476D01*
X17105000Y-11821190D02*
X17114524Y-11811667D01*
X17133571Y-11802143D01*
X17162143Y-11802143D01*
X17181190Y-11811667D01*
X17190714Y-11830714D01*
X17190714Y-11935476D01*
X17314524Y-11935476D02*
X17295476Y-11925952D01*
X17285952Y-11916428D01*
X17276429Y-11897381D01*
X17276429Y-11840238D01*
X17285952Y-11821190D01*
X17295476Y-11811667D01*
X17314524Y-11802143D01*
X17343095Y-11802143D01*
X17362143Y-11811667D01*
X17371667Y-11821190D01*
X17381190Y-11840238D01*
X17381190Y-11897381D01*
X17371667Y-11916428D01*
X17362143Y-11925952D01*
X17343095Y-11935476D01*
X17314524Y-11935476D01*
X17438333Y-11802143D02*
X17514524Y-11802143D01*
X17466905Y-11735476D02*
X17466905Y-11906905D01*
X17476429Y-11925952D01*
X17495476Y-11935476D01*
X17514524Y-11935476D01*
X17733571Y-11802143D02*
X17733571Y-12002143D01*
X17733571Y-11811667D02*
X17752619Y-11802143D01*
X17790714Y-11802143D01*
X17809762Y-11811667D01*
X17819286Y-11821190D01*
X17828810Y-11840238D01*
X17828810Y-11897381D01*
X17819286Y-11916428D01*
X17809762Y-11925952D01*
X17790714Y-11935476D01*
X17752619Y-11935476D01*
X17733571Y-11925952D01*
X17943095Y-11935476D02*
X17924048Y-11925952D01*
X17914524Y-11906905D01*
X17914524Y-11735476D01*
X18105000Y-11935476D02*
X18105000Y-11830714D01*
X18095476Y-11811667D01*
X18076429Y-11802143D01*
X18038333Y-11802143D01*
X18019286Y-11811667D01*
X18105000Y-11925952D02*
X18085952Y-11935476D01*
X18038333Y-11935476D01*
X18019286Y-11925952D01*
X18009762Y-11906905D01*
X18009762Y-11887857D01*
X18019286Y-11868809D01*
X18038333Y-11859286D01*
X18085952Y-11859286D01*
X18105000Y-11849762D01*
X18171667Y-11802143D02*
X18247857Y-11802143D01*
X18200238Y-11735476D02*
X18200238Y-11906905D01*
X18209762Y-11925952D01*
X18228810Y-11935476D01*
X18247857Y-11935476D01*
X18390714Y-11925952D02*
X18371667Y-11935476D01*
X18333571Y-11935476D01*
X18314524Y-11925952D01*
X18305000Y-11906905D01*
X18305000Y-11830714D01*
X18314524Y-11811667D01*
X18333571Y-11802143D01*
X18371667Y-11802143D01*
X18390714Y-11811667D01*
X18400238Y-11830714D01*
X18400238Y-11849762D01*
X18305000Y-11868809D01*
X18571667Y-11935476D02*
X18571667Y-11735476D01*
X18571667Y-11925952D02*
X18552619Y-11935476D01*
X18514524Y-11935476D01*
X18495476Y-11925952D01*
X18485952Y-11916428D01*
X18476429Y-11897381D01*
X18476429Y-11840238D01*
X18485952Y-11821190D01*
X18495476Y-11811667D01*
X18514524Y-11802143D01*
X18552619Y-11802143D01*
X18571667Y-11811667D01*
X18647857Y-12011667D02*
X18657381Y-12002143D01*
X18676429Y-11973571D01*
X18685952Y-11954524D01*
X18695476Y-11925952D01*
X18705000Y-11878333D01*
X18705000Y-11840238D01*
X18695476Y-11792619D01*
X18685952Y-11764048D01*
X18676429Y-11745000D01*
X18657381Y-11716428D01*
X18647857Y-11706905D01*
M02*
