G04 #@! TF.GenerationSoftware,KiCad,Pcbnew,(6.0.7)*
G04 #@! TF.CreationDate,2022-10-27T11:37:51+02:00*
G04 #@! TF.ProjectId,DualValveCon,4475616c-5661-46c7-9665-436f6e2e6b69,rev?*
G04 #@! TF.SameCoordinates,Original*
G04 #@! TF.FileFunction,Soldermask,Top*
G04 #@! TF.FilePolarity,Negative*
%FSLAX46Y46*%
G04 Gerber Fmt 4.6, Leading zero omitted, Abs format (unit mm)*
G04 Created by KiCad (PCBNEW (6.0.7)) date 2022-10-27 11:37:51*
%MOMM*%
%LPD*%
G01*
G04 APERTURE LIST*
G04 Aperture macros list*
%AMRoundRect*
0 Rectangle with rounded corners*
0 $1 Rounding radius*
0 $2 $3 $4 $5 $6 $7 $8 $9 X,Y pos of 4 corners*
0 Add a 4 corners polygon primitive as box body*
4,1,4,$2,$3,$4,$5,$6,$7,$8,$9,$2,$3,0*
0 Add four circle primitives for the rounded corners*
1,1,$1+$1,$2,$3*
1,1,$1+$1,$4,$5*
1,1,$1+$1,$6,$7*
1,1,$1+$1,$8,$9*
0 Add four rect primitives between the rounded corners*
20,1,$1+$1,$2,$3,$4,$5,0*
20,1,$1+$1,$4,$5,$6,$7,0*
20,1,$1+$1,$6,$7,$8,$9,0*
20,1,$1+$1,$8,$9,$2,$3,0*%
G04 Aperture macros list end*
%ADD10RoundRect,0.300000X0.325000X1.100000X-0.325000X1.100000X-0.325000X-1.100000X0.325000X-1.100000X0*%
%ADD11RoundRect,0.100000X-0.387500X-0.050000X0.387500X-0.050000X0.387500X0.050000X-0.387500X0.050000X0*%
%ADD12RoundRect,0.100000X-0.050000X-0.387500X0.050000X-0.387500X0.050000X0.387500X-0.050000X0.387500X0*%
%ADD13RoundRect,0.050000X-1.600000X-1.600000X1.600000X-1.600000X1.600000X1.600000X-1.600000X1.600000X0*%
%ADD14C,3.300000*%
%ADD15RoundRect,0.250000X-0.275000X0.200000X-0.275000X-0.200000X0.275000X-0.200000X0.275000X0.200000X0*%
%ADD16RoundRect,0.300000X0.750000X-0.600000X0.750000X0.600000X-0.750000X0.600000X-0.750000X-0.600000X0*%
%ADD17O,2.100000X1.800000*%
%ADD18RoundRect,0.300000X-0.325000X-0.650000X0.325000X-0.650000X0.325000X0.650000X-0.325000X0.650000X0*%
%ADD19RoundRect,0.275000X0.225000X0.250000X-0.225000X0.250000X-0.225000X-0.250000X0.225000X-0.250000X0*%
%ADD20RoundRect,0.268750X0.218750X0.256250X-0.218750X0.256250X-0.218750X-0.256250X0.218750X-0.256250X0*%
%ADD21RoundRect,0.275000X-0.225000X-0.250000X0.225000X-0.250000X0.225000X0.250000X-0.225000X0.250000X0*%
%ADD22RoundRect,0.050000X-0.375000X-0.150000X0.375000X-0.150000X0.375000X0.150000X-0.375000X0.150000X0*%
%ADD23RoundRect,0.050000X-0.150000X-0.850000X0.150000X-0.850000X0.150000X0.850000X-0.150000X0.850000X0*%
%ADD24RoundRect,0.300000X-0.620000X-0.845000X0.620000X-0.845000X0.620000X0.845000X-0.620000X0.845000X0*%
%ADD25O,1.840000X2.290000*%
%ADD26RoundRect,0.050000X-0.500000X0.575000X-0.500000X-0.575000X0.500000X-0.575000X0.500000X0.575000X0*%
%ADD27RoundRect,0.050000X0.200000X0.700000X-0.200000X0.700000X-0.200000X-0.700000X0.200000X-0.700000X0*%
%ADD28O,1.150000X2.000000*%
%ADD29RoundRect,0.050000X0.575000X0.725000X-0.575000X0.725000X-0.575000X-0.725000X0.575000X-0.725000X0*%
%ADD30RoundRect,0.050000X0.875000X0.950000X-0.875000X0.950000X-0.875000X-0.950000X0.875000X-0.950000X0*%
%ADD31RoundRect,0.268750X0.256250X-0.218750X0.256250X0.218750X-0.256250X0.218750X-0.256250X-0.218750X0*%
%ADD32RoundRect,0.250000X0.275000X-0.200000X0.275000X0.200000X-0.275000X0.200000X-0.275000X-0.200000X0*%
%ADD33RoundRect,0.268750X-0.256250X0.218750X-0.256250X-0.218750X0.256250X-0.218750X0.256250X0.218750X0*%
%ADD34RoundRect,0.105000X-0.145000X-0.055000X0.145000X-0.055000X0.145000X0.055000X-0.145000X0.055000X0*%
%ADD35RoundRect,0.187500X-0.137500X-0.237500X0.137500X-0.237500X0.137500X0.237500X-0.137500X0.237500X0*%
%ADD36RoundRect,0.190000X-0.140000X-0.170000X0.140000X-0.170000X0.140000X0.170000X-0.140000X0.170000X0*%
%ADD37RoundRect,0.050000X0.300000X0.225000X-0.300000X0.225000X-0.300000X-0.225000X0.300000X-0.225000X0*%
%ADD38RoundRect,0.250000X0.200000X0.275000X-0.200000X0.275000X-0.200000X-0.275000X0.200000X-0.275000X0*%
%ADD39RoundRect,0.300000X0.850000X-0.375000X0.850000X0.375000X-0.850000X0.375000X-0.850000X-0.375000X0*%
%ADD40RoundRect,0.275000X-0.250000X0.225000X-0.250000X-0.225000X0.250000X-0.225000X0.250000X0.225000X0*%
%ADD41RoundRect,0.050000X0.850000X-0.850000X0.850000X0.850000X-0.850000X0.850000X-0.850000X-0.850000X0*%
%ADD42O,1.800000X1.800000*%
%ADD43RoundRect,0.050000X0.250000X0.125000X-0.250000X0.125000X-0.250000X-0.125000X0.250000X-0.125000X0*%
%ADD44RoundRect,0.050000X0.450000X0.800000X-0.450000X0.800000X-0.450000X-0.800000X0.450000X-0.800000X0*%
%ADD45RoundRect,0.275000X0.250000X-0.225000X0.250000X0.225000X-0.250000X0.225000X-0.250000X-0.225000X0*%
%ADD46RoundRect,0.050000X0.850000X0.850000X-0.850000X0.850000X-0.850000X-0.850000X0.850000X-0.850000X0*%
%ADD47RoundRect,0.250000X-0.200000X-0.275000X0.200000X-0.275000X0.200000X0.275000X-0.200000X0.275000X0*%
%ADD48RoundRect,0.050000X2.700000X-1.450000X2.700000X1.450000X-2.700000X1.450000X-2.700000X-1.450000X0*%
%ADD49RoundRect,0.250000X-0.200000X-0.525000X0.200000X-0.525000X0.200000X0.525000X-0.200000X0.525000X0*%
%ADD50RoundRect,0.125000X-0.225000X-0.075000X0.225000X-0.075000X0.225000X0.075000X-0.225000X0.075000X0*%
%ADD51RoundRect,0.125000X-0.075000X-0.787500X0.075000X-0.787500X0.075000X0.787500X-0.075000X0.787500X0*%
%ADD52RoundRect,0.268750X0.381250X-0.218750X0.381250X0.218750X-0.381250X0.218750X-0.381250X-0.218750X0*%
%ADD53RoundRect,0.050000X0.800000X-0.800000X0.800000X0.800000X-0.800000X0.800000X-0.800000X-0.800000X0*%
%ADD54C,1.700000*%
G04 APERTURE END LIST*
D10*
X157900000Y-88250000D03*
X154950000Y-88250000D03*
D11*
X139362500Y-86100000D03*
X139362500Y-86500000D03*
X139362500Y-86900000D03*
X139362500Y-87300000D03*
X139362500Y-87700000D03*
X139362500Y-88100000D03*
X139362500Y-88500000D03*
X139362500Y-88900000D03*
X139362500Y-89300000D03*
X139362500Y-89700000D03*
X139362500Y-90100000D03*
X139362500Y-90500000D03*
X139362500Y-90900000D03*
X139362500Y-91300000D03*
D12*
X140200000Y-92137500D03*
X140600000Y-92137500D03*
X141000000Y-92137500D03*
X141400000Y-92137500D03*
X141800000Y-92137500D03*
X142200000Y-92137500D03*
X142600000Y-92137500D03*
X143000000Y-92137500D03*
X143400000Y-92137500D03*
X143800000Y-92137500D03*
X144200000Y-92137500D03*
X144600000Y-92137500D03*
X145000000Y-92137500D03*
X145400000Y-92137500D03*
D11*
X146237500Y-91300000D03*
X146237500Y-90900000D03*
X146237500Y-90500000D03*
X146237500Y-90100000D03*
X146237500Y-89700000D03*
X146237500Y-89300000D03*
X146237500Y-88900000D03*
X146237500Y-88500000D03*
X146237500Y-88100000D03*
X146237500Y-87700000D03*
X146237500Y-87300000D03*
X146237500Y-86900000D03*
X146237500Y-86500000D03*
X146237500Y-86100000D03*
D12*
X145400000Y-85262500D03*
X145000000Y-85262500D03*
X144600000Y-85262500D03*
X144200000Y-85262500D03*
X143800000Y-85262500D03*
X143400000Y-85262500D03*
X143000000Y-85262500D03*
X142600000Y-85262500D03*
X142200000Y-85262500D03*
X141800000Y-85262500D03*
X141400000Y-85262500D03*
X141000000Y-85262500D03*
X140600000Y-85262500D03*
X140200000Y-85262500D03*
D13*
X142800000Y-88700000D03*
D14*
X190000000Y-66000000D03*
D15*
X143400000Y-78175000D03*
X143400000Y-79825000D03*
D16*
X175000000Y-98250000D03*
D17*
X175000000Y-95750000D03*
D18*
X159350000Y-87950000D03*
X162300000Y-87950000D03*
D10*
X181242500Y-94200000D03*
X178292500Y-94200000D03*
D19*
X139775000Y-80300000D03*
X138225000Y-80300000D03*
D20*
X147700000Y-83300000D03*
X146125000Y-83300000D03*
D21*
X141475000Y-82800000D03*
X143025000Y-82800000D03*
D22*
X136950000Y-81350000D03*
X136950000Y-81850000D03*
X136950000Y-82350000D03*
X136950000Y-82850000D03*
X139850000Y-82850000D03*
X139850000Y-82350000D03*
X139850000Y-81850000D03*
X139850000Y-81350000D03*
D23*
X138400000Y-82100000D03*
D15*
X149700000Y-74175000D03*
X149700000Y-75825000D03*
D24*
X161400000Y-72520000D03*
D25*
X163940000Y-72520000D03*
X166480000Y-72520000D03*
D26*
X138700000Y-95425000D03*
X138700000Y-97175000D03*
X140100000Y-97175000D03*
X140100000Y-95425000D03*
D27*
X143300000Y-67350000D03*
X142650000Y-67350000D03*
X142000000Y-67350000D03*
X141350000Y-67350000D03*
X140700000Y-67350000D03*
D28*
X138425000Y-64700000D03*
X145575000Y-64700000D03*
D29*
X144320000Y-66930000D03*
D30*
X140875000Y-64700000D03*
X143125000Y-64700000D03*
D29*
X139680000Y-66930000D03*
D31*
X127000000Y-97787500D03*
X127000000Y-96212500D03*
D19*
X180575000Y-91800000D03*
X179025000Y-91800000D03*
D21*
X138625000Y-94100000D03*
X140175000Y-94100000D03*
D32*
X135700000Y-97825000D03*
X135700000Y-96175000D03*
D16*
X175000000Y-90250000D03*
D17*
X175000000Y-87750000D03*
D33*
X127000000Y-76212500D03*
X127000000Y-77787500D03*
D34*
X198300000Y-87250000D03*
X199700000Y-87250000D03*
X199700000Y-86750000D03*
X198300000Y-86750000D03*
D35*
X199000000Y-87000000D03*
D14*
X190000000Y-108000000D03*
D36*
X120520000Y-88000000D03*
X121480000Y-88000000D03*
D15*
X182600000Y-96975000D03*
X182600000Y-98625000D03*
D19*
X180775000Y-100000000D03*
X179225000Y-100000000D03*
D37*
X148200000Y-70900000D03*
X146100000Y-70900000D03*
D15*
X144600000Y-78175000D03*
X144600000Y-79825000D03*
D31*
X193000000Y-97787500D03*
X193000000Y-96212500D03*
D38*
X180825000Y-98800000D03*
X179175000Y-98800000D03*
D33*
X193000000Y-76212500D03*
X193000000Y-77787500D03*
D39*
X161725000Y-91925000D03*
X161725000Y-89775000D03*
D36*
X198520000Y-88000000D03*
X199480000Y-88000000D03*
D21*
X148225000Y-86100000D03*
X149775000Y-86100000D03*
D40*
X144000000Y-94025000D03*
X144000000Y-95575000D03*
D41*
X144075000Y-99400000D03*
D42*
X146615000Y-99400000D03*
X149155000Y-99400000D03*
D38*
X184225000Y-106600000D03*
X182575000Y-106600000D03*
D15*
X157925000Y-94225000D03*
X157925000Y-95875000D03*
D21*
X141475000Y-81650000D03*
X143025000Y-81650000D03*
D43*
X180417500Y-89550000D03*
X180417500Y-89050000D03*
X180417500Y-88550000D03*
X180417500Y-88050000D03*
X178517500Y-88050000D03*
X178517500Y-88550000D03*
X178517500Y-89050000D03*
X178517500Y-89550000D03*
D44*
X179467500Y-88800000D03*
D38*
X145075000Y-71500000D03*
X143425000Y-71500000D03*
D20*
X136787500Y-63000000D03*
X135212500Y-63000000D03*
D32*
X137000000Y-80325000D03*
X137000000Y-78675000D03*
D14*
X130000000Y-108000000D03*
D19*
X162300000Y-93450000D03*
X160750000Y-93450000D03*
D14*
X130000000Y-66000000D03*
D19*
X137375000Y-86100000D03*
X135825000Y-86100000D03*
D40*
X142800000Y-94025000D03*
X142800000Y-95575000D03*
D45*
X147412500Y-82175000D03*
X147412500Y-80625000D03*
D24*
X153560000Y-72520000D03*
D25*
X156100000Y-72520000D03*
X158640000Y-72520000D03*
D46*
X138225000Y-76750000D03*
D42*
X138225000Y-74210000D03*
D10*
X157900000Y-85250000D03*
X154950000Y-85250000D03*
D15*
X151000000Y-74175000D03*
X151000000Y-75825000D03*
D38*
X145075000Y-70300000D03*
X143425000Y-70300000D03*
D34*
X120300000Y-87250000D03*
X121700000Y-87250000D03*
X121700000Y-86750000D03*
X120300000Y-86750000D03*
D35*
X121000000Y-87000000D03*
D47*
X145075000Y-73900000D03*
X146725000Y-73900000D03*
D32*
X135800000Y-69325000D03*
X135800000Y-67675000D03*
D15*
X183800000Y-77175000D03*
X183800000Y-78825000D03*
D21*
X148425000Y-89900000D03*
X149975000Y-89900000D03*
D43*
X180417500Y-97650000D03*
X180417500Y-97150000D03*
X180417500Y-96650000D03*
X180417500Y-96150000D03*
X178517500Y-96150000D03*
X178517500Y-96650000D03*
X178517500Y-97150000D03*
X178517500Y-97650000D03*
D44*
X179467500Y-96900000D03*
D19*
X137675000Y-89700000D03*
X136125000Y-89700000D03*
D45*
X156525000Y-95850000D03*
X156525000Y-94300000D03*
X145000000Y-83075000D03*
X145000000Y-81525000D03*
D48*
X176000000Y-82950000D03*
X176000000Y-73050000D03*
D21*
X159125000Y-95950000D03*
X160675000Y-95950000D03*
D15*
X141400000Y-96975000D03*
X141400000Y-98625000D03*
D19*
X140175000Y-98500000D03*
X138625000Y-98500000D03*
D49*
X157875000Y-91162500D03*
D50*
X157775000Y-92212500D03*
X157775000Y-92662500D03*
X157775000Y-93112500D03*
X159475000Y-93112500D03*
X159475000Y-92662500D03*
X159475000Y-92212500D03*
D49*
X159375000Y-91162500D03*
D51*
X158625000Y-91025000D03*
D47*
X143425000Y-72700000D03*
X145075000Y-72700000D03*
D10*
X181342500Y-86000000D03*
X178392500Y-86000000D03*
D38*
X156450000Y-93100000D03*
X154800000Y-93100000D03*
X180625000Y-90600000D03*
X178975000Y-90600000D03*
D52*
X153525000Y-87812500D03*
X153525000Y-85687500D03*
D53*
X166000000Y-82000000D03*
D54*
X166000000Y-79500000D03*
D38*
X160700000Y-94750000D03*
X159050000Y-94750000D03*
D45*
X182567500Y-87975000D03*
X182567500Y-86425000D03*
X182600000Y-95975000D03*
X182600000Y-94425000D03*
X155325000Y-95875000D03*
X155325000Y-94325000D03*
X146212500Y-82175000D03*
X146212500Y-80625000D03*
D15*
X182500000Y-88975000D03*
X182500000Y-90625000D03*
D18*
X159350000Y-85850000D03*
X162300000Y-85850000D03*
D32*
X135700000Y-76925000D03*
X135700000Y-75275000D03*
G36*
X182948549Y-96454378D02*
G01*
X182948939Y-96456340D01*
X182948520Y-96457048D01*
X182927975Y-96479468D01*
X182929574Y-96516082D01*
X182952700Y-96538749D01*
X182953237Y-96540675D01*
X182951837Y-96542104D01*
X182950910Y-96542139D01*
X182874801Y-96527000D01*
X182325199Y-96527000D01*
X182248942Y-96542168D01*
X182247048Y-96541525D01*
X182246658Y-96539563D01*
X182247102Y-96538828D01*
X182271669Y-96512986D01*
X182270741Y-96476347D01*
X182251917Y-96457175D01*
X182251417Y-96455239D01*
X182252844Y-96453837D01*
X182253734Y-96453812D01*
X182350199Y-96473000D01*
X182849801Y-96473000D01*
X182946655Y-96453735D01*
X182948549Y-96454378D01*
G37*
G36*
X158057269Y-92847884D02*
G01*
X158056936Y-92849126D01*
X158037531Y-92878167D01*
X158044717Y-92914294D01*
X158054598Y-92924175D01*
X158055116Y-92926107D01*
X158053702Y-92927521D01*
X158052073Y-92927252D01*
X158047056Y-92923900D01*
X157999801Y-92914500D01*
X157550199Y-92914500D01*
X157502944Y-92923900D01*
X157495838Y-92928648D01*
X157493842Y-92928779D01*
X157492731Y-92927116D01*
X157493064Y-92925874D01*
X157512469Y-92896833D01*
X157505283Y-92860706D01*
X157495402Y-92850825D01*
X157494884Y-92848893D01*
X157496298Y-92847479D01*
X157497927Y-92847748D01*
X157502944Y-92851100D01*
X157550199Y-92860500D01*
X157999801Y-92860500D01*
X158047056Y-92851100D01*
X158054162Y-92846352D01*
X158056158Y-92846221D01*
X158057269Y-92847884D01*
G37*
G36*
X159757269Y-92847884D02*
G01*
X159756936Y-92849126D01*
X159737531Y-92878167D01*
X159744717Y-92914294D01*
X159754598Y-92924175D01*
X159755116Y-92926107D01*
X159753702Y-92927521D01*
X159752073Y-92927252D01*
X159747056Y-92923900D01*
X159699801Y-92914500D01*
X159250199Y-92914500D01*
X159202944Y-92923900D01*
X159195838Y-92928648D01*
X159193842Y-92928779D01*
X159192731Y-92927116D01*
X159193064Y-92925874D01*
X159212469Y-92896833D01*
X159205283Y-92860706D01*
X159195402Y-92850825D01*
X159194884Y-92848893D01*
X159196298Y-92847479D01*
X159197927Y-92847748D01*
X159202944Y-92851100D01*
X159250199Y-92860500D01*
X159699801Y-92860500D01*
X159747056Y-92851100D01*
X159754162Y-92846352D01*
X159756158Y-92846221D01*
X159757269Y-92847884D01*
G37*
G36*
X159757269Y-92397884D02*
G01*
X159756936Y-92399126D01*
X159737531Y-92428167D01*
X159744717Y-92464294D01*
X159754598Y-92474175D01*
X159755116Y-92476107D01*
X159753702Y-92477521D01*
X159752073Y-92477252D01*
X159747056Y-92473900D01*
X159699801Y-92464500D01*
X159250199Y-92464500D01*
X159202944Y-92473900D01*
X159195838Y-92478648D01*
X159193842Y-92478779D01*
X159192731Y-92477116D01*
X159193064Y-92475874D01*
X159212469Y-92446833D01*
X159205283Y-92410706D01*
X159195402Y-92400825D01*
X159194884Y-92398893D01*
X159196298Y-92397479D01*
X159197927Y-92397748D01*
X159202944Y-92401100D01*
X159250199Y-92410500D01*
X159699801Y-92410500D01*
X159747056Y-92401100D01*
X159754162Y-92396352D01*
X159756158Y-92396221D01*
X159757269Y-92397884D01*
G37*
G36*
X158057269Y-92397884D02*
G01*
X158056936Y-92399126D01*
X158037531Y-92428167D01*
X158044717Y-92464294D01*
X158054598Y-92474175D01*
X158055116Y-92476107D01*
X158053702Y-92477521D01*
X158052073Y-92477252D01*
X158047056Y-92473900D01*
X157999801Y-92464500D01*
X157550199Y-92464500D01*
X157502944Y-92473900D01*
X157495838Y-92478648D01*
X157493842Y-92478779D01*
X157492731Y-92477116D01*
X157493064Y-92475874D01*
X157512469Y-92446833D01*
X157505283Y-92410706D01*
X157495402Y-92400825D01*
X157494884Y-92398893D01*
X157496298Y-92397479D01*
X157497927Y-92397748D01*
X157502944Y-92401100D01*
X157550199Y-92410500D01*
X157999801Y-92410500D01*
X158047056Y-92401100D01*
X158054162Y-92396352D01*
X158056158Y-92396221D01*
X158057269Y-92397884D01*
G37*
G36*
X159659679Y-91919637D02*
G01*
X159660069Y-91921599D01*
X159659625Y-91922334D01*
X159637773Y-91945320D01*
X159638700Y-91981918D01*
X159665406Y-92007307D01*
X159682781Y-92010534D01*
X159684302Y-92011833D01*
X159683936Y-92013800D01*
X159682416Y-92014500D01*
X159250199Y-92014500D01*
X159202944Y-92023900D01*
X159197240Y-92027711D01*
X159195244Y-92027842D01*
X159194133Y-92026179D01*
X159194466Y-92024937D01*
X159213873Y-91995893D01*
X159206730Y-91959985D01*
X159175601Y-91939186D01*
X159175705Y-91939031D01*
X159174699Y-91938218D01*
X159175011Y-91936243D01*
X159176566Y-91935500D01*
X159574801Y-91935500D01*
X159657785Y-91918994D01*
X159659679Y-91919637D01*
G37*
G36*
X157675199Y-91935500D02*
G01*
X158074805Y-91935500D01*
X158076346Y-91935193D01*
X158077673Y-91935643D01*
X158078843Y-91934696D01*
X158148015Y-91920937D01*
X158149909Y-91921580D01*
X158150299Y-91923542D01*
X158149217Y-91924727D01*
X158131972Y-91932387D01*
X158131393Y-91932545D01*
X158079466Y-91938644D01*
X158078332Y-91938156D01*
X158077713Y-91938900D01*
X158045491Y-91956908D01*
X158035523Y-91992135D01*
X158052926Y-92023274D01*
X158052898Y-92025274D01*
X158051152Y-92026250D01*
X158050069Y-92025913D01*
X158047056Y-92023900D01*
X157999801Y-92014500D01*
X157567645Y-92014500D01*
X157565913Y-92013500D01*
X157565913Y-92011500D01*
X157566880Y-92010652D01*
X157601467Y-91996326D01*
X157615477Y-91962502D01*
X157601378Y-91928462D01*
X157593707Y-91923205D01*
X157592844Y-91921401D01*
X157593975Y-91919751D01*
X157595228Y-91919593D01*
X157675199Y-91935500D01*
G37*
G36*
X182197476Y-88441782D02*
G01*
X182213041Y-88452182D01*
X182317699Y-88473000D01*
X182817301Y-88473000D01*
X182903054Y-88455943D01*
X182904948Y-88456586D01*
X182905338Y-88458548D01*
X182904289Y-88459718D01*
X182887650Y-88467477D01*
X182862624Y-88494787D01*
X182864223Y-88531401D01*
X182883317Y-88550117D01*
X182883854Y-88552043D01*
X182882454Y-88553472D01*
X182880806Y-88553208D01*
X182869892Y-88545915D01*
X182774801Y-88527000D01*
X182225199Y-88527000D01*
X182151985Y-88541563D01*
X182150091Y-88540920D01*
X182149701Y-88538958D01*
X182150783Y-88537773D01*
X182168028Y-88530113D01*
X182168607Y-88529955D01*
X182170223Y-88529766D01*
X182202560Y-88511694D01*
X182212529Y-88476468D01*
X182194619Y-88444421D01*
X182194647Y-88442421D01*
X182196393Y-88441445D01*
X182197476Y-88441782D01*
G37*
G36*
X181969348Y-86085260D02*
G01*
X181983675Y-86119849D01*
X182017499Y-86133859D01*
X182051551Y-86119755D01*
X182058597Y-86109691D01*
X182060409Y-86108846D01*
X182062048Y-86109993D01*
X182062197Y-86111228D01*
X182044500Y-86200199D01*
X182044500Y-86649801D01*
X182062519Y-86740387D01*
X182061876Y-86742281D01*
X182059914Y-86742671D01*
X182059206Y-86742252D01*
X182033859Y-86719026D01*
X181997284Y-86720623D01*
X181972384Y-86747796D01*
X181969470Y-86764323D01*
X181968184Y-86765855D01*
X181966214Y-86765508D01*
X181965500Y-86763976D01*
X181965500Y-86086025D01*
X181966500Y-86084293D01*
X181968500Y-86084293D01*
X181969348Y-86085260D01*
G37*
M02*
