%TF.GenerationSoftware,KiCad,Pcbnew,(6.0.7)*%
%TF.CreationDate,2022-10-27T11:38:15+02:00*%
%TF.ProjectId,DualValveCon,4475616c-5661-46c7-9665-436f6e2e6b69,rev?*%
%TF.SameCoordinates,Original*%
%TF.FileFunction,Drillmap*%
%TF.FilePolarity,Positive*%
%FSLAX45Y45*%
G04 Gerber Fmt 4.5, Leading zero omitted, Abs format (unit mm)*
G04 Created by KiCad (PCBNEW (6.0.7)) date 2022-10-27 11:38:15*
%MOMM*%
%LPD*%
G01*
G04 APERTURE LIST*
%ADD10C,0.100000*%
%ADD11C,0.200000*%
%ADD12C,0.020000*%
%ADD13C,0.045000*%
%ADD14C,0.080000*%
%ADD15C,0.119000*%
G04 APERTURE END LIST*
D10*
X20100000Y-8400000D02*
X19600000Y-8400000D01*
X12400000Y-8400000D02*
X11900000Y-8400000D01*
X12600000Y-6200000D02*
X19400000Y-6200000D01*
X20100000Y-9000000D02*
X20100000Y-8400000D01*
X12600000Y-9200000D02*
G75*
G03*
X12400000Y-9000000I-200000J0D01*
G01*
X11900000Y-8400000D02*
X11900000Y-9000000D01*
X11900000Y-9000000D02*
X12400000Y-9000000D01*
X12400000Y-8400000D02*
G75*
G03*
X12600000Y-8200000I0J200000D01*
G01*
X19400000Y-9200000D02*
X19400000Y-11200000D01*
X19400000Y-8200000D02*
X19400000Y-6200000D01*
X12600000Y-8200000D02*
X12600000Y-6200000D01*
X19400000Y-11200000D02*
X12600000Y-11200000D01*
X19600000Y-9000000D02*
G75*
G03*
X19400000Y-9200000I0J-200000D01*
G01*
X12600000Y-11200000D02*
X12600000Y-9200000D01*
X19400000Y-8200000D02*
G75*
G03*
X19600000Y-8400000I200000J0D01*
G01*
X19600000Y-9000000D02*
X20100000Y-9000000D01*
D11*
D12*
X12210000Y-8790000D02*
X12230000Y-8810000D01*
X12230000Y-8790000D02*
X12210000Y-8810000D01*
X12430000Y-8580000D02*
X12450000Y-8600000D01*
X12450000Y-8580000D02*
X12430000Y-8600000D01*
X12430000Y-8712700D02*
X12450000Y-8732700D01*
X12450000Y-8712700D02*
X12430000Y-8732700D01*
X12490000Y-8580000D02*
X12510000Y-8600000D01*
X12510000Y-8580000D02*
X12490000Y-8600000D01*
X12490000Y-8712650D02*
X12510000Y-8732650D01*
X12510000Y-8712650D02*
X12490000Y-8732650D01*
X12720000Y-8890000D02*
X12740000Y-8910000D01*
X12740000Y-8890000D02*
X12720000Y-8910000D01*
X12790000Y-8890000D02*
X12810000Y-8910000D01*
X12810000Y-8890000D02*
X12790000Y-8910000D01*
X13190000Y-9090000D02*
X13210000Y-9110000D01*
X13210000Y-9090000D02*
X13190000Y-9110000D01*
X13240000Y-8490000D02*
X13260000Y-8510000D01*
X13260000Y-8490000D02*
X13240000Y-8510000D01*
X13290000Y-8490000D02*
X13310000Y-8510000D01*
X13310000Y-8490000D02*
X13290000Y-8510000D01*
X13290000Y-9090000D02*
X13310000Y-9110000D01*
X13310000Y-9090000D02*
X13290000Y-9110000D01*
X13290000Y-9600000D02*
X13310000Y-9620000D01*
X13310000Y-9600000D02*
X13290000Y-9620000D01*
X13390000Y-7290000D02*
X13410000Y-7310000D01*
X13410000Y-7290000D02*
X13390000Y-7310000D01*
X13420000Y-8740000D02*
X13440000Y-8760000D01*
X13440000Y-8740000D02*
X13420000Y-8760000D01*
X13420000Y-8900000D02*
X13440000Y-8920000D01*
X13440000Y-8900000D02*
X13420000Y-8920000D01*
X13470000Y-8740000D02*
X13490000Y-8760000D01*
X13490000Y-8740000D02*
X13470000Y-8760000D01*
X13470000Y-8900000D02*
X13490000Y-8920000D01*
X13490000Y-8900000D02*
X13470000Y-8920000D01*
X13500000Y-8560000D02*
X13520000Y-8580000D01*
X13520000Y-8560000D02*
X13500000Y-8580000D01*
X13530000Y-9010000D02*
X13550000Y-9030000D01*
X13550000Y-9010000D02*
X13530000Y-9030000D01*
X13690000Y-6965000D02*
X13710000Y-6985000D01*
X13710000Y-6965000D02*
X13690000Y-6985000D01*
X13727500Y-7002500D02*
X13747500Y-7022500D01*
X13747500Y-7002500D02*
X13727500Y-7022500D01*
X13765000Y-8265000D02*
X13785000Y-8285000D01*
X13785000Y-8265000D02*
X13765000Y-8285000D01*
X13815000Y-7915000D02*
X13835000Y-7935000D01*
X13835000Y-7915000D02*
X13815000Y-7935000D01*
X13865000Y-9940000D02*
X13885000Y-9960000D01*
X13885000Y-9940000D02*
X13865000Y-9960000D01*
X13950000Y-7030000D02*
X13970000Y-7050000D01*
X13970000Y-7030000D02*
X13950000Y-7050000D01*
X14015000Y-9315000D02*
X14035000Y-9335000D01*
X14035000Y-9315000D02*
X14015000Y-9335000D01*
X14050000Y-7130000D02*
X14070000Y-7150000D01*
X14070000Y-7130000D02*
X14050000Y-7150000D01*
X14090000Y-10440000D02*
X14110000Y-10460000D01*
X14110000Y-10440000D02*
X14090000Y-10460000D01*
X14090000Y-10540000D02*
X14110000Y-10560000D01*
X14110000Y-10540000D02*
X14090000Y-10560000D01*
X14140000Y-7030000D02*
X14160000Y-7050000D01*
X14160000Y-7030000D02*
X14140000Y-7050000D01*
X14140000Y-7170000D02*
X14160000Y-7190000D01*
X14160000Y-7170000D02*
X14140000Y-7190000D01*
X14170000Y-8960000D02*
X14190000Y-8980000D01*
X14190000Y-8960000D02*
X14170000Y-8980000D01*
X14170000Y-9110000D02*
X14190000Y-9130000D01*
X14190000Y-9110000D02*
X14170000Y-9130000D01*
X14190000Y-8765000D02*
X14210000Y-8785000D01*
X14210000Y-8765000D02*
X14190000Y-8785000D01*
X14215200Y-10190000D02*
X14235200Y-10210000D01*
X14235200Y-10190000D02*
X14215200Y-10210000D01*
X14215200Y-10240000D02*
X14235200Y-10260000D01*
X14235200Y-10240000D02*
X14215200Y-10260000D01*
X14290000Y-8070000D02*
X14310000Y-8090000D01*
X14310000Y-8070000D02*
X14290000Y-8090000D01*
X14290000Y-8360000D02*
X14310000Y-8380000D01*
X14310000Y-8360000D02*
X14290000Y-8380000D01*
X14290000Y-9640000D02*
X14310000Y-9660000D01*
X14310000Y-9640000D02*
X14290000Y-9660000D01*
X14340000Y-10440000D02*
X14360000Y-10460000D01*
X14360000Y-10440000D02*
X14340000Y-10460000D01*
X14340000Y-10540000D02*
X14360000Y-10560000D01*
X14360000Y-10540000D02*
X14340000Y-10560000D01*
X14365000Y-8765000D02*
X14385000Y-8785000D01*
X14385000Y-8765000D02*
X14365000Y-8785000D01*
X14365000Y-8965000D02*
X14385000Y-8985000D01*
X14385000Y-8965000D02*
X14365000Y-8985000D01*
X14390000Y-9640000D02*
X14410000Y-9660000D01*
X14410000Y-9640000D02*
X14390000Y-9660000D01*
X14490000Y-8065000D02*
X14510000Y-8085000D01*
X14510000Y-8065000D02*
X14490000Y-8085000D01*
X14620000Y-7950000D02*
X14640000Y-7970000D01*
X14640000Y-7950000D02*
X14620000Y-7970000D01*
X14660000Y-7270000D02*
X14680000Y-7290000D01*
X14680000Y-7270000D02*
X14660000Y-7290000D01*
X14710000Y-7030000D02*
X14730000Y-7050000D01*
X14730000Y-7030000D02*
X14710000Y-7050000D01*
X14710000Y-7110000D02*
X14730000Y-7130000D01*
X14730000Y-7110000D02*
X14710000Y-7130000D01*
X14710000Y-7180000D02*
X14730000Y-7200000D01*
X14730000Y-7180000D02*
X14710000Y-7200000D01*
X14710000Y-7700000D02*
X14730000Y-7720000D01*
X14730000Y-7700000D02*
X14710000Y-7720000D01*
X14740000Y-7965000D02*
X14760000Y-7985000D01*
X14760000Y-7965000D02*
X14740000Y-7985000D01*
X14740000Y-8632350D02*
X14760000Y-8652350D01*
X14760000Y-8632350D02*
X14740000Y-8652350D01*
X14740000Y-8900000D02*
X14760000Y-8920000D01*
X14760000Y-8900000D02*
X14740000Y-8920000D01*
X14910000Y-7700000D02*
X14930000Y-7720000D01*
X14930000Y-7700000D02*
X14910000Y-7720000D01*
X14970000Y-8520000D02*
X14990000Y-8540000D01*
X14990000Y-8520000D02*
X14970000Y-8540000D01*
X14975000Y-6865000D02*
X14995000Y-6885000D01*
X14995000Y-6865000D02*
X14975000Y-6885000D01*
X14990000Y-8850000D02*
X15010000Y-8870000D01*
X15010000Y-8850000D02*
X14990000Y-8870000D01*
X15020000Y-6820000D02*
X15040000Y-6840000D01*
X15040000Y-6820000D02*
X15020000Y-6840000D01*
X15060000Y-8960000D02*
X15080000Y-8980000D01*
X15080000Y-8960000D02*
X15060000Y-8980000D01*
X15070000Y-8630000D02*
X15090000Y-8650000D01*
X15090000Y-8630000D02*
X15070000Y-8650000D01*
X15076306Y-9563694D02*
X15096306Y-9583694D01*
X15096306Y-9563694D02*
X15076306Y-9583694D01*
X15115000Y-8810000D02*
X15135000Y-8830000D01*
X15135000Y-8810000D02*
X15115000Y-8830000D01*
X15210000Y-8680000D02*
X15230000Y-8700000D01*
X15230000Y-8680000D02*
X15210000Y-8700000D01*
X15218806Y-9596194D02*
X15238806Y-9616194D01*
X15238806Y-9596194D02*
X15218806Y-9616194D01*
X15223694Y-9416306D02*
X15243694Y-9436306D01*
X15243694Y-9416306D02*
X15223694Y-9436306D01*
X15276306Y-9653694D02*
X15296306Y-9673694D01*
X15296306Y-9653694D02*
X15276306Y-9673694D01*
X15350000Y-9470000D02*
X15370000Y-9490000D01*
X15370000Y-9470000D02*
X15350000Y-9490000D01*
X15365000Y-9545000D02*
X15385000Y-9565000D01*
X15385000Y-9545000D02*
X15365000Y-9565000D01*
X15522500Y-9655000D02*
X15542500Y-9675000D01*
X15542500Y-9655000D02*
X15522500Y-9675000D01*
X15642500Y-9655000D02*
X15662500Y-9675000D01*
X15662500Y-9655000D02*
X15642500Y-9675000D01*
X15682500Y-8435000D02*
X15702500Y-8455000D01*
X15702500Y-8435000D02*
X15682500Y-8455000D01*
X15682500Y-8525000D02*
X15702500Y-8545000D01*
X15702500Y-8525000D02*
X15682500Y-8545000D01*
X15682500Y-8635000D02*
X15702500Y-8655000D01*
X15702500Y-8635000D02*
X15682500Y-8655000D01*
X15682500Y-8735000D02*
X15702500Y-8755000D01*
X15702500Y-8735000D02*
X15682500Y-8755000D01*
X15682500Y-8835000D02*
X15702500Y-8855000D01*
X15702500Y-8835000D02*
X15682500Y-8855000D01*
X15782500Y-9655000D02*
X15802500Y-9675000D01*
X15802500Y-9655000D02*
X15782500Y-9675000D01*
X15932500Y-8985000D02*
X15952500Y-9005000D01*
X15952500Y-8985000D02*
X15932500Y-9005000D01*
X15992500Y-8985000D02*
X16012500Y-9005000D01*
X16012500Y-8985000D02*
X15992500Y-9005000D01*
X16032500Y-8525000D02*
X16052500Y-8545000D01*
X16052500Y-8525000D02*
X16032500Y-8545000D01*
X16032500Y-8625000D02*
X16052500Y-8645000D01*
X16052500Y-8625000D02*
X16032500Y-8645000D01*
X16032500Y-8735000D02*
X16052500Y-8755000D01*
X16052500Y-8735000D02*
X16032500Y-8755000D01*
X16032500Y-8825000D02*
X16052500Y-8845000D01*
X16052500Y-8825000D02*
X16032500Y-8845000D01*
X17810000Y-9170000D02*
X17830000Y-9190000D01*
X17830000Y-9170000D02*
X17810000Y-9190000D01*
X17830000Y-9990000D02*
X17850000Y-10010000D01*
X17850000Y-9990000D02*
X17830000Y-10010000D01*
X17936750Y-8823250D02*
X17956750Y-8843250D01*
X17956750Y-8823250D02*
X17936750Y-8843250D01*
X17936750Y-8913250D02*
X17956750Y-8933250D01*
X17956750Y-8913250D02*
X17936750Y-8933250D01*
X17940000Y-9643250D02*
X17960000Y-9663250D01*
X17960000Y-9643250D02*
X17940000Y-9663250D01*
X17940000Y-9720000D02*
X17960000Y-9740000D01*
X17960000Y-9720000D02*
X17940000Y-9740000D01*
X18010000Y-9360000D02*
X18030000Y-9380000D01*
X18030000Y-9360000D02*
X18010000Y-9380000D01*
X18010000Y-9420000D02*
X18030000Y-9440000D01*
X18030000Y-9420000D02*
X18010000Y-9440000D01*
X18010000Y-9480000D02*
X18030000Y-9500000D01*
X18030000Y-9480000D02*
X18010000Y-9500000D01*
X18030000Y-8530000D02*
X18050000Y-8550000D01*
X18050000Y-8530000D02*
X18030000Y-8550000D01*
X18030000Y-8650000D02*
X18050000Y-8670000D01*
X18050000Y-8650000D02*
X18030000Y-8670000D01*
X18170000Y-10630000D02*
X18190000Y-10650000D01*
X18190000Y-10630000D02*
X18170000Y-10650000D01*
X18170000Y-10690000D02*
X18190000Y-10710000D01*
X18190000Y-10690000D02*
X18170000Y-10710000D01*
X18210000Y-9360000D02*
X18230000Y-9380000D01*
X18230000Y-9360000D02*
X18210000Y-9380000D01*
X18260000Y-8460000D02*
X18280000Y-8480000D01*
X18280000Y-8460000D02*
X18260000Y-8480000D01*
X18490000Y-7190000D02*
X18510000Y-7210000D01*
X18510000Y-7190000D02*
X18490000Y-7210000D01*
X18490000Y-8520000D02*
X18510000Y-8540000D01*
X18510000Y-8520000D02*
X18490000Y-8540000D01*
X18490000Y-8660000D02*
X18510000Y-8680000D01*
X18510000Y-8660000D02*
X18490000Y-8680000D01*
X18540000Y-7140000D02*
X18560000Y-7160000D01*
X18560000Y-7140000D02*
X18540000Y-7160000D01*
X18550000Y-8520000D02*
X18570000Y-8540000D01*
X18570000Y-8520000D02*
X18550000Y-8540000D01*
X18550000Y-8660000D02*
X18570000Y-8680000D01*
X18570000Y-8660000D02*
X18550000Y-8680000D01*
X18590000Y-7090000D02*
X18610000Y-7110000D01*
X18610000Y-7090000D02*
X18590000Y-7110000D01*
X18640000Y-7040000D02*
X18660000Y-7060000D01*
X18660000Y-7040000D02*
X18640000Y-7060000D01*
X18690000Y-6990000D02*
X18710000Y-7010000D01*
X18710000Y-6990000D02*
X18690000Y-7010000D01*
X18707500Y-7872500D02*
X18727500Y-7892500D01*
X18727500Y-7872500D02*
X18707500Y-7892500D01*
X18770000Y-7870000D02*
X18790000Y-7890000D01*
X18790000Y-7870000D02*
X18770000Y-7890000D01*
X19290000Y-8790000D02*
X19310000Y-8810000D01*
X19310000Y-8790000D02*
X19290000Y-8810000D01*
X19360000Y-8790000D02*
X19380000Y-8810000D01*
X19380000Y-8790000D02*
X19360000Y-8810000D01*
X19530000Y-8520000D02*
X19550000Y-8540000D01*
X19550000Y-8520000D02*
X19530000Y-8540000D01*
X19530000Y-8660000D02*
X19550000Y-8680000D01*
X19550000Y-8660000D02*
X19530000Y-8680000D01*
X19590000Y-8520000D02*
X19610000Y-8540000D01*
X19610000Y-8520000D02*
X19590000Y-8540000D01*
X19590000Y-8660000D02*
X19610000Y-8680000D01*
X19610000Y-8660000D02*
X19590000Y-8680000D01*
X19930000Y-8860000D02*
X19950000Y-8880000D01*
X19950000Y-8860000D02*
X19930000Y-8880000D01*
D13*
X13865000Y-6470000D02*
G75*
G03*
X13865000Y-6470000I-22500J0D01*
G01*
D11*
X13865000Y-6510000D02*
X13865000Y-6430000D01*
X13820000Y-6510000D02*
X13820000Y-6430000D01*
X13865000Y-6430000D02*
G75*
G03*
X13820000Y-6430000I-22500J0D01*
G01*
X13820000Y-6510000D02*
G75*
G03*
X13865000Y-6510000I22500J0D01*
G01*
D13*
X14580000Y-6470000D02*
G75*
G03*
X14580000Y-6470000I-22500J0D01*
G01*
D11*
X14535000Y-6430000D02*
X14535000Y-6510000D01*
X14580000Y-6430000D02*
X14580000Y-6510000D01*
X14535000Y-6510000D02*
G75*
G03*
X14580000Y-6510000I22500J0D01*
G01*
X14580000Y-6430000D02*
G75*
G03*
X14535000Y-6430000I-22500J0D01*
G01*
D14*
X16600000Y-7910000D02*
X16600000Y-7990000D01*
X16560000Y-7950000D02*
X16640000Y-7950000D01*
X16600000Y-8160000D02*
X16600000Y-8240000D01*
X16560000Y-8200000D02*
X16640000Y-8200000D01*
D10*
X13857856Y-7456356D02*
X13857856Y-7385644D01*
X13787144Y-7385644D01*
X13787144Y-7456356D01*
X13857856Y-7456356D01*
X13857856Y-7710356D02*
X13857856Y-7639644D01*
X13787144Y-7639644D01*
X13787144Y-7710356D01*
X13857856Y-7710356D01*
X14442856Y-9975356D02*
X14442856Y-9904644D01*
X14372144Y-9904644D01*
X14372144Y-9975356D01*
X14442856Y-9975356D01*
X14696856Y-9975356D02*
X14696856Y-9904644D01*
X14626144Y-9904644D01*
X14626144Y-9975356D01*
X14696856Y-9975356D01*
X14950856Y-9975356D02*
X14950856Y-9904644D01*
X14880144Y-9904644D01*
X14880144Y-9975356D01*
X14950856Y-9975356D01*
X17535356Y-8810356D02*
X17535356Y-8739644D01*
X17464644Y-8739644D01*
X17464644Y-8810356D01*
X17535356Y-8810356D01*
X17535356Y-9060356D02*
X17535356Y-8989644D01*
X17464644Y-8989644D01*
X17464644Y-9060356D01*
X17535356Y-9060356D01*
X17535356Y-9610356D02*
X17535356Y-9539644D01*
X17464644Y-9539644D01*
X17464644Y-9610356D01*
X17535356Y-9610356D01*
X17535356Y-9860356D02*
X17535356Y-9789644D01*
X17464644Y-9789644D01*
X17464644Y-9860356D01*
X17535356Y-9860356D01*
D15*
X15356000Y-7311500D02*
X15415500Y-7252000D01*
X15356000Y-7192500D01*
X15296500Y-7252000D01*
X15356000Y-7311500D01*
X15610000Y-7311500D02*
X15669500Y-7252000D01*
X15610000Y-7192500D01*
X15550500Y-7252000D01*
X15610000Y-7311500D01*
X15864000Y-7311500D02*
X15923500Y-7252000D01*
X15864000Y-7192500D01*
X15804500Y-7252000D01*
X15864000Y-7311500D01*
X16140000Y-7311500D02*
X16199500Y-7252000D01*
X16140000Y-7192500D01*
X16080500Y-7252000D01*
X16140000Y-7311500D01*
X16394000Y-7311500D02*
X16453500Y-7252000D01*
X16394000Y-7192500D01*
X16334500Y-7252000D01*
X16394000Y-7311500D01*
X16648000Y-7311500D02*
X16707500Y-7252000D01*
X16648000Y-7192500D01*
X16588500Y-7252000D01*
X16648000Y-7311500D01*
D11*
X12152619Y-11515476D02*
X12152619Y-11315476D01*
X12200238Y-11315476D01*
X12228809Y-11325000D01*
X12247857Y-11344048D01*
X12257381Y-11363095D01*
X12266905Y-11401190D01*
X12266905Y-11429762D01*
X12257381Y-11467857D01*
X12247857Y-11486905D01*
X12228809Y-11505952D01*
X12200238Y-11515476D01*
X12152619Y-11515476D01*
X12352619Y-11515476D02*
X12352619Y-11382143D01*
X12352619Y-11420238D02*
X12362143Y-11401190D01*
X12371667Y-11391667D01*
X12390714Y-11382143D01*
X12409762Y-11382143D01*
X12476428Y-11515476D02*
X12476428Y-11382143D01*
X12476428Y-11315476D02*
X12466905Y-11325000D01*
X12476428Y-11334524D01*
X12485952Y-11325000D01*
X12476428Y-11315476D01*
X12476428Y-11334524D01*
X12600238Y-11515476D02*
X12581190Y-11505952D01*
X12571667Y-11486905D01*
X12571667Y-11315476D01*
X12705000Y-11515476D02*
X12685952Y-11505952D01*
X12676428Y-11486905D01*
X12676428Y-11315476D01*
X12933571Y-11515476D02*
X12933571Y-11315476D01*
X13000238Y-11458333D01*
X13066905Y-11315476D01*
X13066905Y-11515476D01*
X13247857Y-11515476D02*
X13247857Y-11410714D01*
X13238333Y-11391667D01*
X13219286Y-11382143D01*
X13181190Y-11382143D01*
X13162143Y-11391667D01*
X13247857Y-11505952D02*
X13228809Y-11515476D01*
X13181190Y-11515476D01*
X13162143Y-11505952D01*
X13152619Y-11486905D01*
X13152619Y-11467857D01*
X13162143Y-11448809D01*
X13181190Y-11439286D01*
X13228809Y-11439286D01*
X13247857Y-11429762D01*
X13343095Y-11382143D02*
X13343095Y-11582143D01*
X13343095Y-11391667D02*
X13362143Y-11382143D01*
X13400238Y-11382143D01*
X13419286Y-11391667D01*
X13428809Y-11401190D01*
X13438333Y-11420238D01*
X13438333Y-11477381D01*
X13428809Y-11496428D01*
X13419286Y-11505952D01*
X13400238Y-11515476D01*
X13362143Y-11515476D01*
X13343095Y-11505952D01*
X13524048Y-11496428D02*
X13533571Y-11505952D01*
X13524048Y-11515476D01*
X13514524Y-11505952D01*
X13524048Y-11496428D01*
X13524048Y-11515476D01*
X13524048Y-11391667D02*
X13533571Y-11401190D01*
X13524048Y-11410714D01*
X13514524Y-11401190D01*
X13524048Y-11391667D01*
X13524048Y-11410714D01*
D12*
X11875000Y-11835000D02*
X11895000Y-11855000D01*
X11895000Y-11835000D02*
X11875000Y-11855000D01*
D11*
X12190714Y-11735476D02*
X12209762Y-11735476D01*
X12228809Y-11745000D01*
X12238333Y-11754524D01*
X12247857Y-11773571D01*
X12257381Y-11811667D01*
X12257381Y-11859286D01*
X12247857Y-11897381D01*
X12238333Y-11916428D01*
X12228809Y-11925952D01*
X12209762Y-11935476D01*
X12190714Y-11935476D01*
X12171667Y-11925952D01*
X12162143Y-11916428D01*
X12152619Y-11897381D01*
X12143095Y-11859286D01*
X12143095Y-11811667D01*
X12152619Y-11773571D01*
X12162143Y-11754524D01*
X12171667Y-11745000D01*
X12190714Y-11735476D01*
X12343095Y-11916428D02*
X12352619Y-11925952D01*
X12343095Y-11935476D01*
X12333571Y-11925952D01*
X12343095Y-11916428D01*
X12343095Y-11935476D01*
X12428809Y-11754524D02*
X12438333Y-11745000D01*
X12457381Y-11735476D01*
X12505000Y-11735476D01*
X12524048Y-11745000D01*
X12533571Y-11754524D01*
X12543095Y-11773571D01*
X12543095Y-11792619D01*
X12533571Y-11821190D01*
X12419286Y-11935476D01*
X12543095Y-11935476D01*
X12666905Y-11735476D02*
X12685952Y-11735476D01*
X12705000Y-11745000D01*
X12714524Y-11754524D01*
X12724048Y-11773571D01*
X12733571Y-11811667D01*
X12733571Y-11859286D01*
X12724048Y-11897381D01*
X12714524Y-11916428D01*
X12705000Y-11925952D01*
X12685952Y-11935476D01*
X12666905Y-11935476D01*
X12647857Y-11925952D01*
X12638333Y-11916428D01*
X12628809Y-11897381D01*
X12619286Y-11859286D01*
X12619286Y-11811667D01*
X12628809Y-11773571D01*
X12638333Y-11754524D01*
X12647857Y-11745000D01*
X12666905Y-11735476D01*
X12857381Y-11735476D02*
X12876428Y-11735476D01*
X12895476Y-11745000D01*
X12905000Y-11754524D01*
X12914524Y-11773571D01*
X12924048Y-11811667D01*
X12924048Y-11859286D01*
X12914524Y-11897381D01*
X12905000Y-11916428D01*
X12895476Y-11925952D01*
X12876428Y-11935476D01*
X12857381Y-11935476D01*
X12838333Y-11925952D01*
X12828809Y-11916428D01*
X12819286Y-11897381D01*
X12809762Y-11859286D01*
X12809762Y-11811667D01*
X12819286Y-11773571D01*
X12828809Y-11754524D01*
X12838333Y-11745000D01*
X12857381Y-11735476D01*
X13009762Y-11935476D02*
X13009762Y-11802143D01*
X13009762Y-11821190D02*
X13019286Y-11811667D01*
X13038333Y-11802143D01*
X13066905Y-11802143D01*
X13085952Y-11811667D01*
X13095476Y-11830714D01*
X13095476Y-11935476D01*
X13095476Y-11830714D02*
X13105000Y-11811667D01*
X13124048Y-11802143D01*
X13152619Y-11802143D01*
X13171667Y-11811667D01*
X13181190Y-11830714D01*
X13181190Y-11935476D01*
X13276428Y-11935476D02*
X13276428Y-11802143D01*
X13276428Y-11821190D02*
X13285952Y-11811667D01*
X13305000Y-11802143D01*
X13333571Y-11802143D01*
X13352619Y-11811667D01*
X13362143Y-11830714D01*
X13362143Y-11935476D01*
X13362143Y-11830714D02*
X13371667Y-11811667D01*
X13390714Y-11802143D01*
X13419286Y-11802143D01*
X13438333Y-11811667D01*
X13447857Y-11830714D01*
X13447857Y-11935476D01*
X13838333Y-11725952D02*
X13666905Y-11983095D01*
X14095476Y-11735476D02*
X14114524Y-11735476D01*
X14133571Y-11745000D01*
X14143095Y-11754524D01*
X14152619Y-11773571D01*
X14162143Y-11811667D01*
X14162143Y-11859286D01*
X14152619Y-11897381D01*
X14143095Y-11916428D01*
X14133571Y-11925952D01*
X14114524Y-11935476D01*
X14095476Y-11935476D01*
X14076428Y-11925952D01*
X14066905Y-11916428D01*
X14057381Y-11897381D01*
X14047857Y-11859286D01*
X14047857Y-11811667D01*
X14057381Y-11773571D01*
X14066905Y-11754524D01*
X14076428Y-11745000D01*
X14095476Y-11735476D01*
X14247857Y-11916428D02*
X14257381Y-11925952D01*
X14247857Y-11935476D01*
X14238333Y-11925952D01*
X14247857Y-11916428D01*
X14247857Y-11935476D01*
X14381190Y-11735476D02*
X14400238Y-11735476D01*
X14419286Y-11745000D01*
X14428809Y-11754524D01*
X14438333Y-11773571D01*
X14447857Y-11811667D01*
X14447857Y-11859286D01*
X14438333Y-11897381D01*
X14428809Y-11916428D01*
X14419286Y-11925952D01*
X14400238Y-11935476D01*
X14381190Y-11935476D01*
X14362143Y-11925952D01*
X14352619Y-11916428D01*
X14343095Y-11897381D01*
X14333571Y-11859286D01*
X14333571Y-11811667D01*
X14343095Y-11773571D01*
X14352619Y-11754524D01*
X14362143Y-11745000D01*
X14381190Y-11735476D01*
X14571667Y-11735476D02*
X14590714Y-11735476D01*
X14609762Y-11745000D01*
X14619286Y-11754524D01*
X14628809Y-11773571D01*
X14638333Y-11811667D01*
X14638333Y-11859286D01*
X14628809Y-11897381D01*
X14619286Y-11916428D01*
X14609762Y-11925952D01*
X14590714Y-11935476D01*
X14571667Y-11935476D01*
X14552619Y-11925952D01*
X14543095Y-11916428D01*
X14533571Y-11897381D01*
X14524048Y-11859286D01*
X14524048Y-11811667D01*
X14533571Y-11773571D01*
X14543095Y-11754524D01*
X14552619Y-11745000D01*
X14571667Y-11735476D01*
X14705000Y-11735476D02*
X14838333Y-11735476D01*
X14752619Y-11935476D01*
X14924048Y-11935476D02*
X14962143Y-11935476D01*
X14981190Y-11925952D01*
X14990714Y-11916428D01*
X15009762Y-11887857D01*
X15019286Y-11849762D01*
X15019286Y-11773571D01*
X15009762Y-11754524D01*
X15000238Y-11745000D01*
X14981190Y-11735476D01*
X14943095Y-11735476D01*
X14924048Y-11745000D01*
X14914524Y-11754524D01*
X14905000Y-11773571D01*
X14905000Y-11821190D01*
X14914524Y-11840238D01*
X14924048Y-11849762D01*
X14943095Y-11859286D01*
X14981190Y-11859286D01*
X15000238Y-11849762D01*
X15009762Y-11840238D01*
X15019286Y-11821190D01*
X15095476Y-11735476D02*
X15095476Y-11773571D01*
X15171667Y-11735476D02*
X15171667Y-11773571D01*
X15466905Y-12011667D02*
X15457381Y-12002143D01*
X15438333Y-11973571D01*
X15428809Y-11954524D01*
X15419286Y-11925952D01*
X15409762Y-11878333D01*
X15409762Y-11840238D01*
X15419286Y-11792619D01*
X15428809Y-11764048D01*
X15438333Y-11745000D01*
X15457381Y-11716428D01*
X15466905Y-11706905D01*
X15647857Y-11935476D02*
X15533571Y-11935476D01*
X15590714Y-11935476D02*
X15590714Y-11735476D01*
X15571667Y-11764048D01*
X15552619Y-11783095D01*
X15533571Y-11792619D01*
X15838333Y-11935476D02*
X15724048Y-11935476D01*
X15781190Y-11935476D02*
X15781190Y-11735476D01*
X15762143Y-11764048D01*
X15743095Y-11783095D01*
X15724048Y-11792619D01*
X16009762Y-11735476D02*
X15971667Y-11735476D01*
X15952619Y-11745000D01*
X15943095Y-11754524D01*
X15924048Y-11783095D01*
X15914524Y-11821190D01*
X15914524Y-11897381D01*
X15924048Y-11916428D01*
X15933571Y-11925952D01*
X15952619Y-11935476D01*
X15990714Y-11935476D01*
X16009762Y-11925952D01*
X16019286Y-11916428D01*
X16028809Y-11897381D01*
X16028809Y-11849762D01*
X16019286Y-11830714D01*
X16009762Y-11821190D01*
X15990714Y-11811667D01*
X15952619Y-11811667D01*
X15933571Y-11821190D01*
X15924048Y-11830714D01*
X15914524Y-11849762D01*
X16266905Y-11935476D02*
X16266905Y-11735476D01*
X16352619Y-11935476D02*
X16352619Y-11830714D01*
X16343095Y-11811667D01*
X16324048Y-11802143D01*
X16295476Y-11802143D01*
X16276428Y-11811667D01*
X16266905Y-11821190D01*
X16476428Y-11935476D02*
X16457381Y-11925952D01*
X16447857Y-11916428D01*
X16438333Y-11897381D01*
X16438333Y-11840238D01*
X16447857Y-11821190D01*
X16457381Y-11811667D01*
X16476428Y-11802143D01*
X16505000Y-11802143D01*
X16524048Y-11811667D01*
X16533571Y-11821190D01*
X16543095Y-11840238D01*
X16543095Y-11897381D01*
X16533571Y-11916428D01*
X16524048Y-11925952D01*
X16505000Y-11935476D01*
X16476428Y-11935476D01*
X16657381Y-11935476D02*
X16638333Y-11925952D01*
X16628809Y-11906905D01*
X16628809Y-11735476D01*
X16809762Y-11925952D02*
X16790714Y-11935476D01*
X16752619Y-11935476D01*
X16733571Y-11925952D01*
X16724048Y-11906905D01*
X16724048Y-11830714D01*
X16733571Y-11811667D01*
X16752619Y-11802143D01*
X16790714Y-11802143D01*
X16809762Y-11811667D01*
X16819286Y-11830714D01*
X16819286Y-11849762D01*
X16724048Y-11868809D01*
X16895476Y-11925952D02*
X16914524Y-11935476D01*
X16952619Y-11935476D01*
X16971667Y-11925952D01*
X16981190Y-11906905D01*
X16981190Y-11897381D01*
X16971667Y-11878333D01*
X16952619Y-11868809D01*
X16924048Y-11868809D01*
X16905000Y-11859286D01*
X16895476Y-11840238D01*
X16895476Y-11830714D01*
X16905000Y-11811667D01*
X16924048Y-11802143D01*
X16952619Y-11802143D01*
X16971667Y-11811667D01*
X17047857Y-12011667D02*
X17057381Y-12002143D01*
X17076429Y-11973571D01*
X17085952Y-11954524D01*
X17095476Y-11925952D01*
X17105000Y-11878333D01*
X17105000Y-11840238D01*
X17095476Y-11792619D01*
X17085952Y-11764048D01*
X17076429Y-11745000D01*
X17057381Y-11716428D01*
X17047857Y-11706905D01*
D13*
X11895000Y-12109000D02*
G75*
G03*
X11895000Y-12109000I-22500J0D01*
G01*
D11*
X12190714Y-11999476D02*
X12209762Y-11999476D01*
X12228809Y-12009000D01*
X12238333Y-12018524D01*
X12247857Y-12037571D01*
X12257381Y-12075667D01*
X12257381Y-12123286D01*
X12247857Y-12161381D01*
X12238333Y-12180428D01*
X12228809Y-12189952D01*
X12209762Y-12199476D01*
X12190714Y-12199476D01*
X12171667Y-12189952D01*
X12162143Y-12180428D01*
X12152619Y-12161381D01*
X12143095Y-12123286D01*
X12143095Y-12075667D01*
X12152619Y-12037571D01*
X12162143Y-12018524D01*
X12171667Y-12009000D01*
X12190714Y-11999476D01*
X12343095Y-12180428D02*
X12352619Y-12189952D01*
X12343095Y-12199476D01*
X12333571Y-12189952D01*
X12343095Y-12180428D01*
X12343095Y-12199476D01*
X12524048Y-12066143D02*
X12524048Y-12199476D01*
X12476428Y-11989952D02*
X12428809Y-12132809D01*
X12552619Y-12132809D01*
X12724048Y-11999476D02*
X12628809Y-11999476D01*
X12619286Y-12094714D01*
X12628809Y-12085190D01*
X12647857Y-12075667D01*
X12695476Y-12075667D01*
X12714524Y-12085190D01*
X12724048Y-12094714D01*
X12733571Y-12113762D01*
X12733571Y-12161381D01*
X12724048Y-12180428D01*
X12714524Y-12189952D01*
X12695476Y-12199476D01*
X12647857Y-12199476D01*
X12628809Y-12189952D01*
X12619286Y-12180428D01*
X12857381Y-11999476D02*
X12876428Y-11999476D01*
X12895476Y-12009000D01*
X12905000Y-12018524D01*
X12914524Y-12037571D01*
X12924048Y-12075667D01*
X12924048Y-12123286D01*
X12914524Y-12161381D01*
X12905000Y-12180428D01*
X12895476Y-12189952D01*
X12876428Y-12199476D01*
X12857381Y-12199476D01*
X12838333Y-12189952D01*
X12828809Y-12180428D01*
X12819286Y-12161381D01*
X12809762Y-12123286D01*
X12809762Y-12075667D01*
X12819286Y-12037571D01*
X12828809Y-12018524D01*
X12838333Y-12009000D01*
X12857381Y-11999476D01*
X13009762Y-12199476D02*
X13009762Y-12066143D01*
X13009762Y-12085190D02*
X13019286Y-12075667D01*
X13038333Y-12066143D01*
X13066905Y-12066143D01*
X13085952Y-12075667D01*
X13095476Y-12094714D01*
X13095476Y-12199476D01*
X13095476Y-12094714D02*
X13105000Y-12075667D01*
X13124048Y-12066143D01*
X13152619Y-12066143D01*
X13171667Y-12075667D01*
X13181190Y-12094714D01*
X13181190Y-12199476D01*
X13276428Y-12199476D02*
X13276428Y-12066143D01*
X13276428Y-12085190D02*
X13285952Y-12075667D01*
X13305000Y-12066143D01*
X13333571Y-12066143D01*
X13352619Y-12075667D01*
X13362143Y-12094714D01*
X13362143Y-12199476D01*
X13362143Y-12094714D02*
X13371667Y-12075667D01*
X13390714Y-12066143D01*
X13419286Y-12066143D01*
X13438333Y-12075667D01*
X13447857Y-12094714D01*
X13447857Y-12199476D01*
X13838333Y-11989952D02*
X13666905Y-12247095D01*
X14095476Y-11999476D02*
X14114524Y-11999476D01*
X14133571Y-12009000D01*
X14143095Y-12018524D01*
X14152619Y-12037571D01*
X14162143Y-12075667D01*
X14162143Y-12123286D01*
X14152619Y-12161381D01*
X14143095Y-12180428D01*
X14133571Y-12189952D01*
X14114524Y-12199476D01*
X14095476Y-12199476D01*
X14076428Y-12189952D01*
X14066905Y-12180428D01*
X14057381Y-12161381D01*
X14047857Y-12123286D01*
X14047857Y-12075667D01*
X14057381Y-12037571D01*
X14066905Y-12018524D01*
X14076428Y-12009000D01*
X14095476Y-11999476D01*
X14247857Y-12180428D02*
X14257381Y-12189952D01*
X14247857Y-12199476D01*
X14238333Y-12189952D01*
X14247857Y-12180428D01*
X14247857Y-12199476D01*
X14381190Y-11999476D02*
X14400238Y-11999476D01*
X14419286Y-12009000D01*
X14428809Y-12018524D01*
X14438333Y-12037571D01*
X14447857Y-12075667D01*
X14447857Y-12123286D01*
X14438333Y-12161381D01*
X14428809Y-12180428D01*
X14419286Y-12189952D01*
X14400238Y-12199476D01*
X14381190Y-12199476D01*
X14362143Y-12189952D01*
X14352619Y-12180428D01*
X14343095Y-12161381D01*
X14333571Y-12123286D01*
X14333571Y-12075667D01*
X14343095Y-12037571D01*
X14352619Y-12018524D01*
X14362143Y-12009000D01*
X14381190Y-11999476D01*
X14638333Y-12199476D02*
X14524048Y-12199476D01*
X14581190Y-12199476D02*
X14581190Y-11999476D01*
X14562143Y-12028048D01*
X14543095Y-12047095D01*
X14524048Y-12056619D01*
X14705000Y-11999476D02*
X14838333Y-11999476D01*
X14752619Y-12199476D01*
X14895476Y-11999476D02*
X15028809Y-11999476D01*
X14943095Y-12199476D01*
X15095476Y-11999476D02*
X15095476Y-12037571D01*
X15171667Y-11999476D02*
X15171667Y-12037571D01*
X15466905Y-12275667D02*
X15457381Y-12266143D01*
X15438333Y-12237571D01*
X15428809Y-12218524D01*
X15419286Y-12189952D01*
X15409762Y-12142333D01*
X15409762Y-12104238D01*
X15419286Y-12056619D01*
X15428809Y-12028048D01*
X15438333Y-12009000D01*
X15457381Y-11980428D01*
X15466905Y-11970905D01*
X15581190Y-11999476D02*
X15600238Y-11999476D01*
X15619286Y-12009000D01*
X15628809Y-12018524D01*
X15638333Y-12037571D01*
X15647857Y-12075667D01*
X15647857Y-12123286D01*
X15638333Y-12161381D01*
X15628809Y-12180428D01*
X15619286Y-12189952D01*
X15600238Y-12199476D01*
X15581190Y-12199476D01*
X15562143Y-12189952D01*
X15552619Y-12180428D01*
X15543095Y-12161381D01*
X15533571Y-12123286D01*
X15533571Y-12075667D01*
X15543095Y-12037571D01*
X15552619Y-12018524D01*
X15562143Y-12009000D01*
X15581190Y-11999476D01*
X15885952Y-12199476D02*
X15885952Y-11999476D01*
X15971667Y-12199476D02*
X15971667Y-12094714D01*
X15962143Y-12075667D01*
X15943095Y-12066143D01*
X15914524Y-12066143D01*
X15895476Y-12075667D01*
X15885952Y-12085190D01*
X16095476Y-12199476D02*
X16076428Y-12189952D01*
X16066905Y-12180428D01*
X16057381Y-12161381D01*
X16057381Y-12104238D01*
X16066905Y-12085190D01*
X16076428Y-12075667D01*
X16095476Y-12066143D01*
X16124048Y-12066143D01*
X16143095Y-12075667D01*
X16152619Y-12085190D01*
X16162143Y-12104238D01*
X16162143Y-12161381D01*
X16152619Y-12180428D01*
X16143095Y-12189952D01*
X16124048Y-12199476D01*
X16095476Y-12199476D01*
X16276428Y-12199476D02*
X16257381Y-12189952D01*
X16247857Y-12170905D01*
X16247857Y-11999476D01*
X16428809Y-12189952D02*
X16409762Y-12199476D01*
X16371667Y-12199476D01*
X16352619Y-12189952D01*
X16343095Y-12170905D01*
X16343095Y-12094714D01*
X16352619Y-12075667D01*
X16371667Y-12066143D01*
X16409762Y-12066143D01*
X16428809Y-12075667D01*
X16438333Y-12094714D01*
X16438333Y-12113762D01*
X16343095Y-12132809D01*
X16514524Y-12189952D02*
X16533571Y-12199476D01*
X16571667Y-12199476D01*
X16590714Y-12189952D01*
X16600238Y-12170905D01*
X16600238Y-12161381D01*
X16590714Y-12142333D01*
X16571667Y-12132809D01*
X16543095Y-12132809D01*
X16524048Y-12123286D01*
X16514524Y-12104238D01*
X16514524Y-12094714D01*
X16524048Y-12075667D01*
X16543095Y-12066143D01*
X16571667Y-12066143D01*
X16590714Y-12075667D01*
X16838333Y-12123286D02*
X16990714Y-12123286D01*
X16914524Y-12199476D02*
X16914524Y-12047095D01*
X17228810Y-12018524D02*
X17238333Y-12009000D01*
X17257381Y-11999476D01*
X17305000Y-11999476D01*
X17324048Y-12009000D01*
X17333571Y-12018524D01*
X17343095Y-12037571D01*
X17343095Y-12056619D01*
X17333571Y-12085190D01*
X17219286Y-12199476D01*
X17343095Y-12199476D01*
X17571667Y-12189952D02*
X17590714Y-12199476D01*
X17628810Y-12199476D01*
X17647857Y-12189952D01*
X17657381Y-12170905D01*
X17657381Y-12161381D01*
X17647857Y-12142333D01*
X17628810Y-12132809D01*
X17600238Y-12132809D01*
X17581190Y-12123286D01*
X17571667Y-12104238D01*
X17571667Y-12094714D01*
X17581190Y-12075667D01*
X17600238Y-12066143D01*
X17628810Y-12066143D01*
X17647857Y-12075667D01*
X17771667Y-12199476D02*
X17752619Y-12189952D01*
X17743095Y-12170905D01*
X17743095Y-11999476D01*
X17876429Y-12199476D02*
X17857381Y-12189952D01*
X17847857Y-12180428D01*
X17838333Y-12161381D01*
X17838333Y-12104238D01*
X17847857Y-12085190D01*
X17857381Y-12075667D01*
X17876429Y-12066143D01*
X17905000Y-12066143D01*
X17924048Y-12075667D01*
X17933571Y-12085190D01*
X17943095Y-12104238D01*
X17943095Y-12161381D01*
X17933571Y-12180428D01*
X17924048Y-12189952D01*
X17905000Y-12199476D01*
X17876429Y-12199476D01*
X18000238Y-12066143D02*
X18076429Y-12066143D01*
X18028810Y-11999476D02*
X18028810Y-12170905D01*
X18038333Y-12189952D01*
X18057381Y-12199476D01*
X18076429Y-12199476D01*
X18133571Y-12189952D02*
X18152619Y-12199476D01*
X18190714Y-12199476D01*
X18209762Y-12189952D01*
X18219286Y-12170905D01*
X18219286Y-12161381D01*
X18209762Y-12142333D01*
X18190714Y-12132809D01*
X18162143Y-12132809D01*
X18143095Y-12123286D01*
X18133571Y-12104238D01*
X18133571Y-12094714D01*
X18143095Y-12075667D01*
X18162143Y-12066143D01*
X18190714Y-12066143D01*
X18209762Y-12075667D01*
X18285952Y-12275667D02*
X18295476Y-12266143D01*
X18314524Y-12237571D01*
X18324048Y-12218524D01*
X18333571Y-12189952D01*
X18343095Y-12142333D01*
X18343095Y-12104238D01*
X18333571Y-12056619D01*
X18324048Y-12028048D01*
X18314524Y-12009000D01*
X18295476Y-11980428D01*
X18285952Y-11970905D01*
D14*
X11855000Y-12333000D02*
X11855000Y-12413000D01*
X11815000Y-12373000D02*
X11895000Y-12373000D01*
D11*
X12190714Y-12263476D02*
X12209762Y-12263476D01*
X12228809Y-12273000D01*
X12238333Y-12282524D01*
X12247857Y-12301571D01*
X12257381Y-12339667D01*
X12257381Y-12387286D01*
X12247857Y-12425381D01*
X12238333Y-12444428D01*
X12228809Y-12453952D01*
X12209762Y-12463476D01*
X12190714Y-12463476D01*
X12171667Y-12453952D01*
X12162143Y-12444428D01*
X12152619Y-12425381D01*
X12143095Y-12387286D01*
X12143095Y-12339667D01*
X12152619Y-12301571D01*
X12162143Y-12282524D01*
X12171667Y-12273000D01*
X12190714Y-12263476D01*
X12343095Y-12444428D02*
X12352619Y-12453952D01*
X12343095Y-12463476D01*
X12333571Y-12453952D01*
X12343095Y-12444428D01*
X12343095Y-12463476D01*
X12466905Y-12349190D02*
X12447857Y-12339667D01*
X12438333Y-12330143D01*
X12428809Y-12311095D01*
X12428809Y-12301571D01*
X12438333Y-12282524D01*
X12447857Y-12273000D01*
X12466905Y-12263476D01*
X12505000Y-12263476D01*
X12524048Y-12273000D01*
X12533571Y-12282524D01*
X12543095Y-12301571D01*
X12543095Y-12311095D01*
X12533571Y-12330143D01*
X12524048Y-12339667D01*
X12505000Y-12349190D01*
X12466905Y-12349190D01*
X12447857Y-12358714D01*
X12438333Y-12368238D01*
X12428809Y-12387286D01*
X12428809Y-12425381D01*
X12438333Y-12444428D01*
X12447857Y-12453952D01*
X12466905Y-12463476D01*
X12505000Y-12463476D01*
X12524048Y-12453952D01*
X12533571Y-12444428D01*
X12543095Y-12425381D01*
X12543095Y-12387286D01*
X12533571Y-12368238D01*
X12524048Y-12358714D01*
X12505000Y-12349190D01*
X12666905Y-12263476D02*
X12685952Y-12263476D01*
X12705000Y-12273000D01*
X12714524Y-12282524D01*
X12724048Y-12301571D01*
X12733571Y-12339667D01*
X12733571Y-12387286D01*
X12724048Y-12425381D01*
X12714524Y-12444428D01*
X12705000Y-12453952D01*
X12685952Y-12463476D01*
X12666905Y-12463476D01*
X12647857Y-12453952D01*
X12638333Y-12444428D01*
X12628809Y-12425381D01*
X12619286Y-12387286D01*
X12619286Y-12339667D01*
X12628809Y-12301571D01*
X12638333Y-12282524D01*
X12647857Y-12273000D01*
X12666905Y-12263476D01*
X12857381Y-12263476D02*
X12876428Y-12263476D01*
X12895476Y-12273000D01*
X12905000Y-12282524D01*
X12914524Y-12301571D01*
X12924048Y-12339667D01*
X12924048Y-12387286D01*
X12914524Y-12425381D01*
X12905000Y-12444428D01*
X12895476Y-12453952D01*
X12876428Y-12463476D01*
X12857381Y-12463476D01*
X12838333Y-12453952D01*
X12828809Y-12444428D01*
X12819286Y-12425381D01*
X12809762Y-12387286D01*
X12809762Y-12339667D01*
X12819286Y-12301571D01*
X12828809Y-12282524D01*
X12838333Y-12273000D01*
X12857381Y-12263476D01*
X13009762Y-12463476D02*
X13009762Y-12330143D01*
X13009762Y-12349190D02*
X13019286Y-12339667D01*
X13038333Y-12330143D01*
X13066905Y-12330143D01*
X13085952Y-12339667D01*
X13095476Y-12358714D01*
X13095476Y-12463476D01*
X13095476Y-12358714D02*
X13105000Y-12339667D01*
X13124048Y-12330143D01*
X13152619Y-12330143D01*
X13171667Y-12339667D01*
X13181190Y-12358714D01*
X13181190Y-12463476D01*
X13276428Y-12463476D02*
X13276428Y-12330143D01*
X13276428Y-12349190D02*
X13285952Y-12339667D01*
X13305000Y-12330143D01*
X13333571Y-12330143D01*
X13352619Y-12339667D01*
X13362143Y-12358714D01*
X13362143Y-12463476D01*
X13362143Y-12358714D02*
X13371667Y-12339667D01*
X13390714Y-12330143D01*
X13419286Y-12330143D01*
X13438333Y-12339667D01*
X13447857Y-12358714D01*
X13447857Y-12463476D01*
X13838333Y-12253952D02*
X13666905Y-12511095D01*
X14095476Y-12263476D02*
X14114524Y-12263476D01*
X14133571Y-12273000D01*
X14143095Y-12282524D01*
X14152619Y-12301571D01*
X14162143Y-12339667D01*
X14162143Y-12387286D01*
X14152619Y-12425381D01*
X14143095Y-12444428D01*
X14133571Y-12453952D01*
X14114524Y-12463476D01*
X14095476Y-12463476D01*
X14076428Y-12453952D01*
X14066905Y-12444428D01*
X14057381Y-12425381D01*
X14047857Y-12387286D01*
X14047857Y-12339667D01*
X14057381Y-12301571D01*
X14066905Y-12282524D01*
X14076428Y-12273000D01*
X14095476Y-12263476D01*
X14247857Y-12444428D02*
X14257381Y-12453952D01*
X14247857Y-12463476D01*
X14238333Y-12453952D01*
X14247857Y-12444428D01*
X14247857Y-12463476D01*
X14381190Y-12263476D02*
X14400238Y-12263476D01*
X14419286Y-12273000D01*
X14428809Y-12282524D01*
X14438333Y-12301571D01*
X14447857Y-12339667D01*
X14447857Y-12387286D01*
X14438333Y-12425381D01*
X14428809Y-12444428D01*
X14419286Y-12453952D01*
X14400238Y-12463476D01*
X14381190Y-12463476D01*
X14362143Y-12453952D01*
X14352619Y-12444428D01*
X14343095Y-12425381D01*
X14333571Y-12387286D01*
X14333571Y-12339667D01*
X14343095Y-12301571D01*
X14352619Y-12282524D01*
X14362143Y-12273000D01*
X14381190Y-12263476D01*
X14514524Y-12263476D02*
X14638333Y-12263476D01*
X14571667Y-12339667D01*
X14600238Y-12339667D01*
X14619286Y-12349190D01*
X14628809Y-12358714D01*
X14638333Y-12377762D01*
X14638333Y-12425381D01*
X14628809Y-12444428D01*
X14619286Y-12453952D01*
X14600238Y-12463476D01*
X14543095Y-12463476D01*
X14524048Y-12453952D01*
X14514524Y-12444428D01*
X14828809Y-12463476D02*
X14714524Y-12463476D01*
X14771667Y-12463476D02*
X14771667Y-12263476D01*
X14752619Y-12292048D01*
X14733571Y-12311095D01*
X14714524Y-12320619D01*
X15009762Y-12263476D02*
X14914524Y-12263476D01*
X14905000Y-12358714D01*
X14914524Y-12349190D01*
X14933571Y-12339667D01*
X14981190Y-12339667D01*
X15000238Y-12349190D01*
X15009762Y-12358714D01*
X15019286Y-12377762D01*
X15019286Y-12425381D01*
X15009762Y-12444428D01*
X15000238Y-12453952D01*
X14981190Y-12463476D01*
X14933571Y-12463476D01*
X14914524Y-12453952D01*
X14905000Y-12444428D01*
X15095476Y-12263476D02*
X15095476Y-12301571D01*
X15171667Y-12263476D02*
X15171667Y-12301571D01*
X15466905Y-12539667D02*
X15457381Y-12530143D01*
X15438333Y-12501571D01*
X15428809Y-12482524D01*
X15419286Y-12453952D01*
X15409762Y-12406333D01*
X15409762Y-12368238D01*
X15419286Y-12320619D01*
X15428809Y-12292048D01*
X15438333Y-12273000D01*
X15457381Y-12244428D01*
X15466905Y-12234905D01*
X15533571Y-12282524D02*
X15543095Y-12273000D01*
X15562143Y-12263476D01*
X15609762Y-12263476D01*
X15628809Y-12273000D01*
X15638333Y-12282524D01*
X15647857Y-12301571D01*
X15647857Y-12320619D01*
X15638333Y-12349190D01*
X15524048Y-12463476D01*
X15647857Y-12463476D01*
X15885952Y-12463476D02*
X15885952Y-12263476D01*
X15971667Y-12463476D02*
X15971667Y-12358714D01*
X15962143Y-12339667D01*
X15943095Y-12330143D01*
X15914524Y-12330143D01*
X15895476Y-12339667D01*
X15885952Y-12349190D01*
X16095476Y-12463476D02*
X16076428Y-12453952D01*
X16066905Y-12444428D01*
X16057381Y-12425381D01*
X16057381Y-12368238D01*
X16066905Y-12349190D01*
X16076428Y-12339667D01*
X16095476Y-12330143D01*
X16124048Y-12330143D01*
X16143095Y-12339667D01*
X16152619Y-12349190D01*
X16162143Y-12368238D01*
X16162143Y-12425381D01*
X16152619Y-12444428D01*
X16143095Y-12453952D01*
X16124048Y-12463476D01*
X16095476Y-12463476D01*
X16276428Y-12463476D02*
X16257381Y-12453952D01*
X16247857Y-12434905D01*
X16247857Y-12263476D01*
X16428809Y-12453952D02*
X16409762Y-12463476D01*
X16371667Y-12463476D01*
X16352619Y-12453952D01*
X16343095Y-12434905D01*
X16343095Y-12358714D01*
X16352619Y-12339667D01*
X16371667Y-12330143D01*
X16409762Y-12330143D01*
X16428809Y-12339667D01*
X16438333Y-12358714D01*
X16438333Y-12377762D01*
X16343095Y-12396809D01*
X16514524Y-12453952D02*
X16533571Y-12463476D01*
X16571667Y-12463476D01*
X16590714Y-12453952D01*
X16600238Y-12434905D01*
X16600238Y-12425381D01*
X16590714Y-12406333D01*
X16571667Y-12396809D01*
X16543095Y-12396809D01*
X16524048Y-12387286D01*
X16514524Y-12368238D01*
X16514524Y-12358714D01*
X16524048Y-12339667D01*
X16543095Y-12330143D01*
X16571667Y-12330143D01*
X16590714Y-12339667D01*
X16666905Y-12539667D02*
X16676428Y-12530143D01*
X16695476Y-12501571D01*
X16705000Y-12482524D01*
X16714524Y-12453952D01*
X16724048Y-12406333D01*
X16724048Y-12368238D01*
X16714524Y-12320619D01*
X16705000Y-12292048D01*
X16695476Y-12273000D01*
X16676428Y-12244428D01*
X16666905Y-12234905D01*
D10*
X11880356Y-12672356D02*
X11880356Y-12601644D01*
X11809644Y-12601644D01*
X11809644Y-12672356D01*
X11880356Y-12672356D01*
D11*
X12257381Y-12727476D02*
X12143095Y-12727476D01*
X12200238Y-12727476D02*
X12200238Y-12527476D01*
X12181190Y-12556048D01*
X12162143Y-12575095D01*
X12143095Y-12584619D01*
X12343095Y-12708428D02*
X12352619Y-12717952D01*
X12343095Y-12727476D01*
X12333571Y-12717952D01*
X12343095Y-12708428D01*
X12343095Y-12727476D01*
X12476428Y-12527476D02*
X12495476Y-12527476D01*
X12514524Y-12537000D01*
X12524048Y-12546524D01*
X12533571Y-12565571D01*
X12543095Y-12603667D01*
X12543095Y-12651286D01*
X12533571Y-12689381D01*
X12524048Y-12708428D01*
X12514524Y-12717952D01*
X12495476Y-12727476D01*
X12476428Y-12727476D01*
X12457381Y-12717952D01*
X12447857Y-12708428D01*
X12438333Y-12689381D01*
X12428809Y-12651286D01*
X12428809Y-12603667D01*
X12438333Y-12565571D01*
X12447857Y-12546524D01*
X12457381Y-12537000D01*
X12476428Y-12527476D01*
X12666905Y-12527476D02*
X12685952Y-12527476D01*
X12705000Y-12537000D01*
X12714524Y-12546524D01*
X12724048Y-12565571D01*
X12733571Y-12603667D01*
X12733571Y-12651286D01*
X12724048Y-12689381D01*
X12714524Y-12708428D01*
X12705000Y-12717952D01*
X12685952Y-12727476D01*
X12666905Y-12727476D01*
X12647857Y-12717952D01*
X12638333Y-12708428D01*
X12628809Y-12689381D01*
X12619286Y-12651286D01*
X12619286Y-12603667D01*
X12628809Y-12565571D01*
X12638333Y-12546524D01*
X12647857Y-12537000D01*
X12666905Y-12527476D01*
X12857381Y-12527476D02*
X12876428Y-12527476D01*
X12895476Y-12537000D01*
X12905000Y-12546524D01*
X12914524Y-12565571D01*
X12924048Y-12603667D01*
X12924048Y-12651286D01*
X12914524Y-12689381D01*
X12905000Y-12708428D01*
X12895476Y-12717952D01*
X12876428Y-12727476D01*
X12857381Y-12727476D01*
X12838333Y-12717952D01*
X12828809Y-12708428D01*
X12819286Y-12689381D01*
X12809762Y-12651286D01*
X12809762Y-12603667D01*
X12819286Y-12565571D01*
X12828809Y-12546524D01*
X12838333Y-12537000D01*
X12857381Y-12527476D01*
X13009762Y-12727476D02*
X13009762Y-12594143D01*
X13009762Y-12613190D02*
X13019286Y-12603667D01*
X13038333Y-12594143D01*
X13066905Y-12594143D01*
X13085952Y-12603667D01*
X13095476Y-12622714D01*
X13095476Y-12727476D01*
X13095476Y-12622714D02*
X13105000Y-12603667D01*
X13124048Y-12594143D01*
X13152619Y-12594143D01*
X13171667Y-12603667D01*
X13181190Y-12622714D01*
X13181190Y-12727476D01*
X13276428Y-12727476D02*
X13276428Y-12594143D01*
X13276428Y-12613190D02*
X13285952Y-12603667D01*
X13305000Y-12594143D01*
X13333571Y-12594143D01*
X13352619Y-12603667D01*
X13362143Y-12622714D01*
X13362143Y-12727476D01*
X13362143Y-12622714D02*
X13371667Y-12603667D01*
X13390714Y-12594143D01*
X13419286Y-12594143D01*
X13438333Y-12603667D01*
X13447857Y-12622714D01*
X13447857Y-12727476D01*
X13838333Y-12517952D02*
X13666905Y-12775095D01*
X14095476Y-12527476D02*
X14114524Y-12527476D01*
X14133571Y-12537000D01*
X14143095Y-12546524D01*
X14152619Y-12565571D01*
X14162143Y-12603667D01*
X14162143Y-12651286D01*
X14152619Y-12689381D01*
X14143095Y-12708428D01*
X14133571Y-12717952D01*
X14114524Y-12727476D01*
X14095476Y-12727476D01*
X14076428Y-12717952D01*
X14066905Y-12708428D01*
X14057381Y-12689381D01*
X14047857Y-12651286D01*
X14047857Y-12603667D01*
X14057381Y-12565571D01*
X14066905Y-12546524D01*
X14076428Y-12537000D01*
X14095476Y-12527476D01*
X14247857Y-12708428D02*
X14257381Y-12717952D01*
X14247857Y-12727476D01*
X14238333Y-12717952D01*
X14247857Y-12708428D01*
X14247857Y-12727476D01*
X14381190Y-12527476D02*
X14400238Y-12527476D01*
X14419286Y-12537000D01*
X14428809Y-12546524D01*
X14438333Y-12565571D01*
X14447857Y-12603667D01*
X14447857Y-12651286D01*
X14438333Y-12689381D01*
X14428809Y-12708428D01*
X14419286Y-12717952D01*
X14400238Y-12727476D01*
X14381190Y-12727476D01*
X14362143Y-12717952D01*
X14352619Y-12708428D01*
X14343095Y-12689381D01*
X14333571Y-12651286D01*
X14333571Y-12603667D01*
X14343095Y-12565571D01*
X14352619Y-12546524D01*
X14362143Y-12537000D01*
X14381190Y-12527476D01*
X14514524Y-12527476D02*
X14638333Y-12527476D01*
X14571667Y-12603667D01*
X14600238Y-12603667D01*
X14619286Y-12613190D01*
X14628809Y-12622714D01*
X14638333Y-12641762D01*
X14638333Y-12689381D01*
X14628809Y-12708428D01*
X14619286Y-12717952D01*
X14600238Y-12727476D01*
X14543095Y-12727476D01*
X14524048Y-12717952D01*
X14514524Y-12708428D01*
X14733571Y-12727476D02*
X14771667Y-12727476D01*
X14790714Y-12717952D01*
X14800238Y-12708428D01*
X14819286Y-12679857D01*
X14828809Y-12641762D01*
X14828809Y-12565571D01*
X14819286Y-12546524D01*
X14809762Y-12537000D01*
X14790714Y-12527476D01*
X14752619Y-12527476D01*
X14733571Y-12537000D01*
X14724048Y-12546524D01*
X14714524Y-12565571D01*
X14714524Y-12613190D01*
X14724048Y-12632238D01*
X14733571Y-12641762D01*
X14752619Y-12651286D01*
X14790714Y-12651286D01*
X14809762Y-12641762D01*
X14819286Y-12632238D01*
X14828809Y-12613190D01*
X15000238Y-12594143D02*
X15000238Y-12727476D01*
X14952619Y-12517952D02*
X14905000Y-12660809D01*
X15028809Y-12660809D01*
X15095476Y-12527476D02*
X15095476Y-12565571D01*
X15171667Y-12527476D02*
X15171667Y-12565571D01*
X15466905Y-12803667D02*
X15457381Y-12794143D01*
X15438333Y-12765571D01*
X15428809Y-12746524D01*
X15419286Y-12717952D01*
X15409762Y-12670333D01*
X15409762Y-12632238D01*
X15419286Y-12584619D01*
X15428809Y-12556048D01*
X15438333Y-12537000D01*
X15457381Y-12508428D01*
X15466905Y-12498905D01*
X15552619Y-12727476D02*
X15590714Y-12727476D01*
X15609762Y-12717952D01*
X15619286Y-12708428D01*
X15638333Y-12679857D01*
X15647857Y-12641762D01*
X15647857Y-12565571D01*
X15638333Y-12546524D01*
X15628809Y-12537000D01*
X15609762Y-12527476D01*
X15571667Y-12527476D01*
X15552619Y-12537000D01*
X15543095Y-12546524D01*
X15533571Y-12565571D01*
X15533571Y-12613190D01*
X15543095Y-12632238D01*
X15552619Y-12641762D01*
X15571667Y-12651286D01*
X15609762Y-12651286D01*
X15628809Y-12641762D01*
X15638333Y-12632238D01*
X15647857Y-12613190D01*
X15885952Y-12727476D02*
X15885952Y-12527476D01*
X15971667Y-12727476D02*
X15971667Y-12622714D01*
X15962143Y-12603667D01*
X15943095Y-12594143D01*
X15914524Y-12594143D01*
X15895476Y-12603667D01*
X15885952Y-12613190D01*
X16095476Y-12727476D02*
X16076428Y-12717952D01*
X16066905Y-12708428D01*
X16057381Y-12689381D01*
X16057381Y-12632238D01*
X16066905Y-12613190D01*
X16076428Y-12603667D01*
X16095476Y-12594143D01*
X16124048Y-12594143D01*
X16143095Y-12603667D01*
X16152619Y-12613190D01*
X16162143Y-12632238D01*
X16162143Y-12689381D01*
X16152619Y-12708428D01*
X16143095Y-12717952D01*
X16124048Y-12727476D01*
X16095476Y-12727476D01*
X16276428Y-12727476D02*
X16257381Y-12717952D01*
X16247857Y-12698905D01*
X16247857Y-12527476D01*
X16428809Y-12717952D02*
X16409762Y-12727476D01*
X16371667Y-12727476D01*
X16352619Y-12717952D01*
X16343095Y-12698905D01*
X16343095Y-12622714D01*
X16352619Y-12603667D01*
X16371667Y-12594143D01*
X16409762Y-12594143D01*
X16428809Y-12603667D01*
X16438333Y-12622714D01*
X16438333Y-12641762D01*
X16343095Y-12660809D01*
X16514524Y-12717952D02*
X16533571Y-12727476D01*
X16571667Y-12727476D01*
X16590714Y-12717952D01*
X16600238Y-12698905D01*
X16600238Y-12689381D01*
X16590714Y-12670333D01*
X16571667Y-12660809D01*
X16543095Y-12660809D01*
X16524048Y-12651286D01*
X16514524Y-12632238D01*
X16514524Y-12622714D01*
X16524048Y-12603667D01*
X16543095Y-12594143D01*
X16571667Y-12594143D01*
X16590714Y-12603667D01*
X16666905Y-12803667D02*
X16676428Y-12794143D01*
X16695476Y-12765571D01*
X16705000Y-12746524D01*
X16714524Y-12717952D01*
X16724048Y-12670333D01*
X16724048Y-12632238D01*
X16714524Y-12584619D01*
X16705000Y-12556048D01*
X16695476Y-12537000D01*
X16676428Y-12508428D01*
X16666905Y-12498905D01*
D15*
X11835500Y-12960500D02*
X11895000Y-12901000D01*
X11835500Y-12841500D01*
X11776000Y-12901000D01*
X11835500Y-12960500D01*
D11*
X12257381Y-12991476D02*
X12143095Y-12991476D01*
X12200238Y-12991476D02*
X12200238Y-12791476D01*
X12181190Y-12820048D01*
X12162143Y-12839095D01*
X12143095Y-12848619D01*
X12343095Y-12972428D02*
X12352619Y-12981952D01*
X12343095Y-12991476D01*
X12333571Y-12981952D01*
X12343095Y-12972428D01*
X12343095Y-12991476D01*
X12543095Y-12991476D02*
X12428809Y-12991476D01*
X12485952Y-12991476D02*
X12485952Y-12791476D01*
X12466905Y-12820048D01*
X12447857Y-12839095D01*
X12428809Y-12848619D01*
X12638333Y-12991476D02*
X12676428Y-12991476D01*
X12695476Y-12981952D01*
X12705000Y-12972428D01*
X12724048Y-12943857D01*
X12733571Y-12905762D01*
X12733571Y-12829571D01*
X12724048Y-12810524D01*
X12714524Y-12801000D01*
X12695476Y-12791476D01*
X12657381Y-12791476D01*
X12638333Y-12801000D01*
X12628809Y-12810524D01*
X12619286Y-12829571D01*
X12619286Y-12877190D01*
X12628809Y-12896238D01*
X12638333Y-12905762D01*
X12657381Y-12915286D01*
X12695476Y-12915286D01*
X12714524Y-12905762D01*
X12724048Y-12896238D01*
X12733571Y-12877190D01*
X12857381Y-12791476D02*
X12876428Y-12791476D01*
X12895476Y-12801000D01*
X12905000Y-12810524D01*
X12914524Y-12829571D01*
X12924048Y-12867667D01*
X12924048Y-12915286D01*
X12914524Y-12953381D01*
X12905000Y-12972428D01*
X12895476Y-12981952D01*
X12876428Y-12991476D01*
X12857381Y-12991476D01*
X12838333Y-12981952D01*
X12828809Y-12972428D01*
X12819286Y-12953381D01*
X12809762Y-12915286D01*
X12809762Y-12867667D01*
X12819286Y-12829571D01*
X12828809Y-12810524D01*
X12838333Y-12801000D01*
X12857381Y-12791476D01*
X13009762Y-12991476D02*
X13009762Y-12858143D01*
X13009762Y-12877190D02*
X13019286Y-12867667D01*
X13038333Y-12858143D01*
X13066905Y-12858143D01*
X13085952Y-12867667D01*
X13095476Y-12886714D01*
X13095476Y-12991476D01*
X13095476Y-12886714D02*
X13105000Y-12867667D01*
X13124048Y-12858143D01*
X13152619Y-12858143D01*
X13171667Y-12867667D01*
X13181190Y-12886714D01*
X13181190Y-12991476D01*
X13276428Y-12991476D02*
X13276428Y-12858143D01*
X13276428Y-12877190D02*
X13285952Y-12867667D01*
X13305000Y-12858143D01*
X13333571Y-12858143D01*
X13352619Y-12867667D01*
X13362143Y-12886714D01*
X13362143Y-12991476D01*
X13362143Y-12886714D02*
X13371667Y-12867667D01*
X13390714Y-12858143D01*
X13419286Y-12858143D01*
X13438333Y-12867667D01*
X13447857Y-12886714D01*
X13447857Y-12991476D01*
X13838333Y-12781952D02*
X13666905Y-13039095D01*
X14095476Y-12791476D02*
X14114524Y-12791476D01*
X14133571Y-12801000D01*
X14143095Y-12810524D01*
X14152619Y-12829571D01*
X14162143Y-12867667D01*
X14162143Y-12915286D01*
X14152619Y-12953381D01*
X14143095Y-12972428D01*
X14133571Y-12981952D01*
X14114524Y-12991476D01*
X14095476Y-12991476D01*
X14076428Y-12981952D01*
X14066905Y-12972428D01*
X14057381Y-12953381D01*
X14047857Y-12915286D01*
X14047857Y-12867667D01*
X14057381Y-12829571D01*
X14066905Y-12810524D01*
X14076428Y-12801000D01*
X14095476Y-12791476D01*
X14247857Y-12972428D02*
X14257381Y-12981952D01*
X14247857Y-12991476D01*
X14238333Y-12981952D01*
X14247857Y-12972428D01*
X14247857Y-12991476D01*
X14381190Y-12791476D02*
X14400238Y-12791476D01*
X14419286Y-12801000D01*
X14428809Y-12810524D01*
X14438333Y-12829571D01*
X14447857Y-12867667D01*
X14447857Y-12915286D01*
X14438333Y-12953381D01*
X14428809Y-12972428D01*
X14419286Y-12981952D01*
X14400238Y-12991476D01*
X14381190Y-12991476D01*
X14362143Y-12981952D01*
X14352619Y-12972428D01*
X14343095Y-12953381D01*
X14333571Y-12915286D01*
X14333571Y-12867667D01*
X14343095Y-12829571D01*
X14352619Y-12810524D01*
X14362143Y-12801000D01*
X14381190Y-12791476D01*
X14619286Y-12858143D02*
X14619286Y-12991476D01*
X14571667Y-12781952D02*
X14524048Y-12924809D01*
X14647857Y-12924809D01*
X14809762Y-12791476D02*
X14771667Y-12791476D01*
X14752619Y-12801000D01*
X14743095Y-12810524D01*
X14724048Y-12839095D01*
X14714524Y-12877190D01*
X14714524Y-12953381D01*
X14724048Y-12972428D01*
X14733571Y-12981952D01*
X14752619Y-12991476D01*
X14790714Y-12991476D01*
X14809762Y-12981952D01*
X14819286Y-12972428D01*
X14828809Y-12953381D01*
X14828809Y-12905762D01*
X14819286Y-12886714D01*
X14809762Y-12877190D01*
X14790714Y-12867667D01*
X14752619Y-12867667D01*
X14733571Y-12877190D01*
X14724048Y-12886714D01*
X14714524Y-12905762D01*
X14924048Y-12991476D02*
X14962143Y-12991476D01*
X14981190Y-12981952D01*
X14990714Y-12972428D01*
X15009762Y-12943857D01*
X15019286Y-12905762D01*
X15019286Y-12829571D01*
X15009762Y-12810524D01*
X15000238Y-12801000D01*
X14981190Y-12791476D01*
X14943095Y-12791476D01*
X14924048Y-12801000D01*
X14914524Y-12810524D01*
X14905000Y-12829571D01*
X14905000Y-12877190D01*
X14914524Y-12896238D01*
X14924048Y-12905762D01*
X14943095Y-12915286D01*
X14981190Y-12915286D01*
X15000238Y-12905762D01*
X15009762Y-12896238D01*
X15019286Y-12877190D01*
X15095476Y-12791476D02*
X15095476Y-12829571D01*
X15171667Y-12791476D02*
X15171667Y-12829571D01*
X15466905Y-13067667D02*
X15457381Y-13058143D01*
X15438333Y-13029571D01*
X15428809Y-13010524D01*
X15419286Y-12981952D01*
X15409762Y-12934333D01*
X15409762Y-12896238D01*
X15419286Y-12848619D01*
X15428809Y-12820048D01*
X15438333Y-12801000D01*
X15457381Y-12772428D01*
X15466905Y-12762905D01*
X15628809Y-12791476D02*
X15590714Y-12791476D01*
X15571667Y-12801000D01*
X15562143Y-12810524D01*
X15543095Y-12839095D01*
X15533571Y-12877190D01*
X15533571Y-12953381D01*
X15543095Y-12972428D01*
X15552619Y-12981952D01*
X15571667Y-12991476D01*
X15609762Y-12991476D01*
X15628809Y-12981952D01*
X15638333Y-12972428D01*
X15647857Y-12953381D01*
X15647857Y-12905762D01*
X15638333Y-12886714D01*
X15628809Y-12877190D01*
X15609762Y-12867667D01*
X15571667Y-12867667D01*
X15552619Y-12877190D01*
X15543095Y-12886714D01*
X15533571Y-12905762D01*
X15885952Y-12991476D02*
X15885952Y-12791476D01*
X15971667Y-12991476D02*
X15971667Y-12886714D01*
X15962143Y-12867667D01*
X15943095Y-12858143D01*
X15914524Y-12858143D01*
X15895476Y-12867667D01*
X15885952Y-12877190D01*
X16095476Y-12991476D02*
X16076428Y-12981952D01*
X16066905Y-12972428D01*
X16057381Y-12953381D01*
X16057381Y-12896238D01*
X16066905Y-12877190D01*
X16076428Y-12867667D01*
X16095476Y-12858143D01*
X16124048Y-12858143D01*
X16143095Y-12867667D01*
X16152619Y-12877190D01*
X16162143Y-12896238D01*
X16162143Y-12953381D01*
X16152619Y-12972428D01*
X16143095Y-12981952D01*
X16124048Y-12991476D01*
X16095476Y-12991476D01*
X16276428Y-12991476D02*
X16257381Y-12981952D01*
X16247857Y-12962905D01*
X16247857Y-12791476D01*
X16428809Y-12981952D02*
X16409762Y-12991476D01*
X16371667Y-12991476D01*
X16352619Y-12981952D01*
X16343095Y-12962905D01*
X16343095Y-12886714D01*
X16352619Y-12867667D01*
X16371667Y-12858143D01*
X16409762Y-12858143D01*
X16428809Y-12867667D01*
X16438333Y-12886714D01*
X16438333Y-12905762D01*
X16343095Y-12924809D01*
X16514524Y-12981952D02*
X16533571Y-12991476D01*
X16571667Y-12991476D01*
X16590714Y-12981952D01*
X16600238Y-12962905D01*
X16600238Y-12953381D01*
X16590714Y-12934333D01*
X16571667Y-12924809D01*
X16543095Y-12924809D01*
X16524048Y-12915286D01*
X16514524Y-12896238D01*
X16514524Y-12886714D01*
X16524048Y-12867667D01*
X16543095Y-12858143D01*
X16571667Y-12858143D01*
X16590714Y-12867667D01*
X16666905Y-13067667D02*
X16676428Y-13058143D01*
X16695476Y-13029571D01*
X16705000Y-13010524D01*
X16714524Y-12981952D01*
X16724048Y-12934333D01*
X16724048Y-12896238D01*
X16714524Y-12848619D01*
X16705000Y-12820048D01*
X16695476Y-12801000D01*
X16676428Y-12772428D01*
X16666905Y-12762905D01*
M02*
