%TF.GenerationSoftware,KiCad,Pcbnew,(6.0.7)*%
%TF.CreationDate,2022-10-27T11:42:41+02:00*%
%TF.ProjectId,FPS_AR,4650535f-4152-42e6-9b69-6361645f7063,rev?*%
%TF.SameCoordinates,Original*%
%TF.FileFunction,Drillmap*%
%TF.FilePolarity,Positive*%
%FSLAX45Y45*%
G04 Gerber Fmt 4.5, Leading zero omitted, Abs format (unit mm)*
G04 Created by KiCad (PCBNEW (6.0.7)) date 2022-10-27 11:42:41*
%MOMM*%
%LPD*%
G01*
G04 APERTURE LIST*
%ADD10C,0.100000*%
%ADD11C,0.200000*%
%ADD12C,0.020000*%
G04 APERTURE END LIST*
D10*
X12510000Y-7325000D02*
G75*
G03*
X12435000Y-7250000I-75000J0D01*
G01*
X11935000Y-8150000D02*
G75*
G03*
X11885000Y-8200000I0J-50000D01*
G01*
X10435000Y-8150000D02*
X9860000Y-8150000D01*
X12510000Y-8150000D02*
X12510000Y-7325000D01*
X9935000Y-7250000D02*
G75*
G03*
X9860000Y-7325000I0J-75000D01*
G01*
X9860000Y-8150000D02*
X9860000Y-7325000D01*
X10485000Y-8200000D02*
X10485000Y-8300000D01*
X10485000Y-8300000D02*
X11885000Y-8300000D01*
X10485000Y-8200000D02*
G75*
G03*
X10435000Y-8150000I-50000J0D01*
G01*
X11885000Y-8300000D02*
X11885000Y-8200000D01*
X11935000Y-8150000D02*
X12510000Y-8150000D01*
X9935000Y-7250000D02*
X12435000Y-7250000D01*
D11*
D12*
X9925000Y-7315000D02*
X9945000Y-7335000D01*
X9945000Y-7315000D02*
X9925000Y-7335000D01*
X9925000Y-7965000D02*
X9945000Y-7985000D01*
X9945000Y-7965000D02*
X9925000Y-7985000D01*
X10450000Y-8035000D02*
X10470000Y-8055000D01*
X10470000Y-8035000D02*
X10450000Y-8055000D01*
X12000000Y-8060000D02*
X12020000Y-8080000D01*
X12020000Y-8060000D02*
X12000000Y-8080000D01*
X12100000Y-8060000D02*
X12120000Y-8080000D01*
X12120000Y-8060000D02*
X12100000Y-8080000D01*
X12200000Y-8060000D02*
X12220000Y-8080000D01*
X12220000Y-8060000D02*
X12200000Y-8080000D01*
X12300000Y-8060000D02*
X12320000Y-8080000D01*
X12320000Y-8060000D02*
X12300000Y-8080000D01*
X12400000Y-8060000D02*
X12420000Y-8080000D01*
X12420000Y-8060000D02*
X12400000Y-8080000D01*
X12425000Y-7315000D02*
X12445000Y-7335000D01*
X12445000Y-7315000D02*
X12425000Y-7335000D01*
X12425000Y-7965000D02*
X12445000Y-7985000D01*
X12445000Y-7965000D02*
X12425000Y-7985000D01*
D11*
X10112619Y-8615476D02*
X10112619Y-8415476D01*
X10160238Y-8415476D01*
X10188810Y-8425000D01*
X10207857Y-8444048D01*
X10217381Y-8463095D01*
X10226905Y-8501190D01*
X10226905Y-8529762D01*
X10217381Y-8567857D01*
X10207857Y-8586905D01*
X10188810Y-8605952D01*
X10160238Y-8615476D01*
X10112619Y-8615476D01*
X10312619Y-8615476D02*
X10312619Y-8482143D01*
X10312619Y-8520238D02*
X10322143Y-8501190D01*
X10331667Y-8491667D01*
X10350714Y-8482143D01*
X10369762Y-8482143D01*
X10436429Y-8615476D02*
X10436429Y-8482143D01*
X10436429Y-8415476D02*
X10426905Y-8425000D01*
X10436429Y-8434524D01*
X10445952Y-8425000D01*
X10436429Y-8415476D01*
X10436429Y-8434524D01*
X10560238Y-8615476D02*
X10541190Y-8605952D01*
X10531667Y-8586905D01*
X10531667Y-8415476D01*
X10665000Y-8615476D02*
X10645952Y-8605952D01*
X10636429Y-8586905D01*
X10636429Y-8415476D01*
X10893571Y-8615476D02*
X10893571Y-8415476D01*
X10960238Y-8558333D01*
X11026905Y-8415476D01*
X11026905Y-8615476D01*
X11207857Y-8615476D02*
X11207857Y-8510714D01*
X11198333Y-8491667D01*
X11179286Y-8482143D01*
X11141190Y-8482143D01*
X11122143Y-8491667D01*
X11207857Y-8605952D02*
X11188809Y-8615476D01*
X11141190Y-8615476D01*
X11122143Y-8605952D01*
X11112619Y-8586905D01*
X11112619Y-8567857D01*
X11122143Y-8548810D01*
X11141190Y-8539286D01*
X11188809Y-8539286D01*
X11207857Y-8529762D01*
X11303095Y-8482143D02*
X11303095Y-8682143D01*
X11303095Y-8491667D02*
X11322143Y-8482143D01*
X11360238Y-8482143D01*
X11379286Y-8491667D01*
X11388809Y-8501190D01*
X11398333Y-8520238D01*
X11398333Y-8577381D01*
X11388809Y-8596429D01*
X11379286Y-8605952D01*
X11360238Y-8615476D01*
X11322143Y-8615476D01*
X11303095Y-8605952D01*
X11484048Y-8596429D02*
X11493571Y-8605952D01*
X11484048Y-8615476D01*
X11474524Y-8605952D01*
X11484048Y-8596429D01*
X11484048Y-8615476D01*
X11484048Y-8491667D02*
X11493571Y-8501190D01*
X11484048Y-8510714D01*
X11474524Y-8501190D01*
X11484048Y-8491667D01*
X11484048Y-8510714D01*
D12*
X9835000Y-8935000D02*
X9855000Y-8955000D01*
X9855000Y-8935000D02*
X9835000Y-8955000D01*
D11*
X10150714Y-8835476D02*
X10169762Y-8835476D01*
X10188810Y-8845000D01*
X10198333Y-8854524D01*
X10207857Y-8873571D01*
X10217381Y-8911667D01*
X10217381Y-8959286D01*
X10207857Y-8997381D01*
X10198333Y-9016429D01*
X10188810Y-9025952D01*
X10169762Y-9035476D01*
X10150714Y-9035476D01*
X10131667Y-9025952D01*
X10122143Y-9016429D01*
X10112619Y-8997381D01*
X10103095Y-8959286D01*
X10103095Y-8911667D01*
X10112619Y-8873571D01*
X10122143Y-8854524D01*
X10131667Y-8845000D01*
X10150714Y-8835476D01*
X10303095Y-9016429D02*
X10312619Y-9025952D01*
X10303095Y-9035476D01*
X10293571Y-9025952D01*
X10303095Y-9016429D01*
X10303095Y-9035476D01*
X10388810Y-8854524D02*
X10398333Y-8845000D01*
X10417381Y-8835476D01*
X10465000Y-8835476D01*
X10484048Y-8845000D01*
X10493571Y-8854524D01*
X10503095Y-8873571D01*
X10503095Y-8892619D01*
X10493571Y-8921190D01*
X10379286Y-9035476D01*
X10503095Y-9035476D01*
X10626905Y-8835476D02*
X10645952Y-8835476D01*
X10665000Y-8845000D01*
X10674524Y-8854524D01*
X10684048Y-8873571D01*
X10693571Y-8911667D01*
X10693571Y-8959286D01*
X10684048Y-8997381D01*
X10674524Y-9016429D01*
X10665000Y-9025952D01*
X10645952Y-9035476D01*
X10626905Y-9035476D01*
X10607857Y-9025952D01*
X10598333Y-9016429D01*
X10588810Y-8997381D01*
X10579286Y-8959286D01*
X10579286Y-8911667D01*
X10588810Y-8873571D01*
X10598333Y-8854524D01*
X10607857Y-8845000D01*
X10626905Y-8835476D01*
X10817381Y-8835476D02*
X10836429Y-8835476D01*
X10855476Y-8845000D01*
X10865000Y-8854524D01*
X10874524Y-8873571D01*
X10884048Y-8911667D01*
X10884048Y-8959286D01*
X10874524Y-8997381D01*
X10865000Y-9016429D01*
X10855476Y-9025952D01*
X10836429Y-9035476D01*
X10817381Y-9035476D01*
X10798333Y-9025952D01*
X10788810Y-9016429D01*
X10779286Y-8997381D01*
X10769762Y-8959286D01*
X10769762Y-8911667D01*
X10779286Y-8873571D01*
X10788810Y-8854524D01*
X10798333Y-8845000D01*
X10817381Y-8835476D01*
X10969762Y-9035476D02*
X10969762Y-8902143D01*
X10969762Y-8921190D02*
X10979286Y-8911667D01*
X10998333Y-8902143D01*
X11026905Y-8902143D01*
X11045952Y-8911667D01*
X11055476Y-8930714D01*
X11055476Y-9035476D01*
X11055476Y-8930714D02*
X11065000Y-8911667D01*
X11084048Y-8902143D01*
X11112619Y-8902143D01*
X11131667Y-8911667D01*
X11141190Y-8930714D01*
X11141190Y-9035476D01*
X11236428Y-9035476D02*
X11236428Y-8902143D01*
X11236428Y-8921190D02*
X11245952Y-8911667D01*
X11265000Y-8902143D01*
X11293571Y-8902143D01*
X11312619Y-8911667D01*
X11322143Y-8930714D01*
X11322143Y-9035476D01*
X11322143Y-8930714D02*
X11331667Y-8911667D01*
X11350714Y-8902143D01*
X11379286Y-8902143D01*
X11398333Y-8911667D01*
X11407857Y-8930714D01*
X11407857Y-9035476D01*
X11798333Y-8825952D02*
X11626905Y-9083095D01*
X12055476Y-8835476D02*
X12074524Y-8835476D01*
X12093571Y-8845000D01*
X12103095Y-8854524D01*
X12112619Y-8873571D01*
X12122143Y-8911667D01*
X12122143Y-8959286D01*
X12112619Y-8997381D01*
X12103095Y-9016429D01*
X12093571Y-9025952D01*
X12074524Y-9035476D01*
X12055476Y-9035476D01*
X12036428Y-9025952D01*
X12026905Y-9016429D01*
X12017381Y-8997381D01*
X12007857Y-8959286D01*
X12007857Y-8911667D01*
X12017381Y-8873571D01*
X12026905Y-8854524D01*
X12036428Y-8845000D01*
X12055476Y-8835476D01*
X12207857Y-9016429D02*
X12217381Y-9025952D01*
X12207857Y-9035476D01*
X12198333Y-9025952D01*
X12207857Y-9016429D01*
X12207857Y-9035476D01*
X12341190Y-8835476D02*
X12360238Y-8835476D01*
X12379286Y-8845000D01*
X12388809Y-8854524D01*
X12398333Y-8873571D01*
X12407857Y-8911667D01*
X12407857Y-8959286D01*
X12398333Y-8997381D01*
X12388809Y-9016429D01*
X12379286Y-9025952D01*
X12360238Y-9035476D01*
X12341190Y-9035476D01*
X12322143Y-9025952D01*
X12312619Y-9016429D01*
X12303095Y-8997381D01*
X12293571Y-8959286D01*
X12293571Y-8911667D01*
X12303095Y-8873571D01*
X12312619Y-8854524D01*
X12322143Y-8845000D01*
X12341190Y-8835476D01*
X12531667Y-8835476D02*
X12550714Y-8835476D01*
X12569762Y-8845000D01*
X12579286Y-8854524D01*
X12588809Y-8873571D01*
X12598333Y-8911667D01*
X12598333Y-8959286D01*
X12588809Y-8997381D01*
X12579286Y-9016429D01*
X12569762Y-9025952D01*
X12550714Y-9035476D01*
X12531667Y-9035476D01*
X12512619Y-9025952D01*
X12503095Y-9016429D01*
X12493571Y-8997381D01*
X12484048Y-8959286D01*
X12484048Y-8911667D01*
X12493571Y-8873571D01*
X12503095Y-8854524D01*
X12512619Y-8845000D01*
X12531667Y-8835476D01*
X12665000Y-8835476D02*
X12798333Y-8835476D01*
X12712619Y-9035476D01*
X12884048Y-9035476D02*
X12922143Y-9035476D01*
X12941190Y-9025952D01*
X12950714Y-9016429D01*
X12969762Y-8987857D01*
X12979286Y-8949762D01*
X12979286Y-8873571D01*
X12969762Y-8854524D01*
X12960238Y-8845000D01*
X12941190Y-8835476D01*
X12903095Y-8835476D01*
X12884048Y-8845000D01*
X12874524Y-8854524D01*
X12865000Y-8873571D01*
X12865000Y-8921190D01*
X12874524Y-8940238D01*
X12884048Y-8949762D01*
X12903095Y-8959286D01*
X12941190Y-8959286D01*
X12960238Y-8949762D01*
X12969762Y-8940238D01*
X12979286Y-8921190D01*
X13055476Y-8835476D02*
X13055476Y-8873571D01*
X13131667Y-8835476D02*
X13131667Y-8873571D01*
X13426905Y-9111667D02*
X13417381Y-9102143D01*
X13398333Y-9073571D01*
X13388809Y-9054524D01*
X13379286Y-9025952D01*
X13369762Y-8978333D01*
X13369762Y-8940238D01*
X13379286Y-8892619D01*
X13388809Y-8864048D01*
X13398333Y-8845000D01*
X13417381Y-8816429D01*
X13426905Y-8806905D01*
X13607857Y-9035476D02*
X13493571Y-9035476D01*
X13550714Y-9035476D02*
X13550714Y-8835476D01*
X13531667Y-8864048D01*
X13512619Y-8883095D01*
X13493571Y-8892619D01*
X13731667Y-8835476D02*
X13750714Y-8835476D01*
X13769762Y-8845000D01*
X13779286Y-8854524D01*
X13788809Y-8873571D01*
X13798333Y-8911667D01*
X13798333Y-8959286D01*
X13788809Y-8997381D01*
X13779286Y-9016429D01*
X13769762Y-9025952D01*
X13750714Y-9035476D01*
X13731667Y-9035476D01*
X13712619Y-9025952D01*
X13703095Y-9016429D01*
X13693571Y-8997381D01*
X13684048Y-8959286D01*
X13684048Y-8911667D01*
X13693571Y-8873571D01*
X13703095Y-8854524D01*
X13712619Y-8845000D01*
X13731667Y-8835476D01*
X14036428Y-9035476D02*
X14036428Y-8835476D01*
X14122143Y-9035476D02*
X14122143Y-8930714D01*
X14112619Y-8911667D01*
X14093571Y-8902143D01*
X14065000Y-8902143D01*
X14045952Y-8911667D01*
X14036428Y-8921190D01*
X14245952Y-9035476D02*
X14226905Y-9025952D01*
X14217381Y-9016429D01*
X14207857Y-8997381D01*
X14207857Y-8940238D01*
X14217381Y-8921190D01*
X14226905Y-8911667D01*
X14245952Y-8902143D01*
X14274524Y-8902143D01*
X14293571Y-8911667D01*
X14303095Y-8921190D01*
X14312619Y-8940238D01*
X14312619Y-8997381D01*
X14303095Y-9016429D01*
X14293571Y-9025952D01*
X14274524Y-9035476D01*
X14245952Y-9035476D01*
X14426905Y-9035476D02*
X14407857Y-9025952D01*
X14398333Y-9006905D01*
X14398333Y-8835476D01*
X14579286Y-9025952D02*
X14560238Y-9035476D01*
X14522143Y-9035476D01*
X14503095Y-9025952D01*
X14493571Y-9006905D01*
X14493571Y-8930714D01*
X14503095Y-8911667D01*
X14522143Y-8902143D01*
X14560238Y-8902143D01*
X14579286Y-8911667D01*
X14588809Y-8930714D01*
X14588809Y-8949762D01*
X14493571Y-8968810D01*
X14665000Y-9025952D02*
X14684048Y-9035476D01*
X14722143Y-9035476D01*
X14741190Y-9025952D01*
X14750714Y-9006905D01*
X14750714Y-8997381D01*
X14741190Y-8978333D01*
X14722143Y-8968810D01*
X14693571Y-8968810D01*
X14674524Y-8959286D01*
X14665000Y-8940238D01*
X14665000Y-8930714D01*
X14674524Y-8911667D01*
X14693571Y-8902143D01*
X14722143Y-8902143D01*
X14741190Y-8911667D01*
X14817381Y-9111667D02*
X14826905Y-9102143D01*
X14845952Y-9073571D01*
X14855476Y-9054524D01*
X14865000Y-9025952D01*
X14874524Y-8978333D01*
X14874524Y-8940238D01*
X14865000Y-8892619D01*
X14855476Y-8864048D01*
X14845952Y-8845000D01*
X14826905Y-8816429D01*
X14817381Y-8806905D01*
M02*
