%TF.GenerationSoftware,KiCad,Pcbnew,(6.0.7)*%
%TF.CreationDate,2022-10-27T11:50:34+02:00*%
%TF.ProjectId,pumpCon,70756d70-436f-46e2-9e6b-696361645f70,rev?*%
%TF.SameCoordinates,Original*%
%TF.FileFunction,Drillmap*%
%TF.FilePolarity,Positive*%
%FSLAX45Y45*%
G04 Gerber Fmt 4.5, Leading zero omitted, Abs format (unit mm)*
G04 Created by KiCad (PCBNEW (6.0.7)) date 2022-10-27 11:50:34*
%MOMM*%
%LPD*%
G01*
G04 APERTURE LIST*
%ADD10C,0.100000*%
%ADD11C,0.200000*%
%ADD12C,0.320000*%
G04 APERTURE END LIST*
D10*
X6200000Y-6150000D02*
G75*
G03*
X5900000Y-6450000I0J-300000D01*
G01*
X10900000Y-6450000D02*
G75*
G03*
X10600000Y-6150000I-300000J0D01*
G01*
X10600000Y-11150000D02*
X6200000Y-11150000D01*
X6200000Y-6150000D02*
X10600000Y-6150000D01*
X5900000Y-10850000D02*
X5900000Y-6450000D01*
X10900000Y-10850000D02*
X10900000Y-6450000D01*
X5900000Y-10850000D02*
G75*
G03*
X6200000Y-11150000I300000J0D01*
G01*
X10600000Y-11150000D02*
G75*
G03*
X10900000Y-10850000I0J300000D01*
G01*
D11*
D12*
X6040000Y-6290000D02*
X6360000Y-6610000D01*
X6360000Y-6290000D02*
X6040000Y-6610000D01*
X6040000Y-10690000D02*
X6360000Y-11010000D01*
X6360000Y-10690000D02*
X6040000Y-11010000D01*
X10440000Y-6290000D02*
X10760000Y-6610000D01*
X10760000Y-6290000D02*
X10440000Y-6610000D01*
X10440000Y-10690000D02*
X10760000Y-11010000D01*
X10760000Y-10690000D02*
X10440000Y-11010000D01*
D11*
X6152619Y-11465476D02*
X6152619Y-11265476D01*
X6200238Y-11265476D01*
X6228809Y-11275000D01*
X6247857Y-11294048D01*
X6257381Y-11313095D01*
X6266905Y-11351190D01*
X6266905Y-11379762D01*
X6257381Y-11417857D01*
X6247857Y-11436905D01*
X6228809Y-11455952D01*
X6200238Y-11465476D01*
X6152619Y-11465476D01*
X6352619Y-11465476D02*
X6352619Y-11332143D01*
X6352619Y-11370238D02*
X6362143Y-11351190D01*
X6371667Y-11341667D01*
X6390714Y-11332143D01*
X6409762Y-11332143D01*
X6476428Y-11465476D02*
X6476428Y-11332143D01*
X6476428Y-11265476D02*
X6466905Y-11275000D01*
X6476428Y-11284524D01*
X6485952Y-11275000D01*
X6476428Y-11265476D01*
X6476428Y-11284524D01*
X6600238Y-11465476D02*
X6581190Y-11455952D01*
X6571667Y-11436905D01*
X6571667Y-11265476D01*
X6705000Y-11465476D02*
X6685952Y-11455952D01*
X6676428Y-11436905D01*
X6676428Y-11265476D01*
X6933571Y-11465476D02*
X6933571Y-11265476D01*
X7000238Y-11408333D01*
X7066905Y-11265476D01*
X7066905Y-11465476D01*
X7247857Y-11465476D02*
X7247857Y-11360714D01*
X7238333Y-11341667D01*
X7219286Y-11332143D01*
X7181190Y-11332143D01*
X7162143Y-11341667D01*
X7247857Y-11455952D02*
X7228809Y-11465476D01*
X7181190Y-11465476D01*
X7162143Y-11455952D01*
X7152619Y-11436905D01*
X7152619Y-11417857D01*
X7162143Y-11398809D01*
X7181190Y-11389286D01*
X7228809Y-11389286D01*
X7247857Y-11379762D01*
X7343095Y-11332143D02*
X7343095Y-11532143D01*
X7343095Y-11341667D02*
X7362143Y-11332143D01*
X7400238Y-11332143D01*
X7419286Y-11341667D01*
X7428809Y-11351190D01*
X7438333Y-11370238D01*
X7438333Y-11427381D01*
X7428809Y-11446428D01*
X7419286Y-11455952D01*
X7400238Y-11465476D01*
X7362143Y-11465476D01*
X7343095Y-11455952D01*
X7524048Y-11446428D02*
X7533571Y-11455952D01*
X7524048Y-11465476D01*
X7514524Y-11455952D01*
X7524048Y-11446428D01*
X7524048Y-11465476D01*
X7524048Y-11341667D02*
X7533571Y-11351190D01*
X7524048Y-11360714D01*
X7514524Y-11351190D01*
X7524048Y-11341667D01*
X7524048Y-11360714D01*
X5695000Y-11695000D02*
X5895000Y-11895000D01*
X5895000Y-11695000D02*
X5695000Y-11895000D01*
X6133571Y-11685476D02*
X6257381Y-11685476D01*
X6190714Y-11761667D01*
X6219286Y-11761667D01*
X6238333Y-11771190D01*
X6247857Y-11780714D01*
X6257381Y-11799762D01*
X6257381Y-11847381D01*
X6247857Y-11866428D01*
X6238333Y-11875952D01*
X6219286Y-11885476D01*
X6162143Y-11885476D01*
X6143095Y-11875952D01*
X6133571Y-11866428D01*
X6343095Y-11866428D02*
X6352619Y-11875952D01*
X6343095Y-11885476D01*
X6333571Y-11875952D01*
X6343095Y-11866428D01*
X6343095Y-11885476D01*
X6428809Y-11704524D02*
X6438333Y-11695000D01*
X6457381Y-11685476D01*
X6505000Y-11685476D01*
X6524048Y-11695000D01*
X6533571Y-11704524D01*
X6543095Y-11723571D01*
X6543095Y-11742619D01*
X6533571Y-11771190D01*
X6419286Y-11885476D01*
X6543095Y-11885476D01*
X6666905Y-11685476D02*
X6685952Y-11685476D01*
X6705000Y-11695000D01*
X6714524Y-11704524D01*
X6724048Y-11723571D01*
X6733571Y-11761667D01*
X6733571Y-11809286D01*
X6724048Y-11847381D01*
X6714524Y-11866428D01*
X6705000Y-11875952D01*
X6685952Y-11885476D01*
X6666905Y-11885476D01*
X6647857Y-11875952D01*
X6638333Y-11866428D01*
X6628809Y-11847381D01*
X6619286Y-11809286D01*
X6619286Y-11761667D01*
X6628809Y-11723571D01*
X6638333Y-11704524D01*
X6647857Y-11695000D01*
X6666905Y-11685476D01*
X6857381Y-11685476D02*
X6876428Y-11685476D01*
X6895476Y-11695000D01*
X6905000Y-11704524D01*
X6914524Y-11723571D01*
X6924048Y-11761667D01*
X6924048Y-11809286D01*
X6914524Y-11847381D01*
X6905000Y-11866428D01*
X6895476Y-11875952D01*
X6876428Y-11885476D01*
X6857381Y-11885476D01*
X6838333Y-11875952D01*
X6828809Y-11866428D01*
X6819286Y-11847381D01*
X6809762Y-11809286D01*
X6809762Y-11761667D01*
X6819286Y-11723571D01*
X6828809Y-11704524D01*
X6838333Y-11695000D01*
X6857381Y-11685476D01*
X7009762Y-11885476D02*
X7009762Y-11752143D01*
X7009762Y-11771190D02*
X7019286Y-11761667D01*
X7038333Y-11752143D01*
X7066905Y-11752143D01*
X7085952Y-11761667D01*
X7095476Y-11780714D01*
X7095476Y-11885476D01*
X7095476Y-11780714D02*
X7105000Y-11761667D01*
X7124048Y-11752143D01*
X7152619Y-11752143D01*
X7171667Y-11761667D01*
X7181190Y-11780714D01*
X7181190Y-11885476D01*
X7276428Y-11885476D02*
X7276428Y-11752143D01*
X7276428Y-11771190D02*
X7285952Y-11761667D01*
X7305000Y-11752143D01*
X7333571Y-11752143D01*
X7352619Y-11761667D01*
X7362143Y-11780714D01*
X7362143Y-11885476D01*
X7362143Y-11780714D02*
X7371667Y-11761667D01*
X7390714Y-11752143D01*
X7419286Y-11752143D01*
X7438333Y-11761667D01*
X7447857Y-11780714D01*
X7447857Y-11885476D01*
X7838333Y-11675952D02*
X7666905Y-11933095D01*
X8095476Y-11685476D02*
X8114524Y-11685476D01*
X8133571Y-11695000D01*
X8143095Y-11704524D01*
X8152619Y-11723571D01*
X8162143Y-11761667D01*
X8162143Y-11809286D01*
X8152619Y-11847381D01*
X8143095Y-11866428D01*
X8133571Y-11875952D01*
X8114524Y-11885476D01*
X8095476Y-11885476D01*
X8076428Y-11875952D01*
X8066905Y-11866428D01*
X8057381Y-11847381D01*
X8047857Y-11809286D01*
X8047857Y-11761667D01*
X8057381Y-11723571D01*
X8066905Y-11704524D01*
X8076428Y-11695000D01*
X8095476Y-11685476D01*
X8247857Y-11866428D02*
X8257381Y-11875952D01*
X8247857Y-11885476D01*
X8238333Y-11875952D01*
X8247857Y-11866428D01*
X8247857Y-11885476D01*
X8447857Y-11885476D02*
X8333571Y-11885476D01*
X8390714Y-11885476D02*
X8390714Y-11685476D01*
X8371667Y-11714048D01*
X8352619Y-11733095D01*
X8333571Y-11742619D01*
X8524048Y-11704524D02*
X8533571Y-11695000D01*
X8552619Y-11685476D01*
X8600238Y-11685476D01*
X8619286Y-11695000D01*
X8628810Y-11704524D01*
X8638333Y-11723571D01*
X8638333Y-11742619D01*
X8628810Y-11771190D01*
X8514524Y-11885476D01*
X8638333Y-11885476D01*
X8809762Y-11685476D02*
X8771667Y-11685476D01*
X8752619Y-11695000D01*
X8743095Y-11704524D01*
X8724048Y-11733095D01*
X8714524Y-11771190D01*
X8714524Y-11847381D01*
X8724048Y-11866428D01*
X8733571Y-11875952D01*
X8752619Y-11885476D01*
X8790714Y-11885476D01*
X8809762Y-11875952D01*
X8819286Y-11866428D01*
X8828810Y-11847381D01*
X8828810Y-11799762D01*
X8819286Y-11780714D01*
X8809762Y-11771190D01*
X8790714Y-11761667D01*
X8752619Y-11761667D01*
X8733571Y-11771190D01*
X8724048Y-11780714D01*
X8714524Y-11799762D01*
X8952619Y-11685476D02*
X8971667Y-11685476D01*
X8990714Y-11695000D01*
X9000238Y-11704524D01*
X9009762Y-11723571D01*
X9019286Y-11761667D01*
X9019286Y-11809286D01*
X9009762Y-11847381D01*
X9000238Y-11866428D01*
X8990714Y-11875952D01*
X8971667Y-11885476D01*
X8952619Y-11885476D01*
X8933571Y-11875952D01*
X8924048Y-11866428D01*
X8914524Y-11847381D01*
X8905000Y-11809286D01*
X8905000Y-11761667D01*
X8914524Y-11723571D01*
X8924048Y-11704524D01*
X8933571Y-11695000D01*
X8952619Y-11685476D01*
X9095476Y-11685476D02*
X9095476Y-11723571D01*
X9171667Y-11685476D02*
X9171667Y-11723571D01*
X9466905Y-11961667D02*
X9457381Y-11952143D01*
X9438333Y-11923571D01*
X9428810Y-11904524D01*
X9419286Y-11875952D01*
X9409762Y-11828333D01*
X9409762Y-11790238D01*
X9419286Y-11742619D01*
X9428810Y-11714048D01*
X9438333Y-11695000D01*
X9457381Y-11666428D01*
X9466905Y-11656905D01*
X9628810Y-11752143D02*
X9628810Y-11885476D01*
X9581190Y-11675952D02*
X9533571Y-11818809D01*
X9657381Y-11818809D01*
X9885952Y-11885476D02*
X9885952Y-11685476D01*
X9971667Y-11885476D02*
X9971667Y-11780714D01*
X9962143Y-11761667D01*
X9943095Y-11752143D01*
X9914524Y-11752143D01*
X9895476Y-11761667D01*
X9885952Y-11771190D01*
X10095476Y-11885476D02*
X10076429Y-11875952D01*
X10066905Y-11866428D01*
X10057381Y-11847381D01*
X10057381Y-11790238D01*
X10066905Y-11771190D01*
X10076429Y-11761667D01*
X10095476Y-11752143D01*
X10124048Y-11752143D01*
X10143095Y-11761667D01*
X10152619Y-11771190D01*
X10162143Y-11790238D01*
X10162143Y-11847381D01*
X10152619Y-11866428D01*
X10143095Y-11875952D01*
X10124048Y-11885476D01*
X10095476Y-11885476D01*
X10276429Y-11885476D02*
X10257381Y-11875952D01*
X10247857Y-11856905D01*
X10247857Y-11685476D01*
X10428810Y-11875952D02*
X10409762Y-11885476D01*
X10371667Y-11885476D01*
X10352619Y-11875952D01*
X10343095Y-11856905D01*
X10343095Y-11780714D01*
X10352619Y-11761667D01*
X10371667Y-11752143D01*
X10409762Y-11752143D01*
X10428810Y-11761667D01*
X10438333Y-11780714D01*
X10438333Y-11799762D01*
X10343095Y-11818809D01*
X10514524Y-11875952D02*
X10533571Y-11885476D01*
X10571667Y-11885476D01*
X10590714Y-11875952D01*
X10600238Y-11856905D01*
X10600238Y-11847381D01*
X10590714Y-11828333D01*
X10571667Y-11818809D01*
X10543095Y-11818809D01*
X10524048Y-11809286D01*
X10514524Y-11790238D01*
X10514524Y-11780714D01*
X10524048Y-11761667D01*
X10543095Y-11752143D01*
X10571667Y-11752143D01*
X10590714Y-11761667D01*
X10666905Y-11961667D02*
X10676429Y-11952143D01*
X10695476Y-11923571D01*
X10705000Y-11904524D01*
X10714524Y-11875952D01*
X10724048Y-11828333D01*
X10724048Y-11790238D01*
X10714524Y-11742619D01*
X10705000Y-11714048D01*
X10695476Y-11695000D01*
X10676429Y-11666428D01*
X10666905Y-11656905D01*
X11028810Y-11961667D02*
X11019286Y-11952143D01*
X11000238Y-11923571D01*
X10990714Y-11904524D01*
X10981190Y-11875952D01*
X10971667Y-11828333D01*
X10971667Y-11790238D01*
X10981190Y-11742619D01*
X10990714Y-11714048D01*
X11000238Y-11695000D01*
X11019286Y-11666428D01*
X11028810Y-11656905D01*
X11105000Y-11752143D02*
X11105000Y-11885476D01*
X11105000Y-11771190D02*
X11114524Y-11761667D01*
X11133571Y-11752143D01*
X11162143Y-11752143D01*
X11181190Y-11761667D01*
X11190714Y-11780714D01*
X11190714Y-11885476D01*
X11314524Y-11885476D02*
X11295476Y-11875952D01*
X11285952Y-11866428D01*
X11276428Y-11847381D01*
X11276428Y-11790238D01*
X11285952Y-11771190D01*
X11295476Y-11761667D01*
X11314524Y-11752143D01*
X11343095Y-11752143D01*
X11362143Y-11761667D01*
X11371667Y-11771190D01*
X11381190Y-11790238D01*
X11381190Y-11847381D01*
X11371667Y-11866428D01*
X11362143Y-11875952D01*
X11343095Y-11885476D01*
X11314524Y-11885476D01*
X11438333Y-11752143D02*
X11514524Y-11752143D01*
X11466905Y-11685476D02*
X11466905Y-11856905D01*
X11476428Y-11875952D01*
X11495476Y-11885476D01*
X11514524Y-11885476D01*
X11733571Y-11752143D02*
X11733571Y-11952143D01*
X11733571Y-11761667D02*
X11752619Y-11752143D01*
X11790714Y-11752143D01*
X11809762Y-11761667D01*
X11819286Y-11771190D01*
X11828809Y-11790238D01*
X11828809Y-11847381D01*
X11819286Y-11866428D01*
X11809762Y-11875952D01*
X11790714Y-11885476D01*
X11752619Y-11885476D01*
X11733571Y-11875952D01*
X11943095Y-11885476D02*
X11924048Y-11875952D01*
X11914524Y-11856905D01*
X11914524Y-11685476D01*
X12105000Y-11885476D02*
X12105000Y-11780714D01*
X12095476Y-11761667D01*
X12076428Y-11752143D01*
X12038333Y-11752143D01*
X12019286Y-11761667D01*
X12105000Y-11875952D02*
X12085952Y-11885476D01*
X12038333Y-11885476D01*
X12019286Y-11875952D01*
X12009762Y-11856905D01*
X12009762Y-11837857D01*
X12019286Y-11818809D01*
X12038333Y-11809286D01*
X12085952Y-11809286D01*
X12105000Y-11799762D01*
X12171667Y-11752143D02*
X12247857Y-11752143D01*
X12200238Y-11685476D02*
X12200238Y-11856905D01*
X12209762Y-11875952D01*
X12228809Y-11885476D01*
X12247857Y-11885476D01*
X12390714Y-11875952D02*
X12371667Y-11885476D01*
X12333571Y-11885476D01*
X12314524Y-11875952D01*
X12305000Y-11856905D01*
X12305000Y-11780714D01*
X12314524Y-11761667D01*
X12333571Y-11752143D01*
X12371667Y-11752143D01*
X12390714Y-11761667D01*
X12400238Y-11780714D01*
X12400238Y-11799762D01*
X12305000Y-11818809D01*
X12571667Y-11885476D02*
X12571667Y-11685476D01*
X12571667Y-11875952D02*
X12552619Y-11885476D01*
X12514524Y-11885476D01*
X12495476Y-11875952D01*
X12485952Y-11866428D01*
X12476428Y-11847381D01*
X12476428Y-11790238D01*
X12485952Y-11771190D01*
X12495476Y-11761667D01*
X12514524Y-11752143D01*
X12552619Y-11752143D01*
X12571667Y-11761667D01*
X12647857Y-11961667D02*
X12657381Y-11952143D01*
X12676428Y-11923571D01*
X12685952Y-11904524D01*
X12695476Y-11875952D01*
X12705000Y-11828333D01*
X12705000Y-11790238D01*
X12695476Y-11742619D01*
X12685952Y-11714048D01*
X12676428Y-11695000D01*
X12657381Y-11666428D01*
X12647857Y-11656905D01*
M02*
