G04 #@! TF.GenerationSoftware,KiCad,Pcbnew,(6.0.7)*
G04 #@! TF.CreationDate,2022-10-27T11:50:25+02:00*
G04 #@! TF.ProjectId,pumpCon,70756d70-436f-46e2-9e6b-696361645f70,rev?*
G04 #@! TF.SameCoordinates,Original*
G04 #@! TF.FileFunction,Soldermask,Top*
G04 #@! TF.FilePolarity,Negative*
%FSLAX46Y46*%
G04 Gerber Fmt 4.6, Leading zero omitted, Abs format (unit mm)*
G04 Created by KiCad (PCBNEW (6.0.7)) date 2022-10-27 11:50:25*
%MOMM*%
%LPD*%
G01*
G04 APERTURE LIST*
G04 Aperture macros list*
%AMRoundRect*
0 Rectangle with rounded corners*
0 $1 Rounding radius*
0 $2 $3 $4 $5 $6 $7 $8 $9 X,Y pos of 4 corners*
0 Add a 4 corners polygon primitive as box body*
4,1,4,$2,$3,$4,$5,$6,$7,$8,$9,$2,$3,0*
0 Add four circle primitives for the rounded corners*
1,1,$1+$1,$2,$3*
1,1,$1+$1,$4,$5*
1,1,$1+$1,$6,$7*
1,1,$1+$1,$8,$9*
0 Add four rect primitives between the rounded corners*
20,1,$1+$1,$2,$3,$4,$5,0*
20,1,$1+$1,$4,$5,$6,$7,0*
20,1,$1+$1,$6,$7,$8,$9,0*
20,1,$1+$1,$8,$9,$2,$3,0*%
G04 Aperture macros list end*
%ADD10RoundRect,0.050000X-0.200000X-0.700000X0.200000X-0.700000X0.200000X0.700000X-0.200000X0.700000X0*%
%ADD11O,1.150000X2.000000*%
%ADD12RoundRect,0.050000X-0.875000X-0.950000X0.875000X-0.950000X0.875000X0.950000X-0.875000X0.950000X0*%
%ADD13RoundRect,0.050000X-0.575000X-0.725000X0.575000X-0.725000X0.575000X0.725000X-0.575000X0.725000X0*%
%ADD14RoundRect,0.300000X0.620000X0.845000X-0.620000X0.845000X-0.620000X-0.845000X0.620000X-0.845000X0*%
%ADD15O,1.840000X2.290000*%
%ADD16RoundRect,0.275000X-0.250000X0.225000X-0.250000X-0.225000X0.250000X-0.225000X0.250000X0.225000X0*%
%ADD17RoundRect,0.300000X-0.600000X-0.725000X0.600000X-0.725000X0.600000X0.725000X-0.600000X0.725000X0*%
%ADD18O,1.800000X2.050000*%
%ADD19RoundRect,0.250000X-0.200000X-0.275000X0.200000X-0.275000X0.200000X0.275000X-0.200000X0.275000X0*%
%ADD20RoundRect,0.112500X0.350000X0.062500X-0.350000X0.062500X-0.350000X-0.062500X0.350000X-0.062500X0*%
%ADD21RoundRect,0.050000X0.850000X1.250000X-0.850000X1.250000X-0.850000X-1.250000X0.850000X-1.250000X0*%
%ADD22RoundRect,0.050000X-0.850000X0.850000X-0.850000X-0.850000X0.850000X-0.850000X0.850000X0.850000X0*%
%ADD23O,1.800000X1.800000*%
%ADD24RoundRect,0.300000X0.725000X-0.600000X0.725000X0.600000X-0.725000X0.600000X-0.725000X-0.600000X0*%
%ADD25O,2.050000X1.800000*%
%ADD26RoundRect,0.250000X-0.275000X0.200000X-0.275000X-0.200000X0.275000X-0.200000X0.275000X0.200000X0*%
%ADD27RoundRect,0.050000X0.850000X0.850000X-0.850000X0.850000X-0.850000X-0.850000X0.850000X-0.850000X0*%
%ADD28RoundRect,0.300000X0.750000X-0.600000X0.750000X0.600000X-0.750000X0.600000X-0.750000X-0.600000X0*%
%ADD29O,2.100000X1.800000*%
%ADD30RoundRect,0.250000X0.275000X-0.200000X0.275000X0.200000X-0.275000X0.200000X-0.275000X-0.200000X0*%
%ADD31RoundRect,0.300000X-0.845000X0.620000X-0.845000X-0.620000X0.845000X-0.620000X0.845000X0.620000X0*%
%ADD32O,2.290000X1.840000*%
%ADD33C,3.300000*%
%ADD34RoundRect,0.300000X0.325000X0.650000X-0.325000X0.650000X-0.325000X-0.650000X0.325000X-0.650000X0*%
%ADD35RoundRect,0.268750X-0.256250X0.218750X-0.256250X-0.218750X0.256250X-0.218750X0.256250X0.218750X0*%
%ADD36RoundRect,0.050000X0.300000X0.225000X-0.300000X0.225000X-0.300000X-0.225000X0.300000X-0.225000X0*%
%ADD37RoundRect,0.050000X-0.800000X-0.800000X0.800000X-0.800000X0.800000X0.800000X-0.800000X0.800000X0*%
%ADD38C,1.700000*%
%ADD39RoundRect,0.300000X1.100000X-0.325000X1.100000X0.325000X-1.100000X0.325000X-1.100000X-0.325000X0*%
%ADD40RoundRect,0.050000X-0.800000X0.800000X-0.800000X-0.800000X0.800000X-0.800000X0.800000X0.800000X0*%
%ADD41RoundRect,0.275000X-0.225000X-0.250000X0.225000X-0.250000X0.225000X0.250000X-0.225000X0.250000X0*%
%ADD42RoundRect,0.050000X-1.450000X-2.700000X1.450000X-2.700000X1.450000X2.700000X-1.450000X2.700000X0*%
%ADD43RoundRect,0.250000X0.200000X0.275000X-0.200000X0.275000X-0.200000X-0.275000X0.200000X-0.275000X0*%
%ADD44RoundRect,0.100000X0.387500X0.050000X-0.387500X0.050000X-0.387500X-0.050000X0.387500X-0.050000X0*%
%ADD45RoundRect,0.100000X0.050000X0.387500X-0.050000X0.387500X-0.050000X-0.387500X0.050000X-0.387500X0*%
%ADD46RoundRect,0.050000X1.600000X1.600000X-1.600000X1.600000X-1.600000X-1.600000X1.600000X-1.600000X0*%
%ADD47RoundRect,0.050000X-2.700000X1.450000X-2.700000X-1.450000X2.700000X-1.450000X2.700000X1.450000X0*%
%ADD48RoundRect,0.200000X0.512500X0.150000X-0.512500X0.150000X-0.512500X-0.150000X0.512500X-0.150000X0*%
%ADD49RoundRect,0.300000X0.325000X1.100000X-0.325000X1.100000X-0.325000X-1.100000X0.325000X-1.100000X0*%
%ADD50RoundRect,0.275000X0.250000X-0.225000X0.250000X0.225000X-0.250000X0.225000X-0.250000X-0.225000X0*%
G04 APERTURE END LIST*
D10*
X67950000Y-107400000D03*
X68600000Y-107400000D03*
X69250000Y-107400000D03*
X69900000Y-107400000D03*
X70550000Y-107400000D03*
D11*
X72825000Y-110050000D03*
X65675000Y-110050000D03*
D12*
X70375000Y-110050000D03*
X68125000Y-110050000D03*
D13*
X71570000Y-107820000D03*
X66930000Y-107820000D03*
D14*
X101770000Y-64680000D03*
D15*
X99230000Y-64680000D03*
D16*
X75440000Y-107775000D03*
X75440000Y-109325000D03*
D17*
X67800000Y-77000000D03*
D18*
X70300000Y-77000000D03*
X72800000Y-77000000D03*
X75300000Y-77000000D03*
X77800000Y-77000000D03*
D19*
X69975000Y-104725000D03*
X71625000Y-104725000D03*
D17*
X67800000Y-81500000D03*
D18*
X70300000Y-81500000D03*
X72800000Y-81500000D03*
X75300000Y-81500000D03*
X77800000Y-81500000D03*
D20*
X83675000Y-91300000D03*
X83675000Y-90800000D03*
X83675000Y-90300000D03*
X83675000Y-89800000D03*
X83675000Y-89300000D03*
X80750000Y-89300000D03*
X80750000Y-89800000D03*
X80750000Y-90300000D03*
X80750000Y-90800000D03*
X80750000Y-91300000D03*
D21*
X82212500Y-90300000D03*
D22*
X86475000Y-99800000D03*
D23*
X83935000Y-99800000D03*
X81395000Y-99800000D03*
D20*
X83712500Y-82300000D03*
X83712500Y-81800000D03*
X83712500Y-81300000D03*
X83712500Y-80800000D03*
X83712500Y-80300000D03*
X80787500Y-80300000D03*
X80787500Y-80800000D03*
X80787500Y-81300000D03*
X80787500Y-81800000D03*
X80787500Y-82300000D03*
D21*
X82250000Y-81300000D03*
D19*
X88375000Y-105300000D03*
X90025000Y-105300000D03*
D24*
X60800000Y-86100000D03*
D25*
X60800000Y-83600000D03*
X60800000Y-81100000D03*
D20*
X83712500Y-73300000D03*
X83712500Y-72800000D03*
X83712500Y-72300000D03*
X83712500Y-71800000D03*
X83712500Y-71300000D03*
X80787500Y-71300000D03*
X80787500Y-71800000D03*
X80787500Y-72300000D03*
X80787500Y-72800000D03*
X80787500Y-73300000D03*
D21*
X82250000Y-72300000D03*
D20*
X83712500Y-96500000D03*
X83712500Y-96000000D03*
X83712500Y-95500000D03*
X83712500Y-95000000D03*
X83712500Y-94500000D03*
X80787500Y-94500000D03*
X80787500Y-95000000D03*
X80787500Y-95500000D03*
X80787500Y-96000000D03*
X80787500Y-96500000D03*
D21*
X82250000Y-95500000D03*
D20*
X83712500Y-87800000D03*
X83712500Y-87300000D03*
X83712500Y-86800000D03*
X83712500Y-86300000D03*
X83712500Y-85800000D03*
X80787500Y-85800000D03*
X80787500Y-86300000D03*
X80787500Y-86800000D03*
X80787500Y-87300000D03*
X80787500Y-87800000D03*
D21*
X82250000Y-86800000D03*
D26*
X87250000Y-104925000D03*
X87250000Y-106575000D03*
D27*
X89175000Y-109850000D03*
D23*
X89175000Y-107310000D03*
D17*
X67800000Y-90500000D03*
D18*
X70300000Y-90500000D03*
X72800000Y-90500000D03*
X75300000Y-90500000D03*
X77800000Y-90500000D03*
D28*
X60800000Y-94200000D03*
D29*
X60800000Y-91700000D03*
D14*
X101720000Y-76230000D03*
D15*
X99180000Y-76230000D03*
D17*
X67800000Y-86000000D03*
D18*
X70300000Y-86000000D03*
X72800000Y-86000000D03*
X75300000Y-86000000D03*
X77800000Y-86000000D03*
D30*
X76550000Y-106740000D03*
X76550000Y-105090000D03*
D31*
X93580000Y-104960000D03*
D32*
X93580000Y-107500000D03*
X93580000Y-110040000D03*
D33*
X106000000Y-64500000D03*
D34*
X83825000Y-66050000D03*
X80875000Y-66050000D03*
D17*
X67800000Y-63500000D03*
D18*
X70300000Y-63500000D03*
X72800000Y-63500000D03*
X75300000Y-63500000D03*
X77800000Y-63500000D03*
D35*
X89900000Y-102712500D03*
X89900000Y-104287500D03*
D36*
X71800000Y-101950000D03*
X69700000Y-101950000D03*
D34*
X83825000Y-92900000D03*
X80875000Y-92900000D03*
D17*
X67800000Y-68000000D03*
D18*
X70300000Y-68000000D03*
X72800000Y-68000000D03*
X75300000Y-68000000D03*
X77800000Y-68000000D03*
D19*
X70275000Y-99250000D03*
X71925000Y-99250000D03*
X69975000Y-105900000D03*
X71625000Y-105900000D03*
X70262500Y-100350000D03*
X71912500Y-100350000D03*
D37*
X99950000Y-86500000D03*
D38*
X102450000Y-86500000D03*
D39*
X99600000Y-72475000D03*
X99600000Y-69525000D03*
D34*
X83825000Y-75050000D03*
X80875000Y-75050000D03*
D33*
X62000000Y-108500000D03*
D40*
X105700000Y-80217621D03*
D38*
X105700000Y-82717621D03*
D41*
X70312500Y-98100000D03*
X71862500Y-98100000D03*
D16*
X63950000Y-98525000D03*
X63950000Y-100075000D03*
D28*
X60800000Y-102350000D03*
D29*
X60800000Y-99850000D03*
D42*
X86300000Y-68050000D03*
X96200000Y-68050000D03*
D20*
X83712500Y-64300000D03*
X83712500Y-63800000D03*
X83712500Y-63300000D03*
X83712500Y-62800000D03*
X83712500Y-62300000D03*
X80787500Y-62300000D03*
X80787500Y-62800000D03*
X80787500Y-63300000D03*
X80787500Y-63800000D03*
X80787500Y-64300000D03*
D21*
X82250000Y-63300000D03*
D26*
X76550000Y-107725000D03*
X76550000Y-109375000D03*
D17*
X67800000Y-95000000D03*
D18*
X70300000Y-95000000D03*
X72800000Y-95000000D03*
X75300000Y-95000000D03*
X77800000Y-95000000D03*
D43*
X75325000Y-103950000D03*
X73675000Y-103950000D03*
D44*
X85637500Y-108500000D03*
X85637500Y-108100000D03*
X85637500Y-107700000D03*
X85637500Y-107300000D03*
X85637500Y-106900000D03*
X85637500Y-106500000D03*
X85637500Y-106100000D03*
X85637500Y-105700000D03*
X85637500Y-105300000D03*
X85637500Y-104900000D03*
X85637500Y-104500000D03*
X85637500Y-104100000D03*
X85637500Y-103700000D03*
X85637500Y-103300000D03*
D45*
X84800000Y-102462500D03*
X84400000Y-102462500D03*
X84000000Y-102462500D03*
X83600000Y-102462500D03*
X83200000Y-102462500D03*
X82800000Y-102462500D03*
X82400000Y-102462500D03*
X82000000Y-102462500D03*
X81600000Y-102462500D03*
X81200000Y-102462500D03*
X80800000Y-102462500D03*
X80400000Y-102462500D03*
X80000000Y-102462500D03*
X79600000Y-102462500D03*
D44*
X78762500Y-103300000D03*
X78762500Y-103700000D03*
X78762500Y-104100000D03*
X78762500Y-104500000D03*
X78762500Y-104900000D03*
X78762500Y-105300000D03*
X78762500Y-105700000D03*
X78762500Y-106100000D03*
X78762500Y-106500000D03*
X78762500Y-106900000D03*
X78762500Y-107300000D03*
X78762500Y-107700000D03*
X78762500Y-108100000D03*
X78762500Y-108500000D03*
D45*
X79600000Y-109337500D03*
X80000000Y-109337500D03*
X80400000Y-109337500D03*
X80800000Y-109337500D03*
X81200000Y-109337500D03*
X81600000Y-109337500D03*
X82000000Y-109337500D03*
X82400000Y-109337500D03*
X82800000Y-109337500D03*
X83200000Y-109337500D03*
X83600000Y-109337500D03*
X84000000Y-109337500D03*
X84400000Y-109337500D03*
X84800000Y-109337500D03*
D46*
X82200000Y-105900000D03*
D26*
X69087500Y-98025000D03*
X69087500Y-99675000D03*
D40*
X105650000Y-69517621D03*
D38*
X105650000Y-72017621D03*
D34*
X83825000Y-84050000D03*
X80875000Y-84050000D03*
D24*
X60800000Y-75350000D03*
D25*
X60800000Y-72850000D03*
X60800000Y-70350000D03*
D47*
X102400000Y-91750000D03*
X102400000Y-101650000D03*
D20*
X83712500Y-78800000D03*
X83712500Y-78300000D03*
X83712500Y-77800000D03*
X83712500Y-77300000D03*
X83712500Y-76800000D03*
X80787500Y-76800000D03*
X80787500Y-77300000D03*
X80787500Y-77800000D03*
X80787500Y-78300000D03*
X80787500Y-78800000D03*
D21*
X82250000Y-77800000D03*
D48*
X67637500Y-100200000D03*
X67637500Y-99250000D03*
X67637500Y-98300000D03*
X65362500Y-98300000D03*
X65362500Y-100200000D03*
D49*
X101525000Y-81600000D03*
X98575000Y-81600000D03*
D20*
X83712500Y-69800000D03*
X83712500Y-69300000D03*
X83712500Y-68800000D03*
X83712500Y-68300000D03*
X83712500Y-67800000D03*
X80787500Y-67800000D03*
X80787500Y-68300000D03*
X80787500Y-68800000D03*
X80787500Y-69300000D03*
X80787500Y-69800000D03*
D21*
X82250000Y-68800000D03*
D19*
X85675000Y-110600000D03*
X87325000Y-110600000D03*
D30*
X87250000Y-109225000D03*
X87250000Y-107575000D03*
D17*
X67800000Y-72500000D03*
D18*
X70300000Y-72500000D03*
X72800000Y-72500000D03*
X75300000Y-72500000D03*
X77800000Y-72500000D03*
D50*
X75450000Y-106725000D03*
X75450000Y-105175000D03*
D26*
X67700000Y-104175000D03*
X67700000Y-105825000D03*
D42*
X86300000Y-81800000D03*
X96200000Y-81800000D03*
D33*
X106000000Y-108500000D03*
D26*
X66550000Y-104175000D03*
X66550000Y-105825000D03*
D33*
X62000000Y-64500000D03*
D31*
X99780000Y-104960000D03*
D32*
X99780000Y-107500000D03*
X99780000Y-110040000D03*
G36*
X75949718Y-109013210D02*
G01*
X75957172Y-109029196D01*
X75957342Y-109029780D01*
X75960634Y-109054793D01*
X75979154Y-109086871D01*
X76014517Y-109096348D01*
X76042516Y-109080183D01*
X76044516Y-109080183D01*
X76045516Y-109081915D01*
X76045478Y-109082305D01*
X76027000Y-109175199D01*
X76027000Y-109574801D01*
X76041563Y-109648013D01*
X76040920Y-109649907D01*
X76038958Y-109650297D01*
X76037773Y-109649215D01*
X76034955Y-109642871D01*
X76008108Y-109617349D01*
X75971470Y-109618276D01*
X75948647Y-109640684D01*
X75946711Y-109641184D01*
X75945309Y-109639757D01*
X75945284Y-109638867D01*
X75963000Y-109549801D01*
X75963000Y-109100199D01*
X75945943Y-109014445D01*
X75946586Y-109012551D01*
X75948548Y-109012161D01*
X75949718Y-109013210D01*
G37*
G36*
X76041172Y-107450634D02*
G01*
X76041519Y-107452204D01*
X76027000Y-107525199D01*
X76027000Y-107924801D01*
X76045915Y-108019892D01*
X76046856Y-108021301D01*
X76046987Y-108023297D01*
X76045324Y-108024408D01*
X76043815Y-108023862D01*
X76025459Y-108006412D01*
X75988861Y-108007338D01*
X75963425Y-108034095D01*
X75960675Y-108044902D01*
X75957342Y-108070220D01*
X75957172Y-108070804D01*
X75949718Y-108086790D01*
X75948079Y-108087937D01*
X75946267Y-108087092D01*
X75945943Y-108085555D01*
X75963000Y-107999801D01*
X75963000Y-107550199D01*
X75945268Y-107461055D01*
X75945911Y-107459161D01*
X75947873Y-107458771D01*
X75948581Y-107459190D01*
X75974601Y-107483033D01*
X76011215Y-107481434D01*
X76035007Y-107457160D01*
X76037728Y-107451005D01*
X76039343Y-107449826D01*
X76041172Y-107450634D01*
G37*
G36*
X75200199Y-107223000D02*
G01*
X75699801Y-107223000D01*
X75786889Y-107205677D01*
X75788783Y-107206320D01*
X75789173Y-107208282D01*
X75788754Y-107208990D01*
X75764029Y-107235973D01*
X75765629Y-107272599D01*
X75785289Y-107292259D01*
X75785807Y-107294191D01*
X75784393Y-107295605D01*
X75783485Y-107295635D01*
X75689801Y-107277000D01*
X75190199Y-107277000D01*
X75103111Y-107294323D01*
X75101217Y-107293680D01*
X75100827Y-107291718D01*
X75101246Y-107291010D01*
X75125971Y-107264027D01*
X75124371Y-107227401D01*
X75104711Y-107207741D01*
X75104193Y-107205809D01*
X75105607Y-107204395D01*
X75106515Y-107204365D01*
X75200199Y-107223000D01*
G37*
G36*
X76899907Y-107174080D02*
G01*
X76900297Y-107176042D01*
X76899215Y-107177227D01*
X76876606Y-107187270D01*
X76876455Y-107188690D01*
X76875814Y-107189259D01*
X76851537Y-107202828D01*
X76841572Y-107238055D01*
X76859500Y-107270130D01*
X76874774Y-107276447D01*
X76875442Y-107277316D01*
X76898993Y-107287728D01*
X76900172Y-107289343D01*
X76899364Y-107291172D01*
X76897794Y-107291519D01*
X76824801Y-107277000D01*
X76275199Y-107277000D01*
X76201987Y-107291563D01*
X76200093Y-107290920D01*
X76199703Y-107288958D01*
X76200785Y-107287773D01*
X76223394Y-107277730D01*
X76223545Y-107276310D01*
X76224186Y-107275741D01*
X76248463Y-107262172D01*
X76258428Y-107226945D01*
X76240500Y-107194870D01*
X76225226Y-107188553D01*
X76224558Y-107187684D01*
X76201007Y-107177272D01*
X76199828Y-107175657D01*
X76200636Y-107173828D01*
X76202206Y-107173481D01*
X76275199Y-107188000D01*
X76824801Y-107188000D01*
X76898013Y-107173437D01*
X76899907Y-107174080D01*
G37*
G36*
X75959718Y-106413213D02*
G01*
X75966909Y-106428633D01*
X75994219Y-106453659D01*
X76030833Y-106452060D01*
X76048640Y-106433893D01*
X76050566Y-106433356D01*
X76051995Y-106434756D01*
X76051731Y-106436404D01*
X76045915Y-106445108D01*
X76027000Y-106540199D01*
X76027000Y-106939801D01*
X76044709Y-107028829D01*
X76044066Y-107030723D01*
X76042104Y-107031113D01*
X76041369Y-107030669D01*
X76020948Y-107011256D01*
X75984309Y-107012184D01*
X75960111Y-107035943D01*
X75959717Y-107036787D01*
X75958079Y-107037933D01*
X75956266Y-107037088D01*
X75955943Y-107035551D01*
X75973000Y-106949801D01*
X75973000Y-106500199D01*
X75955943Y-106414448D01*
X75956586Y-106412554D01*
X75958548Y-106412164D01*
X75959718Y-106413213D01*
G37*
G36*
X76041172Y-104815635D02*
G01*
X76041519Y-104817205D01*
X76027000Y-104890199D01*
X76027000Y-105289801D01*
X76045915Y-105384892D01*
X76085507Y-105444146D01*
X76085638Y-105446142D01*
X76083975Y-105447253D01*
X76082431Y-105446672D01*
X76068264Y-105432530D01*
X76067849Y-105431927D01*
X76063574Y-105422301D01*
X76036727Y-105396780D01*
X76000129Y-105397706D01*
X75974693Y-105424463D01*
X75971943Y-105435271D01*
X75967342Y-105470219D01*
X75967172Y-105470803D01*
X75959718Y-105486788D01*
X75958079Y-105487935D01*
X75956267Y-105487090D01*
X75955943Y-105485553D01*
X75973000Y-105399801D01*
X75973000Y-104950199D01*
X75952182Y-104845541D01*
X75947138Y-104837992D01*
X75947007Y-104835996D01*
X75948670Y-104834885D01*
X75950152Y-104835406D01*
X75971525Y-104854991D01*
X76008139Y-104853392D01*
X76031931Y-104829118D01*
X76037728Y-104816006D01*
X76039343Y-104814827D01*
X76041172Y-104815635D01*
G37*
G36*
X71725199Y-99773000D02*
G01*
X72124801Y-99773000D01*
X72203325Y-99757381D01*
X72205219Y-99758024D01*
X72205609Y-99759986D01*
X72205165Y-99760721D01*
X72181513Y-99785601D01*
X72182440Y-99822229D01*
X72201189Y-99840945D01*
X72201708Y-99842876D01*
X72200295Y-99844291D01*
X72199386Y-99844322D01*
X72112301Y-99827000D01*
X71712699Y-99827000D01*
X71634175Y-99842619D01*
X71632281Y-99841976D01*
X71631891Y-99840014D01*
X71632335Y-99839279D01*
X71655987Y-99814399D01*
X71655060Y-99777771D01*
X71636311Y-99759055D01*
X71635792Y-99757124D01*
X71637205Y-99755709D01*
X71638114Y-99755678D01*
X71725199Y-99773000D01*
G37*
G36*
X70075199Y-99773000D02*
G01*
X70474801Y-99773000D01*
X70553325Y-99757381D01*
X70555219Y-99758024D01*
X70555609Y-99759986D01*
X70555165Y-99760721D01*
X70531513Y-99785601D01*
X70532440Y-99822229D01*
X70551189Y-99840945D01*
X70551708Y-99842876D01*
X70550295Y-99844291D01*
X70549386Y-99844322D01*
X70462301Y-99827000D01*
X70062699Y-99827000D01*
X69984175Y-99842619D01*
X69982281Y-99841976D01*
X69981891Y-99840014D01*
X69982335Y-99839279D01*
X70005987Y-99814399D01*
X70005060Y-99777771D01*
X69986311Y-99759055D01*
X69985792Y-99757124D01*
X69987205Y-99755709D01*
X69988114Y-99755678D01*
X70075199Y-99773000D01*
G37*
M02*
