G04 #@! TF.GenerationSoftware,KiCad,Pcbnew,(6.0.7)*
G04 #@! TF.CreationDate,2022-10-27T11:55:22+02:00*
G04 #@! TF.ProjectId,soilMoistureSensor,736f696c-4d6f-4697-9374-75726553656e,rev?*
G04 #@! TF.SameCoordinates,Original*
G04 #@! TF.FileFunction,Soldermask,Bot*
G04 #@! TF.FilePolarity,Negative*
%FSLAX46Y46*%
G04 Gerber Fmt 4.6, Leading zero omitted, Abs format (unit mm)*
G04 Created by KiCad (PCBNEW (6.0.7)) date 2022-10-27 11:55:22*
%MOMM*%
%LPD*%
G01*
G04 APERTURE LIST*
G04 Aperture macros list*
%AMRoundRect*
0 Rectangle with rounded corners*
0 $1 Rounding radius*
0 $2 $3 $4 $5 $6 $7 $8 $9 X,Y pos of 4 corners*
0 Add a 4 corners polygon primitive as box body*
4,1,4,$2,$3,$4,$5,$6,$7,$8,$9,$2,$3,0*
0 Add four circle primitives for the rounded corners*
1,1,$1+$1,$2,$3*
1,1,$1+$1,$4,$5*
1,1,$1+$1,$6,$7*
1,1,$1+$1,$8,$9*
0 Add four rect primitives between the rounded corners*
20,1,$1+$1,$2,$3,$4,$5,0*
20,1,$1+$1,$4,$5,$6,$7,0*
20,1,$1+$1,$6,$7,$8,$9,0*
20,1,$1+$1,$8,$9,$2,$3,0*%
G04 Aperture macros list end*
%ADD10O,2.000000X1.150000*%
%ADD11RoundRect,0.050000X-0.850000X-0.850000X0.850000X-0.850000X0.850000X0.850000X-0.850000X0.850000X0*%
%ADD12O,1.800000X1.800000*%
%ADD13RoundRect,0.275000X0.225000X0.250000X-0.225000X0.250000X-0.225000X-0.250000X0.225000X-0.250000X0*%
%ADD14RoundRect,0.275000X-0.225000X-0.250000X0.225000X-0.250000X0.225000X0.250000X-0.225000X0.250000X0*%
%ADD15RoundRect,0.250000X-0.275000X0.200000X-0.275000X-0.200000X0.275000X-0.200000X0.275000X0.200000X0*%
%ADD16RoundRect,0.250000X-0.200000X-0.275000X0.200000X-0.275000X0.200000X0.275000X-0.200000X0.275000X0*%
%ADD17RoundRect,0.275000X0.250000X-0.225000X0.250000X0.225000X-0.250000X0.225000X-0.250000X-0.225000X0*%
%ADD18RoundRect,0.250000X0.200000X0.275000X-0.200000X0.275000X-0.200000X-0.275000X0.200000X-0.275000X0*%
%ADD19RoundRect,0.275000X-0.250000X0.225000X-0.250000X-0.225000X0.250000X-0.225000X0.250000X0.225000X0*%
%ADD20RoundRect,0.250000X0.275000X-0.200000X0.275000X0.200000X-0.275000X0.200000X-0.275000X-0.200000X0*%
%ADD21RoundRect,0.050000X0.375000X0.150000X-0.375000X0.150000X-0.375000X-0.150000X0.375000X-0.150000X0*%
%ADD22RoundRect,0.050000X0.150000X0.850000X-0.150000X0.850000X-0.150000X-0.850000X0.150000X-0.850000X0*%
%ADD23RoundRect,0.200000X-0.150000X0.512500X-0.150000X-0.512500X0.150000X-0.512500X0.150000X0.512500X0*%
%ADD24RoundRect,0.050000X-0.225000X0.300000X-0.225000X-0.300000X0.225000X-0.300000X0.225000X0.300000X0*%
%ADD25RoundRect,0.050000X0.850000X0.850000X-0.850000X0.850000X-0.850000X-0.850000X0.850000X-0.850000X0*%
%ADD26C,1.600000*%
%ADD27RoundRect,0.050000X-0.500000X0.575000X-0.500000X-0.575000X0.500000X-0.575000X0.500000X0.575000X0*%
%ADD28RoundRect,0.300000X-0.620000X-0.845000X0.620000X-0.845000X0.620000X0.845000X-0.620000X0.845000X0*%
%ADD29O,1.840000X2.290000*%
%ADD30RoundRect,0.050000X-0.150000X-0.400000X0.150000X-0.400000X0.150000X0.400000X-0.150000X0.400000X0*%
%ADD31RoundRect,0.150000X0.712500X0.100000X-0.712500X0.100000X-0.712500X-0.100000X0.712500X-0.100000X0*%
%ADD32RoundRect,0.268750X-0.218750X-0.256250X0.218750X-0.256250X0.218750X0.256250X-0.218750X0.256250X0*%
%ADD33RoundRect,0.050000X0.150000X0.400000X-0.150000X0.400000X-0.150000X-0.400000X0.150000X-0.400000X0*%
G04 APERTURE END LIST*
D10*
X235000000Y-46475000D03*
X235000000Y-39325000D03*
D11*
X216475000Y-45875000D03*
D12*
X216475000Y-48415000D03*
X216475000Y-50955000D03*
D13*
X226050000Y-51900000D03*
X224500000Y-51900000D03*
D14*
X233625000Y-61700000D03*
X235175000Y-61700000D03*
D15*
X228150000Y-52225000D03*
X228150000Y-53875000D03*
D16*
X233315000Y-43300000D03*
X234965000Y-43300000D03*
D17*
X226146428Y-58975000D03*
X226146428Y-57425000D03*
D18*
X235225000Y-49500000D03*
X233575000Y-49500000D03*
D19*
X218600000Y-57250000D03*
X218600000Y-58800000D03*
D16*
X228450000Y-45000000D03*
X230100000Y-45000000D03*
D17*
X218100000Y-48475000D03*
X218100000Y-46925000D03*
D13*
X226050000Y-48600000D03*
X224500000Y-48600000D03*
D20*
X220475000Y-62400000D03*
X220475000Y-60750000D03*
D21*
X226525000Y-46050000D03*
X226525000Y-46550000D03*
X226525000Y-47050000D03*
X226525000Y-47550000D03*
X223625000Y-47550000D03*
X223625000Y-47050000D03*
X223625000Y-46550000D03*
X223625000Y-46050000D03*
D22*
X225075000Y-46800000D03*
D17*
X231600000Y-52175000D03*
X231600000Y-50625000D03*
D20*
X235200000Y-52225000D03*
X235200000Y-50575000D03*
D13*
X226050000Y-53000000D03*
X224500000Y-53000000D03*
D17*
X232550000Y-49600000D03*
X232550000Y-48050000D03*
D23*
X233750000Y-57962500D03*
X234700000Y-57962500D03*
X235650000Y-57962500D03*
X235650000Y-60237500D03*
X233750000Y-60237500D03*
D14*
X220900000Y-50900000D03*
X222450000Y-50900000D03*
X221600000Y-52600000D03*
X223150000Y-52600000D03*
D24*
X232000000Y-41050000D03*
X232000000Y-43150000D03*
D20*
X216046428Y-62500000D03*
X216046428Y-60850000D03*
D25*
X228650000Y-46850000D03*
D12*
X228650000Y-49390000D03*
D13*
X221150000Y-45000000D03*
X219600000Y-45000000D03*
X230675000Y-62400000D03*
X229125000Y-62400000D03*
D16*
X233325000Y-44500000D03*
X234975000Y-44500000D03*
X218675000Y-54800000D03*
X220325000Y-54800000D03*
D26*
X216400000Y-53300000D03*
D15*
X219200000Y-48475000D03*
X219200000Y-50125000D03*
D20*
X225275000Y-62400000D03*
X225275000Y-60750000D03*
D14*
X218225000Y-51200000D03*
X219775000Y-51200000D03*
X221325000Y-56175000D03*
X222875000Y-56175000D03*
D18*
X226225000Y-55600000D03*
X224575000Y-55600000D03*
D20*
X231900000Y-62475000D03*
X231900000Y-60825000D03*
D15*
X224075000Y-60750000D03*
X224075000Y-62400000D03*
D17*
X222875000Y-62350000D03*
X222875000Y-60800000D03*
D27*
X222375000Y-47850000D03*
X222375000Y-49600000D03*
X220975000Y-49600000D03*
X220975000Y-47850000D03*
D14*
X223100000Y-45000000D03*
X224650000Y-45000000D03*
D18*
X229800000Y-55300000D03*
X228150000Y-55300000D03*
D15*
X229250000Y-52225000D03*
X229250000Y-53875000D03*
D13*
X226050000Y-50800000D03*
X224500000Y-50800000D03*
D19*
X234100000Y-50625000D03*
X234100000Y-52175000D03*
X221675000Y-60800000D03*
X221675000Y-62350000D03*
D15*
X231450000Y-48000000D03*
X231450000Y-49650000D03*
D13*
X221775000Y-46500000D03*
X220225000Y-46500000D03*
D20*
X219275000Y-62400000D03*
X219275000Y-60750000D03*
D17*
X217175000Y-62450000D03*
X217175000Y-60900000D03*
D28*
X224575000Y-41320000D03*
D29*
X227115000Y-41320000D03*
X229655000Y-41320000D03*
D30*
X230696428Y-56625000D03*
X231196428Y-56625000D03*
X231696428Y-56625000D03*
X232196428Y-56625000D03*
X232196428Y-59725000D03*
X231696428Y-59725000D03*
X231196428Y-59725000D03*
X230696428Y-59725000D03*
D31*
X224387500Y-57400000D03*
X224387500Y-58050000D03*
X224387500Y-58700000D03*
X224387500Y-59350000D03*
X220162500Y-59350000D03*
X220162500Y-58700000D03*
X220162500Y-58050000D03*
X220162500Y-57400000D03*
D13*
X226050000Y-49700000D03*
X224500000Y-49700000D03*
D32*
X231112500Y-54100000D03*
X232687500Y-54100000D03*
D33*
X217550000Y-59550000D03*
X217050000Y-59550000D03*
X216550000Y-59550000D03*
X216050000Y-59550000D03*
X216050000Y-56450000D03*
X216550000Y-56450000D03*
X217050000Y-56450000D03*
X217550000Y-56450000D03*
D16*
X218675000Y-56000000D03*
X220325000Y-56000000D03*
D13*
X227350000Y-45000000D03*
X225800000Y-45000000D03*
D28*
X216575000Y-41320000D03*
D29*
X219115000Y-41320000D03*
X221655000Y-41320000D03*
D17*
X229746428Y-59050000D03*
X229746428Y-57500000D03*
D18*
X234975000Y-42100000D03*
X233325000Y-42100000D03*
D30*
X227196428Y-56453572D03*
X227696428Y-56453572D03*
X228196428Y-56453572D03*
X228696428Y-56453572D03*
X228696428Y-59553572D03*
X228196428Y-59553572D03*
X227696428Y-59553572D03*
X227196428Y-59553572D03*
D16*
X233325000Y-40900000D03*
X234975000Y-40900000D03*
D14*
X233875000Y-55650000D03*
X235425000Y-55650000D03*
D26*
X218700000Y-53300000D03*
G36*
X216668733Y-62137910D02*
G01*
X216669057Y-62139447D01*
X216652000Y-62225199D01*
X216652000Y-62674801D01*
X216669057Y-62760553D01*
X216668414Y-62762447D01*
X216666452Y-62762837D01*
X216665282Y-62761788D01*
X216657513Y-62745128D01*
X216630203Y-62720102D01*
X216593628Y-62721699D01*
X216568685Y-62748919D01*
X216567458Y-62754100D01*
X216567341Y-62754448D01*
X216558700Y-62773993D01*
X216557085Y-62775172D01*
X216555256Y-62774364D01*
X216554909Y-62772794D01*
X216569428Y-62699801D01*
X216569428Y-62300199D01*
X216554851Y-62226914D01*
X216555494Y-62225020D01*
X216557456Y-62224630D01*
X216558191Y-62225074D01*
X216585295Y-62250840D01*
X216621893Y-62249914D01*
X216647329Y-62223157D01*
X216650079Y-62212349D01*
X216657658Y-62154781D01*
X216657828Y-62154197D01*
X216665282Y-62138212D01*
X216666921Y-62137065D01*
X216668733Y-62137910D01*
G37*
G36*
X216558655Y-60575785D02*
G01*
X216568619Y-60598216D01*
X216570427Y-60598408D01*
X216570996Y-60599049D01*
X216584151Y-60622587D01*
X216619378Y-60632555D01*
X216651604Y-60614543D01*
X216657350Y-60605223D01*
X216665282Y-60588212D01*
X216666921Y-60587065D01*
X216668733Y-60587910D01*
X216669057Y-60589447D01*
X216652000Y-60675199D01*
X216652000Y-61124801D01*
X216669057Y-61210555D01*
X216668414Y-61212449D01*
X216666452Y-61212839D01*
X216665282Y-61211790D01*
X216657828Y-61195804D01*
X216657658Y-61195220D01*
X216650105Y-61137837D01*
X216631585Y-61105759D01*
X216596222Y-61096282D01*
X216564252Y-61114740D01*
X216558567Y-61124322D01*
X216556823Y-61125302D01*
X216555103Y-61124281D01*
X216554885Y-61122912D01*
X216569428Y-61049801D01*
X216569428Y-60650199D01*
X216554865Y-60576987D01*
X216555508Y-60575093D01*
X216557470Y-60574703D01*
X216558655Y-60575785D01*
G37*
G36*
X220893418Y-55751070D02*
G01*
X220893149Y-55752699D01*
X220847818Y-55820541D01*
X220827000Y-55925199D01*
X220827000Y-56424801D01*
X220827716Y-56428402D01*
X220827236Y-56429814D01*
X220828241Y-56431038D01*
X220844057Y-56510555D01*
X220843414Y-56512449D01*
X220841452Y-56512839D01*
X220840282Y-56511790D01*
X220832828Y-56495804D01*
X220832658Y-56495220D01*
X220824296Y-56431689D01*
X220824813Y-56430441D01*
X220824022Y-56429792D01*
X220805533Y-56397767D01*
X220770170Y-56388290D01*
X220738200Y-56406748D01*
X220732470Y-56416406D01*
X220732402Y-56416561D01*
X220731986Y-56417168D01*
X220717697Y-56431482D01*
X220715766Y-56432001D01*
X220714351Y-56430588D01*
X220714619Y-56428958D01*
X220754085Y-56369892D01*
X220773000Y-56274801D01*
X220773000Y-55757415D01*
X220774000Y-55755683D01*
X220776000Y-55755683D01*
X220776848Y-55756650D01*
X220791174Y-55791237D01*
X220824998Y-55805247D01*
X220859050Y-55791143D01*
X220868573Y-55777542D01*
X220873552Y-55766864D01*
X220873951Y-55766295D01*
X220890072Y-55750174D01*
X220892004Y-55749656D01*
X220893418Y-55751070D01*
G37*
G36*
X228659837Y-53590393D02*
G01*
X228682833Y-53612253D01*
X228719460Y-53611325D01*
X228740078Y-53590671D01*
X228742009Y-53590152D01*
X228743424Y-53591565D01*
X228743455Y-53592474D01*
X228727000Y-53675199D01*
X228727000Y-54074801D01*
X228743503Y-54157767D01*
X228742860Y-54159661D01*
X228740898Y-54160051D01*
X228740163Y-54159607D01*
X228717167Y-54137747D01*
X228680540Y-54138675D01*
X228659922Y-54159329D01*
X228657991Y-54159848D01*
X228656576Y-54158435D01*
X228656545Y-54157526D01*
X228673000Y-54074801D01*
X228673000Y-53675199D01*
X228656497Y-53592233D01*
X228657140Y-53590339D01*
X228659102Y-53589949D01*
X228659837Y-53590393D01*
G37*
G36*
X228659837Y-51940393D02*
G01*
X228682833Y-51962253D01*
X228719460Y-51961325D01*
X228740078Y-51940671D01*
X228742009Y-51940152D01*
X228743424Y-51941565D01*
X228743455Y-51942474D01*
X228727000Y-52025199D01*
X228727000Y-52424801D01*
X228743503Y-52507767D01*
X228742860Y-52509661D01*
X228740898Y-52510051D01*
X228740163Y-52509607D01*
X228717167Y-52487747D01*
X228680540Y-52488675D01*
X228659922Y-52509329D01*
X228657991Y-52509848D01*
X228656576Y-52508435D01*
X228656545Y-52507526D01*
X228673000Y-52424801D01*
X228673000Y-52025199D01*
X228656497Y-51942233D01*
X228657140Y-51940339D01*
X228659102Y-51939949D01*
X228659837Y-51940393D01*
G37*
G36*
X234609718Y-51863212D02*
G01*
X234617172Y-51879197D01*
X234617342Y-51879781D01*
X234618340Y-51887364D01*
X234636861Y-51919442D01*
X234672224Y-51928918D01*
X234704194Y-51910459D01*
X234709927Y-51900794D01*
X234717602Y-51883435D01*
X234718016Y-51882831D01*
X234732302Y-51868520D01*
X234734233Y-51868001D01*
X234735648Y-51869414D01*
X234735380Y-51871044D01*
X234695915Y-51930108D01*
X234677000Y-52025199D01*
X234677000Y-52424801D01*
X234692168Y-52501058D01*
X234691525Y-52502952D01*
X234689563Y-52503342D01*
X234688828Y-52502898D01*
X234662986Y-52478331D01*
X234626347Y-52479259D01*
X234607175Y-52498083D01*
X234605239Y-52498583D01*
X234603837Y-52497156D01*
X234603812Y-52496266D01*
X234623000Y-52399801D01*
X234623000Y-51950199D01*
X234605943Y-51864447D01*
X234606586Y-51862553D01*
X234608548Y-51862163D01*
X234609718Y-51863212D01*
G37*
G36*
X224817285Y-52405624D02*
G01*
X224817675Y-52407586D01*
X224817256Y-52408294D01*
X224794029Y-52433640D01*
X224795629Y-52470266D01*
X224816959Y-52491596D01*
X224817477Y-52493528D01*
X224816063Y-52494942D01*
X224815155Y-52494972D01*
X224724801Y-52477000D01*
X224275199Y-52477000D01*
X224184609Y-52495019D01*
X224182715Y-52494376D01*
X224182325Y-52492414D01*
X224182744Y-52491706D01*
X224205971Y-52466360D01*
X224204371Y-52429734D01*
X224183041Y-52408404D01*
X224182523Y-52406472D01*
X224183937Y-52405058D01*
X224184845Y-52405028D01*
X224275199Y-52423000D01*
X224724801Y-52423000D01*
X224815391Y-52404981D01*
X224817285Y-52405624D01*
G37*
G36*
X226367285Y-52405624D02*
G01*
X226367675Y-52407586D01*
X226367256Y-52408294D01*
X226344029Y-52433640D01*
X226345629Y-52470266D01*
X226366959Y-52491596D01*
X226367477Y-52493528D01*
X226366063Y-52494942D01*
X226365155Y-52494972D01*
X226274801Y-52477000D01*
X225825199Y-52477000D01*
X225734609Y-52495019D01*
X225732715Y-52494376D01*
X225732325Y-52492414D01*
X225732744Y-52491706D01*
X225755971Y-52466360D01*
X225754371Y-52429734D01*
X225733041Y-52408404D01*
X225732523Y-52406472D01*
X225733937Y-52405058D01*
X225734845Y-52405028D01*
X225825199Y-52423000D01*
X226274801Y-52423000D01*
X226365391Y-52404981D01*
X226367285Y-52405624D01*
G37*
G36*
X226367285Y-51305624D02*
G01*
X226367675Y-51307586D01*
X226367256Y-51308294D01*
X226344029Y-51333640D01*
X226345629Y-51370266D01*
X226366959Y-51391596D01*
X226367477Y-51393528D01*
X226366063Y-51394942D01*
X226365155Y-51394972D01*
X226274801Y-51377000D01*
X225825199Y-51377000D01*
X225734609Y-51395019D01*
X225732715Y-51394376D01*
X225732325Y-51392414D01*
X225732744Y-51391706D01*
X225755971Y-51366360D01*
X225754371Y-51329734D01*
X225733041Y-51308404D01*
X225732523Y-51306472D01*
X225733937Y-51305058D01*
X225734845Y-51305028D01*
X225825199Y-51323000D01*
X226274801Y-51323000D01*
X226365391Y-51304981D01*
X226367285Y-51305624D01*
G37*
G36*
X224817285Y-51305624D02*
G01*
X224817675Y-51307586D01*
X224817256Y-51308294D01*
X224794029Y-51333640D01*
X224795629Y-51370266D01*
X224816959Y-51391596D01*
X224817477Y-51393528D01*
X224816063Y-51394942D01*
X224815155Y-51394972D01*
X224724801Y-51377000D01*
X224275199Y-51377000D01*
X224184609Y-51395019D01*
X224182715Y-51394376D01*
X224182325Y-51392414D01*
X224182744Y-51391706D01*
X224205971Y-51366360D01*
X224204371Y-51329734D01*
X224183041Y-51308404D01*
X224182523Y-51306472D01*
X224183937Y-51305058D01*
X224184845Y-51305028D01*
X224275199Y-51323000D01*
X224724801Y-51323000D01*
X224815391Y-51304981D01*
X224817285Y-51305624D01*
G37*
G36*
X234692104Y-50298163D02*
G01*
X234692139Y-50299090D01*
X234677000Y-50375199D01*
X234677000Y-50774801D01*
X234695915Y-50869892D01*
X234735505Y-50929144D01*
X234735636Y-50931140D01*
X234733973Y-50932251D01*
X234732429Y-50931670D01*
X234718265Y-50917530D01*
X234717850Y-50916927D01*
X234710019Y-50899298D01*
X234683171Y-50873777D01*
X234646573Y-50874704D01*
X234621137Y-50901462D01*
X234618388Y-50912270D01*
X234617342Y-50920220D01*
X234617172Y-50920804D01*
X234609718Y-50936790D01*
X234608079Y-50937937D01*
X234606267Y-50937092D01*
X234605943Y-50935555D01*
X234623000Y-50849801D01*
X234623000Y-50400199D01*
X234603735Y-50303345D01*
X234604378Y-50301451D01*
X234606340Y-50301061D01*
X234607048Y-50301480D01*
X234629468Y-50322025D01*
X234666082Y-50320426D01*
X234688749Y-50297300D01*
X234690675Y-50296763D01*
X234692104Y-50298163D01*
G37*
G36*
X224817285Y-50205624D02*
G01*
X224817675Y-50207586D01*
X224817256Y-50208294D01*
X224794029Y-50233640D01*
X224795629Y-50270266D01*
X224816959Y-50291596D01*
X224817477Y-50293528D01*
X224816063Y-50294942D01*
X224815155Y-50294972D01*
X224724801Y-50277000D01*
X224275199Y-50277000D01*
X224184609Y-50295019D01*
X224182715Y-50294376D01*
X224182325Y-50292414D01*
X224182744Y-50291706D01*
X224205971Y-50266360D01*
X224204371Y-50229734D01*
X224183041Y-50208404D01*
X224182523Y-50206472D01*
X224183937Y-50205058D01*
X224184845Y-50205028D01*
X224275199Y-50223000D01*
X224724801Y-50223000D01*
X224815391Y-50204981D01*
X224817285Y-50205624D01*
G37*
G36*
X226367285Y-50205624D02*
G01*
X226367675Y-50207586D01*
X226367256Y-50208294D01*
X226344029Y-50233640D01*
X226345629Y-50270266D01*
X226366959Y-50291596D01*
X226367477Y-50293528D01*
X226366063Y-50294942D01*
X226365155Y-50294972D01*
X226274801Y-50277000D01*
X225825199Y-50277000D01*
X225734609Y-50295019D01*
X225732715Y-50294376D01*
X225732325Y-50292414D01*
X225732744Y-50291706D01*
X225755971Y-50266360D01*
X225754371Y-50229734D01*
X225733041Y-50208404D01*
X225732523Y-50206472D01*
X225733937Y-50205058D01*
X225734845Y-50205028D01*
X225825199Y-50223000D01*
X226274801Y-50223000D01*
X226365391Y-50204981D01*
X226367285Y-50205624D01*
G37*
G36*
X231882252Y-50041025D02*
G01*
X231881672Y-50042569D01*
X231875633Y-50048620D01*
X231861488Y-50082852D01*
X231875557Y-50116734D01*
X231903384Y-50130442D01*
X231920220Y-50132658D01*
X231920804Y-50132828D01*
X231936790Y-50140282D01*
X231937937Y-50141921D01*
X231937092Y-50143733D01*
X231935555Y-50144057D01*
X231849801Y-50127000D01*
X231350199Y-50127000D01*
X231245541Y-50147818D01*
X231177699Y-50193149D01*
X231175703Y-50193280D01*
X231174592Y-50191617D01*
X231175174Y-50190072D01*
X231183909Y-50181337D01*
X231198084Y-50147114D01*
X231184048Y-50113227D01*
X231155475Y-50099399D01*
X231119052Y-50095152D01*
X231118475Y-50094994D01*
X231101009Y-50087272D01*
X231099830Y-50085657D01*
X231100638Y-50083828D01*
X231102208Y-50083481D01*
X231175199Y-50098000D01*
X231724801Y-50098000D01*
X231819892Y-50079085D01*
X231879145Y-50039493D01*
X231881141Y-50039362D01*
X231882252Y-50041025D01*
G37*
G36*
X232043733Y-49287908D02*
G01*
X232044057Y-49289445D01*
X232027000Y-49375199D01*
X232027000Y-49824801D01*
X232046265Y-49921655D01*
X232045622Y-49923549D01*
X232043660Y-49923939D01*
X232042952Y-49923520D01*
X232020532Y-49902975D01*
X231983918Y-49904574D01*
X231961251Y-49927700D01*
X231959325Y-49928237D01*
X231957896Y-49926837D01*
X231957861Y-49925910D01*
X231973000Y-49849801D01*
X231973000Y-49450199D01*
X231954085Y-49355108D01*
X231914495Y-49295856D01*
X231914364Y-49293860D01*
X231916027Y-49292749D01*
X231917571Y-49293330D01*
X231931735Y-49307470D01*
X231932150Y-49308073D01*
X231939981Y-49325702D01*
X231966829Y-49351223D01*
X232003427Y-49350296D01*
X232028863Y-49323538D01*
X232031612Y-49312730D01*
X232032658Y-49304780D01*
X232032828Y-49304196D01*
X232040282Y-49288210D01*
X232041921Y-49287063D01*
X232043733Y-49287908D01*
G37*
G36*
X233141172Y-49150638D02*
G01*
X233141519Y-49152208D01*
X233127000Y-49225199D01*
X233127000Y-49774801D01*
X233145915Y-49869892D01*
X233157789Y-49887663D01*
X233157920Y-49889659D01*
X233156257Y-49890770D01*
X233154748Y-49890224D01*
X233130048Y-49866743D01*
X233093410Y-49867670D01*
X233069212Y-49891427D01*
X233059718Y-49911788D01*
X233058079Y-49912935D01*
X233056267Y-49912090D01*
X233055943Y-49910553D01*
X233073000Y-49824801D01*
X233073000Y-49375199D01*
X233052182Y-49270541D01*
X233006851Y-49202699D01*
X233006720Y-49200703D01*
X233008383Y-49199592D01*
X233009928Y-49200174D01*
X233026050Y-49216296D01*
X233026449Y-49216865D01*
X233032971Y-49230852D01*
X233060280Y-49255878D01*
X233096855Y-49254282D01*
X233121798Y-49227063D01*
X233124330Y-49216377D01*
X233129848Y-49169052D01*
X233130006Y-49168475D01*
X233137728Y-49151009D01*
X233139343Y-49149830D01*
X233141172Y-49150638D01*
G37*
G36*
X224817285Y-49105624D02*
G01*
X224817675Y-49107586D01*
X224817256Y-49108294D01*
X224794029Y-49133640D01*
X224795629Y-49170266D01*
X224816959Y-49191596D01*
X224817477Y-49193528D01*
X224816063Y-49194942D01*
X224815155Y-49194972D01*
X224724801Y-49177000D01*
X224275199Y-49177000D01*
X224184609Y-49195019D01*
X224182715Y-49194376D01*
X224182325Y-49192414D01*
X224182744Y-49191706D01*
X224205971Y-49166360D01*
X224204371Y-49129734D01*
X224183041Y-49108404D01*
X224182523Y-49106472D01*
X224183937Y-49105058D01*
X224184845Y-49105028D01*
X224275199Y-49123000D01*
X224724801Y-49123000D01*
X224815391Y-49104981D01*
X224817285Y-49105624D01*
G37*
G36*
X226367285Y-49105624D02*
G01*
X226367675Y-49107586D01*
X226367256Y-49108294D01*
X226344029Y-49133640D01*
X226345629Y-49170266D01*
X226366959Y-49191596D01*
X226367477Y-49193528D01*
X226366063Y-49194942D01*
X226365155Y-49194972D01*
X226274801Y-49177000D01*
X225825199Y-49177000D01*
X225734609Y-49195019D01*
X225732715Y-49194376D01*
X225732325Y-49192414D01*
X225732744Y-49191706D01*
X225755971Y-49166360D01*
X225754371Y-49129734D01*
X225733041Y-49108404D01*
X225732523Y-49106472D01*
X225733937Y-49105058D01*
X225734845Y-49105028D01*
X225825199Y-49123000D01*
X226274801Y-49123000D01*
X226365391Y-49104981D01*
X226367285Y-49105624D01*
G37*
G36*
X218609718Y-48163213D02*
G01*
X218613505Y-48171333D01*
X218640815Y-48196359D01*
X218677429Y-48194760D01*
X218692265Y-48179624D01*
X218694191Y-48179087D01*
X218695620Y-48180487D01*
X218695655Y-48181414D01*
X218677000Y-48275199D01*
X218677000Y-48674801D01*
X218695797Y-48769303D01*
X218695154Y-48771197D01*
X218693192Y-48771587D01*
X218692457Y-48771143D01*
X218674361Y-48753940D01*
X218637722Y-48754867D01*
X218613526Y-48778623D01*
X218609717Y-48786792D01*
X218608078Y-48787939D01*
X218606266Y-48787094D01*
X218605942Y-48785557D01*
X218623000Y-48699801D01*
X218623000Y-48250199D01*
X218605943Y-48164448D01*
X218606586Y-48162554D01*
X218608548Y-48162164D01*
X218609718Y-48163213D01*
G37*
G36*
X231961172Y-47722102D02*
G01*
X231987014Y-47746669D01*
X232023653Y-47745741D01*
X232042825Y-47726917D01*
X232044761Y-47726417D01*
X232046163Y-47727844D01*
X232046188Y-47728734D01*
X232027000Y-47825199D01*
X232027000Y-48274801D01*
X232044057Y-48360553D01*
X232043414Y-48362447D01*
X232041452Y-48362837D01*
X232040282Y-48361788D01*
X232032828Y-48345803D01*
X232032658Y-48345219D01*
X232031660Y-48337636D01*
X232013139Y-48305558D01*
X231977776Y-48296082D01*
X231945806Y-48314541D01*
X231940073Y-48324206D01*
X231932398Y-48341565D01*
X231931984Y-48342169D01*
X231917698Y-48356480D01*
X231915767Y-48356999D01*
X231914352Y-48355586D01*
X231914620Y-48353956D01*
X231954085Y-48294892D01*
X231973000Y-48199801D01*
X231973000Y-47800199D01*
X231957832Y-47723942D01*
X231958475Y-47722048D01*
X231960437Y-47721658D01*
X231961172Y-47722102D01*
G37*
M02*
