G04 #@! TF.GenerationSoftware,KiCad,Pcbnew,(6.0.7)*
G04 #@! TF.CreationDate,2022-10-27T11:55:22+02:00*
G04 #@! TF.ProjectId,soilMoistureSensor,736f696c-4d6f-4697-9374-75726553656e,rev?*
G04 #@! TF.SameCoordinates,Original*
G04 #@! TF.FileFunction,Copper,L2,Inr*
G04 #@! TF.FilePolarity,Positive*
%FSLAX46Y46*%
G04 Gerber Fmt 4.6, Leading zero omitted, Abs format (unit mm)*
G04 Created by KiCad (PCBNEW (6.0.7)) date 2022-10-27 11:55:22*
%MOMM*%
%LPD*%
G01*
G04 APERTURE LIST*
G04 Aperture macros list*
%AMRoundRect*
0 Rectangle with rounded corners*
0 $1 Rounding radius*
0 $2 $3 $4 $5 $6 $7 $8 $9 X,Y pos of 4 corners*
0 Add a 4 corners polygon primitive as box body*
4,1,4,$2,$3,$4,$5,$6,$7,$8,$9,$2,$3,0*
0 Add four circle primitives for the rounded corners*
1,1,$1+$1,$2,$3*
1,1,$1+$1,$4,$5*
1,1,$1+$1,$6,$7*
1,1,$1+$1,$8,$9*
0 Add four rect primitives between the rounded corners*
20,1,$1+$1,$2,$3,$4,$5,0*
20,1,$1+$1,$4,$5,$6,$7,0*
20,1,$1+$1,$6,$7,$8,$9,0*
20,1,$1+$1,$8,$9,$2,$3,0*%
G04 Aperture macros list end*
G04 #@! TA.AperFunction,ComponentPad*
%ADD10O,1.900000X1.050000*%
G04 #@! TD*
G04 #@! TA.AperFunction,ComponentPad*
%ADD11R,1.700000X1.700000*%
G04 #@! TD*
G04 #@! TA.AperFunction,ComponentPad*
%ADD12O,1.700000X1.700000*%
G04 #@! TD*
G04 #@! TA.AperFunction,ComponentPad*
%ADD13RoundRect,0.250000X-0.620000X-0.845000X0.620000X-0.845000X0.620000X0.845000X-0.620000X0.845000X0*%
G04 #@! TD*
G04 #@! TA.AperFunction,ComponentPad*
%ADD14O,1.740000X2.190000*%
G04 #@! TD*
G04 #@! TA.AperFunction,ViaPad*
%ADD15C,0.500000*%
G04 #@! TD*
G04 #@! TA.AperFunction,Conductor*
%ADD16C,0.500000*%
G04 #@! TD*
G04 #@! TA.AperFunction,Conductor*
%ADD17C,0.127000*%
G04 #@! TD*
G04 APERTURE END LIST*
D10*
X235000000Y-46475000D03*
X235000000Y-39325000D03*
D11*
X216475000Y-45875000D03*
D12*
X216475000Y-48415000D03*
X216475000Y-50955000D03*
D11*
X228650000Y-46850000D03*
D12*
X228650000Y-49390000D03*
D13*
X224575000Y-41320000D03*
D14*
X227115000Y-41320000D03*
X229655000Y-41320000D03*
D13*
X216575000Y-41320000D03*
D14*
X219115000Y-41320000D03*
X221655000Y-41320000D03*
D15*
X220100000Y-48500000D03*
X216660000Y-58711127D03*
X218448500Y-59700000D03*
X223100000Y-55400000D03*
X234100000Y-58998500D03*
X226950000Y-53150000D03*
X233200000Y-51300000D03*
X219564176Y-54391471D03*
X227100000Y-57500000D03*
X220492623Y-51723186D03*
X235900000Y-62000000D03*
X218140000Y-47600000D03*
X235350000Y-59000000D03*
X232250000Y-57500000D03*
X223500000Y-51700000D03*
X223500000Y-49700000D03*
X234700000Y-53400000D03*
X235900000Y-61501500D03*
X229390000Y-59867010D03*
X228400000Y-57500000D03*
X235300000Y-53400000D03*
X232600000Y-51300000D03*
X231188873Y-58911127D03*
X225200000Y-44200000D03*
X228238873Y-60438873D03*
X220100000Y-47600000D03*
X223400000Y-48700000D03*
X235900000Y-53400000D03*
X234100000Y-53400000D03*
X232700000Y-39600000D03*
X230700000Y-55800000D03*
X235700000Y-40500000D03*
X223500000Y-61500000D03*
X219500000Y-45900000D03*
X235746500Y-56550000D03*
X215973373Y-58573373D03*
X234100000Y-54400000D03*
X231950000Y-53300000D03*
X235300000Y-54400000D03*
X227000000Y-52500000D03*
X225773498Y-45900000D03*
X221700000Y-51800000D03*
X234700000Y-54400000D03*
X227000000Y-51200000D03*
X222100000Y-44800000D03*
X231250000Y-53300000D03*
X225326500Y-49600000D03*
X218200000Y-49300000D03*
X235900000Y-54400000D03*
X232100000Y-46600000D03*
X230900000Y-46600000D03*
X231500000Y-46600000D03*
X231300000Y-41000000D03*
X225326500Y-51000000D03*
X218200000Y-49926503D03*
X226860000Y-49000000D03*
X229900000Y-48800000D03*
X230500000Y-49550000D03*
X233062500Y-60937500D03*
X220700000Y-60000000D03*
X226600000Y-56500000D03*
X222300000Y-55400000D03*
X231760000Y-55500000D03*
X227200000Y-60600000D03*
X233050000Y-60301500D03*
X217630000Y-55740000D03*
X230588873Y-60538873D03*
X231400000Y-44700000D03*
X220098498Y-49200000D03*
X227299959Y-45891483D03*
X227302996Y-46517978D03*
X227299771Y-47200000D03*
X226933897Y-48255931D03*
X224500000Y-46600000D03*
X222800000Y-46600000D03*
X223488873Y-53511127D03*
X221850000Y-53500000D03*
X233250000Y-57000000D03*
X222650000Y-53450000D03*
X233250000Y-56350000D03*
X225974072Y-56473159D03*
X223100000Y-58400000D03*
X216100000Y-61600000D03*
X231360000Y-57500000D03*
X232069373Y-58948498D03*
X218200000Y-60700000D03*
X228865271Y-60450278D03*
X228550000Y-58777070D03*
X216960000Y-55740000D03*
X228506716Y-61326863D03*
X218700000Y-53300000D03*
X221100000Y-54960000D03*
X223788873Y-56088873D03*
X217040000Y-54550000D03*
X232750000Y-62700000D03*
X218200000Y-62700000D03*
X230600000Y-57500000D03*
X223800000Y-44200000D03*
X235100000Y-63250000D03*
X235750000Y-78300000D03*
X235050000Y-78300000D03*
X233950000Y-63250000D03*
D16*
X235900000Y-62000000D02*
X235900000Y-61501500D01*
D17*
X232750000Y-64150000D02*
X233500000Y-64900000D01*
X232750000Y-62700000D02*
X232750000Y-64150000D01*
X233500000Y-64900000D02*
X233500000Y-80400000D01*
X218200000Y-62700000D02*
X218200000Y-80400000D01*
X235100000Y-64040790D02*
X235504000Y-64444790D01*
X235100000Y-63250000D02*
X235100000Y-64040790D01*
X235504000Y-64444790D02*
X235504000Y-78054000D01*
X235504000Y-78054000D02*
X235750000Y-78300000D01*
X235200000Y-78300000D02*
X235050000Y-78300000D01*
X235250000Y-64550000D02*
X235250000Y-78250000D01*
X235250000Y-78250000D02*
X235200000Y-78300000D01*
X233950000Y-63250000D02*
X235250000Y-64550000D01*
G04 #@! TA.AperFunction,Conductor*
G36*
X233916761Y-38674502D02*
G01*
X233963254Y-38728158D01*
X233973358Y-38798432D01*
X233955025Y-38848014D01*
X233874188Y-38975394D01*
X233868044Y-38987990D01*
X233814145Y-39139354D01*
X233810949Y-39152980D01*
X233807726Y-39180011D01*
X233810153Y-39194418D01*
X233822921Y-39198000D01*
X235001000Y-39198000D01*
X235069121Y-39218002D01*
X235115614Y-39271658D01*
X235127000Y-39324000D01*
X235127000Y-40085885D01*
X235131475Y-40101124D01*
X235132865Y-40102329D01*
X235140548Y-40104000D01*
X235465419Y-40104000D01*
X235472443Y-40103607D01*
X235591681Y-40090233D01*
X235605326Y-40087133D01*
X235757078Y-40034288D01*
X235769696Y-40028242D01*
X235905962Y-39943093D01*
X235916935Y-39934396D01*
X236030716Y-39821407D01*
X236093147Y-39787600D01*
X236163945Y-39792912D01*
X236220631Y-39835657D01*
X236245210Y-39902263D01*
X236245500Y-39910813D01*
X236245500Y-45890659D01*
X236225498Y-45958780D01*
X236171842Y-46005273D01*
X236101568Y-46015377D01*
X236036988Y-45985883D01*
X236029477Y-45978817D01*
X235925394Y-45872531D01*
X235914544Y-45863683D01*
X235779488Y-45776645D01*
X235766939Y-45770415D01*
X235615955Y-45715462D01*
X235602345Y-45712169D01*
X235478289Y-45696497D01*
X235470400Y-45696000D01*
X235145115Y-45696000D01*
X235129876Y-45700475D01*
X235128671Y-45701865D01*
X235127000Y-45709548D01*
X235127000Y-47235885D01*
X235131475Y-47251124D01*
X235132865Y-47252329D01*
X235140548Y-47254000D01*
X235465419Y-47254000D01*
X235472443Y-47253607D01*
X235591681Y-47240233D01*
X235605326Y-47237133D01*
X235757078Y-47184288D01*
X235769696Y-47178242D01*
X235905962Y-47093093D01*
X235916935Y-47084396D01*
X236030716Y-46971407D01*
X236093147Y-46937600D01*
X236163945Y-46942912D01*
X236220631Y-46985657D01*
X236245210Y-47052263D01*
X236245500Y-47060813D01*
X236245500Y-53807510D01*
X236225498Y-53875631D01*
X236171842Y-53922124D01*
X236101568Y-53932228D01*
X236083398Y-53928227D01*
X235983940Y-53898483D01*
X235983941Y-53898483D01*
X235975337Y-53895910D01*
X235966363Y-53895855D01*
X235966361Y-53895855D01*
X235903082Y-53895469D01*
X235830827Y-53895028D01*
X235822196Y-53897495D01*
X235822194Y-53897495D01*
X235700510Y-53932272D01*
X235700508Y-53932273D01*
X235691879Y-53934739D01*
X235667769Y-53949952D01*
X235599486Y-53969386D01*
X235532003Y-53949122D01*
X235513790Y-53937317D01*
X235456322Y-53920130D01*
X235383938Y-53898482D01*
X235383936Y-53898482D01*
X235375337Y-53895910D01*
X235366363Y-53895855D01*
X235366361Y-53895855D01*
X235303082Y-53895469D01*
X235230827Y-53895028D01*
X235222196Y-53897495D01*
X235222194Y-53897495D01*
X235100510Y-53932272D01*
X235100508Y-53932273D01*
X235091879Y-53934739D01*
X235067769Y-53949952D01*
X234999486Y-53969386D01*
X234932003Y-53949122D01*
X234913790Y-53937317D01*
X234856322Y-53920130D01*
X234783938Y-53898482D01*
X234783936Y-53898482D01*
X234775337Y-53895910D01*
X234766363Y-53895855D01*
X234766361Y-53895855D01*
X234703082Y-53895469D01*
X234630827Y-53895028D01*
X234622196Y-53897495D01*
X234622194Y-53897495D01*
X234500510Y-53932272D01*
X234500508Y-53932273D01*
X234491879Y-53934739D01*
X234467769Y-53949952D01*
X234399486Y-53969386D01*
X234332003Y-53949122D01*
X234313790Y-53937317D01*
X234256322Y-53920130D01*
X234183938Y-53898482D01*
X234183936Y-53898482D01*
X234175337Y-53895910D01*
X234166363Y-53895855D01*
X234166361Y-53895855D01*
X234103082Y-53895469D01*
X234030827Y-53895028D01*
X234022196Y-53897495D01*
X234022194Y-53897495D01*
X233900509Y-53932272D01*
X233900505Y-53932274D01*
X233891879Y-53934739D01*
X233884292Y-53939526D01*
X233884290Y-53939527D01*
X233779286Y-54005780D01*
X233769661Y-54011853D01*
X233763718Y-54018582D01*
X233763717Y-54018583D01*
X233739583Y-54045910D01*
X233673999Y-54120170D01*
X233612583Y-54250982D01*
X233611203Y-54259846D01*
X233611202Y-54259849D01*
X233608782Y-54275395D01*
X233590350Y-54393773D01*
X233591514Y-54402675D01*
X233591514Y-54402678D01*
X233603553Y-54494739D01*
X233609088Y-54537065D01*
X233667289Y-54669339D01*
X233673063Y-54676208D01*
X233687657Y-54693569D01*
X233760276Y-54779960D01*
X233767747Y-54784933D01*
X233767748Y-54784934D01*
X233873101Y-54855063D01*
X233873103Y-54855064D01*
X233880574Y-54860037D01*
X233889138Y-54862713D01*
X233889141Y-54862714D01*
X233919341Y-54872149D01*
X234018510Y-54903132D01*
X234162998Y-54905780D01*
X234189767Y-54898482D01*
X234293763Y-54870130D01*
X234293765Y-54870129D01*
X234302422Y-54867769D01*
X234310069Y-54863074D01*
X234310073Y-54863072D01*
X234332467Y-54849322D01*
X234400984Y-54830724D01*
X234468211Y-54851808D01*
X234473100Y-54855062D01*
X234480574Y-54860037D01*
X234489138Y-54862713D01*
X234489141Y-54862714D01*
X234519341Y-54872149D01*
X234618510Y-54903132D01*
X234762998Y-54905780D01*
X234789767Y-54898482D01*
X234893763Y-54870130D01*
X234893765Y-54870129D01*
X234902422Y-54867769D01*
X234910069Y-54863074D01*
X234910073Y-54863072D01*
X234932467Y-54849322D01*
X235000984Y-54830724D01*
X235068211Y-54851808D01*
X235073100Y-54855062D01*
X235080574Y-54860037D01*
X235089138Y-54862713D01*
X235089141Y-54862714D01*
X235119341Y-54872149D01*
X235218510Y-54903132D01*
X235362998Y-54905780D01*
X235389767Y-54898482D01*
X235493763Y-54870130D01*
X235493765Y-54870129D01*
X235502422Y-54867769D01*
X235510069Y-54863074D01*
X235510073Y-54863072D01*
X235532467Y-54849322D01*
X235600984Y-54830724D01*
X235668211Y-54851808D01*
X235673100Y-54855062D01*
X235680574Y-54860037D01*
X235689138Y-54862713D01*
X235689141Y-54862714D01*
X235719341Y-54872149D01*
X235818510Y-54903132D01*
X235962998Y-54905780D01*
X235971660Y-54903419D01*
X235971664Y-54903418D01*
X236086359Y-54872149D01*
X236157342Y-54873529D01*
X236216311Y-54913066D01*
X236244543Y-54978208D01*
X236245500Y-54993712D01*
X236245500Y-62824000D01*
X236225498Y-62892121D01*
X236171842Y-62938614D01*
X236119500Y-62950000D01*
X235565260Y-62950000D01*
X235497139Y-62929998D01*
X235469807Y-62906248D01*
X235440916Y-62872718D01*
X235440913Y-62872716D01*
X235435056Y-62865918D01*
X235313790Y-62787317D01*
X235296921Y-62782272D01*
X235183938Y-62748482D01*
X235183936Y-62748482D01*
X235175337Y-62745910D01*
X235166363Y-62745855D01*
X235166361Y-62745855D01*
X235103082Y-62745469D01*
X235030827Y-62745028D01*
X235022196Y-62747495D01*
X235022194Y-62747495D01*
X234900509Y-62782272D01*
X234900505Y-62782274D01*
X234891879Y-62784739D01*
X234884292Y-62789526D01*
X234884290Y-62789527D01*
X234777254Y-62857062D01*
X234769661Y-62861853D01*
X234753636Y-62879998D01*
X234729428Y-62907408D01*
X234669342Y-62945226D01*
X234634987Y-62950000D01*
X234415260Y-62950000D01*
X234347139Y-62929998D01*
X234319807Y-62906248D01*
X234290916Y-62872718D01*
X234290913Y-62872716D01*
X234285056Y-62865918D01*
X234163790Y-62787317D01*
X234146921Y-62782272D01*
X234033938Y-62748482D01*
X234033936Y-62748482D01*
X234025337Y-62745910D01*
X234016363Y-62745855D01*
X234016361Y-62745855D01*
X233953082Y-62745469D01*
X233880827Y-62745028D01*
X233872196Y-62747495D01*
X233872194Y-62747495D01*
X233750509Y-62782272D01*
X233750505Y-62782274D01*
X233741879Y-62784739D01*
X233734293Y-62789525D01*
X233734285Y-62789529D01*
X233669360Y-62830495D01*
X233601076Y-62849930D01*
X233533124Y-62829361D01*
X233513029Y-62813029D01*
X233240557Y-62540557D01*
X233214951Y-62503613D01*
X233183104Y-62433569D01*
X233179388Y-62425395D01*
X233173530Y-62418596D01*
X233173527Y-62418592D01*
X233090916Y-62322718D01*
X233090913Y-62322716D01*
X233085056Y-62315918D01*
X232963790Y-62237317D01*
X232955183Y-62234743D01*
X232947040Y-62230980D01*
X232947580Y-62229812D01*
X232903518Y-62203518D01*
X232400000Y-61700000D01*
X230700000Y-61700000D01*
X229536905Y-62863095D01*
X229474593Y-62897121D01*
X229447810Y-62900000D01*
X218952190Y-62900000D01*
X218884069Y-62879998D01*
X218863095Y-62863095D01*
X218740989Y-62740989D01*
X218706963Y-62678677D01*
X218705357Y-62669757D01*
X218690474Y-62565835D01*
X218690473Y-62565833D01*
X218689201Y-62556948D01*
X218629388Y-62425395D01*
X218623530Y-62418596D01*
X218623527Y-62418592D01*
X218540916Y-62322718D01*
X218540913Y-62322716D01*
X218535056Y-62315918D01*
X218474423Y-62276617D01*
X218421324Y-62242200D01*
X218421322Y-62242199D01*
X218413790Y-62237317D01*
X218392601Y-62230980D01*
X218283938Y-62198482D01*
X218283936Y-62198482D01*
X218275337Y-62195910D01*
X218266363Y-62195855D01*
X218266361Y-62195855D01*
X218247161Y-62195738D01*
X218179163Y-62175320D01*
X218158835Y-62158835D01*
X217400000Y-61400000D01*
X216644433Y-61400000D01*
X216576312Y-61379998D01*
X216540991Y-61339179D01*
X216537940Y-61341130D01*
X216533104Y-61333567D01*
X216529388Y-61325395D01*
X216525288Y-61320636D01*
X227997066Y-61320636D01*
X227998230Y-61329538D01*
X227998230Y-61329541D01*
X228012758Y-61440632D01*
X228015804Y-61463928D01*
X228074005Y-61596202D01*
X228166992Y-61706823D01*
X228174463Y-61711796D01*
X228174464Y-61711797D01*
X228279817Y-61781926D01*
X228279819Y-61781927D01*
X228287290Y-61786900D01*
X228295854Y-61789576D01*
X228295857Y-61789577D01*
X228356258Y-61808447D01*
X228425226Y-61829995D01*
X228569714Y-61832643D01*
X228589246Y-61827318D01*
X228700479Y-61796993D01*
X228700481Y-61796992D01*
X228709138Y-61794632D01*
X228832288Y-61719017D01*
X228929267Y-61611877D01*
X228992276Y-61481825D01*
X229016252Y-61339316D01*
X229016404Y-61326863D01*
X229005747Y-61252449D01*
X228997190Y-61192698D01*
X228997189Y-61192696D01*
X228995917Y-61183811D01*
X228989697Y-61170130D01*
X228957602Y-61099539D01*
X228947616Y-61029249D01*
X228977217Y-60964717D01*
X229039160Y-60925826D01*
X229046565Y-60923807D01*
X229067693Y-60918047D01*
X229190843Y-60842432D01*
X229201605Y-60830543D01*
X229281797Y-60741948D01*
X229287822Y-60735292D01*
X229350831Y-60605240D01*
X229363044Y-60532646D01*
X230079223Y-60532646D01*
X230080387Y-60541548D01*
X230080387Y-60541551D01*
X230090286Y-60617247D01*
X230097961Y-60675938D01*
X230156162Y-60808212D01*
X230249149Y-60918833D01*
X230256620Y-60923806D01*
X230256621Y-60923807D01*
X230361974Y-60993936D01*
X230361976Y-60993937D01*
X230369447Y-60998910D01*
X230378011Y-61001586D01*
X230378014Y-61001587D01*
X230438415Y-61020458D01*
X230507383Y-61042005D01*
X230651871Y-61044653D01*
X230661584Y-61042005D01*
X230782636Y-61009003D01*
X230782638Y-61009002D01*
X230791295Y-61006642D01*
X230914445Y-60931027D01*
X231011424Y-60823887D01*
X231051123Y-60741948D01*
X231070518Y-60701916D01*
X231070518Y-60701915D01*
X231074433Y-60693835D01*
X231098409Y-60551326D01*
X231098561Y-60538873D01*
X231084981Y-60444051D01*
X231079347Y-60404708D01*
X231079346Y-60404706D01*
X231078074Y-60395821D01*
X231032358Y-60295273D01*
X232540350Y-60295273D01*
X232541514Y-60304175D01*
X232541514Y-60304178D01*
X232557366Y-60425395D01*
X232559088Y-60438565D01*
X232617073Y-60570347D01*
X232617289Y-60570839D01*
X232617218Y-60570870D01*
X232634949Y-60634661D01*
X232623017Y-60686384D01*
X232578898Y-60780356D01*
X232575083Y-60788482D01*
X232573703Y-60797346D01*
X232573702Y-60797349D01*
X232554542Y-60920407D01*
X232552850Y-60931273D01*
X232554014Y-60940175D01*
X232554014Y-60940178D01*
X232567655Y-61044488D01*
X232571588Y-61074565D01*
X232629789Y-61206839D01*
X232722776Y-61317460D01*
X232730247Y-61322433D01*
X232730248Y-61322434D01*
X232835601Y-61392563D01*
X232835603Y-61392564D01*
X232843074Y-61397537D01*
X232851638Y-61400213D01*
X232851641Y-61400214D01*
X232912042Y-61419085D01*
X232981010Y-61440632D01*
X233125498Y-61443280D01*
X233145030Y-61437955D01*
X233256263Y-61407630D01*
X233256265Y-61407629D01*
X233264922Y-61405269D01*
X233388072Y-61329654D01*
X233485051Y-61222514D01*
X233541608Y-61105780D01*
X233544145Y-61100543D01*
X233544145Y-61100542D01*
X233548060Y-61092462D01*
X233572036Y-60949953D01*
X233572188Y-60937500D01*
X233560367Y-60854962D01*
X233552974Y-60803335D01*
X233552973Y-60803333D01*
X233551701Y-60794448D01*
X233521131Y-60727211D01*
X233491888Y-60662895D01*
X233493816Y-60662019D01*
X233477307Y-60605331D01*
X233489915Y-60550674D01*
X233498650Y-60532646D01*
X233535560Y-60456462D01*
X233559536Y-60313953D01*
X233559688Y-60301500D01*
X233547813Y-60218583D01*
X233540474Y-60167335D01*
X233540473Y-60167333D01*
X233539201Y-60158448D01*
X233479388Y-60026895D01*
X233473530Y-60020096D01*
X233473527Y-60020092D01*
X233390916Y-59924218D01*
X233390913Y-59924216D01*
X233385056Y-59917418D01*
X233305474Y-59865835D01*
X233271324Y-59843700D01*
X233271322Y-59843699D01*
X233263790Y-59838817D01*
X233246921Y-59833772D01*
X233133938Y-59799982D01*
X233133936Y-59799982D01*
X233125337Y-59797410D01*
X233116363Y-59797355D01*
X233116361Y-59797355D01*
X233053082Y-59796969D01*
X232980827Y-59796528D01*
X232972196Y-59798995D01*
X232972194Y-59798995D01*
X232850509Y-59833772D01*
X232850505Y-59833774D01*
X232841879Y-59836239D01*
X232834292Y-59841026D01*
X232834290Y-59841027D01*
X232794972Y-59865835D01*
X232719661Y-59913353D01*
X232713718Y-59920082D01*
X232713717Y-59920083D01*
X232690711Y-59946133D01*
X232623999Y-60021670D01*
X232620185Y-60029793D01*
X232620184Y-60029795D01*
X232598402Y-60076190D01*
X232562583Y-60152482D01*
X232561203Y-60161346D01*
X232561202Y-60161349D01*
X232543206Y-60276933D01*
X232540350Y-60295273D01*
X231032358Y-60295273D01*
X231018261Y-60264268D01*
X231012403Y-60257469D01*
X231012400Y-60257465D01*
X230929789Y-60161591D01*
X230929786Y-60161589D01*
X230923929Y-60154791D01*
X230837055Y-60098482D01*
X230810197Y-60081073D01*
X230810195Y-60081072D01*
X230802663Y-60076190D01*
X230752919Y-60061313D01*
X230672811Y-60037355D01*
X230672809Y-60037355D01*
X230664210Y-60034783D01*
X230655236Y-60034728D01*
X230655234Y-60034728D01*
X230591955Y-60034342D01*
X230519700Y-60033901D01*
X230511069Y-60036368D01*
X230511067Y-60036368D01*
X230389382Y-60071145D01*
X230389378Y-60071147D01*
X230380752Y-60073612D01*
X230373165Y-60078399D01*
X230373163Y-60078400D01*
X230283872Y-60134739D01*
X230258534Y-60150726D01*
X230252591Y-60157455D01*
X230252590Y-60157456D01*
X230198605Y-60218583D01*
X230162872Y-60259043D01*
X230159058Y-60267166D01*
X230159057Y-60267168D01*
X230141681Y-60304178D01*
X230101456Y-60389855D01*
X230100076Y-60398719D01*
X230100075Y-60398722D01*
X230083432Y-60505615D01*
X230079223Y-60532646D01*
X229363044Y-60532646D01*
X229374807Y-60462731D01*
X229374959Y-60450278D01*
X229358245Y-60333569D01*
X229355745Y-60316113D01*
X229355744Y-60316111D01*
X229354472Y-60307226D01*
X229294659Y-60175673D01*
X229288801Y-60168874D01*
X229288798Y-60168870D01*
X229206187Y-60072996D01*
X229206184Y-60072994D01*
X229200327Y-60066196D01*
X229102331Y-60002678D01*
X229086595Y-59992478D01*
X229086593Y-59992477D01*
X229079061Y-59987595D01*
X229062192Y-59982550D01*
X228949209Y-59948760D01*
X228949207Y-59948760D01*
X228940608Y-59946188D01*
X228931634Y-59946133D01*
X228931632Y-59946133D01*
X228868353Y-59945747D01*
X228796098Y-59945306D01*
X228787467Y-59947773D01*
X228787465Y-59947773D01*
X228665780Y-59982550D01*
X228665776Y-59982552D01*
X228657150Y-59985017D01*
X228649563Y-59989804D01*
X228649561Y-59989805D01*
X228574199Y-60037355D01*
X228534932Y-60062131D01*
X228528989Y-60068860D01*
X228528988Y-60068861D01*
X228502828Y-60098482D01*
X228439270Y-60170448D01*
X228435456Y-60178571D01*
X228435455Y-60178573D01*
X228426571Y-60197495D01*
X228377854Y-60301260D01*
X228376474Y-60310124D01*
X228376473Y-60310127D01*
X228358526Y-60425395D01*
X228355621Y-60444051D01*
X228356785Y-60452953D01*
X228356785Y-60452956D01*
X228369316Y-60548777D01*
X228374359Y-60587343D01*
X228377972Y-60595555D01*
X228377974Y-60595561D01*
X228414920Y-60679527D01*
X228424047Y-60749935D01*
X228393660Y-60814100D01*
X228334215Y-60851422D01*
X228298595Y-60861602D01*
X228291008Y-60866389D01*
X228291006Y-60866390D01*
X228200006Y-60923807D01*
X228176377Y-60938716D01*
X228170434Y-60945445D01*
X228170433Y-60945446D01*
X228125035Y-60996850D01*
X228080715Y-61047033D01*
X228076901Y-61055156D01*
X228076900Y-61055158D01*
X228055633Y-61100455D01*
X228019299Y-61177845D01*
X228017919Y-61186709D01*
X228017918Y-61186712D01*
X228010292Y-61235695D01*
X227997066Y-61320636D01*
X216525288Y-61320636D01*
X216523530Y-61318596D01*
X216523527Y-61318592D01*
X216440916Y-61222718D01*
X216440913Y-61222716D01*
X216435056Y-61215918D01*
X216363785Y-61169722D01*
X216321324Y-61142200D01*
X216321322Y-61142199D01*
X216313790Y-61137317D01*
X216296921Y-61132272D01*
X216183938Y-61098482D01*
X216183936Y-61098482D01*
X216175337Y-61095910D01*
X216166363Y-61095855D01*
X216166361Y-61095855D01*
X216103082Y-61095469D01*
X216030827Y-61095028D01*
X216022196Y-61097495D01*
X216022194Y-61097495D01*
X215900509Y-61132272D01*
X215900505Y-61132274D01*
X215891879Y-61134739D01*
X215884292Y-61139526D01*
X215884290Y-61139527D01*
X215777254Y-61207062D01*
X215769661Y-61211853D01*
X215763718Y-61218582D01*
X215763717Y-61218583D01*
X215674941Y-61319103D01*
X215614855Y-61356921D01*
X215543862Y-61356251D01*
X215484501Y-61317305D01*
X215455619Y-61252449D01*
X215454500Y-61235695D01*
X215454500Y-60693773D01*
X217690350Y-60693773D01*
X217691514Y-60702675D01*
X217691514Y-60702678D01*
X217702735Y-60788482D01*
X217709088Y-60837065D01*
X217767289Y-60969339D01*
X217773063Y-60976208D01*
X217830459Y-61044488D01*
X217860276Y-61079960D01*
X217867747Y-61084933D01*
X217867748Y-61084934D01*
X217973101Y-61155063D01*
X217973103Y-61155064D01*
X217980574Y-61160037D01*
X217989138Y-61162713D01*
X217989141Y-61162714D01*
X218037573Y-61177845D01*
X218118510Y-61203132D01*
X218262998Y-61205780D01*
X218282530Y-61200455D01*
X218393763Y-61170130D01*
X218393765Y-61170129D01*
X218402422Y-61167769D01*
X218525572Y-61092154D01*
X218622551Y-60985014D01*
X218675267Y-60876208D01*
X218681645Y-60863043D01*
X218681645Y-60863042D01*
X218685560Y-60854962D01*
X218709536Y-60712453D01*
X218709688Y-60700000D01*
X218694475Y-60593773D01*
X226690350Y-60593773D01*
X226691514Y-60602675D01*
X226691514Y-60602678D01*
X226706496Y-60717247D01*
X226709088Y-60737065D01*
X226767289Y-60869339D01*
X226773063Y-60876208D01*
X226824585Y-60937500D01*
X226860276Y-60979960D01*
X226867747Y-60984933D01*
X226867748Y-60984934D01*
X226973101Y-61055063D01*
X226973103Y-61055064D01*
X226980574Y-61060037D01*
X226989138Y-61062713D01*
X226989141Y-61062714D01*
X227022353Y-61073090D01*
X227118510Y-61103132D01*
X227262998Y-61105780D01*
X227272711Y-61103132D01*
X227393763Y-61070130D01*
X227393765Y-61070129D01*
X227402422Y-61067769D01*
X227525572Y-60992154D01*
X227622551Y-60885014D01*
X227662124Y-60803335D01*
X227681645Y-60763043D01*
X227681645Y-60763042D01*
X227685560Y-60754962D01*
X227709536Y-60612453D01*
X227709688Y-60600000D01*
X227698771Y-60523774D01*
X227690474Y-60465835D01*
X227690473Y-60465833D01*
X227689201Y-60456948D01*
X227629388Y-60325395D01*
X227623530Y-60318596D01*
X227623527Y-60318592D01*
X227540916Y-60222718D01*
X227540913Y-60222716D01*
X227535056Y-60215918D01*
X227437187Y-60152482D01*
X227421324Y-60142200D01*
X227421322Y-60142199D01*
X227413790Y-60137317D01*
X227383185Y-60128164D01*
X227283938Y-60098482D01*
X227283936Y-60098482D01*
X227275337Y-60095910D01*
X227266363Y-60095855D01*
X227266361Y-60095855D01*
X227203082Y-60095469D01*
X227130827Y-60095028D01*
X227122196Y-60097495D01*
X227122194Y-60097495D01*
X227000509Y-60132272D01*
X227000505Y-60132274D01*
X226991879Y-60134739D01*
X226984292Y-60139526D01*
X226984290Y-60139527D01*
X226877254Y-60207062D01*
X226869661Y-60211853D01*
X226863718Y-60218582D01*
X226863717Y-60218583D01*
X226823370Y-60264268D01*
X226773999Y-60320170D01*
X226712583Y-60450982D01*
X226711203Y-60459846D01*
X226711202Y-60459849D01*
X226693921Y-60570839D01*
X226690350Y-60593773D01*
X218694475Y-60593773D01*
X218691195Y-60570870D01*
X218690474Y-60565835D01*
X218690473Y-60565833D01*
X218689201Y-60556948D01*
X218682201Y-60541551D01*
X218674118Y-60523774D01*
X218629388Y-60425395D01*
X218623530Y-60418596D01*
X218623527Y-60418592D01*
X218540916Y-60322718D01*
X218540913Y-60322716D01*
X218535056Y-60315918D01*
X218447309Y-60259043D01*
X218421324Y-60242200D01*
X218421322Y-60242199D01*
X218413790Y-60237317D01*
X218396921Y-60232272D01*
X218283938Y-60198482D01*
X218283936Y-60198482D01*
X218275337Y-60195910D01*
X218266363Y-60195855D01*
X218266361Y-60195855D01*
X218203082Y-60195469D01*
X218130827Y-60195028D01*
X218122196Y-60197495D01*
X218122194Y-60197495D01*
X218000509Y-60232272D01*
X218000505Y-60232274D01*
X217991879Y-60234739D01*
X217984292Y-60239526D01*
X217984290Y-60239527D01*
X217886450Y-60301260D01*
X217869661Y-60311853D01*
X217863718Y-60318582D01*
X217863717Y-60318583D01*
X217809511Y-60379960D01*
X217773999Y-60420170D01*
X217770185Y-60428293D01*
X217770184Y-60428295D01*
X217754025Y-60462714D01*
X217712583Y-60550982D01*
X217711203Y-60559846D01*
X217711202Y-60559849D01*
X217691848Y-60684153D01*
X217690350Y-60693773D01*
X215454500Y-60693773D01*
X215454500Y-59993773D01*
X220190350Y-59993773D01*
X220191514Y-60002675D01*
X220191514Y-60002678D01*
X220207924Y-60128164D01*
X220209088Y-60137065D01*
X220267289Y-60269339D01*
X220273063Y-60276208D01*
X220298409Y-60306360D01*
X220360276Y-60379960D01*
X220367747Y-60384933D01*
X220367748Y-60384934D01*
X220473101Y-60455063D01*
X220473103Y-60455064D01*
X220480574Y-60460037D01*
X220489138Y-60462713D01*
X220489141Y-60462714D01*
X220549542Y-60481585D01*
X220618510Y-60503132D01*
X220762998Y-60505780D01*
X220782530Y-60500455D01*
X220893763Y-60470130D01*
X220893765Y-60470129D01*
X220902422Y-60467769D01*
X221025572Y-60392154D01*
X221122551Y-60285014D01*
X221166148Y-60195028D01*
X221181645Y-60163043D01*
X221181645Y-60163042D01*
X221185560Y-60154962D01*
X221209536Y-60012453D01*
X221209688Y-60000000D01*
X221189201Y-59856948D01*
X221129388Y-59725395D01*
X221123530Y-59718596D01*
X221123527Y-59718592D01*
X221040916Y-59622718D01*
X221040913Y-59622716D01*
X221035056Y-59615918D01*
X220913790Y-59537317D01*
X220896921Y-59532272D01*
X220783938Y-59498482D01*
X220783936Y-59498482D01*
X220775337Y-59495910D01*
X220766363Y-59495855D01*
X220766361Y-59495855D01*
X220703082Y-59495469D01*
X220630827Y-59495028D01*
X220622196Y-59497495D01*
X220622194Y-59497495D01*
X220500509Y-59532272D01*
X220500505Y-59532274D01*
X220491879Y-59534739D01*
X220369661Y-59611853D01*
X220273999Y-59720170D01*
X220212583Y-59850982D01*
X220211203Y-59859846D01*
X220211202Y-59859849D01*
X220197359Y-59948760D01*
X220190350Y-59993773D01*
X215454500Y-59993773D01*
X215454500Y-59069316D01*
X215474502Y-59001195D01*
X215528158Y-58954702D01*
X215598432Y-58944598D01*
X215650317Y-58964428D01*
X215700061Y-58997540D01*
X215746474Y-59028436D01*
X215746476Y-59028437D01*
X215753947Y-59033410D01*
X215762511Y-59036086D01*
X215762514Y-59036087D01*
X215795553Y-59046409D01*
X215891883Y-59076505D01*
X216036371Y-59079153D01*
X216074566Y-59068740D01*
X216167136Y-59043503D01*
X216167138Y-59043502D01*
X216175795Y-59041142D01*
X216298945Y-58965527D01*
X216395924Y-58858387D01*
X216458933Y-58728335D01*
X216482909Y-58585826D01*
X216483061Y-58573373D01*
X216470838Y-58488025D01*
X216463847Y-58439208D01*
X216463846Y-58439206D01*
X216462574Y-58430321D01*
X216445957Y-58393773D01*
X222590350Y-58393773D01*
X222591514Y-58402675D01*
X222591514Y-58402678D01*
X222601726Y-58480770D01*
X222609088Y-58537065D01*
X222667289Y-58669339D01*
X222673063Y-58676208D01*
X222745155Y-58761971D01*
X222760276Y-58779960D01*
X222767747Y-58784933D01*
X222767748Y-58784934D01*
X222873101Y-58855063D01*
X222873103Y-58855064D01*
X222880574Y-58860037D01*
X222889138Y-58862713D01*
X222889141Y-58862714D01*
X222949542Y-58881584D01*
X223018510Y-58903132D01*
X223162998Y-58905780D01*
X223182530Y-58900455D01*
X223293763Y-58870130D01*
X223293765Y-58870129D01*
X223302422Y-58867769D01*
X223425572Y-58792154D01*
X223444862Y-58770843D01*
X228040350Y-58770843D01*
X228041514Y-58779745D01*
X228041514Y-58779748D01*
X228057299Y-58900455D01*
X228059088Y-58914135D01*
X228117289Y-59046409D01*
X228123063Y-59053278D01*
X228165246Y-59103460D01*
X228210276Y-59157030D01*
X228217747Y-59162003D01*
X228217748Y-59162004D01*
X228323101Y-59232133D01*
X228323103Y-59232134D01*
X228330574Y-59237107D01*
X228339138Y-59239783D01*
X228339141Y-59239784D01*
X228399542Y-59258654D01*
X228468510Y-59280202D01*
X228612998Y-59282850D01*
X228632530Y-59277525D01*
X228743763Y-59247200D01*
X228743765Y-59247199D01*
X228752422Y-59244839D01*
X228875572Y-59169224D01*
X228972551Y-59062084D01*
X229026285Y-58951176D01*
X229030599Y-58942271D01*
X231559723Y-58942271D01*
X231560887Y-58951173D01*
X231560887Y-58951176D01*
X231577297Y-59076662D01*
X231578461Y-59085563D01*
X231636662Y-59217837D01*
X231729649Y-59328458D01*
X231737120Y-59333431D01*
X231737121Y-59333432D01*
X231842474Y-59403561D01*
X231842476Y-59403562D01*
X231849947Y-59408535D01*
X231858511Y-59411211D01*
X231858514Y-59411212D01*
X231918915Y-59430082D01*
X231987883Y-59451630D01*
X232132371Y-59454278D01*
X232151903Y-59448953D01*
X232263136Y-59418628D01*
X232263138Y-59418627D01*
X232271795Y-59416267D01*
X232394945Y-59340652D01*
X232491924Y-59233512D01*
X232554933Y-59103460D01*
X232578909Y-58960951D01*
X232579061Y-58948498D01*
X232558574Y-58805446D01*
X232498761Y-58673893D01*
X232492903Y-58667094D01*
X232492900Y-58667090D01*
X232410289Y-58571216D01*
X232410286Y-58571214D01*
X232404429Y-58564416D01*
X232283163Y-58485815D01*
X232266294Y-58480770D01*
X232153311Y-58446980D01*
X232153309Y-58446980D01*
X232144710Y-58444408D01*
X232135736Y-58444353D01*
X232135734Y-58444353D01*
X232072455Y-58443967D01*
X232000200Y-58443526D01*
X231991569Y-58445993D01*
X231991567Y-58445993D01*
X231869882Y-58480770D01*
X231869878Y-58480772D01*
X231861252Y-58483237D01*
X231853665Y-58488024D01*
X231853663Y-58488025D01*
X231747575Y-58554962D01*
X231739034Y-58560351D01*
X231733091Y-58567080D01*
X231733090Y-58567081D01*
X231716535Y-58585826D01*
X231643372Y-58668668D01*
X231639558Y-58676791D01*
X231639557Y-58676793D01*
X231623761Y-58710438D01*
X231581956Y-58799480D01*
X231580576Y-58808344D01*
X231580575Y-58808347D01*
X231562696Y-58923180D01*
X231559723Y-58942271D01*
X229030599Y-58942271D01*
X229031645Y-58940113D01*
X229031645Y-58940112D01*
X229035560Y-58932032D01*
X229059536Y-58789523D01*
X229059688Y-58777070D01*
X229044912Y-58673893D01*
X229040474Y-58642905D01*
X229040473Y-58642903D01*
X229039201Y-58634018D01*
X228979388Y-58502465D01*
X228973530Y-58495666D01*
X228973527Y-58495662D01*
X228890916Y-58399788D01*
X228890913Y-58399786D01*
X228885056Y-58392988D01*
X228763790Y-58314387D01*
X228694094Y-58293543D01*
X228633938Y-58275552D01*
X228633936Y-58275552D01*
X228625337Y-58272980D01*
X228616363Y-58272925D01*
X228616361Y-58272925D01*
X228553082Y-58272539D01*
X228480827Y-58272098D01*
X228472196Y-58274565D01*
X228472194Y-58274565D01*
X228350509Y-58309342D01*
X228350505Y-58309344D01*
X228341879Y-58311809D01*
X228219661Y-58388923D01*
X228213718Y-58395652D01*
X228213717Y-58395653D01*
X228175251Y-58439208D01*
X228123999Y-58497240D01*
X228062583Y-58628052D01*
X228061203Y-58636916D01*
X228061202Y-58636919D01*
X228046969Y-58728335D01*
X228040350Y-58770843D01*
X223444862Y-58770843D01*
X223522551Y-58685014D01*
X223572961Y-58580966D01*
X223581645Y-58563043D01*
X223581645Y-58563042D01*
X223585560Y-58554962D01*
X223609536Y-58412453D01*
X223609688Y-58400000D01*
X223594216Y-58291965D01*
X223590474Y-58265835D01*
X223590473Y-58265833D01*
X223589201Y-58256948D01*
X223529388Y-58125395D01*
X223523530Y-58118596D01*
X223523527Y-58118592D01*
X223440916Y-58022718D01*
X223440913Y-58022716D01*
X223435056Y-58015918D01*
X223364414Y-57970130D01*
X223321324Y-57942200D01*
X223321322Y-57942199D01*
X223313790Y-57937317D01*
X223296921Y-57932272D01*
X223183938Y-57898482D01*
X223183936Y-57898482D01*
X223175337Y-57895910D01*
X223166363Y-57895855D01*
X223166361Y-57895855D01*
X223103082Y-57895469D01*
X223030827Y-57895028D01*
X223022196Y-57897495D01*
X223022194Y-57897495D01*
X222900509Y-57932272D01*
X222900505Y-57932274D01*
X222891879Y-57934739D01*
X222884292Y-57939526D01*
X222884290Y-57939527D01*
X222779286Y-58005780D01*
X222769661Y-58011853D01*
X222673999Y-58120170D01*
X222612583Y-58250982D01*
X222611203Y-58259846D01*
X222611202Y-58259849D01*
X222602367Y-58316597D01*
X222590350Y-58393773D01*
X216445957Y-58393773D01*
X216402761Y-58298768D01*
X216396903Y-58291969D01*
X216396900Y-58291965D01*
X216314289Y-58196091D01*
X216314286Y-58196089D01*
X216308429Y-58189291D01*
X216214324Y-58128295D01*
X216194697Y-58115573D01*
X216194695Y-58115572D01*
X216187163Y-58110690D01*
X216070157Y-58075697D01*
X216057311Y-58071855D01*
X216057309Y-58071855D01*
X216048710Y-58069283D01*
X216039736Y-58069228D01*
X216039734Y-58069228D01*
X215976455Y-58068842D01*
X215904200Y-58068401D01*
X215895569Y-58070868D01*
X215895567Y-58070868D01*
X215773882Y-58105645D01*
X215773878Y-58105647D01*
X215765252Y-58108112D01*
X215757661Y-58112901D01*
X215757660Y-58112902D01*
X215647735Y-58182259D01*
X215579450Y-58201693D01*
X215511499Y-58181124D01*
X215465454Y-58127083D01*
X215454500Y-58075697D01*
X215454500Y-57493773D01*
X230090350Y-57493773D01*
X230091514Y-57502675D01*
X230091514Y-57502678D01*
X230107924Y-57628164D01*
X230109088Y-57637065D01*
X230167289Y-57769339D01*
X230260276Y-57879960D01*
X230267747Y-57884933D01*
X230267748Y-57884934D01*
X230373101Y-57955063D01*
X230373103Y-57955064D01*
X230380574Y-57960037D01*
X230389138Y-57962713D01*
X230389141Y-57962714D01*
X230449542Y-57981584D01*
X230518510Y-58003132D01*
X230662998Y-58005780D01*
X230682530Y-58000455D01*
X230793763Y-57970130D01*
X230793765Y-57970129D01*
X230802422Y-57967769D01*
X230852018Y-57937317D01*
X230915695Y-57898219D01*
X230984213Y-57879621D01*
X231051443Y-57900706D01*
X231140574Y-57960037D01*
X231149138Y-57962713D01*
X231149141Y-57962714D01*
X231209542Y-57981584D01*
X231278510Y-58003132D01*
X231422998Y-58005780D01*
X231442530Y-58000455D01*
X231553763Y-57970130D01*
X231553765Y-57970129D01*
X231562422Y-57967769D01*
X231685572Y-57892154D01*
X231782551Y-57785014D01*
X231845560Y-57654962D01*
X231869536Y-57512453D01*
X231869612Y-57506226D01*
X231869629Y-57504860D01*
X231869629Y-57504856D01*
X231869688Y-57500000D01*
X231849201Y-57356948D01*
X231789388Y-57225395D01*
X231783530Y-57218596D01*
X231783527Y-57218592D01*
X231700916Y-57122718D01*
X231700913Y-57122716D01*
X231695056Y-57115918D01*
X231573790Y-57037317D01*
X231506682Y-57017247D01*
X231443938Y-56998482D01*
X231443936Y-56998482D01*
X231435337Y-56995910D01*
X231426363Y-56995855D01*
X231426361Y-56995855D01*
X231363082Y-56995469D01*
X231290827Y-56995028D01*
X231282196Y-56997495D01*
X231282194Y-56997495D01*
X231160509Y-57032272D01*
X231160505Y-57032274D01*
X231151879Y-57034739D01*
X231144293Y-57039525D01*
X231144285Y-57039529D01*
X231046693Y-57101106D01*
X230978408Y-57120541D01*
X230910925Y-57100277D01*
X230821324Y-57042200D01*
X230821322Y-57042199D01*
X230813790Y-57037317D01*
X230746682Y-57017247D01*
X230683938Y-56998482D01*
X230683936Y-56998482D01*
X230675337Y-56995910D01*
X230666363Y-56995855D01*
X230666361Y-56995855D01*
X230603082Y-56995469D01*
X230530827Y-56995028D01*
X230522196Y-56997495D01*
X230522194Y-56997495D01*
X230400509Y-57032272D01*
X230400505Y-57032274D01*
X230391879Y-57034739D01*
X230269661Y-57111853D01*
X230263718Y-57118582D01*
X230263717Y-57118583D01*
X230224452Y-57163043D01*
X230173999Y-57220170D01*
X230112583Y-57350982D01*
X230111203Y-57359846D01*
X230111202Y-57359849D01*
X230095603Y-57460037D01*
X230090350Y-57493773D01*
X215454500Y-57493773D01*
X215454500Y-55733773D01*
X216450350Y-55733773D01*
X216451514Y-55742675D01*
X216451514Y-55742678D01*
X216464906Y-55845083D01*
X216469088Y-55877065D01*
X216527289Y-56009339D01*
X216533063Y-56016208D01*
X216594145Y-56088873D01*
X216620276Y-56119960D01*
X216627747Y-56124933D01*
X216627748Y-56124934D01*
X216733101Y-56195063D01*
X216733103Y-56195064D01*
X216740574Y-56200037D01*
X216749138Y-56202713D01*
X216749141Y-56202714D01*
X216799964Y-56218592D01*
X216878510Y-56243132D01*
X217022998Y-56245780D01*
X217042530Y-56240455D01*
X217153763Y-56210130D01*
X217153765Y-56210129D01*
X217162422Y-56207769D01*
X217228879Y-56166964D01*
X217297396Y-56148366D01*
X217364627Y-56169452D01*
X217403101Y-56195063D01*
X217403103Y-56195064D01*
X217410574Y-56200037D01*
X217419138Y-56202713D01*
X217419141Y-56202714D01*
X217469964Y-56218592D01*
X217548510Y-56243132D01*
X217692998Y-56245780D01*
X217712530Y-56240455D01*
X217823763Y-56210130D01*
X217823765Y-56210129D01*
X217832422Y-56207769D01*
X217955572Y-56132154D01*
X218000385Y-56082646D01*
X223279223Y-56082646D01*
X223280387Y-56091548D01*
X223280387Y-56091551D01*
X223294759Y-56201454D01*
X223297961Y-56225938D01*
X223356162Y-56358212D01*
X223449149Y-56468833D01*
X223456620Y-56473806D01*
X223456621Y-56473807D01*
X223561974Y-56543936D01*
X223561976Y-56543937D01*
X223569447Y-56548910D01*
X223578011Y-56551586D01*
X223578014Y-56551587D01*
X223638415Y-56570457D01*
X223707383Y-56592005D01*
X223851871Y-56594653D01*
X223871403Y-56589328D01*
X223982636Y-56559003D01*
X223982638Y-56559002D01*
X223991295Y-56556642D01*
X224114445Y-56481027D01*
X224127203Y-56466932D01*
X225464422Y-56466932D01*
X225465586Y-56475834D01*
X225465586Y-56475837D01*
X225480799Y-56592169D01*
X225483160Y-56610224D01*
X225541361Y-56742498D01*
X225547135Y-56749367D01*
X225625724Y-56842859D01*
X225634348Y-56853119D01*
X225641819Y-56858092D01*
X225641820Y-56858093D01*
X225747173Y-56928222D01*
X225747175Y-56928223D01*
X225754646Y-56933196D01*
X225763210Y-56935872D01*
X225763213Y-56935873D01*
X225823614Y-56954743D01*
X225892582Y-56976291D01*
X226037070Y-56978939D01*
X226056602Y-56973614D01*
X226167835Y-56943289D01*
X226167837Y-56943288D01*
X226176494Y-56940928D01*
X226184141Y-56936233D01*
X226184145Y-56936231D01*
X226199052Y-56927078D01*
X226267569Y-56908480D01*
X226334796Y-56929565D01*
X226380574Y-56960037D01*
X226389138Y-56962713D01*
X226389141Y-56962714D01*
X226433514Y-56976577D01*
X226518510Y-57003132D01*
X226662998Y-57005780D01*
X226689767Y-56998482D01*
X226707040Y-56993773D01*
X232740350Y-56993773D01*
X232741514Y-57002675D01*
X232741514Y-57002678D01*
X232755684Y-57111035D01*
X232759088Y-57137065D01*
X232817289Y-57269339D01*
X232910276Y-57379960D01*
X232917747Y-57384933D01*
X232917748Y-57384934D01*
X233023101Y-57455063D01*
X233023103Y-57455064D01*
X233030574Y-57460037D01*
X233039138Y-57462713D01*
X233039141Y-57462714D01*
X233099542Y-57481585D01*
X233168510Y-57503132D01*
X233312998Y-57505780D01*
X233357040Y-57493773D01*
X233443763Y-57470130D01*
X233443765Y-57470129D01*
X233452422Y-57467769D01*
X233575572Y-57392154D01*
X233672551Y-57285014D01*
X233735560Y-57154962D01*
X233759536Y-57012453D01*
X233759612Y-57006227D01*
X233759629Y-57004860D01*
X233759629Y-57004856D01*
X233759688Y-57000000D01*
X233739201Y-56856948D01*
X233679388Y-56725395D01*
X233682935Y-56723782D01*
X233668060Y-56673358D01*
X233680667Y-56618262D01*
X233735560Y-56504962D01*
X233759536Y-56362453D01*
X233759688Y-56350000D01*
X233743097Y-56234153D01*
X233740474Y-56215835D01*
X233740473Y-56215833D01*
X233739201Y-56206948D01*
X233679388Y-56075395D01*
X233673530Y-56068596D01*
X233673527Y-56068592D01*
X233590916Y-55972718D01*
X233590913Y-55972716D01*
X233585056Y-55965918D01*
X233492275Y-55905780D01*
X233471324Y-55892200D01*
X233471322Y-55892199D01*
X233463790Y-55887317D01*
X233439190Y-55879960D01*
X233333938Y-55848482D01*
X233333936Y-55848482D01*
X233325337Y-55845910D01*
X233316363Y-55845855D01*
X233316361Y-55845855D01*
X233253082Y-55845469D01*
X233180827Y-55845028D01*
X233172196Y-55847495D01*
X233172194Y-55847495D01*
X233050509Y-55882272D01*
X233050505Y-55882274D01*
X233041879Y-55884739D01*
X233034292Y-55889526D01*
X233034290Y-55889527D01*
X232945070Y-55945821D01*
X232919661Y-55961853D01*
X232913718Y-55968582D01*
X232913717Y-55968583D01*
X232871656Y-56016208D01*
X232823999Y-56070170D01*
X232820185Y-56078293D01*
X232820184Y-56078295D01*
X232804813Y-56111035D01*
X232762583Y-56200982D01*
X232761203Y-56209846D01*
X232761202Y-56209849D01*
X232743407Y-56324141D01*
X232740350Y-56343773D01*
X232741514Y-56352675D01*
X232741514Y-56352678D01*
X232744288Y-56373887D01*
X232759088Y-56487065D01*
X232806427Y-56594653D01*
X232817289Y-56619339D01*
X232815551Y-56620104D01*
X232831571Y-56677729D01*
X232819639Y-56729456D01*
X232762583Y-56850982D01*
X232761203Y-56859846D01*
X232761202Y-56859849D01*
X232742660Y-56978939D01*
X232740350Y-56993773D01*
X226707040Y-56993773D01*
X226793763Y-56970130D01*
X226793765Y-56970129D01*
X226802422Y-56967769D01*
X226925572Y-56892154D01*
X226932125Y-56884915D01*
X227016526Y-56791670D01*
X227022551Y-56785014D01*
X227085560Y-56654962D01*
X227109536Y-56512453D01*
X227109612Y-56506227D01*
X227109629Y-56504860D01*
X227109629Y-56504856D01*
X227109688Y-56500000D01*
X227089201Y-56356948D01*
X227029388Y-56225395D01*
X227023530Y-56218596D01*
X227023527Y-56218592D01*
X226940916Y-56122718D01*
X226940913Y-56122716D01*
X226935056Y-56115918D01*
X226825645Y-56045001D01*
X226821324Y-56042200D01*
X226821322Y-56042199D01*
X226813790Y-56037317D01*
X226794908Y-56031670D01*
X226683938Y-55998482D01*
X226683936Y-55998482D01*
X226675337Y-55995910D01*
X226666363Y-55995855D01*
X226666361Y-55995855D01*
X226603082Y-55995469D01*
X226530827Y-55995028D01*
X226522196Y-55997495D01*
X226522194Y-55997495D01*
X226400510Y-56032272D01*
X226400508Y-56032273D01*
X226391879Y-56034739D01*
X226375615Y-56045001D01*
X226307329Y-56064435D01*
X226239848Y-56044171D01*
X226195401Y-56015362D01*
X226195398Y-56015361D01*
X226187862Y-56010476D01*
X226172160Y-56005780D01*
X226058010Y-55971641D01*
X226058008Y-55971641D01*
X226049409Y-55969069D01*
X226040435Y-55969014D01*
X226040433Y-55969014D01*
X225977154Y-55968628D01*
X225904899Y-55968187D01*
X225896268Y-55970654D01*
X225896266Y-55970654D01*
X225774581Y-56005431D01*
X225774577Y-56005433D01*
X225765951Y-56007898D01*
X225758364Y-56012685D01*
X225758362Y-56012686D01*
X225708462Y-56044171D01*
X225643733Y-56085012D01*
X225548071Y-56193329D01*
X225544257Y-56201452D01*
X225544256Y-56201454D01*
X225514596Y-56264628D01*
X225486655Y-56324141D01*
X225485275Y-56333005D01*
X225485274Y-56333008D01*
X225480168Y-56365806D01*
X225464422Y-56466932D01*
X224127203Y-56466932D01*
X224211424Y-56373887D01*
X224274433Y-56243835D01*
X224298409Y-56101326D01*
X224298561Y-56088873D01*
X224287650Y-56012686D01*
X224279347Y-55954708D01*
X224279346Y-55954706D01*
X224278074Y-55945821D01*
X224218261Y-55814268D01*
X224212403Y-55807469D01*
X224212400Y-55807465D01*
X224129789Y-55711591D01*
X224129786Y-55711589D01*
X224123929Y-55704791D01*
X224002663Y-55626190D01*
X223934602Y-55605835D01*
X223872811Y-55587355D01*
X223872809Y-55587355D01*
X223864210Y-55584783D01*
X223855236Y-55584728D01*
X223855234Y-55584728D01*
X223791955Y-55584342D01*
X223719700Y-55583901D01*
X223711069Y-55586368D01*
X223711067Y-55586368D01*
X223589382Y-55621145D01*
X223589378Y-55621147D01*
X223580752Y-55623612D01*
X223573165Y-55628399D01*
X223573163Y-55628400D01*
X223483436Y-55685014D01*
X223458534Y-55700726D01*
X223452591Y-55707455D01*
X223452590Y-55707456D01*
X223391871Y-55776208D01*
X223362872Y-55809043D01*
X223359058Y-55817166D01*
X223359057Y-55817168D01*
X223337505Y-55863073D01*
X223301456Y-55939855D01*
X223300076Y-55948719D01*
X223300075Y-55948722D01*
X223281166Y-56070170D01*
X223279223Y-56082646D01*
X218000385Y-56082646D01*
X218052551Y-56025014D01*
X218115560Y-55894962D01*
X218139536Y-55752453D01*
X218139688Y-55740000D01*
X218124088Y-55631073D01*
X218120474Y-55605835D01*
X218120473Y-55605833D01*
X218119201Y-55596948D01*
X218059388Y-55465395D01*
X218053530Y-55458596D01*
X218053527Y-55458592D01*
X217970916Y-55362718D01*
X217970913Y-55362716D01*
X217965056Y-55355918D01*
X217843790Y-55277317D01*
X217775682Y-55256948D01*
X217713938Y-55238482D01*
X217713936Y-55238482D01*
X217705337Y-55235910D01*
X217696363Y-55235855D01*
X217696361Y-55235855D01*
X217633082Y-55235469D01*
X217560827Y-55235028D01*
X217552196Y-55237495D01*
X217552194Y-55237495D01*
X217430509Y-55272272D01*
X217430507Y-55272273D01*
X217421879Y-55274739D01*
X217363613Y-55311502D01*
X217362298Y-55312332D01*
X217294013Y-55331766D01*
X217226532Y-55311503D01*
X217173790Y-55277317D01*
X217165192Y-55274746D01*
X217157906Y-55271379D01*
X217104458Y-55224648D01*
X217084759Y-55156439D01*
X217105064Y-55088408D01*
X217158927Y-55042154D01*
X217177616Y-55035437D01*
X217233763Y-55020130D01*
X217233765Y-55020129D01*
X217242422Y-55017769D01*
X217346649Y-54953773D01*
X220590350Y-54953773D01*
X220591514Y-54962675D01*
X220591514Y-54962678D01*
X220601029Y-55035437D01*
X220609088Y-55097065D01*
X220667289Y-55229339D01*
X220673063Y-55236208D01*
X220687852Y-55253801D01*
X220760276Y-55339960D01*
X220767747Y-55344933D01*
X220767748Y-55344934D01*
X220873101Y-55415063D01*
X220873103Y-55415064D01*
X220880574Y-55420037D01*
X220889138Y-55422713D01*
X220889141Y-55422714D01*
X220949542Y-55441584D01*
X221018510Y-55463132D01*
X221162998Y-55465780D01*
X221182530Y-55460455D01*
X221293763Y-55430130D01*
X221293765Y-55430129D01*
X221302422Y-55427769D01*
X221357789Y-55393773D01*
X221790350Y-55393773D01*
X221791514Y-55402675D01*
X221791514Y-55402678D01*
X221806496Y-55517247D01*
X221809088Y-55537065D01*
X221867289Y-55669339D01*
X221873063Y-55676208D01*
X221933069Y-55747593D01*
X221960276Y-55779960D01*
X221967747Y-55784933D01*
X221967748Y-55784934D01*
X222073101Y-55855063D01*
X222073103Y-55855064D01*
X222080574Y-55860037D01*
X222089138Y-55862713D01*
X222089141Y-55862714D01*
X222122353Y-55873090D01*
X222218510Y-55903132D01*
X222362998Y-55905780D01*
X222372711Y-55903132D01*
X222493763Y-55870130D01*
X222493765Y-55870129D01*
X222502422Y-55867769D01*
X222625572Y-55792154D01*
X222722551Y-55685014D01*
X222754056Y-55619988D01*
X222781645Y-55563043D01*
X222781645Y-55563042D01*
X222785560Y-55554962D01*
X222795855Y-55493773D01*
X231250350Y-55493773D01*
X231251514Y-55502675D01*
X231251514Y-55502678D01*
X231262773Y-55588777D01*
X231269088Y-55637065D01*
X231327289Y-55769339D01*
X231420276Y-55879960D01*
X231427747Y-55884933D01*
X231427748Y-55884934D01*
X231533101Y-55955063D01*
X231533103Y-55955064D01*
X231540574Y-55960037D01*
X231549138Y-55962713D01*
X231549141Y-55962714D01*
X231609542Y-55981584D01*
X231678510Y-56003132D01*
X231822998Y-56005780D01*
X231832711Y-56003132D01*
X231953763Y-55970130D01*
X231953765Y-55970129D01*
X231962422Y-55967769D01*
X232085572Y-55892154D01*
X232182551Y-55785014D01*
X232235267Y-55676208D01*
X232241645Y-55663043D01*
X232241645Y-55663042D01*
X232245560Y-55654962D01*
X232269536Y-55512453D01*
X232269688Y-55500000D01*
X232249201Y-55356948D01*
X232189388Y-55225395D01*
X232183530Y-55218596D01*
X232183527Y-55218592D01*
X232100916Y-55122718D01*
X232100913Y-55122716D01*
X232095056Y-55115918D01*
X232002275Y-55055780D01*
X231981324Y-55042200D01*
X231981322Y-55042199D01*
X231973790Y-55037317D01*
X231956921Y-55032272D01*
X231843938Y-54998482D01*
X231843936Y-54998482D01*
X231835337Y-54995910D01*
X231826363Y-54995855D01*
X231826361Y-54995855D01*
X231763082Y-54995469D01*
X231690827Y-54995028D01*
X231682196Y-54997495D01*
X231682194Y-54997495D01*
X231560509Y-55032272D01*
X231560505Y-55032274D01*
X231551879Y-55034739D01*
X231544292Y-55039526D01*
X231544290Y-55039527D01*
X231438763Y-55106110D01*
X231429661Y-55111853D01*
X231423718Y-55118582D01*
X231423717Y-55118583D01*
X231420065Y-55122718D01*
X231333999Y-55220170D01*
X231330185Y-55228293D01*
X231330184Y-55228295D01*
X231322335Y-55245014D01*
X231272583Y-55350982D01*
X231271203Y-55359846D01*
X231271202Y-55359849D01*
X231253496Y-55473569D01*
X231250350Y-55493773D01*
X222795855Y-55493773D01*
X222809536Y-55412453D01*
X222809688Y-55400000D01*
X222797014Y-55311502D01*
X222790474Y-55265835D01*
X222790473Y-55265833D01*
X222789201Y-55256948D01*
X222729388Y-55125395D01*
X222723530Y-55118596D01*
X222723527Y-55118592D01*
X222640916Y-55022718D01*
X222640913Y-55022716D01*
X222635056Y-55015918D01*
X222560500Y-54967593D01*
X222521324Y-54942200D01*
X222521322Y-54942199D01*
X222513790Y-54937317D01*
X222432702Y-54913066D01*
X222383938Y-54898482D01*
X222383936Y-54898482D01*
X222375337Y-54895910D01*
X222366363Y-54895855D01*
X222366361Y-54895855D01*
X222303082Y-54895469D01*
X222230827Y-54895028D01*
X222222196Y-54897495D01*
X222222194Y-54897495D01*
X222100509Y-54932272D01*
X222100505Y-54932274D01*
X222091879Y-54934739D01*
X222084292Y-54939526D01*
X222084290Y-54939527D01*
X221980422Y-55005063D01*
X221969661Y-55011853D01*
X221963718Y-55018582D01*
X221963717Y-55018583D01*
X221934391Y-55051789D01*
X221873999Y-55120170D01*
X221812583Y-55250982D01*
X221811203Y-55259846D01*
X221811202Y-55259849D01*
X221796084Y-55356948D01*
X221790350Y-55393773D01*
X221357789Y-55393773D01*
X221425572Y-55352154D01*
X221433986Y-55342859D01*
X221491311Y-55279527D01*
X221522551Y-55245014D01*
X221585560Y-55114962D01*
X221609536Y-54972453D01*
X221609688Y-54960000D01*
X221594660Y-54855063D01*
X221590474Y-54825835D01*
X221590473Y-54825833D01*
X221589201Y-54816948D01*
X221529388Y-54685395D01*
X221523530Y-54678596D01*
X221523527Y-54678592D01*
X221440916Y-54582718D01*
X221440913Y-54582716D01*
X221435056Y-54575918D01*
X221313790Y-54497317D01*
X221296921Y-54492272D01*
X221183938Y-54458482D01*
X221183936Y-54458482D01*
X221175337Y-54455910D01*
X221166363Y-54455855D01*
X221166361Y-54455855D01*
X221103082Y-54455469D01*
X221030827Y-54455028D01*
X221022196Y-54457495D01*
X221022194Y-54457495D01*
X220900509Y-54492272D01*
X220900505Y-54492274D01*
X220891879Y-54494739D01*
X220884292Y-54499526D01*
X220884290Y-54499527D01*
X220784559Y-54562453D01*
X220769661Y-54571853D01*
X220673999Y-54680170D01*
X220612583Y-54810982D01*
X220611203Y-54819846D01*
X220611202Y-54819849D01*
X220593313Y-54934745D01*
X220590350Y-54953773D01*
X217346649Y-54953773D01*
X217365572Y-54942154D01*
X217462551Y-54835014D01*
X217525560Y-54704962D01*
X217549536Y-54562453D01*
X217549688Y-54550000D01*
X217529201Y-54406948D01*
X217469388Y-54275395D01*
X217463530Y-54268596D01*
X217463527Y-54268592D01*
X217380916Y-54172718D01*
X217380913Y-54172716D01*
X217375056Y-54165918D01*
X217253790Y-54087317D01*
X217236921Y-54082272D01*
X217123938Y-54048482D01*
X217123936Y-54048482D01*
X217115337Y-54045910D01*
X217106363Y-54045855D01*
X217106361Y-54045855D01*
X217043082Y-54045469D01*
X216970827Y-54045028D01*
X216962196Y-54047495D01*
X216962194Y-54047495D01*
X216840509Y-54082272D01*
X216840505Y-54082274D01*
X216831879Y-54084739D01*
X216824292Y-54089526D01*
X216824290Y-54089527D01*
X216775724Y-54120170D01*
X216709661Y-54161853D01*
X216613999Y-54270170D01*
X216552583Y-54400982D01*
X216551203Y-54409846D01*
X216551202Y-54409849D01*
X216537984Y-54494745D01*
X216530350Y-54543773D01*
X216531514Y-54552675D01*
X216531514Y-54552678D01*
X216547668Y-54676208D01*
X216549088Y-54687065D01*
X216607289Y-54819339D01*
X216613063Y-54826208D01*
X216679951Y-54905780D01*
X216700276Y-54929960D01*
X216707747Y-54934933D01*
X216707748Y-54934934D01*
X216813101Y-55005063D01*
X216813103Y-55005064D01*
X216820574Y-55010037D01*
X216829141Y-55012713D01*
X216837245Y-55016579D01*
X216836552Y-55018032D01*
X216887144Y-55051789D01*
X216915522Y-55116867D01*
X216904212Y-55186957D01*
X216856803Y-55239806D01*
X216825140Y-55253801D01*
X216814129Y-55256948D01*
X216751879Y-55274739D01*
X216744292Y-55279526D01*
X216744290Y-55279527D01*
X216640627Y-55344934D01*
X216629661Y-55351853D01*
X216623718Y-55358582D01*
X216623717Y-55358583D01*
X216591392Y-55395184D01*
X216533999Y-55460170D01*
X216530185Y-55468293D01*
X216530184Y-55468295D01*
X216513017Y-55504860D01*
X216472583Y-55590982D01*
X216471203Y-55599846D01*
X216471202Y-55599849D01*
X216453804Y-55711591D01*
X216450350Y-55733773D01*
X215454500Y-55733773D01*
X215454500Y-53293773D01*
X218190350Y-53293773D01*
X218191514Y-53302675D01*
X218191514Y-53302678D01*
X218198998Y-53359904D01*
X218209088Y-53437065D01*
X218267289Y-53569339D01*
X218360276Y-53679960D01*
X218367747Y-53684933D01*
X218367748Y-53684934D01*
X218473101Y-53755063D01*
X218473103Y-53755064D01*
X218480574Y-53760037D01*
X218489138Y-53762713D01*
X218489141Y-53762714D01*
X218532333Y-53776208D01*
X218618510Y-53803132D01*
X218762998Y-53805780D01*
X218827995Y-53788060D01*
X218893763Y-53770130D01*
X218893765Y-53770129D01*
X218902422Y-53767769D01*
X219025572Y-53692154D01*
X219122551Y-53585014D01*
X219162442Y-53502678D01*
X219166756Y-53493773D01*
X221340350Y-53493773D01*
X221341514Y-53502675D01*
X221341514Y-53502678D01*
X221352281Y-53585014D01*
X221359088Y-53637065D01*
X221417289Y-53769339D01*
X221423063Y-53776208D01*
X221439819Y-53796141D01*
X221510276Y-53879960D01*
X221517747Y-53884933D01*
X221517748Y-53884934D01*
X221623101Y-53955063D01*
X221623103Y-53955064D01*
X221630574Y-53960037D01*
X221639138Y-53962713D01*
X221639141Y-53962714D01*
X221675906Y-53974200D01*
X221768510Y-54003132D01*
X221912998Y-54005780D01*
X221932530Y-54000455D01*
X222043763Y-53970130D01*
X222043765Y-53970129D01*
X222052422Y-53967769D01*
X222175572Y-53892154D01*
X222186610Y-53879960D01*
X222188493Y-53877880D01*
X222249037Y-53840801D01*
X222320017Y-53842340D01*
X222351725Y-53857551D01*
X222423101Y-53905063D01*
X222423103Y-53905064D01*
X222430574Y-53910037D01*
X222439138Y-53912713D01*
X222439141Y-53912714D01*
X222499542Y-53931585D01*
X222568510Y-53953132D01*
X222712998Y-53955780D01*
X222737423Y-53949121D01*
X222843763Y-53920130D01*
X222843765Y-53920129D01*
X222852422Y-53917769D01*
X222905899Y-53884934D01*
X222970408Y-53845325D01*
X223038925Y-53826727D01*
X223106621Y-53848124D01*
X223132786Y-53871623D01*
X223143369Y-53884212D01*
X223143373Y-53884215D01*
X223149149Y-53891087D01*
X223156620Y-53896060D01*
X223156621Y-53896061D01*
X223261974Y-53966190D01*
X223261976Y-53966191D01*
X223269447Y-53971164D01*
X223278011Y-53973840D01*
X223278014Y-53973841D01*
X223338415Y-53992711D01*
X223407383Y-54014259D01*
X223551871Y-54016907D01*
X223571403Y-54011582D01*
X223682636Y-53981257D01*
X223682638Y-53981256D01*
X223691295Y-53978896D01*
X223814445Y-53903281D01*
X223911424Y-53796141D01*
X223974433Y-53666089D01*
X223998409Y-53523580D01*
X223998561Y-53511127D01*
X223978074Y-53368075D01*
X223944291Y-53293773D01*
X230740350Y-53293773D01*
X230741514Y-53302675D01*
X230741514Y-53302678D01*
X230748998Y-53359904D01*
X230759088Y-53437065D01*
X230817289Y-53569339D01*
X230910276Y-53679960D01*
X230917747Y-53684933D01*
X230917748Y-53684934D01*
X231023101Y-53755063D01*
X231023103Y-53755064D01*
X231030574Y-53760037D01*
X231039138Y-53762713D01*
X231039141Y-53762714D01*
X231082333Y-53776208D01*
X231168510Y-53803132D01*
X231312998Y-53805780D01*
X231377995Y-53788060D01*
X231443763Y-53770130D01*
X231443765Y-53770129D01*
X231452422Y-53767769D01*
X231534485Y-53717382D01*
X231603001Y-53698784D01*
X231670232Y-53719870D01*
X231723101Y-53755063D01*
X231723103Y-53755064D01*
X231730574Y-53760037D01*
X231739138Y-53762713D01*
X231739141Y-53762714D01*
X231782333Y-53776208D01*
X231868510Y-53803132D01*
X232012998Y-53805780D01*
X232077995Y-53788060D01*
X232143763Y-53770130D01*
X232143765Y-53770129D01*
X232152422Y-53767769D01*
X232275572Y-53692154D01*
X232372551Y-53585014D01*
X232412442Y-53502678D01*
X232431645Y-53463043D01*
X232431645Y-53463042D01*
X232435560Y-53454962D01*
X232459536Y-53312453D01*
X232459688Y-53300000D01*
X232439201Y-53156948D01*
X232379388Y-53025395D01*
X232373530Y-53018596D01*
X232373527Y-53018592D01*
X232290916Y-52922718D01*
X232290913Y-52922716D01*
X232285056Y-52915918D01*
X232163790Y-52837317D01*
X232146921Y-52832272D01*
X232033938Y-52798482D01*
X232033936Y-52798482D01*
X232025337Y-52795910D01*
X232016363Y-52795855D01*
X232016361Y-52795855D01*
X231953082Y-52795469D01*
X231880827Y-52795028D01*
X231872196Y-52797495D01*
X231872194Y-52797495D01*
X231750509Y-52832272D01*
X231750505Y-52832274D01*
X231741879Y-52834739D01*
X231734288Y-52839528D01*
X231734287Y-52839529D01*
X231667095Y-52881923D01*
X231598810Y-52901357D01*
X231531328Y-52881093D01*
X231471324Y-52842200D01*
X231471322Y-52842199D01*
X231463790Y-52837317D01*
X231446921Y-52832272D01*
X231333938Y-52798482D01*
X231333936Y-52798482D01*
X231325337Y-52795910D01*
X231316363Y-52795855D01*
X231316361Y-52795855D01*
X231253082Y-52795469D01*
X231180827Y-52795028D01*
X231172196Y-52797495D01*
X231172194Y-52797495D01*
X231050509Y-52832272D01*
X231050505Y-52832274D01*
X231041879Y-52834739D01*
X231034292Y-52839526D01*
X231034290Y-52839527D01*
X230967097Y-52881923D01*
X230919661Y-52911853D01*
X230913718Y-52918582D01*
X230913717Y-52918583D01*
X230889583Y-52945910D01*
X230823999Y-53020170D01*
X230820185Y-53028293D01*
X230820184Y-53028295D01*
X230814911Y-53039527D01*
X230762583Y-53150982D01*
X230761203Y-53159846D01*
X230761202Y-53159849D01*
X230752858Y-53213442D01*
X230740350Y-53293773D01*
X223944291Y-53293773D01*
X223918261Y-53236522D01*
X223912403Y-53229723D01*
X223912400Y-53229719D01*
X223829789Y-53133845D01*
X223829786Y-53133843D01*
X223823929Y-53127045D01*
X223729622Y-53065918D01*
X223710197Y-53053327D01*
X223710195Y-53053326D01*
X223702663Y-53048444D01*
X223656858Y-53034745D01*
X223572811Y-53009609D01*
X223572809Y-53009609D01*
X223564210Y-53007037D01*
X223555236Y-53006982D01*
X223555234Y-53006982D01*
X223491955Y-53006596D01*
X223419700Y-53006155D01*
X223411069Y-53008622D01*
X223411067Y-53008622D01*
X223289382Y-53043399D01*
X223289378Y-53043401D01*
X223280752Y-53045866D01*
X223273161Y-53050655D01*
X223273160Y-53050656D01*
X223169823Y-53115856D01*
X223101538Y-53135290D01*
X223033586Y-53114721D01*
X223007135Y-53091542D01*
X222990915Y-53072718D01*
X222985056Y-53065918D01*
X222898182Y-53009609D01*
X222871324Y-52992200D01*
X222871322Y-52992199D01*
X222863790Y-52987317D01*
X222806322Y-52970130D01*
X222733938Y-52948482D01*
X222733936Y-52948482D01*
X222725337Y-52945910D01*
X222716363Y-52945855D01*
X222716361Y-52945855D01*
X222653082Y-52945469D01*
X222580827Y-52945028D01*
X222572196Y-52947495D01*
X222572194Y-52947495D01*
X222450509Y-52982272D01*
X222450505Y-52982274D01*
X222441879Y-52984739D01*
X222434292Y-52989526D01*
X222434290Y-52989527D01*
X222344999Y-53045866D01*
X222319661Y-53061853D01*
X222312399Y-53070076D01*
X222312161Y-53070345D01*
X222310188Y-53071587D01*
X222306885Y-53074398D01*
X222306479Y-53073921D01*
X222252074Y-53108163D01*
X222181081Y-53107492D01*
X222149188Y-53092669D01*
X222071324Y-53042200D01*
X222071322Y-53042199D01*
X222063790Y-53037317D01*
X222033623Y-53028295D01*
X221933938Y-52998482D01*
X221933936Y-52998482D01*
X221925337Y-52995910D01*
X221916363Y-52995855D01*
X221916361Y-52995855D01*
X221853082Y-52995469D01*
X221780827Y-52995028D01*
X221772196Y-52997495D01*
X221772194Y-52997495D01*
X221650509Y-53032272D01*
X221650505Y-53032274D01*
X221641879Y-53034739D01*
X221634292Y-53039526D01*
X221634290Y-53039527D01*
X221527254Y-53107062D01*
X221519661Y-53111853D01*
X221513718Y-53118582D01*
X221513717Y-53118583D01*
X221472108Y-53165697D01*
X221423999Y-53220170D01*
X221420185Y-53228293D01*
X221420184Y-53228295D01*
X221412484Y-53244696D01*
X221362583Y-53350982D01*
X221361203Y-53359846D01*
X221361202Y-53359849D01*
X221345135Y-53463043D01*
X221340350Y-53493773D01*
X219166756Y-53493773D01*
X219181645Y-53463043D01*
X219181645Y-53463042D01*
X219185560Y-53454962D01*
X219209536Y-53312453D01*
X219209688Y-53300000D01*
X219189201Y-53156948D01*
X219129388Y-53025395D01*
X219123530Y-53018596D01*
X219123527Y-53018592D01*
X219040916Y-52922718D01*
X219040913Y-52922716D01*
X219035056Y-52915918D01*
X218913790Y-52837317D01*
X218896921Y-52832272D01*
X218783938Y-52798482D01*
X218783936Y-52798482D01*
X218775337Y-52795910D01*
X218766363Y-52795855D01*
X218766361Y-52795855D01*
X218703082Y-52795469D01*
X218630827Y-52795028D01*
X218622196Y-52797495D01*
X218622194Y-52797495D01*
X218500509Y-52832272D01*
X218500505Y-52832274D01*
X218491879Y-52834739D01*
X218484292Y-52839526D01*
X218484290Y-52839527D01*
X218417097Y-52881923D01*
X218369661Y-52911853D01*
X218363718Y-52918582D01*
X218363717Y-52918583D01*
X218339583Y-52945910D01*
X218273999Y-53020170D01*
X218270185Y-53028293D01*
X218270184Y-53028295D01*
X218264911Y-53039527D01*
X218212583Y-53150982D01*
X218211203Y-53159846D01*
X218211202Y-53159849D01*
X218202858Y-53213442D01*
X218190350Y-53293773D01*
X215454500Y-53293773D01*
X215454500Y-52493773D01*
X226490350Y-52493773D01*
X226491514Y-52502675D01*
X226491514Y-52502678D01*
X226507924Y-52628164D01*
X226509088Y-52637065D01*
X226567289Y-52769339D01*
X226660276Y-52879960D01*
X226667747Y-52884933D01*
X226667748Y-52884934D01*
X226773101Y-52955063D01*
X226773103Y-52955064D01*
X226780574Y-52960037D01*
X226789138Y-52962713D01*
X226789141Y-52962714D01*
X226849542Y-52981585D01*
X226918510Y-53003132D01*
X227062998Y-53005780D01*
X227089767Y-52998482D01*
X227193763Y-52970130D01*
X227193765Y-52970129D01*
X227202422Y-52967769D01*
X227325572Y-52892154D01*
X227422551Y-52785014D01*
X227485560Y-52654962D01*
X227509536Y-52512453D01*
X227509688Y-52500000D01*
X227489201Y-52356948D01*
X227429388Y-52225395D01*
X227423530Y-52218596D01*
X227423527Y-52218592D01*
X227340916Y-52122718D01*
X227340913Y-52122716D01*
X227335056Y-52115918D01*
X227252970Y-52062712D01*
X227221324Y-52042200D01*
X227221322Y-52042199D01*
X227213790Y-52037317D01*
X227195102Y-52031728D01*
X227083938Y-51998482D01*
X227083936Y-51998482D01*
X227075337Y-51995910D01*
X227066363Y-51995855D01*
X227066361Y-51995855D01*
X227003082Y-51995469D01*
X226930827Y-51995028D01*
X226922196Y-51997495D01*
X226922194Y-51997495D01*
X226800509Y-52032272D01*
X226800505Y-52032274D01*
X226791879Y-52034739D01*
X226784292Y-52039526D01*
X226784290Y-52039527D01*
X226712198Y-52085014D01*
X226669661Y-52111853D01*
X226663718Y-52118582D01*
X226663717Y-52118583D01*
X226609511Y-52179960D01*
X226573999Y-52220170D01*
X226570185Y-52228293D01*
X226570184Y-52228295D01*
X226554025Y-52262714D01*
X226512583Y-52350982D01*
X226490350Y-52493773D01*
X215454500Y-52493773D01*
X215454500Y-51801577D01*
X215474502Y-51733456D01*
X215528158Y-51686963D01*
X215598432Y-51676859D01*
X215663012Y-51706353D01*
X215668414Y-51711317D01*
X215776938Y-51817035D01*
X215945720Y-51929812D01*
X215951023Y-51932090D01*
X215951026Y-51932092D01*
X216103257Y-51997495D01*
X216132228Y-52009942D01*
X216205244Y-52026464D01*
X216324579Y-52053467D01*
X216324584Y-52053468D01*
X216330216Y-52054742D01*
X216335987Y-52054969D01*
X216335989Y-52054969D01*
X216395756Y-52057317D01*
X216533053Y-52062712D01*
X216633499Y-52048148D01*
X216728231Y-52034413D01*
X216728236Y-52034412D01*
X216733945Y-52033584D01*
X216739409Y-52031729D01*
X216739414Y-52031728D01*
X216920693Y-51970192D01*
X216920698Y-51970190D01*
X216926165Y-51968334D01*
X216950043Y-51954962D01*
X217000683Y-51926602D01*
X217103276Y-51869147D01*
X217165934Y-51817035D01*
X217193903Y-51793773D01*
X221190350Y-51793773D01*
X221191514Y-51802675D01*
X221191514Y-51802678D01*
X221200576Y-51871972D01*
X221209088Y-51937065D01*
X221267289Y-52069339D01*
X221360276Y-52179960D01*
X221367747Y-52184933D01*
X221367748Y-52184934D01*
X221473101Y-52255063D01*
X221473103Y-52255064D01*
X221480574Y-52260037D01*
X221489138Y-52262713D01*
X221489141Y-52262714D01*
X221549542Y-52281585D01*
X221618510Y-52303132D01*
X221762998Y-52305780D01*
X221782530Y-52300455D01*
X221893763Y-52270130D01*
X221893765Y-52270129D01*
X221902422Y-52267769D01*
X222025572Y-52192154D01*
X222122551Y-52085014D01*
X222178181Y-51970192D01*
X222181645Y-51963043D01*
X222181645Y-51963042D01*
X222185560Y-51954962D01*
X222209536Y-51812453D01*
X222209688Y-51800000D01*
X222196988Y-51711323D01*
X222190474Y-51665835D01*
X222190473Y-51665833D01*
X222189201Y-51656948D01*
X222129388Y-51525395D01*
X222123530Y-51518596D01*
X222123527Y-51518592D01*
X222040916Y-51422718D01*
X222040913Y-51422716D01*
X222035056Y-51415918D01*
X221927356Y-51346110D01*
X221921324Y-51342200D01*
X221921322Y-51342199D01*
X221913790Y-51337317D01*
X221883185Y-51328164D01*
X221783938Y-51298482D01*
X221783936Y-51298482D01*
X221775337Y-51295910D01*
X221766363Y-51295855D01*
X221766361Y-51295855D01*
X221703082Y-51295469D01*
X221630827Y-51295028D01*
X221622196Y-51297495D01*
X221622194Y-51297495D01*
X221500509Y-51332272D01*
X221500505Y-51332274D01*
X221491879Y-51334739D01*
X221484292Y-51339526D01*
X221484290Y-51339527D01*
X221447020Y-51363043D01*
X221369661Y-51411853D01*
X221363718Y-51418582D01*
X221363717Y-51418583D01*
X221324742Y-51462714D01*
X221273999Y-51520170D01*
X221212583Y-51650982D01*
X221211203Y-51659846D01*
X221211202Y-51659849D01*
X221198251Y-51743031D01*
X221190350Y-51793773D01*
X217193903Y-51793773D01*
X217254913Y-51743031D01*
X217259345Y-51739345D01*
X217316911Y-51670130D01*
X217385453Y-51587718D01*
X217385455Y-51587715D01*
X217389147Y-51583276D01*
X217488334Y-51406165D01*
X217490190Y-51400698D01*
X217490192Y-51400693D01*
X217551728Y-51219414D01*
X217551729Y-51219409D01*
X217553584Y-51213945D01*
X217554412Y-51208236D01*
X217554413Y-51208231D01*
X217575927Y-51059849D01*
X217582712Y-51013053D01*
X217583217Y-50993773D01*
X224816850Y-50993773D01*
X224818014Y-51002675D01*
X224818014Y-51002678D01*
X224826273Y-51065835D01*
X224835588Y-51137065D01*
X224893789Y-51269339D01*
X224986776Y-51379960D01*
X224994247Y-51384933D01*
X224994248Y-51384934D01*
X225099601Y-51455063D01*
X225099603Y-51455064D01*
X225107074Y-51460037D01*
X225115638Y-51462713D01*
X225115641Y-51462714D01*
X225176042Y-51481584D01*
X225245010Y-51503132D01*
X225389498Y-51505780D01*
X225409030Y-51500455D01*
X225520263Y-51470130D01*
X225520265Y-51470129D01*
X225528922Y-51467769D01*
X225652072Y-51392154D01*
X225749051Y-51285014D01*
X225792573Y-51195184D01*
X225793257Y-51193773D01*
X226490350Y-51193773D01*
X226491514Y-51202675D01*
X226491514Y-51202678D01*
X226507924Y-51328164D01*
X226509088Y-51337065D01*
X226567289Y-51469339D01*
X226660276Y-51579960D01*
X226667747Y-51584933D01*
X226667748Y-51584934D01*
X226773101Y-51655063D01*
X226773103Y-51655064D01*
X226780574Y-51660037D01*
X226789138Y-51662713D01*
X226789141Y-51662714D01*
X226834417Y-51676859D01*
X226918510Y-51703132D01*
X227062998Y-51705780D01*
X227132019Y-51686963D01*
X227193763Y-51670130D01*
X227193765Y-51670129D01*
X227202422Y-51667769D01*
X227325572Y-51592154D01*
X227422551Y-51485014D01*
X227485560Y-51354962D01*
X227509536Y-51212453D01*
X227509688Y-51200000D01*
X227489201Y-51056948D01*
X227429388Y-50925395D01*
X227423530Y-50918596D01*
X227423527Y-50918592D01*
X227340916Y-50822718D01*
X227340913Y-50822716D01*
X227335056Y-50815918D01*
X227246646Y-50758613D01*
X227221324Y-50742200D01*
X227221322Y-50742199D01*
X227213790Y-50737317D01*
X227183623Y-50728295D01*
X227083938Y-50698482D01*
X227083936Y-50698482D01*
X227075337Y-50695910D01*
X227066363Y-50695855D01*
X227066361Y-50695855D01*
X227003082Y-50695469D01*
X226930827Y-50695028D01*
X226922196Y-50697495D01*
X226922194Y-50697495D01*
X226800509Y-50732272D01*
X226800505Y-50732274D01*
X226791879Y-50734739D01*
X226784292Y-50739526D01*
X226784290Y-50739527D01*
X226754041Y-50758613D01*
X226669661Y-50811853D01*
X226663718Y-50818582D01*
X226663717Y-50818583D01*
X226621986Y-50865835D01*
X226573999Y-50920170D01*
X226512583Y-51050982D01*
X226511203Y-51059846D01*
X226511202Y-51059849D01*
X226495135Y-51163043D01*
X226490350Y-51193773D01*
X225793257Y-51193773D01*
X225808145Y-51163043D01*
X225808145Y-51163042D01*
X225812060Y-51154962D01*
X225836036Y-51012453D01*
X225836188Y-51000000D01*
X225815701Y-50856948D01*
X225755888Y-50725395D01*
X225750030Y-50718596D01*
X225750027Y-50718592D01*
X225667416Y-50622718D01*
X225667413Y-50622716D01*
X225661556Y-50615918D01*
X225579985Y-50563046D01*
X225547824Y-50542200D01*
X225547822Y-50542199D01*
X225540290Y-50537317D01*
X225490238Y-50522348D01*
X225410438Y-50498482D01*
X225410436Y-50498482D01*
X225401837Y-50495910D01*
X225392863Y-50495855D01*
X225392861Y-50495855D01*
X225329582Y-50495469D01*
X225257327Y-50495028D01*
X225248696Y-50497495D01*
X225248694Y-50497495D01*
X225127009Y-50532272D01*
X225127005Y-50532274D01*
X225118379Y-50534739D01*
X225110792Y-50539526D01*
X225110790Y-50539527D01*
X225073515Y-50563046D01*
X224996161Y-50611853D01*
X224900499Y-50720170D01*
X224896685Y-50728293D01*
X224896684Y-50728295D01*
X224882450Y-50758613D01*
X224839083Y-50850982D01*
X224837703Y-50859846D01*
X224837702Y-50859849D01*
X224827497Y-50925395D01*
X224816850Y-50993773D01*
X217583217Y-50993773D01*
X217584232Y-50955000D01*
X217565658Y-50752859D01*
X217527788Y-50618583D01*
X217512125Y-50563046D01*
X217512124Y-50563044D01*
X217510557Y-50557487D01*
X217503019Y-50542200D01*
X217423331Y-50380609D01*
X217420776Y-50375428D01*
X217299320Y-50212779D01*
X217150258Y-50074987D01*
X217145375Y-50071906D01*
X217145371Y-50071903D01*
X216983464Y-49969748D01*
X216978581Y-49966667D01*
X216862302Y-49920276D01*
X217690350Y-49920276D01*
X217691514Y-49929178D01*
X217691514Y-49929181D01*
X217698805Y-49984934D01*
X217709088Y-50063568D01*
X217767289Y-50195842D01*
X217860276Y-50306463D01*
X217867747Y-50311436D01*
X217867748Y-50311437D01*
X217973101Y-50381566D01*
X217973103Y-50381567D01*
X217980574Y-50386540D01*
X217989138Y-50389216D01*
X217989141Y-50389217D01*
X218049542Y-50408087D01*
X218118510Y-50429635D01*
X218262998Y-50432283D01*
X218282530Y-50426958D01*
X218393763Y-50396633D01*
X218393765Y-50396632D01*
X218402422Y-50394272D01*
X218525572Y-50318657D01*
X218622551Y-50211517D01*
X218685560Y-50081465D01*
X218709536Y-49938956D01*
X218709688Y-49926503D01*
X218698985Y-49851768D01*
X218690474Y-49792338D01*
X218690473Y-49792336D01*
X218689201Y-49783451D01*
X218682794Y-49769359D01*
X218634875Y-49663964D01*
X218624889Y-49593674D01*
X218636183Y-49556877D01*
X218642532Y-49543773D01*
X218685560Y-49454962D01*
X218709536Y-49312453D01*
X218709612Y-49306226D01*
X218709629Y-49304860D01*
X218709629Y-49304856D01*
X218709688Y-49300000D01*
X218694475Y-49193773D01*
X219588848Y-49193773D01*
X219590012Y-49202675D01*
X219590012Y-49202678D01*
X219604497Y-49313442D01*
X219607586Y-49337065D01*
X219665787Y-49469339D01*
X219671561Y-49476208D01*
X219748088Y-49567247D01*
X219758774Y-49579960D01*
X219766245Y-49584933D01*
X219766246Y-49584934D01*
X219871599Y-49655063D01*
X219871601Y-49655064D01*
X219879072Y-49660037D01*
X219887636Y-49662713D01*
X219887639Y-49662714D01*
X219948040Y-49681585D01*
X220017008Y-49703132D01*
X220161496Y-49705780D01*
X220181028Y-49700455D01*
X220292261Y-49670130D01*
X220292263Y-49670129D01*
X220300920Y-49667769D01*
X220421433Y-49593773D01*
X224816850Y-49593773D01*
X224818014Y-49602675D01*
X224818014Y-49602678D01*
X224831151Y-49703132D01*
X224835588Y-49737065D01*
X224893789Y-49869339D01*
X224899563Y-49876208D01*
X224948928Y-49934934D01*
X224986776Y-49979960D01*
X224994247Y-49984933D01*
X224994248Y-49984934D01*
X225099601Y-50055063D01*
X225099603Y-50055064D01*
X225107074Y-50060037D01*
X225115638Y-50062713D01*
X225115641Y-50062714D01*
X225154925Y-50074987D01*
X225245010Y-50103132D01*
X225389498Y-50105780D01*
X225409030Y-50100455D01*
X225520263Y-50070130D01*
X225520265Y-50070129D01*
X225528922Y-50067769D01*
X225652072Y-49992154D01*
X225749051Y-49885014D01*
X225812060Y-49754962D01*
X225836036Y-49612453D01*
X225836188Y-49600000D01*
X225826536Y-49532602D01*
X227552899Y-49532602D01*
X227554542Y-49557676D01*
X227556343Y-49569046D01*
X227603443Y-49754502D01*
X227607284Y-49765348D01*
X227687394Y-49939120D01*
X227693145Y-49949081D01*
X227803579Y-50105343D01*
X227811057Y-50114098D01*
X227948114Y-50247612D01*
X227957058Y-50254855D01*
X228116156Y-50361161D01*
X228126266Y-50366651D01*
X228302077Y-50442185D01*
X228313020Y-50445740D01*
X228499647Y-50487970D01*
X228506383Y-50488857D01*
X228520302Y-50485357D01*
X228520658Y-50484978D01*
X228523000Y-50475144D01*
X228523000Y-50469095D01*
X228777000Y-50469095D01*
X228780966Y-50482601D01*
X228794966Y-50484605D01*
X228903106Y-50468926D01*
X228914302Y-50466238D01*
X229095497Y-50404730D01*
X229105994Y-50400056D01*
X229272958Y-50306552D01*
X229282434Y-50300039D01*
X229429553Y-50177682D01*
X229437682Y-50169553D01*
X229560042Y-50022430D01*
X229566552Y-50012958D01*
X229660056Y-49845994D01*
X229664730Y-49835497D01*
X229726238Y-49654302D01*
X229728925Y-49643108D01*
X229742076Y-49552412D01*
X229771646Y-49487867D01*
X229831418Y-49449555D01*
X229902415Y-49449639D01*
X229962095Y-49488094D01*
X229991708Y-49554155D01*
X230009088Y-49687065D01*
X230067289Y-49819339D01*
X230073063Y-49826208D01*
X230115093Y-49876208D01*
X230160276Y-49929960D01*
X230167747Y-49934933D01*
X230167748Y-49934934D01*
X230273101Y-50005063D01*
X230273103Y-50005064D01*
X230280574Y-50010037D01*
X230289138Y-50012713D01*
X230289141Y-50012714D01*
X230349542Y-50031585D01*
X230418510Y-50053132D01*
X230562998Y-50055780D01*
X230582530Y-50050455D01*
X230693763Y-50020130D01*
X230693765Y-50020129D01*
X230702422Y-50017769D01*
X230825572Y-49942154D01*
X230922551Y-49835014D01*
X230957420Y-49763043D01*
X230981645Y-49713043D01*
X230981645Y-49713042D01*
X230985560Y-49704962D01*
X231009536Y-49562453D01*
X231009688Y-49550000D01*
X230997234Y-49463040D01*
X230990474Y-49415835D01*
X230990473Y-49415833D01*
X230989201Y-49406948D01*
X230929388Y-49275395D01*
X230923530Y-49268596D01*
X230923527Y-49268592D01*
X230840916Y-49172718D01*
X230840913Y-49172716D01*
X230835056Y-49165918D01*
X230774423Y-49126617D01*
X230721324Y-49092200D01*
X230721322Y-49092199D01*
X230713790Y-49087317D01*
X230642111Y-49065880D01*
X230583938Y-49048482D01*
X230583936Y-49048482D01*
X230575337Y-49045910D01*
X230566363Y-49045855D01*
X230566361Y-49045855D01*
X230518517Y-49045563D01*
X230450519Y-49025145D01*
X230404355Y-48971206D01*
X230395032Y-48898660D01*
X230402050Y-48856948D01*
X230409536Y-48812453D01*
X230409688Y-48800000D01*
X230397292Y-48713442D01*
X230390474Y-48665835D01*
X230390473Y-48665833D01*
X230389201Y-48656948D01*
X230329388Y-48525395D01*
X230323530Y-48518596D01*
X230323527Y-48518592D01*
X230240916Y-48422718D01*
X230240913Y-48422716D01*
X230235056Y-48415918D01*
X230157788Y-48365835D01*
X230121324Y-48342200D01*
X230121322Y-48342199D01*
X230113790Y-48337317D01*
X230049434Y-48318070D01*
X229983938Y-48298482D01*
X229983936Y-48298482D01*
X229975337Y-48295910D01*
X229966363Y-48295855D01*
X229966361Y-48295855D01*
X229903082Y-48295469D01*
X229830827Y-48295028D01*
X229822196Y-48297495D01*
X229822194Y-48297495D01*
X229700509Y-48332272D01*
X229700505Y-48332274D01*
X229691879Y-48334739D01*
X229684292Y-48339526D01*
X229684290Y-48339527D01*
X229585212Y-48402041D01*
X229569661Y-48411853D01*
X229563718Y-48418582D01*
X229563717Y-48418583D01*
X229496440Y-48494760D01*
X229436354Y-48532578D01*
X229365361Y-48531908D01*
X229325295Y-48511315D01*
X229320062Y-48507300D01*
X229158236Y-48405195D01*
X229147989Y-48399974D01*
X228970260Y-48329068D01*
X228959232Y-48325801D01*
X228794769Y-48293088D01*
X228781894Y-48294240D01*
X228777000Y-48309396D01*
X228777000Y-50469095D01*
X228523000Y-50469095D01*
X228523000Y-49535115D01*
X228518525Y-49519876D01*
X228517135Y-49518671D01*
X228509452Y-49517000D01*
X227569991Y-49517000D01*
X227554951Y-49521416D01*
X227552899Y-49532602D01*
X225826536Y-49532602D01*
X225822955Y-49507601D01*
X225816974Y-49465835D01*
X225816973Y-49465833D01*
X225815701Y-49456948D01*
X225755888Y-49325395D01*
X225750030Y-49318596D01*
X225750027Y-49318592D01*
X225667416Y-49222718D01*
X225667413Y-49222716D01*
X225661556Y-49215918D01*
X225576882Y-49161035D01*
X225547824Y-49142200D01*
X225547822Y-49142199D01*
X225540290Y-49137317D01*
X225509685Y-49128164D01*
X225410438Y-49098482D01*
X225410436Y-49098482D01*
X225401837Y-49095910D01*
X225392863Y-49095855D01*
X225392861Y-49095855D01*
X225329582Y-49095469D01*
X225257327Y-49095028D01*
X225248696Y-49097495D01*
X225248694Y-49097495D01*
X225127009Y-49132272D01*
X225127005Y-49132274D01*
X225118379Y-49134739D01*
X225110792Y-49139526D01*
X225110790Y-49139527D01*
X225014947Y-49200000D01*
X224996161Y-49211853D01*
X224990218Y-49218582D01*
X224990217Y-49218583D01*
X224950990Y-49263000D01*
X224900499Y-49320170D01*
X224839083Y-49450982D01*
X224837703Y-49459846D01*
X224837702Y-49459849D01*
X224819001Y-49579960D01*
X224816850Y-49593773D01*
X220421433Y-49593773D01*
X220424070Y-49592154D01*
X220521049Y-49485014D01*
X220584058Y-49354962D01*
X220608034Y-49212453D01*
X220608186Y-49200000D01*
X220593271Y-49095855D01*
X220588972Y-49065835D01*
X220588971Y-49065833D01*
X220587699Y-49056948D01*
X220583372Y-49047430D01*
X220558976Y-48993773D01*
X226350350Y-48993773D01*
X226351514Y-49002675D01*
X226351514Y-49002678D01*
X226367924Y-49128164D01*
X226369088Y-49137065D01*
X226427289Y-49269339D01*
X226520276Y-49379960D01*
X226527747Y-49384933D01*
X226527748Y-49384934D01*
X226633101Y-49455063D01*
X226633103Y-49455064D01*
X226640574Y-49460037D01*
X226649138Y-49462713D01*
X226649141Y-49462714D01*
X226709542Y-49481585D01*
X226778510Y-49503132D01*
X226922998Y-49505780D01*
X226943671Y-49500144D01*
X227053763Y-49470130D01*
X227053765Y-49470129D01*
X227062422Y-49467769D01*
X227185572Y-49392154D01*
X227282551Y-49285014D01*
X227296868Y-49255464D01*
X227317909Y-49212035D01*
X227365611Y-49159452D01*
X227434170Y-49141006D01*
X227501817Y-49162553D01*
X227547077Y-49217254D01*
X227555532Y-49245931D01*
X227557819Y-49259432D01*
X227570559Y-49263000D01*
X228504885Y-49263000D01*
X228520124Y-49258525D01*
X228521329Y-49257135D01*
X228523000Y-49249452D01*
X228523000Y-48309678D01*
X228519194Y-48296716D01*
X228504278Y-48294780D01*
X228368737Y-48318070D01*
X228357617Y-48321050D01*
X228178095Y-48387279D01*
X228167717Y-48392229D01*
X228003273Y-48490063D01*
X227993961Y-48496829D01*
X227850097Y-48622994D01*
X227842180Y-48631337D01*
X227723718Y-48781605D01*
X227717450Y-48791256D01*
X227628360Y-48960589D01*
X227623954Y-48971226D01*
X227612921Y-49006756D01*
X227573617Y-49065880D01*
X227508588Y-49094370D01*
X227438479Y-49083180D01*
X227385549Y-49035862D01*
X227367862Y-48987252D01*
X227367526Y-48984901D01*
X227349201Y-48856948D01*
X227341280Y-48839527D01*
X227290244Y-48727277D01*
X227280258Y-48656986D01*
X227311529Y-48590571D01*
X227350423Y-48547601D01*
X227356448Y-48540945D01*
X227419457Y-48410893D01*
X227443433Y-48268384D01*
X227443585Y-48255931D01*
X227423098Y-48112879D01*
X227363285Y-47981326D01*
X227301281Y-47909367D01*
X227271967Y-47844704D01*
X227282266Y-47774459D01*
X227328908Y-47720932D01*
X227363591Y-47705556D01*
X227375121Y-47702412D01*
X227402101Y-47695057D01*
X227473084Y-47696436D01*
X227532053Y-47735973D01*
X227551349Y-47776388D01*
X227553097Y-47775664D01*
X227557844Y-47787126D01*
X227560266Y-47799301D01*
X227567161Y-47809620D01*
X227567162Y-47809622D01*
X227590604Y-47844704D01*
X227616516Y-47883484D01*
X227700699Y-47939734D01*
X227774933Y-47954500D01*
X228649858Y-47954500D01*
X229525066Y-47954499D01*
X229560818Y-47947388D01*
X229587126Y-47942156D01*
X229587128Y-47942155D01*
X229599301Y-47939734D01*
X229609621Y-47932839D01*
X229609622Y-47932838D01*
X229673168Y-47890377D01*
X229683484Y-47883484D01*
X229739734Y-47799301D01*
X229754500Y-47725067D01*
X229754499Y-46593773D01*
X230390350Y-46593773D01*
X230391514Y-46602675D01*
X230391514Y-46602678D01*
X230398362Y-46655043D01*
X230409088Y-46737065D01*
X230467289Y-46869339D01*
X230473063Y-46876208D01*
X230524669Y-46937600D01*
X230560276Y-46979960D01*
X230567747Y-46984933D01*
X230567748Y-46984934D01*
X230673101Y-47055063D01*
X230673103Y-47055064D01*
X230680574Y-47060037D01*
X230689138Y-47062713D01*
X230689141Y-47062714D01*
X230736369Y-47077469D01*
X230818510Y-47103132D01*
X230962998Y-47105780D01*
X231009534Y-47093093D01*
X231093763Y-47070130D01*
X231093765Y-47070129D01*
X231102422Y-47067769D01*
X231110069Y-47063074D01*
X231110073Y-47063072D01*
X231132467Y-47049322D01*
X231200984Y-47030724D01*
X231268211Y-47051808D01*
X231268895Y-47052263D01*
X231280574Y-47060037D01*
X231289138Y-47062713D01*
X231289141Y-47062714D01*
X231336369Y-47077469D01*
X231418510Y-47103132D01*
X231562998Y-47105780D01*
X231609534Y-47093093D01*
X231693763Y-47070130D01*
X231693765Y-47070129D01*
X231702422Y-47067769D01*
X231710069Y-47063074D01*
X231710073Y-47063072D01*
X231732467Y-47049322D01*
X231800984Y-47030724D01*
X231868211Y-47051808D01*
X231868895Y-47052263D01*
X231880574Y-47060037D01*
X231889138Y-47062713D01*
X231889141Y-47062714D01*
X231936369Y-47077469D01*
X232018510Y-47103132D01*
X232162998Y-47105780D01*
X232209534Y-47093093D01*
X232293763Y-47070130D01*
X232293765Y-47070129D01*
X232302422Y-47067769D01*
X232425572Y-46992154D01*
X232522551Y-46885014D01*
X232585560Y-46754962D01*
X232608468Y-46618801D01*
X233806779Y-46618801D01*
X233808622Y-46636338D01*
X233811626Y-46649999D01*
X233863411Y-46802117D01*
X233869371Y-46814781D01*
X233953560Y-46951628D01*
X233962189Y-46962673D01*
X234074606Y-47077469D01*
X234085456Y-47086317D01*
X234220512Y-47173355D01*
X234233061Y-47179585D01*
X234384045Y-47234538D01*
X234397655Y-47237831D01*
X234521711Y-47253503D01*
X234529600Y-47254000D01*
X234854885Y-47254000D01*
X234870124Y-47249525D01*
X234871329Y-47248135D01*
X234873000Y-47240452D01*
X234873000Y-46620115D01*
X234868525Y-46604876D01*
X234867135Y-46603671D01*
X234859452Y-46602000D01*
X233823128Y-46602000D01*
X233808837Y-46606196D01*
X233806779Y-46618801D01*
X232608468Y-46618801D01*
X232609536Y-46612453D01*
X232609612Y-46606196D01*
X232609629Y-46604860D01*
X232609629Y-46604856D01*
X232609688Y-46600000D01*
X232589201Y-46456948D01*
X232531487Y-46330011D01*
X233807726Y-46330011D01*
X233810153Y-46344418D01*
X233822921Y-46348000D01*
X234854885Y-46348000D01*
X234870124Y-46343525D01*
X234871329Y-46342135D01*
X234873000Y-46334452D01*
X234873000Y-45714115D01*
X234868525Y-45698876D01*
X234867135Y-45697671D01*
X234859452Y-45696000D01*
X234534581Y-45696000D01*
X234527557Y-45696393D01*
X234408319Y-45709767D01*
X234394674Y-45712867D01*
X234242922Y-45765712D01*
X234230304Y-45771758D01*
X234094038Y-45856907D01*
X234083065Y-45865604D01*
X233969051Y-45978825D01*
X233960279Y-45989735D01*
X233874188Y-46125394D01*
X233868044Y-46137990D01*
X233814145Y-46289354D01*
X233810949Y-46302980D01*
X233807726Y-46330011D01*
X232531487Y-46330011D01*
X232529388Y-46325395D01*
X232523530Y-46318596D01*
X232523527Y-46318592D01*
X232440916Y-46222718D01*
X232440913Y-46222716D01*
X232435056Y-46215918D01*
X232350054Y-46160822D01*
X232321324Y-46142200D01*
X232321322Y-46142199D01*
X232313790Y-46137317D01*
X232273923Y-46125394D01*
X232183938Y-46098482D01*
X232183936Y-46098482D01*
X232175337Y-46095910D01*
X232166363Y-46095855D01*
X232166361Y-46095855D01*
X232103082Y-46095469D01*
X232030827Y-46095028D01*
X232022196Y-46097495D01*
X232022194Y-46097495D01*
X231900510Y-46132272D01*
X231900508Y-46132273D01*
X231891879Y-46134739D01*
X231867769Y-46149952D01*
X231799486Y-46169386D01*
X231732003Y-46149122D01*
X231713790Y-46137317D01*
X231673923Y-46125394D01*
X231583938Y-46098482D01*
X231583936Y-46098482D01*
X231575337Y-46095910D01*
X231566363Y-46095855D01*
X231566361Y-46095855D01*
X231503082Y-46095469D01*
X231430827Y-46095028D01*
X231422196Y-46097495D01*
X231422194Y-46097495D01*
X231300510Y-46132272D01*
X231300508Y-46132273D01*
X231291879Y-46134739D01*
X231267769Y-46149952D01*
X231199486Y-46169386D01*
X231132003Y-46149122D01*
X231113790Y-46137317D01*
X231073923Y-46125394D01*
X230983938Y-46098482D01*
X230983936Y-46098482D01*
X230975337Y-46095910D01*
X230966363Y-46095855D01*
X230966361Y-46095855D01*
X230903082Y-46095469D01*
X230830827Y-46095028D01*
X230822196Y-46097495D01*
X230822194Y-46097495D01*
X230700509Y-46132272D01*
X230700505Y-46132274D01*
X230691879Y-46134739D01*
X230684292Y-46139526D01*
X230684290Y-46139527D01*
X230612198Y-46185014D01*
X230569661Y-46211853D01*
X230563718Y-46218582D01*
X230563717Y-46218583D01*
X230509511Y-46279960D01*
X230473999Y-46320170D01*
X230470185Y-46328293D01*
X230470184Y-46328295D01*
X230454906Y-46360837D01*
X230412583Y-46450982D01*
X230411203Y-46459846D01*
X230411202Y-46459849D01*
X230401735Y-46520656D01*
X230390350Y-46593773D01*
X229754499Y-46593773D01*
X229754499Y-45974934D01*
X229747388Y-45939182D01*
X229742156Y-45912874D01*
X229742155Y-45912872D01*
X229739734Y-45900699D01*
X229729416Y-45885256D01*
X229690377Y-45826832D01*
X229683484Y-45816516D01*
X229599301Y-45760266D01*
X229525067Y-45745500D01*
X229401963Y-45745500D01*
X227868952Y-45745501D01*
X227800831Y-45725499D01*
X227754251Y-45671652D01*
X227729347Y-45616878D01*
X227723489Y-45610079D01*
X227723486Y-45610075D01*
X227640875Y-45514201D01*
X227640872Y-45514199D01*
X227635015Y-45507401D01*
X227530299Y-45439527D01*
X227521283Y-45433683D01*
X227521281Y-45433682D01*
X227513749Y-45428800D01*
X227496880Y-45423755D01*
X227383897Y-45389965D01*
X227383895Y-45389965D01*
X227375296Y-45387393D01*
X227366322Y-45387338D01*
X227366320Y-45387338D01*
X227303041Y-45386952D01*
X227230786Y-45386511D01*
X227222155Y-45388978D01*
X227222153Y-45388978D01*
X227100468Y-45423755D01*
X227100464Y-45423757D01*
X227091838Y-45426222D01*
X227084251Y-45431009D01*
X227084249Y-45431010D01*
X227066514Y-45442200D01*
X226969620Y-45503336D01*
X226873958Y-45611653D01*
X226870144Y-45619776D01*
X226870143Y-45619778D01*
X226863668Y-45633569D01*
X226812542Y-45742465D01*
X226811162Y-45751329D01*
X226811161Y-45751332D01*
X226793369Y-45865604D01*
X226790309Y-45885256D01*
X226791473Y-45894158D01*
X226791473Y-45894161D01*
X226806003Y-46005273D01*
X226809047Y-46028548D01*
X226812660Y-46036760D01*
X226812662Y-46036766D01*
X226866454Y-46159018D01*
X226875581Y-46229426D01*
X226865180Y-46263313D01*
X226815579Y-46368960D01*
X226814199Y-46377824D01*
X226814198Y-46377827D01*
X226804073Y-46442859D01*
X226793346Y-46511751D01*
X226794510Y-46520653D01*
X226794510Y-46520656D01*
X226809638Y-46636338D01*
X226812084Y-46655043D01*
X226870285Y-46787317D01*
X226873836Y-46791541D01*
X226892386Y-46858264D01*
X226873431Y-46920011D01*
X226873770Y-46920170D01*
X226812354Y-47050982D01*
X226810974Y-47059846D01*
X226810973Y-47059849D01*
X226791598Y-47184288D01*
X226790121Y-47193773D01*
X226791285Y-47202675D01*
X226791285Y-47202678D01*
X226806377Y-47318088D01*
X226808859Y-47337065D01*
X226867060Y-47469339D01*
X226872832Y-47476206D01*
X226872836Y-47476212D01*
X226933050Y-47547845D01*
X226961571Y-47612861D01*
X226950415Y-47682975D01*
X226903123Y-47735928D01*
X226864418Y-47749887D01*
X226864724Y-47750959D01*
X226734406Y-47788203D01*
X226734402Y-47788205D01*
X226725776Y-47790670D01*
X226718189Y-47795457D01*
X226718187Y-47795458D01*
X226695742Y-47809620D01*
X226603558Y-47867784D01*
X226597615Y-47874513D01*
X226597614Y-47874514D01*
X226540014Y-47939734D01*
X226507896Y-47976101D01*
X226504082Y-47984224D01*
X226504081Y-47984226D01*
X226480363Y-48034745D01*
X226446480Y-48106913D01*
X226445100Y-48115777D01*
X226445099Y-48115780D01*
X226428846Y-48220170D01*
X226424247Y-48249704D01*
X226425411Y-48258606D01*
X226425411Y-48258609D01*
X226437491Y-48350982D01*
X226442985Y-48392996D01*
X226497656Y-48517247D01*
X226501186Y-48525270D01*
X226499160Y-48526161D01*
X226514882Y-48582725D01*
X226493894Y-48650548D01*
X226483337Y-48664305D01*
X226433999Y-48720170D01*
X226372583Y-48850982D01*
X226371203Y-48859846D01*
X226371202Y-48859849D01*
X226353861Y-48971226D01*
X226350350Y-48993773D01*
X220558976Y-48993773D01*
X220531602Y-48933568D01*
X220527886Y-48925395D01*
X220522231Y-48918832D01*
X220502424Y-48850822D01*
X220522614Y-48785044D01*
X220522551Y-48785014D01*
X220522748Y-48784608D01*
X220522749Y-48784606D01*
X220557227Y-48713442D01*
X220581645Y-48663043D01*
X220581645Y-48663042D01*
X220585560Y-48654962D01*
X220609536Y-48512453D01*
X220609688Y-48500000D01*
X220589201Y-48356948D01*
X220529388Y-48225395D01*
X220523530Y-48218596D01*
X220523527Y-48218592D01*
X220440916Y-48122718D01*
X220440913Y-48122716D01*
X220435056Y-48115918D01*
X220313790Y-48037317D01*
X220230756Y-48012484D01*
X220183938Y-47998482D01*
X220183936Y-47998482D01*
X220175337Y-47995910D01*
X220166363Y-47995855D01*
X220166361Y-47995855D01*
X220103082Y-47995469D01*
X220030827Y-47995028D01*
X220022196Y-47997495D01*
X220022194Y-47997495D01*
X219900509Y-48032272D01*
X219900505Y-48032274D01*
X219891879Y-48034739D01*
X219884292Y-48039526D01*
X219884290Y-48039527D01*
X219780985Y-48104708D01*
X219769661Y-48111853D01*
X219673999Y-48220170D01*
X219670185Y-48228293D01*
X219670184Y-48228295D01*
X219650658Y-48269885D01*
X219612583Y-48350982D01*
X219611203Y-48359846D01*
X219611202Y-48359849D01*
X219603233Y-48411035D01*
X219590350Y-48493773D01*
X219591514Y-48502675D01*
X219591514Y-48502678D01*
X219597389Y-48547601D01*
X219609088Y-48637065D01*
X219638188Y-48703202D01*
X219649230Y-48728295D01*
X219667289Y-48769339D01*
X219673065Y-48776211D01*
X219676956Y-48782461D01*
X219695974Y-48850863D01*
X219675875Y-48916346D01*
X219672497Y-48920170D01*
X219668683Y-48928293D01*
X219668682Y-48928295D01*
X219664565Y-48937065D01*
X219611081Y-49050982D01*
X219609701Y-49059846D01*
X219609700Y-49059849D01*
X219590999Y-49179960D01*
X219588848Y-49193773D01*
X218694475Y-49193773D01*
X218690474Y-49165835D01*
X218690473Y-49165833D01*
X218689201Y-49156948D01*
X218629388Y-49025395D01*
X218623530Y-49018596D01*
X218623527Y-49018592D01*
X218540916Y-48922718D01*
X218540913Y-48922716D01*
X218535056Y-48915918D01*
X218449552Y-48860497D01*
X218421324Y-48842200D01*
X218421322Y-48842199D01*
X218413790Y-48837317D01*
X218346682Y-48817247D01*
X218283938Y-48798482D01*
X218283936Y-48798482D01*
X218275337Y-48795910D01*
X218266363Y-48795855D01*
X218266361Y-48795855D01*
X218203082Y-48795469D01*
X218130827Y-48795028D01*
X218122196Y-48797495D01*
X218122194Y-48797495D01*
X218000509Y-48832272D01*
X218000505Y-48832274D01*
X217991879Y-48834739D01*
X217984292Y-48839526D01*
X217984290Y-48839527D01*
X217877254Y-48907062D01*
X217869661Y-48911853D01*
X217863718Y-48918582D01*
X217863717Y-48918583D01*
X217826619Y-48960589D01*
X217773999Y-49020170D01*
X217770185Y-49028293D01*
X217770184Y-49028295D01*
X217760568Y-49048777D01*
X217712583Y-49150982D01*
X217711203Y-49159846D01*
X217711202Y-49159849D01*
X217691939Y-49283569D01*
X217690350Y-49293773D01*
X217691514Y-49302675D01*
X217691514Y-49302678D01*
X217705150Y-49406948D01*
X217709088Y-49437065D01*
X217736843Y-49500144D01*
X217765028Y-49564201D01*
X217774154Y-49634608D01*
X217763753Y-49668494D01*
X217719363Y-49763043D01*
X217712583Y-49777485D01*
X217711203Y-49786349D01*
X217711202Y-49786352D01*
X217694506Y-49893586D01*
X217690350Y-49920276D01*
X216862302Y-49920276D01*
X216790039Y-49891446D01*
X216784379Y-49890320D01*
X216784375Y-49890319D01*
X216596613Y-49852971D01*
X216596610Y-49852971D01*
X216590946Y-49851844D01*
X216585171Y-49851768D01*
X216585167Y-49851768D01*
X216483793Y-49850441D01*
X216387971Y-49849187D01*
X216382274Y-49850166D01*
X216382273Y-49850166D01*
X216193607Y-49882585D01*
X216187910Y-49883564D01*
X215997463Y-49953824D01*
X215823010Y-50057612D01*
X215818670Y-50061418D01*
X215818666Y-50061421D01*
X215770224Y-50103904D01*
X215670392Y-50191455D01*
X215670314Y-50191554D01*
X215610502Y-50226280D01*
X215539577Y-50223073D01*
X215481646Y-50182031D01*
X215455100Y-50116184D01*
X215454500Y-50103904D01*
X215454500Y-49260879D01*
X215474502Y-49192758D01*
X215528158Y-49146265D01*
X215598432Y-49136161D01*
X215663012Y-49165655D01*
X215668421Y-49170625D01*
X215773114Y-49272612D01*
X215782058Y-49279855D01*
X215941156Y-49386161D01*
X215951266Y-49391651D01*
X216127077Y-49467185D01*
X216138020Y-49470740D01*
X216324647Y-49512970D01*
X216331383Y-49513857D01*
X216345302Y-49510357D01*
X216345658Y-49509978D01*
X216348000Y-49500144D01*
X216348000Y-49494095D01*
X216602000Y-49494095D01*
X216605966Y-49507601D01*
X216619966Y-49509605D01*
X216728106Y-49493926D01*
X216739302Y-49491238D01*
X216920497Y-49429730D01*
X216930994Y-49425056D01*
X217097958Y-49331552D01*
X217107430Y-49325042D01*
X217254553Y-49202682D01*
X217262682Y-49194553D01*
X217385042Y-49047430D01*
X217391552Y-49037958D01*
X217485056Y-48870994D01*
X217489730Y-48860497D01*
X217551238Y-48679302D01*
X217553926Y-48668106D01*
X217569610Y-48559929D01*
X217567624Y-48545993D01*
X217554056Y-48542000D01*
X216620115Y-48542000D01*
X216604876Y-48546475D01*
X216603671Y-48547865D01*
X216602000Y-48555548D01*
X216602000Y-49494095D01*
X216348000Y-49494095D01*
X216348000Y-48269885D01*
X216602000Y-48269885D01*
X216606475Y-48285124D01*
X216607865Y-48286329D01*
X216615548Y-48288000D01*
X217553945Y-48288000D01*
X217568490Y-48283729D01*
X217570553Y-48271595D01*
X217565693Y-48218707D01*
X217563595Y-48207386D01*
X217511658Y-48023231D01*
X217507533Y-48012484D01*
X217422903Y-47840871D01*
X217416893Y-47831063D01*
X217302400Y-47677739D01*
X217294710Y-47669199D01*
X217154192Y-47539304D01*
X217145067Y-47532303D01*
X216983236Y-47430195D01*
X216972989Y-47424974D01*
X216795260Y-47354068D01*
X216784232Y-47350801D01*
X216619769Y-47318088D01*
X216606894Y-47319240D01*
X216602000Y-47334396D01*
X216602000Y-48269885D01*
X216348000Y-48269885D01*
X216348000Y-47334678D01*
X216344194Y-47321716D01*
X216329278Y-47319780D01*
X216193737Y-47343070D01*
X216182617Y-47346050D01*
X216003095Y-47412279D01*
X215992717Y-47417229D01*
X215828273Y-47515063D01*
X215818961Y-47521829D01*
X215675096Y-47647995D01*
X215671897Y-47651366D01*
X215610497Y-47687010D01*
X215539573Y-47683801D01*
X215481643Y-47642756D01*
X215455099Y-47576908D01*
X215454500Y-47564633D01*
X215454500Y-47103586D01*
X215474502Y-47035465D01*
X215528158Y-46988972D01*
X215592850Y-46978193D01*
X215593865Y-46978293D01*
X215599933Y-46979500D01*
X216474858Y-46979500D01*
X217350066Y-46979499D01*
X217390751Y-46971407D01*
X217412126Y-46967156D01*
X217412128Y-46967155D01*
X217424301Y-46964734D01*
X217434621Y-46957839D01*
X217434622Y-46957838D01*
X217498168Y-46915377D01*
X217508484Y-46908484D01*
X217564734Y-46824301D01*
X217579500Y-46750067D01*
X217579500Y-46593773D01*
X222290350Y-46593773D01*
X222291514Y-46602675D01*
X222291514Y-46602678D01*
X222298362Y-46655043D01*
X222309088Y-46737065D01*
X222367289Y-46869339D01*
X222373063Y-46876208D01*
X222424669Y-46937600D01*
X222460276Y-46979960D01*
X222467747Y-46984933D01*
X222467748Y-46984934D01*
X222573101Y-47055063D01*
X222573103Y-47055064D01*
X222580574Y-47060037D01*
X222589138Y-47062713D01*
X222589141Y-47062714D01*
X222636369Y-47077469D01*
X222718510Y-47103132D01*
X222862998Y-47105780D01*
X222909534Y-47093093D01*
X222993763Y-47070130D01*
X222993765Y-47070129D01*
X223002422Y-47067769D01*
X223125572Y-46992154D01*
X223222551Y-46885014D01*
X223285560Y-46754962D01*
X223309536Y-46612453D01*
X223309612Y-46606196D01*
X223309629Y-46604860D01*
X223309629Y-46604856D01*
X223309688Y-46600000D01*
X223308796Y-46593773D01*
X223990350Y-46593773D01*
X223991514Y-46602675D01*
X223991514Y-46602678D01*
X223998362Y-46655043D01*
X224009088Y-46737065D01*
X224067289Y-46869339D01*
X224073063Y-46876208D01*
X224124669Y-46937600D01*
X224160276Y-46979960D01*
X224167747Y-46984933D01*
X224167748Y-46984934D01*
X224273101Y-47055063D01*
X224273103Y-47055064D01*
X224280574Y-47060037D01*
X224289138Y-47062713D01*
X224289141Y-47062714D01*
X224336369Y-47077469D01*
X224418510Y-47103132D01*
X224562998Y-47105780D01*
X224609534Y-47093093D01*
X224693763Y-47070130D01*
X224693765Y-47070129D01*
X224702422Y-47067769D01*
X224825572Y-46992154D01*
X224922551Y-46885014D01*
X224985560Y-46754962D01*
X225009536Y-46612453D01*
X225009612Y-46606196D01*
X225009629Y-46604860D01*
X225009629Y-46604856D01*
X225009688Y-46600000D01*
X224989201Y-46456948D01*
X224929388Y-46325395D01*
X224923530Y-46318596D01*
X224923527Y-46318592D01*
X224840916Y-46222718D01*
X224840913Y-46222716D01*
X224835056Y-46215918D01*
X224750054Y-46160822D01*
X224721324Y-46142200D01*
X224721322Y-46142199D01*
X224713790Y-46137317D01*
X224673923Y-46125394D01*
X224583938Y-46098482D01*
X224583936Y-46098482D01*
X224575337Y-46095910D01*
X224566363Y-46095855D01*
X224566361Y-46095855D01*
X224503082Y-46095469D01*
X224430827Y-46095028D01*
X224422196Y-46097495D01*
X224422194Y-46097495D01*
X224300509Y-46132272D01*
X224300505Y-46132274D01*
X224291879Y-46134739D01*
X224284292Y-46139526D01*
X224284290Y-46139527D01*
X224212198Y-46185014D01*
X224169661Y-46211853D01*
X224163718Y-46218582D01*
X224163717Y-46218583D01*
X224109511Y-46279960D01*
X224073999Y-46320170D01*
X224070185Y-46328293D01*
X224070184Y-46328295D01*
X224054906Y-46360837D01*
X224012583Y-46450982D01*
X224011203Y-46459846D01*
X224011202Y-46459849D01*
X224001735Y-46520656D01*
X223990350Y-46593773D01*
X223308796Y-46593773D01*
X223289201Y-46456948D01*
X223229388Y-46325395D01*
X223223530Y-46318596D01*
X223223527Y-46318592D01*
X223140916Y-46222718D01*
X223140913Y-46222716D01*
X223135056Y-46215918D01*
X223050054Y-46160822D01*
X223021324Y-46142200D01*
X223021322Y-46142199D01*
X223013790Y-46137317D01*
X222973923Y-46125394D01*
X222883938Y-46098482D01*
X222883936Y-46098482D01*
X222875337Y-46095910D01*
X222866363Y-46095855D01*
X222866361Y-46095855D01*
X222803082Y-46095469D01*
X222730827Y-46095028D01*
X222722196Y-46097495D01*
X222722194Y-46097495D01*
X222600509Y-46132272D01*
X222600505Y-46132274D01*
X222591879Y-46134739D01*
X222584292Y-46139526D01*
X222584290Y-46139527D01*
X222512198Y-46185014D01*
X222469661Y-46211853D01*
X222463718Y-46218582D01*
X222463717Y-46218583D01*
X222409511Y-46279960D01*
X222373999Y-46320170D01*
X222370185Y-46328293D01*
X222370184Y-46328295D01*
X222354906Y-46360837D01*
X222312583Y-46450982D01*
X222311203Y-46459846D01*
X222311202Y-46459849D01*
X222301735Y-46520656D01*
X222290350Y-46593773D01*
X217579500Y-46593773D01*
X217579500Y-45893773D01*
X225263848Y-45893773D01*
X225265012Y-45902675D01*
X225265012Y-45902678D01*
X225275893Y-45985883D01*
X225282586Y-46037065D01*
X225340787Y-46169339D01*
X225346561Y-46176208D01*
X225391296Y-46229426D01*
X225433774Y-46279960D01*
X225441245Y-46284933D01*
X225441246Y-46284934D01*
X225546599Y-46355063D01*
X225546601Y-46355064D01*
X225554072Y-46360037D01*
X225562636Y-46362713D01*
X225562639Y-46362714D01*
X225611013Y-46377827D01*
X225692008Y-46403132D01*
X225836496Y-46405780D01*
X225856028Y-46400455D01*
X225967261Y-46370130D01*
X225967263Y-46370129D01*
X225975920Y-46367769D01*
X226099070Y-46292154D01*
X226196049Y-46185014D01*
X226259058Y-46054962D01*
X226283034Y-45912453D01*
X226283186Y-45900000D01*
X226262699Y-45756948D01*
X226202886Y-45625395D01*
X226197028Y-45618596D01*
X226197025Y-45618592D01*
X226114414Y-45522718D01*
X226114411Y-45522716D01*
X226108554Y-45515918D01*
X225987288Y-45437317D01*
X225941941Y-45423755D01*
X225857436Y-45398482D01*
X225857434Y-45398482D01*
X225848835Y-45395910D01*
X225839861Y-45395855D01*
X225839859Y-45395855D01*
X225776580Y-45395469D01*
X225704325Y-45395028D01*
X225695694Y-45397495D01*
X225695692Y-45397495D01*
X225574007Y-45432272D01*
X225574003Y-45432274D01*
X225565377Y-45434739D01*
X225557790Y-45439526D01*
X225557788Y-45439527D01*
X225450752Y-45507062D01*
X225443159Y-45511853D01*
X225347497Y-45620170D01*
X225286081Y-45750982D01*
X225284701Y-45759846D01*
X225284700Y-45759849D01*
X225266556Y-45876384D01*
X225263848Y-45893773D01*
X217579500Y-45893773D01*
X217579499Y-44999934D01*
X217564734Y-44925699D01*
X217508484Y-44841516D01*
X217437032Y-44793773D01*
X221590350Y-44793773D01*
X221591514Y-44802675D01*
X221591514Y-44802678D01*
X221599408Y-44863043D01*
X221609088Y-44937065D01*
X221667289Y-45069339D01*
X221760276Y-45179960D01*
X221767747Y-45184933D01*
X221767748Y-45184934D01*
X221873101Y-45255063D01*
X221873103Y-45255064D01*
X221880574Y-45260037D01*
X221889138Y-45262713D01*
X221889141Y-45262714D01*
X221949542Y-45281585D01*
X222018510Y-45303132D01*
X222162998Y-45305780D01*
X222182530Y-45300455D01*
X222293763Y-45270130D01*
X222293765Y-45270129D01*
X222302422Y-45267769D01*
X222425572Y-45192154D01*
X222522551Y-45085014D01*
X222560773Y-45006123D01*
X222581645Y-44963043D01*
X222581645Y-44963042D01*
X222585560Y-44954962D01*
X222609536Y-44812453D01*
X222609688Y-44800000D01*
X222596454Y-44707593D01*
X222590474Y-44665835D01*
X222590473Y-44665833D01*
X222589201Y-44656948D01*
X222529388Y-44525395D01*
X222523530Y-44518596D01*
X222523527Y-44518592D01*
X222440916Y-44422718D01*
X222440913Y-44422716D01*
X222435056Y-44415918D01*
X222327356Y-44346110D01*
X222321324Y-44342200D01*
X222321322Y-44342199D01*
X222313790Y-44337317D01*
X222283185Y-44328164D01*
X222183938Y-44298482D01*
X222183936Y-44298482D01*
X222175337Y-44295910D01*
X222166363Y-44295855D01*
X222166361Y-44295855D01*
X222103082Y-44295469D01*
X222030827Y-44295028D01*
X222022196Y-44297495D01*
X222022194Y-44297495D01*
X221900509Y-44332272D01*
X221900505Y-44332274D01*
X221891879Y-44334739D01*
X221884292Y-44339526D01*
X221884290Y-44339527D01*
X221847020Y-44363043D01*
X221769661Y-44411853D01*
X221763718Y-44418582D01*
X221763717Y-44418583D01*
X221718891Y-44469339D01*
X221673999Y-44520170D01*
X221670185Y-44528293D01*
X221670184Y-44528295D01*
X221660568Y-44548777D01*
X221612583Y-44650982D01*
X221611203Y-44659846D01*
X221611202Y-44659849D01*
X221592052Y-44782845D01*
X221590350Y-44793773D01*
X217437032Y-44793773D01*
X217424301Y-44785266D01*
X217350067Y-44770500D01*
X217343880Y-44770500D01*
X216475001Y-44770501D01*
X215599934Y-44770501D01*
X215593866Y-44771708D01*
X215592850Y-44771808D01*
X215523096Y-44758579D01*
X215471568Y-44709739D01*
X215454500Y-44646415D01*
X215454500Y-44193773D01*
X223290350Y-44193773D01*
X223291514Y-44202675D01*
X223291514Y-44202678D01*
X223305684Y-44311035D01*
X223309088Y-44337065D01*
X223367289Y-44469339D01*
X223460276Y-44579960D01*
X223467747Y-44584933D01*
X223467748Y-44584934D01*
X223573101Y-44655063D01*
X223573103Y-44655064D01*
X223580574Y-44660037D01*
X223589138Y-44662713D01*
X223589141Y-44662714D01*
X223649542Y-44681584D01*
X223718510Y-44703132D01*
X223862998Y-44705780D01*
X223907040Y-44693773D01*
X230890350Y-44693773D01*
X230891514Y-44702675D01*
X230891514Y-44702678D01*
X230906496Y-44817247D01*
X230909088Y-44837065D01*
X230967289Y-44969339D01*
X231060276Y-45079960D01*
X231067747Y-45084933D01*
X231067748Y-45084934D01*
X231173101Y-45155063D01*
X231173103Y-45155064D01*
X231180574Y-45160037D01*
X231189138Y-45162713D01*
X231189141Y-45162714D01*
X231222353Y-45173090D01*
X231318510Y-45203132D01*
X231462998Y-45205780D01*
X231482530Y-45200455D01*
X231593763Y-45170130D01*
X231593765Y-45170129D01*
X231602422Y-45167769D01*
X231725572Y-45092154D01*
X231822551Y-44985014D01*
X231885560Y-44854962D01*
X231909536Y-44712453D01*
X231909612Y-44706226D01*
X231909629Y-44704860D01*
X231909629Y-44704856D01*
X231909688Y-44700000D01*
X231889201Y-44556948D01*
X231829388Y-44425395D01*
X231823530Y-44418596D01*
X231823527Y-44418592D01*
X231740916Y-44322718D01*
X231740913Y-44322716D01*
X231735056Y-44315918D01*
X231613790Y-44237317D01*
X231546682Y-44217247D01*
X231483938Y-44198482D01*
X231483936Y-44198482D01*
X231475337Y-44195910D01*
X231466363Y-44195855D01*
X231466361Y-44195855D01*
X231403082Y-44195469D01*
X231330827Y-44195028D01*
X231322196Y-44197495D01*
X231322194Y-44197495D01*
X231200509Y-44232272D01*
X231200505Y-44232274D01*
X231191879Y-44234739D01*
X231184292Y-44239526D01*
X231184290Y-44239527D01*
X231077254Y-44307062D01*
X231069661Y-44311853D01*
X231063718Y-44318582D01*
X231063717Y-44318583D01*
X231024452Y-44363043D01*
X230973999Y-44420170D01*
X230912583Y-44550982D01*
X230911203Y-44559846D01*
X230911202Y-44559849D01*
X230895603Y-44660037D01*
X230890350Y-44693773D01*
X223907040Y-44693773D01*
X223993763Y-44670130D01*
X223993765Y-44670129D01*
X224002422Y-44667769D01*
X224125572Y-44592154D01*
X224222551Y-44485014D01*
X224285560Y-44354962D01*
X224309536Y-44212453D01*
X224309688Y-44200000D01*
X224289201Y-44056948D01*
X224229388Y-43925395D01*
X224223530Y-43918596D01*
X224223527Y-43918592D01*
X224140916Y-43822718D01*
X224140913Y-43822716D01*
X224135056Y-43815918D01*
X224013790Y-43737317D01*
X223996921Y-43732272D01*
X223883938Y-43698482D01*
X223883936Y-43698482D01*
X223875337Y-43695910D01*
X223866363Y-43695855D01*
X223866361Y-43695855D01*
X223803082Y-43695469D01*
X223730827Y-43695028D01*
X223722196Y-43697495D01*
X223722194Y-43697495D01*
X223600509Y-43732272D01*
X223600505Y-43732274D01*
X223591879Y-43734739D01*
X223469661Y-43811853D01*
X223373999Y-43920170D01*
X223312583Y-44050982D01*
X223290350Y-44193773D01*
X215454500Y-44193773D01*
X215454500Y-42671674D01*
X215474502Y-42603553D01*
X215528158Y-42557060D01*
X215598432Y-42546956D01*
X215656065Y-42570848D01*
X215703296Y-42606246D01*
X215718882Y-42614778D01*
X215838265Y-42659533D01*
X215853510Y-42663158D01*
X215903892Y-42668631D01*
X215910706Y-42669000D01*
X216429885Y-42669000D01*
X216445124Y-42664525D01*
X216446329Y-42663135D01*
X216448000Y-42655452D01*
X216448000Y-42650884D01*
X216702000Y-42650884D01*
X216706475Y-42666123D01*
X216707865Y-42667328D01*
X216715548Y-42668999D01*
X217239292Y-42668999D01*
X217246110Y-42668630D01*
X217296482Y-42663159D01*
X217311741Y-42659530D01*
X217431118Y-42614778D01*
X217446704Y-42606246D01*
X217547867Y-42530428D01*
X217560428Y-42517867D01*
X217636246Y-42416704D01*
X217644778Y-42401118D01*
X217689533Y-42281735D01*
X217693158Y-42266490D01*
X217698631Y-42216108D01*
X217699000Y-42209294D01*
X217699000Y-41598611D01*
X217990500Y-41598611D01*
X218005765Y-41758605D01*
X218066168Y-41964503D01*
X218164417Y-42155264D01*
X218296965Y-42324005D01*
X218459029Y-42464637D01*
X218644763Y-42572087D01*
X218743132Y-42606246D01*
X218841799Y-42640509D01*
X218841801Y-42640509D01*
X218847464Y-42642476D01*
X218853399Y-42643337D01*
X218853401Y-42643337D01*
X219053879Y-42672405D01*
X219053882Y-42672405D01*
X219059819Y-42673266D01*
X219274164Y-42663346D01*
X219279988Y-42661942D01*
X219279991Y-42661942D01*
X219476934Y-42614478D01*
X219476936Y-42614477D01*
X219482767Y-42613072D01*
X219488225Y-42610590D01*
X219488229Y-42610589D01*
X219664533Y-42530428D01*
X219678099Y-42524260D01*
X219853114Y-42400113D01*
X220001495Y-42245112D01*
X220117890Y-42064849D01*
X220198097Y-41865828D01*
X220239224Y-41655231D01*
X220239500Y-41649588D01*
X220239500Y-41598611D01*
X220530500Y-41598611D01*
X220545765Y-41758605D01*
X220606168Y-41964503D01*
X220704417Y-42155264D01*
X220836965Y-42324005D01*
X220999029Y-42464637D01*
X221184763Y-42572087D01*
X221283132Y-42606246D01*
X221381799Y-42640509D01*
X221381801Y-42640509D01*
X221387464Y-42642476D01*
X221393399Y-42643337D01*
X221393401Y-42643337D01*
X221593879Y-42672405D01*
X221593882Y-42672405D01*
X221599819Y-42673266D01*
X221814164Y-42663346D01*
X221819988Y-42661942D01*
X221819991Y-42661942D01*
X222016934Y-42614478D01*
X222016936Y-42614477D01*
X222022767Y-42613072D01*
X222028225Y-42610590D01*
X222028229Y-42610589D01*
X222204533Y-42530428D01*
X222218099Y-42524260D01*
X222393114Y-42400113D01*
X222541495Y-42245112D01*
X222564624Y-42209292D01*
X223451001Y-42209292D01*
X223451370Y-42216110D01*
X223456841Y-42266482D01*
X223460470Y-42281741D01*
X223505222Y-42401118D01*
X223513754Y-42416704D01*
X223589572Y-42517867D01*
X223602133Y-42530428D01*
X223703296Y-42606246D01*
X223718882Y-42614778D01*
X223838265Y-42659533D01*
X223853510Y-42663158D01*
X223903892Y-42668631D01*
X223910706Y-42669000D01*
X224429885Y-42669000D01*
X224445124Y-42664525D01*
X224446329Y-42663135D01*
X224448000Y-42655452D01*
X224448000Y-42650884D01*
X224702000Y-42650884D01*
X224706475Y-42666123D01*
X224707865Y-42667328D01*
X224715548Y-42668999D01*
X225239292Y-42668999D01*
X225246110Y-42668630D01*
X225296482Y-42663159D01*
X225311741Y-42659530D01*
X225431118Y-42614778D01*
X225446704Y-42606246D01*
X225547867Y-42530428D01*
X225560428Y-42517867D01*
X225636246Y-42416704D01*
X225644778Y-42401118D01*
X225689533Y-42281735D01*
X225693158Y-42266490D01*
X225698631Y-42216108D01*
X225699000Y-42209294D01*
X225699000Y-41598611D01*
X225990500Y-41598611D01*
X226005765Y-41758605D01*
X226066168Y-41964503D01*
X226164417Y-42155264D01*
X226296965Y-42324005D01*
X226459029Y-42464637D01*
X226644763Y-42572087D01*
X226743132Y-42606246D01*
X226841799Y-42640509D01*
X226841801Y-42640509D01*
X226847464Y-42642476D01*
X226853399Y-42643337D01*
X226853401Y-42643337D01*
X227053879Y-42672405D01*
X227053882Y-42672405D01*
X227059819Y-42673266D01*
X227274164Y-42663346D01*
X227279988Y-42661942D01*
X227279991Y-42661942D01*
X227476934Y-42614478D01*
X227476936Y-42614477D01*
X227482767Y-42613072D01*
X227488225Y-42610590D01*
X227488229Y-42610589D01*
X227664533Y-42530428D01*
X227678099Y-42524260D01*
X227853114Y-42400113D01*
X228001495Y-42245112D01*
X228117890Y-42064849D01*
X228198097Y-41865828D01*
X228239224Y-41655231D01*
X228239500Y-41649588D01*
X228239500Y-41598611D01*
X228530500Y-41598611D01*
X228545765Y-41758605D01*
X228606168Y-41964503D01*
X228704417Y-42155264D01*
X228836965Y-42324005D01*
X228999029Y-42464637D01*
X229184763Y-42572087D01*
X229283132Y-42606246D01*
X229381799Y-42640509D01*
X229381801Y-42640509D01*
X229387464Y-42642476D01*
X229393399Y-42643337D01*
X229393401Y-42643337D01*
X229593879Y-42672405D01*
X229593882Y-42672405D01*
X229599819Y-42673266D01*
X229814164Y-42663346D01*
X229819988Y-42661942D01*
X229819991Y-42661942D01*
X230016934Y-42614478D01*
X230016936Y-42614477D01*
X230022767Y-42613072D01*
X230028225Y-42610590D01*
X230028229Y-42610589D01*
X230204533Y-42530428D01*
X230218099Y-42524260D01*
X230393114Y-42400113D01*
X230541495Y-42245112D01*
X230657890Y-42064849D01*
X230738097Y-41865828D01*
X230779224Y-41655231D01*
X230779500Y-41649588D01*
X230779500Y-41494860D01*
X230799502Y-41426739D01*
X230853158Y-41380246D01*
X230923432Y-41370142D01*
X230975317Y-41389972D01*
X231024786Y-41422902D01*
X231073101Y-41455063D01*
X231073103Y-41455064D01*
X231080574Y-41460037D01*
X231089138Y-41462713D01*
X231089141Y-41462714D01*
X231149542Y-41481585D01*
X231218510Y-41503132D01*
X231362998Y-41505780D01*
X231382530Y-41500455D01*
X231493763Y-41470130D01*
X231493765Y-41470129D01*
X231502422Y-41467769D01*
X231625572Y-41392154D01*
X231722551Y-41285014D01*
X231769299Y-41188525D01*
X231781645Y-41163043D01*
X231781645Y-41163042D01*
X231785560Y-41154962D01*
X231809536Y-41012453D01*
X231809688Y-41000000D01*
X231789201Y-40856948D01*
X231729388Y-40725395D01*
X231723530Y-40718596D01*
X231723527Y-40718592D01*
X231640916Y-40622718D01*
X231640913Y-40622716D01*
X231635056Y-40615918D01*
X231513790Y-40537317D01*
X231496921Y-40532272D01*
X231383938Y-40498482D01*
X231383936Y-40498482D01*
X231375337Y-40495910D01*
X231366363Y-40495855D01*
X231366361Y-40495855D01*
X231303082Y-40495469D01*
X231230827Y-40495028D01*
X231222196Y-40497495D01*
X231222194Y-40497495D01*
X231100509Y-40532272D01*
X231100505Y-40532274D01*
X231091879Y-40534739D01*
X230969661Y-40611853D01*
X230936937Y-40648907D01*
X230903088Y-40687232D01*
X230843002Y-40725050D01*
X230772009Y-40724379D01*
X230712648Y-40685433D01*
X230696631Y-40661516D01*
X230673147Y-40615918D01*
X230635179Y-40542200D01*
X230608329Y-40490067D01*
X230608327Y-40490064D01*
X230605583Y-40484736D01*
X230473035Y-40315995D01*
X230310971Y-40175363D01*
X230125237Y-40067913D01*
X230010995Y-40028242D01*
X229928201Y-39999491D01*
X229928199Y-39999491D01*
X229922536Y-39997524D01*
X229916601Y-39996663D01*
X229916599Y-39996663D01*
X229716121Y-39967595D01*
X229716118Y-39967595D01*
X229710181Y-39966734D01*
X229495836Y-39976654D01*
X229490012Y-39978058D01*
X229490009Y-39978058D01*
X229293066Y-40025522D01*
X229293064Y-40025523D01*
X229287233Y-40026928D01*
X229281775Y-40029410D01*
X229281771Y-40029411D01*
X229201419Y-40065945D01*
X229091901Y-40115740D01*
X228916886Y-40239887D01*
X228768505Y-40394888D01*
X228652110Y-40575151D01*
X228637319Y-40611853D01*
X228591561Y-40725395D01*
X228571903Y-40774172D01*
X228530776Y-40984769D01*
X228530500Y-40990412D01*
X228530500Y-41598611D01*
X228239500Y-41598611D01*
X228239500Y-41041389D01*
X228224235Y-40881395D01*
X228163832Y-40675497D01*
X228065583Y-40484736D01*
X227933035Y-40315995D01*
X227770971Y-40175363D01*
X227585237Y-40067913D01*
X227470995Y-40028242D01*
X227388201Y-39999491D01*
X227388199Y-39999491D01*
X227382536Y-39997524D01*
X227376601Y-39996663D01*
X227376599Y-39996663D01*
X227176121Y-39967595D01*
X227176118Y-39967595D01*
X227170181Y-39966734D01*
X226955836Y-39976654D01*
X226950012Y-39978058D01*
X226950009Y-39978058D01*
X226753066Y-40025522D01*
X226753064Y-40025523D01*
X226747233Y-40026928D01*
X226741775Y-40029410D01*
X226741771Y-40029411D01*
X226661419Y-40065945D01*
X226551901Y-40115740D01*
X226376886Y-40239887D01*
X226228505Y-40394888D01*
X226112110Y-40575151D01*
X226097319Y-40611853D01*
X226051561Y-40725395D01*
X226031903Y-40774172D01*
X225990776Y-40984769D01*
X225990500Y-40990412D01*
X225990500Y-41598611D01*
X225699000Y-41598611D01*
X225699000Y-41465115D01*
X225694525Y-41449876D01*
X225693135Y-41448671D01*
X225685452Y-41447000D01*
X224720115Y-41447000D01*
X224704876Y-41451475D01*
X224703671Y-41452865D01*
X224702000Y-41460548D01*
X224702000Y-42650884D01*
X224448000Y-42650884D01*
X224448000Y-41465115D01*
X224443525Y-41449876D01*
X224442135Y-41448671D01*
X224434452Y-41447000D01*
X223469116Y-41447000D01*
X223453877Y-41451475D01*
X223452672Y-41452865D01*
X223451001Y-41460548D01*
X223451001Y-42209292D01*
X222564624Y-42209292D01*
X222657890Y-42064849D01*
X222738097Y-41865828D01*
X222779224Y-41655231D01*
X222779500Y-41649588D01*
X222779500Y-41174885D01*
X223451000Y-41174885D01*
X223455475Y-41190124D01*
X223456865Y-41191329D01*
X223464548Y-41193000D01*
X224429885Y-41193000D01*
X224445124Y-41188525D01*
X224446329Y-41187135D01*
X224448000Y-41179452D01*
X224448000Y-41174885D01*
X224702000Y-41174885D01*
X224706475Y-41190124D01*
X224707865Y-41191329D01*
X224715548Y-41193000D01*
X225680884Y-41193000D01*
X225696123Y-41188525D01*
X225697328Y-41187135D01*
X225698999Y-41179452D01*
X225698999Y-40430708D01*
X225698630Y-40423890D01*
X225693159Y-40373518D01*
X225689530Y-40358259D01*
X225644778Y-40238882D01*
X225636246Y-40223296D01*
X225560428Y-40122133D01*
X225547867Y-40109572D01*
X225446704Y-40033754D01*
X225431118Y-40025222D01*
X225311735Y-39980467D01*
X225296490Y-39976842D01*
X225246108Y-39971369D01*
X225239294Y-39971000D01*
X224720115Y-39971000D01*
X224704876Y-39975475D01*
X224703671Y-39976865D01*
X224702000Y-39984548D01*
X224702000Y-41174885D01*
X224448000Y-41174885D01*
X224448000Y-39989116D01*
X224443525Y-39973877D01*
X224442135Y-39972672D01*
X224434452Y-39971001D01*
X223910708Y-39971001D01*
X223903890Y-39971370D01*
X223853518Y-39976841D01*
X223838259Y-39980470D01*
X223718882Y-40025222D01*
X223703296Y-40033754D01*
X223602133Y-40109572D01*
X223589572Y-40122133D01*
X223513754Y-40223296D01*
X223505222Y-40238882D01*
X223460467Y-40358265D01*
X223456842Y-40373510D01*
X223451369Y-40423892D01*
X223451000Y-40430706D01*
X223451000Y-41174885D01*
X222779500Y-41174885D01*
X222779500Y-41041389D01*
X222764235Y-40881395D01*
X222703832Y-40675497D01*
X222605583Y-40484736D01*
X222473035Y-40315995D01*
X222310971Y-40175363D01*
X222125237Y-40067913D01*
X222010995Y-40028242D01*
X221928201Y-39999491D01*
X221928199Y-39999491D01*
X221922536Y-39997524D01*
X221916601Y-39996663D01*
X221916599Y-39996663D01*
X221716121Y-39967595D01*
X221716118Y-39967595D01*
X221710181Y-39966734D01*
X221495836Y-39976654D01*
X221490012Y-39978058D01*
X221490009Y-39978058D01*
X221293066Y-40025522D01*
X221293064Y-40025523D01*
X221287233Y-40026928D01*
X221281775Y-40029410D01*
X221281771Y-40029411D01*
X221201419Y-40065945D01*
X221091901Y-40115740D01*
X220916886Y-40239887D01*
X220768505Y-40394888D01*
X220652110Y-40575151D01*
X220637319Y-40611853D01*
X220591561Y-40725395D01*
X220571903Y-40774172D01*
X220530776Y-40984769D01*
X220530500Y-40990412D01*
X220530500Y-41598611D01*
X220239500Y-41598611D01*
X220239500Y-41041389D01*
X220224235Y-40881395D01*
X220163832Y-40675497D01*
X220065583Y-40484736D01*
X219933035Y-40315995D01*
X219770971Y-40175363D01*
X219585237Y-40067913D01*
X219470995Y-40028242D01*
X219388201Y-39999491D01*
X219388199Y-39999491D01*
X219382536Y-39997524D01*
X219376601Y-39996663D01*
X219376599Y-39996663D01*
X219176121Y-39967595D01*
X219176118Y-39967595D01*
X219170181Y-39966734D01*
X218955836Y-39976654D01*
X218950012Y-39978058D01*
X218950009Y-39978058D01*
X218753066Y-40025522D01*
X218753064Y-40025523D01*
X218747233Y-40026928D01*
X218741775Y-40029410D01*
X218741771Y-40029411D01*
X218661419Y-40065945D01*
X218551901Y-40115740D01*
X218376886Y-40239887D01*
X218228505Y-40394888D01*
X218112110Y-40575151D01*
X218097319Y-40611853D01*
X218051561Y-40725395D01*
X218031903Y-40774172D01*
X217990776Y-40984769D01*
X217990500Y-40990412D01*
X217990500Y-41598611D01*
X217699000Y-41598611D01*
X217699000Y-41465115D01*
X217694525Y-41449876D01*
X217693135Y-41448671D01*
X217685452Y-41447000D01*
X216720115Y-41447000D01*
X216704876Y-41451475D01*
X216703671Y-41452865D01*
X216702000Y-41460548D01*
X216702000Y-42650884D01*
X216448000Y-42650884D01*
X216448000Y-41174885D01*
X216702000Y-41174885D01*
X216706475Y-41190124D01*
X216707865Y-41191329D01*
X216715548Y-41193000D01*
X217680884Y-41193000D01*
X217696123Y-41188525D01*
X217697328Y-41187135D01*
X217698999Y-41179452D01*
X217698999Y-40430708D01*
X217698630Y-40423890D01*
X217693159Y-40373518D01*
X217689530Y-40358259D01*
X217644778Y-40238882D01*
X217636246Y-40223296D01*
X217560428Y-40122133D01*
X217547867Y-40109572D01*
X217446704Y-40033754D01*
X217431118Y-40025222D01*
X217311735Y-39980467D01*
X217296490Y-39976842D01*
X217246108Y-39971369D01*
X217239294Y-39971000D01*
X216720115Y-39971000D01*
X216704876Y-39975475D01*
X216703671Y-39976865D01*
X216702000Y-39984548D01*
X216702000Y-41174885D01*
X216448000Y-41174885D01*
X216448000Y-39989116D01*
X216443525Y-39973877D01*
X216442135Y-39972672D01*
X216434452Y-39971001D01*
X215910708Y-39971001D01*
X215903890Y-39971370D01*
X215853518Y-39976841D01*
X215838259Y-39980470D01*
X215718882Y-40025222D01*
X215703296Y-40033754D01*
X215656065Y-40069152D01*
X215589558Y-40094000D01*
X215520176Y-40078947D01*
X215469946Y-40028772D01*
X215454500Y-39968326D01*
X215454500Y-39468801D01*
X233806779Y-39468801D01*
X233808622Y-39486338D01*
X233811626Y-39499999D01*
X233863411Y-39652117D01*
X233869371Y-39664781D01*
X233953560Y-39801628D01*
X233962189Y-39812673D01*
X234074606Y-39927469D01*
X234085456Y-39936317D01*
X234220512Y-40023355D01*
X234233061Y-40029585D01*
X234384045Y-40084538D01*
X234397655Y-40087831D01*
X234521711Y-40103503D01*
X234529600Y-40104000D01*
X234854885Y-40104000D01*
X234870124Y-40099525D01*
X234871329Y-40098135D01*
X234873000Y-40090452D01*
X234873000Y-39470115D01*
X234868525Y-39454876D01*
X234867135Y-39453671D01*
X234859452Y-39452000D01*
X233823128Y-39452000D01*
X233808837Y-39456196D01*
X233806779Y-39468801D01*
X215454500Y-39468801D01*
X215454500Y-38780500D01*
X215474502Y-38712379D01*
X215528158Y-38665886D01*
X215580500Y-38654500D01*
X233848640Y-38654500D01*
X233916761Y-38674502D01*
G37*
G04 #@! TD.AperFunction*
G04 #@! TA.AperFunction,Conductor*
G36*
X235981194Y-80418306D02*
G01*
X235999500Y-80462500D01*
X235999500Y-118166798D01*
X235981194Y-118210992D01*
X233544194Y-120647992D01*
X233500000Y-120666298D01*
X233455806Y-120647992D01*
X231018806Y-118210992D01*
X231000500Y-118166798D01*
X231000500Y-80462500D01*
X231018806Y-80418306D01*
X231063000Y-80400000D01*
X235937000Y-80400000D01*
X235981194Y-80418306D01*
G37*
G04 #@! TD.AperFunction*
G04 #@! TA.AperFunction,Conductor*
G36*
X220681194Y-80418306D02*
G01*
X220699500Y-80462500D01*
X220699500Y-118166798D01*
X220681194Y-118210992D01*
X218244194Y-120647992D01*
X218200000Y-120666298D01*
X218155806Y-120647992D01*
X215718806Y-118210992D01*
X215700500Y-118166798D01*
X215700500Y-80462500D01*
X215718806Y-80418306D01*
X215763000Y-80400000D01*
X220637000Y-80400000D01*
X220681194Y-80418306D01*
G37*
G04 #@! TD.AperFunction*
M02*
