G04 #@! TF.GenerationSoftware,KiCad,Pcbnew,(6.0.7)*
G04 #@! TF.CreationDate,2022-10-27T11:55:22+02:00*
G04 #@! TF.ProjectId,soilMoistureSensor,736f696c-4d6f-4697-9374-75726553656e,rev?*
G04 #@! TF.SameCoordinates,Original*
G04 #@! TF.FileFunction,Copper,L1,Top*
G04 #@! TF.FilePolarity,Positive*
%FSLAX46Y46*%
G04 Gerber Fmt 4.6, Leading zero omitted, Abs format (unit mm)*
G04 Created by KiCad (PCBNEW (6.0.7)) date 2022-10-27 11:55:22*
%MOMM*%
%LPD*%
G01*
G04 APERTURE LIST*
G04 Aperture macros list*
%AMRoundRect*
0 Rectangle with rounded corners*
0 $1 Rounding radius*
0 $2 $3 $4 $5 $6 $7 $8 $9 X,Y pos of 4 corners*
0 Add a 4 corners polygon primitive as box body*
4,1,4,$2,$3,$4,$5,$6,$7,$8,$9,$2,$3,0*
0 Add four circle primitives for the rounded corners*
1,1,$1+$1,$2,$3*
1,1,$1+$1,$4,$5*
1,1,$1+$1,$6,$7*
1,1,$1+$1,$8,$9*
0 Add four rect primitives between the rounded corners*
20,1,$1+$1,$2,$3,$4,$5,0*
20,1,$1+$1,$4,$5,$6,$7,0*
20,1,$1+$1,$6,$7,$8,$9,0*
20,1,$1+$1,$8,$9,$2,$3,0*%
G04 Aperture macros list end*
G04 #@! TA.AperFunction,SMDPad,CuDef*
%ADD10RoundRect,0.250000X-0.650000X0.325000X-0.650000X-0.325000X0.650000X-0.325000X0.650000X0.325000X0*%
G04 #@! TD*
G04 #@! TA.AperFunction,SMDPad,CuDef*
%ADD11RoundRect,0.225000X-0.225000X-0.250000X0.225000X-0.250000X0.225000X0.250000X-0.225000X0.250000X0*%
G04 #@! TD*
G04 #@! TA.AperFunction,SMDPad,CuDef*
%ADD12RoundRect,0.250000X1.100000X-0.325000X1.100000X0.325000X-1.100000X0.325000X-1.100000X-0.325000X0*%
G04 #@! TD*
G04 #@! TA.AperFunction,SMDPad,CuDef*
%ADD13RoundRect,0.200000X-0.275000X0.200000X-0.275000X-0.200000X0.275000X-0.200000X0.275000X0.200000X0*%
G04 #@! TD*
G04 #@! TA.AperFunction,SMDPad,CuDef*
%ADD14R,0.300000X0.800000*%
G04 #@! TD*
G04 #@! TA.AperFunction,SMDPad,CuDef*
%ADD15RoundRect,0.200000X0.200000X0.275000X-0.200000X0.275000X-0.200000X-0.275000X0.200000X-0.275000X0*%
G04 #@! TD*
G04 #@! TA.AperFunction,SMDPad,CuDef*
%ADD16RoundRect,0.200000X-0.200000X-0.275000X0.200000X-0.275000X0.200000X0.275000X-0.200000X0.275000X0*%
G04 #@! TD*
G04 #@! TA.AperFunction,SMDPad,CuDef*
%ADD17RoundRect,0.225000X0.250000X-0.225000X0.250000X0.225000X-0.250000X0.225000X-0.250000X-0.225000X0*%
G04 #@! TD*
G04 #@! TA.AperFunction,SMDPad,CuDef*
%ADD18R,1.400000X0.400000*%
G04 #@! TD*
G04 #@! TA.AperFunction,ComponentPad*
%ADD19O,1.900000X1.050000*%
G04 #@! TD*
G04 #@! TA.AperFunction,SMDPad,CuDef*
%ADD20R,1.450000X1.150000*%
G04 #@! TD*
G04 #@! TA.AperFunction,SMDPad,CuDef*
%ADD21R,1.900000X1.750000*%
G04 #@! TD*
G04 #@! TA.AperFunction,SMDPad,CuDef*
%ADD22RoundRect,0.218750X0.218750X0.381250X-0.218750X0.381250X-0.218750X-0.381250X0.218750X-0.381250X0*%
G04 #@! TD*
G04 #@! TA.AperFunction,SMDPad,CuDef*
%ADD23RoundRect,0.225000X-0.250000X0.225000X-0.250000X-0.225000X0.250000X-0.225000X0.250000X0.225000X0*%
G04 #@! TD*
G04 #@! TA.AperFunction,SMDPad,CuDef*
%ADD24RoundRect,0.250000X-0.850000X0.375000X-0.850000X-0.375000X0.850000X-0.375000X0.850000X0.375000X0*%
G04 #@! TD*
G04 #@! TA.AperFunction,SMDPad,CuDef*
%ADD25RoundRect,0.100000X0.100000X-0.712500X0.100000X0.712500X-0.100000X0.712500X-0.100000X-0.712500X0*%
G04 #@! TD*
G04 #@! TA.AperFunction,SMDPad,CuDef*
%ADD26RoundRect,0.225000X0.225000X0.250000X-0.225000X0.250000X-0.225000X-0.250000X0.225000X-0.250000X0*%
G04 #@! TD*
G04 #@! TA.AperFunction,SMDPad,CuDef*
%ADD27RoundRect,0.062500X0.062500X-0.337500X0.062500X0.337500X-0.062500X0.337500X-0.062500X-0.337500X0*%
G04 #@! TD*
G04 #@! TA.AperFunction,SMDPad,CuDef*
%ADD28RoundRect,0.062500X0.062500X-0.287500X0.062500X0.287500X-0.062500X0.287500X-0.062500X-0.287500X0*%
G04 #@! TD*
G04 #@! TA.AperFunction,SMDPad,CuDef*
%ADD29RoundRect,0.218750X-0.218750X-0.256250X0.218750X-0.256250X0.218750X0.256250X-0.218750X0.256250X0*%
G04 #@! TD*
G04 #@! TA.AperFunction,SMDPad,CuDef*
%ADD30RoundRect,0.200000X-0.525000X0.200000X-0.525000X-0.200000X0.525000X-0.200000X0.525000X0.200000X0*%
G04 #@! TD*
G04 #@! TA.AperFunction,SMDPad,CuDef*
%ADD31RoundRect,0.075000X-0.075000X0.225000X-0.075000X-0.225000X0.075000X-0.225000X0.075000X0.225000X0*%
G04 #@! TD*
G04 #@! TA.AperFunction,SMDPad,CuDef*
%ADD32RoundRect,0.075000X-0.787500X0.075000X-0.787500X-0.075000X0.787500X-0.075000X0.787500X0.075000X0*%
G04 #@! TD*
G04 #@! TA.AperFunction,SMDPad,CuDef*
%ADD33RoundRect,0.200000X0.275000X-0.200000X0.275000X0.200000X-0.275000X0.200000X-0.275000X-0.200000X0*%
G04 #@! TD*
G04 #@! TA.AperFunction,SMDPad,CuDef*
%ADD34RoundRect,0.218750X0.256250X-0.218750X0.256250X0.218750X-0.256250X0.218750X-0.256250X-0.218750X0*%
G04 #@! TD*
G04 #@! TA.AperFunction,ComponentPad*
%ADD35R,1.700000X1.700000*%
G04 #@! TD*
G04 #@! TA.AperFunction,ComponentPad*
%ADD36O,1.700000X1.700000*%
G04 #@! TD*
G04 #@! TA.AperFunction,SMDPad,CuDef*
%ADD37RoundRect,0.050000X-0.050000X0.387500X-0.050000X-0.387500X0.050000X-0.387500X0.050000X0.387500X0*%
G04 #@! TD*
G04 #@! TA.AperFunction,SMDPad,CuDef*
%ADD38RoundRect,0.050000X-0.387500X0.050000X-0.387500X-0.050000X0.387500X-0.050000X0.387500X0.050000X0*%
G04 #@! TD*
G04 #@! TA.AperFunction,SMDPad,CuDef*
%ADD39R,3.200000X3.200000*%
G04 #@! TD*
G04 #@! TA.AperFunction,SMDPad,CuDef*
%ADD40R,0.400000X0.250000*%
G04 #@! TD*
G04 #@! TA.AperFunction,SMDPad,CuDef*
%ADD41R,0.400000X0.700000*%
G04 #@! TD*
G04 #@! TA.AperFunction,SMDPad,CuDef*
%ADD42RoundRect,0.062500X-0.062500X0.237500X-0.062500X-0.237500X0.062500X-0.237500X0.062500X0.237500X0*%
G04 #@! TD*
G04 #@! TA.AperFunction,SMDPad,CuDef*
%ADD43RoundRect,0.087500X-0.212500X0.087500X-0.212500X-0.087500X0.212500X-0.087500X0.212500X0.087500X0*%
G04 #@! TD*
G04 #@! TA.AperFunction,ComponentPad*
%ADD44RoundRect,0.250000X-0.620000X-0.845000X0.620000X-0.845000X0.620000X0.845000X-0.620000X0.845000X0*%
G04 #@! TD*
G04 #@! TA.AperFunction,ComponentPad*
%ADD45O,1.740000X2.190000*%
G04 #@! TD*
G04 #@! TA.AperFunction,ViaPad*
%ADD46C,0.500000*%
G04 #@! TD*
G04 #@! TA.AperFunction,Conductor*
%ADD47C,0.127000*%
G04 #@! TD*
G04 #@! TA.AperFunction,Conductor*
%ADD48C,0.200000*%
G04 #@! TD*
G04 #@! TA.AperFunction,Conductor*
%ADD49C,0.500000*%
G04 #@! TD*
G04 #@! TA.AperFunction,Conductor*
%ADD50C,0.300000*%
G04 #@! TD*
G04 APERTURE END LIST*
D10*
X233300000Y-52425000D03*
X233300000Y-55375000D03*
D11*
X216225000Y-59700000D03*
X217775000Y-59700000D03*
D12*
X234900000Y-51075000D03*
X234900000Y-48125000D03*
D13*
X219300000Y-58150000D03*
X219300000Y-59800000D03*
D14*
X232196428Y-56625000D03*
X231696428Y-56625000D03*
X231196428Y-56625000D03*
X230696428Y-56625000D03*
X230696428Y-59725000D03*
X231196428Y-59725000D03*
X231696428Y-59725000D03*
X232196428Y-59725000D03*
D15*
X224021428Y-58400000D03*
X222371428Y-58400000D03*
D16*
X224375000Y-60100000D03*
X226025000Y-60100000D03*
D17*
X229300000Y-52775000D03*
X229300000Y-51225000D03*
D18*
X232350000Y-44200000D03*
X232350000Y-43550000D03*
X232350000Y-42900000D03*
X232350000Y-42250000D03*
X232350000Y-41600000D03*
D19*
X235000000Y-46475000D03*
D20*
X232770000Y-40580000D03*
X232770000Y-45220000D03*
D19*
X235000000Y-39325000D03*
D21*
X235000000Y-44025000D03*
X235000000Y-41775000D03*
D15*
X226000000Y-61300000D03*
X224350000Y-61300000D03*
D11*
X234225000Y-59850000D03*
X235775000Y-59850000D03*
D22*
X232962500Y-47600000D03*
X230837500Y-47600000D03*
D23*
X233150000Y-57925000D03*
X233150000Y-59475000D03*
D17*
X220446428Y-55750000D03*
X220446428Y-54200000D03*
D13*
X219246428Y-55450000D03*
X219246428Y-57100000D03*
D24*
X231100000Y-52225000D03*
X231100000Y-54375000D03*
D25*
X216025000Y-57432500D03*
X216675000Y-57432500D03*
X217325000Y-57432500D03*
X217975000Y-57432500D03*
X217975000Y-53207500D03*
X217325000Y-53207500D03*
X216675000Y-53207500D03*
X216025000Y-53207500D03*
D26*
X228075000Y-53800000D03*
X226525000Y-53800000D03*
D15*
X220290476Y-43500000D03*
X218640476Y-43500000D03*
D27*
X233950000Y-58200000D03*
D28*
X234450000Y-58250000D03*
X234950000Y-58250000D03*
X235450000Y-58250000D03*
X235450000Y-56550000D03*
X234950000Y-56550000D03*
X234450000Y-56550000D03*
X233950000Y-56550000D03*
D29*
X215977976Y-43500000D03*
X217552976Y-43500000D03*
D13*
X229700000Y-43375000D03*
X229700000Y-45025000D03*
D30*
X232387500Y-48850000D03*
D31*
X231337500Y-48750000D03*
X230887500Y-48750000D03*
X230437500Y-48750000D03*
X230437500Y-50450000D03*
X230887500Y-50450000D03*
X231337500Y-50450000D03*
D30*
X232387500Y-50350000D03*
D32*
X232525000Y-49600000D03*
D33*
X233950000Y-62625000D03*
X233950000Y-60975000D03*
D34*
X227900000Y-52687500D03*
X227900000Y-51112500D03*
D10*
X235300000Y-52425000D03*
X235300000Y-55375000D03*
D23*
X229646428Y-56900000D03*
X229646428Y-58450000D03*
D13*
X230800000Y-43875000D03*
X230800000Y-45525000D03*
D23*
X226046428Y-57300000D03*
X226046428Y-58850000D03*
D14*
X227096428Y-59625000D03*
X227596428Y-59625000D03*
X228096428Y-59625000D03*
X228596428Y-59625000D03*
X228596428Y-56525000D03*
X228096428Y-56525000D03*
X227596428Y-56525000D03*
X227096428Y-56525000D03*
D16*
X221450000Y-43500000D03*
X223100000Y-43500000D03*
D35*
X216475000Y-45875000D03*
D36*
X216475000Y-48415000D03*
X216475000Y-50955000D03*
D16*
X221575000Y-59500000D03*
X223225000Y-59500000D03*
D23*
X231900000Y-60775000D03*
X231900000Y-62325000D03*
D17*
X224700000Y-56375000D03*
X224700000Y-54825000D03*
D33*
X235100000Y-62625000D03*
X235100000Y-60975000D03*
D37*
X225275000Y-45762500D03*
X224875000Y-45762500D03*
X224475000Y-45762500D03*
X224075000Y-45762500D03*
X223675000Y-45762500D03*
X223275000Y-45762500D03*
X222875000Y-45762500D03*
X222475000Y-45762500D03*
X222075000Y-45762500D03*
X221675000Y-45762500D03*
X221275000Y-45762500D03*
X220875000Y-45762500D03*
X220475000Y-45762500D03*
X220075000Y-45762500D03*
D38*
X219237500Y-46600000D03*
X219237500Y-47000000D03*
X219237500Y-47400000D03*
X219237500Y-47800000D03*
X219237500Y-48200000D03*
X219237500Y-48600000D03*
X219237500Y-49000000D03*
X219237500Y-49400000D03*
X219237500Y-49800000D03*
X219237500Y-50200000D03*
X219237500Y-50600000D03*
X219237500Y-51000000D03*
X219237500Y-51400000D03*
X219237500Y-51800000D03*
D37*
X220075000Y-52637500D03*
X220475000Y-52637500D03*
X220875000Y-52637500D03*
X221275000Y-52637500D03*
X221675000Y-52637500D03*
X222075000Y-52637500D03*
X222475000Y-52637500D03*
X222875000Y-52637500D03*
X223275000Y-52637500D03*
X223675000Y-52637500D03*
X224075000Y-52637500D03*
X224475000Y-52637500D03*
X224875000Y-52637500D03*
X225275000Y-52637500D03*
D38*
X226112500Y-51800000D03*
X226112500Y-51400000D03*
X226112500Y-51000000D03*
X226112500Y-50600000D03*
X226112500Y-50200000D03*
X226112500Y-49800000D03*
X226112500Y-49400000D03*
X226112500Y-49000000D03*
X226112500Y-48600000D03*
X226112500Y-48200000D03*
X226112500Y-47800000D03*
X226112500Y-47400000D03*
X226112500Y-47000000D03*
X226112500Y-46600000D03*
D39*
X222675000Y-49200000D03*
D40*
X235700000Y-79225000D03*
X235700000Y-78775000D03*
D41*
X235000000Y-79000000D03*
D15*
X226125000Y-43400000D03*
X224475000Y-43400000D03*
D11*
X222025000Y-54700000D03*
X223575000Y-54700000D03*
D15*
X229471428Y-55375000D03*
X227821428Y-55375000D03*
D13*
X220496428Y-56875000D03*
X220496428Y-58525000D03*
D31*
X223046428Y-56075000D03*
D42*
X222546428Y-56075000D03*
X222046428Y-56075000D03*
D31*
X221546428Y-56075000D03*
D43*
X221421428Y-56700000D03*
D31*
X221546428Y-57325000D03*
D42*
X222046428Y-57325000D03*
X222546428Y-57325000D03*
D31*
X223046428Y-57325000D03*
D43*
X223171428Y-56700000D03*
D35*
X228650000Y-46850000D03*
D36*
X228650000Y-49390000D03*
D44*
X224575000Y-41320000D03*
D45*
X227115000Y-41320000D03*
X229655000Y-41320000D03*
D44*
X216575000Y-41320000D03*
D45*
X219115000Y-41320000D03*
X221655000Y-41320000D03*
D46*
X220100000Y-48500000D03*
X216660000Y-58711127D03*
X218448500Y-59700000D03*
X223100000Y-55400000D03*
X234100000Y-58998500D03*
X226950000Y-53150000D03*
X233200000Y-51300000D03*
X219564176Y-54391471D03*
X227100000Y-57500000D03*
X220492623Y-51723186D03*
X235900000Y-62000000D03*
X218140000Y-47600000D03*
X235350000Y-59000000D03*
X232250000Y-57500000D03*
X223500000Y-51700000D03*
X223500000Y-49700000D03*
X234700000Y-53400000D03*
X235900000Y-61501500D03*
X229390000Y-59867010D03*
X228400000Y-57500000D03*
X235300000Y-53400000D03*
X232600000Y-51300000D03*
X231188873Y-58911127D03*
X225200000Y-44200000D03*
X228238873Y-60438873D03*
X220100000Y-47600000D03*
X223400000Y-48700000D03*
X235900000Y-53400000D03*
X234100000Y-53400000D03*
X232700000Y-39600000D03*
X230700000Y-55800000D03*
X235700000Y-40500000D03*
X223500000Y-61500000D03*
X219500000Y-45900000D03*
X235746500Y-56550000D03*
X215973373Y-58573373D03*
X234100000Y-54400000D03*
X231950000Y-53300000D03*
X235300000Y-54400000D03*
X227000000Y-52500000D03*
X225773498Y-45900000D03*
X221700000Y-51800000D03*
X234700000Y-54400000D03*
X227000000Y-51200000D03*
X222100000Y-44800000D03*
X231250000Y-53300000D03*
X225326500Y-49600000D03*
X218200000Y-49300000D03*
X235900000Y-54400000D03*
X232100000Y-46600000D03*
X230900000Y-46600000D03*
X231500000Y-46600000D03*
X231300000Y-41000000D03*
X225326500Y-51000000D03*
X218200000Y-49926503D03*
X226860000Y-49000000D03*
X229900000Y-48800000D03*
X230500000Y-49550000D03*
X233062500Y-60937500D03*
X220700000Y-60000000D03*
X226600000Y-56500000D03*
X222300000Y-55400000D03*
X231760000Y-55500000D03*
X227200000Y-60600000D03*
X233050000Y-60301500D03*
X217630000Y-55740000D03*
X230588873Y-60538873D03*
X231400000Y-44700000D03*
X220098498Y-49200000D03*
X227299959Y-45891483D03*
X227302996Y-46517978D03*
X227299771Y-47200000D03*
X226933897Y-48255931D03*
X224500000Y-46600000D03*
X222800000Y-46600000D03*
X223488873Y-53511127D03*
X221850000Y-53500000D03*
X233250000Y-57000000D03*
X222650000Y-53450000D03*
X233250000Y-56350000D03*
X225974072Y-56473159D03*
X223100000Y-58400000D03*
X216100000Y-61600000D03*
X231360000Y-57500000D03*
X232069373Y-58948498D03*
X218200000Y-60700000D03*
X228865271Y-60450278D03*
X228550000Y-58777070D03*
X216960000Y-55740000D03*
X228506716Y-61326863D03*
X218700000Y-53300000D03*
X221100000Y-54960000D03*
X223788873Y-56088873D03*
X217040000Y-54550000D03*
X232750000Y-62700000D03*
X218200000Y-62700000D03*
X230600000Y-57500000D03*
X223800000Y-44200000D03*
X235100000Y-63250000D03*
X235750000Y-78300000D03*
X235050000Y-78300000D03*
X233950000Y-63250000D03*
D47*
X219237500Y-48600000D02*
X220000000Y-48600000D01*
X220000000Y-48600000D02*
X220100000Y-48500000D01*
X230696428Y-55803572D02*
X230700000Y-55800000D01*
X235300000Y-51475000D02*
X234900000Y-51075000D01*
X235300000Y-52800000D02*
X235900000Y-53400000D01*
X235746500Y-56550000D02*
X235450000Y-56550000D01*
X224350000Y-61300000D02*
X223700000Y-61300000D01*
X232700000Y-39600000D02*
X232700000Y-40710000D01*
X229646428Y-59610582D02*
X229646428Y-58450000D01*
X227838873Y-60438873D02*
X227596428Y-60196428D01*
X227596428Y-59296428D02*
X227596428Y-59625000D01*
X219237500Y-48200000D02*
X218740000Y-48200000D01*
X215977976Y-43500000D02*
X216575000Y-42902976D01*
X227150000Y-58850000D02*
X227596428Y-59296428D01*
X233300000Y-52425000D02*
X235300000Y-52425000D01*
X231196428Y-59725000D02*
X231196428Y-58918682D01*
X219700000Y-48200000D02*
X219900000Y-48000000D01*
X228238873Y-60438873D02*
X228596428Y-60081318D01*
X233300000Y-52425000D02*
X233300000Y-51400000D01*
X233120000Y-40780000D02*
X233050000Y-40710000D01*
X231196428Y-61646428D02*
X231196428Y-59725000D01*
X233150000Y-59450000D02*
X233150000Y-59475000D01*
X224275000Y-54700000D02*
X224700000Y-55125000D01*
X219246428Y-54709219D02*
X219755647Y-54200000D01*
X219237500Y-48200000D02*
X219700000Y-48200000D01*
X234025000Y-46675000D02*
X235000000Y-46675000D01*
X221475000Y-48000000D02*
X222675000Y-49200000D01*
X233601500Y-58998500D02*
X233150000Y-59450000D01*
X233300000Y-52425000D02*
X234100000Y-53225000D01*
X219246428Y-55450000D02*
X219246428Y-54709219D01*
X234975000Y-41600000D02*
X235350000Y-41975000D01*
X216675000Y-57587500D02*
X216675000Y-58600000D01*
X216575000Y-42902976D02*
X216575000Y-41320000D01*
X228238873Y-60438873D02*
X227838873Y-60438873D01*
X220446428Y-54200000D02*
X219755647Y-54200000D01*
X232387500Y-51087500D02*
X232600000Y-51300000D01*
X218740000Y-48200000D02*
X218140000Y-47600000D01*
X232387500Y-50350000D02*
X232387500Y-51087500D01*
X220100000Y-48000000D02*
X221475000Y-48000000D01*
X220100000Y-48000000D02*
X220100000Y-47600000D01*
X229390000Y-59867010D02*
X229646428Y-59610582D01*
X235000000Y-46675000D02*
X235000000Y-40600000D01*
X235300000Y-52425000D02*
X235300000Y-53400000D01*
X235420000Y-40780000D02*
X233120000Y-40780000D01*
X235300000Y-52425000D02*
X235300000Y-51475000D01*
X223046428Y-56075000D02*
X223046428Y-55453572D01*
X231900000Y-62325000D02*
X231875000Y-62325000D01*
X223046428Y-55453572D02*
X223500000Y-55000000D01*
X233300000Y-51400000D02*
X233200000Y-51300000D01*
X223675000Y-54700000D02*
X224275000Y-54700000D01*
X235300000Y-52425000D02*
X235300000Y-52800000D01*
X228596428Y-60081318D02*
X228596428Y-59625000D01*
X232770000Y-45420000D02*
X234025000Y-46675000D01*
X235700000Y-40500000D02*
X235420000Y-40780000D01*
X235700000Y-40500000D02*
X235600000Y-40600000D01*
X234100000Y-58998500D02*
X233601500Y-58998500D01*
X230696428Y-56625000D02*
X230696428Y-55803572D01*
X216675000Y-58600000D02*
X217775000Y-59700000D01*
X235300000Y-52800000D02*
X234700000Y-53400000D01*
X226046428Y-58850000D02*
X227150000Y-58850000D01*
X235000000Y-40600000D02*
X235000000Y-39525000D01*
X226950000Y-53150000D02*
X226525000Y-53575000D01*
X232900000Y-41600000D02*
X234975000Y-41600000D01*
X234100000Y-53225000D02*
X234100000Y-53400000D01*
X231875000Y-62325000D02*
X231196428Y-61646428D01*
X223700000Y-61300000D02*
X223500000Y-61500000D01*
X218448500Y-59700000D02*
X217775000Y-59700000D01*
X231196428Y-58918682D02*
X231188873Y-58911127D01*
X219755647Y-54200000D02*
X219564176Y-54391471D01*
X226525000Y-53575000D02*
X226525000Y-53800000D01*
X219900000Y-48000000D02*
X220100000Y-48000000D01*
X227596428Y-60196428D02*
X227596428Y-59625000D01*
X226862500Y-52637500D02*
X225275000Y-52637500D01*
X227000000Y-51200000D02*
X227812500Y-51200000D01*
X225275000Y-45762500D02*
X225635998Y-45762500D01*
X234975000Y-55375000D02*
X234700000Y-55100000D01*
X221675000Y-51825000D02*
X221700000Y-51800000D01*
X235300000Y-55375000D02*
X235300000Y-54400000D01*
X216025000Y-57587500D02*
X216025000Y-58625000D01*
X225912500Y-49600000D02*
X226112500Y-49800000D01*
X235900000Y-55000000D02*
X235900000Y-54400000D01*
X218300000Y-49400000D02*
X218200000Y-49300000D01*
X235300000Y-55375000D02*
X235525000Y-55375000D01*
X227000000Y-52500000D02*
X226862500Y-52637500D01*
X231100000Y-54375000D02*
X231100000Y-53450000D01*
X233425000Y-58200000D02*
X233150000Y-57925000D01*
X216025000Y-58625000D02*
X215973373Y-58573373D01*
X227812500Y-51200000D02*
X227900000Y-51112500D01*
X221675000Y-45225000D02*
X222100000Y-44800000D01*
X231950000Y-53300000D02*
X231950000Y-53525000D01*
X221675000Y-52637500D02*
X221675000Y-51825000D01*
X232800000Y-55875000D02*
X232800000Y-57575000D01*
X227000000Y-51200000D02*
X226800000Y-51400000D01*
X234700000Y-55100000D02*
X234700000Y-54400000D01*
X226800000Y-51400000D02*
X226112500Y-51400000D01*
X219237500Y-49400000D02*
X218300000Y-49400000D01*
X235300000Y-55375000D02*
X234975000Y-55375000D01*
X235800000Y-55100000D02*
X235900000Y-55000000D01*
X216025000Y-58625000D02*
X216025000Y-59500000D01*
X225635998Y-45762500D02*
X225773498Y-45900000D01*
X233950000Y-58200000D02*
X233425000Y-58200000D01*
X221675000Y-45762500D02*
X221675000Y-45225000D01*
X234100000Y-54400000D02*
X234100000Y-54575000D01*
X225912500Y-49600000D02*
X226112500Y-49400000D01*
X234100000Y-54575000D02*
X233300000Y-55375000D01*
X232800000Y-57575000D02*
X233150000Y-57925000D01*
X231950000Y-53525000D02*
X231100000Y-54375000D01*
X225326500Y-49600000D02*
X225912500Y-49600000D01*
X233300000Y-55375000D02*
X232800000Y-55875000D01*
X216025000Y-59500000D02*
X216225000Y-59700000D01*
X231100000Y-53450000D02*
X231250000Y-53300000D01*
X235525000Y-55375000D02*
X235800000Y-55100000D01*
X227900000Y-52550000D02*
X227900000Y-52687500D01*
X227875000Y-53900000D02*
X227875000Y-52712500D01*
X227150000Y-51800000D02*
X227900000Y-52550000D01*
X226112500Y-51800000D02*
X227150000Y-51800000D01*
X227875000Y-52712500D02*
X227900000Y-52687500D01*
X230837500Y-46662500D02*
X230900000Y-46600000D01*
X231500000Y-46600000D02*
X230837500Y-47262500D01*
X232100000Y-46600000D02*
X231100000Y-47600000D01*
X231500000Y-46600000D02*
X232100000Y-46600000D01*
X231100000Y-47600000D02*
X230837500Y-47600000D01*
X230837500Y-47600000D02*
X230837500Y-46662500D01*
X230837500Y-47262500D02*
X230837500Y-47600000D01*
D48*
X229300000Y-52775000D02*
X230550000Y-52775000D01*
D47*
X230525000Y-52800000D02*
X231100000Y-52225000D01*
X231100000Y-52225000D02*
X231337500Y-51987500D01*
X232525000Y-49600000D02*
X231600000Y-49600000D01*
X231600000Y-49600000D02*
X231337500Y-49862500D01*
X229575000Y-52800000D02*
X230525000Y-52800000D01*
X231337500Y-51987500D02*
X231337500Y-50450000D01*
X231337500Y-49862500D02*
X231337500Y-50450000D01*
D48*
X230550000Y-52775000D02*
X231100000Y-52225000D01*
X230614592Y-51000000D02*
X229525000Y-51000000D01*
X229525000Y-51000000D02*
X229300000Y-51225000D01*
X230887500Y-50727092D02*
X230614592Y-51000000D01*
X230887500Y-50450000D02*
X230887500Y-50727092D01*
X226112500Y-49000000D02*
X225000000Y-49000000D01*
X225203500Y-51123000D02*
X225326500Y-51000000D01*
X220900000Y-51200000D02*
X224600000Y-51200000D01*
X224677000Y-51123000D02*
X225203500Y-51123000D01*
X224600000Y-51200000D02*
X224677000Y-51123000D01*
D47*
X226112500Y-51000000D02*
X225326500Y-51000000D01*
D48*
X219237500Y-49800000D02*
X219900000Y-49800000D01*
D47*
X226112500Y-49000000D02*
X226860000Y-49000000D01*
D48*
X224700000Y-51100000D02*
X224677000Y-51123000D01*
D47*
X218326503Y-49800000D02*
X218200000Y-49926503D01*
D48*
X224700000Y-49300000D02*
X224700000Y-51100000D01*
X220500000Y-50800000D02*
X220900000Y-51200000D01*
X219900000Y-49800000D02*
X220500000Y-50400000D01*
X225000000Y-49000000D02*
X224700000Y-49300000D01*
D47*
X219237500Y-49800000D02*
X218326503Y-49800000D01*
D48*
X220500000Y-50400000D02*
X220500000Y-50800000D01*
D47*
X229900000Y-48800000D02*
X230387500Y-48800000D01*
X230387500Y-48800000D02*
X230437500Y-48750000D01*
X230500000Y-49550000D02*
X230500000Y-49362974D01*
X230500000Y-49362974D02*
X230887500Y-48975474D01*
X230887500Y-48975474D02*
X230887500Y-48750000D01*
D49*
X232575000Y-60775000D02*
X231900000Y-60775000D01*
D47*
X226321428Y-57300000D02*
X226710714Y-56910714D01*
X232196428Y-59725000D02*
X232196428Y-60478572D01*
X231760000Y-55500000D02*
X232196428Y-55936428D01*
X222546428Y-55325000D02*
X222221428Y-55000000D01*
X226600000Y-56500000D02*
X226600000Y-56800000D01*
X226710714Y-56910714D02*
X227096428Y-56525000D01*
X222300000Y-55400000D02*
X222246428Y-55453572D01*
X222246428Y-55453572D02*
X222046428Y-55453572D01*
X222046428Y-55175000D02*
X222221428Y-55000000D01*
D49*
X232575000Y-60775000D02*
X232737500Y-60937500D01*
X233048500Y-60301500D02*
X232575000Y-60775000D01*
D47*
X232196428Y-55936428D02*
X232196428Y-56625000D01*
X222046428Y-57325000D02*
X222046428Y-56075000D01*
D49*
X232737500Y-60937500D02*
X233062500Y-60937500D01*
D47*
X222046428Y-55453572D02*
X222046428Y-55175000D01*
X226046428Y-57300000D02*
X226321428Y-57300000D01*
X232196428Y-60478572D02*
X231900000Y-60775000D01*
D49*
X233050000Y-60301500D02*
X233050000Y-60925000D01*
X233050000Y-60301500D02*
X233048500Y-60301500D01*
D47*
X222046428Y-56075000D02*
X222046428Y-55453572D01*
X226600000Y-56800000D02*
X226710714Y-56910714D01*
X222546428Y-56075000D02*
X222546428Y-55325000D01*
D49*
X233050000Y-60925000D02*
X233062500Y-60937500D01*
D50*
X232350000Y-44200000D02*
X231900000Y-44200000D01*
X231900000Y-44200000D02*
X231400000Y-44700000D01*
D47*
X217552976Y-43500000D02*
X218640476Y-43500000D01*
X232150000Y-43550000D02*
X231125000Y-43550000D01*
X231125000Y-43550000D02*
X230800000Y-43875000D01*
X232150000Y-42900000D02*
X230175000Y-42900000D01*
X230175000Y-42900000D02*
X229700000Y-43375000D01*
X218349465Y-50400000D02*
X218000000Y-50400000D01*
X217700000Y-50100000D02*
X217700000Y-47100000D01*
X219237500Y-50200000D02*
X218549465Y-50200000D01*
X217700000Y-47100000D02*
X216475000Y-45875000D01*
X218000000Y-50400000D02*
X217700000Y-50100000D01*
X218549465Y-50200000D02*
X218349465Y-50400000D01*
X218504882Y-50955000D02*
X216475000Y-50955000D01*
X219237500Y-50600000D02*
X218859882Y-50600000D01*
X218859882Y-50600000D02*
X218504882Y-50955000D01*
X226100000Y-43400000D02*
X225800000Y-43100000D01*
X225800000Y-40300000D02*
X226400000Y-39700000D01*
X228035000Y-39700000D02*
X229655000Y-41320000D01*
X226400000Y-39700000D02*
X228035000Y-39700000D01*
X225800000Y-43100000D02*
X225800000Y-40300000D01*
X226125000Y-43400000D02*
X226100000Y-43400000D01*
X221450000Y-43500000D02*
X221655000Y-43295000D01*
X221655000Y-43295000D02*
X221655000Y-41320000D01*
X219237500Y-49000000D02*
X219898498Y-49000000D01*
X219898498Y-49000000D02*
X220098498Y-49200000D01*
X229800000Y-45125000D02*
X229700000Y-45025000D01*
X226112500Y-50200000D02*
X227000000Y-50200000D01*
X229500000Y-48000000D02*
X229800000Y-47700000D01*
X227000000Y-50200000D02*
X227300000Y-49900000D01*
X227800000Y-48000000D02*
X229500000Y-48000000D01*
X229800000Y-47700000D02*
X229800000Y-45125000D01*
X227300000Y-48500000D02*
X227800000Y-48000000D01*
X227300000Y-49900000D02*
X227300000Y-48500000D01*
X228000000Y-48300000D02*
X229700000Y-48300000D01*
X227600000Y-48700000D02*
X227600000Y-50100000D01*
X227100000Y-50600000D02*
X226112500Y-50600000D01*
X230100000Y-46225000D02*
X230800000Y-45525000D01*
X228000000Y-48300000D02*
X227600000Y-48700000D01*
X230100000Y-47900000D02*
X230100000Y-46225000D01*
X229700000Y-48300000D02*
X230100000Y-47900000D01*
X227600000Y-50100000D02*
X227100000Y-50600000D01*
X227299959Y-45891483D02*
X226821017Y-45891483D01*
X226821017Y-45891483D02*
X226112500Y-46600000D01*
X219237500Y-47000000D02*
X218600000Y-47000000D01*
X218300000Y-45490476D02*
X220290476Y-43500000D01*
X218300000Y-46700000D02*
X218300000Y-45490476D01*
X218600000Y-47000000D02*
X218300000Y-46700000D01*
X224475000Y-45762500D02*
X224475000Y-43900000D01*
X224475000Y-45762500D02*
X224875000Y-45762500D01*
X222875000Y-45762500D02*
X223275000Y-45762500D01*
X223275000Y-43675000D02*
X223100000Y-43500000D01*
X223275000Y-45762500D02*
X223275000Y-43675000D01*
X226112500Y-47000000D02*
X226820974Y-47000000D01*
X226820974Y-47000000D02*
X227302996Y-46517978D01*
X227099771Y-47400000D02*
X226112500Y-47400000D01*
X227299771Y-47200000D02*
X227099771Y-47400000D01*
X226490118Y-47800000D02*
X226112500Y-47800000D01*
X226933897Y-48255931D02*
X226933897Y-48243779D01*
X226933897Y-48243779D02*
X226490118Y-47800000D01*
X224500000Y-46600000D02*
X224500000Y-46965118D01*
X224500000Y-46965118D02*
X225734882Y-48200000D01*
X225734882Y-48200000D02*
X226112500Y-48200000D01*
X226112500Y-48600000D02*
X225600000Y-48600000D01*
X223600000Y-46600000D02*
X222800000Y-46600000D01*
X225600000Y-48600000D02*
X223600000Y-46600000D01*
X216025000Y-52525000D02*
X216025000Y-53362500D01*
X218100000Y-51400000D02*
X217330000Y-52170000D01*
X216380000Y-52170000D02*
X216025000Y-52525000D01*
X217330000Y-52170000D02*
X216380000Y-52170000D01*
X219237500Y-51400000D02*
X218100000Y-51400000D01*
X217975000Y-53362500D02*
X217975000Y-52425000D01*
X217975000Y-52425000D02*
X218600000Y-51800000D01*
X218600000Y-51800000D02*
X219237500Y-51800000D01*
X223275000Y-52637500D02*
X223275000Y-53297254D01*
X223275000Y-53297254D02*
X223488873Y-53511127D01*
X226903572Y-60100000D02*
X227096428Y-59907144D01*
X226025000Y-60100000D02*
X226903572Y-60100000D01*
X226000000Y-61300000D02*
X226000000Y-60125000D01*
X227096428Y-59907144D02*
X227096428Y-59625000D01*
X226000000Y-60125000D02*
X226025000Y-60100000D01*
X234450000Y-57000000D02*
X234300000Y-57150000D01*
X234450000Y-56550000D02*
X234450000Y-57000000D01*
X222075000Y-53275000D02*
X221850000Y-53500000D01*
X234300000Y-57150000D02*
X233400000Y-57150000D01*
X233400000Y-57150000D02*
X233250000Y-57000000D01*
X222075000Y-52637500D02*
X222075000Y-53275000D01*
X233750000Y-56350000D02*
X233950000Y-56550000D01*
X233250000Y-56350000D02*
X233750000Y-56350000D01*
X222475000Y-53275000D02*
X222650000Y-53450000D01*
X222475000Y-52637500D02*
X222475000Y-53275000D01*
X224200000Y-53600000D02*
X223675000Y-53075000D01*
X223675000Y-53075000D02*
X223675000Y-52637500D01*
X222371428Y-58400000D02*
X223100000Y-58400000D01*
X222546428Y-58225000D02*
X222371428Y-58400000D01*
X225884500Y-54084500D02*
X225400000Y-53600000D01*
X225974072Y-56473159D02*
X225884500Y-56383587D01*
X225400000Y-53600000D02*
X224200000Y-53600000D01*
X222546428Y-57325000D02*
X222546428Y-58225000D01*
X225884500Y-56383587D02*
X225884500Y-54084500D01*
X229572462Y-60884079D02*
X227856541Y-62600000D01*
X229572462Y-60307510D02*
X229572462Y-60884079D01*
X229900428Y-59979544D02*
X229572462Y-60307510D01*
X230311928Y-58588072D02*
X230311928Y-59188072D01*
X221354000Y-61654000D02*
X216154000Y-61654000D01*
X231360000Y-57500000D02*
X231360000Y-57540000D01*
X222300000Y-62600000D02*
X221354000Y-61654000D01*
X231196428Y-57336428D02*
X231196428Y-56625000D01*
X229900428Y-59599572D02*
X229900428Y-59979544D01*
X231360000Y-57540000D02*
X230311928Y-58588072D01*
X230311928Y-59188072D02*
X229900428Y-59599572D01*
X227856541Y-62600000D02*
X222300000Y-62600000D01*
X216154000Y-61654000D02*
X216100000Y-61600000D01*
X231360000Y-57500000D02*
X231196428Y-57336428D01*
X231696428Y-56625000D02*
X231696428Y-56096428D01*
X230696428Y-58703572D02*
X231200000Y-58200000D01*
X231800000Y-58000000D02*
X231800000Y-56728572D01*
X231800000Y-56728572D02*
X231696428Y-56625000D01*
X231696428Y-56096428D02*
X230900000Y-55300000D01*
X229500000Y-56753572D02*
X229646428Y-56900000D01*
X228596428Y-56525000D02*
X229271428Y-56525000D01*
X229500000Y-55300000D02*
X229500000Y-56753572D01*
X231200000Y-58200000D02*
X231600000Y-58200000D01*
X230696428Y-59725000D02*
X230696428Y-58703572D01*
X229271428Y-56525000D02*
X229646428Y-56900000D01*
X231600000Y-58200000D02*
X231800000Y-58000000D01*
X230900000Y-55300000D02*
X229500000Y-55300000D01*
X229471428Y-56725000D02*
X229646428Y-56900000D01*
X229471428Y-55175000D02*
X229471428Y-56725000D01*
X227596428Y-55600000D02*
X227821428Y-55375000D01*
X228096428Y-56525000D02*
X227596428Y-56525000D01*
X227596428Y-56525000D02*
X227596428Y-55600000D01*
X232069373Y-58948498D02*
X231696428Y-59321443D01*
X231696428Y-59321443D02*
X231696428Y-59725000D01*
X221850000Y-60900000D02*
X218400000Y-60900000D01*
X218400000Y-60900000D02*
X218200000Y-60700000D01*
X228865271Y-60450278D02*
X228849722Y-60450278D01*
X228400000Y-60900000D02*
X227900000Y-60900000D01*
X228849722Y-60450278D02*
X228400000Y-60900000D01*
X222915500Y-61965500D02*
X221850000Y-60900000D01*
X228550000Y-58777070D02*
X228677070Y-58777070D01*
X228950000Y-60365549D02*
X228865271Y-60450278D01*
X228677070Y-58777070D02*
X228950000Y-59050000D01*
X226834500Y-61965500D02*
X222915500Y-61965500D01*
X228950000Y-59050000D02*
X228950000Y-60365549D01*
X227900000Y-60900000D02*
X226834500Y-61965500D01*
X216960000Y-55740000D02*
X216160000Y-55740000D01*
X227973137Y-61326863D02*
X228506716Y-61326863D01*
X216160000Y-55740000D02*
X215513500Y-56386500D01*
X216600000Y-61400000D02*
X221800000Y-61400000D01*
X222700000Y-62300000D02*
X227000000Y-62300000D01*
X215513500Y-60313500D02*
X216600000Y-61400000D01*
X227000000Y-62300000D02*
X227973137Y-61326863D01*
X215513500Y-56386500D02*
X215513500Y-60313500D01*
X221800000Y-61400000D02*
X222700000Y-62300000D01*
X219171428Y-57100000D02*
X218683928Y-57587500D01*
X220271428Y-57100000D02*
X220496428Y-56875000D01*
X219246428Y-57100000D02*
X219171428Y-57100000D01*
X219246428Y-57100000D02*
X220271428Y-57100000D01*
X221421428Y-56700000D02*
X220671428Y-56700000D01*
X217821428Y-57587500D02*
X218683928Y-57587500D01*
X218300000Y-55000000D02*
X218700000Y-54600000D01*
X218700000Y-54600000D02*
X218700000Y-53300000D01*
X220671428Y-56700000D02*
X220496428Y-56875000D01*
X218683928Y-57587500D02*
X219246428Y-58150000D01*
X217975000Y-57587500D02*
X217975000Y-56575000D01*
X218300000Y-56250000D02*
X218300000Y-55000000D01*
X217975000Y-56575000D02*
X218300000Y-56250000D01*
X220771428Y-56075000D02*
X220446428Y-55750000D01*
X221546428Y-56075000D02*
X220771428Y-56075000D01*
X220446428Y-55613572D02*
X220446428Y-55750000D01*
X221100000Y-54960000D02*
X220446428Y-55613572D01*
X221471428Y-59500000D02*
X220496428Y-58525000D01*
X220496428Y-58525000D02*
X221546428Y-57475000D01*
X221546428Y-57475000D02*
X221546428Y-57325000D01*
X223788873Y-56088873D02*
X223782555Y-56088873D01*
X224075000Y-56375000D02*
X224800000Y-56375000D01*
X223788873Y-56088873D02*
X224075000Y-56375000D01*
X223782555Y-56088873D02*
X223171428Y-56700000D01*
X217040000Y-54550000D02*
X217325000Y-54265000D01*
X217325000Y-54265000D02*
X217325000Y-53362500D01*
X222200000Y-60600000D02*
X223225000Y-59575000D01*
X217325000Y-57587500D02*
X217325000Y-58425000D01*
X219350000Y-59800000D02*
X220150000Y-60600000D01*
X217325000Y-58425000D02*
X217800000Y-58900000D01*
X219300000Y-59800000D02*
X219350000Y-59800000D01*
X223225000Y-59575000D02*
X223225000Y-59500000D01*
X223046428Y-57451786D02*
X223046428Y-57325000D01*
X224021428Y-58400000D02*
X223994642Y-58400000D01*
X220150000Y-60600000D02*
X222200000Y-60600000D01*
X219246428Y-59746428D02*
X219246428Y-59800000D01*
X218400000Y-58900000D02*
X219246428Y-59746428D01*
X223121428Y-59300000D02*
X224021428Y-58400000D01*
X223994642Y-58400000D02*
X223046428Y-57451786D01*
X223121428Y-59600000D02*
X223121428Y-59300000D01*
X217800000Y-58900000D02*
X218400000Y-58900000D01*
X228838165Y-57700000D02*
X228096428Y-58441737D01*
X230600000Y-57500000D02*
X230500000Y-57500000D01*
X228096428Y-58441737D02*
X228096428Y-59625000D01*
X230500000Y-57500000D02*
X230300000Y-57700000D01*
X230300000Y-57700000D02*
X228838165Y-57700000D01*
X221700000Y-54000000D02*
X221275000Y-53575000D01*
X225200000Y-57000000D02*
X225500000Y-56700000D01*
X225500000Y-54300000D02*
X225200000Y-54000000D01*
X224375000Y-60100000D02*
X225200000Y-59275000D01*
X225500000Y-56700000D02*
X225500000Y-54300000D01*
X221275000Y-53575000D02*
X221275000Y-52637500D01*
X225200000Y-54000000D02*
X221700000Y-54000000D01*
X225200000Y-59275000D02*
X225200000Y-57000000D01*
X232387500Y-48850000D02*
X232387500Y-48175000D01*
X232962500Y-47600000D02*
X233487500Y-48125000D01*
X231337500Y-48750000D02*
X232287500Y-48750000D01*
X232287500Y-48750000D02*
X232387500Y-48850000D01*
X232387500Y-48175000D02*
X232962500Y-47600000D01*
X233487500Y-48125000D02*
X234900000Y-48125000D01*
X224075000Y-44475000D02*
X224075000Y-45762500D01*
X223800000Y-44200000D02*
X224075000Y-44475000D01*
X234550000Y-59525000D02*
X234550000Y-58350000D01*
X233950000Y-60975000D02*
X233950000Y-60125000D01*
X233950000Y-60125000D02*
X234225000Y-59850000D01*
X234225000Y-59850000D02*
X234550000Y-59525000D01*
X234550000Y-58350000D02*
X234450000Y-58250000D01*
X234909500Y-58290500D02*
X234909500Y-59509500D01*
X235100000Y-60975000D02*
X235100000Y-60525000D01*
X234909500Y-59509500D02*
X235250000Y-59850000D01*
X234950000Y-58250000D02*
X234909500Y-58290500D01*
X235250000Y-59850000D02*
X235775000Y-59850000D01*
X235100000Y-60525000D02*
X235775000Y-59850000D01*
X235700000Y-79225000D02*
X235700000Y-78350000D01*
X235700000Y-78350000D02*
X235750000Y-78300000D01*
X235100000Y-63250000D02*
X235100000Y-62625000D01*
X235050000Y-78300000D02*
X235050000Y-78950000D01*
X233950000Y-62775000D02*
X233800000Y-62625000D01*
X235050000Y-78950000D02*
X235000000Y-79000000D01*
X233950000Y-63250000D02*
X233950000Y-62775000D01*
G04 #@! TA.AperFunction,Conductor*
G36*
X233818306Y-47018306D02*
G01*
X234200000Y-47400000D01*
X235874112Y-47400000D01*
X235918306Y-47418306D01*
X236181694Y-47681694D01*
X236200000Y-47725888D01*
X236200000Y-48937500D01*
X236181694Y-48981694D01*
X236137500Y-49000000D01*
X231262500Y-49000000D01*
X231218306Y-48981694D01*
X231200000Y-48937500D01*
X231200000Y-48425888D01*
X231218306Y-48381694D01*
X232581694Y-47018306D01*
X232625888Y-47000000D01*
X233774112Y-47000000D01*
X233818306Y-47018306D01*
G37*
G04 #@! TD.AperFunction*
G04 #@! TA.AperFunction,Conductor*
G36*
X232218306Y-46318306D02*
G01*
X232381694Y-46481694D01*
X232400000Y-46525888D01*
X232400000Y-46774112D01*
X232381694Y-46818306D01*
X231244194Y-47955806D01*
X231200000Y-47974112D01*
X231155806Y-47955806D01*
X230418306Y-47218306D01*
X230400000Y-47174112D01*
X230400000Y-46625888D01*
X230418306Y-46581694D01*
X230681694Y-46318306D01*
X230725888Y-46300000D01*
X232174112Y-46300000D01*
X232218306Y-46318306D01*
G37*
G04 #@! TD.AperFunction*
G04 #@! TA.AperFunction,Conductor*
G36*
X232115931Y-53120002D02*
G01*
X232136905Y-53136905D01*
X233200000Y-54200000D01*
X235947810Y-54200000D01*
X236015931Y-54220002D01*
X236036905Y-54236905D01*
X236163095Y-54363095D01*
X236197121Y-54425407D01*
X236200000Y-54452190D01*
X236200000Y-55574000D01*
X236179998Y-55642121D01*
X236126342Y-55688614D01*
X236074000Y-55700000D01*
X233352190Y-55700000D01*
X233284069Y-55679998D01*
X233263095Y-55663095D01*
X232600000Y-55000000D01*
X231863457Y-55000000D01*
X231844831Y-54998616D01*
X231843939Y-54998483D01*
X231835337Y-54995910D01*
X231826361Y-54995855D01*
X231826360Y-54995855D01*
X231763988Y-54995475D01*
X231690827Y-54995028D01*
X231682193Y-54997495D01*
X231673306Y-54998713D01*
X231673149Y-54997565D01*
X231655780Y-55000000D01*
X231036490Y-55000000D01*
X231010638Y-54995441D01*
X231010439Y-54996567D01*
X230974310Y-54990196D01*
X230963581Y-54987818D01*
X230938794Y-54981177D01*
X230928143Y-54978323D01*
X230895522Y-54981177D01*
X230891590Y-54981521D01*
X230880608Y-54982000D01*
X230334190Y-54982000D01*
X230266069Y-54961998D01*
X230245095Y-54945095D01*
X230036905Y-54736905D01*
X230002879Y-54674593D01*
X230000000Y-54647810D01*
X230000000Y-53352190D01*
X230020002Y-53284069D01*
X230036905Y-53263095D01*
X230133595Y-53166405D01*
X230195907Y-53132379D01*
X230222690Y-53129500D01*
X230498743Y-53129500D01*
X230518537Y-53131606D01*
X230522890Y-53131811D01*
X230533070Y-53134003D01*
X230563740Y-53130373D01*
X230569083Y-53130058D01*
X230569072Y-53129928D01*
X230574252Y-53129500D01*
X230579451Y-53129500D01*
X230584575Y-53128647D01*
X230584588Y-53128646D01*
X230597041Y-53126573D01*
X230602916Y-53125736D01*
X230639929Y-53121355D01*
X230650270Y-53120131D01*
X230657978Y-53116430D01*
X230666417Y-53115025D01*
X230673904Y-53110985D01*
X230712852Y-53104500D01*
X231997756Y-53104500D01*
X232002138Y-53104024D01*
X232032395Y-53100737D01*
X232046003Y-53100000D01*
X232047810Y-53100000D01*
X232115931Y-53120002D01*
G37*
G04 #@! TD.AperFunction*
G04 #@! TA.AperFunction,Conductor*
G36*
X231662791Y-49316293D02*
G01*
X231663411Y-49315408D01*
X231667403Y-49318203D01*
X231667651Y-49318306D01*
X231671756Y-49322411D01*
X231676711Y-49324721D01*
X231676713Y-49324723D01*
X231725515Y-49347479D01*
X231776429Y-49371221D01*
X231789795Y-49372981D01*
X231822093Y-49377233D01*
X231822101Y-49377233D01*
X231824125Y-49377500D01*
X231826172Y-49377500D01*
X232950874Y-49377499D01*
X232950874Y-49378853D01*
X232995760Y-49395760D01*
X233081694Y-49481694D01*
X233100000Y-49525888D01*
X233100000Y-49674112D01*
X233081694Y-49718306D01*
X232995761Y-49804239D01*
X232950875Y-49821146D01*
X232950875Y-49822500D01*
X231824126Y-49822501D01*
X231822115Y-49822766D01*
X231822110Y-49822766D01*
X231781169Y-49828155D01*
X231781168Y-49828155D01*
X231776429Y-49828779D01*
X231772095Y-49830800D01*
X231676713Y-49875277D01*
X231676711Y-49875279D01*
X231671756Y-49877589D01*
X231590089Y-49959256D01*
X231587779Y-49964211D01*
X231587777Y-49964213D01*
X231565021Y-50013015D01*
X231541279Y-50063929D01*
X231540655Y-50068670D01*
X231535267Y-50109593D01*
X231535267Y-50109601D01*
X231535000Y-50111625D01*
X231535001Y-50588374D01*
X231541279Y-50636071D01*
X231543300Y-50640405D01*
X231587777Y-50735787D01*
X231587779Y-50735789D01*
X231589337Y-50739132D01*
X231589338Y-50739134D01*
X231590089Y-50740744D01*
X231589877Y-50740843D01*
X231600000Y-50772949D01*
X231600000Y-50900000D01*
X232181694Y-51481694D01*
X232200000Y-51525888D01*
X232200000Y-51837500D01*
X232181694Y-51881694D01*
X232137500Y-51900000D01*
X230062500Y-51900000D01*
X230018306Y-51881694D01*
X230000000Y-51837500D01*
X230000000Y-51425888D01*
X230018306Y-51381694D01*
X230154194Y-51245806D01*
X230198388Y-51227500D01*
X230607019Y-51227500D01*
X230610290Y-51227586D01*
X230650976Y-51229718D01*
X230674823Y-51220565D01*
X230684211Y-51217784D01*
X230709192Y-51212474D01*
X230714508Y-51208612D01*
X230720507Y-51205941D01*
X230721501Y-51208173D01*
X230746669Y-51200000D01*
X230800000Y-51200000D01*
X231100000Y-50900000D01*
X231100000Y-50852665D01*
X231110534Y-50817941D01*
X231149831Y-50759130D01*
X231153251Y-50754012D01*
X231154452Y-50747975D01*
X231164401Y-50697957D01*
X231164401Y-50697954D01*
X231165000Y-50694944D01*
X231165000Y-50205056D01*
X231163310Y-50196557D01*
X231154452Y-50152025D01*
X231154452Y-50152024D01*
X231153251Y-50145988D01*
X231110534Y-50082059D01*
X231100000Y-50047335D01*
X231100000Y-49725888D01*
X231118306Y-49681694D01*
X231481694Y-49318306D01*
X231525888Y-49300000D01*
X231623457Y-49300000D01*
X231662791Y-49316293D01*
G37*
G04 #@! TD.AperFunction*
G04 #@! TA.AperFunction,Conductor*
G36*
X222318306Y-54818306D02*
G01*
X222481694Y-54981694D01*
X222500000Y-55025888D01*
X222500000Y-56137500D01*
X222481694Y-56181694D01*
X222437500Y-56200000D01*
X222062500Y-56200000D01*
X222018306Y-56181694D01*
X222000000Y-56137500D01*
X222000000Y-55400000D01*
X221718306Y-55118306D01*
X221700000Y-55074112D01*
X221700000Y-54862500D01*
X221718306Y-54818306D01*
X221762500Y-54800000D01*
X222274112Y-54800000D01*
X222318306Y-54818306D01*
G37*
G04 #@! TD.AperFunction*
G04 #@! TA.AperFunction,Conductor*
G36*
X235881694Y-39118306D02*
G01*
X235900000Y-39162500D01*
X235900000Y-46737500D01*
X235881694Y-46781694D01*
X235837500Y-46800000D01*
X233225888Y-46800000D01*
X233181694Y-46781694D01*
X232218306Y-45818306D01*
X232200000Y-45774112D01*
X232200000Y-45425888D01*
X232218306Y-45381694D01*
X233061563Y-44538437D01*
X233088239Y-44524178D01*
X233088024Y-44523659D01*
X233093297Y-44521475D01*
X233093564Y-44521332D01*
X233099748Y-44520102D01*
X233141922Y-44491922D01*
X233170102Y-44449748D01*
X233171332Y-44443564D01*
X233171475Y-44443297D01*
X233173659Y-44438024D01*
X233174178Y-44438239D01*
X233188437Y-44411563D01*
X233500000Y-44100000D01*
X233500000Y-41300000D01*
X233200000Y-41000000D01*
X232725888Y-41000000D01*
X232681694Y-40981694D01*
X232118306Y-40418306D01*
X232100000Y-40374112D01*
X232100000Y-39625888D01*
X232118306Y-39581694D01*
X232581694Y-39118306D01*
X232625888Y-39100000D01*
X235837500Y-39100000D01*
X235881694Y-39118306D01*
G37*
G04 #@! TD.AperFunction*
G04 #@! TA.AperFunction,Conductor*
G36*
X235815931Y-50020002D02*
G01*
X235836905Y-50036905D01*
X236163095Y-50363095D01*
X236197121Y-50425407D01*
X236200000Y-50452190D01*
X236200000Y-53347810D01*
X236179998Y-53415931D01*
X236163095Y-53436905D01*
X235936905Y-53663095D01*
X235874593Y-53697121D01*
X235847810Y-53700000D01*
X233452190Y-53700000D01*
X233384069Y-53679998D01*
X233363095Y-53663095D01*
X232486728Y-52786728D01*
X232452702Y-52724416D01*
X232450560Y-52684025D01*
X232454131Y-52651153D01*
X232454131Y-52651152D01*
X232454500Y-52647756D01*
X232454500Y-51875047D01*
X232456921Y-51850465D01*
X232458293Y-51843567D01*
X232459500Y-51837500D01*
X232459500Y-51525888D01*
X232439746Y-51426581D01*
X232421440Y-51382387D01*
X232384152Y-51326581D01*
X232368627Y-51303346D01*
X232368624Y-51303342D01*
X232365188Y-51298200D01*
X231892224Y-50825236D01*
X231858198Y-50762924D01*
X231856785Y-50755308D01*
X231848223Y-50699677D01*
X231848222Y-50699674D01*
X231847490Y-50694916D01*
X231837367Y-50662810D01*
X231836577Y-50663059D01*
X231828778Y-50645382D01*
X231826748Y-50637087D01*
X231826746Y-50637082D01*
X231825276Y-50631074D01*
X231811806Y-50602187D01*
X231800000Y-50548936D01*
X231800000Y-50208001D01*
X231820002Y-50139880D01*
X231873658Y-50093387D01*
X231926000Y-50082001D01*
X232870333Y-50082000D01*
X232950875Y-50082000D01*
X233042281Y-50063818D01*
X233042346Y-50063990D01*
X233043384Y-50063599D01*
X233050181Y-50062247D01*
X233054325Y-50059478D01*
X233055256Y-50059127D01*
X233055258Y-50059127D01*
X233080964Y-50049444D01*
X233087232Y-50047083D01*
X233092862Y-50043452D01*
X233092866Y-50043450D01*
X233122075Y-50024612D01*
X233190366Y-50004500D01*
X233351108Y-50004500D01*
X233377100Y-50001078D01*
X233393546Y-50000000D01*
X235747810Y-50000000D01*
X235815931Y-50020002D01*
G37*
G04 #@! TD.AperFunction*
M02*
