G04 #@! TF.GenerationSoftware,KiCad,Pcbnew,(6.0.7)*
G04 #@! TF.CreationDate,2022-10-27T11:41:06+02:00*
G04 #@! TF.ProjectId,FPS_AL,4650535f-414c-42e6-9b69-6361645f7063,rev?*
G04 #@! TF.SameCoordinates,Original*
G04 #@! TF.FileFunction,Legend,Bot*
G04 #@! TF.FilePolarity,Positive*
%FSLAX46Y46*%
G04 Gerber Fmt 4.6, Leading zero omitted, Abs format (unit mm)*
G04 Created by KiCad (PCBNEW (6.0.7)) date 2022-10-27 11:41:06*
%MOMM*%
%LPD*%
G01*
G04 APERTURE LIST*
G04 Aperture macros list*
%AMRoundRect*
0 Rectangle with rounded corners*
0 $1 Rounding radius*
0 $2 $3 $4 $5 $6 $7 $8 $9 X,Y pos of 4 corners*
0 Add a 4 corners polygon primitive as box body*
4,1,4,$2,$3,$4,$5,$6,$7,$8,$9,$2,$3,0*
0 Add four circle primitives for the rounded corners*
1,1,$1+$1,$2,$3*
1,1,$1+$1,$4,$5*
1,1,$1+$1,$6,$7*
1,1,$1+$1,$8,$9*
0 Add four rect primitives between the rounded corners*
20,1,$1+$1,$2,$3,$4,$5,0*
20,1,$1+$1,$4,$5,$6,$7,0*
20,1,$1+$1,$6,$7,$8,$9,0*
20,1,$1+$1,$8,$9,$2,$3,0*%
G04 Aperture macros list end*
%ADD10C,0.150000*%
%ADD11RoundRect,0.175000X-2.375000X-0.375000X2.375000X-0.375000X2.375000X0.375000X-2.375000X0.375000X0*%
G04 APERTURE END LIST*
D10*
X103395238Y-66678571D02*
X103728571Y-66678571D01*
X103728571Y-67202380D02*
X103728571Y-66202380D01*
X103252380Y-66202380D01*
X102871428Y-67202380D02*
X102871428Y-66202380D01*
X102490476Y-66202380D01*
X102395238Y-66250000D01*
X102347619Y-66297619D01*
X102300000Y-66392857D01*
X102300000Y-66535714D01*
X102347619Y-66630952D01*
X102395238Y-66678571D01*
X102490476Y-66726190D01*
X102871428Y-66726190D01*
X101300000Y-67107142D02*
X101347619Y-67154761D01*
X101490476Y-67202380D01*
X101585714Y-67202380D01*
X101728571Y-67154761D01*
X101823809Y-67059523D01*
X101871428Y-66964285D01*
X101919047Y-66773809D01*
X101919047Y-66630952D01*
X101871428Y-66440476D01*
X101823809Y-66345238D01*
X101728571Y-66250000D01*
X101585714Y-66202380D01*
X101490476Y-66202380D01*
X101347619Y-66250000D01*
X101300000Y-66297619D01*
X101109523Y-67297619D02*
X100347619Y-67297619D01*
X100157142Y-66916666D02*
X99680952Y-66916666D01*
X100252380Y-67202380D02*
X99919047Y-66202380D01*
X99585714Y-67202380D01*
X99252380Y-66535714D02*
X99252380Y-67202380D01*
X99252380Y-66630952D02*
X99204761Y-66583333D01*
X99109523Y-66535714D01*
X98966666Y-66535714D01*
X98871428Y-66583333D01*
X98823809Y-66678571D01*
X98823809Y-67202380D01*
X98490476Y-66535714D02*
X98109523Y-66535714D01*
X98347619Y-66202380D02*
X98347619Y-67059523D01*
X98300000Y-67154761D01*
X98204761Y-67202380D01*
X98109523Y-67202380D01*
X97395238Y-67154761D02*
X97490476Y-67202380D01*
X97680952Y-67202380D01*
X97776190Y-67154761D01*
X97823809Y-67059523D01*
X97823809Y-66678571D01*
X97776190Y-66583333D01*
X97680952Y-66535714D01*
X97490476Y-66535714D01*
X97395238Y-66583333D01*
X97347619Y-66678571D01*
X97347619Y-66773809D01*
X97823809Y-66869047D01*
X96919047Y-66535714D02*
X96919047Y-67202380D01*
X96919047Y-66630952D02*
X96871428Y-66583333D01*
X96776190Y-66535714D01*
X96633333Y-66535714D01*
X96538095Y-66583333D01*
X96490476Y-66678571D01*
X96490476Y-67202380D01*
X96014285Y-66535714D02*
X96014285Y-67202380D01*
X96014285Y-66630952D02*
X95966666Y-66583333D01*
X95871428Y-66535714D01*
X95728571Y-66535714D01*
X95633333Y-66583333D01*
X95585714Y-66678571D01*
X95585714Y-67202380D01*
X94680952Y-67202380D02*
X94680952Y-66678571D01*
X94728571Y-66583333D01*
X94823809Y-66535714D01*
X95014285Y-66535714D01*
X95109523Y-66583333D01*
X94680952Y-67154761D02*
X94776190Y-67202380D01*
X95014285Y-67202380D01*
X95109523Y-67154761D01*
X95157142Y-67059523D01*
X95157142Y-66964285D01*
X95109523Y-66869047D01*
X95014285Y-66821428D01*
X94776190Y-66821428D01*
X94680952Y-66773809D01*
X93728571Y-67202380D02*
X94204761Y-67202380D01*
X94204761Y-66202380D01*
X92776190Y-66202380D02*
X92442857Y-67202380D01*
X92109523Y-66202380D01*
X91252380Y-67202380D02*
X91823809Y-67202380D01*
X91538095Y-67202380D02*
X91538095Y-66202380D01*
X91633333Y-66345238D01*
X91728571Y-66440476D01*
X91823809Y-66488095D01*
X90823809Y-67107142D02*
X90776190Y-67154761D01*
X90823809Y-67202380D01*
X90871428Y-67154761D01*
X90823809Y-67107142D01*
X90823809Y-67202380D01*
X90157142Y-66202380D02*
X90061904Y-66202380D01*
X89966666Y-66250000D01*
X89919047Y-66297619D01*
X89871428Y-66392857D01*
X89823809Y-66583333D01*
X89823809Y-66821428D01*
X89871428Y-67011904D01*
X89919047Y-67107142D01*
X89966666Y-67154761D01*
X90061904Y-67202380D01*
X90157142Y-67202380D01*
X90252380Y-67154761D01*
X90300000Y-67107142D01*
X90347619Y-67011904D01*
X90395238Y-66821428D01*
X90395238Y-66583333D01*
X90347619Y-66392857D01*
X90300000Y-66297619D01*
X90252380Y-66250000D01*
X90157142Y-66202380D01*
%LPC*%
D11*
X107300000Y-62550000D03*
X86800000Y-62550000D03*
M02*
