G04 #@! TF.GenerationSoftware,KiCad,Pcbnew,(6.0.7)*
G04 #@! TF.CreationDate,2022-10-27T11:41:06+02:00*
G04 #@! TF.ProjectId,FPS_AL,4650535f-414c-42e6-9b69-6361645f7063,rev?*
G04 #@! TF.SameCoordinates,Original*
G04 #@! TF.FileFunction,Copper,L1,Top*
G04 #@! TF.FilePolarity,Positive*
%FSLAX46Y46*%
G04 Gerber Fmt 4.6, Leading zero omitted, Abs format (unit mm)*
G04 Created by KiCad (PCBNEW (6.0.7)) date 2022-10-27 11:41:06*
%MOMM*%
%LPD*%
G01*
G04 APERTURE LIST*
G04 Aperture macros list*
%AMRoundRect*
0 Rectangle with rounded corners*
0 $1 Rounding radius*
0 $2 $3 $4 $5 $6 $7 $8 $9 X,Y pos of 4 corners*
0 Add a 4 corners polygon primitive as box body*
4,1,4,$2,$3,$4,$5,$6,$7,$8,$9,$2,$3,0*
0 Add four circle primitives for the rounded corners*
1,1,$1+$1,$2,$3*
1,1,$1+$1,$4,$5*
1,1,$1+$1,$6,$7*
1,1,$1+$1,$8,$9*
0 Add four rect primitives between the rounded corners*
20,1,$1+$1,$2,$3,$4,$5,0*
20,1,$1+$1,$4,$5,$6,$7,0*
20,1,$1+$1,$6,$7,$8,$9,0*
20,1,$1+$1,$8,$9,$2,$3,0*%
G04 Aperture macros list end*
G04 #@! TA.AperFunction,SMDPad,CuDef*
%ADD10RoundRect,0.125000X2.375000X0.375000X-2.375000X0.375000X-2.375000X-0.375000X2.375000X-0.375000X0*%
G04 #@! TD*
G04 #@! TA.AperFunction,SMDPad,CuDef*
%ADD11RoundRect,0.250000X4.750000X1.750000X-4.750000X1.750000X-4.750000X-1.750000X4.750000X-1.750000X0*%
G04 #@! TD*
G04 #@! TA.AperFunction,SMDPad,CuDef*
%ADD12RoundRect,0.125000X0.125000X0.375000X-0.125000X0.375000X-0.125000X-0.375000X0.125000X-0.375000X0*%
G04 #@! TD*
G04 #@! TA.AperFunction,ViaPad*
%ADD13C,0.500000*%
G04 #@! TD*
G04 #@! TA.AperFunction,Conductor*
%ADD14C,0.127000*%
G04 #@! TD*
G04 #@! TA.AperFunction,Conductor*
%ADD15C,0.500000*%
G04 #@! TD*
G04 APERTURE END LIST*
D10*
X107300000Y-62550000D03*
D11*
X103300000Y-66750000D03*
D12*
X84550000Y-62550000D03*
X89050000Y-62550000D03*
X87550000Y-62550000D03*
D11*
X90800000Y-66750000D03*
D12*
X86050000Y-62550000D03*
D13*
X89850000Y-62800000D03*
X84550000Y-63500000D03*
X109550000Y-70000000D03*
X84550000Y-70000000D03*
X109550000Y-63500000D03*
X105300000Y-62550000D03*
X106300000Y-62550000D03*
X107300000Y-62550000D03*
X108300000Y-62550000D03*
X109300000Y-62550000D03*
D14*
X87000000Y-66750000D02*
X90800000Y-66750000D01*
X86050000Y-62550000D02*
X86050000Y-65800000D01*
X86050000Y-65800000D02*
X87000000Y-66750000D01*
X87550000Y-62550000D02*
X87550000Y-63500000D01*
X97300000Y-63800000D02*
X100250000Y-66750000D01*
X87850000Y-63800000D02*
X97300000Y-63800000D01*
X87550000Y-63500000D02*
X87850000Y-63800000D01*
X100250000Y-66750000D02*
X103300000Y-66750000D01*
D15*
X89300000Y-62800000D02*
X89050000Y-62550000D01*
X109550000Y-70000000D02*
X109550000Y-63500000D01*
X84550000Y-62550000D02*
X84550000Y-70000000D01*
X84550000Y-70000000D02*
X109550000Y-70000000D01*
X89850000Y-62800000D02*
X99550000Y-62800000D01*
X100250000Y-63500000D02*
X109550000Y-63500000D01*
X89850000Y-62800000D02*
X89300000Y-62800000D01*
X99550000Y-62800000D02*
X100250000Y-63500000D01*
M02*
