G04 #@! TF.GenerationSoftware,KiCad,Pcbnew,(6.0.7)*
G04 #@! TF.CreationDate,2022-10-27T11:41:06+02:00*
G04 #@! TF.ProjectId,FPS_AL,4650535f-414c-42e6-9b69-6361645f7063,rev?*
G04 #@! TF.SameCoordinates,Original*
G04 #@! TF.FileFunction,Legend,Top*
G04 #@! TF.FilePolarity,Positive*
%FSLAX46Y46*%
G04 Gerber Fmt 4.6, Leading zero omitted, Abs format (unit mm)*
G04 Created by KiCad (PCBNEW (6.0.7)) date 2022-10-27 11:41:06*
%MOMM*%
%LPD*%
G01*
G04 APERTURE LIST*
G04 Aperture macros list*
%AMRoundRect*
0 Rectangle with rounded corners*
0 $1 Rounding radius*
0 $2 $3 $4 $5 $6 $7 $8 $9 X,Y pos of 4 corners*
0 Add a 4 corners polygon primitive as box body*
4,1,4,$2,$3,$4,$5,$6,$7,$8,$9,$2,$3,0*
0 Add four circle primitives for the rounded corners*
1,1,$1+$1,$2,$3*
1,1,$1+$1,$4,$5*
1,1,$1+$1,$6,$7*
1,1,$1+$1,$8,$9*
0 Add four rect primitives between the rounded corners*
20,1,$1+$1,$2,$3,$4,$5,0*
20,1,$1+$1,$4,$5,$6,$7,0*
20,1,$1+$1,$6,$7,$8,$9,0*
20,1,$1+$1,$8,$9,$2,$3,0*%
G04 Aperture macros list end*
%ADD10C,0.150000*%
%ADD11RoundRect,0.175000X2.375000X0.375000X-2.375000X0.375000X-2.375000X-0.375000X2.375000X-0.375000X0*%
%ADD12RoundRect,0.175000X0.125000X0.375000X-0.125000X0.375000X-0.125000X-0.375000X0.125000X-0.375000X0*%
G04 APERTURE END LIST*
D10*
X90454761Y-66678571D02*
X90121428Y-66678571D01*
X90121428Y-67202380D02*
X90121428Y-66202380D01*
X90597619Y-66202380D01*
X90978571Y-67202380D02*
X90978571Y-66202380D01*
X91359523Y-66202380D01*
X91454761Y-66250000D01*
X91502380Y-66297619D01*
X91550000Y-66392857D01*
X91550000Y-66535714D01*
X91502380Y-66630952D01*
X91454761Y-66678571D01*
X91359523Y-66726190D01*
X90978571Y-66726190D01*
X92550000Y-67107142D02*
X92502380Y-67154761D01*
X92359523Y-67202380D01*
X92264285Y-67202380D01*
X92121428Y-67154761D01*
X92026190Y-67059523D01*
X91978571Y-66964285D01*
X91930952Y-66773809D01*
X91930952Y-66630952D01*
X91978571Y-66440476D01*
X92026190Y-66345238D01*
X92121428Y-66250000D01*
X92264285Y-66202380D01*
X92359523Y-66202380D01*
X92502380Y-66250000D01*
X92550000Y-66297619D01*
X92740476Y-67297619D02*
X93502380Y-67297619D01*
X93692857Y-66916666D02*
X94169047Y-66916666D01*
X93597619Y-67202380D02*
X93930952Y-66202380D01*
X94264285Y-67202380D01*
X94597619Y-66535714D02*
X94597619Y-67202380D01*
X94597619Y-66630952D02*
X94645238Y-66583333D01*
X94740476Y-66535714D01*
X94883333Y-66535714D01*
X94978571Y-66583333D01*
X95026190Y-66678571D01*
X95026190Y-67202380D01*
X95359523Y-66535714D02*
X95740476Y-66535714D01*
X95502380Y-66202380D02*
X95502380Y-67059523D01*
X95550000Y-67154761D01*
X95645238Y-67202380D01*
X95740476Y-67202380D01*
X96454761Y-67154761D02*
X96359523Y-67202380D01*
X96169047Y-67202380D01*
X96073809Y-67154761D01*
X96026190Y-67059523D01*
X96026190Y-66678571D01*
X96073809Y-66583333D01*
X96169047Y-66535714D01*
X96359523Y-66535714D01*
X96454761Y-66583333D01*
X96502380Y-66678571D01*
X96502380Y-66773809D01*
X96026190Y-66869047D01*
X96930952Y-66535714D02*
X96930952Y-67202380D01*
X96930952Y-66630952D02*
X96978571Y-66583333D01*
X97073809Y-66535714D01*
X97216666Y-66535714D01*
X97311904Y-66583333D01*
X97359523Y-66678571D01*
X97359523Y-67202380D01*
X97835714Y-66535714D02*
X97835714Y-67202380D01*
X97835714Y-66630952D02*
X97883333Y-66583333D01*
X97978571Y-66535714D01*
X98121428Y-66535714D01*
X98216666Y-66583333D01*
X98264285Y-66678571D01*
X98264285Y-67202380D01*
X99169047Y-67202380D02*
X99169047Y-66678571D01*
X99121428Y-66583333D01*
X99026190Y-66535714D01*
X98835714Y-66535714D01*
X98740476Y-66583333D01*
X99169047Y-67154761D02*
X99073809Y-67202380D01*
X98835714Y-67202380D01*
X98740476Y-67154761D01*
X98692857Y-67059523D01*
X98692857Y-66964285D01*
X98740476Y-66869047D01*
X98835714Y-66821428D01*
X99073809Y-66821428D01*
X99169047Y-66773809D01*
X100121428Y-67202380D02*
X99645238Y-67202380D01*
X99645238Y-66202380D01*
X101073809Y-66202380D02*
X101407142Y-67202380D01*
X101740476Y-66202380D01*
X102597619Y-67202380D02*
X102026190Y-67202380D01*
X102311904Y-67202380D02*
X102311904Y-66202380D01*
X102216666Y-66345238D01*
X102121428Y-66440476D01*
X102026190Y-66488095D01*
X103026190Y-67107142D02*
X103073809Y-67154761D01*
X103026190Y-67202380D01*
X102978571Y-67154761D01*
X103026190Y-67107142D01*
X103026190Y-67202380D01*
X103692857Y-66202380D02*
X103788095Y-66202380D01*
X103883333Y-66250000D01*
X103930952Y-66297619D01*
X103978571Y-66392857D01*
X104026190Y-66583333D01*
X104026190Y-66821428D01*
X103978571Y-67011904D01*
X103930952Y-67107142D01*
X103883333Y-67154761D01*
X103788095Y-67202380D01*
X103692857Y-67202380D01*
X103597619Y-67154761D01*
X103549999Y-67107142D01*
X103502380Y-67011904D01*
X103454761Y-66821428D01*
X103454761Y-66583333D01*
X103502380Y-66392857D01*
X103549999Y-66297619D01*
X103597619Y-66250000D01*
X103692857Y-66202380D01*
%LPC*%
D11*
X107300000Y-62550000D03*
D12*
X84550000Y-62550000D03*
X89050000Y-62550000D03*
X87550000Y-62550000D03*
X86050000Y-62550000D03*
M02*
