M48
; DRILL file {KiCad (6.0.7)} date Thu Oct 27 13:13:02 2022
; FORMAT={-:-/ absolute / metric / decimal}
; #@! TF.CreationDate,2022-10-27T13:13:02+02:00
; #@! TF.GenerationSoftware,Kicad,Pcbnew,(6.0.7)
; #@! TF.FileFunction,Plated,1,4,PTH
FMAT,2
METRIC
; #@! TA.AperFunction,Plated,PTH,ViaDrill
T1C0.200
; #@! TA.AperFunction,Plated,PTH,ComponentDrill
T2C0.450
; #@! TA.AperFunction,Plated,PTH,ComponentDrill
T3C0.800
; #@! TA.AperFunction,Plated,PTH,ComponentDrill
T4C0.890
; #@! TA.AperFunction,Plated,PTH,ComponentDrill
T5C0.950
; #@! TA.AperFunction,Plated,PTH,ComponentDrill
T6C1.000
; #@! TA.AperFunction,Plated,PTH,ComponentDrill
T7C1.190
; #@! TA.AperFunction,Plated,PTH,ComponentDrill
T8C1.400
; #@! TA.AperFunction,Plated,PTH,ComponentDrill
T9C1.600
; #@! TA.AperFunction,Plated,PTH,ComponentDrill
T10C2.010
%
G90
G05
T1
X72.257Y-140.433
X72.384Y-143.46
X72.944Y-140.571
X73.244Y-137.6
X73.324Y-136.41
X73.661Y-202.292
X73.661Y-205.692
X73.661Y-209.092
X73.661Y-212.492
X73.661Y-215.892
X73.661Y-219.292
X73.661Y-222.692
X73.661Y-226.092
X73.901Y-176.66
X73.914Y-137.6
X74.101Y-155.36
X74.101Y-158.76
X74.101Y-162.16
X74.101Y-165.56
X74.101Y-168.96
X74.101Y-172.36
X74.411Y-200.842
X74.424Y-129.46
X74.484Y-131.16
X74.484Y-131.787
X74.484Y-142.56
X74.484Y-144.56
X74.561Y-177.81
X74.661Y-203.992
X74.661Y-207.392
X74.661Y-210.792
X74.661Y-214.192
X74.661Y-217.592
X74.661Y-220.992
X74.661Y-224.392
X74.661Y-227.792
X74.732Y-141.56
X74.984Y-135.16
X75.101Y-157.06
X75.101Y-160.46
X75.101Y-163.86
X75.101Y-167.26
X75.101Y-170.66
X75.101Y-174.06
X75.661Y-202.292
X75.661Y-205.692
X75.661Y-209.092
X75.661Y-212.492
X75.661Y-215.892
X75.661Y-219.292
X75.661Y-222.692
X75.661Y-226.092
X75.784Y-127.76
X75.801Y-176.66
X75.848Y-136.251
X76.011Y-193.142
X76.061Y-197.292
X76.101Y-155.36
X76.101Y-158.76
X76.101Y-162.16
X76.101Y-165.56
X76.101Y-168.96
X76.101Y-172.36
X76.161Y-199.892
X76.261Y-195.292
X76.261Y-196.192
X76.382Y-131.06
X76.384Y-129.46
X76.384Y-130.36
X76.611Y-201.492
X76.661Y-193.792
X76.661Y-203.992
X76.661Y-207.392
X76.661Y-210.792
X76.661Y-214.192
X76.661Y-217.592
X76.661Y-220.992
X76.661Y-224.392
X76.661Y-227.792
X76.701Y-176.86
X76.776Y-133.583
X76.901Y-174.81
X76.984Y-141.86
X77.101Y-157.06
X77.101Y-160.46
X77.101Y-163.86
X77.101Y-167.26
X77.101Y-174.06
X77.238Y-201.492
X77.384Y-136.82
X77.411Y-198.692
X77.661Y-202.292
X77.661Y-205.692
X77.661Y-209.092
X77.661Y-212.492
X77.661Y-215.892
X77.661Y-219.292
X77.661Y-222.692
X77.661Y-226.092
X77.701Y-171.26
X77.866Y-201.486
X77.984Y-133.66
X78.061Y-194.092
X78.101Y-151.96
X78.101Y-155.36
X78.101Y-158.76
X78.101Y-162.16
X78.101Y-165.56
X78.134Y-135.36
X78.384Y-126.66
X78.451Y-172.81
X78.584Y-137.26
X78.611Y-195.692
X78.661Y-203.992
X78.661Y-207.392
X78.661Y-210.792
X78.661Y-214.192
X78.661Y-217.592
X78.661Y-220.992
X78.661Y-224.392
X78.661Y-227.792
X78.901Y-70.16
X78.934Y-135.31
X78.978Y-115.81
X79.011Y-198.242
X79.061Y-194.092
X79.084Y-128.46
X79.101Y-153.66
X79.101Y-157.06
X79.101Y-160.46
X79.101Y-163.86
X79.101Y-167.26
X79.161Y-199.842
X79.181Y-65.76
X79.384Y-137.26
X79.384Y-140.26
X79.661Y-202.292
X79.661Y-205.692
X79.661Y-209.092
X79.661Y-212.492
X79.661Y-215.892
X79.661Y-219.292
X79.661Y-226.092
X79.684Y-130.56
X79.773Y-135.371
X79.784Y-131.56
X79.784Y-133.56
X79.784Y-143.36
X79.911Y-193.142
X80.073Y-137.949
X80.084Y-126.06
X80.101Y-151.96
X80.101Y-155.36
X80.101Y-158.76
X80.101Y-165.56
X80.101Y-172.36
X80.401Y-172.81
X80.661Y-203.992
X80.661Y-207.392
X80.661Y-210.792
X80.661Y-214.192
X80.661Y-217.592
X80.661Y-224.392
X80.661Y-227.792
X80.701Y-173.61
X80.711Y-195.742
X80.714Y-174.272
X80.784Y-128.46
X80.961Y-200.092
X81.101Y-153.66
X81.101Y-157.06
X81.101Y-160.46
X81.101Y-163.86
X81.361Y-195.592
X81.484Y-126.06
X81.61Y-131.46
X81.61Y-132.86
X81.661Y-202.592
X81.661Y-205.692
X81.661Y-209.092
X81.661Y-212.492
X81.661Y-215.892
X81.661Y-219.292
X81.661Y-226.092
X82.057Y-127.76
X82.101Y-151.96
X82.101Y-155.36
X82.101Y-158.76
X82.101Y-168.96
X82.258Y-138.333
X82.261Y-195.642
X82.661Y-203.992
X82.661Y-207.392
X82.661Y-210.792
X82.661Y-214.192
X82.661Y-220.992
X82.661Y-224.392
X82.661Y-227.792
X82.728Y-91.52
X82.728Y-112.61
X82.884Y-138.36
X82.904Y-194.092
X82.961Y-200.092
X83.001Y-73.11
X83.101Y-160.46
X83.101Y-163.86
X83.144Y-130.86
X83.218Y-130.116
X83.234Y-135.01
X83.281Y-62.81
X83.284Y-133.06
X83.284Y-134.36
X83.361Y-196.392
X83.378Y-91.72
X83.378Y-112.41
X83.384Y-139.36
X83.484Y-142.46
X83.531Y-194.096
X83.584Y-129.06
X83.584Y-127.751
X83.587Y-128.378
X83.611Y-201.492
X83.651Y-73.31
X83.661Y-202.592
X83.661Y-205.692
X83.661Y-209.092
X83.661Y-212.492
X83.661Y-222.692
X83.661Y-226.092
X83.751Y-171.01
X83.931Y-62.61
X84.051Y-175.71
X84.051Y-176.41
X84.051Y-177.11
X84.051Y-177.81
X84.051Y-178.51
X84.101Y-151.96
X84.101Y-158.76
X84.101Y-165.56
X84.101Y-168.96
X84.101Y-172.36
X84.157Y-194.092
X84.176Y-94.32
X84.176Y-109.81
X84.251Y-92.81
X84.251Y-111.32
X84.311Y-201.492
X84.401Y-70.96
X84.45Y-75.91
X84.523Y-142.299
X84.525Y-74.4
X84.661Y-195.692
X84.661Y-203.992
X84.661Y-207.392
X84.661Y-210.792
X84.661Y-214.192
X84.681Y-64.96
X84.684Y-139.36
X84.73Y-60.01
X84.791Y-143.187
X84.805Y-61.52
X84.834Y-140.637
X84.861Y-197.992
X84.928Y-88.87
X84.928Y-115.26
X85.061Y-194.592
X85.101Y-160.46
X85.101Y-163.86
X85.101Y-167.26
X85.101Y-174.06
X85.101Y-177.46
X85.122Y-198.731
X85.149Y-142.31
X85.261Y-201.442
X85.501Y-70.96
X85.551Y-174.51
X85.661Y-199.242
X85.661Y-202.592
X85.661Y-205.692
X85.661Y-209.092
X85.661Y-212.492
X85.661Y-215.892
X85.674Y-141.727
X85.728Y-93.02
X85.728Y-111.11
X85.761Y-193.192
X85.781Y-64.96
X86.001Y-74.61
X86.001Y-168.81
X86.011Y-201.342
X86.101Y-151.71
X86.101Y-158.76
X86.101Y-165.56
X86.101Y-172.36
X86.184Y-130.66
X86.281Y-61.31
X86.328Y-89.37
X86.328Y-114.76
X86.601Y-70.96
X86.661Y-193.792
X86.661Y-203.992
X86.661Y-207.392
X86.661Y-210.792
X86.661Y-214.192
X86.661Y-217.592
X86.784Y-131.41
X86.873Y-142.399
X86.881Y-64.96
X86.884Y-139.36
X86.984Y-137.66
X87.101Y-160.46
X87.101Y-163.86
X87.101Y-167.26
X87.101Y-170.66
X87.101Y-174.06
X87.101Y-177.46
X87.184Y-128.46
X87.378Y-95.27
X87.378Y-95.87
X87.378Y-108.26
X87.378Y-108.86
X87.411Y-201.906
X87.428Y-89.37
X87.428Y-114.76
X87.461Y-199.492
X87.473Y-140.771
X87.534Y-135.16
X87.584Y-122.86
X87.644Y-139.36
X87.651Y-76.86
X87.651Y-77.46
X87.661Y-205.692
X87.661Y-209.092
X87.661Y-212.492
X87.661Y-215.892
X87.684Y-126.56
X87.701Y-70.96
X87.784Y-128.46
X87.931Y-58.46
X87.931Y-59.06
X87.981Y-64.96
X88.044Y-137.36
X88.101Y-151.71
X88.101Y-158.76
X88.101Y-165.56
X88.101Y-168.96
X88.101Y-172.36
X88.111Y-200.142
X88.151Y-166.56
X88.234Y-135.16
X88.353Y-140.808
X88.384Y-128.46
X88.411Y-207.392
X88.461Y-205.542
X88.528Y-89.37
X88.528Y-114.76
X88.534Y-139.36
X88.561Y-204.192
X88.661Y-193.792
X88.661Y-210.792
X88.661Y-214.192
X88.801Y-70.96
X88.811Y-212.292
X88.851Y-171.01
X88.884Y-133.16
X88.984Y-121.46
X89.034Y-144.56
X89.081Y-64.96
X89.101Y-160.46
X89.101Y-174.06
X89.328Y-95.47
X89.328Y-96.42
X89.328Y-97.52
X89.328Y-98.57
X89.328Y-105.56
X89.328Y-106.61
X89.328Y-107.71
X89.328Y-108.66
X89.334Y-142.161
X89.346Y-142.797
X89.484Y-133.16
X89.534Y-138.21
X89.534Y-138.86
X89.601Y-77.06
X89.601Y-78.01
X89.601Y-79.11
X89.601Y-80.16
X89.628Y-89.37
X89.628Y-114.76
X89.661Y-195.492
X89.661Y-209.092
X89.811Y-199.392
X89.861Y-202.292
X89.881Y-55.76
X89.881Y-56.81
X89.881Y-57.91
X89.881Y-58.86
X89.901Y-70.96
X90.101Y-151.71
X90.101Y-158.76
X90.101Y-168.96
X90.101Y-172.36
X90.181Y-64.96
X90.211Y-214.142
X90.234Y-145.11
X90.278Y-95.47
X90.278Y-96.42
X90.278Y-97.52
X90.278Y-98.57
X90.278Y-105.56
X90.278Y-106.61
X90.278Y-107.71
X90.278Y-108.66
X90.301Y-154.91
X90.336Y-210.917
X90.336Y-213.417
X90.384Y-135.26
X90.384Y-136.26
X90.384Y-140.858
X90.551Y-77.06
X90.551Y-78.01
X90.551Y-79.11
X90.551Y-80.16
X90.551Y-157.01
X90.661Y-193.792
X90.661Y-197.192
X90.728Y-89.37
X90.728Y-114.76
X90.831Y-55.76
X90.831Y-56.81
X90.831Y-57.91
X90.831Y-58.86
X90.984Y-135.26
X90.984Y-136.26
X91.001Y-70.96
X91.101Y-160.46
X91.101Y-174.06
X91.161Y-206.842
X91.281Y-64.96
X91.384Y-145.11
X91.478Y-94.72
X91.478Y-109.41
X91.561Y-205.742
X91.584Y-135.26
X91.584Y-136.26
X91.634Y-140.86
X91.661Y-198.892
X91.661Y-202.292
X91.751Y-76.31
X91.828Y-89.37
X91.828Y-114.76
X91.984Y-122.36
X92.03Y-138.41
X92.031Y-59.61
X92.051Y-171.91
X92.101Y-70.96
X92.101Y-151.96
X92.101Y-158.76
X92.101Y-165.56
X92.101Y-168.96
X92.184Y-135.26
X92.184Y-136.26
X92.184Y-143.362
X92.184Y-143.86
X92.361Y-212.292
X92.378Y-96.97
X92.378Y-97.67
X92.378Y-98.32
X92.378Y-105.81
X92.378Y-106.46
X92.378Y-107.16
X92.381Y-64.96
X92.461Y-210.992
X92.651Y-78.56
X92.651Y-79.26
X92.651Y-79.91
X92.661Y-193.792
X92.661Y-203.992
X92.661Y-207.392
X92.801Y-157.51
X92.828Y-96.47
X92.828Y-107.66
X92.928Y-89.37
X92.928Y-114.76
X92.931Y-56.01
X92.931Y-56.66
X92.931Y-57.36
X93.101Y-78.06
X93.101Y-153.66
X93.101Y-160.46
X93.101Y-163.46
X93.101Y-167.26
X93.176Y-92.939
X93.176Y-111.191
X93.201Y-70.96
X93.381Y-57.86
X93.45Y-74.529
X93.481Y-64.96
X93.578Y-97.27
X93.578Y-106.86
X93.628Y-93.57
X93.628Y-110.56
X93.661Y-198.892
X93.661Y-202.292
X93.661Y-205.292
X93.73Y-61.391
X93.851Y-78.86
X93.901Y-75.16
X94.028Y-89.37
X94.028Y-114.76
X94.101Y-151.96
X94.101Y-155.36
X94.101Y-162.16
X94.101Y-165.56
X94.131Y-57.06
X94.181Y-60.76
X94.301Y-70.96
X94.581Y-64.96
X94.661Y-193.792
X94.661Y-203.992
X94.661Y-207.392
X95.101Y-153.66
X95.101Y-160.46
X95.101Y-163.46
X95.211Y-212.592
X95.278Y-92.52
X95.278Y-111.61
X95.301Y-156.86
X95.328Y-97.17
X95.328Y-106.96
X95.461Y-198.692
X95.551Y-74.11
X95.551Y-170.76
X95.601Y-78.76
X95.661Y-195.492
X95.661Y-202.292
X95.661Y-205.292
X95.831Y-61.81
X95.881Y-57.16
X95.989Y-98.781
X95.989Y-105.349
X96.078Y-97.194
X96.078Y-106.936
X96.101Y-151.96
X96.101Y-162.16
X96.101Y-165.56
X96.262Y-80.371
X96.328Y-95.57
X96.328Y-108.56
X96.351Y-78.783
X96.378Y-92.07
X96.378Y-112.06
X96.542Y-55.549
X96.601Y-77.16
X96.615Y-98.765
X96.615Y-105.365
X96.631Y-57.136
X96.651Y-73.66
X96.661Y-193.792
X96.661Y-197.192
X96.661Y-203.992
X96.661Y-207.392
X96.881Y-58.76
X96.889Y-80.355
X96.931Y-62.26
X97.101Y-157.06
X97.101Y-160.46
X97.101Y-163.46
X97.114Y-90.314
X97.114Y-113.816
X97.169Y-55.565
X97.178Y-92.07
X97.178Y-112.06
X97.387Y-71.904
X97.451Y-73.66
X97.661Y-195.492
X97.661Y-202.292
X97.661Y-205.292
X97.661Y-209.092
X97.667Y-64.016
X97.669Y-98.72
X97.669Y-105.41
X97.731Y-62.26
X97.901Y-70.16
X97.943Y-80.31
X97.961Y-199.342
X98.051Y-90.319
X98.051Y-113.811
X98.078Y-92.08
X98.078Y-112.05
X98.101Y-151.96
X98.101Y-162.16
X98.101Y-165.56
X98.181Y-65.76
X98.223Y-55.61
X98.228Y-95.52
X98.228Y-108.61
X98.296Y-98.717
X98.296Y-105.413
X98.301Y-169.16
X98.325Y-71.909
X98.351Y-73.67
X98.401Y-170.46
X98.501Y-77.11
X98.569Y-80.307
X98.605Y-64.011
X98.631Y-62.25
X98.661Y-193.792
X98.661Y-200.592
X98.661Y-207.392
X98.661Y-210.792
X98.678Y-90.319
X98.678Y-113.811
X98.711Y-213.742
X98.781Y-58.81
X98.849Y-55.613
X98.901Y-70.16
X98.951Y-71.909
X99.101Y-157.06
X99.101Y-160.46
X99.181Y-65.76
X99.201Y-163.91
X99.228Y-95.52
X99.228Y-108.61
X99.231Y-64.011
X99.501Y-77.11
X99.601Y-165.01
X99.661Y-202.292
X99.661Y-215.892
X99.678Y-98.72
X99.678Y-105.41
X99.781Y-58.81
X99.951Y-80.31
X100.101Y-151.96
X100.101Y-155.36
X100.171Y-95.861
X100.171Y-108.269
X100.211Y-198.842
X100.231Y-55.61
X100.241Y-96.484
X100.241Y-107.646
X100.278Y-97.12
X100.278Y-107.01
X100.328Y-98.72
X100.328Y-105.41
X100.426Y-169.085
X100.426Y-171.585
X100.445Y-77.451
X100.461Y-196.742
X100.514Y-92.123
X100.514Y-112.007
X100.515Y-78.074
X100.551Y-78.71
X100.551Y-172.31
X100.601Y-80.31
X100.661Y-193.542
X100.661Y-200.592
X100.661Y-210.792
X100.661Y-214.192
X100.725Y-58.469
X100.788Y-73.713
X100.795Y-57.846
X100.831Y-57.21
X100.881Y-55.61
X100.901Y-160.46
X100.951Y-157.56
X101.068Y-62.207
X101.101Y-153.66
X101.101Y-167.26
X101.504Y-135.26
X101.504Y-136.26
X101.504Y-143.362
X101.504Y-143.86
X101.657Y-138.41
X101.661Y-202.292
X101.661Y-215.892
X101.704Y-122.36
X101.828Y-89.77
X101.828Y-97.92
X101.828Y-106.21
X101.828Y-114.36
X101.889Y-90.976
X101.889Y-113.154
X101.911Y-212.842
X101.951Y-170.46
X102.054Y-140.86
X102.078Y-93.52
X102.078Y-110.61
X102.101Y-71.36
X102.101Y-79.51
X102.101Y-151.96
X102.101Y-168.96
X102.101Y-172.36
X102.104Y-135.26
X102.104Y-136.26
X102.162Y-72.566
X102.201Y-162.36
X102.301Y-163.71
X102.304Y-145.11
X102.351Y-75.11
X102.351Y-165.56
X102.381Y-56.41
X102.381Y-64.56
X102.442Y-63.354
X102.611Y-208.392
X102.631Y-60.81
X102.651Y-158.31
X102.661Y-193.542
X102.661Y-200.592
X102.661Y-207.392
X102.661Y-210.792
X102.661Y-214.192
X102.704Y-135.26
X102.704Y-136.26
X102.778Y-89.37
X102.778Y-114.76
X103.051Y-70.96
X103.101Y-163.86
X103.101Y-167.26
X103.101Y-170.66
X103.101Y-174.06
X103.301Y-157.66
X103.304Y-135.26
X103.304Y-136.26
X103.304Y-140.858
X103.331Y-64.96
X103.351Y-160.074
X103.454Y-145.11
X103.661Y-202.292
X103.661Y-205.692
X103.661Y-209.092
X103.661Y-212.492
X103.661Y-215.892
X103.661Y-219.292
X103.678Y-94.77
X103.678Y-109.36
X103.878Y-89.37
X103.878Y-114.76
X103.951Y-76.36
X104.101Y-151.96
X104.101Y-162.16
X104.101Y-165.56
X104.101Y-168.96
X104.101Y-172.36
X104.101Y-175.76
X104.151Y-70.96
X104.154Y-138.21
X104.154Y-138.86
X104.189Y-93.524
X104.189Y-110.606
X104.204Y-133.16
X104.231Y-59.56
X104.328Y-96.32
X104.328Y-107.81
X104.341Y-142.797
X104.354Y-142.161
X104.431Y-64.96
X104.463Y-75.114
X104.601Y-77.91
X104.616Y-94.78
X104.616Y-109.35
X104.654Y-144.56
X104.661Y-193.542
X104.661Y-200.592
X104.661Y-207.392
X104.661Y-214.192
X104.704Y-121.46
X104.743Y-60.806
X104.751Y-159.51
X104.761Y-210.642
X104.804Y-133.16
X104.881Y-58.01
X104.89Y-76.37
X104.978Y-89.37
X104.978Y-114.76
X105.001Y-151.36
X105.101Y-157.41
X105.101Y-160.76
X105.101Y-163.86
X105.101Y-167.26
X105.101Y-170.66
X105.101Y-174.06
X105.154Y-139.36
X105.17Y-59.55
X105.211Y-216.342
X105.251Y-70.96
X105.304Y-128.46
X105.335Y-140.808
X105.454Y-135.16
X105.501Y-159.61
X105.531Y-64.96
X105.64Y-156.899
X105.644Y-137.36
X105.661Y-202.292
X105.661Y-205.692
X105.661Y-209.092
X105.661Y-215.892
X105.661Y-219.292
X105.701Y-152.76
X105.901Y-156.16
X105.904Y-128.46
X106.004Y-126.56
X106.044Y-139.36
X106.078Y-89.37
X106.078Y-114.76
X106.101Y-153.86
X106.101Y-162.16
X106.101Y-165.56
X106.101Y-168.96
X106.101Y-172.36
X106.104Y-122.86
X106.154Y-135.16
X106.215Y-140.771
X106.351Y-70.96
X106.451Y-159.66
X106.504Y-128.46
X106.605Y-152.26
X106.631Y-64.96
X106.661Y-193.792
X106.661Y-200.592
X106.661Y-207.392
X106.661Y-210.792
X106.661Y-214.192
X106.704Y-137.66
X106.711Y-217.542
X106.711Y-218.242
X106.711Y-218.942
X106.711Y-219.642
X106.711Y-220.342
X106.804Y-139.36
X106.815Y-142.399
X106.904Y-131.41
X107.011Y-212.842
X107.038Y-94.329
X107.038Y-109.801
X107.101Y-160.76
X107.101Y-163.86
X107.101Y-167.26
X107.101Y-170.66
X107.101Y-180.86
X107.101Y-184.26
X107.151Y-159.66
X107.178Y-89.37
X107.178Y-114.76
X107.232Y-152.264
X107.312Y-75.919
X107.401Y-154.56
X107.451Y-70.96
X107.504Y-130.66
X107.592Y-60.001
X107.661Y-202.292
X107.661Y-205.692
X107.731Y-64.96
X107.801Y-158.26
X107.858Y-152.26
X108.014Y-141.727
X108.101Y-162.16
X108.101Y-165.56
X108.101Y-168.96
X108.101Y-172.36
X108.101Y-179.16
X108.101Y-182.56
X108.101Y-185.96
X108.278Y-89.37
X108.278Y-96.38
X108.278Y-107.75
X108.278Y-114.76
X108.501Y-153.81
X108.539Y-142.31
X108.551Y-70.96
X108.551Y-77.97
X108.661Y-193.792
X108.661Y-197.192
X108.661Y-200.592
X108.661Y-210.792
X108.831Y-57.95
X108.831Y-64.96
X108.854Y-140.637
X108.897Y-143.187
X108.928Y-96.38
X108.928Y-107.75
X109.004Y-139.36
X109.101Y-160.76
X109.101Y-163.86
X109.101Y-167.26
X109.101Y-170.66
X109.101Y-174.06
X109.101Y-177.46
X109.101Y-184.26
X109.165Y-142.299
X109.201Y-77.97
X109.378Y-89.37
X109.378Y-114.76
X109.401Y-153.76
X109.481Y-57.95
X109.651Y-70.96
X109.661Y-195.492
X109.661Y-198.892
X109.661Y-202.292
X109.661Y-205.692
X109.801Y-158.26
X109.931Y-64.96
X110.049Y-216.105
X110.051Y-153.91
X110.061Y-215.442
X110.101Y-128.378
X110.101Y-162.16
X110.101Y-165.56
X110.101Y-168.96
X110.101Y-172.36
X110.101Y-175.76
X110.101Y-182.56
X110.101Y-185.96
X110.104Y-127.751
X110.104Y-129.06
X110.204Y-142.46
X110.304Y-139.36
X110.361Y-214.642
X110.404Y-133.06
X110.404Y-134.36
X110.454Y-135.01
X110.47Y-130.116
X110.478Y-89.37
X110.478Y-114.76
X110.544Y-130.86
X110.661Y-193.792
X110.661Y-197.192
X110.661Y-200.592
X110.661Y-207.392
X110.661Y-214.192
X110.751Y-70.96
X110.804Y-138.36
X110.851Y-151.31
X110.928Y-95.37
X110.928Y-96.32
X110.928Y-107.81
X110.928Y-108.76
X111.031Y-64.96
X111.101Y-160.46
X111.101Y-163.86
X111.101Y-167.26
X111.101Y-170.66
X111.101Y-174.06
X111.101Y-177.46
X111.101Y-184.26
X111.201Y-76.96
X111.201Y-77.91
X111.43Y-138.333
X111.481Y-58.01
X111.481Y-58.96
X111.601Y-158.01
X111.63Y-127.76
X111.661Y-195.492
X111.661Y-198.892
X111.661Y-202.292
X111.661Y-205.692
X111.661Y-209.092
X111.701Y-152.26
X111.728Y-94.82
X111.728Y-109.31
X111.751Y-156.41
X111.851Y-70.96
X111.978Y-88.87
X111.978Y-115.26
X112.001Y-76.41
X112.077Y-131.46
X112.077Y-132.86
X112.101Y-162.16
X112.101Y-165.56
X112.101Y-168.96
X112.101Y-172.36
X112.101Y-175.76
X112.101Y-179.16
X112.101Y-182.56
X112.101Y-185.96
X112.131Y-64.96
X112.151Y-153.86
X112.204Y-126.06
X112.281Y-59.51
X112.311Y-214.642
X112.661Y-193.792
X112.661Y-197.192
X112.661Y-200.592
X112.661Y-203.992
X112.661Y-207.392
X112.701Y-152.26
X112.897Y-159.654
X112.904Y-128.46
X112.951Y-70.96
X113.061Y-213.092
X113.101Y-160.46
X113.101Y-163.86
X113.101Y-167.26
X113.101Y-170.66
X113.101Y-174.06
X113.101Y-177.46
X113.101Y-180.86
X113.101Y-184.26
X113.231Y-64.96
X113.351Y-156.86
X113.525Y-159.66
X113.604Y-126.06
X113.615Y-137.949
X113.661Y-198.892
X113.661Y-202.292
X113.661Y-205.692
X113.661Y-209.092
X113.661Y-215.892
X113.861Y-216.642
X113.904Y-131.56
X113.904Y-133.56
X113.904Y-143.36
X113.915Y-135.371
X114.004Y-130.56
X114.061Y-218.692
X114.101Y-151.96
X114.101Y-162.16
X114.101Y-165.56
X114.101Y-168.96
X114.101Y-172.36
X114.101Y-175.76
X114.101Y-179.16
X114.101Y-182.56
X114.101Y-185.96
X114.151Y-159.66
X114.304Y-137.26
X114.304Y-140.26
X114.501Y-153.46
X114.501Y-154.36
X114.601Y-158.06
X114.604Y-128.46
X114.628Y-90.57
X114.628Y-113.56
X114.661Y-197.192
X114.661Y-200.592
X114.661Y-203.992
X114.661Y-207.392
X114.661Y-210.792
X114.661Y-214.192
X114.678Y-91.22
X114.678Y-112.91
X114.701Y-155.46
X114.751Y-151.31
X114.754Y-135.31
X114.901Y-72.16
X114.951Y-72.81
X114.961Y-218.492
X115.101Y-160.46
X115.101Y-163.86
X115.101Y-167.26
X115.101Y-170.66
X115.101Y-174.06
X115.101Y-177.46
X115.101Y-180.86
X115.101Y-184.26
X115.104Y-137.26
X115.181Y-63.76
X115.231Y-63.11
X115.304Y-126.66
X115.554Y-135.36
X115.661Y-198.892
X115.661Y-202.292
X115.661Y-205.692
X115.661Y-209.092
X115.661Y-212.492
X115.661Y-215.892
X115.704Y-133.66
X116.101Y-162.16
X116.101Y-165.56
X116.101Y-168.96
X116.101Y-172.36
X116.101Y-175.76
X116.101Y-179.16
X116.101Y-182.56
X116.101Y-185.96
X116.201Y-219.642
X116.304Y-136.82
X116.351Y-159.01
X116.661Y-197.192
X116.661Y-200.592
X116.661Y-203.992
X116.661Y-207.392
X116.661Y-210.792
X116.661Y-214.192
X116.704Y-141.86
X116.861Y-218.492
X116.911Y-133.583
X117.101Y-160.46
X117.101Y-163.86
X117.101Y-167.26
X117.101Y-170.66
X117.101Y-174.06
X117.101Y-177.46
X117.101Y-180.86
X117.101Y-184.26
X117.228Y-88.92
X117.228Y-115.21
X117.304Y-129.46
X117.304Y-130.36
X117.305Y-131.06
X117.84Y-136.251
X117.901Y-70.16
X117.904Y-127.76
X118.181Y-65.76
X118.704Y-135.16
X118.955Y-141.56
X119.204Y-131.16
X119.204Y-131.787
X119.204Y-142.56
X119.204Y-144.56
X119.264Y-129.46
X119.774Y-137.6
X120.364Y-136.41
X120.444Y-137.6
X120.744Y-140.571
X121.304Y-143.46
X121.431Y-140.433
X124.531Y-93.25
X124.531Y-94.05
X125.631Y-92.75
X126.131Y-95.65
X126.231Y-91.45
X126.931Y-93.75
X127.031Y-91.45
X127.031Y-95.65
X127.071Y-55.18
X127.831Y-94.65
X128.731Y-93.15
X128.731Y-93.95
X129.351Y-190.0
X130.416Y-151.112
X130.716Y-147.562
X130.816Y-144.812
X131.516Y-120.212
X131.87Y-80.148
X131.976Y-129.262
X132.216Y-136.812
X132.491Y-117.887
X132.491Y-119.737
X133.116Y-144.713
X133.216Y-142.963
X133.516Y-118.012
X133.616Y-139.412
X133.666Y-142.112
X133.716Y-141.112
X133.916Y-137.612
X134.07Y-78.048
X134.07Y-79.375
X134.075Y-145.162
X134.216Y-133.713
X134.316Y-146.612
X134.616Y-134.112
X134.67Y-78.048
X134.67Y-79.375
X134.701Y-145.162
X135.329Y-136.6
X135.366Y-131.662
X135.366Y-132.612
X135.39Y-139.512
X135.39Y-141.74
X135.616Y-143.512
X135.618Y-144.139
X135.631Y-142.886
X135.668Y-145.862
X136.516Y-143.714
X136.651Y-179.7
X136.751Y-182.3
X136.851Y-177.108
X136.951Y-178.0
X136.97Y-81.148
X137.116Y-139.912
X137.116Y-140.612
X137.116Y-141.312
X137.116Y-142.012
X137.14Y-134.062
X137.216Y-146.662
X137.451Y-187.0
X137.451Y-187.6
X137.451Y-188.3
X137.451Y-189.0
X137.566Y-147.362
X137.651Y-175.608
X137.651Y-176.234
X137.67Y-81.148
X137.766Y-134.062
X137.806Y-174.708
X138.216Y-147.412
X138.551Y-186.0
X138.566Y-146.612
X138.651Y-178.5
X138.651Y-183.2
X138.651Y-191.8
X138.818Y-143.812
X138.951Y-191.0
X138.991Y-137.287
X139.016Y-145.812
X139.051Y-175.108
X139.151Y-186.0
X139.216Y-150.112
X139.316Y-132.713
X139.351Y-183.2
X139.451Y-191.8
X139.516Y-146.762
X139.651Y-191.0
X139.751Y-186.0
X139.8Y-178.5
X140.03Y-146.322
X140.151Y-179.8
X140.151Y-191.8
X140.351Y-186.0
X140.351Y-191.0
X140.414Y-144.205
X140.416Y-143.213
X140.516Y-141.312
X140.516Y-142.412
X140.553Y-175.292
X140.569Y-175.918
X140.645Y-146.069
X140.651Y-183.3
X140.851Y-179.8
X140.851Y-191.8
X140.951Y-176.5
X141.151Y-185.2
X141.316Y-150.312
X141.451Y-183.4
X141.551Y-179.8
X141.551Y-191.8
X141.578Y-176.5
X141.67Y-83.148
X141.689Y-185.522
X141.701Y-135.512
X142.127Y-150.324
X142.141Y-134.987
X142.156Y-147.012
X142.17Y-77.148
X142.316Y-144.062
X142.351Y-179.8
X142.413Y-141.713
X142.416Y-142.412
X142.516Y-141.012
X142.651Y-171.2
X142.651Y-186.8
X142.651Y-187.5
X142.67Y-77.148
X142.67Y-83.148
X142.67Y-88.248
X142.716Y-147.012
X142.805Y-138.024
X143.051Y-176.555
X143.251Y-171.2
X143.316Y-147.012
X143.476Y-132.012
X143.67Y-65.148
X143.751Y-176.548
X143.826Y-133.112
X143.851Y-191.0
X143.97Y-79.648
X143.97Y-81.248
X144.151Y-186.8
X144.151Y-187.5
X144.216Y-136.412
X144.47Y-79.648
X144.47Y-81.248
X144.551Y-176.4
X144.616Y-136.812
X144.77Y-77.848
X144.851Y-184.6
X144.951Y-187.8
X145.07Y-82.348
X145.451Y-178.0
X145.451Y-181.9
X145.616Y-130.262
X145.616Y-130.862
X145.616Y-131.463
X145.616Y-132.062
X145.751Y-187.8
X145.766Y-147.362
X145.816Y-148.912
X146.051Y-190.175
X146.166Y-150.662
X146.451Y-177.8
X146.67Y-61.898
X146.916Y-139.312
X146.916Y-139.912
X147.045Y-62.273
X147.051Y-177.8
X147.42Y-74.898
X147.92Y-71.398
X148.42Y-91.648
X149.27Y-62.548
X149.366Y-132.612
X149.366Y-133.512
X149.516Y-140.213
X149.716Y-132.162
X149.716Y-133.062
X149.92Y-85.398
X149.966Y-149.836
X149.966Y-150.463
X150.216Y-138.512
X150.216Y-139.512
X150.27Y-63.548
X150.316Y-130.986
X150.67Y-96.648
X150.67Y-97.648
X150.916Y-137.812
X150.966Y-127.712
X151.066Y-128.862
X151.17Y-62.548
X151.17Y-63.948
X151.47Y-81.848
X151.47Y-83.348
X151.67Y-79.898
X151.816Y-137.812
X151.922Y-94.148
X151.922Y-94.648
X152.67Y-72.948
X152.67Y-75.848
X152.67Y-88.648
X152.866Y-131.912
X152.966Y-129.162
X153.17Y-96.648
X153.17Y-97.648
X153.42Y-79.898
X153.42Y-81.898
X153.451Y-177.0
X153.616Y-149.312
X153.67Y-88.648
X153.716Y-138.612
X153.716Y-139.812
X153.716Y-140.912
X153.716Y-142.213
X153.751Y-175.1
X154.416Y-120.762
X154.416Y-121.462
X154.416Y-122.112
X154.416Y-122.812
X154.416Y-149.312
X154.561Y-178.095
X154.67Y-72.898
X154.751Y-177.0
X154.916Y-137.762
X154.916Y-138.312
X154.916Y-138.862
X154.916Y-139.412
X154.916Y-139.963
X155.116Y-149.312
X155.566Y-116.912
X155.566Y-117.612
X155.566Y-118.262
X155.566Y-118.962
X155.97Y-71.748
X156.316Y-143.812
X156.37Y-64.948
X156.87Y-62.548
X156.87Y-63.348
X156.87Y-64.048
X156.87Y-69.248
X157.17Y-71.898
X157.17Y-78.572
X157.17Y-81.248
X158.616Y-130.012
X158.716Y-140.162
X158.716Y-146.662
X158.87Y-69.248
X159.166Y-130.012
X159.47Y-77.448
X159.52Y-60.898
X159.666Y-140.162
X159.666Y-146.662
X159.67Y-80.748
X159.716Y-130.012
X159.97Y-60.448
X160.266Y-130.012
X160.37Y-81.848
X160.416Y-141.112
X160.416Y-142.062
X160.416Y-143.012
X160.416Y-143.963
X160.416Y-144.912
X160.416Y-145.862
X160.47Y-78.548
X160.533Y-87.885
X160.92Y-80.348
X161.87Y-79.048
X161.958Y-88.21
X162.007Y-86.412
X162.533Y-88.785
X162.566Y-125.762
X162.566Y-126.362
X162.566Y-127.062
X162.766Y-127.762
X163.27Y-86.948
X163.42Y-87.698
X163.716Y-128.312
X163.716Y-128.912
X163.716Y-129.512
X163.716Y-130.086
X164.216Y-126.962
X164.435Y-125.822
X164.866Y-123.962
X164.995Y-88.798
X165.116Y-126.312
X166.195Y-88.798
X166.595Y-76.598
X166.595Y-77.498
X166.595Y-78.598
X166.595Y-79.598
X166.595Y-80.598
X167.595Y-88.798
X167.711Y-177.0
X167.902Y-178.095
X168.711Y-175.1
X169.011Y-177.0
X169.095Y-82.098
X169.695Y-82.098
X170.095Y-77.498
X170.095Y-78.498
X170.095Y-79.598
X170.095Y-80.498
X175.411Y-177.8
X176.011Y-177.8
X176.411Y-190.175
X176.426Y-126.312
X176.676Y-123.962
X176.711Y-187.8
X177.011Y-178.0
X177.011Y-181.9
X177.107Y-125.822
X177.326Y-126.962
X177.511Y-187.8
X177.611Y-184.6
X177.826Y-128.312
X177.826Y-128.912
X177.826Y-129.512
X177.826Y-130.086
X177.911Y-176.4
X178.311Y-186.8
X178.311Y-187.5
X178.611Y-191.0
X178.711Y-176.548
X178.776Y-127.762
X178.976Y-125.762
X178.976Y-126.362
X178.976Y-127.062
X179.211Y-171.2
X179.411Y-176.555
X179.811Y-171.2
X179.811Y-186.8
X179.811Y-187.5
X180.111Y-179.8
X180.774Y-185.522
X180.885Y-176.5
X180.911Y-179.8
X180.911Y-191.8
X181.011Y-183.4
X181.126Y-141.112
X181.126Y-142.062
X181.126Y-143.012
X181.126Y-143.963
X181.126Y-144.912
X181.126Y-145.862
X181.276Y-130.012
X181.311Y-185.2
X181.511Y-176.5
X181.611Y-179.8
X181.611Y-191.8
X181.811Y-183.3
X181.826Y-130.012
X181.876Y-140.162
X181.876Y-146.662
X181.893Y-175.918
X181.91Y-175.292
X182.111Y-186.0
X182.111Y-191.0
X182.311Y-179.8
X182.311Y-191.8
X182.376Y-130.012
X182.663Y-178.5
X182.711Y-186.0
X182.811Y-191.0
X182.826Y-140.162
X182.826Y-146.662
X182.926Y-130.012
X183.011Y-191.8
X183.111Y-183.2
X183.311Y-186.0
X183.411Y-175.108
X183.511Y-191.0
X183.811Y-178.5
X183.811Y-183.2
X183.811Y-191.8
X183.911Y-186.0
X184.657Y-174.708
X184.811Y-175.608
X184.811Y-176.234
X185.011Y-187.0
X185.011Y-187.6
X185.011Y-188.3
X185.011Y-189.0
X185.226Y-143.812
X185.511Y-178.0
X185.611Y-177.108
X185.711Y-182.3
X185.811Y-179.7
X185.976Y-116.912
X185.976Y-117.612
X185.976Y-118.262
X185.976Y-118.962
X186.426Y-149.312
X186.626Y-137.762
X186.626Y-138.312
X186.626Y-138.862
X186.626Y-139.412
X186.626Y-139.963
X187.126Y-120.762
X187.126Y-121.462
X187.126Y-122.112
X187.126Y-122.812
X187.126Y-149.312
X187.826Y-138.612
X187.826Y-139.812
X187.826Y-140.912
X187.826Y-142.213
X187.87Y-83.948
X187.926Y-149.312
X188.07Y-92.148
X188.576Y-129.162
X188.676Y-131.912
X189.137Y-80.481
X189.137Y-81.381
X189.17Y-88.681
X189.17Y-89.448
X189.726Y-137.812
X189.87Y-85.848
X189.87Y-86.448
X189.87Y-87.048
X190.07Y-77.548
X190.07Y-78.748
X190.476Y-128.862
X190.576Y-127.712
X190.626Y-137.812
X191.226Y-130.986
X191.326Y-138.512
X191.326Y-139.512
X191.47Y-98.548
X191.47Y-99.148
X191.576Y-149.836
X191.576Y-150.463
X191.826Y-132.162
X191.826Y-133.062
X191.87Y-85.848
X192.026Y-140.213
X192.176Y-132.612
X192.176Y-133.512
X192.37Y-76.848
X193.111Y-190.0
X194.626Y-139.312
X194.626Y-139.912
X194.67Y-64.148
X194.67Y-77.448
X194.67Y-78.848
X195.17Y-63.648
X195.27Y-77.448
X195.27Y-78.848
X195.376Y-150.662
X195.67Y-63.148
X195.726Y-148.912
X195.776Y-147.362
X195.926Y-130.262
X195.926Y-130.862
X195.926Y-131.463
X195.926Y-132.062
X196.17Y-62.648
X196.67Y-62.148
X196.845Y-70.973
X196.926Y-136.812
X197.326Y-136.412
X197.47Y-70.948
X197.716Y-133.112
X198.066Y-132.012
X198.226Y-147.012
X198.738Y-138.024
X198.826Y-147.012
X199.026Y-141.012
X199.126Y-142.412
X199.129Y-141.713
X199.226Y-144.062
X199.386Y-147.012
X199.401Y-134.987
X199.415Y-150.324
X199.841Y-135.512
X200.226Y-150.312
X200.897Y-146.069
X201.026Y-141.312
X201.026Y-142.412
X201.126Y-143.213
X201.129Y-144.205
X201.513Y-146.322
X202.026Y-146.762
X202.226Y-132.713
X202.326Y-150.112
X202.526Y-145.812
X202.551Y-137.287
X202.67Y-80.148
X202.724Y-143.812
X202.976Y-146.612
X203.326Y-147.412
X203.37Y-80.148
X203.776Y-134.062
X203.976Y-147.362
X204.326Y-146.662
X204.403Y-134.062
X204.426Y-139.912
X204.426Y-140.612
X204.426Y-141.312
X204.426Y-142.012
X205.026Y-143.714
X205.07Y-77.448
X205.07Y-78.848
X205.125Y-187.927
X205.211Y-186.22
X205.67Y-77.448
X205.67Y-78.848
X205.711Y-190.72
X205.875Y-145.862
X205.912Y-142.886
X205.925Y-144.139
X205.926Y-143.512
X206.153Y-139.512
X206.153Y-141.74
X206.176Y-131.662
X206.176Y-132.612
X206.211Y-177.92
X206.211Y-178.62
X206.211Y-179.247
X206.213Y-136.6
X206.411Y-180.02
X206.811Y-183.82
X206.841Y-145.162
X206.926Y-134.112
X207.061Y-177.27
X207.226Y-146.612
X207.324Y-190.62
X207.326Y-133.713
X207.468Y-145.162
X207.626Y-137.612
X207.66Y-187.47
X207.661Y-175.37
X207.826Y-141.112
X207.876Y-142.112
X207.926Y-139.412
X208.011Y-178.754
X208.026Y-118.012
X208.326Y-142.963
X208.426Y-144.713
X208.449Y-190.62
X209.051Y-117.887
X209.051Y-119.737
X209.07Y-80.848
X209.161Y-177.47
X209.326Y-136.812
X209.566Y-129.262
X209.911Y-186.12
X210.011Y-190.72
X210.026Y-120.212
X210.092Y-182.595
X210.726Y-144.812
X210.826Y-147.562
X211.061Y-182.67
X211.126Y-151.112
X211.611Y-183.72
X211.811Y-186.72
X211.811Y-187.82
X211.911Y-182.72
X212.311Y-169.37
X212.411Y-173.07
X212.711Y-182.52
X212.821Y-179.233
X213.061Y-175.17
X213.061Y-176.02
X213.061Y-176.806
X213.061Y-177.67
X213.561Y-179.27
X213.911Y-175.37
X213.911Y-176.12
X214.311Y-179.32
X214.611Y-185.62
X215.086Y-179.296
X215.461Y-181.37
X215.711Y-186.22
X215.861Y-171.97
X215.861Y-179.296
X216.711Y-171.02
X216.711Y-177.32
X216.711Y-179.346
X217.011Y-181.92
X217.011Y-182.82
X217.111Y-189.02
X217.311Y-176.62
X217.361Y-177.32
X217.511Y-179.346
X217.811Y-174.32
X218.011Y-177.32
X218.261Y-179.346
X219.111Y-176.32
X219.411Y-183.12
X219.511Y-189.02
X219.911Y-174.22
X220.12Y-76.97
X220.311Y-185.52
X220.361Y-180.12
X221.022Y-182.526
X221.52Y-63.97
X221.57Y-65.02
X221.57Y-65.647
X221.644Y-182.444
X221.77Y-62.32
X222.011Y-183.32
X222.711Y-183.22
X223.011Y-184.87
X223.211Y-184.26
X223.461Y-175.22
X223.461Y-176.12
X223.461Y-177.02
X223.461Y-185.32
X223.911Y-180.971
X224.511Y-178.52
X224.611Y-180.98
X224.92Y-61.22
X224.92Y-62.97
X224.92Y-63.52
X225.12Y-77.82
X225.12Y-84.07
X225.215Y-56.165
X225.22Y-57.47
X225.82Y-56.17
X225.82Y-57.47
X225.97Y-86.42
X226.22Y-64.67
X226.22Y-65.97
X226.22Y-87.97
X226.311Y-183.993
X226.41Y-184.62
X226.711Y-179.42
X227.161Y-83.983
X227.167Y-84.625
X227.32Y-81.02
X227.32Y-82.57
X227.32Y-83.27
X227.411Y-186.32
X227.511Y-195.82
X227.511Y-197.42
X227.52Y-64.67
X227.52Y-65.97
X227.611Y-177.67
X227.711Y-182.92
X227.821Y-146.21
X227.821Y-147.16
X227.821Y-147.86
X227.836Y-179.545
X227.911Y-184.62
X228.038Y-186.32
X228.17Y-79.27
X228.17Y-79.87
X228.32Y-88.97
X228.458Y-179.471
X228.459Y-87.381
X228.511Y-177.72
X228.52Y-78.37
X228.611Y-182.92
X228.666Y-186.368
X228.72Y-67.37
X228.97Y-84.32
X229.161Y-179.47
X229.211Y-177.72
X229.291Y-186.32
X229.37Y-87.37
X229.421Y-156.51
X229.57Y-84.62
X229.611Y-182.92
X229.87Y-62.57
X229.87Y-64.77
X230.011Y-187.12
X230.235Y-78.469
X230.52Y-81.52
X230.52Y-82.62
X230.52Y-83.72
X230.521Y-146.874
X230.593Y-186.887
X230.676Y-186.265
X230.761Y-182.77
X230.77Y-68.62
X230.82Y-87.57
X231.12Y-78.57
X231.211Y-195.82
X231.311Y-186.27
X231.92Y-78.32
X232.07Y-62.57
X232.07Y-64.77
X232.111Y-185.37
X232.22Y-69.07
X232.411Y-178.52
X232.471Y-150.01
X232.561Y-177.72
X232.62Y-87.37
X232.82Y-78.77
X232.971Y-154.71
X233.111Y-180.42
X233.311Y-181.87
X233.871Y-155.71
X233.971Y-147.71
X234.02Y-84.82
X234.02Y-85.42
X234.152Y-83.617
X234.17Y-71.92
X234.17Y-82.92
X234.171Y-146.46
X234.311Y-191.07
X234.411Y-176.52
X234.42Y-71.07
X234.671Y-150.96
X234.821Y-148.66
X234.911Y-189.33
X235.371Y-150.96
X235.421Y-148.66
X235.611Y-187.695
X236.003Y-84.714
X236.021Y-84.088
X236.021Y-148.66
X236.07Y-82.57
X236.07Y-83.197
X236.12Y-79.42
X236.511Y-150.96
X236.571Y-148.66
X236.911Y-178.82
X236.911Y-179.72
X236.957Y-178.098
X237.221Y-150.959
X237.421Y-157.86
X237.72Y-72.22
X237.77Y-68.47
X238.021Y-152.31
X238.27Y-61.32
X238.607Y-148.646
X238.825Y-56.165
X238.871Y-154.06
X238.92Y-60.02
X239.02Y-72.67
X239.021Y-157.11
X239.121Y-148.21
X239.471Y-152.81
X239.871Y-149.21
X240.021Y-150.61
X240.621Y-157.26
X240.995Y-154.113
X241.07Y-81.52
X241.12Y-80.72
X241.121Y-155.71
X241.471Y-110.11
X241.471Y-127.81
X241.67Y-83.27
X241.973Y-156.483
X242.171Y-136.61
X242.209Y-115.247
X242.209Y-133.172
X242.209Y-141.998
X242.22Y-56.17
X242.22Y-87.27
X242.221Y-118.71
X242.321Y-154.76
X242.82Y-65.32
X242.971Y-154.76
X243.061Y-149.26
X243.12Y-84.32
X243.171Y-113.41
X243.171Y-113.96
X243.171Y-114.51
X243.171Y-122.41
X243.171Y-122.96
X243.171Y-123.51
X243.171Y-131.41
X243.171Y-131.96
X243.171Y-132.51
X243.171Y-140.26
X243.171Y-140.81
X243.171Y-141.36
X243.221Y-158.06
X243.277Y-84.973
X243.42Y-82.12
X243.421Y-151.186
X243.571Y-110.66
X243.621Y-111.61
X243.621Y-138.71
X243.634Y-137.748
X243.671Y-116.21
X243.671Y-117.21
X243.671Y-119.66
X243.671Y-120.71
X243.671Y-125.01
X243.671Y-126.16
X243.671Y-128.61
X243.671Y-129.81
X243.671Y-134.16
X243.671Y-135.16
X243.671Y-142.81
X243.671Y-144.01
X243.671Y-154.76
X243.72Y-62.32
X243.721Y-149.56
X243.92Y-84.97
X244.004Y-156.438
X244.121Y-151.21
X244.181Y-158.06
X244.22Y-73.52
X244.37Y-65.17
X244.421Y-154.76
X244.621Y-149.36
X244.621Y-158.61
X244.72Y-80.02
X244.821Y-127.36
X244.97Y-73.52
X245.171Y-158.16
X245.62Y-64.27
X245.62Y-80.07
X245.72Y-73.52
X245.72Y-88.07
X245.721Y-127.01
X245.771Y-117.963
X245.794Y-117.337
X245.821Y-116.711
X245.835Y-116.075
X245.845Y-128.56
X245.845Y-129.187
X245.845Y-129.813
X245.845Y-130.51
X245.921Y-126.41
X245.921Y-135.41
X245.921Y-136.06
X245.971Y-144.11
X246.021Y-119.81
X246.021Y-120.46
X246.021Y-121.16
X246.021Y-121.81
X246.021Y-125.76
X246.021Y-134.76
X246.021Y-151.21
X246.071Y-110.81
X246.071Y-111.46
X246.071Y-112.16
X246.071Y-112.81
X246.071Y-137.81
X246.071Y-138.46
X246.071Y-139.16
X246.071Y-143.46
X246.121Y-139.81
X246.121Y-158.46
X246.22Y-66.77
X246.221Y-155.31
X246.348Y-125.11
X246.348Y-134.11
X246.398Y-142.81
X246.52Y-73.52
X246.52Y-74.62
X246.728Y-157.42
X246.82Y-83.47
X246.97Y-75.47
X246.97Y-76.37
X246.97Y-77.22
X247.071Y-150.36
X247.12Y-84.52
X247.251Y-65.339
X247.82Y-152.85
X247.821Y-158.51
X247.858Y-155.01
X247.921Y-156.31
X248.123Y-157.843
X248.221Y-133.56
X248.421Y-123.86
X248.871Y-151.51
X248.971Y-141.86
X249.021Y-150.81
X249.321Y-119.86
X249.321Y-141.06
X249.324Y-178.098
X249.37Y-178.82
X249.37Y-179.72
X249.371Y-110.86
X249.421Y-137.16
X249.421Y-138.46
X249.471Y-123.76
X249.511Y-151.793
X249.87Y-115.71
X249.97Y-73.02
X249.97Y-73.67
X249.97Y-74.32
X249.97Y-74.92
X249.97Y-75.52
X249.97Y-76.12
X250.07Y-63.67
X250.22Y-81.62
X250.271Y-150.61
X250.521Y-134.26
X250.621Y-147.01
X250.67Y-187.695
X250.971Y-124.51
X250.971Y-125.11
X250.971Y-125.71
X250.971Y-126.31
X250.971Y-126.91
X251.37Y-189.33
X251.471Y-115.66
X251.571Y-122.46
X251.571Y-127.86
X251.581Y-128.51
X251.61Y-131.221
X251.621Y-114.81
X251.621Y-116.46
X251.621Y-117.06
X251.621Y-117.66
X251.721Y-113.41
X251.721Y-119.21
X251.771Y-111.46
X251.771Y-120.46
X251.821Y-129.16
X251.821Y-129.81
X251.87Y-176.52
X251.871Y-139.11
X251.871Y-139.81
X251.97Y-191.07
X252.171Y-150.61
X252.211Y-111.96
X252.211Y-120.96
X252.321Y-130.21
X252.651Y-112.46
X252.651Y-121.51
X252.771Y-146.91
X252.97Y-181.87
X253.17Y-180.42
X253.371Y-146.91
X253.72Y-177.72
X253.784Y-64.67
X253.784Y-65.47
X253.87Y-60.82
X253.87Y-178.52
X253.871Y-118.66
X253.871Y-119.26
X253.871Y-119.86
X253.97Y-82.82
X253.971Y-137.41
X254.17Y-185.37
X254.371Y-147.36
X254.371Y-148.785
X254.396Y-146.385
X254.421Y-128.01
X254.421Y-128.91
X254.421Y-129.76
X254.47Y-96.92
X254.484Y-66.87
X254.571Y-135.31
X254.87Y-60.82
X254.87Y-82.82
X254.871Y-118.66
X254.871Y-119.26
X254.871Y-119.91
X254.97Y-186.27
X255.07Y-195.82
X255.52Y-182.77
X255.521Y-128.26
X255.521Y-128.91
X255.521Y-129.71
X255.605Y-186.265
X255.688Y-186.887
X255.706Y-136.11
X255.72Y-97.57
X255.721Y-116.11
X255.721Y-116.91
X255.87Y-60.82
X255.87Y-82.82
X256.161Y-136.66
X256.27Y-187.12
X256.37Y-97.57
X256.42Y-81.62
X256.471Y-125.81
X256.471Y-126.56
X256.52Y-95.62
X256.67Y-182.92
X256.77Y-82.82
X256.87Y-60.82
X256.99Y-186.32
X257.02Y-81.62
X257.02Y-97.57
X257.07Y-95.62
X257.07Y-177.72
X257.12Y-179.47
X257.221Y-140.41
X257.221Y-141.01
X257.221Y-141.61
X257.221Y-142.21
X257.221Y-142.81
X257.221Y-143.41
X257.571Y-121.56
X257.615Y-186.368
X257.62Y-95.62
X257.67Y-97.57
X257.67Y-182.92
X257.77Y-60.82
X257.77Y-82.82
X257.77Y-177.72
X257.823Y-179.471
X258.021Y-122.11
X258.243Y-186.32
X258.32Y-97.57
X258.37Y-184.62
X258.445Y-179.545
X258.57Y-182.92
X258.67Y-177.67
X258.671Y-122.11
X258.77Y-195.82
X258.77Y-197.42
X258.828Y-121.503
X258.87Y-186.32
X258.97Y-96.87
X259.57Y-179.42
X259.872Y-184.62
X259.97Y-183.993
X260.021Y-133.76
X260.021Y-134.51
X260.021Y-135.36
X260.071Y-119.36
X260.621Y-133.06
X260.771Y-135.86
X260.971Y-119.36
X261.021Y-144.41
X261.284Y-63.57
X261.421Y-133.06
X261.67Y-180.98
X261.671Y-144.41
X261.721Y-135.86
X261.77Y-178.52
X261.921Y-119.36
X262.021Y-129.11
X262.021Y-129.96
X262.021Y-130.86
X262.221Y-141.487
X262.37Y-180.971
X262.52Y-82.07
X262.82Y-175.22
X262.82Y-176.12
X262.82Y-177.02
X262.82Y-185.32
X262.871Y-141.487
X262.92Y-82.47
X263.07Y-184.26
X263.27Y-184.87
X263.32Y-82.87
X263.521Y-142.26
X263.521Y-142.91
X263.521Y-143.56
X263.57Y-183.22
X263.72Y-83.27
X264.27Y-183.32
X264.371Y-146.81
X264.638Y-182.444
X265.021Y-146.81
X265.259Y-182.526
X265.671Y-146.81
X265.92Y-180.12
X265.97Y-185.52
X266.321Y-146.81
X266.37Y-174.22
X266.77Y-189.02
X266.87Y-183.12
X267.17Y-176.32
X267.621Y-145.61
X267.721Y-146.46
X268.02Y-179.346
X268.27Y-177.32
X268.321Y-145.61
X268.321Y-146.46
X268.47Y-174.32
X268.77Y-179.346
X268.92Y-177.32
X268.921Y-146.46
X268.97Y-176.62
X269.021Y-145.61
X269.17Y-189.02
X269.27Y-181.92
X269.27Y-182.82
X269.57Y-171.02
X269.57Y-177.32
X269.57Y-179.346
X270.42Y-171.97
X270.42Y-179.296
X270.57Y-186.22
X270.82Y-181.37
X271.195Y-179.296
X271.67Y-185.62
X271.97Y-179.32
X272.37Y-175.37
X272.37Y-176.12
X272.72Y-179.27
X273.22Y-175.17
X273.22Y-176.02
X273.22Y-176.806
X273.22Y-177.67
X273.461Y-179.233
X273.57Y-182.52
X273.87Y-173.07
X273.97Y-169.37
X274.37Y-182.72
X274.47Y-186.72
X274.47Y-187.82
X274.551Y-83.27
X274.67Y-183.72
X274.951Y-82.87
X275.22Y-182.67
X275.351Y-82.47
X275.751Y-82.07
X276.189Y-182.595
X276.27Y-190.72
X276.37Y-186.12
X276.987Y-63.57
X277.12Y-177.47
X277.701Y-145.61
X277.801Y-146.46
X277.832Y-190.62
X278.27Y-178.754
X278.401Y-145.61
X278.401Y-146.46
X278.62Y-175.37
X278.621Y-187.47
X278.957Y-190.62
X279.001Y-146.46
X279.101Y-145.61
X279.22Y-177.27
X279.301Y-96.87
X279.47Y-183.82
X279.87Y-180.02
X279.951Y-97.57
X280.07Y-177.92
X280.07Y-178.62
X280.07Y-179.247
X280.401Y-146.81
X280.501Y-60.82
X280.501Y-82.82
X280.57Y-190.72
X280.601Y-97.57
X280.651Y-95.62
X281.051Y-146.81
X281.07Y-186.22
X281.156Y-187.927
X281.201Y-95.62
X281.251Y-81.62
X281.251Y-97.57
X281.401Y-60.82
X281.501Y-82.82
X281.701Y-146.81
X281.751Y-95.62
X281.851Y-81.62
X281.901Y-97.57
X282.351Y-146.81
X282.401Y-60.82
X282.401Y-82.82
X282.551Y-97.57
X283.201Y-142.26
X283.201Y-142.91
X283.201Y-143.56
X283.401Y-60.82
X283.401Y-82.82
X283.787Y-66.87
X283.801Y-96.92
X283.851Y-141.487
X284.301Y-82.82
X284.401Y-60.82
X284.487Y-64.67
X284.487Y-65.47
X284.501Y-141.487
X284.701Y-129.11
X284.701Y-129.96
X284.701Y-130.86
X284.801Y-119.36
X285.001Y-135.86
X285.051Y-144.41
X285.301Y-133.06
X285.701Y-144.41
X285.751Y-119.36
X285.951Y-135.86
X286.101Y-133.06
X286.651Y-119.36
X286.701Y-133.76
X286.701Y-134.51
X286.701Y-135.36
X287.895Y-121.503
X288.051Y-81.62
X288.051Y-122.11
X288.201Y-63.67
X288.301Y-73.02
X288.301Y-73.67
X288.301Y-74.32
X288.301Y-74.92
X288.301Y-75.52
X288.301Y-76.12
X288.701Y-122.11
X289.151Y-121.56
X289.501Y-140.41
X289.501Y-141.01
X289.501Y-141.61
X289.501Y-142.21
X289.501Y-142.81
X289.501Y-143.41
X290.251Y-125.81
X290.251Y-126.56
X290.561Y-136.66
X291.001Y-116.11
X291.001Y-116.91
X291.017Y-136.11
X291.02Y-65.339
X291.151Y-84.52
X291.201Y-128.26
X291.201Y-128.91
X291.201Y-129.71
X291.301Y-75.47
X291.301Y-76.37
X291.301Y-77.22
X291.451Y-83.47
X291.751Y-73.52
X291.751Y-74.62
X291.851Y-118.66
X291.851Y-119.26
X291.851Y-119.91
X292.051Y-66.77
X292.151Y-135.31
X292.301Y-128.01
X292.301Y-128.91
X292.301Y-129.76
X292.326Y-146.385
X292.351Y-147.36
X292.351Y-148.785
X292.551Y-73.52
X292.551Y-88.07
X292.651Y-64.27
X292.651Y-80.07
X292.751Y-137.41
X292.851Y-118.66
X292.851Y-119.26
X292.851Y-119.86
X293.301Y-73.52
X293.351Y-146.91
X293.551Y-80.02
X293.901Y-65.17
X293.951Y-146.91
X294.051Y-73.52
X294.071Y-112.46
X294.071Y-121.51
X294.351Y-84.97
X294.401Y-130.21
X294.511Y-111.96
X294.511Y-120.96
X294.551Y-62.32
X294.551Y-150.61
X294.851Y-82.12
X294.851Y-139.11
X294.851Y-139.81
X294.901Y-129.16
X294.901Y-129.81
X294.951Y-111.46
X294.951Y-120.46
X294.995Y-84.973
X295.001Y-113.41
X295.001Y-119.21
X295.101Y-114.81
X295.101Y-116.46
X295.101Y-117.06
X295.101Y-117.66
X295.112Y-131.221
X295.141Y-128.51
X295.151Y-84.32
X295.151Y-122.46
X295.151Y-127.86
X295.251Y-115.66
X295.451Y-65.32
X295.751Y-124.51
X295.751Y-125.11
X295.751Y-125.71
X295.751Y-126.31
X295.751Y-126.91
X296.051Y-56.17
X296.051Y-87.27
X296.101Y-147.01
X296.201Y-134.26
X296.451Y-150.61
X296.601Y-83.27
X296.853Y-115.71
X297.151Y-80.72
X297.201Y-81.52
X297.212Y-151.793
X297.251Y-123.76
X297.301Y-137.16
X297.301Y-138.46
X297.351Y-110.86
X297.401Y-119.86
X297.401Y-141.06
X297.701Y-150.81
X297.751Y-141.86
X297.851Y-151.51
X298.301Y-123.86
X298.501Y-133.56
X298.6Y-157.843
X298.801Y-156.31
X298.864Y-155.01
X298.901Y-158.51
X298.903Y-152.85
X299.251Y-72.67
X299.351Y-60.02
X299.446Y-56.165
X299.651Y-150.36
X299.995Y-157.42
X300.001Y-61.32
X300.325Y-142.81
X300.375Y-125.11
X300.375Y-134.11
X300.501Y-68.47
X300.501Y-155.31
X300.551Y-72.22
X300.601Y-139.81
X300.601Y-158.46
X300.651Y-110.81
X300.651Y-111.46
X300.651Y-112.16
X300.651Y-112.81
X300.651Y-137.81
X300.651Y-138.46
X300.651Y-139.16
X300.651Y-143.46
X300.701Y-119.81
X300.701Y-120.46
X300.701Y-121.16
X300.701Y-121.81
X300.701Y-125.76
X300.701Y-134.76
X300.701Y-151.21
X300.751Y-144.11
X300.801Y-126.41
X300.801Y-135.41
X300.801Y-136.06
X300.878Y-128.56
X300.878Y-129.187
X300.878Y-129.813
X300.878Y-130.51
X300.887Y-116.075
X300.901Y-116.711
X300.928Y-117.337
X300.951Y-117.963
X301.001Y-127.01
X301.551Y-158.16
X301.901Y-127.36
X302.101Y-149.36
X302.101Y-158.61
X302.151Y-79.42
X302.201Y-82.57
X302.201Y-83.197
X302.25Y-84.088
X302.268Y-84.714
X302.301Y-154.76
X302.541Y-158.06
X302.601Y-151.21
X302.719Y-156.438
X303.001Y-149.56
X303.051Y-116.21
X303.051Y-117.21
X303.051Y-119.66
X303.051Y-120.71
X303.051Y-125.01
X303.051Y-126.16
X303.051Y-128.61
X303.051Y-129.81
X303.051Y-134.16
X303.051Y-135.16
X303.051Y-142.81
X303.051Y-144.01
X303.051Y-154.76
X303.089Y-137.748
X303.101Y-111.61
X303.101Y-138.71
X303.151Y-110.66
X303.301Y-151.186
X303.501Y-158.06
X303.551Y-113.41
X303.551Y-113.96
X303.551Y-114.51
X303.551Y-122.41
X303.551Y-122.96
X303.551Y-123.51
X303.551Y-131.41
X303.551Y-131.96
X303.551Y-132.51
X303.551Y-140.26
X303.551Y-140.81
X303.551Y-141.36
X303.661Y-149.26
X303.751Y-154.76
X303.851Y-71.07
X304.101Y-71.92
X304.101Y-82.92
X304.119Y-83.617
X304.251Y-84.82
X304.251Y-85.42
X304.401Y-154.76
X304.501Y-118.71
X304.514Y-115.247
X304.514Y-133.172
X304.514Y-141.998
X304.551Y-136.61
X304.75Y-156.483
X305.251Y-110.11
X305.251Y-127.81
X305.451Y-78.77
X305.601Y-155.71
X305.651Y-87.37
X305.728Y-154.113
X306.051Y-69.07
X306.101Y-157.26
X306.201Y-62.57
X306.201Y-64.77
X306.351Y-78.32
X306.701Y-150.61
X306.851Y-149.21
X307.151Y-78.57
X307.251Y-152.81
X307.451Y-87.57
X307.501Y-68.62
X307.601Y-148.21
X307.701Y-157.11
X307.751Y-81.52
X307.751Y-82.62
X307.751Y-83.72
X307.851Y-154.06
X308.036Y-78.469
X308.115Y-148.646
X308.401Y-62.57
X308.401Y-64.77
X308.701Y-84.62
X308.701Y-152.31
X308.901Y-87.37
X309.301Y-84.32
X309.301Y-157.86
X309.501Y-150.959
X309.551Y-67.37
X309.751Y-78.37
X309.812Y-87.381
X309.951Y-88.97
X310.101Y-79.27
X310.101Y-79.87
X310.151Y-148.66
X310.211Y-150.96
X310.701Y-148.66
X310.751Y-64.67
X310.751Y-65.97
X310.951Y-81.02
X310.951Y-82.57
X310.951Y-83.27
X311.104Y-84.625
X311.111Y-83.983
X311.301Y-148.66
X311.351Y-150.96
X311.901Y-148.66
X312.051Y-64.67
X312.051Y-65.97
X312.051Y-87.97
X312.051Y-150.96
X312.301Y-86.42
X312.451Y-56.17
X312.451Y-57.47
X312.551Y-146.46
X312.751Y-147.71
X312.851Y-155.71
X313.051Y-57.47
X313.056Y-56.165
X313.151Y-77.82
X313.151Y-84.07
X313.351Y-61.22
X313.351Y-62.97
X313.351Y-63.52
X313.751Y-154.71
X314.251Y-150.01
X316.201Y-146.874
X316.501Y-62.32
X316.701Y-65.02
X316.701Y-65.647
X316.751Y-63.97
X317.301Y-156.51
X318.151Y-76.97
X318.901Y-146.21
X318.901Y-147.16
X318.901Y-147.86
T3
X145.816Y-119.145
X145.816Y-121.645
X157.249Y-112.462
X159.749Y-112.462
X163.066Y-137.463
X163.084Y-144.213
X165.566Y-137.463
X165.584Y-144.213
X175.67Y-71.648
X175.67Y-74.148
X175.959Y-144.213
X175.976Y-137.463
X178.459Y-144.213
X178.476Y-137.463
X181.794Y-112.462
X184.294Y-112.462
X195.726Y-119.145
X195.726Y-121.645
X223.552Y-90.62
X226.052Y-90.62
X231.352Y-90.62
X233.852Y-90.62
X239.252Y-90.62
X241.752Y-90.62
X247.152Y-90.62
X249.652Y-90.62
X261.371Y-134.41
X263.871Y-134.41
X267.071Y-117.428
X267.071Y-119.928
X267.121Y-128.128
X267.121Y-130.628
X279.601Y-128.128
X279.601Y-130.628
X279.651Y-117.428
X279.651Y-119.928
X282.851Y-134.41
X285.351Y-134.41
X288.619Y-90.62
X291.119Y-90.62
X296.519Y-90.62
X299.019Y-90.62
X304.419Y-90.62
X306.919Y-90.62
X312.219Y-90.62
X314.719Y-90.62
T4
X215.771Y-190.72
X218.311Y-190.72
X267.97Y-190.72
X270.51Y-190.72
T5
X129.466Y-117.762
X129.466Y-120.262
X129.466Y-122.762
X129.466Y-125.262
X129.466Y-130.662
X129.466Y-133.162
X129.466Y-135.662
X139.001Y-195.7
X141.501Y-195.7
X144.001Y-195.7
X146.501Y-195.7
X175.961Y-195.7
X178.461Y-195.7
X180.961Y-195.7
X183.461Y-195.7
X212.076Y-117.762
X212.076Y-120.262
X212.076Y-122.762
X212.076Y-125.262
X212.076Y-130.662
X212.076Y-133.162
X212.076Y-135.662
X222.221Y-118.26
X222.221Y-120.76
X222.221Y-123.26
X222.221Y-129.01
X222.221Y-131.51
X222.221Y-134.01
X229.221Y-111.41
X229.221Y-115.91
X229.221Y-120.41
X229.221Y-124.91
X229.221Y-129.41
X229.221Y-133.91
X229.221Y-138.41
X229.221Y-142.91
X231.721Y-111.41
X231.721Y-115.91
X231.721Y-120.41
X231.721Y-124.91
X231.721Y-129.41
X231.721Y-133.91
X231.721Y-138.41
X231.721Y-142.91
X234.221Y-111.41
X234.221Y-115.91
X234.221Y-120.41
X234.221Y-124.91
X234.221Y-129.41
X234.221Y-133.91
X234.221Y-138.41
X234.221Y-142.91
X236.721Y-111.41
X236.721Y-115.91
X236.721Y-120.41
X236.721Y-124.91
X236.721Y-129.41
X236.721Y-133.91
X236.721Y-138.41
X236.721Y-142.91
X237.411Y-187.27
X237.411Y-189.77
X237.411Y-192.27
X237.411Y-194.77
X239.221Y-111.41
X239.221Y-115.91
X239.221Y-120.41
X239.221Y-124.91
X239.221Y-129.41
X239.221Y-133.91
X239.221Y-138.41
X239.221Y-142.91
X248.87Y-187.27
X248.87Y-189.77
X248.87Y-192.27
X248.87Y-194.77
X307.501Y-111.41
X307.501Y-115.91
X307.501Y-120.41
X307.501Y-124.91
X307.501Y-129.41
X307.501Y-133.91
X307.501Y-138.41
X307.501Y-142.91
X310.001Y-111.41
X310.001Y-115.91
X310.001Y-120.41
X310.001Y-124.91
X310.001Y-129.41
X310.001Y-133.91
X310.001Y-138.41
X310.001Y-142.91
X312.501Y-111.41
X312.501Y-115.91
X312.501Y-120.41
X312.501Y-124.91
X312.501Y-129.41
X312.501Y-133.91
X312.501Y-138.41
X312.501Y-142.91
X315.001Y-111.41
X315.001Y-115.91
X315.001Y-120.41
X315.001Y-124.91
X315.001Y-129.41
X315.001Y-133.91
X315.001Y-138.41
X315.001Y-142.91
X317.501Y-111.41
X317.501Y-115.91
X317.501Y-120.41
X317.501Y-124.91
X317.501Y-129.41
X317.501Y-133.91
X317.501Y-138.41
X317.501Y-142.91
X324.501Y-118.26
X324.501Y-120.76
X324.501Y-123.26
X324.501Y-129.01
X324.501Y-131.51
X324.501Y-134.01
T6
X72.759Y-127.735
X72.759Y-130.275
X72.759Y-132.815
X79.476Y-161.81
X79.638Y-90.145
X79.638Y-113.985
X79.911Y-71.735
X80.191Y-64.185
X82.016Y-161.81
X82.178Y-90.145
X82.178Y-113.985
X82.451Y-71.735
X82.731Y-64.185
X82.916Y-154.157
X82.916Y-156.697
X84.934Y-128.71
X84.934Y-131.25
X85.456Y-154.157
X85.456Y-156.697
X87.996Y-154.157
X87.996Y-156.697
X89.161Y-161.76
X91.701Y-161.76
X99.061Y-203.592
X101.601Y-203.592
X102.766Y-195.99
X102.766Y-198.53
X105.306Y-195.99
X105.306Y-198.53
X105.548Y-93.57
X105.548Y-110.56
X105.821Y-75.16
X106.101Y-60.76
X107.846Y-195.99
X107.846Y-198.53
X108.088Y-93.57
X108.088Y-110.56
X108.361Y-75.16
X108.641Y-60.76
X108.746Y-203.642
X108.754Y-128.71
X108.754Y-131.25
X110.628Y-93.57
X110.628Y-110.56
X110.901Y-75.16
X111.181Y-60.76
X111.286Y-203.642
X120.929Y-127.735
X120.929Y-130.275
X120.929Y-132.815
X129.066Y-139.787
X131.606Y-139.787
X136.051Y-169.66
X136.051Y-172.2
X136.616Y-110.812
X136.616Y-115.162
X136.616Y-119.512
X136.616Y-123.862
X136.616Y-128.213
X139.116Y-110.812
X139.116Y-115.162
X139.116Y-119.512
X139.116Y-123.862
X139.116Y-128.213
X144.566Y-138.607
X144.566Y-141.147
X144.566Y-143.688
X147.895Y-66.358
X147.895Y-68.898
X148.751Y-185.245
X148.751Y-187.785
X148.751Y-190.325
X150.051Y-170.65
X150.051Y-173.15
X153.251Y-189.6
X153.301Y-181.0
X153.301Y-185.3
X153.745Y-91.548
X155.751Y-189.6
X155.801Y-181.0
X155.801Y-185.3
X156.285Y-91.548
X158.825Y-91.548
X166.661Y-181.0
X166.661Y-185.3
X166.711Y-189.6
X169.161Y-181.0
X169.161Y-185.3
X169.211Y-189.6
X172.411Y-170.65
X172.411Y-173.15
X173.711Y-185.245
X173.711Y-187.785
X173.711Y-190.325
X184.67Y-79.898
X184.67Y-82.398
X184.67Y-87.898
X184.67Y-90.398
X186.411Y-169.66
X186.411Y-172.2
X196.976Y-138.607
X196.976Y-141.147
X196.976Y-143.688
X202.426Y-110.812
X202.426Y-115.162
X202.426Y-119.512
X202.426Y-123.862
X202.426Y-128.213
X204.926Y-110.812
X204.926Y-115.162
X204.926Y-119.512
X204.926Y-123.862
X204.926Y-128.213
X206.111Y-192.27
X206.111Y-194.77
X209.936Y-139.787
X212.476Y-139.787
X221.961Y-187.045
X222.221Y-139.61
X222.221Y-142.11
X222.221Y-147.76
X222.221Y-150.26
X224.501Y-187.045
X226.63Y-76.245
X226.771Y-175.92
X228.661Y-201.62
X228.761Y-189.12
X228.761Y-193.42
X229.17Y-76.245
X229.311Y-175.92
X231.161Y-201.62
X231.261Y-189.12
X231.261Y-193.42
X231.851Y-175.92
X232.43Y-76.245
X234.97Y-76.245
X237.92Y-85.895
X239.27Y-78.015
X239.27Y-80.555
X239.27Y-83.095
X240.46Y-85.895
X242.816Y-147.71
X245.356Y-147.71
X247.896Y-147.71
X248.22Y-56.395
X250.596Y-155.22
X250.596Y-157.76
X250.76Y-56.395
X253.3Y-56.395
X254.43Y-175.92
X255.02Y-189.12
X255.02Y-193.42
X255.12Y-201.62
X255.84Y-56.395
X256.97Y-175.92
X257.52Y-189.12
X257.52Y-193.42
X257.62Y-201.62
X259.51Y-175.92
X261.78Y-187.045
X264.32Y-187.045
X280.17Y-192.27
X280.17Y-194.77
X282.431Y-56.395
X284.971Y-56.395
X287.511Y-56.395
X290.051Y-56.395
X296.126Y-155.22
X296.126Y-157.76
X297.811Y-85.895
X298.826Y-147.71
X299.001Y-78.015
X299.001Y-80.555
X299.001Y-83.095
X300.351Y-85.895
X301.366Y-147.71
X303.301Y-76.245
X303.906Y-147.71
X305.841Y-76.245
X309.101Y-76.245
X311.641Y-76.245
X324.501Y-139.61
X324.501Y-142.11
X324.501Y-147.76
X324.501Y-150.26
T7
X72.859Y-123.18
X75.399Y-123.18
X77.939Y-123.18
X80.859Y-123.18
X81.298Y-92.88
X81.298Y-95.42
X81.298Y-97.96
X81.298Y-106.17
X81.298Y-108.71
X81.298Y-111.25
X81.571Y-74.47
X81.571Y-77.01
X81.571Y-79.55
X81.851Y-56.37
X81.851Y-58.91
X81.851Y-61.45
X83.399Y-123.18
X85.939Y-123.18
X107.749Y-123.18
X110.289Y-123.18
X112.829Y-123.18
X115.048Y-92.88
X115.048Y-95.42
X115.048Y-97.96
X115.048Y-106.17
X115.048Y-108.71
X115.048Y-111.25
X115.321Y-74.47
X115.321Y-77.01
X115.321Y-79.55
X115.601Y-56.37
X115.601Y-58.91
X115.601Y-61.45
X115.749Y-123.18
X118.289Y-123.18
X120.829Y-123.18
X131.471Y-175.36
X131.471Y-177.9
X131.471Y-180.44
X131.471Y-183.36
X131.471Y-185.9
X131.471Y-188.44
X136.836Y-152.522
X136.836Y-155.062
X136.836Y-157.602
X143.016Y-152.522
X143.016Y-155.062
X143.016Y-157.602
X145.316Y-110.422
X145.316Y-112.962
X145.316Y-115.502
X151.716Y-110.422
X151.716Y-112.962
X151.716Y-115.502
X152.586Y-152.472
X152.586Y-155.012
X152.586Y-157.552
X158.786Y-152.472
X158.786Y-155.012
X158.786Y-157.552
X163.23Y-64.668
X164.796Y-116.442
X164.796Y-118.983
X165.77Y-64.668
X168.31Y-64.668
X171.07Y-64.668
X173.61Y-64.668
X176.15Y-64.668
X176.746Y-116.442
X176.746Y-118.983
X182.756Y-152.472
X182.756Y-155.012
X182.756Y-157.552
X188.956Y-152.472
X188.956Y-155.012
X188.956Y-157.552
X189.826Y-110.422
X189.826Y-112.962
X189.826Y-115.502
X190.991Y-175.36
X190.991Y-177.9
X190.991Y-180.44
X190.991Y-183.36
X190.991Y-185.9
X190.991Y-188.44
X196.226Y-110.422
X196.226Y-112.962
X196.226Y-115.502
X198.526Y-152.522
X198.526Y-155.062
X198.526Y-157.602
X204.706Y-152.522
X204.706Y-155.062
X204.706Y-157.602
X219.171Y-171.5
X221.711Y-171.5
X223.63Y-97.14
X224.251Y-171.5
X226.17Y-97.14
X227.371Y-171.5
X228.71Y-97.14
X229.911Y-171.5
X231.43Y-97.14
X232.451Y-171.5
X233.97Y-97.14
X236.51Y-97.14
X239.27Y-97.12
X241.81Y-97.12
X244.35Y-97.12
X247.07Y-97.12
X249.61Y-97.12
X252.15Y-97.12
X253.83Y-171.5
X255.001Y-152.87
X255.001Y-155.41
X255.001Y-157.95
X256.37Y-171.5
X258.91Y-171.5
X260.601Y-124.14
X260.651Y-112.59
X261.201Y-152.87
X261.201Y-155.41
X261.201Y-157.95
X262.03Y-171.5
X263.141Y-124.14
X263.191Y-112.59
X264.57Y-171.5
X267.11Y-171.5
X283.531Y-112.59
X283.581Y-124.14
X285.521Y-152.87
X285.521Y-155.41
X285.521Y-157.95
X286.071Y-112.59
X286.121Y-97.12
X286.121Y-124.14
X288.661Y-97.12
X291.201Y-97.12
X291.721Y-152.87
X291.721Y-155.41
X291.721Y-157.95
X293.921Y-97.12
X296.461Y-97.12
X299.001Y-97.12
X301.761Y-97.14
X304.301Y-97.14
X306.841Y-97.14
X309.561Y-97.14
X312.101Y-97.14
X314.641Y-97.14
T8
X257.43Y-88.897
X262.51Y-88.897
X275.761Y-88.897
X280.841Y-88.897
T9
X80.611Y-222.292
X83.611Y-217.592
X86.611Y-222.292
X104.151Y-180.46
X107.151Y-175.76
X110.151Y-180.46
T10
X213.231Y-195.8
X223.391Y-195.8
X262.89Y-195.8
X273.05Y-195.8
T2
X90.884Y-121.185G85X91.684Y-121.185
G05
X91.684Y-128.335G85X90.884Y-128.335
G05
X102.004Y-121.185G85X102.804Y-121.185
G05
X102.804Y-128.335G85X102.004Y-128.335
G05
X104.053Y-98.47G85X104.053Y-97.67
G05
X104.053Y-106.46G85X104.053Y-105.66
G05
X104.326Y-80.06G85X104.326Y-79.26
G05
X104.606Y-56.66G85X104.606Y-55.86
G05
X111.203Y-97.67G85X111.203Y-98.47
G05
X111.203Y-105.66G85X111.203Y-106.46
G05
X111.476Y-79.26G85X111.476Y-80.06
G05
X111.756Y-55.86G85X111.756Y-56.66
G05
X128.866Y-145.012G85X129.666Y-145.012
G05
X129.666Y-152.162G85X128.866Y-152.162
G05
X138.476Y-170.2G85X138.476Y-169.4
G05
X145.626Y-169.4G85X145.626Y-170.2
G05
X148.095Y-57.248G85X148.095Y-56.448
G05
X155.245Y-56.448G85X155.245Y-57.248
G05
X176.836Y-170.2G85X176.836Y-169.4
G05
X183.986Y-169.4G85X183.986Y-170.2
G05
X211.876Y-145.012G85X212.676Y-145.012
G05
X212.676Y-152.162G85X211.876Y-152.162
G05
X217.27Y-62.07G85X218.07Y-62.07
G05
X218.07Y-69.22G85X217.27Y-69.22
G05
X217.34Y-78.825G85X218.14Y-78.825
G05
X218.14Y-85.975G85X217.34Y-85.975
G05
X227.096Y-158.36G85X227.096Y-157.56
G05
X234.246Y-157.56G85X234.246Y-158.36
G05
X238.011Y-175.845G85X238.811Y-175.845
G05
X238.811Y-182.995G85X238.011Y-182.995
G05
X247.47Y-175.845G85X248.27Y-175.845
G05
X248.27Y-182.995G85X247.47Y-182.995
G05
X312.476Y-158.36G85X312.476Y-157.56
G05
X319.626Y-157.56G85X319.626Y-158.36
G05
X320.131Y-78.825G85X320.931Y-78.825
G05
X320.931Y-85.975G85X320.131Y-85.975
G05
X320.201Y-62.07G85X321.001Y-62.07
G05
X321.001Y-69.22G85X320.201Y-69.22
G05
T0
M30
