G04 #@! TF.GenerationSoftware,KiCad,Pcbnew,(6.0.7)*
G04 #@! TF.CreationDate,2022-10-27T11:43:32+02:00*
G04 #@! TF.ProjectId,hydCircCon,68796443-6972-4634-936f-6e2e6b696361,rev?*
G04 #@! TF.SameCoordinates,Original*
G04 #@! TF.FileFunction,Paste,Bot*
G04 #@! TF.FilePolarity,Positive*
%FSLAX46Y46*%
G04 Gerber Fmt 4.6, Leading zero omitted, Abs format (unit mm)*
G04 Created by KiCad (PCBNEW (6.0.7)) date 2022-10-27 11:43:32*
%MOMM*%
%LPD*%
G01*
G04 APERTURE LIST*
G04 Aperture macros list*
%AMRoundRect*
0 Rectangle with rounded corners*
0 $1 Rounding radius*
0 $2 $3 $4 $5 $6 $7 $8 $9 X,Y pos of 4 corners*
0 Add a 4 corners polygon primitive as box body*
4,1,4,$2,$3,$4,$5,$6,$7,$8,$9,$2,$3,0*
0 Add four circle primitives for the rounded corners*
1,1,$1+$1,$2,$3*
1,1,$1+$1,$4,$5*
1,1,$1+$1,$6,$7*
1,1,$1+$1,$8,$9*
0 Add four rect primitives between the rounded corners*
20,1,$1+$1,$2,$3,$4,$5,0*
20,1,$1+$1,$4,$5,$6,$7,0*
20,1,$1+$1,$6,$7,$8,$9,0*
20,1,$1+$1,$8,$9,$2,$3,0*%
G04 Aperture macros list end*
%ADD10RoundRect,0.200000X-0.200000X-0.275000X0.200000X-0.275000X0.200000X0.275000X-0.200000X0.275000X0*%
%ADD11RoundRect,0.225000X-0.250000X0.225000X-0.250000X-0.225000X0.250000X-0.225000X0.250000X0.225000X0*%
%ADD12RoundRect,0.225000X0.250000X-0.225000X0.250000X0.225000X-0.250000X0.225000X-0.250000X-0.225000X0*%
%ADD13RoundRect,0.225000X-0.225000X-0.250000X0.225000X-0.250000X0.225000X0.250000X-0.225000X0.250000X0*%
%ADD14RoundRect,0.200000X-0.275000X0.200000X-0.275000X-0.200000X0.275000X-0.200000X0.275000X0.200000X0*%
%ADD15RoundRect,0.200000X0.275000X-0.200000X0.275000X0.200000X-0.275000X0.200000X-0.275000X-0.200000X0*%
%ADD16RoundRect,0.150000X0.150000X-0.512500X0.150000X0.512500X-0.150000X0.512500X-0.150000X-0.512500X0*%
%ADD17RoundRect,0.225000X0.225000X0.250000X-0.225000X0.250000X-0.225000X-0.250000X0.225000X-0.250000X0*%
%ADD18RoundRect,0.250000X-1.100000X0.325000X-1.100000X-0.325000X1.100000X-0.325000X1.100000X0.325000X0*%
%ADD19RoundRect,0.062500X0.337500X0.062500X-0.337500X0.062500X-0.337500X-0.062500X0.337500X-0.062500X0*%
%ADD20RoundRect,0.062500X0.287500X0.062500X-0.287500X0.062500X-0.287500X-0.062500X0.287500X-0.062500X0*%
%ADD21RoundRect,0.250000X0.650000X-0.325000X0.650000X0.325000X-0.650000X0.325000X-0.650000X-0.325000X0*%
%ADD22R,1.150000X1.000000*%
%ADD23RoundRect,0.200000X0.200000X0.275000X-0.200000X0.275000X-0.200000X-0.275000X0.200000X-0.275000X0*%
%ADD24R,0.750000X0.300000*%
%ADD25R,0.300000X1.700000*%
%ADD26RoundRect,0.250000X1.100000X-0.325000X1.100000X0.325000X-1.100000X0.325000X-1.100000X-0.325000X0*%
%ADD27RoundRect,0.218750X0.218750X0.256250X-0.218750X0.256250X-0.218750X-0.256250X0.218750X-0.256250X0*%
%ADD28RoundRect,0.200000X0.525000X-0.200000X0.525000X0.200000X-0.525000X0.200000X-0.525000X-0.200000X0*%
%ADD29RoundRect,0.075000X0.075000X-0.225000X0.075000X0.225000X-0.075000X0.225000X-0.075000X-0.225000X0*%
%ADD30RoundRect,0.075000X0.787500X-0.075000X0.787500X0.075000X-0.787500X0.075000X-0.787500X-0.075000X0*%
%ADD31R,0.800000X2.700000*%
%ADD32R,0.650000X0.750000*%
%ADD33R,0.250000X0.500000*%
%ADD34RoundRect,0.218750X-0.218750X-0.381250X0.218750X-0.381250X0.218750X0.381250X-0.218750X0.381250X0*%
%ADD35R,0.600000X0.450000*%
%ADD36RoundRect,0.150000X0.512500X0.150000X-0.512500X0.150000X-0.512500X-0.150000X0.512500X-0.150000X0*%
G04 APERTURE END LIST*
D10*
X195125000Y-107200000D03*
X196775000Y-107200000D03*
D11*
X167700000Y-93350000D03*
X167700000Y-94900000D03*
D12*
X182200000Y-122650000D03*
X182200000Y-121100000D03*
D13*
X166850000Y-101275000D03*
X168400000Y-101275000D03*
D14*
X157150000Y-95475000D03*
X157150000Y-97125000D03*
D11*
X160650000Y-102675000D03*
X160650000Y-104225000D03*
D15*
X183450000Y-122675000D03*
X183450000Y-121025000D03*
D14*
X176750000Y-93175000D03*
X176750000Y-94825000D03*
D15*
X159650000Y-91975000D03*
X159650000Y-90325000D03*
D10*
X166225000Y-100175000D03*
X167875000Y-100175000D03*
D16*
X159300000Y-105637500D03*
X158350000Y-105637500D03*
X157400000Y-105637500D03*
X157400000Y-103362500D03*
X159300000Y-103362500D03*
D17*
X190462500Y-93300000D03*
X188912500Y-93300000D03*
D15*
X163350000Y-90425000D03*
X163350000Y-88775000D03*
D17*
X179775000Y-124700000D03*
X178225000Y-124700000D03*
D18*
X168350000Y-111575000D03*
X168350000Y-114525000D03*
D15*
X178500000Y-108925000D03*
X178500000Y-107275000D03*
D19*
X175575000Y-95900000D03*
D20*
X175625000Y-96400000D03*
X175625000Y-96900000D03*
X175625000Y-97400000D03*
X173925000Y-97400000D03*
X173925000Y-96900000D03*
X173925000Y-96400000D03*
X173925000Y-95900000D03*
D17*
X164325000Y-95200000D03*
X162775000Y-95200000D03*
D12*
X158700000Y-111925000D03*
X158700000Y-110375000D03*
D11*
X161350000Y-113425000D03*
X161350000Y-114975000D03*
D17*
X165075000Y-100125000D03*
X163525000Y-100125000D03*
D21*
X167000000Y-110125000D03*
X167000000Y-107175000D03*
D13*
X158675000Y-113100000D03*
X160225000Y-113100000D03*
D11*
X161300000Y-95150000D03*
X161300000Y-96700000D03*
D17*
X175550000Y-94900000D03*
X174000000Y-94900000D03*
D22*
X164700000Y-96750000D03*
X166450000Y-96750000D03*
X166450000Y-98150000D03*
X164700000Y-98150000D03*
D23*
X160225000Y-114250000D03*
X158575000Y-114250000D03*
D14*
X157450000Y-90375000D03*
X157450000Y-92025000D03*
X177250000Y-109975000D03*
X177250000Y-111625000D03*
D10*
X195125000Y-100750000D03*
X196775000Y-100750000D03*
D11*
X159600000Y-107675000D03*
X159600000Y-109225000D03*
D24*
X161400000Y-93825000D03*
X161400000Y-93325000D03*
X161400000Y-92825000D03*
X161400000Y-92325000D03*
X164300000Y-92325000D03*
X164300000Y-92825000D03*
X164300000Y-93325000D03*
X164300000Y-93825000D03*
D25*
X162850000Y-93075000D03*
D15*
X156150000Y-105525000D03*
X156150000Y-103875000D03*
D26*
X177900000Y-123425000D03*
X177900000Y-120475000D03*
D14*
X186637500Y-91175000D03*
X186637500Y-92825000D03*
X185537500Y-91175000D03*
X185537500Y-92825000D03*
D11*
X168850000Y-93350000D03*
X168850000Y-94900000D03*
D17*
X173025000Y-91900000D03*
X171475000Y-91900000D03*
D11*
X162150000Y-98200000D03*
X162150000Y-99750000D03*
D10*
X178725000Y-100400000D03*
X180375000Y-100400000D03*
D27*
X170287500Y-91875000D03*
X168712500Y-91875000D03*
D15*
X156300000Y-92025000D03*
X156300000Y-90375000D03*
D28*
X162850000Y-111675000D03*
D29*
X161800000Y-111775000D03*
X161350000Y-111775000D03*
X160900000Y-111775000D03*
X160900000Y-110075000D03*
X161350000Y-110075000D03*
X161800000Y-110075000D03*
D28*
X162850000Y-110175000D03*
D30*
X162987500Y-110925000D03*
D26*
X174000000Y-109275000D03*
X174000000Y-106325000D03*
D31*
X161025000Y-107800000D03*
X163225000Y-107800000D03*
D32*
X180100000Y-121250000D03*
X180900000Y-121250000D03*
D33*
X181250000Y-122200000D03*
X180750000Y-122200000D03*
X180250000Y-122200000D03*
X179750000Y-122200000D03*
X179750000Y-120300000D03*
X180250000Y-120300000D03*
X180750000Y-120300000D03*
X181250000Y-120300000D03*
D15*
X191687500Y-92925000D03*
X191687500Y-91275000D03*
D12*
X167800000Y-98175000D03*
X167800000Y-96625000D03*
D11*
X165400000Y-93350000D03*
X165400000Y-94900000D03*
X163350000Y-96675000D03*
X163350000Y-98225000D03*
D15*
X176750000Y-100025000D03*
X176750000Y-98375000D03*
X162450000Y-115025000D03*
X162450000Y-113375000D03*
D34*
X165837500Y-115950000D03*
X167962500Y-115950000D03*
D17*
X159375000Y-100850000D03*
X157825000Y-100850000D03*
D10*
X184275000Y-100450000D03*
X185925000Y-100450000D03*
X157775000Y-101970000D03*
X159425000Y-101970000D03*
D23*
X175825000Y-91950000D03*
X174175000Y-91950000D03*
D21*
X165000000Y-110125000D03*
X165000000Y-107175000D03*
D10*
X180825000Y-124700000D03*
X182475000Y-124700000D03*
D11*
X176750000Y-95825000D03*
X176750000Y-97375000D03*
D35*
X156900000Y-93760000D03*
X159000000Y-93760000D03*
D15*
X158550000Y-91975000D03*
X158550000Y-90325000D03*
D10*
X174175000Y-90850000D03*
X175825000Y-90850000D03*
D12*
X179750000Y-108875000D03*
X179750000Y-107325000D03*
D11*
X169950000Y-93350000D03*
X169950000Y-94900000D03*
X176100000Y-110025000D03*
X176100000Y-111575000D03*
X166550000Y-93350000D03*
X166550000Y-94900000D03*
D23*
X173025000Y-90750000D03*
X171375000Y-90750000D03*
D12*
X168950000Y-98400000D03*
X168950000Y-96850000D03*
D15*
X159850000Y-111975000D03*
X159850000Y-110325000D03*
D10*
X157025000Y-99000000D03*
X158675000Y-99000000D03*
D32*
X177150000Y-107270000D03*
X176350000Y-107270000D03*
D33*
X177500000Y-108220000D03*
X177000000Y-108220000D03*
X176500000Y-108220000D03*
X176000000Y-108220000D03*
X176000000Y-106320000D03*
X176500000Y-106320000D03*
X177000000Y-106320000D03*
X177500000Y-106320000D03*
D36*
X190337500Y-90250000D03*
X190337500Y-91200000D03*
X190337500Y-92150000D03*
X188062500Y-92150000D03*
X188062500Y-90250000D03*
D18*
X165400000Y-111575000D03*
X165400000Y-114525000D03*
D10*
X188275000Y-100450000D03*
X189925000Y-100450000D03*
M02*
