%TF.GenerationSoftware,KiCad,Pcbnew,(6.0.7)*%
%TF.CreationDate,2022-10-27T11:43:51+02:00*%
%TF.ProjectId,hydCircCon,68796443-6972-4634-936f-6e2e6b696361,rev?*%
%TF.SameCoordinates,Original*%
%TF.FileFunction,Drillmap*%
%TF.FilePolarity,Positive*%
%FSLAX45Y45*%
G04 Gerber Fmt 4.5, Leading zero omitted, Abs format (unit mm)*
G04 Created by KiCad (PCBNEW (6.0.7)) date 2022-10-27 11:43:51*
%MOMM*%
%LPD*%
G01*
G04 APERTURE LIST*
%ADD10C,0.100000*%
%ADD11C,0.200000*%
%ADD12C,0.320000*%
G04 APERTURE END LIST*
D10*
X14825000Y-8950000D02*
X14825000Y-12350000D01*
X19525000Y-8650000D02*
X15125000Y-8650000D01*
X19825000Y-8950000D02*
X19825000Y-12350000D01*
X14825000Y-12350000D02*
G75*
G03*
X15125000Y-12650000I300000J0D01*
G01*
X19525000Y-12650000D02*
G75*
G03*
X19825000Y-12350000I0J300000D01*
G01*
X15125000Y-8650000D02*
G75*
G03*
X14825000Y-8950000I0J-300000D01*
G01*
X19825000Y-8950000D02*
G75*
G03*
X19525000Y-8650000I-300000J0D01*
G01*
X19525000Y-12650000D02*
X15125000Y-12650000D01*
D11*
D12*
X14965000Y-8790000D02*
X15285000Y-9110000D01*
X15285000Y-8790000D02*
X14965000Y-9110000D01*
X14965000Y-12190000D02*
X15285000Y-12510000D01*
X15285000Y-12190000D02*
X14965000Y-12510000D01*
X19365000Y-8790000D02*
X19685000Y-9110000D01*
X19685000Y-8790000D02*
X19365000Y-9110000D01*
X19365000Y-12190000D02*
X19685000Y-12510000D01*
X19685000Y-12190000D02*
X19365000Y-12510000D01*
D11*
X15077619Y-12965476D02*
X15077619Y-12765476D01*
X15125238Y-12765476D01*
X15153809Y-12775000D01*
X15172857Y-12794048D01*
X15182381Y-12813095D01*
X15191905Y-12851190D01*
X15191905Y-12879762D01*
X15182381Y-12917857D01*
X15172857Y-12936905D01*
X15153809Y-12955952D01*
X15125238Y-12965476D01*
X15077619Y-12965476D01*
X15277619Y-12965476D02*
X15277619Y-12832143D01*
X15277619Y-12870238D02*
X15287143Y-12851190D01*
X15296667Y-12841667D01*
X15315714Y-12832143D01*
X15334762Y-12832143D01*
X15401428Y-12965476D02*
X15401428Y-12832143D01*
X15401428Y-12765476D02*
X15391905Y-12775000D01*
X15401428Y-12784524D01*
X15410952Y-12775000D01*
X15401428Y-12765476D01*
X15401428Y-12784524D01*
X15525238Y-12965476D02*
X15506190Y-12955952D01*
X15496667Y-12936905D01*
X15496667Y-12765476D01*
X15630000Y-12965476D02*
X15610952Y-12955952D01*
X15601428Y-12936905D01*
X15601428Y-12765476D01*
X15858571Y-12965476D02*
X15858571Y-12765476D01*
X15925238Y-12908333D01*
X15991905Y-12765476D01*
X15991905Y-12965476D01*
X16172857Y-12965476D02*
X16172857Y-12860714D01*
X16163333Y-12841667D01*
X16144286Y-12832143D01*
X16106190Y-12832143D01*
X16087143Y-12841667D01*
X16172857Y-12955952D02*
X16153809Y-12965476D01*
X16106190Y-12965476D01*
X16087143Y-12955952D01*
X16077619Y-12936905D01*
X16077619Y-12917857D01*
X16087143Y-12898809D01*
X16106190Y-12889286D01*
X16153809Y-12889286D01*
X16172857Y-12879762D01*
X16268095Y-12832143D02*
X16268095Y-13032143D01*
X16268095Y-12841667D02*
X16287143Y-12832143D01*
X16325238Y-12832143D01*
X16344286Y-12841667D01*
X16353809Y-12851190D01*
X16363333Y-12870238D01*
X16363333Y-12927381D01*
X16353809Y-12946428D01*
X16344286Y-12955952D01*
X16325238Y-12965476D01*
X16287143Y-12965476D01*
X16268095Y-12955952D01*
X16449048Y-12946428D02*
X16458571Y-12955952D01*
X16449048Y-12965476D01*
X16439524Y-12955952D01*
X16449048Y-12946428D01*
X16449048Y-12965476D01*
X16449048Y-12841667D02*
X16458571Y-12851190D01*
X16449048Y-12860714D01*
X16439524Y-12851190D01*
X16449048Y-12841667D01*
X16449048Y-12860714D01*
X14620000Y-13195000D02*
X14820000Y-13395000D01*
X14820000Y-13195000D02*
X14620000Y-13395000D01*
X15058571Y-13185476D02*
X15182381Y-13185476D01*
X15115714Y-13261667D01*
X15144286Y-13261667D01*
X15163333Y-13271190D01*
X15172857Y-13280714D01*
X15182381Y-13299762D01*
X15182381Y-13347381D01*
X15172857Y-13366428D01*
X15163333Y-13375952D01*
X15144286Y-13385476D01*
X15087143Y-13385476D01*
X15068095Y-13375952D01*
X15058571Y-13366428D01*
X15268095Y-13366428D02*
X15277619Y-13375952D01*
X15268095Y-13385476D01*
X15258571Y-13375952D01*
X15268095Y-13366428D01*
X15268095Y-13385476D01*
X15353809Y-13204524D02*
X15363333Y-13195000D01*
X15382381Y-13185476D01*
X15430000Y-13185476D01*
X15449048Y-13195000D01*
X15458571Y-13204524D01*
X15468095Y-13223571D01*
X15468095Y-13242619D01*
X15458571Y-13271190D01*
X15344286Y-13385476D01*
X15468095Y-13385476D01*
X15591905Y-13185476D02*
X15610952Y-13185476D01*
X15630000Y-13195000D01*
X15639524Y-13204524D01*
X15649048Y-13223571D01*
X15658571Y-13261667D01*
X15658571Y-13309286D01*
X15649048Y-13347381D01*
X15639524Y-13366428D01*
X15630000Y-13375952D01*
X15610952Y-13385476D01*
X15591905Y-13385476D01*
X15572857Y-13375952D01*
X15563333Y-13366428D01*
X15553809Y-13347381D01*
X15544286Y-13309286D01*
X15544286Y-13261667D01*
X15553809Y-13223571D01*
X15563333Y-13204524D01*
X15572857Y-13195000D01*
X15591905Y-13185476D01*
X15782381Y-13185476D02*
X15801428Y-13185476D01*
X15820476Y-13195000D01*
X15830000Y-13204524D01*
X15839524Y-13223571D01*
X15849048Y-13261667D01*
X15849048Y-13309286D01*
X15839524Y-13347381D01*
X15830000Y-13366428D01*
X15820476Y-13375952D01*
X15801428Y-13385476D01*
X15782381Y-13385476D01*
X15763333Y-13375952D01*
X15753809Y-13366428D01*
X15744286Y-13347381D01*
X15734762Y-13309286D01*
X15734762Y-13261667D01*
X15744286Y-13223571D01*
X15753809Y-13204524D01*
X15763333Y-13195000D01*
X15782381Y-13185476D01*
X15934762Y-13385476D02*
X15934762Y-13252143D01*
X15934762Y-13271190D02*
X15944286Y-13261667D01*
X15963333Y-13252143D01*
X15991905Y-13252143D01*
X16010952Y-13261667D01*
X16020476Y-13280714D01*
X16020476Y-13385476D01*
X16020476Y-13280714D02*
X16030000Y-13261667D01*
X16049048Y-13252143D01*
X16077619Y-13252143D01*
X16096667Y-13261667D01*
X16106190Y-13280714D01*
X16106190Y-13385476D01*
X16201428Y-13385476D02*
X16201428Y-13252143D01*
X16201428Y-13271190D02*
X16210952Y-13261667D01*
X16230000Y-13252143D01*
X16258571Y-13252143D01*
X16277619Y-13261667D01*
X16287143Y-13280714D01*
X16287143Y-13385476D01*
X16287143Y-13280714D02*
X16296667Y-13261667D01*
X16315714Y-13252143D01*
X16344286Y-13252143D01*
X16363333Y-13261667D01*
X16372857Y-13280714D01*
X16372857Y-13385476D01*
X16763333Y-13175952D02*
X16591905Y-13433095D01*
X17020476Y-13185476D02*
X17039524Y-13185476D01*
X17058571Y-13195000D01*
X17068095Y-13204524D01*
X17077619Y-13223571D01*
X17087143Y-13261667D01*
X17087143Y-13309286D01*
X17077619Y-13347381D01*
X17068095Y-13366428D01*
X17058571Y-13375952D01*
X17039524Y-13385476D01*
X17020476Y-13385476D01*
X17001429Y-13375952D01*
X16991905Y-13366428D01*
X16982381Y-13347381D01*
X16972857Y-13309286D01*
X16972857Y-13261667D01*
X16982381Y-13223571D01*
X16991905Y-13204524D01*
X17001429Y-13195000D01*
X17020476Y-13185476D01*
X17172857Y-13366428D02*
X17182381Y-13375952D01*
X17172857Y-13385476D01*
X17163333Y-13375952D01*
X17172857Y-13366428D01*
X17172857Y-13385476D01*
X17372857Y-13385476D02*
X17258571Y-13385476D01*
X17315714Y-13385476D02*
X17315714Y-13185476D01*
X17296667Y-13214048D01*
X17277619Y-13233095D01*
X17258571Y-13242619D01*
X17449048Y-13204524D02*
X17458571Y-13195000D01*
X17477619Y-13185476D01*
X17525238Y-13185476D01*
X17544286Y-13195000D01*
X17553810Y-13204524D01*
X17563333Y-13223571D01*
X17563333Y-13242619D01*
X17553810Y-13271190D01*
X17439524Y-13385476D01*
X17563333Y-13385476D01*
X17734762Y-13185476D02*
X17696667Y-13185476D01*
X17677619Y-13195000D01*
X17668095Y-13204524D01*
X17649048Y-13233095D01*
X17639524Y-13271190D01*
X17639524Y-13347381D01*
X17649048Y-13366428D01*
X17658571Y-13375952D01*
X17677619Y-13385476D01*
X17715714Y-13385476D01*
X17734762Y-13375952D01*
X17744286Y-13366428D01*
X17753810Y-13347381D01*
X17753810Y-13299762D01*
X17744286Y-13280714D01*
X17734762Y-13271190D01*
X17715714Y-13261667D01*
X17677619Y-13261667D01*
X17658571Y-13271190D01*
X17649048Y-13280714D01*
X17639524Y-13299762D01*
X17877619Y-13185476D02*
X17896667Y-13185476D01*
X17915714Y-13195000D01*
X17925238Y-13204524D01*
X17934762Y-13223571D01*
X17944286Y-13261667D01*
X17944286Y-13309286D01*
X17934762Y-13347381D01*
X17925238Y-13366428D01*
X17915714Y-13375952D01*
X17896667Y-13385476D01*
X17877619Y-13385476D01*
X17858571Y-13375952D01*
X17849048Y-13366428D01*
X17839524Y-13347381D01*
X17830000Y-13309286D01*
X17830000Y-13261667D01*
X17839524Y-13223571D01*
X17849048Y-13204524D01*
X17858571Y-13195000D01*
X17877619Y-13185476D01*
X18020476Y-13185476D02*
X18020476Y-13223571D01*
X18096667Y-13185476D02*
X18096667Y-13223571D01*
X18391905Y-13461667D02*
X18382381Y-13452143D01*
X18363333Y-13423571D01*
X18353810Y-13404524D01*
X18344286Y-13375952D01*
X18334762Y-13328333D01*
X18334762Y-13290238D01*
X18344286Y-13242619D01*
X18353810Y-13214048D01*
X18363333Y-13195000D01*
X18382381Y-13166428D01*
X18391905Y-13156905D01*
X18553810Y-13252143D02*
X18553810Y-13385476D01*
X18506190Y-13175952D02*
X18458571Y-13318809D01*
X18582381Y-13318809D01*
X18810952Y-13385476D02*
X18810952Y-13185476D01*
X18896667Y-13385476D02*
X18896667Y-13280714D01*
X18887143Y-13261667D01*
X18868095Y-13252143D01*
X18839524Y-13252143D01*
X18820476Y-13261667D01*
X18810952Y-13271190D01*
X19020476Y-13385476D02*
X19001429Y-13375952D01*
X18991905Y-13366428D01*
X18982381Y-13347381D01*
X18982381Y-13290238D01*
X18991905Y-13271190D01*
X19001429Y-13261667D01*
X19020476Y-13252143D01*
X19049048Y-13252143D01*
X19068095Y-13261667D01*
X19077619Y-13271190D01*
X19087143Y-13290238D01*
X19087143Y-13347381D01*
X19077619Y-13366428D01*
X19068095Y-13375952D01*
X19049048Y-13385476D01*
X19020476Y-13385476D01*
X19201429Y-13385476D02*
X19182381Y-13375952D01*
X19172857Y-13356905D01*
X19172857Y-13185476D01*
X19353810Y-13375952D02*
X19334762Y-13385476D01*
X19296667Y-13385476D01*
X19277619Y-13375952D01*
X19268095Y-13356905D01*
X19268095Y-13280714D01*
X19277619Y-13261667D01*
X19296667Y-13252143D01*
X19334762Y-13252143D01*
X19353810Y-13261667D01*
X19363333Y-13280714D01*
X19363333Y-13299762D01*
X19268095Y-13318809D01*
X19439524Y-13375952D02*
X19458571Y-13385476D01*
X19496667Y-13385476D01*
X19515714Y-13375952D01*
X19525238Y-13356905D01*
X19525238Y-13347381D01*
X19515714Y-13328333D01*
X19496667Y-13318809D01*
X19468095Y-13318809D01*
X19449048Y-13309286D01*
X19439524Y-13290238D01*
X19439524Y-13280714D01*
X19449048Y-13261667D01*
X19468095Y-13252143D01*
X19496667Y-13252143D01*
X19515714Y-13261667D01*
X19591905Y-13461667D02*
X19601429Y-13452143D01*
X19620476Y-13423571D01*
X19630000Y-13404524D01*
X19639524Y-13375952D01*
X19649048Y-13328333D01*
X19649048Y-13290238D01*
X19639524Y-13242619D01*
X19630000Y-13214048D01*
X19620476Y-13195000D01*
X19601429Y-13166428D01*
X19591905Y-13156905D01*
X19953810Y-13461667D02*
X19944286Y-13452143D01*
X19925238Y-13423571D01*
X19915714Y-13404524D01*
X19906190Y-13375952D01*
X19896667Y-13328333D01*
X19896667Y-13290238D01*
X19906190Y-13242619D01*
X19915714Y-13214048D01*
X19925238Y-13195000D01*
X19944286Y-13166428D01*
X19953810Y-13156905D01*
X20030000Y-13252143D02*
X20030000Y-13385476D01*
X20030000Y-13271190D02*
X20039524Y-13261667D01*
X20058571Y-13252143D01*
X20087143Y-13252143D01*
X20106190Y-13261667D01*
X20115714Y-13280714D01*
X20115714Y-13385476D01*
X20239524Y-13385476D02*
X20220476Y-13375952D01*
X20210952Y-13366428D01*
X20201429Y-13347381D01*
X20201429Y-13290238D01*
X20210952Y-13271190D01*
X20220476Y-13261667D01*
X20239524Y-13252143D01*
X20268095Y-13252143D01*
X20287143Y-13261667D01*
X20296667Y-13271190D01*
X20306190Y-13290238D01*
X20306190Y-13347381D01*
X20296667Y-13366428D01*
X20287143Y-13375952D01*
X20268095Y-13385476D01*
X20239524Y-13385476D01*
X20363333Y-13252143D02*
X20439524Y-13252143D01*
X20391905Y-13185476D02*
X20391905Y-13356905D01*
X20401429Y-13375952D01*
X20420476Y-13385476D01*
X20439524Y-13385476D01*
X20658571Y-13252143D02*
X20658571Y-13452143D01*
X20658571Y-13261667D02*
X20677619Y-13252143D01*
X20715714Y-13252143D01*
X20734762Y-13261667D01*
X20744286Y-13271190D01*
X20753810Y-13290238D01*
X20753810Y-13347381D01*
X20744286Y-13366428D01*
X20734762Y-13375952D01*
X20715714Y-13385476D01*
X20677619Y-13385476D01*
X20658571Y-13375952D01*
X20868095Y-13385476D02*
X20849048Y-13375952D01*
X20839524Y-13356905D01*
X20839524Y-13185476D01*
X21030000Y-13385476D02*
X21030000Y-13280714D01*
X21020476Y-13261667D01*
X21001429Y-13252143D01*
X20963333Y-13252143D01*
X20944286Y-13261667D01*
X21030000Y-13375952D02*
X21010952Y-13385476D01*
X20963333Y-13385476D01*
X20944286Y-13375952D01*
X20934762Y-13356905D01*
X20934762Y-13337857D01*
X20944286Y-13318809D01*
X20963333Y-13309286D01*
X21010952Y-13309286D01*
X21030000Y-13299762D01*
X21096667Y-13252143D02*
X21172857Y-13252143D01*
X21125238Y-13185476D02*
X21125238Y-13356905D01*
X21134762Y-13375952D01*
X21153810Y-13385476D01*
X21172857Y-13385476D01*
X21315714Y-13375952D02*
X21296667Y-13385476D01*
X21258571Y-13385476D01*
X21239524Y-13375952D01*
X21230000Y-13356905D01*
X21230000Y-13280714D01*
X21239524Y-13261667D01*
X21258571Y-13252143D01*
X21296667Y-13252143D01*
X21315714Y-13261667D01*
X21325238Y-13280714D01*
X21325238Y-13299762D01*
X21230000Y-13318809D01*
X21496667Y-13385476D02*
X21496667Y-13185476D01*
X21496667Y-13375952D02*
X21477619Y-13385476D01*
X21439524Y-13385476D01*
X21420476Y-13375952D01*
X21410952Y-13366428D01*
X21401429Y-13347381D01*
X21401429Y-13290238D01*
X21410952Y-13271190D01*
X21420476Y-13261667D01*
X21439524Y-13252143D01*
X21477619Y-13252143D01*
X21496667Y-13261667D01*
X21572857Y-13461667D02*
X21582381Y-13452143D01*
X21601429Y-13423571D01*
X21610952Y-13404524D01*
X21620476Y-13375952D01*
X21630000Y-13328333D01*
X21630000Y-13290238D01*
X21620476Y-13242619D01*
X21610952Y-13214048D01*
X21601429Y-13195000D01*
X21582381Y-13166428D01*
X21572857Y-13156905D01*
M02*
