M48
; DRILL file {KiCad (6.0.7)} date Thu Oct 27 11:43:50 2022
; FORMAT={-:-/ absolute / metric / decimal}
; #@! TF.CreationDate,2022-10-27T11:43:50+02:00
; #@! TF.GenerationSoftware,Kicad,Pcbnew,(6.0.7)
; #@! TF.FileFunction,Plated,1,4,PTH
FMAT,2
METRIC
; #@! TA.AperFunction,Plated,PTH,ViaDrill
T1C0.200
; #@! TA.AperFunction,Plated,PTH,ComponentDrill
T2C0.450
; #@! TA.AperFunction,Plated,PTH,ComponentDrill
T3C0.800
; #@! TA.AperFunction,Plated,PTH,ComponentDrill
T4C0.950
; #@! TA.AperFunction,Plated,PTH,ComponentDrill
T5C1.000
; #@! TA.AperFunction,Plated,PTH,ComponentDrill
T6C1.190
%
G90
G05
T1
X156.1Y-89.1
X156.55Y-104.85
X156.75Y-108.65
X156.889Y-100.811
X156.9Y-100.0
X157.1Y-97.9
X157.377Y-108.65
X157.9Y-112.3
X157.9Y-113.1
X157.9Y-113.8
X158.3Y-104.5
X159.65Y-89.4
X159.8Y-96.9
X159.85Y-96.25
X159.85Y-104.45
X160.2Y-100.84
X160.2Y-101.4
X160.2Y-102.0
X160.45Y-98.2
X160.55Y-95.9
X160.55Y-117.4
X160.55Y-118.35
X160.6Y-93.0
X160.6Y-97.25
X160.89Y-98.713
X161.144Y-99.329
X161.35Y-94.352
X161.35Y-119.1
X161.4Y-97.7
X162.05Y-92.758
X162.05Y-93.385
X162.3Y-119.1
X162.4Y-89.5
X162.5Y-91.8
X163.007Y-99.098
X163.073Y-94.301
X163.15Y-101.0
X163.25Y-119.1
X163.4Y-97.502
X163.4Y-115.0
X163.498Y-95.2
X163.7Y-94.3
X164.0Y-99.1
X164.2Y-119.1
X164.25Y-91.9
X164.326Y-94.314
X164.8Y-99.2
X164.8Y-101.1
X165.0Y-112.4
X165.1Y-92.35
X165.15Y-119.1
X165.2Y-95.8
X165.472Y-94.073
X165.5Y-101.097
X165.9Y-95.8
X165.9Y-99.2
X166.1Y-92.4
X166.1Y-119.1
X166.2Y-101.2
X166.3Y-112.4
X166.6Y-95.8
X167.0Y-108.2
X167.05Y-117.4
X167.05Y-118.35
X167.25Y-113.6
X167.3Y-95.8
X167.3Y-105.6
X167.4Y-112.4
X167.7Y-94.073
X167.7Y-108.9
X167.8Y-92.3
X167.8Y-113.6
X167.9Y-105.6
X168.35Y-113.6
X168.6Y-112.4
X168.7Y-108.9
X168.9Y-113.6
X169.189Y-101.489
X169.4Y-109.6
X169.4Y-110.5
X169.45Y-113.6
X169.6Y-92.6
X169.925Y-97.675
X170.4Y-90.9
X170.4Y-103.3
X170.612Y-94.013
X170.8Y-102.9
X171.7Y-100.385
X172.225Y-100.825
X173.1Y-93.3
X173.15Y-95.823
X173.15Y-96.45
X173.5Y-92.9
X173.7Y-108.05
X174.1Y-102.51
X174.15Y-108.4
X174.5Y-98.0
X174.6Y-94.05
X174.6Y-108.05
X175.05Y-108.4
X175.15Y-104.3
X175.2Y-102.16
X175.3Y-111.55
X175.55Y-94.05
X175.75Y-104.3
X176.226Y-109.0
X176.35Y-104.3
X176.95Y-104.3
X177.127Y-122.4
X177.2Y-117.3
X177.2Y-117.85
X177.2Y-118.4
X177.2Y-118.95
X177.7Y-122.4
X177.95Y-90.66
X178.05Y-111.65
X178.3Y-122.4
X178.35Y-109.75
X178.9Y-122.4
X179.45Y-121.45
X179.5Y-109.65
X180.15Y-121.25
X180.25Y-122.9
X180.85Y-121.25
X180.9Y-123.8
X181.39Y-123.119
X181.45Y-121.25
X183.25Y-123.55
X184.4Y-113.1
X185.1Y-113.1
X185.75Y-113.1
X186.45Y-113.1
X187.0Y-90.2
X187.475Y-91.175
X188.25Y-114.25
X188.95Y-114.25
X189.2Y-92.2
X189.325Y-91.175
X189.6Y-114.25
X190.3Y-114.25
T3
X163.0Y-121.768
X163.0Y-124.268
X169.75Y-121.75
X169.75Y-124.25
X185.568Y-104.5
X188.068Y-104.5
X194.75Y-115.932
X194.75Y-118.432
T4
X171.55Y-88.15
X174.05Y-88.15
X176.55Y-88.15
X181.95Y-88.15
X184.45Y-88.15
X186.95Y-88.15
X189.45Y-88.15
T5
X163.525Y-103.25
X166.065Y-103.25
X167.425Y-87.75
X167.425Y-90.29
X168.605Y-103.25
X179.0Y-95.3
X179.0Y-97.8
X183.35Y-95.3
X183.35Y-97.8
X187.7Y-95.3
X187.7Y-97.8
X192.05Y-95.3
X192.05Y-97.8
X196.4Y-95.3
X196.4Y-97.8
T6
X149.61Y-95.52
X149.61Y-101.7
X149.66Y-111.27
X149.66Y-117.47
X152.15Y-95.52
X152.15Y-101.7
X152.2Y-111.27
X152.2Y-117.47
X154.69Y-95.52
X154.69Y-101.7
X154.74Y-111.27
X154.74Y-117.47
X188.23Y-123.48
X190.77Y-123.48
X191.71Y-104.0
X191.71Y-110.4
X194.25Y-104.0
X194.25Y-110.4
X196.79Y-104.0
X196.79Y-110.4
T2
X155.05Y-88.35G85X155.05Y-87.55
G05
X162.2Y-87.55G85X162.2Y-88.35
G05
T0
M30
