G04 #@! TF.GenerationSoftware,KiCad,Pcbnew,7.0.9*
G04 #@! TF.CreationDate,2024-01-01T14:03:07+01:00*
G04 #@! TF.ProjectId,Nutzen,4e75747a-656e-42e6-9b69-6361645f7063,rev?*
G04 #@! TF.SameCoordinates,Original*
G04 #@! TF.FileFunction,Copper,L1,Top*
G04 #@! TF.FilePolarity,Positive*
%FSLAX46Y46*%
G04 Gerber Fmt 4.6, Leading zero omitted, Abs format (unit mm)*
G04 Created by KiCad (PCBNEW 7.0.9) date 2024-01-01 14:03:07*
%MOMM*%
%LPD*%
G01*
G04 APERTURE LIST*
G04 #@! TA.AperFunction,SMDPad,CuDef*
%ADD10C,2.000000*%
G04 #@! TD*
G04 #@! TA.AperFunction,ViaPad*
%ADD11C,0.800000*%
G04 #@! TD*
G04 #@! TA.AperFunction,Conductor*
%ADD12C,0.500000*%
G04 #@! TD*
G04 APERTURE END LIST*
D10*
X126050000Y-48100000D03*
X136450000Y-67300000D03*
X136450000Y-86500000D03*
X131250000Y-115900000D03*
X117250000Y-86500000D03*
X131250000Y-58300000D03*
X183650000Y-67300000D03*
X155650000Y-124900000D03*
X174850000Y-105700000D03*
X145250000Y-86500000D03*
X136450000Y-105700000D03*
X188850000Y-39100000D03*
X164450000Y-124900000D03*
X174850000Y-124900000D03*
X131250000Y-39100000D03*
X169650000Y-96700000D03*
X188850000Y-58300000D03*
X150450000Y-115900000D03*
X164450000Y-67300000D03*
X194050000Y-67300000D03*
X174850000Y-48100000D03*
X194050000Y-48100000D03*
X183650000Y-48100000D03*
X126050000Y-86500000D03*
X194050000Y-86500000D03*
X150450000Y-39100000D03*
X150450000Y-58300000D03*
X112050000Y-96700000D03*
X126050000Y-67300000D03*
X155650000Y-48100000D03*
X112050000Y-58300000D03*
X106850000Y-105700000D03*
X112050000Y-39100000D03*
X131250000Y-77500000D03*
X126050000Y-105700000D03*
X164450000Y-86500000D03*
X188850000Y-96700000D03*
X117250000Y-67300000D03*
X183650000Y-86500000D03*
X155650000Y-86500000D03*
X164450000Y-48100000D03*
X174850000Y-86500000D03*
X155650000Y-105700000D03*
X155650000Y-67300000D03*
X194050000Y-105700000D03*
X169650000Y-115900000D03*
X164450000Y-105700000D03*
X169650000Y-39100000D03*
X150450000Y-96700000D03*
X145250000Y-124900000D03*
X117250000Y-124900000D03*
X117250000Y-105700000D03*
X112050000Y-115900000D03*
X117250000Y-48100000D03*
X194050000Y-124900000D03*
X183650000Y-105700000D03*
X112050000Y-77500000D03*
X188850000Y-115900000D03*
X145250000Y-105700000D03*
X131250000Y-96700000D03*
X126050000Y-124900000D03*
X169650000Y-58300000D03*
X183650000Y-124900000D03*
X169650000Y-77500000D03*
X106850000Y-124900000D03*
X145250000Y-48100000D03*
X106850000Y-48100000D03*
X188850000Y-77500000D03*
X136450000Y-48100000D03*
X145250000Y-67300000D03*
X106850000Y-86500000D03*
X150450000Y-77500000D03*
X174850000Y-67300000D03*
X106850000Y-67300000D03*
X136450000Y-124900000D03*
D11*
X171650000Y-52100000D03*
X192000000Y-86500000D03*
X114100000Y-87300000D03*
X153600000Y-86500000D03*
X137950000Y-85100000D03*
X173450000Y-49600000D03*
X119300000Y-105600000D03*
X152450000Y-90500000D03*
X118700000Y-107150000D03*
X190850000Y-109700000D03*
X117250000Y-69300000D03*
X176350000Y-46700000D03*
X134950000Y-65850000D03*
X136450000Y-65200000D03*
X176350000Y-85100000D03*
X192550000Y-104250000D03*
X153600000Y-67300000D03*
X190900000Y-48900000D03*
X117250000Y-107700000D03*
X138500000Y-67200000D03*
X172800000Y-67300000D03*
X157700000Y-48000000D03*
X157100000Y-68750000D03*
X117250000Y-84400000D03*
X176900000Y-105600000D03*
X114050000Y-128900000D03*
X136450000Y-46000000D03*
X190850000Y-128900000D03*
X137950000Y-46700000D03*
X171650000Y-128900000D03*
X138500000Y-105600000D03*
X137900000Y-68750000D03*
X119300000Y-86400000D03*
X137900000Y-126350000D03*
X176350000Y-104300000D03*
X190850000Y-52100000D03*
X195550000Y-85100000D03*
X118750000Y-104300000D03*
X154150000Y-85050000D03*
X138500000Y-48000000D03*
X194050000Y-69300000D03*
X196100000Y-124800000D03*
X174850000Y-103600000D03*
X114050000Y-90500000D03*
X133300000Y-48900000D03*
X115200000Y-86500000D03*
X192650000Y-68800000D03*
X190850000Y-90500000D03*
X155650000Y-88500000D03*
X137900000Y-49550000D03*
X155650000Y-107700000D03*
X171700000Y-68100000D03*
X117250000Y-103600000D03*
X114050000Y-52100000D03*
X117250000Y-126900000D03*
X176900000Y-86400000D03*
X154150000Y-123450000D03*
X155650000Y-126900000D03*
X136450000Y-103600000D03*
X135050000Y-126400000D03*
X134400000Y-48100000D03*
X117250000Y-88500000D03*
X133250000Y-71300000D03*
X154250000Y-68800000D03*
X135050000Y-49600000D03*
X173450000Y-68800000D03*
X115750000Y-85050000D03*
X174850000Y-88500000D03*
X118750000Y-85100000D03*
X114050000Y-109700000D03*
X136450000Y-107700000D03*
X190900000Y-106500000D03*
X114100000Y-68100000D03*
X115850000Y-126400000D03*
X153600000Y-124900000D03*
X196100000Y-86400000D03*
X118750000Y-65900000D03*
X192000000Y-48100000D03*
X155650000Y-50100000D03*
X176900000Y-124800000D03*
X134400000Y-67300000D03*
X115200000Y-105700000D03*
X173450000Y-88000000D03*
X133250000Y-109700000D03*
X137900000Y-87950000D03*
X173350000Y-85050000D03*
X133300000Y-125700000D03*
X134400000Y-86500000D03*
X137950000Y-104300000D03*
X136450000Y-122800000D03*
X157700000Y-86400000D03*
X157100000Y-49550000D03*
X115750000Y-46650000D03*
X196100000Y-48000000D03*
X118700000Y-87950000D03*
X115850000Y-88000000D03*
X136450000Y-88500000D03*
X134400000Y-124900000D03*
X176300000Y-107150000D03*
X135050000Y-88000000D03*
X171700000Y-87300000D03*
X155650000Y-69300000D03*
X195500000Y-49550000D03*
X118700000Y-68750000D03*
X171650000Y-90500000D03*
X192000000Y-67300000D03*
X176350000Y-65900000D03*
X174850000Y-122800000D03*
X154250000Y-126400000D03*
X155650000Y-46000000D03*
X138500000Y-124800000D03*
X195500000Y-68750000D03*
X194050000Y-107700000D03*
X152500000Y-48900000D03*
X171650000Y-71300000D03*
X192000000Y-105700000D03*
X155650000Y-103600000D03*
X114100000Y-125700000D03*
X195550000Y-104300000D03*
X190900000Y-87300000D03*
X118750000Y-123500000D03*
X192650000Y-107200000D03*
X119300000Y-48000000D03*
X134950000Y-85050000D03*
X135050000Y-107200000D03*
X176300000Y-49550000D03*
X195550000Y-46700000D03*
X194050000Y-46000000D03*
X115750000Y-65850000D03*
X194050000Y-126900000D03*
X154150000Y-65850000D03*
X194050000Y-103600000D03*
X171700000Y-106500000D03*
X115200000Y-124900000D03*
X136450000Y-69300000D03*
X171650000Y-109700000D03*
X115200000Y-67300000D03*
X172800000Y-124900000D03*
X173350000Y-65850000D03*
X195500000Y-107150000D03*
X136450000Y-84400000D03*
X134950000Y-104250000D03*
X194050000Y-88500000D03*
X134950000Y-123450000D03*
X192650000Y-88000000D03*
X137950000Y-123500000D03*
X171700000Y-48900000D03*
X152450000Y-109700000D03*
X115850000Y-49600000D03*
X176350000Y-123500000D03*
X154250000Y-49600000D03*
X190900000Y-68100000D03*
X174850000Y-69300000D03*
X118700000Y-49550000D03*
X117250000Y-65200000D03*
X176900000Y-48000000D03*
X153600000Y-105700000D03*
X174850000Y-84400000D03*
X135050000Y-68800000D03*
X157100000Y-87950000D03*
X115750000Y-104250000D03*
X133250000Y-128900000D03*
X176300000Y-126350000D03*
X152450000Y-52100000D03*
X118750000Y-46700000D03*
X115850000Y-107200000D03*
X114100000Y-106500000D03*
X174850000Y-46000000D03*
X155650000Y-65200000D03*
X174850000Y-65200000D03*
X155650000Y-84400000D03*
X172800000Y-86500000D03*
X157150000Y-104300000D03*
X192550000Y-85050000D03*
X194050000Y-50100000D03*
X192650000Y-49600000D03*
X134400000Y-105700000D03*
X192000000Y-124900000D03*
X174850000Y-126900000D03*
X176300000Y-87950000D03*
X173450000Y-107200000D03*
X119300000Y-124800000D03*
X117250000Y-122800000D03*
X152450000Y-71300000D03*
X174850000Y-107700000D03*
X155650000Y-122800000D03*
X195500000Y-87950000D03*
X154250000Y-88000000D03*
X194050000Y-65200000D03*
X157100000Y-126350000D03*
X153600000Y-48100000D03*
X157150000Y-123500000D03*
X152500000Y-106500000D03*
X137900000Y-107150000D03*
X134950000Y-46650000D03*
X136450000Y-126900000D03*
X176900000Y-67200000D03*
X157150000Y-65900000D03*
X157700000Y-124800000D03*
X115850000Y-68800000D03*
X173450000Y-126400000D03*
X114100000Y-48900000D03*
X190850000Y-71300000D03*
X154250000Y-107200000D03*
X196100000Y-67200000D03*
X174850000Y-50100000D03*
X133300000Y-106500000D03*
X152500000Y-68100000D03*
X133250000Y-52100000D03*
X114050000Y-71300000D03*
X192550000Y-46650000D03*
X152450000Y-128900000D03*
X152500000Y-125700000D03*
X173350000Y-46650000D03*
X172800000Y-105700000D03*
X173350000Y-123450000D03*
X119300000Y-67200000D03*
X192650000Y-126400000D03*
X194050000Y-122800000D03*
X196100000Y-105600000D03*
X157700000Y-105600000D03*
X176300000Y-68750000D03*
X195550000Y-123500000D03*
X137950000Y-65900000D03*
X117250000Y-46000000D03*
X154150000Y-104250000D03*
X118700000Y-126350000D03*
X138500000Y-86400000D03*
X157700000Y-67200000D03*
X115200000Y-48100000D03*
X172800000Y-48100000D03*
X133300000Y-87300000D03*
X157150000Y-46700000D03*
X117250000Y-50100000D03*
X154150000Y-46650000D03*
X115750000Y-123450000D03*
X194050000Y-84400000D03*
X133300000Y-68100000D03*
X171700000Y-125700000D03*
X173350000Y-104250000D03*
X195550000Y-65900000D03*
X157150000Y-85100000D03*
X195500000Y-126350000D03*
X192550000Y-123450000D03*
X157100000Y-107150000D03*
X192550000Y-65850000D03*
X152500000Y-87300000D03*
X133250000Y-90500000D03*
X190900000Y-125700000D03*
X136450000Y-50100000D03*
X165900000Y-87950000D03*
X163050000Y-126400000D03*
X108900000Y-86400000D03*
X124650000Y-107200000D03*
X124550000Y-46650000D03*
X124000000Y-124900000D03*
X129250000Y-68050000D03*
X146750000Y-65900000D03*
X108300000Y-49550000D03*
X110050000Y-71150000D03*
X110050000Y-109550000D03*
X162400000Y-67300000D03*
X143200000Y-67300000D03*
X143200000Y-124900000D03*
X163050000Y-68800000D03*
X163050000Y-107200000D03*
X147300000Y-67200000D03*
X167650000Y-48850000D03*
X148450000Y-68050000D03*
X186850000Y-68050000D03*
X146700000Y-68750000D03*
X167650000Y-51950000D03*
X186850000Y-48850000D03*
X182150000Y-104250000D03*
X110050000Y-87250000D03*
X105450000Y-68800000D03*
X124000000Y-86500000D03*
X162400000Y-105700000D03*
X165900000Y-49550000D03*
X167650000Y-87250000D03*
X126050000Y-122800000D03*
X124650000Y-68800000D03*
X143200000Y-86500000D03*
X110050000Y-128750000D03*
X127500000Y-107150000D03*
X186850000Y-109550000D03*
X165900000Y-107150000D03*
X145250000Y-46000000D03*
X124000000Y-105700000D03*
X145250000Y-65200000D03*
X165900000Y-68750000D03*
X129250000Y-128750000D03*
X185150000Y-46700000D03*
X164450000Y-50100000D03*
X164450000Y-107700000D03*
X110050000Y-48850000D03*
X127550000Y-123500000D03*
X104800000Y-105700000D03*
X105350000Y-123450000D03*
X181600000Y-48100000D03*
X185100000Y-87950000D03*
X129250000Y-71150000D03*
X126050000Y-84400000D03*
X164450000Y-46000000D03*
X126050000Y-126900000D03*
X148450000Y-48850000D03*
X143750000Y-85050000D03*
X182250000Y-88000000D03*
X164450000Y-84400000D03*
X143750000Y-65850000D03*
X164450000Y-65200000D03*
X106850000Y-84400000D03*
X164450000Y-88500000D03*
X183650000Y-88500000D03*
X186850000Y-71150000D03*
X165950000Y-65900000D03*
X147300000Y-48000000D03*
X143200000Y-48100000D03*
X104800000Y-124900000D03*
X124650000Y-88000000D03*
X110050000Y-51950000D03*
X167650000Y-109550000D03*
X185100000Y-49550000D03*
X164450000Y-122800000D03*
X105450000Y-126400000D03*
X165950000Y-123500000D03*
X106850000Y-88500000D03*
X129250000Y-87250000D03*
X182150000Y-46650000D03*
X110050000Y-125650000D03*
X110050000Y-106450000D03*
X106850000Y-65200000D03*
X108900000Y-105600000D03*
X127500000Y-87950000D03*
X185700000Y-124800000D03*
X162950000Y-85050000D03*
X108350000Y-104300000D03*
X143850000Y-49600000D03*
X106850000Y-103600000D03*
X108300000Y-68750000D03*
X106850000Y-69300000D03*
X185700000Y-105600000D03*
X165950000Y-85100000D03*
X145250000Y-84400000D03*
X183650000Y-122800000D03*
X145250000Y-103600000D03*
X129250000Y-48850000D03*
X162950000Y-65850000D03*
X148450000Y-90350000D03*
X110050000Y-68050000D03*
X185150000Y-85100000D03*
X146750000Y-104300000D03*
X110050000Y-90350000D03*
X108300000Y-107150000D03*
X148450000Y-106450000D03*
X143200000Y-105700000D03*
X186850000Y-106450000D03*
X126050000Y-107700000D03*
X145250000Y-50100000D03*
X148450000Y-109550000D03*
X106850000Y-122800000D03*
X183650000Y-65200000D03*
X185100000Y-107150000D03*
X146700000Y-107150000D03*
X124650000Y-126400000D03*
X108350000Y-85100000D03*
X186850000Y-51950000D03*
X182250000Y-107200000D03*
X124000000Y-67300000D03*
X143850000Y-68800000D03*
X148450000Y-128750000D03*
X106850000Y-107700000D03*
X148450000Y-71150000D03*
X106850000Y-50100000D03*
X127500000Y-49550000D03*
X143750000Y-104250000D03*
X146750000Y-85100000D03*
X147300000Y-86400000D03*
X147300000Y-124800000D03*
X162950000Y-123450000D03*
X143750000Y-123450000D03*
X129250000Y-106450000D03*
X146750000Y-123500000D03*
X182150000Y-65850000D03*
X127550000Y-85100000D03*
X126050000Y-46000000D03*
X163050000Y-88000000D03*
X129250000Y-90350000D03*
X108300000Y-87950000D03*
X182150000Y-85050000D03*
X105350000Y-46650000D03*
X186850000Y-128750000D03*
X183650000Y-84400000D03*
X124550000Y-123450000D03*
X104800000Y-48100000D03*
X108350000Y-46700000D03*
X183650000Y-107700000D03*
X124550000Y-65850000D03*
X182250000Y-126400000D03*
X185150000Y-65900000D03*
X145250000Y-107700000D03*
X182250000Y-68800000D03*
X164450000Y-103600000D03*
X128100000Y-48000000D03*
X146700000Y-49550000D03*
X167650000Y-125650000D03*
X162950000Y-104250000D03*
X127500000Y-68750000D03*
X145250000Y-122800000D03*
X165950000Y-104300000D03*
X145250000Y-126900000D03*
X143850000Y-126400000D03*
X129250000Y-109550000D03*
X183650000Y-50100000D03*
X124550000Y-85050000D03*
X148450000Y-125650000D03*
X167650000Y-106450000D03*
X183650000Y-69300000D03*
X181600000Y-67300000D03*
X105450000Y-49600000D03*
X108900000Y-48000000D03*
X166500000Y-86400000D03*
X185700000Y-48000000D03*
X105450000Y-107200000D03*
X148450000Y-51950000D03*
X143850000Y-107200000D03*
X124000000Y-48100000D03*
X105350000Y-85050000D03*
X126050000Y-103600000D03*
X167650000Y-90350000D03*
X105350000Y-65850000D03*
X185700000Y-86400000D03*
X129250000Y-51950000D03*
X128100000Y-105600000D03*
X148450000Y-87250000D03*
X167650000Y-128750000D03*
X106850000Y-126900000D03*
X165950000Y-46700000D03*
X147300000Y-105600000D03*
X145250000Y-88500000D03*
X182250000Y-49600000D03*
X108350000Y-123500000D03*
X166500000Y-105600000D03*
X185100000Y-68750000D03*
X146700000Y-126350000D03*
X108900000Y-67200000D03*
X124550000Y-104250000D03*
X181600000Y-105700000D03*
X104800000Y-86500000D03*
X105450000Y-88000000D03*
X166500000Y-67200000D03*
X124650000Y-49600000D03*
X127500000Y-126350000D03*
X186850000Y-87250000D03*
X146750000Y-46700000D03*
X127550000Y-104300000D03*
X162400000Y-86500000D03*
X164450000Y-126900000D03*
X183650000Y-46000000D03*
X185150000Y-123500000D03*
X128100000Y-86400000D03*
X126050000Y-50100000D03*
X128100000Y-124800000D03*
X126050000Y-65200000D03*
X167650000Y-71150000D03*
X126050000Y-88500000D03*
X186850000Y-125650000D03*
X146700000Y-87950000D03*
X128100000Y-67200000D03*
X181600000Y-86500000D03*
X182150000Y-123450000D03*
X162400000Y-124900000D03*
X166500000Y-124800000D03*
X106850000Y-46000000D03*
X183650000Y-126900000D03*
X163050000Y-49600000D03*
X186850000Y-90350000D03*
X185150000Y-104300000D03*
X185700000Y-67200000D03*
X167650000Y-68050000D03*
X127550000Y-46700000D03*
X105350000Y-104250000D03*
X108350000Y-65900000D03*
X108300000Y-126350000D03*
X145250000Y-69300000D03*
X185100000Y-126350000D03*
X104800000Y-67300000D03*
X162400000Y-48100000D03*
X129250000Y-125650000D03*
X162950000Y-46650000D03*
X166500000Y-48000000D03*
X165900000Y-126350000D03*
X143750000Y-46650000D03*
X126050000Y-69300000D03*
X108900000Y-124800000D03*
X181600000Y-124900000D03*
X164450000Y-69300000D03*
X183650000Y-103600000D03*
X127550000Y-65900000D03*
X143850000Y-88000000D03*
X110000000Y-39100000D03*
X131250000Y-60300000D03*
X132750000Y-114500000D03*
X171700000Y-39000000D03*
X186800000Y-77500000D03*
X112050000Y-56200000D03*
X171100000Y-117350000D03*
X169650000Y-117900000D03*
X190350000Y-114500000D03*
X110650000Y-117400000D03*
X187450000Y-59800000D03*
X129850000Y-59800000D03*
X150450000Y-68050000D03*
X113500000Y-59750000D03*
X150450000Y-90450000D03*
X113500000Y-117350000D03*
X110550000Y-114450000D03*
X150450000Y-52050000D03*
X131250000Y-109650000D03*
X150450000Y-75400000D03*
X152500000Y-39000000D03*
X132700000Y-40550000D03*
X171150000Y-114500000D03*
X188850000Y-98700000D03*
X188850000Y-117900000D03*
X129200000Y-77500000D03*
X129200000Y-58300000D03*
X132750000Y-56900000D03*
X151900000Y-40550000D03*
X167600000Y-96700000D03*
X171700000Y-77400000D03*
X110650000Y-79000000D03*
X188850000Y-75400000D03*
X132750000Y-37700000D03*
X168250000Y-98200000D03*
X187450000Y-117400000D03*
X171150000Y-37700000D03*
X169650000Y-71250000D03*
X112050000Y-52050000D03*
X167600000Y-77500000D03*
X133300000Y-58200000D03*
X133300000Y-39000000D03*
X129200000Y-96700000D03*
X187350000Y-114450000D03*
X148950000Y-114450000D03*
X188850000Y-60300000D03*
X169650000Y-52050000D03*
X129850000Y-117400000D03*
X131250000Y-128850000D03*
X169650000Y-41100000D03*
X188850000Y-128850000D03*
X190900000Y-58200000D03*
X188850000Y-90450000D03*
X148950000Y-56850000D03*
X188850000Y-71250000D03*
X187350000Y-76050000D03*
X148400000Y-77500000D03*
X190900000Y-39000000D03*
X113500000Y-98150000D03*
X129850000Y-98200000D03*
X151950000Y-95300000D03*
X110550000Y-76050000D03*
X188850000Y-68050000D03*
X151900000Y-78950000D03*
X110650000Y-59800000D03*
X112050000Y-60300000D03*
X188850000Y-125650000D03*
X169650000Y-87250000D03*
X113550000Y-95300000D03*
X187450000Y-98200000D03*
X190900000Y-77400000D03*
X131250000Y-41100000D03*
X190350000Y-76100000D03*
X112050000Y-94600000D03*
X112050000Y-71250000D03*
X152500000Y-77400000D03*
X110000000Y-115900000D03*
X168250000Y-59800000D03*
X171150000Y-95300000D03*
X110000000Y-77500000D03*
X148950000Y-95250000D03*
X188850000Y-37000000D03*
X112050000Y-128850000D03*
X190900000Y-115800000D03*
X150450000Y-106450000D03*
X151900000Y-98150000D03*
X131250000Y-87250000D03*
X171100000Y-98150000D03*
X150450000Y-48850000D03*
X171700000Y-96600000D03*
X110550000Y-56850000D03*
X114100000Y-96600000D03*
X131250000Y-56200000D03*
X171150000Y-56900000D03*
X169650000Y-98700000D03*
X190300000Y-117350000D03*
X131250000Y-90450000D03*
X167600000Y-58300000D03*
X148400000Y-39100000D03*
X131250000Y-52050000D03*
X129750000Y-114450000D03*
X149050000Y-117400000D03*
X169650000Y-90450000D03*
X169650000Y-109650000D03*
X186800000Y-39100000D03*
X171100000Y-59750000D03*
X132750000Y-76100000D03*
X169650000Y-94600000D03*
X132700000Y-98150000D03*
X131250000Y-37000000D03*
X131250000Y-75400000D03*
X188850000Y-41100000D03*
X112050000Y-48850000D03*
X188850000Y-52050000D03*
X149050000Y-98200000D03*
X188850000Y-48850000D03*
X131250000Y-98700000D03*
X187350000Y-37650000D03*
X168150000Y-95250000D03*
X113550000Y-114500000D03*
X129750000Y-37650000D03*
X151950000Y-37700000D03*
X186800000Y-115900000D03*
X131250000Y-117900000D03*
X188850000Y-109650000D03*
X151950000Y-76100000D03*
X114100000Y-115800000D03*
X131250000Y-79500000D03*
X169650000Y-128850000D03*
X186800000Y-96700000D03*
X110000000Y-58300000D03*
X131250000Y-113800000D03*
X112050000Y-79500000D03*
X168150000Y-114450000D03*
X150450000Y-94600000D03*
X188850000Y-87250000D03*
X187450000Y-40600000D03*
X151900000Y-117350000D03*
X131250000Y-48850000D03*
X171100000Y-78950000D03*
X133300000Y-115800000D03*
X150450000Y-109650000D03*
X190300000Y-78950000D03*
X112050000Y-41100000D03*
X131250000Y-125650000D03*
X188850000Y-106450000D03*
X129750000Y-56850000D03*
X187450000Y-79000000D03*
X110550000Y-95250000D03*
X188850000Y-113800000D03*
X110000000Y-96700000D03*
X132700000Y-78950000D03*
X113500000Y-78950000D03*
X190300000Y-40550000D03*
X129850000Y-79000000D03*
X168150000Y-37650000D03*
X150450000Y-113800000D03*
X171150000Y-76100000D03*
X114100000Y-39000000D03*
X150450000Y-87250000D03*
X112050000Y-75400000D03*
X150450000Y-79500000D03*
X150450000Y-41100000D03*
X114100000Y-58200000D03*
X110650000Y-98200000D03*
X169650000Y-75400000D03*
X113500000Y-40550000D03*
X152500000Y-58200000D03*
X190350000Y-37700000D03*
X151950000Y-114500000D03*
X151900000Y-59750000D03*
X149050000Y-59800000D03*
X169650000Y-37000000D03*
X169650000Y-79500000D03*
X188850000Y-79500000D03*
X148400000Y-115900000D03*
X167600000Y-39100000D03*
X131250000Y-94600000D03*
X132700000Y-59750000D03*
X190350000Y-56900000D03*
X110650000Y-40600000D03*
X167600000Y-115900000D03*
X150450000Y-71250000D03*
X168150000Y-56850000D03*
X112050000Y-37000000D03*
X168250000Y-79000000D03*
X171100000Y-40550000D03*
X112050000Y-98700000D03*
X190300000Y-98150000D03*
X113550000Y-56900000D03*
X148950000Y-76050000D03*
X169650000Y-48850000D03*
X110550000Y-37650000D03*
X112050000Y-106450000D03*
X169650000Y-68050000D03*
X112050000Y-68050000D03*
X131250000Y-71250000D03*
X152500000Y-96600000D03*
X150450000Y-60300000D03*
X132750000Y-95300000D03*
X186800000Y-58300000D03*
X188850000Y-56200000D03*
X131250000Y-106450000D03*
X188850000Y-94600000D03*
X131250000Y-68050000D03*
X132700000Y-117350000D03*
X113550000Y-76100000D03*
X152500000Y-115800000D03*
X169650000Y-113800000D03*
X169650000Y-106450000D03*
X112050000Y-113800000D03*
X150450000Y-125650000D03*
X150450000Y-56200000D03*
X168250000Y-117400000D03*
X151950000Y-56900000D03*
X149050000Y-79000000D03*
X171700000Y-58200000D03*
X187350000Y-56850000D03*
X129200000Y-115900000D03*
X187350000Y-95250000D03*
X113550000Y-37700000D03*
X149050000Y-40600000D03*
X129750000Y-76050000D03*
X171700000Y-115800000D03*
X114100000Y-77400000D03*
X190350000Y-95300000D03*
X150450000Y-128850000D03*
X112050000Y-109650000D03*
X112050000Y-117900000D03*
X112050000Y-87250000D03*
X148950000Y-37650000D03*
X129750000Y-95250000D03*
X169650000Y-56200000D03*
X150450000Y-117900000D03*
X112050000Y-90450000D03*
X133300000Y-77400000D03*
X169650000Y-60300000D03*
X168150000Y-76050000D03*
X169650000Y-125650000D03*
X148400000Y-58300000D03*
X190300000Y-59750000D03*
X133300000Y-96600000D03*
X112050000Y-125650000D03*
X129200000Y-39100000D03*
X168250000Y-40600000D03*
X190900000Y-96600000D03*
X148400000Y-96700000D03*
X150450000Y-37000000D03*
X150450000Y-98700000D03*
X129850000Y-40600000D03*
D12*
X191700000Y-67300000D02*
X192000000Y-67300000D01*
X133300000Y-106500000D02*
X134100000Y-105700000D01*
X153300000Y-67300000D02*
X153600000Y-67300000D01*
X171650000Y-48950000D02*
X171700000Y-48900000D01*
X114900000Y-67300000D02*
X115200000Y-67300000D01*
X114050000Y-52100000D02*
X114050000Y-48950000D01*
X152500000Y-106500000D02*
X153300000Y-105700000D01*
X114900000Y-105700000D02*
X115200000Y-105700000D01*
X114050000Y-71300000D02*
X114050000Y-68150000D01*
X190900000Y-87300000D02*
X191700000Y-86500000D01*
X171650000Y-87350000D02*
X171700000Y-87300000D01*
X114100000Y-87300000D02*
X114900000Y-86500000D01*
X190850000Y-87350000D02*
X190900000Y-87300000D01*
X171650000Y-128900000D02*
X171650000Y-125750000D01*
X133250000Y-90500000D02*
X133250000Y-87350000D01*
X191700000Y-48100000D02*
X192000000Y-48100000D01*
X133300000Y-87300000D02*
X134100000Y-86500000D01*
X191700000Y-86500000D02*
X192000000Y-86500000D01*
X114100000Y-48900000D02*
X114900000Y-48100000D01*
X172500000Y-86500000D02*
X172800000Y-86500000D01*
X171700000Y-106500000D02*
X172500000Y-105700000D01*
X133300000Y-68100000D02*
X134100000Y-67300000D01*
X114050000Y-109700000D02*
X114050000Y-106550000D01*
X153300000Y-48100000D02*
X153600000Y-48100000D01*
X171650000Y-109700000D02*
X171650000Y-106550000D01*
X134100000Y-105700000D02*
X134400000Y-105700000D01*
X134100000Y-124900000D02*
X134400000Y-124900000D01*
X114050000Y-48950000D02*
X114100000Y-48900000D01*
X133250000Y-48950000D02*
X133300000Y-48900000D01*
X133250000Y-52100000D02*
X133250000Y-48950000D01*
X190850000Y-125750000D02*
X190900000Y-125700000D01*
X114050000Y-106550000D02*
X114100000Y-106500000D01*
X133250000Y-125750000D02*
X133300000Y-125700000D01*
X171700000Y-48900000D02*
X172500000Y-48100000D01*
X191700000Y-124900000D02*
X192000000Y-124900000D01*
X133250000Y-71300000D02*
X133250000Y-68150000D01*
X171700000Y-125700000D02*
X172500000Y-124900000D01*
X172500000Y-105700000D02*
X172800000Y-105700000D01*
X152500000Y-48900000D02*
X153300000Y-48100000D01*
X190850000Y-106550000D02*
X190900000Y-106500000D01*
X171700000Y-87300000D02*
X172500000Y-86500000D01*
X134100000Y-86500000D02*
X134400000Y-86500000D01*
X114050000Y-87350000D02*
X114100000Y-87300000D01*
X190850000Y-90500000D02*
X190850000Y-87350000D01*
X152450000Y-128900000D02*
X152450000Y-125750000D01*
X190900000Y-48900000D02*
X191700000Y-48100000D01*
X171650000Y-90500000D02*
X171650000Y-87350000D01*
X152450000Y-68150000D02*
X152500000Y-68100000D01*
X152450000Y-48950000D02*
X152500000Y-48900000D01*
X172500000Y-124900000D02*
X172800000Y-124900000D01*
X114100000Y-125700000D02*
X114900000Y-124900000D01*
X172500000Y-67300000D02*
X172800000Y-67300000D01*
X190850000Y-109700000D02*
X190850000Y-106550000D01*
X133250000Y-109700000D02*
X133250000Y-106550000D01*
X152450000Y-106550000D02*
X152500000Y-106500000D01*
X190850000Y-128900000D02*
X190850000Y-125750000D01*
X190900000Y-106500000D02*
X191700000Y-105700000D01*
X114900000Y-124900000D02*
X115200000Y-124900000D01*
X171650000Y-52100000D02*
X171650000Y-48950000D01*
X152450000Y-109700000D02*
X152450000Y-106550000D01*
X152500000Y-125700000D02*
X153300000Y-124900000D01*
X171650000Y-125750000D02*
X171700000Y-125700000D01*
X152500000Y-87300000D02*
X153300000Y-86500000D01*
X171650000Y-68150000D02*
X171700000Y-68100000D01*
X171700000Y-68100000D02*
X172500000Y-67300000D01*
X171650000Y-71300000D02*
X171650000Y-68150000D01*
X191700000Y-105700000D02*
X192000000Y-105700000D01*
X172500000Y-48100000D02*
X172800000Y-48100000D01*
X152450000Y-71300000D02*
X152450000Y-68150000D01*
X152450000Y-90500000D02*
X152450000Y-87350000D01*
X190850000Y-48950000D02*
X190900000Y-48900000D01*
X114900000Y-86500000D02*
X115200000Y-86500000D01*
X153300000Y-105700000D02*
X153600000Y-105700000D01*
X190850000Y-71300000D02*
X190850000Y-68150000D01*
X190850000Y-52100000D02*
X190850000Y-48950000D01*
X114050000Y-68150000D02*
X114100000Y-68100000D01*
X152500000Y-68100000D02*
X153300000Y-67300000D01*
X133250000Y-128900000D02*
X133250000Y-125750000D01*
X133300000Y-125700000D02*
X134100000Y-124900000D01*
X114100000Y-68100000D02*
X114900000Y-67300000D01*
X153300000Y-86500000D02*
X153600000Y-86500000D01*
X134100000Y-48100000D02*
X134400000Y-48100000D01*
X171650000Y-106550000D02*
X171700000Y-106500000D01*
X152450000Y-52100000D02*
X152450000Y-48950000D01*
X152450000Y-87350000D02*
X152500000Y-87300000D01*
X114100000Y-106500000D02*
X114900000Y-105700000D01*
X133250000Y-87350000D02*
X133300000Y-87300000D01*
X152450000Y-125750000D02*
X152500000Y-125700000D01*
X190900000Y-68100000D02*
X191700000Y-67300000D01*
X133250000Y-106550000D02*
X133300000Y-106500000D01*
X114050000Y-125750000D02*
X114100000Y-125700000D01*
X153300000Y-124900000D02*
X153600000Y-124900000D01*
X114050000Y-128900000D02*
X114050000Y-125750000D01*
X134100000Y-67300000D02*
X134400000Y-67300000D01*
X114050000Y-90500000D02*
X114050000Y-87350000D01*
X114900000Y-48100000D02*
X115200000Y-48100000D01*
X133300000Y-48900000D02*
X134100000Y-48100000D01*
X190900000Y-125700000D02*
X191700000Y-124900000D01*
X133250000Y-68150000D02*
X133300000Y-68100000D01*
X190850000Y-68150000D02*
X190900000Y-68100000D01*
X110050000Y-106450000D02*
X110050000Y-106150000D01*
X129250000Y-67750000D02*
X128700000Y-67200000D01*
X128700000Y-86400000D02*
X128100000Y-86400000D01*
X110050000Y-90350000D02*
X110050000Y-87250000D01*
X148450000Y-67750000D02*
X147900000Y-67200000D01*
X167100000Y-86400000D02*
X166500000Y-86400000D01*
X148450000Y-90350000D02*
X148450000Y-87250000D01*
X167650000Y-125350000D02*
X167100000Y-124800000D01*
X148450000Y-86950000D02*
X147900000Y-86400000D01*
X109500000Y-105600000D02*
X108900000Y-105600000D01*
X167650000Y-109550000D02*
X167650000Y-106450000D01*
X186850000Y-125650000D02*
X186850000Y-125350000D01*
X129250000Y-125650000D02*
X129250000Y-125350000D01*
X129250000Y-48550000D02*
X128700000Y-48000000D01*
X167650000Y-87250000D02*
X167650000Y-86950000D01*
X129250000Y-128750000D02*
X129250000Y-125650000D01*
X129250000Y-106150000D02*
X128700000Y-105600000D01*
X148450000Y-106450000D02*
X148450000Y-106150000D01*
X167100000Y-105600000D02*
X166500000Y-105600000D01*
X129250000Y-87250000D02*
X129250000Y-86950000D01*
X186850000Y-128750000D02*
X186850000Y-125650000D01*
X186850000Y-87250000D02*
X186850000Y-86950000D01*
X167650000Y-71150000D02*
X167650000Y-68050000D01*
X167100000Y-67200000D02*
X166500000Y-67200000D01*
X186850000Y-106150000D02*
X186300000Y-105600000D01*
X148450000Y-68050000D02*
X148450000Y-67750000D01*
X186850000Y-109550000D02*
X186850000Y-106450000D01*
X129250000Y-109550000D02*
X129250000Y-106450000D01*
X110050000Y-48550000D02*
X109500000Y-48000000D01*
X186850000Y-67750000D02*
X186300000Y-67200000D01*
X110050000Y-87250000D02*
X110050000Y-86950000D01*
X148450000Y-125350000D02*
X147900000Y-124800000D01*
X167650000Y-51950000D02*
X167650000Y-48850000D01*
X110050000Y-67750000D02*
X109500000Y-67200000D01*
X186850000Y-51950000D02*
X186850000Y-48850000D01*
X110050000Y-51950000D02*
X110050000Y-48850000D01*
X186300000Y-67200000D02*
X185700000Y-67200000D01*
X167650000Y-86950000D02*
X167100000Y-86400000D01*
X186850000Y-86950000D02*
X186300000Y-86400000D01*
X129250000Y-48850000D02*
X129250000Y-48550000D01*
X167650000Y-106150000D02*
X167100000Y-105600000D01*
X167650000Y-125650000D02*
X167650000Y-125350000D01*
X147900000Y-48000000D02*
X147300000Y-48000000D01*
X148450000Y-71150000D02*
X148450000Y-68050000D01*
X129250000Y-125350000D02*
X128700000Y-124800000D01*
X167100000Y-48000000D02*
X166500000Y-48000000D01*
X167650000Y-48850000D02*
X167650000Y-48550000D01*
X147900000Y-105600000D02*
X147300000Y-105600000D01*
X110050000Y-106150000D02*
X109500000Y-105600000D01*
X167100000Y-124800000D02*
X166500000Y-124800000D01*
X129250000Y-51950000D02*
X129250000Y-48850000D01*
X148450000Y-87250000D02*
X148450000Y-86950000D01*
X109500000Y-86400000D02*
X108900000Y-86400000D01*
X167650000Y-90350000D02*
X167650000Y-87250000D01*
X186300000Y-124800000D02*
X185700000Y-124800000D01*
X110050000Y-71150000D02*
X110050000Y-68050000D01*
X186850000Y-71150000D02*
X186850000Y-68050000D01*
X129250000Y-86950000D02*
X128700000Y-86400000D01*
X186850000Y-125350000D02*
X186300000Y-124800000D01*
X128700000Y-105600000D02*
X128100000Y-105600000D01*
X109500000Y-124800000D02*
X108900000Y-124800000D01*
X186300000Y-105600000D02*
X185700000Y-105600000D01*
X128700000Y-67200000D02*
X128100000Y-67200000D01*
X167650000Y-106450000D02*
X167650000Y-106150000D01*
X147900000Y-67200000D02*
X147300000Y-67200000D01*
X147900000Y-86400000D02*
X147300000Y-86400000D01*
X110050000Y-86950000D02*
X109500000Y-86400000D01*
X109500000Y-67200000D02*
X108900000Y-67200000D01*
X129250000Y-68050000D02*
X129250000Y-67750000D01*
X148450000Y-109550000D02*
X148450000Y-106450000D01*
X148450000Y-128750000D02*
X148450000Y-125650000D01*
X186300000Y-48000000D02*
X185700000Y-48000000D01*
X110050000Y-68050000D02*
X110050000Y-67750000D01*
X148450000Y-48850000D02*
X148450000Y-48550000D01*
X186850000Y-48550000D02*
X186300000Y-48000000D01*
X167650000Y-67750000D02*
X167100000Y-67200000D01*
X110050000Y-125350000D02*
X109500000Y-124800000D01*
X186300000Y-86400000D02*
X185700000Y-86400000D01*
X128700000Y-48000000D02*
X128100000Y-48000000D01*
X167650000Y-128750000D02*
X167650000Y-125650000D01*
X167650000Y-68050000D02*
X167650000Y-67750000D01*
X110050000Y-125650000D02*
X110050000Y-125350000D01*
X129250000Y-106450000D02*
X129250000Y-106150000D01*
X186850000Y-48850000D02*
X186850000Y-48550000D01*
X147900000Y-124800000D02*
X147300000Y-124800000D01*
X129250000Y-71150000D02*
X129250000Y-68050000D01*
X148450000Y-48550000D02*
X147900000Y-48000000D01*
X186850000Y-68050000D02*
X186850000Y-67750000D01*
X110050000Y-109550000D02*
X110050000Y-106450000D01*
X109500000Y-48000000D02*
X108900000Y-48000000D01*
X128700000Y-124800000D02*
X128100000Y-124800000D01*
X186850000Y-106450000D02*
X186850000Y-106150000D01*
X148450000Y-51950000D02*
X148450000Y-48850000D01*
X129250000Y-90350000D02*
X129250000Y-87250000D01*
X186850000Y-90350000D02*
X186850000Y-87250000D01*
X110050000Y-128750000D02*
X110050000Y-125650000D01*
X148450000Y-125650000D02*
X148450000Y-125350000D01*
X110050000Y-48850000D02*
X110050000Y-48550000D01*
X148450000Y-106150000D02*
X147900000Y-105600000D01*
X167650000Y-48550000D02*
X167100000Y-48000000D01*
X131250000Y-68050000D02*
X131250000Y-60300000D01*
X131250000Y-87250000D02*
X131250000Y-79500000D01*
X188850000Y-106450000D02*
X188850000Y-98700000D01*
X150450000Y-106450000D02*
X150450000Y-98700000D01*
X169650000Y-68050000D02*
X169650000Y-60300000D01*
X131250000Y-90450000D02*
X131250000Y-87250000D01*
X150450000Y-90450000D02*
X150450000Y-87250000D01*
X131250000Y-48850000D02*
X131250000Y-41100000D01*
X188850000Y-68050000D02*
X188850000Y-60300000D01*
X169650000Y-90450000D02*
X169650000Y-87250000D01*
X131250000Y-109650000D02*
X131250000Y-106450000D01*
X169650000Y-106450000D02*
X169650000Y-98700000D01*
X150450000Y-87250000D02*
X150450000Y-79500000D01*
X112050000Y-109650000D02*
X112050000Y-106450000D01*
X112050000Y-128850000D02*
X112050000Y-125650000D01*
X169650000Y-128850000D02*
X169650000Y-125650000D01*
X150450000Y-52050000D02*
X150450000Y-48850000D01*
X112050000Y-106450000D02*
X112050000Y-98700000D01*
X169650000Y-125650000D02*
X169650000Y-117900000D01*
X188850000Y-109650000D02*
X188850000Y-106450000D01*
X150450000Y-125650000D02*
X150450000Y-117900000D01*
X169650000Y-109650000D02*
X169650000Y-106450000D01*
X188850000Y-52050000D02*
X188850000Y-48850000D01*
X150450000Y-71250000D02*
X150450000Y-68050000D01*
X131250000Y-106450000D02*
X131250000Y-98700000D01*
X131250000Y-52050000D02*
X131250000Y-48850000D01*
X188850000Y-71250000D02*
X188850000Y-68050000D01*
X131250000Y-128850000D02*
X131250000Y-125650000D01*
X150450000Y-109650000D02*
X150450000Y-106450000D01*
X169650000Y-87250000D02*
X169650000Y-79500000D01*
X169650000Y-48850000D02*
X169650000Y-41100000D01*
X188850000Y-87250000D02*
X188850000Y-79500000D01*
X150450000Y-128850000D02*
X150450000Y-125650000D01*
X188850000Y-48850000D02*
X188850000Y-41100000D01*
X188850000Y-90450000D02*
X188850000Y-87250000D01*
X150450000Y-68050000D02*
X150450000Y-60300000D01*
X188850000Y-128850000D02*
X188850000Y-125650000D01*
X188850000Y-125650000D02*
X188850000Y-117900000D01*
X112050000Y-68050000D02*
X112050000Y-60300000D01*
X150450000Y-48850000D02*
X150450000Y-41100000D01*
X169650000Y-52050000D02*
X169650000Y-48850000D01*
X112050000Y-48850000D02*
X112050000Y-41100000D01*
X112050000Y-71250000D02*
X112050000Y-68050000D01*
X112050000Y-87250000D02*
X112050000Y-79500000D01*
X112050000Y-52050000D02*
X112050000Y-48850000D01*
X169650000Y-71250000D02*
X169650000Y-68050000D01*
X112050000Y-90450000D02*
X112050000Y-87250000D01*
X131250000Y-71250000D02*
X131250000Y-68050000D01*
X131250000Y-125650000D02*
X131250000Y-117900000D01*
X112050000Y-125650000D02*
X112050000Y-117900000D01*
G04 #@! TA.AperFunction,Conductor*
G36*
X145299788Y-64722273D02*
G01*
X147105516Y-65530099D01*
X147158673Y-65575444D01*
X147169031Y-65594860D01*
X147830420Y-67153849D01*
X147838481Y-67223252D01*
X147832003Y-67246790D01*
X147119306Y-69099802D01*
X147076868Y-69155307D01*
X147050158Y-69170205D01*
X145296275Y-69881239D01*
X145226752Y-69888183D01*
X145203636Y-69881454D01*
X143546628Y-69218651D01*
X143491694Y-69175477D01*
X143479491Y-69154157D01*
X143477631Y-69150000D01*
X142671872Y-67348890D01*
X142662463Y-67279657D01*
X142670597Y-67250565D01*
X143380734Y-65546237D01*
X143424688Y-65491927D01*
X143445972Y-65480119D01*
X145199937Y-64721648D01*
X145269281Y-64713108D01*
X145299788Y-64722273D01*
G37*
G04 #@! TD.AperFunction*
G04 #@! TA.AperFunction,Conductor*
G36*
X126099788Y-83922273D02*
G01*
X127905516Y-84730099D01*
X127958673Y-84775444D01*
X127969031Y-84794860D01*
X128630420Y-86353849D01*
X128638481Y-86423252D01*
X128632003Y-86446790D01*
X127919306Y-88299802D01*
X127876868Y-88355307D01*
X127850158Y-88370205D01*
X126096275Y-89081239D01*
X126026752Y-89088183D01*
X126003636Y-89081454D01*
X124346628Y-88418651D01*
X124291694Y-88375477D01*
X124279491Y-88354157D01*
X124277631Y-88350000D01*
X123471872Y-86548890D01*
X123462463Y-86479657D01*
X123470597Y-86450565D01*
X124180734Y-84746237D01*
X124224688Y-84691927D01*
X124245972Y-84680119D01*
X125999937Y-83921648D01*
X126069281Y-83913108D01*
X126099788Y-83922273D01*
G37*
G04 #@! TD.AperFunction*
G04 #@! TA.AperFunction,Conductor*
G36*
X169699788Y-94122273D02*
G01*
X171505516Y-94930099D01*
X171558673Y-94975444D01*
X171569031Y-94994860D01*
X172230420Y-96553849D01*
X172238481Y-96623252D01*
X172232003Y-96646790D01*
X171519306Y-98499802D01*
X171476868Y-98555307D01*
X171450158Y-98570205D01*
X169696275Y-99281239D01*
X169626752Y-99288183D01*
X169603636Y-99281454D01*
X167946628Y-98618651D01*
X167891694Y-98575477D01*
X167879491Y-98554157D01*
X167877631Y-98550000D01*
X167071872Y-96748890D01*
X167062463Y-96679657D01*
X167070597Y-96650565D01*
X167780734Y-94946237D01*
X167824688Y-94891927D01*
X167845972Y-94880119D01*
X169599937Y-94121648D01*
X169669281Y-94113108D01*
X169699788Y-94122273D01*
G37*
G04 #@! TD.AperFunction*
G04 #@! TA.AperFunction,Conductor*
G36*
X169699788Y-36522273D02*
G01*
X171505516Y-37330099D01*
X171558673Y-37375444D01*
X171569031Y-37394860D01*
X172230420Y-38953849D01*
X172238481Y-39023252D01*
X172232003Y-39046790D01*
X171519306Y-40899802D01*
X171476868Y-40955307D01*
X171450158Y-40970205D01*
X169696275Y-41681239D01*
X169626752Y-41688183D01*
X169603636Y-41681454D01*
X167946628Y-41018651D01*
X167891694Y-40975477D01*
X167879491Y-40954157D01*
X167877631Y-40950000D01*
X167071872Y-39148890D01*
X167062463Y-39079657D01*
X167070597Y-39050565D01*
X167780734Y-37346237D01*
X167824688Y-37291927D01*
X167845972Y-37280119D01*
X169599937Y-36521648D01*
X169669281Y-36513108D01*
X169699788Y-36522273D01*
G37*
G04 #@! TD.AperFunction*
G04 #@! TA.AperFunction,Conductor*
G36*
X117299788Y-45522273D02*
G01*
X119105516Y-46330099D01*
X119158673Y-46375444D01*
X119169031Y-46394860D01*
X119830420Y-47953849D01*
X119838481Y-48023252D01*
X119832003Y-48046790D01*
X119119306Y-49899802D01*
X119076868Y-49955307D01*
X119050158Y-49970205D01*
X117296275Y-50681239D01*
X117226752Y-50688183D01*
X117203636Y-50681454D01*
X115546628Y-50018651D01*
X115491694Y-49975477D01*
X115479491Y-49954157D01*
X115477631Y-49950000D01*
X114671872Y-48148890D01*
X114662463Y-48079657D01*
X114670597Y-48050565D01*
X115380734Y-46346237D01*
X115424688Y-46291927D01*
X115445972Y-46280119D01*
X117199937Y-45521648D01*
X117269281Y-45513108D01*
X117299788Y-45522273D01*
G37*
G04 #@! TD.AperFunction*
G04 #@! TA.AperFunction,Conductor*
G36*
X155699788Y-45522273D02*
G01*
X157505516Y-46330099D01*
X157558673Y-46375444D01*
X157569031Y-46394860D01*
X158230420Y-47953849D01*
X158238481Y-48023252D01*
X158232003Y-48046790D01*
X157519306Y-49899802D01*
X157476868Y-49955307D01*
X157450158Y-49970205D01*
X155696275Y-50681239D01*
X155626752Y-50688183D01*
X155603636Y-50681454D01*
X153946628Y-50018651D01*
X153891694Y-49975477D01*
X153879491Y-49954157D01*
X153877631Y-49950000D01*
X153071872Y-48148890D01*
X153062463Y-48079657D01*
X153070597Y-48050565D01*
X153780734Y-46346237D01*
X153824688Y-46291927D01*
X153845972Y-46280119D01*
X155599937Y-45521648D01*
X155669281Y-45513108D01*
X155699788Y-45522273D01*
G37*
G04 #@! TD.AperFunction*
G04 #@! TA.AperFunction,Conductor*
G36*
X194099788Y-64722273D02*
G01*
X195905516Y-65530099D01*
X195958673Y-65575444D01*
X195969031Y-65594860D01*
X196630420Y-67153849D01*
X196638481Y-67223252D01*
X196632003Y-67246790D01*
X195919306Y-69099802D01*
X195876868Y-69155307D01*
X195850158Y-69170205D01*
X194096275Y-69881239D01*
X194026752Y-69888183D01*
X194003636Y-69881454D01*
X192346628Y-69218651D01*
X192291694Y-69175477D01*
X192279491Y-69154157D01*
X192277631Y-69150000D01*
X191471872Y-67348890D01*
X191462463Y-67279657D01*
X191470597Y-67250565D01*
X192180734Y-65546237D01*
X192224688Y-65491927D01*
X192245972Y-65480119D01*
X193999937Y-64721648D01*
X194069281Y-64713108D01*
X194099788Y-64722273D01*
G37*
G04 #@! TD.AperFunction*
G04 #@! TA.AperFunction,Conductor*
G36*
X183699788Y-64722273D02*
G01*
X185505516Y-65530099D01*
X185558673Y-65575444D01*
X185569031Y-65594860D01*
X186230420Y-67153849D01*
X186238481Y-67223252D01*
X186232003Y-67246790D01*
X185519306Y-69099802D01*
X185476868Y-69155307D01*
X185450158Y-69170205D01*
X183696275Y-69881239D01*
X183626752Y-69888183D01*
X183603636Y-69881454D01*
X181946628Y-69218651D01*
X181891694Y-69175477D01*
X181879491Y-69154157D01*
X181877631Y-69150000D01*
X181071872Y-67348890D01*
X181062463Y-67279657D01*
X181070597Y-67250565D01*
X181780734Y-65546237D01*
X181824688Y-65491927D01*
X181845972Y-65480119D01*
X183599937Y-64721648D01*
X183669281Y-64713108D01*
X183699788Y-64722273D01*
G37*
G04 #@! TD.AperFunction*
G04 #@! TA.AperFunction,Conductor*
G36*
X155699788Y-122322273D02*
G01*
X157505516Y-123130099D01*
X157558673Y-123175444D01*
X157569031Y-123194860D01*
X158230420Y-124753849D01*
X158238481Y-124823252D01*
X158232003Y-124846790D01*
X157519306Y-126699802D01*
X157476868Y-126755307D01*
X157450158Y-126770205D01*
X155696275Y-127481239D01*
X155626752Y-127488183D01*
X155603636Y-127481454D01*
X153946628Y-126818651D01*
X153891694Y-126775477D01*
X153879491Y-126754157D01*
X153877631Y-126750000D01*
X153071872Y-124948890D01*
X153062463Y-124879657D01*
X153070597Y-124850565D01*
X153780734Y-123146237D01*
X153824688Y-123091927D01*
X153845972Y-123080119D01*
X155599937Y-122321648D01*
X155669281Y-122313108D01*
X155699788Y-122322273D01*
G37*
G04 #@! TD.AperFunction*
G04 #@! TA.AperFunction,Conductor*
G36*
X136499788Y-64722273D02*
G01*
X138305516Y-65530099D01*
X138358673Y-65575444D01*
X138369031Y-65594860D01*
X139030420Y-67153849D01*
X139038481Y-67223252D01*
X139032003Y-67246790D01*
X138319306Y-69099802D01*
X138276868Y-69155307D01*
X138250158Y-69170205D01*
X136496275Y-69881239D01*
X136426752Y-69888183D01*
X136403636Y-69881454D01*
X134746628Y-69218651D01*
X134691694Y-69175477D01*
X134679491Y-69154157D01*
X134677631Y-69150000D01*
X133871872Y-67348890D01*
X133862463Y-67279657D01*
X133870597Y-67250565D01*
X134580734Y-65546237D01*
X134624688Y-65491927D01*
X134645972Y-65480119D01*
X136399937Y-64721648D01*
X136469281Y-64713108D01*
X136499788Y-64722273D01*
G37*
G04 #@! TD.AperFunction*
G04 #@! TA.AperFunction,Conductor*
G36*
X117299788Y-64722273D02*
G01*
X119105516Y-65530099D01*
X119158673Y-65575444D01*
X119169031Y-65594860D01*
X119830420Y-67153849D01*
X119838481Y-67223252D01*
X119832003Y-67246790D01*
X119119306Y-69099802D01*
X119076868Y-69155307D01*
X119050158Y-69170205D01*
X117296275Y-69881239D01*
X117226752Y-69888183D01*
X117203636Y-69881454D01*
X115546628Y-69218651D01*
X115491694Y-69175477D01*
X115479491Y-69154157D01*
X115477631Y-69150000D01*
X114671872Y-67348890D01*
X114662463Y-67279657D01*
X114670597Y-67250565D01*
X115380734Y-65546237D01*
X115424688Y-65491927D01*
X115445972Y-65480119D01*
X117199937Y-64721648D01*
X117269281Y-64713108D01*
X117299788Y-64722273D01*
G37*
G04 #@! TD.AperFunction*
G04 #@! TA.AperFunction,Conductor*
G36*
X188899788Y-74922273D02*
G01*
X190705516Y-75730099D01*
X190758673Y-75775444D01*
X190769031Y-75794860D01*
X191430420Y-77353849D01*
X191438481Y-77423252D01*
X191432003Y-77446790D01*
X190719306Y-79299802D01*
X190676868Y-79355307D01*
X190650158Y-79370205D01*
X188896275Y-80081239D01*
X188826752Y-80088183D01*
X188803636Y-80081454D01*
X187146628Y-79418651D01*
X187091694Y-79375477D01*
X187079491Y-79354157D01*
X187077631Y-79350000D01*
X186271872Y-77548890D01*
X186262463Y-77479657D01*
X186270597Y-77450565D01*
X186980734Y-75746237D01*
X187024688Y-75691927D01*
X187045972Y-75680119D01*
X188799937Y-74921648D01*
X188869281Y-74913108D01*
X188899788Y-74922273D01*
G37*
G04 #@! TD.AperFunction*
G04 #@! TA.AperFunction,Conductor*
G36*
X194099788Y-83922273D02*
G01*
X195905516Y-84730099D01*
X195958673Y-84775444D01*
X195969031Y-84794860D01*
X196630420Y-86353849D01*
X196638481Y-86423252D01*
X196632003Y-86446790D01*
X195919306Y-88299802D01*
X195876868Y-88355307D01*
X195850158Y-88370205D01*
X194096275Y-89081239D01*
X194026752Y-89088183D01*
X194003636Y-89081454D01*
X192346628Y-88418651D01*
X192291694Y-88375477D01*
X192279491Y-88354157D01*
X192277631Y-88350000D01*
X191471872Y-86548890D01*
X191462463Y-86479657D01*
X191470597Y-86450565D01*
X192180734Y-84746237D01*
X192224688Y-84691927D01*
X192245972Y-84680119D01*
X193999937Y-83921648D01*
X194069281Y-83913108D01*
X194099788Y-83922273D01*
G37*
G04 #@! TD.AperFunction*
G04 #@! TA.AperFunction,Conductor*
G36*
X136499788Y-103122273D02*
G01*
X138305516Y-103930099D01*
X138358673Y-103975444D01*
X138369031Y-103994860D01*
X139030420Y-105553849D01*
X139038481Y-105623252D01*
X139032003Y-105646790D01*
X138319306Y-107499802D01*
X138276868Y-107555307D01*
X138250158Y-107570205D01*
X136496275Y-108281239D01*
X136426752Y-108288183D01*
X136403636Y-108281454D01*
X134746628Y-107618651D01*
X134691694Y-107575477D01*
X134679491Y-107554157D01*
X134677631Y-107550000D01*
X133871872Y-105748890D01*
X133862463Y-105679657D01*
X133870597Y-105650565D01*
X134580734Y-103946237D01*
X134624688Y-103891927D01*
X134645972Y-103880119D01*
X136399937Y-103121648D01*
X136469281Y-103113108D01*
X136499788Y-103122273D01*
G37*
G04 #@! TD.AperFunction*
G04 #@! TA.AperFunction,Conductor*
G36*
X183699788Y-103122273D02*
G01*
X185505516Y-103930099D01*
X185558673Y-103975444D01*
X185569031Y-103994860D01*
X186230420Y-105553849D01*
X186238481Y-105623252D01*
X186232003Y-105646790D01*
X185519306Y-107499802D01*
X185476868Y-107555307D01*
X185450158Y-107570205D01*
X183696275Y-108281239D01*
X183626752Y-108288183D01*
X183603636Y-108281454D01*
X181946628Y-107618651D01*
X181891694Y-107575477D01*
X181879491Y-107554157D01*
X181877631Y-107550000D01*
X181071872Y-105748890D01*
X181062463Y-105679657D01*
X181070597Y-105650565D01*
X181780734Y-103946237D01*
X181824688Y-103891927D01*
X181845972Y-103880119D01*
X183599937Y-103121648D01*
X183669281Y-103113108D01*
X183699788Y-103122273D01*
G37*
G04 #@! TD.AperFunction*
G04 #@! TA.AperFunction,Conductor*
G36*
X126099788Y-64722273D02*
G01*
X127905516Y-65530099D01*
X127958673Y-65575444D01*
X127969031Y-65594860D01*
X128630420Y-67153849D01*
X128638481Y-67223252D01*
X128632003Y-67246790D01*
X127919306Y-69099802D01*
X127876868Y-69155307D01*
X127850158Y-69170205D01*
X126096275Y-69881239D01*
X126026752Y-69888183D01*
X126003636Y-69881454D01*
X124346628Y-69218651D01*
X124291694Y-69175477D01*
X124279491Y-69154157D01*
X124277631Y-69150000D01*
X123471872Y-67348890D01*
X123462463Y-67279657D01*
X123470597Y-67250565D01*
X124180734Y-65546237D01*
X124224688Y-65491927D01*
X124245972Y-65480119D01*
X125999937Y-64721648D01*
X126069281Y-64713108D01*
X126099788Y-64722273D01*
G37*
G04 #@! TD.AperFunction*
G04 #@! TA.AperFunction,Conductor*
G36*
X169699788Y-74922273D02*
G01*
X171505516Y-75730099D01*
X171558673Y-75775444D01*
X171569031Y-75794860D01*
X172230420Y-77353849D01*
X172238481Y-77423252D01*
X172232003Y-77446790D01*
X171519306Y-79299802D01*
X171476868Y-79355307D01*
X171450158Y-79370205D01*
X169696275Y-80081239D01*
X169626752Y-80088183D01*
X169603636Y-80081454D01*
X167946628Y-79418651D01*
X167891694Y-79375477D01*
X167879491Y-79354157D01*
X167877631Y-79350000D01*
X167071872Y-77548890D01*
X167062463Y-77479657D01*
X167070597Y-77450565D01*
X167780734Y-75746237D01*
X167824688Y-75691927D01*
X167845972Y-75680119D01*
X169599937Y-74921648D01*
X169669281Y-74913108D01*
X169699788Y-74922273D01*
G37*
G04 #@! TD.AperFunction*
G04 #@! TA.AperFunction,Conductor*
G36*
X164499788Y-103122273D02*
G01*
X166305516Y-103930099D01*
X166358673Y-103975444D01*
X166369031Y-103994860D01*
X167030420Y-105553849D01*
X167038481Y-105623252D01*
X167032003Y-105646790D01*
X166319306Y-107499802D01*
X166276868Y-107555307D01*
X166250158Y-107570205D01*
X164496275Y-108281239D01*
X164426752Y-108288183D01*
X164403636Y-108281454D01*
X162746628Y-107618651D01*
X162691694Y-107575477D01*
X162679491Y-107554157D01*
X162677631Y-107550000D01*
X161871872Y-105748890D01*
X161862463Y-105679657D01*
X161870597Y-105650565D01*
X162580734Y-103946237D01*
X162624688Y-103891927D01*
X162645972Y-103880119D01*
X164399937Y-103121648D01*
X164469281Y-103113108D01*
X164499788Y-103122273D01*
G37*
G04 #@! TD.AperFunction*
G04 #@! TA.AperFunction,Conductor*
G36*
X131299788Y-36522273D02*
G01*
X133105516Y-37330099D01*
X133158673Y-37375444D01*
X133169031Y-37394860D01*
X133830420Y-38953849D01*
X133838481Y-39023252D01*
X133832003Y-39046790D01*
X133119306Y-40899802D01*
X133076868Y-40955307D01*
X133050158Y-40970205D01*
X131296275Y-41681239D01*
X131226752Y-41688183D01*
X131203636Y-41681454D01*
X129546628Y-41018651D01*
X129491694Y-40975477D01*
X129479491Y-40954157D01*
X129477631Y-40950000D01*
X128671872Y-39148890D01*
X128662463Y-39079657D01*
X128670597Y-39050565D01*
X129380734Y-37346237D01*
X129424688Y-37291927D01*
X129445972Y-37280119D01*
X131199937Y-36521648D01*
X131269281Y-36513108D01*
X131299788Y-36522273D01*
G37*
G04 #@! TD.AperFunction*
G04 #@! TA.AperFunction,Conductor*
G36*
X117299788Y-122322273D02*
G01*
X119105516Y-123130099D01*
X119158673Y-123175444D01*
X119169031Y-123194860D01*
X119830420Y-124753849D01*
X119838481Y-124823252D01*
X119832003Y-124846790D01*
X119119306Y-126699802D01*
X119076868Y-126755307D01*
X119050158Y-126770205D01*
X117296275Y-127481239D01*
X117226752Y-127488183D01*
X117203636Y-127481454D01*
X115546628Y-126818651D01*
X115491694Y-126775477D01*
X115479491Y-126754157D01*
X115477631Y-126750000D01*
X114671872Y-124948890D01*
X114662463Y-124879657D01*
X114670597Y-124850565D01*
X115380734Y-123146237D01*
X115424688Y-123091927D01*
X115445972Y-123080119D01*
X117199937Y-122321648D01*
X117269281Y-122313108D01*
X117299788Y-122322273D01*
G37*
G04 #@! TD.AperFunction*
G04 #@! TA.AperFunction,Conductor*
G36*
X150499788Y-113322273D02*
G01*
X152305516Y-114130099D01*
X152358673Y-114175444D01*
X152369031Y-114194860D01*
X153030420Y-115753849D01*
X153038481Y-115823252D01*
X153032003Y-115846790D01*
X152319306Y-117699802D01*
X152276868Y-117755307D01*
X152250158Y-117770205D01*
X150496275Y-118481239D01*
X150426752Y-118488183D01*
X150403636Y-118481454D01*
X148746628Y-117818651D01*
X148691694Y-117775477D01*
X148679491Y-117754157D01*
X148677631Y-117750000D01*
X147871872Y-115948890D01*
X147862463Y-115879657D01*
X147870597Y-115850565D01*
X148580734Y-114146237D01*
X148624688Y-114091927D01*
X148645972Y-114080119D01*
X150399937Y-113321648D01*
X150469281Y-113313108D01*
X150499788Y-113322273D01*
G37*
G04 #@! TD.AperFunction*
G04 #@! TA.AperFunction,Conductor*
G36*
X126099788Y-122322273D02*
G01*
X127905516Y-123130099D01*
X127958673Y-123175444D01*
X127969031Y-123194860D01*
X128630420Y-124753849D01*
X128638481Y-124823252D01*
X128632003Y-124846790D01*
X127919306Y-126699802D01*
X127876868Y-126755307D01*
X127850158Y-126770205D01*
X126096275Y-127481239D01*
X126026752Y-127488183D01*
X126003636Y-127481454D01*
X124346628Y-126818651D01*
X124291694Y-126775477D01*
X124279491Y-126754157D01*
X124277631Y-126750000D01*
X123471872Y-124948890D01*
X123462463Y-124879657D01*
X123470597Y-124850565D01*
X124180734Y-123146237D01*
X124224688Y-123091927D01*
X124245972Y-123080119D01*
X125999937Y-122321648D01*
X126069281Y-122313108D01*
X126099788Y-122322273D01*
G37*
G04 #@! TD.AperFunction*
G04 #@! TA.AperFunction,Conductor*
G36*
X106899788Y-45522273D02*
G01*
X108705516Y-46330099D01*
X108758673Y-46375444D01*
X108769031Y-46394860D01*
X109430420Y-47953849D01*
X109438481Y-48023252D01*
X109432003Y-48046790D01*
X108719306Y-49899802D01*
X108676868Y-49955307D01*
X108650158Y-49970205D01*
X106896275Y-50681239D01*
X106826752Y-50688183D01*
X106803636Y-50681454D01*
X105146628Y-50018651D01*
X105091694Y-49975477D01*
X105079491Y-49954157D01*
X105077631Y-49950000D01*
X104271872Y-48148890D01*
X104262463Y-48079657D01*
X104270597Y-48050565D01*
X104980734Y-46346237D01*
X105024688Y-46291927D01*
X105045972Y-46280119D01*
X106799937Y-45521648D01*
X106869281Y-45513108D01*
X106899788Y-45522273D01*
G37*
G04 #@! TD.AperFunction*
G04 #@! TA.AperFunction,Conductor*
G36*
X136499788Y-83922273D02*
G01*
X138305516Y-84730099D01*
X138358673Y-84775444D01*
X138369031Y-84794860D01*
X139030420Y-86353849D01*
X139038481Y-86423252D01*
X139032003Y-86446790D01*
X138319306Y-88299802D01*
X138276868Y-88355307D01*
X138250158Y-88370205D01*
X136496275Y-89081239D01*
X136426752Y-89088183D01*
X136403636Y-89081454D01*
X134746628Y-88418651D01*
X134691694Y-88375477D01*
X134679491Y-88354157D01*
X134677631Y-88350000D01*
X133871872Y-86548890D01*
X133862463Y-86479657D01*
X133870597Y-86450565D01*
X134580734Y-84746237D01*
X134624688Y-84691927D01*
X134645972Y-84680119D01*
X136399937Y-83921648D01*
X136469281Y-83913108D01*
X136499788Y-83922273D01*
G37*
G04 #@! TD.AperFunction*
G04 #@! TA.AperFunction,Conductor*
G36*
X112099788Y-55722273D02*
G01*
X113905516Y-56530099D01*
X113958673Y-56575444D01*
X113969031Y-56594860D01*
X114630420Y-58153849D01*
X114638481Y-58223252D01*
X114632003Y-58246790D01*
X113919306Y-60099802D01*
X113876868Y-60155307D01*
X113850158Y-60170205D01*
X112096275Y-60881239D01*
X112026752Y-60888183D01*
X112003636Y-60881454D01*
X110346628Y-60218651D01*
X110291694Y-60175477D01*
X110279491Y-60154157D01*
X110277631Y-60150000D01*
X109471872Y-58348890D01*
X109462463Y-58279657D01*
X109470597Y-58250565D01*
X110180734Y-56546237D01*
X110224688Y-56491927D01*
X110245972Y-56480119D01*
X111999937Y-55721648D01*
X112069281Y-55713108D01*
X112099788Y-55722273D01*
G37*
G04 #@! TD.AperFunction*
G04 #@! TA.AperFunction,Conductor*
G36*
X174899788Y-122322273D02*
G01*
X176705516Y-123130099D01*
X176758673Y-123175444D01*
X176769031Y-123194860D01*
X177430420Y-124753849D01*
X177438481Y-124823252D01*
X177432003Y-124846790D01*
X176719306Y-126699802D01*
X176676868Y-126755307D01*
X176650158Y-126770205D01*
X174896275Y-127481239D01*
X174826752Y-127488183D01*
X174803636Y-127481454D01*
X173146628Y-126818651D01*
X173091694Y-126775477D01*
X173079491Y-126754157D01*
X173077631Y-126750000D01*
X172271872Y-124948890D01*
X172262463Y-124879657D01*
X172270597Y-124850565D01*
X172980734Y-123146237D01*
X173024688Y-123091927D01*
X173045972Y-123080119D01*
X174799937Y-122321648D01*
X174869281Y-122313108D01*
X174899788Y-122322273D01*
G37*
G04 #@! TD.AperFunction*
G04 #@! TA.AperFunction,Conductor*
G36*
X194099788Y-45522273D02*
G01*
X195905516Y-46330099D01*
X195958673Y-46375444D01*
X195969031Y-46394860D01*
X196630420Y-47953849D01*
X196638481Y-48023252D01*
X196632003Y-48046790D01*
X195919306Y-49899802D01*
X195876868Y-49955307D01*
X195850158Y-49970205D01*
X194096275Y-50681239D01*
X194026752Y-50688183D01*
X194003636Y-50681454D01*
X192346628Y-50018651D01*
X192291694Y-49975477D01*
X192279491Y-49954157D01*
X192277631Y-49950000D01*
X191471872Y-48148890D01*
X191462463Y-48079657D01*
X191470597Y-48050565D01*
X192180734Y-46346237D01*
X192224688Y-46291927D01*
X192245972Y-46280119D01*
X193999937Y-45521648D01*
X194069281Y-45513108D01*
X194099788Y-45522273D01*
G37*
G04 #@! TD.AperFunction*
G04 #@! TA.AperFunction,Conductor*
G36*
X106899788Y-122322273D02*
G01*
X108705516Y-123130099D01*
X108758673Y-123175444D01*
X108769031Y-123194860D01*
X109430420Y-124753849D01*
X109438481Y-124823252D01*
X109432003Y-124846790D01*
X108719306Y-126699802D01*
X108676868Y-126755307D01*
X108650158Y-126770205D01*
X106896275Y-127481239D01*
X106826752Y-127488183D01*
X106803636Y-127481454D01*
X105146628Y-126818651D01*
X105091694Y-126775477D01*
X105079491Y-126754157D01*
X105077631Y-126750000D01*
X104271872Y-124948890D01*
X104262463Y-124879657D01*
X104270597Y-124850565D01*
X104980734Y-123146237D01*
X105024688Y-123091927D01*
X105045972Y-123080119D01*
X106799937Y-122321648D01*
X106869281Y-122313108D01*
X106899788Y-122322273D01*
G37*
G04 #@! TD.AperFunction*
G04 #@! TA.AperFunction,Conductor*
G36*
X155699788Y-103122273D02*
G01*
X157505516Y-103930099D01*
X157558673Y-103975444D01*
X157569031Y-103994860D01*
X158230420Y-105553849D01*
X158238481Y-105623252D01*
X158232003Y-105646790D01*
X157519306Y-107499802D01*
X157476868Y-107555307D01*
X157450158Y-107570205D01*
X155696275Y-108281239D01*
X155626752Y-108288183D01*
X155603636Y-108281454D01*
X153946628Y-107618651D01*
X153891694Y-107575477D01*
X153879491Y-107554157D01*
X153877631Y-107550000D01*
X153071872Y-105748890D01*
X153062463Y-105679657D01*
X153070597Y-105650565D01*
X153780734Y-103946237D01*
X153824688Y-103891927D01*
X153845972Y-103880119D01*
X155599937Y-103121648D01*
X155669281Y-103113108D01*
X155699788Y-103122273D01*
G37*
G04 #@! TD.AperFunction*
G04 #@! TA.AperFunction,Conductor*
G36*
X136499788Y-45522273D02*
G01*
X138305516Y-46330099D01*
X138358673Y-46375444D01*
X138369031Y-46394860D01*
X139030420Y-47953849D01*
X139038481Y-48023252D01*
X139032003Y-48046790D01*
X138319306Y-49899802D01*
X138276868Y-49955307D01*
X138250158Y-49970205D01*
X136496275Y-50681239D01*
X136426752Y-50688183D01*
X136403636Y-50681454D01*
X134746628Y-50018651D01*
X134691694Y-49975477D01*
X134679491Y-49954157D01*
X134677631Y-49950000D01*
X133871872Y-48148890D01*
X133862463Y-48079657D01*
X133870597Y-48050565D01*
X134580734Y-46346237D01*
X134624688Y-46291927D01*
X134645972Y-46280119D01*
X136399937Y-45521648D01*
X136469281Y-45513108D01*
X136499788Y-45522273D01*
G37*
G04 #@! TD.AperFunction*
G04 #@! TA.AperFunction,Conductor*
G36*
X188899788Y-36522273D02*
G01*
X190705516Y-37330099D01*
X190758673Y-37375444D01*
X190769031Y-37394860D01*
X191430420Y-38953849D01*
X191438481Y-39023252D01*
X191432003Y-39046790D01*
X190719306Y-40899802D01*
X190676868Y-40955307D01*
X190650158Y-40970205D01*
X188896275Y-41681239D01*
X188826752Y-41688183D01*
X188803636Y-41681454D01*
X187146628Y-41018651D01*
X187091694Y-40975477D01*
X187079491Y-40954157D01*
X187077631Y-40950000D01*
X186271872Y-39148890D01*
X186262463Y-39079657D01*
X186270597Y-39050565D01*
X186980734Y-37346237D01*
X187024688Y-37291927D01*
X187045972Y-37280119D01*
X188799937Y-36521648D01*
X188869281Y-36513108D01*
X188899788Y-36522273D01*
G37*
G04 #@! TD.AperFunction*
G04 #@! TA.AperFunction,Conductor*
G36*
X169699788Y-113322273D02*
G01*
X171505516Y-114130099D01*
X171558673Y-114175444D01*
X171569031Y-114194860D01*
X172230420Y-115753849D01*
X172238481Y-115823252D01*
X172232003Y-115846790D01*
X171519306Y-117699802D01*
X171476868Y-117755307D01*
X171450158Y-117770205D01*
X169696275Y-118481239D01*
X169626752Y-118488183D01*
X169603636Y-118481454D01*
X167946628Y-117818651D01*
X167891694Y-117775477D01*
X167879491Y-117754157D01*
X167877631Y-117750000D01*
X167071872Y-115948890D01*
X167062463Y-115879657D01*
X167070597Y-115850565D01*
X167780734Y-114146237D01*
X167824688Y-114091927D01*
X167845972Y-114080119D01*
X169599937Y-113321648D01*
X169669281Y-113313108D01*
X169699788Y-113322273D01*
G37*
G04 #@! TD.AperFunction*
G04 #@! TA.AperFunction,Conductor*
G36*
X136499788Y-122322273D02*
G01*
X138305516Y-123130099D01*
X138358673Y-123175444D01*
X138369031Y-123194860D01*
X139030420Y-124753849D01*
X139038481Y-124823252D01*
X139032003Y-124846790D01*
X138319306Y-126699802D01*
X138276868Y-126755307D01*
X138250158Y-126770205D01*
X136496275Y-127481239D01*
X136426752Y-127488183D01*
X136403636Y-127481454D01*
X134746628Y-126818651D01*
X134691694Y-126775477D01*
X134679491Y-126754157D01*
X134677631Y-126750000D01*
X133871872Y-124948890D01*
X133862463Y-124879657D01*
X133870597Y-124850565D01*
X134580734Y-123146237D01*
X134624688Y-123091927D01*
X134645972Y-123080119D01*
X136399937Y-122321648D01*
X136469281Y-122313108D01*
X136499788Y-122322273D01*
G37*
G04 #@! TD.AperFunction*
G04 #@! TA.AperFunction,Conductor*
G36*
X155699788Y-83922273D02*
G01*
X157505516Y-84730099D01*
X157558673Y-84775444D01*
X157569031Y-84794860D01*
X158230420Y-86353849D01*
X158238481Y-86423252D01*
X158232003Y-86446790D01*
X157519306Y-88299802D01*
X157476868Y-88355307D01*
X157450158Y-88370205D01*
X155696275Y-89081239D01*
X155626752Y-89088183D01*
X155603636Y-89081454D01*
X153946628Y-88418651D01*
X153891694Y-88375477D01*
X153879491Y-88354157D01*
X153877631Y-88350000D01*
X153071872Y-86548890D01*
X153062463Y-86479657D01*
X153070597Y-86450565D01*
X153780734Y-84746237D01*
X153824688Y-84691927D01*
X153845972Y-84680119D01*
X155599937Y-83921648D01*
X155669281Y-83913108D01*
X155699788Y-83922273D01*
G37*
G04 #@! TD.AperFunction*
G04 #@! TA.AperFunction,Conductor*
G36*
X131299788Y-94122273D02*
G01*
X133105516Y-94930099D01*
X133158673Y-94975444D01*
X133169031Y-94994860D01*
X133830420Y-96553849D01*
X133838481Y-96623252D01*
X133832003Y-96646790D01*
X133119306Y-98499802D01*
X133076868Y-98555307D01*
X133050158Y-98570205D01*
X131296275Y-99281239D01*
X131226752Y-99288183D01*
X131203636Y-99281454D01*
X129546628Y-98618651D01*
X129491694Y-98575477D01*
X129479491Y-98554157D01*
X129477631Y-98550000D01*
X128671872Y-96748890D01*
X128662463Y-96679657D01*
X128670597Y-96650565D01*
X129380734Y-94946237D01*
X129424688Y-94891927D01*
X129445972Y-94880119D01*
X131199937Y-94121648D01*
X131269281Y-94113108D01*
X131299788Y-94122273D01*
G37*
G04 #@! TD.AperFunction*
G04 #@! TA.AperFunction,Conductor*
G36*
X194099788Y-103122273D02*
G01*
X195905516Y-103930099D01*
X195958673Y-103975444D01*
X195969031Y-103994860D01*
X196630420Y-105553849D01*
X196638481Y-105623252D01*
X196632003Y-105646790D01*
X195919306Y-107499802D01*
X195876868Y-107555307D01*
X195850158Y-107570205D01*
X194096275Y-108281239D01*
X194026752Y-108288183D01*
X194003636Y-108281454D01*
X192346628Y-107618651D01*
X192291694Y-107575477D01*
X192279491Y-107554157D01*
X192277631Y-107550000D01*
X191471872Y-105748890D01*
X191462463Y-105679657D01*
X191470597Y-105650565D01*
X192180734Y-103946237D01*
X192224688Y-103891927D01*
X192245972Y-103880119D01*
X193999937Y-103121648D01*
X194069281Y-103113108D01*
X194099788Y-103122273D01*
G37*
G04 #@! TD.AperFunction*
G04 #@! TA.AperFunction,Conductor*
G36*
X155699788Y-64722273D02*
G01*
X157505516Y-65530099D01*
X157558673Y-65575444D01*
X157569031Y-65594860D01*
X158230420Y-67153849D01*
X158238481Y-67223252D01*
X158232003Y-67246790D01*
X157519306Y-69099802D01*
X157476868Y-69155307D01*
X157450158Y-69170205D01*
X155696275Y-69881239D01*
X155626752Y-69888183D01*
X155603636Y-69881454D01*
X153946628Y-69218651D01*
X153891694Y-69175477D01*
X153879491Y-69154157D01*
X153877631Y-69150000D01*
X153071872Y-67348890D01*
X153062463Y-67279657D01*
X153070597Y-67250565D01*
X153780734Y-65546237D01*
X153824688Y-65491927D01*
X153845972Y-65480119D01*
X155599937Y-64721648D01*
X155669281Y-64713108D01*
X155699788Y-64722273D01*
G37*
G04 #@! TD.AperFunction*
G04 #@! TA.AperFunction,Conductor*
G36*
X188899788Y-55722273D02*
G01*
X190705516Y-56530099D01*
X190758673Y-56575444D01*
X190769031Y-56594860D01*
X191430420Y-58153849D01*
X191438481Y-58223252D01*
X191432003Y-58246790D01*
X190719306Y-60099802D01*
X190676868Y-60155307D01*
X190650158Y-60170205D01*
X188896275Y-60881239D01*
X188826752Y-60888183D01*
X188803636Y-60881454D01*
X187146628Y-60218651D01*
X187091694Y-60175477D01*
X187079491Y-60154157D01*
X187077631Y-60150000D01*
X186271872Y-58348890D01*
X186262463Y-58279657D01*
X186270597Y-58250565D01*
X186980734Y-56546237D01*
X187024688Y-56491927D01*
X187045972Y-56480119D01*
X188799937Y-55721648D01*
X188869281Y-55713108D01*
X188899788Y-55722273D01*
G37*
G04 #@! TD.AperFunction*
G04 #@! TA.AperFunction,Conductor*
G36*
X112099788Y-74922273D02*
G01*
X113905516Y-75730099D01*
X113958673Y-75775444D01*
X113969031Y-75794860D01*
X114630420Y-77353849D01*
X114638481Y-77423252D01*
X114632003Y-77446790D01*
X113919306Y-79299802D01*
X113876868Y-79355307D01*
X113850158Y-79370205D01*
X112096275Y-80081239D01*
X112026752Y-80088183D01*
X112003636Y-80081454D01*
X110346628Y-79418651D01*
X110291694Y-79375477D01*
X110279491Y-79354157D01*
X110277631Y-79350000D01*
X109471872Y-77548890D01*
X109462463Y-77479657D01*
X109470597Y-77450565D01*
X110180734Y-75746237D01*
X110224688Y-75691927D01*
X110245972Y-75680119D01*
X111999937Y-74921648D01*
X112069281Y-74913108D01*
X112099788Y-74922273D01*
G37*
G04 #@! TD.AperFunction*
G04 #@! TA.AperFunction,Conductor*
G36*
X145299788Y-45522273D02*
G01*
X147105516Y-46330099D01*
X147158673Y-46375444D01*
X147169031Y-46394860D01*
X147830420Y-47953849D01*
X147838481Y-48023252D01*
X147832003Y-48046790D01*
X147119306Y-49899802D01*
X147076868Y-49955307D01*
X147050158Y-49970205D01*
X145296275Y-50681239D01*
X145226752Y-50688183D01*
X145203636Y-50681454D01*
X143546628Y-50018651D01*
X143491694Y-49975477D01*
X143479491Y-49954157D01*
X143477631Y-49950000D01*
X142671872Y-48148890D01*
X142662463Y-48079657D01*
X142670597Y-48050565D01*
X143380734Y-46346237D01*
X143424688Y-46291927D01*
X143445972Y-46280119D01*
X145199937Y-45521648D01*
X145269281Y-45513108D01*
X145299788Y-45522273D01*
G37*
G04 #@! TD.AperFunction*
G04 #@! TA.AperFunction,Conductor*
G36*
X106899788Y-64722273D02*
G01*
X108705516Y-65530099D01*
X108758673Y-65575444D01*
X108769031Y-65594860D01*
X109430420Y-67153849D01*
X109438481Y-67223252D01*
X109432003Y-67246790D01*
X108719306Y-69099802D01*
X108676868Y-69155307D01*
X108650158Y-69170205D01*
X106896275Y-69881239D01*
X106826752Y-69888183D01*
X106803636Y-69881454D01*
X105146628Y-69218651D01*
X105091694Y-69175477D01*
X105079491Y-69154157D01*
X105077631Y-69150000D01*
X104271872Y-67348890D01*
X104262463Y-67279657D01*
X104270597Y-67250565D01*
X104980734Y-65546237D01*
X105024688Y-65491927D01*
X105045972Y-65480119D01*
X106799937Y-64721648D01*
X106869281Y-64713108D01*
X106899788Y-64722273D01*
G37*
G04 #@! TD.AperFunction*
G04 #@! TA.AperFunction,Conductor*
G36*
X150499788Y-74922273D02*
G01*
X152305516Y-75730099D01*
X152358673Y-75775444D01*
X152369031Y-75794860D01*
X153030420Y-77353849D01*
X153038481Y-77423252D01*
X153032003Y-77446790D01*
X152319306Y-79299802D01*
X152276868Y-79355307D01*
X152250158Y-79370205D01*
X150496275Y-80081239D01*
X150426752Y-80088183D01*
X150403636Y-80081454D01*
X148746628Y-79418651D01*
X148691694Y-79375477D01*
X148679491Y-79354157D01*
X148677631Y-79350000D01*
X147871872Y-77548890D01*
X147862463Y-77479657D01*
X147870597Y-77450565D01*
X148580734Y-75746237D01*
X148624688Y-75691927D01*
X148645972Y-75680119D01*
X150399937Y-74921648D01*
X150469281Y-74913108D01*
X150499788Y-74922273D01*
G37*
G04 #@! TD.AperFunction*
G04 #@! TA.AperFunction,Conductor*
G36*
X150499788Y-94122273D02*
G01*
X152305516Y-94930099D01*
X152358673Y-94975444D01*
X152369031Y-94994860D01*
X153030420Y-96553849D01*
X153038481Y-96623252D01*
X153032003Y-96646790D01*
X152319306Y-98499802D01*
X152276868Y-98555307D01*
X152250158Y-98570205D01*
X150496275Y-99281239D01*
X150426752Y-99288183D01*
X150403636Y-99281454D01*
X148746628Y-98618651D01*
X148691694Y-98575477D01*
X148679491Y-98554157D01*
X148677631Y-98550000D01*
X147871872Y-96748890D01*
X147862463Y-96679657D01*
X147870597Y-96650565D01*
X148580734Y-94946237D01*
X148624688Y-94891927D01*
X148645972Y-94880119D01*
X150399937Y-94121648D01*
X150469281Y-94113108D01*
X150499788Y-94122273D01*
G37*
G04 #@! TD.AperFunction*
G04 #@! TA.AperFunction,Conductor*
G36*
X150499788Y-36522273D02*
G01*
X152305516Y-37330099D01*
X152358673Y-37375444D01*
X152369031Y-37394860D01*
X153030420Y-38953849D01*
X153038481Y-39023252D01*
X153032003Y-39046790D01*
X152319306Y-40899802D01*
X152276868Y-40955307D01*
X152250158Y-40970205D01*
X150496275Y-41681239D01*
X150426752Y-41688183D01*
X150403636Y-41681454D01*
X148746628Y-41018651D01*
X148691694Y-40975477D01*
X148679491Y-40954157D01*
X148677631Y-40950000D01*
X147871872Y-39148890D01*
X147862463Y-39079657D01*
X147870597Y-39050565D01*
X148580734Y-37346237D01*
X148624688Y-37291927D01*
X148645972Y-37280119D01*
X150399937Y-36521648D01*
X150469281Y-36513108D01*
X150499788Y-36522273D01*
G37*
G04 #@! TD.AperFunction*
G04 #@! TA.AperFunction,Conductor*
G36*
X145299788Y-83922273D02*
G01*
X147105516Y-84730099D01*
X147158673Y-84775444D01*
X147169031Y-84794860D01*
X147830420Y-86353849D01*
X147838481Y-86423252D01*
X147832003Y-86446790D01*
X147119306Y-88299802D01*
X147076868Y-88355307D01*
X147050158Y-88370205D01*
X145296275Y-89081239D01*
X145226752Y-89088183D01*
X145203636Y-89081454D01*
X143546628Y-88418651D01*
X143491694Y-88375477D01*
X143479491Y-88354157D01*
X143477631Y-88350000D01*
X142671872Y-86548890D01*
X142662463Y-86479657D01*
X142670597Y-86450565D01*
X143380734Y-84746237D01*
X143424688Y-84691927D01*
X143445972Y-84680119D01*
X145199937Y-83921648D01*
X145269281Y-83913108D01*
X145299788Y-83922273D01*
G37*
G04 #@! TD.AperFunction*
G04 #@! TA.AperFunction,Conductor*
G36*
X131299788Y-74922273D02*
G01*
X133105516Y-75730099D01*
X133158673Y-75775444D01*
X133169031Y-75794860D01*
X133830420Y-77353849D01*
X133838481Y-77423252D01*
X133832003Y-77446790D01*
X133119306Y-79299802D01*
X133076868Y-79355307D01*
X133050158Y-79370205D01*
X131296275Y-80081239D01*
X131226752Y-80088183D01*
X131203636Y-80081454D01*
X129546628Y-79418651D01*
X129491694Y-79375477D01*
X129479491Y-79354157D01*
X129477631Y-79350000D01*
X128671872Y-77548890D01*
X128662463Y-77479657D01*
X128670597Y-77450565D01*
X129380734Y-75746237D01*
X129424688Y-75691927D01*
X129445972Y-75680119D01*
X131199937Y-74921648D01*
X131269281Y-74913108D01*
X131299788Y-74922273D01*
G37*
G04 #@! TD.AperFunction*
G04 #@! TA.AperFunction,Conductor*
G36*
X106899788Y-103122273D02*
G01*
X108705516Y-103930099D01*
X108758673Y-103975444D01*
X108769031Y-103994860D01*
X109430420Y-105553849D01*
X109438481Y-105623252D01*
X109432003Y-105646790D01*
X108719306Y-107499802D01*
X108676868Y-107555307D01*
X108650158Y-107570205D01*
X106896275Y-108281239D01*
X106826752Y-108288183D01*
X106803636Y-108281454D01*
X105146628Y-107618651D01*
X105091694Y-107575477D01*
X105079491Y-107554157D01*
X105077631Y-107550000D01*
X104271872Y-105748890D01*
X104262463Y-105679657D01*
X104270597Y-105650565D01*
X104980734Y-103946237D01*
X105024688Y-103891927D01*
X105045972Y-103880119D01*
X106799937Y-103121648D01*
X106869281Y-103113108D01*
X106899788Y-103122273D01*
G37*
G04 #@! TD.AperFunction*
G04 #@! TA.AperFunction,Conductor*
G36*
X112099788Y-113322273D02*
G01*
X113905516Y-114130099D01*
X113958673Y-114175444D01*
X113969031Y-114194860D01*
X114630420Y-115753849D01*
X114638481Y-115823252D01*
X114632003Y-115846790D01*
X113919306Y-117699802D01*
X113876868Y-117755307D01*
X113850158Y-117770205D01*
X112096275Y-118481239D01*
X112026752Y-118488183D01*
X112003636Y-118481454D01*
X110346628Y-117818651D01*
X110291694Y-117775477D01*
X110279491Y-117754157D01*
X110277631Y-117750000D01*
X109471872Y-115948890D01*
X109462463Y-115879657D01*
X109470597Y-115850565D01*
X110180734Y-114146237D01*
X110224688Y-114091927D01*
X110245972Y-114080119D01*
X111999937Y-113321648D01*
X112069281Y-113313108D01*
X112099788Y-113322273D01*
G37*
G04 #@! TD.AperFunction*
G04 #@! TA.AperFunction,Conductor*
G36*
X145299788Y-122322273D02*
G01*
X147105516Y-123130099D01*
X147158673Y-123175444D01*
X147169031Y-123194860D01*
X147830420Y-124753849D01*
X147838481Y-124823252D01*
X147832003Y-124846790D01*
X147119306Y-126699802D01*
X147076868Y-126755307D01*
X147050158Y-126770205D01*
X145296275Y-127481239D01*
X145226752Y-127488183D01*
X145203636Y-127481454D01*
X143546628Y-126818651D01*
X143491694Y-126775477D01*
X143479491Y-126754157D01*
X143477631Y-126750000D01*
X142671872Y-124948890D01*
X142662463Y-124879657D01*
X142670597Y-124850565D01*
X143380734Y-123146237D01*
X143424688Y-123091927D01*
X143445972Y-123080119D01*
X145199937Y-122321648D01*
X145269281Y-122313108D01*
X145299788Y-122322273D01*
G37*
G04 #@! TD.AperFunction*
G04 #@! TA.AperFunction,Conductor*
G36*
X164499788Y-45522273D02*
G01*
X166305516Y-46330099D01*
X166358673Y-46375444D01*
X166369031Y-46394860D01*
X167030420Y-47953849D01*
X167038481Y-48023252D01*
X167032003Y-48046790D01*
X166319306Y-49899802D01*
X166276868Y-49955307D01*
X166250158Y-49970205D01*
X164496275Y-50681239D01*
X164426752Y-50688183D01*
X164403636Y-50681454D01*
X162746628Y-50018651D01*
X162691694Y-49975477D01*
X162679491Y-49954157D01*
X162677631Y-49950000D01*
X161871872Y-48148890D01*
X161862463Y-48079657D01*
X161870597Y-48050565D01*
X162580734Y-46346237D01*
X162624688Y-46291927D01*
X162645972Y-46280119D01*
X164399937Y-45521648D01*
X164469281Y-45513108D01*
X164499788Y-45522273D01*
G37*
G04 #@! TD.AperFunction*
G04 #@! TA.AperFunction,Conductor*
G36*
X194099788Y-122322273D02*
G01*
X195905516Y-123130099D01*
X195958673Y-123175444D01*
X195969031Y-123194860D01*
X196630420Y-124753849D01*
X196638481Y-124823252D01*
X196632003Y-124846790D01*
X195919306Y-126699802D01*
X195876868Y-126755307D01*
X195850158Y-126770205D01*
X194096275Y-127481239D01*
X194026752Y-127488183D01*
X194003636Y-127481454D01*
X192346628Y-126818651D01*
X192291694Y-126775477D01*
X192279491Y-126754157D01*
X192277631Y-126750000D01*
X191471872Y-124948890D01*
X191462463Y-124879657D01*
X191470597Y-124850565D01*
X192180734Y-123146237D01*
X192224688Y-123091927D01*
X192245972Y-123080119D01*
X193999937Y-122321648D01*
X194069281Y-122313108D01*
X194099788Y-122322273D01*
G37*
G04 #@! TD.AperFunction*
G04 #@! TA.AperFunction,Conductor*
G36*
X112099788Y-36522273D02*
G01*
X113905516Y-37330099D01*
X113958673Y-37375444D01*
X113969031Y-37394860D01*
X114630420Y-38953849D01*
X114638481Y-39023252D01*
X114632003Y-39046790D01*
X113919306Y-40899802D01*
X113876868Y-40955307D01*
X113850158Y-40970205D01*
X112096275Y-41681239D01*
X112026752Y-41688183D01*
X112003636Y-41681454D01*
X110346628Y-41018651D01*
X110291694Y-40975477D01*
X110279491Y-40954157D01*
X110277631Y-40950000D01*
X109471872Y-39148890D01*
X109462463Y-39079657D01*
X109470597Y-39050565D01*
X110180734Y-37346237D01*
X110224688Y-37291927D01*
X110245972Y-37280119D01*
X111999937Y-36521648D01*
X112069281Y-36513108D01*
X112099788Y-36522273D01*
G37*
G04 #@! TD.AperFunction*
G04 #@! TA.AperFunction,Conductor*
G36*
X174899788Y-64722273D02*
G01*
X176705516Y-65530099D01*
X176758673Y-65575444D01*
X176769031Y-65594860D01*
X177430420Y-67153849D01*
X177438481Y-67223252D01*
X177432003Y-67246790D01*
X176719306Y-69099802D01*
X176676868Y-69155307D01*
X176650158Y-69170205D01*
X174896275Y-69881239D01*
X174826752Y-69888183D01*
X174803636Y-69881454D01*
X173146628Y-69218651D01*
X173091694Y-69175477D01*
X173079491Y-69154157D01*
X173077631Y-69150000D01*
X172271872Y-67348890D01*
X172262463Y-67279657D01*
X172270597Y-67250565D01*
X172980734Y-65546237D01*
X173024688Y-65491927D01*
X173045972Y-65480119D01*
X174799937Y-64721648D01*
X174869281Y-64713108D01*
X174899788Y-64722273D01*
G37*
G04 #@! TD.AperFunction*
G04 #@! TA.AperFunction,Conductor*
G36*
X164499788Y-83922273D02*
G01*
X166305516Y-84730099D01*
X166358673Y-84775444D01*
X166369031Y-84794860D01*
X167030420Y-86353849D01*
X167038481Y-86423252D01*
X167032003Y-86446790D01*
X166319306Y-88299802D01*
X166276868Y-88355307D01*
X166250158Y-88370205D01*
X164496275Y-89081239D01*
X164426752Y-89088183D01*
X164403636Y-89081454D01*
X162746628Y-88418651D01*
X162691694Y-88375477D01*
X162679491Y-88354157D01*
X162677631Y-88350000D01*
X161871872Y-86548890D01*
X161862463Y-86479657D01*
X161870597Y-86450565D01*
X162580734Y-84746237D01*
X162624688Y-84691927D01*
X162645972Y-84680119D01*
X164399937Y-83921648D01*
X164469281Y-83913108D01*
X164499788Y-83922273D01*
G37*
G04 #@! TD.AperFunction*
G04 #@! TA.AperFunction,Conductor*
G36*
X174899788Y-103122273D02*
G01*
X176705516Y-103930099D01*
X176758673Y-103975444D01*
X176769031Y-103994860D01*
X177430420Y-105553849D01*
X177438481Y-105623252D01*
X177432003Y-105646790D01*
X176719306Y-107499802D01*
X176676868Y-107555307D01*
X176650158Y-107570205D01*
X174896275Y-108281239D01*
X174826752Y-108288183D01*
X174803636Y-108281454D01*
X173146628Y-107618651D01*
X173091694Y-107575477D01*
X173079491Y-107554157D01*
X173077631Y-107550000D01*
X172271872Y-105748890D01*
X172262463Y-105679657D01*
X172270597Y-105650565D01*
X172980734Y-103946237D01*
X173024688Y-103891927D01*
X173045972Y-103880119D01*
X174799937Y-103121648D01*
X174869281Y-103113108D01*
X174899788Y-103122273D01*
G37*
G04 #@! TD.AperFunction*
G04 #@! TA.AperFunction,Conductor*
G36*
X188899788Y-94122273D02*
G01*
X190705516Y-94930099D01*
X190758673Y-94975444D01*
X190769031Y-94994860D01*
X191430420Y-96553849D01*
X191438481Y-96623252D01*
X191432003Y-96646790D01*
X190719306Y-98499802D01*
X190676868Y-98555307D01*
X190650158Y-98570205D01*
X188896275Y-99281239D01*
X188826752Y-99288183D01*
X188803636Y-99281454D01*
X187146628Y-98618651D01*
X187091694Y-98575477D01*
X187079491Y-98554157D01*
X187077631Y-98550000D01*
X186271872Y-96748890D01*
X186262463Y-96679657D01*
X186270597Y-96650565D01*
X186980734Y-94946237D01*
X187024688Y-94891927D01*
X187045972Y-94880119D01*
X188799937Y-94121648D01*
X188869281Y-94113108D01*
X188899788Y-94122273D01*
G37*
G04 #@! TD.AperFunction*
G04 #@! TA.AperFunction,Conductor*
G36*
X164499788Y-122322273D02*
G01*
X166305516Y-123130099D01*
X166358673Y-123175444D01*
X166369031Y-123194860D01*
X167030420Y-124753849D01*
X167038481Y-124823252D01*
X167032003Y-124846790D01*
X166319306Y-126699802D01*
X166276868Y-126755307D01*
X166250158Y-126770205D01*
X164496275Y-127481239D01*
X164426752Y-127488183D01*
X164403636Y-127481454D01*
X162746628Y-126818651D01*
X162691694Y-126775477D01*
X162679491Y-126754157D01*
X162677631Y-126750000D01*
X161871872Y-124948890D01*
X161862463Y-124879657D01*
X161870597Y-124850565D01*
X162580734Y-123146237D01*
X162624688Y-123091927D01*
X162645972Y-123080119D01*
X164399937Y-122321648D01*
X164469281Y-122313108D01*
X164499788Y-122322273D01*
G37*
G04 #@! TD.AperFunction*
G04 #@! TA.AperFunction,Conductor*
G36*
X106899788Y-83922273D02*
G01*
X108705516Y-84730099D01*
X108758673Y-84775444D01*
X108769031Y-84794860D01*
X109430420Y-86353849D01*
X109438481Y-86423252D01*
X109432003Y-86446790D01*
X108719306Y-88299802D01*
X108676868Y-88355307D01*
X108650158Y-88370205D01*
X106896275Y-89081239D01*
X106826752Y-89088183D01*
X106803636Y-89081454D01*
X105146628Y-88418651D01*
X105091694Y-88375477D01*
X105079491Y-88354157D01*
X105077631Y-88350000D01*
X104271872Y-86548890D01*
X104262463Y-86479657D01*
X104270597Y-86450565D01*
X104980734Y-84746237D01*
X105024688Y-84691927D01*
X105045972Y-84680119D01*
X106799937Y-83921648D01*
X106869281Y-83913108D01*
X106899788Y-83922273D01*
G37*
G04 #@! TD.AperFunction*
G04 #@! TA.AperFunction,Conductor*
G36*
X145299788Y-103122273D02*
G01*
X147105516Y-103930099D01*
X147158673Y-103975444D01*
X147169031Y-103994860D01*
X147830420Y-105553849D01*
X147838481Y-105623252D01*
X147832003Y-105646790D01*
X147119306Y-107499802D01*
X147076868Y-107555307D01*
X147050158Y-107570205D01*
X145296275Y-108281239D01*
X145226752Y-108288183D01*
X145203636Y-108281454D01*
X143546628Y-107618651D01*
X143491694Y-107575477D01*
X143479491Y-107554157D01*
X143477631Y-107550000D01*
X142671872Y-105748890D01*
X142662463Y-105679657D01*
X142670597Y-105650565D01*
X143380734Y-103946237D01*
X143424688Y-103891927D01*
X143445972Y-103880119D01*
X145199937Y-103121648D01*
X145269281Y-103113108D01*
X145299788Y-103122273D01*
G37*
G04 #@! TD.AperFunction*
G04 #@! TA.AperFunction,Conductor*
G36*
X174899788Y-45522273D02*
G01*
X176705516Y-46330099D01*
X176758673Y-46375444D01*
X176769031Y-46394860D01*
X177430420Y-47953849D01*
X177438481Y-48023252D01*
X177432003Y-48046790D01*
X176719306Y-49899802D01*
X176676868Y-49955307D01*
X176650158Y-49970205D01*
X174896275Y-50681239D01*
X174826752Y-50688183D01*
X174803636Y-50681454D01*
X173146628Y-50018651D01*
X173091694Y-49975477D01*
X173079491Y-49954157D01*
X173077631Y-49950000D01*
X172271872Y-48148890D01*
X172262463Y-48079657D01*
X172270597Y-48050565D01*
X172980734Y-46346237D01*
X173024688Y-46291927D01*
X173045972Y-46280119D01*
X174799937Y-45521648D01*
X174869281Y-45513108D01*
X174899788Y-45522273D01*
G37*
G04 #@! TD.AperFunction*
G04 #@! TA.AperFunction,Conductor*
G36*
X112099788Y-94122273D02*
G01*
X113905516Y-94930099D01*
X113958673Y-94975444D01*
X113969031Y-94994860D01*
X114630420Y-96553849D01*
X114638481Y-96623252D01*
X114632003Y-96646790D01*
X113919306Y-98499802D01*
X113876868Y-98555307D01*
X113850158Y-98570205D01*
X112096275Y-99281239D01*
X112026752Y-99288183D01*
X112003636Y-99281454D01*
X110346628Y-98618651D01*
X110291694Y-98575477D01*
X110279491Y-98554157D01*
X110277631Y-98550000D01*
X109471872Y-96748890D01*
X109462463Y-96679657D01*
X109470597Y-96650565D01*
X110180734Y-94946237D01*
X110224688Y-94891927D01*
X110245972Y-94880119D01*
X111999937Y-94121648D01*
X112069281Y-94113108D01*
X112099788Y-94122273D01*
G37*
G04 #@! TD.AperFunction*
G04 #@! TA.AperFunction,Conductor*
G36*
X126099788Y-45522273D02*
G01*
X127905516Y-46330099D01*
X127958673Y-46375444D01*
X127969031Y-46394860D01*
X128630420Y-47953849D01*
X128638481Y-48023252D01*
X128632003Y-48046790D01*
X127919306Y-49899802D01*
X127876868Y-49955307D01*
X127850158Y-49970205D01*
X126096275Y-50681239D01*
X126026752Y-50688183D01*
X126003636Y-50681454D01*
X124346628Y-50018651D01*
X124291694Y-49975477D01*
X124279491Y-49954157D01*
X124277631Y-49950000D01*
X123471872Y-48148890D01*
X123462463Y-48079657D01*
X123470597Y-48050565D01*
X124180734Y-46346237D01*
X124224688Y-46291927D01*
X124245972Y-46280119D01*
X125999937Y-45521648D01*
X126069281Y-45513108D01*
X126099788Y-45522273D01*
G37*
G04 #@! TD.AperFunction*
G04 #@! TA.AperFunction,Conductor*
G36*
X117299788Y-83922273D02*
G01*
X119105516Y-84730099D01*
X119158673Y-84775444D01*
X119169031Y-84794860D01*
X119830420Y-86353849D01*
X119838481Y-86423252D01*
X119832003Y-86446790D01*
X119119306Y-88299802D01*
X119076868Y-88355307D01*
X119050158Y-88370205D01*
X117296275Y-89081239D01*
X117226752Y-89088183D01*
X117203636Y-89081454D01*
X115546628Y-88418651D01*
X115491694Y-88375477D01*
X115479491Y-88354157D01*
X115477631Y-88350000D01*
X114671872Y-86548890D01*
X114662463Y-86479657D01*
X114670597Y-86450565D01*
X115380734Y-84746237D01*
X115424688Y-84691927D01*
X115445972Y-84680119D01*
X117199937Y-83921648D01*
X117269281Y-83913108D01*
X117299788Y-83922273D01*
G37*
G04 #@! TD.AperFunction*
G04 #@! TA.AperFunction,Conductor*
G36*
X169699788Y-55722273D02*
G01*
X171505516Y-56530099D01*
X171558673Y-56575444D01*
X171569031Y-56594860D01*
X172230420Y-58153849D01*
X172238481Y-58223252D01*
X172232003Y-58246790D01*
X171519306Y-60099802D01*
X171476868Y-60155307D01*
X171450158Y-60170205D01*
X169696275Y-60881239D01*
X169626752Y-60888183D01*
X169603636Y-60881454D01*
X167946628Y-60218651D01*
X167891694Y-60175477D01*
X167879491Y-60154157D01*
X167877631Y-60150000D01*
X167071872Y-58348890D01*
X167062463Y-58279657D01*
X167070597Y-58250565D01*
X167780734Y-56546237D01*
X167824688Y-56491927D01*
X167845972Y-56480119D01*
X169599937Y-55721648D01*
X169669281Y-55713108D01*
X169699788Y-55722273D01*
G37*
G04 #@! TD.AperFunction*
G04 #@! TA.AperFunction,Conductor*
G36*
X117299788Y-103122273D02*
G01*
X119105516Y-103930099D01*
X119158673Y-103975444D01*
X119169031Y-103994860D01*
X119830420Y-105553849D01*
X119838481Y-105623252D01*
X119832003Y-105646790D01*
X119119306Y-107499802D01*
X119076868Y-107555307D01*
X119050158Y-107570205D01*
X117296275Y-108281239D01*
X117226752Y-108288183D01*
X117203636Y-108281454D01*
X115546628Y-107618651D01*
X115491694Y-107575477D01*
X115479491Y-107554157D01*
X115477631Y-107550000D01*
X114671872Y-105748890D01*
X114662463Y-105679657D01*
X114670597Y-105650565D01*
X115380734Y-103946237D01*
X115424688Y-103891927D01*
X115445972Y-103880119D01*
X117199937Y-103121648D01*
X117269281Y-103113108D01*
X117299788Y-103122273D01*
G37*
G04 #@! TD.AperFunction*
G04 #@! TA.AperFunction,Conductor*
G36*
X183699788Y-45522273D02*
G01*
X185505516Y-46330099D01*
X185558673Y-46375444D01*
X185569031Y-46394860D01*
X186230420Y-47953849D01*
X186238481Y-48023252D01*
X186232003Y-48046790D01*
X185519306Y-49899802D01*
X185476868Y-49955307D01*
X185450158Y-49970205D01*
X183696275Y-50681239D01*
X183626752Y-50688183D01*
X183603636Y-50681454D01*
X181946628Y-50018651D01*
X181891694Y-49975477D01*
X181879491Y-49954157D01*
X181877631Y-49950000D01*
X181071872Y-48148890D01*
X181062463Y-48079657D01*
X181070597Y-48050565D01*
X181780734Y-46346237D01*
X181824688Y-46291927D01*
X181845972Y-46280119D01*
X183599937Y-45521648D01*
X183669281Y-45513108D01*
X183699788Y-45522273D01*
G37*
G04 #@! TD.AperFunction*
G04 #@! TA.AperFunction,Conductor*
G36*
X131299788Y-113322273D02*
G01*
X133105516Y-114130099D01*
X133158673Y-114175444D01*
X133169031Y-114194860D01*
X133830420Y-115753849D01*
X133838481Y-115823252D01*
X133832003Y-115846790D01*
X133119306Y-117699802D01*
X133076868Y-117755307D01*
X133050158Y-117770205D01*
X131296275Y-118481239D01*
X131226752Y-118488183D01*
X131203636Y-118481454D01*
X129546628Y-117818651D01*
X129491694Y-117775477D01*
X129479491Y-117754157D01*
X129477631Y-117750000D01*
X128671872Y-115948890D01*
X128662463Y-115879657D01*
X128670597Y-115850565D01*
X129380734Y-114146237D01*
X129424688Y-114091927D01*
X129445972Y-114080119D01*
X131199937Y-113321648D01*
X131269281Y-113313108D01*
X131299788Y-113322273D01*
G37*
G04 #@! TD.AperFunction*
G04 #@! TA.AperFunction,Conductor*
G36*
X164499788Y-64722273D02*
G01*
X166305516Y-65530099D01*
X166358673Y-65575444D01*
X166369031Y-65594860D01*
X167030420Y-67153849D01*
X167038481Y-67223252D01*
X167032003Y-67246790D01*
X166319306Y-69099802D01*
X166276868Y-69155307D01*
X166250158Y-69170205D01*
X164496275Y-69881239D01*
X164426752Y-69888183D01*
X164403636Y-69881454D01*
X162746628Y-69218651D01*
X162691694Y-69175477D01*
X162679491Y-69154157D01*
X162677631Y-69150000D01*
X161871872Y-67348890D01*
X161862463Y-67279657D01*
X161870597Y-67250565D01*
X162580734Y-65546237D01*
X162624688Y-65491927D01*
X162645972Y-65480119D01*
X164399937Y-64721648D01*
X164469281Y-64713108D01*
X164499788Y-64722273D01*
G37*
G04 #@! TD.AperFunction*
G04 #@! TA.AperFunction,Conductor*
G36*
X183699788Y-122322273D02*
G01*
X185505516Y-123130099D01*
X185558673Y-123175444D01*
X185569031Y-123194860D01*
X186230420Y-124753849D01*
X186238481Y-124823252D01*
X186232003Y-124846790D01*
X185519306Y-126699802D01*
X185476868Y-126755307D01*
X185450158Y-126770205D01*
X183696275Y-127481239D01*
X183626752Y-127488183D01*
X183603636Y-127481454D01*
X181946628Y-126818651D01*
X181891694Y-126775477D01*
X181879491Y-126754157D01*
X181877631Y-126750000D01*
X181071872Y-124948890D01*
X181062463Y-124879657D01*
X181070597Y-124850565D01*
X181780734Y-123146237D01*
X181824688Y-123091927D01*
X181845972Y-123080119D01*
X183599937Y-122321648D01*
X183669281Y-122313108D01*
X183699788Y-122322273D01*
G37*
G04 #@! TD.AperFunction*
G04 #@! TA.AperFunction,Conductor*
G36*
X150499788Y-55722273D02*
G01*
X152305516Y-56530099D01*
X152358673Y-56575444D01*
X152369031Y-56594860D01*
X153030420Y-58153849D01*
X153038481Y-58223252D01*
X153032003Y-58246790D01*
X152319306Y-60099802D01*
X152276868Y-60155307D01*
X152250158Y-60170205D01*
X150496275Y-60881239D01*
X150426752Y-60888183D01*
X150403636Y-60881454D01*
X148746628Y-60218651D01*
X148691694Y-60175477D01*
X148679491Y-60154157D01*
X148677631Y-60150000D01*
X147871872Y-58348890D01*
X147862463Y-58279657D01*
X147870597Y-58250565D01*
X148580734Y-56546237D01*
X148624688Y-56491927D01*
X148645972Y-56480119D01*
X150399937Y-55721648D01*
X150469281Y-55713108D01*
X150499788Y-55722273D01*
G37*
G04 #@! TD.AperFunction*
G04 #@! TA.AperFunction,Conductor*
G36*
X183699788Y-83922273D02*
G01*
X185505516Y-84730099D01*
X185558673Y-84775444D01*
X185569031Y-84794860D01*
X186230420Y-86353849D01*
X186238481Y-86423252D01*
X186232003Y-86446790D01*
X185519306Y-88299802D01*
X185476868Y-88355307D01*
X185450158Y-88370205D01*
X183696275Y-89081239D01*
X183626752Y-89088183D01*
X183603636Y-89081454D01*
X181946628Y-88418651D01*
X181891694Y-88375477D01*
X181879491Y-88354157D01*
X181877631Y-88350000D01*
X181071872Y-86548890D01*
X181062463Y-86479657D01*
X181070597Y-86450565D01*
X181780734Y-84746237D01*
X181824688Y-84691927D01*
X181845972Y-84680119D01*
X183599937Y-83921648D01*
X183669281Y-83913108D01*
X183699788Y-83922273D01*
G37*
G04 #@! TD.AperFunction*
G04 #@! TA.AperFunction,Conductor*
G36*
X188899788Y-113322273D02*
G01*
X190705516Y-114130099D01*
X190758673Y-114175444D01*
X190769031Y-114194860D01*
X191430420Y-115753849D01*
X191438481Y-115823252D01*
X191432003Y-115846790D01*
X190719306Y-117699802D01*
X190676868Y-117755307D01*
X190650158Y-117770205D01*
X188896275Y-118481239D01*
X188826752Y-118488183D01*
X188803636Y-118481454D01*
X187146628Y-117818651D01*
X187091694Y-117775477D01*
X187079491Y-117754157D01*
X187077631Y-117750000D01*
X186271872Y-115948890D01*
X186262463Y-115879657D01*
X186270597Y-115850565D01*
X186980734Y-114146237D01*
X187024688Y-114091927D01*
X187045972Y-114080119D01*
X188799937Y-113321648D01*
X188869281Y-113313108D01*
X188899788Y-113322273D01*
G37*
G04 #@! TD.AperFunction*
G04 #@! TA.AperFunction,Conductor*
G36*
X126099788Y-103122273D02*
G01*
X127905516Y-103930099D01*
X127958673Y-103975444D01*
X127969031Y-103994860D01*
X128630420Y-105553849D01*
X128638481Y-105623252D01*
X128632003Y-105646790D01*
X127919306Y-107499802D01*
X127876868Y-107555307D01*
X127850158Y-107570205D01*
X126096275Y-108281239D01*
X126026752Y-108288183D01*
X126003636Y-108281454D01*
X124346628Y-107618651D01*
X124291694Y-107575477D01*
X124279491Y-107554157D01*
X124277631Y-107550000D01*
X123471872Y-105748890D01*
X123462463Y-105679657D01*
X123470597Y-105650565D01*
X124180734Y-103946237D01*
X124224688Y-103891927D01*
X124245972Y-103880119D01*
X125999937Y-103121648D01*
X126069281Y-103113108D01*
X126099788Y-103122273D01*
G37*
G04 #@! TD.AperFunction*
G04 #@! TA.AperFunction,Conductor*
G36*
X131299788Y-55722273D02*
G01*
X133105516Y-56530099D01*
X133158673Y-56575444D01*
X133169031Y-56594860D01*
X133830420Y-58153849D01*
X133838481Y-58223252D01*
X133832003Y-58246790D01*
X133119306Y-60099802D01*
X133076868Y-60155307D01*
X133050158Y-60170205D01*
X131296275Y-60881239D01*
X131226752Y-60888183D01*
X131203636Y-60881454D01*
X129546628Y-60218651D01*
X129491694Y-60175477D01*
X129479491Y-60154157D01*
X129477631Y-60150000D01*
X128671872Y-58348890D01*
X128662463Y-58279657D01*
X128670597Y-58250565D01*
X129380734Y-56546237D01*
X129424688Y-56491927D01*
X129445972Y-56480119D01*
X131199937Y-55721648D01*
X131269281Y-55713108D01*
X131299788Y-55722273D01*
G37*
G04 #@! TD.AperFunction*
G04 #@! TA.AperFunction,Conductor*
G36*
X174899788Y-83922273D02*
G01*
X176705516Y-84730099D01*
X176758673Y-84775444D01*
X176769031Y-84794860D01*
X177430420Y-86353849D01*
X177438481Y-86423252D01*
X177432003Y-86446790D01*
X176719306Y-88299802D01*
X176676868Y-88355307D01*
X176650158Y-88370205D01*
X174896275Y-89081239D01*
X174826752Y-89088183D01*
X174803636Y-89081454D01*
X173146628Y-88418651D01*
X173091694Y-88375477D01*
X173079491Y-88354157D01*
X173077631Y-88350000D01*
X172271872Y-86548890D01*
X172262463Y-86479657D01*
X172270597Y-86450565D01*
X172980734Y-84746237D01*
X173024688Y-84691927D01*
X173045972Y-84680119D01*
X174799937Y-83921648D01*
X174869281Y-83913108D01*
X174899788Y-83922273D01*
G37*
G04 #@! TD.AperFunction*
M02*
