%TF.GenerationSoftware,KiCad,Pcbnew,7.0.9*%
%TF.CreationDate,2024-01-02T20:35:24+01:00*%
%TF.ProjectId,Nutzen,4e75747a-656e-42e6-9b69-6361645f7063,rev?*%
%TF.SameCoordinates,Original*%
%TF.FileFunction,Drillmap*%
%TF.FilePolarity,Positive*%
%FSLAX45Y45*%
G04 Gerber Fmt 4.5, Leading zero omitted, Abs format (unit mm)*
G04 Created by KiCad (PCBNEW 7.0.9) date 2024-01-02 20:35:24*
%MOMM*%
%LPD*%
G01*
G04 APERTURE LIST*
%ADD10C,0.100000*%
%ADD11C,0.200000*%
G04 APERTURE END LIST*
D10*
X15655000Y-10785000D02*
X17575000Y-10785000D01*
X17575000Y-12705000D01*
X15655000Y-12705000D01*
X15655000Y-10785000D01*
X15655000Y-8865000D02*
X17575000Y-8865000D01*
X17575000Y-10785000D01*
X15655000Y-10785000D01*
X15655000Y-8865000D01*
X15655000Y-6945000D02*
X17575000Y-6945000D01*
X17575000Y-8865000D01*
X15655000Y-8865000D01*
X15655000Y-6945000D01*
X15655000Y-3105000D02*
X17575000Y-3105000D01*
X17575000Y-5025000D01*
X15655000Y-5025000D01*
X15655000Y-3105000D01*
X15655000Y-5025000D02*
X17575000Y-5025000D01*
X17575000Y-6945000D01*
X15655000Y-6945000D01*
X15655000Y-5025000D01*
X13735000Y-10785000D02*
X15655000Y-10785000D01*
X15655000Y-12705000D01*
X13735000Y-12705000D01*
X13735000Y-10785000D01*
X13735000Y-8865000D02*
X15655000Y-8865000D01*
X15655000Y-10785000D01*
X13735000Y-10785000D01*
X13735000Y-8865000D01*
X13735000Y-6945000D02*
X15655000Y-6945000D01*
X15655000Y-8865000D01*
X13735000Y-8865000D01*
X13735000Y-6945000D01*
X13735000Y-3105000D02*
X15655000Y-3105000D01*
X15655000Y-5025000D01*
X13735000Y-5025000D01*
X13735000Y-3105000D01*
X13735000Y-5025000D02*
X15655000Y-5025000D01*
X15655000Y-6945000D01*
X13735000Y-6945000D01*
X13735000Y-5025000D01*
X11815000Y-10785000D02*
X13735000Y-10785000D01*
X13735000Y-12705000D01*
X11815000Y-12705000D01*
X11815000Y-10785000D01*
X11815000Y-8865000D02*
X13735000Y-8865000D01*
X13735000Y-10785000D01*
X11815000Y-10785000D01*
X11815000Y-8865000D01*
X11815000Y-6945000D02*
X13735000Y-6945000D01*
X13735000Y-8865000D01*
X11815000Y-8865000D01*
X11815000Y-6945000D01*
X11815000Y-3105000D02*
X13735000Y-3105000D01*
X13735000Y-5025000D01*
X11815000Y-5025000D01*
X11815000Y-3105000D01*
X11815000Y-5025000D02*
X13735000Y-5025000D01*
X13735000Y-6945000D01*
X11815000Y-6945000D01*
X11815000Y-5025000D01*
X9895000Y-10785000D02*
X11815000Y-10785000D01*
X11815000Y-12705000D01*
X9895000Y-12705000D01*
X9895000Y-10785000D01*
X9895000Y-8865000D02*
X11815000Y-8865000D01*
X11815000Y-10785000D01*
X9895000Y-10785000D01*
X9895000Y-8865000D01*
X9895000Y-6945000D02*
X11815000Y-6945000D01*
X11815000Y-8865000D01*
X9895000Y-8865000D01*
X9895000Y-6945000D01*
X9895000Y-3105000D02*
X11815000Y-3105000D01*
X11815000Y-5025000D01*
X9895000Y-5025000D01*
X9895000Y-3105000D01*
X9895000Y-5025000D02*
X11815000Y-5025000D01*
X11815000Y-6945000D01*
X9895000Y-6945000D01*
X9895000Y-5025000D01*
X7975000Y-10785000D02*
X9895000Y-10785000D01*
X9895000Y-12705000D01*
X7975000Y-12705000D01*
X7975000Y-10785000D01*
X7975000Y-8865000D02*
X9895000Y-8865000D01*
X9895000Y-10785000D01*
X7975000Y-10785000D01*
X7975000Y-8865000D01*
X7975000Y-6945000D02*
X9895000Y-6945000D01*
X9895000Y-8865000D01*
X7975000Y-8865000D01*
X7975000Y-6945000D01*
X7975000Y-5025000D02*
X9895000Y-5025000D01*
X9895000Y-6945000D01*
X7975000Y-6945000D01*
X7975000Y-5025000D01*
X7975000Y-3105000D02*
X9895000Y-3105000D01*
X9895000Y-5025000D01*
X7975000Y-5025000D01*
X7975000Y-3105000D01*
D11*
X8230777Y-13021484D02*
X8230777Y-12821484D01*
X8230777Y-12821484D02*
X8278396Y-12821484D01*
X8278396Y-12821484D02*
X8306967Y-12831008D01*
X8306967Y-12831008D02*
X8326015Y-12850055D01*
X8326015Y-12850055D02*
X8335539Y-12869103D01*
X8335539Y-12869103D02*
X8345062Y-12907198D01*
X8345062Y-12907198D02*
X8345062Y-12935769D01*
X8345062Y-12935769D02*
X8335539Y-12973865D01*
X8335539Y-12973865D02*
X8326015Y-12992912D01*
X8326015Y-12992912D02*
X8306967Y-13011960D01*
X8306967Y-13011960D02*
X8278396Y-13021484D01*
X8278396Y-13021484D02*
X8230777Y-13021484D01*
X8430777Y-13021484D02*
X8430777Y-12888150D01*
X8430777Y-12926246D02*
X8440301Y-12907198D01*
X8440301Y-12907198D02*
X8449824Y-12897674D01*
X8449824Y-12897674D02*
X8468872Y-12888150D01*
X8468872Y-12888150D02*
X8487920Y-12888150D01*
X8554586Y-13021484D02*
X8554586Y-12888150D01*
X8554586Y-12821484D02*
X8545063Y-12831008D01*
X8545063Y-12831008D02*
X8554586Y-12840531D01*
X8554586Y-12840531D02*
X8564110Y-12831008D01*
X8564110Y-12831008D02*
X8554586Y-12821484D01*
X8554586Y-12821484D02*
X8554586Y-12840531D01*
X8678396Y-13021484D02*
X8659348Y-13011960D01*
X8659348Y-13011960D02*
X8649824Y-12992912D01*
X8649824Y-12992912D02*
X8649824Y-12821484D01*
X8783158Y-13021484D02*
X8764110Y-13011960D01*
X8764110Y-13011960D02*
X8754586Y-12992912D01*
X8754586Y-12992912D02*
X8754586Y-12821484D01*
X9011729Y-13021484D02*
X9011729Y-12821484D01*
X9011729Y-12821484D02*
X9078396Y-12964341D01*
X9078396Y-12964341D02*
X9145063Y-12821484D01*
X9145063Y-12821484D02*
X9145063Y-13021484D01*
X9326015Y-13021484D02*
X9326015Y-12916722D01*
X9326015Y-12916722D02*
X9316491Y-12897674D01*
X9316491Y-12897674D02*
X9297444Y-12888150D01*
X9297444Y-12888150D02*
X9259348Y-12888150D01*
X9259348Y-12888150D02*
X9240301Y-12897674D01*
X9326015Y-13011960D02*
X9306967Y-13021484D01*
X9306967Y-13021484D02*
X9259348Y-13021484D01*
X9259348Y-13021484D02*
X9240301Y-13011960D01*
X9240301Y-13011960D02*
X9230777Y-12992912D01*
X9230777Y-12992912D02*
X9230777Y-12973865D01*
X9230777Y-12973865D02*
X9240301Y-12954817D01*
X9240301Y-12954817D02*
X9259348Y-12945293D01*
X9259348Y-12945293D02*
X9306967Y-12945293D01*
X9306967Y-12945293D02*
X9326015Y-12935769D01*
X9421253Y-12888150D02*
X9421253Y-13088150D01*
X9421253Y-12897674D02*
X9440301Y-12888150D01*
X9440301Y-12888150D02*
X9478396Y-12888150D01*
X9478396Y-12888150D02*
X9497444Y-12897674D01*
X9497444Y-12897674D02*
X9506967Y-12907198D01*
X9506967Y-12907198D02*
X9516491Y-12926246D01*
X9516491Y-12926246D02*
X9516491Y-12983388D01*
X9516491Y-12983388D02*
X9506967Y-13002436D01*
X9506967Y-13002436D02*
X9497444Y-13011960D01*
X9497444Y-13011960D02*
X9478396Y-13021484D01*
X9478396Y-13021484D02*
X9440301Y-13021484D01*
X9440301Y-13021484D02*
X9421253Y-13011960D01*
X9602205Y-13002436D02*
X9611729Y-13011960D01*
X9611729Y-13011960D02*
X9602205Y-13021484D01*
X9602205Y-13021484D02*
X9592682Y-13011960D01*
X9592682Y-13011960D02*
X9602205Y-13002436D01*
X9602205Y-13002436D02*
X9602205Y-13021484D01*
X9602205Y-12897674D02*
X9611729Y-12907198D01*
X9611729Y-12907198D02*
X9602205Y-12916722D01*
X9602205Y-12916722D02*
X9592682Y-12907198D01*
X9592682Y-12907198D02*
X9602205Y-12897674D01*
X9602205Y-12897674D02*
X9602205Y-12916722D01*
M02*
