M48
; DRILL file {KiCad 7.0.9} date Mon Jan  1 14:04:13 2024
; FORMAT={-:-/ absolute / metric / decimal}
; #@! TF.CreationDate,2024-01-01T14:04:13+01:00
; #@! TF.GenerationSoftware,Kicad,Pcbnew,7.0.9
; #@! TF.FileFunction,Plated,1,2,PTH
FMAT,2
METRIC
; #@! TA.AperFunction,Plated,PTH,ViaDrill
T1C0.400
%
G90
G05
T1
X104.8Y-48.1
X104.8Y-67.3
X104.8Y-86.5
X104.8Y-105.7
X104.8Y-124.9
X105.35Y-46.65
X105.35Y-65.85
X105.35Y-85.05
X105.35Y-104.25
X105.35Y-123.45
X105.45Y-49.6
X105.45Y-68.8
X105.45Y-88.0
X105.45Y-107.2
X105.45Y-126.4
X106.85Y-46.0
X106.85Y-50.1
X106.85Y-65.2
X106.85Y-69.3
X106.85Y-84.4
X106.85Y-88.5
X106.85Y-103.6
X106.85Y-107.7
X106.85Y-122.8
X106.85Y-126.9
X108.3Y-49.55
X108.3Y-68.75
X108.3Y-87.95
X108.3Y-107.15
X108.3Y-126.35
X108.35Y-46.7
X108.35Y-65.9
X108.35Y-85.1
X108.35Y-104.3
X108.35Y-123.5
X108.9Y-48.0
X108.9Y-67.2
X108.9Y-86.4
X108.9Y-105.6
X108.9Y-124.8
X110.0Y-39.1
X110.0Y-58.3
X110.0Y-77.5
X110.0Y-96.7
X110.0Y-115.9
X110.05Y-48.85
X110.05Y-51.95
X110.05Y-68.05
X110.05Y-71.15
X110.05Y-87.25
X110.05Y-90.35
X110.05Y-106.45
X110.05Y-109.55
X110.05Y-125.65
X110.05Y-128.75
X110.55Y-37.65
X110.55Y-56.85
X110.55Y-76.05
X110.55Y-95.25
X110.55Y-114.45
X110.65Y-40.6
X110.65Y-59.8
X110.65Y-79.0
X110.65Y-98.2
X110.65Y-117.4
X112.05Y-37.0
X112.05Y-41.1
X112.05Y-48.85
X112.05Y-52.05
X112.05Y-56.2
X112.05Y-60.3
X112.05Y-68.05
X112.05Y-71.25
X112.05Y-75.4
X112.05Y-79.5
X112.05Y-87.25
X112.05Y-90.45
X112.05Y-94.6
X112.05Y-98.7
X112.05Y-106.45
X112.05Y-109.65
X112.05Y-113.8
X112.05Y-117.9
X112.05Y-125.65
X112.05Y-128.85
X113.5Y-40.55
X113.5Y-59.75
X113.5Y-78.95
X113.5Y-98.15
X113.5Y-117.35
X113.55Y-37.7
X113.55Y-56.9
X113.55Y-76.1
X113.55Y-95.3
X113.55Y-114.5
X114.05Y-52.1
X114.05Y-71.3
X114.05Y-90.5
X114.05Y-109.7
X114.05Y-128.9
X114.1Y-39.0
X114.1Y-48.9
X114.1Y-58.2
X114.1Y-68.1
X114.1Y-77.4
X114.1Y-87.3
X114.1Y-96.6
X114.1Y-106.5
X114.1Y-115.8
X114.1Y-125.7
X115.2Y-48.1
X115.2Y-67.3
X115.2Y-86.5
X115.2Y-105.7
X115.2Y-124.9
X115.75Y-46.65
X115.75Y-65.85
X115.75Y-85.05
X115.75Y-104.25
X115.75Y-123.45
X115.85Y-49.6
X115.85Y-68.8
X115.85Y-88.0
X115.85Y-107.2
X115.85Y-126.4
X117.25Y-46.0
X117.25Y-50.1
X117.25Y-65.2
X117.25Y-69.3
X117.25Y-84.4
X117.25Y-88.5
X117.25Y-103.6
X117.25Y-107.7
X117.25Y-122.8
X117.25Y-126.9
X118.7Y-49.55
X118.7Y-68.75
X118.7Y-87.95
X118.7Y-107.15
X118.7Y-126.35
X118.75Y-46.7
X118.75Y-65.9
X118.75Y-85.1
X118.75Y-104.3
X118.75Y-123.5
X119.3Y-48.0
X119.3Y-67.2
X119.3Y-86.4
X119.3Y-105.6
X119.3Y-124.8
X124.0Y-48.1
X124.0Y-67.3
X124.0Y-86.5
X124.0Y-105.7
X124.0Y-124.9
X124.55Y-46.65
X124.55Y-65.85
X124.55Y-85.05
X124.55Y-104.25
X124.55Y-123.45
X124.65Y-49.6
X124.65Y-68.8
X124.65Y-88.0
X124.65Y-107.2
X124.65Y-126.4
X126.05Y-46.0
X126.05Y-50.1
X126.05Y-65.2
X126.05Y-69.3
X126.05Y-84.4
X126.05Y-88.5
X126.05Y-103.6
X126.05Y-107.7
X126.05Y-122.8
X126.05Y-126.9
X127.5Y-49.55
X127.5Y-68.75
X127.5Y-87.95
X127.5Y-107.15
X127.5Y-126.35
X127.55Y-46.7
X127.55Y-65.9
X127.55Y-85.1
X127.55Y-104.3
X127.55Y-123.5
X128.1Y-48.0
X128.1Y-67.2
X128.1Y-86.4
X128.1Y-105.6
X128.1Y-124.8
X129.2Y-39.1
X129.2Y-58.3
X129.2Y-77.5
X129.2Y-96.7
X129.2Y-115.9
X129.25Y-48.85
X129.25Y-51.95
X129.25Y-68.05
X129.25Y-71.15
X129.25Y-87.25
X129.25Y-90.35
X129.25Y-106.45
X129.25Y-109.55
X129.25Y-125.65
X129.25Y-128.75
X129.75Y-37.65
X129.75Y-56.85
X129.75Y-76.05
X129.75Y-95.25
X129.75Y-114.45
X129.85Y-40.6
X129.85Y-59.8
X129.85Y-79.0
X129.85Y-98.2
X129.85Y-117.4
X131.25Y-37.0
X131.25Y-41.1
X131.25Y-48.85
X131.25Y-52.05
X131.25Y-56.2
X131.25Y-60.3
X131.25Y-68.05
X131.25Y-71.25
X131.25Y-75.4
X131.25Y-79.5
X131.25Y-87.25
X131.25Y-90.45
X131.25Y-94.6
X131.25Y-98.7
X131.25Y-106.45
X131.25Y-109.65
X131.25Y-113.8
X131.25Y-117.9
X131.25Y-125.65
X131.25Y-128.85
X132.7Y-40.55
X132.7Y-59.75
X132.7Y-78.95
X132.7Y-98.15
X132.7Y-117.35
X132.75Y-37.7
X132.75Y-56.9
X132.75Y-76.1
X132.75Y-95.3
X132.75Y-114.5
X133.25Y-52.1
X133.25Y-71.3
X133.25Y-90.5
X133.25Y-109.7
X133.25Y-128.9
X133.3Y-39.0
X133.3Y-48.9
X133.3Y-58.2
X133.3Y-68.1
X133.3Y-77.4
X133.3Y-87.3
X133.3Y-96.6
X133.3Y-106.5
X133.3Y-115.8
X133.3Y-125.7
X134.4Y-48.1
X134.4Y-67.3
X134.4Y-86.5
X134.4Y-105.7
X134.4Y-124.9
X134.95Y-46.65
X134.95Y-65.85
X134.95Y-85.05
X134.95Y-104.25
X134.95Y-123.45
X135.05Y-49.6
X135.05Y-68.8
X135.05Y-88.0
X135.05Y-107.2
X135.05Y-126.4
X136.45Y-46.0
X136.45Y-50.1
X136.45Y-65.2
X136.45Y-69.3
X136.45Y-84.4
X136.45Y-88.5
X136.45Y-103.6
X136.45Y-107.7
X136.45Y-122.8
X136.45Y-126.9
X137.9Y-49.55
X137.9Y-68.75
X137.9Y-87.95
X137.9Y-107.15
X137.9Y-126.35
X137.95Y-46.7
X137.95Y-65.9
X137.95Y-85.1
X137.95Y-104.3
X137.95Y-123.5
X138.5Y-48.0
X138.5Y-67.2
X138.5Y-86.4
X138.5Y-105.6
X138.5Y-124.8
X143.2Y-48.1
X143.2Y-67.3
X143.2Y-86.5
X143.2Y-105.7
X143.2Y-124.9
X143.75Y-46.65
X143.75Y-65.85
X143.75Y-85.05
X143.75Y-104.25
X143.75Y-123.45
X143.85Y-49.6
X143.85Y-68.8
X143.85Y-88.0
X143.85Y-107.2
X143.85Y-126.4
X145.25Y-46.0
X145.25Y-50.1
X145.25Y-65.2
X145.25Y-69.3
X145.25Y-84.4
X145.25Y-88.5
X145.25Y-103.6
X145.25Y-107.7
X145.25Y-122.8
X145.25Y-126.9
X146.7Y-49.55
X146.7Y-68.75
X146.7Y-87.95
X146.7Y-107.15
X146.7Y-126.35
X146.75Y-46.7
X146.75Y-65.9
X146.75Y-85.1
X146.75Y-104.3
X146.75Y-123.5
X147.3Y-48.0
X147.3Y-67.2
X147.3Y-86.4
X147.3Y-105.6
X147.3Y-124.8
X148.4Y-39.1
X148.4Y-58.3
X148.4Y-77.5
X148.4Y-96.7
X148.4Y-115.9
X148.45Y-48.85
X148.45Y-51.95
X148.45Y-68.05
X148.45Y-71.15
X148.45Y-87.25
X148.45Y-90.35
X148.45Y-106.45
X148.45Y-109.55
X148.45Y-125.65
X148.45Y-128.75
X148.95Y-37.65
X148.95Y-56.85
X148.95Y-76.05
X148.95Y-95.25
X148.95Y-114.45
X149.05Y-40.6
X149.05Y-59.8
X149.05Y-79.0
X149.05Y-98.2
X149.05Y-117.4
X150.45Y-37.0
X150.45Y-41.1
X150.45Y-48.85
X150.45Y-52.05
X150.45Y-56.2
X150.45Y-60.3
X150.45Y-68.05
X150.45Y-71.25
X150.45Y-75.4
X150.45Y-79.5
X150.45Y-87.25
X150.45Y-90.45
X150.45Y-94.6
X150.45Y-98.7
X150.45Y-106.45
X150.45Y-109.65
X150.45Y-113.8
X150.45Y-117.9
X150.45Y-125.65
X150.45Y-128.85
X151.9Y-40.55
X151.9Y-59.75
X151.9Y-78.95
X151.9Y-98.15
X151.9Y-117.35
X151.95Y-37.7
X151.95Y-56.9
X151.95Y-76.1
X151.95Y-95.3
X151.95Y-114.5
X152.45Y-52.1
X152.45Y-71.3
X152.45Y-90.5
X152.45Y-109.7
X152.45Y-128.9
X152.5Y-39.0
X152.5Y-48.9
X152.5Y-58.2
X152.5Y-68.1
X152.5Y-77.4
X152.5Y-87.3
X152.5Y-96.6
X152.5Y-106.5
X152.5Y-115.8
X152.5Y-125.7
X153.6Y-48.1
X153.6Y-67.3
X153.6Y-86.5
X153.6Y-105.7
X153.6Y-124.9
X154.15Y-46.65
X154.15Y-65.85
X154.15Y-85.05
X154.15Y-104.25
X154.15Y-123.45
X154.25Y-49.6
X154.25Y-68.8
X154.25Y-88.0
X154.25Y-107.2
X154.25Y-126.4
X155.65Y-46.0
X155.65Y-50.1
X155.65Y-65.2
X155.65Y-69.3
X155.65Y-84.4
X155.65Y-88.5
X155.65Y-103.6
X155.65Y-107.7
X155.65Y-122.8
X155.65Y-126.9
X157.1Y-49.55
X157.1Y-68.75
X157.1Y-87.95
X157.1Y-107.15
X157.1Y-126.35
X157.15Y-46.7
X157.15Y-65.9
X157.15Y-85.1
X157.15Y-104.3
X157.15Y-123.5
X157.7Y-48.0
X157.7Y-67.2
X157.7Y-86.4
X157.7Y-105.6
X157.7Y-124.8
X162.4Y-48.1
X162.4Y-67.3
X162.4Y-86.5
X162.4Y-105.7
X162.4Y-124.9
X162.95Y-46.65
X162.95Y-65.85
X162.95Y-85.05
X162.95Y-104.25
X162.95Y-123.45
X163.05Y-49.6
X163.05Y-68.8
X163.05Y-88.0
X163.05Y-107.2
X163.05Y-126.4
X164.45Y-46.0
X164.45Y-50.1
X164.45Y-65.2
X164.45Y-69.3
X164.45Y-84.4
X164.45Y-88.5
X164.45Y-103.6
X164.45Y-107.7
X164.45Y-122.8
X164.45Y-126.9
X165.9Y-49.55
X165.9Y-68.75
X165.9Y-87.95
X165.9Y-107.15
X165.9Y-126.35
X165.95Y-46.7
X165.95Y-65.9
X165.95Y-85.1
X165.95Y-104.3
X165.95Y-123.5
X166.5Y-48.0
X166.5Y-67.2
X166.5Y-86.4
X166.5Y-105.6
X166.5Y-124.8
X167.6Y-39.1
X167.6Y-58.3
X167.6Y-77.5
X167.6Y-96.7
X167.6Y-115.9
X167.65Y-48.85
X167.65Y-51.95
X167.65Y-68.05
X167.65Y-71.15
X167.65Y-87.25
X167.65Y-90.35
X167.65Y-106.45
X167.65Y-109.55
X167.65Y-125.65
X167.65Y-128.75
X168.15Y-37.65
X168.15Y-56.85
X168.15Y-76.05
X168.15Y-95.25
X168.15Y-114.45
X168.25Y-40.6
X168.25Y-59.8
X168.25Y-79.0
X168.25Y-98.2
X168.25Y-117.4
X169.65Y-37.0
X169.65Y-41.1
X169.65Y-48.85
X169.65Y-52.05
X169.65Y-56.2
X169.65Y-60.3
X169.65Y-68.05
X169.65Y-71.25
X169.65Y-75.4
X169.65Y-79.5
X169.65Y-87.25
X169.65Y-90.45
X169.65Y-94.6
X169.65Y-98.7
X169.65Y-106.45
X169.65Y-109.65
X169.65Y-113.8
X169.65Y-117.9
X169.65Y-125.65
X169.65Y-128.85
X171.1Y-40.55
X171.1Y-59.75
X171.1Y-78.95
X171.1Y-98.15
X171.1Y-117.35
X171.15Y-37.7
X171.15Y-56.9
X171.15Y-76.1
X171.15Y-95.3
X171.15Y-114.5
X171.65Y-52.1
X171.65Y-71.3
X171.65Y-90.5
X171.65Y-109.7
X171.65Y-128.9
X171.7Y-39.0
X171.7Y-48.9
X171.7Y-58.2
X171.7Y-68.1
X171.7Y-77.4
X171.7Y-87.3
X171.7Y-96.6
X171.7Y-106.5
X171.7Y-115.8
X171.7Y-125.7
X172.8Y-48.1
X172.8Y-67.3
X172.8Y-86.5
X172.8Y-105.7
X172.8Y-124.9
X173.35Y-46.65
X173.35Y-65.85
X173.35Y-85.05
X173.35Y-104.25
X173.35Y-123.45
X173.45Y-49.6
X173.45Y-68.8
X173.45Y-88.0
X173.45Y-107.2
X173.45Y-126.4
X174.85Y-46.0
X174.85Y-50.1
X174.85Y-65.2
X174.85Y-69.3
X174.85Y-84.4
X174.85Y-88.5
X174.85Y-103.6
X174.85Y-107.7
X174.85Y-122.8
X174.85Y-126.9
X176.3Y-49.55
X176.3Y-68.75
X176.3Y-87.95
X176.3Y-107.15
X176.3Y-126.35
X176.35Y-46.7
X176.35Y-65.9
X176.35Y-85.1
X176.35Y-104.3
X176.35Y-123.5
X176.9Y-48.0
X176.9Y-67.2
X176.9Y-86.4
X176.9Y-105.6
X176.9Y-124.8
X181.6Y-48.1
X181.6Y-67.3
X181.6Y-86.5
X181.6Y-105.7
X181.6Y-124.9
X182.15Y-46.65
X182.15Y-65.85
X182.15Y-85.05
X182.15Y-104.25
X182.15Y-123.45
X182.25Y-49.6
X182.25Y-68.8
X182.25Y-88.0
X182.25Y-107.2
X182.25Y-126.4
X183.65Y-46.0
X183.65Y-50.1
X183.65Y-65.2
X183.65Y-69.3
X183.65Y-84.4
X183.65Y-88.5
X183.65Y-103.6
X183.65Y-107.7
X183.65Y-122.8
X183.65Y-126.9
X185.1Y-49.55
X185.1Y-68.75
X185.1Y-87.95
X185.1Y-107.15
X185.1Y-126.35
X185.15Y-46.7
X185.15Y-65.9
X185.15Y-85.1
X185.15Y-104.3
X185.15Y-123.5
X185.7Y-48.0
X185.7Y-67.2
X185.7Y-86.4
X185.7Y-105.6
X185.7Y-124.8
X186.8Y-39.1
X186.8Y-58.3
X186.8Y-77.5
X186.8Y-96.7
X186.8Y-115.9
X186.85Y-48.85
X186.85Y-51.95
X186.85Y-68.05
X186.85Y-71.15
X186.85Y-87.25
X186.85Y-90.35
X186.85Y-106.45
X186.85Y-109.55
X186.85Y-125.65
X186.85Y-128.75
X187.35Y-37.65
X187.35Y-56.85
X187.35Y-76.05
X187.35Y-95.25
X187.35Y-114.45
X187.45Y-40.6
X187.45Y-59.8
X187.45Y-79.0
X187.45Y-98.2
X187.45Y-117.4
X188.85Y-37.0
X188.85Y-41.1
X188.85Y-48.85
X188.85Y-52.05
X188.85Y-56.2
X188.85Y-60.3
X188.85Y-68.05
X188.85Y-71.25
X188.85Y-75.4
X188.85Y-79.5
X188.85Y-87.25
X188.85Y-90.45
X188.85Y-94.6
X188.85Y-98.7
X188.85Y-106.45
X188.85Y-109.65
X188.85Y-113.8
X188.85Y-117.9
X188.85Y-125.65
X188.85Y-128.85
X190.3Y-40.55
X190.3Y-59.75
X190.3Y-78.95
X190.3Y-98.15
X190.3Y-117.35
X190.35Y-37.7
X190.35Y-56.9
X190.35Y-76.1
X190.35Y-95.3
X190.35Y-114.5
X190.85Y-52.1
X190.85Y-71.3
X190.85Y-90.5
X190.85Y-109.7
X190.85Y-128.9
X190.9Y-39.0
X190.9Y-48.9
X190.9Y-58.2
X190.9Y-68.1
X190.9Y-77.4
X190.9Y-87.3
X190.9Y-96.6
X190.9Y-106.5
X190.9Y-115.8
X190.9Y-125.7
X192.0Y-48.1
X192.0Y-67.3
X192.0Y-86.5
X192.0Y-105.7
X192.0Y-124.9
X192.55Y-46.65
X192.55Y-65.85
X192.55Y-85.05
X192.55Y-104.25
X192.55Y-123.45
X192.65Y-49.6
X192.65Y-68.8
X192.65Y-88.0
X192.65Y-107.2
X192.65Y-126.4
X194.05Y-46.0
X194.05Y-50.1
X194.05Y-65.2
X194.05Y-69.3
X194.05Y-84.4
X194.05Y-88.5
X194.05Y-103.6
X194.05Y-107.7
X194.05Y-122.8
X194.05Y-126.9
X195.5Y-49.55
X195.5Y-68.75
X195.5Y-87.95
X195.5Y-107.15
X195.5Y-126.35
X195.55Y-46.7
X195.55Y-65.9
X195.55Y-85.1
X195.55Y-104.3
X195.55Y-123.5
X196.1Y-48.0
X196.1Y-67.2
X196.1Y-86.4
X196.1Y-105.6
X196.1Y-124.8
T0
M30
