G04 #@! TF.GenerationSoftware,KiCad,Pcbnew,7.0.9*
G04 #@! TF.CreationDate,2024-01-01T14:03:07+01:00*
G04 #@! TF.ProjectId,Nutzen,4e75747a-656e-42e6-9b69-6361645f7063,rev?*
G04 #@! TF.SameCoordinates,Original*
G04 #@! TF.FileFunction,Copper,L2,Bot*
G04 #@! TF.FilePolarity,Positive*
%FSLAX46Y46*%
G04 Gerber Fmt 4.6, Leading zero omitted, Abs format (unit mm)*
G04 Created by KiCad (PCBNEW 7.0.9) date 2024-01-01 14:03:07*
%MOMM*%
%LPD*%
G01*
G04 APERTURE LIST*
G04 Aperture macros list*
%AMRoundRect*
0 Rectangle with rounded corners*
0 $1 Rounding radius*
0 $2 $3 $4 $5 $6 $7 $8 $9 X,Y pos of 4 corners*
0 Add a 4 corners polygon primitive as box body*
4,1,4,$2,$3,$4,$5,$6,$7,$8,$9,$2,$3,0*
0 Add four circle primitives for the rounded corners*
1,1,$1+$1,$2,$3*
1,1,$1+$1,$4,$5*
1,1,$1+$1,$6,$7*
1,1,$1+$1,$8,$9*
0 Add four rect primitives between the rounded corners*
20,1,$1+$1,$2,$3,$4,$5,0*
20,1,$1+$1,$4,$5,$6,$7,0*
20,1,$1+$1,$6,$7,$8,$9,0*
20,1,$1+$1,$8,$9,$2,$3,0*%
G04 Aperture macros list end*
G04 #@! TA.AperFunction,SMDPad,CuDef*
%ADD10RoundRect,0.250000X0.250000X-0.750000X0.250000X0.750000X-0.250000X0.750000X-0.250000X-0.750000X0*%
G04 #@! TD*
G04 #@! TA.AperFunction,ViaPad*
%ADD11C,0.800000*%
G04 #@! TD*
G04 #@! TA.AperFunction,Conductor*
%ADD12C,0.500000*%
G04 #@! TD*
G04 APERTURE END LIST*
D10*
X169650000Y-127200000D03*
X167650000Y-108000000D03*
X167650000Y-88800000D03*
X114050000Y-88800000D03*
X148450000Y-108000000D03*
X110050000Y-127200000D03*
X133250000Y-108000000D03*
X148450000Y-127200000D03*
X171650000Y-88800000D03*
X150450000Y-127200000D03*
X171650000Y-69600000D03*
X112050000Y-50400000D03*
X186850000Y-127200000D03*
X133250000Y-69600000D03*
X188850000Y-69600000D03*
X169650000Y-88800000D03*
X114050000Y-50400000D03*
X112050000Y-88800000D03*
X188850000Y-127200000D03*
X110050000Y-50400000D03*
X152450000Y-69600000D03*
X131250000Y-69600000D03*
X110050000Y-69600000D03*
X190850000Y-108000000D03*
X190850000Y-69600000D03*
X190850000Y-88800000D03*
X148450000Y-69600000D03*
X188850000Y-50400000D03*
X171650000Y-108000000D03*
X131250000Y-127200000D03*
X112050000Y-69600000D03*
X167650000Y-127200000D03*
X131250000Y-88800000D03*
X133250000Y-50400000D03*
X110050000Y-108000000D03*
X148450000Y-88800000D03*
X188850000Y-88800000D03*
X186850000Y-88800000D03*
X150450000Y-50400000D03*
X186850000Y-108000000D03*
X133250000Y-127200000D03*
X190850000Y-50400000D03*
X131250000Y-50400000D03*
X129250000Y-50400000D03*
X129250000Y-127200000D03*
X129250000Y-69600000D03*
X129250000Y-108000000D03*
X148450000Y-50400000D03*
X150450000Y-108000000D03*
X112050000Y-108000000D03*
X169650000Y-50400000D03*
X171650000Y-50400000D03*
X152450000Y-88800000D03*
X150450000Y-88800000D03*
X114050000Y-69600000D03*
X167650000Y-69600000D03*
X129250000Y-88800000D03*
X190850000Y-127200000D03*
X169650000Y-69600000D03*
X152450000Y-127200000D03*
X110050000Y-88800000D03*
X114050000Y-127200000D03*
X114050000Y-108000000D03*
X186850000Y-50400000D03*
X186850000Y-69600000D03*
X112050000Y-127200000D03*
X152450000Y-50400000D03*
X133250000Y-88800000D03*
X171650000Y-127200000D03*
X169650000Y-108000000D03*
X152450000Y-108000000D03*
X131250000Y-108000000D03*
X188850000Y-108000000D03*
X150450000Y-69600000D03*
X167650000Y-50400000D03*
D11*
X171650000Y-52100000D03*
X192000000Y-86500000D03*
X114100000Y-87300000D03*
X153600000Y-86500000D03*
X137950000Y-85100000D03*
X173450000Y-49600000D03*
X119300000Y-105600000D03*
X152450000Y-90500000D03*
X118700000Y-107150000D03*
X190850000Y-109700000D03*
X117250000Y-69300000D03*
X176350000Y-46700000D03*
X134950000Y-65850000D03*
X136450000Y-65200000D03*
X176350000Y-85100000D03*
X192550000Y-104250000D03*
X153600000Y-67300000D03*
X190900000Y-48900000D03*
X117250000Y-107700000D03*
X138500000Y-67200000D03*
X172800000Y-67300000D03*
X157700000Y-48000000D03*
X157100000Y-68750000D03*
X117250000Y-84400000D03*
X176900000Y-105600000D03*
X114050000Y-128900000D03*
X136450000Y-46000000D03*
X190850000Y-128900000D03*
X137950000Y-46700000D03*
X171650000Y-128900000D03*
X138500000Y-105600000D03*
X137900000Y-68750000D03*
X119300000Y-86400000D03*
X137900000Y-126350000D03*
X176350000Y-104300000D03*
X190850000Y-52100000D03*
X195550000Y-85100000D03*
X118750000Y-104300000D03*
X154150000Y-85050000D03*
X138500000Y-48000000D03*
X194050000Y-69300000D03*
X196100000Y-124800000D03*
X174850000Y-103600000D03*
X114050000Y-90500000D03*
X133300000Y-48900000D03*
X115200000Y-86500000D03*
X192650000Y-68800000D03*
X190850000Y-90500000D03*
X155650000Y-88500000D03*
X137900000Y-49550000D03*
X155650000Y-107700000D03*
X171700000Y-68100000D03*
X117250000Y-103600000D03*
X114050000Y-52100000D03*
X117250000Y-126900000D03*
X176900000Y-86400000D03*
X154150000Y-123450000D03*
X155650000Y-126900000D03*
X136450000Y-103600000D03*
X135050000Y-126400000D03*
X134400000Y-48100000D03*
X117250000Y-88500000D03*
X133250000Y-71300000D03*
X154250000Y-68800000D03*
X135050000Y-49600000D03*
X173450000Y-68800000D03*
X115750000Y-85050000D03*
X174850000Y-88500000D03*
X118750000Y-85100000D03*
X114050000Y-109700000D03*
X136450000Y-107700000D03*
X190900000Y-106500000D03*
X114100000Y-68100000D03*
X115850000Y-126400000D03*
X153600000Y-124900000D03*
X196100000Y-86400000D03*
X118750000Y-65900000D03*
X192000000Y-48100000D03*
X155650000Y-50100000D03*
X176900000Y-124800000D03*
X134400000Y-67300000D03*
X115200000Y-105700000D03*
X173450000Y-88000000D03*
X133250000Y-109700000D03*
X137900000Y-87950000D03*
X173350000Y-85050000D03*
X133300000Y-125700000D03*
X134400000Y-86500000D03*
X137950000Y-104300000D03*
X136450000Y-122800000D03*
X157700000Y-86400000D03*
X157100000Y-49550000D03*
X115750000Y-46650000D03*
X196100000Y-48000000D03*
X118700000Y-87950000D03*
X115850000Y-88000000D03*
X136450000Y-88500000D03*
X134400000Y-124900000D03*
X176300000Y-107150000D03*
X135050000Y-88000000D03*
X171700000Y-87300000D03*
X155650000Y-69300000D03*
X195500000Y-49550000D03*
X118700000Y-68750000D03*
X171650000Y-90500000D03*
X192000000Y-67300000D03*
X176350000Y-65900000D03*
X174850000Y-122800000D03*
X154250000Y-126400000D03*
X155650000Y-46000000D03*
X138500000Y-124800000D03*
X195500000Y-68750000D03*
X194050000Y-107700000D03*
X152500000Y-48900000D03*
X171650000Y-71300000D03*
X192000000Y-105700000D03*
X155650000Y-103600000D03*
X114100000Y-125700000D03*
X195550000Y-104300000D03*
X190900000Y-87300000D03*
X118750000Y-123500000D03*
X192650000Y-107200000D03*
X119300000Y-48000000D03*
X134950000Y-85050000D03*
X135050000Y-107200000D03*
X176300000Y-49550000D03*
X195550000Y-46700000D03*
X194050000Y-46000000D03*
X115750000Y-65850000D03*
X194050000Y-126900000D03*
X154150000Y-65850000D03*
X194050000Y-103600000D03*
X171700000Y-106500000D03*
X115200000Y-124900000D03*
X136450000Y-69300000D03*
X171650000Y-109700000D03*
X115200000Y-67300000D03*
X172800000Y-124900000D03*
X173350000Y-65850000D03*
X195500000Y-107150000D03*
X136450000Y-84400000D03*
X134950000Y-104250000D03*
X194050000Y-88500000D03*
X134950000Y-123450000D03*
X192650000Y-88000000D03*
X137950000Y-123500000D03*
X171700000Y-48900000D03*
X152450000Y-109700000D03*
X115850000Y-49600000D03*
X176350000Y-123500000D03*
X154250000Y-49600000D03*
X190900000Y-68100000D03*
X174850000Y-69300000D03*
X118700000Y-49550000D03*
X117250000Y-65200000D03*
X176900000Y-48000000D03*
X153600000Y-105700000D03*
X174850000Y-84400000D03*
X135050000Y-68800000D03*
X157100000Y-87950000D03*
X115750000Y-104250000D03*
X133250000Y-128900000D03*
X176300000Y-126350000D03*
X152450000Y-52100000D03*
X118750000Y-46700000D03*
X115850000Y-107200000D03*
X114100000Y-106500000D03*
X174850000Y-46000000D03*
X155650000Y-65200000D03*
X174850000Y-65200000D03*
X155650000Y-84400000D03*
X172800000Y-86500000D03*
X157150000Y-104300000D03*
X192550000Y-85050000D03*
X194050000Y-50100000D03*
X192650000Y-49600000D03*
X134400000Y-105700000D03*
X192000000Y-124900000D03*
X174850000Y-126900000D03*
X176300000Y-87950000D03*
X173450000Y-107200000D03*
X119300000Y-124800000D03*
X117250000Y-122800000D03*
X152450000Y-71300000D03*
X174850000Y-107700000D03*
X155650000Y-122800000D03*
X195500000Y-87950000D03*
X154250000Y-88000000D03*
X194050000Y-65200000D03*
X157100000Y-126350000D03*
X153600000Y-48100000D03*
X157150000Y-123500000D03*
X152500000Y-106500000D03*
X137900000Y-107150000D03*
X134950000Y-46650000D03*
X136450000Y-126900000D03*
X176900000Y-67200000D03*
X157150000Y-65900000D03*
X157700000Y-124800000D03*
X115850000Y-68800000D03*
X173450000Y-126400000D03*
X114100000Y-48900000D03*
X190850000Y-71300000D03*
X154250000Y-107200000D03*
X196100000Y-67200000D03*
X174850000Y-50100000D03*
X133300000Y-106500000D03*
X152500000Y-68100000D03*
X133250000Y-52100000D03*
X114050000Y-71300000D03*
X192550000Y-46650000D03*
X152450000Y-128900000D03*
X152500000Y-125700000D03*
X173350000Y-46650000D03*
X172800000Y-105700000D03*
X173350000Y-123450000D03*
X119300000Y-67200000D03*
X192650000Y-126400000D03*
X194050000Y-122800000D03*
X196100000Y-105600000D03*
X157700000Y-105600000D03*
X176300000Y-68750000D03*
X195550000Y-123500000D03*
X137950000Y-65900000D03*
X117250000Y-46000000D03*
X154150000Y-104250000D03*
X118700000Y-126350000D03*
X138500000Y-86400000D03*
X157700000Y-67200000D03*
X115200000Y-48100000D03*
X172800000Y-48100000D03*
X133300000Y-87300000D03*
X157150000Y-46700000D03*
X117250000Y-50100000D03*
X154150000Y-46650000D03*
X115750000Y-123450000D03*
X194050000Y-84400000D03*
X133300000Y-68100000D03*
X171700000Y-125700000D03*
X173350000Y-104250000D03*
X195550000Y-65900000D03*
X157150000Y-85100000D03*
X195500000Y-126350000D03*
X192550000Y-123450000D03*
X157100000Y-107150000D03*
X192550000Y-65850000D03*
X152500000Y-87300000D03*
X133250000Y-90500000D03*
X190900000Y-125700000D03*
X136450000Y-50100000D03*
X165900000Y-87950000D03*
X163050000Y-126400000D03*
X108900000Y-86400000D03*
X124650000Y-107200000D03*
X124550000Y-46650000D03*
X124000000Y-124900000D03*
X129250000Y-68050000D03*
X146750000Y-65900000D03*
X108300000Y-49550000D03*
X110050000Y-71150000D03*
X110050000Y-109550000D03*
X162400000Y-67300000D03*
X143200000Y-67300000D03*
X143200000Y-124900000D03*
X163050000Y-68800000D03*
X163050000Y-107200000D03*
X147300000Y-67200000D03*
X167650000Y-48850000D03*
X148450000Y-68050000D03*
X186850000Y-68050000D03*
X146700000Y-68750000D03*
X167650000Y-51950000D03*
X186850000Y-48850000D03*
X182150000Y-104250000D03*
X110050000Y-87250000D03*
X105450000Y-68800000D03*
X124000000Y-86500000D03*
X162400000Y-105700000D03*
X165900000Y-49550000D03*
X167650000Y-87250000D03*
X126050000Y-122800000D03*
X124650000Y-68800000D03*
X143200000Y-86500000D03*
X110050000Y-128750000D03*
X127500000Y-107150000D03*
X186850000Y-109550000D03*
X165900000Y-107150000D03*
X145250000Y-46000000D03*
X124000000Y-105700000D03*
X145250000Y-65200000D03*
X165900000Y-68750000D03*
X129250000Y-128750000D03*
X185150000Y-46700000D03*
X164450000Y-50100000D03*
X164450000Y-107700000D03*
X110050000Y-48850000D03*
X127550000Y-123500000D03*
X104800000Y-105700000D03*
X105350000Y-123450000D03*
X181600000Y-48100000D03*
X185100000Y-87950000D03*
X129250000Y-71150000D03*
X126050000Y-84400000D03*
X164450000Y-46000000D03*
X126050000Y-126900000D03*
X148450000Y-48850000D03*
X143750000Y-85050000D03*
X182250000Y-88000000D03*
X164450000Y-84400000D03*
X143750000Y-65850000D03*
X164450000Y-65200000D03*
X106850000Y-84400000D03*
X164450000Y-88500000D03*
X183650000Y-88500000D03*
X186850000Y-71150000D03*
X165950000Y-65900000D03*
X147300000Y-48000000D03*
X143200000Y-48100000D03*
X104800000Y-124900000D03*
X124650000Y-88000000D03*
X110050000Y-51950000D03*
X167650000Y-109550000D03*
X185100000Y-49550000D03*
X164450000Y-122800000D03*
X105450000Y-126400000D03*
X165950000Y-123500000D03*
X106850000Y-88500000D03*
X129250000Y-87250000D03*
X182150000Y-46650000D03*
X110050000Y-125650000D03*
X110050000Y-106450000D03*
X106850000Y-65200000D03*
X108900000Y-105600000D03*
X127500000Y-87950000D03*
X185700000Y-124800000D03*
X162950000Y-85050000D03*
X108350000Y-104300000D03*
X143850000Y-49600000D03*
X106850000Y-103600000D03*
X108300000Y-68750000D03*
X106850000Y-69300000D03*
X185700000Y-105600000D03*
X165950000Y-85100000D03*
X145250000Y-84400000D03*
X183650000Y-122800000D03*
X145250000Y-103600000D03*
X129250000Y-48850000D03*
X162950000Y-65850000D03*
X148450000Y-90350000D03*
X110050000Y-68050000D03*
X185150000Y-85100000D03*
X146750000Y-104300000D03*
X110050000Y-90350000D03*
X108300000Y-107150000D03*
X148450000Y-106450000D03*
X143200000Y-105700000D03*
X186850000Y-106450000D03*
X126050000Y-107700000D03*
X145250000Y-50100000D03*
X148450000Y-109550000D03*
X106850000Y-122800000D03*
X183650000Y-65200000D03*
X185100000Y-107150000D03*
X146700000Y-107150000D03*
X124650000Y-126400000D03*
X108350000Y-85100000D03*
X186850000Y-51950000D03*
X182250000Y-107200000D03*
X124000000Y-67300000D03*
X143850000Y-68800000D03*
X148450000Y-128750000D03*
X106850000Y-107700000D03*
X148450000Y-71150000D03*
X106850000Y-50100000D03*
X127500000Y-49550000D03*
X143750000Y-104250000D03*
X146750000Y-85100000D03*
X147300000Y-86400000D03*
X147300000Y-124800000D03*
X162950000Y-123450000D03*
X143750000Y-123450000D03*
X129250000Y-106450000D03*
X146750000Y-123500000D03*
X182150000Y-65850000D03*
X127550000Y-85100000D03*
X126050000Y-46000000D03*
X163050000Y-88000000D03*
X129250000Y-90350000D03*
X108300000Y-87950000D03*
X182150000Y-85050000D03*
X105350000Y-46650000D03*
X186850000Y-128750000D03*
X183650000Y-84400000D03*
X124550000Y-123450000D03*
X104800000Y-48100000D03*
X108350000Y-46700000D03*
X183650000Y-107700000D03*
X124550000Y-65850000D03*
X182250000Y-126400000D03*
X185150000Y-65900000D03*
X145250000Y-107700000D03*
X182250000Y-68800000D03*
X164450000Y-103600000D03*
X128100000Y-48000000D03*
X146700000Y-49550000D03*
X167650000Y-125650000D03*
X162950000Y-104250000D03*
X127500000Y-68750000D03*
X145250000Y-122800000D03*
X165950000Y-104300000D03*
X145250000Y-126900000D03*
X143850000Y-126400000D03*
X129250000Y-109550000D03*
X183650000Y-50100000D03*
X124550000Y-85050000D03*
X148450000Y-125650000D03*
X167650000Y-106450000D03*
X183650000Y-69300000D03*
X181600000Y-67300000D03*
X105450000Y-49600000D03*
X108900000Y-48000000D03*
X166500000Y-86400000D03*
X185700000Y-48000000D03*
X105450000Y-107200000D03*
X148450000Y-51950000D03*
X143850000Y-107200000D03*
X124000000Y-48100000D03*
X105350000Y-85050000D03*
X126050000Y-103600000D03*
X167650000Y-90350000D03*
X105350000Y-65850000D03*
X185700000Y-86400000D03*
X129250000Y-51950000D03*
X128100000Y-105600000D03*
X148450000Y-87250000D03*
X167650000Y-128750000D03*
X106850000Y-126900000D03*
X165950000Y-46700000D03*
X147300000Y-105600000D03*
X145250000Y-88500000D03*
X182250000Y-49600000D03*
X108350000Y-123500000D03*
X166500000Y-105600000D03*
X185100000Y-68750000D03*
X146700000Y-126350000D03*
X108900000Y-67200000D03*
X124550000Y-104250000D03*
X181600000Y-105700000D03*
X104800000Y-86500000D03*
X105450000Y-88000000D03*
X166500000Y-67200000D03*
X124650000Y-49600000D03*
X127500000Y-126350000D03*
X186850000Y-87250000D03*
X146750000Y-46700000D03*
X127550000Y-104300000D03*
X162400000Y-86500000D03*
X164450000Y-126900000D03*
X183650000Y-46000000D03*
X185150000Y-123500000D03*
X128100000Y-86400000D03*
X126050000Y-50100000D03*
X128100000Y-124800000D03*
X126050000Y-65200000D03*
X167650000Y-71150000D03*
X126050000Y-88500000D03*
X186850000Y-125650000D03*
X146700000Y-87950000D03*
X128100000Y-67200000D03*
X181600000Y-86500000D03*
X182150000Y-123450000D03*
X162400000Y-124900000D03*
X166500000Y-124800000D03*
X106850000Y-46000000D03*
X183650000Y-126900000D03*
X163050000Y-49600000D03*
X186850000Y-90350000D03*
X185150000Y-104300000D03*
X185700000Y-67200000D03*
X167650000Y-68050000D03*
X127550000Y-46700000D03*
X105350000Y-104250000D03*
X108350000Y-65900000D03*
X108300000Y-126350000D03*
X145250000Y-69300000D03*
X185100000Y-126350000D03*
X104800000Y-67300000D03*
X162400000Y-48100000D03*
X129250000Y-125650000D03*
X162950000Y-46650000D03*
X166500000Y-48000000D03*
X165900000Y-126350000D03*
X143750000Y-46650000D03*
X126050000Y-69300000D03*
X108900000Y-124800000D03*
X181600000Y-124900000D03*
X164450000Y-69300000D03*
X183650000Y-103600000D03*
X127550000Y-65900000D03*
X143850000Y-88000000D03*
X110000000Y-39100000D03*
X131250000Y-60300000D03*
X132750000Y-114500000D03*
X171700000Y-39000000D03*
X186800000Y-77500000D03*
X112050000Y-56200000D03*
X171100000Y-117350000D03*
X169650000Y-117900000D03*
X190350000Y-114500000D03*
X110650000Y-117400000D03*
X187450000Y-59800000D03*
X129850000Y-59800000D03*
X150450000Y-68050000D03*
X113500000Y-59750000D03*
X150450000Y-90450000D03*
X113500000Y-117350000D03*
X110550000Y-114450000D03*
X150450000Y-52050000D03*
X131250000Y-109650000D03*
X150450000Y-75400000D03*
X152500000Y-39000000D03*
X132700000Y-40550000D03*
X171150000Y-114500000D03*
X188850000Y-98700000D03*
X188850000Y-117900000D03*
X129200000Y-77500000D03*
X129200000Y-58300000D03*
X132750000Y-56900000D03*
X151900000Y-40550000D03*
X167600000Y-96700000D03*
X171700000Y-77400000D03*
X110650000Y-79000000D03*
X188850000Y-75400000D03*
X132750000Y-37700000D03*
X168250000Y-98200000D03*
X187450000Y-117400000D03*
X171150000Y-37700000D03*
X169650000Y-71250000D03*
X112050000Y-52050000D03*
X167600000Y-77500000D03*
X133300000Y-58200000D03*
X133300000Y-39000000D03*
X129200000Y-96700000D03*
X187350000Y-114450000D03*
X148950000Y-114450000D03*
X188850000Y-60300000D03*
X169650000Y-52050000D03*
X129850000Y-117400000D03*
X131250000Y-128850000D03*
X169650000Y-41100000D03*
X188850000Y-128850000D03*
X190900000Y-58200000D03*
X188850000Y-90450000D03*
X148950000Y-56850000D03*
X188850000Y-71250000D03*
X187350000Y-76050000D03*
X148400000Y-77500000D03*
X190900000Y-39000000D03*
X113500000Y-98150000D03*
X129850000Y-98200000D03*
X151950000Y-95300000D03*
X110550000Y-76050000D03*
X188850000Y-68050000D03*
X151900000Y-78950000D03*
X110650000Y-59800000D03*
X112050000Y-60300000D03*
X188850000Y-125650000D03*
X169650000Y-87250000D03*
X113550000Y-95300000D03*
X187450000Y-98200000D03*
X190900000Y-77400000D03*
X131250000Y-41100000D03*
X190350000Y-76100000D03*
X112050000Y-94600000D03*
X112050000Y-71250000D03*
X152500000Y-77400000D03*
X110000000Y-115900000D03*
X168250000Y-59800000D03*
X171150000Y-95300000D03*
X110000000Y-77500000D03*
X148950000Y-95250000D03*
X188850000Y-37000000D03*
X112050000Y-128850000D03*
X190900000Y-115800000D03*
X150450000Y-106450000D03*
X151900000Y-98150000D03*
X131250000Y-87250000D03*
X171100000Y-98150000D03*
X150450000Y-48850000D03*
X171700000Y-96600000D03*
X110550000Y-56850000D03*
X114100000Y-96600000D03*
X131250000Y-56200000D03*
X171150000Y-56900000D03*
X169650000Y-98700000D03*
X190300000Y-117350000D03*
X131250000Y-90450000D03*
X167600000Y-58300000D03*
X148400000Y-39100000D03*
X131250000Y-52050000D03*
X129750000Y-114450000D03*
X149050000Y-117400000D03*
X169650000Y-90450000D03*
X169650000Y-109650000D03*
X186800000Y-39100000D03*
X171100000Y-59750000D03*
X132750000Y-76100000D03*
X169650000Y-94600000D03*
X132700000Y-98150000D03*
X131250000Y-37000000D03*
X131250000Y-75400000D03*
X188850000Y-41100000D03*
X112050000Y-48850000D03*
X188850000Y-52050000D03*
X149050000Y-98200000D03*
X188850000Y-48850000D03*
X131250000Y-98700000D03*
X187350000Y-37650000D03*
X168150000Y-95250000D03*
X113550000Y-114500000D03*
X129750000Y-37650000D03*
X151950000Y-37700000D03*
X186800000Y-115900000D03*
X131250000Y-117900000D03*
X188850000Y-109650000D03*
X151950000Y-76100000D03*
X114100000Y-115800000D03*
X131250000Y-79500000D03*
X169650000Y-128850000D03*
X186800000Y-96700000D03*
X110000000Y-58300000D03*
X131250000Y-113800000D03*
X112050000Y-79500000D03*
X168150000Y-114450000D03*
X150450000Y-94600000D03*
X188850000Y-87250000D03*
X187450000Y-40600000D03*
X151900000Y-117350000D03*
X131250000Y-48850000D03*
X171100000Y-78950000D03*
X133300000Y-115800000D03*
X150450000Y-109650000D03*
X190300000Y-78950000D03*
X112050000Y-41100000D03*
X131250000Y-125650000D03*
X188850000Y-106450000D03*
X129750000Y-56850000D03*
X187450000Y-79000000D03*
X110550000Y-95250000D03*
X188850000Y-113800000D03*
X110000000Y-96700000D03*
X132700000Y-78950000D03*
X113500000Y-78950000D03*
X190300000Y-40550000D03*
X129850000Y-79000000D03*
X168150000Y-37650000D03*
X150450000Y-113800000D03*
X171150000Y-76100000D03*
X114100000Y-39000000D03*
X150450000Y-87250000D03*
X112050000Y-75400000D03*
X150450000Y-79500000D03*
X150450000Y-41100000D03*
X114100000Y-58200000D03*
X110650000Y-98200000D03*
X169650000Y-75400000D03*
X113500000Y-40550000D03*
X152500000Y-58200000D03*
X190350000Y-37700000D03*
X151950000Y-114500000D03*
X151900000Y-59750000D03*
X149050000Y-59800000D03*
X169650000Y-37000000D03*
X169650000Y-79500000D03*
X188850000Y-79500000D03*
X148400000Y-115900000D03*
X167600000Y-39100000D03*
X131250000Y-94600000D03*
X132700000Y-59750000D03*
X190350000Y-56900000D03*
X110650000Y-40600000D03*
X167600000Y-115900000D03*
X150450000Y-71250000D03*
X168150000Y-56850000D03*
X112050000Y-37000000D03*
X168250000Y-79000000D03*
X171100000Y-40550000D03*
X112050000Y-98700000D03*
X190300000Y-98150000D03*
X113550000Y-56900000D03*
X148950000Y-76050000D03*
X169650000Y-48850000D03*
X110550000Y-37650000D03*
X112050000Y-106450000D03*
X169650000Y-68050000D03*
X112050000Y-68050000D03*
X131250000Y-71250000D03*
X152500000Y-96600000D03*
X150450000Y-60300000D03*
X132750000Y-95300000D03*
X186800000Y-58300000D03*
X188850000Y-56200000D03*
X131250000Y-106450000D03*
X188850000Y-94600000D03*
X131250000Y-68050000D03*
X132700000Y-117350000D03*
X113550000Y-76100000D03*
X152500000Y-115800000D03*
X169650000Y-113800000D03*
X169650000Y-106450000D03*
X112050000Y-113800000D03*
X150450000Y-125650000D03*
X150450000Y-56200000D03*
X168250000Y-117400000D03*
X151950000Y-56900000D03*
X149050000Y-79000000D03*
X171700000Y-58200000D03*
X187350000Y-56850000D03*
X129200000Y-115900000D03*
X187350000Y-95250000D03*
X113550000Y-37700000D03*
X149050000Y-40600000D03*
X129750000Y-76050000D03*
X171700000Y-115800000D03*
X114100000Y-77400000D03*
X190350000Y-95300000D03*
X150450000Y-128850000D03*
X112050000Y-109650000D03*
X112050000Y-117900000D03*
X112050000Y-87250000D03*
X148950000Y-37650000D03*
X129750000Y-95250000D03*
X169650000Y-56200000D03*
X150450000Y-117900000D03*
X112050000Y-90450000D03*
X133300000Y-77400000D03*
X169650000Y-60300000D03*
X168150000Y-76050000D03*
X169650000Y-125650000D03*
X148400000Y-58300000D03*
X190300000Y-59750000D03*
X133300000Y-96600000D03*
X112050000Y-125650000D03*
X129200000Y-39100000D03*
X168250000Y-40600000D03*
X190900000Y-96600000D03*
X148400000Y-96700000D03*
X150450000Y-37000000D03*
X150450000Y-98700000D03*
X129850000Y-40600000D03*
D12*
X133250000Y-50400000D02*
X133250000Y-52100000D01*
X152450000Y-87650000D02*
X152450000Y-88800000D01*
X190900000Y-125700000D02*
X191700000Y-124900000D01*
X190900000Y-48900000D02*
X191700000Y-48100000D01*
X190850000Y-126050000D02*
X190850000Y-127200000D01*
X134100000Y-124900000D02*
X134400000Y-124900000D01*
X152500000Y-87300000D02*
X152500000Y-87600000D01*
X133250000Y-87650000D02*
X133250000Y-88800000D01*
X152450000Y-68450000D02*
X152450000Y-69600000D01*
X190900000Y-87600000D02*
X190850000Y-87650000D01*
X171700000Y-68400000D02*
X171650000Y-68450000D01*
X133250000Y-68450000D02*
X133250000Y-69600000D01*
X133300000Y-125700000D02*
X133300000Y-126000000D01*
X134100000Y-86500000D02*
X134400000Y-86500000D01*
X190900000Y-126000000D02*
X190850000Y-126050000D01*
X114100000Y-68100000D02*
X114100000Y-68400000D01*
X171650000Y-106850000D02*
X171650000Y-108000000D01*
X152500000Y-125700000D02*
X153300000Y-124900000D01*
X114100000Y-87300000D02*
X114900000Y-86500000D01*
X190850000Y-49250000D02*
X190850000Y-50400000D01*
X190850000Y-68450000D02*
X190850000Y-69600000D01*
X171650000Y-127200000D02*
X171650000Y-128900000D01*
X190900000Y-87300000D02*
X190900000Y-87600000D01*
X172500000Y-105700000D02*
X172800000Y-105700000D01*
X114100000Y-87300000D02*
X114100000Y-87600000D01*
X171700000Y-48900000D02*
X171700000Y-49200000D01*
X190850000Y-50400000D02*
X190850000Y-52100000D01*
X114900000Y-67300000D02*
X115200000Y-67300000D01*
X133250000Y-127200000D02*
X133250000Y-128900000D01*
X133300000Y-106500000D02*
X134100000Y-105700000D01*
X152500000Y-68400000D02*
X152450000Y-68450000D01*
X171700000Y-106500000D02*
X171700000Y-106800000D01*
X114900000Y-105700000D02*
X115200000Y-105700000D01*
X152450000Y-49250000D02*
X152450000Y-50400000D01*
X134100000Y-48100000D02*
X134400000Y-48100000D01*
X133300000Y-68100000D02*
X134100000Y-67300000D01*
X190900000Y-48900000D02*
X190900000Y-49200000D01*
X114100000Y-106800000D02*
X114050000Y-106850000D01*
X190900000Y-106500000D02*
X190900000Y-106800000D01*
X171650000Y-49250000D02*
X171650000Y-50400000D01*
X171700000Y-106500000D02*
X172500000Y-105700000D01*
X152500000Y-106500000D02*
X152500000Y-106800000D01*
X171650000Y-108000000D02*
X171650000Y-109700000D01*
X114900000Y-48100000D02*
X115200000Y-48100000D01*
X152450000Y-50400000D02*
X152450000Y-52100000D01*
X152500000Y-68100000D02*
X152500000Y-68400000D01*
X152450000Y-69600000D02*
X152450000Y-71300000D01*
X133300000Y-68100000D02*
X133300000Y-68400000D01*
X171650000Y-88800000D02*
X171650000Y-90500000D01*
X152450000Y-127200000D02*
X152450000Y-128900000D01*
X133300000Y-48900000D02*
X133300000Y-49200000D01*
X153300000Y-67300000D02*
X153600000Y-67300000D01*
X114050000Y-68450000D02*
X114050000Y-69600000D01*
X133300000Y-106500000D02*
X133300000Y-106800000D01*
X114050000Y-106850000D02*
X114050000Y-108000000D01*
X133300000Y-87300000D02*
X133300000Y-87600000D01*
X190850000Y-106850000D02*
X190850000Y-108000000D01*
X190850000Y-127200000D02*
X190850000Y-128900000D01*
X134100000Y-105700000D02*
X134400000Y-105700000D01*
X114100000Y-126000000D02*
X114050000Y-126050000D01*
X171700000Y-87300000D02*
X171700000Y-87600000D01*
X133300000Y-68400000D02*
X133250000Y-68450000D01*
X114100000Y-125700000D02*
X114900000Y-124900000D01*
X171700000Y-87300000D02*
X172500000Y-86500000D01*
X191700000Y-105700000D02*
X192000000Y-105700000D01*
X190850000Y-88800000D02*
X190850000Y-90500000D01*
X133250000Y-69600000D02*
X133250000Y-71300000D01*
X152450000Y-88800000D02*
X152450000Y-90500000D01*
X172500000Y-67300000D02*
X172800000Y-67300000D01*
X114900000Y-86500000D02*
X115200000Y-86500000D01*
X133300000Y-48900000D02*
X134100000Y-48100000D01*
X134100000Y-67300000D02*
X134400000Y-67300000D01*
X133300000Y-87300000D02*
X134100000Y-86500000D01*
X171650000Y-87650000D02*
X171650000Y-88800000D01*
X152500000Y-48900000D02*
X153300000Y-48100000D01*
X114100000Y-125700000D02*
X114100000Y-126000000D01*
X152500000Y-125700000D02*
X152500000Y-126000000D01*
X152450000Y-106850000D02*
X152450000Y-108000000D01*
X171700000Y-49200000D02*
X171650000Y-49250000D01*
X190900000Y-49200000D02*
X190850000Y-49250000D01*
X171700000Y-125700000D02*
X171700000Y-126000000D01*
X152500000Y-106800000D02*
X152450000Y-106850000D01*
X171650000Y-68450000D02*
X171650000Y-69600000D01*
X152450000Y-108000000D02*
X152450000Y-109700000D01*
X191700000Y-86500000D02*
X192000000Y-86500000D01*
X171700000Y-125700000D02*
X172500000Y-124900000D01*
X114050000Y-69600000D02*
X114050000Y-71300000D01*
X172500000Y-48100000D02*
X172800000Y-48100000D01*
X133300000Y-125700000D02*
X134100000Y-124900000D01*
X114050000Y-127200000D02*
X114050000Y-128900000D01*
X152500000Y-87600000D02*
X152450000Y-87650000D01*
X133250000Y-106850000D02*
X133250000Y-108000000D01*
X152500000Y-126000000D02*
X152450000Y-126050000D01*
X171700000Y-126000000D02*
X171650000Y-126050000D01*
X114900000Y-124900000D02*
X115200000Y-124900000D01*
X153300000Y-86500000D02*
X153600000Y-86500000D01*
X171650000Y-69600000D02*
X171650000Y-71300000D01*
X133250000Y-49250000D02*
X133250000Y-50400000D01*
X171700000Y-48900000D02*
X172500000Y-48100000D01*
X152500000Y-87300000D02*
X153300000Y-86500000D01*
X190850000Y-87650000D02*
X190850000Y-88800000D01*
X133300000Y-87600000D02*
X133250000Y-87650000D01*
X171650000Y-126050000D02*
X171650000Y-127200000D01*
X133300000Y-49200000D02*
X133250000Y-49250000D01*
X133250000Y-126050000D02*
X133250000Y-127200000D01*
X190900000Y-68100000D02*
X191700000Y-67300000D01*
X190850000Y-108000000D02*
X190850000Y-109700000D01*
X133300000Y-126000000D02*
X133250000Y-126050000D01*
X152500000Y-49200000D02*
X152450000Y-49250000D01*
X114050000Y-87650000D02*
X114050000Y-88800000D01*
X171700000Y-68100000D02*
X171700000Y-68400000D01*
X114050000Y-108000000D02*
X114050000Y-109700000D01*
X114050000Y-49250000D02*
X114050000Y-50400000D01*
X114100000Y-68100000D02*
X114900000Y-67300000D01*
X190900000Y-125700000D02*
X190900000Y-126000000D01*
X190900000Y-106500000D02*
X191700000Y-105700000D01*
X114100000Y-87600000D02*
X114050000Y-87650000D01*
X152500000Y-48900000D02*
X152500000Y-49200000D01*
X191700000Y-48100000D02*
X192000000Y-48100000D01*
X114100000Y-68400000D02*
X114050000Y-68450000D01*
X191700000Y-124900000D02*
X192000000Y-124900000D01*
X190900000Y-68400000D02*
X190850000Y-68450000D01*
X190900000Y-68100000D02*
X190900000Y-68400000D01*
X190900000Y-87300000D02*
X191700000Y-86500000D01*
X133300000Y-106800000D02*
X133250000Y-106850000D01*
X171700000Y-106800000D02*
X171650000Y-106850000D01*
X114100000Y-106500000D02*
X114100000Y-106800000D01*
X153300000Y-105700000D02*
X153600000Y-105700000D01*
X114050000Y-126050000D02*
X114050000Y-127200000D01*
X114050000Y-88800000D02*
X114050000Y-90500000D01*
X114050000Y-50400000D02*
X114050000Y-52100000D01*
X190900000Y-106800000D02*
X190850000Y-106850000D01*
X153300000Y-48100000D02*
X153600000Y-48100000D01*
X133250000Y-88800000D02*
X133250000Y-90500000D01*
X171650000Y-50400000D02*
X171650000Y-52100000D01*
X133250000Y-108000000D02*
X133250000Y-109700000D01*
X114100000Y-48900000D02*
X114900000Y-48100000D01*
X172500000Y-86500000D02*
X172800000Y-86500000D01*
X171700000Y-87600000D02*
X171650000Y-87650000D01*
X153300000Y-124900000D02*
X153600000Y-124900000D01*
X171700000Y-68100000D02*
X172500000Y-67300000D01*
X191700000Y-67300000D02*
X192000000Y-67300000D01*
X190850000Y-69600000D02*
X190850000Y-71300000D01*
X152450000Y-126050000D02*
X152450000Y-127200000D01*
X172500000Y-124900000D02*
X172800000Y-124900000D01*
X152500000Y-68100000D02*
X153300000Y-67300000D01*
X114100000Y-48900000D02*
X114100000Y-49200000D01*
X152500000Y-106500000D02*
X153300000Y-105700000D01*
X114100000Y-106500000D02*
X114900000Y-105700000D01*
X114100000Y-49200000D02*
X114050000Y-49250000D01*
X129250000Y-50400000D02*
X129250000Y-51950000D01*
X110050000Y-49150000D02*
X110050000Y-49150000D01*
X186850000Y-49150000D02*
X186850000Y-49150000D01*
X128700000Y-67200000D02*
X128100000Y-67200000D01*
X186850000Y-127200000D02*
X186850000Y-128750000D01*
X186850000Y-125350000D02*
X186300000Y-124800000D01*
X110050000Y-106150000D02*
X109500000Y-105600000D01*
X167650000Y-88800000D02*
X167650000Y-87550000D01*
X167650000Y-106450000D02*
X167650000Y-106150000D01*
X110050000Y-87550000D02*
X110050000Y-87250000D01*
X129250000Y-106150000D02*
X128700000Y-105600000D01*
X110050000Y-68050000D02*
X110050000Y-67750000D01*
X129250000Y-69600000D02*
X129250000Y-68350000D01*
X110050000Y-50400000D02*
X110050000Y-49150000D01*
X148450000Y-106150000D02*
X147900000Y-105600000D01*
X167650000Y-106750000D02*
X167650000Y-106750000D01*
X148450000Y-87550000D02*
X148450000Y-87250000D01*
X110050000Y-125950000D02*
X110050000Y-125650000D01*
X148450000Y-87250000D02*
X148450000Y-86950000D01*
X186850000Y-50400000D02*
X186850000Y-49150000D01*
X129250000Y-125350000D02*
X128700000Y-124800000D01*
X186850000Y-108000000D02*
X186850000Y-109550000D01*
X186850000Y-86950000D02*
X186300000Y-86400000D01*
X186850000Y-106750000D02*
X186850000Y-106750000D01*
X186850000Y-106150000D02*
X186300000Y-105600000D01*
X110050000Y-69600000D02*
X110050000Y-68350000D01*
X186850000Y-106750000D02*
X186850000Y-106450000D01*
X110050000Y-127200000D02*
X110050000Y-128750000D01*
X186300000Y-86400000D02*
X185700000Y-86400000D01*
X148450000Y-67750000D02*
X147900000Y-67200000D01*
X129250000Y-48850000D02*
X129250000Y-48550000D01*
X129250000Y-106450000D02*
X129250000Y-106150000D01*
X129250000Y-106750000D02*
X129250000Y-106450000D01*
X167100000Y-48000000D02*
X166500000Y-48000000D01*
X110050000Y-67750000D02*
X109500000Y-67200000D01*
X129250000Y-68350000D02*
X129250000Y-68050000D01*
X186850000Y-68350000D02*
X186850000Y-68050000D01*
X129250000Y-108000000D02*
X129250000Y-106750000D01*
X186850000Y-125650000D02*
X186850000Y-125350000D01*
X110050000Y-106450000D02*
X110050000Y-106150000D01*
X110050000Y-86950000D02*
X109500000Y-86400000D01*
X186850000Y-67750000D02*
X186300000Y-67200000D01*
X129250000Y-69600000D02*
X129250000Y-71150000D01*
X110050000Y-49150000D02*
X110050000Y-48850000D01*
X110050000Y-127200000D02*
X110050000Y-125950000D01*
X186300000Y-124800000D02*
X185700000Y-124800000D01*
X109500000Y-67200000D02*
X108900000Y-67200000D01*
X109500000Y-86400000D02*
X108900000Y-86400000D01*
X167650000Y-125950000D02*
X167650000Y-125650000D01*
X148450000Y-108000000D02*
X148450000Y-109550000D01*
X186850000Y-50400000D02*
X186850000Y-51950000D01*
X110050000Y-87250000D02*
X110050000Y-86950000D01*
X148450000Y-69600000D02*
X148450000Y-68350000D01*
X110050000Y-106750000D02*
X110050000Y-106450000D01*
X129250000Y-68050000D02*
X129250000Y-67750000D01*
X148450000Y-87550000D02*
X148450000Y-87550000D01*
X167650000Y-48850000D02*
X167650000Y-48550000D01*
X167650000Y-87550000D02*
X167650000Y-87550000D01*
X129250000Y-87550000D02*
X129250000Y-87250000D01*
X148450000Y-127200000D02*
X148450000Y-128750000D01*
X129250000Y-108000000D02*
X129250000Y-109550000D01*
X148450000Y-125950000D02*
X148450000Y-125950000D01*
X167650000Y-106750000D02*
X167650000Y-106450000D01*
X148450000Y-127200000D02*
X148450000Y-125950000D01*
X167650000Y-69600000D02*
X167650000Y-68350000D01*
X129250000Y-106750000D02*
X129250000Y-106750000D01*
X129250000Y-125650000D02*
X129250000Y-125350000D01*
X167100000Y-67200000D02*
X166500000Y-67200000D01*
X148450000Y-69600000D02*
X148450000Y-71150000D01*
X110050000Y-108000000D02*
X110050000Y-106750000D01*
X186850000Y-49150000D02*
X186850000Y-48850000D01*
X186850000Y-87550000D02*
X186850000Y-87550000D01*
X148450000Y-106450000D02*
X148450000Y-106150000D01*
X129250000Y-50400000D02*
X129250000Y-49150000D01*
X186850000Y-87550000D02*
X186850000Y-87250000D01*
X167650000Y-87250000D02*
X167650000Y-86950000D01*
X129250000Y-48550000D02*
X128700000Y-48000000D01*
X167650000Y-127200000D02*
X167650000Y-128750000D01*
X147900000Y-67200000D02*
X147300000Y-67200000D01*
X129250000Y-88800000D02*
X129250000Y-90350000D01*
X186850000Y-69600000D02*
X186850000Y-71150000D01*
X129250000Y-87250000D02*
X129250000Y-86950000D01*
X109500000Y-124800000D02*
X108900000Y-124800000D01*
X148450000Y-108000000D02*
X148450000Y-106750000D01*
X110050000Y-108000000D02*
X110050000Y-109550000D01*
X148450000Y-48550000D02*
X147900000Y-48000000D01*
X129250000Y-125950000D02*
X129250000Y-125950000D01*
X148450000Y-68050000D02*
X148450000Y-67750000D01*
X148450000Y-48850000D02*
X148450000Y-48550000D01*
X186850000Y-48850000D02*
X186850000Y-48550000D01*
X129250000Y-125950000D02*
X129250000Y-125650000D01*
X129250000Y-127200000D02*
X129250000Y-128750000D01*
X148450000Y-88800000D02*
X148450000Y-90350000D01*
X148450000Y-86950000D02*
X147900000Y-86400000D01*
X128700000Y-105600000D02*
X128100000Y-105600000D01*
X129250000Y-87550000D02*
X129250000Y-87550000D01*
X129250000Y-49150000D02*
X129250000Y-49150000D01*
X110050000Y-48550000D02*
X109500000Y-48000000D01*
X167650000Y-68050000D02*
X167650000Y-67750000D01*
X110050000Y-125950000D02*
X110050000Y-125950000D01*
X186300000Y-48000000D02*
X185700000Y-48000000D01*
X148450000Y-106750000D02*
X148450000Y-106450000D01*
X129250000Y-86950000D02*
X128700000Y-86400000D01*
X148450000Y-125350000D02*
X147900000Y-124800000D01*
X167650000Y-50400000D02*
X167650000Y-51950000D01*
X167650000Y-108000000D02*
X167650000Y-109550000D01*
X167650000Y-127200000D02*
X167650000Y-125950000D01*
X167650000Y-69600000D02*
X167650000Y-71150000D01*
X148450000Y-49150000D02*
X148450000Y-49150000D01*
X147900000Y-124800000D02*
X147300000Y-124800000D01*
X186850000Y-88800000D02*
X186850000Y-90350000D01*
X110050000Y-68350000D02*
X110050000Y-68050000D01*
X129250000Y-88800000D02*
X129250000Y-87550000D01*
X186850000Y-125950000D02*
X186850000Y-125650000D01*
X186300000Y-67200000D02*
X185700000Y-67200000D01*
X167100000Y-86400000D02*
X166500000Y-86400000D01*
X147900000Y-48000000D02*
X147300000Y-48000000D01*
X129250000Y-49150000D02*
X129250000Y-48850000D01*
X129250000Y-68350000D02*
X129250000Y-68350000D01*
X129250000Y-67750000D02*
X128700000Y-67200000D01*
X167650000Y-49150000D02*
X167650000Y-49150000D01*
X186850000Y-106450000D02*
X186850000Y-106150000D01*
X167650000Y-86950000D02*
X167100000Y-86400000D01*
X167650000Y-67750000D02*
X167100000Y-67200000D01*
X148450000Y-106750000D02*
X148450000Y-106750000D01*
X167650000Y-88800000D02*
X167650000Y-90350000D01*
X186300000Y-105600000D02*
X185700000Y-105600000D01*
X110050000Y-69600000D02*
X110050000Y-71150000D01*
X186850000Y-48550000D02*
X186300000Y-48000000D01*
X167650000Y-48550000D02*
X167100000Y-48000000D01*
X148450000Y-125950000D02*
X148450000Y-125650000D01*
X186850000Y-68050000D02*
X186850000Y-67750000D01*
X167650000Y-106150000D02*
X167100000Y-105600000D01*
X110050000Y-50400000D02*
X110050000Y-51950000D01*
X167650000Y-49150000D02*
X167650000Y-48850000D01*
X167650000Y-108000000D02*
X167650000Y-106750000D01*
X147900000Y-105600000D02*
X147300000Y-105600000D01*
X148450000Y-88800000D02*
X148450000Y-87550000D01*
X110050000Y-88800000D02*
X110050000Y-87550000D01*
X186850000Y-68350000D02*
X186850000Y-68350000D01*
X167650000Y-125950000D02*
X167650000Y-125950000D01*
X186850000Y-87250000D02*
X186850000Y-86950000D01*
X148450000Y-125650000D02*
X148450000Y-125350000D01*
X186850000Y-127200000D02*
X186850000Y-125950000D01*
X167650000Y-125650000D02*
X167650000Y-125350000D01*
X128700000Y-124800000D02*
X128100000Y-124800000D01*
X167650000Y-87550000D02*
X167650000Y-87250000D01*
X110050000Y-125350000D02*
X109500000Y-124800000D01*
X109500000Y-48000000D02*
X108900000Y-48000000D01*
X110050000Y-87550000D02*
X110050000Y-87550000D01*
X128700000Y-86400000D02*
X128100000Y-86400000D01*
X148450000Y-49150000D02*
X148450000Y-48850000D01*
X148450000Y-68350000D02*
X148450000Y-68050000D01*
X167100000Y-124800000D02*
X166500000Y-124800000D01*
X186850000Y-88800000D02*
X186850000Y-87550000D01*
X186850000Y-125950000D02*
X186850000Y-125950000D01*
X110050000Y-68350000D02*
X110050000Y-68350000D01*
X110050000Y-125650000D02*
X110050000Y-125350000D01*
X148450000Y-50400000D02*
X148450000Y-51950000D01*
X148450000Y-68350000D02*
X148450000Y-68350000D01*
X147900000Y-86400000D02*
X147300000Y-86400000D01*
X109500000Y-105600000D02*
X108900000Y-105600000D01*
X129250000Y-127200000D02*
X129250000Y-125950000D01*
X167650000Y-68350000D02*
X167650000Y-68050000D01*
X128700000Y-48000000D02*
X128100000Y-48000000D01*
X148450000Y-50400000D02*
X148450000Y-49150000D01*
X110050000Y-88800000D02*
X110050000Y-90350000D01*
X186850000Y-69600000D02*
X186850000Y-68350000D01*
X167650000Y-125350000D02*
X167100000Y-124800000D01*
X167650000Y-68350000D02*
X167650000Y-68350000D01*
X167100000Y-105600000D02*
X166500000Y-105600000D01*
X167650000Y-50400000D02*
X167650000Y-49150000D01*
X110050000Y-48850000D02*
X110050000Y-48550000D01*
X186850000Y-108000000D02*
X186850000Y-106750000D01*
X110050000Y-106750000D02*
X110050000Y-106750000D01*
X112050000Y-48850000D02*
X112050000Y-41100000D01*
X131250000Y-71250000D02*
X131250000Y-71200000D01*
X169650000Y-127200000D02*
X169650000Y-125650000D01*
X112050000Y-128850000D02*
X112050000Y-128800000D01*
X188850000Y-108000000D02*
X188850000Y-109650000D01*
X112050000Y-90450000D02*
X112050000Y-90400000D01*
X169650000Y-125650000D02*
X169650000Y-117900000D01*
X150450000Y-108000000D02*
X150450000Y-106450000D01*
X150450000Y-68050000D02*
X150450000Y-60300000D01*
X188850000Y-48850000D02*
X188850000Y-41100000D01*
X150450000Y-108000000D02*
X150450000Y-109650000D01*
X112050000Y-125650000D02*
X112050000Y-117900000D01*
X131250000Y-68050000D02*
X131250000Y-60300000D01*
X150450000Y-69600000D02*
X150450000Y-68050000D01*
X188850000Y-128850000D02*
X188850000Y-128800000D01*
X169650000Y-87250000D02*
X169650000Y-79500000D01*
X188850000Y-127200000D02*
X188850000Y-128850000D01*
X188850000Y-71250000D02*
X188850000Y-71200000D01*
X150450000Y-69600000D02*
X150450000Y-71250000D01*
X131250000Y-52050000D02*
X131250000Y-52000000D01*
X112050000Y-69600000D02*
X112050000Y-68050000D01*
X131250000Y-50400000D02*
X131250000Y-52050000D01*
X131250000Y-88800000D02*
X131250000Y-90450000D01*
X112050000Y-108000000D02*
X112050000Y-109650000D01*
X131250000Y-127200000D02*
X131250000Y-128850000D01*
X112050000Y-109650000D02*
X112050000Y-109600000D01*
X112050000Y-88800000D02*
X112050000Y-90450000D01*
X150450000Y-52050000D02*
X150450000Y-52000000D01*
X131250000Y-87250000D02*
X131250000Y-79500000D01*
X188850000Y-108000000D02*
X188850000Y-106450000D01*
X188850000Y-69600000D02*
X188850000Y-68050000D01*
X169650000Y-109650000D02*
X169650000Y-109600000D01*
X150450000Y-109650000D02*
X150450000Y-109600000D01*
X188850000Y-50400000D02*
X188850000Y-48850000D01*
X188850000Y-69600000D02*
X188850000Y-71250000D01*
X131250000Y-108000000D02*
X131250000Y-109650000D01*
X112050000Y-127200000D02*
X112050000Y-128850000D01*
X188850000Y-87250000D02*
X188850000Y-79500000D01*
X112050000Y-127200000D02*
X112050000Y-125650000D01*
X112050000Y-87250000D02*
X112050000Y-79500000D01*
X112050000Y-69600000D02*
X112050000Y-71250000D01*
X169650000Y-108000000D02*
X169650000Y-106450000D01*
X169650000Y-88800000D02*
X169650000Y-90450000D01*
X150450000Y-87250000D02*
X150450000Y-79500000D01*
X150450000Y-50400000D02*
X150450000Y-48850000D01*
X188850000Y-52050000D02*
X188850000Y-52000000D01*
X169650000Y-69600000D02*
X169650000Y-68050000D01*
X131250000Y-128850000D02*
X131250000Y-128800000D01*
X169650000Y-90450000D02*
X169650000Y-90400000D01*
X131250000Y-108000000D02*
X131250000Y-106450000D01*
X169650000Y-108000000D02*
X169650000Y-109650000D01*
X169650000Y-71250000D02*
X169650000Y-71200000D01*
X169650000Y-106450000D02*
X169650000Y-98700000D01*
X131250000Y-90450000D02*
X131250000Y-90400000D01*
X112050000Y-108000000D02*
X112050000Y-106450000D01*
X169650000Y-48850000D02*
X169650000Y-41100000D01*
X169650000Y-128850000D02*
X169650000Y-128800000D01*
X188850000Y-127200000D02*
X188850000Y-125650000D01*
X131250000Y-50400000D02*
X131250000Y-48850000D01*
X131250000Y-69600000D02*
X131250000Y-68050000D01*
X112050000Y-88800000D02*
X112050000Y-87250000D01*
X188850000Y-125650000D02*
X188850000Y-117900000D01*
X169650000Y-127200000D02*
X169650000Y-128850000D01*
X150450000Y-128850000D02*
X150450000Y-128800000D01*
X150450000Y-125650000D02*
X150450000Y-117900000D01*
X188850000Y-106450000D02*
X188850000Y-98700000D01*
X188850000Y-90450000D02*
X188850000Y-90400000D01*
X112050000Y-52050000D02*
X112050000Y-52000000D01*
X112050000Y-68050000D02*
X112050000Y-60300000D01*
X150450000Y-50400000D02*
X150450000Y-52050000D01*
X169650000Y-50400000D02*
X169650000Y-52050000D01*
X169650000Y-52050000D02*
X169650000Y-52000000D01*
X150450000Y-71250000D02*
X150450000Y-71200000D01*
X150450000Y-127200000D02*
X150450000Y-125650000D01*
X150450000Y-90450000D02*
X150450000Y-90400000D01*
X169650000Y-50400000D02*
X169650000Y-48850000D01*
X169650000Y-69600000D02*
X169650000Y-71250000D01*
X188850000Y-109650000D02*
X188850000Y-109600000D01*
X131250000Y-127200000D02*
X131250000Y-125650000D01*
X131250000Y-109650000D02*
X131250000Y-109600000D01*
X150450000Y-88800000D02*
X150450000Y-87250000D01*
X112050000Y-71250000D02*
X112050000Y-71200000D01*
X131250000Y-106450000D02*
X131250000Y-98700000D01*
X188850000Y-88800000D02*
X188850000Y-90450000D01*
X131250000Y-125650000D02*
X131250000Y-117900000D01*
X112050000Y-50400000D02*
X112050000Y-48850000D01*
X188850000Y-50400000D02*
X188850000Y-52050000D01*
X169650000Y-88800000D02*
X169650000Y-87250000D01*
X131250000Y-69600000D02*
X131250000Y-71250000D01*
X150450000Y-48850000D02*
X150450000Y-41100000D01*
X131250000Y-88800000D02*
X131250000Y-87250000D01*
X150450000Y-106450000D02*
X150450000Y-98700000D01*
X169650000Y-68050000D02*
X169650000Y-60300000D01*
X131250000Y-48850000D02*
X131250000Y-41100000D01*
X188850000Y-68050000D02*
X188850000Y-60300000D01*
X112050000Y-106450000D02*
X112050000Y-98700000D01*
X112050000Y-50400000D02*
X112050000Y-52050000D01*
X150450000Y-88800000D02*
X150450000Y-90450000D01*
X150450000Y-127200000D02*
X150450000Y-128850000D01*
X188850000Y-88800000D02*
X188850000Y-87250000D01*
G04 #@! TA.AperFunction,Conductor*
G36*
X136519203Y-103132796D02*
G01*
X138324931Y-103940622D01*
X138378088Y-103985967D01*
X138388446Y-104005383D01*
X139049835Y-105564372D01*
X139057896Y-105633775D01*
X139051418Y-105657313D01*
X138338721Y-107510325D01*
X138296283Y-107565830D01*
X138269573Y-107580728D01*
X136515690Y-108291762D01*
X136446167Y-108298706D01*
X136423051Y-108291977D01*
X134766043Y-107629174D01*
X134711109Y-107586000D01*
X134698906Y-107564680D01*
X134697046Y-107560523D01*
X133891287Y-105759413D01*
X133881878Y-105690180D01*
X133890012Y-105661088D01*
X134600149Y-103956760D01*
X134644103Y-103902450D01*
X134665387Y-103890642D01*
X136419352Y-103132171D01*
X136488696Y-103123631D01*
X136519203Y-103132796D01*
G37*
G04 #@! TD.AperFunction*
G04 #@! TA.AperFunction,Conductor*
G36*
X106919203Y-83932796D02*
G01*
X108724931Y-84740622D01*
X108778088Y-84785967D01*
X108788446Y-84805383D01*
X109449835Y-86364372D01*
X109457896Y-86433775D01*
X109451418Y-86457313D01*
X108738721Y-88310325D01*
X108696283Y-88365830D01*
X108669573Y-88380728D01*
X106915690Y-89091762D01*
X106846167Y-89098706D01*
X106823051Y-89091977D01*
X105166043Y-88429174D01*
X105111109Y-88386000D01*
X105098906Y-88364680D01*
X105097046Y-88360523D01*
X104291287Y-86559413D01*
X104281878Y-86490180D01*
X104290012Y-86461088D01*
X105000149Y-84756760D01*
X105044103Y-84702450D01*
X105065387Y-84690642D01*
X106819352Y-83932171D01*
X106888696Y-83923631D01*
X106919203Y-83932796D01*
G37*
G04 #@! TD.AperFunction*
G04 #@! TA.AperFunction,Conductor*
G36*
X174919203Y-45532796D02*
G01*
X176724931Y-46340622D01*
X176778088Y-46385967D01*
X176788446Y-46405383D01*
X177449835Y-47964372D01*
X177457896Y-48033775D01*
X177451418Y-48057313D01*
X176738721Y-49910325D01*
X176696283Y-49965830D01*
X176669573Y-49980728D01*
X174915690Y-50691762D01*
X174846167Y-50698706D01*
X174823051Y-50691977D01*
X173166043Y-50029174D01*
X173111109Y-49986000D01*
X173098906Y-49964680D01*
X173097046Y-49960523D01*
X172291287Y-48159413D01*
X172281878Y-48090180D01*
X172290012Y-48061088D01*
X173000149Y-46356760D01*
X173044103Y-46302450D01*
X173065387Y-46290642D01*
X174819352Y-45532171D01*
X174888696Y-45523631D01*
X174919203Y-45532796D01*
G37*
G04 #@! TD.AperFunction*
G04 #@! TA.AperFunction,Conductor*
G36*
X174919203Y-122332796D02*
G01*
X176724931Y-123140622D01*
X176778088Y-123185967D01*
X176788446Y-123205383D01*
X177449835Y-124764372D01*
X177457896Y-124833775D01*
X177451418Y-124857313D01*
X176738721Y-126710325D01*
X176696283Y-126765830D01*
X176669573Y-126780728D01*
X174915690Y-127491762D01*
X174846167Y-127498706D01*
X174823051Y-127491977D01*
X173166043Y-126829174D01*
X173111109Y-126786000D01*
X173098906Y-126764680D01*
X173097046Y-126760523D01*
X172291287Y-124959413D01*
X172281878Y-124890180D01*
X172290012Y-124861088D01*
X173000149Y-123156760D01*
X173044103Y-123102450D01*
X173065387Y-123090642D01*
X174819352Y-122332171D01*
X174888696Y-122323631D01*
X174919203Y-122332796D01*
G37*
G04 #@! TD.AperFunction*
G04 #@! TA.AperFunction,Conductor*
G36*
X131319203Y-113332796D02*
G01*
X133124931Y-114140622D01*
X133178088Y-114185967D01*
X133188446Y-114205383D01*
X133849835Y-115764372D01*
X133857896Y-115833775D01*
X133851418Y-115857313D01*
X133138721Y-117710325D01*
X133096283Y-117765830D01*
X133069573Y-117780728D01*
X131315690Y-118491762D01*
X131246167Y-118498706D01*
X131223051Y-118491977D01*
X129566043Y-117829174D01*
X129511109Y-117786000D01*
X129498906Y-117764680D01*
X129497046Y-117760523D01*
X128691287Y-115959413D01*
X128681878Y-115890180D01*
X128690012Y-115861088D01*
X129400149Y-114156760D01*
X129444103Y-114102450D01*
X129465387Y-114090642D01*
X131219352Y-113332171D01*
X131288696Y-113323631D01*
X131319203Y-113332796D01*
G37*
G04 #@! TD.AperFunction*
G04 #@! TA.AperFunction,Conductor*
G36*
X150519203Y-36532796D02*
G01*
X152324931Y-37340622D01*
X152378088Y-37385967D01*
X152388446Y-37405383D01*
X153049835Y-38964372D01*
X153057896Y-39033775D01*
X153051418Y-39057313D01*
X152338721Y-40910325D01*
X152296283Y-40965830D01*
X152269573Y-40980728D01*
X150515690Y-41691762D01*
X150446167Y-41698706D01*
X150423051Y-41691977D01*
X148766043Y-41029174D01*
X148711109Y-40986000D01*
X148698906Y-40964680D01*
X148697046Y-40960523D01*
X147891287Y-39159413D01*
X147881878Y-39090180D01*
X147890012Y-39061088D01*
X148600149Y-37356760D01*
X148644103Y-37302450D01*
X148665387Y-37290642D01*
X150419352Y-36532171D01*
X150488696Y-36523631D01*
X150519203Y-36532796D01*
G37*
G04 #@! TD.AperFunction*
G04 #@! TA.AperFunction,Conductor*
G36*
X164519203Y-45532796D02*
G01*
X166324931Y-46340622D01*
X166378088Y-46385967D01*
X166388446Y-46405383D01*
X167049835Y-47964372D01*
X167057896Y-48033775D01*
X167051418Y-48057313D01*
X166338721Y-49910325D01*
X166296283Y-49965830D01*
X166269573Y-49980728D01*
X164515690Y-50691762D01*
X164446167Y-50698706D01*
X164423051Y-50691977D01*
X162766043Y-50029174D01*
X162711109Y-49986000D01*
X162698906Y-49964680D01*
X162697046Y-49960523D01*
X161891287Y-48159413D01*
X161881878Y-48090180D01*
X161890012Y-48061088D01*
X162600149Y-46356760D01*
X162644103Y-46302450D01*
X162665387Y-46290642D01*
X164419352Y-45532171D01*
X164488696Y-45523631D01*
X164519203Y-45532796D01*
G37*
G04 #@! TD.AperFunction*
G04 #@! TA.AperFunction,Conductor*
G36*
X155719203Y-45532796D02*
G01*
X157524931Y-46340622D01*
X157578088Y-46385967D01*
X157588446Y-46405383D01*
X158249835Y-47964372D01*
X158257896Y-48033775D01*
X158251418Y-48057313D01*
X157538721Y-49910325D01*
X157496283Y-49965830D01*
X157469573Y-49980728D01*
X155715690Y-50691762D01*
X155646167Y-50698706D01*
X155623051Y-50691977D01*
X153966043Y-50029174D01*
X153911109Y-49986000D01*
X153898906Y-49964680D01*
X153897046Y-49960523D01*
X153091287Y-48159413D01*
X153081878Y-48090180D01*
X153090012Y-48061088D01*
X153800149Y-46356760D01*
X153844103Y-46302450D01*
X153865387Y-46290642D01*
X155619352Y-45532171D01*
X155688696Y-45523631D01*
X155719203Y-45532796D01*
G37*
G04 #@! TD.AperFunction*
G04 #@! TA.AperFunction,Conductor*
G36*
X188919203Y-113332796D02*
G01*
X190724931Y-114140622D01*
X190778088Y-114185967D01*
X190788446Y-114205383D01*
X191449835Y-115764372D01*
X191457896Y-115833775D01*
X191451418Y-115857313D01*
X190738721Y-117710325D01*
X190696283Y-117765830D01*
X190669573Y-117780728D01*
X188915690Y-118491762D01*
X188846167Y-118498706D01*
X188823051Y-118491977D01*
X187166043Y-117829174D01*
X187111109Y-117786000D01*
X187098906Y-117764680D01*
X187097046Y-117760523D01*
X186291287Y-115959413D01*
X186281878Y-115890180D01*
X186290012Y-115861088D01*
X187000149Y-114156760D01*
X187044103Y-114102450D01*
X187065387Y-114090642D01*
X188819352Y-113332171D01*
X188888696Y-113323631D01*
X188919203Y-113332796D01*
G37*
G04 #@! TD.AperFunction*
G04 #@! TA.AperFunction,Conductor*
G36*
X145319203Y-45532796D02*
G01*
X147124931Y-46340622D01*
X147178088Y-46385967D01*
X147188446Y-46405383D01*
X147849835Y-47964372D01*
X147857896Y-48033775D01*
X147851418Y-48057313D01*
X147138721Y-49910325D01*
X147096283Y-49965830D01*
X147069573Y-49980728D01*
X145315690Y-50691762D01*
X145246167Y-50698706D01*
X145223051Y-50691977D01*
X143566043Y-50029174D01*
X143511109Y-49986000D01*
X143498906Y-49964680D01*
X143497046Y-49960523D01*
X142691287Y-48159413D01*
X142681878Y-48090180D01*
X142690012Y-48061088D01*
X143400149Y-46356760D01*
X143444103Y-46302450D01*
X143465387Y-46290642D01*
X145219352Y-45532171D01*
X145288696Y-45523631D01*
X145319203Y-45532796D01*
G37*
G04 #@! TD.AperFunction*
G04 #@! TA.AperFunction,Conductor*
G36*
X131319203Y-55732796D02*
G01*
X133124931Y-56540622D01*
X133178088Y-56585967D01*
X133188446Y-56605383D01*
X133849835Y-58164372D01*
X133857896Y-58233775D01*
X133851418Y-58257313D01*
X133138721Y-60110325D01*
X133096283Y-60165830D01*
X133069573Y-60180728D01*
X131315690Y-60891762D01*
X131246167Y-60898706D01*
X131223051Y-60891977D01*
X129566043Y-60229174D01*
X129511109Y-60186000D01*
X129498906Y-60164680D01*
X129497046Y-60160523D01*
X128691287Y-58359413D01*
X128681878Y-58290180D01*
X128690012Y-58261088D01*
X129400149Y-56556760D01*
X129444103Y-56502450D01*
X129465387Y-56490642D01*
X131219352Y-55732171D01*
X131288696Y-55723631D01*
X131319203Y-55732796D01*
G37*
G04 #@! TD.AperFunction*
G04 #@! TA.AperFunction,Conductor*
G36*
X183719203Y-45532796D02*
G01*
X185524931Y-46340622D01*
X185578088Y-46385967D01*
X185588446Y-46405383D01*
X186249835Y-47964372D01*
X186257896Y-48033775D01*
X186251418Y-48057313D01*
X185538721Y-49910325D01*
X185496283Y-49965830D01*
X185469573Y-49980728D01*
X183715690Y-50691762D01*
X183646167Y-50698706D01*
X183623051Y-50691977D01*
X181966043Y-50029174D01*
X181911109Y-49986000D01*
X181898906Y-49964680D01*
X181897046Y-49960523D01*
X181091287Y-48159413D01*
X181081878Y-48090180D01*
X181090012Y-48061088D01*
X181800149Y-46356760D01*
X181844103Y-46302450D01*
X181865387Y-46290642D01*
X183619352Y-45532171D01*
X183688696Y-45523631D01*
X183719203Y-45532796D01*
G37*
G04 #@! TD.AperFunction*
G04 #@! TA.AperFunction,Conductor*
G36*
X106919203Y-45532796D02*
G01*
X108724931Y-46340622D01*
X108778088Y-46385967D01*
X108788446Y-46405383D01*
X109449835Y-47964372D01*
X109457896Y-48033775D01*
X109451418Y-48057313D01*
X108738721Y-49910325D01*
X108696283Y-49965830D01*
X108669573Y-49980728D01*
X106915690Y-50691762D01*
X106846167Y-50698706D01*
X106823051Y-50691977D01*
X105166043Y-50029174D01*
X105111109Y-49986000D01*
X105098906Y-49964680D01*
X105097046Y-49960523D01*
X104291287Y-48159413D01*
X104281878Y-48090180D01*
X104290012Y-48061088D01*
X105000149Y-46356760D01*
X105044103Y-46302450D01*
X105065387Y-46290642D01*
X106819352Y-45532171D01*
X106888696Y-45523631D01*
X106919203Y-45532796D01*
G37*
G04 #@! TD.AperFunction*
G04 #@! TA.AperFunction,Conductor*
G36*
X145319203Y-122332796D02*
G01*
X147124931Y-123140622D01*
X147178088Y-123185967D01*
X147188446Y-123205383D01*
X147849835Y-124764372D01*
X147857896Y-124833775D01*
X147851418Y-124857313D01*
X147138721Y-126710325D01*
X147096283Y-126765830D01*
X147069573Y-126780728D01*
X145315690Y-127491762D01*
X145246167Y-127498706D01*
X145223051Y-127491977D01*
X143566043Y-126829174D01*
X143511109Y-126786000D01*
X143498906Y-126764680D01*
X143497046Y-126760523D01*
X142691287Y-124959413D01*
X142681878Y-124890180D01*
X142690012Y-124861088D01*
X143400149Y-123156760D01*
X143444103Y-123102450D01*
X143465387Y-123090642D01*
X145219352Y-122332171D01*
X145288696Y-122323631D01*
X145319203Y-122332796D01*
G37*
G04 #@! TD.AperFunction*
G04 #@! TA.AperFunction,Conductor*
G36*
X126119203Y-103132796D02*
G01*
X127924931Y-103940622D01*
X127978088Y-103985967D01*
X127988446Y-104005383D01*
X128649835Y-105564372D01*
X128657896Y-105633775D01*
X128651418Y-105657313D01*
X127938721Y-107510325D01*
X127896283Y-107565830D01*
X127869573Y-107580728D01*
X126115690Y-108291762D01*
X126046167Y-108298706D01*
X126023051Y-108291977D01*
X124366043Y-107629174D01*
X124311109Y-107586000D01*
X124298906Y-107564680D01*
X124297046Y-107560523D01*
X123491287Y-105759413D01*
X123481878Y-105690180D01*
X123490012Y-105661088D01*
X124200149Y-103956760D01*
X124244103Y-103902450D01*
X124265387Y-103890642D01*
X126019352Y-103132171D01*
X126088696Y-103123631D01*
X126119203Y-103132796D01*
G37*
G04 #@! TD.AperFunction*
G04 #@! TA.AperFunction,Conductor*
G36*
X155719203Y-83932796D02*
G01*
X157524931Y-84740622D01*
X157578088Y-84785967D01*
X157588446Y-84805383D01*
X158249835Y-86364372D01*
X158257896Y-86433775D01*
X158251418Y-86457313D01*
X157538721Y-88310325D01*
X157496283Y-88365830D01*
X157469573Y-88380728D01*
X155715690Y-89091762D01*
X155646167Y-89098706D01*
X155623051Y-89091977D01*
X153966043Y-88429174D01*
X153911109Y-88386000D01*
X153898906Y-88364680D01*
X153897046Y-88360523D01*
X153091287Y-86559413D01*
X153081878Y-86490180D01*
X153090012Y-86461088D01*
X153800149Y-84756760D01*
X153844103Y-84702450D01*
X153865387Y-84690642D01*
X155619352Y-83932171D01*
X155688696Y-83923631D01*
X155719203Y-83932796D01*
G37*
G04 #@! TD.AperFunction*
G04 #@! TA.AperFunction,Conductor*
G36*
X136519203Y-122332796D02*
G01*
X138324931Y-123140622D01*
X138378088Y-123185967D01*
X138388446Y-123205383D01*
X139049835Y-124764372D01*
X139057896Y-124833775D01*
X139051418Y-124857313D01*
X138338721Y-126710325D01*
X138296283Y-126765830D01*
X138269573Y-126780728D01*
X136515690Y-127491762D01*
X136446167Y-127498706D01*
X136423051Y-127491977D01*
X134766043Y-126829174D01*
X134711109Y-126786000D01*
X134698906Y-126764680D01*
X134697046Y-126760523D01*
X133891287Y-124959413D01*
X133881878Y-124890180D01*
X133890012Y-124861088D01*
X134600149Y-123156760D01*
X134644103Y-123102450D01*
X134665387Y-123090642D01*
X136419352Y-122332171D01*
X136488696Y-122323631D01*
X136519203Y-122332796D01*
G37*
G04 #@! TD.AperFunction*
G04 #@! TA.AperFunction,Conductor*
G36*
X145319203Y-83932796D02*
G01*
X147124931Y-84740622D01*
X147178088Y-84785967D01*
X147188446Y-84805383D01*
X147849835Y-86364372D01*
X147857896Y-86433775D01*
X147851418Y-86457313D01*
X147138721Y-88310325D01*
X147096283Y-88365830D01*
X147069573Y-88380728D01*
X145315690Y-89091762D01*
X145246167Y-89098706D01*
X145223051Y-89091977D01*
X143566043Y-88429174D01*
X143511109Y-88386000D01*
X143498906Y-88364680D01*
X143497046Y-88360523D01*
X142691287Y-86559413D01*
X142681878Y-86490180D01*
X142690012Y-86461088D01*
X143400149Y-84756760D01*
X143444103Y-84702450D01*
X143465387Y-84690642D01*
X145219352Y-83932171D01*
X145288696Y-83923631D01*
X145319203Y-83932796D01*
G37*
G04 #@! TD.AperFunction*
G04 #@! TA.AperFunction,Conductor*
G36*
X126119203Y-83932796D02*
G01*
X127924931Y-84740622D01*
X127978088Y-84785967D01*
X127988446Y-84805383D01*
X128649835Y-86364372D01*
X128657896Y-86433775D01*
X128651418Y-86457313D01*
X127938721Y-88310325D01*
X127896283Y-88365830D01*
X127869573Y-88380728D01*
X126115690Y-89091762D01*
X126046167Y-89098706D01*
X126023051Y-89091977D01*
X124366043Y-88429174D01*
X124311109Y-88386000D01*
X124298906Y-88364680D01*
X124297046Y-88360523D01*
X123491287Y-86559413D01*
X123481878Y-86490180D01*
X123490012Y-86461088D01*
X124200149Y-84756760D01*
X124244103Y-84702450D01*
X124265387Y-84690642D01*
X126019352Y-83932171D01*
X126088696Y-83923631D01*
X126119203Y-83932796D01*
G37*
G04 #@! TD.AperFunction*
G04 #@! TA.AperFunction,Conductor*
G36*
X169719203Y-55732796D02*
G01*
X171524931Y-56540622D01*
X171578088Y-56585967D01*
X171588446Y-56605383D01*
X172249835Y-58164372D01*
X172257896Y-58233775D01*
X172251418Y-58257313D01*
X171538721Y-60110325D01*
X171496283Y-60165830D01*
X171469573Y-60180728D01*
X169715690Y-60891762D01*
X169646167Y-60898706D01*
X169623051Y-60891977D01*
X167966043Y-60229174D01*
X167911109Y-60186000D01*
X167898906Y-60164680D01*
X167897046Y-60160523D01*
X167091287Y-58359413D01*
X167081878Y-58290180D01*
X167090012Y-58261088D01*
X167800149Y-56556760D01*
X167844103Y-56502450D01*
X167865387Y-56490642D01*
X169619352Y-55732171D01*
X169688696Y-55723631D01*
X169719203Y-55732796D01*
G37*
G04 #@! TD.AperFunction*
G04 #@! TA.AperFunction,Conductor*
G36*
X126119203Y-64732796D02*
G01*
X127924931Y-65540622D01*
X127978088Y-65585967D01*
X127988446Y-65605383D01*
X128649835Y-67164372D01*
X128657896Y-67233775D01*
X128651418Y-67257313D01*
X127938721Y-69110325D01*
X127896283Y-69165830D01*
X127869573Y-69180728D01*
X126115690Y-69891762D01*
X126046167Y-69898706D01*
X126023051Y-69891977D01*
X124366043Y-69229174D01*
X124311109Y-69186000D01*
X124298906Y-69164680D01*
X124297046Y-69160523D01*
X123491287Y-67359413D01*
X123481878Y-67290180D01*
X123490012Y-67261088D01*
X124200149Y-65556760D01*
X124244103Y-65502450D01*
X124265387Y-65490642D01*
X126019352Y-64732171D01*
X126088696Y-64723631D01*
X126119203Y-64732796D01*
G37*
G04 #@! TD.AperFunction*
G04 #@! TA.AperFunction,Conductor*
G36*
X164519203Y-103132796D02*
G01*
X166324931Y-103940622D01*
X166378088Y-103985967D01*
X166388446Y-104005383D01*
X167049835Y-105564372D01*
X167057896Y-105633775D01*
X167051418Y-105657313D01*
X166338721Y-107510325D01*
X166296283Y-107565830D01*
X166269573Y-107580728D01*
X164515690Y-108291762D01*
X164446167Y-108298706D01*
X164423051Y-108291977D01*
X162766043Y-107629174D01*
X162711109Y-107586000D01*
X162698906Y-107564680D01*
X162697046Y-107560523D01*
X161891287Y-105759413D01*
X161881878Y-105690180D01*
X161890012Y-105661088D01*
X162600149Y-103956760D01*
X162644103Y-103902450D01*
X162665387Y-103890642D01*
X164419352Y-103132171D01*
X164488696Y-103123631D01*
X164519203Y-103132796D01*
G37*
G04 #@! TD.AperFunction*
G04 #@! TA.AperFunction,Conductor*
G36*
X194119203Y-83932796D02*
G01*
X195924931Y-84740622D01*
X195978088Y-84785967D01*
X195988446Y-84805383D01*
X196649835Y-86364372D01*
X196657896Y-86433775D01*
X196651418Y-86457313D01*
X195938721Y-88310325D01*
X195896283Y-88365830D01*
X195869573Y-88380728D01*
X194115690Y-89091762D01*
X194046167Y-89098706D01*
X194023051Y-89091977D01*
X192366043Y-88429174D01*
X192311109Y-88386000D01*
X192298906Y-88364680D01*
X192297046Y-88360523D01*
X191491287Y-86559413D01*
X191481878Y-86490180D01*
X191490012Y-86461088D01*
X192200149Y-84756760D01*
X192244103Y-84702450D01*
X192265387Y-84690642D01*
X194019352Y-83932171D01*
X194088696Y-83923631D01*
X194119203Y-83932796D01*
G37*
G04 #@! TD.AperFunction*
G04 #@! TA.AperFunction,Conductor*
G36*
X188919203Y-55732796D02*
G01*
X190724931Y-56540622D01*
X190778088Y-56585967D01*
X190788446Y-56605383D01*
X191449835Y-58164372D01*
X191457896Y-58233775D01*
X191451418Y-58257313D01*
X190738721Y-60110325D01*
X190696283Y-60165830D01*
X190669573Y-60180728D01*
X188915690Y-60891762D01*
X188846167Y-60898706D01*
X188823051Y-60891977D01*
X187166043Y-60229174D01*
X187111109Y-60186000D01*
X187098906Y-60164680D01*
X187097046Y-60160523D01*
X186291287Y-58359413D01*
X186281878Y-58290180D01*
X186290012Y-58261088D01*
X187000149Y-56556760D01*
X187044103Y-56502450D01*
X187065387Y-56490642D01*
X188819352Y-55732171D01*
X188888696Y-55723631D01*
X188919203Y-55732796D01*
G37*
G04 #@! TD.AperFunction*
G04 #@! TA.AperFunction,Conductor*
G36*
X145319203Y-103132796D02*
G01*
X147124931Y-103940622D01*
X147178088Y-103985967D01*
X147188446Y-104005383D01*
X147849835Y-105564372D01*
X147857896Y-105633775D01*
X147851418Y-105657313D01*
X147138721Y-107510325D01*
X147096283Y-107565830D01*
X147069573Y-107580728D01*
X145315690Y-108291762D01*
X145246167Y-108298706D01*
X145223051Y-108291977D01*
X143566043Y-107629174D01*
X143511109Y-107586000D01*
X143498906Y-107564680D01*
X143497046Y-107560523D01*
X142691287Y-105759413D01*
X142681878Y-105690180D01*
X142690012Y-105661088D01*
X143400149Y-103956760D01*
X143444103Y-103902450D01*
X143465387Y-103890642D01*
X145219352Y-103132171D01*
X145288696Y-103123631D01*
X145319203Y-103132796D01*
G37*
G04 #@! TD.AperFunction*
G04 #@! TA.AperFunction,Conductor*
G36*
X150519203Y-94132796D02*
G01*
X152324931Y-94940622D01*
X152378088Y-94985967D01*
X152388446Y-95005383D01*
X153049835Y-96564372D01*
X153057896Y-96633775D01*
X153051418Y-96657313D01*
X152338721Y-98510325D01*
X152296283Y-98565830D01*
X152269573Y-98580728D01*
X150515690Y-99291762D01*
X150446167Y-99298706D01*
X150423051Y-99291977D01*
X148766043Y-98629174D01*
X148711109Y-98586000D01*
X148698906Y-98564680D01*
X148697046Y-98560523D01*
X147891287Y-96759413D01*
X147881878Y-96690180D01*
X147890012Y-96661088D01*
X148600149Y-94956760D01*
X148644103Y-94902450D01*
X148665387Y-94890642D01*
X150419352Y-94132171D01*
X150488696Y-94123631D01*
X150519203Y-94132796D01*
G37*
G04 #@! TD.AperFunction*
G04 #@! TA.AperFunction,Conductor*
G36*
X183719203Y-64732796D02*
G01*
X185524931Y-65540622D01*
X185578088Y-65585967D01*
X185588446Y-65605383D01*
X186249835Y-67164372D01*
X186257896Y-67233775D01*
X186251418Y-67257313D01*
X185538721Y-69110325D01*
X185496283Y-69165830D01*
X185469573Y-69180728D01*
X183715690Y-69891762D01*
X183646167Y-69898706D01*
X183623051Y-69891977D01*
X181966043Y-69229174D01*
X181911109Y-69186000D01*
X181898906Y-69164680D01*
X181897046Y-69160523D01*
X181091287Y-67359413D01*
X181081878Y-67290180D01*
X181090012Y-67261088D01*
X181800149Y-65556760D01*
X181844103Y-65502450D01*
X181865387Y-65490642D01*
X183619352Y-64732171D01*
X183688696Y-64723631D01*
X183719203Y-64732796D01*
G37*
G04 #@! TD.AperFunction*
G04 #@! TA.AperFunction,Conductor*
G36*
X155719203Y-103132796D02*
G01*
X157524931Y-103940622D01*
X157578088Y-103985967D01*
X157588446Y-104005383D01*
X158249835Y-105564372D01*
X158257896Y-105633775D01*
X158251418Y-105657313D01*
X157538721Y-107510325D01*
X157496283Y-107565830D01*
X157469573Y-107580728D01*
X155715690Y-108291762D01*
X155646167Y-108298706D01*
X155623051Y-108291977D01*
X153966043Y-107629174D01*
X153911109Y-107586000D01*
X153898906Y-107564680D01*
X153897046Y-107560523D01*
X153091287Y-105759413D01*
X153081878Y-105690180D01*
X153090012Y-105661088D01*
X153800149Y-103956760D01*
X153844103Y-103902450D01*
X153865387Y-103890642D01*
X155619352Y-103132171D01*
X155688696Y-103123631D01*
X155719203Y-103132796D01*
G37*
G04 #@! TD.AperFunction*
G04 #@! TA.AperFunction,Conductor*
G36*
X112119203Y-36532796D02*
G01*
X113924931Y-37340622D01*
X113978088Y-37385967D01*
X113988446Y-37405383D01*
X114649835Y-38964372D01*
X114657896Y-39033775D01*
X114651418Y-39057313D01*
X113938721Y-40910325D01*
X113896283Y-40965830D01*
X113869573Y-40980728D01*
X112115690Y-41691762D01*
X112046167Y-41698706D01*
X112023051Y-41691977D01*
X110366043Y-41029174D01*
X110311109Y-40986000D01*
X110298906Y-40964680D01*
X110297046Y-40960523D01*
X109491287Y-39159413D01*
X109481878Y-39090180D01*
X109490012Y-39061088D01*
X110200149Y-37356760D01*
X110244103Y-37302450D01*
X110265387Y-37290642D01*
X112019352Y-36532171D01*
X112088696Y-36523631D01*
X112119203Y-36532796D01*
G37*
G04 #@! TD.AperFunction*
G04 #@! TA.AperFunction,Conductor*
G36*
X117319203Y-64732796D02*
G01*
X119124931Y-65540622D01*
X119178088Y-65585967D01*
X119188446Y-65605383D01*
X119849835Y-67164372D01*
X119857896Y-67233775D01*
X119851418Y-67257313D01*
X119138721Y-69110325D01*
X119096283Y-69165830D01*
X119069573Y-69180728D01*
X117315690Y-69891762D01*
X117246167Y-69898706D01*
X117223051Y-69891977D01*
X115566043Y-69229174D01*
X115511109Y-69186000D01*
X115498906Y-69164680D01*
X115497046Y-69160523D01*
X114691287Y-67359413D01*
X114681878Y-67290180D01*
X114690012Y-67261088D01*
X115400149Y-65556760D01*
X115444103Y-65502450D01*
X115465387Y-65490642D01*
X117219352Y-64732171D01*
X117288696Y-64723631D01*
X117319203Y-64732796D01*
G37*
G04 #@! TD.AperFunction*
G04 #@! TA.AperFunction,Conductor*
G36*
X164519203Y-122332796D02*
G01*
X166324931Y-123140622D01*
X166378088Y-123185967D01*
X166388446Y-123205383D01*
X167049835Y-124764372D01*
X167057896Y-124833775D01*
X167051418Y-124857313D01*
X166338721Y-126710325D01*
X166296283Y-126765830D01*
X166269573Y-126780728D01*
X164515690Y-127491762D01*
X164446167Y-127498706D01*
X164423051Y-127491977D01*
X162766043Y-126829174D01*
X162711109Y-126786000D01*
X162698906Y-126764680D01*
X162697046Y-126760523D01*
X161891287Y-124959413D01*
X161881878Y-124890180D01*
X161890012Y-124861088D01*
X162600149Y-123156760D01*
X162644103Y-123102450D01*
X162665387Y-123090642D01*
X164419352Y-122332171D01*
X164488696Y-122323631D01*
X164519203Y-122332796D01*
G37*
G04 #@! TD.AperFunction*
G04 #@! TA.AperFunction,Conductor*
G36*
X150519203Y-113332796D02*
G01*
X152324931Y-114140622D01*
X152378088Y-114185967D01*
X152388446Y-114205383D01*
X153049835Y-115764372D01*
X153057896Y-115833775D01*
X153051418Y-115857313D01*
X152338721Y-117710325D01*
X152296283Y-117765830D01*
X152269573Y-117780728D01*
X150515690Y-118491762D01*
X150446167Y-118498706D01*
X150423051Y-118491977D01*
X148766043Y-117829174D01*
X148711109Y-117786000D01*
X148698906Y-117764680D01*
X148697046Y-117760523D01*
X147891287Y-115959413D01*
X147881878Y-115890180D01*
X147890012Y-115861088D01*
X148600149Y-114156760D01*
X148644103Y-114102450D01*
X148665387Y-114090642D01*
X150419352Y-113332171D01*
X150488696Y-113323631D01*
X150519203Y-113332796D01*
G37*
G04 #@! TD.AperFunction*
G04 #@! TA.AperFunction,Conductor*
G36*
X112119203Y-94132796D02*
G01*
X113924931Y-94940622D01*
X113978088Y-94985967D01*
X113988446Y-95005383D01*
X114649835Y-96564372D01*
X114657896Y-96633775D01*
X114651418Y-96657313D01*
X113938721Y-98510325D01*
X113896283Y-98565830D01*
X113869573Y-98580728D01*
X112115690Y-99291762D01*
X112046167Y-99298706D01*
X112023051Y-99291977D01*
X110366043Y-98629174D01*
X110311109Y-98586000D01*
X110298906Y-98564680D01*
X110297046Y-98560523D01*
X109491287Y-96759413D01*
X109481878Y-96690180D01*
X109490012Y-96661088D01*
X110200149Y-94956760D01*
X110244103Y-94902450D01*
X110265387Y-94890642D01*
X112019352Y-94132171D01*
X112088696Y-94123631D01*
X112119203Y-94132796D01*
G37*
G04 #@! TD.AperFunction*
G04 #@! TA.AperFunction,Conductor*
G36*
X136519203Y-64732796D02*
G01*
X138324931Y-65540622D01*
X138378088Y-65585967D01*
X138388446Y-65605383D01*
X139049835Y-67164372D01*
X139057896Y-67233775D01*
X139051418Y-67257313D01*
X138338721Y-69110325D01*
X138296283Y-69165830D01*
X138269573Y-69180728D01*
X136515690Y-69891762D01*
X136446167Y-69898706D01*
X136423051Y-69891977D01*
X134766043Y-69229174D01*
X134711109Y-69186000D01*
X134698906Y-69164680D01*
X134697046Y-69160523D01*
X133891287Y-67359413D01*
X133881878Y-67290180D01*
X133890012Y-67261088D01*
X134600149Y-65556760D01*
X134644103Y-65502450D01*
X134665387Y-65490642D01*
X136419352Y-64732171D01*
X136488696Y-64723631D01*
X136519203Y-64732796D01*
G37*
G04 #@! TD.AperFunction*
G04 #@! TA.AperFunction,Conductor*
G36*
X131319203Y-94132796D02*
G01*
X133124931Y-94940622D01*
X133178088Y-94985967D01*
X133188446Y-95005383D01*
X133849835Y-96564372D01*
X133857896Y-96633775D01*
X133851418Y-96657313D01*
X133138721Y-98510325D01*
X133096283Y-98565830D01*
X133069573Y-98580728D01*
X131315690Y-99291762D01*
X131246167Y-99298706D01*
X131223051Y-99291977D01*
X129566043Y-98629174D01*
X129511109Y-98586000D01*
X129498906Y-98564680D01*
X129497046Y-98560523D01*
X128691287Y-96759413D01*
X128681878Y-96690180D01*
X128690012Y-96661088D01*
X129400149Y-94956760D01*
X129444103Y-94902450D01*
X129465387Y-94890642D01*
X131219352Y-94132171D01*
X131288696Y-94123631D01*
X131319203Y-94132796D01*
G37*
G04 #@! TD.AperFunction*
G04 #@! TA.AperFunction,Conductor*
G36*
X150519203Y-74932796D02*
G01*
X152324931Y-75740622D01*
X152378088Y-75785967D01*
X152388446Y-75805383D01*
X153049835Y-77364372D01*
X153057896Y-77433775D01*
X153051418Y-77457313D01*
X152338721Y-79310325D01*
X152296283Y-79365830D01*
X152269573Y-79380728D01*
X150515690Y-80091762D01*
X150446167Y-80098706D01*
X150423051Y-80091977D01*
X148766043Y-79429174D01*
X148711109Y-79386000D01*
X148698906Y-79364680D01*
X148697046Y-79360523D01*
X147891287Y-77559413D01*
X147881878Y-77490180D01*
X147890012Y-77461088D01*
X148600149Y-75756760D01*
X148644103Y-75702450D01*
X148665387Y-75690642D01*
X150419352Y-74932171D01*
X150488696Y-74923631D01*
X150519203Y-74932796D01*
G37*
G04 #@! TD.AperFunction*
G04 #@! TA.AperFunction,Conductor*
G36*
X126119203Y-122332796D02*
G01*
X127924931Y-123140622D01*
X127978088Y-123185967D01*
X127988446Y-123205383D01*
X128649835Y-124764372D01*
X128657896Y-124833775D01*
X128651418Y-124857313D01*
X127938721Y-126710325D01*
X127896283Y-126765830D01*
X127869573Y-126780728D01*
X126115690Y-127491762D01*
X126046167Y-127498706D01*
X126023051Y-127491977D01*
X124366043Y-126829174D01*
X124311109Y-126786000D01*
X124298906Y-126764680D01*
X124297046Y-126760523D01*
X123491287Y-124959413D01*
X123481878Y-124890180D01*
X123490012Y-124861088D01*
X124200149Y-123156760D01*
X124244103Y-123102450D01*
X124265387Y-123090642D01*
X126019352Y-122332171D01*
X126088696Y-122323631D01*
X126119203Y-122332796D01*
G37*
G04 #@! TD.AperFunction*
G04 #@! TA.AperFunction,Conductor*
G36*
X194119203Y-45532796D02*
G01*
X195924931Y-46340622D01*
X195978088Y-46385967D01*
X195988446Y-46405383D01*
X196649835Y-47964372D01*
X196657896Y-48033775D01*
X196651418Y-48057313D01*
X195938721Y-49910325D01*
X195896283Y-49965830D01*
X195869573Y-49980728D01*
X194115690Y-50691762D01*
X194046167Y-50698706D01*
X194023051Y-50691977D01*
X192366043Y-50029174D01*
X192311109Y-49986000D01*
X192298906Y-49964680D01*
X192297046Y-49960523D01*
X191491287Y-48159413D01*
X191481878Y-48090180D01*
X191490012Y-48061088D01*
X192200149Y-46356760D01*
X192244103Y-46302450D01*
X192265387Y-46290642D01*
X194019352Y-45532171D01*
X194088696Y-45523631D01*
X194119203Y-45532796D01*
G37*
G04 #@! TD.AperFunction*
G04 #@! TA.AperFunction,Conductor*
G36*
X145319203Y-64732796D02*
G01*
X147124931Y-65540622D01*
X147178088Y-65585967D01*
X147188446Y-65605383D01*
X147849835Y-67164372D01*
X147857896Y-67233775D01*
X147851418Y-67257313D01*
X147138721Y-69110325D01*
X147096283Y-69165830D01*
X147069573Y-69180728D01*
X145315690Y-69891762D01*
X145246167Y-69898706D01*
X145223051Y-69891977D01*
X143566043Y-69229174D01*
X143511109Y-69186000D01*
X143498906Y-69164680D01*
X143497046Y-69160523D01*
X142691287Y-67359413D01*
X142681878Y-67290180D01*
X142690012Y-67261088D01*
X143400149Y-65556760D01*
X143444103Y-65502450D01*
X143465387Y-65490642D01*
X145219352Y-64732171D01*
X145288696Y-64723631D01*
X145319203Y-64732796D01*
G37*
G04 #@! TD.AperFunction*
G04 #@! TA.AperFunction,Conductor*
G36*
X174919203Y-103132796D02*
G01*
X176724931Y-103940622D01*
X176778088Y-103985967D01*
X176788446Y-104005383D01*
X177449835Y-105564372D01*
X177457896Y-105633775D01*
X177451418Y-105657313D01*
X176738721Y-107510325D01*
X176696283Y-107565830D01*
X176669573Y-107580728D01*
X174915690Y-108291762D01*
X174846167Y-108298706D01*
X174823051Y-108291977D01*
X173166043Y-107629174D01*
X173111109Y-107586000D01*
X173098906Y-107564680D01*
X173097046Y-107560523D01*
X172291287Y-105759413D01*
X172281878Y-105690180D01*
X172290012Y-105661088D01*
X173000149Y-103956760D01*
X173044103Y-103902450D01*
X173065387Y-103890642D01*
X174819352Y-103132171D01*
X174888696Y-103123631D01*
X174919203Y-103132796D01*
G37*
G04 #@! TD.AperFunction*
G04 #@! TA.AperFunction,Conductor*
G36*
X169719203Y-113332796D02*
G01*
X171524931Y-114140622D01*
X171578088Y-114185967D01*
X171588446Y-114205383D01*
X172249835Y-115764372D01*
X172257896Y-115833775D01*
X172251418Y-115857313D01*
X171538721Y-117710325D01*
X171496283Y-117765830D01*
X171469573Y-117780728D01*
X169715690Y-118491762D01*
X169646167Y-118498706D01*
X169623051Y-118491977D01*
X167966043Y-117829174D01*
X167911109Y-117786000D01*
X167898906Y-117764680D01*
X167897046Y-117760523D01*
X167091287Y-115959413D01*
X167081878Y-115890180D01*
X167090012Y-115861088D01*
X167800149Y-114156760D01*
X167844103Y-114102450D01*
X167865387Y-114090642D01*
X169619352Y-113332171D01*
X169688696Y-113323631D01*
X169719203Y-113332796D01*
G37*
G04 #@! TD.AperFunction*
G04 #@! TA.AperFunction,Conductor*
G36*
X188919203Y-74932796D02*
G01*
X190724931Y-75740622D01*
X190778088Y-75785967D01*
X190788446Y-75805383D01*
X191449835Y-77364372D01*
X191457896Y-77433775D01*
X191451418Y-77457313D01*
X190738721Y-79310325D01*
X190696283Y-79365830D01*
X190669573Y-79380728D01*
X188915690Y-80091762D01*
X188846167Y-80098706D01*
X188823051Y-80091977D01*
X187166043Y-79429174D01*
X187111109Y-79386000D01*
X187098906Y-79364680D01*
X187097046Y-79360523D01*
X186291287Y-77559413D01*
X186281878Y-77490180D01*
X186290012Y-77461088D01*
X187000149Y-75756760D01*
X187044103Y-75702450D01*
X187065387Y-75690642D01*
X188819352Y-74932171D01*
X188888696Y-74923631D01*
X188919203Y-74932796D01*
G37*
G04 #@! TD.AperFunction*
G04 #@! TA.AperFunction,Conductor*
G36*
X164519203Y-64732796D02*
G01*
X166324931Y-65540622D01*
X166378088Y-65585967D01*
X166388446Y-65605383D01*
X167049835Y-67164372D01*
X167057896Y-67233775D01*
X167051418Y-67257313D01*
X166338721Y-69110325D01*
X166296283Y-69165830D01*
X166269573Y-69180728D01*
X164515690Y-69891762D01*
X164446167Y-69898706D01*
X164423051Y-69891977D01*
X162766043Y-69229174D01*
X162711109Y-69186000D01*
X162698906Y-69164680D01*
X162697046Y-69160523D01*
X161891287Y-67359413D01*
X161881878Y-67290180D01*
X161890012Y-67261088D01*
X162600149Y-65556760D01*
X162644103Y-65502450D01*
X162665387Y-65490642D01*
X164419352Y-64732171D01*
X164488696Y-64723631D01*
X164519203Y-64732796D01*
G37*
G04 #@! TD.AperFunction*
G04 #@! TA.AperFunction,Conductor*
G36*
X106919203Y-122332796D02*
G01*
X108724931Y-123140622D01*
X108778088Y-123185967D01*
X108788446Y-123205383D01*
X109449835Y-124764372D01*
X109457896Y-124833775D01*
X109451418Y-124857313D01*
X108738721Y-126710325D01*
X108696283Y-126765830D01*
X108669573Y-126780728D01*
X106915690Y-127491762D01*
X106846167Y-127498706D01*
X106823051Y-127491977D01*
X105166043Y-126829174D01*
X105111109Y-126786000D01*
X105098906Y-126764680D01*
X105097046Y-126760523D01*
X104291287Y-124959413D01*
X104281878Y-124890180D01*
X104290012Y-124861088D01*
X105000149Y-123156760D01*
X105044103Y-123102450D01*
X105065387Y-123090642D01*
X106819352Y-122332171D01*
X106888696Y-122323631D01*
X106919203Y-122332796D01*
G37*
G04 #@! TD.AperFunction*
G04 #@! TA.AperFunction,Conductor*
G36*
X155719203Y-64732796D02*
G01*
X157524931Y-65540622D01*
X157578088Y-65585967D01*
X157588446Y-65605383D01*
X158249835Y-67164372D01*
X158257896Y-67233775D01*
X158251418Y-67257313D01*
X157538721Y-69110325D01*
X157496283Y-69165830D01*
X157469573Y-69180728D01*
X155715690Y-69891762D01*
X155646167Y-69898706D01*
X155623051Y-69891977D01*
X153966043Y-69229174D01*
X153911109Y-69186000D01*
X153898906Y-69164680D01*
X153897046Y-69160523D01*
X153091287Y-67359413D01*
X153081878Y-67290180D01*
X153090012Y-67261088D01*
X153800149Y-65556760D01*
X153844103Y-65502450D01*
X153865387Y-65490642D01*
X155619352Y-64732171D01*
X155688696Y-64723631D01*
X155719203Y-64732796D01*
G37*
G04 #@! TD.AperFunction*
G04 #@! TA.AperFunction,Conductor*
G36*
X112119203Y-55732796D02*
G01*
X113924931Y-56540622D01*
X113978088Y-56585967D01*
X113988446Y-56605383D01*
X114649835Y-58164372D01*
X114657896Y-58233775D01*
X114651418Y-58257313D01*
X113938721Y-60110325D01*
X113896283Y-60165830D01*
X113869573Y-60180728D01*
X112115690Y-60891762D01*
X112046167Y-60898706D01*
X112023051Y-60891977D01*
X110366043Y-60229174D01*
X110311109Y-60186000D01*
X110298906Y-60164680D01*
X110297046Y-60160523D01*
X109491287Y-58359413D01*
X109481878Y-58290180D01*
X109490012Y-58261088D01*
X110200149Y-56556760D01*
X110244103Y-56502450D01*
X110265387Y-56490642D01*
X112019352Y-55732171D01*
X112088696Y-55723631D01*
X112119203Y-55732796D01*
G37*
G04 #@! TD.AperFunction*
G04 #@! TA.AperFunction,Conductor*
G36*
X117319203Y-45532796D02*
G01*
X119124931Y-46340622D01*
X119178088Y-46385967D01*
X119188446Y-46405383D01*
X119849835Y-47964372D01*
X119857896Y-48033775D01*
X119851418Y-48057313D01*
X119138721Y-49910325D01*
X119096283Y-49965830D01*
X119069573Y-49980728D01*
X117315690Y-50691762D01*
X117246167Y-50698706D01*
X117223051Y-50691977D01*
X115566043Y-50029174D01*
X115511109Y-49986000D01*
X115498906Y-49964680D01*
X115497046Y-49960523D01*
X114691287Y-48159413D01*
X114681878Y-48090180D01*
X114690012Y-48061088D01*
X115400149Y-46356760D01*
X115444103Y-46302450D01*
X115465387Y-46290642D01*
X117219352Y-45532171D01*
X117288696Y-45523631D01*
X117319203Y-45532796D01*
G37*
G04 #@! TD.AperFunction*
G04 #@! TA.AperFunction,Conductor*
G36*
X174919203Y-83932796D02*
G01*
X176724931Y-84740622D01*
X176778088Y-84785967D01*
X176788446Y-84805383D01*
X177449835Y-86364372D01*
X177457896Y-86433775D01*
X177451418Y-86457313D01*
X176738721Y-88310325D01*
X176696283Y-88365830D01*
X176669573Y-88380728D01*
X174915690Y-89091762D01*
X174846167Y-89098706D01*
X174823051Y-89091977D01*
X173166043Y-88429174D01*
X173111109Y-88386000D01*
X173098906Y-88364680D01*
X173097046Y-88360523D01*
X172291287Y-86559413D01*
X172281878Y-86490180D01*
X172290012Y-86461088D01*
X173000149Y-84756760D01*
X173044103Y-84702450D01*
X173065387Y-84690642D01*
X174819352Y-83932171D01*
X174888696Y-83923631D01*
X174919203Y-83932796D01*
G37*
G04 #@! TD.AperFunction*
G04 #@! TA.AperFunction,Conductor*
G36*
X169719203Y-74932796D02*
G01*
X171524931Y-75740622D01*
X171578088Y-75785967D01*
X171588446Y-75805383D01*
X172249835Y-77364372D01*
X172257896Y-77433775D01*
X172251418Y-77457313D01*
X171538721Y-79310325D01*
X171496283Y-79365830D01*
X171469573Y-79380728D01*
X169715690Y-80091762D01*
X169646167Y-80098706D01*
X169623051Y-80091977D01*
X167966043Y-79429174D01*
X167911109Y-79386000D01*
X167898906Y-79364680D01*
X167897046Y-79360523D01*
X167091287Y-77559413D01*
X167081878Y-77490180D01*
X167090012Y-77461088D01*
X167800149Y-75756760D01*
X167844103Y-75702450D01*
X167865387Y-75690642D01*
X169619352Y-74932171D01*
X169688696Y-74923631D01*
X169719203Y-74932796D01*
G37*
G04 #@! TD.AperFunction*
G04 #@! TA.AperFunction,Conductor*
G36*
X188919203Y-94132796D02*
G01*
X190724931Y-94940622D01*
X190778088Y-94985967D01*
X190788446Y-95005383D01*
X191449835Y-96564372D01*
X191457896Y-96633775D01*
X191451418Y-96657313D01*
X190738721Y-98510325D01*
X190696283Y-98565830D01*
X190669573Y-98580728D01*
X188915690Y-99291762D01*
X188846167Y-99298706D01*
X188823051Y-99291977D01*
X187166043Y-98629174D01*
X187111109Y-98586000D01*
X187098906Y-98564680D01*
X187097046Y-98560523D01*
X186291287Y-96759413D01*
X186281878Y-96690180D01*
X186290012Y-96661088D01*
X187000149Y-94956760D01*
X187044103Y-94902450D01*
X187065387Y-94890642D01*
X188819352Y-94132171D01*
X188888696Y-94123631D01*
X188919203Y-94132796D01*
G37*
G04 #@! TD.AperFunction*
G04 #@! TA.AperFunction,Conductor*
G36*
X112119203Y-113332796D02*
G01*
X113924931Y-114140622D01*
X113978088Y-114185967D01*
X113988446Y-114205383D01*
X114649835Y-115764372D01*
X114657896Y-115833775D01*
X114651418Y-115857313D01*
X113938721Y-117710325D01*
X113896283Y-117765830D01*
X113869573Y-117780728D01*
X112115690Y-118491762D01*
X112046167Y-118498706D01*
X112023051Y-118491977D01*
X110366043Y-117829174D01*
X110311109Y-117786000D01*
X110298906Y-117764680D01*
X110297046Y-117760523D01*
X109491287Y-115959413D01*
X109481878Y-115890180D01*
X109490012Y-115861088D01*
X110200149Y-114156760D01*
X110244103Y-114102450D01*
X110265387Y-114090642D01*
X112019352Y-113332171D01*
X112088696Y-113323631D01*
X112119203Y-113332796D01*
G37*
G04 #@! TD.AperFunction*
G04 #@! TA.AperFunction,Conductor*
G36*
X117319203Y-122332796D02*
G01*
X119124931Y-123140622D01*
X119178088Y-123185967D01*
X119188446Y-123205383D01*
X119849835Y-124764372D01*
X119857896Y-124833775D01*
X119851418Y-124857313D01*
X119138721Y-126710325D01*
X119096283Y-126765830D01*
X119069573Y-126780728D01*
X117315690Y-127491762D01*
X117246167Y-127498706D01*
X117223051Y-127491977D01*
X115566043Y-126829174D01*
X115511109Y-126786000D01*
X115498906Y-126764680D01*
X115497046Y-126760523D01*
X114691287Y-124959413D01*
X114681878Y-124890180D01*
X114690012Y-124861088D01*
X115400149Y-123156760D01*
X115444103Y-123102450D01*
X115465387Y-123090642D01*
X117219352Y-122332171D01*
X117288696Y-122323631D01*
X117319203Y-122332796D01*
G37*
G04 #@! TD.AperFunction*
G04 #@! TA.AperFunction,Conductor*
G36*
X188919203Y-36532796D02*
G01*
X190724931Y-37340622D01*
X190778088Y-37385967D01*
X190788446Y-37405383D01*
X191449835Y-38964372D01*
X191457896Y-39033775D01*
X191451418Y-39057313D01*
X190738721Y-40910325D01*
X190696283Y-40965830D01*
X190669573Y-40980728D01*
X188915690Y-41691762D01*
X188846167Y-41698706D01*
X188823051Y-41691977D01*
X187166043Y-41029174D01*
X187111109Y-40986000D01*
X187098906Y-40964680D01*
X187097046Y-40960523D01*
X186291287Y-39159413D01*
X186281878Y-39090180D01*
X186290012Y-39061088D01*
X187000149Y-37356760D01*
X187044103Y-37302450D01*
X187065387Y-37290642D01*
X188819352Y-36532171D01*
X188888696Y-36523631D01*
X188919203Y-36532796D01*
G37*
G04 #@! TD.AperFunction*
G04 #@! TA.AperFunction,Conductor*
G36*
X106919203Y-64732796D02*
G01*
X108724931Y-65540622D01*
X108778088Y-65585967D01*
X108788446Y-65605383D01*
X109449835Y-67164372D01*
X109457896Y-67233775D01*
X109451418Y-67257313D01*
X108738721Y-69110325D01*
X108696283Y-69165830D01*
X108669573Y-69180728D01*
X106915690Y-69891762D01*
X106846167Y-69898706D01*
X106823051Y-69891977D01*
X105166043Y-69229174D01*
X105111109Y-69186000D01*
X105098906Y-69164680D01*
X105097046Y-69160523D01*
X104291287Y-67359413D01*
X104281878Y-67290180D01*
X104290012Y-67261088D01*
X105000149Y-65556760D01*
X105044103Y-65502450D01*
X105065387Y-65490642D01*
X106819352Y-64732171D01*
X106888696Y-64723631D01*
X106919203Y-64732796D01*
G37*
G04 #@! TD.AperFunction*
G04 #@! TA.AperFunction,Conductor*
G36*
X183719203Y-122332796D02*
G01*
X185524931Y-123140622D01*
X185578088Y-123185967D01*
X185588446Y-123205383D01*
X186249835Y-124764372D01*
X186257896Y-124833775D01*
X186251418Y-124857313D01*
X185538721Y-126710325D01*
X185496283Y-126765830D01*
X185469573Y-126780728D01*
X183715690Y-127491762D01*
X183646167Y-127498706D01*
X183623051Y-127491977D01*
X181966043Y-126829174D01*
X181911109Y-126786000D01*
X181898906Y-126764680D01*
X181897046Y-126760523D01*
X181091287Y-124959413D01*
X181081878Y-124890180D01*
X181090012Y-124861088D01*
X181800149Y-123156760D01*
X181844103Y-123102450D01*
X181865387Y-123090642D01*
X183619352Y-122332171D01*
X183688696Y-122323631D01*
X183719203Y-122332796D01*
G37*
G04 #@! TD.AperFunction*
G04 #@! TA.AperFunction,Conductor*
G36*
X136519203Y-45532796D02*
G01*
X138324931Y-46340622D01*
X138378088Y-46385967D01*
X138388446Y-46405383D01*
X139049835Y-47964372D01*
X139057896Y-48033775D01*
X139051418Y-48057313D01*
X138338721Y-49910325D01*
X138296283Y-49965830D01*
X138269573Y-49980728D01*
X136515690Y-50691762D01*
X136446167Y-50698706D01*
X136423051Y-50691977D01*
X134766043Y-50029174D01*
X134711109Y-49986000D01*
X134698906Y-49964680D01*
X134697046Y-49960523D01*
X133891287Y-48159413D01*
X133881878Y-48090180D01*
X133890012Y-48061088D01*
X134600149Y-46356760D01*
X134644103Y-46302450D01*
X134665387Y-46290642D01*
X136419352Y-45532171D01*
X136488696Y-45523631D01*
X136519203Y-45532796D01*
G37*
G04 #@! TD.AperFunction*
G04 #@! TA.AperFunction,Conductor*
G36*
X174919203Y-64732796D02*
G01*
X176724931Y-65540622D01*
X176778088Y-65585967D01*
X176788446Y-65605383D01*
X177449835Y-67164372D01*
X177457896Y-67233775D01*
X177451418Y-67257313D01*
X176738721Y-69110325D01*
X176696283Y-69165830D01*
X176669573Y-69180728D01*
X174915690Y-69891762D01*
X174846167Y-69898706D01*
X174823051Y-69891977D01*
X173166043Y-69229174D01*
X173111109Y-69186000D01*
X173098906Y-69164680D01*
X173097046Y-69160523D01*
X172291287Y-67359413D01*
X172281878Y-67290180D01*
X172290012Y-67261088D01*
X173000149Y-65556760D01*
X173044103Y-65502450D01*
X173065387Y-65490642D01*
X174819352Y-64732171D01*
X174888696Y-64723631D01*
X174919203Y-64732796D01*
G37*
G04 #@! TD.AperFunction*
G04 #@! TA.AperFunction,Conductor*
G36*
X194119203Y-103132796D02*
G01*
X195924931Y-103940622D01*
X195978088Y-103985967D01*
X195988446Y-104005383D01*
X196649835Y-105564372D01*
X196657896Y-105633775D01*
X196651418Y-105657313D01*
X195938721Y-107510325D01*
X195896283Y-107565830D01*
X195869573Y-107580728D01*
X194115690Y-108291762D01*
X194046167Y-108298706D01*
X194023051Y-108291977D01*
X192366043Y-107629174D01*
X192311109Y-107586000D01*
X192298906Y-107564680D01*
X192297046Y-107560523D01*
X191491287Y-105759413D01*
X191481878Y-105690180D01*
X191490012Y-105661088D01*
X192200149Y-103956760D01*
X192244103Y-103902450D01*
X192265387Y-103890642D01*
X194019352Y-103132171D01*
X194088696Y-103123631D01*
X194119203Y-103132796D01*
G37*
G04 #@! TD.AperFunction*
G04 #@! TA.AperFunction,Conductor*
G36*
X183719203Y-103132796D02*
G01*
X185524931Y-103940622D01*
X185578088Y-103985967D01*
X185588446Y-104005383D01*
X186249835Y-105564372D01*
X186257896Y-105633775D01*
X186251418Y-105657313D01*
X185538721Y-107510325D01*
X185496283Y-107565830D01*
X185469573Y-107580728D01*
X183715690Y-108291762D01*
X183646167Y-108298706D01*
X183623051Y-108291977D01*
X181966043Y-107629174D01*
X181911109Y-107586000D01*
X181898906Y-107564680D01*
X181897046Y-107560523D01*
X181091287Y-105759413D01*
X181081878Y-105690180D01*
X181090012Y-105661088D01*
X181800149Y-103956760D01*
X181844103Y-103902450D01*
X181865387Y-103890642D01*
X183619352Y-103132171D01*
X183688696Y-103123631D01*
X183719203Y-103132796D01*
G37*
G04 #@! TD.AperFunction*
G04 #@! TA.AperFunction,Conductor*
G36*
X131319203Y-74932796D02*
G01*
X133124931Y-75740622D01*
X133178088Y-75785967D01*
X133188446Y-75805383D01*
X133849835Y-77364372D01*
X133857896Y-77433775D01*
X133851418Y-77457313D01*
X133138721Y-79310325D01*
X133096283Y-79365830D01*
X133069573Y-79380728D01*
X131315690Y-80091762D01*
X131246167Y-80098706D01*
X131223051Y-80091977D01*
X129566043Y-79429174D01*
X129511109Y-79386000D01*
X129498906Y-79364680D01*
X129497046Y-79360523D01*
X128691287Y-77559413D01*
X128681878Y-77490180D01*
X128690012Y-77461088D01*
X129400149Y-75756760D01*
X129444103Y-75702450D01*
X129465387Y-75690642D01*
X131219352Y-74932171D01*
X131288696Y-74923631D01*
X131319203Y-74932796D01*
G37*
G04 #@! TD.AperFunction*
G04 #@! TA.AperFunction,Conductor*
G36*
X131319203Y-36532796D02*
G01*
X133124931Y-37340622D01*
X133178088Y-37385967D01*
X133188446Y-37405383D01*
X133849835Y-38964372D01*
X133857896Y-39033775D01*
X133851418Y-39057313D01*
X133138721Y-40910325D01*
X133096283Y-40965830D01*
X133069573Y-40980728D01*
X131315690Y-41691762D01*
X131246167Y-41698706D01*
X131223051Y-41691977D01*
X129566043Y-41029174D01*
X129511109Y-40986000D01*
X129498906Y-40964680D01*
X129497046Y-40960523D01*
X128691287Y-39159413D01*
X128681878Y-39090180D01*
X128690012Y-39061088D01*
X129400149Y-37356760D01*
X129444103Y-37302450D01*
X129465387Y-37290642D01*
X131219352Y-36532171D01*
X131288696Y-36523631D01*
X131319203Y-36532796D01*
G37*
G04 #@! TD.AperFunction*
G04 #@! TA.AperFunction,Conductor*
G36*
X136519203Y-83932796D02*
G01*
X138324931Y-84740622D01*
X138378088Y-84785967D01*
X138388446Y-84805383D01*
X139049835Y-86364372D01*
X139057896Y-86433775D01*
X139051418Y-86457313D01*
X138338721Y-88310325D01*
X138296283Y-88365830D01*
X138269573Y-88380728D01*
X136515690Y-89091762D01*
X136446167Y-89098706D01*
X136423051Y-89091977D01*
X134766043Y-88429174D01*
X134711109Y-88386000D01*
X134698906Y-88364680D01*
X134697046Y-88360523D01*
X133891287Y-86559413D01*
X133881878Y-86490180D01*
X133890012Y-86461088D01*
X134600149Y-84756760D01*
X134644103Y-84702450D01*
X134665387Y-84690642D01*
X136419352Y-83932171D01*
X136488696Y-83923631D01*
X136519203Y-83932796D01*
G37*
G04 #@! TD.AperFunction*
G04 #@! TA.AperFunction,Conductor*
G36*
X164519203Y-83932796D02*
G01*
X166324931Y-84740622D01*
X166378088Y-84785967D01*
X166388446Y-84805383D01*
X167049835Y-86364372D01*
X167057896Y-86433775D01*
X167051418Y-86457313D01*
X166338721Y-88310325D01*
X166296283Y-88365830D01*
X166269573Y-88380728D01*
X164515690Y-89091762D01*
X164446167Y-89098706D01*
X164423051Y-89091977D01*
X162766043Y-88429174D01*
X162711109Y-88386000D01*
X162698906Y-88364680D01*
X162697046Y-88360523D01*
X161891287Y-86559413D01*
X161881878Y-86490180D01*
X161890012Y-86461088D01*
X162600149Y-84756760D01*
X162644103Y-84702450D01*
X162665387Y-84690642D01*
X164419352Y-83932171D01*
X164488696Y-83923631D01*
X164519203Y-83932796D01*
G37*
G04 #@! TD.AperFunction*
G04 #@! TA.AperFunction,Conductor*
G36*
X126119203Y-45532796D02*
G01*
X127924931Y-46340622D01*
X127978088Y-46385967D01*
X127988446Y-46405383D01*
X128649835Y-47964372D01*
X128657896Y-48033775D01*
X128651418Y-48057313D01*
X127938721Y-49910325D01*
X127896283Y-49965830D01*
X127869573Y-49980728D01*
X126115690Y-50691762D01*
X126046167Y-50698706D01*
X126023051Y-50691977D01*
X124366043Y-50029174D01*
X124311109Y-49986000D01*
X124298906Y-49964680D01*
X124297046Y-49960523D01*
X123491287Y-48159413D01*
X123481878Y-48090180D01*
X123490012Y-48061088D01*
X124200149Y-46356760D01*
X124244103Y-46302450D01*
X124265387Y-46290642D01*
X126019352Y-45532171D01*
X126088696Y-45523631D01*
X126119203Y-45532796D01*
G37*
G04 #@! TD.AperFunction*
G04 #@! TA.AperFunction,Conductor*
G36*
X112119203Y-74932796D02*
G01*
X113924931Y-75740622D01*
X113978088Y-75785967D01*
X113988446Y-75805383D01*
X114649835Y-77364372D01*
X114657896Y-77433775D01*
X114651418Y-77457313D01*
X113938721Y-79310325D01*
X113896283Y-79365830D01*
X113869573Y-79380728D01*
X112115690Y-80091762D01*
X112046167Y-80098706D01*
X112023051Y-80091977D01*
X110366043Y-79429174D01*
X110311109Y-79386000D01*
X110298906Y-79364680D01*
X110297046Y-79360523D01*
X109491287Y-77559413D01*
X109481878Y-77490180D01*
X109490012Y-77461088D01*
X110200149Y-75756760D01*
X110244103Y-75702450D01*
X110265387Y-75690642D01*
X112019352Y-74932171D01*
X112088696Y-74923631D01*
X112119203Y-74932796D01*
G37*
G04 #@! TD.AperFunction*
G04 #@! TA.AperFunction,Conductor*
G36*
X183719203Y-83932796D02*
G01*
X185524931Y-84740622D01*
X185578088Y-84785967D01*
X185588446Y-84805383D01*
X186249835Y-86364372D01*
X186257896Y-86433775D01*
X186251418Y-86457313D01*
X185538721Y-88310325D01*
X185496283Y-88365830D01*
X185469573Y-88380728D01*
X183715690Y-89091762D01*
X183646167Y-89098706D01*
X183623051Y-89091977D01*
X181966043Y-88429174D01*
X181911109Y-88386000D01*
X181898906Y-88364680D01*
X181897046Y-88360523D01*
X181091287Y-86559413D01*
X181081878Y-86490180D01*
X181090012Y-86461088D01*
X181800149Y-84756760D01*
X181844103Y-84702450D01*
X181865387Y-84690642D01*
X183619352Y-83932171D01*
X183688696Y-83923631D01*
X183719203Y-83932796D01*
G37*
G04 #@! TD.AperFunction*
G04 #@! TA.AperFunction,Conductor*
G36*
X117319203Y-103132796D02*
G01*
X119124931Y-103940622D01*
X119178088Y-103985967D01*
X119188446Y-104005383D01*
X119849835Y-105564372D01*
X119857896Y-105633775D01*
X119851418Y-105657313D01*
X119138721Y-107510325D01*
X119096283Y-107565830D01*
X119069573Y-107580728D01*
X117315690Y-108291762D01*
X117246167Y-108298706D01*
X117223051Y-108291977D01*
X115566043Y-107629174D01*
X115511109Y-107586000D01*
X115498906Y-107564680D01*
X115497046Y-107560523D01*
X114691287Y-105759413D01*
X114681878Y-105690180D01*
X114690012Y-105661088D01*
X115400149Y-103956760D01*
X115444103Y-103902450D01*
X115465387Y-103890642D01*
X117219352Y-103132171D01*
X117288696Y-103123631D01*
X117319203Y-103132796D01*
G37*
G04 #@! TD.AperFunction*
G04 #@! TA.AperFunction,Conductor*
G36*
X169719203Y-36532796D02*
G01*
X171524931Y-37340622D01*
X171578088Y-37385967D01*
X171588446Y-37405383D01*
X172249835Y-38964372D01*
X172257896Y-39033775D01*
X172251418Y-39057313D01*
X171538721Y-40910325D01*
X171496283Y-40965830D01*
X171469573Y-40980728D01*
X169715690Y-41691762D01*
X169646167Y-41698706D01*
X169623051Y-41691977D01*
X167966043Y-41029174D01*
X167911109Y-40986000D01*
X167898906Y-40964680D01*
X167897046Y-40960523D01*
X167091287Y-39159413D01*
X167081878Y-39090180D01*
X167090012Y-39061088D01*
X167800149Y-37356760D01*
X167844103Y-37302450D01*
X167865387Y-37290642D01*
X169619352Y-36532171D01*
X169688696Y-36523631D01*
X169719203Y-36532796D01*
G37*
G04 #@! TD.AperFunction*
G04 #@! TA.AperFunction,Conductor*
G36*
X106919203Y-103132796D02*
G01*
X108724931Y-103940622D01*
X108778088Y-103985967D01*
X108788446Y-104005383D01*
X109449835Y-105564372D01*
X109457896Y-105633775D01*
X109451418Y-105657313D01*
X108738721Y-107510325D01*
X108696283Y-107565830D01*
X108669573Y-107580728D01*
X106915690Y-108291762D01*
X106846167Y-108298706D01*
X106823051Y-108291977D01*
X105166043Y-107629174D01*
X105111109Y-107586000D01*
X105098906Y-107564680D01*
X105097046Y-107560523D01*
X104291287Y-105759413D01*
X104281878Y-105690180D01*
X104290012Y-105661088D01*
X105000149Y-103956760D01*
X105044103Y-103902450D01*
X105065387Y-103890642D01*
X106819352Y-103132171D01*
X106888696Y-103123631D01*
X106919203Y-103132796D01*
G37*
G04 #@! TD.AperFunction*
G04 #@! TA.AperFunction,Conductor*
G36*
X194119203Y-122332796D02*
G01*
X195924931Y-123140622D01*
X195978088Y-123185967D01*
X195988446Y-123205383D01*
X196649835Y-124764372D01*
X196657896Y-124833775D01*
X196651418Y-124857313D01*
X195938721Y-126710325D01*
X195896283Y-126765830D01*
X195869573Y-126780728D01*
X194115690Y-127491762D01*
X194046167Y-127498706D01*
X194023051Y-127491977D01*
X192366043Y-126829174D01*
X192311109Y-126786000D01*
X192298906Y-126764680D01*
X192297046Y-126760523D01*
X191491287Y-124959413D01*
X191481878Y-124890180D01*
X191490012Y-124861088D01*
X192200149Y-123156760D01*
X192244103Y-123102450D01*
X192265387Y-123090642D01*
X194019352Y-122332171D01*
X194088696Y-122323631D01*
X194119203Y-122332796D01*
G37*
G04 #@! TD.AperFunction*
G04 #@! TA.AperFunction,Conductor*
G36*
X155719203Y-122332796D02*
G01*
X157524931Y-123140622D01*
X157578088Y-123185967D01*
X157588446Y-123205383D01*
X158249835Y-124764372D01*
X158257896Y-124833775D01*
X158251418Y-124857313D01*
X157538721Y-126710325D01*
X157496283Y-126765830D01*
X157469573Y-126780728D01*
X155715690Y-127491762D01*
X155646167Y-127498706D01*
X155623051Y-127491977D01*
X153966043Y-126829174D01*
X153911109Y-126786000D01*
X153898906Y-126764680D01*
X153897046Y-126760523D01*
X153091287Y-124959413D01*
X153081878Y-124890180D01*
X153090012Y-124861088D01*
X153800149Y-123156760D01*
X153844103Y-123102450D01*
X153865387Y-123090642D01*
X155619352Y-122332171D01*
X155688696Y-122323631D01*
X155719203Y-122332796D01*
G37*
G04 #@! TD.AperFunction*
G04 #@! TA.AperFunction,Conductor*
G36*
X169719203Y-94132796D02*
G01*
X171524931Y-94940622D01*
X171578088Y-94985967D01*
X171588446Y-95005383D01*
X172249835Y-96564372D01*
X172257896Y-96633775D01*
X172251418Y-96657313D01*
X171538721Y-98510325D01*
X171496283Y-98565830D01*
X171469573Y-98580728D01*
X169715690Y-99291762D01*
X169646167Y-99298706D01*
X169623051Y-99291977D01*
X167966043Y-98629174D01*
X167911109Y-98586000D01*
X167898906Y-98564680D01*
X167897046Y-98560523D01*
X167091287Y-96759413D01*
X167081878Y-96690180D01*
X167090012Y-96661088D01*
X167800149Y-94956760D01*
X167844103Y-94902450D01*
X167865387Y-94890642D01*
X169619352Y-94132171D01*
X169688696Y-94123631D01*
X169719203Y-94132796D01*
G37*
G04 #@! TD.AperFunction*
G04 #@! TA.AperFunction,Conductor*
G36*
X150519203Y-55732796D02*
G01*
X152324931Y-56540622D01*
X152378088Y-56585967D01*
X152388446Y-56605383D01*
X153049835Y-58164372D01*
X153057896Y-58233775D01*
X153051418Y-58257313D01*
X152338721Y-60110325D01*
X152296283Y-60165830D01*
X152269573Y-60180728D01*
X150515690Y-60891762D01*
X150446167Y-60898706D01*
X150423051Y-60891977D01*
X148766043Y-60229174D01*
X148711109Y-60186000D01*
X148698906Y-60164680D01*
X148697046Y-60160523D01*
X147891287Y-58359413D01*
X147881878Y-58290180D01*
X147890012Y-58261088D01*
X148600149Y-56556760D01*
X148644103Y-56502450D01*
X148665387Y-56490642D01*
X150419352Y-55732171D01*
X150488696Y-55723631D01*
X150519203Y-55732796D01*
G37*
G04 #@! TD.AperFunction*
G04 #@! TA.AperFunction,Conductor*
G36*
X194119203Y-64732796D02*
G01*
X195924931Y-65540622D01*
X195978088Y-65585967D01*
X195988446Y-65605383D01*
X196649835Y-67164372D01*
X196657896Y-67233775D01*
X196651418Y-67257313D01*
X195938721Y-69110325D01*
X195896283Y-69165830D01*
X195869573Y-69180728D01*
X194115690Y-69891762D01*
X194046167Y-69898706D01*
X194023051Y-69891977D01*
X192366043Y-69229174D01*
X192311109Y-69186000D01*
X192298906Y-69164680D01*
X192297046Y-69160523D01*
X191491287Y-67359413D01*
X191481878Y-67290180D01*
X191490012Y-67261088D01*
X192200149Y-65556760D01*
X192244103Y-65502450D01*
X192265387Y-65490642D01*
X194019352Y-64732171D01*
X194088696Y-64723631D01*
X194119203Y-64732796D01*
G37*
G04 #@! TD.AperFunction*
G04 #@! TA.AperFunction,Conductor*
G36*
X117319203Y-83932796D02*
G01*
X119124931Y-84740622D01*
X119178088Y-84785967D01*
X119188446Y-84805383D01*
X119849835Y-86364372D01*
X119857896Y-86433775D01*
X119851418Y-86457313D01*
X119138721Y-88310325D01*
X119096283Y-88365830D01*
X119069573Y-88380728D01*
X117315690Y-89091762D01*
X117246167Y-89098706D01*
X117223051Y-89091977D01*
X115566043Y-88429174D01*
X115511109Y-88386000D01*
X115498906Y-88364680D01*
X115497046Y-88360523D01*
X114691287Y-86559413D01*
X114681878Y-86490180D01*
X114690012Y-86461088D01*
X115400149Y-84756760D01*
X115444103Y-84702450D01*
X115465387Y-84690642D01*
X117219352Y-83932171D01*
X117288696Y-83923631D01*
X117319203Y-83932796D01*
G37*
G04 #@! TD.AperFunction*
M02*
