M48
; DRILL file {KiCad 7.0.9} date Tue Jan  2 20:35:24 2024
; FORMAT={-:-/ absolute / metric / decimal}
; #@! TF.CreationDate,2024-01-02T20:35:24+01:00
; #@! TF.GenerationSoftware,Kicad,Pcbnew,7.0.9
; #@! TF.FileFunction,Plated,1,2,PTH
FMAT,2
METRIC
; #@! TA.AperFunction,Plated,PTH,ViaDrill
T1C0.400
%
G90
G05
T1
X82.1Y-43.65
X82.1Y-62.85
X82.1Y-82.05
X82.1Y-101.25
X82.1Y-120.45
X82.65Y-42.2
X82.65Y-61.4
X82.65Y-80.6
X82.65Y-99.8
X82.65Y-119.0
X82.75Y-45.15
X82.75Y-64.35
X82.75Y-83.55
X82.75Y-102.75
X82.75Y-121.95
X84.15Y-41.55
X84.15Y-45.65
X84.15Y-60.75
X84.15Y-64.85
X84.15Y-79.95
X84.15Y-84.05
X84.15Y-99.15
X84.15Y-103.25
X84.15Y-118.35
X84.15Y-122.45
X85.6Y-45.1
X85.6Y-64.3
X85.6Y-83.5
X85.6Y-102.7
X85.6Y-121.9
X85.65Y-42.25
X85.65Y-61.45
X85.65Y-80.65
X85.65Y-99.85
X85.65Y-119.05
X86.2Y-43.55
X86.2Y-62.75
X86.2Y-81.95
X86.2Y-101.15
X86.2Y-120.35
X87.3Y-34.65
X87.3Y-53.85
X87.3Y-73.05
X87.3Y-92.25
X87.3Y-111.45
X87.35Y-44.4
X87.35Y-47.5
X87.35Y-63.6
X87.35Y-66.7
X87.35Y-82.8
X87.35Y-85.9
X87.35Y-102.0
X87.35Y-105.1
X87.35Y-121.2
X87.35Y-124.3
X87.85Y-33.2
X87.85Y-52.4
X87.85Y-71.6
X87.85Y-90.8
X87.85Y-110.0
X87.95Y-36.15
X87.95Y-55.35
X87.95Y-74.55
X87.95Y-93.75
X87.95Y-112.95
X89.35Y-32.55
X89.35Y-36.65
X89.35Y-44.4
X89.35Y-47.6
X89.35Y-51.75
X89.35Y-55.85
X89.35Y-63.6
X89.35Y-66.8
X89.35Y-70.95
X89.35Y-75.05
X89.35Y-82.8
X89.35Y-86.0
X89.35Y-90.15
X89.35Y-94.25
X89.35Y-102.0
X89.35Y-105.2
X89.35Y-109.35
X89.35Y-113.45
X89.35Y-121.2
X89.35Y-124.4
X90.8Y-36.1
X90.8Y-55.3
X90.8Y-74.5
X90.8Y-93.7
X90.8Y-112.9
X90.85Y-33.25
X90.85Y-52.45
X90.85Y-71.65
X90.85Y-90.85
X90.85Y-110.05
X91.35Y-47.65
X91.35Y-66.85
X91.35Y-86.05
X91.35Y-105.25
X91.35Y-124.45
X91.4Y-34.55
X91.4Y-44.45
X91.4Y-53.75
X91.4Y-63.65
X91.4Y-72.95
X91.4Y-82.85
X91.4Y-92.15
X91.4Y-102.05
X91.4Y-111.35
X91.4Y-121.25
X92.5Y-43.65
X92.5Y-62.85
X92.5Y-82.05
X92.5Y-101.25
X92.5Y-120.45
X93.05Y-42.2
X93.05Y-61.4
X93.05Y-80.6
X93.05Y-99.8
X93.05Y-119.0
X93.15Y-45.15
X93.15Y-64.35
X93.15Y-83.55
X93.15Y-102.75
X93.15Y-121.95
X94.55Y-41.55
X94.55Y-45.65
X94.55Y-60.75
X94.55Y-64.85
X94.55Y-79.95
X94.55Y-84.05
X94.55Y-99.15
X94.55Y-103.25
X94.55Y-118.35
X94.55Y-122.45
X96.0Y-45.1
X96.0Y-64.3
X96.0Y-83.5
X96.0Y-102.7
X96.0Y-121.9
X96.05Y-42.25
X96.05Y-61.45
X96.05Y-80.65
X96.05Y-99.85
X96.05Y-119.05
X96.6Y-43.55
X96.6Y-62.75
X96.6Y-81.95
X96.6Y-101.15
X96.6Y-120.35
X101.3Y-43.65
X101.3Y-62.85
X101.3Y-82.05
X101.3Y-101.25
X101.3Y-120.45
X101.85Y-42.2
X101.85Y-61.4
X101.85Y-80.6
X101.85Y-99.8
X101.85Y-119.0
X101.95Y-45.15
X101.95Y-64.35
X101.95Y-83.55
X101.95Y-102.75
X101.95Y-121.95
X103.35Y-41.55
X103.35Y-45.65
X103.35Y-60.75
X103.35Y-64.85
X103.35Y-79.95
X103.35Y-84.05
X103.35Y-99.15
X103.35Y-103.25
X103.35Y-118.35
X103.35Y-122.45
X104.8Y-45.1
X104.8Y-64.3
X104.8Y-83.5
X104.8Y-102.7
X104.8Y-121.9
X104.85Y-42.25
X104.85Y-61.45
X104.85Y-80.65
X104.85Y-99.85
X104.85Y-119.05
X105.4Y-43.55
X105.4Y-62.75
X105.4Y-81.95
X105.4Y-101.15
X105.4Y-120.35
X106.5Y-34.65
X106.5Y-53.85
X106.5Y-73.05
X106.5Y-92.25
X106.5Y-111.45
X106.55Y-44.4
X106.55Y-47.5
X106.55Y-63.6
X106.55Y-66.7
X106.55Y-82.8
X106.55Y-85.9
X106.55Y-102.0
X106.55Y-105.1
X106.55Y-121.2
X106.55Y-124.3
X107.05Y-33.2
X107.05Y-52.4
X107.05Y-71.6
X107.05Y-90.8
X107.05Y-110.0
X107.15Y-36.15
X107.15Y-55.35
X107.15Y-74.55
X107.15Y-93.75
X107.15Y-112.95
X108.55Y-32.55
X108.55Y-36.65
X108.55Y-44.4
X108.55Y-47.6
X108.55Y-51.75
X108.55Y-55.85
X108.55Y-63.6
X108.55Y-66.8
X108.55Y-70.95
X108.55Y-75.05
X108.55Y-82.8
X108.55Y-86.0
X108.55Y-90.15
X108.55Y-94.25
X108.55Y-102.0
X108.55Y-105.2
X108.55Y-109.35
X108.55Y-113.45
X108.55Y-121.2
X108.55Y-124.4
X110.0Y-36.1
X110.0Y-55.3
X110.0Y-74.5
X110.0Y-93.7
X110.0Y-112.9
X110.05Y-33.25
X110.05Y-52.45
X110.05Y-71.65
X110.05Y-90.85
X110.05Y-110.05
X110.55Y-47.65
X110.55Y-66.85
X110.55Y-86.05
X110.55Y-105.25
X110.55Y-124.45
X110.6Y-34.55
X110.6Y-44.45
X110.6Y-53.75
X110.6Y-63.65
X110.6Y-72.95
X110.6Y-82.85
X110.6Y-92.15
X110.6Y-102.05
X110.6Y-111.35
X110.6Y-121.25
X111.7Y-43.65
X111.7Y-62.85
X111.7Y-82.05
X111.7Y-101.25
X111.7Y-120.45
X112.25Y-42.2
X112.25Y-61.4
X112.25Y-80.6
X112.25Y-99.8
X112.25Y-119.0
X112.35Y-45.15
X112.35Y-64.35
X112.35Y-83.55
X112.35Y-102.75
X112.35Y-121.95
X113.75Y-41.55
X113.75Y-45.65
X113.75Y-60.75
X113.75Y-64.85
X113.75Y-79.95
X113.75Y-84.05
X113.75Y-99.15
X113.75Y-103.25
X113.75Y-118.35
X113.75Y-122.45
X115.2Y-45.1
X115.2Y-64.3
X115.2Y-83.5
X115.2Y-102.7
X115.2Y-121.9
X115.25Y-42.25
X115.25Y-61.45
X115.25Y-80.65
X115.25Y-99.85
X115.25Y-119.05
X115.8Y-43.55
X115.8Y-62.75
X115.8Y-81.95
X115.8Y-101.15
X115.8Y-120.35
X120.5Y-43.65
X120.5Y-62.85
X120.5Y-82.05
X120.5Y-101.25
X120.5Y-120.45
X121.05Y-42.2
X121.05Y-61.4
X121.05Y-80.6
X121.05Y-99.8
X121.05Y-119.0
X121.15Y-45.15
X121.15Y-64.35
X121.15Y-83.55
X121.15Y-102.75
X121.15Y-121.95
X122.55Y-41.55
X122.55Y-45.65
X122.55Y-60.75
X122.55Y-64.85
X122.55Y-79.95
X122.55Y-84.05
X122.55Y-99.15
X122.55Y-103.25
X122.55Y-118.35
X122.55Y-122.45
X124.0Y-45.1
X124.0Y-64.3
X124.0Y-83.5
X124.0Y-102.7
X124.0Y-121.9
X124.05Y-42.25
X124.05Y-61.45
X124.05Y-80.65
X124.05Y-99.85
X124.05Y-119.05
X124.6Y-43.55
X124.6Y-62.75
X124.6Y-81.95
X124.6Y-101.15
X124.6Y-120.35
X125.7Y-34.65
X125.7Y-53.85
X125.7Y-73.05
X125.7Y-92.25
X125.7Y-111.45
X125.75Y-44.4
X125.75Y-47.5
X125.75Y-63.6
X125.75Y-66.7
X125.75Y-82.8
X125.75Y-85.9
X125.75Y-102.0
X125.75Y-105.1
X125.75Y-121.2
X125.75Y-124.3
X126.25Y-33.2
X126.25Y-52.4
X126.25Y-71.6
X126.25Y-90.8
X126.25Y-110.0
X126.35Y-36.15
X126.35Y-55.35
X126.35Y-74.55
X126.35Y-93.75
X126.35Y-112.95
X127.75Y-32.55
X127.75Y-36.65
X127.75Y-44.4
X127.75Y-47.6
X127.75Y-51.75
X127.75Y-55.85
X127.75Y-63.6
X127.75Y-66.8
X127.75Y-70.95
X127.75Y-75.05
X127.75Y-82.8
X127.75Y-86.0
X127.75Y-90.15
X127.75Y-94.25
X127.75Y-102.0
X127.75Y-105.2
X127.75Y-109.35
X127.75Y-113.45
X127.75Y-121.2
X127.75Y-124.4
X129.2Y-36.1
X129.2Y-55.3
X129.2Y-74.5
X129.2Y-93.7
X129.2Y-112.9
X129.25Y-33.25
X129.25Y-52.45
X129.25Y-71.65
X129.25Y-90.85
X129.25Y-110.05
X129.75Y-47.65
X129.75Y-66.85
X129.75Y-86.05
X129.75Y-105.25
X129.75Y-124.45
X129.8Y-34.55
X129.8Y-44.45
X129.8Y-53.75
X129.8Y-63.65
X129.8Y-72.95
X129.8Y-82.85
X129.8Y-92.15
X129.8Y-102.05
X129.8Y-111.35
X129.8Y-121.25
X130.9Y-43.65
X130.9Y-62.85
X130.9Y-82.05
X130.9Y-101.25
X130.9Y-120.45
X131.45Y-42.2
X131.45Y-61.4
X131.45Y-80.6
X131.45Y-99.8
X131.45Y-119.0
X131.55Y-45.15
X131.55Y-64.35
X131.55Y-83.55
X131.55Y-102.75
X131.55Y-121.95
X132.95Y-41.55
X132.95Y-45.65
X132.95Y-60.75
X132.95Y-64.85
X132.95Y-79.95
X132.95Y-84.05
X132.95Y-99.15
X132.95Y-103.25
X132.95Y-118.35
X132.95Y-122.45
X134.4Y-45.1
X134.4Y-64.3
X134.4Y-83.5
X134.4Y-102.7
X134.4Y-121.9
X134.45Y-42.25
X134.45Y-61.45
X134.45Y-80.65
X134.45Y-99.85
X134.45Y-119.05
X135.0Y-43.55
X135.0Y-62.75
X135.0Y-81.95
X135.0Y-101.15
X135.0Y-120.35
X139.7Y-43.65
X139.7Y-62.85
X139.7Y-82.05
X139.7Y-101.25
X139.7Y-120.45
X140.25Y-42.2
X140.25Y-61.4
X140.25Y-80.6
X140.25Y-99.8
X140.25Y-119.0
X140.35Y-45.15
X140.35Y-64.35
X140.35Y-83.55
X140.35Y-102.75
X140.35Y-121.95
X141.75Y-41.55
X141.75Y-45.65
X141.75Y-60.75
X141.75Y-64.85
X141.75Y-79.95
X141.75Y-84.05
X141.75Y-99.15
X141.75Y-103.25
X141.75Y-118.35
X141.75Y-122.45
X143.2Y-45.1
X143.2Y-64.3
X143.2Y-83.5
X143.2Y-102.7
X143.2Y-121.9
X143.25Y-42.25
X143.25Y-61.45
X143.25Y-80.65
X143.25Y-99.85
X143.25Y-119.05
X143.8Y-43.55
X143.8Y-62.75
X143.8Y-81.95
X143.8Y-101.15
X143.8Y-120.35
X144.9Y-34.65
X144.9Y-53.85
X144.9Y-73.05
X144.9Y-92.25
X144.9Y-111.45
X144.95Y-44.4
X144.95Y-47.5
X144.95Y-63.6
X144.95Y-66.7
X144.95Y-82.8
X144.95Y-85.9
X144.95Y-102.0
X144.95Y-105.1
X144.95Y-121.2
X144.95Y-124.3
X145.45Y-33.2
X145.45Y-52.4
X145.45Y-71.6
X145.45Y-90.8
X145.45Y-110.0
X145.55Y-36.15
X145.55Y-55.35
X145.55Y-74.55
X145.55Y-93.75
X145.55Y-112.95
X146.95Y-32.55
X146.95Y-36.65
X146.95Y-44.4
X146.95Y-47.6
X146.95Y-51.75
X146.95Y-55.85
X146.95Y-63.6
X146.95Y-66.8
X146.95Y-70.95
X146.95Y-75.05
X146.95Y-82.8
X146.95Y-86.0
X146.95Y-90.15
X146.95Y-94.25
X146.95Y-102.0
X146.95Y-105.2
X146.95Y-109.35
X146.95Y-113.45
X146.95Y-121.2
X146.95Y-124.4
X148.4Y-36.1
X148.4Y-55.3
X148.4Y-74.5
X148.4Y-93.7
X148.4Y-112.9
X148.45Y-33.25
X148.45Y-52.45
X148.45Y-71.65
X148.45Y-90.85
X148.45Y-110.05
X148.95Y-47.65
X148.95Y-66.85
X148.95Y-86.05
X148.95Y-105.25
X148.95Y-124.45
X149.0Y-34.55
X149.0Y-44.45
X149.0Y-53.75
X149.0Y-63.65
X149.0Y-72.95
X149.0Y-82.85
X149.0Y-92.15
X149.0Y-102.05
X149.0Y-111.35
X149.0Y-121.25
X150.1Y-43.65
X150.1Y-62.85
X150.1Y-82.05
X150.1Y-101.25
X150.1Y-120.45
X150.65Y-42.2
X150.65Y-61.4
X150.65Y-80.6
X150.65Y-99.8
X150.65Y-119.0
X150.75Y-45.15
X150.75Y-64.35
X150.75Y-83.55
X150.75Y-102.75
X150.75Y-121.95
X152.15Y-41.55
X152.15Y-45.65
X152.15Y-60.75
X152.15Y-64.85
X152.15Y-79.95
X152.15Y-84.05
X152.15Y-99.15
X152.15Y-103.25
X152.15Y-118.35
X152.15Y-122.45
X153.6Y-45.1
X153.6Y-64.3
X153.6Y-83.5
X153.6Y-102.7
X153.6Y-121.9
X153.65Y-42.25
X153.65Y-61.45
X153.65Y-80.65
X153.65Y-99.85
X153.65Y-119.05
X154.2Y-43.55
X154.2Y-62.75
X154.2Y-81.95
X154.2Y-101.15
X154.2Y-120.35
X158.9Y-43.65
X158.9Y-62.85
X158.9Y-82.05
X158.9Y-101.25
X158.9Y-120.45
X159.45Y-42.2
X159.45Y-61.4
X159.45Y-80.6
X159.45Y-99.8
X159.45Y-119.0
X159.55Y-45.15
X159.55Y-64.35
X159.55Y-83.55
X159.55Y-102.75
X159.55Y-121.95
X160.95Y-41.55
X160.95Y-45.65
X160.95Y-60.75
X160.95Y-64.85
X160.95Y-79.95
X160.95Y-84.05
X160.95Y-99.15
X160.95Y-103.25
X160.95Y-118.35
X160.95Y-122.45
X162.4Y-45.1
X162.4Y-64.3
X162.4Y-83.5
X162.4Y-102.7
X162.4Y-121.9
X162.45Y-42.25
X162.45Y-61.45
X162.45Y-80.65
X162.45Y-99.85
X162.45Y-119.05
X163.0Y-43.55
X163.0Y-62.75
X163.0Y-81.95
X163.0Y-101.15
X163.0Y-120.35
X164.1Y-34.65
X164.1Y-53.85
X164.1Y-73.05
X164.1Y-92.25
X164.1Y-111.45
X164.15Y-44.4
X164.15Y-47.5
X164.15Y-63.6
X164.15Y-66.7
X164.15Y-82.8
X164.15Y-85.9
X164.15Y-102.0
X164.15Y-105.1
X164.15Y-121.2
X164.15Y-124.3
X164.65Y-33.2
X164.65Y-52.4
X164.65Y-71.6
X164.65Y-90.8
X164.65Y-110.0
X164.75Y-36.15
X164.75Y-55.35
X164.75Y-74.55
X164.75Y-93.75
X164.75Y-112.95
X166.15Y-32.55
X166.15Y-36.65
X166.15Y-44.4
X166.15Y-47.6
X166.15Y-51.75
X166.15Y-55.85
X166.15Y-63.6
X166.15Y-66.8
X166.15Y-70.95
X166.15Y-75.05
X166.15Y-82.8
X166.15Y-86.0
X166.15Y-90.15
X166.15Y-94.25
X166.15Y-102.0
X166.15Y-105.2
X166.15Y-109.35
X166.15Y-113.45
X166.15Y-121.2
X166.15Y-124.4
X167.6Y-36.1
X167.6Y-55.3
X167.6Y-74.5
X167.6Y-93.7
X167.6Y-112.9
X167.65Y-33.25
X167.65Y-52.45
X167.65Y-71.65
X167.65Y-90.85
X167.65Y-110.05
X168.15Y-47.65
X168.15Y-66.85
X168.15Y-86.05
X168.15Y-105.25
X168.15Y-124.45
X168.2Y-34.55
X168.2Y-44.45
X168.2Y-53.75
X168.2Y-63.65
X168.2Y-72.95
X168.2Y-82.85
X168.2Y-92.15
X168.2Y-102.05
X168.2Y-111.35
X168.2Y-121.25
X169.3Y-43.65
X169.3Y-62.85
X169.3Y-82.05
X169.3Y-101.25
X169.3Y-120.45
X169.85Y-42.2
X169.85Y-61.4
X169.85Y-80.6
X169.85Y-99.8
X169.85Y-119.0
X169.95Y-45.15
X169.95Y-64.35
X169.95Y-83.55
X169.95Y-102.75
X169.95Y-121.95
X171.35Y-41.55
X171.35Y-45.65
X171.35Y-60.75
X171.35Y-64.85
X171.35Y-79.95
X171.35Y-84.05
X171.35Y-99.15
X171.35Y-103.25
X171.35Y-118.35
X171.35Y-122.45
X172.8Y-45.1
X172.8Y-64.3
X172.8Y-83.5
X172.8Y-102.7
X172.8Y-121.9
X172.85Y-42.25
X172.85Y-61.45
X172.85Y-80.65
X172.85Y-99.85
X172.85Y-119.05
X173.4Y-43.55
X173.4Y-62.75
X173.4Y-81.95
X173.4Y-101.15
X173.4Y-120.35
T0
M30
