G04 #@! TF.GenerationSoftware,KiCad,Pcbnew,7.0.9*
G04 #@! TF.CreationDate,2024-01-01T14:03:07+01:00*
G04 #@! TF.ProjectId,Nutzen,4e75747a-656e-42e6-9b69-6361645f7063,rev?*
G04 #@! TF.SameCoordinates,Original*
G04 #@! TF.FileFunction,Legend,Bot*
G04 #@! TF.FilePolarity,Positive*
%FSLAX46Y46*%
G04 Gerber Fmt 4.6, Leading zero omitted, Abs format (unit mm)*
G04 Created by KiCad (PCBNEW 7.0.9) date 2024-01-01 14:03:07*
%MOMM*%
%LPD*%
G01*
G04 APERTURE LIST*
G04 Aperture macros list*
%AMRoundRect*
0 Rectangle with rounded corners*
0 $1 Rounding radius*
0 $2 $3 $4 $5 $6 $7 $8 $9 X,Y pos of 4 corners*
0 Add a 4 corners polygon primitive as box body*
4,1,4,$2,$3,$4,$5,$6,$7,$8,$9,$2,$3,0*
0 Add four circle primitives for the rounded corners*
1,1,$1+$1,$2,$3*
1,1,$1+$1,$4,$5*
1,1,$1+$1,$6,$7*
1,1,$1+$1,$8,$9*
0 Add four rect primitives between the rounded corners*
20,1,$1+$1,$2,$3,$4,$5,0*
20,1,$1+$1,$4,$5,$6,$7,0*
20,1,$1+$1,$6,$7,$8,$9,0*
20,1,$1+$1,$8,$9,$2,$3,0*%
G04 Aperture macros list end*
%ADD10C,0.150000*%
%ADD11RoundRect,0.250000X0.250000X-0.750000X0.250000X0.750000X-0.250000X0.750000X-0.250000X-0.750000X0*%
G04 APERTURE END LIST*
D10*
X131684942Y-47830839D02*
X131732561Y-47783220D01*
X131732561Y-47783220D02*
X131780180Y-47687982D01*
X131780180Y-47687982D02*
X131780180Y-47449887D01*
X131780180Y-47449887D02*
X131732561Y-47354649D01*
X131732561Y-47354649D02*
X131684942Y-47307030D01*
X131684942Y-47307030D02*
X131589704Y-47259411D01*
X131589704Y-47259411D02*
X131494466Y-47259411D01*
X131494466Y-47259411D02*
X131351609Y-47307030D01*
X131351609Y-47307030D02*
X130780180Y-47878458D01*
X130780180Y-47878458D02*
X130780180Y-47259411D01*
X131446847Y-46402268D02*
X130780180Y-46402268D01*
X131827800Y-46640363D02*
X131113514Y-46878458D01*
X131113514Y-46878458D02*
X131113514Y-46259411D01*
X131780180Y-46021315D02*
X130780180Y-45687982D01*
X130780180Y-45687982D02*
X131780180Y-45354649D01*
X147980180Y-86183220D02*
X148980180Y-86183220D01*
X148980180Y-86183220D02*
X148980180Y-85802268D01*
X148980180Y-85802268D02*
X148932561Y-85707030D01*
X148932561Y-85707030D02*
X148884942Y-85659411D01*
X148884942Y-85659411D02*
X148789704Y-85611792D01*
X148789704Y-85611792D02*
X148646847Y-85611792D01*
X148646847Y-85611792D02*
X148551609Y-85659411D01*
X148551609Y-85659411D02*
X148503990Y-85707030D01*
X148503990Y-85707030D02*
X148456371Y-85802268D01*
X148456371Y-85802268D02*
X148456371Y-86183220D01*
X148980180Y-85278458D02*
X147980180Y-85040363D01*
X147980180Y-85040363D02*
X148694466Y-84849887D01*
X148694466Y-84849887D02*
X147980180Y-84659411D01*
X147980180Y-84659411D02*
X148980180Y-84421316D01*
X147980180Y-84040363D02*
X148980180Y-84040363D01*
X148980180Y-84040363D02*
X148265895Y-83707030D01*
X148265895Y-83707030D02*
X148980180Y-83373697D01*
X148980180Y-83373697D02*
X147980180Y-83373697D01*
X128780180Y-86183220D02*
X129780180Y-86183220D01*
X129780180Y-86183220D02*
X129780180Y-85802268D01*
X129780180Y-85802268D02*
X129732561Y-85707030D01*
X129732561Y-85707030D02*
X129684942Y-85659411D01*
X129684942Y-85659411D02*
X129589704Y-85611792D01*
X129589704Y-85611792D02*
X129446847Y-85611792D01*
X129446847Y-85611792D02*
X129351609Y-85659411D01*
X129351609Y-85659411D02*
X129303990Y-85707030D01*
X129303990Y-85707030D02*
X129256371Y-85802268D01*
X129256371Y-85802268D02*
X129256371Y-86183220D01*
X129780180Y-85278458D02*
X128780180Y-85040363D01*
X128780180Y-85040363D02*
X129494466Y-84849887D01*
X129494466Y-84849887D02*
X128780180Y-84659411D01*
X128780180Y-84659411D02*
X129780180Y-84421316D01*
X128780180Y-84040363D02*
X129780180Y-84040363D01*
X129780180Y-84040363D02*
X129065895Y-83707030D01*
X129065895Y-83707030D02*
X129780180Y-83373697D01*
X129780180Y-83373697D02*
X128780180Y-83373697D01*
X191332561Y-47259411D02*
X191380180Y-47354649D01*
X191380180Y-47354649D02*
X191380180Y-47497506D01*
X191380180Y-47497506D02*
X191332561Y-47640363D01*
X191332561Y-47640363D02*
X191237323Y-47735601D01*
X191237323Y-47735601D02*
X191142085Y-47783220D01*
X191142085Y-47783220D02*
X190951609Y-47830839D01*
X190951609Y-47830839D02*
X190808752Y-47830839D01*
X190808752Y-47830839D02*
X190618276Y-47783220D01*
X190618276Y-47783220D02*
X190523038Y-47735601D01*
X190523038Y-47735601D02*
X190427800Y-47640363D01*
X190427800Y-47640363D02*
X190380180Y-47497506D01*
X190380180Y-47497506D02*
X190380180Y-47402268D01*
X190380180Y-47402268D02*
X190427800Y-47259411D01*
X190427800Y-47259411D02*
X190475419Y-47211792D01*
X190475419Y-47211792D02*
X190808752Y-47211792D01*
X190808752Y-47211792D02*
X190808752Y-47402268D01*
X190380180Y-46783220D02*
X191380180Y-46783220D01*
X191380180Y-46783220D02*
X190380180Y-46211792D01*
X190380180Y-46211792D02*
X191380180Y-46211792D01*
X190380180Y-45735601D02*
X191380180Y-45735601D01*
X191380180Y-45735601D02*
X191380180Y-45497506D01*
X191380180Y-45497506D02*
X191332561Y-45354649D01*
X191332561Y-45354649D02*
X191237323Y-45259411D01*
X191237323Y-45259411D02*
X191142085Y-45211792D01*
X191142085Y-45211792D02*
X190951609Y-45164173D01*
X190951609Y-45164173D02*
X190808752Y-45164173D01*
X190808752Y-45164173D02*
X190618276Y-45211792D01*
X190618276Y-45211792D02*
X190523038Y-45259411D01*
X190523038Y-45259411D02*
X190427800Y-45354649D01*
X190427800Y-45354649D02*
X190380180Y-45497506D01*
X190380180Y-45497506D02*
X190380180Y-45735601D01*
X186380180Y-124583220D02*
X187380180Y-124583220D01*
X187380180Y-124583220D02*
X187380180Y-124202268D01*
X187380180Y-124202268D02*
X187332561Y-124107030D01*
X187332561Y-124107030D02*
X187284942Y-124059411D01*
X187284942Y-124059411D02*
X187189704Y-124011792D01*
X187189704Y-124011792D02*
X187046847Y-124011792D01*
X187046847Y-124011792D02*
X186951609Y-124059411D01*
X186951609Y-124059411D02*
X186903990Y-124107030D01*
X186903990Y-124107030D02*
X186856371Y-124202268D01*
X186856371Y-124202268D02*
X186856371Y-124583220D01*
X187380180Y-123678458D02*
X186380180Y-123440363D01*
X186380180Y-123440363D02*
X187094466Y-123249887D01*
X187094466Y-123249887D02*
X186380180Y-123059411D01*
X186380180Y-123059411D02*
X187380180Y-122821316D01*
X186380180Y-122440363D02*
X187380180Y-122440363D01*
X187380180Y-122440363D02*
X186665895Y-122107030D01*
X186665895Y-122107030D02*
X187380180Y-121773697D01*
X187380180Y-121773697D02*
X186380180Y-121773697D01*
X128780180Y-105383220D02*
X129780180Y-105383220D01*
X129780180Y-105383220D02*
X129780180Y-105002268D01*
X129780180Y-105002268D02*
X129732561Y-104907030D01*
X129732561Y-104907030D02*
X129684942Y-104859411D01*
X129684942Y-104859411D02*
X129589704Y-104811792D01*
X129589704Y-104811792D02*
X129446847Y-104811792D01*
X129446847Y-104811792D02*
X129351609Y-104859411D01*
X129351609Y-104859411D02*
X129303990Y-104907030D01*
X129303990Y-104907030D02*
X129256371Y-105002268D01*
X129256371Y-105002268D02*
X129256371Y-105383220D01*
X129780180Y-104478458D02*
X128780180Y-104240363D01*
X128780180Y-104240363D02*
X129494466Y-104049887D01*
X129494466Y-104049887D02*
X128780180Y-103859411D01*
X128780180Y-103859411D02*
X129780180Y-103621316D01*
X128780180Y-103240363D02*
X129780180Y-103240363D01*
X129780180Y-103240363D02*
X129065895Y-102907030D01*
X129065895Y-102907030D02*
X129780180Y-102573697D01*
X129780180Y-102573697D02*
X128780180Y-102573697D01*
X128780180Y-47783220D02*
X129780180Y-47783220D01*
X129780180Y-47783220D02*
X129780180Y-47402268D01*
X129780180Y-47402268D02*
X129732561Y-47307030D01*
X129732561Y-47307030D02*
X129684942Y-47259411D01*
X129684942Y-47259411D02*
X129589704Y-47211792D01*
X129589704Y-47211792D02*
X129446847Y-47211792D01*
X129446847Y-47211792D02*
X129351609Y-47259411D01*
X129351609Y-47259411D02*
X129303990Y-47307030D01*
X129303990Y-47307030D02*
X129256371Y-47402268D01*
X129256371Y-47402268D02*
X129256371Y-47783220D01*
X129780180Y-46878458D02*
X128780180Y-46640363D01*
X128780180Y-46640363D02*
X129494466Y-46449887D01*
X129494466Y-46449887D02*
X128780180Y-46259411D01*
X128780180Y-46259411D02*
X129780180Y-46021316D01*
X128780180Y-45640363D02*
X129780180Y-45640363D01*
X129780180Y-45640363D02*
X129065895Y-45307030D01*
X129065895Y-45307030D02*
X129780180Y-44973697D01*
X129780180Y-44973697D02*
X128780180Y-44973697D01*
X114532561Y-66459411D02*
X114580180Y-66554649D01*
X114580180Y-66554649D02*
X114580180Y-66697506D01*
X114580180Y-66697506D02*
X114532561Y-66840363D01*
X114532561Y-66840363D02*
X114437323Y-66935601D01*
X114437323Y-66935601D02*
X114342085Y-66983220D01*
X114342085Y-66983220D02*
X114151609Y-67030839D01*
X114151609Y-67030839D02*
X114008752Y-67030839D01*
X114008752Y-67030839D02*
X113818276Y-66983220D01*
X113818276Y-66983220D02*
X113723038Y-66935601D01*
X113723038Y-66935601D02*
X113627800Y-66840363D01*
X113627800Y-66840363D02*
X113580180Y-66697506D01*
X113580180Y-66697506D02*
X113580180Y-66602268D01*
X113580180Y-66602268D02*
X113627800Y-66459411D01*
X113627800Y-66459411D02*
X113675419Y-66411792D01*
X113675419Y-66411792D02*
X114008752Y-66411792D01*
X114008752Y-66411792D02*
X114008752Y-66602268D01*
X113580180Y-65983220D02*
X114580180Y-65983220D01*
X114580180Y-65983220D02*
X113580180Y-65411792D01*
X113580180Y-65411792D02*
X114580180Y-65411792D01*
X113580180Y-64935601D02*
X114580180Y-64935601D01*
X114580180Y-64935601D02*
X114580180Y-64697506D01*
X114580180Y-64697506D02*
X114532561Y-64554649D01*
X114532561Y-64554649D02*
X114437323Y-64459411D01*
X114437323Y-64459411D02*
X114342085Y-64411792D01*
X114342085Y-64411792D02*
X114151609Y-64364173D01*
X114151609Y-64364173D02*
X114008752Y-64364173D01*
X114008752Y-64364173D02*
X113818276Y-64411792D01*
X113818276Y-64411792D02*
X113723038Y-64459411D01*
X113723038Y-64459411D02*
X113627800Y-64554649D01*
X113627800Y-64554649D02*
X113580180Y-64697506D01*
X113580180Y-64697506D02*
X113580180Y-64935601D01*
X109580180Y-66983220D02*
X110580180Y-66983220D01*
X110580180Y-66983220D02*
X110580180Y-66602268D01*
X110580180Y-66602268D02*
X110532561Y-66507030D01*
X110532561Y-66507030D02*
X110484942Y-66459411D01*
X110484942Y-66459411D02*
X110389704Y-66411792D01*
X110389704Y-66411792D02*
X110246847Y-66411792D01*
X110246847Y-66411792D02*
X110151609Y-66459411D01*
X110151609Y-66459411D02*
X110103990Y-66507030D01*
X110103990Y-66507030D02*
X110056371Y-66602268D01*
X110056371Y-66602268D02*
X110056371Y-66983220D01*
X110580180Y-66078458D02*
X109580180Y-65840363D01*
X109580180Y-65840363D02*
X110294466Y-65649887D01*
X110294466Y-65649887D02*
X109580180Y-65459411D01*
X109580180Y-65459411D02*
X110580180Y-65221316D01*
X109580180Y-64840363D02*
X110580180Y-64840363D01*
X110580180Y-64840363D02*
X109865895Y-64507030D01*
X109865895Y-64507030D02*
X110580180Y-64173697D01*
X110580180Y-64173697D02*
X109580180Y-64173697D01*
X109580180Y-47783220D02*
X110580180Y-47783220D01*
X110580180Y-47783220D02*
X110580180Y-47402268D01*
X110580180Y-47402268D02*
X110532561Y-47307030D01*
X110532561Y-47307030D02*
X110484942Y-47259411D01*
X110484942Y-47259411D02*
X110389704Y-47211792D01*
X110389704Y-47211792D02*
X110246847Y-47211792D01*
X110246847Y-47211792D02*
X110151609Y-47259411D01*
X110151609Y-47259411D02*
X110103990Y-47307030D01*
X110103990Y-47307030D02*
X110056371Y-47402268D01*
X110056371Y-47402268D02*
X110056371Y-47783220D01*
X110580180Y-46878458D02*
X109580180Y-46640363D01*
X109580180Y-46640363D02*
X110294466Y-46449887D01*
X110294466Y-46449887D02*
X109580180Y-46259411D01*
X109580180Y-46259411D02*
X110580180Y-46021316D01*
X109580180Y-45640363D02*
X110580180Y-45640363D01*
X110580180Y-45640363D02*
X109865895Y-45307030D01*
X109865895Y-45307030D02*
X110580180Y-44973697D01*
X110580180Y-44973697D02*
X109580180Y-44973697D01*
X170084942Y-124630839D02*
X170132561Y-124583220D01*
X170132561Y-124583220D02*
X170180180Y-124487982D01*
X170180180Y-124487982D02*
X170180180Y-124249887D01*
X170180180Y-124249887D02*
X170132561Y-124154649D01*
X170132561Y-124154649D02*
X170084942Y-124107030D01*
X170084942Y-124107030D02*
X169989704Y-124059411D01*
X169989704Y-124059411D02*
X169894466Y-124059411D01*
X169894466Y-124059411D02*
X169751609Y-124107030D01*
X169751609Y-124107030D02*
X169180180Y-124678458D01*
X169180180Y-124678458D02*
X169180180Y-124059411D01*
X169846847Y-123202268D02*
X169180180Y-123202268D01*
X170227800Y-123440363D02*
X169513514Y-123678458D01*
X169513514Y-123678458D02*
X169513514Y-123059411D01*
X170180180Y-122821315D02*
X169180180Y-122487982D01*
X169180180Y-122487982D02*
X170180180Y-122154649D01*
X114532561Y-104859411D02*
X114580180Y-104954649D01*
X114580180Y-104954649D02*
X114580180Y-105097506D01*
X114580180Y-105097506D02*
X114532561Y-105240363D01*
X114532561Y-105240363D02*
X114437323Y-105335601D01*
X114437323Y-105335601D02*
X114342085Y-105383220D01*
X114342085Y-105383220D02*
X114151609Y-105430839D01*
X114151609Y-105430839D02*
X114008752Y-105430839D01*
X114008752Y-105430839D02*
X113818276Y-105383220D01*
X113818276Y-105383220D02*
X113723038Y-105335601D01*
X113723038Y-105335601D02*
X113627800Y-105240363D01*
X113627800Y-105240363D02*
X113580180Y-105097506D01*
X113580180Y-105097506D02*
X113580180Y-105002268D01*
X113580180Y-105002268D02*
X113627800Y-104859411D01*
X113627800Y-104859411D02*
X113675419Y-104811792D01*
X113675419Y-104811792D02*
X114008752Y-104811792D01*
X114008752Y-104811792D02*
X114008752Y-105002268D01*
X113580180Y-104383220D02*
X114580180Y-104383220D01*
X114580180Y-104383220D02*
X113580180Y-103811792D01*
X113580180Y-103811792D02*
X114580180Y-103811792D01*
X113580180Y-103335601D02*
X114580180Y-103335601D01*
X114580180Y-103335601D02*
X114580180Y-103097506D01*
X114580180Y-103097506D02*
X114532561Y-102954649D01*
X114532561Y-102954649D02*
X114437323Y-102859411D01*
X114437323Y-102859411D02*
X114342085Y-102811792D01*
X114342085Y-102811792D02*
X114151609Y-102764173D01*
X114151609Y-102764173D02*
X114008752Y-102764173D01*
X114008752Y-102764173D02*
X113818276Y-102811792D01*
X113818276Y-102811792D02*
X113723038Y-102859411D01*
X113723038Y-102859411D02*
X113627800Y-102954649D01*
X113627800Y-102954649D02*
X113580180Y-103097506D01*
X113580180Y-103097506D02*
X113580180Y-103335601D01*
X133732561Y-124059411D02*
X133780180Y-124154649D01*
X133780180Y-124154649D02*
X133780180Y-124297506D01*
X133780180Y-124297506D02*
X133732561Y-124440363D01*
X133732561Y-124440363D02*
X133637323Y-124535601D01*
X133637323Y-124535601D02*
X133542085Y-124583220D01*
X133542085Y-124583220D02*
X133351609Y-124630839D01*
X133351609Y-124630839D02*
X133208752Y-124630839D01*
X133208752Y-124630839D02*
X133018276Y-124583220D01*
X133018276Y-124583220D02*
X132923038Y-124535601D01*
X132923038Y-124535601D02*
X132827800Y-124440363D01*
X132827800Y-124440363D02*
X132780180Y-124297506D01*
X132780180Y-124297506D02*
X132780180Y-124202268D01*
X132780180Y-124202268D02*
X132827800Y-124059411D01*
X132827800Y-124059411D02*
X132875419Y-124011792D01*
X132875419Y-124011792D02*
X133208752Y-124011792D01*
X133208752Y-124011792D02*
X133208752Y-124202268D01*
X132780180Y-123583220D02*
X133780180Y-123583220D01*
X133780180Y-123583220D02*
X132780180Y-123011792D01*
X132780180Y-123011792D02*
X133780180Y-123011792D01*
X132780180Y-122535601D02*
X133780180Y-122535601D01*
X133780180Y-122535601D02*
X133780180Y-122297506D01*
X133780180Y-122297506D02*
X133732561Y-122154649D01*
X133732561Y-122154649D02*
X133637323Y-122059411D01*
X133637323Y-122059411D02*
X133542085Y-122011792D01*
X133542085Y-122011792D02*
X133351609Y-121964173D01*
X133351609Y-121964173D02*
X133208752Y-121964173D01*
X133208752Y-121964173D02*
X133018276Y-122011792D01*
X133018276Y-122011792D02*
X132923038Y-122059411D01*
X132923038Y-122059411D02*
X132827800Y-122154649D01*
X132827800Y-122154649D02*
X132780180Y-122297506D01*
X132780180Y-122297506D02*
X132780180Y-122535601D01*
X170084942Y-67030839D02*
X170132561Y-66983220D01*
X170132561Y-66983220D02*
X170180180Y-66887982D01*
X170180180Y-66887982D02*
X170180180Y-66649887D01*
X170180180Y-66649887D02*
X170132561Y-66554649D01*
X170132561Y-66554649D02*
X170084942Y-66507030D01*
X170084942Y-66507030D02*
X169989704Y-66459411D01*
X169989704Y-66459411D02*
X169894466Y-66459411D01*
X169894466Y-66459411D02*
X169751609Y-66507030D01*
X169751609Y-66507030D02*
X169180180Y-67078458D01*
X169180180Y-67078458D02*
X169180180Y-66459411D01*
X169846847Y-65602268D02*
X169180180Y-65602268D01*
X170227800Y-65840363D02*
X169513514Y-66078458D01*
X169513514Y-66078458D02*
X169513514Y-65459411D01*
X170180180Y-65221315D02*
X169180180Y-64887982D01*
X169180180Y-64887982D02*
X170180180Y-64554649D01*
X167180180Y-66983220D02*
X168180180Y-66983220D01*
X168180180Y-66983220D02*
X168180180Y-66602268D01*
X168180180Y-66602268D02*
X168132561Y-66507030D01*
X168132561Y-66507030D02*
X168084942Y-66459411D01*
X168084942Y-66459411D02*
X167989704Y-66411792D01*
X167989704Y-66411792D02*
X167846847Y-66411792D01*
X167846847Y-66411792D02*
X167751609Y-66459411D01*
X167751609Y-66459411D02*
X167703990Y-66507030D01*
X167703990Y-66507030D02*
X167656371Y-66602268D01*
X167656371Y-66602268D02*
X167656371Y-66983220D01*
X168180180Y-66078458D02*
X167180180Y-65840363D01*
X167180180Y-65840363D02*
X167894466Y-65649887D01*
X167894466Y-65649887D02*
X167180180Y-65459411D01*
X167180180Y-65459411D02*
X168180180Y-65221316D01*
X167180180Y-64840363D02*
X168180180Y-64840363D01*
X168180180Y-64840363D02*
X167465895Y-64507030D01*
X167465895Y-64507030D02*
X168180180Y-64173697D01*
X168180180Y-64173697D02*
X167180180Y-64173697D01*
X133732561Y-47259411D02*
X133780180Y-47354649D01*
X133780180Y-47354649D02*
X133780180Y-47497506D01*
X133780180Y-47497506D02*
X133732561Y-47640363D01*
X133732561Y-47640363D02*
X133637323Y-47735601D01*
X133637323Y-47735601D02*
X133542085Y-47783220D01*
X133542085Y-47783220D02*
X133351609Y-47830839D01*
X133351609Y-47830839D02*
X133208752Y-47830839D01*
X133208752Y-47830839D02*
X133018276Y-47783220D01*
X133018276Y-47783220D02*
X132923038Y-47735601D01*
X132923038Y-47735601D02*
X132827800Y-47640363D01*
X132827800Y-47640363D02*
X132780180Y-47497506D01*
X132780180Y-47497506D02*
X132780180Y-47402268D01*
X132780180Y-47402268D02*
X132827800Y-47259411D01*
X132827800Y-47259411D02*
X132875419Y-47211792D01*
X132875419Y-47211792D02*
X133208752Y-47211792D01*
X133208752Y-47211792D02*
X133208752Y-47402268D01*
X132780180Y-46783220D02*
X133780180Y-46783220D01*
X133780180Y-46783220D02*
X132780180Y-46211792D01*
X132780180Y-46211792D02*
X133780180Y-46211792D01*
X132780180Y-45735601D02*
X133780180Y-45735601D01*
X133780180Y-45735601D02*
X133780180Y-45497506D01*
X133780180Y-45497506D02*
X133732561Y-45354649D01*
X133732561Y-45354649D02*
X133637323Y-45259411D01*
X133637323Y-45259411D02*
X133542085Y-45211792D01*
X133542085Y-45211792D02*
X133351609Y-45164173D01*
X133351609Y-45164173D02*
X133208752Y-45164173D01*
X133208752Y-45164173D02*
X133018276Y-45211792D01*
X133018276Y-45211792D02*
X132923038Y-45259411D01*
X132923038Y-45259411D02*
X132827800Y-45354649D01*
X132827800Y-45354649D02*
X132780180Y-45497506D01*
X132780180Y-45497506D02*
X132780180Y-45735601D01*
X189284942Y-105430839D02*
X189332561Y-105383220D01*
X189332561Y-105383220D02*
X189380180Y-105287982D01*
X189380180Y-105287982D02*
X189380180Y-105049887D01*
X189380180Y-105049887D02*
X189332561Y-104954649D01*
X189332561Y-104954649D02*
X189284942Y-104907030D01*
X189284942Y-104907030D02*
X189189704Y-104859411D01*
X189189704Y-104859411D02*
X189094466Y-104859411D01*
X189094466Y-104859411D02*
X188951609Y-104907030D01*
X188951609Y-104907030D02*
X188380180Y-105478458D01*
X188380180Y-105478458D02*
X188380180Y-104859411D01*
X189046847Y-104002268D02*
X188380180Y-104002268D01*
X189427800Y-104240363D02*
X188713514Y-104478458D01*
X188713514Y-104478458D02*
X188713514Y-103859411D01*
X189380180Y-103621315D02*
X188380180Y-103287982D01*
X188380180Y-103287982D02*
X189380180Y-102954649D01*
X150884942Y-86230839D02*
X150932561Y-86183220D01*
X150932561Y-86183220D02*
X150980180Y-86087982D01*
X150980180Y-86087982D02*
X150980180Y-85849887D01*
X150980180Y-85849887D02*
X150932561Y-85754649D01*
X150932561Y-85754649D02*
X150884942Y-85707030D01*
X150884942Y-85707030D02*
X150789704Y-85659411D01*
X150789704Y-85659411D02*
X150694466Y-85659411D01*
X150694466Y-85659411D02*
X150551609Y-85707030D01*
X150551609Y-85707030D02*
X149980180Y-86278458D01*
X149980180Y-86278458D02*
X149980180Y-85659411D01*
X150646847Y-84802268D02*
X149980180Y-84802268D01*
X151027800Y-85040363D02*
X150313514Y-85278458D01*
X150313514Y-85278458D02*
X150313514Y-84659411D01*
X150980180Y-84421315D02*
X149980180Y-84087982D01*
X149980180Y-84087982D02*
X150980180Y-83754649D01*
X133732561Y-104859411D02*
X133780180Y-104954649D01*
X133780180Y-104954649D02*
X133780180Y-105097506D01*
X133780180Y-105097506D02*
X133732561Y-105240363D01*
X133732561Y-105240363D02*
X133637323Y-105335601D01*
X133637323Y-105335601D02*
X133542085Y-105383220D01*
X133542085Y-105383220D02*
X133351609Y-105430839D01*
X133351609Y-105430839D02*
X133208752Y-105430839D01*
X133208752Y-105430839D02*
X133018276Y-105383220D01*
X133018276Y-105383220D02*
X132923038Y-105335601D01*
X132923038Y-105335601D02*
X132827800Y-105240363D01*
X132827800Y-105240363D02*
X132780180Y-105097506D01*
X132780180Y-105097506D02*
X132780180Y-105002268D01*
X132780180Y-105002268D02*
X132827800Y-104859411D01*
X132827800Y-104859411D02*
X132875419Y-104811792D01*
X132875419Y-104811792D02*
X133208752Y-104811792D01*
X133208752Y-104811792D02*
X133208752Y-105002268D01*
X132780180Y-104383220D02*
X133780180Y-104383220D01*
X133780180Y-104383220D02*
X132780180Y-103811792D01*
X132780180Y-103811792D02*
X133780180Y-103811792D01*
X132780180Y-103335601D02*
X133780180Y-103335601D01*
X133780180Y-103335601D02*
X133780180Y-103097506D01*
X133780180Y-103097506D02*
X133732561Y-102954649D01*
X133732561Y-102954649D02*
X133637323Y-102859411D01*
X133637323Y-102859411D02*
X133542085Y-102811792D01*
X133542085Y-102811792D02*
X133351609Y-102764173D01*
X133351609Y-102764173D02*
X133208752Y-102764173D01*
X133208752Y-102764173D02*
X133018276Y-102811792D01*
X133018276Y-102811792D02*
X132923038Y-102859411D01*
X132923038Y-102859411D02*
X132827800Y-102954649D01*
X132827800Y-102954649D02*
X132780180Y-103097506D01*
X132780180Y-103097506D02*
X132780180Y-103335601D01*
X191332561Y-85659411D02*
X191380180Y-85754649D01*
X191380180Y-85754649D02*
X191380180Y-85897506D01*
X191380180Y-85897506D02*
X191332561Y-86040363D01*
X191332561Y-86040363D02*
X191237323Y-86135601D01*
X191237323Y-86135601D02*
X191142085Y-86183220D01*
X191142085Y-86183220D02*
X190951609Y-86230839D01*
X190951609Y-86230839D02*
X190808752Y-86230839D01*
X190808752Y-86230839D02*
X190618276Y-86183220D01*
X190618276Y-86183220D02*
X190523038Y-86135601D01*
X190523038Y-86135601D02*
X190427800Y-86040363D01*
X190427800Y-86040363D02*
X190380180Y-85897506D01*
X190380180Y-85897506D02*
X190380180Y-85802268D01*
X190380180Y-85802268D02*
X190427800Y-85659411D01*
X190427800Y-85659411D02*
X190475419Y-85611792D01*
X190475419Y-85611792D02*
X190808752Y-85611792D01*
X190808752Y-85611792D02*
X190808752Y-85802268D01*
X190380180Y-85183220D02*
X191380180Y-85183220D01*
X191380180Y-85183220D02*
X190380180Y-84611792D01*
X190380180Y-84611792D02*
X191380180Y-84611792D01*
X190380180Y-84135601D02*
X191380180Y-84135601D01*
X191380180Y-84135601D02*
X191380180Y-83897506D01*
X191380180Y-83897506D02*
X191332561Y-83754649D01*
X191332561Y-83754649D02*
X191237323Y-83659411D01*
X191237323Y-83659411D02*
X191142085Y-83611792D01*
X191142085Y-83611792D02*
X190951609Y-83564173D01*
X190951609Y-83564173D02*
X190808752Y-83564173D01*
X190808752Y-83564173D02*
X190618276Y-83611792D01*
X190618276Y-83611792D02*
X190523038Y-83659411D01*
X190523038Y-83659411D02*
X190427800Y-83754649D01*
X190427800Y-83754649D02*
X190380180Y-83897506D01*
X190380180Y-83897506D02*
X190380180Y-84135601D01*
X167180180Y-47783220D02*
X168180180Y-47783220D01*
X168180180Y-47783220D02*
X168180180Y-47402268D01*
X168180180Y-47402268D02*
X168132561Y-47307030D01*
X168132561Y-47307030D02*
X168084942Y-47259411D01*
X168084942Y-47259411D02*
X167989704Y-47211792D01*
X167989704Y-47211792D02*
X167846847Y-47211792D01*
X167846847Y-47211792D02*
X167751609Y-47259411D01*
X167751609Y-47259411D02*
X167703990Y-47307030D01*
X167703990Y-47307030D02*
X167656371Y-47402268D01*
X167656371Y-47402268D02*
X167656371Y-47783220D01*
X168180180Y-46878458D02*
X167180180Y-46640363D01*
X167180180Y-46640363D02*
X167894466Y-46449887D01*
X167894466Y-46449887D02*
X167180180Y-46259411D01*
X167180180Y-46259411D02*
X168180180Y-46021316D01*
X167180180Y-45640363D02*
X168180180Y-45640363D01*
X168180180Y-45640363D02*
X167465895Y-45307030D01*
X167465895Y-45307030D02*
X168180180Y-44973697D01*
X168180180Y-44973697D02*
X167180180Y-44973697D01*
X147980180Y-124583220D02*
X148980180Y-124583220D01*
X148980180Y-124583220D02*
X148980180Y-124202268D01*
X148980180Y-124202268D02*
X148932561Y-124107030D01*
X148932561Y-124107030D02*
X148884942Y-124059411D01*
X148884942Y-124059411D02*
X148789704Y-124011792D01*
X148789704Y-124011792D02*
X148646847Y-124011792D01*
X148646847Y-124011792D02*
X148551609Y-124059411D01*
X148551609Y-124059411D02*
X148503990Y-124107030D01*
X148503990Y-124107030D02*
X148456371Y-124202268D01*
X148456371Y-124202268D02*
X148456371Y-124583220D01*
X148980180Y-123678458D02*
X147980180Y-123440363D01*
X147980180Y-123440363D02*
X148694466Y-123249887D01*
X148694466Y-123249887D02*
X147980180Y-123059411D01*
X147980180Y-123059411D02*
X148980180Y-122821316D01*
X147980180Y-122440363D02*
X148980180Y-122440363D01*
X148980180Y-122440363D02*
X148265895Y-122107030D01*
X148265895Y-122107030D02*
X148980180Y-121773697D01*
X148980180Y-121773697D02*
X147980180Y-121773697D01*
X189284942Y-86230839D02*
X189332561Y-86183220D01*
X189332561Y-86183220D02*
X189380180Y-86087982D01*
X189380180Y-86087982D02*
X189380180Y-85849887D01*
X189380180Y-85849887D02*
X189332561Y-85754649D01*
X189332561Y-85754649D02*
X189284942Y-85707030D01*
X189284942Y-85707030D02*
X189189704Y-85659411D01*
X189189704Y-85659411D02*
X189094466Y-85659411D01*
X189094466Y-85659411D02*
X188951609Y-85707030D01*
X188951609Y-85707030D02*
X188380180Y-86278458D01*
X188380180Y-86278458D02*
X188380180Y-85659411D01*
X189046847Y-84802268D02*
X188380180Y-84802268D01*
X189427800Y-85040363D02*
X188713514Y-85278458D01*
X188713514Y-85278458D02*
X188713514Y-84659411D01*
X189380180Y-84421315D02*
X188380180Y-84087982D01*
X188380180Y-84087982D02*
X189380180Y-83754649D01*
X112484942Y-105430839D02*
X112532561Y-105383220D01*
X112532561Y-105383220D02*
X112580180Y-105287982D01*
X112580180Y-105287982D02*
X112580180Y-105049887D01*
X112580180Y-105049887D02*
X112532561Y-104954649D01*
X112532561Y-104954649D02*
X112484942Y-104907030D01*
X112484942Y-104907030D02*
X112389704Y-104859411D01*
X112389704Y-104859411D02*
X112294466Y-104859411D01*
X112294466Y-104859411D02*
X112151609Y-104907030D01*
X112151609Y-104907030D02*
X111580180Y-105478458D01*
X111580180Y-105478458D02*
X111580180Y-104859411D01*
X112246847Y-104002268D02*
X111580180Y-104002268D01*
X112627800Y-104240363D02*
X111913514Y-104478458D01*
X111913514Y-104478458D02*
X111913514Y-103859411D01*
X112580180Y-103621315D02*
X111580180Y-103287982D01*
X111580180Y-103287982D02*
X112580180Y-102954649D01*
X109580180Y-86183220D02*
X110580180Y-86183220D01*
X110580180Y-86183220D02*
X110580180Y-85802268D01*
X110580180Y-85802268D02*
X110532561Y-85707030D01*
X110532561Y-85707030D02*
X110484942Y-85659411D01*
X110484942Y-85659411D02*
X110389704Y-85611792D01*
X110389704Y-85611792D02*
X110246847Y-85611792D01*
X110246847Y-85611792D02*
X110151609Y-85659411D01*
X110151609Y-85659411D02*
X110103990Y-85707030D01*
X110103990Y-85707030D02*
X110056371Y-85802268D01*
X110056371Y-85802268D02*
X110056371Y-86183220D01*
X110580180Y-85278458D02*
X109580180Y-85040363D01*
X109580180Y-85040363D02*
X110294466Y-84849887D01*
X110294466Y-84849887D02*
X109580180Y-84659411D01*
X109580180Y-84659411D02*
X110580180Y-84421316D01*
X109580180Y-84040363D02*
X110580180Y-84040363D01*
X110580180Y-84040363D02*
X109865895Y-83707030D01*
X109865895Y-83707030D02*
X110580180Y-83373697D01*
X110580180Y-83373697D02*
X109580180Y-83373697D01*
X170084942Y-86230839D02*
X170132561Y-86183220D01*
X170132561Y-86183220D02*
X170180180Y-86087982D01*
X170180180Y-86087982D02*
X170180180Y-85849887D01*
X170180180Y-85849887D02*
X170132561Y-85754649D01*
X170132561Y-85754649D02*
X170084942Y-85707030D01*
X170084942Y-85707030D02*
X169989704Y-85659411D01*
X169989704Y-85659411D02*
X169894466Y-85659411D01*
X169894466Y-85659411D02*
X169751609Y-85707030D01*
X169751609Y-85707030D02*
X169180180Y-86278458D01*
X169180180Y-86278458D02*
X169180180Y-85659411D01*
X169846847Y-84802268D02*
X169180180Y-84802268D01*
X170227800Y-85040363D02*
X169513514Y-85278458D01*
X169513514Y-85278458D02*
X169513514Y-84659411D01*
X170180180Y-84421315D02*
X169180180Y-84087982D01*
X169180180Y-84087982D02*
X170180180Y-83754649D01*
X170084942Y-105430839D02*
X170132561Y-105383220D01*
X170132561Y-105383220D02*
X170180180Y-105287982D01*
X170180180Y-105287982D02*
X170180180Y-105049887D01*
X170180180Y-105049887D02*
X170132561Y-104954649D01*
X170132561Y-104954649D02*
X170084942Y-104907030D01*
X170084942Y-104907030D02*
X169989704Y-104859411D01*
X169989704Y-104859411D02*
X169894466Y-104859411D01*
X169894466Y-104859411D02*
X169751609Y-104907030D01*
X169751609Y-104907030D02*
X169180180Y-105478458D01*
X169180180Y-105478458D02*
X169180180Y-104859411D01*
X169846847Y-104002268D02*
X169180180Y-104002268D01*
X170227800Y-104240363D02*
X169513514Y-104478458D01*
X169513514Y-104478458D02*
X169513514Y-103859411D01*
X170180180Y-103621315D02*
X169180180Y-103287982D01*
X169180180Y-103287982D02*
X170180180Y-102954649D01*
X131684942Y-124630839D02*
X131732561Y-124583220D01*
X131732561Y-124583220D02*
X131780180Y-124487982D01*
X131780180Y-124487982D02*
X131780180Y-124249887D01*
X131780180Y-124249887D02*
X131732561Y-124154649D01*
X131732561Y-124154649D02*
X131684942Y-124107030D01*
X131684942Y-124107030D02*
X131589704Y-124059411D01*
X131589704Y-124059411D02*
X131494466Y-124059411D01*
X131494466Y-124059411D02*
X131351609Y-124107030D01*
X131351609Y-124107030D02*
X130780180Y-124678458D01*
X130780180Y-124678458D02*
X130780180Y-124059411D01*
X131446847Y-123202268D02*
X130780180Y-123202268D01*
X131827800Y-123440363D02*
X131113514Y-123678458D01*
X131113514Y-123678458D02*
X131113514Y-123059411D01*
X131780180Y-122821315D02*
X130780180Y-122487982D01*
X130780180Y-122487982D02*
X131780180Y-122154649D01*
X167180180Y-124583220D02*
X168180180Y-124583220D01*
X168180180Y-124583220D02*
X168180180Y-124202268D01*
X168180180Y-124202268D02*
X168132561Y-124107030D01*
X168132561Y-124107030D02*
X168084942Y-124059411D01*
X168084942Y-124059411D02*
X167989704Y-124011792D01*
X167989704Y-124011792D02*
X167846847Y-124011792D01*
X167846847Y-124011792D02*
X167751609Y-124059411D01*
X167751609Y-124059411D02*
X167703990Y-124107030D01*
X167703990Y-124107030D02*
X167656371Y-124202268D01*
X167656371Y-124202268D02*
X167656371Y-124583220D01*
X168180180Y-123678458D02*
X167180180Y-123440363D01*
X167180180Y-123440363D02*
X167894466Y-123249887D01*
X167894466Y-123249887D02*
X167180180Y-123059411D01*
X167180180Y-123059411D02*
X168180180Y-122821316D01*
X167180180Y-122440363D02*
X168180180Y-122440363D01*
X168180180Y-122440363D02*
X167465895Y-122107030D01*
X167465895Y-122107030D02*
X168180180Y-121773697D01*
X168180180Y-121773697D02*
X167180180Y-121773697D01*
X152932561Y-104859411D02*
X152980180Y-104954649D01*
X152980180Y-104954649D02*
X152980180Y-105097506D01*
X152980180Y-105097506D02*
X152932561Y-105240363D01*
X152932561Y-105240363D02*
X152837323Y-105335601D01*
X152837323Y-105335601D02*
X152742085Y-105383220D01*
X152742085Y-105383220D02*
X152551609Y-105430839D01*
X152551609Y-105430839D02*
X152408752Y-105430839D01*
X152408752Y-105430839D02*
X152218276Y-105383220D01*
X152218276Y-105383220D02*
X152123038Y-105335601D01*
X152123038Y-105335601D02*
X152027800Y-105240363D01*
X152027800Y-105240363D02*
X151980180Y-105097506D01*
X151980180Y-105097506D02*
X151980180Y-105002268D01*
X151980180Y-105002268D02*
X152027800Y-104859411D01*
X152027800Y-104859411D02*
X152075419Y-104811792D01*
X152075419Y-104811792D02*
X152408752Y-104811792D01*
X152408752Y-104811792D02*
X152408752Y-105002268D01*
X151980180Y-104383220D02*
X152980180Y-104383220D01*
X152980180Y-104383220D02*
X151980180Y-103811792D01*
X151980180Y-103811792D02*
X152980180Y-103811792D01*
X151980180Y-103335601D02*
X152980180Y-103335601D01*
X152980180Y-103335601D02*
X152980180Y-103097506D01*
X152980180Y-103097506D02*
X152932561Y-102954649D01*
X152932561Y-102954649D02*
X152837323Y-102859411D01*
X152837323Y-102859411D02*
X152742085Y-102811792D01*
X152742085Y-102811792D02*
X152551609Y-102764173D01*
X152551609Y-102764173D02*
X152408752Y-102764173D01*
X152408752Y-102764173D02*
X152218276Y-102811792D01*
X152218276Y-102811792D02*
X152123038Y-102859411D01*
X152123038Y-102859411D02*
X152027800Y-102954649D01*
X152027800Y-102954649D02*
X151980180Y-103097506D01*
X151980180Y-103097506D02*
X151980180Y-103335601D01*
X150884942Y-105430839D02*
X150932561Y-105383220D01*
X150932561Y-105383220D02*
X150980180Y-105287982D01*
X150980180Y-105287982D02*
X150980180Y-105049887D01*
X150980180Y-105049887D02*
X150932561Y-104954649D01*
X150932561Y-104954649D02*
X150884942Y-104907030D01*
X150884942Y-104907030D02*
X150789704Y-104859411D01*
X150789704Y-104859411D02*
X150694466Y-104859411D01*
X150694466Y-104859411D02*
X150551609Y-104907030D01*
X150551609Y-104907030D02*
X149980180Y-105478458D01*
X149980180Y-105478458D02*
X149980180Y-104859411D01*
X150646847Y-104002268D02*
X149980180Y-104002268D01*
X151027800Y-104240363D02*
X150313514Y-104478458D01*
X150313514Y-104478458D02*
X150313514Y-103859411D01*
X150980180Y-103621315D02*
X149980180Y-103287982D01*
X149980180Y-103287982D02*
X150980180Y-102954649D01*
X109580180Y-124583220D02*
X110580180Y-124583220D01*
X110580180Y-124583220D02*
X110580180Y-124202268D01*
X110580180Y-124202268D02*
X110532561Y-124107030D01*
X110532561Y-124107030D02*
X110484942Y-124059411D01*
X110484942Y-124059411D02*
X110389704Y-124011792D01*
X110389704Y-124011792D02*
X110246847Y-124011792D01*
X110246847Y-124011792D02*
X110151609Y-124059411D01*
X110151609Y-124059411D02*
X110103990Y-124107030D01*
X110103990Y-124107030D02*
X110056371Y-124202268D01*
X110056371Y-124202268D02*
X110056371Y-124583220D01*
X110580180Y-123678458D02*
X109580180Y-123440363D01*
X109580180Y-123440363D02*
X110294466Y-123249887D01*
X110294466Y-123249887D02*
X109580180Y-123059411D01*
X109580180Y-123059411D02*
X110580180Y-122821316D01*
X109580180Y-122440363D02*
X110580180Y-122440363D01*
X110580180Y-122440363D02*
X109865895Y-122107030D01*
X109865895Y-122107030D02*
X110580180Y-121773697D01*
X110580180Y-121773697D02*
X109580180Y-121773697D01*
X131684942Y-67030839D02*
X131732561Y-66983220D01*
X131732561Y-66983220D02*
X131780180Y-66887982D01*
X131780180Y-66887982D02*
X131780180Y-66649887D01*
X131780180Y-66649887D02*
X131732561Y-66554649D01*
X131732561Y-66554649D02*
X131684942Y-66507030D01*
X131684942Y-66507030D02*
X131589704Y-66459411D01*
X131589704Y-66459411D02*
X131494466Y-66459411D01*
X131494466Y-66459411D02*
X131351609Y-66507030D01*
X131351609Y-66507030D02*
X130780180Y-67078458D01*
X130780180Y-67078458D02*
X130780180Y-66459411D01*
X131446847Y-65602268D02*
X130780180Y-65602268D01*
X131827800Y-65840363D02*
X131113514Y-66078458D01*
X131113514Y-66078458D02*
X131113514Y-65459411D01*
X131780180Y-65221315D02*
X130780180Y-64887982D01*
X130780180Y-64887982D02*
X131780180Y-64554649D01*
X114532561Y-47259411D02*
X114580180Y-47354649D01*
X114580180Y-47354649D02*
X114580180Y-47497506D01*
X114580180Y-47497506D02*
X114532561Y-47640363D01*
X114532561Y-47640363D02*
X114437323Y-47735601D01*
X114437323Y-47735601D02*
X114342085Y-47783220D01*
X114342085Y-47783220D02*
X114151609Y-47830839D01*
X114151609Y-47830839D02*
X114008752Y-47830839D01*
X114008752Y-47830839D02*
X113818276Y-47783220D01*
X113818276Y-47783220D02*
X113723038Y-47735601D01*
X113723038Y-47735601D02*
X113627800Y-47640363D01*
X113627800Y-47640363D02*
X113580180Y-47497506D01*
X113580180Y-47497506D02*
X113580180Y-47402268D01*
X113580180Y-47402268D02*
X113627800Y-47259411D01*
X113627800Y-47259411D02*
X113675419Y-47211792D01*
X113675419Y-47211792D02*
X114008752Y-47211792D01*
X114008752Y-47211792D02*
X114008752Y-47402268D01*
X113580180Y-46783220D02*
X114580180Y-46783220D01*
X114580180Y-46783220D02*
X113580180Y-46211792D01*
X113580180Y-46211792D02*
X114580180Y-46211792D01*
X113580180Y-45735601D02*
X114580180Y-45735601D01*
X114580180Y-45735601D02*
X114580180Y-45497506D01*
X114580180Y-45497506D02*
X114532561Y-45354649D01*
X114532561Y-45354649D02*
X114437323Y-45259411D01*
X114437323Y-45259411D02*
X114342085Y-45211792D01*
X114342085Y-45211792D02*
X114151609Y-45164173D01*
X114151609Y-45164173D02*
X114008752Y-45164173D01*
X114008752Y-45164173D02*
X113818276Y-45211792D01*
X113818276Y-45211792D02*
X113723038Y-45259411D01*
X113723038Y-45259411D02*
X113627800Y-45354649D01*
X113627800Y-45354649D02*
X113580180Y-45497506D01*
X113580180Y-45497506D02*
X113580180Y-45735601D01*
X186380180Y-47783220D02*
X187380180Y-47783220D01*
X187380180Y-47783220D02*
X187380180Y-47402268D01*
X187380180Y-47402268D02*
X187332561Y-47307030D01*
X187332561Y-47307030D02*
X187284942Y-47259411D01*
X187284942Y-47259411D02*
X187189704Y-47211792D01*
X187189704Y-47211792D02*
X187046847Y-47211792D01*
X187046847Y-47211792D02*
X186951609Y-47259411D01*
X186951609Y-47259411D02*
X186903990Y-47307030D01*
X186903990Y-47307030D02*
X186856371Y-47402268D01*
X186856371Y-47402268D02*
X186856371Y-47783220D01*
X187380180Y-46878458D02*
X186380180Y-46640363D01*
X186380180Y-46640363D02*
X187094466Y-46449887D01*
X187094466Y-46449887D02*
X186380180Y-46259411D01*
X186380180Y-46259411D02*
X187380180Y-46021316D01*
X186380180Y-45640363D02*
X187380180Y-45640363D01*
X187380180Y-45640363D02*
X186665895Y-45307030D01*
X186665895Y-45307030D02*
X187380180Y-44973697D01*
X187380180Y-44973697D02*
X186380180Y-44973697D01*
X172132561Y-104859411D02*
X172180180Y-104954649D01*
X172180180Y-104954649D02*
X172180180Y-105097506D01*
X172180180Y-105097506D02*
X172132561Y-105240363D01*
X172132561Y-105240363D02*
X172037323Y-105335601D01*
X172037323Y-105335601D02*
X171942085Y-105383220D01*
X171942085Y-105383220D02*
X171751609Y-105430839D01*
X171751609Y-105430839D02*
X171608752Y-105430839D01*
X171608752Y-105430839D02*
X171418276Y-105383220D01*
X171418276Y-105383220D02*
X171323038Y-105335601D01*
X171323038Y-105335601D02*
X171227800Y-105240363D01*
X171227800Y-105240363D02*
X171180180Y-105097506D01*
X171180180Y-105097506D02*
X171180180Y-105002268D01*
X171180180Y-105002268D02*
X171227800Y-104859411D01*
X171227800Y-104859411D02*
X171275419Y-104811792D01*
X171275419Y-104811792D02*
X171608752Y-104811792D01*
X171608752Y-104811792D02*
X171608752Y-105002268D01*
X171180180Y-104383220D02*
X172180180Y-104383220D01*
X172180180Y-104383220D02*
X171180180Y-103811792D01*
X171180180Y-103811792D02*
X172180180Y-103811792D01*
X171180180Y-103335601D02*
X172180180Y-103335601D01*
X172180180Y-103335601D02*
X172180180Y-103097506D01*
X172180180Y-103097506D02*
X172132561Y-102954649D01*
X172132561Y-102954649D02*
X172037323Y-102859411D01*
X172037323Y-102859411D02*
X171942085Y-102811792D01*
X171942085Y-102811792D02*
X171751609Y-102764173D01*
X171751609Y-102764173D02*
X171608752Y-102764173D01*
X171608752Y-102764173D02*
X171418276Y-102811792D01*
X171418276Y-102811792D02*
X171323038Y-102859411D01*
X171323038Y-102859411D02*
X171227800Y-102954649D01*
X171227800Y-102954649D02*
X171180180Y-103097506D01*
X171180180Y-103097506D02*
X171180180Y-103335601D01*
X150884942Y-124630839D02*
X150932561Y-124583220D01*
X150932561Y-124583220D02*
X150980180Y-124487982D01*
X150980180Y-124487982D02*
X150980180Y-124249887D01*
X150980180Y-124249887D02*
X150932561Y-124154649D01*
X150932561Y-124154649D02*
X150884942Y-124107030D01*
X150884942Y-124107030D02*
X150789704Y-124059411D01*
X150789704Y-124059411D02*
X150694466Y-124059411D01*
X150694466Y-124059411D02*
X150551609Y-124107030D01*
X150551609Y-124107030D02*
X149980180Y-124678458D01*
X149980180Y-124678458D02*
X149980180Y-124059411D01*
X150646847Y-123202268D02*
X149980180Y-123202268D01*
X151027800Y-123440363D02*
X150313514Y-123678458D01*
X150313514Y-123678458D02*
X150313514Y-123059411D01*
X150980180Y-122821315D02*
X149980180Y-122487982D01*
X149980180Y-122487982D02*
X150980180Y-122154649D01*
X131684942Y-86230839D02*
X131732561Y-86183220D01*
X131732561Y-86183220D02*
X131780180Y-86087982D01*
X131780180Y-86087982D02*
X131780180Y-85849887D01*
X131780180Y-85849887D02*
X131732561Y-85754649D01*
X131732561Y-85754649D02*
X131684942Y-85707030D01*
X131684942Y-85707030D02*
X131589704Y-85659411D01*
X131589704Y-85659411D02*
X131494466Y-85659411D01*
X131494466Y-85659411D02*
X131351609Y-85707030D01*
X131351609Y-85707030D02*
X130780180Y-86278458D01*
X130780180Y-86278458D02*
X130780180Y-85659411D01*
X131446847Y-84802268D02*
X130780180Y-84802268D01*
X131827800Y-85040363D02*
X131113514Y-85278458D01*
X131113514Y-85278458D02*
X131113514Y-84659411D01*
X131780180Y-84421315D02*
X130780180Y-84087982D01*
X130780180Y-84087982D02*
X131780180Y-83754649D01*
X186380180Y-66983220D02*
X187380180Y-66983220D01*
X187380180Y-66983220D02*
X187380180Y-66602268D01*
X187380180Y-66602268D02*
X187332561Y-66507030D01*
X187332561Y-66507030D02*
X187284942Y-66459411D01*
X187284942Y-66459411D02*
X187189704Y-66411792D01*
X187189704Y-66411792D02*
X187046847Y-66411792D01*
X187046847Y-66411792D02*
X186951609Y-66459411D01*
X186951609Y-66459411D02*
X186903990Y-66507030D01*
X186903990Y-66507030D02*
X186856371Y-66602268D01*
X186856371Y-66602268D02*
X186856371Y-66983220D01*
X187380180Y-66078458D02*
X186380180Y-65840363D01*
X186380180Y-65840363D02*
X187094466Y-65649887D01*
X187094466Y-65649887D02*
X186380180Y-65459411D01*
X186380180Y-65459411D02*
X187380180Y-65221316D01*
X186380180Y-64840363D02*
X187380180Y-64840363D01*
X187380180Y-64840363D02*
X186665895Y-64507030D01*
X186665895Y-64507030D02*
X187380180Y-64173697D01*
X187380180Y-64173697D02*
X186380180Y-64173697D01*
X152932561Y-124059411D02*
X152980180Y-124154649D01*
X152980180Y-124154649D02*
X152980180Y-124297506D01*
X152980180Y-124297506D02*
X152932561Y-124440363D01*
X152932561Y-124440363D02*
X152837323Y-124535601D01*
X152837323Y-124535601D02*
X152742085Y-124583220D01*
X152742085Y-124583220D02*
X152551609Y-124630839D01*
X152551609Y-124630839D02*
X152408752Y-124630839D01*
X152408752Y-124630839D02*
X152218276Y-124583220D01*
X152218276Y-124583220D02*
X152123038Y-124535601D01*
X152123038Y-124535601D02*
X152027800Y-124440363D01*
X152027800Y-124440363D02*
X151980180Y-124297506D01*
X151980180Y-124297506D02*
X151980180Y-124202268D01*
X151980180Y-124202268D02*
X152027800Y-124059411D01*
X152027800Y-124059411D02*
X152075419Y-124011792D01*
X152075419Y-124011792D02*
X152408752Y-124011792D01*
X152408752Y-124011792D02*
X152408752Y-124202268D01*
X151980180Y-123583220D02*
X152980180Y-123583220D01*
X152980180Y-123583220D02*
X151980180Y-123011792D01*
X151980180Y-123011792D02*
X152980180Y-123011792D01*
X151980180Y-122535601D02*
X152980180Y-122535601D01*
X152980180Y-122535601D02*
X152980180Y-122297506D01*
X152980180Y-122297506D02*
X152932561Y-122154649D01*
X152932561Y-122154649D02*
X152837323Y-122059411D01*
X152837323Y-122059411D02*
X152742085Y-122011792D01*
X152742085Y-122011792D02*
X152551609Y-121964173D01*
X152551609Y-121964173D02*
X152408752Y-121964173D01*
X152408752Y-121964173D02*
X152218276Y-122011792D01*
X152218276Y-122011792D02*
X152123038Y-122059411D01*
X152123038Y-122059411D02*
X152027800Y-122154649D01*
X152027800Y-122154649D02*
X151980180Y-122297506D01*
X151980180Y-122297506D02*
X151980180Y-122535601D01*
X172132561Y-66459411D02*
X172180180Y-66554649D01*
X172180180Y-66554649D02*
X172180180Y-66697506D01*
X172180180Y-66697506D02*
X172132561Y-66840363D01*
X172132561Y-66840363D02*
X172037323Y-66935601D01*
X172037323Y-66935601D02*
X171942085Y-66983220D01*
X171942085Y-66983220D02*
X171751609Y-67030839D01*
X171751609Y-67030839D02*
X171608752Y-67030839D01*
X171608752Y-67030839D02*
X171418276Y-66983220D01*
X171418276Y-66983220D02*
X171323038Y-66935601D01*
X171323038Y-66935601D02*
X171227800Y-66840363D01*
X171227800Y-66840363D02*
X171180180Y-66697506D01*
X171180180Y-66697506D02*
X171180180Y-66602268D01*
X171180180Y-66602268D02*
X171227800Y-66459411D01*
X171227800Y-66459411D02*
X171275419Y-66411792D01*
X171275419Y-66411792D02*
X171608752Y-66411792D01*
X171608752Y-66411792D02*
X171608752Y-66602268D01*
X171180180Y-65983220D02*
X172180180Y-65983220D01*
X172180180Y-65983220D02*
X171180180Y-65411792D01*
X171180180Y-65411792D02*
X172180180Y-65411792D01*
X171180180Y-64935601D02*
X172180180Y-64935601D01*
X172180180Y-64935601D02*
X172180180Y-64697506D01*
X172180180Y-64697506D02*
X172132561Y-64554649D01*
X172132561Y-64554649D02*
X172037323Y-64459411D01*
X172037323Y-64459411D02*
X171942085Y-64411792D01*
X171942085Y-64411792D02*
X171751609Y-64364173D01*
X171751609Y-64364173D02*
X171608752Y-64364173D01*
X171608752Y-64364173D02*
X171418276Y-64411792D01*
X171418276Y-64411792D02*
X171323038Y-64459411D01*
X171323038Y-64459411D02*
X171227800Y-64554649D01*
X171227800Y-64554649D02*
X171180180Y-64697506D01*
X171180180Y-64697506D02*
X171180180Y-64935601D01*
X131684942Y-105430839D02*
X131732561Y-105383220D01*
X131732561Y-105383220D02*
X131780180Y-105287982D01*
X131780180Y-105287982D02*
X131780180Y-105049887D01*
X131780180Y-105049887D02*
X131732561Y-104954649D01*
X131732561Y-104954649D02*
X131684942Y-104907030D01*
X131684942Y-104907030D02*
X131589704Y-104859411D01*
X131589704Y-104859411D02*
X131494466Y-104859411D01*
X131494466Y-104859411D02*
X131351609Y-104907030D01*
X131351609Y-104907030D02*
X130780180Y-105478458D01*
X130780180Y-105478458D02*
X130780180Y-104859411D01*
X131446847Y-104002268D02*
X130780180Y-104002268D01*
X131827800Y-104240363D02*
X131113514Y-104478458D01*
X131113514Y-104478458D02*
X131113514Y-103859411D01*
X131780180Y-103621315D02*
X130780180Y-103287982D01*
X130780180Y-103287982D02*
X131780180Y-102954649D01*
X172132561Y-124059411D02*
X172180180Y-124154649D01*
X172180180Y-124154649D02*
X172180180Y-124297506D01*
X172180180Y-124297506D02*
X172132561Y-124440363D01*
X172132561Y-124440363D02*
X172037323Y-124535601D01*
X172037323Y-124535601D02*
X171942085Y-124583220D01*
X171942085Y-124583220D02*
X171751609Y-124630839D01*
X171751609Y-124630839D02*
X171608752Y-124630839D01*
X171608752Y-124630839D02*
X171418276Y-124583220D01*
X171418276Y-124583220D02*
X171323038Y-124535601D01*
X171323038Y-124535601D02*
X171227800Y-124440363D01*
X171227800Y-124440363D02*
X171180180Y-124297506D01*
X171180180Y-124297506D02*
X171180180Y-124202268D01*
X171180180Y-124202268D02*
X171227800Y-124059411D01*
X171227800Y-124059411D02*
X171275419Y-124011792D01*
X171275419Y-124011792D02*
X171608752Y-124011792D01*
X171608752Y-124011792D02*
X171608752Y-124202268D01*
X171180180Y-123583220D02*
X172180180Y-123583220D01*
X172180180Y-123583220D02*
X171180180Y-123011792D01*
X171180180Y-123011792D02*
X172180180Y-123011792D01*
X171180180Y-122535601D02*
X172180180Y-122535601D01*
X172180180Y-122535601D02*
X172180180Y-122297506D01*
X172180180Y-122297506D02*
X172132561Y-122154649D01*
X172132561Y-122154649D02*
X172037323Y-122059411D01*
X172037323Y-122059411D02*
X171942085Y-122011792D01*
X171942085Y-122011792D02*
X171751609Y-121964173D01*
X171751609Y-121964173D02*
X171608752Y-121964173D01*
X171608752Y-121964173D02*
X171418276Y-122011792D01*
X171418276Y-122011792D02*
X171323038Y-122059411D01*
X171323038Y-122059411D02*
X171227800Y-122154649D01*
X171227800Y-122154649D02*
X171180180Y-122297506D01*
X171180180Y-122297506D02*
X171180180Y-122535601D01*
X109580180Y-105383220D02*
X110580180Y-105383220D01*
X110580180Y-105383220D02*
X110580180Y-105002268D01*
X110580180Y-105002268D02*
X110532561Y-104907030D01*
X110532561Y-104907030D02*
X110484942Y-104859411D01*
X110484942Y-104859411D02*
X110389704Y-104811792D01*
X110389704Y-104811792D02*
X110246847Y-104811792D01*
X110246847Y-104811792D02*
X110151609Y-104859411D01*
X110151609Y-104859411D02*
X110103990Y-104907030D01*
X110103990Y-104907030D02*
X110056371Y-105002268D01*
X110056371Y-105002268D02*
X110056371Y-105383220D01*
X110580180Y-104478458D02*
X109580180Y-104240363D01*
X109580180Y-104240363D02*
X110294466Y-104049887D01*
X110294466Y-104049887D02*
X109580180Y-103859411D01*
X109580180Y-103859411D02*
X110580180Y-103621316D01*
X109580180Y-103240363D02*
X110580180Y-103240363D01*
X110580180Y-103240363D02*
X109865895Y-102907030D01*
X109865895Y-102907030D02*
X110580180Y-102573697D01*
X110580180Y-102573697D02*
X109580180Y-102573697D01*
X128780180Y-124583220D02*
X129780180Y-124583220D01*
X129780180Y-124583220D02*
X129780180Y-124202268D01*
X129780180Y-124202268D02*
X129732561Y-124107030D01*
X129732561Y-124107030D02*
X129684942Y-124059411D01*
X129684942Y-124059411D02*
X129589704Y-124011792D01*
X129589704Y-124011792D02*
X129446847Y-124011792D01*
X129446847Y-124011792D02*
X129351609Y-124059411D01*
X129351609Y-124059411D02*
X129303990Y-124107030D01*
X129303990Y-124107030D02*
X129256371Y-124202268D01*
X129256371Y-124202268D02*
X129256371Y-124583220D01*
X129780180Y-123678458D02*
X128780180Y-123440363D01*
X128780180Y-123440363D02*
X129494466Y-123249887D01*
X129494466Y-123249887D02*
X128780180Y-123059411D01*
X128780180Y-123059411D02*
X129780180Y-122821316D01*
X128780180Y-122440363D02*
X129780180Y-122440363D01*
X129780180Y-122440363D02*
X129065895Y-122107030D01*
X129065895Y-122107030D02*
X129780180Y-121773697D01*
X129780180Y-121773697D02*
X128780180Y-121773697D01*
X189284942Y-47830839D02*
X189332561Y-47783220D01*
X189332561Y-47783220D02*
X189380180Y-47687982D01*
X189380180Y-47687982D02*
X189380180Y-47449887D01*
X189380180Y-47449887D02*
X189332561Y-47354649D01*
X189332561Y-47354649D02*
X189284942Y-47307030D01*
X189284942Y-47307030D02*
X189189704Y-47259411D01*
X189189704Y-47259411D02*
X189094466Y-47259411D01*
X189094466Y-47259411D02*
X188951609Y-47307030D01*
X188951609Y-47307030D02*
X188380180Y-47878458D01*
X188380180Y-47878458D02*
X188380180Y-47259411D01*
X189046847Y-46402268D02*
X188380180Y-46402268D01*
X189427800Y-46640363D02*
X188713514Y-46878458D01*
X188713514Y-46878458D02*
X188713514Y-46259411D01*
X189380180Y-46021315D02*
X188380180Y-45687982D01*
X188380180Y-45687982D02*
X189380180Y-45354649D01*
X128780180Y-66983220D02*
X129780180Y-66983220D01*
X129780180Y-66983220D02*
X129780180Y-66602268D01*
X129780180Y-66602268D02*
X129732561Y-66507030D01*
X129732561Y-66507030D02*
X129684942Y-66459411D01*
X129684942Y-66459411D02*
X129589704Y-66411792D01*
X129589704Y-66411792D02*
X129446847Y-66411792D01*
X129446847Y-66411792D02*
X129351609Y-66459411D01*
X129351609Y-66459411D02*
X129303990Y-66507030D01*
X129303990Y-66507030D02*
X129256371Y-66602268D01*
X129256371Y-66602268D02*
X129256371Y-66983220D01*
X129780180Y-66078458D02*
X128780180Y-65840363D01*
X128780180Y-65840363D02*
X129494466Y-65649887D01*
X129494466Y-65649887D02*
X128780180Y-65459411D01*
X128780180Y-65459411D02*
X129780180Y-65221316D01*
X128780180Y-64840363D02*
X129780180Y-64840363D01*
X129780180Y-64840363D02*
X129065895Y-64507030D01*
X129065895Y-64507030D02*
X129780180Y-64173697D01*
X129780180Y-64173697D02*
X128780180Y-64173697D01*
X191332561Y-124059411D02*
X191380180Y-124154649D01*
X191380180Y-124154649D02*
X191380180Y-124297506D01*
X191380180Y-124297506D02*
X191332561Y-124440363D01*
X191332561Y-124440363D02*
X191237323Y-124535601D01*
X191237323Y-124535601D02*
X191142085Y-124583220D01*
X191142085Y-124583220D02*
X190951609Y-124630839D01*
X190951609Y-124630839D02*
X190808752Y-124630839D01*
X190808752Y-124630839D02*
X190618276Y-124583220D01*
X190618276Y-124583220D02*
X190523038Y-124535601D01*
X190523038Y-124535601D02*
X190427800Y-124440363D01*
X190427800Y-124440363D02*
X190380180Y-124297506D01*
X190380180Y-124297506D02*
X190380180Y-124202268D01*
X190380180Y-124202268D02*
X190427800Y-124059411D01*
X190427800Y-124059411D02*
X190475419Y-124011792D01*
X190475419Y-124011792D02*
X190808752Y-124011792D01*
X190808752Y-124011792D02*
X190808752Y-124202268D01*
X190380180Y-123583220D02*
X191380180Y-123583220D01*
X191380180Y-123583220D02*
X190380180Y-123011792D01*
X190380180Y-123011792D02*
X191380180Y-123011792D01*
X190380180Y-122535601D02*
X191380180Y-122535601D01*
X191380180Y-122535601D02*
X191380180Y-122297506D01*
X191380180Y-122297506D02*
X191332561Y-122154649D01*
X191332561Y-122154649D02*
X191237323Y-122059411D01*
X191237323Y-122059411D02*
X191142085Y-122011792D01*
X191142085Y-122011792D02*
X190951609Y-121964173D01*
X190951609Y-121964173D02*
X190808752Y-121964173D01*
X190808752Y-121964173D02*
X190618276Y-122011792D01*
X190618276Y-122011792D02*
X190523038Y-122059411D01*
X190523038Y-122059411D02*
X190427800Y-122154649D01*
X190427800Y-122154649D02*
X190380180Y-122297506D01*
X190380180Y-122297506D02*
X190380180Y-122535601D01*
X152932561Y-85659411D02*
X152980180Y-85754649D01*
X152980180Y-85754649D02*
X152980180Y-85897506D01*
X152980180Y-85897506D02*
X152932561Y-86040363D01*
X152932561Y-86040363D02*
X152837323Y-86135601D01*
X152837323Y-86135601D02*
X152742085Y-86183220D01*
X152742085Y-86183220D02*
X152551609Y-86230839D01*
X152551609Y-86230839D02*
X152408752Y-86230839D01*
X152408752Y-86230839D02*
X152218276Y-86183220D01*
X152218276Y-86183220D02*
X152123038Y-86135601D01*
X152123038Y-86135601D02*
X152027800Y-86040363D01*
X152027800Y-86040363D02*
X151980180Y-85897506D01*
X151980180Y-85897506D02*
X151980180Y-85802268D01*
X151980180Y-85802268D02*
X152027800Y-85659411D01*
X152027800Y-85659411D02*
X152075419Y-85611792D01*
X152075419Y-85611792D02*
X152408752Y-85611792D01*
X152408752Y-85611792D02*
X152408752Y-85802268D01*
X151980180Y-85183220D02*
X152980180Y-85183220D01*
X152980180Y-85183220D02*
X151980180Y-84611792D01*
X151980180Y-84611792D02*
X152980180Y-84611792D01*
X151980180Y-84135601D02*
X152980180Y-84135601D01*
X152980180Y-84135601D02*
X152980180Y-83897506D01*
X152980180Y-83897506D02*
X152932561Y-83754649D01*
X152932561Y-83754649D02*
X152837323Y-83659411D01*
X152837323Y-83659411D02*
X152742085Y-83611792D01*
X152742085Y-83611792D02*
X152551609Y-83564173D01*
X152551609Y-83564173D02*
X152408752Y-83564173D01*
X152408752Y-83564173D02*
X152218276Y-83611792D01*
X152218276Y-83611792D02*
X152123038Y-83659411D01*
X152123038Y-83659411D02*
X152027800Y-83754649D01*
X152027800Y-83754649D02*
X151980180Y-83897506D01*
X151980180Y-83897506D02*
X151980180Y-84135601D01*
X147980180Y-66983220D02*
X148980180Y-66983220D01*
X148980180Y-66983220D02*
X148980180Y-66602268D01*
X148980180Y-66602268D02*
X148932561Y-66507030D01*
X148932561Y-66507030D02*
X148884942Y-66459411D01*
X148884942Y-66459411D02*
X148789704Y-66411792D01*
X148789704Y-66411792D02*
X148646847Y-66411792D01*
X148646847Y-66411792D02*
X148551609Y-66459411D01*
X148551609Y-66459411D02*
X148503990Y-66507030D01*
X148503990Y-66507030D02*
X148456371Y-66602268D01*
X148456371Y-66602268D02*
X148456371Y-66983220D01*
X148980180Y-66078458D02*
X147980180Y-65840363D01*
X147980180Y-65840363D02*
X148694466Y-65649887D01*
X148694466Y-65649887D02*
X147980180Y-65459411D01*
X147980180Y-65459411D02*
X148980180Y-65221316D01*
X147980180Y-64840363D02*
X148980180Y-64840363D01*
X148980180Y-64840363D02*
X148265895Y-64507030D01*
X148265895Y-64507030D02*
X148980180Y-64173697D01*
X148980180Y-64173697D02*
X147980180Y-64173697D01*
X152932561Y-66459411D02*
X152980180Y-66554649D01*
X152980180Y-66554649D02*
X152980180Y-66697506D01*
X152980180Y-66697506D02*
X152932561Y-66840363D01*
X152932561Y-66840363D02*
X152837323Y-66935601D01*
X152837323Y-66935601D02*
X152742085Y-66983220D01*
X152742085Y-66983220D02*
X152551609Y-67030839D01*
X152551609Y-67030839D02*
X152408752Y-67030839D01*
X152408752Y-67030839D02*
X152218276Y-66983220D01*
X152218276Y-66983220D02*
X152123038Y-66935601D01*
X152123038Y-66935601D02*
X152027800Y-66840363D01*
X152027800Y-66840363D02*
X151980180Y-66697506D01*
X151980180Y-66697506D02*
X151980180Y-66602268D01*
X151980180Y-66602268D02*
X152027800Y-66459411D01*
X152027800Y-66459411D02*
X152075419Y-66411792D01*
X152075419Y-66411792D02*
X152408752Y-66411792D01*
X152408752Y-66411792D02*
X152408752Y-66602268D01*
X151980180Y-65983220D02*
X152980180Y-65983220D01*
X152980180Y-65983220D02*
X151980180Y-65411792D01*
X151980180Y-65411792D02*
X152980180Y-65411792D01*
X151980180Y-64935601D02*
X152980180Y-64935601D01*
X152980180Y-64935601D02*
X152980180Y-64697506D01*
X152980180Y-64697506D02*
X152932561Y-64554649D01*
X152932561Y-64554649D02*
X152837323Y-64459411D01*
X152837323Y-64459411D02*
X152742085Y-64411792D01*
X152742085Y-64411792D02*
X152551609Y-64364173D01*
X152551609Y-64364173D02*
X152408752Y-64364173D01*
X152408752Y-64364173D02*
X152218276Y-64411792D01*
X152218276Y-64411792D02*
X152123038Y-64459411D01*
X152123038Y-64459411D02*
X152027800Y-64554649D01*
X152027800Y-64554649D02*
X151980180Y-64697506D01*
X151980180Y-64697506D02*
X151980180Y-64935601D01*
X112484942Y-86230839D02*
X112532561Y-86183220D01*
X112532561Y-86183220D02*
X112580180Y-86087982D01*
X112580180Y-86087982D02*
X112580180Y-85849887D01*
X112580180Y-85849887D02*
X112532561Y-85754649D01*
X112532561Y-85754649D02*
X112484942Y-85707030D01*
X112484942Y-85707030D02*
X112389704Y-85659411D01*
X112389704Y-85659411D02*
X112294466Y-85659411D01*
X112294466Y-85659411D02*
X112151609Y-85707030D01*
X112151609Y-85707030D02*
X111580180Y-86278458D01*
X111580180Y-86278458D02*
X111580180Y-85659411D01*
X112246847Y-84802268D02*
X111580180Y-84802268D01*
X112627800Y-85040363D02*
X111913514Y-85278458D01*
X111913514Y-85278458D02*
X111913514Y-84659411D01*
X112580180Y-84421315D02*
X111580180Y-84087982D01*
X111580180Y-84087982D02*
X112580180Y-83754649D01*
X133732561Y-85659411D02*
X133780180Y-85754649D01*
X133780180Y-85754649D02*
X133780180Y-85897506D01*
X133780180Y-85897506D02*
X133732561Y-86040363D01*
X133732561Y-86040363D02*
X133637323Y-86135601D01*
X133637323Y-86135601D02*
X133542085Y-86183220D01*
X133542085Y-86183220D02*
X133351609Y-86230839D01*
X133351609Y-86230839D02*
X133208752Y-86230839D01*
X133208752Y-86230839D02*
X133018276Y-86183220D01*
X133018276Y-86183220D02*
X132923038Y-86135601D01*
X132923038Y-86135601D02*
X132827800Y-86040363D01*
X132827800Y-86040363D02*
X132780180Y-85897506D01*
X132780180Y-85897506D02*
X132780180Y-85802268D01*
X132780180Y-85802268D02*
X132827800Y-85659411D01*
X132827800Y-85659411D02*
X132875419Y-85611792D01*
X132875419Y-85611792D02*
X133208752Y-85611792D01*
X133208752Y-85611792D02*
X133208752Y-85802268D01*
X132780180Y-85183220D02*
X133780180Y-85183220D01*
X133780180Y-85183220D02*
X132780180Y-84611792D01*
X132780180Y-84611792D02*
X133780180Y-84611792D01*
X132780180Y-84135601D02*
X133780180Y-84135601D01*
X133780180Y-84135601D02*
X133780180Y-83897506D01*
X133780180Y-83897506D02*
X133732561Y-83754649D01*
X133732561Y-83754649D02*
X133637323Y-83659411D01*
X133637323Y-83659411D02*
X133542085Y-83611792D01*
X133542085Y-83611792D02*
X133351609Y-83564173D01*
X133351609Y-83564173D02*
X133208752Y-83564173D01*
X133208752Y-83564173D02*
X133018276Y-83611792D01*
X133018276Y-83611792D02*
X132923038Y-83659411D01*
X132923038Y-83659411D02*
X132827800Y-83754649D01*
X132827800Y-83754649D02*
X132780180Y-83897506D01*
X132780180Y-83897506D02*
X132780180Y-84135601D01*
X189284942Y-124630839D02*
X189332561Y-124583220D01*
X189332561Y-124583220D02*
X189380180Y-124487982D01*
X189380180Y-124487982D02*
X189380180Y-124249887D01*
X189380180Y-124249887D02*
X189332561Y-124154649D01*
X189332561Y-124154649D02*
X189284942Y-124107030D01*
X189284942Y-124107030D02*
X189189704Y-124059411D01*
X189189704Y-124059411D02*
X189094466Y-124059411D01*
X189094466Y-124059411D02*
X188951609Y-124107030D01*
X188951609Y-124107030D02*
X188380180Y-124678458D01*
X188380180Y-124678458D02*
X188380180Y-124059411D01*
X189046847Y-123202268D02*
X188380180Y-123202268D01*
X189427800Y-123440363D02*
X188713514Y-123678458D01*
X188713514Y-123678458D02*
X188713514Y-123059411D01*
X189380180Y-122821315D02*
X188380180Y-122487982D01*
X188380180Y-122487982D02*
X189380180Y-122154649D01*
X114532561Y-124059411D02*
X114580180Y-124154649D01*
X114580180Y-124154649D02*
X114580180Y-124297506D01*
X114580180Y-124297506D02*
X114532561Y-124440363D01*
X114532561Y-124440363D02*
X114437323Y-124535601D01*
X114437323Y-124535601D02*
X114342085Y-124583220D01*
X114342085Y-124583220D02*
X114151609Y-124630839D01*
X114151609Y-124630839D02*
X114008752Y-124630839D01*
X114008752Y-124630839D02*
X113818276Y-124583220D01*
X113818276Y-124583220D02*
X113723038Y-124535601D01*
X113723038Y-124535601D02*
X113627800Y-124440363D01*
X113627800Y-124440363D02*
X113580180Y-124297506D01*
X113580180Y-124297506D02*
X113580180Y-124202268D01*
X113580180Y-124202268D02*
X113627800Y-124059411D01*
X113627800Y-124059411D02*
X113675419Y-124011792D01*
X113675419Y-124011792D02*
X114008752Y-124011792D01*
X114008752Y-124011792D02*
X114008752Y-124202268D01*
X113580180Y-123583220D02*
X114580180Y-123583220D01*
X114580180Y-123583220D02*
X113580180Y-123011792D01*
X113580180Y-123011792D02*
X114580180Y-123011792D01*
X113580180Y-122535601D02*
X114580180Y-122535601D01*
X114580180Y-122535601D02*
X114580180Y-122297506D01*
X114580180Y-122297506D02*
X114532561Y-122154649D01*
X114532561Y-122154649D02*
X114437323Y-122059411D01*
X114437323Y-122059411D02*
X114342085Y-122011792D01*
X114342085Y-122011792D02*
X114151609Y-121964173D01*
X114151609Y-121964173D02*
X114008752Y-121964173D01*
X114008752Y-121964173D02*
X113818276Y-122011792D01*
X113818276Y-122011792D02*
X113723038Y-122059411D01*
X113723038Y-122059411D02*
X113627800Y-122154649D01*
X113627800Y-122154649D02*
X113580180Y-122297506D01*
X113580180Y-122297506D02*
X113580180Y-122535601D01*
X150884942Y-67030839D02*
X150932561Y-66983220D01*
X150932561Y-66983220D02*
X150980180Y-66887982D01*
X150980180Y-66887982D02*
X150980180Y-66649887D01*
X150980180Y-66649887D02*
X150932561Y-66554649D01*
X150932561Y-66554649D02*
X150884942Y-66507030D01*
X150884942Y-66507030D02*
X150789704Y-66459411D01*
X150789704Y-66459411D02*
X150694466Y-66459411D01*
X150694466Y-66459411D02*
X150551609Y-66507030D01*
X150551609Y-66507030D02*
X149980180Y-67078458D01*
X149980180Y-67078458D02*
X149980180Y-66459411D01*
X150646847Y-65602268D02*
X149980180Y-65602268D01*
X151027800Y-65840363D02*
X150313514Y-66078458D01*
X150313514Y-66078458D02*
X150313514Y-65459411D01*
X150980180Y-65221315D02*
X149980180Y-64887982D01*
X149980180Y-64887982D02*
X150980180Y-64554649D01*
X172132561Y-85659411D02*
X172180180Y-85754649D01*
X172180180Y-85754649D02*
X172180180Y-85897506D01*
X172180180Y-85897506D02*
X172132561Y-86040363D01*
X172132561Y-86040363D02*
X172037323Y-86135601D01*
X172037323Y-86135601D02*
X171942085Y-86183220D01*
X171942085Y-86183220D02*
X171751609Y-86230839D01*
X171751609Y-86230839D02*
X171608752Y-86230839D01*
X171608752Y-86230839D02*
X171418276Y-86183220D01*
X171418276Y-86183220D02*
X171323038Y-86135601D01*
X171323038Y-86135601D02*
X171227800Y-86040363D01*
X171227800Y-86040363D02*
X171180180Y-85897506D01*
X171180180Y-85897506D02*
X171180180Y-85802268D01*
X171180180Y-85802268D02*
X171227800Y-85659411D01*
X171227800Y-85659411D02*
X171275419Y-85611792D01*
X171275419Y-85611792D02*
X171608752Y-85611792D01*
X171608752Y-85611792D02*
X171608752Y-85802268D01*
X171180180Y-85183220D02*
X172180180Y-85183220D01*
X172180180Y-85183220D02*
X171180180Y-84611792D01*
X171180180Y-84611792D02*
X172180180Y-84611792D01*
X171180180Y-84135601D02*
X172180180Y-84135601D01*
X172180180Y-84135601D02*
X172180180Y-83897506D01*
X172180180Y-83897506D02*
X172132561Y-83754649D01*
X172132561Y-83754649D02*
X172037323Y-83659411D01*
X172037323Y-83659411D02*
X171942085Y-83611792D01*
X171942085Y-83611792D02*
X171751609Y-83564173D01*
X171751609Y-83564173D02*
X171608752Y-83564173D01*
X171608752Y-83564173D02*
X171418276Y-83611792D01*
X171418276Y-83611792D02*
X171323038Y-83659411D01*
X171323038Y-83659411D02*
X171227800Y-83754649D01*
X171227800Y-83754649D02*
X171180180Y-83897506D01*
X171180180Y-83897506D02*
X171180180Y-84135601D01*
X189284942Y-67030839D02*
X189332561Y-66983220D01*
X189332561Y-66983220D02*
X189380180Y-66887982D01*
X189380180Y-66887982D02*
X189380180Y-66649887D01*
X189380180Y-66649887D02*
X189332561Y-66554649D01*
X189332561Y-66554649D02*
X189284942Y-66507030D01*
X189284942Y-66507030D02*
X189189704Y-66459411D01*
X189189704Y-66459411D02*
X189094466Y-66459411D01*
X189094466Y-66459411D02*
X188951609Y-66507030D01*
X188951609Y-66507030D02*
X188380180Y-67078458D01*
X188380180Y-67078458D02*
X188380180Y-66459411D01*
X189046847Y-65602268D02*
X188380180Y-65602268D01*
X189427800Y-65840363D02*
X188713514Y-66078458D01*
X188713514Y-66078458D02*
X188713514Y-65459411D01*
X189380180Y-65221315D02*
X188380180Y-64887982D01*
X188380180Y-64887982D02*
X189380180Y-64554649D01*
X167180180Y-105383220D02*
X168180180Y-105383220D01*
X168180180Y-105383220D02*
X168180180Y-105002268D01*
X168180180Y-105002268D02*
X168132561Y-104907030D01*
X168132561Y-104907030D02*
X168084942Y-104859411D01*
X168084942Y-104859411D02*
X167989704Y-104811792D01*
X167989704Y-104811792D02*
X167846847Y-104811792D01*
X167846847Y-104811792D02*
X167751609Y-104859411D01*
X167751609Y-104859411D02*
X167703990Y-104907030D01*
X167703990Y-104907030D02*
X167656371Y-105002268D01*
X167656371Y-105002268D02*
X167656371Y-105383220D01*
X168180180Y-104478458D02*
X167180180Y-104240363D01*
X167180180Y-104240363D02*
X167894466Y-104049887D01*
X167894466Y-104049887D02*
X167180180Y-103859411D01*
X167180180Y-103859411D02*
X168180180Y-103621316D01*
X167180180Y-103240363D02*
X168180180Y-103240363D01*
X168180180Y-103240363D02*
X167465895Y-102907030D01*
X167465895Y-102907030D02*
X168180180Y-102573697D01*
X168180180Y-102573697D02*
X167180180Y-102573697D01*
X170084942Y-47830839D02*
X170132561Y-47783220D01*
X170132561Y-47783220D02*
X170180180Y-47687982D01*
X170180180Y-47687982D02*
X170180180Y-47449887D01*
X170180180Y-47449887D02*
X170132561Y-47354649D01*
X170132561Y-47354649D02*
X170084942Y-47307030D01*
X170084942Y-47307030D02*
X169989704Y-47259411D01*
X169989704Y-47259411D02*
X169894466Y-47259411D01*
X169894466Y-47259411D02*
X169751609Y-47307030D01*
X169751609Y-47307030D02*
X169180180Y-47878458D01*
X169180180Y-47878458D02*
X169180180Y-47259411D01*
X169846847Y-46402268D02*
X169180180Y-46402268D01*
X170227800Y-46640363D02*
X169513514Y-46878458D01*
X169513514Y-46878458D02*
X169513514Y-46259411D01*
X170180180Y-46021315D02*
X169180180Y-45687982D01*
X169180180Y-45687982D02*
X170180180Y-45354649D01*
X112484942Y-67030839D02*
X112532561Y-66983220D01*
X112532561Y-66983220D02*
X112580180Y-66887982D01*
X112580180Y-66887982D02*
X112580180Y-66649887D01*
X112580180Y-66649887D02*
X112532561Y-66554649D01*
X112532561Y-66554649D02*
X112484942Y-66507030D01*
X112484942Y-66507030D02*
X112389704Y-66459411D01*
X112389704Y-66459411D02*
X112294466Y-66459411D01*
X112294466Y-66459411D02*
X112151609Y-66507030D01*
X112151609Y-66507030D02*
X111580180Y-67078458D01*
X111580180Y-67078458D02*
X111580180Y-66459411D01*
X112246847Y-65602268D02*
X111580180Y-65602268D01*
X112627800Y-65840363D02*
X111913514Y-66078458D01*
X111913514Y-66078458D02*
X111913514Y-65459411D01*
X112580180Y-65221315D02*
X111580180Y-64887982D01*
X111580180Y-64887982D02*
X112580180Y-64554649D01*
X186380180Y-105383220D02*
X187380180Y-105383220D01*
X187380180Y-105383220D02*
X187380180Y-105002268D01*
X187380180Y-105002268D02*
X187332561Y-104907030D01*
X187332561Y-104907030D02*
X187284942Y-104859411D01*
X187284942Y-104859411D02*
X187189704Y-104811792D01*
X187189704Y-104811792D02*
X187046847Y-104811792D01*
X187046847Y-104811792D02*
X186951609Y-104859411D01*
X186951609Y-104859411D02*
X186903990Y-104907030D01*
X186903990Y-104907030D02*
X186856371Y-105002268D01*
X186856371Y-105002268D02*
X186856371Y-105383220D01*
X187380180Y-104478458D02*
X186380180Y-104240363D01*
X186380180Y-104240363D02*
X187094466Y-104049887D01*
X187094466Y-104049887D02*
X186380180Y-103859411D01*
X186380180Y-103859411D02*
X187380180Y-103621316D01*
X186380180Y-103240363D02*
X187380180Y-103240363D01*
X187380180Y-103240363D02*
X186665895Y-102907030D01*
X186665895Y-102907030D02*
X187380180Y-102573697D01*
X187380180Y-102573697D02*
X186380180Y-102573697D01*
X112484942Y-47830839D02*
X112532561Y-47783220D01*
X112532561Y-47783220D02*
X112580180Y-47687982D01*
X112580180Y-47687982D02*
X112580180Y-47449887D01*
X112580180Y-47449887D02*
X112532561Y-47354649D01*
X112532561Y-47354649D02*
X112484942Y-47307030D01*
X112484942Y-47307030D02*
X112389704Y-47259411D01*
X112389704Y-47259411D02*
X112294466Y-47259411D01*
X112294466Y-47259411D02*
X112151609Y-47307030D01*
X112151609Y-47307030D02*
X111580180Y-47878458D01*
X111580180Y-47878458D02*
X111580180Y-47259411D01*
X112246847Y-46402268D02*
X111580180Y-46402268D01*
X112627800Y-46640363D02*
X111913514Y-46878458D01*
X111913514Y-46878458D02*
X111913514Y-46259411D01*
X112580180Y-46021315D02*
X111580180Y-45687982D01*
X111580180Y-45687982D02*
X112580180Y-45354649D01*
X191332561Y-104859411D02*
X191380180Y-104954649D01*
X191380180Y-104954649D02*
X191380180Y-105097506D01*
X191380180Y-105097506D02*
X191332561Y-105240363D01*
X191332561Y-105240363D02*
X191237323Y-105335601D01*
X191237323Y-105335601D02*
X191142085Y-105383220D01*
X191142085Y-105383220D02*
X190951609Y-105430839D01*
X190951609Y-105430839D02*
X190808752Y-105430839D01*
X190808752Y-105430839D02*
X190618276Y-105383220D01*
X190618276Y-105383220D02*
X190523038Y-105335601D01*
X190523038Y-105335601D02*
X190427800Y-105240363D01*
X190427800Y-105240363D02*
X190380180Y-105097506D01*
X190380180Y-105097506D02*
X190380180Y-105002268D01*
X190380180Y-105002268D02*
X190427800Y-104859411D01*
X190427800Y-104859411D02*
X190475419Y-104811792D01*
X190475419Y-104811792D02*
X190808752Y-104811792D01*
X190808752Y-104811792D02*
X190808752Y-105002268D01*
X190380180Y-104383220D02*
X191380180Y-104383220D01*
X191380180Y-104383220D02*
X190380180Y-103811792D01*
X190380180Y-103811792D02*
X191380180Y-103811792D01*
X190380180Y-103335601D02*
X191380180Y-103335601D01*
X191380180Y-103335601D02*
X191380180Y-103097506D01*
X191380180Y-103097506D02*
X191332561Y-102954649D01*
X191332561Y-102954649D02*
X191237323Y-102859411D01*
X191237323Y-102859411D02*
X191142085Y-102811792D01*
X191142085Y-102811792D02*
X190951609Y-102764173D01*
X190951609Y-102764173D02*
X190808752Y-102764173D01*
X190808752Y-102764173D02*
X190618276Y-102811792D01*
X190618276Y-102811792D02*
X190523038Y-102859411D01*
X190523038Y-102859411D02*
X190427800Y-102954649D01*
X190427800Y-102954649D02*
X190380180Y-103097506D01*
X190380180Y-103097506D02*
X190380180Y-103335601D01*
X191332561Y-66459411D02*
X191380180Y-66554649D01*
X191380180Y-66554649D02*
X191380180Y-66697506D01*
X191380180Y-66697506D02*
X191332561Y-66840363D01*
X191332561Y-66840363D02*
X191237323Y-66935601D01*
X191237323Y-66935601D02*
X191142085Y-66983220D01*
X191142085Y-66983220D02*
X190951609Y-67030839D01*
X190951609Y-67030839D02*
X190808752Y-67030839D01*
X190808752Y-67030839D02*
X190618276Y-66983220D01*
X190618276Y-66983220D02*
X190523038Y-66935601D01*
X190523038Y-66935601D02*
X190427800Y-66840363D01*
X190427800Y-66840363D02*
X190380180Y-66697506D01*
X190380180Y-66697506D02*
X190380180Y-66602268D01*
X190380180Y-66602268D02*
X190427800Y-66459411D01*
X190427800Y-66459411D02*
X190475419Y-66411792D01*
X190475419Y-66411792D02*
X190808752Y-66411792D01*
X190808752Y-66411792D02*
X190808752Y-66602268D01*
X190380180Y-65983220D02*
X191380180Y-65983220D01*
X191380180Y-65983220D02*
X190380180Y-65411792D01*
X190380180Y-65411792D02*
X191380180Y-65411792D01*
X190380180Y-64935601D02*
X191380180Y-64935601D01*
X191380180Y-64935601D02*
X191380180Y-64697506D01*
X191380180Y-64697506D02*
X191332561Y-64554649D01*
X191332561Y-64554649D02*
X191237323Y-64459411D01*
X191237323Y-64459411D02*
X191142085Y-64411792D01*
X191142085Y-64411792D02*
X190951609Y-64364173D01*
X190951609Y-64364173D02*
X190808752Y-64364173D01*
X190808752Y-64364173D02*
X190618276Y-64411792D01*
X190618276Y-64411792D02*
X190523038Y-64459411D01*
X190523038Y-64459411D02*
X190427800Y-64554649D01*
X190427800Y-64554649D02*
X190380180Y-64697506D01*
X190380180Y-64697506D02*
X190380180Y-64935601D01*
X147980180Y-105383220D02*
X148980180Y-105383220D01*
X148980180Y-105383220D02*
X148980180Y-105002268D01*
X148980180Y-105002268D02*
X148932561Y-104907030D01*
X148932561Y-104907030D02*
X148884942Y-104859411D01*
X148884942Y-104859411D02*
X148789704Y-104811792D01*
X148789704Y-104811792D02*
X148646847Y-104811792D01*
X148646847Y-104811792D02*
X148551609Y-104859411D01*
X148551609Y-104859411D02*
X148503990Y-104907030D01*
X148503990Y-104907030D02*
X148456371Y-105002268D01*
X148456371Y-105002268D02*
X148456371Y-105383220D01*
X148980180Y-104478458D02*
X147980180Y-104240363D01*
X147980180Y-104240363D02*
X148694466Y-104049887D01*
X148694466Y-104049887D02*
X147980180Y-103859411D01*
X147980180Y-103859411D02*
X148980180Y-103621316D01*
X147980180Y-103240363D02*
X148980180Y-103240363D01*
X148980180Y-103240363D02*
X148265895Y-102907030D01*
X148265895Y-102907030D02*
X148980180Y-102573697D01*
X148980180Y-102573697D02*
X147980180Y-102573697D01*
X167180180Y-86183220D02*
X168180180Y-86183220D01*
X168180180Y-86183220D02*
X168180180Y-85802268D01*
X168180180Y-85802268D02*
X168132561Y-85707030D01*
X168132561Y-85707030D02*
X168084942Y-85659411D01*
X168084942Y-85659411D02*
X167989704Y-85611792D01*
X167989704Y-85611792D02*
X167846847Y-85611792D01*
X167846847Y-85611792D02*
X167751609Y-85659411D01*
X167751609Y-85659411D02*
X167703990Y-85707030D01*
X167703990Y-85707030D02*
X167656371Y-85802268D01*
X167656371Y-85802268D02*
X167656371Y-86183220D01*
X168180180Y-85278458D02*
X167180180Y-85040363D01*
X167180180Y-85040363D02*
X167894466Y-84849887D01*
X167894466Y-84849887D02*
X167180180Y-84659411D01*
X167180180Y-84659411D02*
X168180180Y-84421316D01*
X167180180Y-84040363D02*
X168180180Y-84040363D01*
X168180180Y-84040363D02*
X167465895Y-83707030D01*
X167465895Y-83707030D02*
X168180180Y-83373697D01*
X168180180Y-83373697D02*
X167180180Y-83373697D01*
X152932561Y-47259411D02*
X152980180Y-47354649D01*
X152980180Y-47354649D02*
X152980180Y-47497506D01*
X152980180Y-47497506D02*
X152932561Y-47640363D01*
X152932561Y-47640363D02*
X152837323Y-47735601D01*
X152837323Y-47735601D02*
X152742085Y-47783220D01*
X152742085Y-47783220D02*
X152551609Y-47830839D01*
X152551609Y-47830839D02*
X152408752Y-47830839D01*
X152408752Y-47830839D02*
X152218276Y-47783220D01*
X152218276Y-47783220D02*
X152123038Y-47735601D01*
X152123038Y-47735601D02*
X152027800Y-47640363D01*
X152027800Y-47640363D02*
X151980180Y-47497506D01*
X151980180Y-47497506D02*
X151980180Y-47402268D01*
X151980180Y-47402268D02*
X152027800Y-47259411D01*
X152027800Y-47259411D02*
X152075419Y-47211792D01*
X152075419Y-47211792D02*
X152408752Y-47211792D01*
X152408752Y-47211792D02*
X152408752Y-47402268D01*
X151980180Y-46783220D02*
X152980180Y-46783220D01*
X152980180Y-46783220D02*
X151980180Y-46211792D01*
X151980180Y-46211792D02*
X152980180Y-46211792D01*
X151980180Y-45735601D02*
X152980180Y-45735601D01*
X152980180Y-45735601D02*
X152980180Y-45497506D01*
X152980180Y-45497506D02*
X152932561Y-45354649D01*
X152932561Y-45354649D02*
X152837323Y-45259411D01*
X152837323Y-45259411D02*
X152742085Y-45211792D01*
X152742085Y-45211792D02*
X152551609Y-45164173D01*
X152551609Y-45164173D02*
X152408752Y-45164173D01*
X152408752Y-45164173D02*
X152218276Y-45211792D01*
X152218276Y-45211792D02*
X152123038Y-45259411D01*
X152123038Y-45259411D02*
X152027800Y-45354649D01*
X152027800Y-45354649D02*
X151980180Y-45497506D01*
X151980180Y-45497506D02*
X151980180Y-45735601D01*
X150884942Y-47830839D02*
X150932561Y-47783220D01*
X150932561Y-47783220D02*
X150980180Y-47687982D01*
X150980180Y-47687982D02*
X150980180Y-47449887D01*
X150980180Y-47449887D02*
X150932561Y-47354649D01*
X150932561Y-47354649D02*
X150884942Y-47307030D01*
X150884942Y-47307030D02*
X150789704Y-47259411D01*
X150789704Y-47259411D02*
X150694466Y-47259411D01*
X150694466Y-47259411D02*
X150551609Y-47307030D01*
X150551609Y-47307030D02*
X149980180Y-47878458D01*
X149980180Y-47878458D02*
X149980180Y-47259411D01*
X150646847Y-46402268D02*
X149980180Y-46402268D01*
X151027800Y-46640363D02*
X150313514Y-46878458D01*
X150313514Y-46878458D02*
X150313514Y-46259411D01*
X150980180Y-46021315D02*
X149980180Y-45687982D01*
X149980180Y-45687982D02*
X150980180Y-45354649D01*
X114532561Y-85659411D02*
X114580180Y-85754649D01*
X114580180Y-85754649D02*
X114580180Y-85897506D01*
X114580180Y-85897506D02*
X114532561Y-86040363D01*
X114532561Y-86040363D02*
X114437323Y-86135601D01*
X114437323Y-86135601D02*
X114342085Y-86183220D01*
X114342085Y-86183220D02*
X114151609Y-86230839D01*
X114151609Y-86230839D02*
X114008752Y-86230839D01*
X114008752Y-86230839D02*
X113818276Y-86183220D01*
X113818276Y-86183220D02*
X113723038Y-86135601D01*
X113723038Y-86135601D02*
X113627800Y-86040363D01*
X113627800Y-86040363D02*
X113580180Y-85897506D01*
X113580180Y-85897506D02*
X113580180Y-85802268D01*
X113580180Y-85802268D02*
X113627800Y-85659411D01*
X113627800Y-85659411D02*
X113675419Y-85611792D01*
X113675419Y-85611792D02*
X114008752Y-85611792D01*
X114008752Y-85611792D02*
X114008752Y-85802268D01*
X113580180Y-85183220D02*
X114580180Y-85183220D01*
X114580180Y-85183220D02*
X113580180Y-84611792D01*
X113580180Y-84611792D02*
X114580180Y-84611792D01*
X113580180Y-84135601D02*
X114580180Y-84135601D01*
X114580180Y-84135601D02*
X114580180Y-83897506D01*
X114580180Y-83897506D02*
X114532561Y-83754649D01*
X114532561Y-83754649D02*
X114437323Y-83659411D01*
X114437323Y-83659411D02*
X114342085Y-83611792D01*
X114342085Y-83611792D02*
X114151609Y-83564173D01*
X114151609Y-83564173D02*
X114008752Y-83564173D01*
X114008752Y-83564173D02*
X113818276Y-83611792D01*
X113818276Y-83611792D02*
X113723038Y-83659411D01*
X113723038Y-83659411D02*
X113627800Y-83754649D01*
X113627800Y-83754649D02*
X113580180Y-83897506D01*
X113580180Y-83897506D02*
X113580180Y-84135601D01*
X186380180Y-86183220D02*
X187380180Y-86183220D01*
X187380180Y-86183220D02*
X187380180Y-85802268D01*
X187380180Y-85802268D02*
X187332561Y-85707030D01*
X187332561Y-85707030D02*
X187284942Y-85659411D01*
X187284942Y-85659411D02*
X187189704Y-85611792D01*
X187189704Y-85611792D02*
X187046847Y-85611792D01*
X187046847Y-85611792D02*
X186951609Y-85659411D01*
X186951609Y-85659411D02*
X186903990Y-85707030D01*
X186903990Y-85707030D02*
X186856371Y-85802268D01*
X186856371Y-85802268D02*
X186856371Y-86183220D01*
X187380180Y-85278458D02*
X186380180Y-85040363D01*
X186380180Y-85040363D02*
X187094466Y-84849887D01*
X187094466Y-84849887D02*
X186380180Y-84659411D01*
X186380180Y-84659411D02*
X187380180Y-84421316D01*
X186380180Y-84040363D02*
X187380180Y-84040363D01*
X187380180Y-84040363D02*
X186665895Y-83707030D01*
X186665895Y-83707030D02*
X187380180Y-83373697D01*
X187380180Y-83373697D02*
X186380180Y-83373697D01*
X172132561Y-47259411D02*
X172180180Y-47354649D01*
X172180180Y-47354649D02*
X172180180Y-47497506D01*
X172180180Y-47497506D02*
X172132561Y-47640363D01*
X172132561Y-47640363D02*
X172037323Y-47735601D01*
X172037323Y-47735601D02*
X171942085Y-47783220D01*
X171942085Y-47783220D02*
X171751609Y-47830839D01*
X171751609Y-47830839D02*
X171608752Y-47830839D01*
X171608752Y-47830839D02*
X171418276Y-47783220D01*
X171418276Y-47783220D02*
X171323038Y-47735601D01*
X171323038Y-47735601D02*
X171227800Y-47640363D01*
X171227800Y-47640363D02*
X171180180Y-47497506D01*
X171180180Y-47497506D02*
X171180180Y-47402268D01*
X171180180Y-47402268D02*
X171227800Y-47259411D01*
X171227800Y-47259411D02*
X171275419Y-47211792D01*
X171275419Y-47211792D02*
X171608752Y-47211792D01*
X171608752Y-47211792D02*
X171608752Y-47402268D01*
X171180180Y-46783220D02*
X172180180Y-46783220D01*
X172180180Y-46783220D02*
X171180180Y-46211792D01*
X171180180Y-46211792D02*
X172180180Y-46211792D01*
X171180180Y-45735601D02*
X172180180Y-45735601D01*
X172180180Y-45735601D02*
X172180180Y-45497506D01*
X172180180Y-45497506D02*
X172132561Y-45354649D01*
X172132561Y-45354649D02*
X172037323Y-45259411D01*
X172037323Y-45259411D02*
X171942085Y-45211792D01*
X171942085Y-45211792D02*
X171751609Y-45164173D01*
X171751609Y-45164173D02*
X171608752Y-45164173D01*
X171608752Y-45164173D02*
X171418276Y-45211792D01*
X171418276Y-45211792D02*
X171323038Y-45259411D01*
X171323038Y-45259411D02*
X171227800Y-45354649D01*
X171227800Y-45354649D02*
X171180180Y-45497506D01*
X171180180Y-45497506D02*
X171180180Y-45735601D01*
X133732561Y-66459411D02*
X133780180Y-66554649D01*
X133780180Y-66554649D02*
X133780180Y-66697506D01*
X133780180Y-66697506D02*
X133732561Y-66840363D01*
X133732561Y-66840363D02*
X133637323Y-66935601D01*
X133637323Y-66935601D02*
X133542085Y-66983220D01*
X133542085Y-66983220D02*
X133351609Y-67030839D01*
X133351609Y-67030839D02*
X133208752Y-67030839D01*
X133208752Y-67030839D02*
X133018276Y-66983220D01*
X133018276Y-66983220D02*
X132923038Y-66935601D01*
X132923038Y-66935601D02*
X132827800Y-66840363D01*
X132827800Y-66840363D02*
X132780180Y-66697506D01*
X132780180Y-66697506D02*
X132780180Y-66602268D01*
X132780180Y-66602268D02*
X132827800Y-66459411D01*
X132827800Y-66459411D02*
X132875419Y-66411792D01*
X132875419Y-66411792D02*
X133208752Y-66411792D01*
X133208752Y-66411792D02*
X133208752Y-66602268D01*
X132780180Y-65983220D02*
X133780180Y-65983220D01*
X133780180Y-65983220D02*
X132780180Y-65411792D01*
X132780180Y-65411792D02*
X133780180Y-65411792D01*
X132780180Y-64935601D02*
X133780180Y-64935601D01*
X133780180Y-64935601D02*
X133780180Y-64697506D01*
X133780180Y-64697506D02*
X133732561Y-64554649D01*
X133732561Y-64554649D02*
X133637323Y-64459411D01*
X133637323Y-64459411D02*
X133542085Y-64411792D01*
X133542085Y-64411792D02*
X133351609Y-64364173D01*
X133351609Y-64364173D02*
X133208752Y-64364173D01*
X133208752Y-64364173D02*
X133018276Y-64411792D01*
X133018276Y-64411792D02*
X132923038Y-64459411D01*
X132923038Y-64459411D02*
X132827800Y-64554649D01*
X132827800Y-64554649D02*
X132780180Y-64697506D01*
X132780180Y-64697506D02*
X132780180Y-64935601D01*
X112484942Y-124630839D02*
X112532561Y-124583220D01*
X112532561Y-124583220D02*
X112580180Y-124487982D01*
X112580180Y-124487982D02*
X112580180Y-124249887D01*
X112580180Y-124249887D02*
X112532561Y-124154649D01*
X112532561Y-124154649D02*
X112484942Y-124107030D01*
X112484942Y-124107030D02*
X112389704Y-124059411D01*
X112389704Y-124059411D02*
X112294466Y-124059411D01*
X112294466Y-124059411D02*
X112151609Y-124107030D01*
X112151609Y-124107030D02*
X111580180Y-124678458D01*
X111580180Y-124678458D02*
X111580180Y-124059411D01*
X112246847Y-123202268D02*
X111580180Y-123202268D01*
X112627800Y-123440363D02*
X111913514Y-123678458D01*
X111913514Y-123678458D02*
X111913514Y-123059411D01*
X112580180Y-122821315D02*
X111580180Y-122487982D01*
X111580180Y-122487982D02*
X112580180Y-122154649D01*
X147980180Y-47783220D02*
X148980180Y-47783220D01*
X148980180Y-47783220D02*
X148980180Y-47402268D01*
X148980180Y-47402268D02*
X148932561Y-47307030D01*
X148932561Y-47307030D02*
X148884942Y-47259411D01*
X148884942Y-47259411D02*
X148789704Y-47211792D01*
X148789704Y-47211792D02*
X148646847Y-47211792D01*
X148646847Y-47211792D02*
X148551609Y-47259411D01*
X148551609Y-47259411D02*
X148503990Y-47307030D01*
X148503990Y-47307030D02*
X148456371Y-47402268D01*
X148456371Y-47402268D02*
X148456371Y-47783220D01*
X148980180Y-46878458D02*
X147980180Y-46640363D01*
X147980180Y-46640363D02*
X148694466Y-46449887D01*
X148694466Y-46449887D02*
X147980180Y-46259411D01*
X147980180Y-46259411D02*
X148980180Y-46021316D01*
X147980180Y-45640363D02*
X148980180Y-45640363D01*
X148980180Y-45640363D02*
X148265895Y-45307030D01*
X148265895Y-45307030D02*
X148980180Y-44973697D01*
X148980180Y-44973697D02*
X147980180Y-44973697D01*
%LPC*%
D11*
X169650000Y-127200000D03*
X167650000Y-108000000D03*
X167650000Y-88800000D03*
X114050000Y-88800000D03*
X148450000Y-108000000D03*
X110050000Y-127200000D03*
X133250000Y-108000000D03*
X148450000Y-127200000D03*
X171650000Y-88800000D03*
X150450000Y-127200000D03*
X171650000Y-69600000D03*
X112050000Y-50400000D03*
X186850000Y-127200000D03*
X133250000Y-69600000D03*
X188850000Y-69600000D03*
X169650000Y-88800000D03*
X114050000Y-50400000D03*
X112050000Y-88800000D03*
X188850000Y-127200000D03*
X110050000Y-50400000D03*
X152450000Y-69600000D03*
X131250000Y-69600000D03*
X110050000Y-69600000D03*
X190850000Y-108000000D03*
X190850000Y-69600000D03*
X190850000Y-88800000D03*
X148450000Y-69600000D03*
X188850000Y-50400000D03*
X171650000Y-108000000D03*
X131250000Y-127200000D03*
X112050000Y-69600000D03*
X167650000Y-127200000D03*
X131250000Y-88800000D03*
X133250000Y-50400000D03*
X110050000Y-108000000D03*
X148450000Y-88800000D03*
X188850000Y-88800000D03*
X186850000Y-88800000D03*
X150450000Y-50400000D03*
X186850000Y-108000000D03*
X133250000Y-127200000D03*
X190850000Y-50400000D03*
X131250000Y-50400000D03*
X129250000Y-50400000D03*
X129250000Y-127200000D03*
X129250000Y-69600000D03*
X129250000Y-108000000D03*
X148450000Y-50400000D03*
X150450000Y-108000000D03*
X112050000Y-108000000D03*
X169650000Y-50400000D03*
X171650000Y-50400000D03*
X152450000Y-88800000D03*
X150450000Y-88800000D03*
X114050000Y-69600000D03*
X167650000Y-69600000D03*
X129250000Y-88800000D03*
X190850000Y-127200000D03*
X169650000Y-69600000D03*
X152450000Y-127200000D03*
X110050000Y-88800000D03*
X114050000Y-127200000D03*
X114050000Y-108000000D03*
X186850000Y-50400000D03*
X186850000Y-69600000D03*
X112050000Y-127200000D03*
X152450000Y-50400000D03*
X133250000Y-88800000D03*
X171650000Y-127200000D03*
X169650000Y-108000000D03*
X152450000Y-108000000D03*
X131250000Y-108000000D03*
X188850000Y-108000000D03*
X150450000Y-69600000D03*
X167650000Y-50400000D03*
%LPD*%
M02*
