G04 #@! TF.GenerationSoftware,KiCad,Pcbnew,7.0.9*
G04 #@! TF.CreationDate,2024-01-01T14:03:07+01:00*
G04 #@! TF.ProjectId,Nutzen,4e75747a-656e-42e6-9b69-6361645f7063,rev?*
G04 #@! TF.SameCoordinates,Original*
G04 #@! TF.FileFunction,Paste,Top*
G04 #@! TF.FilePolarity,Positive*
%FSLAX46Y46*%
G04 Gerber Fmt 4.6, Leading zero omitted, Abs format (unit mm)*
G04 Created by KiCad (PCBNEW 7.0.9) date 2024-01-01 14:03:07*
%MOMM*%
%LPD*%
G01*
G04 APERTURE LIST*
%ADD10C,2.000000*%
G04 APERTURE END LIST*
D10*
X126050000Y-48100000D03*
X136450000Y-67300000D03*
X136450000Y-86500000D03*
X131250000Y-115900000D03*
X117250000Y-86500000D03*
X131250000Y-58300000D03*
X183650000Y-67300000D03*
X155650000Y-124900000D03*
X174850000Y-105700000D03*
X145250000Y-86500000D03*
X136450000Y-105700000D03*
X188850000Y-39100000D03*
X164450000Y-124900000D03*
X174850000Y-124900000D03*
X131250000Y-39100000D03*
X169650000Y-96700000D03*
X188850000Y-58300000D03*
X150450000Y-115900000D03*
X164450000Y-67300000D03*
X194050000Y-67300000D03*
X174850000Y-48100000D03*
X194050000Y-48100000D03*
X183650000Y-48100000D03*
X126050000Y-86500000D03*
X194050000Y-86500000D03*
X150450000Y-39100000D03*
X150450000Y-58300000D03*
X112050000Y-96700000D03*
X126050000Y-67300000D03*
X155650000Y-48100000D03*
X112050000Y-58300000D03*
X106850000Y-105700000D03*
X112050000Y-39100000D03*
X131250000Y-77500000D03*
X126050000Y-105700000D03*
X164450000Y-86500000D03*
X188850000Y-96700000D03*
X117250000Y-67300000D03*
X183650000Y-86500000D03*
X155650000Y-86500000D03*
X164450000Y-48100000D03*
X174850000Y-86500000D03*
X155650000Y-105700000D03*
X155650000Y-67300000D03*
X194050000Y-105700000D03*
X169650000Y-115900000D03*
X164450000Y-105700000D03*
X169650000Y-39100000D03*
X150450000Y-96700000D03*
X145250000Y-124900000D03*
X117250000Y-124900000D03*
X117250000Y-105700000D03*
X112050000Y-115900000D03*
X117250000Y-48100000D03*
X194050000Y-124900000D03*
X183650000Y-105700000D03*
X112050000Y-77500000D03*
X188850000Y-115900000D03*
X145250000Y-105700000D03*
X131250000Y-96700000D03*
X126050000Y-124900000D03*
X169650000Y-58300000D03*
X183650000Y-124900000D03*
X169650000Y-77500000D03*
X106850000Y-124900000D03*
X145250000Y-48100000D03*
X106850000Y-48100000D03*
X188850000Y-77500000D03*
X136450000Y-48100000D03*
X145250000Y-67300000D03*
X106850000Y-86500000D03*
X150450000Y-77500000D03*
X174850000Y-67300000D03*
X106850000Y-67300000D03*
X136450000Y-124900000D03*
M02*
