%TF.GenerationSoftware,KiCad,Pcbnew,7.0.9*%
%TF.CreationDate,2024-01-01T14:04:10+01:00*%
%TF.ProjectId,Nutzen,4e75747a-656e-42e6-9b69-6361645f7063,rev?*%
%TF.SameCoordinates,Original*%
%TF.FileFunction,Drillmap*%
%TF.FilePolarity,Positive*%
%FSLAX45Y45*%
G04 Gerber Fmt 4.5, Leading zero omitted, Abs format (unit mm)*
G04 Created by KiCad (PCBNEW 7.0.9) date 2024-01-01 14:04:10*
%MOMM*%
%LPD*%
G01*
G04 APERTURE LIST*
%ADD10C,0.100000*%
%ADD11C,0.200000*%
G04 APERTURE END LIST*
D10*
X17925000Y-5470000D02*
X19845000Y-5470000D01*
X19845000Y-7390000D01*
X17925000Y-7390000D01*
X17925000Y-5470000D01*
X12165000Y-3550000D02*
X14085000Y-3550000D01*
X14085000Y-5470000D01*
X12165000Y-5470000D01*
X12165000Y-3550000D01*
X17925000Y-7390000D02*
X19845000Y-7390000D01*
X19845000Y-9310000D01*
X17925000Y-9310000D01*
X17925000Y-7390000D01*
X12165000Y-9310000D02*
X14085000Y-9310000D01*
X14085000Y-11230000D01*
X12165000Y-11230000D01*
X12165000Y-9310000D01*
X12165000Y-5470000D02*
X14085000Y-5470000D01*
X14085000Y-7390000D01*
X12165000Y-7390000D01*
X12165000Y-5470000D01*
X14085000Y-9310000D02*
X16005000Y-9310000D01*
X16005000Y-11230000D01*
X14085000Y-11230000D01*
X14085000Y-9310000D01*
X14085000Y-5470000D02*
X16005000Y-5470000D01*
X16005000Y-7390000D01*
X14085000Y-7390000D01*
X14085000Y-5470000D01*
X10245000Y-5470000D02*
X12165000Y-5470000D01*
X12165000Y-7390000D01*
X10245000Y-7390000D01*
X10245000Y-5470000D01*
X16005000Y-7390000D02*
X17925000Y-7390000D01*
X17925000Y-9310000D01*
X16005000Y-9310000D01*
X16005000Y-7390000D01*
X10245000Y-3550000D02*
X12165000Y-3550000D01*
X12165000Y-5470000D01*
X10245000Y-5470000D01*
X10245000Y-3550000D01*
X17925000Y-9310000D02*
X19845000Y-9310000D01*
X19845000Y-11230000D01*
X17925000Y-11230000D01*
X17925000Y-9310000D01*
X14085000Y-11230000D02*
X16005000Y-11230000D01*
X16005000Y-13150000D01*
X14085000Y-13150000D01*
X14085000Y-11230000D01*
X14085000Y-7390000D02*
X16005000Y-7390000D01*
X16005000Y-9310000D01*
X14085000Y-9310000D01*
X14085000Y-7390000D01*
X16005000Y-11230000D02*
X17925000Y-11230000D01*
X17925000Y-13150000D01*
X16005000Y-13150000D01*
X16005000Y-11230000D01*
X10245000Y-9310000D02*
X12165000Y-9310000D01*
X12165000Y-11230000D01*
X10245000Y-11230000D01*
X10245000Y-9310000D01*
X16005000Y-3550000D02*
X17925000Y-3550000D01*
X17925000Y-5470000D01*
X16005000Y-5470000D01*
X16005000Y-3550000D01*
X16005000Y-9310000D02*
X17925000Y-9310000D01*
X17925000Y-11230000D01*
X16005000Y-11230000D01*
X16005000Y-9310000D01*
X16005000Y-5470000D02*
X17925000Y-5470000D01*
X17925000Y-7390000D01*
X16005000Y-7390000D01*
X16005000Y-5470000D01*
X17925000Y-11230000D02*
X19845000Y-11230000D01*
X19845000Y-13150000D01*
X17925000Y-13150000D01*
X17925000Y-11230000D01*
X10245000Y-7390000D02*
X12165000Y-7390000D01*
X12165000Y-9310000D01*
X10245000Y-9310000D01*
X10245000Y-7390000D01*
X12165000Y-11230000D02*
X14085000Y-11230000D01*
X14085000Y-13150000D01*
X12165000Y-13150000D01*
X12165000Y-11230000D01*
X14085000Y-3550000D02*
X16005000Y-3550000D01*
X16005000Y-5470000D01*
X14085000Y-5470000D01*
X14085000Y-3550000D01*
X12165000Y-7390000D02*
X14085000Y-7390000D01*
X14085000Y-9310000D01*
X12165000Y-9310000D01*
X12165000Y-7390000D01*
X10245000Y-11230000D02*
X12165000Y-11230000D01*
X12165000Y-13150000D01*
X10245000Y-13150000D01*
X10245000Y-11230000D01*
X17925000Y-3550000D02*
X19845000Y-3550000D01*
X19845000Y-5470000D01*
X17925000Y-5470000D01*
X17925000Y-3550000D01*
D11*
D10*
X10460000Y-4790000D02*
X10500000Y-4830000D01*
X10500000Y-4790000D02*
X10460000Y-4830000D01*
X10460000Y-6710000D02*
X10500000Y-6750000D01*
X10500000Y-6710000D02*
X10460000Y-6750000D01*
X10460000Y-8630000D02*
X10500000Y-8670000D01*
X10500000Y-8630000D02*
X10460000Y-8670000D01*
X10460000Y-10550000D02*
X10500000Y-10590000D01*
X10500000Y-10550000D02*
X10460000Y-10590000D01*
X10460000Y-12470000D02*
X10500000Y-12510000D01*
X10500000Y-12470000D02*
X10460000Y-12510000D01*
X10515000Y-4645000D02*
X10555000Y-4685000D01*
X10555000Y-4645000D02*
X10515000Y-4685000D01*
X10515000Y-6565000D02*
X10555000Y-6605000D01*
X10555000Y-6565000D02*
X10515000Y-6605000D01*
X10515000Y-8485000D02*
X10555000Y-8525000D01*
X10555000Y-8485000D02*
X10515000Y-8525000D01*
X10515000Y-10405000D02*
X10555000Y-10445000D01*
X10555000Y-10405000D02*
X10515000Y-10445000D01*
X10515000Y-12325000D02*
X10555000Y-12365000D01*
X10555000Y-12325000D02*
X10515000Y-12365000D01*
X10525000Y-4940000D02*
X10565000Y-4980000D01*
X10565000Y-4940000D02*
X10525000Y-4980000D01*
X10525000Y-6860000D02*
X10565000Y-6900000D01*
X10565000Y-6860000D02*
X10525000Y-6900000D01*
X10525000Y-8780000D02*
X10565000Y-8820000D01*
X10565000Y-8780000D02*
X10525000Y-8820000D01*
X10525000Y-10700000D02*
X10565000Y-10740000D01*
X10565000Y-10700000D02*
X10525000Y-10740000D01*
X10525000Y-12620000D02*
X10565000Y-12660000D01*
X10565000Y-12620000D02*
X10525000Y-12660000D01*
X10665000Y-4580000D02*
X10705000Y-4620000D01*
X10705000Y-4580000D02*
X10665000Y-4620000D01*
X10665000Y-4990000D02*
X10705000Y-5030000D01*
X10705000Y-4990000D02*
X10665000Y-5030000D01*
X10665000Y-6500000D02*
X10705000Y-6540000D01*
X10705000Y-6500000D02*
X10665000Y-6540000D01*
X10665000Y-6910000D02*
X10705000Y-6950000D01*
X10705000Y-6910000D02*
X10665000Y-6950000D01*
X10665000Y-8420000D02*
X10705000Y-8460000D01*
X10705000Y-8420000D02*
X10665000Y-8460000D01*
X10665000Y-8830000D02*
X10705000Y-8870000D01*
X10705000Y-8830000D02*
X10665000Y-8870000D01*
X10665000Y-10340000D02*
X10705000Y-10380000D01*
X10705000Y-10340000D02*
X10665000Y-10380000D01*
X10665000Y-10750000D02*
X10705000Y-10790000D01*
X10705000Y-10750000D02*
X10665000Y-10790000D01*
X10665000Y-12260000D02*
X10705000Y-12300000D01*
X10705000Y-12260000D02*
X10665000Y-12300000D01*
X10665000Y-12670000D02*
X10705000Y-12710000D01*
X10705000Y-12670000D02*
X10665000Y-12710000D01*
X10810000Y-4935000D02*
X10850000Y-4975000D01*
X10850000Y-4935000D02*
X10810000Y-4975000D01*
X10810000Y-6855000D02*
X10850000Y-6895000D01*
X10850000Y-6855000D02*
X10810000Y-6895000D01*
X10810000Y-8775000D02*
X10850000Y-8815000D01*
X10850000Y-8775000D02*
X10810000Y-8815000D01*
X10810000Y-10695000D02*
X10850000Y-10735000D01*
X10850000Y-10695000D02*
X10810000Y-10735000D01*
X10810000Y-12615000D02*
X10850000Y-12655000D01*
X10850000Y-12615000D02*
X10810000Y-12655000D01*
X10815000Y-4650000D02*
X10855000Y-4690000D01*
X10855000Y-4650000D02*
X10815000Y-4690000D01*
X10815000Y-6570000D02*
X10855000Y-6610000D01*
X10855000Y-6570000D02*
X10815000Y-6610000D01*
X10815000Y-8490000D02*
X10855000Y-8530000D01*
X10855000Y-8490000D02*
X10815000Y-8530000D01*
X10815000Y-10410000D02*
X10855000Y-10450000D01*
X10855000Y-10410000D02*
X10815000Y-10450000D01*
X10815000Y-12330000D02*
X10855000Y-12370000D01*
X10855000Y-12330000D02*
X10815000Y-12370000D01*
X10870000Y-4780000D02*
X10910000Y-4820000D01*
X10910000Y-4780000D02*
X10870000Y-4820000D01*
X10870000Y-6700000D02*
X10910000Y-6740000D01*
X10910000Y-6700000D02*
X10870000Y-6740000D01*
X10870000Y-8620000D02*
X10910000Y-8660000D01*
X10910000Y-8620000D02*
X10870000Y-8660000D01*
X10870000Y-10540000D02*
X10910000Y-10580000D01*
X10910000Y-10540000D02*
X10870000Y-10580000D01*
X10870000Y-12460000D02*
X10910000Y-12500000D01*
X10910000Y-12460000D02*
X10870000Y-12500000D01*
X10980000Y-3890000D02*
X11020000Y-3930000D01*
X11020000Y-3890000D02*
X10980000Y-3930000D01*
X10980000Y-5810000D02*
X11020000Y-5850000D01*
X11020000Y-5810000D02*
X10980000Y-5850000D01*
X10980000Y-7730000D02*
X11020000Y-7770000D01*
X11020000Y-7730000D02*
X10980000Y-7770000D01*
X10980000Y-9650000D02*
X11020000Y-9690000D01*
X11020000Y-9650000D02*
X10980000Y-9690000D01*
X10980000Y-11570000D02*
X11020000Y-11610000D01*
X11020000Y-11570000D02*
X10980000Y-11610000D01*
X10985000Y-4865000D02*
X11025000Y-4905000D01*
X11025000Y-4865000D02*
X10985000Y-4905000D01*
X10985000Y-5175000D02*
X11025000Y-5215000D01*
X11025000Y-5175000D02*
X10985000Y-5215000D01*
X10985000Y-6785000D02*
X11025000Y-6825000D01*
X11025000Y-6785000D02*
X10985000Y-6825000D01*
X10985000Y-7095000D02*
X11025000Y-7135000D01*
X11025000Y-7095000D02*
X10985000Y-7135000D01*
X10985000Y-8705000D02*
X11025000Y-8745000D01*
X11025000Y-8705000D02*
X10985000Y-8745000D01*
X10985000Y-9015000D02*
X11025000Y-9055000D01*
X11025000Y-9015000D02*
X10985000Y-9055000D01*
X10985000Y-10625000D02*
X11025000Y-10665000D01*
X11025000Y-10625000D02*
X10985000Y-10665000D01*
X10985000Y-10935000D02*
X11025000Y-10975000D01*
X11025000Y-10935000D02*
X10985000Y-10975000D01*
X10985000Y-12545000D02*
X11025000Y-12585000D01*
X11025000Y-12545000D02*
X10985000Y-12585000D01*
X10985000Y-12855000D02*
X11025000Y-12895000D01*
X11025000Y-12855000D02*
X10985000Y-12895000D01*
X11035000Y-3745000D02*
X11075000Y-3785000D01*
X11075000Y-3745000D02*
X11035000Y-3785000D01*
X11035000Y-5665000D02*
X11075000Y-5705000D01*
X11075000Y-5665000D02*
X11035000Y-5705000D01*
X11035000Y-7585000D02*
X11075000Y-7625000D01*
X11075000Y-7585000D02*
X11035000Y-7625000D01*
X11035000Y-9505000D02*
X11075000Y-9545000D01*
X11075000Y-9505000D02*
X11035000Y-9545000D01*
X11035000Y-11425000D02*
X11075000Y-11465000D01*
X11075000Y-11425000D02*
X11035000Y-11465000D01*
X11045000Y-4040000D02*
X11085000Y-4080000D01*
X11085000Y-4040000D02*
X11045000Y-4080000D01*
X11045000Y-5960000D02*
X11085000Y-6000000D01*
X11085000Y-5960000D02*
X11045000Y-6000000D01*
X11045000Y-7880000D02*
X11085000Y-7920000D01*
X11085000Y-7880000D02*
X11045000Y-7920000D01*
X11045000Y-9800000D02*
X11085000Y-9840000D01*
X11085000Y-9800000D02*
X11045000Y-9840000D01*
X11045000Y-11720000D02*
X11085000Y-11760000D01*
X11085000Y-11720000D02*
X11045000Y-11760000D01*
X11185000Y-3680000D02*
X11225000Y-3720000D01*
X11225000Y-3680000D02*
X11185000Y-3720000D01*
X11185000Y-4090000D02*
X11225000Y-4130000D01*
X11225000Y-4090000D02*
X11185000Y-4130000D01*
X11185000Y-4865000D02*
X11225000Y-4905000D01*
X11225000Y-4865000D02*
X11185000Y-4905000D01*
X11185000Y-5185000D02*
X11225000Y-5225000D01*
X11225000Y-5185000D02*
X11185000Y-5225000D01*
X11185000Y-5600000D02*
X11225000Y-5640000D01*
X11225000Y-5600000D02*
X11185000Y-5640000D01*
X11185000Y-6010000D02*
X11225000Y-6050000D01*
X11225000Y-6010000D02*
X11185000Y-6050000D01*
X11185000Y-6785000D02*
X11225000Y-6825000D01*
X11225000Y-6785000D02*
X11185000Y-6825000D01*
X11185000Y-7105000D02*
X11225000Y-7145000D01*
X11225000Y-7105000D02*
X11185000Y-7145000D01*
X11185000Y-7520000D02*
X11225000Y-7560000D01*
X11225000Y-7520000D02*
X11185000Y-7560000D01*
X11185000Y-7930000D02*
X11225000Y-7970000D01*
X11225000Y-7930000D02*
X11185000Y-7970000D01*
X11185000Y-8705000D02*
X11225000Y-8745000D01*
X11225000Y-8705000D02*
X11185000Y-8745000D01*
X11185000Y-9025000D02*
X11225000Y-9065000D01*
X11225000Y-9025000D02*
X11185000Y-9065000D01*
X11185000Y-9440000D02*
X11225000Y-9480000D01*
X11225000Y-9440000D02*
X11185000Y-9480000D01*
X11185000Y-9850000D02*
X11225000Y-9890000D01*
X11225000Y-9850000D02*
X11185000Y-9890000D01*
X11185000Y-10625000D02*
X11225000Y-10665000D01*
X11225000Y-10625000D02*
X11185000Y-10665000D01*
X11185000Y-10945000D02*
X11225000Y-10985000D01*
X11225000Y-10945000D02*
X11185000Y-10985000D01*
X11185000Y-11360000D02*
X11225000Y-11400000D01*
X11225000Y-11360000D02*
X11185000Y-11400000D01*
X11185000Y-11770000D02*
X11225000Y-11810000D01*
X11225000Y-11770000D02*
X11185000Y-11810000D01*
X11185000Y-12545000D02*
X11225000Y-12585000D01*
X11225000Y-12545000D02*
X11185000Y-12585000D01*
X11185000Y-12865000D02*
X11225000Y-12905000D01*
X11225000Y-12865000D02*
X11185000Y-12905000D01*
X11330000Y-4035000D02*
X11370000Y-4075000D01*
X11370000Y-4035000D02*
X11330000Y-4075000D01*
X11330000Y-5955000D02*
X11370000Y-5995000D01*
X11370000Y-5955000D02*
X11330000Y-5995000D01*
X11330000Y-7875000D02*
X11370000Y-7915000D01*
X11370000Y-7875000D02*
X11330000Y-7915000D01*
X11330000Y-9795000D02*
X11370000Y-9835000D01*
X11370000Y-9795000D02*
X11330000Y-9835000D01*
X11330000Y-11715000D02*
X11370000Y-11755000D01*
X11370000Y-11715000D02*
X11330000Y-11755000D01*
X11335000Y-3750000D02*
X11375000Y-3790000D01*
X11375000Y-3750000D02*
X11335000Y-3790000D01*
X11335000Y-5670000D02*
X11375000Y-5710000D01*
X11375000Y-5670000D02*
X11335000Y-5710000D01*
X11335000Y-7590000D02*
X11375000Y-7630000D01*
X11375000Y-7590000D02*
X11335000Y-7630000D01*
X11335000Y-9510000D02*
X11375000Y-9550000D01*
X11375000Y-9510000D02*
X11335000Y-9550000D01*
X11335000Y-11430000D02*
X11375000Y-11470000D01*
X11375000Y-11430000D02*
X11335000Y-11470000D01*
X11385000Y-5190000D02*
X11425000Y-5230000D01*
X11425000Y-5190000D02*
X11385000Y-5230000D01*
X11385000Y-7110000D02*
X11425000Y-7150000D01*
X11425000Y-7110000D02*
X11385000Y-7150000D01*
X11385000Y-9030000D02*
X11425000Y-9070000D01*
X11425000Y-9030000D02*
X11385000Y-9070000D01*
X11385000Y-10950000D02*
X11425000Y-10990000D01*
X11425000Y-10950000D02*
X11385000Y-10990000D01*
X11385000Y-12870000D02*
X11425000Y-12910000D01*
X11425000Y-12870000D02*
X11385000Y-12910000D01*
X11390000Y-3880000D02*
X11430000Y-3920000D01*
X11430000Y-3880000D02*
X11390000Y-3920000D01*
X11390000Y-4870000D02*
X11430000Y-4910000D01*
X11430000Y-4870000D02*
X11390000Y-4910000D01*
X11390000Y-5800000D02*
X11430000Y-5840000D01*
X11430000Y-5800000D02*
X11390000Y-5840000D01*
X11390000Y-6790000D02*
X11430000Y-6830000D01*
X11430000Y-6790000D02*
X11390000Y-6830000D01*
X11390000Y-7720000D02*
X11430000Y-7760000D01*
X11430000Y-7720000D02*
X11390000Y-7760000D01*
X11390000Y-8710000D02*
X11430000Y-8750000D01*
X11430000Y-8710000D02*
X11390000Y-8750000D01*
X11390000Y-9640000D02*
X11430000Y-9680000D01*
X11430000Y-9640000D02*
X11390000Y-9680000D01*
X11390000Y-10630000D02*
X11430000Y-10670000D01*
X11430000Y-10630000D02*
X11390000Y-10670000D01*
X11390000Y-11560000D02*
X11430000Y-11600000D01*
X11430000Y-11560000D02*
X11390000Y-11600000D01*
X11390000Y-12550000D02*
X11430000Y-12590000D01*
X11430000Y-12550000D02*
X11390000Y-12590000D01*
X11500000Y-4790000D02*
X11540000Y-4830000D01*
X11540000Y-4790000D02*
X11500000Y-4830000D01*
X11500000Y-6710000D02*
X11540000Y-6750000D01*
X11540000Y-6710000D02*
X11500000Y-6750000D01*
X11500000Y-8630000D02*
X11540000Y-8670000D01*
X11540000Y-8630000D02*
X11500000Y-8670000D01*
X11500000Y-10550000D02*
X11540000Y-10590000D01*
X11540000Y-10550000D02*
X11500000Y-10590000D01*
X11500000Y-12470000D02*
X11540000Y-12510000D01*
X11540000Y-12470000D02*
X11500000Y-12510000D01*
X11555000Y-4645000D02*
X11595000Y-4685000D01*
X11595000Y-4645000D02*
X11555000Y-4685000D01*
X11555000Y-6565000D02*
X11595000Y-6605000D01*
X11595000Y-6565000D02*
X11555000Y-6605000D01*
X11555000Y-8485000D02*
X11595000Y-8525000D01*
X11595000Y-8485000D02*
X11555000Y-8525000D01*
X11555000Y-10405000D02*
X11595000Y-10445000D01*
X11595000Y-10405000D02*
X11555000Y-10445000D01*
X11555000Y-12325000D02*
X11595000Y-12365000D01*
X11595000Y-12325000D02*
X11555000Y-12365000D01*
X11565000Y-4940000D02*
X11605000Y-4980000D01*
X11605000Y-4940000D02*
X11565000Y-4980000D01*
X11565000Y-6860000D02*
X11605000Y-6900000D01*
X11605000Y-6860000D02*
X11565000Y-6900000D01*
X11565000Y-8780000D02*
X11605000Y-8820000D01*
X11605000Y-8780000D02*
X11565000Y-8820000D01*
X11565000Y-10700000D02*
X11605000Y-10740000D01*
X11605000Y-10700000D02*
X11565000Y-10740000D01*
X11565000Y-12620000D02*
X11605000Y-12660000D01*
X11605000Y-12620000D02*
X11565000Y-12660000D01*
X11705000Y-4580000D02*
X11745000Y-4620000D01*
X11745000Y-4580000D02*
X11705000Y-4620000D01*
X11705000Y-4990000D02*
X11745000Y-5030000D01*
X11745000Y-4990000D02*
X11705000Y-5030000D01*
X11705000Y-6500000D02*
X11745000Y-6540000D01*
X11745000Y-6500000D02*
X11705000Y-6540000D01*
X11705000Y-6910000D02*
X11745000Y-6950000D01*
X11745000Y-6910000D02*
X11705000Y-6950000D01*
X11705000Y-8420000D02*
X11745000Y-8460000D01*
X11745000Y-8420000D02*
X11705000Y-8460000D01*
X11705000Y-8830000D02*
X11745000Y-8870000D01*
X11745000Y-8830000D02*
X11705000Y-8870000D01*
X11705000Y-10340000D02*
X11745000Y-10380000D01*
X11745000Y-10340000D02*
X11705000Y-10380000D01*
X11705000Y-10750000D02*
X11745000Y-10790000D01*
X11745000Y-10750000D02*
X11705000Y-10790000D01*
X11705000Y-12260000D02*
X11745000Y-12300000D01*
X11745000Y-12260000D02*
X11705000Y-12300000D01*
X11705000Y-12670000D02*
X11745000Y-12710000D01*
X11745000Y-12670000D02*
X11705000Y-12710000D01*
X11850000Y-4935000D02*
X11890000Y-4975000D01*
X11890000Y-4935000D02*
X11850000Y-4975000D01*
X11850000Y-6855000D02*
X11890000Y-6895000D01*
X11890000Y-6855000D02*
X11850000Y-6895000D01*
X11850000Y-8775000D02*
X11890000Y-8815000D01*
X11890000Y-8775000D02*
X11850000Y-8815000D01*
X11850000Y-10695000D02*
X11890000Y-10735000D01*
X11890000Y-10695000D02*
X11850000Y-10735000D01*
X11850000Y-12615000D02*
X11890000Y-12655000D01*
X11890000Y-12615000D02*
X11850000Y-12655000D01*
X11855000Y-4650000D02*
X11895000Y-4690000D01*
X11895000Y-4650000D02*
X11855000Y-4690000D01*
X11855000Y-6570000D02*
X11895000Y-6610000D01*
X11895000Y-6570000D02*
X11855000Y-6610000D01*
X11855000Y-8490000D02*
X11895000Y-8530000D01*
X11895000Y-8490000D02*
X11855000Y-8530000D01*
X11855000Y-10410000D02*
X11895000Y-10450000D01*
X11895000Y-10410000D02*
X11855000Y-10450000D01*
X11855000Y-12330000D02*
X11895000Y-12370000D01*
X11895000Y-12330000D02*
X11855000Y-12370000D01*
X11910000Y-4780000D02*
X11950000Y-4820000D01*
X11950000Y-4780000D02*
X11910000Y-4820000D01*
X11910000Y-6700000D02*
X11950000Y-6740000D01*
X11950000Y-6700000D02*
X11910000Y-6740000D01*
X11910000Y-8620000D02*
X11950000Y-8660000D01*
X11950000Y-8620000D02*
X11910000Y-8660000D01*
X11910000Y-10540000D02*
X11950000Y-10580000D01*
X11950000Y-10540000D02*
X11910000Y-10580000D01*
X11910000Y-12460000D02*
X11950000Y-12500000D01*
X11950000Y-12460000D02*
X11910000Y-12500000D01*
X12380000Y-4790000D02*
X12420000Y-4830000D01*
X12420000Y-4790000D02*
X12380000Y-4830000D01*
X12380000Y-6710000D02*
X12420000Y-6750000D01*
X12420000Y-6710000D02*
X12380000Y-6750000D01*
X12380000Y-8630000D02*
X12420000Y-8670000D01*
X12420000Y-8630000D02*
X12380000Y-8670000D01*
X12380000Y-10550000D02*
X12420000Y-10590000D01*
X12420000Y-10550000D02*
X12380000Y-10590000D01*
X12380000Y-12470000D02*
X12420000Y-12510000D01*
X12420000Y-12470000D02*
X12380000Y-12510000D01*
X12435000Y-4645000D02*
X12475000Y-4685000D01*
X12475000Y-4645000D02*
X12435000Y-4685000D01*
X12435000Y-6565000D02*
X12475000Y-6605000D01*
X12475000Y-6565000D02*
X12435000Y-6605000D01*
X12435000Y-8485000D02*
X12475000Y-8525000D01*
X12475000Y-8485000D02*
X12435000Y-8525000D01*
X12435000Y-10405000D02*
X12475000Y-10445000D01*
X12475000Y-10405000D02*
X12435000Y-10445000D01*
X12435000Y-12325000D02*
X12475000Y-12365000D01*
X12475000Y-12325000D02*
X12435000Y-12365000D01*
X12445000Y-4940000D02*
X12485000Y-4980000D01*
X12485000Y-4940000D02*
X12445000Y-4980000D01*
X12445000Y-6860000D02*
X12485000Y-6900000D01*
X12485000Y-6860000D02*
X12445000Y-6900000D01*
X12445000Y-8780000D02*
X12485000Y-8820000D01*
X12485000Y-8780000D02*
X12445000Y-8820000D01*
X12445000Y-10700000D02*
X12485000Y-10740000D01*
X12485000Y-10700000D02*
X12445000Y-10740000D01*
X12445000Y-12620000D02*
X12485000Y-12660000D01*
X12485000Y-12620000D02*
X12445000Y-12660000D01*
X12585000Y-4580000D02*
X12625000Y-4620000D01*
X12625000Y-4580000D02*
X12585000Y-4620000D01*
X12585000Y-4990000D02*
X12625000Y-5030000D01*
X12625000Y-4990000D02*
X12585000Y-5030000D01*
X12585000Y-6500000D02*
X12625000Y-6540000D01*
X12625000Y-6500000D02*
X12585000Y-6540000D01*
X12585000Y-6910000D02*
X12625000Y-6950000D01*
X12625000Y-6910000D02*
X12585000Y-6950000D01*
X12585000Y-8420000D02*
X12625000Y-8460000D01*
X12625000Y-8420000D02*
X12585000Y-8460000D01*
X12585000Y-8830000D02*
X12625000Y-8870000D01*
X12625000Y-8830000D02*
X12585000Y-8870000D01*
X12585000Y-10340000D02*
X12625000Y-10380000D01*
X12625000Y-10340000D02*
X12585000Y-10380000D01*
X12585000Y-10750000D02*
X12625000Y-10790000D01*
X12625000Y-10750000D02*
X12585000Y-10790000D01*
X12585000Y-12260000D02*
X12625000Y-12300000D01*
X12625000Y-12260000D02*
X12585000Y-12300000D01*
X12585000Y-12670000D02*
X12625000Y-12710000D01*
X12625000Y-12670000D02*
X12585000Y-12710000D01*
X12730000Y-4935000D02*
X12770000Y-4975000D01*
X12770000Y-4935000D02*
X12730000Y-4975000D01*
X12730000Y-6855000D02*
X12770000Y-6895000D01*
X12770000Y-6855000D02*
X12730000Y-6895000D01*
X12730000Y-8775000D02*
X12770000Y-8815000D01*
X12770000Y-8775000D02*
X12730000Y-8815000D01*
X12730000Y-10695000D02*
X12770000Y-10735000D01*
X12770000Y-10695000D02*
X12730000Y-10735000D01*
X12730000Y-12615000D02*
X12770000Y-12655000D01*
X12770000Y-12615000D02*
X12730000Y-12655000D01*
X12735000Y-4650000D02*
X12775000Y-4690000D01*
X12775000Y-4650000D02*
X12735000Y-4690000D01*
X12735000Y-6570000D02*
X12775000Y-6610000D01*
X12775000Y-6570000D02*
X12735000Y-6610000D01*
X12735000Y-8490000D02*
X12775000Y-8530000D01*
X12775000Y-8490000D02*
X12735000Y-8530000D01*
X12735000Y-10410000D02*
X12775000Y-10450000D01*
X12775000Y-10410000D02*
X12735000Y-10450000D01*
X12735000Y-12330000D02*
X12775000Y-12370000D01*
X12775000Y-12330000D02*
X12735000Y-12370000D01*
X12790000Y-4780000D02*
X12830000Y-4820000D01*
X12830000Y-4780000D02*
X12790000Y-4820000D01*
X12790000Y-6700000D02*
X12830000Y-6740000D01*
X12830000Y-6700000D02*
X12790000Y-6740000D01*
X12790000Y-8620000D02*
X12830000Y-8660000D01*
X12830000Y-8620000D02*
X12790000Y-8660000D01*
X12790000Y-10540000D02*
X12830000Y-10580000D01*
X12830000Y-10540000D02*
X12790000Y-10580000D01*
X12790000Y-12460000D02*
X12830000Y-12500000D01*
X12830000Y-12460000D02*
X12790000Y-12500000D01*
X12900000Y-3890000D02*
X12940000Y-3930000D01*
X12940000Y-3890000D02*
X12900000Y-3930000D01*
X12900000Y-5810000D02*
X12940000Y-5850000D01*
X12940000Y-5810000D02*
X12900000Y-5850000D01*
X12900000Y-7730000D02*
X12940000Y-7770000D01*
X12940000Y-7730000D02*
X12900000Y-7770000D01*
X12900000Y-9650000D02*
X12940000Y-9690000D01*
X12940000Y-9650000D02*
X12900000Y-9690000D01*
X12900000Y-11570000D02*
X12940000Y-11610000D01*
X12940000Y-11570000D02*
X12900000Y-11610000D01*
X12905000Y-4865000D02*
X12945000Y-4905000D01*
X12945000Y-4865000D02*
X12905000Y-4905000D01*
X12905000Y-5175000D02*
X12945000Y-5215000D01*
X12945000Y-5175000D02*
X12905000Y-5215000D01*
X12905000Y-6785000D02*
X12945000Y-6825000D01*
X12945000Y-6785000D02*
X12905000Y-6825000D01*
X12905000Y-7095000D02*
X12945000Y-7135000D01*
X12945000Y-7095000D02*
X12905000Y-7135000D01*
X12905000Y-8705000D02*
X12945000Y-8745000D01*
X12945000Y-8705000D02*
X12905000Y-8745000D01*
X12905000Y-9015000D02*
X12945000Y-9055000D01*
X12945000Y-9015000D02*
X12905000Y-9055000D01*
X12905000Y-10625000D02*
X12945000Y-10665000D01*
X12945000Y-10625000D02*
X12905000Y-10665000D01*
X12905000Y-10935000D02*
X12945000Y-10975000D01*
X12945000Y-10935000D02*
X12905000Y-10975000D01*
X12905000Y-12545000D02*
X12945000Y-12585000D01*
X12945000Y-12545000D02*
X12905000Y-12585000D01*
X12905000Y-12855000D02*
X12945000Y-12895000D01*
X12945000Y-12855000D02*
X12905000Y-12895000D01*
X12955000Y-3745000D02*
X12995000Y-3785000D01*
X12995000Y-3745000D02*
X12955000Y-3785000D01*
X12955000Y-5665000D02*
X12995000Y-5705000D01*
X12995000Y-5665000D02*
X12955000Y-5705000D01*
X12955000Y-7585000D02*
X12995000Y-7625000D01*
X12995000Y-7585000D02*
X12955000Y-7625000D01*
X12955000Y-9505000D02*
X12995000Y-9545000D01*
X12995000Y-9505000D02*
X12955000Y-9545000D01*
X12955000Y-11425000D02*
X12995000Y-11465000D01*
X12995000Y-11425000D02*
X12955000Y-11465000D01*
X12965000Y-4040000D02*
X13005000Y-4080000D01*
X13005000Y-4040000D02*
X12965000Y-4080000D01*
X12965000Y-5960000D02*
X13005000Y-6000000D01*
X13005000Y-5960000D02*
X12965000Y-6000000D01*
X12965000Y-7880000D02*
X13005000Y-7920000D01*
X13005000Y-7880000D02*
X12965000Y-7920000D01*
X12965000Y-9800000D02*
X13005000Y-9840000D01*
X13005000Y-9800000D02*
X12965000Y-9840000D01*
X12965000Y-11720000D02*
X13005000Y-11760000D01*
X13005000Y-11720000D02*
X12965000Y-11760000D01*
X13105000Y-3680000D02*
X13145000Y-3720000D01*
X13145000Y-3680000D02*
X13105000Y-3720000D01*
X13105000Y-4090000D02*
X13145000Y-4130000D01*
X13145000Y-4090000D02*
X13105000Y-4130000D01*
X13105000Y-4865000D02*
X13145000Y-4905000D01*
X13145000Y-4865000D02*
X13105000Y-4905000D01*
X13105000Y-5185000D02*
X13145000Y-5225000D01*
X13145000Y-5185000D02*
X13105000Y-5225000D01*
X13105000Y-5600000D02*
X13145000Y-5640000D01*
X13145000Y-5600000D02*
X13105000Y-5640000D01*
X13105000Y-6010000D02*
X13145000Y-6050000D01*
X13145000Y-6010000D02*
X13105000Y-6050000D01*
X13105000Y-6785000D02*
X13145000Y-6825000D01*
X13145000Y-6785000D02*
X13105000Y-6825000D01*
X13105000Y-7105000D02*
X13145000Y-7145000D01*
X13145000Y-7105000D02*
X13105000Y-7145000D01*
X13105000Y-7520000D02*
X13145000Y-7560000D01*
X13145000Y-7520000D02*
X13105000Y-7560000D01*
X13105000Y-7930000D02*
X13145000Y-7970000D01*
X13145000Y-7930000D02*
X13105000Y-7970000D01*
X13105000Y-8705000D02*
X13145000Y-8745000D01*
X13145000Y-8705000D02*
X13105000Y-8745000D01*
X13105000Y-9025000D02*
X13145000Y-9065000D01*
X13145000Y-9025000D02*
X13105000Y-9065000D01*
X13105000Y-9440000D02*
X13145000Y-9480000D01*
X13145000Y-9440000D02*
X13105000Y-9480000D01*
X13105000Y-9850000D02*
X13145000Y-9890000D01*
X13145000Y-9850000D02*
X13105000Y-9890000D01*
X13105000Y-10625000D02*
X13145000Y-10665000D01*
X13145000Y-10625000D02*
X13105000Y-10665000D01*
X13105000Y-10945000D02*
X13145000Y-10985000D01*
X13145000Y-10945000D02*
X13105000Y-10985000D01*
X13105000Y-11360000D02*
X13145000Y-11400000D01*
X13145000Y-11360000D02*
X13105000Y-11400000D01*
X13105000Y-11770000D02*
X13145000Y-11810000D01*
X13145000Y-11770000D02*
X13105000Y-11810000D01*
X13105000Y-12545000D02*
X13145000Y-12585000D01*
X13145000Y-12545000D02*
X13105000Y-12585000D01*
X13105000Y-12865000D02*
X13145000Y-12905000D01*
X13145000Y-12865000D02*
X13105000Y-12905000D01*
X13250000Y-4035000D02*
X13290000Y-4075000D01*
X13290000Y-4035000D02*
X13250000Y-4075000D01*
X13250000Y-5955000D02*
X13290000Y-5995000D01*
X13290000Y-5955000D02*
X13250000Y-5995000D01*
X13250000Y-7875000D02*
X13290000Y-7915000D01*
X13290000Y-7875000D02*
X13250000Y-7915000D01*
X13250000Y-9795000D02*
X13290000Y-9835000D01*
X13290000Y-9795000D02*
X13250000Y-9835000D01*
X13250000Y-11715000D02*
X13290000Y-11755000D01*
X13290000Y-11715000D02*
X13250000Y-11755000D01*
X13255000Y-3750000D02*
X13295000Y-3790000D01*
X13295000Y-3750000D02*
X13255000Y-3790000D01*
X13255000Y-5670000D02*
X13295000Y-5710000D01*
X13295000Y-5670000D02*
X13255000Y-5710000D01*
X13255000Y-7590000D02*
X13295000Y-7630000D01*
X13295000Y-7590000D02*
X13255000Y-7630000D01*
X13255000Y-9510000D02*
X13295000Y-9550000D01*
X13295000Y-9510000D02*
X13255000Y-9550000D01*
X13255000Y-11430000D02*
X13295000Y-11470000D01*
X13295000Y-11430000D02*
X13255000Y-11470000D01*
X13305000Y-5190000D02*
X13345000Y-5230000D01*
X13345000Y-5190000D02*
X13305000Y-5230000D01*
X13305000Y-7110000D02*
X13345000Y-7150000D01*
X13345000Y-7110000D02*
X13305000Y-7150000D01*
X13305000Y-9030000D02*
X13345000Y-9070000D01*
X13345000Y-9030000D02*
X13305000Y-9070000D01*
X13305000Y-10950000D02*
X13345000Y-10990000D01*
X13345000Y-10950000D02*
X13305000Y-10990000D01*
X13305000Y-12870000D02*
X13345000Y-12910000D01*
X13345000Y-12870000D02*
X13305000Y-12910000D01*
X13310000Y-3880000D02*
X13350000Y-3920000D01*
X13350000Y-3880000D02*
X13310000Y-3920000D01*
X13310000Y-4870000D02*
X13350000Y-4910000D01*
X13350000Y-4870000D02*
X13310000Y-4910000D01*
X13310000Y-5800000D02*
X13350000Y-5840000D01*
X13350000Y-5800000D02*
X13310000Y-5840000D01*
X13310000Y-6790000D02*
X13350000Y-6830000D01*
X13350000Y-6790000D02*
X13310000Y-6830000D01*
X13310000Y-7720000D02*
X13350000Y-7760000D01*
X13350000Y-7720000D02*
X13310000Y-7760000D01*
X13310000Y-8710000D02*
X13350000Y-8750000D01*
X13350000Y-8710000D02*
X13310000Y-8750000D01*
X13310000Y-9640000D02*
X13350000Y-9680000D01*
X13350000Y-9640000D02*
X13310000Y-9680000D01*
X13310000Y-10630000D02*
X13350000Y-10670000D01*
X13350000Y-10630000D02*
X13310000Y-10670000D01*
X13310000Y-11560000D02*
X13350000Y-11600000D01*
X13350000Y-11560000D02*
X13310000Y-11600000D01*
X13310000Y-12550000D02*
X13350000Y-12590000D01*
X13350000Y-12550000D02*
X13310000Y-12590000D01*
X13420000Y-4790000D02*
X13460000Y-4830000D01*
X13460000Y-4790000D02*
X13420000Y-4830000D01*
X13420000Y-6710000D02*
X13460000Y-6750000D01*
X13460000Y-6710000D02*
X13420000Y-6750000D01*
X13420000Y-8630000D02*
X13460000Y-8670000D01*
X13460000Y-8630000D02*
X13420000Y-8670000D01*
X13420000Y-10550000D02*
X13460000Y-10590000D01*
X13460000Y-10550000D02*
X13420000Y-10590000D01*
X13420000Y-12470000D02*
X13460000Y-12510000D01*
X13460000Y-12470000D02*
X13420000Y-12510000D01*
X13475000Y-4645000D02*
X13515000Y-4685000D01*
X13515000Y-4645000D02*
X13475000Y-4685000D01*
X13475000Y-6565000D02*
X13515000Y-6605000D01*
X13515000Y-6565000D02*
X13475000Y-6605000D01*
X13475000Y-8485000D02*
X13515000Y-8525000D01*
X13515000Y-8485000D02*
X13475000Y-8525000D01*
X13475000Y-10405000D02*
X13515000Y-10445000D01*
X13515000Y-10405000D02*
X13475000Y-10445000D01*
X13475000Y-12325000D02*
X13515000Y-12365000D01*
X13515000Y-12325000D02*
X13475000Y-12365000D01*
X13485000Y-4940000D02*
X13525000Y-4980000D01*
X13525000Y-4940000D02*
X13485000Y-4980000D01*
X13485000Y-6860000D02*
X13525000Y-6900000D01*
X13525000Y-6860000D02*
X13485000Y-6900000D01*
X13485000Y-8780000D02*
X13525000Y-8820000D01*
X13525000Y-8780000D02*
X13485000Y-8820000D01*
X13485000Y-10700000D02*
X13525000Y-10740000D01*
X13525000Y-10700000D02*
X13485000Y-10740000D01*
X13485000Y-12620000D02*
X13525000Y-12660000D01*
X13525000Y-12620000D02*
X13485000Y-12660000D01*
X13625000Y-4580000D02*
X13665000Y-4620000D01*
X13665000Y-4580000D02*
X13625000Y-4620000D01*
X13625000Y-4990000D02*
X13665000Y-5030000D01*
X13665000Y-4990000D02*
X13625000Y-5030000D01*
X13625000Y-6500000D02*
X13665000Y-6540000D01*
X13665000Y-6500000D02*
X13625000Y-6540000D01*
X13625000Y-6910000D02*
X13665000Y-6950000D01*
X13665000Y-6910000D02*
X13625000Y-6950000D01*
X13625000Y-8420000D02*
X13665000Y-8460000D01*
X13665000Y-8420000D02*
X13625000Y-8460000D01*
X13625000Y-8830000D02*
X13665000Y-8870000D01*
X13665000Y-8830000D02*
X13625000Y-8870000D01*
X13625000Y-10340000D02*
X13665000Y-10380000D01*
X13665000Y-10340000D02*
X13625000Y-10380000D01*
X13625000Y-10750000D02*
X13665000Y-10790000D01*
X13665000Y-10750000D02*
X13625000Y-10790000D01*
X13625000Y-12260000D02*
X13665000Y-12300000D01*
X13665000Y-12260000D02*
X13625000Y-12300000D01*
X13625000Y-12670000D02*
X13665000Y-12710000D01*
X13665000Y-12670000D02*
X13625000Y-12710000D01*
X13770000Y-4935000D02*
X13810000Y-4975000D01*
X13810000Y-4935000D02*
X13770000Y-4975000D01*
X13770000Y-6855000D02*
X13810000Y-6895000D01*
X13810000Y-6855000D02*
X13770000Y-6895000D01*
X13770000Y-8775000D02*
X13810000Y-8815000D01*
X13810000Y-8775000D02*
X13770000Y-8815000D01*
X13770000Y-10695000D02*
X13810000Y-10735000D01*
X13810000Y-10695000D02*
X13770000Y-10735000D01*
X13770000Y-12615000D02*
X13810000Y-12655000D01*
X13810000Y-12615000D02*
X13770000Y-12655000D01*
X13775000Y-4650000D02*
X13815000Y-4690000D01*
X13815000Y-4650000D02*
X13775000Y-4690000D01*
X13775000Y-6570000D02*
X13815000Y-6610000D01*
X13815000Y-6570000D02*
X13775000Y-6610000D01*
X13775000Y-8490000D02*
X13815000Y-8530000D01*
X13815000Y-8490000D02*
X13775000Y-8530000D01*
X13775000Y-10410000D02*
X13815000Y-10450000D01*
X13815000Y-10410000D02*
X13775000Y-10450000D01*
X13775000Y-12330000D02*
X13815000Y-12370000D01*
X13815000Y-12330000D02*
X13775000Y-12370000D01*
X13830000Y-4780000D02*
X13870000Y-4820000D01*
X13870000Y-4780000D02*
X13830000Y-4820000D01*
X13830000Y-6700000D02*
X13870000Y-6740000D01*
X13870000Y-6700000D02*
X13830000Y-6740000D01*
X13830000Y-8620000D02*
X13870000Y-8660000D01*
X13870000Y-8620000D02*
X13830000Y-8660000D01*
X13830000Y-10540000D02*
X13870000Y-10580000D01*
X13870000Y-10540000D02*
X13830000Y-10580000D01*
X13830000Y-12460000D02*
X13870000Y-12500000D01*
X13870000Y-12460000D02*
X13830000Y-12500000D01*
X14300000Y-4790000D02*
X14340000Y-4830000D01*
X14340000Y-4790000D02*
X14300000Y-4830000D01*
X14300000Y-6710000D02*
X14340000Y-6750000D01*
X14340000Y-6710000D02*
X14300000Y-6750000D01*
X14300000Y-8630000D02*
X14340000Y-8670000D01*
X14340000Y-8630000D02*
X14300000Y-8670000D01*
X14300000Y-10550000D02*
X14340000Y-10590000D01*
X14340000Y-10550000D02*
X14300000Y-10590000D01*
X14300000Y-12470000D02*
X14340000Y-12510000D01*
X14340000Y-12470000D02*
X14300000Y-12510000D01*
X14355000Y-4645000D02*
X14395000Y-4685000D01*
X14395000Y-4645000D02*
X14355000Y-4685000D01*
X14355000Y-6565000D02*
X14395000Y-6605000D01*
X14395000Y-6565000D02*
X14355000Y-6605000D01*
X14355000Y-8485000D02*
X14395000Y-8525000D01*
X14395000Y-8485000D02*
X14355000Y-8525000D01*
X14355000Y-10405000D02*
X14395000Y-10445000D01*
X14395000Y-10405000D02*
X14355000Y-10445000D01*
X14355000Y-12325000D02*
X14395000Y-12365000D01*
X14395000Y-12325000D02*
X14355000Y-12365000D01*
X14365000Y-4940000D02*
X14405000Y-4980000D01*
X14405000Y-4940000D02*
X14365000Y-4980000D01*
X14365000Y-6860000D02*
X14405000Y-6900000D01*
X14405000Y-6860000D02*
X14365000Y-6900000D01*
X14365000Y-8780000D02*
X14405000Y-8820000D01*
X14405000Y-8780000D02*
X14365000Y-8820000D01*
X14365000Y-10700000D02*
X14405000Y-10740000D01*
X14405000Y-10700000D02*
X14365000Y-10740000D01*
X14365000Y-12620000D02*
X14405000Y-12660000D01*
X14405000Y-12620000D02*
X14365000Y-12660000D01*
X14505000Y-4580000D02*
X14545000Y-4620000D01*
X14545000Y-4580000D02*
X14505000Y-4620000D01*
X14505000Y-4990000D02*
X14545000Y-5030000D01*
X14545000Y-4990000D02*
X14505000Y-5030000D01*
X14505000Y-6500000D02*
X14545000Y-6540000D01*
X14545000Y-6500000D02*
X14505000Y-6540000D01*
X14505000Y-6910000D02*
X14545000Y-6950000D01*
X14545000Y-6910000D02*
X14505000Y-6950000D01*
X14505000Y-8420000D02*
X14545000Y-8460000D01*
X14545000Y-8420000D02*
X14505000Y-8460000D01*
X14505000Y-8830000D02*
X14545000Y-8870000D01*
X14545000Y-8830000D02*
X14505000Y-8870000D01*
X14505000Y-10340000D02*
X14545000Y-10380000D01*
X14545000Y-10340000D02*
X14505000Y-10380000D01*
X14505000Y-10750000D02*
X14545000Y-10790000D01*
X14545000Y-10750000D02*
X14505000Y-10790000D01*
X14505000Y-12260000D02*
X14545000Y-12300000D01*
X14545000Y-12260000D02*
X14505000Y-12300000D01*
X14505000Y-12670000D02*
X14545000Y-12710000D01*
X14545000Y-12670000D02*
X14505000Y-12710000D01*
X14650000Y-4935000D02*
X14690000Y-4975000D01*
X14690000Y-4935000D02*
X14650000Y-4975000D01*
X14650000Y-6855000D02*
X14690000Y-6895000D01*
X14690000Y-6855000D02*
X14650000Y-6895000D01*
X14650000Y-8775000D02*
X14690000Y-8815000D01*
X14690000Y-8775000D02*
X14650000Y-8815000D01*
X14650000Y-10695000D02*
X14690000Y-10735000D01*
X14690000Y-10695000D02*
X14650000Y-10735000D01*
X14650000Y-12615000D02*
X14690000Y-12655000D01*
X14690000Y-12615000D02*
X14650000Y-12655000D01*
X14655000Y-4650000D02*
X14695000Y-4690000D01*
X14695000Y-4650000D02*
X14655000Y-4690000D01*
X14655000Y-6570000D02*
X14695000Y-6610000D01*
X14695000Y-6570000D02*
X14655000Y-6610000D01*
X14655000Y-8490000D02*
X14695000Y-8530000D01*
X14695000Y-8490000D02*
X14655000Y-8530000D01*
X14655000Y-10410000D02*
X14695000Y-10450000D01*
X14695000Y-10410000D02*
X14655000Y-10450000D01*
X14655000Y-12330000D02*
X14695000Y-12370000D01*
X14695000Y-12330000D02*
X14655000Y-12370000D01*
X14710000Y-4780000D02*
X14750000Y-4820000D01*
X14750000Y-4780000D02*
X14710000Y-4820000D01*
X14710000Y-6700000D02*
X14750000Y-6740000D01*
X14750000Y-6700000D02*
X14710000Y-6740000D01*
X14710000Y-8620000D02*
X14750000Y-8660000D01*
X14750000Y-8620000D02*
X14710000Y-8660000D01*
X14710000Y-10540000D02*
X14750000Y-10580000D01*
X14750000Y-10540000D02*
X14710000Y-10580000D01*
X14710000Y-12460000D02*
X14750000Y-12500000D01*
X14750000Y-12460000D02*
X14710000Y-12500000D01*
X14820000Y-3890000D02*
X14860000Y-3930000D01*
X14860000Y-3890000D02*
X14820000Y-3930000D01*
X14820000Y-5810000D02*
X14860000Y-5850000D01*
X14860000Y-5810000D02*
X14820000Y-5850000D01*
X14820000Y-7730000D02*
X14860000Y-7770000D01*
X14860000Y-7730000D02*
X14820000Y-7770000D01*
X14820000Y-9650000D02*
X14860000Y-9690000D01*
X14860000Y-9650000D02*
X14820000Y-9690000D01*
X14820000Y-11570000D02*
X14860000Y-11610000D01*
X14860000Y-11570000D02*
X14820000Y-11610000D01*
X14825000Y-4865000D02*
X14865000Y-4905000D01*
X14865000Y-4865000D02*
X14825000Y-4905000D01*
X14825000Y-5175000D02*
X14865000Y-5215000D01*
X14865000Y-5175000D02*
X14825000Y-5215000D01*
X14825000Y-6785000D02*
X14865000Y-6825000D01*
X14865000Y-6785000D02*
X14825000Y-6825000D01*
X14825000Y-7095000D02*
X14865000Y-7135000D01*
X14865000Y-7095000D02*
X14825000Y-7135000D01*
X14825000Y-8705000D02*
X14865000Y-8745000D01*
X14865000Y-8705000D02*
X14825000Y-8745000D01*
X14825000Y-9015000D02*
X14865000Y-9055000D01*
X14865000Y-9015000D02*
X14825000Y-9055000D01*
X14825000Y-10625000D02*
X14865000Y-10665000D01*
X14865000Y-10625000D02*
X14825000Y-10665000D01*
X14825000Y-10935000D02*
X14865000Y-10975000D01*
X14865000Y-10935000D02*
X14825000Y-10975000D01*
X14825000Y-12545000D02*
X14865000Y-12585000D01*
X14865000Y-12545000D02*
X14825000Y-12585000D01*
X14825000Y-12855000D02*
X14865000Y-12895000D01*
X14865000Y-12855000D02*
X14825000Y-12895000D01*
X14875000Y-3745000D02*
X14915000Y-3785000D01*
X14915000Y-3745000D02*
X14875000Y-3785000D01*
X14875000Y-5665000D02*
X14915000Y-5705000D01*
X14915000Y-5665000D02*
X14875000Y-5705000D01*
X14875000Y-7585000D02*
X14915000Y-7625000D01*
X14915000Y-7585000D02*
X14875000Y-7625000D01*
X14875000Y-9505000D02*
X14915000Y-9545000D01*
X14915000Y-9505000D02*
X14875000Y-9545000D01*
X14875000Y-11425000D02*
X14915000Y-11465000D01*
X14915000Y-11425000D02*
X14875000Y-11465000D01*
X14885000Y-4040000D02*
X14925000Y-4080000D01*
X14925000Y-4040000D02*
X14885000Y-4080000D01*
X14885000Y-5960000D02*
X14925000Y-6000000D01*
X14925000Y-5960000D02*
X14885000Y-6000000D01*
X14885000Y-7880000D02*
X14925000Y-7920000D01*
X14925000Y-7880000D02*
X14885000Y-7920000D01*
X14885000Y-9800000D02*
X14925000Y-9840000D01*
X14925000Y-9800000D02*
X14885000Y-9840000D01*
X14885000Y-11720000D02*
X14925000Y-11760000D01*
X14925000Y-11720000D02*
X14885000Y-11760000D01*
X15025000Y-3680000D02*
X15065000Y-3720000D01*
X15065000Y-3680000D02*
X15025000Y-3720000D01*
X15025000Y-4090000D02*
X15065000Y-4130000D01*
X15065000Y-4090000D02*
X15025000Y-4130000D01*
X15025000Y-4865000D02*
X15065000Y-4905000D01*
X15065000Y-4865000D02*
X15025000Y-4905000D01*
X15025000Y-5185000D02*
X15065000Y-5225000D01*
X15065000Y-5185000D02*
X15025000Y-5225000D01*
X15025000Y-5600000D02*
X15065000Y-5640000D01*
X15065000Y-5600000D02*
X15025000Y-5640000D01*
X15025000Y-6010000D02*
X15065000Y-6050000D01*
X15065000Y-6010000D02*
X15025000Y-6050000D01*
X15025000Y-6785000D02*
X15065000Y-6825000D01*
X15065000Y-6785000D02*
X15025000Y-6825000D01*
X15025000Y-7105000D02*
X15065000Y-7145000D01*
X15065000Y-7105000D02*
X15025000Y-7145000D01*
X15025000Y-7520000D02*
X15065000Y-7560000D01*
X15065000Y-7520000D02*
X15025000Y-7560000D01*
X15025000Y-7930000D02*
X15065000Y-7970000D01*
X15065000Y-7930000D02*
X15025000Y-7970000D01*
X15025000Y-8705000D02*
X15065000Y-8745000D01*
X15065000Y-8705000D02*
X15025000Y-8745000D01*
X15025000Y-9025000D02*
X15065000Y-9065000D01*
X15065000Y-9025000D02*
X15025000Y-9065000D01*
X15025000Y-9440000D02*
X15065000Y-9480000D01*
X15065000Y-9440000D02*
X15025000Y-9480000D01*
X15025000Y-9850000D02*
X15065000Y-9890000D01*
X15065000Y-9850000D02*
X15025000Y-9890000D01*
X15025000Y-10625000D02*
X15065000Y-10665000D01*
X15065000Y-10625000D02*
X15025000Y-10665000D01*
X15025000Y-10945000D02*
X15065000Y-10985000D01*
X15065000Y-10945000D02*
X15025000Y-10985000D01*
X15025000Y-11360000D02*
X15065000Y-11400000D01*
X15065000Y-11360000D02*
X15025000Y-11400000D01*
X15025000Y-11770000D02*
X15065000Y-11810000D01*
X15065000Y-11770000D02*
X15025000Y-11810000D01*
X15025000Y-12545000D02*
X15065000Y-12585000D01*
X15065000Y-12545000D02*
X15025000Y-12585000D01*
X15025000Y-12865000D02*
X15065000Y-12905000D01*
X15065000Y-12865000D02*
X15025000Y-12905000D01*
X15170000Y-4035000D02*
X15210000Y-4075000D01*
X15210000Y-4035000D02*
X15170000Y-4075000D01*
X15170000Y-5955000D02*
X15210000Y-5995000D01*
X15210000Y-5955000D02*
X15170000Y-5995000D01*
X15170000Y-7875000D02*
X15210000Y-7915000D01*
X15210000Y-7875000D02*
X15170000Y-7915000D01*
X15170000Y-9795000D02*
X15210000Y-9835000D01*
X15210000Y-9795000D02*
X15170000Y-9835000D01*
X15170000Y-11715000D02*
X15210000Y-11755000D01*
X15210000Y-11715000D02*
X15170000Y-11755000D01*
X15175000Y-3750000D02*
X15215000Y-3790000D01*
X15215000Y-3750000D02*
X15175000Y-3790000D01*
X15175000Y-5670000D02*
X15215000Y-5710000D01*
X15215000Y-5670000D02*
X15175000Y-5710000D01*
X15175000Y-7590000D02*
X15215000Y-7630000D01*
X15215000Y-7590000D02*
X15175000Y-7630000D01*
X15175000Y-9510000D02*
X15215000Y-9550000D01*
X15215000Y-9510000D02*
X15175000Y-9550000D01*
X15175000Y-11430000D02*
X15215000Y-11470000D01*
X15215000Y-11430000D02*
X15175000Y-11470000D01*
X15225000Y-5190000D02*
X15265000Y-5230000D01*
X15265000Y-5190000D02*
X15225000Y-5230000D01*
X15225000Y-7110000D02*
X15265000Y-7150000D01*
X15265000Y-7110000D02*
X15225000Y-7150000D01*
X15225000Y-9030000D02*
X15265000Y-9070000D01*
X15265000Y-9030000D02*
X15225000Y-9070000D01*
X15225000Y-10950000D02*
X15265000Y-10990000D01*
X15265000Y-10950000D02*
X15225000Y-10990000D01*
X15225000Y-12870000D02*
X15265000Y-12910000D01*
X15265000Y-12870000D02*
X15225000Y-12910000D01*
X15230000Y-3880000D02*
X15270000Y-3920000D01*
X15270000Y-3880000D02*
X15230000Y-3920000D01*
X15230000Y-4870000D02*
X15270000Y-4910000D01*
X15270000Y-4870000D02*
X15230000Y-4910000D01*
X15230000Y-5800000D02*
X15270000Y-5840000D01*
X15270000Y-5800000D02*
X15230000Y-5840000D01*
X15230000Y-6790000D02*
X15270000Y-6830000D01*
X15270000Y-6790000D02*
X15230000Y-6830000D01*
X15230000Y-7720000D02*
X15270000Y-7760000D01*
X15270000Y-7720000D02*
X15230000Y-7760000D01*
X15230000Y-8710000D02*
X15270000Y-8750000D01*
X15270000Y-8710000D02*
X15230000Y-8750000D01*
X15230000Y-9640000D02*
X15270000Y-9680000D01*
X15270000Y-9640000D02*
X15230000Y-9680000D01*
X15230000Y-10630000D02*
X15270000Y-10670000D01*
X15270000Y-10630000D02*
X15230000Y-10670000D01*
X15230000Y-11560000D02*
X15270000Y-11600000D01*
X15270000Y-11560000D02*
X15230000Y-11600000D01*
X15230000Y-12550000D02*
X15270000Y-12590000D01*
X15270000Y-12550000D02*
X15230000Y-12590000D01*
X15340000Y-4790000D02*
X15380000Y-4830000D01*
X15380000Y-4790000D02*
X15340000Y-4830000D01*
X15340000Y-6710000D02*
X15380000Y-6750000D01*
X15380000Y-6710000D02*
X15340000Y-6750000D01*
X15340000Y-8630000D02*
X15380000Y-8670000D01*
X15380000Y-8630000D02*
X15340000Y-8670000D01*
X15340000Y-10550000D02*
X15380000Y-10590000D01*
X15380000Y-10550000D02*
X15340000Y-10590000D01*
X15340000Y-12470000D02*
X15380000Y-12510000D01*
X15380000Y-12470000D02*
X15340000Y-12510000D01*
X15395000Y-4645000D02*
X15435000Y-4685000D01*
X15435000Y-4645000D02*
X15395000Y-4685000D01*
X15395000Y-6565000D02*
X15435000Y-6605000D01*
X15435000Y-6565000D02*
X15395000Y-6605000D01*
X15395000Y-8485000D02*
X15435000Y-8525000D01*
X15435000Y-8485000D02*
X15395000Y-8525000D01*
X15395000Y-10405000D02*
X15435000Y-10445000D01*
X15435000Y-10405000D02*
X15395000Y-10445000D01*
X15395000Y-12325000D02*
X15435000Y-12365000D01*
X15435000Y-12325000D02*
X15395000Y-12365000D01*
X15405000Y-4940000D02*
X15445000Y-4980000D01*
X15445000Y-4940000D02*
X15405000Y-4980000D01*
X15405000Y-6860000D02*
X15445000Y-6900000D01*
X15445000Y-6860000D02*
X15405000Y-6900000D01*
X15405000Y-8780000D02*
X15445000Y-8820000D01*
X15445000Y-8780000D02*
X15405000Y-8820000D01*
X15405000Y-10700000D02*
X15445000Y-10740000D01*
X15445000Y-10700000D02*
X15405000Y-10740000D01*
X15405000Y-12620000D02*
X15445000Y-12660000D01*
X15445000Y-12620000D02*
X15405000Y-12660000D01*
X15545000Y-4580000D02*
X15585000Y-4620000D01*
X15585000Y-4580000D02*
X15545000Y-4620000D01*
X15545000Y-4990000D02*
X15585000Y-5030000D01*
X15585000Y-4990000D02*
X15545000Y-5030000D01*
X15545000Y-6500000D02*
X15585000Y-6540000D01*
X15585000Y-6500000D02*
X15545000Y-6540000D01*
X15545000Y-6910000D02*
X15585000Y-6950000D01*
X15585000Y-6910000D02*
X15545000Y-6950000D01*
X15545000Y-8420000D02*
X15585000Y-8460000D01*
X15585000Y-8420000D02*
X15545000Y-8460000D01*
X15545000Y-8830000D02*
X15585000Y-8870000D01*
X15585000Y-8830000D02*
X15545000Y-8870000D01*
X15545000Y-10340000D02*
X15585000Y-10380000D01*
X15585000Y-10340000D02*
X15545000Y-10380000D01*
X15545000Y-10750000D02*
X15585000Y-10790000D01*
X15585000Y-10750000D02*
X15545000Y-10790000D01*
X15545000Y-12260000D02*
X15585000Y-12300000D01*
X15585000Y-12260000D02*
X15545000Y-12300000D01*
X15545000Y-12670000D02*
X15585000Y-12710000D01*
X15585000Y-12670000D02*
X15545000Y-12710000D01*
X15690000Y-4935000D02*
X15730000Y-4975000D01*
X15730000Y-4935000D02*
X15690000Y-4975000D01*
X15690000Y-6855000D02*
X15730000Y-6895000D01*
X15730000Y-6855000D02*
X15690000Y-6895000D01*
X15690000Y-8775000D02*
X15730000Y-8815000D01*
X15730000Y-8775000D02*
X15690000Y-8815000D01*
X15690000Y-10695000D02*
X15730000Y-10735000D01*
X15730000Y-10695000D02*
X15690000Y-10735000D01*
X15690000Y-12615000D02*
X15730000Y-12655000D01*
X15730000Y-12615000D02*
X15690000Y-12655000D01*
X15695000Y-4650000D02*
X15735000Y-4690000D01*
X15735000Y-4650000D02*
X15695000Y-4690000D01*
X15695000Y-6570000D02*
X15735000Y-6610000D01*
X15735000Y-6570000D02*
X15695000Y-6610000D01*
X15695000Y-8490000D02*
X15735000Y-8530000D01*
X15735000Y-8490000D02*
X15695000Y-8530000D01*
X15695000Y-10410000D02*
X15735000Y-10450000D01*
X15735000Y-10410000D02*
X15695000Y-10450000D01*
X15695000Y-12330000D02*
X15735000Y-12370000D01*
X15735000Y-12330000D02*
X15695000Y-12370000D01*
X15750000Y-4780000D02*
X15790000Y-4820000D01*
X15790000Y-4780000D02*
X15750000Y-4820000D01*
X15750000Y-6700000D02*
X15790000Y-6740000D01*
X15790000Y-6700000D02*
X15750000Y-6740000D01*
X15750000Y-8620000D02*
X15790000Y-8660000D01*
X15790000Y-8620000D02*
X15750000Y-8660000D01*
X15750000Y-10540000D02*
X15790000Y-10580000D01*
X15790000Y-10540000D02*
X15750000Y-10580000D01*
X15750000Y-12460000D02*
X15790000Y-12500000D01*
X15790000Y-12460000D02*
X15750000Y-12500000D01*
X16220000Y-4790000D02*
X16260000Y-4830000D01*
X16260000Y-4790000D02*
X16220000Y-4830000D01*
X16220000Y-6710000D02*
X16260000Y-6750000D01*
X16260000Y-6710000D02*
X16220000Y-6750000D01*
X16220000Y-8630000D02*
X16260000Y-8670000D01*
X16260000Y-8630000D02*
X16220000Y-8670000D01*
X16220000Y-10550000D02*
X16260000Y-10590000D01*
X16260000Y-10550000D02*
X16220000Y-10590000D01*
X16220000Y-12470000D02*
X16260000Y-12510000D01*
X16260000Y-12470000D02*
X16220000Y-12510000D01*
X16275000Y-4645000D02*
X16315000Y-4685000D01*
X16315000Y-4645000D02*
X16275000Y-4685000D01*
X16275000Y-6565000D02*
X16315000Y-6605000D01*
X16315000Y-6565000D02*
X16275000Y-6605000D01*
X16275000Y-8485000D02*
X16315000Y-8525000D01*
X16315000Y-8485000D02*
X16275000Y-8525000D01*
X16275000Y-10405000D02*
X16315000Y-10445000D01*
X16315000Y-10405000D02*
X16275000Y-10445000D01*
X16275000Y-12325000D02*
X16315000Y-12365000D01*
X16315000Y-12325000D02*
X16275000Y-12365000D01*
X16285000Y-4940000D02*
X16325000Y-4980000D01*
X16325000Y-4940000D02*
X16285000Y-4980000D01*
X16285000Y-6860000D02*
X16325000Y-6900000D01*
X16325000Y-6860000D02*
X16285000Y-6900000D01*
X16285000Y-8780000D02*
X16325000Y-8820000D01*
X16325000Y-8780000D02*
X16285000Y-8820000D01*
X16285000Y-10700000D02*
X16325000Y-10740000D01*
X16325000Y-10700000D02*
X16285000Y-10740000D01*
X16285000Y-12620000D02*
X16325000Y-12660000D01*
X16325000Y-12620000D02*
X16285000Y-12660000D01*
X16425000Y-4580000D02*
X16465000Y-4620000D01*
X16465000Y-4580000D02*
X16425000Y-4620000D01*
X16425000Y-4990000D02*
X16465000Y-5030000D01*
X16465000Y-4990000D02*
X16425000Y-5030000D01*
X16425000Y-6500000D02*
X16465000Y-6540000D01*
X16465000Y-6500000D02*
X16425000Y-6540000D01*
X16425000Y-6910000D02*
X16465000Y-6950000D01*
X16465000Y-6910000D02*
X16425000Y-6950000D01*
X16425000Y-8420000D02*
X16465000Y-8460000D01*
X16465000Y-8420000D02*
X16425000Y-8460000D01*
X16425000Y-8830000D02*
X16465000Y-8870000D01*
X16465000Y-8830000D02*
X16425000Y-8870000D01*
X16425000Y-10340000D02*
X16465000Y-10380000D01*
X16465000Y-10340000D02*
X16425000Y-10380000D01*
X16425000Y-10750000D02*
X16465000Y-10790000D01*
X16465000Y-10750000D02*
X16425000Y-10790000D01*
X16425000Y-12260000D02*
X16465000Y-12300000D01*
X16465000Y-12260000D02*
X16425000Y-12300000D01*
X16425000Y-12670000D02*
X16465000Y-12710000D01*
X16465000Y-12670000D02*
X16425000Y-12710000D01*
X16570000Y-4935000D02*
X16610000Y-4975000D01*
X16610000Y-4935000D02*
X16570000Y-4975000D01*
X16570000Y-6855000D02*
X16610000Y-6895000D01*
X16610000Y-6855000D02*
X16570000Y-6895000D01*
X16570000Y-8775000D02*
X16610000Y-8815000D01*
X16610000Y-8775000D02*
X16570000Y-8815000D01*
X16570000Y-10695000D02*
X16610000Y-10735000D01*
X16610000Y-10695000D02*
X16570000Y-10735000D01*
X16570000Y-12615000D02*
X16610000Y-12655000D01*
X16610000Y-12615000D02*
X16570000Y-12655000D01*
X16575000Y-4650000D02*
X16615000Y-4690000D01*
X16615000Y-4650000D02*
X16575000Y-4690000D01*
X16575000Y-6570000D02*
X16615000Y-6610000D01*
X16615000Y-6570000D02*
X16575000Y-6610000D01*
X16575000Y-8490000D02*
X16615000Y-8530000D01*
X16615000Y-8490000D02*
X16575000Y-8530000D01*
X16575000Y-10410000D02*
X16615000Y-10450000D01*
X16615000Y-10410000D02*
X16575000Y-10450000D01*
X16575000Y-12330000D02*
X16615000Y-12370000D01*
X16615000Y-12330000D02*
X16575000Y-12370000D01*
X16630000Y-4780000D02*
X16670000Y-4820000D01*
X16670000Y-4780000D02*
X16630000Y-4820000D01*
X16630000Y-6700000D02*
X16670000Y-6740000D01*
X16670000Y-6700000D02*
X16630000Y-6740000D01*
X16630000Y-8620000D02*
X16670000Y-8660000D01*
X16670000Y-8620000D02*
X16630000Y-8660000D01*
X16630000Y-10540000D02*
X16670000Y-10580000D01*
X16670000Y-10540000D02*
X16630000Y-10580000D01*
X16630000Y-12460000D02*
X16670000Y-12500000D01*
X16670000Y-12460000D02*
X16630000Y-12500000D01*
X16740000Y-3890000D02*
X16780000Y-3930000D01*
X16780000Y-3890000D02*
X16740000Y-3930000D01*
X16740000Y-5810000D02*
X16780000Y-5850000D01*
X16780000Y-5810000D02*
X16740000Y-5850000D01*
X16740000Y-7730000D02*
X16780000Y-7770000D01*
X16780000Y-7730000D02*
X16740000Y-7770000D01*
X16740000Y-9650000D02*
X16780000Y-9690000D01*
X16780000Y-9650000D02*
X16740000Y-9690000D01*
X16740000Y-11570000D02*
X16780000Y-11610000D01*
X16780000Y-11570000D02*
X16740000Y-11610000D01*
X16745000Y-4865000D02*
X16785000Y-4905000D01*
X16785000Y-4865000D02*
X16745000Y-4905000D01*
X16745000Y-5175000D02*
X16785000Y-5215000D01*
X16785000Y-5175000D02*
X16745000Y-5215000D01*
X16745000Y-6785000D02*
X16785000Y-6825000D01*
X16785000Y-6785000D02*
X16745000Y-6825000D01*
X16745000Y-7095000D02*
X16785000Y-7135000D01*
X16785000Y-7095000D02*
X16745000Y-7135000D01*
X16745000Y-8705000D02*
X16785000Y-8745000D01*
X16785000Y-8705000D02*
X16745000Y-8745000D01*
X16745000Y-9015000D02*
X16785000Y-9055000D01*
X16785000Y-9015000D02*
X16745000Y-9055000D01*
X16745000Y-10625000D02*
X16785000Y-10665000D01*
X16785000Y-10625000D02*
X16745000Y-10665000D01*
X16745000Y-10935000D02*
X16785000Y-10975000D01*
X16785000Y-10935000D02*
X16745000Y-10975000D01*
X16745000Y-12545000D02*
X16785000Y-12585000D01*
X16785000Y-12545000D02*
X16745000Y-12585000D01*
X16745000Y-12855000D02*
X16785000Y-12895000D01*
X16785000Y-12855000D02*
X16745000Y-12895000D01*
X16795000Y-3745000D02*
X16835000Y-3785000D01*
X16835000Y-3745000D02*
X16795000Y-3785000D01*
X16795000Y-5665000D02*
X16835000Y-5705000D01*
X16835000Y-5665000D02*
X16795000Y-5705000D01*
X16795000Y-7585000D02*
X16835000Y-7625000D01*
X16835000Y-7585000D02*
X16795000Y-7625000D01*
X16795000Y-9505000D02*
X16835000Y-9545000D01*
X16835000Y-9505000D02*
X16795000Y-9545000D01*
X16795000Y-11425000D02*
X16835000Y-11465000D01*
X16835000Y-11425000D02*
X16795000Y-11465000D01*
X16805000Y-4040000D02*
X16845000Y-4080000D01*
X16845000Y-4040000D02*
X16805000Y-4080000D01*
X16805000Y-5960000D02*
X16845000Y-6000000D01*
X16845000Y-5960000D02*
X16805000Y-6000000D01*
X16805000Y-7880000D02*
X16845000Y-7920000D01*
X16845000Y-7880000D02*
X16805000Y-7920000D01*
X16805000Y-9800000D02*
X16845000Y-9840000D01*
X16845000Y-9800000D02*
X16805000Y-9840000D01*
X16805000Y-11720000D02*
X16845000Y-11760000D01*
X16845000Y-11720000D02*
X16805000Y-11760000D01*
X16945000Y-3680000D02*
X16985000Y-3720000D01*
X16985000Y-3680000D02*
X16945000Y-3720000D01*
X16945000Y-4090000D02*
X16985000Y-4130000D01*
X16985000Y-4090000D02*
X16945000Y-4130000D01*
X16945000Y-4865000D02*
X16985000Y-4905000D01*
X16985000Y-4865000D02*
X16945000Y-4905000D01*
X16945000Y-5185000D02*
X16985000Y-5225000D01*
X16985000Y-5185000D02*
X16945000Y-5225000D01*
X16945000Y-5600000D02*
X16985000Y-5640000D01*
X16985000Y-5600000D02*
X16945000Y-5640000D01*
X16945000Y-6010000D02*
X16985000Y-6050000D01*
X16985000Y-6010000D02*
X16945000Y-6050000D01*
X16945000Y-6785000D02*
X16985000Y-6825000D01*
X16985000Y-6785000D02*
X16945000Y-6825000D01*
X16945000Y-7105000D02*
X16985000Y-7145000D01*
X16985000Y-7105000D02*
X16945000Y-7145000D01*
X16945000Y-7520000D02*
X16985000Y-7560000D01*
X16985000Y-7520000D02*
X16945000Y-7560000D01*
X16945000Y-7930000D02*
X16985000Y-7970000D01*
X16985000Y-7930000D02*
X16945000Y-7970000D01*
X16945000Y-8705000D02*
X16985000Y-8745000D01*
X16985000Y-8705000D02*
X16945000Y-8745000D01*
X16945000Y-9025000D02*
X16985000Y-9065000D01*
X16985000Y-9025000D02*
X16945000Y-9065000D01*
X16945000Y-9440000D02*
X16985000Y-9480000D01*
X16985000Y-9440000D02*
X16945000Y-9480000D01*
X16945000Y-9850000D02*
X16985000Y-9890000D01*
X16985000Y-9850000D02*
X16945000Y-9890000D01*
X16945000Y-10625000D02*
X16985000Y-10665000D01*
X16985000Y-10625000D02*
X16945000Y-10665000D01*
X16945000Y-10945000D02*
X16985000Y-10985000D01*
X16985000Y-10945000D02*
X16945000Y-10985000D01*
X16945000Y-11360000D02*
X16985000Y-11400000D01*
X16985000Y-11360000D02*
X16945000Y-11400000D01*
X16945000Y-11770000D02*
X16985000Y-11810000D01*
X16985000Y-11770000D02*
X16945000Y-11810000D01*
X16945000Y-12545000D02*
X16985000Y-12585000D01*
X16985000Y-12545000D02*
X16945000Y-12585000D01*
X16945000Y-12865000D02*
X16985000Y-12905000D01*
X16985000Y-12865000D02*
X16945000Y-12905000D01*
X17090000Y-4035000D02*
X17130000Y-4075000D01*
X17130000Y-4035000D02*
X17090000Y-4075000D01*
X17090000Y-5955000D02*
X17130000Y-5995000D01*
X17130000Y-5955000D02*
X17090000Y-5995000D01*
X17090000Y-7875000D02*
X17130000Y-7915000D01*
X17130000Y-7875000D02*
X17090000Y-7915000D01*
X17090000Y-9795000D02*
X17130000Y-9835000D01*
X17130000Y-9795000D02*
X17090000Y-9835000D01*
X17090000Y-11715000D02*
X17130000Y-11755000D01*
X17130000Y-11715000D02*
X17090000Y-11755000D01*
X17095000Y-3750000D02*
X17135000Y-3790000D01*
X17135000Y-3750000D02*
X17095000Y-3790000D01*
X17095000Y-5670000D02*
X17135000Y-5710000D01*
X17135000Y-5670000D02*
X17095000Y-5710000D01*
X17095000Y-7590000D02*
X17135000Y-7630000D01*
X17135000Y-7590000D02*
X17095000Y-7630000D01*
X17095000Y-9510000D02*
X17135000Y-9550000D01*
X17135000Y-9510000D02*
X17095000Y-9550000D01*
X17095000Y-11430000D02*
X17135000Y-11470000D01*
X17135000Y-11430000D02*
X17095000Y-11470000D01*
X17145000Y-5190000D02*
X17185000Y-5230000D01*
X17185000Y-5190000D02*
X17145000Y-5230000D01*
X17145000Y-7110000D02*
X17185000Y-7150000D01*
X17185000Y-7110000D02*
X17145000Y-7150000D01*
X17145000Y-9030000D02*
X17185000Y-9070000D01*
X17185000Y-9030000D02*
X17145000Y-9070000D01*
X17145000Y-10950000D02*
X17185000Y-10990000D01*
X17185000Y-10950000D02*
X17145000Y-10990000D01*
X17145000Y-12870000D02*
X17185000Y-12910000D01*
X17185000Y-12870000D02*
X17145000Y-12910000D01*
X17150000Y-3880000D02*
X17190000Y-3920000D01*
X17190000Y-3880000D02*
X17150000Y-3920000D01*
X17150000Y-4870000D02*
X17190000Y-4910000D01*
X17190000Y-4870000D02*
X17150000Y-4910000D01*
X17150000Y-5800000D02*
X17190000Y-5840000D01*
X17190000Y-5800000D02*
X17150000Y-5840000D01*
X17150000Y-6790000D02*
X17190000Y-6830000D01*
X17190000Y-6790000D02*
X17150000Y-6830000D01*
X17150000Y-7720000D02*
X17190000Y-7760000D01*
X17190000Y-7720000D02*
X17150000Y-7760000D01*
X17150000Y-8710000D02*
X17190000Y-8750000D01*
X17190000Y-8710000D02*
X17150000Y-8750000D01*
X17150000Y-9640000D02*
X17190000Y-9680000D01*
X17190000Y-9640000D02*
X17150000Y-9680000D01*
X17150000Y-10630000D02*
X17190000Y-10670000D01*
X17190000Y-10630000D02*
X17150000Y-10670000D01*
X17150000Y-11560000D02*
X17190000Y-11600000D01*
X17190000Y-11560000D02*
X17150000Y-11600000D01*
X17150000Y-12550000D02*
X17190000Y-12590000D01*
X17190000Y-12550000D02*
X17150000Y-12590000D01*
X17260000Y-4790000D02*
X17300000Y-4830000D01*
X17300000Y-4790000D02*
X17260000Y-4830000D01*
X17260000Y-6710000D02*
X17300000Y-6750000D01*
X17300000Y-6710000D02*
X17260000Y-6750000D01*
X17260000Y-8630000D02*
X17300000Y-8670000D01*
X17300000Y-8630000D02*
X17260000Y-8670000D01*
X17260000Y-10550000D02*
X17300000Y-10590000D01*
X17300000Y-10550000D02*
X17260000Y-10590000D01*
X17260000Y-12470000D02*
X17300000Y-12510000D01*
X17300000Y-12470000D02*
X17260000Y-12510000D01*
X17315000Y-4645000D02*
X17355000Y-4685000D01*
X17355000Y-4645000D02*
X17315000Y-4685000D01*
X17315000Y-6565000D02*
X17355000Y-6605000D01*
X17355000Y-6565000D02*
X17315000Y-6605000D01*
X17315000Y-8485000D02*
X17355000Y-8525000D01*
X17355000Y-8485000D02*
X17315000Y-8525000D01*
X17315000Y-10405000D02*
X17355000Y-10445000D01*
X17355000Y-10405000D02*
X17315000Y-10445000D01*
X17315000Y-12325000D02*
X17355000Y-12365000D01*
X17355000Y-12325000D02*
X17315000Y-12365000D01*
X17325000Y-4940000D02*
X17365000Y-4980000D01*
X17365000Y-4940000D02*
X17325000Y-4980000D01*
X17325000Y-6860000D02*
X17365000Y-6900000D01*
X17365000Y-6860000D02*
X17325000Y-6900000D01*
X17325000Y-8780000D02*
X17365000Y-8820000D01*
X17365000Y-8780000D02*
X17325000Y-8820000D01*
X17325000Y-10700000D02*
X17365000Y-10740000D01*
X17365000Y-10700000D02*
X17325000Y-10740000D01*
X17325000Y-12620000D02*
X17365000Y-12660000D01*
X17365000Y-12620000D02*
X17325000Y-12660000D01*
X17465000Y-4580000D02*
X17505000Y-4620000D01*
X17505000Y-4580000D02*
X17465000Y-4620000D01*
X17465000Y-4990000D02*
X17505000Y-5030000D01*
X17505000Y-4990000D02*
X17465000Y-5030000D01*
X17465000Y-6500000D02*
X17505000Y-6540000D01*
X17505000Y-6500000D02*
X17465000Y-6540000D01*
X17465000Y-6910000D02*
X17505000Y-6950000D01*
X17505000Y-6910000D02*
X17465000Y-6950000D01*
X17465000Y-8420000D02*
X17505000Y-8460000D01*
X17505000Y-8420000D02*
X17465000Y-8460000D01*
X17465000Y-8830000D02*
X17505000Y-8870000D01*
X17505000Y-8830000D02*
X17465000Y-8870000D01*
X17465000Y-10340000D02*
X17505000Y-10380000D01*
X17505000Y-10340000D02*
X17465000Y-10380000D01*
X17465000Y-10750000D02*
X17505000Y-10790000D01*
X17505000Y-10750000D02*
X17465000Y-10790000D01*
X17465000Y-12260000D02*
X17505000Y-12300000D01*
X17505000Y-12260000D02*
X17465000Y-12300000D01*
X17465000Y-12670000D02*
X17505000Y-12710000D01*
X17505000Y-12670000D02*
X17465000Y-12710000D01*
X17610000Y-4935000D02*
X17650000Y-4975000D01*
X17650000Y-4935000D02*
X17610000Y-4975000D01*
X17610000Y-6855000D02*
X17650000Y-6895000D01*
X17650000Y-6855000D02*
X17610000Y-6895000D01*
X17610000Y-8775000D02*
X17650000Y-8815000D01*
X17650000Y-8775000D02*
X17610000Y-8815000D01*
X17610000Y-10695000D02*
X17650000Y-10735000D01*
X17650000Y-10695000D02*
X17610000Y-10735000D01*
X17610000Y-12615000D02*
X17650000Y-12655000D01*
X17650000Y-12615000D02*
X17610000Y-12655000D01*
X17615000Y-4650000D02*
X17655000Y-4690000D01*
X17655000Y-4650000D02*
X17615000Y-4690000D01*
X17615000Y-6570000D02*
X17655000Y-6610000D01*
X17655000Y-6570000D02*
X17615000Y-6610000D01*
X17615000Y-8490000D02*
X17655000Y-8530000D01*
X17655000Y-8490000D02*
X17615000Y-8530000D01*
X17615000Y-10410000D02*
X17655000Y-10450000D01*
X17655000Y-10410000D02*
X17615000Y-10450000D01*
X17615000Y-12330000D02*
X17655000Y-12370000D01*
X17655000Y-12330000D02*
X17615000Y-12370000D01*
X17670000Y-4780000D02*
X17710000Y-4820000D01*
X17710000Y-4780000D02*
X17670000Y-4820000D01*
X17670000Y-6700000D02*
X17710000Y-6740000D01*
X17710000Y-6700000D02*
X17670000Y-6740000D01*
X17670000Y-8620000D02*
X17710000Y-8660000D01*
X17710000Y-8620000D02*
X17670000Y-8660000D01*
X17670000Y-10540000D02*
X17710000Y-10580000D01*
X17710000Y-10540000D02*
X17670000Y-10580000D01*
X17670000Y-12460000D02*
X17710000Y-12500000D01*
X17710000Y-12460000D02*
X17670000Y-12500000D01*
X18140000Y-4790000D02*
X18180000Y-4830000D01*
X18180000Y-4790000D02*
X18140000Y-4830000D01*
X18140000Y-6710000D02*
X18180000Y-6750000D01*
X18180000Y-6710000D02*
X18140000Y-6750000D01*
X18140000Y-8630000D02*
X18180000Y-8670000D01*
X18180000Y-8630000D02*
X18140000Y-8670000D01*
X18140000Y-10550000D02*
X18180000Y-10590000D01*
X18180000Y-10550000D02*
X18140000Y-10590000D01*
X18140000Y-12470000D02*
X18180000Y-12510000D01*
X18180000Y-12470000D02*
X18140000Y-12510000D01*
X18195000Y-4645000D02*
X18235000Y-4685000D01*
X18235000Y-4645000D02*
X18195000Y-4685000D01*
X18195000Y-6565000D02*
X18235000Y-6605000D01*
X18235000Y-6565000D02*
X18195000Y-6605000D01*
X18195000Y-8485000D02*
X18235000Y-8525000D01*
X18235000Y-8485000D02*
X18195000Y-8525000D01*
X18195000Y-10405000D02*
X18235000Y-10445000D01*
X18235000Y-10405000D02*
X18195000Y-10445000D01*
X18195000Y-12325000D02*
X18235000Y-12365000D01*
X18235000Y-12325000D02*
X18195000Y-12365000D01*
X18205000Y-4940000D02*
X18245000Y-4980000D01*
X18245000Y-4940000D02*
X18205000Y-4980000D01*
X18205000Y-6860000D02*
X18245000Y-6900000D01*
X18245000Y-6860000D02*
X18205000Y-6900000D01*
X18205000Y-8780000D02*
X18245000Y-8820000D01*
X18245000Y-8780000D02*
X18205000Y-8820000D01*
X18205000Y-10700000D02*
X18245000Y-10740000D01*
X18245000Y-10700000D02*
X18205000Y-10740000D01*
X18205000Y-12620000D02*
X18245000Y-12660000D01*
X18245000Y-12620000D02*
X18205000Y-12660000D01*
X18345000Y-4580000D02*
X18385000Y-4620000D01*
X18385000Y-4580000D02*
X18345000Y-4620000D01*
X18345000Y-4990000D02*
X18385000Y-5030000D01*
X18385000Y-4990000D02*
X18345000Y-5030000D01*
X18345000Y-6500000D02*
X18385000Y-6540000D01*
X18385000Y-6500000D02*
X18345000Y-6540000D01*
X18345000Y-6910000D02*
X18385000Y-6950000D01*
X18385000Y-6910000D02*
X18345000Y-6950000D01*
X18345000Y-8420000D02*
X18385000Y-8460000D01*
X18385000Y-8420000D02*
X18345000Y-8460000D01*
X18345000Y-8830000D02*
X18385000Y-8870000D01*
X18385000Y-8830000D02*
X18345000Y-8870000D01*
X18345000Y-10340000D02*
X18385000Y-10380000D01*
X18385000Y-10340000D02*
X18345000Y-10380000D01*
X18345000Y-10750000D02*
X18385000Y-10790000D01*
X18385000Y-10750000D02*
X18345000Y-10790000D01*
X18345000Y-12260000D02*
X18385000Y-12300000D01*
X18385000Y-12260000D02*
X18345000Y-12300000D01*
X18345000Y-12670000D02*
X18385000Y-12710000D01*
X18385000Y-12670000D02*
X18345000Y-12710000D01*
X18490000Y-4935000D02*
X18530000Y-4975000D01*
X18530000Y-4935000D02*
X18490000Y-4975000D01*
X18490000Y-6855000D02*
X18530000Y-6895000D01*
X18530000Y-6855000D02*
X18490000Y-6895000D01*
X18490000Y-8775000D02*
X18530000Y-8815000D01*
X18530000Y-8775000D02*
X18490000Y-8815000D01*
X18490000Y-10695000D02*
X18530000Y-10735000D01*
X18530000Y-10695000D02*
X18490000Y-10735000D01*
X18490000Y-12615000D02*
X18530000Y-12655000D01*
X18530000Y-12615000D02*
X18490000Y-12655000D01*
X18495000Y-4650000D02*
X18535000Y-4690000D01*
X18535000Y-4650000D02*
X18495000Y-4690000D01*
X18495000Y-6570000D02*
X18535000Y-6610000D01*
X18535000Y-6570000D02*
X18495000Y-6610000D01*
X18495000Y-8490000D02*
X18535000Y-8530000D01*
X18535000Y-8490000D02*
X18495000Y-8530000D01*
X18495000Y-10410000D02*
X18535000Y-10450000D01*
X18535000Y-10410000D02*
X18495000Y-10450000D01*
X18495000Y-12330000D02*
X18535000Y-12370000D01*
X18535000Y-12330000D02*
X18495000Y-12370000D01*
X18550000Y-4780000D02*
X18590000Y-4820000D01*
X18590000Y-4780000D02*
X18550000Y-4820000D01*
X18550000Y-6700000D02*
X18590000Y-6740000D01*
X18590000Y-6700000D02*
X18550000Y-6740000D01*
X18550000Y-8620000D02*
X18590000Y-8660000D01*
X18590000Y-8620000D02*
X18550000Y-8660000D01*
X18550000Y-10540000D02*
X18590000Y-10580000D01*
X18590000Y-10540000D02*
X18550000Y-10580000D01*
X18550000Y-12460000D02*
X18590000Y-12500000D01*
X18590000Y-12460000D02*
X18550000Y-12500000D01*
X18660000Y-3890000D02*
X18700000Y-3930000D01*
X18700000Y-3890000D02*
X18660000Y-3930000D01*
X18660000Y-5810000D02*
X18700000Y-5850000D01*
X18700000Y-5810000D02*
X18660000Y-5850000D01*
X18660000Y-7730000D02*
X18700000Y-7770000D01*
X18700000Y-7730000D02*
X18660000Y-7770000D01*
X18660000Y-9650000D02*
X18700000Y-9690000D01*
X18700000Y-9650000D02*
X18660000Y-9690000D01*
X18660000Y-11570000D02*
X18700000Y-11610000D01*
X18700000Y-11570000D02*
X18660000Y-11610000D01*
X18665000Y-4865000D02*
X18705000Y-4905000D01*
X18705000Y-4865000D02*
X18665000Y-4905000D01*
X18665000Y-5175000D02*
X18705000Y-5215000D01*
X18705000Y-5175000D02*
X18665000Y-5215000D01*
X18665000Y-6785000D02*
X18705000Y-6825000D01*
X18705000Y-6785000D02*
X18665000Y-6825000D01*
X18665000Y-7095000D02*
X18705000Y-7135000D01*
X18705000Y-7095000D02*
X18665000Y-7135000D01*
X18665000Y-8705000D02*
X18705000Y-8745000D01*
X18705000Y-8705000D02*
X18665000Y-8745000D01*
X18665000Y-9015000D02*
X18705000Y-9055000D01*
X18705000Y-9015000D02*
X18665000Y-9055000D01*
X18665000Y-10625000D02*
X18705000Y-10665000D01*
X18705000Y-10625000D02*
X18665000Y-10665000D01*
X18665000Y-10935000D02*
X18705000Y-10975000D01*
X18705000Y-10935000D02*
X18665000Y-10975000D01*
X18665000Y-12545000D02*
X18705000Y-12585000D01*
X18705000Y-12545000D02*
X18665000Y-12585000D01*
X18665000Y-12855000D02*
X18705000Y-12895000D01*
X18705000Y-12855000D02*
X18665000Y-12895000D01*
X18715000Y-3745000D02*
X18755000Y-3785000D01*
X18755000Y-3745000D02*
X18715000Y-3785000D01*
X18715000Y-5665000D02*
X18755000Y-5705000D01*
X18755000Y-5665000D02*
X18715000Y-5705000D01*
X18715000Y-7585000D02*
X18755000Y-7625000D01*
X18755000Y-7585000D02*
X18715000Y-7625000D01*
X18715000Y-9505000D02*
X18755000Y-9545000D01*
X18755000Y-9505000D02*
X18715000Y-9545000D01*
X18715000Y-11425000D02*
X18755000Y-11465000D01*
X18755000Y-11425000D02*
X18715000Y-11465000D01*
X18725000Y-4040000D02*
X18765000Y-4080000D01*
X18765000Y-4040000D02*
X18725000Y-4080000D01*
X18725000Y-5960000D02*
X18765000Y-6000000D01*
X18765000Y-5960000D02*
X18725000Y-6000000D01*
X18725000Y-7880000D02*
X18765000Y-7920000D01*
X18765000Y-7880000D02*
X18725000Y-7920000D01*
X18725000Y-9800000D02*
X18765000Y-9840000D01*
X18765000Y-9800000D02*
X18725000Y-9840000D01*
X18725000Y-11720000D02*
X18765000Y-11760000D01*
X18765000Y-11720000D02*
X18725000Y-11760000D01*
X18865000Y-3680000D02*
X18905000Y-3720000D01*
X18905000Y-3680000D02*
X18865000Y-3720000D01*
X18865000Y-4090000D02*
X18905000Y-4130000D01*
X18905000Y-4090000D02*
X18865000Y-4130000D01*
X18865000Y-4865000D02*
X18905000Y-4905000D01*
X18905000Y-4865000D02*
X18865000Y-4905000D01*
X18865000Y-5185000D02*
X18905000Y-5225000D01*
X18905000Y-5185000D02*
X18865000Y-5225000D01*
X18865000Y-5600000D02*
X18905000Y-5640000D01*
X18905000Y-5600000D02*
X18865000Y-5640000D01*
X18865000Y-6010000D02*
X18905000Y-6050000D01*
X18905000Y-6010000D02*
X18865000Y-6050000D01*
X18865000Y-6785000D02*
X18905000Y-6825000D01*
X18905000Y-6785000D02*
X18865000Y-6825000D01*
X18865000Y-7105000D02*
X18905000Y-7145000D01*
X18905000Y-7105000D02*
X18865000Y-7145000D01*
X18865000Y-7520000D02*
X18905000Y-7560000D01*
X18905000Y-7520000D02*
X18865000Y-7560000D01*
X18865000Y-7930000D02*
X18905000Y-7970000D01*
X18905000Y-7930000D02*
X18865000Y-7970000D01*
X18865000Y-8705000D02*
X18905000Y-8745000D01*
X18905000Y-8705000D02*
X18865000Y-8745000D01*
X18865000Y-9025000D02*
X18905000Y-9065000D01*
X18905000Y-9025000D02*
X18865000Y-9065000D01*
X18865000Y-9440000D02*
X18905000Y-9480000D01*
X18905000Y-9440000D02*
X18865000Y-9480000D01*
X18865000Y-9850000D02*
X18905000Y-9890000D01*
X18905000Y-9850000D02*
X18865000Y-9890000D01*
X18865000Y-10625000D02*
X18905000Y-10665000D01*
X18905000Y-10625000D02*
X18865000Y-10665000D01*
X18865000Y-10945000D02*
X18905000Y-10985000D01*
X18905000Y-10945000D02*
X18865000Y-10985000D01*
X18865000Y-11360000D02*
X18905000Y-11400000D01*
X18905000Y-11360000D02*
X18865000Y-11400000D01*
X18865000Y-11770000D02*
X18905000Y-11810000D01*
X18905000Y-11770000D02*
X18865000Y-11810000D01*
X18865000Y-12545000D02*
X18905000Y-12585000D01*
X18905000Y-12545000D02*
X18865000Y-12585000D01*
X18865000Y-12865000D02*
X18905000Y-12905000D01*
X18905000Y-12865000D02*
X18865000Y-12905000D01*
X19010000Y-4035000D02*
X19050000Y-4075000D01*
X19050000Y-4035000D02*
X19010000Y-4075000D01*
X19010000Y-5955000D02*
X19050000Y-5995000D01*
X19050000Y-5955000D02*
X19010000Y-5995000D01*
X19010000Y-7875000D02*
X19050000Y-7915000D01*
X19050000Y-7875000D02*
X19010000Y-7915000D01*
X19010000Y-9795000D02*
X19050000Y-9835000D01*
X19050000Y-9795000D02*
X19010000Y-9835000D01*
X19010000Y-11715000D02*
X19050000Y-11755000D01*
X19050000Y-11715000D02*
X19010000Y-11755000D01*
X19015000Y-3750000D02*
X19055000Y-3790000D01*
X19055000Y-3750000D02*
X19015000Y-3790000D01*
X19015000Y-5670000D02*
X19055000Y-5710000D01*
X19055000Y-5670000D02*
X19015000Y-5710000D01*
X19015000Y-7590000D02*
X19055000Y-7630000D01*
X19055000Y-7590000D02*
X19015000Y-7630000D01*
X19015000Y-9510000D02*
X19055000Y-9550000D01*
X19055000Y-9510000D02*
X19015000Y-9550000D01*
X19015000Y-11430000D02*
X19055000Y-11470000D01*
X19055000Y-11430000D02*
X19015000Y-11470000D01*
X19065000Y-5190000D02*
X19105000Y-5230000D01*
X19105000Y-5190000D02*
X19065000Y-5230000D01*
X19065000Y-7110000D02*
X19105000Y-7150000D01*
X19105000Y-7110000D02*
X19065000Y-7150000D01*
X19065000Y-9030000D02*
X19105000Y-9070000D01*
X19105000Y-9030000D02*
X19065000Y-9070000D01*
X19065000Y-10950000D02*
X19105000Y-10990000D01*
X19105000Y-10950000D02*
X19065000Y-10990000D01*
X19065000Y-12870000D02*
X19105000Y-12910000D01*
X19105000Y-12870000D02*
X19065000Y-12910000D01*
X19070000Y-3880000D02*
X19110000Y-3920000D01*
X19110000Y-3880000D02*
X19070000Y-3920000D01*
X19070000Y-4870000D02*
X19110000Y-4910000D01*
X19110000Y-4870000D02*
X19070000Y-4910000D01*
X19070000Y-5800000D02*
X19110000Y-5840000D01*
X19110000Y-5800000D02*
X19070000Y-5840000D01*
X19070000Y-6790000D02*
X19110000Y-6830000D01*
X19110000Y-6790000D02*
X19070000Y-6830000D01*
X19070000Y-7720000D02*
X19110000Y-7760000D01*
X19110000Y-7720000D02*
X19070000Y-7760000D01*
X19070000Y-8710000D02*
X19110000Y-8750000D01*
X19110000Y-8710000D02*
X19070000Y-8750000D01*
X19070000Y-9640000D02*
X19110000Y-9680000D01*
X19110000Y-9640000D02*
X19070000Y-9680000D01*
X19070000Y-10630000D02*
X19110000Y-10670000D01*
X19110000Y-10630000D02*
X19070000Y-10670000D01*
X19070000Y-11560000D02*
X19110000Y-11600000D01*
X19110000Y-11560000D02*
X19070000Y-11600000D01*
X19070000Y-12550000D02*
X19110000Y-12590000D01*
X19110000Y-12550000D02*
X19070000Y-12590000D01*
X19180000Y-4790000D02*
X19220000Y-4830000D01*
X19220000Y-4790000D02*
X19180000Y-4830000D01*
X19180000Y-6710000D02*
X19220000Y-6750000D01*
X19220000Y-6710000D02*
X19180000Y-6750000D01*
X19180000Y-8630000D02*
X19220000Y-8670000D01*
X19220000Y-8630000D02*
X19180000Y-8670000D01*
X19180000Y-10550000D02*
X19220000Y-10590000D01*
X19220000Y-10550000D02*
X19180000Y-10590000D01*
X19180000Y-12470000D02*
X19220000Y-12510000D01*
X19220000Y-12470000D02*
X19180000Y-12510000D01*
X19235000Y-4645000D02*
X19275000Y-4685000D01*
X19275000Y-4645000D02*
X19235000Y-4685000D01*
X19235000Y-6565000D02*
X19275000Y-6605000D01*
X19275000Y-6565000D02*
X19235000Y-6605000D01*
X19235000Y-8485000D02*
X19275000Y-8525000D01*
X19275000Y-8485000D02*
X19235000Y-8525000D01*
X19235000Y-10405000D02*
X19275000Y-10445000D01*
X19275000Y-10405000D02*
X19235000Y-10445000D01*
X19235000Y-12325000D02*
X19275000Y-12365000D01*
X19275000Y-12325000D02*
X19235000Y-12365000D01*
X19245000Y-4940000D02*
X19285000Y-4980000D01*
X19285000Y-4940000D02*
X19245000Y-4980000D01*
X19245000Y-6860000D02*
X19285000Y-6900000D01*
X19285000Y-6860000D02*
X19245000Y-6900000D01*
X19245000Y-8780000D02*
X19285000Y-8820000D01*
X19285000Y-8780000D02*
X19245000Y-8820000D01*
X19245000Y-10700000D02*
X19285000Y-10740000D01*
X19285000Y-10700000D02*
X19245000Y-10740000D01*
X19245000Y-12620000D02*
X19285000Y-12660000D01*
X19285000Y-12620000D02*
X19245000Y-12660000D01*
X19385000Y-4580000D02*
X19425000Y-4620000D01*
X19425000Y-4580000D02*
X19385000Y-4620000D01*
X19385000Y-4990000D02*
X19425000Y-5030000D01*
X19425000Y-4990000D02*
X19385000Y-5030000D01*
X19385000Y-6500000D02*
X19425000Y-6540000D01*
X19425000Y-6500000D02*
X19385000Y-6540000D01*
X19385000Y-6910000D02*
X19425000Y-6950000D01*
X19425000Y-6910000D02*
X19385000Y-6950000D01*
X19385000Y-8420000D02*
X19425000Y-8460000D01*
X19425000Y-8420000D02*
X19385000Y-8460000D01*
X19385000Y-8830000D02*
X19425000Y-8870000D01*
X19425000Y-8830000D02*
X19385000Y-8870000D01*
X19385000Y-10340000D02*
X19425000Y-10380000D01*
X19425000Y-10340000D02*
X19385000Y-10380000D01*
X19385000Y-10750000D02*
X19425000Y-10790000D01*
X19425000Y-10750000D02*
X19385000Y-10790000D01*
X19385000Y-12260000D02*
X19425000Y-12300000D01*
X19425000Y-12260000D02*
X19385000Y-12300000D01*
X19385000Y-12670000D02*
X19425000Y-12710000D01*
X19425000Y-12670000D02*
X19385000Y-12710000D01*
X19530000Y-4935000D02*
X19570000Y-4975000D01*
X19570000Y-4935000D02*
X19530000Y-4975000D01*
X19530000Y-6855000D02*
X19570000Y-6895000D01*
X19570000Y-6855000D02*
X19530000Y-6895000D01*
X19530000Y-8775000D02*
X19570000Y-8815000D01*
X19570000Y-8775000D02*
X19530000Y-8815000D01*
X19530000Y-10695000D02*
X19570000Y-10735000D01*
X19570000Y-10695000D02*
X19530000Y-10735000D01*
X19530000Y-12615000D02*
X19570000Y-12655000D01*
X19570000Y-12615000D02*
X19530000Y-12655000D01*
X19535000Y-4650000D02*
X19575000Y-4690000D01*
X19575000Y-4650000D02*
X19535000Y-4690000D01*
X19535000Y-6570000D02*
X19575000Y-6610000D01*
X19575000Y-6570000D02*
X19535000Y-6610000D01*
X19535000Y-8490000D02*
X19575000Y-8530000D01*
X19575000Y-8490000D02*
X19535000Y-8530000D01*
X19535000Y-10410000D02*
X19575000Y-10450000D01*
X19575000Y-10410000D02*
X19535000Y-10450000D01*
X19535000Y-12330000D02*
X19575000Y-12370000D01*
X19575000Y-12330000D02*
X19535000Y-12370000D01*
X19590000Y-4780000D02*
X19630000Y-4820000D01*
X19630000Y-4780000D02*
X19590000Y-4820000D01*
X19590000Y-6700000D02*
X19630000Y-6740000D01*
X19630000Y-6700000D02*
X19590000Y-6740000D01*
X19590000Y-8620000D02*
X19630000Y-8660000D01*
X19630000Y-8620000D02*
X19590000Y-8660000D01*
X19590000Y-10540000D02*
X19630000Y-10580000D01*
X19630000Y-10540000D02*
X19590000Y-10580000D01*
X19590000Y-12460000D02*
X19630000Y-12500000D01*
X19630000Y-12460000D02*
X19590000Y-12500000D01*
D11*
X10500777Y-13466484D02*
X10500777Y-13266484D01*
X10500777Y-13266484D02*
X10548396Y-13266484D01*
X10548396Y-13266484D02*
X10576967Y-13276008D01*
X10576967Y-13276008D02*
X10596015Y-13295055D01*
X10596015Y-13295055D02*
X10605539Y-13314103D01*
X10605539Y-13314103D02*
X10615063Y-13352198D01*
X10615063Y-13352198D02*
X10615063Y-13380769D01*
X10615063Y-13380769D02*
X10605539Y-13418865D01*
X10605539Y-13418865D02*
X10596015Y-13437912D01*
X10596015Y-13437912D02*
X10576967Y-13456960D01*
X10576967Y-13456960D02*
X10548396Y-13466484D01*
X10548396Y-13466484D02*
X10500777Y-13466484D01*
X10700777Y-13466484D02*
X10700777Y-13333150D01*
X10700777Y-13371246D02*
X10710301Y-13352198D01*
X10710301Y-13352198D02*
X10719824Y-13342674D01*
X10719824Y-13342674D02*
X10738872Y-13333150D01*
X10738872Y-13333150D02*
X10757920Y-13333150D01*
X10824586Y-13466484D02*
X10824586Y-13333150D01*
X10824586Y-13266484D02*
X10815063Y-13276008D01*
X10815063Y-13276008D02*
X10824586Y-13285531D01*
X10824586Y-13285531D02*
X10834110Y-13276008D01*
X10834110Y-13276008D02*
X10824586Y-13266484D01*
X10824586Y-13266484D02*
X10824586Y-13285531D01*
X10948396Y-13466484D02*
X10929348Y-13456960D01*
X10929348Y-13456960D02*
X10919824Y-13437912D01*
X10919824Y-13437912D02*
X10919824Y-13266484D01*
X11053158Y-13466484D02*
X11034110Y-13456960D01*
X11034110Y-13456960D02*
X11024586Y-13437912D01*
X11024586Y-13437912D02*
X11024586Y-13266484D01*
X11281729Y-13466484D02*
X11281729Y-13266484D01*
X11281729Y-13266484D02*
X11348396Y-13409341D01*
X11348396Y-13409341D02*
X11415062Y-13266484D01*
X11415062Y-13266484D02*
X11415062Y-13466484D01*
X11596015Y-13466484D02*
X11596015Y-13361722D01*
X11596015Y-13361722D02*
X11586491Y-13342674D01*
X11586491Y-13342674D02*
X11567443Y-13333150D01*
X11567443Y-13333150D02*
X11529348Y-13333150D01*
X11529348Y-13333150D02*
X11510301Y-13342674D01*
X11596015Y-13456960D02*
X11576967Y-13466484D01*
X11576967Y-13466484D02*
X11529348Y-13466484D01*
X11529348Y-13466484D02*
X11510301Y-13456960D01*
X11510301Y-13456960D02*
X11500777Y-13437912D01*
X11500777Y-13437912D02*
X11500777Y-13418865D01*
X11500777Y-13418865D02*
X11510301Y-13399817D01*
X11510301Y-13399817D02*
X11529348Y-13390293D01*
X11529348Y-13390293D02*
X11576967Y-13390293D01*
X11576967Y-13390293D02*
X11596015Y-13380769D01*
X11691253Y-13333150D02*
X11691253Y-13533150D01*
X11691253Y-13342674D02*
X11710301Y-13333150D01*
X11710301Y-13333150D02*
X11748396Y-13333150D01*
X11748396Y-13333150D02*
X11767443Y-13342674D01*
X11767443Y-13342674D02*
X11776967Y-13352198D01*
X11776967Y-13352198D02*
X11786491Y-13371246D01*
X11786491Y-13371246D02*
X11786491Y-13428388D01*
X11786491Y-13428388D02*
X11776967Y-13447436D01*
X11776967Y-13447436D02*
X11767443Y-13456960D01*
X11767443Y-13456960D02*
X11748396Y-13466484D01*
X11748396Y-13466484D02*
X11710301Y-13466484D01*
X11710301Y-13466484D02*
X11691253Y-13456960D01*
X11872205Y-13447436D02*
X11881729Y-13456960D01*
X11881729Y-13456960D02*
X11872205Y-13466484D01*
X11872205Y-13466484D02*
X11862682Y-13456960D01*
X11862682Y-13456960D02*
X11872205Y-13447436D01*
X11872205Y-13447436D02*
X11872205Y-13466484D01*
X11872205Y-13342674D02*
X11881729Y-13352198D01*
X11881729Y-13352198D02*
X11872205Y-13361722D01*
X11872205Y-13361722D02*
X11862682Y-13352198D01*
X11862682Y-13352198D02*
X11872205Y-13342674D01*
X11872205Y-13342674D02*
X11872205Y-13361722D01*
D10*
X10200000Y-13775000D02*
X10240000Y-13815000D01*
X10240000Y-13775000D02*
X10200000Y-13815000D01*
D11*
X10538872Y-13686484D02*
X10557920Y-13686484D01*
X10557920Y-13686484D02*
X10576967Y-13696008D01*
X10576967Y-13696008D02*
X10586491Y-13705531D01*
X10586491Y-13705531D02*
X10596015Y-13724579D01*
X10596015Y-13724579D02*
X10605539Y-13762674D01*
X10605539Y-13762674D02*
X10605539Y-13810293D01*
X10605539Y-13810293D02*
X10596015Y-13848388D01*
X10596015Y-13848388D02*
X10586491Y-13867436D01*
X10586491Y-13867436D02*
X10576967Y-13876960D01*
X10576967Y-13876960D02*
X10557920Y-13886484D01*
X10557920Y-13886484D02*
X10538872Y-13886484D01*
X10538872Y-13886484D02*
X10519824Y-13876960D01*
X10519824Y-13876960D02*
X10510301Y-13867436D01*
X10510301Y-13867436D02*
X10500777Y-13848388D01*
X10500777Y-13848388D02*
X10491253Y-13810293D01*
X10491253Y-13810293D02*
X10491253Y-13762674D01*
X10491253Y-13762674D02*
X10500777Y-13724579D01*
X10500777Y-13724579D02*
X10510301Y-13705531D01*
X10510301Y-13705531D02*
X10519824Y-13696008D01*
X10519824Y-13696008D02*
X10538872Y-13686484D01*
X10691253Y-13867436D02*
X10700777Y-13876960D01*
X10700777Y-13876960D02*
X10691253Y-13886484D01*
X10691253Y-13886484D02*
X10681729Y-13876960D01*
X10681729Y-13876960D02*
X10691253Y-13867436D01*
X10691253Y-13867436D02*
X10691253Y-13886484D01*
X10872205Y-13753150D02*
X10872205Y-13886484D01*
X10824586Y-13676960D02*
X10776967Y-13819817D01*
X10776967Y-13819817D02*
X10900777Y-13819817D01*
X11015063Y-13686484D02*
X11034110Y-13686484D01*
X11034110Y-13686484D02*
X11053158Y-13696008D01*
X11053158Y-13696008D02*
X11062682Y-13705531D01*
X11062682Y-13705531D02*
X11072205Y-13724579D01*
X11072205Y-13724579D02*
X11081729Y-13762674D01*
X11081729Y-13762674D02*
X11081729Y-13810293D01*
X11081729Y-13810293D02*
X11072205Y-13848388D01*
X11072205Y-13848388D02*
X11062682Y-13867436D01*
X11062682Y-13867436D02*
X11053158Y-13876960D01*
X11053158Y-13876960D02*
X11034110Y-13886484D01*
X11034110Y-13886484D02*
X11015063Y-13886484D01*
X11015063Y-13886484D02*
X10996015Y-13876960D01*
X10996015Y-13876960D02*
X10986491Y-13867436D01*
X10986491Y-13867436D02*
X10976967Y-13848388D01*
X10976967Y-13848388D02*
X10967444Y-13810293D01*
X10967444Y-13810293D02*
X10967444Y-13762674D01*
X10967444Y-13762674D02*
X10976967Y-13724579D01*
X10976967Y-13724579D02*
X10986491Y-13705531D01*
X10986491Y-13705531D02*
X10996015Y-13696008D01*
X10996015Y-13696008D02*
X11015063Y-13686484D01*
X11205539Y-13686484D02*
X11224586Y-13686484D01*
X11224586Y-13686484D02*
X11243634Y-13696008D01*
X11243634Y-13696008D02*
X11253158Y-13705531D01*
X11253158Y-13705531D02*
X11262682Y-13724579D01*
X11262682Y-13724579D02*
X11272205Y-13762674D01*
X11272205Y-13762674D02*
X11272205Y-13810293D01*
X11272205Y-13810293D02*
X11262682Y-13848388D01*
X11262682Y-13848388D02*
X11253158Y-13867436D01*
X11253158Y-13867436D02*
X11243634Y-13876960D01*
X11243634Y-13876960D02*
X11224586Y-13886484D01*
X11224586Y-13886484D02*
X11205539Y-13886484D01*
X11205539Y-13886484D02*
X11186491Y-13876960D01*
X11186491Y-13876960D02*
X11176967Y-13867436D01*
X11176967Y-13867436D02*
X11167444Y-13848388D01*
X11167444Y-13848388D02*
X11157920Y-13810293D01*
X11157920Y-13810293D02*
X11157920Y-13762674D01*
X11157920Y-13762674D02*
X11167444Y-13724579D01*
X11167444Y-13724579D02*
X11176967Y-13705531D01*
X11176967Y-13705531D02*
X11186491Y-13696008D01*
X11186491Y-13696008D02*
X11205539Y-13686484D01*
X11357920Y-13886484D02*
X11357920Y-13753150D01*
X11357920Y-13772198D02*
X11367443Y-13762674D01*
X11367443Y-13762674D02*
X11386491Y-13753150D01*
X11386491Y-13753150D02*
X11415063Y-13753150D01*
X11415063Y-13753150D02*
X11434110Y-13762674D01*
X11434110Y-13762674D02*
X11443634Y-13781722D01*
X11443634Y-13781722D02*
X11443634Y-13886484D01*
X11443634Y-13781722D02*
X11453158Y-13762674D01*
X11453158Y-13762674D02*
X11472205Y-13753150D01*
X11472205Y-13753150D02*
X11500777Y-13753150D01*
X11500777Y-13753150D02*
X11519824Y-13762674D01*
X11519824Y-13762674D02*
X11529348Y-13781722D01*
X11529348Y-13781722D02*
X11529348Y-13886484D01*
X11624586Y-13886484D02*
X11624586Y-13753150D01*
X11624586Y-13772198D02*
X11634110Y-13762674D01*
X11634110Y-13762674D02*
X11653158Y-13753150D01*
X11653158Y-13753150D02*
X11681729Y-13753150D01*
X11681729Y-13753150D02*
X11700777Y-13762674D01*
X11700777Y-13762674D02*
X11710301Y-13781722D01*
X11710301Y-13781722D02*
X11710301Y-13886484D01*
X11710301Y-13781722D02*
X11719824Y-13762674D01*
X11719824Y-13762674D02*
X11738872Y-13753150D01*
X11738872Y-13753150D02*
X11767443Y-13753150D01*
X11767443Y-13753150D02*
X11786491Y-13762674D01*
X11786491Y-13762674D02*
X11796015Y-13781722D01*
X11796015Y-13781722D02*
X11796015Y-13886484D01*
X12186491Y-13676960D02*
X12015063Y-13934103D01*
X12443634Y-13686484D02*
X12462682Y-13686484D01*
X12462682Y-13686484D02*
X12481729Y-13696008D01*
X12481729Y-13696008D02*
X12491253Y-13705531D01*
X12491253Y-13705531D02*
X12500777Y-13724579D01*
X12500777Y-13724579D02*
X12510301Y-13762674D01*
X12510301Y-13762674D02*
X12510301Y-13810293D01*
X12510301Y-13810293D02*
X12500777Y-13848388D01*
X12500777Y-13848388D02*
X12491253Y-13867436D01*
X12491253Y-13867436D02*
X12481729Y-13876960D01*
X12481729Y-13876960D02*
X12462682Y-13886484D01*
X12462682Y-13886484D02*
X12443634Y-13886484D01*
X12443634Y-13886484D02*
X12424586Y-13876960D01*
X12424586Y-13876960D02*
X12415063Y-13867436D01*
X12415063Y-13867436D02*
X12405539Y-13848388D01*
X12405539Y-13848388D02*
X12396015Y-13810293D01*
X12396015Y-13810293D02*
X12396015Y-13762674D01*
X12396015Y-13762674D02*
X12405539Y-13724579D01*
X12405539Y-13724579D02*
X12415063Y-13705531D01*
X12415063Y-13705531D02*
X12424586Y-13696008D01*
X12424586Y-13696008D02*
X12443634Y-13686484D01*
X12596015Y-13867436D02*
X12605539Y-13876960D01*
X12605539Y-13876960D02*
X12596015Y-13886484D01*
X12596015Y-13886484D02*
X12586491Y-13876960D01*
X12586491Y-13876960D02*
X12596015Y-13867436D01*
X12596015Y-13867436D02*
X12596015Y-13886484D01*
X12729348Y-13686484D02*
X12748396Y-13686484D01*
X12748396Y-13686484D02*
X12767444Y-13696008D01*
X12767444Y-13696008D02*
X12776967Y-13705531D01*
X12776967Y-13705531D02*
X12786491Y-13724579D01*
X12786491Y-13724579D02*
X12796015Y-13762674D01*
X12796015Y-13762674D02*
X12796015Y-13810293D01*
X12796015Y-13810293D02*
X12786491Y-13848388D01*
X12786491Y-13848388D02*
X12776967Y-13867436D01*
X12776967Y-13867436D02*
X12767444Y-13876960D01*
X12767444Y-13876960D02*
X12748396Y-13886484D01*
X12748396Y-13886484D02*
X12729348Y-13886484D01*
X12729348Y-13886484D02*
X12710301Y-13876960D01*
X12710301Y-13876960D02*
X12700777Y-13867436D01*
X12700777Y-13867436D02*
X12691253Y-13848388D01*
X12691253Y-13848388D02*
X12681729Y-13810293D01*
X12681729Y-13810293D02*
X12681729Y-13762674D01*
X12681729Y-13762674D02*
X12691253Y-13724579D01*
X12691253Y-13724579D02*
X12700777Y-13705531D01*
X12700777Y-13705531D02*
X12710301Y-13696008D01*
X12710301Y-13696008D02*
X12729348Y-13686484D01*
X12986491Y-13886484D02*
X12872206Y-13886484D01*
X12929348Y-13886484D02*
X12929348Y-13686484D01*
X12929348Y-13686484D02*
X12910301Y-13715055D01*
X12910301Y-13715055D02*
X12891253Y-13734103D01*
X12891253Y-13734103D02*
X12872206Y-13743627D01*
X13167444Y-13686484D02*
X13072206Y-13686484D01*
X13072206Y-13686484D02*
X13062682Y-13781722D01*
X13062682Y-13781722D02*
X13072206Y-13772198D01*
X13072206Y-13772198D02*
X13091253Y-13762674D01*
X13091253Y-13762674D02*
X13138872Y-13762674D01*
X13138872Y-13762674D02*
X13157920Y-13772198D01*
X13157920Y-13772198D02*
X13167444Y-13781722D01*
X13167444Y-13781722D02*
X13176967Y-13800769D01*
X13176967Y-13800769D02*
X13176967Y-13848388D01*
X13176967Y-13848388D02*
X13167444Y-13867436D01*
X13167444Y-13867436D02*
X13157920Y-13876960D01*
X13157920Y-13876960D02*
X13138872Y-13886484D01*
X13138872Y-13886484D02*
X13091253Y-13886484D01*
X13091253Y-13886484D02*
X13072206Y-13876960D01*
X13072206Y-13876960D02*
X13062682Y-13867436D01*
X13243634Y-13686484D02*
X13376967Y-13686484D01*
X13376967Y-13686484D02*
X13291253Y-13886484D01*
X13443634Y-13686484D02*
X13443634Y-13724579D01*
X13519825Y-13686484D02*
X13519825Y-13724579D01*
X13815063Y-13962674D02*
X13805539Y-13953150D01*
X13805539Y-13953150D02*
X13786491Y-13924579D01*
X13786491Y-13924579D02*
X13776968Y-13905531D01*
X13776968Y-13905531D02*
X13767444Y-13876960D01*
X13767444Y-13876960D02*
X13757920Y-13829341D01*
X13757920Y-13829341D02*
X13757920Y-13791246D01*
X13757920Y-13791246D02*
X13767444Y-13743627D01*
X13767444Y-13743627D02*
X13776968Y-13715055D01*
X13776968Y-13715055D02*
X13786491Y-13696008D01*
X13786491Y-13696008D02*
X13805539Y-13667436D01*
X13805539Y-13667436D02*
X13815063Y-13657912D01*
X13872206Y-13686484D02*
X14005539Y-13686484D01*
X14005539Y-13686484D02*
X13919825Y-13886484D01*
X14176968Y-13686484D02*
X14081729Y-13686484D01*
X14081729Y-13686484D02*
X14072206Y-13781722D01*
X14072206Y-13781722D02*
X14081729Y-13772198D01*
X14081729Y-13772198D02*
X14100777Y-13762674D01*
X14100777Y-13762674D02*
X14148396Y-13762674D01*
X14148396Y-13762674D02*
X14167444Y-13772198D01*
X14167444Y-13772198D02*
X14176968Y-13781722D01*
X14176968Y-13781722D02*
X14186491Y-13800769D01*
X14186491Y-13800769D02*
X14186491Y-13848388D01*
X14186491Y-13848388D02*
X14176968Y-13867436D01*
X14176968Y-13867436D02*
X14167444Y-13876960D01*
X14167444Y-13876960D02*
X14148396Y-13886484D01*
X14148396Y-13886484D02*
X14100777Y-13886484D01*
X14100777Y-13886484D02*
X14081729Y-13876960D01*
X14081729Y-13876960D02*
X14072206Y-13867436D01*
X14310301Y-13686484D02*
X14329349Y-13686484D01*
X14329349Y-13686484D02*
X14348396Y-13696008D01*
X14348396Y-13696008D02*
X14357920Y-13705531D01*
X14357920Y-13705531D02*
X14367444Y-13724579D01*
X14367444Y-13724579D02*
X14376968Y-13762674D01*
X14376968Y-13762674D02*
X14376968Y-13810293D01*
X14376968Y-13810293D02*
X14367444Y-13848388D01*
X14367444Y-13848388D02*
X14357920Y-13867436D01*
X14357920Y-13867436D02*
X14348396Y-13876960D01*
X14348396Y-13876960D02*
X14329349Y-13886484D01*
X14329349Y-13886484D02*
X14310301Y-13886484D01*
X14310301Y-13886484D02*
X14291253Y-13876960D01*
X14291253Y-13876960D02*
X14281729Y-13867436D01*
X14281729Y-13867436D02*
X14272206Y-13848388D01*
X14272206Y-13848388D02*
X14262682Y-13810293D01*
X14262682Y-13810293D02*
X14262682Y-13762674D01*
X14262682Y-13762674D02*
X14272206Y-13724579D01*
X14272206Y-13724579D02*
X14281729Y-13705531D01*
X14281729Y-13705531D02*
X14291253Y-13696008D01*
X14291253Y-13696008D02*
X14310301Y-13686484D01*
X14615063Y-13886484D02*
X14615063Y-13686484D01*
X14700777Y-13886484D02*
X14700777Y-13781722D01*
X14700777Y-13781722D02*
X14691253Y-13762674D01*
X14691253Y-13762674D02*
X14672206Y-13753150D01*
X14672206Y-13753150D02*
X14643634Y-13753150D01*
X14643634Y-13753150D02*
X14624587Y-13762674D01*
X14624587Y-13762674D02*
X14615063Y-13772198D01*
X14824587Y-13886484D02*
X14805539Y-13876960D01*
X14805539Y-13876960D02*
X14796015Y-13867436D01*
X14796015Y-13867436D02*
X14786491Y-13848388D01*
X14786491Y-13848388D02*
X14786491Y-13791246D01*
X14786491Y-13791246D02*
X14796015Y-13772198D01*
X14796015Y-13772198D02*
X14805539Y-13762674D01*
X14805539Y-13762674D02*
X14824587Y-13753150D01*
X14824587Y-13753150D02*
X14853158Y-13753150D01*
X14853158Y-13753150D02*
X14872206Y-13762674D01*
X14872206Y-13762674D02*
X14881730Y-13772198D01*
X14881730Y-13772198D02*
X14891253Y-13791246D01*
X14891253Y-13791246D02*
X14891253Y-13848388D01*
X14891253Y-13848388D02*
X14881730Y-13867436D01*
X14881730Y-13867436D02*
X14872206Y-13876960D01*
X14872206Y-13876960D02*
X14853158Y-13886484D01*
X14853158Y-13886484D02*
X14824587Y-13886484D01*
X15005539Y-13886484D02*
X14986491Y-13876960D01*
X14986491Y-13876960D02*
X14976968Y-13857912D01*
X14976968Y-13857912D02*
X14976968Y-13686484D01*
X15157920Y-13876960D02*
X15138872Y-13886484D01*
X15138872Y-13886484D02*
X15100777Y-13886484D01*
X15100777Y-13886484D02*
X15081730Y-13876960D01*
X15081730Y-13876960D02*
X15072206Y-13857912D01*
X15072206Y-13857912D02*
X15072206Y-13781722D01*
X15072206Y-13781722D02*
X15081730Y-13762674D01*
X15081730Y-13762674D02*
X15100777Y-13753150D01*
X15100777Y-13753150D02*
X15138872Y-13753150D01*
X15138872Y-13753150D02*
X15157920Y-13762674D01*
X15157920Y-13762674D02*
X15167444Y-13781722D01*
X15167444Y-13781722D02*
X15167444Y-13800769D01*
X15167444Y-13800769D02*
X15072206Y-13819817D01*
X15243634Y-13876960D02*
X15262682Y-13886484D01*
X15262682Y-13886484D02*
X15300777Y-13886484D01*
X15300777Y-13886484D02*
X15319825Y-13876960D01*
X15319825Y-13876960D02*
X15329349Y-13857912D01*
X15329349Y-13857912D02*
X15329349Y-13848388D01*
X15329349Y-13848388D02*
X15319825Y-13829341D01*
X15319825Y-13829341D02*
X15300777Y-13819817D01*
X15300777Y-13819817D02*
X15272206Y-13819817D01*
X15272206Y-13819817D02*
X15253158Y-13810293D01*
X15253158Y-13810293D02*
X15243634Y-13791246D01*
X15243634Y-13791246D02*
X15243634Y-13781722D01*
X15243634Y-13781722D02*
X15253158Y-13762674D01*
X15253158Y-13762674D02*
X15272206Y-13753150D01*
X15272206Y-13753150D02*
X15300777Y-13753150D01*
X15300777Y-13753150D02*
X15319825Y-13762674D01*
X15396015Y-13962674D02*
X15405539Y-13953150D01*
X15405539Y-13953150D02*
X15424587Y-13924579D01*
X15424587Y-13924579D02*
X15434111Y-13905531D01*
X15434111Y-13905531D02*
X15443634Y-13876960D01*
X15443634Y-13876960D02*
X15453158Y-13829341D01*
X15453158Y-13829341D02*
X15453158Y-13791246D01*
X15453158Y-13791246D02*
X15443634Y-13743627D01*
X15443634Y-13743627D02*
X15434111Y-13715055D01*
X15434111Y-13715055D02*
X15424587Y-13696008D01*
X15424587Y-13696008D02*
X15405539Y-13667436D01*
X15405539Y-13667436D02*
X15396015Y-13657912D01*
M02*
