M48
; DRILL file {KiCad 7.0.9} date Tue Jan  2 20:32:26 2024
; FORMAT={-:-/ absolute / metric / decimal}
; #@! TF.CreationDate,2024-01-02T20:32:26+01:00
; #@! TF.GenerationSoftware,Kicad,Pcbnew,7.0.9
; #@! TF.FileFunction,Plated,1,2,PTH
FMAT,2
METRIC
; #@! TA.AperFunction,Plated,PTH,ViaDrill
T1C0.300
%
G90
G05
T1
X69.8Y-57.5
X69.8Y-74.3
X69.8Y-91.1
X69.8Y-107.9
X69.8Y-124.7
X70.45Y-57.5
X70.45Y-74.3
X70.45Y-91.1
X70.45Y-107.9
X70.45Y-124.7
X70.55Y-44.75
X70.55Y-48.75
X70.55Y-61.55
X70.55Y-65.55
X70.55Y-78.35
X70.55Y-82.35
X70.55Y-95.15
X70.55Y-99.15
X70.55Y-111.95
X70.55Y-115.95
X71.05Y-56.25
X71.05Y-73.05
X71.05Y-89.85
X71.05Y-106.65
X71.05Y-123.45
X71.2Y-57.5
X71.2Y-74.3
X71.2Y-91.1
X71.2Y-107.9
X71.2Y-124.7
X71.7Y-56.25
X71.7Y-73.05
X71.7Y-89.85
X71.7Y-106.65
X71.7Y-123.45
X72.2Y-58.3
X72.2Y-59.0
X72.2Y-75.1
X72.2Y-75.8
X72.2Y-91.9
X72.2Y-92.6
X72.2Y-108.7
X72.2Y-109.4
X72.2Y-125.5
X72.2Y-126.2
X72.35Y-56.25
X72.35Y-73.05
X72.35Y-89.85
X72.35Y-106.65
X72.35Y-123.45
X72.65Y-44.65
X72.65Y-48.85
X72.65Y-61.45
X72.65Y-65.65
X72.65Y-78.25
X72.65Y-82.45
X72.65Y-95.05
X72.65Y-99.25
X72.65Y-111.85
X72.65Y-116.05
X72.95Y-56.25
X72.95Y-73.05
X72.95Y-89.85
X72.95Y-106.65
X72.95Y-123.45
X73.15Y-50.05
X73.15Y-51.15
X73.15Y-66.85
X73.15Y-67.95
X73.15Y-83.65
X73.15Y-84.75
X73.15Y-100.45
X73.15Y-101.55
X73.15Y-117.25
X73.15Y-118.35
X73.25Y-51.85
X73.25Y-68.65
X73.25Y-85.45
X73.25Y-102.25
X73.25Y-119.05
X73.85Y-51.85
X73.85Y-68.65
X73.85Y-85.45
X73.85Y-102.25
X73.85Y-119.05
X74.35Y-54.6
X74.35Y-71.4
X74.35Y-88.2
X74.35Y-105.0
X74.35Y-121.8
X74.65Y-47.45
X74.65Y-48.05
X74.65Y-48.65
X74.65Y-49.25
X74.65Y-64.25
X74.65Y-64.85
X74.65Y-65.45
X74.65Y-66.05
X74.65Y-81.05
X74.65Y-81.65
X74.65Y-82.25
X74.65Y-82.85
X74.65Y-97.85
X74.65Y-98.45
X74.65Y-99.05
X74.65Y-99.65
X74.65Y-114.65
X74.65Y-115.25
X74.65Y-115.85
X74.65Y-116.45
X75.95Y-44.05
X75.95Y-45.15
X75.95Y-46.0
X75.95Y-60.85
X75.95Y-61.95
X75.95Y-62.8
X75.95Y-77.65
X75.95Y-78.75
X75.95Y-79.6
X75.95Y-94.45
X75.95Y-95.55
X75.95Y-96.4
X75.95Y-111.25
X75.95Y-112.35
X75.95Y-113.2
X79.25Y-44.05
X79.25Y-45.15
X79.25Y-45.95
X79.25Y-60.85
X79.25Y-61.95
X79.25Y-62.75
X79.25Y-77.65
X79.25Y-78.75
X79.25Y-79.55
X79.25Y-94.45
X79.25Y-95.55
X79.25Y-96.35
X79.25Y-111.25
X79.25Y-112.35
X79.25Y-113.15
X79.85Y-47.05
X79.85Y-47.65
X79.85Y-48.25
X79.85Y-48.85
X79.85Y-63.85
X79.85Y-64.45
X79.85Y-65.05
X79.85Y-65.65
X79.85Y-80.65
X79.85Y-81.25
X79.85Y-81.85
X79.85Y-82.45
X79.85Y-97.45
X79.85Y-98.05
X79.85Y-98.65
X79.85Y-99.25
X79.85Y-114.25
X79.85Y-114.85
X79.85Y-115.45
X79.85Y-116.05
X82.9Y-43.299
X82.9Y-43.95
X82.9Y-60.099
X82.9Y-60.75
X82.9Y-76.9
X82.9Y-77.55
X82.9Y-93.7
X82.9Y-94.35
X82.9Y-110.499
X82.9Y-111.15
X84.05Y-44.8
X84.05Y-61.6
X84.05Y-78.4
X84.05Y-95.2
X84.05Y-112.0
X84.75Y-44.8
X84.75Y-61.6
X84.75Y-78.4
X84.75Y-95.2
X84.75Y-112.0
X85.4Y-44.8
X85.4Y-61.6
X85.4Y-78.4
X85.4Y-95.2
X85.4Y-112.0
X86.6Y-57.5
X86.6Y-74.3
X86.6Y-91.1
X86.6Y-107.9
X86.6Y-124.7
X87.25Y-57.5
X87.25Y-74.3
X87.25Y-91.1
X87.25Y-107.9
X87.25Y-124.7
X87.35Y-44.75
X87.35Y-48.75
X87.35Y-61.55
X87.35Y-65.55
X87.35Y-78.35
X87.35Y-82.35
X87.35Y-95.15
X87.35Y-99.15
X87.35Y-111.95
X87.35Y-115.95
X87.85Y-56.25
X87.85Y-73.05
X87.85Y-89.85
X87.85Y-106.65
X87.85Y-123.45
X88.0Y-57.5
X88.0Y-74.3
X88.0Y-91.1
X88.0Y-107.9
X88.0Y-124.7
X88.5Y-56.25
X88.5Y-73.05
X88.5Y-89.85
X88.5Y-106.65
X88.5Y-123.45
X89.0Y-58.3
X89.0Y-59.0
X89.0Y-75.1
X89.0Y-75.8
X89.0Y-91.9
X89.0Y-92.6
X89.0Y-108.7
X89.0Y-109.4
X89.0Y-125.5
X89.0Y-126.2
X89.15Y-56.25
X89.15Y-73.05
X89.15Y-89.85
X89.15Y-106.65
X89.15Y-123.45
X89.45Y-44.65
X89.45Y-48.85
X89.45Y-61.45
X89.45Y-65.65
X89.45Y-78.25
X89.45Y-82.45
X89.45Y-95.05
X89.45Y-99.25
X89.45Y-111.85
X89.45Y-116.05
X89.75Y-56.25
X89.75Y-73.05
X89.75Y-89.85
X89.75Y-106.65
X89.75Y-123.45
X89.95Y-50.05
X89.95Y-51.15
X89.95Y-66.85
X89.95Y-67.95
X89.95Y-83.65
X89.95Y-84.75
X89.95Y-100.45
X89.95Y-101.55
X89.95Y-117.25
X89.95Y-118.35
X90.05Y-51.85
X90.05Y-68.65
X90.05Y-85.45
X90.05Y-102.25
X90.05Y-119.05
X90.65Y-51.85
X90.65Y-68.65
X90.65Y-85.45
X90.65Y-102.25
X90.65Y-119.05
X91.15Y-54.6
X91.15Y-71.4
X91.15Y-88.2
X91.15Y-105.0
X91.15Y-121.8
X91.45Y-47.45
X91.45Y-48.05
X91.45Y-48.65
X91.45Y-49.25
X91.45Y-64.25
X91.45Y-64.85
X91.45Y-65.45
X91.45Y-66.05
X91.45Y-81.05
X91.45Y-81.65
X91.45Y-82.25
X91.45Y-82.85
X91.45Y-97.85
X91.45Y-98.45
X91.45Y-99.05
X91.45Y-99.65
X91.45Y-114.65
X91.45Y-115.25
X91.45Y-115.85
X91.45Y-116.45
X92.75Y-44.05
X92.75Y-45.15
X92.75Y-46.0
X92.75Y-60.85
X92.75Y-61.95
X92.75Y-62.8
X92.75Y-77.65
X92.75Y-78.75
X92.75Y-79.6
X92.75Y-94.45
X92.75Y-95.55
X92.75Y-96.4
X92.75Y-111.25
X92.75Y-112.35
X92.75Y-113.2
X96.05Y-44.05
X96.05Y-45.15
X96.05Y-45.95
X96.05Y-60.85
X96.05Y-61.95
X96.05Y-62.75
X96.05Y-77.65
X96.05Y-78.75
X96.05Y-79.55
X96.05Y-94.45
X96.05Y-95.55
X96.05Y-96.35
X96.05Y-111.25
X96.05Y-112.35
X96.05Y-113.15
X96.65Y-47.05
X96.65Y-47.65
X96.65Y-48.25
X96.65Y-48.85
X96.65Y-63.85
X96.65Y-64.45
X96.65Y-65.05
X96.65Y-65.65
X96.65Y-80.65
X96.65Y-81.25
X96.65Y-81.85
X96.65Y-82.45
X96.65Y-97.45
X96.65Y-98.05
X96.65Y-98.65
X96.65Y-99.25
X96.65Y-114.25
X96.65Y-114.85
X96.65Y-115.45
X96.65Y-116.05
X99.7Y-43.299
X99.7Y-43.95
X99.7Y-60.099
X99.7Y-60.75
X99.7Y-76.9
X99.7Y-77.55
X99.7Y-93.7
X99.7Y-94.35
X99.7Y-110.499
X99.7Y-111.15
X100.85Y-44.8
X100.85Y-61.6
X100.85Y-78.4
X100.85Y-95.2
X100.85Y-112.0
X101.55Y-44.8
X101.55Y-61.6
X101.55Y-78.4
X101.55Y-95.2
X101.55Y-112.0
X102.2Y-44.8
X102.2Y-61.6
X102.2Y-78.4
X102.2Y-95.2
X102.2Y-112.0
X103.4Y-57.5
X103.4Y-74.3
X103.4Y-91.1
X103.4Y-107.9
X103.4Y-124.7
X104.05Y-57.5
X104.05Y-74.3
X104.05Y-91.1
X104.05Y-107.9
X104.05Y-124.7
X104.15Y-44.75
X104.15Y-48.75
X104.15Y-61.55
X104.15Y-65.55
X104.15Y-78.35
X104.15Y-82.35
X104.15Y-95.15
X104.15Y-99.15
X104.15Y-111.95
X104.15Y-115.95
X104.65Y-56.25
X104.65Y-73.05
X104.65Y-89.85
X104.65Y-106.65
X104.65Y-123.45
X104.8Y-57.5
X104.8Y-74.3
X104.8Y-91.1
X104.8Y-107.9
X104.8Y-124.7
X105.3Y-56.25
X105.3Y-73.05
X105.3Y-89.85
X105.3Y-106.65
X105.3Y-123.45
X105.8Y-58.3
X105.8Y-59.0
X105.8Y-75.1
X105.8Y-75.8
X105.8Y-91.9
X105.8Y-92.6
X105.8Y-108.7
X105.8Y-109.4
X105.8Y-125.5
X105.8Y-126.2
X105.95Y-56.25
X105.95Y-73.05
X105.95Y-89.85
X105.95Y-106.65
X105.95Y-123.45
X106.25Y-44.65
X106.25Y-48.85
X106.25Y-61.45
X106.25Y-65.65
X106.25Y-78.25
X106.25Y-82.45
X106.25Y-95.05
X106.25Y-99.25
X106.25Y-111.85
X106.25Y-116.05
X106.55Y-56.25
X106.55Y-73.05
X106.55Y-89.85
X106.55Y-106.65
X106.55Y-123.45
X106.75Y-50.05
X106.75Y-51.15
X106.75Y-66.85
X106.75Y-67.95
X106.75Y-83.65
X106.75Y-84.75
X106.75Y-100.45
X106.75Y-101.55
X106.75Y-117.25
X106.75Y-118.35
X106.85Y-51.85
X106.85Y-68.65
X106.85Y-85.45
X106.85Y-102.25
X106.85Y-119.05
X107.45Y-51.85
X107.45Y-68.65
X107.45Y-85.45
X107.45Y-102.25
X107.45Y-119.05
X107.95Y-54.6
X107.95Y-71.4
X107.95Y-88.2
X107.95Y-105.0
X107.95Y-121.8
X108.25Y-47.45
X108.25Y-48.05
X108.25Y-48.65
X108.25Y-49.25
X108.25Y-64.25
X108.25Y-64.85
X108.25Y-65.45
X108.25Y-66.05
X108.25Y-81.05
X108.25Y-81.65
X108.25Y-82.25
X108.25Y-82.85
X108.25Y-97.85
X108.25Y-98.45
X108.25Y-99.05
X108.25Y-99.65
X108.25Y-114.65
X108.25Y-115.25
X108.25Y-115.85
X108.25Y-116.45
X109.55Y-44.05
X109.55Y-45.15
X109.55Y-46.0
X109.55Y-60.85
X109.55Y-61.95
X109.55Y-62.8
X109.55Y-77.65
X109.55Y-78.75
X109.55Y-79.6
X109.55Y-94.45
X109.55Y-95.55
X109.55Y-96.4
X109.55Y-111.25
X109.55Y-112.35
X109.55Y-113.2
X112.85Y-44.05
X112.85Y-45.15
X112.85Y-45.95
X112.85Y-60.85
X112.85Y-61.95
X112.85Y-62.75
X112.85Y-77.65
X112.85Y-78.75
X112.85Y-79.55
X112.85Y-94.45
X112.85Y-95.55
X112.85Y-96.35
X112.85Y-111.25
X112.85Y-112.35
X112.85Y-113.15
X113.45Y-47.05
X113.45Y-47.65
X113.45Y-48.25
X113.45Y-48.85
X113.45Y-63.85
X113.45Y-64.45
X113.45Y-65.05
X113.45Y-65.65
X113.45Y-80.65
X113.45Y-81.25
X113.45Y-81.85
X113.45Y-82.45
X113.45Y-97.45
X113.45Y-98.05
X113.45Y-98.65
X113.45Y-99.25
X113.45Y-114.25
X113.45Y-114.85
X113.45Y-115.45
X113.45Y-116.05
X116.5Y-43.299
X116.5Y-43.95
X116.5Y-60.099
X116.5Y-60.75
X116.5Y-76.9
X116.5Y-77.55
X116.5Y-93.7
X116.5Y-94.35
X116.5Y-110.499
X116.5Y-111.15
X117.65Y-44.8
X117.65Y-61.6
X117.65Y-78.4
X117.65Y-95.2
X117.65Y-112.0
X118.35Y-44.8
X118.35Y-61.6
X118.35Y-78.4
X118.35Y-95.2
X118.35Y-112.0
X119.0Y-44.8
X119.0Y-61.6
X119.0Y-78.4
X119.0Y-95.2
X119.0Y-112.0
X120.2Y-57.5
X120.2Y-74.3
X120.2Y-91.1
X120.2Y-107.9
X120.2Y-124.7
X120.85Y-57.5
X120.85Y-74.3
X120.85Y-91.1
X120.85Y-107.9
X120.85Y-124.7
X120.95Y-44.75
X120.95Y-48.75
X120.95Y-61.55
X120.95Y-65.55
X120.95Y-78.35
X120.95Y-82.35
X120.95Y-95.15
X120.95Y-99.15
X120.95Y-111.95
X120.95Y-115.95
X121.45Y-56.25
X121.45Y-73.05
X121.45Y-89.85
X121.45Y-106.65
X121.45Y-123.45
X121.6Y-57.5
X121.6Y-74.3
X121.6Y-91.1
X121.6Y-107.9
X121.6Y-124.7
X122.1Y-56.25
X122.1Y-73.05
X122.1Y-89.85
X122.1Y-106.65
X122.1Y-123.45
X122.6Y-58.3
X122.6Y-59.0
X122.6Y-75.1
X122.6Y-75.8
X122.6Y-91.9
X122.6Y-92.6
X122.6Y-108.7
X122.6Y-109.4
X122.6Y-125.5
X122.6Y-126.2
X122.75Y-56.25
X122.75Y-73.05
X122.75Y-89.85
X122.75Y-106.65
X122.75Y-123.45
X123.05Y-44.65
X123.05Y-48.85
X123.05Y-61.45
X123.05Y-65.65
X123.05Y-78.25
X123.05Y-82.45
X123.05Y-95.05
X123.05Y-99.25
X123.05Y-111.85
X123.05Y-116.05
X123.35Y-56.25
X123.35Y-73.05
X123.35Y-89.85
X123.35Y-106.65
X123.35Y-123.45
X123.55Y-50.05
X123.55Y-51.15
X123.55Y-66.85
X123.55Y-67.95
X123.55Y-83.65
X123.55Y-84.75
X123.55Y-100.45
X123.55Y-101.55
X123.55Y-117.25
X123.55Y-118.35
X123.65Y-51.85
X123.65Y-68.65
X123.65Y-85.45
X123.65Y-102.25
X123.65Y-119.05
X124.25Y-51.85
X124.25Y-68.65
X124.25Y-85.45
X124.25Y-102.25
X124.25Y-119.05
X124.75Y-54.6
X124.75Y-71.4
X124.75Y-88.2
X124.75Y-105.0
X124.75Y-121.8
X125.05Y-47.45
X125.05Y-48.05
X125.05Y-48.65
X125.05Y-49.25
X125.05Y-64.25
X125.05Y-64.85
X125.05Y-65.45
X125.05Y-66.05
X125.05Y-81.05
X125.05Y-81.65
X125.05Y-82.25
X125.05Y-82.85
X125.05Y-97.85
X125.05Y-98.45
X125.05Y-99.05
X125.05Y-99.65
X125.05Y-114.65
X125.05Y-115.25
X125.05Y-115.85
X125.05Y-116.45
X126.35Y-44.05
X126.35Y-45.15
X126.35Y-46.0
X126.35Y-60.85
X126.35Y-61.95
X126.35Y-62.8
X126.35Y-77.65
X126.35Y-78.75
X126.35Y-79.6
X126.35Y-94.45
X126.35Y-95.55
X126.35Y-96.4
X126.35Y-111.25
X126.35Y-112.35
X126.35Y-113.2
X129.65Y-44.05
X129.65Y-45.15
X129.65Y-45.95
X129.65Y-60.85
X129.65Y-61.95
X129.65Y-62.75
X129.65Y-77.65
X129.65Y-78.75
X129.65Y-79.55
X129.65Y-94.45
X129.65Y-95.55
X129.65Y-96.35
X129.65Y-111.25
X129.65Y-112.35
X129.65Y-113.15
X130.25Y-47.05
X130.25Y-47.65
X130.25Y-48.25
X130.25Y-48.85
X130.25Y-63.85
X130.25Y-64.45
X130.25Y-65.05
X130.25Y-65.65
X130.25Y-80.65
X130.25Y-81.25
X130.25Y-81.85
X130.25Y-82.45
X130.25Y-97.45
X130.25Y-98.05
X130.25Y-98.65
X130.25Y-99.25
X130.25Y-114.25
X130.25Y-114.85
X130.25Y-115.45
X130.25Y-116.05
X133.3Y-43.299
X133.3Y-43.95
X133.3Y-60.099
X133.3Y-60.75
X133.3Y-76.9
X133.3Y-77.55
X133.3Y-93.7
X133.3Y-94.35
X133.3Y-110.499
X133.3Y-111.15
X134.45Y-44.8
X134.45Y-61.6
X134.45Y-78.4
X134.45Y-95.2
X134.45Y-112.0
X135.15Y-44.8
X135.15Y-61.6
X135.15Y-78.4
X135.15Y-95.2
X135.15Y-112.0
X135.8Y-44.8
X135.8Y-61.6
X135.8Y-78.4
X135.8Y-95.2
X135.8Y-112.0
X137.0Y-57.5
X137.0Y-74.3
X137.0Y-91.1
X137.0Y-107.9
X137.0Y-124.7
X137.65Y-57.5
X137.65Y-74.3
X137.65Y-91.1
X137.65Y-107.9
X137.65Y-124.7
X137.75Y-44.75
X137.75Y-48.75
X137.75Y-61.55
X137.75Y-65.55
X137.75Y-78.35
X137.75Y-82.35
X137.75Y-95.15
X137.75Y-99.15
X137.75Y-111.95
X137.75Y-115.95
X138.25Y-56.25
X138.25Y-73.05
X138.25Y-89.85
X138.25Y-106.65
X138.25Y-123.45
X138.4Y-57.5
X138.4Y-74.3
X138.4Y-91.1
X138.4Y-107.9
X138.4Y-124.7
X138.9Y-56.25
X138.9Y-73.05
X138.9Y-89.85
X138.9Y-106.65
X138.9Y-123.45
X139.4Y-58.3
X139.4Y-59.0
X139.4Y-75.1
X139.4Y-75.8
X139.4Y-91.9
X139.4Y-92.6
X139.4Y-108.7
X139.4Y-109.4
X139.4Y-125.5
X139.4Y-126.2
X139.55Y-56.25
X139.55Y-73.05
X139.55Y-89.85
X139.55Y-106.65
X139.55Y-123.45
X139.85Y-44.65
X139.85Y-48.85
X139.85Y-61.45
X139.85Y-65.65
X139.85Y-78.25
X139.85Y-82.45
X139.85Y-95.05
X139.85Y-99.25
X139.85Y-111.85
X139.85Y-116.05
X140.15Y-56.25
X140.15Y-73.05
X140.15Y-89.85
X140.15Y-106.65
X140.15Y-123.45
X140.35Y-50.05
X140.35Y-51.15
X140.35Y-66.85
X140.35Y-67.95
X140.35Y-83.65
X140.35Y-84.75
X140.35Y-100.45
X140.35Y-101.55
X140.35Y-117.25
X140.35Y-118.35
X140.45Y-51.85
X140.45Y-68.65
X140.45Y-85.45
X140.45Y-102.25
X140.45Y-119.05
X141.05Y-51.85
X141.05Y-68.65
X141.05Y-85.45
X141.05Y-102.25
X141.05Y-119.05
X141.55Y-54.6
X141.55Y-71.4
X141.55Y-88.2
X141.55Y-105.0
X141.55Y-121.8
X141.85Y-47.45
X141.85Y-48.05
X141.85Y-48.65
X141.85Y-49.25
X141.85Y-64.25
X141.85Y-64.85
X141.85Y-65.45
X141.85Y-66.05
X141.85Y-81.05
X141.85Y-81.65
X141.85Y-82.25
X141.85Y-82.85
X141.85Y-97.85
X141.85Y-98.45
X141.85Y-99.05
X141.85Y-99.65
X141.85Y-114.65
X141.85Y-115.25
X141.85Y-115.85
X141.85Y-116.45
X143.15Y-44.05
X143.15Y-45.15
X143.15Y-46.0
X143.15Y-60.85
X143.15Y-61.95
X143.15Y-62.8
X143.15Y-77.65
X143.15Y-78.75
X143.15Y-79.6
X143.15Y-94.45
X143.15Y-95.55
X143.15Y-96.4
X143.15Y-111.25
X143.15Y-112.35
X143.15Y-113.2
X146.45Y-44.05
X146.45Y-45.15
X146.45Y-45.95
X146.45Y-60.85
X146.45Y-61.95
X146.45Y-62.75
X146.45Y-77.65
X146.45Y-78.75
X146.45Y-79.55
X146.45Y-94.45
X146.45Y-95.55
X146.45Y-96.35
X146.45Y-111.25
X146.45Y-112.35
X146.45Y-113.15
X147.05Y-47.05
X147.05Y-47.65
X147.05Y-48.25
X147.05Y-48.85
X147.05Y-63.85
X147.05Y-64.45
X147.05Y-65.05
X147.05Y-65.65
X147.05Y-80.65
X147.05Y-81.25
X147.05Y-81.85
X147.05Y-82.45
X147.05Y-97.45
X147.05Y-98.05
X147.05Y-98.65
X147.05Y-99.25
X147.05Y-114.25
X147.05Y-114.85
X147.05Y-115.45
X147.05Y-116.05
X150.1Y-43.299
X150.1Y-43.95
X150.1Y-60.099
X150.1Y-60.75
X150.1Y-76.9
X150.1Y-77.55
X150.1Y-93.7
X150.1Y-94.35
X150.1Y-110.499
X150.1Y-111.15
X151.25Y-44.8
X151.25Y-61.6
X151.25Y-78.4
X151.25Y-95.2
X151.25Y-112.0
X151.95Y-44.8
X151.95Y-61.6
X151.95Y-78.4
X151.95Y-95.2
X151.95Y-112.0
X152.6Y-44.8
X152.6Y-61.6
X152.6Y-78.4
X152.6Y-95.2
X152.6Y-112.0
T0
M30
