%TF.GenerationSoftware,KiCad,Pcbnew,7.0.9*%
%TF.CreationDate,2024-01-02T20:32:26+01:00*%
%TF.ProjectId,Nutzen,4e75747a-656e-42e6-9b69-6361645f7063,rev?*%
%TF.SameCoordinates,Original*%
%TF.FileFunction,Drillmap*%
%TF.FilePolarity,Positive*%
%FSLAX45Y45*%
G04 Gerber Fmt 4.5, Leading zero omitted, Abs format (unit mm)*
G04 Created by KiCad (PCBNEW 7.0.9) date 2024-01-02 20:32:26*
%MOMM*%
%LPD*%
G01*
G04 APERTURE LIST*
%ADD10C,0.100000*%
%ADD11C,0.200000*%
G04 APERTURE END LIST*
D10*
X13635000Y-10995000D02*
X15315000Y-10995000D01*
X15315000Y-10995000D02*
X15315000Y-9315000D01*
X13635000Y-4275000D02*
X13635000Y-5955000D01*
X15315000Y-7635000D02*
X13635000Y-7635000D01*
X15315000Y-9315000D02*
X15315000Y-7635000D01*
X15315000Y-4275000D02*
X13635000Y-4275000D01*
X13635000Y-7635000D02*
X13635000Y-9315000D01*
X13635000Y-9315000D02*
X15315000Y-9315000D01*
X13635000Y-5955000D02*
X13635000Y-7635000D01*
X15315000Y-5955000D02*
X13635000Y-5955000D01*
X13635000Y-7635000D02*
X15315000Y-7635000D01*
X15315000Y-7635000D02*
X15315000Y-5955000D01*
X13635000Y-5955000D02*
X15315000Y-5955000D01*
X15315000Y-5955000D02*
X15315000Y-4275000D01*
X15315000Y-10995000D02*
X13635000Y-10995000D01*
X13635000Y-10995000D02*
X13635000Y-12675000D01*
X15315000Y-9315000D02*
X13635000Y-9315000D01*
X13635000Y-12675000D02*
X15315000Y-12675000D01*
X15315000Y-12675000D02*
X15315000Y-10995000D01*
X13635000Y-9315000D02*
X13635000Y-10995000D01*
X11955000Y-10995000D02*
X13635000Y-10995000D01*
X13635000Y-10995000D02*
X13635000Y-9315000D01*
X11955000Y-4275000D02*
X11955000Y-5955000D01*
X13635000Y-7635000D02*
X11955000Y-7635000D01*
X13635000Y-9315000D02*
X13635000Y-7635000D01*
X13635000Y-4275000D02*
X11955000Y-4275000D01*
X11955000Y-7635000D02*
X11955000Y-9315000D01*
X11955000Y-9315000D02*
X13635000Y-9315000D01*
X11955000Y-5955000D02*
X11955000Y-7635000D01*
X13635000Y-5955000D02*
X11955000Y-5955000D01*
X11955000Y-7635000D02*
X13635000Y-7635000D01*
X13635000Y-7635000D02*
X13635000Y-5955000D01*
X11955000Y-5955000D02*
X13635000Y-5955000D01*
X13635000Y-5955000D02*
X13635000Y-4275000D01*
X13635000Y-10995000D02*
X11955000Y-10995000D01*
X11955000Y-10995000D02*
X11955000Y-12675000D01*
X13635000Y-9315000D02*
X11955000Y-9315000D01*
X11955000Y-12675000D02*
X13635000Y-12675000D01*
X13635000Y-12675000D02*
X13635000Y-10995000D01*
X11955000Y-9315000D02*
X11955000Y-10995000D01*
X10275000Y-10995000D02*
X11955000Y-10995000D01*
X11955000Y-10995000D02*
X11955000Y-9315000D01*
X10275000Y-4275000D02*
X10275000Y-5955000D01*
X11955000Y-7635000D02*
X10275000Y-7635000D01*
X11955000Y-9315000D02*
X11955000Y-7635000D01*
X11955000Y-4275000D02*
X10275000Y-4275000D01*
X10275000Y-7635000D02*
X10275000Y-9315000D01*
X10275000Y-9315000D02*
X11955000Y-9315000D01*
X10275000Y-5955000D02*
X10275000Y-7635000D01*
X11955000Y-5955000D02*
X10275000Y-5955000D01*
X10275000Y-7635000D02*
X11955000Y-7635000D01*
X11955000Y-7635000D02*
X11955000Y-5955000D01*
X10275000Y-5955000D02*
X11955000Y-5955000D01*
X11955000Y-5955000D02*
X11955000Y-4275000D01*
X11955000Y-10995000D02*
X10275000Y-10995000D01*
X10275000Y-10995000D02*
X10275000Y-12675000D01*
X11955000Y-9315000D02*
X10275000Y-9315000D01*
X10275000Y-12675000D02*
X11955000Y-12675000D01*
X11955000Y-12675000D02*
X11955000Y-10995000D01*
X10275000Y-9315000D02*
X10275000Y-10995000D01*
X8595000Y-10995000D02*
X10275000Y-10995000D01*
X10275000Y-10995000D02*
X10275000Y-9315000D01*
X8595000Y-4275000D02*
X8595000Y-5955000D01*
X10275000Y-7635000D02*
X8595000Y-7635000D01*
X10275000Y-9315000D02*
X10275000Y-7635000D01*
X10275000Y-4275000D02*
X8595000Y-4275000D01*
X8595000Y-7635000D02*
X8595000Y-9315000D01*
X8595000Y-9315000D02*
X10275000Y-9315000D01*
X8595000Y-5955000D02*
X8595000Y-7635000D01*
X10275000Y-5955000D02*
X8595000Y-5955000D01*
X8595000Y-7635000D02*
X10275000Y-7635000D01*
X10275000Y-7635000D02*
X10275000Y-5955000D01*
X8595000Y-5955000D02*
X10275000Y-5955000D01*
X10275000Y-5955000D02*
X10275000Y-4275000D01*
X10275000Y-10995000D02*
X8595000Y-10995000D01*
X8595000Y-10995000D02*
X8595000Y-12675000D01*
X10275000Y-9315000D02*
X8595000Y-9315000D01*
X8595000Y-12675000D02*
X10275000Y-12675000D01*
X10275000Y-12675000D02*
X10275000Y-10995000D01*
X8595000Y-9315000D02*
X8595000Y-10995000D01*
X6915000Y-10995000D02*
X6915000Y-12675000D01*
X8595000Y-10995000D02*
X6915000Y-10995000D01*
X6915000Y-12675000D02*
X8595000Y-12675000D01*
X8595000Y-12675000D02*
X8595000Y-10995000D01*
X6915000Y-9315000D02*
X6915000Y-10995000D01*
X8595000Y-9315000D02*
X6915000Y-9315000D01*
X6915000Y-10995000D02*
X8595000Y-10995000D01*
X8595000Y-10995000D02*
X8595000Y-9315000D01*
X6915000Y-7635000D02*
X6915000Y-9315000D01*
X8595000Y-7635000D02*
X6915000Y-7635000D01*
X6915000Y-9315000D02*
X8595000Y-9315000D01*
X8595000Y-9315000D02*
X8595000Y-7635000D01*
X6915000Y-5955000D02*
X6915000Y-7635000D01*
X8595000Y-5955000D02*
X6915000Y-5955000D01*
X6915000Y-7635000D02*
X8595000Y-7635000D01*
X8595000Y-7635000D02*
X8595000Y-5955000D01*
X6915000Y-5955000D02*
X8595000Y-5955000D01*
X8595000Y-4275000D02*
X6915000Y-4275000D01*
X8595000Y-5955000D02*
X8595000Y-4275000D01*
X6915000Y-4275000D02*
X6915000Y-5955000D01*
D11*
X7170777Y-12991484D02*
X7170777Y-12791484D01*
X7170777Y-12791484D02*
X7218396Y-12791484D01*
X7218396Y-12791484D02*
X7246967Y-12801008D01*
X7246967Y-12801008D02*
X7266015Y-12820055D01*
X7266015Y-12820055D02*
X7275539Y-12839103D01*
X7275539Y-12839103D02*
X7285062Y-12877198D01*
X7285062Y-12877198D02*
X7285062Y-12905769D01*
X7285062Y-12905769D02*
X7275539Y-12943865D01*
X7275539Y-12943865D02*
X7266015Y-12962912D01*
X7266015Y-12962912D02*
X7246967Y-12981960D01*
X7246967Y-12981960D02*
X7218396Y-12991484D01*
X7218396Y-12991484D02*
X7170777Y-12991484D01*
X7370777Y-12991484D02*
X7370777Y-12858150D01*
X7370777Y-12896246D02*
X7380301Y-12877198D01*
X7380301Y-12877198D02*
X7389824Y-12867674D01*
X7389824Y-12867674D02*
X7408872Y-12858150D01*
X7408872Y-12858150D02*
X7427920Y-12858150D01*
X7494586Y-12991484D02*
X7494586Y-12858150D01*
X7494586Y-12791484D02*
X7485062Y-12801008D01*
X7485062Y-12801008D02*
X7494586Y-12810531D01*
X7494586Y-12810531D02*
X7504110Y-12801008D01*
X7504110Y-12801008D02*
X7494586Y-12791484D01*
X7494586Y-12791484D02*
X7494586Y-12810531D01*
X7618396Y-12991484D02*
X7599348Y-12981960D01*
X7599348Y-12981960D02*
X7589824Y-12962912D01*
X7589824Y-12962912D02*
X7589824Y-12791484D01*
X7723158Y-12991484D02*
X7704110Y-12981960D01*
X7704110Y-12981960D02*
X7694586Y-12962912D01*
X7694586Y-12962912D02*
X7694586Y-12791484D01*
X7951729Y-12991484D02*
X7951729Y-12791484D01*
X7951729Y-12791484D02*
X8018396Y-12934341D01*
X8018396Y-12934341D02*
X8085062Y-12791484D01*
X8085062Y-12791484D02*
X8085062Y-12991484D01*
X8266015Y-12991484D02*
X8266015Y-12886722D01*
X8266015Y-12886722D02*
X8256491Y-12867674D01*
X8256491Y-12867674D02*
X8237443Y-12858150D01*
X8237443Y-12858150D02*
X8199348Y-12858150D01*
X8199348Y-12858150D02*
X8180301Y-12867674D01*
X8266015Y-12981960D02*
X8246967Y-12991484D01*
X8246967Y-12991484D02*
X8199348Y-12991484D01*
X8199348Y-12991484D02*
X8180301Y-12981960D01*
X8180301Y-12981960D02*
X8170777Y-12962912D01*
X8170777Y-12962912D02*
X8170777Y-12943865D01*
X8170777Y-12943865D02*
X8180301Y-12924817D01*
X8180301Y-12924817D02*
X8199348Y-12915293D01*
X8199348Y-12915293D02*
X8246967Y-12915293D01*
X8246967Y-12915293D02*
X8266015Y-12905769D01*
X8361253Y-12858150D02*
X8361253Y-13058150D01*
X8361253Y-12867674D02*
X8380301Y-12858150D01*
X8380301Y-12858150D02*
X8418396Y-12858150D01*
X8418396Y-12858150D02*
X8437444Y-12867674D01*
X8437444Y-12867674D02*
X8446967Y-12877198D01*
X8446967Y-12877198D02*
X8456491Y-12896246D01*
X8456491Y-12896246D02*
X8456491Y-12953388D01*
X8456491Y-12953388D02*
X8446967Y-12972436D01*
X8446967Y-12972436D02*
X8437444Y-12981960D01*
X8437444Y-12981960D02*
X8418396Y-12991484D01*
X8418396Y-12991484D02*
X8380301Y-12991484D01*
X8380301Y-12991484D02*
X8361253Y-12981960D01*
X8542205Y-12972436D02*
X8551729Y-12981960D01*
X8551729Y-12981960D02*
X8542205Y-12991484D01*
X8542205Y-12991484D02*
X8532682Y-12981960D01*
X8532682Y-12981960D02*
X8542205Y-12972436D01*
X8542205Y-12972436D02*
X8542205Y-12991484D01*
X8542205Y-12867674D02*
X8551729Y-12877198D01*
X8551729Y-12877198D02*
X8542205Y-12886722D01*
X8542205Y-12886722D02*
X8532682Y-12877198D01*
X8532682Y-12877198D02*
X8542205Y-12867674D01*
X8542205Y-12867674D02*
X8542205Y-12886722D01*
M02*
