G04 #@! TF.GenerationSoftware,KiCad,Pcbnew,7.0.9*
G04 #@! TF.CreationDate,2024-01-01T14:05:58+01:00*
G04 #@! TF.ProjectId,Nutzen,4e75747a-656e-42e6-9b69-6361645f7063,rev?*
G04 #@! TF.SameCoordinates,Original*
G04 #@! TF.FileFunction,Legend,Bot*
G04 #@! TF.FilePolarity,Positive*
%FSLAX46Y46*%
G04 Gerber Fmt 4.6, Leading zero omitted, Abs format (unit mm)*
G04 Created by KiCad (PCBNEW 7.0.9) date 2024-01-01 14:05:58*
%MOMM*%
%LPD*%
G01*
G04 APERTURE LIST*
G04 Aperture macros list*
%AMRoundRect*
0 Rectangle with rounded corners*
0 $1 Rounding radius*
0 $2 $3 $4 $5 $6 $7 $8 $9 X,Y pos of 4 corners*
0 Add a 4 corners polygon primitive as box body*
4,1,4,$2,$3,$4,$5,$6,$7,$8,$9,$2,$3,0*
0 Add four circle primitives for the rounded corners*
1,1,$1+$1,$2,$3*
1,1,$1+$1,$4,$5*
1,1,$1+$1,$6,$7*
1,1,$1+$1,$8,$9*
0 Add four rect primitives between the rounded corners*
20,1,$1+$1,$2,$3,$4,$5,0*
20,1,$1+$1,$4,$5,$6,$7,0*
20,1,$1+$1,$6,$7,$8,$9,0*
20,1,$1+$1,$8,$9,$2,$3,0*%
G04 Aperture macros list end*
%ADD10C,0.150000*%
%ADD11C,0.120000*%
%ADD12C,2.000000*%
%ADD13RoundRect,0.250000X0.750000X0.250000X-0.750000X0.250000X-0.750000X-0.250000X0.750000X-0.250000X0*%
G04 APERTURE END LIST*
D10*
X92337030Y-89119819D02*
X92813220Y-89119819D01*
X92813220Y-89119819D02*
X92813220Y-88119819D01*
X92003696Y-88596009D02*
X91670363Y-88596009D01*
X91527506Y-89119819D02*
X92003696Y-89119819D01*
X92003696Y-89119819D02*
X92003696Y-88119819D01*
X92003696Y-88119819D02*
X91527506Y-88119819D01*
X91098934Y-89119819D02*
X91098934Y-88119819D01*
X91098934Y-88119819D02*
X90860839Y-88119819D01*
X90860839Y-88119819D02*
X90717982Y-88167438D01*
X90717982Y-88167438D02*
X90622744Y-88262676D01*
X90622744Y-88262676D02*
X90575125Y-88357914D01*
X90575125Y-88357914D02*
X90527506Y-88548390D01*
X90527506Y-88548390D02*
X90527506Y-88691247D01*
X90527506Y-88691247D02*
X90575125Y-88881723D01*
X90575125Y-88881723D02*
X90622744Y-88976961D01*
X90622744Y-88976961D02*
X90717982Y-89072200D01*
X90717982Y-89072200D02*
X90860839Y-89119819D01*
X90860839Y-89119819D02*
X91098934Y-89119819D01*
X90098934Y-88738866D02*
X89337030Y-88738866D01*
X131762969Y-106830180D02*
X131286779Y-106830180D01*
X131286779Y-106830180D02*
X131286779Y-107830180D01*
X132096303Y-107353990D02*
X132429636Y-107353990D01*
X132572493Y-106830180D02*
X132096303Y-106830180D01*
X132096303Y-106830180D02*
X132096303Y-107830180D01*
X132096303Y-107830180D02*
X132572493Y-107830180D01*
X133001065Y-106830180D02*
X133001065Y-107830180D01*
X133001065Y-107830180D02*
X133239160Y-107830180D01*
X133239160Y-107830180D02*
X133382017Y-107782561D01*
X133382017Y-107782561D02*
X133477255Y-107687323D01*
X133477255Y-107687323D02*
X133524874Y-107592085D01*
X133524874Y-107592085D02*
X133572493Y-107401609D01*
X133572493Y-107401609D02*
X133572493Y-107258752D01*
X133572493Y-107258752D02*
X133524874Y-107068276D01*
X133524874Y-107068276D02*
X133477255Y-106973038D01*
X133477255Y-106973038D02*
X133382017Y-106877800D01*
X133382017Y-106877800D02*
X133239160Y-106830180D01*
X133239160Y-106830180D02*
X133001065Y-106830180D01*
X134001065Y-107211133D02*
X134762970Y-107211133D01*
X134382017Y-106830180D02*
X134382017Y-107592085D01*
X81362969Y-123630180D02*
X80886779Y-123630180D01*
X80886779Y-123630180D02*
X80886779Y-124630180D01*
X81696303Y-124153990D02*
X82029636Y-124153990D01*
X82172493Y-123630180D02*
X81696303Y-123630180D01*
X81696303Y-123630180D02*
X81696303Y-124630180D01*
X81696303Y-124630180D02*
X82172493Y-124630180D01*
X82601065Y-123630180D02*
X82601065Y-124630180D01*
X82601065Y-124630180D02*
X82839160Y-124630180D01*
X82839160Y-124630180D02*
X82982017Y-124582561D01*
X82982017Y-124582561D02*
X83077255Y-124487323D01*
X83077255Y-124487323D02*
X83124874Y-124392085D01*
X83124874Y-124392085D02*
X83172493Y-124201609D01*
X83172493Y-124201609D02*
X83172493Y-124058752D01*
X83172493Y-124058752D02*
X83124874Y-123868276D01*
X83124874Y-123868276D02*
X83077255Y-123773038D01*
X83077255Y-123773038D02*
X82982017Y-123677800D01*
X82982017Y-123677800D02*
X82839160Y-123630180D01*
X82839160Y-123630180D02*
X82601065Y-123630180D01*
X83601065Y-124011133D02*
X84362970Y-124011133D01*
X83982017Y-123630180D02*
X83982017Y-124392085D01*
X134839411Y-119467438D02*
X134934649Y-119419819D01*
X134934649Y-119419819D02*
X135077506Y-119419819D01*
X135077506Y-119419819D02*
X135220363Y-119467438D01*
X135220363Y-119467438D02*
X135315601Y-119562676D01*
X135315601Y-119562676D02*
X135363220Y-119657914D01*
X135363220Y-119657914D02*
X135410839Y-119848390D01*
X135410839Y-119848390D02*
X135410839Y-119991247D01*
X135410839Y-119991247D02*
X135363220Y-120181723D01*
X135363220Y-120181723D02*
X135315601Y-120276961D01*
X135315601Y-120276961D02*
X135220363Y-120372200D01*
X135220363Y-120372200D02*
X135077506Y-120419819D01*
X135077506Y-120419819D02*
X134982268Y-120419819D01*
X134982268Y-120419819D02*
X134839411Y-120372200D01*
X134839411Y-120372200D02*
X134791792Y-120324580D01*
X134791792Y-120324580D02*
X134791792Y-119991247D01*
X134791792Y-119991247D02*
X134982268Y-119991247D01*
X134363220Y-120419819D02*
X134363220Y-119419819D01*
X134363220Y-119419819D02*
X133791792Y-120419819D01*
X133791792Y-120419819D02*
X133791792Y-119419819D01*
X133315601Y-120419819D02*
X133315601Y-119419819D01*
X133315601Y-119419819D02*
X133077506Y-119419819D01*
X133077506Y-119419819D02*
X132934649Y-119467438D01*
X132934649Y-119467438D02*
X132839411Y-119562676D01*
X132839411Y-119562676D02*
X132791792Y-119657914D01*
X132791792Y-119657914D02*
X132744173Y-119848390D01*
X132744173Y-119848390D02*
X132744173Y-119991247D01*
X132744173Y-119991247D02*
X132791792Y-120181723D01*
X132791792Y-120181723D02*
X132839411Y-120276961D01*
X132839411Y-120276961D02*
X132934649Y-120372200D01*
X132934649Y-120372200D02*
X133077506Y-120419819D01*
X133077506Y-120419819D02*
X133315601Y-120419819D01*
X148562969Y-73230180D02*
X148086779Y-73230180D01*
X148086779Y-73230180D02*
X148086779Y-74230180D01*
X148896303Y-73753990D02*
X149229636Y-73753990D01*
X149372493Y-73230180D02*
X148896303Y-73230180D01*
X148896303Y-73230180D02*
X148896303Y-74230180D01*
X148896303Y-74230180D02*
X149372493Y-74230180D01*
X149801065Y-73230180D02*
X149801065Y-74230180D01*
X149801065Y-74230180D02*
X150039160Y-74230180D01*
X150039160Y-74230180D02*
X150182017Y-74182561D01*
X150182017Y-74182561D02*
X150277255Y-74087323D01*
X150277255Y-74087323D02*
X150324874Y-73992085D01*
X150324874Y-73992085D02*
X150372493Y-73801609D01*
X150372493Y-73801609D02*
X150372493Y-73658752D01*
X150372493Y-73658752D02*
X150324874Y-73468276D01*
X150324874Y-73468276D02*
X150277255Y-73373038D01*
X150277255Y-73373038D02*
X150182017Y-73277800D01*
X150182017Y-73277800D02*
X150039160Y-73230180D01*
X150039160Y-73230180D02*
X149801065Y-73230180D01*
X150801065Y-73611133D02*
X151562970Y-73611133D01*
X151182017Y-73230180D02*
X151182017Y-73992085D01*
X77613220Y-101619819D02*
X77613220Y-100619819D01*
X77613220Y-100619819D02*
X77232268Y-100619819D01*
X77232268Y-100619819D02*
X77137030Y-100667438D01*
X77137030Y-100667438D02*
X77089411Y-100715057D01*
X77089411Y-100715057D02*
X77041792Y-100810295D01*
X77041792Y-100810295D02*
X77041792Y-100953152D01*
X77041792Y-100953152D02*
X77089411Y-101048390D01*
X77089411Y-101048390D02*
X77137030Y-101096009D01*
X77137030Y-101096009D02*
X77232268Y-101143628D01*
X77232268Y-101143628D02*
X77613220Y-101143628D01*
X76708458Y-100619819D02*
X76470363Y-101619819D01*
X76470363Y-101619819D02*
X76279887Y-100905533D01*
X76279887Y-100905533D02*
X76089411Y-101619819D01*
X76089411Y-101619819D02*
X75851316Y-100619819D01*
X75470363Y-101619819D02*
X75470363Y-100619819D01*
X75470363Y-100619819D02*
X75137030Y-101334104D01*
X75137030Y-101334104D02*
X74803697Y-100619819D01*
X74803697Y-100619819D02*
X74803697Y-101619819D01*
X92337030Y-122719819D02*
X92813220Y-122719819D01*
X92813220Y-122719819D02*
X92813220Y-121719819D01*
X92003696Y-122196009D02*
X91670363Y-122196009D01*
X91527506Y-122719819D02*
X92003696Y-122719819D01*
X92003696Y-122719819D02*
X92003696Y-121719819D01*
X92003696Y-121719819D02*
X91527506Y-121719819D01*
X91098934Y-122719819D02*
X91098934Y-121719819D01*
X91098934Y-121719819D02*
X90860839Y-121719819D01*
X90860839Y-121719819D02*
X90717982Y-121767438D01*
X90717982Y-121767438D02*
X90622744Y-121862676D01*
X90622744Y-121862676D02*
X90575125Y-121957914D01*
X90575125Y-121957914D02*
X90527506Y-122148390D01*
X90527506Y-122148390D02*
X90527506Y-122291247D01*
X90527506Y-122291247D02*
X90575125Y-122481723D01*
X90575125Y-122481723D02*
X90622744Y-122576961D01*
X90622744Y-122576961D02*
X90717982Y-122672200D01*
X90717982Y-122672200D02*
X90860839Y-122719819D01*
X90860839Y-122719819D02*
X91098934Y-122719819D01*
X90098934Y-122338866D02*
X89337030Y-122338866D01*
X134839411Y-85867438D02*
X134934649Y-85819819D01*
X134934649Y-85819819D02*
X135077506Y-85819819D01*
X135077506Y-85819819D02*
X135220363Y-85867438D01*
X135220363Y-85867438D02*
X135315601Y-85962676D01*
X135315601Y-85962676D02*
X135363220Y-86057914D01*
X135363220Y-86057914D02*
X135410839Y-86248390D01*
X135410839Y-86248390D02*
X135410839Y-86391247D01*
X135410839Y-86391247D02*
X135363220Y-86581723D01*
X135363220Y-86581723D02*
X135315601Y-86676961D01*
X135315601Y-86676961D02*
X135220363Y-86772200D01*
X135220363Y-86772200D02*
X135077506Y-86819819D01*
X135077506Y-86819819D02*
X134982268Y-86819819D01*
X134982268Y-86819819D02*
X134839411Y-86772200D01*
X134839411Y-86772200D02*
X134791792Y-86724580D01*
X134791792Y-86724580D02*
X134791792Y-86391247D01*
X134791792Y-86391247D02*
X134982268Y-86391247D01*
X134363220Y-86819819D02*
X134363220Y-85819819D01*
X134363220Y-85819819D02*
X133791792Y-86819819D01*
X133791792Y-86819819D02*
X133791792Y-85819819D01*
X133315601Y-86819819D02*
X133315601Y-85819819D01*
X133315601Y-85819819D02*
X133077506Y-85819819D01*
X133077506Y-85819819D02*
X132934649Y-85867438D01*
X132934649Y-85867438D02*
X132839411Y-85962676D01*
X132839411Y-85962676D02*
X132791792Y-86057914D01*
X132791792Y-86057914D02*
X132744173Y-86248390D01*
X132744173Y-86248390D02*
X132744173Y-86391247D01*
X132744173Y-86391247D02*
X132791792Y-86581723D01*
X132791792Y-86581723D02*
X132839411Y-86676961D01*
X132839411Y-86676961D02*
X132934649Y-86772200D01*
X132934649Y-86772200D02*
X133077506Y-86819819D01*
X133077506Y-86819819D02*
X133315601Y-86819819D01*
X109137030Y-89119819D02*
X109613220Y-89119819D01*
X109613220Y-89119819D02*
X109613220Y-88119819D01*
X108803696Y-88596009D02*
X108470363Y-88596009D01*
X108327506Y-89119819D02*
X108803696Y-89119819D01*
X108803696Y-89119819D02*
X108803696Y-88119819D01*
X108803696Y-88119819D02*
X108327506Y-88119819D01*
X107898934Y-89119819D02*
X107898934Y-88119819D01*
X107898934Y-88119819D02*
X107660839Y-88119819D01*
X107660839Y-88119819D02*
X107517982Y-88167438D01*
X107517982Y-88167438D02*
X107422744Y-88262676D01*
X107422744Y-88262676D02*
X107375125Y-88357914D01*
X107375125Y-88357914D02*
X107327506Y-88548390D01*
X107327506Y-88548390D02*
X107327506Y-88691247D01*
X107327506Y-88691247D02*
X107375125Y-88881723D01*
X107375125Y-88881723D02*
X107422744Y-88976961D01*
X107422744Y-88976961D02*
X107517982Y-89072200D01*
X107517982Y-89072200D02*
X107660839Y-89119819D01*
X107660839Y-89119819D02*
X107898934Y-89119819D01*
X106898934Y-88738866D02*
X106137030Y-88738866D01*
X113160839Y-127565057D02*
X113113220Y-127517438D01*
X113113220Y-127517438D02*
X113017982Y-127469819D01*
X113017982Y-127469819D02*
X112779887Y-127469819D01*
X112779887Y-127469819D02*
X112684649Y-127517438D01*
X112684649Y-127517438D02*
X112637030Y-127565057D01*
X112637030Y-127565057D02*
X112589411Y-127660295D01*
X112589411Y-127660295D02*
X112589411Y-127755533D01*
X112589411Y-127755533D02*
X112637030Y-127898390D01*
X112637030Y-127898390D02*
X113208458Y-128469819D01*
X113208458Y-128469819D02*
X112589411Y-128469819D01*
X111732268Y-127803152D02*
X111732268Y-128469819D01*
X111970363Y-127422200D02*
X112208458Y-128136485D01*
X112208458Y-128136485D02*
X111589411Y-128136485D01*
X111351315Y-127469819D02*
X111017982Y-128469819D01*
X111017982Y-128469819D02*
X110684649Y-127469819D01*
X144813220Y-118419819D02*
X144813220Y-117419819D01*
X144813220Y-117419819D02*
X144432268Y-117419819D01*
X144432268Y-117419819D02*
X144337030Y-117467438D01*
X144337030Y-117467438D02*
X144289411Y-117515057D01*
X144289411Y-117515057D02*
X144241792Y-117610295D01*
X144241792Y-117610295D02*
X144241792Y-117753152D01*
X144241792Y-117753152D02*
X144289411Y-117848390D01*
X144289411Y-117848390D02*
X144337030Y-117896009D01*
X144337030Y-117896009D02*
X144432268Y-117943628D01*
X144432268Y-117943628D02*
X144813220Y-117943628D01*
X143908458Y-117419819D02*
X143670363Y-118419819D01*
X143670363Y-118419819D02*
X143479887Y-117705533D01*
X143479887Y-117705533D02*
X143289411Y-118419819D01*
X143289411Y-118419819D02*
X143051316Y-117419819D01*
X142670363Y-118419819D02*
X142670363Y-117419819D01*
X142670363Y-117419819D02*
X142337030Y-118134104D01*
X142337030Y-118134104D02*
X142003697Y-117419819D01*
X142003697Y-117419819D02*
X142003697Y-118419819D01*
X129960839Y-77165057D02*
X129913220Y-77117438D01*
X129913220Y-77117438D02*
X129817982Y-77069819D01*
X129817982Y-77069819D02*
X129579887Y-77069819D01*
X129579887Y-77069819D02*
X129484649Y-77117438D01*
X129484649Y-77117438D02*
X129437030Y-77165057D01*
X129437030Y-77165057D02*
X129389411Y-77260295D01*
X129389411Y-77260295D02*
X129389411Y-77355533D01*
X129389411Y-77355533D02*
X129437030Y-77498390D01*
X129437030Y-77498390D02*
X130008458Y-78069819D01*
X130008458Y-78069819D02*
X129389411Y-78069819D01*
X128532268Y-77403152D02*
X128532268Y-78069819D01*
X128770363Y-77022200D02*
X129008458Y-77736485D01*
X129008458Y-77736485D02*
X128389411Y-77736485D01*
X128151315Y-77069819D02*
X127817982Y-78069819D01*
X127817982Y-78069819D02*
X127484649Y-77069819D01*
X148562969Y-56430180D02*
X148086779Y-56430180D01*
X148086779Y-56430180D02*
X148086779Y-57430180D01*
X148896303Y-56953990D02*
X149229636Y-56953990D01*
X149372493Y-56430180D02*
X148896303Y-56430180D01*
X148896303Y-56430180D02*
X148896303Y-57430180D01*
X148896303Y-57430180D02*
X149372493Y-57430180D01*
X149801065Y-56430180D02*
X149801065Y-57430180D01*
X149801065Y-57430180D02*
X150039160Y-57430180D01*
X150039160Y-57430180D02*
X150182017Y-57382561D01*
X150182017Y-57382561D02*
X150277255Y-57287323D01*
X150277255Y-57287323D02*
X150324874Y-57192085D01*
X150324874Y-57192085D02*
X150372493Y-57001609D01*
X150372493Y-57001609D02*
X150372493Y-56858752D01*
X150372493Y-56858752D02*
X150324874Y-56668276D01*
X150324874Y-56668276D02*
X150277255Y-56573038D01*
X150277255Y-56573038D02*
X150182017Y-56477800D01*
X150182017Y-56477800D02*
X150039160Y-56430180D01*
X150039160Y-56430180D02*
X149801065Y-56430180D01*
X150801065Y-56811133D02*
X151562970Y-56811133D01*
X151182017Y-56430180D02*
X151182017Y-57192085D01*
X109137030Y-139519819D02*
X109613220Y-139519819D01*
X109613220Y-139519819D02*
X109613220Y-138519819D01*
X108803696Y-138996009D02*
X108470363Y-138996009D01*
X108327506Y-139519819D02*
X108803696Y-139519819D01*
X108803696Y-139519819D02*
X108803696Y-138519819D01*
X108803696Y-138519819D02*
X108327506Y-138519819D01*
X107898934Y-139519819D02*
X107898934Y-138519819D01*
X107898934Y-138519819D02*
X107660839Y-138519819D01*
X107660839Y-138519819D02*
X107517982Y-138567438D01*
X107517982Y-138567438D02*
X107422744Y-138662676D01*
X107422744Y-138662676D02*
X107375125Y-138757914D01*
X107375125Y-138757914D02*
X107327506Y-138948390D01*
X107327506Y-138948390D02*
X107327506Y-139091247D01*
X107327506Y-139091247D02*
X107375125Y-139281723D01*
X107375125Y-139281723D02*
X107422744Y-139376961D01*
X107422744Y-139376961D02*
X107517982Y-139472200D01*
X107517982Y-139472200D02*
X107660839Y-139519819D01*
X107660839Y-139519819D02*
X107898934Y-139519819D01*
X106898934Y-139138866D02*
X106137030Y-139138866D01*
X114962969Y-123630180D02*
X114486779Y-123630180D01*
X114486779Y-123630180D02*
X114486779Y-124630180D01*
X115296303Y-124153990D02*
X115629636Y-124153990D01*
X115772493Y-123630180D02*
X115296303Y-123630180D01*
X115296303Y-123630180D02*
X115296303Y-124630180D01*
X115296303Y-124630180D02*
X115772493Y-124630180D01*
X116201065Y-123630180D02*
X116201065Y-124630180D01*
X116201065Y-124630180D02*
X116439160Y-124630180D01*
X116439160Y-124630180D02*
X116582017Y-124582561D01*
X116582017Y-124582561D02*
X116677255Y-124487323D01*
X116677255Y-124487323D02*
X116724874Y-124392085D01*
X116724874Y-124392085D02*
X116772493Y-124201609D01*
X116772493Y-124201609D02*
X116772493Y-124058752D01*
X116772493Y-124058752D02*
X116724874Y-123868276D01*
X116724874Y-123868276D02*
X116677255Y-123773038D01*
X116677255Y-123773038D02*
X116582017Y-123677800D01*
X116582017Y-123677800D02*
X116439160Y-123630180D01*
X116439160Y-123630180D02*
X116201065Y-123630180D01*
X117201065Y-124011133D02*
X117962970Y-124011133D01*
X117582017Y-123630180D02*
X117582017Y-124392085D01*
X84439411Y-119467438D02*
X84534649Y-119419819D01*
X84534649Y-119419819D02*
X84677506Y-119419819D01*
X84677506Y-119419819D02*
X84820363Y-119467438D01*
X84820363Y-119467438D02*
X84915601Y-119562676D01*
X84915601Y-119562676D02*
X84963220Y-119657914D01*
X84963220Y-119657914D02*
X85010839Y-119848390D01*
X85010839Y-119848390D02*
X85010839Y-119991247D01*
X85010839Y-119991247D02*
X84963220Y-120181723D01*
X84963220Y-120181723D02*
X84915601Y-120276961D01*
X84915601Y-120276961D02*
X84820363Y-120372200D01*
X84820363Y-120372200D02*
X84677506Y-120419819D01*
X84677506Y-120419819D02*
X84582268Y-120419819D01*
X84582268Y-120419819D02*
X84439411Y-120372200D01*
X84439411Y-120372200D02*
X84391792Y-120324580D01*
X84391792Y-120324580D02*
X84391792Y-119991247D01*
X84391792Y-119991247D02*
X84582268Y-119991247D01*
X83963220Y-120419819D02*
X83963220Y-119419819D01*
X83963220Y-119419819D02*
X83391792Y-120419819D01*
X83391792Y-120419819D02*
X83391792Y-119419819D01*
X82915601Y-120419819D02*
X82915601Y-119419819D01*
X82915601Y-119419819D02*
X82677506Y-119419819D01*
X82677506Y-119419819D02*
X82534649Y-119467438D01*
X82534649Y-119467438D02*
X82439411Y-119562676D01*
X82439411Y-119562676D02*
X82391792Y-119657914D01*
X82391792Y-119657914D02*
X82344173Y-119848390D01*
X82344173Y-119848390D02*
X82344173Y-119991247D01*
X82344173Y-119991247D02*
X82391792Y-120181723D01*
X82391792Y-120181723D02*
X82439411Y-120276961D01*
X82439411Y-120276961D02*
X82534649Y-120372200D01*
X82534649Y-120372200D02*
X82677506Y-120419819D01*
X82677506Y-120419819D02*
X82915601Y-120419819D01*
X109137030Y-122719819D02*
X109613220Y-122719819D01*
X109613220Y-122719819D02*
X109613220Y-121719819D01*
X108803696Y-122196009D02*
X108470363Y-122196009D01*
X108327506Y-122719819D02*
X108803696Y-122719819D01*
X108803696Y-122719819D02*
X108803696Y-121719819D01*
X108803696Y-121719819D02*
X108327506Y-121719819D01*
X107898934Y-122719819D02*
X107898934Y-121719819D01*
X107898934Y-121719819D02*
X107660839Y-121719819D01*
X107660839Y-121719819D02*
X107517982Y-121767438D01*
X107517982Y-121767438D02*
X107422744Y-121862676D01*
X107422744Y-121862676D02*
X107375125Y-121957914D01*
X107375125Y-121957914D02*
X107327506Y-122148390D01*
X107327506Y-122148390D02*
X107327506Y-122291247D01*
X107327506Y-122291247D02*
X107375125Y-122481723D01*
X107375125Y-122481723D02*
X107422744Y-122576961D01*
X107422744Y-122576961D02*
X107517982Y-122672200D01*
X107517982Y-122672200D02*
X107660839Y-122719819D01*
X107660839Y-122719819D02*
X107898934Y-122719819D01*
X106898934Y-122338866D02*
X106137030Y-122338866D01*
X98162969Y-123630180D02*
X97686779Y-123630180D01*
X97686779Y-123630180D02*
X97686779Y-124630180D01*
X98496303Y-124153990D02*
X98829636Y-124153990D01*
X98972493Y-123630180D02*
X98496303Y-123630180D01*
X98496303Y-123630180D02*
X98496303Y-124630180D01*
X98496303Y-124630180D02*
X98972493Y-124630180D01*
X99401065Y-123630180D02*
X99401065Y-124630180D01*
X99401065Y-124630180D02*
X99639160Y-124630180D01*
X99639160Y-124630180D02*
X99782017Y-124582561D01*
X99782017Y-124582561D02*
X99877255Y-124487323D01*
X99877255Y-124487323D02*
X99924874Y-124392085D01*
X99924874Y-124392085D02*
X99972493Y-124201609D01*
X99972493Y-124201609D02*
X99972493Y-124058752D01*
X99972493Y-124058752D02*
X99924874Y-123868276D01*
X99924874Y-123868276D02*
X99877255Y-123773038D01*
X99877255Y-123773038D02*
X99782017Y-123677800D01*
X99782017Y-123677800D02*
X99639160Y-123630180D01*
X99639160Y-123630180D02*
X99401065Y-123630180D01*
X100401065Y-124011133D02*
X101162970Y-124011133D01*
X100782017Y-123630180D02*
X100782017Y-124392085D01*
X118039411Y-119467438D02*
X118134649Y-119419819D01*
X118134649Y-119419819D02*
X118277506Y-119419819D01*
X118277506Y-119419819D02*
X118420363Y-119467438D01*
X118420363Y-119467438D02*
X118515601Y-119562676D01*
X118515601Y-119562676D02*
X118563220Y-119657914D01*
X118563220Y-119657914D02*
X118610839Y-119848390D01*
X118610839Y-119848390D02*
X118610839Y-119991247D01*
X118610839Y-119991247D02*
X118563220Y-120181723D01*
X118563220Y-120181723D02*
X118515601Y-120276961D01*
X118515601Y-120276961D02*
X118420363Y-120372200D01*
X118420363Y-120372200D02*
X118277506Y-120419819D01*
X118277506Y-120419819D02*
X118182268Y-120419819D01*
X118182268Y-120419819D02*
X118039411Y-120372200D01*
X118039411Y-120372200D02*
X117991792Y-120324580D01*
X117991792Y-120324580D02*
X117991792Y-119991247D01*
X117991792Y-119991247D02*
X118182268Y-119991247D01*
X117563220Y-120419819D02*
X117563220Y-119419819D01*
X117563220Y-119419819D02*
X116991792Y-120419819D01*
X116991792Y-120419819D02*
X116991792Y-119419819D01*
X116515601Y-120419819D02*
X116515601Y-119419819D01*
X116515601Y-119419819D02*
X116277506Y-119419819D01*
X116277506Y-119419819D02*
X116134649Y-119467438D01*
X116134649Y-119467438D02*
X116039411Y-119562676D01*
X116039411Y-119562676D02*
X115991792Y-119657914D01*
X115991792Y-119657914D02*
X115944173Y-119848390D01*
X115944173Y-119848390D02*
X115944173Y-119991247D01*
X115944173Y-119991247D02*
X115991792Y-120181723D01*
X115991792Y-120181723D02*
X116039411Y-120276961D01*
X116039411Y-120276961D02*
X116134649Y-120372200D01*
X116134649Y-120372200D02*
X116277506Y-120419819D01*
X116277506Y-120419819D02*
X116515601Y-120419819D01*
X109137030Y-105919819D02*
X109613220Y-105919819D01*
X109613220Y-105919819D02*
X109613220Y-104919819D01*
X108803696Y-105396009D02*
X108470363Y-105396009D01*
X108327506Y-105919819D02*
X108803696Y-105919819D01*
X108803696Y-105919819D02*
X108803696Y-104919819D01*
X108803696Y-104919819D02*
X108327506Y-104919819D01*
X107898934Y-105919819D02*
X107898934Y-104919819D01*
X107898934Y-104919819D02*
X107660839Y-104919819D01*
X107660839Y-104919819D02*
X107517982Y-104967438D01*
X107517982Y-104967438D02*
X107422744Y-105062676D01*
X107422744Y-105062676D02*
X107375125Y-105157914D01*
X107375125Y-105157914D02*
X107327506Y-105348390D01*
X107327506Y-105348390D02*
X107327506Y-105491247D01*
X107327506Y-105491247D02*
X107375125Y-105681723D01*
X107375125Y-105681723D02*
X107422744Y-105776961D01*
X107422744Y-105776961D02*
X107517982Y-105872200D01*
X107517982Y-105872200D02*
X107660839Y-105919819D01*
X107660839Y-105919819D02*
X107898934Y-105919819D01*
X106898934Y-105538866D02*
X106137030Y-105538866D01*
X144813220Y-135219819D02*
X144813220Y-134219819D01*
X144813220Y-134219819D02*
X144432268Y-134219819D01*
X144432268Y-134219819D02*
X144337030Y-134267438D01*
X144337030Y-134267438D02*
X144289411Y-134315057D01*
X144289411Y-134315057D02*
X144241792Y-134410295D01*
X144241792Y-134410295D02*
X144241792Y-134553152D01*
X144241792Y-134553152D02*
X144289411Y-134648390D01*
X144289411Y-134648390D02*
X144337030Y-134696009D01*
X144337030Y-134696009D02*
X144432268Y-134743628D01*
X144432268Y-134743628D02*
X144813220Y-134743628D01*
X143908458Y-134219819D02*
X143670363Y-135219819D01*
X143670363Y-135219819D02*
X143479887Y-134505533D01*
X143479887Y-134505533D02*
X143289411Y-135219819D01*
X143289411Y-135219819D02*
X143051316Y-134219819D01*
X142670363Y-135219819D02*
X142670363Y-134219819D01*
X142670363Y-134219819D02*
X142337030Y-134934104D01*
X142337030Y-134934104D02*
X142003697Y-134219819D01*
X142003697Y-134219819D02*
X142003697Y-135219819D01*
X131762969Y-90030180D02*
X131286779Y-90030180D01*
X131286779Y-90030180D02*
X131286779Y-91030180D01*
X132096303Y-90553990D02*
X132429636Y-90553990D01*
X132572493Y-90030180D02*
X132096303Y-90030180D01*
X132096303Y-90030180D02*
X132096303Y-91030180D01*
X132096303Y-91030180D02*
X132572493Y-91030180D01*
X133001065Y-90030180D02*
X133001065Y-91030180D01*
X133001065Y-91030180D02*
X133239160Y-91030180D01*
X133239160Y-91030180D02*
X133382017Y-90982561D01*
X133382017Y-90982561D02*
X133477255Y-90887323D01*
X133477255Y-90887323D02*
X133524874Y-90792085D01*
X133524874Y-90792085D02*
X133572493Y-90601609D01*
X133572493Y-90601609D02*
X133572493Y-90458752D01*
X133572493Y-90458752D02*
X133524874Y-90268276D01*
X133524874Y-90268276D02*
X133477255Y-90173038D01*
X133477255Y-90173038D02*
X133382017Y-90077800D01*
X133382017Y-90077800D02*
X133239160Y-90030180D01*
X133239160Y-90030180D02*
X133001065Y-90030180D01*
X134001065Y-90411133D02*
X134762970Y-90411133D01*
X134382017Y-90030180D02*
X134382017Y-90792085D01*
X111213220Y-135219819D02*
X111213220Y-134219819D01*
X111213220Y-134219819D02*
X110832268Y-134219819D01*
X110832268Y-134219819D02*
X110737030Y-134267438D01*
X110737030Y-134267438D02*
X110689411Y-134315057D01*
X110689411Y-134315057D02*
X110641792Y-134410295D01*
X110641792Y-134410295D02*
X110641792Y-134553152D01*
X110641792Y-134553152D02*
X110689411Y-134648390D01*
X110689411Y-134648390D02*
X110737030Y-134696009D01*
X110737030Y-134696009D02*
X110832268Y-134743628D01*
X110832268Y-134743628D02*
X111213220Y-134743628D01*
X110308458Y-134219819D02*
X110070363Y-135219819D01*
X110070363Y-135219819D02*
X109879887Y-134505533D01*
X109879887Y-134505533D02*
X109689411Y-135219819D01*
X109689411Y-135219819D02*
X109451316Y-134219819D01*
X109070363Y-135219819D02*
X109070363Y-134219819D01*
X109070363Y-134219819D02*
X108737030Y-134934104D01*
X108737030Y-134934104D02*
X108403697Y-134219819D01*
X108403697Y-134219819D02*
X108403697Y-135219819D01*
X128013220Y-68019819D02*
X128013220Y-67019819D01*
X128013220Y-67019819D02*
X127632268Y-67019819D01*
X127632268Y-67019819D02*
X127537030Y-67067438D01*
X127537030Y-67067438D02*
X127489411Y-67115057D01*
X127489411Y-67115057D02*
X127441792Y-67210295D01*
X127441792Y-67210295D02*
X127441792Y-67353152D01*
X127441792Y-67353152D02*
X127489411Y-67448390D01*
X127489411Y-67448390D02*
X127537030Y-67496009D01*
X127537030Y-67496009D02*
X127632268Y-67543628D01*
X127632268Y-67543628D02*
X128013220Y-67543628D01*
X127108458Y-67019819D02*
X126870363Y-68019819D01*
X126870363Y-68019819D02*
X126679887Y-67305533D01*
X126679887Y-67305533D02*
X126489411Y-68019819D01*
X126489411Y-68019819D02*
X126251316Y-67019819D01*
X125870363Y-68019819D02*
X125870363Y-67019819D01*
X125870363Y-67019819D02*
X125537030Y-67734104D01*
X125537030Y-67734104D02*
X125203697Y-67019819D01*
X125203697Y-67019819D02*
X125203697Y-68019819D01*
X114962969Y-90030180D02*
X114486779Y-90030180D01*
X114486779Y-90030180D02*
X114486779Y-91030180D01*
X115296303Y-90553990D02*
X115629636Y-90553990D01*
X115772493Y-90030180D02*
X115296303Y-90030180D01*
X115296303Y-90030180D02*
X115296303Y-91030180D01*
X115296303Y-91030180D02*
X115772493Y-91030180D01*
X116201065Y-90030180D02*
X116201065Y-91030180D01*
X116201065Y-91030180D02*
X116439160Y-91030180D01*
X116439160Y-91030180D02*
X116582017Y-90982561D01*
X116582017Y-90982561D02*
X116677255Y-90887323D01*
X116677255Y-90887323D02*
X116724874Y-90792085D01*
X116724874Y-90792085D02*
X116772493Y-90601609D01*
X116772493Y-90601609D02*
X116772493Y-90458752D01*
X116772493Y-90458752D02*
X116724874Y-90268276D01*
X116724874Y-90268276D02*
X116677255Y-90173038D01*
X116677255Y-90173038D02*
X116582017Y-90077800D01*
X116582017Y-90077800D02*
X116439160Y-90030180D01*
X116439160Y-90030180D02*
X116201065Y-90030180D01*
X117201065Y-90411133D02*
X117962970Y-90411133D01*
X117582017Y-90030180D02*
X117582017Y-90792085D01*
X101239411Y-85867438D02*
X101334649Y-85819819D01*
X101334649Y-85819819D02*
X101477506Y-85819819D01*
X101477506Y-85819819D02*
X101620363Y-85867438D01*
X101620363Y-85867438D02*
X101715601Y-85962676D01*
X101715601Y-85962676D02*
X101763220Y-86057914D01*
X101763220Y-86057914D02*
X101810839Y-86248390D01*
X101810839Y-86248390D02*
X101810839Y-86391247D01*
X101810839Y-86391247D02*
X101763220Y-86581723D01*
X101763220Y-86581723D02*
X101715601Y-86676961D01*
X101715601Y-86676961D02*
X101620363Y-86772200D01*
X101620363Y-86772200D02*
X101477506Y-86819819D01*
X101477506Y-86819819D02*
X101382268Y-86819819D01*
X101382268Y-86819819D02*
X101239411Y-86772200D01*
X101239411Y-86772200D02*
X101191792Y-86724580D01*
X101191792Y-86724580D02*
X101191792Y-86391247D01*
X101191792Y-86391247D02*
X101382268Y-86391247D01*
X100763220Y-86819819D02*
X100763220Y-85819819D01*
X100763220Y-85819819D02*
X100191792Y-86819819D01*
X100191792Y-86819819D02*
X100191792Y-85819819D01*
X99715601Y-86819819D02*
X99715601Y-85819819D01*
X99715601Y-85819819D02*
X99477506Y-85819819D01*
X99477506Y-85819819D02*
X99334649Y-85867438D01*
X99334649Y-85867438D02*
X99239411Y-85962676D01*
X99239411Y-85962676D02*
X99191792Y-86057914D01*
X99191792Y-86057914D02*
X99144173Y-86248390D01*
X99144173Y-86248390D02*
X99144173Y-86391247D01*
X99144173Y-86391247D02*
X99191792Y-86581723D01*
X99191792Y-86581723D02*
X99239411Y-86676961D01*
X99239411Y-86676961D02*
X99334649Y-86772200D01*
X99334649Y-86772200D02*
X99477506Y-86819819D01*
X99477506Y-86819819D02*
X99715601Y-86819819D01*
X98162969Y-56430180D02*
X97686779Y-56430180D01*
X97686779Y-56430180D02*
X97686779Y-57430180D01*
X98496303Y-56953990D02*
X98829636Y-56953990D01*
X98972493Y-56430180D02*
X98496303Y-56430180D01*
X98496303Y-56430180D02*
X98496303Y-57430180D01*
X98496303Y-57430180D02*
X98972493Y-57430180D01*
X99401065Y-56430180D02*
X99401065Y-57430180D01*
X99401065Y-57430180D02*
X99639160Y-57430180D01*
X99639160Y-57430180D02*
X99782017Y-57382561D01*
X99782017Y-57382561D02*
X99877255Y-57287323D01*
X99877255Y-57287323D02*
X99924874Y-57192085D01*
X99924874Y-57192085D02*
X99972493Y-57001609D01*
X99972493Y-57001609D02*
X99972493Y-56858752D01*
X99972493Y-56858752D02*
X99924874Y-56668276D01*
X99924874Y-56668276D02*
X99877255Y-56573038D01*
X99877255Y-56573038D02*
X99782017Y-56477800D01*
X99782017Y-56477800D02*
X99639160Y-56430180D01*
X99639160Y-56430180D02*
X99401065Y-56430180D01*
X100401065Y-56811133D02*
X101162970Y-56811133D01*
X100782017Y-56430180D02*
X100782017Y-57192085D01*
X98162969Y-73230180D02*
X97686779Y-73230180D01*
X97686779Y-73230180D02*
X97686779Y-74230180D01*
X98496303Y-73753990D02*
X98829636Y-73753990D01*
X98972493Y-73230180D02*
X98496303Y-73230180D01*
X98496303Y-73230180D02*
X98496303Y-74230180D01*
X98496303Y-74230180D02*
X98972493Y-74230180D01*
X99401065Y-73230180D02*
X99401065Y-74230180D01*
X99401065Y-74230180D02*
X99639160Y-74230180D01*
X99639160Y-74230180D02*
X99782017Y-74182561D01*
X99782017Y-74182561D02*
X99877255Y-74087323D01*
X99877255Y-74087323D02*
X99924874Y-73992085D01*
X99924874Y-73992085D02*
X99972493Y-73801609D01*
X99972493Y-73801609D02*
X99972493Y-73658752D01*
X99972493Y-73658752D02*
X99924874Y-73468276D01*
X99924874Y-73468276D02*
X99877255Y-73373038D01*
X99877255Y-73373038D02*
X99782017Y-73277800D01*
X99782017Y-73277800D02*
X99639160Y-73230180D01*
X99639160Y-73230180D02*
X99401065Y-73230180D01*
X100401065Y-73611133D02*
X101162970Y-73611133D01*
X100782017Y-73230180D02*
X100782017Y-73992085D01*
X151639411Y-136267438D02*
X151734649Y-136219819D01*
X151734649Y-136219819D02*
X151877506Y-136219819D01*
X151877506Y-136219819D02*
X152020363Y-136267438D01*
X152020363Y-136267438D02*
X152115601Y-136362676D01*
X152115601Y-136362676D02*
X152163220Y-136457914D01*
X152163220Y-136457914D02*
X152210839Y-136648390D01*
X152210839Y-136648390D02*
X152210839Y-136791247D01*
X152210839Y-136791247D02*
X152163220Y-136981723D01*
X152163220Y-136981723D02*
X152115601Y-137076961D01*
X152115601Y-137076961D02*
X152020363Y-137172200D01*
X152020363Y-137172200D02*
X151877506Y-137219819D01*
X151877506Y-137219819D02*
X151782268Y-137219819D01*
X151782268Y-137219819D02*
X151639411Y-137172200D01*
X151639411Y-137172200D02*
X151591792Y-137124580D01*
X151591792Y-137124580D02*
X151591792Y-136791247D01*
X151591792Y-136791247D02*
X151782268Y-136791247D01*
X151163220Y-137219819D02*
X151163220Y-136219819D01*
X151163220Y-136219819D02*
X150591792Y-137219819D01*
X150591792Y-137219819D02*
X150591792Y-136219819D01*
X150115601Y-137219819D02*
X150115601Y-136219819D01*
X150115601Y-136219819D02*
X149877506Y-136219819D01*
X149877506Y-136219819D02*
X149734649Y-136267438D01*
X149734649Y-136267438D02*
X149639411Y-136362676D01*
X149639411Y-136362676D02*
X149591792Y-136457914D01*
X149591792Y-136457914D02*
X149544173Y-136648390D01*
X149544173Y-136648390D02*
X149544173Y-136791247D01*
X149544173Y-136791247D02*
X149591792Y-136981723D01*
X149591792Y-136981723D02*
X149639411Y-137076961D01*
X149639411Y-137076961D02*
X149734649Y-137172200D01*
X149734649Y-137172200D02*
X149877506Y-137219819D01*
X149877506Y-137219819D02*
X150115601Y-137219819D01*
X84439411Y-85867438D02*
X84534649Y-85819819D01*
X84534649Y-85819819D02*
X84677506Y-85819819D01*
X84677506Y-85819819D02*
X84820363Y-85867438D01*
X84820363Y-85867438D02*
X84915601Y-85962676D01*
X84915601Y-85962676D02*
X84963220Y-86057914D01*
X84963220Y-86057914D02*
X85010839Y-86248390D01*
X85010839Y-86248390D02*
X85010839Y-86391247D01*
X85010839Y-86391247D02*
X84963220Y-86581723D01*
X84963220Y-86581723D02*
X84915601Y-86676961D01*
X84915601Y-86676961D02*
X84820363Y-86772200D01*
X84820363Y-86772200D02*
X84677506Y-86819819D01*
X84677506Y-86819819D02*
X84582268Y-86819819D01*
X84582268Y-86819819D02*
X84439411Y-86772200D01*
X84439411Y-86772200D02*
X84391792Y-86724580D01*
X84391792Y-86724580D02*
X84391792Y-86391247D01*
X84391792Y-86391247D02*
X84582268Y-86391247D01*
X83963220Y-86819819D02*
X83963220Y-85819819D01*
X83963220Y-85819819D02*
X83391792Y-86819819D01*
X83391792Y-86819819D02*
X83391792Y-85819819D01*
X82915601Y-86819819D02*
X82915601Y-85819819D01*
X82915601Y-85819819D02*
X82677506Y-85819819D01*
X82677506Y-85819819D02*
X82534649Y-85867438D01*
X82534649Y-85867438D02*
X82439411Y-85962676D01*
X82439411Y-85962676D02*
X82391792Y-86057914D01*
X82391792Y-86057914D02*
X82344173Y-86248390D01*
X82344173Y-86248390D02*
X82344173Y-86391247D01*
X82344173Y-86391247D02*
X82391792Y-86581723D01*
X82391792Y-86581723D02*
X82439411Y-86676961D01*
X82439411Y-86676961D02*
X82534649Y-86772200D01*
X82534649Y-86772200D02*
X82677506Y-86819819D01*
X82677506Y-86819819D02*
X82915601Y-86819819D01*
X96360839Y-127565057D02*
X96313220Y-127517438D01*
X96313220Y-127517438D02*
X96217982Y-127469819D01*
X96217982Y-127469819D02*
X95979887Y-127469819D01*
X95979887Y-127469819D02*
X95884649Y-127517438D01*
X95884649Y-127517438D02*
X95837030Y-127565057D01*
X95837030Y-127565057D02*
X95789411Y-127660295D01*
X95789411Y-127660295D02*
X95789411Y-127755533D01*
X95789411Y-127755533D02*
X95837030Y-127898390D01*
X95837030Y-127898390D02*
X96408458Y-128469819D01*
X96408458Y-128469819D02*
X95789411Y-128469819D01*
X94932268Y-127803152D02*
X94932268Y-128469819D01*
X95170363Y-127422200D02*
X95408458Y-128136485D01*
X95408458Y-128136485D02*
X94789411Y-128136485D01*
X94551315Y-127469819D02*
X94217982Y-128469819D01*
X94217982Y-128469819D02*
X93884649Y-127469819D01*
X128013220Y-84819819D02*
X128013220Y-83819819D01*
X128013220Y-83819819D02*
X127632268Y-83819819D01*
X127632268Y-83819819D02*
X127537030Y-83867438D01*
X127537030Y-83867438D02*
X127489411Y-83915057D01*
X127489411Y-83915057D02*
X127441792Y-84010295D01*
X127441792Y-84010295D02*
X127441792Y-84153152D01*
X127441792Y-84153152D02*
X127489411Y-84248390D01*
X127489411Y-84248390D02*
X127537030Y-84296009D01*
X127537030Y-84296009D02*
X127632268Y-84343628D01*
X127632268Y-84343628D02*
X128013220Y-84343628D01*
X127108458Y-83819819D02*
X126870363Y-84819819D01*
X126870363Y-84819819D02*
X126679887Y-84105533D01*
X126679887Y-84105533D02*
X126489411Y-84819819D01*
X126489411Y-84819819D02*
X126251316Y-83819819D01*
X125870363Y-84819819D02*
X125870363Y-83819819D01*
X125870363Y-83819819D02*
X125537030Y-84534104D01*
X125537030Y-84534104D02*
X125203697Y-83819819D01*
X125203697Y-83819819D02*
X125203697Y-84819819D01*
X114962969Y-73230180D02*
X114486779Y-73230180D01*
X114486779Y-73230180D02*
X114486779Y-74230180D01*
X115296303Y-73753990D02*
X115629636Y-73753990D01*
X115772493Y-73230180D02*
X115296303Y-73230180D01*
X115296303Y-73230180D02*
X115296303Y-74230180D01*
X115296303Y-74230180D02*
X115772493Y-74230180D01*
X116201065Y-73230180D02*
X116201065Y-74230180D01*
X116201065Y-74230180D02*
X116439160Y-74230180D01*
X116439160Y-74230180D02*
X116582017Y-74182561D01*
X116582017Y-74182561D02*
X116677255Y-74087323D01*
X116677255Y-74087323D02*
X116724874Y-73992085D01*
X116724874Y-73992085D02*
X116772493Y-73801609D01*
X116772493Y-73801609D02*
X116772493Y-73658752D01*
X116772493Y-73658752D02*
X116724874Y-73468276D01*
X116724874Y-73468276D02*
X116677255Y-73373038D01*
X116677255Y-73373038D02*
X116582017Y-73277800D01*
X116582017Y-73277800D02*
X116439160Y-73230180D01*
X116439160Y-73230180D02*
X116201065Y-73230180D01*
X117201065Y-73611133D02*
X117962970Y-73611133D01*
X117582017Y-73230180D02*
X117582017Y-73992085D01*
X114962969Y-106830180D02*
X114486779Y-106830180D01*
X114486779Y-106830180D02*
X114486779Y-107830180D01*
X115296303Y-107353990D02*
X115629636Y-107353990D01*
X115772493Y-106830180D02*
X115296303Y-106830180D01*
X115296303Y-106830180D02*
X115296303Y-107830180D01*
X115296303Y-107830180D02*
X115772493Y-107830180D01*
X116201065Y-106830180D02*
X116201065Y-107830180D01*
X116201065Y-107830180D02*
X116439160Y-107830180D01*
X116439160Y-107830180D02*
X116582017Y-107782561D01*
X116582017Y-107782561D02*
X116677255Y-107687323D01*
X116677255Y-107687323D02*
X116724874Y-107592085D01*
X116724874Y-107592085D02*
X116772493Y-107401609D01*
X116772493Y-107401609D02*
X116772493Y-107258752D01*
X116772493Y-107258752D02*
X116724874Y-107068276D01*
X116724874Y-107068276D02*
X116677255Y-106973038D01*
X116677255Y-106973038D02*
X116582017Y-106877800D01*
X116582017Y-106877800D02*
X116439160Y-106830180D01*
X116439160Y-106830180D02*
X116201065Y-106830180D01*
X117201065Y-107211133D02*
X117962970Y-107211133D01*
X117582017Y-106830180D02*
X117582017Y-107592085D01*
X113160839Y-93965057D02*
X113113220Y-93917438D01*
X113113220Y-93917438D02*
X113017982Y-93869819D01*
X113017982Y-93869819D02*
X112779887Y-93869819D01*
X112779887Y-93869819D02*
X112684649Y-93917438D01*
X112684649Y-93917438D02*
X112637030Y-93965057D01*
X112637030Y-93965057D02*
X112589411Y-94060295D01*
X112589411Y-94060295D02*
X112589411Y-94155533D01*
X112589411Y-94155533D02*
X112637030Y-94298390D01*
X112637030Y-94298390D02*
X113208458Y-94869819D01*
X113208458Y-94869819D02*
X112589411Y-94869819D01*
X111732268Y-94203152D02*
X111732268Y-94869819D01*
X111970363Y-93822200D02*
X112208458Y-94536485D01*
X112208458Y-94536485D02*
X111589411Y-94536485D01*
X111351315Y-93869819D02*
X111017982Y-94869819D01*
X111017982Y-94869819D02*
X110684649Y-93869819D01*
X111213220Y-118419819D02*
X111213220Y-117419819D01*
X111213220Y-117419819D02*
X110832268Y-117419819D01*
X110832268Y-117419819D02*
X110737030Y-117467438D01*
X110737030Y-117467438D02*
X110689411Y-117515057D01*
X110689411Y-117515057D02*
X110641792Y-117610295D01*
X110641792Y-117610295D02*
X110641792Y-117753152D01*
X110641792Y-117753152D02*
X110689411Y-117848390D01*
X110689411Y-117848390D02*
X110737030Y-117896009D01*
X110737030Y-117896009D02*
X110832268Y-117943628D01*
X110832268Y-117943628D02*
X111213220Y-117943628D01*
X110308458Y-117419819D02*
X110070363Y-118419819D01*
X110070363Y-118419819D02*
X109879887Y-117705533D01*
X109879887Y-117705533D02*
X109689411Y-118419819D01*
X109689411Y-118419819D02*
X109451316Y-117419819D01*
X109070363Y-118419819D02*
X109070363Y-117419819D01*
X109070363Y-117419819D02*
X108737030Y-118134104D01*
X108737030Y-118134104D02*
X108403697Y-117419819D01*
X108403697Y-117419819D02*
X108403697Y-118419819D01*
X92337030Y-105919819D02*
X92813220Y-105919819D01*
X92813220Y-105919819D02*
X92813220Y-104919819D01*
X92003696Y-105396009D02*
X91670363Y-105396009D01*
X91527506Y-105919819D02*
X92003696Y-105919819D01*
X92003696Y-105919819D02*
X92003696Y-104919819D01*
X92003696Y-104919819D02*
X91527506Y-104919819D01*
X91098934Y-105919819D02*
X91098934Y-104919819D01*
X91098934Y-104919819D02*
X90860839Y-104919819D01*
X90860839Y-104919819D02*
X90717982Y-104967438D01*
X90717982Y-104967438D02*
X90622744Y-105062676D01*
X90622744Y-105062676D02*
X90575125Y-105157914D01*
X90575125Y-105157914D02*
X90527506Y-105348390D01*
X90527506Y-105348390D02*
X90527506Y-105491247D01*
X90527506Y-105491247D02*
X90575125Y-105681723D01*
X90575125Y-105681723D02*
X90622744Y-105776961D01*
X90622744Y-105776961D02*
X90717982Y-105872200D01*
X90717982Y-105872200D02*
X90860839Y-105919819D01*
X90860839Y-105919819D02*
X91098934Y-105919819D01*
X90098934Y-105538866D02*
X89337030Y-105538866D01*
X118039411Y-136267438D02*
X118134649Y-136219819D01*
X118134649Y-136219819D02*
X118277506Y-136219819D01*
X118277506Y-136219819D02*
X118420363Y-136267438D01*
X118420363Y-136267438D02*
X118515601Y-136362676D01*
X118515601Y-136362676D02*
X118563220Y-136457914D01*
X118563220Y-136457914D02*
X118610839Y-136648390D01*
X118610839Y-136648390D02*
X118610839Y-136791247D01*
X118610839Y-136791247D02*
X118563220Y-136981723D01*
X118563220Y-136981723D02*
X118515601Y-137076961D01*
X118515601Y-137076961D02*
X118420363Y-137172200D01*
X118420363Y-137172200D02*
X118277506Y-137219819D01*
X118277506Y-137219819D02*
X118182268Y-137219819D01*
X118182268Y-137219819D02*
X118039411Y-137172200D01*
X118039411Y-137172200D02*
X117991792Y-137124580D01*
X117991792Y-137124580D02*
X117991792Y-136791247D01*
X117991792Y-136791247D02*
X118182268Y-136791247D01*
X117563220Y-137219819D02*
X117563220Y-136219819D01*
X117563220Y-136219819D02*
X116991792Y-137219819D01*
X116991792Y-137219819D02*
X116991792Y-136219819D01*
X116515601Y-137219819D02*
X116515601Y-136219819D01*
X116515601Y-136219819D02*
X116277506Y-136219819D01*
X116277506Y-136219819D02*
X116134649Y-136267438D01*
X116134649Y-136267438D02*
X116039411Y-136362676D01*
X116039411Y-136362676D02*
X115991792Y-136457914D01*
X115991792Y-136457914D02*
X115944173Y-136648390D01*
X115944173Y-136648390D02*
X115944173Y-136791247D01*
X115944173Y-136791247D02*
X115991792Y-136981723D01*
X115991792Y-136981723D02*
X116039411Y-137076961D01*
X116039411Y-137076961D02*
X116134649Y-137172200D01*
X116134649Y-137172200D02*
X116277506Y-137219819D01*
X116277506Y-137219819D02*
X116515601Y-137219819D01*
X113160839Y-60365057D02*
X113113220Y-60317438D01*
X113113220Y-60317438D02*
X113017982Y-60269819D01*
X113017982Y-60269819D02*
X112779887Y-60269819D01*
X112779887Y-60269819D02*
X112684649Y-60317438D01*
X112684649Y-60317438D02*
X112637030Y-60365057D01*
X112637030Y-60365057D02*
X112589411Y-60460295D01*
X112589411Y-60460295D02*
X112589411Y-60555533D01*
X112589411Y-60555533D02*
X112637030Y-60698390D01*
X112637030Y-60698390D02*
X113208458Y-61269819D01*
X113208458Y-61269819D02*
X112589411Y-61269819D01*
X111732268Y-60603152D02*
X111732268Y-61269819D01*
X111970363Y-60222200D02*
X112208458Y-60936485D01*
X112208458Y-60936485D02*
X111589411Y-60936485D01*
X111351315Y-60269819D02*
X111017982Y-61269819D01*
X111017982Y-61269819D02*
X110684649Y-60269819D01*
X109137030Y-72319819D02*
X109613220Y-72319819D01*
X109613220Y-72319819D02*
X109613220Y-71319819D01*
X108803696Y-71796009D02*
X108470363Y-71796009D01*
X108327506Y-72319819D02*
X108803696Y-72319819D01*
X108803696Y-72319819D02*
X108803696Y-71319819D01*
X108803696Y-71319819D02*
X108327506Y-71319819D01*
X107898934Y-72319819D02*
X107898934Y-71319819D01*
X107898934Y-71319819D02*
X107660839Y-71319819D01*
X107660839Y-71319819D02*
X107517982Y-71367438D01*
X107517982Y-71367438D02*
X107422744Y-71462676D01*
X107422744Y-71462676D02*
X107375125Y-71557914D01*
X107375125Y-71557914D02*
X107327506Y-71748390D01*
X107327506Y-71748390D02*
X107327506Y-71891247D01*
X107327506Y-71891247D02*
X107375125Y-72081723D01*
X107375125Y-72081723D02*
X107422744Y-72176961D01*
X107422744Y-72176961D02*
X107517982Y-72272200D01*
X107517982Y-72272200D02*
X107660839Y-72319819D01*
X107660839Y-72319819D02*
X107898934Y-72319819D01*
X106898934Y-71938866D02*
X106137030Y-71938866D01*
X125937030Y-105919819D02*
X126413220Y-105919819D01*
X126413220Y-105919819D02*
X126413220Y-104919819D01*
X125603696Y-105396009D02*
X125270363Y-105396009D01*
X125127506Y-105919819D02*
X125603696Y-105919819D01*
X125603696Y-105919819D02*
X125603696Y-104919819D01*
X125603696Y-104919819D02*
X125127506Y-104919819D01*
X124698934Y-105919819D02*
X124698934Y-104919819D01*
X124698934Y-104919819D02*
X124460839Y-104919819D01*
X124460839Y-104919819D02*
X124317982Y-104967438D01*
X124317982Y-104967438D02*
X124222744Y-105062676D01*
X124222744Y-105062676D02*
X124175125Y-105157914D01*
X124175125Y-105157914D02*
X124127506Y-105348390D01*
X124127506Y-105348390D02*
X124127506Y-105491247D01*
X124127506Y-105491247D02*
X124175125Y-105681723D01*
X124175125Y-105681723D02*
X124222744Y-105776961D01*
X124222744Y-105776961D02*
X124317982Y-105872200D01*
X124317982Y-105872200D02*
X124460839Y-105919819D01*
X124460839Y-105919819D02*
X124698934Y-105919819D01*
X123698934Y-105538866D02*
X122937030Y-105538866D01*
X125937030Y-139519819D02*
X126413220Y-139519819D01*
X126413220Y-139519819D02*
X126413220Y-138519819D01*
X125603696Y-138996009D02*
X125270363Y-138996009D01*
X125127506Y-139519819D02*
X125603696Y-139519819D01*
X125603696Y-139519819D02*
X125603696Y-138519819D01*
X125603696Y-138519819D02*
X125127506Y-138519819D01*
X124698934Y-139519819D02*
X124698934Y-138519819D01*
X124698934Y-138519819D02*
X124460839Y-138519819D01*
X124460839Y-138519819D02*
X124317982Y-138567438D01*
X124317982Y-138567438D02*
X124222744Y-138662676D01*
X124222744Y-138662676D02*
X124175125Y-138757914D01*
X124175125Y-138757914D02*
X124127506Y-138948390D01*
X124127506Y-138948390D02*
X124127506Y-139091247D01*
X124127506Y-139091247D02*
X124175125Y-139281723D01*
X124175125Y-139281723D02*
X124222744Y-139376961D01*
X124222744Y-139376961D02*
X124317982Y-139472200D01*
X124317982Y-139472200D02*
X124460839Y-139519819D01*
X124460839Y-139519819D02*
X124698934Y-139519819D01*
X123698934Y-139138866D02*
X122937030Y-139138866D01*
X111213220Y-101619819D02*
X111213220Y-100619819D01*
X111213220Y-100619819D02*
X110832268Y-100619819D01*
X110832268Y-100619819D02*
X110737030Y-100667438D01*
X110737030Y-100667438D02*
X110689411Y-100715057D01*
X110689411Y-100715057D02*
X110641792Y-100810295D01*
X110641792Y-100810295D02*
X110641792Y-100953152D01*
X110641792Y-100953152D02*
X110689411Y-101048390D01*
X110689411Y-101048390D02*
X110737030Y-101096009D01*
X110737030Y-101096009D02*
X110832268Y-101143628D01*
X110832268Y-101143628D02*
X111213220Y-101143628D01*
X110308458Y-100619819D02*
X110070363Y-101619819D01*
X110070363Y-101619819D02*
X109879887Y-100905533D01*
X109879887Y-100905533D02*
X109689411Y-101619819D01*
X109689411Y-101619819D02*
X109451316Y-100619819D01*
X109070363Y-101619819D02*
X109070363Y-100619819D01*
X109070363Y-100619819D02*
X108737030Y-101334104D01*
X108737030Y-101334104D02*
X108403697Y-100619819D01*
X108403697Y-100619819D02*
X108403697Y-101619819D01*
X129960839Y-110765057D02*
X129913220Y-110717438D01*
X129913220Y-110717438D02*
X129817982Y-110669819D01*
X129817982Y-110669819D02*
X129579887Y-110669819D01*
X129579887Y-110669819D02*
X129484649Y-110717438D01*
X129484649Y-110717438D02*
X129437030Y-110765057D01*
X129437030Y-110765057D02*
X129389411Y-110860295D01*
X129389411Y-110860295D02*
X129389411Y-110955533D01*
X129389411Y-110955533D02*
X129437030Y-111098390D01*
X129437030Y-111098390D02*
X130008458Y-111669819D01*
X130008458Y-111669819D02*
X129389411Y-111669819D01*
X128532268Y-111003152D02*
X128532268Y-111669819D01*
X128770363Y-110622200D02*
X129008458Y-111336485D01*
X129008458Y-111336485D02*
X128389411Y-111336485D01*
X128151315Y-110669819D02*
X127817982Y-111669819D01*
X127817982Y-111669819D02*
X127484649Y-110669819D01*
X75537030Y-105919819D02*
X76013220Y-105919819D01*
X76013220Y-105919819D02*
X76013220Y-104919819D01*
X75203696Y-105396009D02*
X74870363Y-105396009D01*
X74727506Y-105919819D02*
X75203696Y-105919819D01*
X75203696Y-105919819D02*
X75203696Y-104919819D01*
X75203696Y-104919819D02*
X74727506Y-104919819D01*
X74298934Y-105919819D02*
X74298934Y-104919819D01*
X74298934Y-104919819D02*
X74060839Y-104919819D01*
X74060839Y-104919819D02*
X73917982Y-104967438D01*
X73917982Y-104967438D02*
X73822744Y-105062676D01*
X73822744Y-105062676D02*
X73775125Y-105157914D01*
X73775125Y-105157914D02*
X73727506Y-105348390D01*
X73727506Y-105348390D02*
X73727506Y-105491247D01*
X73727506Y-105491247D02*
X73775125Y-105681723D01*
X73775125Y-105681723D02*
X73822744Y-105776961D01*
X73822744Y-105776961D02*
X73917982Y-105872200D01*
X73917982Y-105872200D02*
X74060839Y-105919819D01*
X74060839Y-105919819D02*
X74298934Y-105919819D01*
X73298934Y-105538866D02*
X72537030Y-105538866D01*
X128013220Y-118419819D02*
X128013220Y-117419819D01*
X128013220Y-117419819D02*
X127632268Y-117419819D01*
X127632268Y-117419819D02*
X127537030Y-117467438D01*
X127537030Y-117467438D02*
X127489411Y-117515057D01*
X127489411Y-117515057D02*
X127441792Y-117610295D01*
X127441792Y-117610295D02*
X127441792Y-117753152D01*
X127441792Y-117753152D02*
X127489411Y-117848390D01*
X127489411Y-117848390D02*
X127537030Y-117896009D01*
X127537030Y-117896009D02*
X127632268Y-117943628D01*
X127632268Y-117943628D02*
X128013220Y-117943628D01*
X127108458Y-117419819D02*
X126870363Y-118419819D01*
X126870363Y-118419819D02*
X126679887Y-117705533D01*
X126679887Y-117705533D02*
X126489411Y-118419819D01*
X126489411Y-118419819D02*
X126251316Y-117419819D01*
X125870363Y-118419819D02*
X125870363Y-117419819D01*
X125870363Y-117419819D02*
X125537030Y-118134104D01*
X125537030Y-118134104D02*
X125203697Y-117419819D01*
X125203697Y-117419819D02*
X125203697Y-118419819D01*
X84439411Y-69067438D02*
X84534649Y-69019819D01*
X84534649Y-69019819D02*
X84677506Y-69019819D01*
X84677506Y-69019819D02*
X84820363Y-69067438D01*
X84820363Y-69067438D02*
X84915601Y-69162676D01*
X84915601Y-69162676D02*
X84963220Y-69257914D01*
X84963220Y-69257914D02*
X85010839Y-69448390D01*
X85010839Y-69448390D02*
X85010839Y-69591247D01*
X85010839Y-69591247D02*
X84963220Y-69781723D01*
X84963220Y-69781723D02*
X84915601Y-69876961D01*
X84915601Y-69876961D02*
X84820363Y-69972200D01*
X84820363Y-69972200D02*
X84677506Y-70019819D01*
X84677506Y-70019819D02*
X84582268Y-70019819D01*
X84582268Y-70019819D02*
X84439411Y-69972200D01*
X84439411Y-69972200D02*
X84391792Y-69924580D01*
X84391792Y-69924580D02*
X84391792Y-69591247D01*
X84391792Y-69591247D02*
X84582268Y-69591247D01*
X83963220Y-70019819D02*
X83963220Y-69019819D01*
X83963220Y-69019819D02*
X83391792Y-70019819D01*
X83391792Y-70019819D02*
X83391792Y-69019819D01*
X82915601Y-70019819D02*
X82915601Y-69019819D01*
X82915601Y-69019819D02*
X82677506Y-69019819D01*
X82677506Y-69019819D02*
X82534649Y-69067438D01*
X82534649Y-69067438D02*
X82439411Y-69162676D01*
X82439411Y-69162676D02*
X82391792Y-69257914D01*
X82391792Y-69257914D02*
X82344173Y-69448390D01*
X82344173Y-69448390D02*
X82344173Y-69591247D01*
X82344173Y-69591247D02*
X82391792Y-69781723D01*
X82391792Y-69781723D02*
X82439411Y-69876961D01*
X82439411Y-69876961D02*
X82534649Y-69972200D01*
X82534649Y-69972200D02*
X82677506Y-70019819D01*
X82677506Y-70019819D02*
X82915601Y-70019819D01*
X142737030Y-139519819D02*
X143213220Y-139519819D01*
X143213220Y-139519819D02*
X143213220Y-138519819D01*
X142403696Y-138996009D02*
X142070363Y-138996009D01*
X141927506Y-139519819D02*
X142403696Y-139519819D01*
X142403696Y-139519819D02*
X142403696Y-138519819D01*
X142403696Y-138519819D02*
X141927506Y-138519819D01*
X141498934Y-139519819D02*
X141498934Y-138519819D01*
X141498934Y-138519819D02*
X141260839Y-138519819D01*
X141260839Y-138519819D02*
X141117982Y-138567438D01*
X141117982Y-138567438D02*
X141022744Y-138662676D01*
X141022744Y-138662676D02*
X140975125Y-138757914D01*
X140975125Y-138757914D02*
X140927506Y-138948390D01*
X140927506Y-138948390D02*
X140927506Y-139091247D01*
X140927506Y-139091247D02*
X140975125Y-139281723D01*
X140975125Y-139281723D02*
X141022744Y-139376961D01*
X141022744Y-139376961D02*
X141117982Y-139472200D01*
X141117982Y-139472200D02*
X141260839Y-139519819D01*
X141260839Y-139519819D02*
X141498934Y-139519819D01*
X140498934Y-139138866D02*
X139737030Y-139138866D01*
X142737030Y-89119819D02*
X143213220Y-89119819D01*
X143213220Y-89119819D02*
X143213220Y-88119819D01*
X142403696Y-88596009D02*
X142070363Y-88596009D01*
X141927506Y-89119819D02*
X142403696Y-89119819D01*
X142403696Y-89119819D02*
X142403696Y-88119819D01*
X142403696Y-88119819D02*
X141927506Y-88119819D01*
X141498934Y-89119819D02*
X141498934Y-88119819D01*
X141498934Y-88119819D02*
X141260839Y-88119819D01*
X141260839Y-88119819D02*
X141117982Y-88167438D01*
X141117982Y-88167438D02*
X141022744Y-88262676D01*
X141022744Y-88262676D02*
X140975125Y-88357914D01*
X140975125Y-88357914D02*
X140927506Y-88548390D01*
X140927506Y-88548390D02*
X140927506Y-88691247D01*
X140927506Y-88691247D02*
X140975125Y-88881723D01*
X140975125Y-88881723D02*
X141022744Y-88976961D01*
X141022744Y-88976961D02*
X141117982Y-89072200D01*
X141117982Y-89072200D02*
X141260839Y-89119819D01*
X141260839Y-89119819D02*
X141498934Y-89119819D01*
X140498934Y-88738866D02*
X139737030Y-88738866D01*
X94413220Y-101619819D02*
X94413220Y-100619819D01*
X94413220Y-100619819D02*
X94032268Y-100619819D01*
X94032268Y-100619819D02*
X93937030Y-100667438D01*
X93937030Y-100667438D02*
X93889411Y-100715057D01*
X93889411Y-100715057D02*
X93841792Y-100810295D01*
X93841792Y-100810295D02*
X93841792Y-100953152D01*
X93841792Y-100953152D02*
X93889411Y-101048390D01*
X93889411Y-101048390D02*
X93937030Y-101096009D01*
X93937030Y-101096009D02*
X94032268Y-101143628D01*
X94032268Y-101143628D02*
X94413220Y-101143628D01*
X93508458Y-100619819D02*
X93270363Y-101619819D01*
X93270363Y-101619819D02*
X93079887Y-100905533D01*
X93079887Y-100905533D02*
X92889411Y-101619819D01*
X92889411Y-101619819D02*
X92651316Y-100619819D01*
X92270363Y-101619819D02*
X92270363Y-100619819D01*
X92270363Y-100619819D02*
X91937030Y-101334104D01*
X91937030Y-101334104D02*
X91603697Y-100619819D01*
X91603697Y-100619819D02*
X91603697Y-101619819D01*
X131762969Y-73230180D02*
X131286779Y-73230180D01*
X131286779Y-73230180D02*
X131286779Y-74230180D01*
X132096303Y-73753990D02*
X132429636Y-73753990D01*
X132572493Y-73230180D02*
X132096303Y-73230180D01*
X132096303Y-73230180D02*
X132096303Y-74230180D01*
X132096303Y-74230180D02*
X132572493Y-74230180D01*
X133001065Y-73230180D02*
X133001065Y-74230180D01*
X133001065Y-74230180D02*
X133239160Y-74230180D01*
X133239160Y-74230180D02*
X133382017Y-74182561D01*
X133382017Y-74182561D02*
X133477255Y-74087323D01*
X133477255Y-74087323D02*
X133524874Y-73992085D01*
X133524874Y-73992085D02*
X133572493Y-73801609D01*
X133572493Y-73801609D02*
X133572493Y-73658752D01*
X133572493Y-73658752D02*
X133524874Y-73468276D01*
X133524874Y-73468276D02*
X133477255Y-73373038D01*
X133477255Y-73373038D02*
X133382017Y-73277800D01*
X133382017Y-73277800D02*
X133239160Y-73230180D01*
X133239160Y-73230180D02*
X133001065Y-73230180D01*
X134001065Y-73611133D02*
X134762970Y-73611133D01*
X134382017Y-73230180D02*
X134382017Y-73992085D01*
X101239411Y-69067438D02*
X101334649Y-69019819D01*
X101334649Y-69019819D02*
X101477506Y-69019819D01*
X101477506Y-69019819D02*
X101620363Y-69067438D01*
X101620363Y-69067438D02*
X101715601Y-69162676D01*
X101715601Y-69162676D02*
X101763220Y-69257914D01*
X101763220Y-69257914D02*
X101810839Y-69448390D01*
X101810839Y-69448390D02*
X101810839Y-69591247D01*
X101810839Y-69591247D02*
X101763220Y-69781723D01*
X101763220Y-69781723D02*
X101715601Y-69876961D01*
X101715601Y-69876961D02*
X101620363Y-69972200D01*
X101620363Y-69972200D02*
X101477506Y-70019819D01*
X101477506Y-70019819D02*
X101382268Y-70019819D01*
X101382268Y-70019819D02*
X101239411Y-69972200D01*
X101239411Y-69972200D02*
X101191792Y-69924580D01*
X101191792Y-69924580D02*
X101191792Y-69591247D01*
X101191792Y-69591247D02*
X101382268Y-69591247D01*
X100763220Y-70019819D02*
X100763220Y-69019819D01*
X100763220Y-69019819D02*
X100191792Y-70019819D01*
X100191792Y-70019819D02*
X100191792Y-69019819D01*
X99715601Y-70019819D02*
X99715601Y-69019819D01*
X99715601Y-69019819D02*
X99477506Y-69019819D01*
X99477506Y-69019819D02*
X99334649Y-69067438D01*
X99334649Y-69067438D02*
X99239411Y-69162676D01*
X99239411Y-69162676D02*
X99191792Y-69257914D01*
X99191792Y-69257914D02*
X99144173Y-69448390D01*
X99144173Y-69448390D02*
X99144173Y-69591247D01*
X99144173Y-69591247D02*
X99191792Y-69781723D01*
X99191792Y-69781723D02*
X99239411Y-69876961D01*
X99239411Y-69876961D02*
X99334649Y-69972200D01*
X99334649Y-69972200D02*
X99477506Y-70019819D01*
X99477506Y-70019819D02*
X99715601Y-70019819D01*
X75537030Y-139519819D02*
X76013220Y-139519819D01*
X76013220Y-139519819D02*
X76013220Y-138519819D01*
X75203696Y-138996009D02*
X74870363Y-138996009D01*
X74727506Y-139519819D02*
X75203696Y-139519819D01*
X75203696Y-139519819D02*
X75203696Y-138519819D01*
X75203696Y-138519819D02*
X74727506Y-138519819D01*
X74298934Y-139519819D02*
X74298934Y-138519819D01*
X74298934Y-138519819D02*
X74060839Y-138519819D01*
X74060839Y-138519819D02*
X73917982Y-138567438D01*
X73917982Y-138567438D02*
X73822744Y-138662676D01*
X73822744Y-138662676D02*
X73775125Y-138757914D01*
X73775125Y-138757914D02*
X73727506Y-138948390D01*
X73727506Y-138948390D02*
X73727506Y-139091247D01*
X73727506Y-139091247D02*
X73775125Y-139281723D01*
X73775125Y-139281723D02*
X73822744Y-139376961D01*
X73822744Y-139376961D02*
X73917982Y-139472200D01*
X73917982Y-139472200D02*
X74060839Y-139519819D01*
X74060839Y-139519819D02*
X74298934Y-139519819D01*
X73298934Y-139138866D02*
X72537030Y-139138866D01*
X113160839Y-110765057D02*
X113113220Y-110717438D01*
X113113220Y-110717438D02*
X113017982Y-110669819D01*
X113017982Y-110669819D02*
X112779887Y-110669819D01*
X112779887Y-110669819D02*
X112684649Y-110717438D01*
X112684649Y-110717438D02*
X112637030Y-110765057D01*
X112637030Y-110765057D02*
X112589411Y-110860295D01*
X112589411Y-110860295D02*
X112589411Y-110955533D01*
X112589411Y-110955533D02*
X112637030Y-111098390D01*
X112637030Y-111098390D02*
X113208458Y-111669819D01*
X113208458Y-111669819D02*
X112589411Y-111669819D01*
X111732268Y-111003152D02*
X111732268Y-111669819D01*
X111970363Y-110622200D02*
X112208458Y-111336485D01*
X112208458Y-111336485D02*
X111589411Y-111336485D01*
X111351315Y-110669819D02*
X111017982Y-111669819D01*
X111017982Y-111669819D02*
X110684649Y-110669819D01*
X151639411Y-85867438D02*
X151734649Y-85819819D01*
X151734649Y-85819819D02*
X151877506Y-85819819D01*
X151877506Y-85819819D02*
X152020363Y-85867438D01*
X152020363Y-85867438D02*
X152115601Y-85962676D01*
X152115601Y-85962676D02*
X152163220Y-86057914D01*
X152163220Y-86057914D02*
X152210839Y-86248390D01*
X152210839Y-86248390D02*
X152210839Y-86391247D01*
X152210839Y-86391247D02*
X152163220Y-86581723D01*
X152163220Y-86581723D02*
X152115601Y-86676961D01*
X152115601Y-86676961D02*
X152020363Y-86772200D01*
X152020363Y-86772200D02*
X151877506Y-86819819D01*
X151877506Y-86819819D02*
X151782268Y-86819819D01*
X151782268Y-86819819D02*
X151639411Y-86772200D01*
X151639411Y-86772200D02*
X151591792Y-86724580D01*
X151591792Y-86724580D02*
X151591792Y-86391247D01*
X151591792Y-86391247D02*
X151782268Y-86391247D01*
X151163220Y-86819819D02*
X151163220Y-85819819D01*
X151163220Y-85819819D02*
X150591792Y-86819819D01*
X150591792Y-86819819D02*
X150591792Y-85819819D01*
X150115601Y-86819819D02*
X150115601Y-85819819D01*
X150115601Y-85819819D02*
X149877506Y-85819819D01*
X149877506Y-85819819D02*
X149734649Y-85867438D01*
X149734649Y-85867438D02*
X149639411Y-85962676D01*
X149639411Y-85962676D02*
X149591792Y-86057914D01*
X149591792Y-86057914D02*
X149544173Y-86248390D01*
X149544173Y-86248390D02*
X149544173Y-86391247D01*
X149544173Y-86391247D02*
X149591792Y-86581723D01*
X149591792Y-86581723D02*
X149639411Y-86676961D01*
X149639411Y-86676961D02*
X149734649Y-86772200D01*
X149734649Y-86772200D02*
X149877506Y-86819819D01*
X149877506Y-86819819D02*
X150115601Y-86819819D01*
X94413220Y-84819819D02*
X94413220Y-83819819D01*
X94413220Y-83819819D02*
X94032268Y-83819819D01*
X94032268Y-83819819D02*
X93937030Y-83867438D01*
X93937030Y-83867438D02*
X93889411Y-83915057D01*
X93889411Y-83915057D02*
X93841792Y-84010295D01*
X93841792Y-84010295D02*
X93841792Y-84153152D01*
X93841792Y-84153152D02*
X93889411Y-84248390D01*
X93889411Y-84248390D02*
X93937030Y-84296009D01*
X93937030Y-84296009D02*
X94032268Y-84343628D01*
X94032268Y-84343628D02*
X94413220Y-84343628D01*
X93508458Y-83819819D02*
X93270363Y-84819819D01*
X93270363Y-84819819D02*
X93079887Y-84105533D01*
X93079887Y-84105533D02*
X92889411Y-84819819D01*
X92889411Y-84819819D02*
X92651316Y-83819819D01*
X92270363Y-84819819D02*
X92270363Y-83819819D01*
X92270363Y-83819819D02*
X91937030Y-84534104D01*
X91937030Y-84534104D02*
X91603697Y-83819819D01*
X91603697Y-83819819D02*
X91603697Y-84819819D01*
X148562969Y-90030180D02*
X148086779Y-90030180D01*
X148086779Y-90030180D02*
X148086779Y-91030180D01*
X148896303Y-90553990D02*
X149229636Y-90553990D01*
X149372493Y-90030180D02*
X148896303Y-90030180D01*
X148896303Y-90030180D02*
X148896303Y-91030180D01*
X148896303Y-91030180D02*
X149372493Y-91030180D01*
X149801065Y-90030180D02*
X149801065Y-91030180D01*
X149801065Y-91030180D02*
X150039160Y-91030180D01*
X150039160Y-91030180D02*
X150182017Y-90982561D01*
X150182017Y-90982561D02*
X150277255Y-90887323D01*
X150277255Y-90887323D02*
X150324874Y-90792085D01*
X150324874Y-90792085D02*
X150372493Y-90601609D01*
X150372493Y-90601609D02*
X150372493Y-90458752D01*
X150372493Y-90458752D02*
X150324874Y-90268276D01*
X150324874Y-90268276D02*
X150277255Y-90173038D01*
X150277255Y-90173038D02*
X150182017Y-90077800D01*
X150182017Y-90077800D02*
X150039160Y-90030180D01*
X150039160Y-90030180D02*
X149801065Y-90030180D01*
X150801065Y-90411133D02*
X151562970Y-90411133D01*
X151182017Y-90030180D02*
X151182017Y-90792085D01*
X151639411Y-119467438D02*
X151734649Y-119419819D01*
X151734649Y-119419819D02*
X151877506Y-119419819D01*
X151877506Y-119419819D02*
X152020363Y-119467438D01*
X152020363Y-119467438D02*
X152115601Y-119562676D01*
X152115601Y-119562676D02*
X152163220Y-119657914D01*
X152163220Y-119657914D02*
X152210839Y-119848390D01*
X152210839Y-119848390D02*
X152210839Y-119991247D01*
X152210839Y-119991247D02*
X152163220Y-120181723D01*
X152163220Y-120181723D02*
X152115601Y-120276961D01*
X152115601Y-120276961D02*
X152020363Y-120372200D01*
X152020363Y-120372200D02*
X151877506Y-120419819D01*
X151877506Y-120419819D02*
X151782268Y-120419819D01*
X151782268Y-120419819D02*
X151639411Y-120372200D01*
X151639411Y-120372200D02*
X151591792Y-120324580D01*
X151591792Y-120324580D02*
X151591792Y-119991247D01*
X151591792Y-119991247D02*
X151782268Y-119991247D01*
X151163220Y-120419819D02*
X151163220Y-119419819D01*
X151163220Y-119419819D02*
X150591792Y-120419819D01*
X150591792Y-120419819D02*
X150591792Y-119419819D01*
X150115601Y-120419819D02*
X150115601Y-119419819D01*
X150115601Y-119419819D02*
X149877506Y-119419819D01*
X149877506Y-119419819D02*
X149734649Y-119467438D01*
X149734649Y-119467438D02*
X149639411Y-119562676D01*
X149639411Y-119562676D02*
X149591792Y-119657914D01*
X149591792Y-119657914D02*
X149544173Y-119848390D01*
X149544173Y-119848390D02*
X149544173Y-119991247D01*
X149544173Y-119991247D02*
X149591792Y-120181723D01*
X149591792Y-120181723D02*
X149639411Y-120276961D01*
X149639411Y-120276961D02*
X149734649Y-120372200D01*
X149734649Y-120372200D02*
X149877506Y-120419819D01*
X149877506Y-120419819D02*
X150115601Y-120419819D01*
X101239411Y-136267438D02*
X101334649Y-136219819D01*
X101334649Y-136219819D02*
X101477506Y-136219819D01*
X101477506Y-136219819D02*
X101620363Y-136267438D01*
X101620363Y-136267438D02*
X101715601Y-136362676D01*
X101715601Y-136362676D02*
X101763220Y-136457914D01*
X101763220Y-136457914D02*
X101810839Y-136648390D01*
X101810839Y-136648390D02*
X101810839Y-136791247D01*
X101810839Y-136791247D02*
X101763220Y-136981723D01*
X101763220Y-136981723D02*
X101715601Y-137076961D01*
X101715601Y-137076961D02*
X101620363Y-137172200D01*
X101620363Y-137172200D02*
X101477506Y-137219819D01*
X101477506Y-137219819D02*
X101382268Y-137219819D01*
X101382268Y-137219819D02*
X101239411Y-137172200D01*
X101239411Y-137172200D02*
X101191792Y-137124580D01*
X101191792Y-137124580D02*
X101191792Y-136791247D01*
X101191792Y-136791247D02*
X101382268Y-136791247D01*
X100763220Y-137219819D02*
X100763220Y-136219819D01*
X100763220Y-136219819D02*
X100191792Y-137219819D01*
X100191792Y-137219819D02*
X100191792Y-136219819D01*
X99715601Y-137219819D02*
X99715601Y-136219819D01*
X99715601Y-136219819D02*
X99477506Y-136219819D01*
X99477506Y-136219819D02*
X99334649Y-136267438D01*
X99334649Y-136267438D02*
X99239411Y-136362676D01*
X99239411Y-136362676D02*
X99191792Y-136457914D01*
X99191792Y-136457914D02*
X99144173Y-136648390D01*
X99144173Y-136648390D02*
X99144173Y-136791247D01*
X99144173Y-136791247D02*
X99191792Y-136981723D01*
X99191792Y-136981723D02*
X99239411Y-137076961D01*
X99239411Y-137076961D02*
X99334649Y-137172200D01*
X99334649Y-137172200D02*
X99477506Y-137219819D01*
X99477506Y-137219819D02*
X99715601Y-137219819D01*
X96360839Y-60365057D02*
X96313220Y-60317438D01*
X96313220Y-60317438D02*
X96217982Y-60269819D01*
X96217982Y-60269819D02*
X95979887Y-60269819D01*
X95979887Y-60269819D02*
X95884649Y-60317438D01*
X95884649Y-60317438D02*
X95837030Y-60365057D01*
X95837030Y-60365057D02*
X95789411Y-60460295D01*
X95789411Y-60460295D02*
X95789411Y-60555533D01*
X95789411Y-60555533D02*
X95837030Y-60698390D01*
X95837030Y-60698390D02*
X96408458Y-61269819D01*
X96408458Y-61269819D02*
X95789411Y-61269819D01*
X94932268Y-60603152D02*
X94932268Y-61269819D01*
X95170363Y-60222200D02*
X95408458Y-60936485D01*
X95408458Y-60936485D02*
X94789411Y-60936485D01*
X94551315Y-60269819D02*
X94217982Y-61269819D01*
X94217982Y-61269819D02*
X93884649Y-60269819D01*
X111213220Y-84819819D02*
X111213220Y-83819819D01*
X111213220Y-83819819D02*
X110832268Y-83819819D01*
X110832268Y-83819819D02*
X110737030Y-83867438D01*
X110737030Y-83867438D02*
X110689411Y-83915057D01*
X110689411Y-83915057D02*
X110641792Y-84010295D01*
X110641792Y-84010295D02*
X110641792Y-84153152D01*
X110641792Y-84153152D02*
X110689411Y-84248390D01*
X110689411Y-84248390D02*
X110737030Y-84296009D01*
X110737030Y-84296009D02*
X110832268Y-84343628D01*
X110832268Y-84343628D02*
X111213220Y-84343628D01*
X110308458Y-83819819D02*
X110070363Y-84819819D01*
X110070363Y-84819819D02*
X109879887Y-84105533D01*
X109879887Y-84105533D02*
X109689411Y-84819819D01*
X109689411Y-84819819D02*
X109451316Y-83819819D01*
X109070363Y-84819819D02*
X109070363Y-83819819D01*
X109070363Y-83819819D02*
X108737030Y-84534104D01*
X108737030Y-84534104D02*
X108403697Y-83819819D01*
X108403697Y-83819819D02*
X108403697Y-84819819D01*
X79560839Y-60365057D02*
X79513220Y-60317438D01*
X79513220Y-60317438D02*
X79417982Y-60269819D01*
X79417982Y-60269819D02*
X79179887Y-60269819D01*
X79179887Y-60269819D02*
X79084649Y-60317438D01*
X79084649Y-60317438D02*
X79037030Y-60365057D01*
X79037030Y-60365057D02*
X78989411Y-60460295D01*
X78989411Y-60460295D02*
X78989411Y-60555533D01*
X78989411Y-60555533D02*
X79037030Y-60698390D01*
X79037030Y-60698390D02*
X79608458Y-61269819D01*
X79608458Y-61269819D02*
X78989411Y-61269819D01*
X78132268Y-60603152D02*
X78132268Y-61269819D01*
X78370363Y-60222200D02*
X78608458Y-60936485D01*
X78608458Y-60936485D02*
X77989411Y-60936485D01*
X77751315Y-60269819D02*
X77417982Y-61269819D01*
X77417982Y-61269819D02*
X77084649Y-60269819D01*
X129960839Y-93965057D02*
X129913220Y-93917438D01*
X129913220Y-93917438D02*
X129817982Y-93869819D01*
X129817982Y-93869819D02*
X129579887Y-93869819D01*
X129579887Y-93869819D02*
X129484649Y-93917438D01*
X129484649Y-93917438D02*
X129437030Y-93965057D01*
X129437030Y-93965057D02*
X129389411Y-94060295D01*
X129389411Y-94060295D02*
X129389411Y-94155533D01*
X129389411Y-94155533D02*
X129437030Y-94298390D01*
X129437030Y-94298390D02*
X130008458Y-94869819D01*
X130008458Y-94869819D02*
X129389411Y-94869819D01*
X128532268Y-94203152D02*
X128532268Y-94869819D01*
X128770363Y-93822200D02*
X129008458Y-94536485D01*
X129008458Y-94536485D02*
X128389411Y-94536485D01*
X128151315Y-93869819D02*
X127817982Y-94869819D01*
X127817982Y-94869819D02*
X127484649Y-93869819D01*
X144813220Y-101619819D02*
X144813220Y-100619819D01*
X144813220Y-100619819D02*
X144432268Y-100619819D01*
X144432268Y-100619819D02*
X144337030Y-100667438D01*
X144337030Y-100667438D02*
X144289411Y-100715057D01*
X144289411Y-100715057D02*
X144241792Y-100810295D01*
X144241792Y-100810295D02*
X144241792Y-100953152D01*
X144241792Y-100953152D02*
X144289411Y-101048390D01*
X144289411Y-101048390D02*
X144337030Y-101096009D01*
X144337030Y-101096009D02*
X144432268Y-101143628D01*
X144432268Y-101143628D02*
X144813220Y-101143628D01*
X143908458Y-100619819D02*
X143670363Y-101619819D01*
X143670363Y-101619819D02*
X143479887Y-100905533D01*
X143479887Y-100905533D02*
X143289411Y-101619819D01*
X143289411Y-101619819D02*
X143051316Y-100619819D01*
X142670363Y-101619819D02*
X142670363Y-100619819D01*
X142670363Y-100619819D02*
X142337030Y-101334104D01*
X142337030Y-101334104D02*
X142003697Y-100619819D01*
X142003697Y-100619819D02*
X142003697Y-101619819D01*
X94413220Y-118419819D02*
X94413220Y-117419819D01*
X94413220Y-117419819D02*
X94032268Y-117419819D01*
X94032268Y-117419819D02*
X93937030Y-117467438D01*
X93937030Y-117467438D02*
X93889411Y-117515057D01*
X93889411Y-117515057D02*
X93841792Y-117610295D01*
X93841792Y-117610295D02*
X93841792Y-117753152D01*
X93841792Y-117753152D02*
X93889411Y-117848390D01*
X93889411Y-117848390D02*
X93937030Y-117896009D01*
X93937030Y-117896009D02*
X94032268Y-117943628D01*
X94032268Y-117943628D02*
X94413220Y-117943628D01*
X93508458Y-117419819D02*
X93270363Y-118419819D01*
X93270363Y-118419819D02*
X93079887Y-117705533D01*
X93079887Y-117705533D02*
X92889411Y-118419819D01*
X92889411Y-118419819D02*
X92651316Y-117419819D01*
X92270363Y-118419819D02*
X92270363Y-117419819D01*
X92270363Y-117419819D02*
X91937030Y-118134104D01*
X91937030Y-118134104D02*
X91603697Y-117419819D01*
X91603697Y-117419819D02*
X91603697Y-118419819D01*
X118039411Y-69067438D02*
X118134649Y-69019819D01*
X118134649Y-69019819D02*
X118277506Y-69019819D01*
X118277506Y-69019819D02*
X118420363Y-69067438D01*
X118420363Y-69067438D02*
X118515601Y-69162676D01*
X118515601Y-69162676D02*
X118563220Y-69257914D01*
X118563220Y-69257914D02*
X118610839Y-69448390D01*
X118610839Y-69448390D02*
X118610839Y-69591247D01*
X118610839Y-69591247D02*
X118563220Y-69781723D01*
X118563220Y-69781723D02*
X118515601Y-69876961D01*
X118515601Y-69876961D02*
X118420363Y-69972200D01*
X118420363Y-69972200D02*
X118277506Y-70019819D01*
X118277506Y-70019819D02*
X118182268Y-70019819D01*
X118182268Y-70019819D02*
X118039411Y-69972200D01*
X118039411Y-69972200D02*
X117991792Y-69924580D01*
X117991792Y-69924580D02*
X117991792Y-69591247D01*
X117991792Y-69591247D02*
X118182268Y-69591247D01*
X117563220Y-70019819D02*
X117563220Y-69019819D01*
X117563220Y-69019819D02*
X116991792Y-70019819D01*
X116991792Y-70019819D02*
X116991792Y-69019819D01*
X116515601Y-70019819D02*
X116515601Y-69019819D01*
X116515601Y-69019819D02*
X116277506Y-69019819D01*
X116277506Y-69019819D02*
X116134649Y-69067438D01*
X116134649Y-69067438D02*
X116039411Y-69162676D01*
X116039411Y-69162676D02*
X115991792Y-69257914D01*
X115991792Y-69257914D02*
X115944173Y-69448390D01*
X115944173Y-69448390D02*
X115944173Y-69591247D01*
X115944173Y-69591247D02*
X115991792Y-69781723D01*
X115991792Y-69781723D02*
X116039411Y-69876961D01*
X116039411Y-69876961D02*
X116134649Y-69972200D01*
X116134649Y-69972200D02*
X116277506Y-70019819D01*
X116277506Y-70019819D02*
X116515601Y-70019819D01*
X81362969Y-73230180D02*
X80886779Y-73230180D01*
X80886779Y-73230180D02*
X80886779Y-74230180D01*
X81696303Y-73753990D02*
X82029636Y-73753990D01*
X82172493Y-73230180D02*
X81696303Y-73230180D01*
X81696303Y-73230180D02*
X81696303Y-74230180D01*
X81696303Y-74230180D02*
X82172493Y-74230180D01*
X82601065Y-73230180D02*
X82601065Y-74230180D01*
X82601065Y-74230180D02*
X82839160Y-74230180D01*
X82839160Y-74230180D02*
X82982017Y-74182561D01*
X82982017Y-74182561D02*
X83077255Y-74087323D01*
X83077255Y-74087323D02*
X83124874Y-73992085D01*
X83124874Y-73992085D02*
X83172493Y-73801609D01*
X83172493Y-73801609D02*
X83172493Y-73658752D01*
X83172493Y-73658752D02*
X83124874Y-73468276D01*
X83124874Y-73468276D02*
X83077255Y-73373038D01*
X83077255Y-73373038D02*
X82982017Y-73277800D01*
X82982017Y-73277800D02*
X82839160Y-73230180D01*
X82839160Y-73230180D02*
X82601065Y-73230180D01*
X83601065Y-73611133D02*
X84362970Y-73611133D01*
X83982017Y-73230180D02*
X83982017Y-73992085D01*
X81362969Y-106830180D02*
X80886779Y-106830180D01*
X80886779Y-106830180D02*
X80886779Y-107830180D01*
X81696303Y-107353990D02*
X82029636Y-107353990D01*
X82172493Y-106830180D02*
X81696303Y-106830180D01*
X81696303Y-106830180D02*
X81696303Y-107830180D01*
X81696303Y-107830180D02*
X82172493Y-107830180D01*
X82601065Y-106830180D02*
X82601065Y-107830180D01*
X82601065Y-107830180D02*
X82839160Y-107830180D01*
X82839160Y-107830180D02*
X82982017Y-107782561D01*
X82982017Y-107782561D02*
X83077255Y-107687323D01*
X83077255Y-107687323D02*
X83124874Y-107592085D01*
X83124874Y-107592085D02*
X83172493Y-107401609D01*
X83172493Y-107401609D02*
X83172493Y-107258752D01*
X83172493Y-107258752D02*
X83124874Y-107068276D01*
X83124874Y-107068276D02*
X83077255Y-106973038D01*
X83077255Y-106973038D02*
X82982017Y-106877800D01*
X82982017Y-106877800D02*
X82839160Y-106830180D01*
X82839160Y-106830180D02*
X82601065Y-106830180D01*
X83601065Y-107211133D02*
X84362970Y-107211133D01*
X83982017Y-106830180D02*
X83982017Y-107592085D01*
X128013220Y-101619819D02*
X128013220Y-100619819D01*
X128013220Y-100619819D02*
X127632268Y-100619819D01*
X127632268Y-100619819D02*
X127537030Y-100667438D01*
X127537030Y-100667438D02*
X127489411Y-100715057D01*
X127489411Y-100715057D02*
X127441792Y-100810295D01*
X127441792Y-100810295D02*
X127441792Y-100953152D01*
X127441792Y-100953152D02*
X127489411Y-101048390D01*
X127489411Y-101048390D02*
X127537030Y-101096009D01*
X127537030Y-101096009D02*
X127632268Y-101143628D01*
X127632268Y-101143628D02*
X128013220Y-101143628D01*
X127108458Y-100619819D02*
X126870363Y-101619819D01*
X126870363Y-101619819D02*
X126679887Y-100905533D01*
X126679887Y-100905533D02*
X126489411Y-101619819D01*
X126489411Y-101619819D02*
X126251316Y-100619819D01*
X125870363Y-101619819D02*
X125870363Y-100619819D01*
X125870363Y-100619819D02*
X125537030Y-101334104D01*
X125537030Y-101334104D02*
X125203697Y-100619819D01*
X125203697Y-100619819D02*
X125203697Y-101619819D01*
X84439411Y-136267438D02*
X84534649Y-136219819D01*
X84534649Y-136219819D02*
X84677506Y-136219819D01*
X84677506Y-136219819D02*
X84820363Y-136267438D01*
X84820363Y-136267438D02*
X84915601Y-136362676D01*
X84915601Y-136362676D02*
X84963220Y-136457914D01*
X84963220Y-136457914D02*
X85010839Y-136648390D01*
X85010839Y-136648390D02*
X85010839Y-136791247D01*
X85010839Y-136791247D02*
X84963220Y-136981723D01*
X84963220Y-136981723D02*
X84915601Y-137076961D01*
X84915601Y-137076961D02*
X84820363Y-137172200D01*
X84820363Y-137172200D02*
X84677506Y-137219819D01*
X84677506Y-137219819D02*
X84582268Y-137219819D01*
X84582268Y-137219819D02*
X84439411Y-137172200D01*
X84439411Y-137172200D02*
X84391792Y-137124580D01*
X84391792Y-137124580D02*
X84391792Y-136791247D01*
X84391792Y-136791247D02*
X84582268Y-136791247D01*
X83963220Y-137219819D02*
X83963220Y-136219819D01*
X83963220Y-136219819D02*
X83391792Y-137219819D01*
X83391792Y-137219819D02*
X83391792Y-136219819D01*
X82915601Y-137219819D02*
X82915601Y-136219819D01*
X82915601Y-136219819D02*
X82677506Y-136219819D01*
X82677506Y-136219819D02*
X82534649Y-136267438D01*
X82534649Y-136267438D02*
X82439411Y-136362676D01*
X82439411Y-136362676D02*
X82391792Y-136457914D01*
X82391792Y-136457914D02*
X82344173Y-136648390D01*
X82344173Y-136648390D02*
X82344173Y-136791247D01*
X82344173Y-136791247D02*
X82391792Y-136981723D01*
X82391792Y-136981723D02*
X82439411Y-137076961D01*
X82439411Y-137076961D02*
X82534649Y-137172200D01*
X82534649Y-137172200D02*
X82677506Y-137219819D01*
X82677506Y-137219819D02*
X82915601Y-137219819D01*
X101239411Y-119467438D02*
X101334649Y-119419819D01*
X101334649Y-119419819D02*
X101477506Y-119419819D01*
X101477506Y-119419819D02*
X101620363Y-119467438D01*
X101620363Y-119467438D02*
X101715601Y-119562676D01*
X101715601Y-119562676D02*
X101763220Y-119657914D01*
X101763220Y-119657914D02*
X101810839Y-119848390D01*
X101810839Y-119848390D02*
X101810839Y-119991247D01*
X101810839Y-119991247D02*
X101763220Y-120181723D01*
X101763220Y-120181723D02*
X101715601Y-120276961D01*
X101715601Y-120276961D02*
X101620363Y-120372200D01*
X101620363Y-120372200D02*
X101477506Y-120419819D01*
X101477506Y-120419819D02*
X101382268Y-120419819D01*
X101382268Y-120419819D02*
X101239411Y-120372200D01*
X101239411Y-120372200D02*
X101191792Y-120324580D01*
X101191792Y-120324580D02*
X101191792Y-119991247D01*
X101191792Y-119991247D02*
X101382268Y-119991247D01*
X100763220Y-120419819D02*
X100763220Y-119419819D01*
X100763220Y-119419819D02*
X100191792Y-120419819D01*
X100191792Y-120419819D02*
X100191792Y-119419819D01*
X99715601Y-120419819D02*
X99715601Y-119419819D01*
X99715601Y-119419819D02*
X99477506Y-119419819D01*
X99477506Y-119419819D02*
X99334649Y-119467438D01*
X99334649Y-119467438D02*
X99239411Y-119562676D01*
X99239411Y-119562676D02*
X99191792Y-119657914D01*
X99191792Y-119657914D02*
X99144173Y-119848390D01*
X99144173Y-119848390D02*
X99144173Y-119991247D01*
X99144173Y-119991247D02*
X99191792Y-120181723D01*
X99191792Y-120181723D02*
X99239411Y-120276961D01*
X99239411Y-120276961D02*
X99334649Y-120372200D01*
X99334649Y-120372200D02*
X99477506Y-120419819D01*
X99477506Y-120419819D02*
X99715601Y-120419819D01*
X79560839Y-77165057D02*
X79513220Y-77117438D01*
X79513220Y-77117438D02*
X79417982Y-77069819D01*
X79417982Y-77069819D02*
X79179887Y-77069819D01*
X79179887Y-77069819D02*
X79084649Y-77117438D01*
X79084649Y-77117438D02*
X79037030Y-77165057D01*
X79037030Y-77165057D02*
X78989411Y-77260295D01*
X78989411Y-77260295D02*
X78989411Y-77355533D01*
X78989411Y-77355533D02*
X79037030Y-77498390D01*
X79037030Y-77498390D02*
X79608458Y-78069819D01*
X79608458Y-78069819D02*
X78989411Y-78069819D01*
X78132268Y-77403152D02*
X78132268Y-78069819D01*
X78370363Y-77022200D02*
X78608458Y-77736485D01*
X78608458Y-77736485D02*
X77989411Y-77736485D01*
X77751315Y-77069819D02*
X77417982Y-78069819D01*
X77417982Y-78069819D02*
X77084649Y-77069819D01*
X146760839Y-110765057D02*
X146713220Y-110717438D01*
X146713220Y-110717438D02*
X146617982Y-110669819D01*
X146617982Y-110669819D02*
X146379887Y-110669819D01*
X146379887Y-110669819D02*
X146284649Y-110717438D01*
X146284649Y-110717438D02*
X146237030Y-110765057D01*
X146237030Y-110765057D02*
X146189411Y-110860295D01*
X146189411Y-110860295D02*
X146189411Y-110955533D01*
X146189411Y-110955533D02*
X146237030Y-111098390D01*
X146237030Y-111098390D02*
X146808458Y-111669819D01*
X146808458Y-111669819D02*
X146189411Y-111669819D01*
X145332268Y-111003152D02*
X145332268Y-111669819D01*
X145570363Y-110622200D02*
X145808458Y-111336485D01*
X145808458Y-111336485D02*
X145189411Y-111336485D01*
X144951315Y-110669819D02*
X144617982Y-111669819D01*
X144617982Y-111669819D02*
X144284649Y-110669819D01*
X81362969Y-56430180D02*
X80886779Y-56430180D01*
X80886779Y-56430180D02*
X80886779Y-57430180D01*
X81696303Y-56953990D02*
X82029636Y-56953990D01*
X82172493Y-56430180D02*
X81696303Y-56430180D01*
X81696303Y-56430180D02*
X81696303Y-57430180D01*
X81696303Y-57430180D02*
X82172493Y-57430180D01*
X82601065Y-56430180D02*
X82601065Y-57430180D01*
X82601065Y-57430180D02*
X82839160Y-57430180D01*
X82839160Y-57430180D02*
X82982017Y-57382561D01*
X82982017Y-57382561D02*
X83077255Y-57287323D01*
X83077255Y-57287323D02*
X83124874Y-57192085D01*
X83124874Y-57192085D02*
X83172493Y-57001609D01*
X83172493Y-57001609D02*
X83172493Y-56858752D01*
X83172493Y-56858752D02*
X83124874Y-56668276D01*
X83124874Y-56668276D02*
X83077255Y-56573038D01*
X83077255Y-56573038D02*
X82982017Y-56477800D01*
X82982017Y-56477800D02*
X82839160Y-56430180D01*
X82839160Y-56430180D02*
X82601065Y-56430180D01*
X83601065Y-56811133D02*
X84362970Y-56811133D01*
X83982017Y-56430180D02*
X83982017Y-57192085D01*
X94413220Y-135219819D02*
X94413220Y-134219819D01*
X94413220Y-134219819D02*
X94032268Y-134219819D01*
X94032268Y-134219819D02*
X93937030Y-134267438D01*
X93937030Y-134267438D02*
X93889411Y-134315057D01*
X93889411Y-134315057D02*
X93841792Y-134410295D01*
X93841792Y-134410295D02*
X93841792Y-134553152D01*
X93841792Y-134553152D02*
X93889411Y-134648390D01*
X93889411Y-134648390D02*
X93937030Y-134696009D01*
X93937030Y-134696009D02*
X94032268Y-134743628D01*
X94032268Y-134743628D02*
X94413220Y-134743628D01*
X93508458Y-134219819D02*
X93270363Y-135219819D01*
X93270363Y-135219819D02*
X93079887Y-134505533D01*
X93079887Y-134505533D02*
X92889411Y-135219819D01*
X92889411Y-135219819D02*
X92651316Y-134219819D01*
X92270363Y-135219819D02*
X92270363Y-134219819D01*
X92270363Y-134219819D02*
X91937030Y-134934104D01*
X91937030Y-134934104D02*
X91603697Y-134219819D01*
X91603697Y-134219819D02*
X91603697Y-135219819D01*
X92337030Y-139519819D02*
X92813220Y-139519819D01*
X92813220Y-139519819D02*
X92813220Y-138519819D01*
X92003696Y-138996009D02*
X91670363Y-138996009D01*
X91527506Y-139519819D02*
X92003696Y-139519819D01*
X92003696Y-139519819D02*
X92003696Y-138519819D01*
X92003696Y-138519819D02*
X91527506Y-138519819D01*
X91098934Y-139519819D02*
X91098934Y-138519819D01*
X91098934Y-138519819D02*
X90860839Y-138519819D01*
X90860839Y-138519819D02*
X90717982Y-138567438D01*
X90717982Y-138567438D02*
X90622744Y-138662676D01*
X90622744Y-138662676D02*
X90575125Y-138757914D01*
X90575125Y-138757914D02*
X90527506Y-138948390D01*
X90527506Y-138948390D02*
X90527506Y-139091247D01*
X90527506Y-139091247D02*
X90575125Y-139281723D01*
X90575125Y-139281723D02*
X90622744Y-139376961D01*
X90622744Y-139376961D02*
X90717982Y-139472200D01*
X90717982Y-139472200D02*
X90860839Y-139519819D01*
X90860839Y-139519819D02*
X91098934Y-139519819D01*
X90098934Y-139138866D02*
X89337030Y-139138866D01*
X84439411Y-102667438D02*
X84534649Y-102619819D01*
X84534649Y-102619819D02*
X84677506Y-102619819D01*
X84677506Y-102619819D02*
X84820363Y-102667438D01*
X84820363Y-102667438D02*
X84915601Y-102762676D01*
X84915601Y-102762676D02*
X84963220Y-102857914D01*
X84963220Y-102857914D02*
X85010839Y-103048390D01*
X85010839Y-103048390D02*
X85010839Y-103191247D01*
X85010839Y-103191247D02*
X84963220Y-103381723D01*
X84963220Y-103381723D02*
X84915601Y-103476961D01*
X84915601Y-103476961D02*
X84820363Y-103572200D01*
X84820363Y-103572200D02*
X84677506Y-103619819D01*
X84677506Y-103619819D02*
X84582268Y-103619819D01*
X84582268Y-103619819D02*
X84439411Y-103572200D01*
X84439411Y-103572200D02*
X84391792Y-103524580D01*
X84391792Y-103524580D02*
X84391792Y-103191247D01*
X84391792Y-103191247D02*
X84582268Y-103191247D01*
X83963220Y-103619819D02*
X83963220Y-102619819D01*
X83963220Y-102619819D02*
X83391792Y-103619819D01*
X83391792Y-103619819D02*
X83391792Y-102619819D01*
X82915601Y-103619819D02*
X82915601Y-102619819D01*
X82915601Y-102619819D02*
X82677506Y-102619819D01*
X82677506Y-102619819D02*
X82534649Y-102667438D01*
X82534649Y-102667438D02*
X82439411Y-102762676D01*
X82439411Y-102762676D02*
X82391792Y-102857914D01*
X82391792Y-102857914D02*
X82344173Y-103048390D01*
X82344173Y-103048390D02*
X82344173Y-103191247D01*
X82344173Y-103191247D02*
X82391792Y-103381723D01*
X82391792Y-103381723D02*
X82439411Y-103476961D01*
X82439411Y-103476961D02*
X82534649Y-103572200D01*
X82534649Y-103572200D02*
X82677506Y-103619819D01*
X82677506Y-103619819D02*
X82915601Y-103619819D01*
X125937030Y-89119819D02*
X126413220Y-89119819D01*
X126413220Y-89119819D02*
X126413220Y-88119819D01*
X125603696Y-88596009D02*
X125270363Y-88596009D01*
X125127506Y-89119819D02*
X125603696Y-89119819D01*
X125603696Y-89119819D02*
X125603696Y-88119819D01*
X125603696Y-88119819D02*
X125127506Y-88119819D01*
X124698934Y-89119819D02*
X124698934Y-88119819D01*
X124698934Y-88119819D02*
X124460839Y-88119819D01*
X124460839Y-88119819D02*
X124317982Y-88167438D01*
X124317982Y-88167438D02*
X124222744Y-88262676D01*
X124222744Y-88262676D02*
X124175125Y-88357914D01*
X124175125Y-88357914D02*
X124127506Y-88548390D01*
X124127506Y-88548390D02*
X124127506Y-88691247D01*
X124127506Y-88691247D02*
X124175125Y-88881723D01*
X124175125Y-88881723D02*
X124222744Y-88976961D01*
X124222744Y-88976961D02*
X124317982Y-89072200D01*
X124317982Y-89072200D02*
X124460839Y-89119819D01*
X124460839Y-89119819D02*
X124698934Y-89119819D01*
X123698934Y-88738866D02*
X122937030Y-88738866D01*
X146760839Y-60365057D02*
X146713220Y-60317438D01*
X146713220Y-60317438D02*
X146617982Y-60269819D01*
X146617982Y-60269819D02*
X146379887Y-60269819D01*
X146379887Y-60269819D02*
X146284649Y-60317438D01*
X146284649Y-60317438D02*
X146237030Y-60365057D01*
X146237030Y-60365057D02*
X146189411Y-60460295D01*
X146189411Y-60460295D02*
X146189411Y-60555533D01*
X146189411Y-60555533D02*
X146237030Y-60698390D01*
X146237030Y-60698390D02*
X146808458Y-61269819D01*
X146808458Y-61269819D02*
X146189411Y-61269819D01*
X145332268Y-60603152D02*
X145332268Y-61269819D01*
X145570363Y-60222200D02*
X145808458Y-60936485D01*
X145808458Y-60936485D02*
X145189411Y-60936485D01*
X144951315Y-60269819D02*
X144617982Y-61269819D01*
X144617982Y-61269819D02*
X144284649Y-60269819D01*
X142737030Y-72319819D02*
X143213220Y-72319819D01*
X143213220Y-72319819D02*
X143213220Y-71319819D01*
X142403696Y-71796009D02*
X142070363Y-71796009D01*
X141927506Y-72319819D02*
X142403696Y-72319819D01*
X142403696Y-72319819D02*
X142403696Y-71319819D01*
X142403696Y-71319819D02*
X141927506Y-71319819D01*
X141498934Y-72319819D02*
X141498934Y-71319819D01*
X141498934Y-71319819D02*
X141260839Y-71319819D01*
X141260839Y-71319819D02*
X141117982Y-71367438D01*
X141117982Y-71367438D02*
X141022744Y-71462676D01*
X141022744Y-71462676D02*
X140975125Y-71557914D01*
X140975125Y-71557914D02*
X140927506Y-71748390D01*
X140927506Y-71748390D02*
X140927506Y-71891247D01*
X140927506Y-71891247D02*
X140975125Y-72081723D01*
X140975125Y-72081723D02*
X141022744Y-72176961D01*
X141022744Y-72176961D02*
X141117982Y-72272200D01*
X141117982Y-72272200D02*
X141260839Y-72319819D01*
X141260839Y-72319819D02*
X141498934Y-72319819D01*
X140498934Y-71938866D02*
X139737030Y-71938866D01*
X96360839Y-110765057D02*
X96313220Y-110717438D01*
X96313220Y-110717438D02*
X96217982Y-110669819D01*
X96217982Y-110669819D02*
X95979887Y-110669819D01*
X95979887Y-110669819D02*
X95884649Y-110717438D01*
X95884649Y-110717438D02*
X95837030Y-110765057D01*
X95837030Y-110765057D02*
X95789411Y-110860295D01*
X95789411Y-110860295D02*
X95789411Y-110955533D01*
X95789411Y-110955533D02*
X95837030Y-111098390D01*
X95837030Y-111098390D02*
X96408458Y-111669819D01*
X96408458Y-111669819D02*
X95789411Y-111669819D01*
X94932268Y-111003152D02*
X94932268Y-111669819D01*
X95170363Y-110622200D02*
X95408458Y-111336485D01*
X95408458Y-111336485D02*
X94789411Y-111336485D01*
X94551315Y-110669819D02*
X94217982Y-111669819D01*
X94217982Y-111669819D02*
X93884649Y-110669819D01*
X151639411Y-102667438D02*
X151734649Y-102619819D01*
X151734649Y-102619819D02*
X151877506Y-102619819D01*
X151877506Y-102619819D02*
X152020363Y-102667438D01*
X152020363Y-102667438D02*
X152115601Y-102762676D01*
X152115601Y-102762676D02*
X152163220Y-102857914D01*
X152163220Y-102857914D02*
X152210839Y-103048390D01*
X152210839Y-103048390D02*
X152210839Y-103191247D01*
X152210839Y-103191247D02*
X152163220Y-103381723D01*
X152163220Y-103381723D02*
X152115601Y-103476961D01*
X152115601Y-103476961D02*
X152020363Y-103572200D01*
X152020363Y-103572200D02*
X151877506Y-103619819D01*
X151877506Y-103619819D02*
X151782268Y-103619819D01*
X151782268Y-103619819D02*
X151639411Y-103572200D01*
X151639411Y-103572200D02*
X151591792Y-103524580D01*
X151591792Y-103524580D02*
X151591792Y-103191247D01*
X151591792Y-103191247D02*
X151782268Y-103191247D01*
X151163220Y-103619819D02*
X151163220Y-102619819D01*
X151163220Y-102619819D02*
X150591792Y-103619819D01*
X150591792Y-103619819D02*
X150591792Y-102619819D01*
X150115601Y-103619819D02*
X150115601Y-102619819D01*
X150115601Y-102619819D02*
X149877506Y-102619819D01*
X149877506Y-102619819D02*
X149734649Y-102667438D01*
X149734649Y-102667438D02*
X149639411Y-102762676D01*
X149639411Y-102762676D02*
X149591792Y-102857914D01*
X149591792Y-102857914D02*
X149544173Y-103048390D01*
X149544173Y-103048390D02*
X149544173Y-103191247D01*
X149544173Y-103191247D02*
X149591792Y-103381723D01*
X149591792Y-103381723D02*
X149639411Y-103476961D01*
X149639411Y-103476961D02*
X149734649Y-103572200D01*
X149734649Y-103572200D02*
X149877506Y-103619819D01*
X149877506Y-103619819D02*
X150115601Y-103619819D01*
X134839411Y-69067438D02*
X134934649Y-69019819D01*
X134934649Y-69019819D02*
X135077506Y-69019819D01*
X135077506Y-69019819D02*
X135220363Y-69067438D01*
X135220363Y-69067438D02*
X135315601Y-69162676D01*
X135315601Y-69162676D02*
X135363220Y-69257914D01*
X135363220Y-69257914D02*
X135410839Y-69448390D01*
X135410839Y-69448390D02*
X135410839Y-69591247D01*
X135410839Y-69591247D02*
X135363220Y-69781723D01*
X135363220Y-69781723D02*
X135315601Y-69876961D01*
X135315601Y-69876961D02*
X135220363Y-69972200D01*
X135220363Y-69972200D02*
X135077506Y-70019819D01*
X135077506Y-70019819D02*
X134982268Y-70019819D01*
X134982268Y-70019819D02*
X134839411Y-69972200D01*
X134839411Y-69972200D02*
X134791792Y-69924580D01*
X134791792Y-69924580D02*
X134791792Y-69591247D01*
X134791792Y-69591247D02*
X134982268Y-69591247D01*
X134363220Y-70019819D02*
X134363220Y-69019819D01*
X134363220Y-69019819D02*
X133791792Y-70019819D01*
X133791792Y-70019819D02*
X133791792Y-69019819D01*
X133315601Y-70019819D02*
X133315601Y-69019819D01*
X133315601Y-69019819D02*
X133077506Y-69019819D01*
X133077506Y-69019819D02*
X132934649Y-69067438D01*
X132934649Y-69067438D02*
X132839411Y-69162676D01*
X132839411Y-69162676D02*
X132791792Y-69257914D01*
X132791792Y-69257914D02*
X132744173Y-69448390D01*
X132744173Y-69448390D02*
X132744173Y-69591247D01*
X132744173Y-69591247D02*
X132791792Y-69781723D01*
X132791792Y-69781723D02*
X132839411Y-69876961D01*
X132839411Y-69876961D02*
X132934649Y-69972200D01*
X132934649Y-69972200D02*
X133077506Y-70019819D01*
X133077506Y-70019819D02*
X133315601Y-70019819D01*
X128013220Y-135219819D02*
X128013220Y-134219819D01*
X128013220Y-134219819D02*
X127632268Y-134219819D01*
X127632268Y-134219819D02*
X127537030Y-134267438D01*
X127537030Y-134267438D02*
X127489411Y-134315057D01*
X127489411Y-134315057D02*
X127441792Y-134410295D01*
X127441792Y-134410295D02*
X127441792Y-134553152D01*
X127441792Y-134553152D02*
X127489411Y-134648390D01*
X127489411Y-134648390D02*
X127537030Y-134696009D01*
X127537030Y-134696009D02*
X127632268Y-134743628D01*
X127632268Y-134743628D02*
X128013220Y-134743628D01*
X127108458Y-134219819D02*
X126870363Y-135219819D01*
X126870363Y-135219819D02*
X126679887Y-134505533D01*
X126679887Y-134505533D02*
X126489411Y-135219819D01*
X126489411Y-135219819D02*
X126251316Y-134219819D01*
X125870363Y-135219819D02*
X125870363Y-134219819D01*
X125870363Y-134219819D02*
X125537030Y-134934104D01*
X125537030Y-134934104D02*
X125203697Y-134219819D01*
X125203697Y-134219819D02*
X125203697Y-135219819D01*
X79560839Y-93965057D02*
X79513220Y-93917438D01*
X79513220Y-93917438D02*
X79417982Y-93869819D01*
X79417982Y-93869819D02*
X79179887Y-93869819D01*
X79179887Y-93869819D02*
X79084649Y-93917438D01*
X79084649Y-93917438D02*
X79037030Y-93965057D01*
X79037030Y-93965057D02*
X78989411Y-94060295D01*
X78989411Y-94060295D02*
X78989411Y-94155533D01*
X78989411Y-94155533D02*
X79037030Y-94298390D01*
X79037030Y-94298390D02*
X79608458Y-94869819D01*
X79608458Y-94869819D02*
X78989411Y-94869819D01*
X78132268Y-94203152D02*
X78132268Y-94869819D01*
X78370363Y-93822200D02*
X78608458Y-94536485D01*
X78608458Y-94536485D02*
X77989411Y-94536485D01*
X77751315Y-93869819D02*
X77417982Y-94869819D01*
X77417982Y-94869819D02*
X77084649Y-93869819D01*
X146760839Y-127565057D02*
X146713220Y-127517438D01*
X146713220Y-127517438D02*
X146617982Y-127469819D01*
X146617982Y-127469819D02*
X146379887Y-127469819D01*
X146379887Y-127469819D02*
X146284649Y-127517438D01*
X146284649Y-127517438D02*
X146237030Y-127565057D01*
X146237030Y-127565057D02*
X146189411Y-127660295D01*
X146189411Y-127660295D02*
X146189411Y-127755533D01*
X146189411Y-127755533D02*
X146237030Y-127898390D01*
X146237030Y-127898390D02*
X146808458Y-128469819D01*
X146808458Y-128469819D02*
X146189411Y-128469819D01*
X145332268Y-127803152D02*
X145332268Y-128469819D01*
X145570363Y-127422200D02*
X145808458Y-128136485D01*
X145808458Y-128136485D02*
X145189411Y-128136485D01*
X144951315Y-127469819D02*
X144617982Y-128469819D01*
X144617982Y-128469819D02*
X144284649Y-127469819D01*
X118039411Y-85867438D02*
X118134649Y-85819819D01*
X118134649Y-85819819D02*
X118277506Y-85819819D01*
X118277506Y-85819819D02*
X118420363Y-85867438D01*
X118420363Y-85867438D02*
X118515601Y-85962676D01*
X118515601Y-85962676D02*
X118563220Y-86057914D01*
X118563220Y-86057914D02*
X118610839Y-86248390D01*
X118610839Y-86248390D02*
X118610839Y-86391247D01*
X118610839Y-86391247D02*
X118563220Y-86581723D01*
X118563220Y-86581723D02*
X118515601Y-86676961D01*
X118515601Y-86676961D02*
X118420363Y-86772200D01*
X118420363Y-86772200D02*
X118277506Y-86819819D01*
X118277506Y-86819819D02*
X118182268Y-86819819D01*
X118182268Y-86819819D02*
X118039411Y-86772200D01*
X118039411Y-86772200D02*
X117991792Y-86724580D01*
X117991792Y-86724580D02*
X117991792Y-86391247D01*
X117991792Y-86391247D02*
X118182268Y-86391247D01*
X117563220Y-86819819D02*
X117563220Y-85819819D01*
X117563220Y-85819819D02*
X116991792Y-86819819D01*
X116991792Y-86819819D02*
X116991792Y-85819819D01*
X116515601Y-86819819D02*
X116515601Y-85819819D01*
X116515601Y-85819819D02*
X116277506Y-85819819D01*
X116277506Y-85819819D02*
X116134649Y-85867438D01*
X116134649Y-85867438D02*
X116039411Y-85962676D01*
X116039411Y-85962676D02*
X115991792Y-86057914D01*
X115991792Y-86057914D02*
X115944173Y-86248390D01*
X115944173Y-86248390D02*
X115944173Y-86391247D01*
X115944173Y-86391247D02*
X115991792Y-86581723D01*
X115991792Y-86581723D02*
X116039411Y-86676961D01*
X116039411Y-86676961D02*
X116134649Y-86772200D01*
X116134649Y-86772200D02*
X116277506Y-86819819D01*
X116277506Y-86819819D02*
X116515601Y-86819819D01*
X75537030Y-89119819D02*
X76013220Y-89119819D01*
X76013220Y-89119819D02*
X76013220Y-88119819D01*
X75203696Y-88596009D02*
X74870363Y-88596009D01*
X74727506Y-89119819D02*
X75203696Y-89119819D01*
X75203696Y-89119819D02*
X75203696Y-88119819D01*
X75203696Y-88119819D02*
X74727506Y-88119819D01*
X74298934Y-89119819D02*
X74298934Y-88119819D01*
X74298934Y-88119819D02*
X74060839Y-88119819D01*
X74060839Y-88119819D02*
X73917982Y-88167438D01*
X73917982Y-88167438D02*
X73822744Y-88262676D01*
X73822744Y-88262676D02*
X73775125Y-88357914D01*
X73775125Y-88357914D02*
X73727506Y-88548390D01*
X73727506Y-88548390D02*
X73727506Y-88691247D01*
X73727506Y-88691247D02*
X73775125Y-88881723D01*
X73775125Y-88881723D02*
X73822744Y-88976961D01*
X73822744Y-88976961D02*
X73917982Y-89072200D01*
X73917982Y-89072200D02*
X74060839Y-89119819D01*
X74060839Y-89119819D02*
X74298934Y-89119819D01*
X73298934Y-88738866D02*
X72537030Y-88738866D01*
X98162969Y-90030180D02*
X97686779Y-90030180D01*
X97686779Y-90030180D02*
X97686779Y-91030180D01*
X98496303Y-90553990D02*
X98829636Y-90553990D01*
X98972493Y-90030180D02*
X98496303Y-90030180D01*
X98496303Y-90030180D02*
X98496303Y-91030180D01*
X98496303Y-91030180D02*
X98972493Y-91030180D01*
X99401065Y-90030180D02*
X99401065Y-91030180D01*
X99401065Y-91030180D02*
X99639160Y-91030180D01*
X99639160Y-91030180D02*
X99782017Y-90982561D01*
X99782017Y-90982561D02*
X99877255Y-90887323D01*
X99877255Y-90887323D02*
X99924874Y-90792085D01*
X99924874Y-90792085D02*
X99972493Y-90601609D01*
X99972493Y-90601609D02*
X99972493Y-90458752D01*
X99972493Y-90458752D02*
X99924874Y-90268276D01*
X99924874Y-90268276D02*
X99877255Y-90173038D01*
X99877255Y-90173038D02*
X99782017Y-90077800D01*
X99782017Y-90077800D02*
X99639160Y-90030180D01*
X99639160Y-90030180D02*
X99401065Y-90030180D01*
X100401065Y-90411133D02*
X101162970Y-90411133D01*
X100782017Y-90030180D02*
X100782017Y-90792085D01*
X77613220Y-84819819D02*
X77613220Y-83819819D01*
X77613220Y-83819819D02*
X77232268Y-83819819D01*
X77232268Y-83819819D02*
X77137030Y-83867438D01*
X77137030Y-83867438D02*
X77089411Y-83915057D01*
X77089411Y-83915057D02*
X77041792Y-84010295D01*
X77041792Y-84010295D02*
X77041792Y-84153152D01*
X77041792Y-84153152D02*
X77089411Y-84248390D01*
X77089411Y-84248390D02*
X77137030Y-84296009D01*
X77137030Y-84296009D02*
X77232268Y-84343628D01*
X77232268Y-84343628D02*
X77613220Y-84343628D01*
X76708458Y-83819819D02*
X76470363Y-84819819D01*
X76470363Y-84819819D02*
X76279887Y-84105533D01*
X76279887Y-84105533D02*
X76089411Y-84819819D01*
X76089411Y-84819819D02*
X75851316Y-83819819D01*
X75470363Y-84819819D02*
X75470363Y-83819819D01*
X75470363Y-83819819D02*
X75137030Y-84534104D01*
X75137030Y-84534104D02*
X74803697Y-83819819D01*
X74803697Y-83819819D02*
X74803697Y-84819819D01*
X125937030Y-72319819D02*
X126413220Y-72319819D01*
X126413220Y-72319819D02*
X126413220Y-71319819D01*
X125603696Y-71796009D02*
X125270363Y-71796009D01*
X125127506Y-72319819D02*
X125603696Y-72319819D01*
X125603696Y-72319819D02*
X125603696Y-71319819D01*
X125603696Y-71319819D02*
X125127506Y-71319819D01*
X124698934Y-72319819D02*
X124698934Y-71319819D01*
X124698934Y-71319819D02*
X124460839Y-71319819D01*
X124460839Y-71319819D02*
X124317982Y-71367438D01*
X124317982Y-71367438D02*
X124222744Y-71462676D01*
X124222744Y-71462676D02*
X124175125Y-71557914D01*
X124175125Y-71557914D02*
X124127506Y-71748390D01*
X124127506Y-71748390D02*
X124127506Y-71891247D01*
X124127506Y-71891247D02*
X124175125Y-72081723D01*
X124175125Y-72081723D02*
X124222744Y-72176961D01*
X124222744Y-72176961D02*
X124317982Y-72272200D01*
X124317982Y-72272200D02*
X124460839Y-72319819D01*
X124460839Y-72319819D02*
X124698934Y-72319819D01*
X123698934Y-71938866D02*
X122937030Y-71938866D01*
X98162969Y-106830180D02*
X97686779Y-106830180D01*
X97686779Y-106830180D02*
X97686779Y-107830180D01*
X98496303Y-107353990D02*
X98829636Y-107353990D01*
X98972493Y-106830180D02*
X98496303Y-106830180D01*
X98496303Y-106830180D02*
X98496303Y-107830180D01*
X98496303Y-107830180D02*
X98972493Y-107830180D01*
X99401065Y-106830180D02*
X99401065Y-107830180D01*
X99401065Y-107830180D02*
X99639160Y-107830180D01*
X99639160Y-107830180D02*
X99782017Y-107782561D01*
X99782017Y-107782561D02*
X99877255Y-107687323D01*
X99877255Y-107687323D02*
X99924874Y-107592085D01*
X99924874Y-107592085D02*
X99972493Y-107401609D01*
X99972493Y-107401609D02*
X99972493Y-107258752D01*
X99972493Y-107258752D02*
X99924874Y-107068276D01*
X99924874Y-107068276D02*
X99877255Y-106973038D01*
X99877255Y-106973038D02*
X99782017Y-106877800D01*
X99782017Y-106877800D02*
X99639160Y-106830180D01*
X99639160Y-106830180D02*
X99401065Y-106830180D01*
X100401065Y-107211133D02*
X101162970Y-107211133D01*
X100782017Y-106830180D02*
X100782017Y-107592085D01*
X142737030Y-122719819D02*
X143213220Y-122719819D01*
X143213220Y-122719819D02*
X143213220Y-121719819D01*
X142403696Y-122196009D02*
X142070363Y-122196009D01*
X141927506Y-122719819D02*
X142403696Y-122719819D01*
X142403696Y-122719819D02*
X142403696Y-121719819D01*
X142403696Y-121719819D02*
X141927506Y-121719819D01*
X141498934Y-122719819D02*
X141498934Y-121719819D01*
X141498934Y-121719819D02*
X141260839Y-121719819D01*
X141260839Y-121719819D02*
X141117982Y-121767438D01*
X141117982Y-121767438D02*
X141022744Y-121862676D01*
X141022744Y-121862676D02*
X140975125Y-121957914D01*
X140975125Y-121957914D02*
X140927506Y-122148390D01*
X140927506Y-122148390D02*
X140927506Y-122291247D01*
X140927506Y-122291247D02*
X140975125Y-122481723D01*
X140975125Y-122481723D02*
X141022744Y-122576961D01*
X141022744Y-122576961D02*
X141117982Y-122672200D01*
X141117982Y-122672200D02*
X141260839Y-122719819D01*
X141260839Y-122719819D02*
X141498934Y-122719819D01*
X140498934Y-122338866D02*
X139737030Y-122338866D01*
X146760839Y-77165057D02*
X146713220Y-77117438D01*
X146713220Y-77117438D02*
X146617982Y-77069819D01*
X146617982Y-77069819D02*
X146379887Y-77069819D01*
X146379887Y-77069819D02*
X146284649Y-77117438D01*
X146284649Y-77117438D02*
X146237030Y-77165057D01*
X146237030Y-77165057D02*
X146189411Y-77260295D01*
X146189411Y-77260295D02*
X146189411Y-77355533D01*
X146189411Y-77355533D02*
X146237030Y-77498390D01*
X146237030Y-77498390D02*
X146808458Y-78069819D01*
X146808458Y-78069819D02*
X146189411Y-78069819D01*
X145332268Y-77403152D02*
X145332268Y-78069819D01*
X145570363Y-77022200D02*
X145808458Y-77736485D01*
X145808458Y-77736485D02*
X145189411Y-77736485D01*
X144951315Y-77069819D02*
X144617982Y-78069819D01*
X144617982Y-78069819D02*
X144284649Y-77069819D01*
X101239411Y-102667438D02*
X101334649Y-102619819D01*
X101334649Y-102619819D02*
X101477506Y-102619819D01*
X101477506Y-102619819D02*
X101620363Y-102667438D01*
X101620363Y-102667438D02*
X101715601Y-102762676D01*
X101715601Y-102762676D02*
X101763220Y-102857914D01*
X101763220Y-102857914D02*
X101810839Y-103048390D01*
X101810839Y-103048390D02*
X101810839Y-103191247D01*
X101810839Y-103191247D02*
X101763220Y-103381723D01*
X101763220Y-103381723D02*
X101715601Y-103476961D01*
X101715601Y-103476961D02*
X101620363Y-103572200D01*
X101620363Y-103572200D02*
X101477506Y-103619819D01*
X101477506Y-103619819D02*
X101382268Y-103619819D01*
X101382268Y-103619819D02*
X101239411Y-103572200D01*
X101239411Y-103572200D02*
X101191792Y-103524580D01*
X101191792Y-103524580D02*
X101191792Y-103191247D01*
X101191792Y-103191247D02*
X101382268Y-103191247D01*
X100763220Y-103619819D02*
X100763220Y-102619819D01*
X100763220Y-102619819D02*
X100191792Y-103619819D01*
X100191792Y-103619819D02*
X100191792Y-102619819D01*
X99715601Y-103619819D02*
X99715601Y-102619819D01*
X99715601Y-102619819D02*
X99477506Y-102619819D01*
X99477506Y-102619819D02*
X99334649Y-102667438D01*
X99334649Y-102667438D02*
X99239411Y-102762676D01*
X99239411Y-102762676D02*
X99191792Y-102857914D01*
X99191792Y-102857914D02*
X99144173Y-103048390D01*
X99144173Y-103048390D02*
X99144173Y-103191247D01*
X99144173Y-103191247D02*
X99191792Y-103381723D01*
X99191792Y-103381723D02*
X99239411Y-103476961D01*
X99239411Y-103476961D02*
X99334649Y-103572200D01*
X99334649Y-103572200D02*
X99477506Y-103619819D01*
X99477506Y-103619819D02*
X99715601Y-103619819D01*
X142737030Y-105919819D02*
X143213220Y-105919819D01*
X143213220Y-105919819D02*
X143213220Y-104919819D01*
X142403696Y-105396009D02*
X142070363Y-105396009D01*
X141927506Y-105919819D02*
X142403696Y-105919819D01*
X142403696Y-105919819D02*
X142403696Y-104919819D01*
X142403696Y-104919819D02*
X141927506Y-104919819D01*
X141498934Y-105919819D02*
X141498934Y-104919819D01*
X141498934Y-104919819D02*
X141260839Y-104919819D01*
X141260839Y-104919819D02*
X141117982Y-104967438D01*
X141117982Y-104967438D02*
X141022744Y-105062676D01*
X141022744Y-105062676D02*
X140975125Y-105157914D01*
X140975125Y-105157914D02*
X140927506Y-105348390D01*
X140927506Y-105348390D02*
X140927506Y-105491247D01*
X140927506Y-105491247D02*
X140975125Y-105681723D01*
X140975125Y-105681723D02*
X141022744Y-105776961D01*
X141022744Y-105776961D02*
X141117982Y-105872200D01*
X141117982Y-105872200D02*
X141260839Y-105919819D01*
X141260839Y-105919819D02*
X141498934Y-105919819D01*
X140498934Y-105538866D02*
X139737030Y-105538866D01*
X144813220Y-68019819D02*
X144813220Y-67019819D01*
X144813220Y-67019819D02*
X144432268Y-67019819D01*
X144432268Y-67019819D02*
X144337030Y-67067438D01*
X144337030Y-67067438D02*
X144289411Y-67115057D01*
X144289411Y-67115057D02*
X144241792Y-67210295D01*
X144241792Y-67210295D02*
X144241792Y-67353152D01*
X144241792Y-67353152D02*
X144289411Y-67448390D01*
X144289411Y-67448390D02*
X144337030Y-67496009D01*
X144337030Y-67496009D02*
X144432268Y-67543628D01*
X144432268Y-67543628D02*
X144813220Y-67543628D01*
X143908458Y-67019819D02*
X143670363Y-68019819D01*
X143670363Y-68019819D02*
X143479887Y-67305533D01*
X143479887Y-67305533D02*
X143289411Y-68019819D01*
X143289411Y-68019819D02*
X143051316Y-67019819D01*
X142670363Y-68019819D02*
X142670363Y-67019819D01*
X142670363Y-67019819D02*
X142337030Y-67734104D01*
X142337030Y-67734104D02*
X142003697Y-67019819D01*
X142003697Y-67019819D02*
X142003697Y-68019819D01*
X75537030Y-122719819D02*
X76013220Y-122719819D01*
X76013220Y-122719819D02*
X76013220Y-121719819D01*
X75203696Y-122196009D02*
X74870363Y-122196009D01*
X74727506Y-122719819D02*
X75203696Y-122719819D01*
X75203696Y-122719819D02*
X75203696Y-121719819D01*
X75203696Y-121719819D02*
X74727506Y-121719819D01*
X74298934Y-122719819D02*
X74298934Y-121719819D01*
X74298934Y-121719819D02*
X74060839Y-121719819D01*
X74060839Y-121719819D02*
X73917982Y-121767438D01*
X73917982Y-121767438D02*
X73822744Y-121862676D01*
X73822744Y-121862676D02*
X73775125Y-121957914D01*
X73775125Y-121957914D02*
X73727506Y-122148390D01*
X73727506Y-122148390D02*
X73727506Y-122291247D01*
X73727506Y-122291247D02*
X73775125Y-122481723D01*
X73775125Y-122481723D02*
X73822744Y-122576961D01*
X73822744Y-122576961D02*
X73917982Y-122672200D01*
X73917982Y-122672200D02*
X74060839Y-122719819D01*
X74060839Y-122719819D02*
X74298934Y-122719819D01*
X73298934Y-122338866D02*
X72537030Y-122338866D01*
X148562969Y-106830180D02*
X148086779Y-106830180D01*
X148086779Y-106830180D02*
X148086779Y-107830180D01*
X148896303Y-107353990D02*
X149229636Y-107353990D01*
X149372493Y-106830180D02*
X148896303Y-106830180D01*
X148896303Y-106830180D02*
X148896303Y-107830180D01*
X148896303Y-107830180D02*
X149372493Y-107830180D01*
X149801065Y-106830180D02*
X149801065Y-107830180D01*
X149801065Y-107830180D02*
X150039160Y-107830180D01*
X150039160Y-107830180D02*
X150182017Y-107782561D01*
X150182017Y-107782561D02*
X150277255Y-107687323D01*
X150277255Y-107687323D02*
X150324874Y-107592085D01*
X150324874Y-107592085D02*
X150372493Y-107401609D01*
X150372493Y-107401609D02*
X150372493Y-107258752D01*
X150372493Y-107258752D02*
X150324874Y-107068276D01*
X150324874Y-107068276D02*
X150277255Y-106973038D01*
X150277255Y-106973038D02*
X150182017Y-106877800D01*
X150182017Y-106877800D02*
X150039160Y-106830180D01*
X150039160Y-106830180D02*
X149801065Y-106830180D01*
X150801065Y-107211133D02*
X151562970Y-107211133D01*
X151182017Y-106830180D02*
X151182017Y-107592085D01*
X146760839Y-93965057D02*
X146713220Y-93917438D01*
X146713220Y-93917438D02*
X146617982Y-93869819D01*
X146617982Y-93869819D02*
X146379887Y-93869819D01*
X146379887Y-93869819D02*
X146284649Y-93917438D01*
X146284649Y-93917438D02*
X146237030Y-93965057D01*
X146237030Y-93965057D02*
X146189411Y-94060295D01*
X146189411Y-94060295D02*
X146189411Y-94155533D01*
X146189411Y-94155533D02*
X146237030Y-94298390D01*
X146237030Y-94298390D02*
X146808458Y-94869819D01*
X146808458Y-94869819D02*
X146189411Y-94869819D01*
X145332268Y-94203152D02*
X145332268Y-94869819D01*
X145570363Y-93822200D02*
X145808458Y-94536485D01*
X145808458Y-94536485D02*
X145189411Y-94536485D01*
X144951315Y-93869819D02*
X144617982Y-94869819D01*
X144617982Y-94869819D02*
X144284649Y-93869819D01*
X131762969Y-123630180D02*
X131286779Y-123630180D01*
X131286779Y-123630180D02*
X131286779Y-124630180D01*
X132096303Y-124153990D02*
X132429636Y-124153990D01*
X132572493Y-123630180D02*
X132096303Y-123630180D01*
X132096303Y-123630180D02*
X132096303Y-124630180D01*
X132096303Y-124630180D02*
X132572493Y-124630180D01*
X133001065Y-123630180D02*
X133001065Y-124630180D01*
X133001065Y-124630180D02*
X133239160Y-124630180D01*
X133239160Y-124630180D02*
X133382017Y-124582561D01*
X133382017Y-124582561D02*
X133477255Y-124487323D01*
X133477255Y-124487323D02*
X133524874Y-124392085D01*
X133524874Y-124392085D02*
X133572493Y-124201609D01*
X133572493Y-124201609D02*
X133572493Y-124058752D01*
X133572493Y-124058752D02*
X133524874Y-123868276D01*
X133524874Y-123868276D02*
X133477255Y-123773038D01*
X133477255Y-123773038D02*
X133382017Y-123677800D01*
X133382017Y-123677800D02*
X133239160Y-123630180D01*
X133239160Y-123630180D02*
X133001065Y-123630180D01*
X134001065Y-124011133D02*
X134762970Y-124011133D01*
X134382017Y-123630180D02*
X134382017Y-124392085D01*
X77613220Y-135219819D02*
X77613220Y-134219819D01*
X77613220Y-134219819D02*
X77232268Y-134219819D01*
X77232268Y-134219819D02*
X77137030Y-134267438D01*
X77137030Y-134267438D02*
X77089411Y-134315057D01*
X77089411Y-134315057D02*
X77041792Y-134410295D01*
X77041792Y-134410295D02*
X77041792Y-134553152D01*
X77041792Y-134553152D02*
X77089411Y-134648390D01*
X77089411Y-134648390D02*
X77137030Y-134696009D01*
X77137030Y-134696009D02*
X77232268Y-134743628D01*
X77232268Y-134743628D02*
X77613220Y-134743628D01*
X76708458Y-134219819D02*
X76470363Y-135219819D01*
X76470363Y-135219819D02*
X76279887Y-134505533D01*
X76279887Y-134505533D02*
X76089411Y-135219819D01*
X76089411Y-135219819D02*
X75851316Y-134219819D01*
X75470363Y-135219819D02*
X75470363Y-134219819D01*
X75470363Y-134219819D02*
X75137030Y-134934104D01*
X75137030Y-134934104D02*
X74803697Y-134219819D01*
X74803697Y-134219819D02*
X74803697Y-135219819D01*
X118039411Y-102667438D02*
X118134649Y-102619819D01*
X118134649Y-102619819D02*
X118277506Y-102619819D01*
X118277506Y-102619819D02*
X118420363Y-102667438D01*
X118420363Y-102667438D02*
X118515601Y-102762676D01*
X118515601Y-102762676D02*
X118563220Y-102857914D01*
X118563220Y-102857914D02*
X118610839Y-103048390D01*
X118610839Y-103048390D02*
X118610839Y-103191247D01*
X118610839Y-103191247D02*
X118563220Y-103381723D01*
X118563220Y-103381723D02*
X118515601Y-103476961D01*
X118515601Y-103476961D02*
X118420363Y-103572200D01*
X118420363Y-103572200D02*
X118277506Y-103619819D01*
X118277506Y-103619819D02*
X118182268Y-103619819D01*
X118182268Y-103619819D02*
X118039411Y-103572200D01*
X118039411Y-103572200D02*
X117991792Y-103524580D01*
X117991792Y-103524580D02*
X117991792Y-103191247D01*
X117991792Y-103191247D02*
X118182268Y-103191247D01*
X117563220Y-103619819D02*
X117563220Y-102619819D01*
X117563220Y-102619819D02*
X116991792Y-103619819D01*
X116991792Y-103619819D02*
X116991792Y-102619819D01*
X116515601Y-103619819D02*
X116515601Y-102619819D01*
X116515601Y-102619819D02*
X116277506Y-102619819D01*
X116277506Y-102619819D02*
X116134649Y-102667438D01*
X116134649Y-102667438D02*
X116039411Y-102762676D01*
X116039411Y-102762676D02*
X115991792Y-102857914D01*
X115991792Y-102857914D02*
X115944173Y-103048390D01*
X115944173Y-103048390D02*
X115944173Y-103191247D01*
X115944173Y-103191247D02*
X115991792Y-103381723D01*
X115991792Y-103381723D02*
X116039411Y-103476961D01*
X116039411Y-103476961D02*
X116134649Y-103572200D01*
X116134649Y-103572200D02*
X116277506Y-103619819D01*
X116277506Y-103619819D02*
X116515601Y-103619819D01*
X129960839Y-60365057D02*
X129913220Y-60317438D01*
X129913220Y-60317438D02*
X129817982Y-60269819D01*
X129817982Y-60269819D02*
X129579887Y-60269819D01*
X129579887Y-60269819D02*
X129484649Y-60317438D01*
X129484649Y-60317438D02*
X129437030Y-60365057D01*
X129437030Y-60365057D02*
X129389411Y-60460295D01*
X129389411Y-60460295D02*
X129389411Y-60555533D01*
X129389411Y-60555533D02*
X129437030Y-60698390D01*
X129437030Y-60698390D02*
X130008458Y-61269819D01*
X130008458Y-61269819D02*
X129389411Y-61269819D01*
X128532268Y-60603152D02*
X128532268Y-61269819D01*
X128770363Y-60222200D02*
X129008458Y-60936485D01*
X129008458Y-60936485D02*
X128389411Y-60936485D01*
X128151315Y-60269819D02*
X127817982Y-61269819D01*
X127817982Y-61269819D02*
X127484649Y-60269819D01*
X96360839Y-77165057D02*
X96313220Y-77117438D01*
X96313220Y-77117438D02*
X96217982Y-77069819D01*
X96217982Y-77069819D02*
X95979887Y-77069819D01*
X95979887Y-77069819D02*
X95884649Y-77117438D01*
X95884649Y-77117438D02*
X95837030Y-77165057D01*
X95837030Y-77165057D02*
X95789411Y-77260295D01*
X95789411Y-77260295D02*
X95789411Y-77355533D01*
X95789411Y-77355533D02*
X95837030Y-77498390D01*
X95837030Y-77498390D02*
X96408458Y-78069819D01*
X96408458Y-78069819D02*
X95789411Y-78069819D01*
X94932268Y-77403152D02*
X94932268Y-78069819D01*
X95170363Y-77022200D02*
X95408458Y-77736485D01*
X95408458Y-77736485D02*
X94789411Y-77736485D01*
X94551315Y-77069819D02*
X94217982Y-78069819D01*
X94217982Y-78069819D02*
X93884649Y-77069819D01*
X92337030Y-72319819D02*
X92813220Y-72319819D01*
X92813220Y-72319819D02*
X92813220Y-71319819D01*
X92003696Y-71796009D02*
X91670363Y-71796009D01*
X91527506Y-72319819D02*
X92003696Y-72319819D01*
X92003696Y-72319819D02*
X92003696Y-71319819D01*
X92003696Y-71319819D02*
X91527506Y-71319819D01*
X91098934Y-72319819D02*
X91098934Y-71319819D01*
X91098934Y-71319819D02*
X90860839Y-71319819D01*
X90860839Y-71319819D02*
X90717982Y-71367438D01*
X90717982Y-71367438D02*
X90622744Y-71462676D01*
X90622744Y-71462676D02*
X90575125Y-71557914D01*
X90575125Y-71557914D02*
X90527506Y-71748390D01*
X90527506Y-71748390D02*
X90527506Y-71891247D01*
X90527506Y-71891247D02*
X90575125Y-72081723D01*
X90575125Y-72081723D02*
X90622744Y-72176961D01*
X90622744Y-72176961D02*
X90717982Y-72272200D01*
X90717982Y-72272200D02*
X90860839Y-72319819D01*
X90860839Y-72319819D02*
X91098934Y-72319819D01*
X90098934Y-71938866D02*
X89337030Y-71938866D01*
X131762969Y-56430180D02*
X131286779Y-56430180D01*
X131286779Y-56430180D02*
X131286779Y-57430180D01*
X132096303Y-56953990D02*
X132429636Y-56953990D01*
X132572493Y-56430180D02*
X132096303Y-56430180D01*
X132096303Y-56430180D02*
X132096303Y-57430180D01*
X132096303Y-57430180D02*
X132572493Y-57430180D01*
X133001065Y-56430180D02*
X133001065Y-57430180D01*
X133001065Y-57430180D02*
X133239160Y-57430180D01*
X133239160Y-57430180D02*
X133382017Y-57382561D01*
X133382017Y-57382561D02*
X133477255Y-57287323D01*
X133477255Y-57287323D02*
X133524874Y-57192085D01*
X133524874Y-57192085D02*
X133572493Y-57001609D01*
X133572493Y-57001609D02*
X133572493Y-56858752D01*
X133572493Y-56858752D02*
X133524874Y-56668276D01*
X133524874Y-56668276D02*
X133477255Y-56573038D01*
X133477255Y-56573038D02*
X133382017Y-56477800D01*
X133382017Y-56477800D02*
X133239160Y-56430180D01*
X133239160Y-56430180D02*
X133001065Y-56430180D01*
X134001065Y-56811133D02*
X134762970Y-56811133D01*
X134382017Y-56430180D02*
X134382017Y-57192085D01*
X79560839Y-110765057D02*
X79513220Y-110717438D01*
X79513220Y-110717438D02*
X79417982Y-110669819D01*
X79417982Y-110669819D02*
X79179887Y-110669819D01*
X79179887Y-110669819D02*
X79084649Y-110717438D01*
X79084649Y-110717438D02*
X79037030Y-110765057D01*
X79037030Y-110765057D02*
X78989411Y-110860295D01*
X78989411Y-110860295D02*
X78989411Y-110955533D01*
X78989411Y-110955533D02*
X79037030Y-111098390D01*
X79037030Y-111098390D02*
X79608458Y-111669819D01*
X79608458Y-111669819D02*
X78989411Y-111669819D01*
X78132268Y-111003152D02*
X78132268Y-111669819D01*
X78370363Y-110622200D02*
X78608458Y-111336485D01*
X78608458Y-111336485D02*
X77989411Y-111336485D01*
X77751315Y-110669819D02*
X77417982Y-111669819D01*
X77417982Y-111669819D02*
X77084649Y-110669819D01*
X134839411Y-102667438D02*
X134934649Y-102619819D01*
X134934649Y-102619819D02*
X135077506Y-102619819D01*
X135077506Y-102619819D02*
X135220363Y-102667438D01*
X135220363Y-102667438D02*
X135315601Y-102762676D01*
X135315601Y-102762676D02*
X135363220Y-102857914D01*
X135363220Y-102857914D02*
X135410839Y-103048390D01*
X135410839Y-103048390D02*
X135410839Y-103191247D01*
X135410839Y-103191247D02*
X135363220Y-103381723D01*
X135363220Y-103381723D02*
X135315601Y-103476961D01*
X135315601Y-103476961D02*
X135220363Y-103572200D01*
X135220363Y-103572200D02*
X135077506Y-103619819D01*
X135077506Y-103619819D02*
X134982268Y-103619819D01*
X134982268Y-103619819D02*
X134839411Y-103572200D01*
X134839411Y-103572200D02*
X134791792Y-103524580D01*
X134791792Y-103524580D02*
X134791792Y-103191247D01*
X134791792Y-103191247D02*
X134982268Y-103191247D01*
X134363220Y-103619819D02*
X134363220Y-102619819D01*
X134363220Y-102619819D02*
X133791792Y-103619819D01*
X133791792Y-103619819D02*
X133791792Y-102619819D01*
X133315601Y-103619819D02*
X133315601Y-102619819D01*
X133315601Y-102619819D02*
X133077506Y-102619819D01*
X133077506Y-102619819D02*
X132934649Y-102667438D01*
X132934649Y-102667438D02*
X132839411Y-102762676D01*
X132839411Y-102762676D02*
X132791792Y-102857914D01*
X132791792Y-102857914D02*
X132744173Y-103048390D01*
X132744173Y-103048390D02*
X132744173Y-103191247D01*
X132744173Y-103191247D02*
X132791792Y-103381723D01*
X132791792Y-103381723D02*
X132839411Y-103476961D01*
X132839411Y-103476961D02*
X132934649Y-103572200D01*
X132934649Y-103572200D02*
X133077506Y-103619819D01*
X133077506Y-103619819D02*
X133315601Y-103619819D01*
X79560839Y-127565057D02*
X79513220Y-127517438D01*
X79513220Y-127517438D02*
X79417982Y-127469819D01*
X79417982Y-127469819D02*
X79179887Y-127469819D01*
X79179887Y-127469819D02*
X79084649Y-127517438D01*
X79084649Y-127517438D02*
X79037030Y-127565057D01*
X79037030Y-127565057D02*
X78989411Y-127660295D01*
X78989411Y-127660295D02*
X78989411Y-127755533D01*
X78989411Y-127755533D02*
X79037030Y-127898390D01*
X79037030Y-127898390D02*
X79608458Y-128469819D01*
X79608458Y-128469819D02*
X78989411Y-128469819D01*
X78132268Y-127803152D02*
X78132268Y-128469819D01*
X78370363Y-127422200D02*
X78608458Y-128136485D01*
X78608458Y-128136485D02*
X77989411Y-128136485D01*
X77751315Y-127469819D02*
X77417982Y-128469819D01*
X77417982Y-128469819D02*
X77084649Y-127469819D01*
X111213220Y-68019819D02*
X111213220Y-67019819D01*
X111213220Y-67019819D02*
X110832268Y-67019819D01*
X110832268Y-67019819D02*
X110737030Y-67067438D01*
X110737030Y-67067438D02*
X110689411Y-67115057D01*
X110689411Y-67115057D02*
X110641792Y-67210295D01*
X110641792Y-67210295D02*
X110641792Y-67353152D01*
X110641792Y-67353152D02*
X110689411Y-67448390D01*
X110689411Y-67448390D02*
X110737030Y-67496009D01*
X110737030Y-67496009D02*
X110832268Y-67543628D01*
X110832268Y-67543628D02*
X111213220Y-67543628D01*
X110308458Y-67019819D02*
X110070363Y-68019819D01*
X110070363Y-68019819D02*
X109879887Y-67305533D01*
X109879887Y-67305533D02*
X109689411Y-68019819D01*
X109689411Y-68019819D02*
X109451316Y-67019819D01*
X109070363Y-68019819D02*
X109070363Y-67019819D01*
X109070363Y-67019819D02*
X108737030Y-67734104D01*
X108737030Y-67734104D02*
X108403697Y-67019819D01*
X108403697Y-67019819D02*
X108403697Y-68019819D01*
X129960839Y-127565057D02*
X129913220Y-127517438D01*
X129913220Y-127517438D02*
X129817982Y-127469819D01*
X129817982Y-127469819D02*
X129579887Y-127469819D01*
X129579887Y-127469819D02*
X129484649Y-127517438D01*
X129484649Y-127517438D02*
X129437030Y-127565057D01*
X129437030Y-127565057D02*
X129389411Y-127660295D01*
X129389411Y-127660295D02*
X129389411Y-127755533D01*
X129389411Y-127755533D02*
X129437030Y-127898390D01*
X129437030Y-127898390D02*
X130008458Y-128469819D01*
X130008458Y-128469819D02*
X129389411Y-128469819D01*
X128532268Y-127803152D02*
X128532268Y-128469819D01*
X128770363Y-127422200D02*
X129008458Y-128136485D01*
X129008458Y-128136485D02*
X128389411Y-128136485D01*
X128151315Y-127469819D02*
X127817982Y-128469819D01*
X127817982Y-128469819D02*
X127484649Y-127469819D01*
X94413220Y-68019819D02*
X94413220Y-67019819D01*
X94413220Y-67019819D02*
X94032268Y-67019819D01*
X94032268Y-67019819D02*
X93937030Y-67067438D01*
X93937030Y-67067438D02*
X93889411Y-67115057D01*
X93889411Y-67115057D02*
X93841792Y-67210295D01*
X93841792Y-67210295D02*
X93841792Y-67353152D01*
X93841792Y-67353152D02*
X93889411Y-67448390D01*
X93889411Y-67448390D02*
X93937030Y-67496009D01*
X93937030Y-67496009D02*
X94032268Y-67543628D01*
X94032268Y-67543628D02*
X94413220Y-67543628D01*
X93508458Y-67019819D02*
X93270363Y-68019819D01*
X93270363Y-68019819D02*
X93079887Y-67305533D01*
X93079887Y-67305533D02*
X92889411Y-68019819D01*
X92889411Y-68019819D02*
X92651316Y-67019819D01*
X92270363Y-68019819D02*
X92270363Y-67019819D01*
X92270363Y-67019819D02*
X91937030Y-67734104D01*
X91937030Y-67734104D02*
X91603697Y-67019819D01*
X91603697Y-67019819D02*
X91603697Y-68019819D01*
X113160839Y-77165057D02*
X113113220Y-77117438D01*
X113113220Y-77117438D02*
X113017982Y-77069819D01*
X113017982Y-77069819D02*
X112779887Y-77069819D01*
X112779887Y-77069819D02*
X112684649Y-77117438D01*
X112684649Y-77117438D02*
X112637030Y-77165057D01*
X112637030Y-77165057D02*
X112589411Y-77260295D01*
X112589411Y-77260295D02*
X112589411Y-77355533D01*
X112589411Y-77355533D02*
X112637030Y-77498390D01*
X112637030Y-77498390D02*
X113208458Y-78069819D01*
X113208458Y-78069819D02*
X112589411Y-78069819D01*
X111732268Y-77403152D02*
X111732268Y-78069819D01*
X111970363Y-77022200D02*
X112208458Y-77736485D01*
X112208458Y-77736485D02*
X111589411Y-77736485D01*
X111351315Y-77069819D02*
X111017982Y-78069819D01*
X111017982Y-78069819D02*
X110684649Y-77069819D01*
X134839411Y-136267438D02*
X134934649Y-136219819D01*
X134934649Y-136219819D02*
X135077506Y-136219819D01*
X135077506Y-136219819D02*
X135220363Y-136267438D01*
X135220363Y-136267438D02*
X135315601Y-136362676D01*
X135315601Y-136362676D02*
X135363220Y-136457914D01*
X135363220Y-136457914D02*
X135410839Y-136648390D01*
X135410839Y-136648390D02*
X135410839Y-136791247D01*
X135410839Y-136791247D02*
X135363220Y-136981723D01*
X135363220Y-136981723D02*
X135315601Y-137076961D01*
X135315601Y-137076961D02*
X135220363Y-137172200D01*
X135220363Y-137172200D02*
X135077506Y-137219819D01*
X135077506Y-137219819D02*
X134982268Y-137219819D01*
X134982268Y-137219819D02*
X134839411Y-137172200D01*
X134839411Y-137172200D02*
X134791792Y-137124580D01*
X134791792Y-137124580D02*
X134791792Y-136791247D01*
X134791792Y-136791247D02*
X134982268Y-136791247D01*
X134363220Y-137219819D02*
X134363220Y-136219819D01*
X134363220Y-136219819D02*
X133791792Y-137219819D01*
X133791792Y-137219819D02*
X133791792Y-136219819D01*
X133315601Y-137219819D02*
X133315601Y-136219819D01*
X133315601Y-136219819D02*
X133077506Y-136219819D01*
X133077506Y-136219819D02*
X132934649Y-136267438D01*
X132934649Y-136267438D02*
X132839411Y-136362676D01*
X132839411Y-136362676D02*
X132791792Y-136457914D01*
X132791792Y-136457914D02*
X132744173Y-136648390D01*
X132744173Y-136648390D02*
X132744173Y-136791247D01*
X132744173Y-136791247D02*
X132791792Y-136981723D01*
X132791792Y-136981723D02*
X132839411Y-137076961D01*
X132839411Y-137076961D02*
X132934649Y-137172200D01*
X132934649Y-137172200D02*
X133077506Y-137219819D01*
X133077506Y-137219819D02*
X133315601Y-137219819D01*
X81362969Y-90030180D02*
X80886779Y-90030180D01*
X80886779Y-90030180D02*
X80886779Y-91030180D01*
X81696303Y-90553990D02*
X82029636Y-90553990D01*
X82172493Y-90030180D02*
X81696303Y-90030180D01*
X81696303Y-90030180D02*
X81696303Y-91030180D01*
X81696303Y-91030180D02*
X82172493Y-91030180D01*
X82601065Y-90030180D02*
X82601065Y-91030180D01*
X82601065Y-91030180D02*
X82839160Y-91030180D01*
X82839160Y-91030180D02*
X82982017Y-90982561D01*
X82982017Y-90982561D02*
X83077255Y-90887323D01*
X83077255Y-90887323D02*
X83124874Y-90792085D01*
X83124874Y-90792085D02*
X83172493Y-90601609D01*
X83172493Y-90601609D02*
X83172493Y-90458752D01*
X83172493Y-90458752D02*
X83124874Y-90268276D01*
X83124874Y-90268276D02*
X83077255Y-90173038D01*
X83077255Y-90173038D02*
X82982017Y-90077800D01*
X82982017Y-90077800D02*
X82839160Y-90030180D01*
X82839160Y-90030180D02*
X82601065Y-90030180D01*
X83601065Y-90411133D02*
X84362970Y-90411133D01*
X83982017Y-90030180D02*
X83982017Y-90792085D01*
X114962969Y-56430180D02*
X114486779Y-56430180D01*
X114486779Y-56430180D02*
X114486779Y-57430180D01*
X115296303Y-56953990D02*
X115629636Y-56953990D01*
X115772493Y-56430180D02*
X115296303Y-56430180D01*
X115296303Y-56430180D02*
X115296303Y-57430180D01*
X115296303Y-57430180D02*
X115772493Y-57430180D01*
X116201065Y-56430180D02*
X116201065Y-57430180D01*
X116201065Y-57430180D02*
X116439160Y-57430180D01*
X116439160Y-57430180D02*
X116582017Y-57382561D01*
X116582017Y-57382561D02*
X116677255Y-57287323D01*
X116677255Y-57287323D02*
X116724874Y-57192085D01*
X116724874Y-57192085D02*
X116772493Y-57001609D01*
X116772493Y-57001609D02*
X116772493Y-56858752D01*
X116772493Y-56858752D02*
X116724874Y-56668276D01*
X116724874Y-56668276D02*
X116677255Y-56573038D01*
X116677255Y-56573038D02*
X116582017Y-56477800D01*
X116582017Y-56477800D02*
X116439160Y-56430180D01*
X116439160Y-56430180D02*
X116201065Y-56430180D01*
X117201065Y-56811133D02*
X117962970Y-56811133D01*
X117582017Y-56430180D02*
X117582017Y-57192085D01*
X151639411Y-69067438D02*
X151734649Y-69019819D01*
X151734649Y-69019819D02*
X151877506Y-69019819D01*
X151877506Y-69019819D02*
X152020363Y-69067438D01*
X152020363Y-69067438D02*
X152115601Y-69162676D01*
X152115601Y-69162676D02*
X152163220Y-69257914D01*
X152163220Y-69257914D02*
X152210839Y-69448390D01*
X152210839Y-69448390D02*
X152210839Y-69591247D01*
X152210839Y-69591247D02*
X152163220Y-69781723D01*
X152163220Y-69781723D02*
X152115601Y-69876961D01*
X152115601Y-69876961D02*
X152020363Y-69972200D01*
X152020363Y-69972200D02*
X151877506Y-70019819D01*
X151877506Y-70019819D02*
X151782268Y-70019819D01*
X151782268Y-70019819D02*
X151639411Y-69972200D01*
X151639411Y-69972200D02*
X151591792Y-69924580D01*
X151591792Y-69924580D02*
X151591792Y-69591247D01*
X151591792Y-69591247D02*
X151782268Y-69591247D01*
X151163220Y-70019819D02*
X151163220Y-69019819D01*
X151163220Y-69019819D02*
X150591792Y-70019819D01*
X150591792Y-70019819D02*
X150591792Y-69019819D01*
X150115601Y-70019819D02*
X150115601Y-69019819D01*
X150115601Y-69019819D02*
X149877506Y-69019819D01*
X149877506Y-69019819D02*
X149734649Y-69067438D01*
X149734649Y-69067438D02*
X149639411Y-69162676D01*
X149639411Y-69162676D02*
X149591792Y-69257914D01*
X149591792Y-69257914D02*
X149544173Y-69448390D01*
X149544173Y-69448390D02*
X149544173Y-69591247D01*
X149544173Y-69591247D02*
X149591792Y-69781723D01*
X149591792Y-69781723D02*
X149639411Y-69876961D01*
X149639411Y-69876961D02*
X149734649Y-69972200D01*
X149734649Y-69972200D02*
X149877506Y-70019819D01*
X149877506Y-70019819D02*
X150115601Y-70019819D01*
X96360839Y-93965057D02*
X96313220Y-93917438D01*
X96313220Y-93917438D02*
X96217982Y-93869819D01*
X96217982Y-93869819D02*
X95979887Y-93869819D01*
X95979887Y-93869819D02*
X95884649Y-93917438D01*
X95884649Y-93917438D02*
X95837030Y-93965057D01*
X95837030Y-93965057D02*
X95789411Y-94060295D01*
X95789411Y-94060295D02*
X95789411Y-94155533D01*
X95789411Y-94155533D02*
X95837030Y-94298390D01*
X95837030Y-94298390D02*
X96408458Y-94869819D01*
X96408458Y-94869819D02*
X95789411Y-94869819D01*
X94932268Y-94203152D02*
X94932268Y-94869819D01*
X95170363Y-93822200D02*
X95408458Y-94536485D01*
X95408458Y-94536485D02*
X94789411Y-94536485D01*
X94551315Y-93869819D02*
X94217982Y-94869819D01*
X94217982Y-94869819D02*
X93884649Y-93869819D01*
X148562969Y-123630180D02*
X148086779Y-123630180D01*
X148086779Y-123630180D02*
X148086779Y-124630180D01*
X148896303Y-124153990D02*
X149229636Y-124153990D01*
X149372493Y-123630180D02*
X148896303Y-123630180D01*
X148896303Y-123630180D02*
X148896303Y-124630180D01*
X148896303Y-124630180D02*
X149372493Y-124630180D01*
X149801065Y-123630180D02*
X149801065Y-124630180D01*
X149801065Y-124630180D02*
X150039160Y-124630180D01*
X150039160Y-124630180D02*
X150182017Y-124582561D01*
X150182017Y-124582561D02*
X150277255Y-124487323D01*
X150277255Y-124487323D02*
X150324874Y-124392085D01*
X150324874Y-124392085D02*
X150372493Y-124201609D01*
X150372493Y-124201609D02*
X150372493Y-124058752D01*
X150372493Y-124058752D02*
X150324874Y-123868276D01*
X150324874Y-123868276D02*
X150277255Y-123773038D01*
X150277255Y-123773038D02*
X150182017Y-123677800D01*
X150182017Y-123677800D02*
X150039160Y-123630180D01*
X150039160Y-123630180D02*
X149801065Y-123630180D01*
X150801065Y-124011133D02*
X151562970Y-124011133D01*
X151182017Y-123630180D02*
X151182017Y-124392085D01*
X77613220Y-118419819D02*
X77613220Y-117419819D01*
X77613220Y-117419819D02*
X77232268Y-117419819D01*
X77232268Y-117419819D02*
X77137030Y-117467438D01*
X77137030Y-117467438D02*
X77089411Y-117515057D01*
X77089411Y-117515057D02*
X77041792Y-117610295D01*
X77041792Y-117610295D02*
X77041792Y-117753152D01*
X77041792Y-117753152D02*
X77089411Y-117848390D01*
X77089411Y-117848390D02*
X77137030Y-117896009D01*
X77137030Y-117896009D02*
X77232268Y-117943628D01*
X77232268Y-117943628D02*
X77613220Y-117943628D01*
X76708458Y-117419819D02*
X76470363Y-118419819D01*
X76470363Y-118419819D02*
X76279887Y-117705533D01*
X76279887Y-117705533D02*
X76089411Y-118419819D01*
X76089411Y-118419819D02*
X75851316Y-117419819D01*
X75470363Y-118419819D02*
X75470363Y-117419819D01*
X75470363Y-117419819D02*
X75137030Y-118134104D01*
X75137030Y-118134104D02*
X74803697Y-117419819D01*
X74803697Y-117419819D02*
X74803697Y-118419819D01*
X75537030Y-72319819D02*
X76013220Y-72319819D01*
X76013220Y-72319819D02*
X76013220Y-71319819D01*
X75203696Y-71796009D02*
X74870363Y-71796009D01*
X74727506Y-72319819D02*
X75203696Y-72319819D01*
X75203696Y-72319819D02*
X75203696Y-71319819D01*
X75203696Y-71319819D02*
X74727506Y-71319819D01*
X74298934Y-72319819D02*
X74298934Y-71319819D01*
X74298934Y-71319819D02*
X74060839Y-71319819D01*
X74060839Y-71319819D02*
X73917982Y-71367438D01*
X73917982Y-71367438D02*
X73822744Y-71462676D01*
X73822744Y-71462676D02*
X73775125Y-71557914D01*
X73775125Y-71557914D02*
X73727506Y-71748390D01*
X73727506Y-71748390D02*
X73727506Y-71891247D01*
X73727506Y-71891247D02*
X73775125Y-72081723D01*
X73775125Y-72081723D02*
X73822744Y-72176961D01*
X73822744Y-72176961D02*
X73917982Y-72272200D01*
X73917982Y-72272200D02*
X74060839Y-72319819D01*
X74060839Y-72319819D02*
X74298934Y-72319819D01*
X73298934Y-71938866D02*
X72537030Y-71938866D01*
X144813220Y-84819819D02*
X144813220Y-83819819D01*
X144813220Y-83819819D02*
X144432268Y-83819819D01*
X144432268Y-83819819D02*
X144337030Y-83867438D01*
X144337030Y-83867438D02*
X144289411Y-83915057D01*
X144289411Y-83915057D02*
X144241792Y-84010295D01*
X144241792Y-84010295D02*
X144241792Y-84153152D01*
X144241792Y-84153152D02*
X144289411Y-84248390D01*
X144289411Y-84248390D02*
X144337030Y-84296009D01*
X144337030Y-84296009D02*
X144432268Y-84343628D01*
X144432268Y-84343628D02*
X144813220Y-84343628D01*
X143908458Y-83819819D02*
X143670363Y-84819819D01*
X143670363Y-84819819D02*
X143479887Y-84105533D01*
X143479887Y-84105533D02*
X143289411Y-84819819D01*
X143289411Y-84819819D02*
X143051316Y-83819819D01*
X142670363Y-84819819D02*
X142670363Y-83819819D01*
X142670363Y-83819819D02*
X142337030Y-84534104D01*
X142337030Y-84534104D02*
X142003697Y-83819819D01*
X142003697Y-83819819D02*
X142003697Y-84819819D01*
X125937030Y-122719819D02*
X126413220Y-122719819D01*
X126413220Y-122719819D02*
X126413220Y-121719819D01*
X125603696Y-122196009D02*
X125270363Y-122196009D01*
X125127506Y-122719819D02*
X125603696Y-122719819D01*
X125603696Y-122719819D02*
X125603696Y-121719819D01*
X125603696Y-121719819D02*
X125127506Y-121719819D01*
X124698934Y-122719819D02*
X124698934Y-121719819D01*
X124698934Y-121719819D02*
X124460839Y-121719819D01*
X124460839Y-121719819D02*
X124317982Y-121767438D01*
X124317982Y-121767438D02*
X124222744Y-121862676D01*
X124222744Y-121862676D02*
X124175125Y-121957914D01*
X124175125Y-121957914D02*
X124127506Y-122148390D01*
X124127506Y-122148390D02*
X124127506Y-122291247D01*
X124127506Y-122291247D02*
X124175125Y-122481723D01*
X124175125Y-122481723D02*
X124222744Y-122576961D01*
X124222744Y-122576961D02*
X124317982Y-122672200D01*
X124317982Y-122672200D02*
X124460839Y-122719819D01*
X124460839Y-122719819D02*
X124698934Y-122719819D01*
X123698934Y-122338866D02*
X122937030Y-122338866D01*
X77613220Y-68019819D02*
X77613220Y-67019819D01*
X77613220Y-67019819D02*
X77232268Y-67019819D01*
X77232268Y-67019819D02*
X77137030Y-67067438D01*
X77137030Y-67067438D02*
X77089411Y-67115057D01*
X77089411Y-67115057D02*
X77041792Y-67210295D01*
X77041792Y-67210295D02*
X77041792Y-67353152D01*
X77041792Y-67353152D02*
X77089411Y-67448390D01*
X77089411Y-67448390D02*
X77137030Y-67496009D01*
X77137030Y-67496009D02*
X77232268Y-67543628D01*
X77232268Y-67543628D02*
X77613220Y-67543628D01*
X76708458Y-67019819D02*
X76470363Y-68019819D01*
X76470363Y-68019819D02*
X76279887Y-67305533D01*
X76279887Y-67305533D02*
X76089411Y-68019819D01*
X76089411Y-68019819D02*
X75851316Y-67019819D01*
X75470363Y-68019819D02*
X75470363Y-67019819D01*
X75470363Y-67019819D02*
X75137030Y-67734104D01*
X75137030Y-67734104D02*
X74803697Y-67019819D01*
X74803697Y-67019819D02*
X74803697Y-68019819D01*
D11*
X79600000Y-75200000D02*
G75*
G03*
X79600000Y-75200000I-1200000J0D01*
G01*
X79600000Y-58400000D02*
G75*
G03*
X79600000Y-58400000I-1200000J0D01*
G01*
X124800000Y-101000000D02*
G75*
G03*
X124800000Y-101000000I-1200000J0D01*
G01*
X84800000Y-117800000D02*
G75*
G03*
X84800000Y-117800000I-1200000J0D01*
G01*
X124800000Y-67400000D02*
G75*
G03*
X124800000Y-67400000I-1200000J0D01*
G01*
X91200000Y-134600000D02*
G75*
G03*
X91200000Y-134600000I-1200000J0D01*
G01*
X141600000Y-67400000D02*
G75*
G03*
X141600000Y-67400000I-1200000J0D01*
G01*
X146800000Y-108800000D02*
G75*
G03*
X146800000Y-108800000I-1200000J0D01*
G01*
X96400000Y-108800000D02*
G75*
G03*
X96400000Y-108800000I-1200000J0D01*
G01*
X130000000Y-58400000D02*
G75*
G03*
X130000000Y-58400000I-1200000J0D01*
G01*
X146800000Y-125600000D02*
G75*
G03*
X146800000Y-125600000I-1200000J0D01*
G01*
X84800000Y-67400000D02*
G75*
G03*
X84800000Y-67400000I-1200000J0D01*
G01*
X91200000Y-67400000D02*
G75*
G03*
X91200000Y-67400000I-1200000J0D01*
G01*
X96400000Y-58400000D02*
G75*
G03*
X96400000Y-58400000I-1200000J0D01*
G01*
X84800000Y-84200000D02*
G75*
G03*
X84800000Y-84200000I-1200000J0D01*
G01*
X113200000Y-125600000D02*
G75*
G03*
X113200000Y-125600000I-1200000J0D01*
G01*
X74400000Y-101000000D02*
G75*
G03*
X74400000Y-101000000I-1200000J0D01*
G01*
X152000000Y-101000000D02*
G75*
G03*
X152000000Y-101000000I-1200000J0D01*
G01*
X91200000Y-117800000D02*
G75*
G03*
X91200000Y-117800000I-1200000J0D01*
G01*
X118400000Y-101000000D02*
G75*
G03*
X118400000Y-101000000I-1200000J0D01*
G01*
X130000000Y-75200000D02*
G75*
G03*
X130000000Y-75200000I-1200000J0D01*
G01*
X101600000Y-67400000D02*
G75*
G03*
X101600000Y-67400000I-1200000J0D01*
G01*
X146800000Y-92000000D02*
G75*
G03*
X146800000Y-92000000I-1200000J0D01*
G01*
X118400000Y-67400000D02*
G75*
G03*
X118400000Y-67400000I-1200000J0D01*
G01*
X141600000Y-117800000D02*
G75*
G03*
X141600000Y-117800000I-1200000J0D01*
G01*
X141600000Y-134600000D02*
G75*
G03*
X141600000Y-134600000I-1200000J0D01*
G01*
X113200000Y-92000000D02*
G75*
G03*
X113200000Y-92000000I-1200000J0D01*
G01*
X79600000Y-92000000D02*
G75*
G03*
X79600000Y-92000000I-1200000J0D01*
G01*
X135200000Y-134600000D02*
G75*
G03*
X135200000Y-134600000I-1200000J0D01*
G01*
X113200000Y-108800000D02*
G75*
G03*
X113200000Y-108800000I-1200000J0D01*
G01*
X130000000Y-108800000D02*
G75*
G03*
X130000000Y-108800000I-1200000J0D01*
G01*
X135200000Y-101000000D02*
G75*
G03*
X135200000Y-101000000I-1200000J0D01*
G01*
X74400000Y-84200000D02*
G75*
G03*
X74400000Y-84200000I-1200000J0D01*
G01*
X74400000Y-134600000D02*
G75*
G03*
X74400000Y-134600000I-1200000J0D01*
G01*
X74400000Y-67400000D02*
G75*
G03*
X74400000Y-67400000I-1200000J0D01*
G01*
X108000000Y-67400000D02*
G75*
G03*
X108000000Y-67400000I-1200000J0D01*
G01*
X118400000Y-134600000D02*
G75*
G03*
X118400000Y-134600000I-1200000J0D01*
G01*
X96400000Y-92000000D02*
G75*
G03*
X96400000Y-92000000I-1200000J0D01*
G01*
X146800000Y-75200000D02*
G75*
G03*
X146800000Y-75200000I-1200000J0D01*
G01*
X91200000Y-101000000D02*
G75*
G03*
X91200000Y-101000000I-1200000J0D01*
G01*
X124800000Y-134600000D02*
G75*
G03*
X124800000Y-134600000I-1200000J0D01*
G01*
X146800000Y-58400000D02*
G75*
G03*
X146800000Y-58400000I-1200000J0D01*
G01*
X135200000Y-67400000D02*
G75*
G03*
X135200000Y-67400000I-1200000J0D01*
G01*
X96400000Y-75200000D02*
G75*
G03*
X96400000Y-75200000I-1200000J0D01*
G01*
X113200000Y-75200000D02*
G75*
G03*
X113200000Y-75200000I-1200000J0D01*
G01*
X141600000Y-101000000D02*
G75*
G03*
X141600000Y-101000000I-1200000J0D01*
G01*
X152000000Y-117800000D02*
G75*
G03*
X152000000Y-117800000I-1200000J0D01*
G01*
X101600000Y-101000000D02*
G75*
G03*
X101600000Y-101000000I-1200000J0D01*
G01*
X152000000Y-134600000D02*
G75*
G03*
X152000000Y-134600000I-1200000J0D01*
G01*
X141600000Y-84200000D02*
G75*
G03*
X141600000Y-84200000I-1200000J0D01*
G01*
X101600000Y-117800000D02*
G75*
G03*
X101600000Y-117800000I-1200000J0D01*
G01*
X108000000Y-84200000D02*
G75*
G03*
X108000000Y-84200000I-1200000J0D01*
G01*
X135200000Y-117800000D02*
G75*
G03*
X135200000Y-117800000I-1200000J0D01*
G01*
X118400000Y-117800000D02*
G75*
G03*
X118400000Y-117800000I-1200000J0D01*
G01*
X84800000Y-101000000D02*
G75*
G03*
X84800000Y-101000000I-1200000J0D01*
G01*
X152000000Y-84200000D02*
G75*
G03*
X152000000Y-84200000I-1200000J0D01*
G01*
X124800000Y-117800000D02*
G75*
G03*
X124800000Y-117800000I-1200000J0D01*
G01*
X135200000Y-84200000D02*
G75*
G03*
X135200000Y-84200000I-1200000J0D01*
G01*
X152000000Y-67400000D02*
G75*
G03*
X152000000Y-67400000I-1200000J0D01*
G01*
X108000000Y-134600000D02*
G75*
G03*
X108000000Y-134600000I-1200000J0D01*
G01*
X74400000Y-117800000D02*
G75*
G03*
X74400000Y-117800000I-1200000J0D01*
G01*
X79600000Y-125600000D02*
G75*
G03*
X79600000Y-125600000I-1200000J0D01*
G01*
X130000000Y-92000000D02*
G75*
G03*
X130000000Y-92000000I-1200000J0D01*
G01*
X84800000Y-134600000D02*
G75*
G03*
X84800000Y-134600000I-1200000J0D01*
G01*
X91200000Y-84200000D02*
G75*
G03*
X91200000Y-84200000I-1200000J0D01*
G01*
X101600000Y-134600000D02*
G75*
G03*
X101600000Y-134600000I-1200000J0D01*
G01*
X101600000Y-84200000D02*
G75*
G03*
X101600000Y-84200000I-1200000J0D01*
G01*
X130000000Y-125600000D02*
G75*
G03*
X130000000Y-125600000I-1200000J0D01*
G01*
X118400000Y-84200000D02*
G75*
G03*
X118400000Y-84200000I-1200000J0D01*
G01*
X108000000Y-101000000D02*
G75*
G03*
X108000000Y-101000000I-1200000J0D01*
G01*
X96400000Y-125600000D02*
G75*
G03*
X96400000Y-125600000I-1200000J0D01*
G01*
X108000000Y-117800000D02*
G75*
G03*
X108000000Y-117800000I-1200000J0D01*
G01*
X113200000Y-58400000D02*
G75*
G03*
X113200000Y-58400000I-1200000J0D01*
G01*
X124800000Y-84200000D02*
G75*
G03*
X124800000Y-84200000I-1200000J0D01*
G01*
X79600000Y-108800000D02*
G75*
G03*
X79600000Y-108800000I-1200000J0D01*
G01*
%LPC*%
D12*
X78400000Y-75200000D03*
X78400000Y-58400000D03*
D13*
X135900000Y-73600000D03*
X71300000Y-122400000D03*
D12*
X123600000Y-101000000D03*
X83600000Y-117800000D03*
D13*
X104900000Y-122400000D03*
D12*
X123600000Y-67400000D03*
D13*
X119100000Y-56800000D03*
D12*
X90000000Y-134600000D03*
X140400000Y-67400000D03*
X145600000Y-108800000D03*
X95200000Y-108800000D03*
D13*
X102300000Y-124000000D03*
D12*
X128800000Y-58400000D03*
D13*
X119100000Y-73600000D03*
D12*
X145600000Y-125600000D03*
X83600000Y-67400000D03*
X90000000Y-67400000D03*
D13*
X71300000Y-88800000D03*
X121700000Y-72000000D03*
D12*
X95200000Y-58400000D03*
D13*
X119100000Y-107200000D03*
D12*
X83600000Y-84200000D03*
D13*
X102300000Y-107200000D03*
D12*
X112000000Y-125600000D03*
X73200000Y-101000000D03*
D13*
X85500000Y-56800000D03*
X135900000Y-90400000D03*
X85500000Y-107200000D03*
X119100000Y-124000000D03*
D12*
X150800000Y-101000000D03*
X90000000Y-117800000D03*
X117200000Y-101000000D03*
X128800000Y-75200000D03*
D13*
X88100000Y-139200000D03*
X104900000Y-105600000D03*
D12*
X100400000Y-67400000D03*
D13*
X71300000Y-105600000D03*
X152700000Y-56800000D03*
D12*
X145600000Y-92000000D03*
D13*
X152700000Y-124000000D03*
X102300000Y-90400000D03*
D12*
X117200000Y-67400000D03*
X140400000Y-117800000D03*
D13*
X88100000Y-105600000D03*
D12*
X140400000Y-134600000D03*
D13*
X102300000Y-73600000D03*
D12*
X112000000Y-92000000D03*
X78400000Y-92000000D03*
D13*
X138500000Y-105600000D03*
X71300000Y-139200000D03*
D12*
X134000000Y-134600000D03*
D13*
X121700000Y-105600000D03*
X104900000Y-88800000D03*
D12*
X112000000Y-108800000D03*
X128800000Y-108800000D03*
D13*
X85500000Y-90400000D03*
D12*
X134000000Y-101000000D03*
X73200000Y-84200000D03*
D13*
X138500000Y-88800000D03*
X152700000Y-73600000D03*
D12*
X73200000Y-134600000D03*
X73200000Y-67400000D03*
X106800000Y-67400000D03*
X117200000Y-134600000D03*
X95200000Y-92000000D03*
X145600000Y-75200000D03*
X90000000Y-101000000D03*
D13*
X135900000Y-56800000D03*
X119100000Y-90400000D03*
D12*
X123600000Y-134600000D03*
X145600000Y-58400000D03*
X134000000Y-67400000D03*
D13*
X104900000Y-72000000D03*
D12*
X95200000Y-75200000D03*
X112000000Y-75200000D03*
D13*
X135900000Y-107200000D03*
D12*
X140400000Y-101000000D03*
D13*
X104900000Y-139200000D03*
D12*
X150800000Y-117800000D03*
D13*
X138500000Y-139200000D03*
D12*
X100400000Y-101000000D03*
X150800000Y-134600000D03*
X140400000Y-84200000D03*
X100400000Y-117800000D03*
X106800000Y-84200000D03*
X134000000Y-117800000D03*
X117200000Y-117800000D03*
X83600000Y-101000000D03*
D13*
X88100000Y-88800000D03*
D12*
X150800000Y-84200000D03*
X123600000Y-117800000D03*
D13*
X152700000Y-107200000D03*
X71300000Y-72000000D03*
D12*
X134000000Y-84200000D03*
D13*
X88100000Y-122400000D03*
D12*
X150800000Y-67400000D03*
X106800000Y-134600000D03*
D13*
X152700000Y-90400000D03*
D12*
X73200000Y-117800000D03*
X78400000Y-125600000D03*
X128800000Y-92000000D03*
D13*
X121700000Y-88800000D03*
X88100000Y-72000000D03*
D12*
X83600000Y-134600000D03*
D13*
X138500000Y-122400000D03*
D12*
X90000000Y-84200000D03*
D13*
X138500000Y-72000000D03*
X85500000Y-73600000D03*
D12*
X100400000Y-134600000D03*
X100400000Y-84200000D03*
X128800000Y-125600000D03*
D13*
X135900000Y-124000000D03*
X85500000Y-124000000D03*
D12*
X117200000Y-84200000D03*
D13*
X121700000Y-122400000D03*
D12*
X106800000Y-101000000D03*
X95200000Y-125600000D03*
D13*
X102300000Y-56800000D03*
D12*
X106800000Y-117800000D03*
D13*
X121700000Y-139200000D03*
D12*
X112000000Y-58400000D03*
X123600000Y-84200000D03*
X78400000Y-108800000D03*
%LPD*%
M02*
