%TF.GenerationSoftware,KiCad,Pcbnew,7.0.9*%
%TF.CreationDate,2024-01-01T14:06:12+01:00*%
%TF.ProjectId,Nutzen,4e75747a-656e-42e6-9b69-6361645f7063,rev?*%
%TF.SameCoordinates,Original*%
%TF.FileFunction,Drillmap*%
%TF.FilePolarity,Positive*%
%FSLAX45Y45*%
G04 Gerber Fmt 4.5, Leading zero omitted, Abs format (unit mm)*
G04 Created by KiCad (PCBNEW 7.0.9) date 2024-01-01 14:06:12*
%MOMM*%
%LPD*%
G01*
G04 APERTURE LIST*
%ADD10C,0.100000*%
%ADD11C,0.200000*%
G04 APERTURE END LIST*
D10*
X8680000Y-14000000D02*
X8680000Y-12320000D01*
X13720000Y-5600000D02*
X13720000Y-7280000D01*
X8680000Y-7280000D02*
X8680000Y-5600000D01*
X8680000Y-10640000D02*
X10360000Y-10640000D01*
X10360000Y-8960000D02*
X10360000Y-10640000D01*
X8680000Y-12320000D02*
X7000000Y-12320000D01*
X15400000Y-12320000D02*
X13720000Y-12320000D01*
X10360000Y-12320000D02*
X10360000Y-10640000D01*
X8680000Y-7280000D02*
X8680000Y-8960000D01*
X8680000Y-5600000D02*
X7000000Y-5600000D01*
X10360000Y-10640000D02*
X8680000Y-10640000D01*
X13720000Y-5600000D02*
X12040000Y-5600000D01*
X8680000Y-8960000D02*
X7000000Y-8960000D01*
X12040000Y-7280000D02*
X12040000Y-8960000D01*
X10360000Y-12320000D02*
X12040000Y-12320000D01*
X8680000Y-12320000D02*
X8680000Y-14000000D01*
X10360000Y-5600000D02*
X8680000Y-5600000D01*
X12040000Y-12320000D02*
X12040000Y-10640000D01*
X13720000Y-14000000D02*
X13720000Y-12320000D01*
X12040000Y-14000000D02*
X12040000Y-12320000D01*
X8680000Y-7280000D02*
X10360000Y-7280000D01*
X15400000Y-5600000D02*
X13720000Y-5600000D01*
X12040000Y-10640000D02*
X12040000Y-8960000D01*
X8680000Y-10640000D02*
X8680000Y-12320000D01*
X15400000Y-7280000D02*
X15400000Y-5600000D01*
X13720000Y-10640000D02*
X13720000Y-8960000D01*
X12040000Y-12320000D02*
X10360000Y-12320000D01*
X10360000Y-10640000D02*
X10360000Y-8960000D01*
X13720000Y-8960000D02*
X13720000Y-7280000D01*
X7000000Y-8960000D02*
X8680000Y-8960000D01*
X13720000Y-14000000D02*
X15400000Y-14000000D01*
X7000000Y-10640000D02*
X7000000Y-12320000D01*
X7000000Y-10640000D02*
X8680000Y-10640000D01*
X12040000Y-10640000D02*
X10360000Y-10640000D01*
X10360000Y-10640000D02*
X12040000Y-10640000D01*
X12040000Y-12320000D02*
X12040000Y-14000000D01*
X13720000Y-12320000D02*
X12040000Y-12320000D01*
X7000000Y-8960000D02*
X7000000Y-10640000D01*
X10360000Y-14000000D02*
X12040000Y-14000000D01*
X8680000Y-14000000D02*
X10360000Y-14000000D01*
X8680000Y-8960000D02*
X8680000Y-7280000D01*
X15400000Y-12320000D02*
X15400000Y-10640000D01*
X12040000Y-7280000D02*
X12040000Y-5600000D01*
X13720000Y-7280000D02*
X12040000Y-7280000D01*
X10360000Y-12320000D02*
X8680000Y-12320000D01*
X10360000Y-10640000D02*
X10360000Y-12320000D01*
X10360000Y-7280000D02*
X12040000Y-7280000D01*
X13720000Y-7280000D02*
X13720000Y-8960000D01*
X13720000Y-7280000D02*
X13720000Y-5600000D01*
X7000000Y-12320000D02*
X8680000Y-12320000D01*
X8680000Y-5600000D02*
X8680000Y-7280000D01*
X10360000Y-8960000D02*
X8680000Y-8960000D01*
X8680000Y-8960000D02*
X10360000Y-8960000D01*
X10360000Y-8960000D02*
X12040000Y-8960000D01*
X12040000Y-12320000D02*
X13720000Y-12320000D01*
X15400000Y-10640000D02*
X13720000Y-10640000D01*
X13720000Y-12320000D02*
X15400000Y-12320000D01*
X12040000Y-14000000D02*
X13720000Y-14000000D01*
X12040000Y-8960000D02*
X13720000Y-8960000D01*
X8680000Y-12320000D02*
X10360000Y-12320000D01*
X12040000Y-8960000D02*
X12040000Y-10640000D01*
X13720000Y-10640000D02*
X15400000Y-10640000D01*
X13720000Y-8960000D02*
X15400000Y-8960000D01*
X13720000Y-10640000D02*
X13720000Y-12320000D01*
X10360000Y-7280000D02*
X8680000Y-7280000D01*
X10360000Y-14000000D02*
X10360000Y-12320000D01*
X12040000Y-8960000D02*
X10360000Y-8960000D01*
X15400000Y-7280000D02*
X13720000Y-7280000D01*
X15400000Y-10640000D02*
X15400000Y-8960000D01*
X12040000Y-10640000D02*
X13720000Y-10640000D01*
X12040000Y-8960000D02*
X12040000Y-7280000D01*
X12040000Y-5600000D02*
X10360000Y-5600000D01*
X15400000Y-8960000D02*
X15400000Y-7280000D01*
X10360000Y-8960000D02*
X10360000Y-7280000D01*
X10360000Y-7280000D02*
X10360000Y-8960000D01*
X8680000Y-10640000D02*
X8680000Y-8960000D01*
X13720000Y-8960000D02*
X12040000Y-8960000D01*
X13720000Y-12320000D02*
X13720000Y-10640000D01*
X7000000Y-7280000D02*
X7000000Y-8960000D01*
X8680000Y-12320000D02*
X8680000Y-10640000D01*
X7000000Y-12320000D02*
X7000000Y-14000000D01*
X8680000Y-7280000D02*
X7000000Y-7280000D01*
X13720000Y-8960000D02*
X13720000Y-10640000D01*
X13720000Y-12320000D02*
X13720000Y-14000000D01*
X12040000Y-10640000D02*
X12040000Y-12320000D01*
X7000000Y-5600000D02*
X7000000Y-7280000D01*
X13720000Y-7280000D02*
X15400000Y-7280000D01*
X12040000Y-7280000D02*
X10360000Y-7280000D01*
X10360000Y-12320000D02*
X10360000Y-14000000D01*
X7000000Y-14000000D02*
X8680000Y-14000000D01*
X8680000Y-8960000D02*
X8680000Y-10640000D01*
X10360000Y-5600000D02*
X10360000Y-7280000D01*
X10360000Y-7280000D02*
X10360000Y-5600000D01*
X15400000Y-8960000D02*
X13720000Y-8960000D01*
X13720000Y-10640000D02*
X12040000Y-10640000D01*
X15400000Y-14000000D02*
X15400000Y-12320000D01*
X12040000Y-7280000D02*
X13720000Y-7280000D01*
X7000000Y-7280000D02*
X8680000Y-7280000D01*
X8680000Y-10640000D02*
X7000000Y-10640000D01*
X12040000Y-5600000D02*
X12040000Y-7280000D01*
D11*
X7255777Y-14316484D02*
X7255777Y-14116484D01*
X7255777Y-14116484D02*
X7303396Y-14116484D01*
X7303396Y-14116484D02*
X7331967Y-14126008D01*
X7331967Y-14126008D02*
X7351015Y-14145055D01*
X7351015Y-14145055D02*
X7360539Y-14164103D01*
X7360539Y-14164103D02*
X7370062Y-14202198D01*
X7370062Y-14202198D02*
X7370062Y-14230769D01*
X7370062Y-14230769D02*
X7360539Y-14268865D01*
X7360539Y-14268865D02*
X7351015Y-14287912D01*
X7351015Y-14287912D02*
X7331967Y-14306960D01*
X7331967Y-14306960D02*
X7303396Y-14316484D01*
X7303396Y-14316484D02*
X7255777Y-14316484D01*
X7455777Y-14316484D02*
X7455777Y-14183150D01*
X7455777Y-14221246D02*
X7465301Y-14202198D01*
X7465301Y-14202198D02*
X7474824Y-14192674D01*
X7474824Y-14192674D02*
X7493872Y-14183150D01*
X7493872Y-14183150D02*
X7512920Y-14183150D01*
X7579586Y-14316484D02*
X7579586Y-14183150D01*
X7579586Y-14116484D02*
X7570062Y-14126008D01*
X7570062Y-14126008D02*
X7579586Y-14135531D01*
X7579586Y-14135531D02*
X7589110Y-14126008D01*
X7589110Y-14126008D02*
X7579586Y-14116484D01*
X7579586Y-14116484D02*
X7579586Y-14135531D01*
X7703396Y-14316484D02*
X7684348Y-14306960D01*
X7684348Y-14306960D02*
X7674824Y-14287912D01*
X7674824Y-14287912D02*
X7674824Y-14116484D01*
X7808158Y-14316484D02*
X7789110Y-14306960D01*
X7789110Y-14306960D02*
X7779586Y-14287912D01*
X7779586Y-14287912D02*
X7779586Y-14116484D01*
X8036729Y-14316484D02*
X8036729Y-14116484D01*
X8036729Y-14116484D02*
X8103396Y-14259341D01*
X8103396Y-14259341D02*
X8170062Y-14116484D01*
X8170062Y-14116484D02*
X8170062Y-14316484D01*
X8351015Y-14316484D02*
X8351015Y-14211722D01*
X8351015Y-14211722D02*
X8341491Y-14192674D01*
X8341491Y-14192674D02*
X8322443Y-14183150D01*
X8322443Y-14183150D02*
X8284348Y-14183150D01*
X8284348Y-14183150D02*
X8265301Y-14192674D01*
X8351015Y-14306960D02*
X8331967Y-14316484D01*
X8331967Y-14316484D02*
X8284348Y-14316484D01*
X8284348Y-14316484D02*
X8265301Y-14306960D01*
X8265301Y-14306960D02*
X8255777Y-14287912D01*
X8255777Y-14287912D02*
X8255777Y-14268865D01*
X8255777Y-14268865D02*
X8265301Y-14249817D01*
X8265301Y-14249817D02*
X8284348Y-14240293D01*
X8284348Y-14240293D02*
X8331967Y-14240293D01*
X8331967Y-14240293D02*
X8351015Y-14230769D01*
X8446253Y-14183150D02*
X8446253Y-14383150D01*
X8446253Y-14192674D02*
X8465301Y-14183150D01*
X8465301Y-14183150D02*
X8503396Y-14183150D01*
X8503396Y-14183150D02*
X8522444Y-14192674D01*
X8522444Y-14192674D02*
X8531967Y-14202198D01*
X8531967Y-14202198D02*
X8541491Y-14221246D01*
X8541491Y-14221246D02*
X8541491Y-14278388D01*
X8541491Y-14278388D02*
X8531967Y-14297436D01*
X8531967Y-14297436D02*
X8522444Y-14306960D01*
X8522444Y-14306960D02*
X8503396Y-14316484D01*
X8503396Y-14316484D02*
X8465301Y-14316484D01*
X8465301Y-14316484D02*
X8446253Y-14306960D01*
X8627205Y-14297436D02*
X8636729Y-14306960D01*
X8636729Y-14306960D02*
X8627205Y-14316484D01*
X8627205Y-14316484D02*
X8617682Y-14306960D01*
X8617682Y-14306960D02*
X8627205Y-14297436D01*
X8627205Y-14297436D02*
X8627205Y-14316484D01*
X8627205Y-14192674D02*
X8636729Y-14202198D01*
X8636729Y-14202198D02*
X8627205Y-14211722D01*
X8627205Y-14211722D02*
X8617682Y-14202198D01*
X8617682Y-14202198D02*
X8627205Y-14192674D01*
X8627205Y-14192674D02*
X8627205Y-14211722D01*
M02*
