G04 #@! TF.GenerationSoftware,KiCad,Pcbnew,7.0.9*
G04 #@! TF.CreationDate,2024-01-02T20:31:58+01:00*
G04 #@! TF.ProjectId,Nutzen,4e75747a-656e-42e6-9b69-6361645f7063,rev?*
G04 #@! TF.SameCoordinates,Original*
G04 #@! TF.FileFunction,Soldermask,Top*
G04 #@! TF.FilePolarity,Negative*
%FSLAX46Y46*%
G04 Gerber Fmt 4.6, Leading zero omitted, Abs format (unit mm)*
G04 Created by KiCad (PCBNEW 7.0.9) date 2024-01-02 20:31:58*
%MOMM*%
%LPD*%
G01*
G04 APERTURE LIST*
G04 Aperture macros list*
%AMRoundRect*
0 Rectangle with rounded corners*
0 $1 Rounding radius*
0 $2 $3 $4 $5 $6 $7 $8 $9 X,Y pos of 4 corners*
0 Add a 4 corners polygon primitive as box body*
4,1,4,$2,$3,$4,$5,$6,$7,$8,$9,$2,$3,0*
0 Add four circle primitives for the rounded corners*
1,1,$1+$1,$2,$3*
1,1,$1+$1,$4,$5*
1,1,$1+$1,$6,$7*
1,1,$1+$1,$8,$9*
0 Add four rect primitives between the rounded corners*
20,1,$1+$1,$2,$3,$4,$5,0*
20,1,$1+$1,$4,$5,$6,$7,0*
20,1,$1+$1,$6,$7,$8,$9,0*
20,1,$1+$1,$8,$9,$2,$3,0*%
%AMFreePoly0*
4,1,32,0.469135,0.146194,0.504490,0.131549,0.531549,0.104490,0.546194,0.069135,0.550000,0.050000,0.550000,-0.050000,0.546194,-0.069135,0.531549,-0.104490,0.504490,-0.131549,0.469135,-0.146194,0.450000,-0.150000,-0.250000,-0.150000,-0.250000,-0.250000,-0.253806,-0.269135,-0.268451,-0.304490,-0.295510,-0.331549,-0.330865,-0.346194,-0.350000,-0.350000,-0.450000,-0.350000,-0.469135,-0.346194,
-0.504490,-0.331549,-0.531549,-0.304490,-0.546194,-0.269135,-0.550000,-0.250000,-0.550000,0.050000,-0.546194,0.069135,-0.531549,0.104490,-0.504490,0.131549,-0.469135,0.146194,-0.450000,0.150000,0.450000,0.150000,0.469135,0.146194,0.469135,0.146194,$1*%
G04 Aperture macros list end*
%ADD10RoundRect,0.225000X0.250000X-0.225000X0.250000X0.225000X-0.250000X0.225000X-0.250000X-0.225000X0*%
%ADD11RoundRect,0.225000X-0.225000X-0.250000X0.225000X-0.250000X0.225000X0.250000X-0.225000X0.250000X0*%
%ADD12RoundRect,0.250000X-0.325000X-1.100000X0.325000X-1.100000X0.325000X1.100000X-0.325000X1.100000X0*%
%ADD13RoundRect,0.200000X0.275000X-0.200000X0.275000X0.200000X-0.275000X0.200000X-0.275000X-0.200000X0*%
%ADD14RoundRect,0.100000X0.300000X0.050000X-0.300000X0.050000X-0.300000X-0.050000X0.300000X-0.050000X0*%
%ADD15RoundRect,0.100000X0.250000X0.050000X-0.250000X0.050000X-0.250000X-0.050000X0.250000X-0.050000X0*%
%ADD16FreePoly0,180.000000*%
%ADD17RoundRect,0.093750X-0.093750X-0.106250X0.093750X-0.106250X0.093750X0.106250X-0.093750X0.106250X0*%
%ADD18R,1.000000X1.600000*%
%ADD19RoundRect,0.112500X-0.112500X0.187500X-0.112500X-0.187500X0.112500X-0.187500X0.112500X0.187500X0*%
%ADD20RoundRect,0.200000X-0.275000X0.200000X-0.275000X-0.200000X0.275000X-0.200000X0.275000X0.200000X0*%
%ADD21R,1.500000X4.000000*%
G04 APERTURE END LIST*
D10*
X144350000Y-121525000D03*
X144350000Y-119975000D03*
D11*
X141650000Y-117750000D03*
X143200000Y-117750000D03*
D12*
X145950000Y-115150000D03*
X148900000Y-115150000D03*
D13*
X140550000Y-121775000D03*
X140550000Y-120125000D03*
D14*
X142950000Y-120450000D03*
D15*
X143000000Y-119800000D03*
D14*
X142950000Y-119000000D03*
D15*
X141700000Y-119000000D03*
X141700000Y-120025000D03*
D16*
X141900000Y-120525000D03*
D12*
X140950000Y-115350000D03*
X143900000Y-115350000D03*
D17*
X140662500Y-111600000D03*
X140662500Y-112250000D03*
X140662500Y-112900000D03*
X142437500Y-112900000D03*
X142437500Y-112250000D03*
X142437500Y-111600000D03*
D18*
X141550000Y-112250000D03*
D19*
X138850000Y-120600000D03*
X138850000Y-122700000D03*
D13*
X140850000Y-124875000D03*
X140850000Y-123225000D03*
D20*
X139050000Y-117625000D03*
X139050000Y-119275000D03*
D13*
X140550000Y-104975000D03*
X140550000Y-103325000D03*
D12*
X140950000Y-98550000D03*
X143900000Y-98550000D03*
D11*
X141650000Y-100950000D03*
X143200000Y-100950000D03*
D12*
X145950000Y-98350000D03*
X148900000Y-98350000D03*
D10*
X144350000Y-104725000D03*
X144350000Y-103175000D03*
D17*
X140662500Y-94800000D03*
X140662500Y-95450000D03*
X140662500Y-96100000D03*
X142437500Y-96100000D03*
X142437500Y-95450000D03*
X142437500Y-94800000D03*
D18*
X141550000Y-95450000D03*
D13*
X140850000Y-108075000D03*
X140850000Y-106425000D03*
D12*
X140950000Y-81750000D03*
X143900000Y-81750000D03*
D20*
X139050000Y-100825000D03*
X139050000Y-102475000D03*
D19*
X138850000Y-103800000D03*
X138850000Y-105900000D03*
D21*
X146250000Y-86050000D03*
X149850000Y-86050000D03*
X146250000Y-119650000D03*
X149850000Y-119650000D03*
D14*
X142950000Y-103650000D03*
D15*
X143000000Y-103000000D03*
D14*
X142950000Y-102200000D03*
D15*
X141700000Y-102200000D03*
X141700000Y-103225000D03*
D16*
X141900000Y-103725000D03*
D20*
X139050000Y-84025000D03*
X139050000Y-85675000D03*
D14*
X142950000Y-86850000D03*
D15*
X143000000Y-86200000D03*
D14*
X142950000Y-85400000D03*
D15*
X141700000Y-85400000D03*
X141700000Y-86425000D03*
D16*
X141900000Y-86925000D03*
D17*
X140662500Y-78000000D03*
X140662500Y-78650000D03*
X140662500Y-79300000D03*
X142437500Y-79300000D03*
X142437500Y-78650000D03*
X142437500Y-78000000D03*
D18*
X141550000Y-78650000D03*
D21*
X146250000Y-102850000D03*
X149850000Y-102850000D03*
D13*
X140550000Y-88175000D03*
X140550000Y-86525000D03*
D12*
X145950000Y-81550000D03*
X148900000Y-81550000D03*
D14*
X142950000Y-70050000D03*
D15*
X143000000Y-69400000D03*
D14*
X142950000Y-68600000D03*
D15*
X141700000Y-68600000D03*
X141700000Y-69625000D03*
D16*
X141900000Y-70125000D03*
D19*
X138850000Y-87000000D03*
X138850000Y-89100000D03*
D13*
X140550000Y-71375000D03*
X140550000Y-69725000D03*
D12*
X145950000Y-64750000D03*
X148900000Y-64750000D03*
D13*
X140850000Y-91275000D03*
X140850000Y-89625000D03*
D10*
X144350000Y-87925000D03*
X144350000Y-86375000D03*
D11*
X141650000Y-84150000D03*
X143200000Y-84150000D03*
D10*
X144350000Y-71125000D03*
X144350000Y-69575000D03*
D21*
X146250000Y-69250000D03*
X149850000Y-69250000D03*
D13*
X140850000Y-74475000D03*
X140850000Y-72825000D03*
D19*
X138850000Y-70200000D03*
X138850000Y-72300000D03*
D13*
X140550000Y-54575000D03*
X140550000Y-52925000D03*
D20*
X139050000Y-67225000D03*
X139050000Y-68875000D03*
D14*
X142950000Y-53250000D03*
D15*
X143000000Y-52600000D03*
D14*
X142950000Y-51800000D03*
D15*
X141700000Y-51800000D03*
X141700000Y-52825000D03*
D16*
X141900000Y-53325000D03*
D12*
X140950000Y-48150000D03*
X143900000Y-48150000D03*
D11*
X141650000Y-50550000D03*
X143200000Y-50550000D03*
D17*
X140662500Y-61200000D03*
X140662500Y-61850000D03*
X140662500Y-62500000D03*
X142437500Y-62500000D03*
X142437500Y-61850000D03*
X142437500Y-61200000D03*
D18*
X141550000Y-61850000D03*
D12*
X140950000Y-64950000D03*
X143900000Y-64950000D03*
X145950000Y-47950000D03*
X148900000Y-47950000D03*
D11*
X141650000Y-67350000D03*
X143200000Y-67350000D03*
D10*
X144350000Y-54325000D03*
X144350000Y-52775000D03*
D17*
X140662500Y-44400000D03*
X140662500Y-45050000D03*
X140662500Y-45700000D03*
X142437500Y-45700000D03*
X142437500Y-45050000D03*
X142437500Y-44400000D03*
D18*
X141550000Y-45050000D03*
D21*
X146250000Y-52450000D03*
X149850000Y-52450000D03*
D19*
X138850000Y-53400000D03*
X138850000Y-55500000D03*
D13*
X140850000Y-57675000D03*
X140850000Y-56025000D03*
D20*
X139050000Y-50425000D03*
X139050000Y-52075000D03*
D10*
X127550000Y-121525000D03*
X127550000Y-119975000D03*
D11*
X124850000Y-117750000D03*
X126400000Y-117750000D03*
D12*
X129150000Y-115150000D03*
X132100000Y-115150000D03*
D13*
X123750000Y-121775000D03*
X123750000Y-120125000D03*
D14*
X126150000Y-120450000D03*
D15*
X126200000Y-119800000D03*
D14*
X126150000Y-119000000D03*
D15*
X124900000Y-119000000D03*
X124900000Y-120025000D03*
D16*
X125100000Y-120525000D03*
D12*
X124150000Y-115350000D03*
X127100000Y-115350000D03*
D17*
X123862500Y-111600000D03*
X123862500Y-112250000D03*
X123862500Y-112900000D03*
X125637500Y-112900000D03*
X125637500Y-112250000D03*
X125637500Y-111600000D03*
D18*
X124750000Y-112250000D03*
D19*
X122050000Y-120600000D03*
X122050000Y-122700000D03*
D13*
X124050000Y-124875000D03*
X124050000Y-123225000D03*
D20*
X122250000Y-117625000D03*
X122250000Y-119275000D03*
D13*
X123750000Y-104975000D03*
X123750000Y-103325000D03*
D12*
X124150000Y-98550000D03*
X127100000Y-98550000D03*
D11*
X124850000Y-100950000D03*
X126400000Y-100950000D03*
D12*
X129150000Y-98350000D03*
X132100000Y-98350000D03*
D10*
X127550000Y-104725000D03*
X127550000Y-103175000D03*
D17*
X123862500Y-94800000D03*
X123862500Y-95450000D03*
X123862500Y-96100000D03*
X125637500Y-96100000D03*
X125637500Y-95450000D03*
X125637500Y-94800000D03*
D18*
X124750000Y-95450000D03*
D13*
X124050000Y-108075000D03*
X124050000Y-106425000D03*
D12*
X124150000Y-81750000D03*
X127100000Y-81750000D03*
D20*
X122250000Y-100825000D03*
X122250000Y-102475000D03*
D19*
X122050000Y-103800000D03*
X122050000Y-105900000D03*
D21*
X129450000Y-86050000D03*
X133050000Y-86050000D03*
X129450000Y-119650000D03*
X133050000Y-119650000D03*
D14*
X126150000Y-103650000D03*
D15*
X126200000Y-103000000D03*
D14*
X126150000Y-102200000D03*
D15*
X124900000Y-102200000D03*
X124900000Y-103225000D03*
D16*
X125100000Y-103725000D03*
D20*
X122250000Y-84025000D03*
X122250000Y-85675000D03*
D14*
X126150000Y-86850000D03*
D15*
X126200000Y-86200000D03*
D14*
X126150000Y-85400000D03*
D15*
X124900000Y-85400000D03*
X124900000Y-86425000D03*
D16*
X125100000Y-86925000D03*
D17*
X123862500Y-78000000D03*
X123862500Y-78650000D03*
X123862500Y-79300000D03*
X125637500Y-79300000D03*
X125637500Y-78650000D03*
X125637500Y-78000000D03*
D18*
X124750000Y-78650000D03*
D21*
X129450000Y-102850000D03*
X133050000Y-102850000D03*
D13*
X123750000Y-88175000D03*
X123750000Y-86525000D03*
D12*
X129150000Y-81550000D03*
X132100000Y-81550000D03*
D14*
X126150000Y-70050000D03*
D15*
X126200000Y-69400000D03*
D14*
X126150000Y-68600000D03*
D15*
X124900000Y-68600000D03*
X124900000Y-69625000D03*
D16*
X125100000Y-70125000D03*
D19*
X122050000Y-87000000D03*
X122050000Y-89100000D03*
D13*
X123750000Y-71375000D03*
X123750000Y-69725000D03*
D12*
X129150000Y-64750000D03*
X132100000Y-64750000D03*
D13*
X124050000Y-91275000D03*
X124050000Y-89625000D03*
D10*
X127550000Y-87925000D03*
X127550000Y-86375000D03*
D11*
X124850000Y-84150000D03*
X126400000Y-84150000D03*
D10*
X127550000Y-71125000D03*
X127550000Y-69575000D03*
D21*
X129450000Y-69250000D03*
X133050000Y-69250000D03*
D13*
X124050000Y-74475000D03*
X124050000Y-72825000D03*
D19*
X122050000Y-70200000D03*
X122050000Y-72300000D03*
D13*
X123750000Y-54575000D03*
X123750000Y-52925000D03*
D20*
X122250000Y-67225000D03*
X122250000Y-68875000D03*
D14*
X126150000Y-53250000D03*
D15*
X126200000Y-52600000D03*
D14*
X126150000Y-51800000D03*
D15*
X124900000Y-51800000D03*
X124900000Y-52825000D03*
D16*
X125100000Y-53325000D03*
D12*
X124150000Y-48150000D03*
X127100000Y-48150000D03*
D11*
X124850000Y-50550000D03*
X126400000Y-50550000D03*
D17*
X123862500Y-61200000D03*
X123862500Y-61850000D03*
X123862500Y-62500000D03*
X125637500Y-62500000D03*
X125637500Y-61850000D03*
X125637500Y-61200000D03*
D18*
X124750000Y-61850000D03*
D12*
X124150000Y-64950000D03*
X127100000Y-64950000D03*
X129150000Y-47950000D03*
X132100000Y-47950000D03*
D11*
X124850000Y-67350000D03*
X126400000Y-67350000D03*
D10*
X127550000Y-54325000D03*
X127550000Y-52775000D03*
D17*
X123862500Y-44400000D03*
X123862500Y-45050000D03*
X123862500Y-45700000D03*
X125637500Y-45700000D03*
X125637500Y-45050000D03*
X125637500Y-44400000D03*
D18*
X124750000Y-45050000D03*
D21*
X129450000Y-52450000D03*
X133050000Y-52450000D03*
D19*
X122050000Y-53400000D03*
X122050000Y-55500000D03*
D13*
X124050000Y-57675000D03*
X124050000Y-56025000D03*
D20*
X122250000Y-50425000D03*
X122250000Y-52075000D03*
D10*
X110750000Y-121525000D03*
X110750000Y-119975000D03*
D11*
X108050000Y-117750000D03*
X109600000Y-117750000D03*
D12*
X112350000Y-115150000D03*
X115300000Y-115150000D03*
D13*
X106950000Y-121775000D03*
X106950000Y-120125000D03*
D14*
X109350000Y-120450000D03*
D15*
X109400000Y-119800000D03*
D14*
X109350000Y-119000000D03*
D15*
X108100000Y-119000000D03*
X108100000Y-120025000D03*
D16*
X108300000Y-120525000D03*
D12*
X107350000Y-115350000D03*
X110300000Y-115350000D03*
D17*
X107062500Y-111600000D03*
X107062500Y-112250000D03*
X107062500Y-112900000D03*
X108837500Y-112900000D03*
X108837500Y-112250000D03*
X108837500Y-111600000D03*
D18*
X107950000Y-112250000D03*
D19*
X105250000Y-120600000D03*
X105250000Y-122700000D03*
D13*
X107250000Y-124875000D03*
X107250000Y-123225000D03*
D20*
X105450000Y-117625000D03*
X105450000Y-119275000D03*
D13*
X106950000Y-104975000D03*
X106950000Y-103325000D03*
D12*
X107350000Y-98550000D03*
X110300000Y-98550000D03*
D11*
X108050000Y-100950000D03*
X109600000Y-100950000D03*
D12*
X112350000Y-98350000D03*
X115300000Y-98350000D03*
D10*
X110750000Y-104725000D03*
X110750000Y-103175000D03*
D17*
X107062500Y-94800000D03*
X107062500Y-95450000D03*
X107062500Y-96100000D03*
X108837500Y-96100000D03*
X108837500Y-95450000D03*
X108837500Y-94800000D03*
D18*
X107950000Y-95450000D03*
D13*
X107250000Y-108075000D03*
X107250000Y-106425000D03*
D12*
X107350000Y-81750000D03*
X110300000Y-81750000D03*
D20*
X105450000Y-100825000D03*
X105450000Y-102475000D03*
D19*
X105250000Y-103800000D03*
X105250000Y-105900000D03*
D21*
X112650000Y-86050000D03*
X116250000Y-86050000D03*
X112650000Y-119650000D03*
X116250000Y-119650000D03*
D14*
X109350000Y-103650000D03*
D15*
X109400000Y-103000000D03*
D14*
X109350000Y-102200000D03*
D15*
X108100000Y-102200000D03*
X108100000Y-103225000D03*
D16*
X108300000Y-103725000D03*
D20*
X105450000Y-84025000D03*
X105450000Y-85675000D03*
D14*
X109350000Y-86850000D03*
D15*
X109400000Y-86200000D03*
D14*
X109350000Y-85400000D03*
D15*
X108100000Y-85400000D03*
X108100000Y-86425000D03*
D16*
X108300000Y-86925000D03*
D17*
X107062500Y-78000000D03*
X107062500Y-78650000D03*
X107062500Y-79300000D03*
X108837500Y-79300000D03*
X108837500Y-78650000D03*
X108837500Y-78000000D03*
D18*
X107950000Y-78650000D03*
D21*
X112650000Y-102850000D03*
X116250000Y-102850000D03*
D13*
X106950000Y-88175000D03*
X106950000Y-86525000D03*
D12*
X112350000Y-81550000D03*
X115300000Y-81550000D03*
D14*
X109350000Y-70050000D03*
D15*
X109400000Y-69400000D03*
D14*
X109350000Y-68600000D03*
D15*
X108100000Y-68600000D03*
X108100000Y-69625000D03*
D16*
X108300000Y-70125000D03*
D19*
X105250000Y-87000000D03*
X105250000Y-89100000D03*
D13*
X106950000Y-71375000D03*
X106950000Y-69725000D03*
D12*
X112350000Y-64750000D03*
X115300000Y-64750000D03*
D13*
X107250000Y-91275000D03*
X107250000Y-89625000D03*
D10*
X110750000Y-87925000D03*
X110750000Y-86375000D03*
D11*
X108050000Y-84150000D03*
X109600000Y-84150000D03*
D10*
X110750000Y-71125000D03*
X110750000Y-69575000D03*
D21*
X112650000Y-69250000D03*
X116250000Y-69250000D03*
D13*
X107250000Y-74475000D03*
X107250000Y-72825000D03*
D19*
X105250000Y-70200000D03*
X105250000Y-72300000D03*
D13*
X106950000Y-54575000D03*
X106950000Y-52925000D03*
D20*
X105450000Y-67225000D03*
X105450000Y-68875000D03*
D14*
X109350000Y-53250000D03*
D15*
X109400000Y-52600000D03*
D14*
X109350000Y-51800000D03*
D15*
X108100000Y-51800000D03*
X108100000Y-52825000D03*
D16*
X108300000Y-53325000D03*
D12*
X107350000Y-48150000D03*
X110300000Y-48150000D03*
D11*
X108050000Y-50550000D03*
X109600000Y-50550000D03*
D17*
X107062500Y-61200000D03*
X107062500Y-61850000D03*
X107062500Y-62500000D03*
X108837500Y-62500000D03*
X108837500Y-61850000D03*
X108837500Y-61200000D03*
D18*
X107950000Y-61850000D03*
D12*
X107350000Y-64950000D03*
X110300000Y-64950000D03*
X112350000Y-47950000D03*
X115300000Y-47950000D03*
D11*
X108050000Y-67350000D03*
X109600000Y-67350000D03*
D10*
X110750000Y-54325000D03*
X110750000Y-52775000D03*
D17*
X107062500Y-44400000D03*
X107062500Y-45050000D03*
X107062500Y-45700000D03*
X108837500Y-45700000D03*
X108837500Y-45050000D03*
X108837500Y-44400000D03*
D18*
X107950000Y-45050000D03*
D21*
X112650000Y-52450000D03*
X116250000Y-52450000D03*
D19*
X105250000Y-53400000D03*
X105250000Y-55500000D03*
D13*
X107250000Y-57675000D03*
X107250000Y-56025000D03*
D20*
X105450000Y-50425000D03*
X105450000Y-52075000D03*
D10*
X93950000Y-121525000D03*
X93950000Y-119975000D03*
D11*
X91250000Y-117750000D03*
X92800000Y-117750000D03*
D12*
X95550000Y-115150000D03*
X98500000Y-115150000D03*
D13*
X90150000Y-121775000D03*
X90150000Y-120125000D03*
D14*
X92550000Y-120450000D03*
D15*
X92600000Y-119800000D03*
D14*
X92550000Y-119000000D03*
D15*
X91300000Y-119000000D03*
X91300000Y-120025000D03*
D16*
X91500000Y-120525000D03*
D12*
X90550000Y-115350000D03*
X93500000Y-115350000D03*
D17*
X90262500Y-111600000D03*
X90262500Y-112250000D03*
X90262500Y-112900000D03*
X92037500Y-112900000D03*
X92037500Y-112250000D03*
X92037500Y-111600000D03*
D18*
X91150000Y-112250000D03*
D19*
X88450000Y-120600000D03*
X88450000Y-122700000D03*
D13*
X90450000Y-124875000D03*
X90450000Y-123225000D03*
D20*
X88650000Y-117625000D03*
X88650000Y-119275000D03*
D13*
X90150000Y-104975000D03*
X90150000Y-103325000D03*
D12*
X90550000Y-98550000D03*
X93500000Y-98550000D03*
D11*
X91250000Y-100950000D03*
X92800000Y-100950000D03*
D12*
X95550000Y-98350000D03*
X98500000Y-98350000D03*
D10*
X93950000Y-104725000D03*
X93950000Y-103175000D03*
D17*
X90262500Y-94800000D03*
X90262500Y-95450000D03*
X90262500Y-96100000D03*
X92037500Y-96100000D03*
X92037500Y-95450000D03*
X92037500Y-94800000D03*
D18*
X91150000Y-95450000D03*
D13*
X90450000Y-108075000D03*
X90450000Y-106425000D03*
D12*
X90550000Y-81750000D03*
X93500000Y-81750000D03*
D20*
X88650000Y-100825000D03*
X88650000Y-102475000D03*
D19*
X88450000Y-103800000D03*
X88450000Y-105900000D03*
D21*
X95850000Y-86050000D03*
X99450000Y-86050000D03*
X95850000Y-119650000D03*
X99450000Y-119650000D03*
D14*
X92550000Y-103650000D03*
D15*
X92600000Y-103000000D03*
D14*
X92550000Y-102200000D03*
D15*
X91300000Y-102200000D03*
X91300000Y-103225000D03*
D16*
X91500000Y-103725000D03*
D20*
X88650000Y-84025000D03*
X88650000Y-85675000D03*
D14*
X92550000Y-86850000D03*
D15*
X92600000Y-86200000D03*
D14*
X92550000Y-85400000D03*
D15*
X91300000Y-85400000D03*
X91300000Y-86425000D03*
D16*
X91500000Y-86925000D03*
D17*
X90262500Y-78000000D03*
X90262500Y-78650000D03*
X90262500Y-79300000D03*
X92037500Y-79300000D03*
X92037500Y-78650000D03*
X92037500Y-78000000D03*
D18*
X91150000Y-78650000D03*
D21*
X95850000Y-102850000D03*
X99450000Y-102850000D03*
D13*
X90150000Y-88175000D03*
X90150000Y-86525000D03*
D12*
X95550000Y-81550000D03*
X98500000Y-81550000D03*
D14*
X92550000Y-70050000D03*
D15*
X92600000Y-69400000D03*
D14*
X92550000Y-68600000D03*
D15*
X91300000Y-68600000D03*
X91300000Y-69625000D03*
D16*
X91500000Y-70125000D03*
D19*
X88450000Y-87000000D03*
X88450000Y-89100000D03*
D13*
X90150000Y-71375000D03*
X90150000Y-69725000D03*
D12*
X95550000Y-64750000D03*
X98500000Y-64750000D03*
D13*
X90450000Y-91275000D03*
X90450000Y-89625000D03*
D10*
X93950000Y-87925000D03*
X93950000Y-86375000D03*
D11*
X91250000Y-84150000D03*
X92800000Y-84150000D03*
D10*
X93950000Y-71125000D03*
X93950000Y-69575000D03*
D21*
X95850000Y-69250000D03*
X99450000Y-69250000D03*
D13*
X90450000Y-74475000D03*
X90450000Y-72825000D03*
D19*
X88450000Y-70200000D03*
X88450000Y-72300000D03*
D13*
X90150000Y-54575000D03*
X90150000Y-52925000D03*
D20*
X88650000Y-67225000D03*
X88650000Y-68875000D03*
D14*
X92550000Y-53250000D03*
D15*
X92600000Y-52600000D03*
D14*
X92550000Y-51800000D03*
D15*
X91300000Y-51800000D03*
X91300000Y-52825000D03*
D16*
X91500000Y-53325000D03*
D12*
X90550000Y-48150000D03*
X93500000Y-48150000D03*
D11*
X91250000Y-50550000D03*
X92800000Y-50550000D03*
D17*
X90262500Y-61200000D03*
X90262500Y-61850000D03*
X90262500Y-62500000D03*
X92037500Y-62500000D03*
X92037500Y-61850000D03*
X92037500Y-61200000D03*
D18*
X91150000Y-61850000D03*
D12*
X90550000Y-64950000D03*
X93500000Y-64950000D03*
X95550000Y-47950000D03*
X98500000Y-47950000D03*
D11*
X91250000Y-67350000D03*
X92800000Y-67350000D03*
D10*
X93950000Y-54325000D03*
X93950000Y-52775000D03*
D17*
X90262500Y-44400000D03*
X90262500Y-45050000D03*
X90262500Y-45700000D03*
X92037500Y-45700000D03*
X92037500Y-45050000D03*
X92037500Y-44400000D03*
D18*
X91150000Y-45050000D03*
D21*
X95850000Y-52450000D03*
X99450000Y-52450000D03*
D19*
X88450000Y-53400000D03*
X88450000Y-55500000D03*
D13*
X90450000Y-57675000D03*
X90450000Y-56025000D03*
D20*
X88650000Y-50425000D03*
X88650000Y-52075000D03*
D13*
X73350000Y-121775000D03*
X73350000Y-120125000D03*
D14*
X75750000Y-120450000D03*
D15*
X75800000Y-119800000D03*
D14*
X75750000Y-119000000D03*
D15*
X74500000Y-119000000D03*
X74500000Y-120025000D03*
D16*
X74700000Y-120525000D03*
D12*
X73750000Y-115350000D03*
X76700000Y-115350000D03*
D11*
X74450000Y-117750000D03*
X76000000Y-117750000D03*
D12*
X78750000Y-115150000D03*
X81700000Y-115150000D03*
D10*
X77150000Y-121525000D03*
X77150000Y-119975000D03*
D17*
X73462500Y-111600000D03*
X73462500Y-112250000D03*
X73462500Y-112900000D03*
X75237500Y-112900000D03*
X75237500Y-112250000D03*
X75237500Y-111600000D03*
D18*
X74350000Y-112250000D03*
D21*
X79050000Y-119650000D03*
X82650000Y-119650000D03*
D19*
X71650000Y-120600000D03*
X71650000Y-122700000D03*
D13*
X73650000Y-124875000D03*
X73650000Y-123225000D03*
D20*
X71850000Y-117625000D03*
X71850000Y-119275000D03*
D13*
X73350000Y-104975000D03*
X73350000Y-103325000D03*
D14*
X75750000Y-103650000D03*
D15*
X75800000Y-103000000D03*
D14*
X75750000Y-102200000D03*
D15*
X74500000Y-102200000D03*
X74500000Y-103225000D03*
D16*
X74700000Y-103725000D03*
D12*
X73750000Y-98550000D03*
X76700000Y-98550000D03*
D11*
X74450000Y-100950000D03*
X76000000Y-100950000D03*
D12*
X78750000Y-98350000D03*
X81700000Y-98350000D03*
D10*
X77150000Y-104725000D03*
X77150000Y-103175000D03*
D17*
X73462500Y-94800000D03*
X73462500Y-95450000D03*
X73462500Y-96100000D03*
X75237500Y-96100000D03*
X75237500Y-95450000D03*
X75237500Y-94800000D03*
D18*
X74350000Y-95450000D03*
D21*
X79050000Y-102850000D03*
X82650000Y-102850000D03*
D19*
X71650000Y-103800000D03*
X71650000Y-105900000D03*
D13*
X73650000Y-108075000D03*
X73650000Y-106425000D03*
D20*
X71850000Y-100825000D03*
X71850000Y-102475000D03*
D13*
X73350000Y-88175000D03*
X73350000Y-86525000D03*
D14*
X75750000Y-86850000D03*
D15*
X75800000Y-86200000D03*
D14*
X75750000Y-85400000D03*
D15*
X74500000Y-85400000D03*
X74500000Y-86425000D03*
D16*
X74700000Y-86925000D03*
D12*
X73750000Y-81750000D03*
X76700000Y-81750000D03*
D11*
X74450000Y-84150000D03*
X76000000Y-84150000D03*
D12*
X78750000Y-81550000D03*
X81700000Y-81550000D03*
D10*
X77150000Y-87925000D03*
X77150000Y-86375000D03*
D17*
X73462500Y-78000000D03*
X73462500Y-78650000D03*
X73462500Y-79300000D03*
X75237500Y-79300000D03*
X75237500Y-78650000D03*
X75237500Y-78000000D03*
D18*
X74350000Y-78650000D03*
D21*
X79050000Y-86050000D03*
X82650000Y-86050000D03*
D19*
X71650000Y-87000000D03*
X71650000Y-89100000D03*
D13*
X73650000Y-91275000D03*
X73650000Y-89625000D03*
D20*
X71850000Y-84025000D03*
X71850000Y-85675000D03*
D13*
X73350000Y-71375000D03*
X73350000Y-69725000D03*
D14*
X75750000Y-70050000D03*
D15*
X75800000Y-69400000D03*
D14*
X75750000Y-68600000D03*
D15*
X74500000Y-68600000D03*
X74500000Y-69625000D03*
D16*
X74700000Y-70125000D03*
D12*
X73750000Y-64950000D03*
X76700000Y-64950000D03*
D11*
X74450000Y-67350000D03*
X76000000Y-67350000D03*
D12*
X78750000Y-64750000D03*
X81700000Y-64750000D03*
D10*
X77150000Y-71125000D03*
X77150000Y-69575000D03*
D17*
X73462500Y-61200000D03*
X73462500Y-61850000D03*
X73462500Y-62500000D03*
X75237500Y-62500000D03*
X75237500Y-61850000D03*
X75237500Y-61200000D03*
D18*
X74350000Y-61850000D03*
D21*
X79050000Y-69250000D03*
X82650000Y-69250000D03*
D19*
X71650000Y-70200000D03*
X71650000Y-72300000D03*
D13*
X73650000Y-74475000D03*
X73650000Y-72825000D03*
D20*
X71850000Y-67225000D03*
X71850000Y-68875000D03*
D14*
X75750000Y-53250000D03*
D15*
X75800000Y-52600000D03*
D14*
X75750000Y-51800000D03*
D15*
X74500000Y-51800000D03*
X74500000Y-52825000D03*
D16*
X74700000Y-53325000D03*
D11*
X74450000Y-50550000D03*
X76000000Y-50550000D03*
D10*
X77150000Y-54325000D03*
X77150000Y-52775000D03*
D12*
X73750000Y-48150000D03*
X76700000Y-48150000D03*
X78750000Y-47950000D03*
X81700000Y-47950000D03*
D13*
X73350000Y-54575000D03*
X73350000Y-52925000D03*
D17*
X73462500Y-44400000D03*
X73462500Y-45050000D03*
X73462500Y-45700000D03*
X75237500Y-45700000D03*
X75237500Y-45050000D03*
X75237500Y-44400000D03*
D18*
X74350000Y-45050000D03*
D21*
X79050000Y-52450000D03*
X82650000Y-52450000D03*
D19*
X71650000Y-53400000D03*
X71650000Y-55500000D03*
D13*
X73650000Y-57675000D03*
X73650000Y-56025000D03*
D20*
X71850000Y-50425000D03*
X71850000Y-52075000D03*
M02*
