G04 #@! TF.GenerationSoftware,KiCad,Pcbnew,7.0.9*
G04 #@! TF.CreationDate,2024-07-27T16:50:16+02:00*
G04 #@! TF.ProjectId,Nutzen,4e75747a-656e-42e6-9b69-6361645f7063,rev?*
G04 #@! TF.SameCoordinates,Original*
G04 #@! TF.FileFunction,Paste,Top*
G04 #@! TF.FilePolarity,Positive*
%FSLAX46Y46*%
G04 Gerber Fmt 4.6, Leading zero omitted, Abs format (unit mm)*
G04 Created by KiCad (PCBNEW 7.0.9) date 2024-07-27 16:50:16*
%MOMM*%
%LPD*%
G01*
G04 APERTURE LIST*
G04 Aperture macros list*
%AMRoundRect*
0 Rectangle with rounded corners*
0 $1 Rounding radius*
0 $2 $3 $4 $5 $6 $7 $8 $9 X,Y pos of 4 corners*
0 Add a 4 corners polygon primitive as box body*
4,1,4,$2,$3,$4,$5,$6,$7,$8,$9,$2,$3,0*
0 Add four circle primitives for the rounded corners*
1,1,$1+$1,$2,$3*
1,1,$1+$1,$4,$5*
1,1,$1+$1,$6,$7*
1,1,$1+$1,$8,$9*
0 Add four rect primitives between the rounded corners*
20,1,$1+$1,$2,$3,$4,$5,0*
20,1,$1+$1,$4,$5,$6,$7,0*
20,1,$1+$1,$6,$7,$8,$9,0*
20,1,$1+$1,$8,$9,$2,$3,0*%
G04 Aperture macros list end*
%ADD10C,0.100000*%
%ADD11RoundRect,0.200000X0.275000X-0.200000X0.275000X0.200000X-0.275000X0.200000X-0.275000X-0.200000X0*%
%ADD12RoundRect,0.050000X0.250000X0.050000X-0.250000X0.050000X-0.250000X-0.050000X0.250000X-0.050000X0*%
%ADD13RoundRect,0.050000X0.300000X0.050000X-0.300000X0.050000X-0.300000X-0.050000X0.300000X-0.050000X0*%
%ADD14R,1.500000X4.000000*%
%ADD15RoundRect,0.225000X0.250000X-0.225000X0.250000X0.225000X-0.250000X0.225000X-0.250000X-0.225000X0*%
%ADD16RoundRect,0.160000X-0.245000X-0.160000X0.245000X-0.160000X0.245000X0.160000X-0.245000X0.160000X0*%
%ADD17RoundRect,0.093750X-0.093750X-0.106250X0.093750X-0.106250X0.093750X0.106250X-0.093750X0.106250X0*%
%ADD18RoundRect,0.250000X-0.325000X-1.100000X0.325000X-1.100000X0.325000X1.100000X-0.325000X1.100000X0*%
%ADD19RoundRect,0.112500X-0.112500X0.187500X-0.112500X-0.187500X0.112500X-0.187500X0.112500X0.187500X0*%
%ADD20RoundRect,0.200000X-0.275000X0.200000X-0.275000X-0.200000X0.275000X-0.200000X0.275000X0.200000X0*%
%ADD21RoundRect,0.225000X-0.225000X-0.250000X0.225000X-0.250000X0.225000X0.250000X-0.225000X0.250000X0*%
G04 APERTURE END LIST*
D10*
X151300000Y-93150000D02*
X150700000Y-93150000D01*
X151300000Y-93050000D02*
X151300000Y-93150000D01*
X150700000Y-93150000D02*
X150700000Y-93050000D01*
X150700000Y-93050000D02*
X151300000Y-93050000D01*
X150225000Y-93225000D02*
X149325000Y-93225000D01*
X150225000Y-92925000D02*
X150225000Y-93225000D01*
X150125000Y-93225000D02*
X150125000Y-92925000D01*
X150125000Y-92925000D02*
X150225000Y-92925000D01*
X149325000Y-93225000D02*
X149325000Y-93125000D01*
X149325000Y-93125000D02*
X150225000Y-93125000D01*
X100900000Y-109950000D02*
X100300000Y-109950000D01*
X100900000Y-109850000D02*
X100900000Y-109950000D01*
X100300000Y-109950000D02*
X100300000Y-109850000D01*
X100300000Y-109850000D02*
X100900000Y-109850000D01*
X99825000Y-110025000D02*
X98925000Y-110025000D01*
X99825000Y-109725000D02*
X99825000Y-110025000D01*
X99725000Y-110025000D02*
X99725000Y-109725000D01*
X99725000Y-109725000D02*
X99825000Y-109725000D01*
X98925000Y-110025000D02*
X98925000Y-109925000D01*
X98925000Y-109925000D02*
X99825000Y-109925000D01*
X84100000Y-93150000D02*
X83500000Y-93150000D01*
X84100000Y-93050000D02*
X84100000Y-93150000D01*
X83500000Y-93150000D02*
X83500000Y-93050000D01*
X83500000Y-93050000D02*
X84100000Y-93050000D01*
X83025000Y-93225000D02*
X82125000Y-93225000D01*
X83025000Y-92925000D02*
X83025000Y-93225000D01*
X82925000Y-93225000D02*
X82925000Y-92925000D01*
X82925000Y-92925000D02*
X83025000Y-92925000D01*
X82125000Y-93225000D02*
X82125000Y-93125000D01*
X82125000Y-93125000D02*
X83025000Y-93125000D01*
X117700000Y-59550000D02*
X117100000Y-59550000D01*
X117700000Y-59450000D02*
X117700000Y-59550000D01*
X117100000Y-59550000D02*
X117100000Y-59450000D01*
X117100000Y-59450000D02*
X117700000Y-59450000D01*
X116625000Y-59625000D02*
X115725000Y-59625000D01*
X116625000Y-59325000D02*
X116625000Y-59625000D01*
X116525000Y-59625000D02*
X116525000Y-59325000D01*
X116525000Y-59325000D02*
X116625000Y-59325000D01*
X115725000Y-59625000D02*
X115725000Y-59525000D01*
X115725000Y-59525000D02*
X116625000Y-59525000D01*
X117700000Y-76350000D02*
X117100000Y-76350000D01*
X117700000Y-76250000D02*
X117700000Y-76350000D01*
X117100000Y-76350000D02*
X117100000Y-76250000D01*
X117100000Y-76250000D02*
X117700000Y-76250000D01*
X116625000Y-76425000D02*
X115725000Y-76425000D01*
X116625000Y-76125000D02*
X116625000Y-76425000D01*
X116525000Y-76425000D02*
X116525000Y-76125000D01*
X116525000Y-76125000D02*
X116625000Y-76125000D01*
X115725000Y-76425000D02*
X115725000Y-76325000D01*
X115725000Y-76325000D02*
X116625000Y-76325000D01*
X100900000Y-93150000D02*
X100300000Y-93150000D01*
X100900000Y-93050000D02*
X100900000Y-93150000D01*
X100300000Y-93150000D02*
X100300000Y-93050000D01*
X100300000Y-93050000D02*
X100900000Y-93050000D01*
X99825000Y-93225000D02*
X98925000Y-93225000D01*
X99825000Y-92925000D02*
X99825000Y-93225000D01*
X99725000Y-93225000D02*
X99725000Y-92925000D01*
X99725000Y-92925000D02*
X99825000Y-92925000D01*
X98925000Y-93225000D02*
X98925000Y-93125000D01*
X98925000Y-93125000D02*
X99825000Y-93125000D01*
X151300000Y-109950000D02*
X150700000Y-109950000D01*
X151300000Y-109850000D02*
X151300000Y-109950000D01*
X150700000Y-109950000D02*
X150700000Y-109850000D01*
X150700000Y-109850000D02*
X151300000Y-109850000D01*
X150225000Y-110025000D02*
X149325000Y-110025000D01*
X150225000Y-109725000D02*
X150225000Y-110025000D01*
X150125000Y-110025000D02*
X150125000Y-109725000D01*
X150125000Y-109725000D02*
X150225000Y-109725000D01*
X149325000Y-110025000D02*
X149325000Y-109925000D01*
X149325000Y-109925000D02*
X150225000Y-109925000D01*
X151300000Y-59550000D02*
X150700000Y-59550000D01*
X151300000Y-59450000D02*
X151300000Y-59550000D01*
X150700000Y-59550000D02*
X150700000Y-59450000D01*
X150700000Y-59450000D02*
X151300000Y-59450000D01*
X150225000Y-59625000D02*
X149325000Y-59625000D01*
X150225000Y-59325000D02*
X150225000Y-59625000D01*
X150125000Y-59625000D02*
X150125000Y-59325000D01*
X150125000Y-59325000D02*
X150225000Y-59325000D01*
X149325000Y-59625000D02*
X149325000Y-59525000D01*
X149325000Y-59525000D02*
X150225000Y-59525000D01*
X134500000Y-93150000D02*
X133900000Y-93150000D01*
X134500000Y-93050000D02*
X134500000Y-93150000D01*
X133900000Y-93150000D02*
X133900000Y-93050000D01*
X133900000Y-93050000D02*
X134500000Y-93050000D01*
X133425000Y-93225000D02*
X132525000Y-93225000D01*
X133425000Y-92925000D02*
X133425000Y-93225000D01*
X133325000Y-93225000D02*
X133325000Y-92925000D01*
X133325000Y-92925000D02*
X133425000Y-92925000D01*
X132525000Y-93225000D02*
X132525000Y-93125000D01*
X132525000Y-93125000D02*
X133425000Y-93125000D01*
X100900000Y-76350000D02*
X100300000Y-76350000D01*
X100900000Y-76250000D02*
X100900000Y-76350000D01*
X100300000Y-76350000D02*
X100300000Y-76250000D01*
X100300000Y-76250000D02*
X100900000Y-76250000D01*
X99825000Y-76425000D02*
X98925000Y-76425000D01*
X99825000Y-76125000D02*
X99825000Y-76425000D01*
X99725000Y-76425000D02*
X99725000Y-76125000D01*
X99725000Y-76125000D02*
X99825000Y-76125000D01*
X98925000Y-76425000D02*
X98925000Y-76325000D01*
X98925000Y-76325000D02*
X99825000Y-76325000D01*
X84100000Y-76350000D02*
X83500000Y-76350000D01*
X84100000Y-76250000D02*
X84100000Y-76350000D01*
X83500000Y-76350000D02*
X83500000Y-76250000D01*
X83500000Y-76250000D02*
X84100000Y-76250000D01*
X83025000Y-76425000D02*
X82125000Y-76425000D01*
X83025000Y-76125000D02*
X83025000Y-76425000D01*
X82925000Y-76425000D02*
X82925000Y-76125000D01*
X82925000Y-76125000D02*
X83025000Y-76125000D01*
X82125000Y-76425000D02*
X82125000Y-76325000D01*
X82125000Y-76325000D02*
X83025000Y-76325000D01*
X134500000Y-76350000D02*
X133900000Y-76350000D01*
X134500000Y-76250000D02*
X134500000Y-76350000D01*
X133900000Y-76350000D02*
X133900000Y-76250000D01*
X133900000Y-76250000D02*
X134500000Y-76250000D01*
X133425000Y-76425000D02*
X132525000Y-76425000D01*
X133425000Y-76125000D02*
X133425000Y-76425000D01*
X133325000Y-76425000D02*
X133325000Y-76125000D01*
X133325000Y-76125000D02*
X133425000Y-76125000D01*
X132525000Y-76425000D02*
X132525000Y-76325000D01*
X132525000Y-76325000D02*
X133425000Y-76325000D01*
X84100000Y-42750000D02*
X83500000Y-42750000D01*
X84100000Y-42650000D02*
X84100000Y-42750000D01*
X83500000Y-42750000D02*
X83500000Y-42650000D01*
X83500000Y-42650000D02*
X84100000Y-42650000D01*
X83025000Y-42825000D02*
X82125000Y-42825000D01*
X83025000Y-42525000D02*
X83025000Y-42825000D01*
X82925000Y-42825000D02*
X82925000Y-42525000D01*
X82925000Y-42525000D02*
X83025000Y-42525000D01*
X82125000Y-42825000D02*
X82125000Y-42725000D01*
X82125000Y-42725000D02*
X83025000Y-42725000D01*
X100900000Y-59550000D02*
X100300000Y-59550000D01*
X100900000Y-59450000D02*
X100900000Y-59550000D01*
X100300000Y-59550000D02*
X100300000Y-59450000D01*
X100300000Y-59450000D02*
X100900000Y-59450000D01*
X99825000Y-59625000D02*
X98925000Y-59625000D01*
X99825000Y-59325000D02*
X99825000Y-59625000D01*
X99725000Y-59625000D02*
X99725000Y-59325000D01*
X99725000Y-59325000D02*
X99825000Y-59325000D01*
X98925000Y-59625000D02*
X98925000Y-59525000D01*
X98925000Y-59525000D02*
X99825000Y-59525000D01*
X151300000Y-76350000D02*
X150700000Y-76350000D01*
X151300000Y-76250000D02*
X151300000Y-76350000D01*
X150700000Y-76350000D02*
X150700000Y-76250000D01*
X150700000Y-76250000D02*
X151300000Y-76250000D01*
X150225000Y-76425000D02*
X149325000Y-76425000D01*
X150225000Y-76125000D02*
X150225000Y-76425000D01*
X150125000Y-76425000D02*
X150125000Y-76125000D01*
X150125000Y-76125000D02*
X150225000Y-76125000D01*
X149325000Y-76425000D02*
X149325000Y-76325000D01*
X149325000Y-76325000D02*
X150225000Y-76325000D01*
X117700000Y-42750000D02*
X117100000Y-42750000D01*
X117700000Y-42650000D02*
X117700000Y-42750000D01*
X117100000Y-42750000D02*
X117100000Y-42650000D01*
X117100000Y-42650000D02*
X117700000Y-42650000D01*
X116625000Y-42825000D02*
X115725000Y-42825000D01*
X116625000Y-42525000D02*
X116625000Y-42825000D01*
X116525000Y-42825000D02*
X116525000Y-42525000D01*
X116525000Y-42525000D02*
X116625000Y-42525000D01*
X115725000Y-42825000D02*
X115725000Y-42725000D01*
X115725000Y-42725000D02*
X116625000Y-42725000D01*
X117700000Y-93150000D02*
X117100000Y-93150000D01*
X117700000Y-93050000D02*
X117700000Y-93150000D01*
X117100000Y-93150000D02*
X117100000Y-93050000D01*
X117100000Y-93050000D02*
X117700000Y-93050000D01*
X116625000Y-93225000D02*
X115725000Y-93225000D01*
X116625000Y-92925000D02*
X116625000Y-93225000D01*
X116525000Y-93225000D02*
X116525000Y-92925000D01*
X116525000Y-92925000D02*
X116625000Y-92925000D01*
X115725000Y-93225000D02*
X115725000Y-93125000D01*
X115725000Y-93125000D02*
X116625000Y-93125000D01*
X84100000Y-109950000D02*
X83500000Y-109950000D01*
X84100000Y-109850000D02*
X84100000Y-109950000D01*
X83500000Y-109950000D02*
X83500000Y-109850000D01*
X83500000Y-109850000D02*
X84100000Y-109850000D01*
X83025000Y-110025000D02*
X82125000Y-110025000D01*
X83025000Y-109725000D02*
X83025000Y-110025000D01*
X82925000Y-110025000D02*
X82925000Y-109725000D01*
X82925000Y-109725000D02*
X83025000Y-109725000D01*
X82125000Y-110025000D02*
X82125000Y-109925000D01*
X82125000Y-109925000D02*
X83025000Y-109925000D01*
X134500000Y-42750000D02*
X133900000Y-42750000D01*
X134500000Y-42650000D02*
X134500000Y-42750000D01*
X133900000Y-42750000D02*
X133900000Y-42650000D01*
X133900000Y-42650000D02*
X134500000Y-42650000D01*
X133425000Y-42825000D02*
X132525000Y-42825000D01*
X133425000Y-42525000D02*
X133425000Y-42825000D01*
X133325000Y-42825000D02*
X133325000Y-42525000D01*
X133325000Y-42525000D02*
X133425000Y-42525000D01*
X132525000Y-42825000D02*
X132525000Y-42725000D01*
X132525000Y-42725000D02*
X133425000Y-42725000D01*
X117700000Y-109950000D02*
X117100000Y-109950000D01*
X117700000Y-109850000D02*
X117700000Y-109950000D01*
X117100000Y-109950000D02*
X117100000Y-109850000D01*
X117100000Y-109850000D02*
X117700000Y-109850000D01*
X116625000Y-110025000D02*
X115725000Y-110025000D01*
X116625000Y-109725000D02*
X116625000Y-110025000D01*
X116525000Y-110025000D02*
X116525000Y-109725000D01*
X116525000Y-109725000D02*
X116625000Y-109725000D01*
X115725000Y-110025000D02*
X115725000Y-109925000D01*
X115725000Y-109925000D02*
X116625000Y-109925000D01*
X134500000Y-59550000D02*
X133900000Y-59550000D01*
X134500000Y-59450000D02*
X134500000Y-59550000D01*
X133900000Y-59550000D02*
X133900000Y-59450000D01*
X133900000Y-59450000D02*
X134500000Y-59450000D01*
X133425000Y-59625000D02*
X132525000Y-59625000D01*
X133425000Y-59325000D02*
X133425000Y-59625000D01*
X133325000Y-59625000D02*
X133325000Y-59325000D01*
X133325000Y-59325000D02*
X133425000Y-59325000D01*
X132525000Y-59625000D02*
X132525000Y-59525000D01*
X132525000Y-59525000D02*
X133425000Y-59525000D01*
X134500000Y-109950000D02*
X133900000Y-109950000D01*
X134500000Y-109850000D02*
X134500000Y-109950000D01*
X133900000Y-109950000D02*
X133900000Y-109850000D01*
X133900000Y-109850000D02*
X134500000Y-109850000D01*
X133425000Y-110025000D02*
X132525000Y-110025000D01*
X133425000Y-109725000D02*
X133425000Y-110025000D01*
X133325000Y-110025000D02*
X133325000Y-109725000D01*
X133325000Y-109725000D02*
X133425000Y-109725000D01*
X132525000Y-110025000D02*
X132525000Y-109925000D01*
X132525000Y-109925000D02*
X133425000Y-109925000D01*
X151300000Y-42750000D02*
X150700000Y-42750000D01*
X151300000Y-42650000D02*
X151300000Y-42750000D01*
X150700000Y-42750000D02*
X150700000Y-42650000D01*
X150700000Y-42650000D02*
X151300000Y-42650000D01*
X150225000Y-42825000D02*
X149325000Y-42825000D01*
X150225000Y-42525000D02*
X150225000Y-42825000D01*
X150125000Y-42825000D02*
X150125000Y-42525000D01*
X150125000Y-42525000D02*
X150225000Y-42525000D01*
X149325000Y-42825000D02*
X149325000Y-42725000D01*
X149325000Y-42725000D02*
X150225000Y-42725000D01*
X84100000Y-59550000D02*
X83500000Y-59550000D01*
X84100000Y-59450000D02*
X84100000Y-59550000D01*
X83500000Y-59550000D02*
X83500000Y-59450000D01*
X83500000Y-59450000D02*
X84100000Y-59450000D01*
X83025000Y-59625000D02*
X82125000Y-59625000D01*
X83025000Y-59325000D02*
X83025000Y-59625000D01*
X82925000Y-59625000D02*
X82925000Y-59325000D01*
X82925000Y-59325000D02*
X83025000Y-59325000D01*
X82125000Y-59625000D02*
X82125000Y-59525000D01*
X82125000Y-59525000D02*
X83025000Y-59525000D01*
X100900000Y-42750000D02*
X100300000Y-42750000D01*
X100900000Y-42650000D02*
X100900000Y-42750000D01*
X100300000Y-42750000D02*
X100300000Y-42650000D01*
X100300000Y-42650000D02*
X100900000Y-42650000D01*
X99825000Y-42825000D02*
X98925000Y-42825000D01*
X99825000Y-42525000D02*
X99825000Y-42825000D01*
X99725000Y-42825000D02*
X99725000Y-42525000D01*
X99725000Y-42525000D02*
X99825000Y-42525000D01*
X98925000Y-42825000D02*
X98925000Y-42725000D01*
X98925000Y-42725000D02*
X99825000Y-42725000D01*
D11*
X98400000Y-63925000D03*
X98400000Y-62275000D03*
D12*
X150950000Y-92450000D03*
D13*
X150900000Y-91650000D03*
D12*
X149650000Y-91650000D03*
X149650000Y-92675000D03*
D14*
X120600000Y-92300000D03*
X124200000Y-92300000D03*
D12*
X100550000Y-109250000D03*
D13*
X100500000Y-108450000D03*
D12*
X99250000Y-108450000D03*
X99250000Y-109475000D03*
D15*
X152300000Y-94175000D03*
X152300000Y-92625000D03*
D16*
X132700000Y-34100000D03*
X132700000Y-34900000D03*
D17*
X131812500Y-33850000D03*
X131812500Y-34500000D03*
X131812500Y-35150000D03*
X133587500Y-35150000D03*
X133587500Y-34500000D03*
X133587500Y-33850000D03*
D11*
X115200000Y-47125000D03*
X115200000Y-45475000D03*
D18*
X153900000Y-54200000D03*
X156850000Y-54200000D03*
D12*
X83750000Y-92450000D03*
D13*
X83700000Y-91650000D03*
D12*
X82450000Y-91650000D03*
X82450000Y-92675000D03*
D11*
X98400000Y-47125000D03*
X98400000Y-45475000D03*
D18*
X132100000Y-54400000D03*
X135050000Y-54400000D03*
D14*
X87000000Y-109100000D03*
X90600000Y-109100000D03*
D19*
X130000000Y-110050000D03*
X130000000Y-112150000D03*
D11*
X81300000Y-111225000D03*
X81300000Y-109575000D03*
D14*
X87000000Y-41900000D03*
X90600000Y-41900000D03*
D18*
X103500000Y-71000000D03*
X106450000Y-71000000D03*
D20*
X79800000Y-39875000D03*
X79800000Y-41525000D03*
X79800000Y-107075000D03*
X79800000Y-108725000D03*
D11*
X114900000Y-60825000D03*
X114900000Y-59175000D03*
D20*
X147000000Y-90275000D03*
X147000000Y-91925000D03*
D12*
X117350000Y-58850000D03*
D13*
X117300000Y-58050000D03*
D12*
X116050000Y-58050000D03*
X116050000Y-59075000D03*
D14*
X87000000Y-92300000D03*
X90600000Y-92300000D03*
D12*
X117350000Y-75650000D03*
D13*
X117300000Y-74850000D03*
D12*
X116050000Y-74850000D03*
X116050000Y-75875000D03*
D15*
X118700000Y-94175000D03*
X118700000Y-92625000D03*
D11*
X81300000Y-60825000D03*
X81300000Y-59175000D03*
D20*
X79800000Y-56675000D03*
X79800000Y-58325000D03*
D12*
X100550000Y-92450000D03*
D13*
X100500000Y-91650000D03*
D12*
X99250000Y-91650000D03*
X99250000Y-92675000D03*
D20*
X147000000Y-73475000D03*
X147000000Y-75125000D03*
D19*
X79600000Y-93250000D03*
X79600000Y-95350000D03*
D11*
X148500000Y-94425000D03*
X148500000Y-92775000D03*
D12*
X150950000Y-109250000D03*
D13*
X150900000Y-108450000D03*
D12*
X149650000Y-108450000D03*
X149650000Y-109475000D03*
D16*
X115900000Y-50900000D03*
X115900000Y-51700000D03*
D17*
X115012500Y-50650000D03*
X115012500Y-51300000D03*
X115012500Y-51950000D03*
X116787500Y-51950000D03*
X116787500Y-51300000D03*
X116787500Y-50650000D03*
D18*
X98500000Y-104800000D03*
X101450000Y-104800000D03*
D16*
X149500000Y-34100000D03*
X149500000Y-34900000D03*
D17*
X148612500Y-33850000D03*
X148612500Y-34500000D03*
X148612500Y-35150000D03*
X150387500Y-35150000D03*
X150387500Y-34500000D03*
X150387500Y-33850000D03*
D18*
X137100000Y-37400000D03*
X140050000Y-37400000D03*
D15*
X152300000Y-110975000D03*
X152300000Y-109425000D03*
D21*
X149600000Y-56800000D03*
X151150000Y-56800000D03*
D16*
X82300000Y-84500000D03*
X82300000Y-85300000D03*
D17*
X81412500Y-84250000D03*
X81412500Y-84900000D03*
X81412500Y-85550000D03*
X83187500Y-85550000D03*
X83187500Y-84900000D03*
X83187500Y-84250000D03*
D18*
X81700000Y-54400000D03*
X84650000Y-54400000D03*
D16*
X115900000Y-34100000D03*
X115900000Y-34900000D03*
D17*
X115012500Y-33850000D03*
X115012500Y-34500000D03*
X115012500Y-35150000D03*
X116787500Y-35150000D03*
X116787500Y-34500000D03*
X116787500Y-33850000D03*
D15*
X152300000Y-43775000D03*
X152300000Y-42225000D03*
D18*
X137100000Y-71000000D03*
X140050000Y-71000000D03*
D14*
X137400000Y-75500000D03*
X141000000Y-75500000D03*
X120600000Y-58700000D03*
X124200000Y-58700000D03*
D11*
X115200000Y-63925000D03*
X115200000Y-62275000D03*
D19*
X113200000Y-110050000D03*
X113200000Y-112150000D03*
X113200000Y-76450000D03*
X113200000Y-78550000D03*
D20*
X113400000Y-56675000D03*
X113400000Y-58325000D03*
D14*
X120600000Y-109100000D03*
X124200000Y-109100000D03*
D21*
X149600000Y-90400000D03*
X151150000Y-90400000D03*
D16*
X132700000Y-101300000D03*
X132700000Y-102100000D03*
D17*
X131812500Y-101050000D03*
X131812500Y-101700000D03*
X131812500Y-102350000D03*
X133587500Y-102350000D03*
X133587500Y-101700000D03*
X133587500Y-101050000D03*
D11*
X114900000Y-77625000D03*
X114900000Y-75975000D03*
X81600000Y-63925000D03*
X81600000Y-62275000D03*
D12*
X150950000Y-58850000D03*
D13*
X150900000Y-58050000D03*
D12*
X149650000Y-58050000D03*
X149650000Y-59075000D03*
D19*
X79600000Y-110050000D03*
X79600000Y-112150000D03*
D12*
X134150000Y-92450000D03*
D13*
X134100000Y-91650000D03*
D12*
X132850000Y-91650000D03*
X132850000Y-92675000D03*
D11*
X81300000Y-77625000D03*
X81300000Y-75975000D03*
D16*
X115900000Y-67700000D03*
X115900000Y-68500000D03*
D17*
X115012500Y-67450000D03*
X115012500Y-68100000D03*
X115012500Y-68750000D03*
X116787500Y-68750000D03*
X116787500Y-68100000D03*
X116787500Y-67450000D03*
D18*
X103500000Y-37400000D03*
X106450000Y-37400000D03*
D16*
X132700000Y-67700000D03*
X132700000Y-68500000D03*
D17*
X131812500Y-67450000D03*
X131812500Y-68100000D03*
X131812500Y-68750000D03*
X133587500Y-68750000D03*
X133587500Y-68100000D03*
X133587500Y-67450000D03*
D11*
X148800000Y-47125000D03*
X148800000Y-45475000D03*
D15*
X85100000Y-110975000D03*
X85100000Y-109425000D03*
D11*
X132000000Y-114325000D03*
X132000000Y-112675000D03*
X132000000Y-97525000D03*
X132000000Y-95875000D03*
D16*
X82300000Y-34100000D03*
X82300000Y-34900000D03*
D17*
X81412500Y-33850000D03*
X81412500Y-34500000D03*
X81412500Y-35150000D03*
X83187500Y-35150000D03*
X83187500Y-34500000D03*
X83187500Y-33850000D03*
D11*
X131700000Y-44025000D03*
X131700000Y-42375000D03*
D21*
X149600000Y-40000000D03*
X151150000Y-40000000D03*
D12*
X100550000Y-75650000D03*
D13*
X100500000Y-74850000D03*
D12*
X99250000Y-74850000D03*
X99250000Y-75875000D03*
D14*
X137400000Y-92300000D03*
X141000000Y-92300000D03*
D18*
X98500000Y-71200000D03*
X101450000Y-71200000D03*
D19*
X113200000Y-59650000D03*
X113200000Y-61750000D03*
D18*
X120300000Y-54200000D03*
X123250000Y-54200000D03*
D19*
X96400000Y-59650000D03*
X96400000Y-61750000D03*
D20*
X96600000Y-90275000D03*
X96600000Y-91925000D03*
D12*
X83750000Y-75650000D03*
D13*
X83700000Y-74850000D03*
D12*
X82450000Y-74850000D03*
X82450000Y-75875000D03*
X134150000Y-75650000D03*
D13*
X134100000Y-74850000D03*
D12*
X132850000Y-74850000D03*
X132850000Y-75875000D03*
D16*
X99100000Y-34100000D03*
X99100000Y-34900000D03*
D17*
X98212500Y-33850000D03*
X98212500Y-34500000D03*
X98212500Y-35150000D03*
X99987500Y-35150000D03*
X99987500Y-34500000D03*
X99987500Y-33850000D03*
D14*
X137400000Y-109100000D03*
X141000000Y-109100000D03*
D12*
X83750000Y-42050000D03*
D13*
X83700000Y-41250000D03*
D12*
X82450000Y-41250000D03*
X82450000Y-42275000D03*
D15*
X85100000Y-43775000D03*
X85100000Y-42225000D03*
D14*
X103800000Y-58700000D03*
X107400000Y-58700000D03*
D11*
X131700000Y-77625000D03*
X131700000Y-75975000D03*
D18*
X137100000Y-54200000D03*
X140050000Y-54200000D03*
X148900000Y-54400000D03*
X151850000Y-54400000D03*
D11*
X98100000Y-60825000D03*
X98100000Y-59175000D03*
D12*
X100550000Y-58850000D03*
D13*
X100500000Y-58050000D03*
D12*
X99250000Y-58050000D03*
X99250000Y-59075000D03*
D21*
X82400000Y-107200000D03*
X83950000Y-107200000D03*
D18*
X81700000Y-104800000D03*
X84650000Y-104800000D03*
D20*
X147000000Y-56675000D03*
X147000000Y-58325000D03*
D21*
X132800000Y-40000000D03*
X134350000Y-40000000D03*
D19*
X130000000Y-93250000D03*
X130000000Y-95350000D03*
D21*
X132800000Y-107200000D03*
X134350000Y-107200000D03*
D18*
X86700000Y-54200000D03*
X89650000Y-54200000D03*
D11*
X98100000Y-111225000D03*
X98100000Y-109575000D03*
D14*
X137400000Y-41900000D03*
X141000000Y-41900000D03*
D18*
X148900000Y-104800000D03*
X151850000Y-104800000D03*
D11*
X81300000Y-94425000D03*
X81300000Y-92775000D03*
X132000000Y-80725000D03*
X132000000Y-79075000D03*
D16*
X149500000Y-50900000D03*
X149500000Y-51700000D03*
D17*
X148612500Y-50650000D03*
X148612500Y-51300000D03*
X148612500Y-51950000D03*
X150387500Y-51950000D03*
X150387500Y-51300000D03*
X150387500Y-50650000D03*
D21*
X82400000Y-56800000D03*
X83950000Y-56800000D03*
D18*
X115300000Y-37600000D03*
X118250000Y-37600000D03*
D16*
X99100000Y-101300000D03*
X99100000Y-102100000D03*
D17*
X98212500Y-101050000D03*
X98212500Y-101700000D03*
X98212500Y-102350000D03*
X99987500Y-102350000D03*
X99987500Y-101700000D03*
X99987500Y-101050000D03*
D16*
X99100000Y-50900000D03*
X99100000Y-51700000D03*
D17*
X98212500Y-50650000D03*
X98212500Y-51300000D03*
X98212500Y-51950000D03*
X99987500Y-51950000D03*
X99987500Y-51300000D03*
X99987500Y-50650000D03*
D18*
X120300000Y-37400000D03*
X123250000Y-37400000D03*
D14*
X154200000Y-75500000D03*
X157800000Y-75500000D03*
D15*
X118700000Y-60575000D03*
X118700000Y-59025000D03*
D11*
X115200000Y-97525000D03*
X115200000Y-95875000D03*
D20*
X96600000Y-73475000D03*
X96600000Y-75125000D03*
D15*
X152300000Y-77375000D03*
X152300000Y-75825000D03*
D19*
X130000000Y-59650000D03*
X130000000Y-61750000D03*
D21*
X116000000Y-40000000D03*
X117550000Y-40000000D03*
D11*
X81300000Y-44025000D03*
X81300000Y-42375000D03*
X81600000Y-97525000D03*
X81600000Y-95875000D03*
D14*
X87000000Y-58700000D03*
X90600000Y-58700000D03*
D18*
X120300000Y-87800000D03*
X123250000Y-87800000D03*
D12*
X150950000Y-75650000D03*
D13*
X150900000Y-74850000D03*
D12*
X149650000Y-74850000D03*
X149650000Y-75875000D03*
D18*
X103500000Y-87800000D03*
X106450000Y-87800000D03*
D11*
X114900000Y-94425000D03*
X114900000Y-92775000D03*
D14*
X137400000Y-58700000D03*
X141000000Y-58700000D03*
X154200000Y-109100000D03*
X157800000Y-109100000D03*
D11*
X148500000Y-60825000D03*
X148500000Y-59175000D03*
D16*
X82300000Y-101300000D03*
X82300000Y-102100000D03*
D17*
X81412500Y-101050000D03*
X81412500Y-101700000D03*
X81412500Y-102350000D03*
X83187500Y-102350000D03*
X83187500Y-101700000D03*
X83187500Y-101050000D03*
D15*
X135500000Y-77375000D03*
X135500000Y-75825000D03*
D20*
X130200000Y-90275000D03*
X130200000Y-91925000D03*
D11*
X148500000Y-44025000D03*
X148500000Y-42375000D03*
D20*
X147000000Y-107075000D03*
X147000000Y-108725000D03*
D18*
X137100000Y-87800000D03*
X140050000Y-87800000D03*
X86700000Y-71000000D03*
X89650000Y-71000000D03*
D20*
X130200000Y-73475000D03*
X130200000Y-75125000D03*
D15*
X101900000Y-77375000D03*
X101900000Y-75825000D03*
D11*
X148500000Y-77625000D03*
X148500000Y-75975000D03*
D21*
X82400000Y-73600000D03*
X83950000Y-73600000D03*
D15*
X101900000Y-110975000D03*
X101900000Y-109425000D03*
D11*
X148500000Y-111225000D03*
X148500000Y-109575000D03*
D12*
X117350000Y-42050000D03*
D13*
X117300000Y-41250000D03*
D12*
X116050000Y-41250000D03*
X116050000Y-42275000D03*
D20*
X96600000Y-39875000D03*
X96600000Y-41525000D03*
D16*
X82300000Y-67700000D03*
X82300000Y-68500000D03*
D17*
X81412500Y-67450000D03*
X81412500Y-68100000D03*
X81412500Y-68750000D03*
X83187500Y-68750000D03*
X83187500Y-68100000D03*
X83187500Y-67450000D03*
D18*
X115300000Y-88000000D03*
X118250000Y-88000000D03*
D12*
X117350000Y-92450000D03*
D13*
X117300000Y-91650000D03*
D12*
X116050000Y-91650000D03*
X116050000Y-92675000D03*
D11*
X98400000Y-80725000D03*
X98400000Y-79075000D03*
D15*
X101900000Y-60575000D03*
X101900000Y-59025000D03*
D11*
X98100000Y-77625000D03*
X98100000Y-75975000D03*
D18*
X120300000Y-104600000D03*
X123250000Y-104600000D03*
X115300000Y-71200000D03*
X118250000Y-71200000D03*
D11*
X81600000Y-47125000D03*
X81600000Y-45475000D03*
D12*
X83750000Y-109250000D03*
D13*
X83700000Y-108450000D03*
D12*
X82450000Y-108450000D03*
X82450000Y-109475000D03*
D18*
X81700000Y-71200000D03*
X84650000Y-71200000D03*
D14*
X154200000Y-41900000D03*
X157800000Y-41900000D03*
D11*
X131700000Y-94425000D03*
X131700000Y-92775000D03*
D18*
X153900000Y-37400000D03*
X156850000Y-37400000D03*
X137100000Y-104600000D03*
X140050000Y-104600000D03*
D11*
X98100000Y-94425000D03*
X98100000Y-92775000D03*
D18*
X120300000Y-71000000D03*
X123250000Y-71000000D03*
D12*
X134150000Y-42050000D03*
D13*
X134100000Y-41250000D03*
D12*
X132850000Y-41250000D03*
X132850000Y-42275000D03*
D20*
X96600000Y-107075000D03*
X96600000Y-108725000D03*
D18*
X103500000Y-104600000D03*
X106450000Y-104600000D03*
D14*
X103800000Y-109100000D03*
X107400000Y-109100000D03*
D19*
X79600000Y-59650000D03*
X79600000Y-61750000D03*
X113200000Y-93250000D03*
X113200000Y-95350000D03*
D18*
X148900000Y-88000000D03*
X151850000Y-88000000D03*
D21*
X116000000Y-73600000D03*
X117550000Y-73600000D03*
D18*
X115300000Y-54400000D03*
X118250000Y-54400000D03*
D15*
X101900000Y-94175000D03*
X101900000Y-92625000D03*
D11*
X132000000Y-47125000D03*
X132000000Y-45475000D03*
D16*
X99100000Y-84500000D03*
X99100000Y-85300000D03*
D17*
X98212500Y-84250000D03*
X98212500Y-84900000D03*
X98212500Y-85550000D03*
X99987500Y-85550000D03*
X99987500Y-84900000D03*
X99987500Y-84250000D03*
D18*
X148900000Y-37600000D03*
X151850000Y-37600000D03*
D20*
X130200000Y-56675000D03*
X130200000Y-58325000D03*
D16*
X132700000Y-50900000D03*
X132700000Y-51700000D03*
D17*
X131812500Y-50650000D03*
X131812500Y-51300000D03*
X131812500Y-51950000D03*
X133587500Y-51950000D03*
X133587500Y-51300000D03*
X133587500Y-50650000D03*
D21*
X99200000Y-73600000D03*
X100750000Y-73600000D03*
D18*
X81700000Y-37600000D03*
X84650000Y-37600000D03*
D16*
X149500000Y-84500000D03*
X149500000Y-85300000D03*
D17*
X148612500Y-84250000D03*
X148612500Y-84900000D03*
X148612500Y-85550000D03*
X150387500Y-85550000D03*
X150387500Y-84900000D03*
X150387500Y-84250000D03*
D15*
X135500000Y-94175000D03*
X135500000Y-92625000D03*
D21*
X132800000Y-56800000D03*
X134350000Y-56800000D03*
X116000000Y-107200000D03*
X117550000Y-107200000D03*
D14*
X154200000Y-92300000D03*
X157800000Y-92300000D03*
D20*
X130200000Y-107075000D03*
X130200000Y-108725000D03*
D11*
X114900000Y-111225000D03*
X114900000Y-109575000D03*
D19*
X96400000Y-76450000D03*
X96400000Y-78550000D03*
X113200000Y-42850000D03*
X113200000Y-44950000D03*
D12*
X117350000Y-109250000D03*
D13*
X117300000Y-108450000D03*
D12*
X116050000Y-108450000D03*
X116050000Y-109475000D03*
D11*
X98400000Y-97525000D03*
X98400000Y-95875000D03*
D16*
X115900000Y-84500000D03*
X115900000Y-85300000D03*
D17*
X115012500Y-84250000D03*
X115012500Y-84900000D03*
X115012500Y-85550000D03*
X116787500Y-85550000D03*
X116787500Y-84900000D03*
X116787500Y-84250000D03*
D16*
X115900000Y-101300000D03*
X115900000Y-102100000D03*
D17*
X115012500Y-101050000D03*
X115012500Y-101700000D03*
X115012500Y-102350000D03*
X116787500Y-102350000D03*
X116787500Y-101700000D03*
X116787500Y-101050000D03*
D21*
X99200000Y-40000000D03*
X100750000Y-40000000D03*
D12*
X134150000Y-58850000D03*
D13*
X134100000Y-58050000D03*
D12*
X132850000Y-58050000D03*
X132850000Y-59075000D03*
D19*
X146800000Y-59650000D03*
X146800000Y-61750000D03*
D15*
X85100000Y-94175000D03*
X85100000Y-92625000D03*
D19*
X96400000Y-93250000D03*
X96400000Y-95350000D03*
D15*
X152300000Y-60575000D03*
X152300000Y-59025000D03*
D20*
X113400000Y-73475000D03*
X113400000Y-75125000D03*
D21*
X82400000Y-40000000D03*
X83950000Y-40000000D03*
X116000000Y-90400000D03*
X117550000Y-90400000D03*
D19*
X130000000Y-76450000D03*
X130000000Y-78550000D03*
D18*
X153900000Y-104600000D03*
X156850000Y-104600000D03*
D16*
X149500000Y-101300000D03*
X149500000Y-102100000D03*
D17*
X148612500Y-101050000D03*
X148612500Y-101700000D03*
X148612500Y-102350000D03*
X150387500Y-102350000D03*
X150387500Y-101700000D03*
X150387500Y-101050000D03*
D21*
X132800000Y-73600000D03*
X134350000Y-73600000D03*
D11*
X98100000Y-44025000D03*
X98100000Y-42375000D03*
X148800000Y-80725000D03*
X148800000Y-79075000D03*
D15*
X85100000Y-77375000D03*
X85100000Y-75825000D03*
X85100000Y-60575000D03*
X85100000Y-59025000D03*
D20*
X79800000Y-73475000D03*
X79800000Y-75125000D03*
D18*
X148900000Y-71200000D03*
X151850000Y-71200000D03*
D19*
X146800000Y-110050000D03*
X146800000Y-112150000D03*
D18*
X98500000Y-37600000D03*
X101450000Y-37600000D03*
D16*
X132700000Y-84500000D03*
X132700000Y-85300000D03*
D17*
X131812500Y-84250000D03*
X131812500Y-84900000D03*
X131812500Y-85550000D03*
X133587500Y-85550000D03*
X133587500Y-84900000D03*
X133587500Y-84250000D03*
D11*
X98400000Y-114325000D03*
X98400000Y-112675000D03*
D14*
X87000000Y-75500000D03*
X90600000Y-75500000D03*
D15*
X101900000Y-43775000D03*
X101900000Y-42225000D03*
D11*
X148800000Y-97525000D03*
X148800000Y-95875000D03*
X148800000Y-114325000D03*
X148800000Y-112675000D03*
D20*
X130200000Y-39875000D03*
X130200000Y-41525000D03*
D19*
X96400000Y-110050000D03*
X96400000Y-112150000D03*
D20*
X113400000Y-39875000D03*
X113400000Y-41525000D03*
D18*
X103500000Y-54200000D03*
X106450000Y-54200000D03*
D11*
X114900000Y-44025000D03*
X114900000Y-42375000D03*
D19*
X146800000Y-76450000D03*
X146800000Y-78550000D03*
X79600000Y-42850000D03*
X79600000Y-44950000D03*
D18*
X132100000Y-71200000D03*
X135050000Y-71200000D03*
D12*
X134150000Y-109250000D03*
D13*
X134100000Y-108450000D03*
D12*
X132850000Y-108450000D03*
X132850000Y-109475000D03*
D14*
X103800000Y-92300000D03*
X107400000Y-92300000D03*
X120600000Y-75500000D03*
X124200000Y-75500000D03*
D19*
X146800000Y-93250000D03*
X146800000Y-95350000D03*
D16*
X82300000Y-50900000D03*
X82300000Y-51700000D03*
D17*
X81412500Y-50650000D03*
X81412500Y-51300000D03*
X81412500Y-51950000D03*
X83187500Y-51950000D03*
X83187500Y-51300000D03*
X83187500Y-50650000D03*
D21*
X116000000Y-56800000D03*
X117550000Y-56800000D03*
D11*
X81600000Y-80725000D03*
X81600000Y-79075000D03*
D19*
X146800000Y-42850000D03*
X146800000Y-44950000D03*
D14*
X103800000Y-75500000D03*
X107400000Y-75500000D03*
D18*
X81700000Y-88000000D03*
X84650000Y-88000000D03*
D19*
X79600000Y-76450000D03*
X79600000Y-78550000D03*
D20*
X79800000Y-90275000D03*
X79800000Y-91925000D03*
D11*
X131700000Y-60825000D03*
X131700000Y-59175000D03*
D21*
X149600000Y-73600000D03*
X151150000Y-73600000D03*
D12*
X150950000Y-42050000D03*
D13*
X150900000Y-41250000D03*
D12*
X149650000Y-41250000D03*
X149650000Y-42275000D03*
D18*
X86700000Y-87800000D03*
X89650000Y-87800000D03*
D20*
X96600000Y-56675000D03*
X96600000Y-58325000D03*
D18*
X132100000Y-88000000D03*
X135050000Y-88000000D03*
D11*
X131700000Y-111225000D03*
X131700000Y-109575000D03*
D15*
X118700000Y-110975000D03*
X118700000Y-109425000D03*
X135500000Y-60575000D03*
X135500000Y-59025000D03*
D21*
X99200000Y-56800000D03*
X100750000Y-56800000D03*
D14*
X120600000Y-41900000D03*
X124200000Y-41900000D03*
D18*
X86700000Y-37400000D03*
X89650000Y-37400000D03*
D15*
X135500000Y-110975000D03*
X135500000Y-109425000D03*
D21*
X99200000Y-90400000D03*
X100750000Y-90400000D03*
X149600000Y-107200000D03*
X151150000Y-107200000D03*
D15*
X118700000Y-77375000D03*
X118700000Y-75825000D03*
D18*
X132100000Y-104800000D03*
X135050000Y-104800000D03*
D16*
X99100000Y-67700000D03*
X99100000Y-68500000D03*
D17*
X98212500Y-67450000D03*
X98212500Y-68100000D03*
X98212500Y-68750000D03*
X99987500Y-68750000D03*
X99987500Y-68100000D03*
X99987500Y-67450000D03*
D18*
X98500000Y-54400000D03*
X101450000Y-54400000D03*
D21*
X99200000Y-107200000D03*
X100750000Y-107200000D03*
D15*
X118700000Y-43775000D03*
X118700000Y-42225000D03*
D20*
X113400000Y-90275000D03*
X113400000Y-91925000D03*
X147000000Y-39875000D03*
X147000000Y-41525000D03*
D19*
X130000000Y-42850000D03*
X130000000Y-44950000D03*
D18*
X98500000Y-88000000D03*
X101450000Y-88000000D03*
D12*
X83750000Y-58850000D03*
D13*
X83700000Y-58050000D03*
D12*
X82450000Y-58050000D03*
X82450000Y-59075000D03*
D18*
X115300000Y-104800000D03*
X118250000Y-104800000D03*
D21*
X82400000Y-90400000D03*
X83950000Y-90400000D03*
D19*
X96400000Y-42850000D03*
X96400000Y-44950000D03*
D18*
X153900000Y-87800000D03*
X156850000Y-87800000D03*
X86700000Y-104600000D03*
X89650000Y-104600000D03*
D11*
X148800000Y-63925000D03*
X148800000Y-62275000D03*
D16*
X149500000Y-67700000D03*
X149500000Y-68500000D03*
D17*
X148612500Y-67450000D03*
X148612500Y-68100000D03*
X148612500Y-68750000D03*
X150387500Y-68750000D03*
X150387500Y-68100000D03*
X150387500Y-67450000D03*
D11*
X115200000Y-114325000D03*
X115200000Y-112675000D03*
D18*
X132100000Y-37600000D03*
X135050000Y-37600000D03*
D12*
X100550000Y-42050000D03*
D13*
X100500000Y-41250000D03*
D12*
X99250000Y-41250000D03*
X99250000Y-42275000D03*
D20*
X113400000Y-107075000D03*
X113400000Y-108725000D03*
D18*
X153900000Y-71000000D03*
X156850000Y-71000000D03*
D14*
X154200000Y-58700000D03*
X157800000Y-58700000D03*
D11*
X81600000Y-114325000D03*
X81600000Y-112675000D03*
D15*
X135500000Y-43775000D03*
X135500000Y-42225000D03*
D11*
X115200000Y-80725000D03*
X115200000Y-79075000D03*
X132000000Y-63925000D03*
X132000000Y-62275000D03*
D21*
X132800000Y-90400000D03*
X134350000Y-90400000D03*
D14*
X103800000Y-41900000D03*
X107400000Y-41900000D03*
M02*
