G04 #@! TF.GenerationSoftware,KiCad,Pcbnew,7.0.9*
G04 #@! TF.CreationDate,2024-01-01T14:05:58+01:00*
G04 #@! TF.ProjectId,Nutzen,4e75747a-656e-42e6-9b69-6361645f7063,rev?*
G04 #@! TF.SameCoordinates,Original*
G04 #@! TF.FileFunction,Profile,NP*
%FSLAX46Y46*%
G04 Gerber Fmt 4.6, Leading zero omitted, Abs format (unit mm)*
G04 Created by KiCad (PCBNEW 7.0.9) date 2024-01-01 14:05:58*
%MOMM*%
%LPD*%
G01*
G04 APERTURE LIST*
G04 #@! TA.AperFunction,Profile*
%ADD10C,0.100000*%
G04 #@! TD*
G04 APERTURE END LIST*
D10*
X86800000Y-140000000D02*
X86800000Y-123200000D01*
X137200000Y-56000000D02*
X137200000Y-72800000D01*
X86800000Y-72800000D02*
X86800000Y-56000000D01*
X86800000Y-106400000D02*
X103600000Y-106400000D01*
X103600000Y-89600000D02*
X103600000Y-106400000D01*
X86800000Y-123200000D02*
X70000000Y-123200000D01*
X154000000Y-123200000D02*
X137200000Y-123200000D01*
X103600000Y-123200000D02*
X103600000Y-106400000D01*
X86800000Y-72800000D02*
X86800000Y-89600000D01*
X86800000Y-56000000D02*
X70000000Y-56000000D01*
X103600000Y-106400000D02*
X86800000Y-106400000D01*
X137200000Y-56000000D02*
X120400000Y-56000000D01*
X86800000Y-89600000D02*
X70000000Y-89600000D01*
X120400000Y-72800000D02*
X120400000Y-89600000D01*
X103600000Y-123200000D02*
X120400000Y-123200000D01*
X86800000Y-123200000D02*
X86800000Y-140000000D01*
X103600000Y-56000000D02*
X86800000Y-56000000D01*
X120400000Y-123200000D02*
X120400000Y-106400000D01*
X137200000Y-140000000D02*
X137200000Y-123200000D01*
X120400000Y-140000000D02*
X120400000Y-123200000D01*
X86800000Y-72800000D02*
X103600000Y-72800000D01*
X154000000Y-56000000D02*
X137200000Y-56000000D01*
X120400000Y-106400000D02*
X120400000Y-89600000D01*
X86800000Y-106400000D02*
X86800000Y-123200000D01*
X154000000Y-72800000D02*
X154000000Y-56000000D01*
X137200000Y-106400000D02*
X137200000Y-89600000D01*
X120400000Y-123200000D02*
X103600000Y-123200000D01*
X103600000Y-106400000D02*
X103600000Y-89600000D01*
X137200000Y-89600000D02*
X137200000Y-72800000D01*
X70000000Y-89600000D02*
X86800000Y-89600000D01*
X137200000Y-140000000D02*
X154000000Y-140000000D01*
X70000000Y-106400000D02*
X70000000Y-123200000D01*
X70000000Y-106400000D02*
X86800000Y-106400000D01*
X120400000Y-106400000D02*
X103600000Y-106400000D01*
X103600000Y-106400000D02*
X120400000Y-106400000D01*
X120400000Y-123200000D02*
X120400000Y-140000000D01*
X137200000Y-123200000D02*
X120400000Y-123200000D01*
X70000000Y-89600000D02*
X70000000Y-106400000D01*
X103600000Y-140000000D02*
X120400000Y-140000000D01*
X86800000Y-140000000D02*
X103600000Y-140000000D01*
X86800000Y-89600000D02*
X86800000Y-72800000D01*
X154000000Y-123200000D02*
X154000000Y-106400000D01*
X120400000Y-72800000D02*
X120400000Y-56000000D01*
X137200000Y-72800000D02*
X120400000Y-72800000D01*
X103600000Y-123200000D02*
X86800000Y-123200000D01*
X103600000Y-106400000D02*
X103600000Y-123200000D01*
X103600000Y-72800000D02*
X120400000Y-72800000D01*
X137200000Y-72800000D02*
X137200000Y-89600000D01*
X137200000Y-72800000D02*
X137200000Y-56000000D01*
X70000000Y-123200000D02*
X86800000Y-123200000D01*
X86800000Y-56000000D02*
X86800000Y-72800000D01*
X103600000Y-89600000D02*
X86800000Y-89600000D01*
X86800000Y-89600000D02*
X103600000Y-89600000D01*
X103600000Y-89600000D02*
X120400000Y-89600000D01*
X120400000Y-123200000D02*
X137200000Y-123200000D01*
X154000000Y-106400000D02*
X137200000Y-106400000D01*
X137200000Y-123200000D02*
X154000000Y-123200000D01*
X120400000Y-140000000D02*
X137200000Y-140000000D01*
X120400000Y-89600000D02*
X137200000Y-89600000D01*
X86800000Y-123200000D02*
X103600000Y-123200000D01*
X120400000Y-89600000D02*
X120400000Y-106400000D01*
X137200000Y-106400000D02*
X154000000Y-106400000D01*
X137200000Y-89600000D02*
X154000000Y-89600000D01*
X137200000Y-106400000D02*
X137200000Y-123200000D01*
X103600000Y-72800000D02*
X86800000Y-72800000D01*
X103600000Y-140000000D02*
X103600000Y-123200000D01*
X120400000Y-89600000D02*
X103600000Y-89600000D01*
X154000000Y-72800000D02*
X137200000Y-72800000D01*
X154000000Y-106400000D02*
X154000000Y-89600000D01*
X120400000Y-106400000D02*
X137200000Y-106400000D01*
X120400000Y-89600000D02*
X120400000Y-72800000D01*
X120400000Y-56000000D02*
X103600000Y-56000000D01*
X154000000Y-89600000D02*
X154000000Y-72800000D01*
X103600000Y-89600000D02*
X103600000Y-72800000D01*
X103600000Y-72800000D02*
X103600000Y-89600000D01*
X86800000Y-106400000D02*
X86800000Y-89600000D01*
X137200000Y-89600000D02*
X120400000Y-89600000D01*
X137200000Y-123200000D02*
X137200000Y-106400000D01*
X70000000Y-72800000D02*
X70000000Y-89600000D01*
X86800000Y-123200000D02*
X86800000Y-106400000D01*
X70000000Y-123200000D02*
X70000000Y-140000000D01*
X86800000Y-72800000D02*
X70000000Y-72800000D01*
X137200000Y-89600000D02*
X137200000Y-106400000D01*
X137200000Y-123200000D02*
X137200000Y-140000000D01*
X120400000Y-106400000D02*
X120400000Y-123200000D01*
X70000000Y-56000000D02*
X70000000Y-72800000D01*
X137200000Y-72800000D02*
X154000000Y-72800000D01*
X120400000Y-72800000D02*
X103600000Y-72800000D01*
X103600000Y-123200000D02*
X103600000Y-140000000D01*
X70000000Y-140000000D02*
X86800000Y-140000000D01*
X86800000Y-89600000D02*
X86800000Y-106400000D01*
X103600000Y-56000000D02*
X103600000Y-72800000D01*
X103600000Y-72800000D02*
X103600000Y-56000000D01*
X154000000Y-89600000D02*
X137200000Y-89600000D01*
X137200000Y-106400000D02*
X120400000Y-106400000D01*
X154000000Y-140000000D02*
X154000000Y-123200000D01*
X120400000Y-72800000D02*
X137200000Y-72800000D01*
X70000000Y-72800000D02*
X86800000Y-72800000D01*
X86800000Y-106400000D02*
X70000000Y-106400000D01*
X120400000Y-56000000D02*
X120400000Y-72800000D01*
M02*
