%TF.GenerationSoftware,KiCad,Pcbnew,7.0.9*%
%TF.CreationDate,2024-01-01T14:06:12+01:00*%
%TF.ProjectId,Nutzen,4e75747a-656e-42e6-9b69-6361645f7063,rev?*%
%TF.SameCoordinates,Original*%
%TF.FileFunction,Drillmap*%
%TF.FilePolarity,Positive*%
%FSLAX45Y45*%
G04 Gerber Fmt 4.5, Leading zero omitted, Abs format (unit mm)*
G04 Created by KiCad (PCBNEW 7.0.9) date 2024-01-01 14:06:12*
%MOMM*%
%LPD*%
G01*
G04 APERTURE LIST*
%ADD10C,0.100000*%
%ADD11C,0.200000*%
G04 APERTURE END LIST*
D10*
X8680000Y-14000000D02*
X8680000Y-12320000D01*
X13720000Y-5600000D02*
X13720000Y-7280000D01*
X8680000Y-7280000D02*
X8680000Y-5600000D01*
X8680000Y-10640000D02*
X10360000Y-10640000D01*
X10360000Y-8960000D02*
X10360000Y-10640000D01*
X8680000Y-12320000D02*
X7000000Y-12320000D01*
X15400000Y-12320000D02*
X13720000Y-12320000D01*
X10360000Y-12320000D02*
X10360000Y-10640000D01*
X8680000Y-7280000D02*
X8680000Y-8960000D01*
X8680000Y-5600000D02*
X7000000Y-5600000D01*
X10360000Y-10640000D02*
X8680000Y-10640000D01*
X13720000Y-5600000D02*
X12040000Y-5600000D01*
X8680000Y-8960000D02*
X7000000Y-8960000D01*
X12040000Y-7280000D02*
X12040000Y-8960000D01*
X10360000Y-12320000D02*
X12040000Y-12320000D01*
X8680000Y-12320000D02*
X8680000Y-14000000D01*
X10360000Y-5600000D02*
X8680000Y-5600000D01*
X12040000Y-12320000D02*
X12040000Y-10640000D01*
X13720000Y-14000000D02*
X13720000Y-12320000D01*
X12040000Y-14000000D02*
X12040000Y-12320000D01*
X8680000Y-7280000D02*
X10360000Y-7280000D01*
X15400000Y-5600000D02*
X13720000Y-5600000D01*
X12040000Y-10640000D02*
X12040000Y-8960000D01*
X8680000Y-10640000D02*
X8680000Y-12320000D01*
X15400000Y-7280000D02*
X15400000Y-5600000D01*
X13720000Y-10640000D02*
X13720000Y-8960000D01*
X12040000Y-12320000D02*
X10360000Y-12320000D01*
X10360000Y-10640000D02*
X10360000Y-8960000D01*
X13720000Y-8960000D02*
X13720000Y-7280000D01*
X7000000Y-8960000D02*
X8680000Y-8960000D01*
X13720000Y-14000000D02*
X15400000Y-14000000D01*
X7000000Y-10640000D02*
X7000000Y-12320000D01*
X7000000Y-10640000D02*
X8680000Y-10640000D01*
X12040000Y-10640000D02*
X10360000Y-10640000D01*
X10360000Y-10640000D02*
X12040000Y-10640000D01*
X12040000Y-12320000D02*
X12040000Y-14000000D01*
X13720000Y-12320000D02*
X12040000Y-12320000D01*
X7000000Y-8960000D02*
X7000000Y-10640000D01*
X10360000Y-14000000D02*
X12040000Y-14000000D01*
X8680000Y-14000000D02*
X10360000Y-14000000D01*
X8680000Y-8960000D02*
X8680000Y-7280000D01*
X15400000Y-12320000D02*
X15400000Y-10640000D01*
X12040000Y-7280000D02*
X12040000Y-5600000D01*
X13720000Y-7280000D02*
X12040000Y-7280000D01*
X10360000Y-12320000D02*
X8680000Y-12320000D01*
X10360000Y-10640000D02*
X10360000Y-12320000D01*
X10360000Y-7280000D02*
X12040000Y-7280000D01*
X13720000Y-7280000D02*
X13720000Y-8960000D01*
X13720000Y-7280000D02*
X13720000Y-5600000D01*
X7000000Y-12320000D02*
X8680000Y-12320000D01*
X8680000Y-5600000D02*
X8680000Y-7280000D01*
X10360000Y-8960000D02*
X8680000Y-8960000D01*
X8680000Y-8960000D02*
X10360000Y-8960000D01*
X10360000Y-8960000D02*
X12040000Y-8960000D01*
X12040000Y-12320000D02*
X13720000Y-12320000D01*
X15400000Y-10640000D02*
X13720000Y-10640000D01*
X13720000Y-12320000D02*
X15400000Y-12320000D01*
X12040000Y-14000000D02*
X13720000Y-14000000D01*
X12040000Y-8960000D02*
X13720000Y-8960000D01*
X8680000Y-12320000D02*
X10360000Y-12320000D01*
X12040000Y-8960000D02*
X12040000Y-10640000D01*
X13720000Y-10640000D02*
X15400000Y-10640000D01*
X13720000Y-8960000D02*
X15400000Y-8960000D01*
X13720000Y-10640000D02*
X13720000Y-12320000D01*
X10360000Y-7280000D02*
X8680000Y-7280000D01*
X10360000Y-14000000D02*
X10360000Y-12320000D01*
X12040000Y-8960000D02*
X10360000Y-8960000D01*
X15400000Y-7280000D02*
X13720000Y-7280000D01*
X15400000Y-10640000D02*
X15400000Y-8960000D01*
X12040000Y-10640000D02*
X13720000Y-10640000D01*
X12040000Y-8960000D02*
X12040000Y-7280000D01*
X12040000Y-5600000D02*
X10360000Y-5600000D01*
X15400000Y-8960000D02*
X15400000Y-7280000D01*
X10360000Y-8960000D02*
X10360000Y-7280000D01*
X10360000Y-7280000D02*
X10360000Y-8960000D01*
X8680000Y-10640000D02*
X8680000Y-8960000D01*
X13720000Y-8960000D02*
X12040000Y-8960000D01*
X13720000Y-12320000D02*
X13720000Y-10640000D01*
X7000000Y-7280000D02*
X7000000Y-8960000D01*
X8680000Y-12320000D02*
X8680000Y-10640000D01*
X7000000Y-12320000D02*
X7000000Y-14000000D01*
X8680000Y-7280000D02*
X7000000Y-7280000D01*
X13720000Y-8960000D02*
X13720000Y-10640000D01*
X13720000Y-12320000D02*
X13720000Y-14000000D01*
X12040000Y-10640000D02*
X12040000Y-12320000D01*
X7000000Y-5600000D02*
X7000000Y-7280000D01*
X13720000Y-7280000D02*
X15400000Y-7280000D01*
X12040000Y-7280000D02*
X10360000Y-7280000D01*
X10360000Y-12320000D02*
X10360000Y-14000000D01*
X7000000Y-14000000D02*
X8680000Y-14000000D01*
X8680000Y-8960000D02*
X8680000Y-10640000D01*
X10360000Y-5600000D02*
X10360000Y-7280000D01*
X10360000Y-7280000D02*
X10360000Y-5600000D01*
X15400000Y-8960000D02*
X13720000Y-8960000D01*
X13720000Y-10640000D02*
X12040000Y-10640000D01*
X15400000Y-14000000D02*
X15400000Y-12320000D01*
X12040000Y-7280000D02*
X13720000Y-7280000D01*
X7000000Y-7280000D02*
X8680000Y-7280000D01*
X8680000Y-10640000D02*
X7000000Y-10640000D01*
X12040000Y-5600000D02*
X12040000Y-7280000D01*
D11*
D10*
X7050000Y-7060000D02*
X7080000Y-7090000D01*
X7080000Y-7060000D02*
X7050000Y-7090000D01*
X7050000Y-8740000D02*
X7080000Y-8770000D01*
X7080000Y-8740000D02*
X7050000Y-8770000D01*
X7050000Y-10420000D02*
X7080000Y-10450000D01*
X7080000Y-10420000D02*
X7050000Y-10450000D01*
X7050000Y-12100000D02*
X7080000Y-12130000D01*
X7080000Y-12100000D02*
X7050000Y-12130000D01*
X7050000Y-13780000D02*
X7080000Y-13810000D01*
X7080000Y-13780000D02*
X7050000Y-13810000D01*
X7115000Y-7060000D02*
X7145000Y-7090000D01*
X7145000Y-7060000D02*
X7115000Y-7090000D01*
X7115000Y-8740000D02*
X7145000Y-8770000D01*
X7145000Y-8740000D02*
X7115000Y-8770000D01*
X7115000Y-10420000D02*
X7145000Y-10450000D01*
X7145000Y-10420000D02*
X7115000Y-10450000D01*
X7115000Y-12100000D02*
X7145000Y-12130000D01*
X7145000Y-12100000D02*
X7115000Y-12130000D01*
X7115000Y-13780000D02*
X7145000Y-13810000D01*
X7145000Y-13780000D02*
X7115000Y-13810000D01*
X7125000Y-5785000D02*
X7155000Y-5815000D01*
X7155000Y-5785000D02*
X7125000Y-5815000D01*
X7125000Y-6185000D02*
X7155000Y-6215000D01*
X7155000Y-6185000D02*
X7125000Y-6215000D01*
X7125000Y-7465000D02*
X7155000Y-7495000D01*
X7155000Y-7465000D02*
X7125000Y-7495000D01*
X7125000Y-7865000D02*
X7155000Y-7895000D01*
X7155000Y-7865000D02*
X7125000Y-7895000D01*
X7125000Y-9145000D02*
X7155000Y-9175000D01*
X7155000Y-9145000D02*
X7125000Y-9175000D01*
X7125000Y-9545000D02*
X7155000Y-9575000D01*
X7155000Y-9545000D02*
X7125000Y-9575000D01*
X7125000Y-10825000D02*
X7155000Y-10855000D01*
X7155000Y-10825000D02*
X7125000Y-10855000D01*
X7125000Y-11225000D02*
X7155000Y-11255000D01*
X7155000Y-11225000D02*
X7125000Y-11255000D01*
X7125000Y-12505000D02*
X7155000Y-12535000D01*
X7155000Y-12505000D02*
X7125000Y-12535000D01*
X7125000Y-12905000D02*
X7155000Y-12935000D01*
X7155000Y-12905000D02*
X7125000Y-12935000D01*
X7175000Y-6935000D02*
X7205000Y-6965000D01*
X7205000Y-6935000D02*
X7175000Y-6965000D01*
X7175000Y-8615000D02*
X7205000Y-8645000D01*
X7205000Y-8615000D02*
X7175000Y-8645000D01*
X7175000Y-10295000D02*
X7205000Y-10325000D01*
X7205000Y-10295000D02*
X7175000Y-10325000D01*
X7175000Y-11975000D02*
X7205000Y-12005000D01*
X7205000Y-11975000D02*
X7175000Y-12005000D01*
X7175000Y-13655000D02*
X7205000Y-13685000D01*
X7205000Y-13655000D02*
X7175000Y-13685000D01*
X7190000Y-7060000D02*
X7220000Y-7090000D01*
X7220000Y-7060000D02*
X7190000Y-7090000D01*
X7190000Y-8740000D02*
X7220000Y-8770000D01*
X7220000Y-8740000D02*
X7190000Y-8770000D01*
X7190000Y-10420000D02*
X7220000Y-10450000D01*
X7220000Y-10420000D02*
X7190000Y-10450000D01*
X7190000Y-12100000D02*
X7220000Y-12130000D01*
X7220000Y-12100000D02*
X7190000Y-12130000D01*
X7190000Y-13780000D02*
X7220000Y-13810000D01*
X7220000Y-13780000D02*
X7190000Y-13810000D01*
X7240000Y-6935000D02*
X7270000Y-6965000D01*
X7270000Y-6935000D02*
X7240000Y-6965000D01*
X7240000Y-8615000D02*
X7270000Y-8645000D01*
X7270000Y-8615000D02*
X7240000Y-8645000D01*
X7240000Y-10295000D02*
X7270000Y-10325000D01*
X7270000Y-10295000D02*
X7240000Y-10325000D01*
X7240000Y-11975000D02*
X7270000Y-12005000D01*
X7270000Y-11975000D02*
X7240000Y-12005000D01*
X7240000Y-13655000D02*
X7270000Y-13685000D01*
X7270000Y-13655000D02*
X7240000Y-13685000D01*
X7290000Y-7140000D02*
X7320000Y-7170000D01*
X7320000Y-7140000D02*
X7290000Y-7170000D01*
X7290000Y-7210000D02*
X7320000Y-7240000D01*
X7320000Y-7210000D02*
X7290000Y-7240000D01*
X7290000Y-8820000D02*
X7320000Y-8850000D01*
X7320000Y-8820000D02*
X7290000Y-8850000D01*
X7290000Y-8890000D02*
X7320000Y-8920000D01*
X7320000Y-8890000D02*
X7290000Y-8920000D01*
X7290000Y-10500000D02*
X7320000Y-10530000D01*
X7320000Y-10500000D02*
X7290000Y-10530000D01*
X7290000Y-10570000D02*
X7320000Y-10600000D01*
X7320000Y-10570000D02*
X7290000Y-10600000D01*
X7290000Y-12180000D02*
X7320000Y-12210000D01*
X7320000Y-12180000D02*
X7290000Y-12210000D01*
X7290000Y-12250000D02*
X7320000Y-12280000D01*
X7320000Y-12250000D02*
X7290000Y-12280000D01*
X7290000Y-13860000D02*
X7320000Y-13890000D01*
X7320000Y-13860000D02*
X7290000Y-13890000D01*
X7290000Y-13930000D02*
X7320000Y-13960000D01*
X7320000Y-13930000D02*
X7290000Y-13960000D01*
X7305000Y-6935000D02*
X7335000Y-6965000D01*
X7335000Y-6935000D02*
X7305000Y-6965000D01*
X7305000Y-8615000D02*
X7335000Y-8645000D01*
X7335000Y-8615000D02*
X7305000Y-8645000D01*
X7305000Y-10295000D02*
X7335000Y-10325000D01*
X7335000Y-10295000D02*
X7305000Y-10325000D01*
X7305000Y-11975000D02*
X7335000Y-12005000D01*
X7335000Y-11975000D02*
X7305000Y-12005000D01*
X7305000Y-13655000D02*
X7335000Y-13685000D01*
X7335000Y-13655000D02*
X7305000Y-13685000D01*
X7335000Y-5775000D02*
X7365000Y-5805000D01*
X7365000Y-5775000D02*
X7335000Y-5805000D01*
X7335000Y-6195000D02*
X7365000Y-6225000D01*
X7365000Y-6195000D02*
X7335000Y-6225000D01*
X7335000Y-7455000D02*
X7365000Y-7485000D01*
X7365000Y-7455000D02*
X7335000Y-7485000D01*
X7335000Y-7875000D02*
X7365000Y-7905000D01*
X7365000Y-7875000D02*
X7335000Y-7905000D01*
X7335000Y-9135000D02*
X7365000Y-9165000D01*
X7365000Y-9135000D02*
X7335000Y-9165000D01*
X7335000Y-9555000D02*
X7365000Y-9585000D01*
X7365000Y-9555000D02*
X7335000Y-9585000D01*
X7335000Y-10815000D02*
X7365000Y-10845000D01*
X7365000Y-10815000D02*
X7335000Y-10845000D01*
X7335000Y-11235000D02*
X7365000Y-11265000D01*
X7365000Y-11235000D02*
X7335000Y-11265000D01*
X7335000Y-12495000D02*
X7365000Y-12525000D01*
X7365000Y-12495000D02*
X7335000Y-12525000D01*
X7335000Y-12915000D02*
X7365000Y-12945000D01*
X7365000Y-12915000D02*
X7335000Y-12945000D01*
X7365000Y-6935000D02*
X7395000Y-6965000D01*
X7395000Y-6935000D02*
X7365000Y-6965000D01*
X7365000Y-8615000D02*
X7395000Y-8645000D01*
X7395000Y-8615000D02*
X7365000Y-8645000D01*
X7365000Y-10295000D02*
X7395000Y-10325000D01*
X7395000Y-10295000D02*
X7365000Y-10325000D01*
X7365000Y-11975000D02*
X7395000Y-12005000D01*
X7395000Y-11975000D02*
X7365000Y-12005000D01*
X7365000Y-13655000D02*
X7395000Y-13685000D01*
X7395000Y-13655000D02*
X7365000Y-13685000D01*
X7385000Y-6315000D02*
X7415000Y-6345000D01*
X7415000Y-6315000D02*
X7385000Y-6345000D01*
X7385000Y-6425000D02*
X7415000Y-6455000D01*
X7415000Y-6425000D02*
X7385000Y-6455000D01*
X7385000Y-7995000D02*
X7415000Y-8025000D01*
X7415000Y-7995000D02*
X7385000Y-8025000D01*
X7385000Y-8105000D02*
X7415000Y-8135000D01*
X7415000Y-8105000D02*
X7385000Y-8135000D01*
X7385000Y-9675000D02*
X7415000Y-9705000D01*
X7415000Y-9675000D02*
X7385000Y-9705000D01*
X7385000Y-9785000D02*
X7415000Y-9815000D01*
X7415000Y-9785000D02*
X7385000Y-9815000D01*
X7385000Y-11355000D02*
X7415000Y-11385000D01*
X7415000Y-11355000D02*
X7385000Y-11385000D01*
X7385000Y-11465000D02*
X7415000Y-11495000D01*
X7415000Y-11465000D02*
X7385000Y-11495000D01*
X7385000Y-13035000D02*
X7415000Y-13065000D01*
X7415000Y-13035000D02*
X7385000Y-13065000D01*
X7385000Y-13145000D02*
X7415000Y-13175000D01*
X7415000Y-13145000D02*
X7385000Y-13175000D01*
X7395000Y-6495000D02*
X7425000Y-6525000D01*
X7425000Y-6495000D02*
X7395000Y-6525000D01*
X7395000Y-8175000D02*
X7425000Y-8205000D01*
X7425000Y-8175000D02*
X7395000Y-8205000D01*
X7395000Y-9855000D02*
X7425000Y-9885000D01*
X7425000Y-9855000D02*
X7395000Y-9885000D01*
X7395000Y-11535000D02*
X7425000Y-11565000D01*
X7425000Y-11535000D02*
X7395000Y-11565000D01*
X7395000Y-13215000D02*
X7425000Y-13245000D01*
X7425000Y-13215000D02*
X7395000Y-13245000D01*
X7455000Y-6495000D02*
X7485000Y-6525000D01*
X7485000Y-6495000D02*
X7455000Y-6525000D01*
X7455000Y-8175000D02*
X7485000Y-8205000D01*
X7485000Y-8175000D02*
X7455000Y-8205000D01*
X7455000Y-9855000D02*
X7485000Y-9885000D01*
X7485000Y-9855000D02*
X7455000Y-9885000D01*
X7455000Y-11535000D02*
X7485000Y-11565000D01*
X7485000Y-11535000D02*
X7455000Y-11565000D01*
X7455000Y-13215000D02*
X7485000Y-13245000D01*
X7485000Y-13215000D02*
X7455000Y-13245000D01*
X7505000Y-6770000D02*
X7535000Y-6800000D01*
X7535000Y-6770000D02*
X7505000Y-6800000D01*
X7505000Y-8450000D02*
X7535000Y-8480000D01*
X7535000Y-8450000D02*
X7505000Y-8480000D01*
X7505000Y-10130000D02*
X7535000Y-10160000D01*
X7535000Y-10130000D02*
X7505000Y-10160000D01*
X7505000Y-11810000D02*
X7535000Y-11840000D01*
X7535000Y-11810000D02*
X7505000Y-11840000D01*
X7505000Y-13490000D02*
X7535000Y-13520000D01*
X7535000Y-13490000D02*
X7505000Y-13520000D01*
X7535000Y-6055000D02*
X7565000Y-6085000D01*
X7565000Y-6055000D02*
X7535000Y-6085000D01*
X7535000Y-6115000D02*
X7565000Y-6145000D01*
X7565000Y-6115000D02*
X7535000Y-6145000D01*
X7535000Y-6175000D02*
X7565000Y-6205000D01*
X7565000Y-6175000D02*
X7535000Y-6205000D01*
X7535000Y-6235000D02*
X7565000Y-6265000D01*
X7565000Y-6235000D02*
X7535000Y-6265000D01*
X7535000Y-7735000D02*
X7565000Y-7765000D01*
X7565000Y-7735000D02*
X7535000Y-7765000D01*
X7535000Y-7795000D02*
X7565000Y-7825000D01*
X7565000Y-7795000D02*
X7535000Y-7825000D01*
X7535000Y-7855000D02*
X7565000Y-7885000D01*
X7565000Y-7855000D02*
X7535000Y-7885000D01*
X7535000Y-7915000D02*
X7565000Y-7945000D01*
X7565000Y-7915000D02*
X7535000Y-7945000D01*
X7535000Y-9415000D02*
X7565000Y-9445000D01*
X7565000Y-9415000D02*
X7535000Y-9445000D01*
X7535000Y-9475000D02*
X7565000Y-9505000D01*
X7565000Y-9475000D02*
X7535000Y-9505000D01*
X7535000Y-9535000D02*
X7565000Y-9565000D01*
X7565000Y-9535000D02*
X7535000Y-9565000D01*
X7535000Y-9595000D02*
X7565000Y-9625000D01*
X7565000Y-9595000D02*
X7535000Y-9625000D01*
X7535000Y-11095000D02*
X7565000Y-11125000D01*
X7565000Y-11095000D02*
X7535000Y-11125000D01*
X7535000Y-11155000D02*
X7565000Y-11185000D01*
X7565000Y-11155000D02*
X7535000Y-11185000D01*
X7535000Y-11215000D02*
X7565000Y-11245000D01*
X7565000Y-11215000D02*
X7535000Y-11245000D01*
X7535000Y-11275000D02*
X7565000Y-11305000D01*
X7565000Y-11275000D02*
X7535000Y-11305000D01*
X7535000Y-12775000D02*
X7565000Y-12805000D01*
X7565000Y-12775000D02*
X7535000Y-12805000D01*
X7535000Y-12835000D02*
X7565000Y-12865000D01*
X7565000Y-12835000D02*
X7535000Y-12865000D01*
X7535000Y-12895000D02*
X7565000Y-12925000D01*
X7565000Y-12895000D02*
X7535000Y-12925000D01*
X7535000Y-12955000D02*
X7565000Y-12985000D01*
X7565000Y-12955000D02*
X7535000Y-12985000D01*
X7665000Y-5715000D02*
X7695000Y-5745000D01*
X7695000Y-5715000D02*
X7665000Y-5745000D01*
X7665000Y-5825000D02*
X7695000Y-5855000D01*
X7695000Y-5825000D02*
X7665000Y-5855000D01*
X7665000Y-5910000D02*
X7695000Y-5940000D01*
X7695000Y-5910000D02*
X7665000Y-5940000D01*
X7665000Y-7395000D02*
X7695000Y-7425000D01*
X7695000Y-7395000D02*
X7665000Y-7425000D01*
X7665000Y-7505000D02*
X7695000Y-7535000D01*
X7695000Y-7505000D02*
X7665000Y-7535000D01*
X7665000Y-7590000D02*
X7695000Y-7620000D01*
X7695000Y-7590000D02*
X7665000Y-7620000D01*
X7665000Y-9075000D02*
X7695000Y-9105000D01*
X7695000Y-9075000D02*
X7665000Y-9105000D01*
X7665000Y-9185000D02*
X7695000Y-9215000D01*
X7695000Y-9185000D02*
X7665000Y-9215000D01*
X7665000Y-9270000D02*
X7695000Y-9300000D01*
X7695000Y-9270000D02*
X7665000Y-9300000D01*
X7665000Y-10755000D02*
X7695000Y-10785000D01*
X7695000Y-10755000D02*
X7665000Y-10785000D01*
X7665000Y-10865000D02*
X7695000Y-10895000D01*
X7695000Y-10865000D02*
X7665000Y-10895000D01*
X7665000Y-10950000D02*
X7695000Y-10980000D01*
X7695000Y-10950000D02*
X7665000Y-10980000D01*
X7665000Y-12435000D02*
X7695000Y-12465000D01*
X7695000Y-12435000D02*
X7665000Y-12465000D01*
X7665000Y-12545000D02*
X7695000Y-12575000D01*
X7695000Y-12545000D02*
X7665000Y-12575000D01*
X7665000Y-12630000D02*
X7695000Y-12660000D01*
X7695000Y-12630000D02*
X7665000Y-12660000D01*
X7995000Y-5715000D02*
X8025000Y-5745000D01*
X8025000Y-5715000D02*
X7995000Y-5745000D01*
X7995000Y-5825000D02*
X8025000Y-5855000D01*
X8025000Y-5825000D02*
X7995000Y-5855000D01*
X7995000Y-5905000D02*
X8025000Y-5935000D01*
X8025000Y-5905000D02*
X7995000Y-5935000D01*
X7995000Y-7395000D02*
X8025000Y-7425000D01*
X8025000Y-7395000D02*
X7995000Y-7425000D01*
X7995000Y-7505000D02*
X8025000Y-7535000D01*
X8025000Y-7505000D02*
X7995000Y-7535000D01*
X7995000Y-7585000D02*
X8025000Y-7615000D01*
X8025000Y-7585000D02*
X7995000Y-7615000D01*
X7995000Y-9075000D02*
X8025000Y-9105000D01*
X8025000Y-9075000D02*
X7995000Y-9105000D01*
X7995000Y-9185000D02*
X8025000Y-9215000D01*
X8025000Y-9185000D02*
X7995000Y-9215000D01*
X7995000Y-9265000D02*
X8025000Y-9295000D01*
X8025000Y-9265000D02*
X7995000Y-9295000D01*
X7995000Y-10755000D02*
X8025000Y-10785000D01*
X8025000Y-10755000D02*
X7995000Y-10785000D01*
X7995000Y-10865000D02*
X8025000Y-10895000D01*
X8025000Y-10865000D02*
X7995000Y-10895000D01*
X7995000Y-10945000D02*
X8025000Y-10975000D01*
X8025000Y-10945000D02*
X7995000Y-10975000D01*
X7995000Y-12435000D02*
X8025000Y-12465000D01*
X8025000Y-12435000D02*
X7995000Y-12465000D01*
X7995000Y-12545000D02*
X8025000Y-12575000D01*
X8025000Y-12545000D02*
X7995000Y-12575000D01*
X7995000Y-12625000D02*
X8025000Y-12655000D01*
X8025000Y-12625000D02*
X7995000Y-12655000D01*
X8055000Y-6015000D02*
X8085000Y-6045000D01*
X8085000Y-6015000D02*
X8055000Y-6045000D01*
X8055000Y-6075000D02*
X8085000Y-6105000D01*
X8085000Y-6075000D02*
X8055000Y-6105000D01*
X8055000Y-6135000D02*
X8085000Y-6165000D01*
X8085000Y-6135000D02*
X8055000Y-6165000D01*
X8055000Y-6195000D02*
X8085000Y-6225000D01*
X8085000Y-6195000D02*
X8055000Y-6225000D01*
X8055000Y-7695000D02*
X8085000Y-7725000D01*
X8085000Y-7695000D02*
X8055000Y-7725000D01*
X8055000Y-7755000D02*
X8085000Y-7785000D01*
X8085000Y-7755000D02*
X8055000Y-7785000D01*
X8055000Y-7815000D02*
X8085000Y-7845000D01*
X8085000Y-7815000D02*
X8055000Y-7845000D01*
X8055000Y-7875000D02*
X8085000Y-7905000D01*
X8085000Y-7875000D02*
X8055000Y-7905000D01*
X8055000Y-9375000D02*
X8085000Y-9405000D01*
X8085000Y-9375000D02*
X8055000Y-9405000D01*
X8055000Y-9435000D02*
X8085000Y-9465000D01*
X8085000Y-9435000D02*
X8055000Y-9465000D01*
X8055000Y-9495000D02*
X8085000Y-9525000D01*
X8085000Y-9495000D02*
X8055000Y-9525000D01*
X8055000Y-9555000D02*
X8085000Y-9585000D01*
X8085000Y-9555000D02*
X8055000Y-9585000D01*
X8055000Y-11055000D02*
X8085000Y-11085000D01*
X8085000Y-11055000D02*
X8055000Y-11085000D01*
X8055000Y-11115000D02*
X8085000Y-11145000D01*
X8085000Y-11115000D02*
X8055000Y-11145000D01*
X8055000Y-11175000D02*
X8085000Y-11205000D01*
X8085000Y-11175000D02*
X8055000Y-11205000D01*
X8055000Y-11235000D02*
X8085000Y-11265000D01*
X8085000Y-11235000D02*
X8055000Y-11265000D01*
X8055000Y-12735000D02*
X8085000Y-12765000D01*
X8085000Y-12735000D02*
X8055000Y-12765000D01*
X8055000Y-12795000D02*
X8085000Y-12825000D01*
X8085000Y-12795000D02*
X8055000Y-12825000D01*
X8055000Y-12855000D02*
X8085000Y-12885000D01*
X8085000Y-12855000D02*
X8055000Y-12885000D01*
X8055000Y-12915000D02*
X8085000Y-12945000D01*
X8085000Y-12915000D02*
X8055000Y-12945000D01*
X8360000Y-5639950D02*
X8390000Y-5669950D01*
X8390000Y-5639950D02*
X8360000Y-5669950D01*
X8360000Y-5705000D02*
X8390000Y-5735000D01*
X8390000Y-5705000D02*
X8360000Y-5735000D01*
X8360000Y-7319950D02*
X8390000Y-7349950D01*
X8390000Y-7319950D02*
X8360000Y-7349950D01*
X8360000Y-7385000D02*
X8390000Y-7415000D01*
X8390000Y-7385000D02*
X8360000Y-7415000D01*
X8360000Y-8999950D02*
X8390000Y-9029950D01*
X8390000Y-8999950D02*
X8360000Y-9029950D01*
X8360000Y-9065000D02*
X8390000Y-9095000D01*
X8390000Y-9065000D02*
X8360000Y-9095000D01*
X8360000Y-10679950D02*
X8390000Y-10709950D01*
X8390000Y-10679950D02*
X8360000Y-10709950D01*
X8360000Y-10745000D02*
X8390000Y-10775000D01*
X8390000Y-10745000D02*
X8360000Y-10775000D01*
X8360000Y-12359950D02*
X8390000Y-12389950D01*
X8390000Y-12359950D02*
X8360000Y-12389950D01*
X8360000Y-12425000D02*
X8390000Y-12455000D01*
X8390000Y-12425000D02*
X8360000Y-12455000D01*
X8475000Y-5790000D02*
X8505000Y-5820000D01*
X8505000Y-5790000D02*
X8475000Y-5820000D01*
X8475000Y-7470000D02*
X8505000Y-7500000D01*
X8505000Y-7470000D02*
X8475000Y-7500000D01*
X8475000Y-9150000D02*
X8505000Y-9180000D01*
X8505000Y-9150000D02*
X8475000Y-9180000D01*
X8475000Y-10830000D02*
X8505000Y-10860000D01*
X8505000Y-10830000D02*
X8475000Y-10860000D01*
X8475000Y-12510000D02*
X8505000Y-12540000D01*
X8505000Y-12510000D02*
X8475000Y-12540000D01*
X8545000Y-5790000D02*
X8575000Y-5820000D01*
X8575000Y-5790000D02*
X8545000Y-5820000D01*
X8545000Y-7470000D02*
X8575000Y-7500000D01*
X8575000Y-7470000D02*
X8545000Y-7500000D01*
X8545000Y-9150000D02*
X8575000Y-9180000D01*
X8575000Y-9150000D02*
X8545000Y-9180000D01*
X8545000Y-10830000D02*
X8575000Y-10860000D01*
X8575000Y-10830000D02*
X8545000Y-10860000D01*
X8545000Y-12510000D02*
X8575000Y-12540000D01*
X8575000Y-12510000D02*
X8545000Y-12540000D01*
X8610000Y-5790000D02*
X8640000Y-5820000D01*
X8640000Y-5790000D02*
X8610000Y-5820000D01*
X8610000Y-7470000D02*
X8640000Y-7500000D01*
X8640000Y-7470000D02*
X8610000Y-7500000D01*
X8610000Y-9150000D02*
X8640000Y-9180000D01*
X8640000Y-9150000D02*
X8610000Y-9180000D01*
X8610000Y-10830000D02*
X8640000Y-10860000D01*
X8640000Y-10830000D02*
X8610000Y-10860000D01*
X8610000Y-12510000D02*
X8640000Y-12540000D01*
X8640000Y-12510000D02*
X8610000Y-12540000D01*
X8730000Y-7060000D02*
X8760000Y-7090000D01*
X8760000Y-7060000D02*
X8730000Y-7090000D01*
X8730000Y-8740000D02*
X8760000Y-8770000D01*
X8760000Y-8740000D02*
X8730000Y-8770000D01*
X8730000Y-10420000D02*
X8760000Y-10450000D01*
X8760000Y-10420000D02*
X8730000Y-10450000D01*
X8730000Y-12100000D02*
X8760000Y-12130000D01*
X8760000Y-12100000D02*
X8730000Y-12130000D01*
X8730000Y-13780000D02*
X8760000Y-13810000D01*
X8760000Y-13780000D02*
X8730000Y-13810000D01*
X8795000Y-7060000D02*
X8825000Y-7090000D01*
X8825000Y-7060000D02*
X8795000Y-7090000D01*
X8795000Y-8740000D02*
X8825000Y-8770000D01*
X8825000Y-8740000D02*
X8795000Y-8770000D01*
X8795000Y-10420000D02*
X8825000Y-10450000D01*
X8825000Y-10420000D02*
X8795000Y-10450000D01*
X8795000Y-12100000D02*
X8825000Y-12130000D01*
X8825000Y-12100000D02*
X8795000Y-12130000D01*
X8795000Y-13780000D02*
X8825000Y-13810000D01*
X8825000Y-13780000D02*
X8795000Y-13810000D01*
X8805000Y-5785000D02*
X8835000Y-5815000D01*
X8835000Y-5785000D02*
X8805000Y-5815000D01*
X8805000Y-6185000D02*
X8835000Y-6215000D01*
X8835000Y-6185000D02*
X8805000Y-6215000D01*
X8805000Y-7465000D02*
X8835000Y-7495000D01*
X8835000Y-7465000D02*
X8805000Y-7495000D01*
X8805000Y-7865000D02*
X8835000Y-7895000D01*
X8835000Y-7865000D02*
X8805000Y-7895000D01*
X8805000Y-9145000D02*
X8835000Y-9175000D01*
X8835000Y-9145000D02*
X8805000Y-9175000D01*
X8805000Y-9545000D02*
X8835000Y-9575000D01*
X8835000Y-9545000D02*
X8805000Y-9575000D01*
X8805000Y-10825000D02*
X8835000Y-10855000D01*
X8835000Y-10825000D02*
X8805000Y-10855000D01*
X8805000Y-11225000D02*
X8835000Y-11255000D01*
X8835000Y-11225000D02*
X8805000Y-11255000D01*
X8805000Y-12505000D02*
X8835000Y-12535000D01*
X8835000Y-12505000D02*
X8805000Y-12535000D01*
X8805000Y-12905000D02*
X8835000Y-12935000D01*
X8835000Y-12905000D02*
X8805000Y-12935000D01*
X8855000Y-6935000D02*
X8885000Y-6965000D01*
X8885000Y-6935000D02*
X8855000Y-6965000D01*
X8855000Y-8615000D02*
X8885000Y-8645000D01*
X8885000Y-8615000D02*
X8855000Y-8645000D01*
X8855000Y-10295000D02*
X8885000Y-10325000D01*
X8885000Y-10295000D02*
X8855000Y-10325000D01*
X8855000Y-11975000D02*
X8885000Y-12005000D01*
X8885000Y-11975000D02*
X8855000Y-12005000D01*
X8855000Y-13655000D02*
X8885000Y-13685000D01*
X8885000Y-13655000D02*
X8855000Y-13685000D01*
X8870000Y-7060000D02*
X8900000Y-7090000D01*
X8900000Y-7060000D02*
X8870000Y-7090000D01*
X8870000Y-8740000D02*
X8900000Y-8770000D01*
X8900000Y-8740000D02*
X8870000Y-8770000D01*
X8870000Y-10420000D02*
X8900000Y-10450000D01*
X8900000Y-10420000D02*
X8870000Y-10450000D01*
X8870000Y-12100000D02*
X8900000Y-12130000D01*
X8900000Y-12100000D02*
X8870000Y-12130000D01*
X8870000Y-13780000D02*
X8900000Y-13810000D01*
X8900000Y-13780000D02*
X8870000Y-13810000D01*
X8920000Y-6935000D02*
X8950000Y-6965000D01*
X8950000Y-6935000D02*
X8920000Y-6965000D01*
X8920000Y-8615000D02*
X8950000Y-8645000D01*
X8950000Y-8615000D02*
X8920000Y-8645000D01*
X8920000Y-10295000D02*
X8950000Y-10325000D01*
X8950000Y-10295000D02*
X8920000Y-10325000D01*
X8920000Y-11975000D02*
X8950000Y-12005000D01*
X8950000Y-11975000D02*
X8920000Y-12005000D01*
X8920000Y-13655000D02*
X8950000Y-13685000D01*
X8950000Y-13655000D02*
X8920000Y-13685000D01*
X8970000Y-7140000D02*
X9000000Y-7170000D01*
X9000000Y-7140000D02*
X8970000Y-7170000D01*
X8970000Y-7210000D02*
X9000000Y-7240000D01*
X9000000Y-7210000D02*
X8970000Y-7240000D01*
X8970000Y-8820000D02*
X9000000Y-8850000D01*
X9000000Y-8820000D02*
X8970000Y-8850000D01*
X8970000Y-8890000D02*
X9000000Y-8920000D01*
X9000000Y-8890000D02*
X8970000Y-8920000D01*
X8970000Y-10500000D02*
X9000000Y-10530000D01*
X9000000Y-10500000D02*
X8970000Y-10530000D01*
X8970000Y-10570000D02*
X9000000Y-10600000D01*
X9000000Y-10570000D02*
X8970000Y-10600000D01*
X8970000Y-12180000D02*
X9000000Y-12210000D01*
X9000000Y-12180000D02*
X8970000Y-12210000D01*
X8970000Y-12250000D02*
X9000000Y-12280000D01*
X9000000Y-12250000D02*
X8970000Y-12280000D01*
X8970000Y-13860000D02*
X9000000Y-13890000D01*
X9000000Y-13860000D02*
X8970000Y-13890000D01*
X8970000Y-13930000D02*
X9000000Y-13960000D01*
X9000000Y-13930000D02*
X8970000Y-13960000D01*
X8985000Y-6935000D02*
X9015000Y-6965000D01*
X9015000Y-6935000D02*
X8985000Y-6965000D01*
X8985000Y-8615000D02*
X9015000Y-8645000D01*
X9015000Y-8615000D02*
X8985000Y-8645000D01*
X8985000Y-10295000D02*
X9015000Y-10325000D01*
X9015000Y-10295000D02*
X8985000Y-10325000D01*
X8985000Y-11975000D02*
X9015000Y-12005000D01*
X9015000Y-11975000D02*
X8985000Y-12005000D01*
X8985000Y-13655000D02*
X9015000Y-13685000D01*
X9015000Y-13655000D02*
X8985000Y-13685000D01*
X9015000Y-5775000D02*
X9045000Y-5805000D01*
X9045000Y-5775000D02*
X9015000Y-5805000D01*
X9015000Y-6195000D02*
X9045000Y-6225000D01*
X9045000Y-6195000D02*
X9015000Y-6225000D01*
X9015000Y-7455000D02*
X9045000Y-7485000D01*
X9045000Y-7455000D02*
X9015000Y-7485000D01*
X9015000Y-7875000D02*
X9045000Y-7905000D01*
X9045000Y-7875000D02*
X9015000Y-7905000D01*
X9015000Y-9135000D02*
X9045000Y-9165000D01*
X9045000Y-9135000D02*
X9015000Y-9165000D01*
X9015000Y-9555000D02*
X9045000Y-9585000D01*
X9045000Y-9555000D02*
X9015000Y-9585000D01*
X9015000Y-10815000D02*
X9045000Y-10845000D01*
X9045000Y-10815000D02*
X9015000Y-10845000D01*
X9015000Y-11235000D02*
X9045000Y-11265000D01*
X9045000Y-11235000D02*
X9015000Y-11265000D01*
X9015000Y-12495000D02*
X9045000Y-12525000D01*
X9045000Y-12495000D02*
X9015000Y-12525000D01*
X9015000Y-12915000D02*
X9045000Y-12945000D01*
X9045000Y-12915000D02*
X9015000Y-12945000D01*
X9045000Y-6935000D02*
X9075000Y-6965000D01*
X9075000Y-6935000D02*
X9045000Y-6965000D01*
X9045000Y-8615000D02*
X9075000Y-8645000D01*
X9075000Y-8615000D02*
X9045000Y-8645000D01*
X9045000Y-10295000D02*
X9075000Y-10325000D01*
X9075000Y-10295000D02*
X9045000Y-10325000D01*
X9045000Y-11975000D02*
X9075000Y-12005000D01*
X9075000Y-11975000D02*
X9045000Y-12005000D01*
X9045000Y-13655000D02*
X9075000Y-13685000D01*
X9075000Y-13655000D02*
X9045000Y-13685000D01*
X9065000Y-6315000D02*
X9095000Y-6345000D01*
X9095000Y-6315000D02*
X9065000Y-6345000D01*
X9065000Y-6425000D02*
X9095000Y-6455000D01*
X9095000Y-6425000D02*
X9065000Y-6455000D01*
X9065000Y-7995000D02*
X9095000Y-8025000D01*
X9095000Y-7995000D02*
X9065000Y-8025000D01*
X9065000Y-8105000D02*
X9095000Y-8135000D01*
X9095000Y-8105000D02*
X9065000Y-8135000D01*
X9065000Y-9675000D02*
X9095000Y-9705000D01*
X9095000Y-9675000D02*
X9065000Y-9705000D01*
X9065000Y-9785000D02*
X9095000Y-9815000D01*
X9095000Y-9785000D02*
X9065000Y-9815000D01*
X9065000Y-11355000D02*
X9095000Y-11385000D01*
X9095000Y-11355000D02*
X9065000Y-11385000D01*
X9065000Y-11465000D02*
X9095000Y-11495000D01*
X9095000Y-11465000D02*
X9065000Y-11495000D01*
X9065000Y-13035000D02*
X9095000Y-13065000D01*
X9095000Y-13035000D02*
X9065000Y-13065000D01*
X9065000Y-13145000D02*
X9095000Y-13175000D01*
X9095000Y-13145000D02*
X9065000Y-13175000D01*
X9075000Y-6495000D02*
X9105000Y-6525000D01*
X9105000Y-6495000D02*
X9075000Y-6525000D01*
X9075000Y-8175000D02*
X9105000Y-8205000D01*
X9105000Y-8175000D02*
X9075000Y-8205000D01*
X9075000Y-9855000D02*
X9105000Y-9885000D01*
X9105000Y-9855000D02*
X9075000Y-9885000D01*
X9075000Y-11535000D02*
X9105000Y-11565000D01*
X9105000Y-11535000D02*
X9075000Y-11565000D01*
X9075000Y-13215000D02*
X9105000Y-13245000D01*
X9105000Y-13215000D02*
X9075000Y-13245000D01*
X9135000Y-6495000D02*
X9165000Y-6525000D01*
X9165000Y-6495000D02*
X9135000Y-6525000D01*
X9135000Y-8175000D02*
X9165000Y-8205000D01*
X9165000Y-8175000D02*
X9135000Y-8205000D01*
X9135000Y-9855000D02*
X9165000Y-9885000D01*
X9165000Y-9855000D02*
X9135000Y-9885000D01*
X9135000Y-11535000D02*
X9165000Y-11565000D01*
X9165000Y-11535000D02*
X9135000Y-11565000D01*
X9135000Y-13215000D02*
X9165000Y-13245000D01*
X9165000Y-13215000D02*
X9135000Y-13245000D01*
X9185000Y-6770000D02*
X9215000Y-6800000D01*
X9215000Y-6770000D02*
X9185000Y-6800000D01*
X9185000Y-8450000D02*
X9215000Y-8480000D01*
X9215000Y-8450000D02*
X9185000Y-8480000D01*
X9185000Y-10130000D02*
X9215000Y-10160000D01*
X9215000Y-10130000D02*
X9185000Y-10160000D01*
X9185000Y-11810000D02*
X9215000Y-11840000D01*
X9215000Y-11810000D02*
X9185000Y-11840000D01*
X9185000Y-13490000D02*
X9215000Y-13520000D01*
X9215000Y-13490000D02*
X9185000Y-13520000D01*
X9215000Y-6055000D02*
X9245000Y-6085000D01*
X9245000Y-6055000D02*
X9215000Y-6085000D01*
X9215000Y-6115000D02*
X9245000Y-6145000D01*
X9245000Y-6115000D02*
X9215000Y-6145000D01*
X9215000Y-6175000D02*
X9245000Y-6205000D01*
X9245000Y-6175000D02*
X9215000Y-6205000D01*
X9215000Y-6235000D02*
X9245000Y-6265000D01*
X9245000Y-6235000D02*
X9215000Y-6265000D01*
X9215000Y-7735000D02*
X9245000Y-7765000D01*
X9245000Y-7735000D02*
X9215000Y-7765000D01*
X9215000Y-7795000D02*
X9245000Y-7825000D01*
X9245000Y-7795000D02*
X9215000Y-7825000D01*
X9215000Y-7855000D02*
X9245000Y-7885000D01*
X9245000Y-7855000D02*
X9215000Y-7885000D01*
X9215000Y-7915000D02*
X9245000Y-7945000D01*
X9245000Y-7915000D02*
X9215000Y-7945000D01*
X9215000Y-9415000D02*
X9245000Y-9445000D01*
X9245000Y-9415000D02*
X9215000Y-9445000D01*
X9215000Y-9475000D02*
X9245000Y-9505000D01*
X9245000Y-9475000D02*
X9215000Y-9505000D01*
X9215000Y-9535000D02*
X9245000Y-9565000D01*
X9245000Y-9535000D02*
X9215000Y-9565000D01*
X9215000Y-9595000D02*
X9245000Y-9625000D01*
X9245000Y-9595000D02*
X9215000Y-9625000D01*
X9215000Y-11095000D02*
X9245000Y-11125000D01*
X9245000Y-11095000D02*
X9215000Y-11125000D01*
X9215000Y-11155000D02*
X9245000Y-11185000D01*
X9245000Y-11155000D02*
X9215000Y-11185000D01*
X9215000Y-11215000D02*
X9245000Y-11245000D01*
X9245000Y-11215000D02*
X9215000Y-11245000D01*
X9215000Y-11275000D02*
X9245000Y-11305000D01*
X9245000Y-11275000D02*
X9215000Y-11305000D01*
X9215000Y-12775000D02*
X9245000Y-12805000D01*
X9245000Y-12775000D02*
X9215000Y-12805000D01*
X9215000Y-12835000D02*
X9245000Y-12865000D01*
X9245000Y-12835000D02*
X9215000Y-12865000D01*
X9215000Y-12895000D02*
X9245000Y-12925000D01*
X9245000Y-12895000D02*
X9215000Y-12925000D01*
X9215000Y-12955000D02*
X9245000Y-12985000D01*
X9245000Y-12955000D02*
X9215000Y-12985000D01*
X9345000Y-5715000D02*
X9375000Y-5745000D01*
X9375000Y-5715000D02*
X9345000Y-5745000D01*
X9345000Y-5825000D02*
X9375000Y-5855000D01*
X9375000Y-5825000D02*
X9345000Y-5855000D01*
X9345000Y-5910000D02*
X9375000Y-5940000D01*
X9375000Y-5910000D02*
X9345000Y-5940000D01*
X9345000Y-7395000D02*
X9375000Y-7425000D01*
X9375000Y-7395000D02*
X9345000Y-7425000D01*
X9345000Y-7505000D02*
X9375000Y-7535000D01*
X9375000Y-7505000D02*
X9345000Y-7535000D01*
X9345000Y-7590000D02*
X9375000Y-7620000D01*
X9375000Y-7590000D02*
X9345000Y-7620000D01*
X9345000Y-9075000D02*
X9375000Y-9105000D01*
X9375000Y-9075000D02*
X9345000Y-9105000D01*
X9345000Y-9185000D02*
X9375000Y-9215000D01*
X9375000Y-9185000D02*
X9345000Y-9215000D01*
X9345000Y-9270000D02*
X9375000Y-9300000D01*
X9375000Y-9270000D02*
X9345000Y-9300000D01*
X9345000Y-10755000D02*
X9375000Y-10785000D01*
X9375000Y-10755000D02*
X9345000Y-10785000D01*
X9345000Y-10865000D02*
X9375000Y-10895000D01*
X9375000Y-10865000D02*
X9345000Y-10895000D01*
X9345000Y-10950000D02*
X9375000Y-10980000D01*
X9375000Y-10950000D02*
X9345000Y-10980000D01*
X9345000Y-12435000D02*
X9375000Y-12465000D01*
X9375000Y-12435000D02*
X9345000Y-12465000D01*
X9345000Y-12545000D02*
X9375000Y-12575000D01*
X9375000Y-12545000D02*
X9345000Y-12575000D01*
X9345000Y-12630000D02*
X9375000Y-12660000D01*
X9375000Y-12630000D02*
X9345000Y-12660000D01*
X9675000Y-5715000D02*
X9705000Y-5745000D01*
X9705000Y-5715000D02*
X9675000Y-5745000D01*
X9675000Y-5825000D02*
X9705000Y-5855000D01*
X9705000Y-5825000D02*
X9675000Y-5855000D01*
X9675000Y-5905000D02*
X9705000Y-5935000D01*
X9705000Y-5905000D02*
X9675000Y-5935000D01*
X9675000Y-7395000D02*
X9705000Y-7425000D01*
X9705000Y-7395000D02*
X9675000Y-7425000D01*
X9675000Y-7505000D02*
X9705000Y-7535000D01*
X9705000Y-7505000D02*
X9675000Y-7535000D01*
X9675000Y-7585000D02*
X9705000Y-7615000D01*
X9705000Y-7585000D02*
X9675000Y-7615000D01*
X9675000Y-9075000D02*
X9705000Y-9105000D01*
X9705000Y-9075000D02*
X9675000Y-9105000D01*
X9675000Y-9185000D02*
X9705000Y-9215000D01*
X9705000Y-9185000D02*
X9675000Y-9215000D01*
X9675000Y-9265000D02*
X9705000Y-9295000D01*
X9705000Y-9265000D02*
X9675000Y-9295000D01*
X9675000Y-10755000D02*
X9705000Y-10785000D01*
X9705000Y-10755000D02*
X9675000Y-10785000D01*
X9675000Y-10865000D02*
X9705000Y-10895000D01*
X9705000Y-10865000D02*
X9675000Y-10895000D01*
X9675000Y-10945000D02*
X9705000Y-10975000D01*
X9705000Y-10945000D02*
X9675000Y-10975000D01*
X9675000Y-12435000D02*
X9705000Y-12465000D01*
X9705000Y-12435000D02*
X9675000Y-12465000D01*
X9675000Y-12545000D02*
X9705000Y-12575000D01*
X9705000Y-12545000D02*
X9675000Y-12575000D01*
X9675000Y-12625000D02*
X9705000Y-12655000D01*
X9705000Y-12625000D02*
X9675000Y-12655000D01*
X9735000Y-6015000D02*
X9765000Y-6045000D01*
X9765000Y-6015000D02*
X9735000Y-6045000D01*
X9735000Y-6075000D02*
X9765000Y-6105000D01*
X9765000Y-6075000D02*
X9735000Y-6105000D01*
X9735000Y-6135000D02*
X9765000Y-6165000D01*
X9765000Y-6135000D02*
X9735000Y-6165000D01*
X9735000Y-6195000D02*
X9765000Y-6225000D01*
X9765000Y-6195000D02*
X9735000Y-6225000D01*
X9735000Y-7695000D02*
X9765000Y-7725000D01*
X9765000Y-7695000D02*
X9735000Y-7725000D01*
X9735000Y-7755000D02*
X9765000Y-7785000D01*
X9765000Y-7755000D02*
X9735000Y-7785000D01*
X9735000Y-7815000D02*
X9765000Y-7845000D01*
X9765000Y-7815000D02*
X9735000Y-7845000D01*
X9735000Y-7875000D02*
X9765000Y-7905000D01*
X9765000Y-7875000D02*
X9735000Y-7905000D01*
X9735000Y-9375000D02*
X9765000Y-9405000D01*
X9765000Y-9375000D02*
X9735000Y-9405000D01*
X9735000Y-9435000D02*
X9765000Y-9465000D01*
X9765000Y-9435000D02*
X9735000Y-9465000D01*
X9735000Y-9495000D02*
X9765000Y-9525000D01*
X9765000Y-9495000D02*
X9735000Y-9525000D01*
X9735000Y-9555000D02*
X9765000Y-9585000D01*
X9765000Y-9555000D02*
X9735000Y-9585000D01*
X9735000Y-11055000D02*
X9765000Y-11085000D01*
X9765000Y-11055000D02*
X9735000Y-11085000D01*
X9735000Y-11115000D02*
X9765000Y-11145000D01*
X9765000Y-11115000D02*
X9735000Y-11145000D01*
X9735000Y-11175000D02*
X9765000Y-11205000D01*
X9765000Y-11175000D02*
X9735000Y-11205000D01*
X9735000Y-11235000D02*
X9765000Y-11265000D01*
X9765000Y-11235000D02*
X9735000Y-11265000D01*
X9735000Y-12735000D02*
X9765000Y-12765000D01*
X9765000Y-12735000D02*
X9735000Y-12765000D01*
X9735000Y-12795000D02*
X9765000Y-12825000D01*
X9765000Y-12795000D02*
X9735000Y-12825000D01*
X9735000Y-12855000D02*
X9765000Y-12885000D01*
X9765000Y-12855000D02*
X9735000Y-12885000D01*
X9735000Y-12915000D02*
X9765000Y-12945000D01*
X9765000Y-12915000D02*
X9735000Y-12945000D01*
X10040000Y-5639950D02*
X10070000Y-5669950D01*
X10070000Y-5639950D02*
X10040000Y-5669950D01*
X10040000Y-5705000D02*
X10070000Y-5735000D01*
X10070000Y-5705000D02*
X10040000Y-5735000D01*
X10040000Y-7319950D02*
X10070000Y-7349950D01*
X10070000Y-7319950D02*
X10040000Y-7349950D01*
X10040000Y-7385000D02*
X10070000Y-7415000D01*
X10070000Y-7385000D02*
X10040000Y-7415000D01*
X10040000Y-8999950D02*
X10070000Y-9029950D01*
X10070000Y-8999950D02*
X10040000Y-9029950D01*
X10040000Y-9065000D02*
X10070000Y-9095000D01*
X10070000Y-9065000D02*
X10040000Y-9095000D01*
X10040000Y-10679950D02*
X10070000Y-10709950D01*
X10070000Y-10679950D02*
X10040000Y-10709950D01*
X10040000Y-10745000D02*
X10070000Y-10775000D01*
X10070000Y-10745000D02*
X10040000Y-10775000D01*
X10040000Y-12359950D02*
X10070000Y-12389950D01*
X10070000Y-12359950D02*
X10040000Y-12389950D01*
X10040000Y-12425000D02*
X10070000Y-12455000D01*
X10070000Y-12425000D02*
X10040000Y-12455000D01*
X10155000Y-5790000D02*
X10185000Y-5820000D01*
X10185000Y-5790000D02*
X10155000Y-5820000D01*
X10155000Y-7470000D02*
X10185000Y-7500000D01*
X10185000Y-7470000D02*
X10155000Y-7500000D01*
X10155000Y-9150000D02*
X10185000Y-9180000D01*
X10185000Y-9150000D02*
X10155000Y-9180000D01*
X10155000Y-10830000D02*
X10185000Y-10860000D01*
X10185000Y-10830000D02*
X10155000Y-10860000D01*
X10155000Y-12510000D02*
X10185000Y-12540000D01*
X10185000Y-12510000D02*
X10155000Y-12540000D01*
X10225000Y-5790000D02*
X10255000Y-5820000D01*
X10255000Y-5790000D02*
X10225000Y-5820000D01*
X10225000Y-7470000D02*
X10255000Y-7500000D01*
X10255000Y-7470000D02*
X10225000Y-7500000D01*
X10225000Y-9150000D02*
X10255000Y-9180000D01*
X10255000Y-9150000D02*
X10225000Y-9180000D01*
X10225000Y-10830000D02*
X10255000Y-10860000D01*
X10255000Y-10830000D02*
X10225000Y-10860000D01*
X10225000Y-12510000D02*
X10255000Y-12540000D01*
X10255000Y-12510000D02*
X10225000Y-12540000D01*
X10290000Y-5790000D02*
X10320000Y-5820000D01*
X10320000Y-5790000D02*
X10290000Y-5820000D01*
X10290000Y-7470000D02*
X10320000Y-7500000D01*
X10320000Y-7470000D02*
X10290000Y-7500000D01*
X10290000Y-9150000D02*
X10320000Y-9180000D01*
X10320000Y-9150000D02*
X10290000Y-9180000D01*
X10290000Y-10830000D02*
X10320000Y-10860000D01*
X10320000Y-10830000D02*
X10290000Y-10860000D01*
X10290000Y-12510000D02*
X10320000Y-12540000D01*
X10320000Y-12510000D02*
X10290000Y-12540000D01*
X10410000Y-7060000D02*
X10440000Y-7090000D01*
X10440000Y-7060000D02*
X10410000Y-7090000D01*
X10410000Y-8740000D02*
X10440000Y-8770000D01*
X10440000Y-8740000D02*
X10410000Y-8770000D01*
X10410000Y-10420000D02*
X10440000Y-10450000D01*
X10440000Y-10420000D02*
X10410000Y-10450000D01*
X10410000Y-12100000D02*
X10440000Y-12130000D01*
X10440000Y-12100000D02*
X10410000Y-12130000D01*
X10410000Y-13780000D02*
X10440000Y-13810000D01*
X10440000Y-13780000D02*
X10410000Y-13810000D01*
X10475000Y-7060000D02*
X10505000Y-7090000D01*
X10505000Y-7060000D02*
X10475000Y-7090000D01*
X10475000Y-8740000D02*
X10505000Y-8770000D01*
X10505000Y-8740000D02*
X10475000Y-8770000D01*
X10475000Y-10420000D02*
X10505000Y-10450000D01*
X10505000Y-10420000D02*
X10475000Y-10450000D01*
X10475000Y-12100000D02*
X10505000Y-12130000D01*
X10505000Y-12100000D02*
X10475000Y-12130000D01*
X10475000Y-13780000D02*
X10505000Y-13810000D01*
X10505000Y-13780000D02*
X10475000Y-13810000D01*
X10485000Y-5785000D02*
X10515000Y-5815000D01*
X10515000Y-5785000D02*
X10485000Y-5815000D01*
X10485000Y-6185000D02*
X10515000Y-6215000D01*
X10515000Y-6185000D02*
X10485000Y-6215000D01*
X10485000Y-7465000D02*
X10515000Y-7495000D01*
X10515000Y-7465000D02*
X10485000Y-7495000D01*
X10485000Y-7865000D02*
X10515000Y-7895000D01*
X10515000Y-7865000D02*
X10485000Y-7895000D01*
X10485000Y-9145000D02*
X10515000Y-9175000D01*
X10515000Y-9145000D02*
X10485000Y-9175000D01*
X10485000Y-9545000D02*
X10515000Y-9575000D01*
X10515000Y-9545000D02*
X10485000Y-9575000D01*
X10485000Y-10825000D02*
X10515000Y-10855000D01*
X10515000Y-10825000D02*
X10485000Y-10855000D01*
X10485000Y-11225000D02*
X10515000Y-11255000D01*
X10515000Y-11225000D02*
X10485000Y-11255000D01*
X10485000Y-12505000D02*
X10515000Y-12535000D01*
X10515000Y-12505000D02*
X10485000Y-12535000D01*
X10485000Y-12905000D02*
X10515000Y-12935000D01*
X10515000Y-12905000D02*
X10485000Y-12935000D01*
X10535000Y-6935000D02*
X10565000Y-6965000D01*
X10565000Y-6935000D02*
X10535000Y-6965000D01*
X10535000Y-8615000D02*
X10565000Y-8645000D01*
X10565000Y-8615000D02*
X10535000Y-8645000D01*
X10535000Y-10295000D02*
X10565000Y-10325000D01*
X10565000Y-10295000D02*
X10535000Y-10325000D01*
X10535000Y-11975000D02*
X10565000Y-12005000D01*
X10565000Y-11975000D02*
X10535000Y-12005000D01*
X10535000Y-13655000D02*
X10565000Y-13685000D01*
X10565000Y-13655000D02*
X10535000Y-13685000D01*
X10550000Y-7060000D02*
X10580000Y-7090000D01*
X10580000Y-7060000D02*
X10550000Y-7090000D01*
X10550000Y-8740000D02*
X10580000Y-8770000D01*
X10580000Y-8740000D02*
X10550000Y-8770000D01*
X10550000Y-10420000D02*
X10580000Y-10450000D01*
X10580000Y-10420000D02*
X10550000Y-10450000D01*
X10550000Y-12100000D02*
X10580000Y-12130000D01*
X10580000Y-12100000D02*
X10550000Y-12130000D01*
X10550000Y-13780000D02*
X10580000Y-13810000D01*
X10580000Y-13780000D02*
X10550000Y-13810000D01*
X10600000Y-6935000D02*
X10630000Y-6965000D01*
X10630000Y-6935000D02*
X10600000Y-6965000D01*
X10600000Y-8615000D02*
X10630000Y-8645000D01*
X10630000Y-8615000D02*
X10600000Y-8645000D01*
X10600000Y-10295000D02*
X10630000Y-10325000D01*
X10630000Y-10295000D02*
X10600000Y-10325000D01*
X10600000Y-11975000D02*
X10630000Y-12005000D01*
X10630000Y-11975000D02*
X10600000Y-12005000D01*
X10600000Y-13655000D02*
X10630000Y-13685000D01*
X10630000Y-13655000D02*
X10600000Y-13685000D01*
X10650000Y-7140000D02*
X10680000Y-7170000D01*
X10680000Y-7140000D02*
X10650000Y-7170000D01*
X10650000Y-7210000D02*
X10680000Y-7240000D01*
X10680000Y-7210000D02*
X10650000Y-7240000D01*
X10650000Y-8820000D02*
X10680000Y-8850000D01*
X10680000Y-8820000D02*
X10650000Y-8850000D01*
X10650000Y-8890000D02*
X10680000Y-8920000D01*
X10680000Y-8890000D02*
X10650000Y-8920000D01*
X10650000Y-10500000D02*
X10680000Y-10530000D01*
X10680000Y-10500000D02*
X10650000Y-10530000D01*
X10650000Y-10570000D02*
X10680000Y-10600000D01*
X10680000Y-10570000D02*
X10650000Y-10600000D01*
X10650000Y-12180000D02*
X10680000Y-12210000D01*
X10680000Y-12180000D02*
X10650000Y-12210000D01*
X10650000Y-12250000D02*
X10680000Y-12280000D01*
X10680000Y-12250000D02*
X10650000Y-12280000D01*
X10650000Y-13860000D02*
X10680000Y-13890000D01*
X10680000Y-13860000D02*
X10650000Y-13890000D01*
X10650000Y-13930000D02*
X10680000Y-13960000D01*
X10680000Y-13930000D02*
X10650000Y-13960000D01*
X10665000Y-6935000D02*
X10695000Y-6965000D01*
X10695000Y-6935000D02*
X10665000Y-6965000D01*
X10665000Y-8615000D02*
X10695000Y-8645000D01*
X10695000Y-8615000D02*
X10665000Y-8645000D01*
X10665000Y-10295000D02*
X10695000Y-10325000D01*
X10695000Y-10295000D02*
X10665000Y-10325000D01*
X10665000Y-11975000D02*
X10695000Y-12005000D01*
X10695000Y-11975000D02*
X10665000Y-12005000D01*
X10665000Y-13655000D02*
X10695000Y-13685000D01*
X10695000Y-13655000D02*
X10665000Y-13685000D01*
X10695000Y-5775000D02*
X10725000Y-5805000D01*
X10725000Y-5775000D02*
X10695000Y-5805000D01*
X10695000Y-6195000D02*
X10725000Y-6225000D01*
X10725000Y-6195000D02*
X10695000Y-6225000D01*
X10695000Y-7455000D02*
X10725000Y-7485000D01*
X10725000Y-7455000D02*
X10695000Y-7485000D01*
X10695000Y-7875000D02*
X10725000Y-7905000D01*
X10725000Y-7875000D02*
X10695000Y-7905000D01*
X10695000Y-9135000D02*
X10725000Y-9165000D01*
X10725000Y-9135000D02*
X10695000Y-9165000D01*
X10695000Y-9555000D02*
X10725000Y-9585000D01*
X10725000Y-9555000D02*
X10695000Y-9585000D01*
X10695000Y-10815000D02*
X10725000Y-10845000D01*
X10725000Y-10815000D02*
X10695000Y-10845000D01*
X10695000Y-11235000D02*
X10725000Y-11265000D01*
X10725000Y-11235000D02*
X10695000Y-11265000D01*
X10695000Y-12495000D02*
X10725000Y-12525000D01*
X10725000Y-12495000D02*
X10695000Y-12525000D01*
X10695000Y-12915000D02*
X10725000Y-12945000D01*
X10725000Y-12915000D02*
X10695000Y-12945000D01*
X10725000Y-6935000D02*
X10755000Y-6965000D01*
X10755000Y-6935000D02*
X10725000Y-6965000D01*
X10725000Y-8615000D02*
X10755000Y-8645000D01*
X10755000Y-8615000D02*
X10725000Y-8645000D01*
X10725000Y-10295000D02*
X10755000Y-10325000D01*
X10755000Y-10295000D02*
X10725000Y-10325000D01*
X10725000Y-11975000D02*
X10755000Y-12005000D01*
X10755000Y-11975000D02*
X10725000Y-12005000D01*
X10725000Y-13655000D02*
X10755000Y-13685000D01*
X10755000Y-13655000D02*
X10725000Y-13685000D01*
X10745000Y-6315000D02*
X10775000Y-6345000D01*
X10775000Y-6315000D02*
X10745000Y-6345000D01*
X10745000Y-6425000D02*
X10775000Y-6455000D01*
X10775000Y-6425000D02*
X10745000Y-6455000D01*
X10745000Y-7995000D02*
X10775000Y-8025000D01*
X10775000Y-7995000D02*
X10745000Y-8025000D01*
X10745000Y-8105000D02*
X10775000Y-8135000D01*
X10775000Y-8105000D02*
X10745000Y-8135000D01*
X10745000Y-9675000D02*
X10775000Y-9705000D01*
X10775000Y-9675000D02*
X10745000Y-9705000D01*
X10745000Y-9785000D02*
X10775000Y-9815000D01*
X10775000Y-9785000D02*
X10745000Y-9815000D01*
X10745000Y-11355000D02*
X10775000Y-11385000D01*
X10775000Y-11355000D02*
X10745000Y-11385000D01*
X10745000Y-11465000D02*
X10775000Y-11495000D01*
X10775000Y-11465000D02*
X10745000Y-11495000D01*
X10745000Y-13035000D02*
X10775000Y-13065000D01*
X10775000Y-13035000D02*
X10745000Y-13065000D01*
X10745000Y-13145000D02*
X10775000Y-13175000D01*
X10775000Y-13145000D02*
X10745000Y-13175000D01*
X10755000Y-6495000D02*
X10785000Y-6525000D01*
X10785000Y-6495000D02*
X10755000Y-6525000D01*
X10755000Y-8175000D02*
X10785000Y-8205000D01*
X10785000Y-8175000D02*
X10755000Y-8205000D01*
X10755000Y-9855000D02*
X10785000Y-9885000D01*
X10785000Y-9855000D02*
X10755000Y-9885000D01*
X10755000Y-11535000D02*
X10785000Y-11565000D01*
X10785000Y-11535000D02*
X10755000Y-11565000D01*
X10755000Y-13215000D02*
X10785000Y-13245000D01*
X10785000Y-13215000D02*
X10755000Y-13245000D01*
X10815000Y-6495000D02*
X10845000Y-6525000D01*
X10845000Y-6495000D02*
X10815000Y-6525000D01*
X10815000Y-8175000D02*
X10845000Y-8205000D01*
X10845000Y-8175000D02*
X10815000Y-8205000D01*
X10815000Y-9855000D02*
X10845000Y-9885000D01*
X10845000Y-9855000D02*
X10815000Y-9885000D01*
X10815000Y-11535000D02*
X10845000Y-11565000D01*
X10845000Y-11535000D02*
X10815000Y-11565000D01*
X10815000Y-13215000D02*
X10845000Y-13245000D01*
X10845000Y-13215000D02*
X10815000Y-13245000D01*
X10865000Y-6770000D02*
X10895000Y-6800000D01*
X10895000Y-6770000D02*
X10865000Y-6800000D01*
X10865000Y-8450000D02*
X10895000Y-8480000D01*
X10895000Y-8450000D02*
X10865000Y-8480000D01*
X10865000Y-10130000D02*
X10895000Y-10160000D01*
X10895000Y-10130000D02*
X10865000Y-10160000D01*
X10865000Y-11810000D02*
X10895000Y-11840000D01*
X10895000Y-11810000D02*
X10865000Y-11840000D01*
X10865000Y-13490000D02*
X10895000Y-13520000D01*
X10895000Y-13490000D02*
X10865000Y-13520000D01*
X10895000Y-6055000D02*
X10925000Y-6085000D01*
X10925000Y-6055000D02*
X10895000Y-6085000D01*
X10895000Y-6115000D02*
X10925000Y-6145000D01*
X10925000Y-6115000D02*
X10895000Y-6145000D01*
X10895000Y-6175000D02*
X10925000Y-6205000D01*
X10925000Y-6175000D02*
X10895000Y-6205000D01*
X10895000Y-6235000D02*
X10925000Y-6265000D01*
X10925000Y-6235000D02*
X10895000Y-6265000D01*
X10895000Y-7735000D02*
X10925000Y-7765000D01*
X10925000Y-7735000D02*
X10895000Y-7765000D01*
X10895000Y-7795000D02*
X10925000Y-7825000D01*
X10925000Y-7795000D02*
X10895000Y-7825000D01*
X10895000Y-7855000D02*
X10925000Y-7885000D01*
X10925000Y-7855000D02*
X10895000Y-7885000D01*
X10895000Y-7915000D02*
X10925000Y-7945000D01*
X10925000Y-7915000D02*
X10895000Y-7945000D01*
X10895000Y-9415000D02*
X10925000Y-9445000D01*
X10925000Y-9415000D02*
X10895000Y-9445000D01*
X10895000Y-9475000D02*
X10925000Y-9505000D01*
X10925000Y-9475000D02*
X10895000Y-9505000D01*
X10895000Y-9535000D02*
X10925000Y-9565000D01*
X10925000Y-9535000D02*
X10895000Y-9565000D01*
X10895000Y-9595000D02*
X10925000Y-9625000D01*
X10925000Y-9595000D02*
X10895000Y-9625000D01*
X10895000Y-11095000D02*
X10925000Y-11125000D01*
X10925000Y-11095000D02*
X10895000Y-11125000D01*
X10895000Y-11155000D02*
X10925000Y-11185000D01*
X10925000Y-11155000D02*
X10895000Y-11185000D01*
X10895000Y-11215000D02*
X10925000Y-11245000D01*
X10925000Y-11215000D02*
X10895000Y-11245000D01*
X10895000Y-11275000D02*
X10925000Y-11305000D01*
X10925000Y-11275000D02*
X10895000Y-11305000D01*
X10895000Y-12775000D02*
X10925000Y-12805000D01*
X10925000Y-12775000D02*
X10895000Y-12805000D01*
X10895000Y-12835000D02*
X10925000Y-12865000D01*
X10925000Y-12835000D02*
X10895000Y-12865000D01*
X10895000Y-12895000D02*
X10925000Y-12925000D01*
X10925000Y-12895000D02*
X10895000Y-12925000D01*
X10895000Y-12955000D02*
X10925000Y-12985000D01*
X10925000Y-12955000D02*
X10895000Y-12985000D01*
X11025000Y-5715000D02*
X11055000Y-5745000D01*
X11055000Y-5715000D02*
X11025000Y-5745000D01*
X11025000Y-5825000D02*
X11055000Y-5855000D01*
X11055000Y-5825000D02*
X11025000Y-5855000D01*
X11025000Y-5910000D02*
X11055000Y-5940000D01*
X11055000Y-5910000D02*
X11025000Y-5940000D01*
X11025000Y-7395000D02*
X11055000Y-7425000D01*
X11055000Y-7395000D02*
X11025000Y-7425000D01*
X11025000Y-7505000D02*
X11055000Y-7535000D01*
X11055000Y-7505000D02*
X11025000Y-7535000D01*
X11025000Y-7590000D02*
X11055000Y-7620000D01*
X11055000Y-7590000D02*
X11025000Y-7620000D01*
X11025000Y-9075000D02*
X11055000Y-9105000D01*
X11055000Y-9075000D02*
X11025000Y-9105000D01*
X11025000Y-9185000D02*
X11055000Y-9215000D01*
X11055000Y-9185000D02*
X11025000Y-9215000D01*
X11025000Y-9270000D02*
X11055000Y-9300000D01*
X11055000Y-9270000D02*
X11025000Y-9300000D01*
X11025000Y-10755000D02*
X11055000Y-10785000D01*
X11055000Y-10755000D02*
X11025000Y-10785000D01*
X11025000Y-10865000D02*
X11055000Y-10895000D01*
X11055000Y-10865000D02*
X11025000Y-10895000D01*
X11025000Y-10950000D02*
X11055000Y-10980000D01*
X11055000Y-10950000D02*
X11025000Y-10980000D01*
X11025000Y-12435000D02*
X11055000Y-12465000D01*
X11055000Y-12435000D02*
X11025000Y-12465000D01*
X11025000Y-12545000D02*
X11055000Y-12575000D01*
X11055000Y-12545000D02*
X11025000Y-12575000D01*
X11025000Y-12630000D02*
X11055000Y-12660000D01*
X11055000Y-12630000D02*
X11025000Y-12660000D01*
X11355000Y-5715000D02*
X11385000Y-5745000D01*
X11385000Y-5715000D02*
X11355000Y-5745000D01*
X11355000Y-5825000D02*
X11385000Y-5855000D01*
X11385000Y-5825000D02*
X11355000Y-5855000D01*
X11355000Y-5905000D02*
X11385000Y-5935000D01*
X11385000Y-5905000D02*
X11355000Y-5935000D01*
X11355000Y-7395000D02*
X11385000Y-7425000D01*
X11385000Y-7395000D02*
X11355000Y-7425000D01*
X11355000Y-7505000D02*
X11385000Y-7535000D01*
X11385000Y-7505000D02*
X11355000Y-7535000D01*
X11355000Y-7585000D02*
X11385000Y-7615000D01*
X11385000Y-7585000D02*
X11355000Y-7615000D01*
X11355000Y-9075000D02*
X11385000Y-9105000D01*
X11385000Y-9075000D02*
X11355000Y-9105000D01*
X11355000Y-9185000D02*
X11385000Y-9215000D01*
X11385000Y-9185000D02*
X11355000Y-9215000D01*
X11355000Y-9265000D02*
X11385000Y-9295000D01*
X11385000Y-9265000D02*
X11355000Y-9295000D01*
X11355000Y-10755000D02*
X11385000Y-10785000D01*
X11385000Y-10755000D02*
X11355000Y-10785000D01*
X11355000Y-10865000D02*
X11385000Y-10895000D01*
X11385000Y-10865000D02*
X11355000Y-10895000D01*
X11355000Y-10945000D02*
X11385000Y-10975000D01*
X11385000Y-10945000D02*
X11355000Y-10975000D01*
X11355000Y-12435000D02*
X11385000Y-12465000D01*
X11385000Y-12435000D02*
X11355000Y-12465000D01*
X11355000Y-12545000D02*
X11385000Y-12575000D01*
X11385000Y-12545000D02*
X11355000Y-12575000D01*
X11355000Y-12625000D02*
X11385000Y-12655000D01*
X11385000Y-12625000D02*
X11355000Y-12655000D01*
X11415000Y-6015000D02*
X11445000Y-6045000D01*
X11445000Y-6015000D02*
X11415000Y-6045000D01*
X11415000Y-6075000D02*
X11445000Y-6105000D01*
X11445000Y-6075000D02*
X11415000Y-6105000D01*
X11415000Y-6135000D02*
X11445000Y-6165000D01*
X11445000Y-6135000D02*
X11415000Y-6165000D01*
X11415000Y-6195000D02*
X11445000Y-6225000D01*
X11445000Y-6195000D02*
X11415000Y-6225000D01*
X11415000Y-7695000D02*
X11445000Y-7725000D01*
X11445000Y-7695000D02*
X11415000Y-7725000D01*
X11415000Y-7755000D02*
X11445000Y-7785000D01*
X11445000Y-7755000D02*
X11415000Y-7785000D01*
X11415000Y-7815000D02*
X11445000Y-7845000D01*
X11445000Y-7815000D02*
X11415000Y-7845000D01*
X11415000Y-7875000D02*
X11445000Y-7905000D01*
X11445000Y-7875000D02*
X11415000Y-7905000D01*
X11415000Y-9375000D02*
X11445000Y-9405000D01*
X11445000Y-9375000D02*
X11415000Y-9405000D01*
X11415000Y-9435000D02*
X11445000Y-9465000D01*
X11445000Y-9435000D02*
X11415000Y-9465000D01*
X11415000Y-9495000D02*
X11445000Y-9525000D01*
X11445000Y-9495000D02*
X11415000Y-9525000D01*
X11415000Y-9555000D02*
X11445000Y-9585000D01*
X11445000Y-9555000D02*
X11415000Y-9585000D01*
X11415000Y-11055000D02*
X11445000Y-11085000D01*
X11445000Y-11055000D02*
X11415000Y-11085000D01*
X11415000Y-11115000D02*
X11445000Y-11145000D01*
X11445000Y-11115000D02*
X11415000Y-11145000D01*
X11415000Y-11175000D02*
X11445000Y-11205000D01*
X11445000Y-11175000D02*
X11415000Y-11205000D01*
X11415000Y-11235000D02*
X11445000Y-11265000D01*
X11445000Y-11235000D02*
X11415000Y-11265000D01*
X11415000Y-12735000D02*
X11445000Y-12765000D01*
X11445000Y-12735000D02*
X11415000Y-12765000D01*
X11415000Y-12795000D02*
X11445000Y-12825000D01*
X11445000Y-12795000D02*
X11415000Y-12825000D01*
X11415000Y-12855000D02*
X11445000Y-12885000D01*
X11445000Y-12855000D02*
X11415000Y-12885000D01*
X11415000Y-12915000D02*
X11445000Y-12945000D01*
X11445000Y-12915000D02*
X11415000Y-12945000D01*
X11720000Y-5639950D02*
X11750000Y-5669950D01*
X11750000Y-5639950D02*
X11720000Y-5669950D01*
X11720000Y-5705000D02*
X11750000Y-5735000D01*
X11750000Y-5705000D02*
X11720000Y-5735000D01*
X11720000Y-7319950D02*
X11750000Y-7349950D01*
X11750000Y-7319950D02*
X11720000Y-7349950D01*
X11720000Y-7385000D02*
X11750000Y-7415000D01*
X11750000Y-7385000D02*
X11720000Y-7415000D01*
X11720000Y-8999950D02*
X11750000Y-9029950D01*
X11750000Y-8999950D02*
X11720000Y-9029950D01*
X11720000Y-9065000D02*
X11750000Y-9095000D01*
X11750000Y-9065000D02*
X11720000Y-9095000D01*
X11720000Y-10679950D02*
X11750000Y-10709950D01*
X11750000Y-10679950D02*
X11720000Y-10709950D01*
X11720000Y-10745000D02*
X11750000Y-10775000D01*
X11750000Y-10745000D02*
X11720000Y-10775000D01*
X11720000Y-12359950D02*
X11750000Y-12389950D01*
X11750000Y-12359950D02*
X11720000Y-12389950D01*
X11720000Y-12425000D02*
X11750000Y-12455000D01*
X11750000Y-12425000D02*
X11720000Y-12455000D01*
X11835000Y-5790000D02*
X11865000Y-5820000D01*
X11865000Y-5790000D02*
X11835000Y-5820000D01*
X11835000Y-7470000D02*
X11865000Y-7500000D01*
X11865000Y-7470000D02*
X11835000Y-7500000D01*
X11835000Y-9150000D02*
X11865000Y-9180000D01*
X11865000Y-9150000D02*
X11835000Y-9180000D01*
X11835000Y-10830000D02*
X11865000Y-10860000D01*
X11865000Y-10830000D02*
X11835000Y-10860000D01*
X11835000Y-12510000D02*
X11865000Y-12540000D01*
X11865000Y-12510000D02*
X11835000Y-12540000D01*
X11905000Y-5790000D02*
X11935000Y-5820000D01*
X11935000Y-5790000D02*
X11905000Y-5820000D01*
X11905000Y-7470000D02*
X11935000Y-7500000D01*
X11935000Y-7470000D02*
X11905000Y-7500000D01*
X11905000Y-9150000D02*
X11935000Y-9180000D01*
X11935000Y-9150000D02*
X11905000Y-9180000D01*
X11905000Y-10830000D02*
X11935000Y-10860000D01*
X11935000Y-10830000D02*
X11905000Y-10860000D01*
X11905000Y-12510000D02*
X11935000Y-12540000D01*
X11935000Y-12510000D02*
X11905000Y-12540000D01*
X11970000Y-5790000D02*
X12000000Y-5820000D01*
X12000000Y-5790000D02*
X11970000Y-5820000D01*
X11970000Y-7470000D02*
X12000000Y-7500000D01*
X12000000Y-7470000D02*
X11970000Y-7500000D01*
X11970000Y-9150000D02*
X12000000Y-9180000D01*
X12000000Y-9150000D02*
X11970000Y-9180000D01*
X11970000Y-10830000D02*
X12000000Y-10860000D01*
X12000000Y-10830000D02*
X11970000Y-10860000D01*
X11970000Y-12510000D02*
X12000000Y-12540000D01*
X12000000Y-12510000D02*
X11970000Y-12540000D01*
X12090000Y-7060000D02*
X12120000Y-7090000D01*
X12120000Y-7060000D02*
X12090000Y-7090000D01*
X12090000Y-8740000D02*
X12120000Y-8770000D01*
X12120000Y-8740000D02*
X12090000Y-8770000D01*
X12090000Y-10420000D02*
X12120000Y-10450000D01*
X12120000Y-10420000D02*
X12090000Y-10450000D01*
X12090000Y-12100000D02*
X12120000Y-12130000D01*
X12120000Y-12100000D02*
X12090000Y-12130000D01*
X12090000Y-13780000D02*
X12120000Y-13810000D01*
X12120000Y-13780000D02*
X12090000Y-13810000D01*
X12155000Y-7060000D02*
X12185000Y-7090000D01*
X12185000Y-7060000D02*
X12155000Y-7090000D01*
X12155000Y-8740000D02*
X12185000Y-8770000D01*
X12185000Y-8740000D02*
X12155000Y-8770000D01*
X12155000Y-10420000D02*
X12185000Y-10450000D01*
X12185000Y-10420000D02*
X12155000Y-10450000D01*
X12155000Y-12100000D02*
X12185000Y-12130000D01*
X12185000Y-12100000D02*
X12155000Y-12130000D01*
X12155000Y-13780000D02*
X12185000Y-13810000D01*
X12185000Y-13780000D02*
X12155000Y-13810000D01*
X12165000Y-5785000D02*
X12195000Y-5815000D01*
X12195000Y-5785000D02*
X12165000Y-5815000D01*
X12165000Y-6185000D02*
X12195000Y-6215000D01*
X12195000Y-6185000D02*
X12165000Y-6215000D01*
X12165000Y-7465000D02*
X12195000Y-7495000D01*
X12195000Y-7465000D02*
X12165000Y-7495000D01*
X12165000Y-7865000D02*
X12195000Y-7895000D01*
X12195000Y-7865000D02*
X12165000Y-7895000D01*
X12165000Y-9145000D02*
X12195000Y-9175000D01*
X12195000Y-9145000D02*
X12165000Y-9175000D01*
X12165000Y-9545000D02*
X12195000Y-9575000D01*
X12195000Y-9545000D02*
X12165000Y-9575000D01*
X12165000Y-10825000D02*
X12195000Y-10855000D01*
X12195000Y-10825000D02*
X12165000Y-10855000D01*
X12165000Y-11225000D02*
X12195000Y-11255000D01*
X12195000Y-11225000D02*
X12165000Y-11255000D01*
X12165000Y-12505000D02*
X12195000Y-12535000D01*
X12195000Y-12505000D02*
X12165000Y-12535000D01*
X12165000Y-12905000D02*
X12195000Y-12935000D01*
X12195000Y-12905000D02*
X12165000Y-12935000D01*
X12215000Y-6935000D02*
X12245000Y-6965000D01*
X12245000Y-6935000D02*
X12215000Y-6965000D01*
X12215000Y-8615000D02*
X12245000Y-8645000D01*
X12245000Y-8615000D02*
X12215000Y-8645000D01*
X12215000Y-10295000D02*
X12245000Y-10325000D01*
X12245000Y-10295000D02*
X12215000Y-10325000D01*
X12215000Y-11975000D02*
X12245000Y-12005000D01*
X12245000Y-11975000D02*
X12215000Y-12005000D01*
X12215000Y-13655000D02*
X12245000Y-13685000D01*
X12245000Y-13655000D02*
X12215000Y-13685000D01*
X12230000Y-7060000D02*
X12260000Y-7090000D01*
X12260000Y-7060000D02*
X12230000Y-7090000D01*
X12230000Y-8740000D02*
X12260000Y-8770000D01*
X12260000Y-8740000D02*
X12230000Y-8770000D01*
X12230000Y-10420000D02*
X12260000Y-10450000D01*
X12260000Y-10420000D02*
X12230000Y-10450000D01*
X12230000Y-12100000D02*
X12260000Y-12130000D01*
X12260000Y-12100000D02*
X12230000Y-12130000D01*
X12230000Y-13780000D02*
X12260000Y-13810000D01*
X12260000Y-13780000D02*
X12230000Y-13810000D01*
X12280000Y-6935000D02*
X12310000Y-6965000D01*
X12310000Y-6935000D02*
X12280000Y-6965000D01*
X12280000Y-8615000D02*
X12310000Y-8645000D01*
X12310000Y-8615000D02*
X12280000Y-8645000D01*
X12280000Y-10295000D02*
X12310000Y-10325000D01*
X12310000Y-10295000D02*
X12280000Y-10325000D01*
X12280000Y-11975000D02*
X12310000Y-12005000D01*
X12310000Y-11975000D02*
X12280000Y-12005000D01*
X12280000Y-13655000D02*
X12310000Y-13685000D01*
X12310000Y-13655000D02*
X12280000Y-13685000D01*
X12330000Y-7140000D02*
X12360000Y-7170000D01*
X12360000Y-7140000D02*
X12330000Y-7170000D01*
X12330000Y-7210000D02*
X12360000Y-7240000D01*
X12360000Y-7210000D02*
X12330000Y-7240000D01*
X12330000Y-8820000D02*
X12360000Y-8850000D01*
X12360000Y-8820000D02*
X12330000Y-8850000D01*
X12330000Y-8890000D02*
X12360000Y-8920000D01*
X12360000Y-8890000D02*
X12330000Y-8920000D01*
X12330000Y-10500000D02*
X12360000Y-10530000D01*
X12360000Y-10500000D02*
X12330000Y-10530000D01*
X12330000Y-10570000D02*
X12360000Y-10600000D01*
X12360000Y-10570000D02*
X12330000Y-10600000D01*
X12330000Y-12180000D02*
X12360000Y-12210000D01*
X12360000Y-12180000D02*
X12330000Y-12210000D01*
X12330000Y-12250000D02*
X12360000Y-12280000D01*
X12360000Y-12250000D02*
X12330000Y-12280000D01*
X12330000Y-13860000D02*
X12360000Y-13890000D01*
X12360000Y-13860000D02*
X12330000Y-13890000D01*
X12330000Y-13930000D02*
X12360000Y-13960000D01*
X12360000Y-13930000D02*
X12330000Y-13960000D01*
X12345000Y-6935000D02*
X12375000Y-6965000D01*
X12375000Y-6935000D02*
X12345000Y-6965000D01*
X12345000Y-8615000D02*
X12375000Y-8645000D01*
X12375000Y-8615000D02*
X12345000Y-8645000D01*
X12345000Y-10295000D02*
X12375000Y-10325000D01*
X12375000Y-10295000D02*
X12345000Y-10325000D01*
X12345000Y-11975000D02*
X12375000Y-12005000D01*
X12375000Y-11975000D02*
X12345000Y-12005000D01*
X12345000Y-13655000D02*
X12375000Y-13685000D01*
X12375000Y-13655000D02*
X12345000Y-13685000D01*
X12375000Y-5775000D02*
X12405000Y-5805000D01*
X12405000Y-5775000D02*
X12375000Y-5805000D01*
X12375000Y-6195000D02*
X12405000Y-6225000D01*
X12405000Y-6195000D02*
X12375000Y-6225000D01*
X12375000Y-7455000D02*
X12405000Y-7485000D01*
X12405000Y-7455000D02*
X12375000Y-7485000D01*
X12375000Y-7875000D02*
X12405000Y-7905000D01*
X12405000Y-7875000D02*
X12375000Y-7905000D01*
X12375000Y-9135000D02*
X12405000Y-9165000D01*
X12405000Y-9135000D02*
X12375000Y-9165000D01*
X12375000Y-9555000D02*
X12405000Y-9585000D01*
X12405000Y-9555000D02*
X12375000Y-9585000D01*
X12375000Y-10815000D02*
X12405000Y-10845000D01*
X12405000Y-10815000D02*
X12375000Y-10845000D01*
X12375000Y-11235000D02*
X12405000Y-11265000D01*
X12405000Y-11235000D02*
X12375000Y-11265000D01*
X12375000Y-12495000D02*
X12405000Y-12525000D01*
X12405000Y-12495000D02*
X12375000Y-12525000D01*
X12375000Y-12915000D02*
X12405000Y-12945000D01*
X12405000Y-12915000D02*
X12375000Y-12945000D01*
X12405000Y-6935000D02*
X12435000Y-6965000D01*
X12435000Y-6935000D02*
X12405000Y-6965000D01*
X12405000Y-8615000D02*
X12435000Y-8645000D01*
X12435000Y-8615000D02*
X12405000Y-8645000D01*
X12405000Y-10295000D02*
X12435000Y-10325000D01*
X12435000Y-10295000D02*
X12405000Y-10325000D01*
X12405000Y-11975000D02*
X12435000Y-12005000D01*
X12435000Y-11975000D02*
X12405000Y-12005000D01*
X12405000Y-13655000D02*
X12435000Y-13685000D01*
X12435000Y-13655000D02*
X12405000Y-13685000D01*
X12425000Y-6315000D02*
X12455000Y-6345000D01*
X12455000Y-6315000D02*
X12425000Y-6345000D01*
X12425000Y-6425000D02*
X12455000Y-6455000D01*
X12455000Y-6425000D02*
X12425000Y-6455000D01*
X12425000Y-7995000D02*
X12455000Y-8025000D01*
X12455000Y-7995000D02*
X12425000Y-8025000D01*
X12425000Y-8105000D02*
X12455000Y-8135000D01*
X12455000Y-8105000D02*
X12425000Y-8135000D01*
X12425000Y-9675000D02*
X12455000Y-9705000D01*
X12455000Y-9675000D02*
X12425000Y-9705000D01*
X12425000Y-9785000D02*
X12455000Y-9815000D01*
X12455000Y-9785000D02*
X12425000Y-9815000D01*
X12425000Y-11355000D02*
X12455000Y-11385000D01*
X12455000Y-11355000D02*
X12425000Y-11385000D01*
X12425000Y-11465000D02*
X12455000Y-11495000D01*
X12455000Y-11465000D02*
X12425000Y-11495000D01*
X12425000Y-13035000D02*
X12455000Y-13065000D01*
X12455000Y-13035000D02*
X12425000Y-13065000D01*
X12425000Y-13145000D02*
X12455000Y-13175000D01*
X12455000Y-13145000D02*
X12425000Y-13175000D01*
X12435000Y-6495000D02*
X12465000Y-6525000D01*
X12465000Y-6495000D02*
X12435000Y-6525000D01*
X12435000Y-8175000D02*
X12465000Y-8205000D01*
X12465000Y-8175000D02*
X12435000Y-8205000D01*
X12435000Y-9855000D02*
X12465000Y-9885000D01*
X12465000Y-9855000D02*
X12435000Y-9885000D01*
X12435000Y-11535000D02*
X12465000Y-11565000D01*
X12465000Y-11535000D02*
X12435000Y-11565000D01*
X12435000Y-13215000D02*
X12465000Y-13245000D01*
X12465000Y-13215000D02*
X12435000Y-13245000D01*
X12495000Y-6495000D02*
X12525000Y-6525000D01*
X12525000Y-6495000D02*
X12495000Y-6525000D01*
X12495000Y-8175000D02*
X12525000Y-8205000D01*
X12525000Y-8175000D02*
X12495000Y-8205000D01*
X12495000Y-9855000D02*
X12525000Y-9885000D01*
X12525000Y-9855000D02*
X12495000Y-9885000D01*
X12495000Y-11535000D02*
X12525000Y-11565000D01*
X12525000Y-11535000D02*
X12495000Y-11565000D01*
X12495000Y-13215000D02*
X12525000Y-13245000D01*
X12525000Y-13215000D02*
X12495000Y-13245000D01*
X12545000Y-6770000D02*
X12575000Y-6800000D01*
X12575000Y-6770000D02*
X12545000Y-6800000D01*
X12545000Y-8450000D02*
X12575000Y-8480000D01*
X12575000Y-8450000D02*
X12545000Y-8480000D01*
X12545000Y-10130000D02*
X12575000Y-10160000D01*
X12575000Y-10130000D02*
X12545000Y-10160000D01*
X12545000Y-11810000D02*
X12575000Y-11840000D01*
X12575000Y-11810000D02*
X12545000Y-11840000D01*
X12545000Y-13490000D02*
X12575000Y-13520000D01*
X12575000Y-13490000D02*
X12545000Y-13520000D01*
X12575000Y-6055000D02*
X12605000Y-6085000D01*
X12605000Y-6055000D02*
X12575000Y-6085000D01*
X12575000Y-6115000D02*
X12605000Y-6145000D01*
X12605000Y-6115000D02*
X12575000Y-6145000D01*
X12575000Y-6175000D02*
X12605000Y-6205000D01*
X12605000Y-6175000D02*
X12575000Y-6205000D01*
X12575000Y-6235000D02*
X12605000Y-6265000D01*
X12605000Y-6235000D02*
X12575000Y-6265000D01*
X12575000Y-7735000D02*
X12605000Y-7765000D01*
X12605000Y-7735000D02*
X12575000Y-7765000D01*
X12575000Y-7795000D02*
X12605000Y-7825000D01*
X12605000Y-7795000D02*
X12575000Y-7825000D01*
X12575000Y-7855000D02*
X12605000Y-7885000D01*
X12605000Y-7855000D02*
X12575000Y-7885000D01*
X12575000Y-7915000D02*
X12605000Y-7945000D01*
X12605000Y-7915000D02*
X12575000Y-7945000D01*
X12575000Y-9415000D02*
X12605000Y-9445000D01*
X12605000Y-9415000D02*
X12575000Y-9445000D01*
X12575000Y-9475000D02*
X12605000Y-9505000D01*
X12605000Y-9475000D02*
X12575000Y-9505000D01*
X12575000Y-9535000D02*
X12605000Y-9565000D01*
X12605000Y-9535000D02*
X12575000Y-9565000D01*
X12575000Y-9595000D02*
X12605000Y-9625000D01*
X12605000Y-9595000D02*
X12575000Y-9625000D01*
X12575000Y-11095000D02*
X12605000Y-11125000D01*
X12605000Y-11095000D02*
X12575000Y-11125000D01*
X12575000Y-11155000D02*
X12605000Y-11185000D01*
X12605000Y-11155000D02*
X12575000Y-11185000D01*
X12575000Y-11215000D02*
X12605000Y-11245000D01*
X12605000Y-11215000D02*
X12575000Y-11245000D01*
X12575000Y-11275000D02*
X12605000Y-11305000D01*
X12605000Y-11275000D02*
X12575000Y-11305000D01*
X12575000Y-12775000D02*
X12605000Y-12805000D01*
X12605000Y-12775000D02*
X12575000Y-12805000D01*
X12575000Y-12835000D02*
X12605000Y-12865000D01*
X12605000Y-12835000D02*
X12575000Y-12865000D01*
X12575000Y-12895000D02*
X12605000Y-12925000D01*
X12605000Y-12895000D02*
X12575000Y-12925000D01*
X12575000Y-12955000D02*
X12605000Y-12985000D01*
X12605000Y-12955000D02*
X12575000Y-12985000D01*
X12705000Y-5715000D02*
X12735000Y-5745000D01*
X12735000Y-5715000D02*
X12705000Y-5745000D01*
X12705000Y-5825000D02*
X12735000Y-5855000D01*
X12735000Y-5825000D02*
X12705000Y-5855000D01*
X12705000Y-5910000D02*
X12735000Y-5940000D01*
X12735000Y-5910000D02*
X12705000Y-5940000D01*
X12705000Y-7395000D02*
X12735000Y-7425000D01*
X12735000Y-7395000D02*
X12705000Y-7425000D01*
X12705000Y-7505000D02*
X12735000Y-7535000D01*
X12735000Y-7505000D02*
X12705000Y-7535000D01*
X12705000Y-7590000D02*
X12735000Y-7620000D01*
X12735000Y-7590000D02*
X12705000Y-7620000D01*
X12705000Y-9075000D02*
X12735000Y-9105000D01*
X12735000Y-9075000D02*
X12705000Y-9105000D01*
X12705000Y-9185000D02*
X12735000Y-9215000D01*
X12735000Y-9185000D02*
X12705000Y-9215000D01*
X12705000Y-9270000D02*
X12735000Y-9300000D01*
X12735000Y-9270000D02*
X12705000Y-9300000D01*
X12705000Y-10755000D02*
X12735000Y-10785000D01*
X12735000Y-10755000D02*
X12705000Y-10785000D01*
X12705000Y-10865000D02*
X12735000Y-10895000D01*
X12735000Y-10865000D02*
X12705000Y-10895000D01*
X12705000Y-10950000D02*
X12735000Y-10980000D01*
X12735000Y-10950000D02*
X12705000Y-10980000D01*
X12705000Y-12435000D02*
X12735000Y-12465000D01*
X12735000Y-12435000D02*
X12705000Y-12465000D01*
X12705000Y-12545000D02*
X12735000Y-12575000D01*
X12735000Y-12545000D02*
X12705000Y-12575000D01*
X12705000Y-12630000D02*
X12735000Y-12660000D01*
X12735000Y-12630000D02*
X12705000Y-12660000D01*
X13035000Y-5715000D02*
X13065000Y-5745000D01*
X13065000Y-5715000D02*
X13035000Y-5745000D01*
X13035000Y-5825000D02*
X13065000Y-5855000D01*
X13065000Y-5825000D02*
X13035000Y-5855000D01*
X13035000Y-5905000D02*
X13065000Y-5935000D01*
X13065000Y-5905000D02*
X13035000Y-5935000D01*
X13035000Y-7395000D02*
X13065000Y-7425000D01*
X13065000Y-7395000D02*
X13035000Y-7425000D01*
X13035000Y-7505000D02*
X13065000Y-7535000D01*
X13065000Y-7505000D02*
X13035000Y-7535000D01*
X13035000Y-7585000D02*
X13065000Y-7615000D01*
X13065000Y-7585000D02*
X13035000Y-7615000D01*
X13035000Y-9075000D02*
X13065000Y-9105000D01*
X13065000Y-9075000D02*
X13035000Y-9105000D01*
X13035000Y-9185000D02*
X13065000Y-9215000D01*
X13065000Y-9185000D02*
X13035000Y-9215000D01*
X13035000Y-9265000D02*
X13065000Y-9295000D01*
X13065000Y-9265000D02*
X13035000Y-9295000D01*
X13035000Y-10755000D02*
X13065000Y-10785000D01*
X13065000Y-10755000D02*
X13035000Y-10785000D01*
X13035000Y-10865000D02*
X13065000Y-10895000D01*
X13065000Y-10865000D02*
X13035000Y-10895000D01*
X13035000Y-10945000D02*
X13065000Y-10975000D01*
X13065000Y-10945000D02*
X13035000Y-10975000D01*
X13035000Y-12435000D02*
X13065000Y-12465000D01*
X13065000Y-12435000D02*
X13035000Y-12465000D01*
X13035000Y-12545000D02*
X13065000Y-12575000D01*
X13065000Y-12545000D02*
X13035000Y-12575000D01*
X13035000Y-12625000D02*
X13065000Y-12655000D01*
X13065000Y-12625000D02*
X13035000Y-12655000D01*
X13095000Y-6015000D02*
X13125000Y-6045000D01*
X13125000Y-6015000D02*
X13095000Y-6045000D01*
X13095000Y-6075000D02*
X13125000Y-6105000D01*
X13125000Y-6075000D02*
X13095000Y-6105000D01*
X13095000Y-6135000D02*
X13125000Y-6165000D01*
X13125000Y-6135000D02*
X13095000Y-6165000D01*
X13095000Y-6195000D02*
X13125000Y-6225000D01*
X13125000Y-6195000D02*
X13095000Y-6225000D01*
X13095000Y-7695000D02*
X13125000Y-7725000D01*
X13125000Y-7695000D02*
X13095000Y-7725000D01*
X13095000Y-7755000D02*
X13125000Y-7785000D01*
X13125000Y-7755000D02*
X13095000Y-7785000D01*
X13095000Y-7815000D02*
X13125000Y-7845000D01*
X13125000Y-7815000D02*
X13095000Y-7845000D01*
X13095000Y-7875000D02*
X13125000Y-7905000D01*
X13125000Y-7875000D02*
X13095000Y-7905000D01*
X13095000Y-9375000D02*
X13125000Y-9405000D01*
X13125000Y-9375000D02*
X13095000Y-9405000D01*
X13095000Y-9435000D02*
X13125000Y-9465000D01*
X13125000Y-9435000D02*
X13095000Y-9465000D01*
X13095000Y-9495000D02*
X13125000Y-9525000D01*
X13125000Y-9495000D02*
X13095000Y-9525000D01*
X13095000Y-9555000D02*
X13125000Y-9585000D01*
X13125000Y-9555000D02*
X13095000Y-9585000D01*
X13095000Y-11055000D02*
X13125000Y-11085000D01*
X13125000Y-11055000D02*
X13095000Y-11085000D01*
X13095000Y-11115000D02*
X13125000Y-11145000D01*
X13125000Y-11115000D02*
X13095000Y-11145000D01*
X13095000Y-11175000D02*
X13125000Y-11205000D01*
X13125000Y-11175000D02*
X13095000Y-11205000D01*
X13095000Y-11235000D02*
X13125000Y-11265000D01*
X13125000Y-11235000D02*
X13095000Y-11265000D01*
X13095000Y-12735000D02*
X13125000Y-12765000D01*
X13125000Y-12735000D02*
X13095000Y-12765000D01*
X13095000Y-12795000D02*
X13125000Y-12825000D01*
X13125000Y-12795000D02*
X13095000Y-12825000D01*
X13095000Y-12855000D02*
X13125000Y-12885000D01*
X13125000Y-12855000D02*
X13095000Y-12885000D01*
X13095000Y-12915000D02*
X13125000Y-12945000D01*
X13125000Y-12915000D02*
X13095000Y-12945000D01*
X13400000Y-5639950D02*
X13430000Y-5669950D01*
X13430000Y-5639950D02*
X13400000Y-5669950D01*
X13400000Y-5705000D02*
X13430000Y-5735000D01*
X13430000Y-5705000D02*
X13400000Y-5735000D01*
X13400000Y-7319950D02*
X13430000Y-7349950D01*
X13430000Y-7319950D02*
X13400000Y-7349950D01*
X13400000Y-7385000D02*
X13430000Y-7415000D01*
X13430000Y-7385000D02*
X13400000Y-7415000D01*
X13400000Y-8999950D02*
X13430000Y-9029950D01*
X13430000Y-8999950D02*
X13400000Y-9029950D01*
X13400000Y-9065000D02*
X13430000Y-9095000D01*
X13430000Y-9065000D02*
X13400000Y-9095000D01*
X13400000Y-10679950D02*
X13430000Y-10709950D01*
X13430000Y-10679950D02*
X13400000Y-10709950D01*
X13400000Y-10745000D02*
X13430000Y-10775000D01*
X13430000Y-10745000D02*
X13400000Y-10775000D01*
X13400000Y-12359950D02*
X13430000Y-12389950D01*
X13430000Y-12359950D02*
X13400000Y-12389950D01*
X13400000Y-12425000D02*
X13430000Y-12455000D01*
X13430000Y-12425000D02*
X13400000Y-12455000D01*
X13515000Y-5790000D02*
X13545000Y-5820000D01*
X13545000Y-5790000D02*
X13515000Y-5820000D01*
X13515000Y-7470000D02*
X13545000Y-7500000D01*
X13545000Y-7470000D02*
X13515000Y-7500000D01*
X13515000Y-9150000D02*
X13545000Y-9180000D01*
X13545000Y-9150000D02*
X13515000Y-9180000D01*
X13515000Y-10830000D02*
X13545000Y-10860000D01*
X13545000Y-10830000D02*
X13515000Y-10860000D01*
X13515000Y-12510000D02*
X13545000Y-12540000D01*
X13545000Y-12510000D02*
X13515000Y-12540000D01*
X13585000Y-5790000D02*
X13615000Y-5820000D01*
X13615000Y-5790000D02*
X13585000Y-5820000D01*
X13585000Y-7470000D02*
X13615000Y-7500000D01*
X13615000Y-7470000D02*
X13585000Y-7500000D01*
X13585000Y-9150000D02*
X13615000Y-9180000D01*
X13615000Y-9150000D02*
X13585000Y-9180000D01*
X13585000Y-10830000D02*
X13615000Y-10860000D01*
X13615000Y-10830000D02*
X13585000Y-10860000D01*
X13585000Y-12510000D02*
X13615000Y-12540000D01*
X13615000Y-12510000D02*
X13585000Y-12540000D01*
X13650000Y-5790000D02*
X13680000Y-5820000D01*
X13680000Y-5790000D02*
X13650000Y-5820000D01*
X13650000Y-7470000D02*
X13680000Y-7500000D01*
X13680000Y-7470000D02*
X13650000Y-7500000D01*
X13650000Y-9150000D02*
X13680000Y-9180000D01*
X13680000Y-9150000D02*
X13650000Y-9180000D01*
X13650000Y-10830000D02*
X13680000Y-10860000D01*
X13680000Y-10830000D02*
X13650000Y-10860000D01*
X13650000Y-12510000D02*
X13680000Y-12540000D01*
X13680000Y-12510000D02*
X13650000Y-12540000D01*
X13770000Y-7060000D02*
X13800000Y-7090000D01*
X13800000Y-7060000D02*
X13770000Y-7090000D01*
X13770000Y-8740000D02*
X13800000Y-8770000D01*
X13800000Y-8740000D02*
X13770000Y-8770000D01*
X13770000Y-10420000D02*
X13800000Y-10450000D01*
X13800000Y-10420000D02*
X13770000Y-10450000D01*
X13770000Y-12100000D02*
X13800000Y-12130000D01*
X13800000Y-12100000D02*
X13770000Y-12130000D01*
X13770000Y-13780000D02*
X13800000Y-13810000D01*
X13800000Y-13780000D02*
X13770000Y-13810000D01*
X13835000Y-7060000D02*
X13865000Y-7090000D01*
X13865000Y-7060000D02*
X13835000Y-7090000D01*
X13835000Y-8740000D02*
X13865000Y-8770000D01*
X13865000Y-8740000D02*
X13835000Y-8770000D01*
X13835000Y-10420000D02*
X13865000Y-10450000D01*
X13865000Y-10420000D02*
X13835000Y-10450000D01*
X13835000Y-12100000D02*
X13865000Y-12130000D01*
X13865000Y-12100000D02*
X13835000Y-12130000D01*
X13835000Y-13780000D02*
X13865000Y-13810000D01*
X13865000Y-13780000D02*
X13835000Y-13810000D01*
X13845000Y-5785000D02*
X13875000Y-5815000D01*
X13875000Y-5785000D02*
X13845000Y-5815000D01*
X13845000Y-6185000D02*
X13875000Y-6215000D01*
X13875000Y-6185000D02*
X13845000Y-6215000D01*
X13845000Y-7465000D02*
X13875000Y-7495000D01*
X13875000Y-7465000D02*
X13845000Y-7495000D01*
X13845000Y-7865000D02*
X13875000Y-7895000D01*
X13875000Y-7865000D02*
X13845000Y-7895000D01*
X13845000Y-9145000D02*
X13875000Y-9175000D01*
X13875000Y-9145000D02*
X13845000Y-9175000D01*
X13845000Y-9545000D02*
X13875000Y-9575000D01*
X13875000Y-9545000D02*
X13845000Y-9575000D01*
X13845000Y-10825000D02*
X13875000Y-10855000D01*
X13875000Y-10825000D02*
X13845000Y-10855000D01*
X13845000Y-11225000D02*
X13875000Y-11255000D01*
X13875000Y-11225000D02*
X13845000Y-11255000D01*
X13845000Y-12505000D02*
X13875000Y-12535000D01*
X13875000Y-12505000D02*
X13845000Y-12535000D01*
X13845000Y-12905000D02*
X13875000Y-12935000D01*
X13875000Y-12905000D02*
X13845000Y-12935000D01*
X13895000Y-6935000D02*
X13925000Y-6965000D01*
X13925000Y-6935000D02*
X13895000Y-6965000D01*
X13895000Y-8615000D02*
X13925000Y-8645000D01*
X13925000Y-8615000D02*
X13895000Y-8645000D01*
X13895000Y-10295000D02*
X13925000Y-10325000D01*
X13925000Y-10295000D02*
X13895000Y-10325000D01*
X13895000Y-11975000D02*
X13925000Y-12005000D01*
X13925000Y-11975000D02*
X13895000Y-12005000D01*
X13895000Y-13655000D02*
X13925000Y-13685000D01*
X13925000Y-13655000D02*
X13895000Y-13685000D01*
X13910000Y-7060000D02*
X13940000Y-7090000D01*
X13940000Y-7060000D02*
X13910000Y-7090000D01*
X13910000Y-8740000D02*
X13940000Y-8770000D01*
X13940000Y-8740000D02*
X13910000Y-8770000D01*
X13910000Y-10420000D02*
X13940000Y-10450000D01*
X13940000Y-10420000D02*
X13910000Y-10450000D01*
X13910000Y-12100000D02*
X13940000Y-12130000D01*
X13940000Y-12100000D02*
X13910000Y-12130000D01*
X13910000Y-13780000D02*
X13940000Y-13810000D01*
X13940000Y-13780000D02*
X13910000Y-13810000D01*
X13960000Y-6935000D02*
X13990000Y-6965000D01*
X13990000Y-6935000D02*
X13960000Y-6965000D01*
X13960000Y-8615000D02*
X13990000Y-8645000D01*
X13990000Y-8615000D02*
X13960000Y-8645000D01*
X13960000Y-10295000D02*
X13990000Y-10325000D01*
X13990000Y-10295000D02*
X13960000Y-10325000D01*
X13960000Y-11975000D02*
X13990000Y-12005000D01*
X13990000Y-11975000D02*
X13960000Y-12005000D01*
X13960000Y-13655000D02*
X13990000Y-13685000D01*
X13990000Y-13655000D02*
X13960000Y-13685000D01*
X14010000Y-7140000D02*
X14040000Y-7170000D01*
X14040000Y-7140000D02*
X14010000Y-7170000D01*
X14010000Y-7210000D02*
X14040000Y-7240000D01*
X14040000Y-7210000D02*
X14010000Y-7240000D01*
X14010000Y-8820000D02*
X14040000Y-8850000D01*
X14040000Y-8820000D02*
X14010000Y-8850000D01*
X14010000Y-8890000D02*
X14040000Y-8920000D01*
X14040000Y-8890000D02*
X14010000Y-8920000D01*
X14010000Y-10500000D02*
X14040000Y-10530000D01*
X14040000Y-10500000D02*
X14010000Y-10530000D01*
X14010000Y-10570000D02*
X14040000Y-10600000D01*
X14040000Y-10570000D02*
X14010000Y-10600000D01*
X14010000Y-12180000D02*
X14040000Y-12210000D01*
X14040000Y-12180000D02*
X14010000Y-12210000D01*
X14010000Y-12250000D02*
X14040000Y-12280000D01*
X14040000Y-12250000D02*
X14010000Y-12280000D01*
X14010000Y-13860000D02*
X14040000Y-13890000D01*
X14040000Y-13860000D02*
X14010000Y-13890000D01*
X14010000Y-13930000D02*
X14040000Y-13960000D01*
X14040000Y-13930000D02*
X14010000Y-13960000D01*
X14025000Y-6935000D02*
X14055000Y-6965000D01*
X14055000Y-6935000D02*
X14025000Y-6965000D01*
X14025000Y-8615000D02*
X14055000Y-8645000D01*
X14055000Y-8615000D02*
X14025000Y-8645000D01*
X14025000Y-10295000D02*
X14055000Y-10325000D01*
X14055000Y-10295000D02*
X14025000Y-10325000D01*
X14025000Y-11975000D02*
X14055000Y-12005000D01*
X14055000Y-11975000D02*
X14025000Y-12005000D01*
X14025000Y-13655000D02*
X14055000Y-13685000D01*
X14055000Y-13655000D02*
X14025000Y-13685000D01*
X14055000Y-5775000D02*
X14085000Y-5805000D01*
X14085000Y-5775000D02*
X14055000Y-5805000D01*
X14055000Y-6195000D02*
X14085000Y-6225000D01*
X14085000Y-6195000D02*
X14055000Y-6225000D01*
X14055000Y-7455000D02*
X14085000Y-7485000D01*
X14085000Y-7455000D02*
X14055000Y-7485000D01*
X14055000Y-7875000D02*
X14085000Y-7905000D01*
X14085000Y-7875000D02*
X14055000Y-7905000D01*
X14055000Y-9135000D02*
X14085000Y-9165000D01*
X14085000Y-9135000D02*
X14055000Y-9165000D01*
X14055000Y-9555000D02*
X14085000Y-9585000D01*
X14085000Y-9555000D02*
X14055000Y-9585000D01*
X14055000Y-10815000D02*
X14085000Y-10845000D01*
X14085000Y-10815000D02*
X14055000Y-10845000D01*
X14055000Y-11235000D02*
X14085000Y-11265000D01*
X14085000Y-11235000D02*
X14055000Y-11265000D01*
X14055000Y-12495000D02*
X14085000Y-12525000D01*
X14085000Y-12495000D02*
X14055000Y-12525000D01*
X14055000Y-12915000D02*
X14085000Y-12945000D01*
X14085000Y-12915000D02*
X14055000Y-12945000D01*
X14085000Y-6935000D02*
X14115000Y-6965000D01*
X14115000Y-6935000D02*
X14085000Y-6965000D01*
X14085000Y-8615000D02*
X14115000Y-8645000D01*
X14115000Y-8615000D02*
X14085000Y-8645000D01*
X14085000Y-10295000D02*
X14115000Y-10325000D01*
X14115000Y-10295000D02*
X14085000Y-10325000D01*
X14085000Y-11975000D02*
X14115000Y-12005000D01*
X14115000Y-11975000D02*
X14085000Y-12005000D01*
X14085000Y-13655000D02*
X14115000Y-13685000D01*
X14115000Y-13655000D02*
X14085000Y-13685000D01*
X14105000Y-6315000D02*
X14135000Y-6345000D01*
X14135000Y-6315000D02*
X14105000Y-6345000D01*
X14105000Y-6425000D02*
X14135000Y-6455000D01*
X14135000Y-6425000D02*
X14105000Y-6455000D01*
X14105000Y-7995000D02*
X14135000Y-8025000D01*
X14135000Y-7995000D02*
X14105000Y-8025000D01*
X14105000Y-8105000D02*
X14135000Y-8135000D01*
X14135000Y-8105000D02*
X14105000Y-8135000D01*
X14105000Y-9675000D02*
X14135000Y-9705000D01*
X14135000Y-9675000D02*
X14105000Y-9705000D01*
X14105000Y-9785000D02*
X14135000Y-9815000D01*
X14135000Y-9785000D02*
X14105000Y-9815000D01*
X14105000Y-11355000D02*
X14135000Y-11385000D01*
X14135000Y-11355000D02*
X14105000Y-11385000D01*
X14105000Y-11465000D02*
X14135000Y-11495000D01*
X14135000Y-11465000D02*
X14105000Y-11495000D01*
X14105000Y-13035000D02*
X14135000Y-13065000D01*
X14135000Y-13035000D02*
X14105000Y-13065000D01*
X14105000Y-13145000D02*
X14135000Y-13175000D01*
X14135000Y-13145000D02*
X14105000Y-13175000D01*
X14115000Y-6495000D02*
X14145000Y-6525000D01*
X14145000Y-6495000D02*
X14115000Y-6525000D01*
X14115000Y-8175000D02*
X14145000Y-8205000D01*
X14145000Y-8175000D02*
X14115000Y-8205000D01*
X14115000Y-9855000D02*
X14145000Y-9885000D01*
X14145000Y-9855000D02*
X14115000Y-9885000D01*
X14115000Y-11535000D02*
X14145000Y-11565000D01*
X14145000Y-11535000D02*
X14115000Y-11565000D01*
X14115000Y-13215000D02*
X14145000Y-13245000D01*
X14145000Y-13215000D02*
X14115000Y-13245000D01*
X14175000Y-6495000D02*
X14205000Y-6525000D01*
X14205000Y-6495000D02*
X14175000Y-6525000D01*
X14175000Y-8175000D02*
X14205000Y-8205000D01*
X14205000Y-8175000D02*
X14175000Y-8205000D01*
X14175000Y-9855000D02*
X14205000Y-9885000D01*
X14205000Y-9855000D02*
X14175000Y-9885000D01*
X14175000Y-11535000D02*
X14205000Y-11565000D01*
X14205000Y-11535000D02*
X14175000Y-11565000D01*
X14175000Y-13215000D02*
X14205000Y-13245000D01*
X14205000Y-13215000D02*
X14175000Y-13245000D01*
X14225000Y-6770000D02*
X14255000Y-6800000D01*
X14255000Y-6770000D02*
X14225000Y-6800000D01*
X14225000Y-8450000D02*
X14255000Y-8480000D01*
X14255000Y-8450000D02*
X14225000Y-8480000D01*
X14225000Y-10130000D02*
X14255000Y-10160000D01*
X14255000Y-10130000D02*
X14225000Y-10160000D01*
X14225000Y-11810000D02*
X14255000Y-11840000D01*
X14255000Y-11810000D02*
X14225000Y-11840000D01*
X14225000Y-13490000D02*
X14255000Y-13520000D01*
X14255000Y-13490000D02*
X14225000Y-13520000D01*
X14255000Y-6055000D02*
X14285000Y-6085000D01*
X14285000Y-6055000D02*
X14255000Y-6085000D01*
X14255000Y-6115000D02*
X14285000Y-6145000D01*
X14285000Y-6115000D02*
X14255000Y-6145000D01*
X14255000Y-6175000D02*
X14285000Y-6205000D01*
X14285000Y-6175000D02*
X14255000Y-6205000D01*
X14255000Y-6235000D02*
X14285000Y-6265000D01*
X14285000Y-6235000D02*
X14255000Y-6265000D01*
X14255000Y-7735000D02*
X14285000Y-7765000D01*
X14285000Y-7735000D02*
X14255000Y-7765000D01*
X14255000Y-7795000D02*
X14285000Y-7825000D01*
X14285000Y-7795000D02*
X14255000Y-7825000D01*
X14255000Y-7855000D02*
X14285000Y-7885000D01*
X14285000Y-7855000D02*
X14255000Y-7885000D01*
X14255000Y-7915000D02*
X14285000Y-7945000D01*
X14285000Y-7915000D02*
X14255000Y-7945000D01*
X14255000Y-9415000D02*
X14285000Y-9445000D01*
X14285000Y-9415000D02*
X14255000Y-9445000D01*
X14255000Y-9475000D02*
X14285000Y-9505000D01*
X14285000Y-9475000D02*
X14255000Y-9505000D01*
X14255000Y-9535000D02*
X14285000Y-9565000D01*
X14285000Y-9535000D02*
X14255000Y-9565000D01*
X14255000Y-9595000D02*
X14285000Y-9625000D01*
X14285000Y-9595000D02*
X14255000Y-9625000D01*
X14255000Y-11095000D02*
X14285000Y-11125000D01*
X14285000Y-11095000D02*
X14255000Y-11125000D01*
X14255000Y-11155000D02*
X14285000Y-11185000D01*
X14285000Y-11155000D02*
X14255000Y-11185000D01*
X14255000Y-11215000D02*
X14285000Y-11245000D01*
X14285000Y-11215000D02*
X14255000Y-11245000D01*
X14255000Y-11275000D02*
X14285000Y-11305000D01*
X14285000Y-11275000D02*
X14255000Y-11305000D01*
X14255000Y-12775000D02*
X14285000Y-12805000D01*
X14285000Y-12775000D02*
X14255000Y-12805000D01*
X14255000Y-12835000D02*
X14285000Y-12865000D01*
X14285000Y-12835000D02*
X14255000Y-12865000D01*
X14255000Y-12895000D02*
X14285000Y-12925000D01*
X14285000Y-12895000D02*
X14255000Y-12925000D01*
X14255000Y-12955000D02*
X14285000Y-12985000D01*
X14285000Y-12955000D02*
X14255000Y-12985000D01*
X14385000Y-5715000D02*
X14415000Y-5745000D01*
X14415000Y-5715000D02*
X14385000Y-5745000D01*
X14385000Y-5825000D02*
X14415000Y-5855000D01*
X14415000Y-5825000D02*
X14385000Y-5855000D01*
X14385000Y-5910000D02*
X14415000Y-5940000D01*
X14415000Y-5910000D02*
X14385000Y-5940000D01*
X14385000Y-7395000D02*
X14415000Y-7425000D01*
X14415000Y-7395000D02*
X14385000Y-7425000D01*
X14385000Y-7505000D02*
X14415000Y-7535000D01*
X14415000Y-7505000D02*
X14385000Y-7535000D01*
X14385000Y-7590000D02*
X14415000Y-7620000D01*
X14415000Y-7590000D02*
X14385000Y-7620000D01*
X14385000Y-9075000D02*
X14415000Y-9105000D01*
X14415000Y-9075000D02*
X14385000Y-9105000D01*
X14385000Y-9185000D02*
X14415000Y-9215000D01*
X14415000Y-9185000D02*
X14385000Y-9215000D01*
X14385000Y-9270000D02*
X14415000Y-9300000D01*
X14415000Y-9270000D02*
X14385000Y-9300000D01*
X14385000Y-10755000D02*
X14415000Y-10785000D01*
X14415000Y-10755000D02*
X14385000Y-10785000D01*
X14385000Y-10865000D02*
X14415000Y-10895000D01*
X14415000Y-10865000D02*
X14385000Y-10895000D01*
X14385000Y-10950000D02*
X14415000Y-10980000D01*
X14415000Y-10950000D02*
X14385000Y-10980000D01*
X14385000Y-12435000D02*
X14415000Y-12465000D01*
X14415000Y-12435000D02*
X14385000Y-12465000D01*
X14385000Y-12545000D02*
X14415000Y-12575000D01*
X14415000Y-12545000D02*
X14385000Y-12575000D01*
X14385000Y-12630000D02*
X14415000Y-12660000D01*
X14415000Y-12630000D02*
X14385000Y-12660000D01*
X14715000Y-5715000D02*
X14745000Y-5745000D01*
X14745000Y-5715000D02*
X14715000Y-5745000D01*
X14715000Y-5825000D02*
X14745000Y-5855000D01*
X14745000Y-5825000D02*
X14715000Y-5855000D01*
X14715000Y-5905000D02*
X14745000Y-5935000D01*
X14745000Y-5905000D02*
X14715000Y-5935000D01*
X14715000Y-7395000D02*
X14745000Y-7425000D01*
X14745000Y-7395000D02*
X14715000Y-7425000D01*
X14715000Y-7505000D02*
X14745000Y-7535000D01*
X14745000Y-7505000D02*
X14715000Y-7535000D01*
X14715000Y-7585000D02*
X14745000Y-7615000D01*
X14745000Y-7585000D02*
X14715000Y-7615000D01*
X14715000Y-9075000D02*
X14745000Y-9105000D01*
X14745000Y-9075000D02*
X14715000Y-9105000D01*
X14715000Y-9185000D02*
X14745000Y-9215000D01*
X14745000Y-9185000D02*
X14715000Y-9215000D01*
X14715000Y-9265000D02*
X14745000Y-9295000D01*
X14745000Y-9265000D02*
X14715000Y-9295000D01*
X14715000Y-10755000D02*
X14745000Y-10785000D01*
X14745000Y-10755000D02*
X14715000Y-10785000D01*
X14715000Y-10865000D02*
X14745000Y-10895000D01*
X14745000Y-10865000D02*
X14715000Y-10895000D01*
X14715000Y-10945000D02*
X14745000Y-10975000D01*
X14745000Y-10945000D02*
X14715000Y-10975000D01*
X14715000Y-12435000D02*
X14745000Y-12465000D01*
X14745000Y-12435000D02*
X14715000Y-12465000D01*
X14715000Y-12545000D02*
X14745000Y-12575000D01*
X14745000Y-12545000D02*
X14715000Y-12575000D01*
X14715000Y-12625000D02*
X14745000Y-12655000D01*
X14745000Y-12625000D02*
X14715000Y-12655000D01*
X14775000Y-6015000D02*
X14805000Y-6045000D01*
X14805000Y-6015000D02*
X14775000Y-6045000D01*
X14775000Y-6075000D02*
X14805000Y-6105000D01*
X14805000Y-6075000D02*
X14775000Y-6105000D01*
X14775000Y-6135000D02*
X14805000Y-6165000D01*
X14805000Y-6135000D02*
X14775000Y-6165000D01*
X14775000Y-6195000D02*
X14805000Y-6225000D01*
X14805000Y-6195000D02*
X14775000Y-6225000D01*
X14775000Y-7695000D02*
X14805000Y-7725000D01*
X14805000Y-7695000D02*
X14775000Y-7725000D01*
X14775000Y-7755000D02*
X14805000Y-7785000D01*
X14805000Y-7755000D02*
X14775000Y-7785000D01*
X14775000Y-7815000D02*
X14805000Y-7845000D01*
X14805000Y-7815000D02*
X14775000Y-7845000D01*
X14775000Y-7875000D02*
X14805000Y-7905000D01*
X14805000Y-7875000D02*
X14775000Y-7905000D01*
X14775000Y-9375000D02*
X14805000Y-9405000D01*
X14805000Y-9375000D02*
X14775000Y-9405000D01*
X14775000Y-9435000D02*
X14805000Y-9465000D01*
X14805000Y-9435000D02*
X14775000Y-9465000D01*
X14775000Y-9495000D02*
X14805000Y-9525000D01*
X14805000Y-9495000D02*
X14775000Y-9525000D01*
X14775000Y-9555000D02*
X14805000Y-9585000D01*
X14805000Y-9555000D02*
X14775000Y-9585000D01*
X14775000Y-11055000D02*
X14805000Y-11085000D01*
X14805000Y-11055000D02*
X14775000Y-11085000D01*
X14775000Y-11115000D02*
X14805000Y-11145000D01*
X14805000Y-11115000D02*
X14775000Y-11145000D01*
X14775000Y-11175000D02*
X14805000Y-11205000D01*
X14805000Y-11175000D02*
X14775000Y-11205000D01*
X14775000Y-11235000D02*
X14805000Y-11265000D01*
X14805000Y-11235000D02*
X14775000Y-11265000D01*
X14775000Y-12735000D02*
X14805000Y-12765000D01*
X14805000Y-12735000D02*
X14775000Y-12765000D01*
X14775000Y-12795000D02*
X14805000Y-12825000D01*
X14805000Y-12795000D02*
X14775000Y-12825000D01*
X14775000Y-12855000D02*
X14805000Y-12885000D01*
X14805000Y-12855000D02*
X14775000Y-12885000D01*
X14775000Y-12915000D02*
X14805000Y-12945000D01*
X14805000Y-12915000D02*
X14775000Y-12945000D01*
X15080000Y-5639950D02*
X15110000Y-5669950D01*
X15110000Y-5639950D02*
X15080000Y-5669950D01*
X15080000Y-5705000D02*
X15110000Y-5735000D01*
X15110000Y-5705000D02*
X15080000Y-5735000D01*
X15080000Y-7319950D02*
X15110000Y-7349950D01*
X15110000Y-7319950D02*
X15080000Y-7349950D01*
X15080000Y-7385000D02*
X15110000Y-7415000D01*
X15110000Y-7385000D02*
X15080000Y-7415000D01*
X15080000Y-8999950D02*
X15110000Y-9029950D01*
X15110000Y-8999950D02*
X15080000Y-9029950D01*
X15080000Y-9065000D02*
X15110000Y-9095000D01*
X15110000Y-9065000D02*
X15080000Y-9095000D01*
X15080000Y-10679950D02*
X15110000Y-10709950D01*
X15110000Y-10679950D02*
X15080000Y-10709950D01*
X15080000Y-10745000D02*
X15110000Y-10775000D01*
X15110000Y-10745000D02*
X15080000Y-10775000D01*
X15080000Y-12359950D02*
X15110000Y-12389950D01*
X15110000Y-12359950D02*
X15080000Y-12389950D01*
X15080000Y-12425000D02*
X15110000Y-12455000D01*
X15110000Y-12425000D02*
X15080000Y-12455000D01*
X15195000Y-5790000D02*
X15225000Y-5820000D01*
X15225000Y-5790000D02*
X15195000Y-5820000D01*
X15195000Y-7470000D02*
X15225000Y-7500000D01*
X15225000Y-7470000D02*
X15195000Y-7500000D01*
X15195000Y-9150000D02*
X15225000Y-9180000D01*
X15225000Y-9150000D02*
X15195000Y-9180000D01*
X15195000Y-10830000D02*
X15225000Y-10860000D01*
X15225000Y-10830000D02*
X15195000Y-10860000D01*
X15195000Y-12510000D02*
X15225000Y-12540000D01*
X15225000Y-12510000D02*
X15195000Y-12540000D01*
X15265000Y-5790000D02*
X15295000Y-5820000D01*
X15295000Y-5790000D02*
X15265000Y-5820000D01*
X15265000Y-7470000D02*
X15295000Y-7500000D01*
X15295000Y-7470000D02*
X15265000Y-7500000D01*
X15265000Y-9150000D02*
X15295000Y-9180000D01*
X15295000Y-9150000D02*
X15265000Y-9180000D01*
X15265000Y-10830000D02*
X15295000Y-10860000D01*
X15295000Y-10830000D02*
X15265000Y-10860000D01*
X15265000Y-12510000D02*
X15295000Y-12540000D01*
X15295000Y-12510000D02*
X15265000Y-12540000D01*
X15330000Y-5790000D02*
X15360000Y-5820000D01*
X15360000Y-5790000D02*
X15330000Y-5820000D01*
X15330000Y-7470000D02*
X15360000Y-7500000D01*
X15360000Y-7470000D02*
X15330000Y-7500000D01*
X15330000Y-9150000D02*
X15360000Y-9180000D01*
X15360000Y-9150000D02*
X15330000Y-9180000D01*
X15330000Y-10830000D02*
X15360000Y-10860000D01*
X15360000Y-10830000D02*
X15330000Y-10860000D01*
X15330000Y-12510000D02*
X15360000Y-12540000D01*
X15360000Y-12510000D02*
X15330000Y-12540000D01*
D11*
X7255777Y-14316484D02*
X7255777Y-14116484D01*
X7255777Y-14116484D02*
X7303396Y-14116484D01*
X7303396Y-14116484D02*
X7331967Y-14126008D01*
X7331967Y-14126008D02*
X7351015Y-14145055D01*
X7351015Y-14145055D02*
X7360539Y-14164103D01*
X7360539Y-14164103D02*
X7370062Y-14202198D01*
X7370062Y-14202198D02*
X7370062Y-14230769D01*
X7370062Y-14230769D02*
X7360539Y-14268865D01*
X7360539Y-14268865D02*
X7351015Y-14287912D01*
X7351015Y-14287912D02*
X7331967Y-14306960D01*
X7331967Y-14306960D02*
X7303396Y-14316484D01*
X7303396Y-14316484D02*
X7255777Y-14316484D01*
X7455777Y-14316484D02*
X7455777Y-14183150D01*
X7455777Y-14221246D02*
X7465301Y-14202198D01*
X7465301Y-14202198D02*
X7474824Y-14192674D01*
X7474824Y-14192674D02*
X7493872Y-14183150D01*
X7493872Y-14183150D02*
X7512920Y-14183150D01*
X7579586Y-14316484D02*
X7579586Y-14183150D01*
X7579586Y-14116484D02*
X7570062Y-14126008D01*
X7570062Y-14126008D02*
X7579586Y-14135531D01*
X7579586Y-14135531D02*
X7589110Y-14126008D01*
X7589110Y-14126008D02*
X7579586Y-14116484D01*
X7579586Y-14116484D02*
X7579586Y-14135531D01*
X7703396Y-14316484D02*
X7684348Y-14306960D01*
X7684348Y-14306960D02*
X7674824Y-14287912D01*
X7674824Y-14287912D02*
X7674824Y-14116484D01*
X7808158Y-14316484D02*
X7789110Y-14306960D01*
X7789110Y-14306960D02*
X7779586Y-14287912D01*
X7779586Y-14287912D02*
X7779586Y-14116484D01*
X8036729Y-14316484D02*
X8036729Y-14116484D01*
X8036729Y-14116484D02*
X8103396Y-14259341D01*
X8103396Y-14259341D02*
X8170062Y-14116484D01*
X8170062Y-14116484D02*
X8170062Y-14316484D01*
X8351015Y-14316484D02*
X8351015Y-14211722D01*
X8351015Y-14211722D02*
X8341491Y-14192674D01*
X8341491Y-14192674D02*
X8322443Y-14183150D01*
X8322443Y-14183150D02*
X8284348Y-14183150D01*
X8284348Y-14183150D02*
X8265301Y-14192674D01*
X8351015Y-14306960D02*
X8331967Y-14316484D01*
X8331967Y-14316484D02*
X8284348Y-14316484D01*
X8284348Y-14316484D02*
X8265301Y-14306960D01*
X8265301Y-14306960D02*
X8255777Y-14287912D01*
X8255777Y-14287912D02*
X8255777Y-14268865D01*
X8255777Y-14268865D02*
X8265301Y-14249817D01*
X8265301Y-14249817D02*
X8284348Y-14240293D01*
X8284348Y-14240293D02*
X8331967Y-14240293D01*
X8331967Y-14240293D02*
X8351015Y-14230769D01*
X8446253Y-14183150D02*
X8446253Y-14383150D01*
X8446253Y-14192674D02*
X8465301Y-14183150D01*
X8465301Y-14183150D02*
X8503396Y-14183150D01*
X8503396Y-14183150D02*
X8522444Y-14192674D01*
X8522444Y-14192674D02*
X8531967Y-14202198D01*
X8531967Y-14202198D02*
X8541491Y-14221246D01*
X8541491Y-14221246D02*
X8541491Y-14278388D01*
X8541491Y-14278388D02*
X8531967Y-14297436D01*
X8531967Y-14297436D02*
X8522444Y-14306960D01*
X8522444Y-14306960D02*
X8503396Y-14316484D01*
X8503396Y-14316484D02*
X8465301Y-14316484D01*
X8465301Y-14316484D02*
X8446253Y-14306960D01*
X8627205Y-14297436D02*
X8636729Y-14306960D01*
X8636729Y-14306960D02*
X8627205Y-14316484D01*
X8627205Y-14316484D02*
X8617682Y-14306960D01*
X8617682Y-14306960D02*
X8627205Y-14297436D01*
X8627205Y-14297436D02*
X8627205Y-14316484D01*
X8627205Y-14192674D02*
X8636729Y-14202198D01*
X8636729Y-14202198D02*
X8627205Y-14211722D01*
X8627205Y-14211722D02*
X8617682Y-14202198D01*
X8617682Y-14202198D02*
X8627205Y-14192674D01*
X8627205Y-14192674D02*
X8627205Y-14211722D01*
D10*
X6965000Y-14630000D02*
X6995000Y-14660000D01*
X6995000Y-14630000D02*
X6965000Y-14660000D01*
D11*
X7293872Y-14536484D02*
X7312920Y-14536484D01*
X7312920Y-14536484D02*
X7331967Y-14546008D01*
X7331967Y-14546008D02*
X7341491Y-14555531D01*
X7341491Y-14555531D02*
X7351015Y-14574579D01*
X7351015Y-14574579D02*
X7360539Y-14612674D01*
X7360539Y-14612674D02*
X7360539Y-14660293D01*
X7360539Y-14660293D02*
X7351015Y-14698388D01*
X7351015Y-14698388D02*
X7341491Y-14717436D01*
X7341491Y-14717436D02*
X7331967Y-14726960D01*
X7331967Y-14726960D02*
X7312920Y-14736484D01*
X7312920Y-14736484D02*
X7293872Y-14736484D01*
X7293872Y-14736484D02*
X7274824Y-14726960D01*
X7274824Y-14726960D02*
X7265301Y-14717436D01*
X7265301Y-14717436D02*
X7255777Y-14698388D01*
X7255777Y-14698388D02*
X7246253Y-14660293D01*
X7246253Y-14660293D02*
X7246253Y-14612674D01*
X7246253Y-14612674D02*
X7255777Y-14574579D01*
X7255777Y-14574579D02*
X7265301Y-14555531D01*
X7265301Y-14555531D02*
X7274824Y-14546008D01*
X7274824Y-14546008D02*
X7293872Y-14536484D01*
X7446253Y-14717436D02*
X7455777Y-14726960D01*
X7455777Y-14726960D02*
X7446253Y-14736484D01*
X7446253Y-14736484D02*
X7436729Y-14726960D01*
X7436729Y-14726960D02*
X7446253Y-14717436D01*
X7446253Y-14717436D02*
X7446253Y-14736484D01*
X7522443Y-14536484D02*
X7646253Y-14536484D01*
X7646253Y-14536484D02*
X7579586Y-14612674D01*
X7579586Y-14612674D02*
X7608158Y-14612674D01*
X7608158Y-14612674D02*
X7627205Y-14622198D01*
X7627205Y-14622198D02*
X7636729Y-14631722D01*
X7636729Y-14631722D02*
X7646253Y-14650769D01*
X7646253Y-14650769D02*
X7646253Y-14698388D01*
X7646253Y-14698388D02*
X7636729Y-14717436D01*
X7636729Y-14717436D02*
X7627205Y-14726960D01*
X7627205Y-14726960D02*
X7608158Y-14736484D01*
X7608158Y-14736484D02*
X7551015Y-14736484D01*
X7551015Y-14736484D02*
X7531967Y-14726960D01*
X7531967Y-14726960D02*
X7522443Y-14717436D01*
X7770062Y-14536484D02*
X7789110Y-14536484D01*
X7789110Y-14536484D02*
X7808158Y-14546008D01*
X7808158Y-14546008D02*
X7817682Y-14555531D01*
X7817682Y-14555531D02*
X7827205Y-14574579D01*
X7827205Y-14574579D02*
X7836729Y-14612674D01*
X7836729Y-14612674D02*
X7836729Y-14660293D01*
X7836729Y-14660293D02*
X7827205Y-14698388D01*
X7827205Y-14698388D02*
X7817682Y-14717436D01*
X7817682Y-14717436D02*
X7808158Y-14726960D01*
X7808158Y-14726960D02*
X7789110Y-14736484D01*
X7789110Y-14736484D02*
X7770062Y-14736484D01*
X7770062Y-14736484D02*
X7751015Y-14726960D01*
X7751015Y-14726960D02*
X7741491Y-14717436D01*
X7741491Y-14717436D02*
X7731967Y-14698388D01*
X7731967Y-14698388D02*
X7722443Y-14660293D01*
X7722443Y-14660293D02*
X7722443Y-14612674D01*
X7722443Y-14612674D02*
X7731967Y-14574579D01*
X7731967Y-14574579D02*
X7741491Y-14555531D01*
X7741491Y-14555531D02*
X7751015Y-14546008D01*
X7751015Y-14546008D02*
X7770062Y-14536484D01*
X7960539Y-14536484D02*
X7979586Y-14536484D01*
X7979586Y-14536484D02*
X7998634Y-14546008D01*
X7998634Y-14546008D02*
X8008158Y-14555531D01*
X8008158Y-14555531D02*
X8017682Y-14574579D01*
X8017682Y-14574579D02*
X8027205Y-14612674D01*
X8027205Y-14612674D02*
X8027205Y-14660293D01*
X8027205Y-14660293D02*
X8017682Y-14698388D01*
X8017682Y-14698388D02*
X8008158Y-14717436D01*
X8008158Y-14717436D02*
X7998634Y-14726960D01*
X7998634Y-14726960D02*
X7979586Y-14736484D01*
X7979586Y-14736484D02*
X7960539Y-14736484D01*
X7960539Y-14736484D02*
X7941491Y-14726960D01*
X7941491Y-14726960D02*
X7931967Y-14717436D01*
X7931967Y-14717436D02*
X7922443Y-14698388D01*
X7922443Y-14698388D02*
X7912920Y-14660293D01*
X7912920Y-14660293D02*
X7912920Y-14612674D01*
X7912920Y-14612674D02*
X7922443Y-14574579D01*
X7922443Y-14574579D02*
X7931967Y-14555531D01*
X7931967Y-14555531D02*
X7941491Y-14546008D01*
X7941491Y-14546008D02*
X7960539Y-14536484D01*
X8112920Y-14736484D02*
X8112920Y-14603150D01*
X8112920Y-14622198D02*
X8122443Y-14612674D01*
X8122443Y-14612674D02*
X8141491Y-14603150D01*
X8141491Y-14603150D02*
X8170063Y-14603150D01*
X8170063Y-14603150D02*
X8189110Y-14612674D01*
X8189110Y-14612674D02*
X8198634Y-14631722D01*
X8198634Y-14631722D02*
X8198634Y-14736484D01*
X8198634Y-14631722D02*
X8208158Y-14612674D01*
X8208158Y-14612674D02*
X8227205Y-14603150D01*
X8227205Y-14603150D02*
X8255777Y-14603150D01*
X8255777Y-14603150D02*
X8274824Y-14612674D01*
X8274824Y-14612674D02*
X8284348Y-14631722D01*
X8284348Y-14631722D02*
X8284348Y-14736484D01*
X8379586Y-14736484D02*
X8379586Y-14603150D01*
X8379586Y-14622198D02*
X8389110Y-14612674D01*
X8389110Y-14612674D02*
X8408158Y-14603150D01*
X8408158Y-14603150D02*
X8436729Y-14603150D01*
X8436729Y-14603150D02*
X8455777Y-14612674D01*
X8455777Y-14612674D02*
X8465301Y-14631722D01*
X8465301Y-14631722D02*
X8465301Y-14736484D01*
X8465301Y-14631722D02*
X8474825Y-14612674D01*
X8474825Y-14612674D02*
X8493872Y-14603150D01*
X8493872Y-14603150D02*
X8522444Y-14603150D01*
X8522444Y-14603150D02*
X8541491Y-14612674D01*
X8541491Y-14612674D02*
X8551015Y-14631722D01*
X8551015Y-14631722D02*
X8551015Y-14736484D01*
X8941491Y-14526960D02*
X8770063Y-14784103D01*
X9198634Y-14536484D02*
X9217682Y-14536484D01*
X9217682Y-14536484D02*
X9236729Y-14546008D01*
X9236729Y-14546008D02*
X9246253Y-14555531D01*
X9246253Y-14555531D02*
X9255777Y-14574579D01*
X9255777Y-14574579D02*
X9265301Y-14612674D01*
X9265301Y-14612674D02*
X9265301Y-14660293D01*
X9265301Y-14660293D02*
X9255777Y-14698388D01*
X9255777Y-14698388D02*
X9246253Y-14717436D01*
X9246253Y-14717436D02*
X9236729Y-14726960D01*
X9236729Y-14726960D02*
X9217682Y-14736484D01*
X9217682Y-14736484D02*
X9198634Y-14736484D01*
X9198634Y-14736484D02*
X9179587Y-14726960D01*
X9179587Y-14726960D02*
X9170063Y-14717436D01*
X9170063Y-14717436D02*
X9160539Y-14698388D01*
X9160539Y-14698388D02*
X9151015Y-14660293D01*
X9151015Y-14660293D02*
X9151015Y-14612674D01*
X9151015Y-14612674D02*
X9160539Y-14574579D01*
X9160539Y-14574579D02*
X9170063Y-14555531D01*
X9170063Y-14555531D02*
X9179587Y-14546008D01*
X9179587Y-14546008D02*
X9198634Y-14536484D01*
X9351015Y-14717436D02*
X9360539Y-14726960D01*
X9360539Y-14726960D02*
X9351015Y-14736484D01*
X9351015Y-14736484D02*
X9341491Y-14726960D01*
X9341491Y-14726960D02*
X9351015Y-14717436D01*
X9351015Y-14717436D02*
X9351015Y-14736484D01*
X9484348Y-14536484D02*
X9503396Y-14536484D01*
X9503396Y-14536484D02*
X9522444Y-14546008D01*
X9522444Y-14546008D02*
X9531968Y-14555531D01*
X9531968Y-14555531D02*
X9541491Y-14574579D01*
X9541491Y-14574579D02*
X9551015Y-14612674D01*
X9551015Y-14612674D02*
X9551015Y-14660293D01*
X9551015Y-14660293D02*
X9541491Y-14698388D01*
X9541491Y-14698388D02*
X9531968Y-14717436D01*
X9531968Y-14717436D02*
X9522444Y-14726960D01*
X9522444Y-14726960D02*
X9503396Y-14736484D01*
X9503396Y-14736484D02*
X9484348Y-14736484D01*
X9484348Y-14736484D02*
X9465301Y-14726960D01*
X9465301Y-14726960D02*
X9455777Y-14717436D01*
X9455777Y-14717436D02*
X9446253Y-14698388D01*
X9446253Y-14698388D02*
X9436729Y-14660293D01*
X9436729Y-14660293D02*
X9436729Y-14612674D01*
X9436729Y-14612674D02*
X9446253Y-14574579D01*
X9446253Y-14574579D02*
X9455777Y-14555531D01*
X9455777Y-14555531D02*
X9465301Y-14546008D01*
X9465301Y-14546008D02*
X9484348Y-14536484D01*
X9741491Y-14736484D02*
X9627206Y-14736484D01*
X9684348Y-14736484D02*
X9684348Y-14536484D01*
X9684348Y-14536484D02*
X9665301Y-14565055D01*
X9665301Y-14565055D02*
X9646253Y-14584103D01*
X9646253Y-14584103D02*
X9627206Y-14593627D01*
X9931968Y-14736484D02*
X9817682Y-14736484D01*
X9874825Y-14736484D02*
X9874825Y-14536484D01*
X9874825Y-14536484D02*
X9855777Y-14565055D01*
X9855777Y-14565055D02*
X9836729Y-14584103D01*
X9836729Y-14584103D02*
X9817682Y-14593627D01*
X10046253Y-14622198D02*
X10027206Y-14612674D01*
X10027206Y-14612674D02*
X10017682Y-14603150D01*
X10017682Y-14603150D02*
X10008158Y-14584103D01*
X10008158Y-14584103D02*
X10008158Y-14574579D01*
X10008158Y-14574579D02*
X10017682Y-14555531D01*
X10017682Y-14555531D02*
X10027206Y-14546008D01*
X10027206Y-14546008D02*
X10046253Y-14536484D01*
X10046253Y-14536484D02*
X10084349Y-14536484D01*
X10084349Y-14536484D02*
X10103396Y-14546008D01*
X10103396Y-14546008D02*
X10112920Y-14555531D01*
X10112920Y-14555531D02*
X10122444Y-14574579D01*
X10122444Y-14574579D02*
X10122444Y-14584103D01*
X10122444Y-14584103D02*
X10112920Y-14603150D01*
X10112920Y-14603150D02*
X10103396Y-14612674D01*
X10103396Y-14612674D02*
X10084349Y-14622198D01*
X10084349Y-14622198D02*
X10046253Y-14622198D01*
X10046253Y-14622198D02*
X10027206Y-14631722D01*
X10027206Y-14631722D02*
X10017682Y-14641246D01*
X10017682Y-14641246D02*
X10008158Y-14660293D01*
X10008158Y-14660293D02*
X10008158Y-14698388D01*
X10008158Y-14698388D02*
X10017682Y-14717436D01*
X10017682Y-14717436D02*
X10027206Y-14726960D01*
X10027206Y-14726960D02*
X10046253Y-14736484D01*
X10046253Y-14736484D02*
X10084349Y-14736484D01*
X10084349Y-14736484D02*
X10103396Y-14726960D01*
X10103396Y-14726960D02*
X10112920Y-14717436D01*
X10112920Y-14717436D02*
X10122444Y-14698388D01*
X10122444Y-14698388D02*
X10122444Y-14660293D01*
X10122444Y-14660293D02*
X10112920Y-14641246D01*
X10112920Y-14641246D02*
X10103396Y-14631722D01*
X10103396Y-14631722D02*
X10084349Y-14622198D01*
X10198634Y-14536484D02*
X10198634Y-14574579D01*
X10274825Y-14536484D02*
X10274825Y-14574579D01*
X10570063Y-14812674D02*
X10560539Y-14803150D01*
X10560539Y-14803150D02*
X10541491Y-14774579D01*
X10541491Y-14774579D02*
X10531968Y-14755531D01*
X10531968Y-14755531D02*
X10522444Y-14726960D01*
X10522444Y-14726960D02*
X10512920Y-14679341D01*
X10512920Y-14679341D02*
X10512920Y-14641246D01*
X10512920Y-14641246D02*
X10522444Y-14593627D01*
X10522444Y-14593627D02*
X10531968Y-14565055D01*
X10531968Y-14565055D02*
X10541491Y-14546008D01*
X10541491Y-14546008D02*
X10560539Y-14517436D01*
X10560539Y-14517436D02*
X10570063Y-14507912D01*
X10655777Y-14736484D02*
X10693872Y-14736484D01*
X10693872Y-14736484D02*
X10712920Y-14726960D01*
X10712920Y-14726960D02*
X10722444Y-14717436D01*
X10722444Y-14717436D02*
X10741491Y-14688865D01*
X10741491Y-14688865D02*
X10751015Y-14650769D01*
X10751015Y-14650769D02*
X10751015Y-14574579D01*
X10751015Y-14574579D02*
X10741491Y-14555531D01*
X10741491Y-14555531D02*
X10731968Y-14546008D01*
X10731968Y-14546008D02*
X10712920Y-14536484D01*
X10712920Y-14536484D02*
X10674825Y-14536484D01*
X10674825Y-14536484D02*
X10655777Y-14546008D01*
X10655777Y-14546008D02*
X10646253Y-14555531D01*
X10646253Y-14555531D02*
X10636730Y-14574579D01*
X10636730Y-14574579D02*
X10636730Y-14622198D01*
X10636730Y-14622198D02*
X10646253Y-14641246D01*
X10646253Y-14641246D02*
X10655777Y-14650769D01*
X10655777Y-14650769D02*
X10674825Y-14660293D01*
X10674825Y-14660293D02*
X10712920Y-14660293D01*
X10712920Y-14660293D02*
X10731968Y-14650769D01*
X10731968Y-14650769D02*
X10741491Y-14641246D01*
X10741491Y-14641246D02*
X10751015Y-14622198D01*
X10827206Y-14555531D02*
X10836730Y-14546008D01*
X10836730Y-14546008D02*
X10855777Y-14536484D01*
X10855777Y-14536484D02*
X10903396Y-14536484D01*
X10903396Y-14536484D02*
X10922444Y-14546008D01*
X10922444Y-14546008D02*
X10931968Y-14555531D01*
X10931968Y-14555531D02*
X10941491Y-14574579D01*
X10941491Y-14574579D02*
X10941491Y-14593627D01*
X10941491Y-14593627D02*
X10931968Y-14622198D01*
X10931968Y-14622198D02*
X10817682Y-14736484D01*
X10817682Y-14736484D02*
X10941491Y-14736484D01*
X11122444Y-14536484D02*
X11027206Y-14536484D01*
X11027206Y-14536484D02*
X11017682Y-14631722D01*
X11017682Y-14631722D02*
X11027206Y-14622198D01*
X11027206Y-14622198D02*
X11046253Y-14612674D01*
X11046253Y-14612674D02*
X11093872Y-14612674D01*
X11093872Y-14612674D02*
X11112920Y-14622198D01*
X11112920Y-14622198D02*
X11122444Y-14631722D01*
X11122444Y-14631722D02*
X11131968Y-14650769D01*
X11131968Y-14650769D02*
X11131968Y-14698388D01*
X11131968Y-14698388D02*
X11122444Y-14717436D01*
X11122444Y-14717436D02*
X11112920Y-14726960D01*
X11112920Y-14726960D02*
X11093872Y-14736484D01*
X11093872Y-14736484D02*
X11046253Y-14736484D01*
X11046253Y-14736484D02*
X11027206Y-14726960D01*
X11027206Y-14726960D02*
X11017682Y-14717436D01*
X11370063Y-14736484D02*
X11370063Y-14536484D01*
X11455777Y-14736484D02*
X11455777Y-14631722D01*
X11455777Y-14631722D02*
X11446253Y-14612674D01*
X11446253Y-14612674D02*
X11427206Y-14603150D01*
X11427206Y-14603150D02*
X11398634Y-14603150D01*
X11398634Y-14603150D02*
X11379587Y-14612674D01*
X11379587Y-14612674D02*
X11370063Y-14622198D01*
X11579587Y-14736484D02*
X11560539Y-14726960D01*
X11560539Y-14726960D02*
X11551015Y-14717436D01*
X11551015Y-14717436D02*
X11541491Y-14698388D01*
X11541491Y-14698388D02*
X11541491Y-14641246D01*
X11541491Y-14641246D02*
X11551015Y-14622198D01*
X11551015Y-14622198D02*
X11560539Y-14612674D01*
X11560539Y-14612674D02*
X11579587Y-14603150D01*
X11579587Y-14603150D02*
X11608158Y-14603150D01*
X11608158Y-14603150D02*
X11627206Y-14612674D01*
X11627206Y-14612674D02*
X11636730Y-14622198D01*
X11636730Y-14622198D02*
X11646253Y-14641246D01*
X11646253Y-14641246D02*
X11646253Y-14698388D01*
X11646253Y-14698388D02*
X11636730Y-14717436D01*
X11636730Y-14717436D02*
X11627206Y-14726960D01*
X11627206Y-14726960D02*
X11608158Y-14736484D01*
X11608158Y-14736484D02*
X11579587Y-14736484D01*
X11760539Y-14736484D02*
X11741491Y-14726960D01*
X11741491Y-14726960D02*
X11731968Y-14707912D01*
X11731968Y-14707912D02*
X11731968Y-14536484D01*
X11912920Y-14726960D02*
X11893872Y-14736484D01*
X11893872Y-14736484D02*
X11855777Y-14736484D01*
X11855777Y-14736484D02*
X11836730Y-14726960D01*
X11836730Y-14726960D02*
X11827206Y-14707912D01*
X11827206Y-14707912D02*
X11827206Y-14631722D01*
X11827206Y-14631722D02*
X11836730Y-14612674D01*
X11836730Y-14612674D02*
X11855777Y-14603150D01*
X11855777Y-14603150D02*
X11893872Y-14603150D01*
X11893872Y-14603150D02*
X11912920Y-14612674D01*
X11912920Y-14612674D02*
X11922444Y-14631722D01*
X11922444Y-14631722D02*
X11922444Y-14650769D01*
X11922444Y-14650769D02*
X11827206Y-14669817D01*
X11998634Y-14726960D02*
X12017682Y-14736484D01*
X12017682Y-14736484D02*
X12055777Y-14736484D01*
X12055777Y-14736484D02*
X12074825Y-14726960D01*
X12074825Y-14726960D02*
X12084349Y-14707912D01*
X12084349Y-14707912D02*
X12084349Y-14698388D01*
X12084349Y-14698388D02*
X12074825Y-14679341D01*
X12074825Y-14679341D02*
X12055777Y-14669817D01*
X12055777Y-14669817D02*
X12027206Y-14669817D01*
X12027206Y-14669817D02*
X12008158Y-14660293D01*
X12008158Y-14660293D02*
X11998634Y-14641246D01*
X11998634Y-14641246D02*
X11998634Y-14631722D01*
X11998634Y-14631722D02*
X12008158Y-14612674D01*
X12008158Y-14612674D02*
X12027206Y-14603150D01*
X12027206Y-14603150D02*
X12055777Y-14603150D01*
X12055777Y-14603150D02*
X12074825Y-14612674D01*
X12151015Y-14812674D02*
X12160539Y-14803150D01*
X12160539Y-14803150D02*
X12179587Y-14774579D01*
X12179587Y-14774579D02*
X12189111Y-14755531D01*
X12189111Y-14755531D02*
X12198634Y-14726960D01*
X12198634Y-14726960D02*
X12208158Y-14679341D01*
X12208158Y-14679341D02*
X12208158Y-14641246D01*
X12208158Y-14641246D02*
X12198634Y-14593627D01*
X12198634Y-14593627D02*
X12189111Y-14565055D01*
X12189111Y-14565055D02*
X12179587Y-14546008D01*
X12179587Y-14546008D02*
X12160539Y-14517436D01*
X12160539Y-14517436D02*
X12151015Y-14507912D01*
M02*
