M48
; DRILL file {KiCad 7.0.9} date Mon Jan  1 14:06:11 2024
; FORMAT={-:-/ absolute / metric / decimal}
; #@! TF.CreationDate,2024-01-01T14:06:11+01:00
; #@! TF.GenerationSoftware,Kicad,Pcbnew,7.0.9
; #@! TF.FileFunction,Plated,1,2,PTH
FMAT,2
METRIC
; #@! TA.AperFunction,Plated,PTH,ViaDrill
T1C0.300
%
G90
G05
T1
X70.65Y-70.75
X70.65Y-87.55
X70.65Y-104.35
X70.65Y-121.15
X70.65Y-137.95
X71.3Y-70.75
X71.3Y-87.55
X71.3Y-104.35
X71.3Y-121.15
X71.3Y-137.95
X71.4Y-58.0
X71.4Y-62.0
X71.4Y-74.8
X71.4Y-78.8
X71.4Y-91.6
X71.4Y-95.6
X71.4Y-108.4
X71.4Y-112.4
X71.4Y-125.2
X71.4Y-129.2
X71.9Y-69.5
X71.9Y-86.3
X71.9Y-103.1
X71.9Y-119.9
X71.9Y-136.7
X72.05Y-70.75
X72.05Y-87.55
X72.05Y-104.35
X72.05Y-121.15
X72.05Y-137.95
X72.55Y-69.5
X72.55Y-86.3
X72.55Y-103.1
X72.55Y-119.9
X72.55Y-136.7
X73.05Y-71.55
X73.05Y-72.25
X73.05Y-88.35
X73.05Y-89.05
X73.05Y-105.15
X73.05Y-105.85
X73.05Y-121.95
X73.05Y-122.65
X73.05Y-138.75
X73.05Y-139.45
X73.2Y-69.5
X73.2Y-86.3
X73.2Y-103.1
X73.2Y-119.9
X73.2Y-136.7
X73.5Y-57.9
X73.5Y-62.1
X73.5Y-74.7
X73.5Y-78.9
X73.5Y-91.5
X73.5Y-95.7
X73.5Y-108.3
X73.5Y-112.5
X73.5Y-125.1
X73.5Y-129.3
X73.8Y-69.5
X73.8Y-86.3
X73.8Y-103.1
X73.8Y-119.9
X73.8Y-136.7
X74.0Y-63.3
X74.0Y-64.4
X74.0Y-80.1
X74.0Y-81.2
X74.0Y-96.9
X74.0Y-98.0
X74.0Y-113.7
X74.0Y-114.8
X74.0Y-130.5
X74.0Y-131.6
X74.1Y-65.1
X74.1Y-81.9
X74.1Y-98.7
X74.1Y-115.5
X74.1Y-132.3
X74.7Y-65.1
X74.7Y-81.9
X74.7Y-98.7
X74.7Y-115.5
X74.7Y-132.3
X75.2Y-67.85
X75.2Y-84.65
X75.2Y-101.45
X75.2Y-118.25
X75.2Y-135.05
X75.5Y-60.7
X75.5Y-61.3
X75.5Y-61.9
X75.5Y-62.5
X75.5Y-77.5
X75.5Y-78.1
X75.5Y-78.7
X75.5Y-79.3
X75.5Y-94.3
X75.5Y-94.9
X75.5Y-95.5
X75.5Y-96.1
X75.5Y-111.1
X75.5Y-111.7
X75.5Y-112.3
X75.5Y-112.9
X75.5Y-127.9
X75.5Y-128.5
X75.5Y-129.1
X75.5Y-129.7
X76.8Y-57.3
X76.8Y-58.4
X76.8Y-59.25
X76.8Y-74.1
X76.8Y-75.2
X76.8Y-76.05
X76.8Y-90.9
X76.8Y-92.0
X76.8Y-92.85
X76.8Y-107.7
X76.8Y-108.8
X76.8Y-109.65
X76.8Y-124.5
X76.8Y-125.6
X76.8Y-126.45
X80.1Y-57.3
X80.1Y-58.4
X80.1Y-59.2
X80.1Y-74.1
X80.1Y-75.2
X80.1Y-76.0
X80.1Y-90.9
X80.1Y-92.0
X80.1Y-92.8
X80.1Y-107.7
X80.1Y-108.8
X80.1Y-109.6
X80.1Y-124.5
X80.1Y-125.6
X80.1Y-126.4
X80.7Y-60.3
X80.7Y-60.9
X80.7Y-61.5
X80.7Y-62.1
X80.7Y-77.1
X80.7Y-77.7
X80.7Y-78.3
X80.7Y-78.9
X80.7Y-93.9
X80.7Y-94.5
X80.7Y-95.1
X80.7Y-95.7
X80.7Y-110.7
X80.7Y-111.3
X80.7Y-111.9
X80.7Y-112.5
X80.7Y-127.5
X80.7Y-128.1
X80.7Y-128.7
X80.7Y-129.3
X83.75Y-56.549
X83.75Y-57.2
X83.75Y-73.349
X83.75Y-74.0
X83.75Y-90.149
X83.75Y-90.8
X83.75Y-106.95
X83.75Y-107.6
X83.75Y-123.749
X83.75Y-124.4
X84.9Y-58.05
X84.9Y-74.85
X84.9Y-91.65
X84.9Y-108.45
X84.9Y-125.25
X85.6Y-58.05
X85.6Y-74.85
X85.6Y-91.65
X85.6Y-108.45
X85.6Y-125.25
X86.25Y-58.05
X86.25Y-74.85
X86.25Y-91.65
X86.25Y-108.45
X86.25Y-125.25
X87.45Y-70.75
X87.45Y-87.55
X87.45Y-104.35
X87.45Y-121.15
X87.45Y-137.95
X88.1Y-70.75
X88.1Y-87.55
X88.1Y-104.35
X88.1Y-121.15
X88.1Y-137.95
X88.2Y-58.0
X88.2Y-62.0
X88.2Y-74.8
X88.2Y-78.8
X88.2Y-91.6
X88.2Y-95.6
X88.2Y-108.4
X88.2Y-112.4
X88.2Y-125.2
X88.2Y-129.2
X88.7Y-69.5
X88.7Y-86.3
X88.7Y-103.1
X88.7Y-119.9
X88.7Y-136.7
X88.85Y-70.75
X88.85Y-87.55
X88.85Y-104.35
X88.85Y-121.15
X88.85Y-137.95
X89.35Y-69.5
X89.35Y-86.3
X89.35Y-103.1
X89.35Y-119.9
X89.35Y-136.7
X89.85Y-71.55
X89.85Y-72.25
X89.85Y-88.35
X89.85Y-89.05
X89.85Y-105.15
X89.85Y-105.85
X89.85Y-121.95
X89.85Y-122.65
X89.85Y-138.75
X89.85Y-139.45
X90.0Y-69.5
X90.0Y-86.3
X90.0Y-103.1
X90.0Y-119.9
X90.0Y-136.7
X90.3Y-57.9
X90.3Y-62.1
X90.3Y-74.7
X90.3Y-78.9
X90.3Y-91.5
X90.3Y-95.7
X90.3Y-108.3
X90.3Y-112.5
X90.3Y-125.1
X90.3Y-129.3
X90.6Y-69.5
X90.6Y-86.3
X90.6Y-103.1
X90.6Y-119.9
X90.6Y-136.7
X90.8Y-63.3
X90.8Y-64.4
X90.8Y-80.1
X90.8Y-81.2
X90.8Y-96.9
X90.8Y-98.0
X90.8Y-113.7
X90.8Y-114.8
X90.8Y-130.5
X90.8Y-131.6
X90.9Y-65.1
X90.9Y-81.9
X90.9Y-98.7
X90.9Y-115.5
X90.9Y-132.3
X91.5Y-65.1
X91.5Y-81.9
X91.5Y-98.7
X91.5Y-115.5
X91.5Y-132.3
X92.0Y-67.85
X92.0Y-84.65
X92.0Y-101.45
X92.0Y-118.25
X92.0Y-135.05
X92.3Y-60.7
X92.3Y-61.3
X92.3Y-61.9
X92.3Y-62.5
X92.3Y-77.5
X92.3Y-78.1
X92.3Y-78.7
X92.3Y-79.3
X92.3Y-94.3
X92.3Y-94.9
X92.3Y-95.5
X92.3Y-96.1
X92.3Y-111.1
X92.3Y-111.7
X92.3Y-112.3
X92.3Y-112.9
X92.3Y-127.9
X92.3Y-128.5
X92.3Y-129.1
X92.3Y-129.7
X93.6Y-57.3
X93.6Y-58.4
X93.6Y-59.25
X93.6Y-74.1
X93.6Y-75.2
X93.6Y-76.05
X93.6Y-90.9
X93.6Y-92.0
X93.6Y-92.85
X93.6Y-107.7
X93.6Y-108.8
X93.6Y-109.65
X93.6Y-124.5
X93.6Y-125.6
X93.6Y-126.45
X96.9Y-57.3
X96.9Y-58.4
X96.9Y-59.2
X96.9Y-74.1
X96.9Y-75.2
X96.9Y-76.0
X96.9Y-90.9
X96.9Y-92.0
X96.9Y-92.8
X96.9Y-107.7
X96.9Y-108.8
X96.9Y-109.6
X96.9Y-124.5
X96.9Y-125.6
X96.9Y-126.4
X97.5Y-60.3
X97.5Y-60.9
X97.5Y-61.5
X97.5Y-62.1
X97.5Y-77.1
X97.5Y-77.7
X97.5Y-78.3
X97.5Y-78.9
X97.5Y-93.9
X97.5Y-94.5
X97.5Y-95.1
X97.5Y-95.7
X97.5Y-110.7
X97.5Y-111.3
X97.5Y-111.9
X97.5Y-112.5
X97.5Y-127.5
X97.5Y-128.1
X97.5Y-128.7
X97.5Y-129.3
X100.55Y-56.549
X100.55Y-57.2
X100.55Y-73.349
X100.55Y-74.0
X100.55Y-90.149
X100.55Y-90.8
X100.55Y-106.95
X100.55Y-107.6
X100.55Y-123.749
X100.55Y-124.4
X101.7Y-58.05
X101.7Y-74.85
X101.7Y-91.65
X101.7Y-108.45
X101.7Y-125.25
X102.4Y-58.05
X102.4Y-74.85
X102.4Y-91.65
X102.4Y-108.45
X102.4Y-125.25
X103.05Y-58.05
X103.05Y-74.85
X103.05Y-91.65
X103.05Y-108.45
X103.05Y-125.25
X104.25Y-70.75
X104.25Y-87.55
X104.25Y-104.35
X104.25Y-121.15
X104.25Y-137.95
X104.9Y-70.75
X104.9Y-87.55
X104.9Y-104.35
X104.9Y-121.15
X104.9Y-137.95
X105.0Y-58.0
X105.0Y-62.0
X105.0Y-74.8
X105.0Y-78.8
X105.0Y-91.6
X105.0Y-95.6
X105.0Y-108.4
X105.0Y-112.4
X105.0Y-125.2
X105.0Y-129.2
X105.5Y-69.5
X105.5Y-86.3
X105.5Y-103.1
X105.5Y-119.9
X105.5Y-136.7
X105.65Y-70.75
X105.65Y-87.55
X105.65Y-104.35
X105.65Y-121.15
X105.65Y-137.95
X106.15Y-69.5
X106.15Y-86.3
X106.15Y-103.1
X106.15Y-119.9
X106.15Y-136.7
X106.65Y-71.55
X106.65Y-72.25
X106.65Y-88.35
X106.65Y-89.05
X106.65Y-105.15
X106.65Y-105.85
X106.65Y-121.95
X106.65Y-122.65
X106.65Y-138.75
X106.65Y-139.45
X106.8Y-69.5
X106.8Y-86.3
X106.8Y-103.1
X106.8Y-119.9
X106.8Y-136.7
X107.1Y-57.9
X107.1Y-62.1
X107.1Y-74.7
X107.1Y-78.9
X107.1Y-91.5
X107.1Y-95.7
X107.1Y-108.3
X107.1Y-112.5
X107.1Y-125.1
X107.1Y-129.3
X107.4Y-69.5
X107.4Y-86.3
X107.4Y-103.1
X107.4Y-119.9
X107.4Y-136.7
X107.6Y-63.3
X107.6Y-64.4
X107.6Y-80.1
X107.6Y-81.2
X107.6Y-96.9
X107.6Y-98.0
X107.6Y-113.7
X107.6Y-114.8
X107.6Y-130.5
X107.6Y-131.6
X107.7Y-65.1
X107.7Y-81.9
X107.7Y-98.7
X107.7Y-115.5
X107.7Y-132.3
X108.3Y-65.1
X108.3Y-81.9
X108.3Y-98.7
X108.3Y-115.5
X108.3Y-132.3
X108.8Y-67.85
X108.8Y-84.65
X108.8Y-101.45
X108.8Y-118.25
X108.8Y-135.05
X109.1Y-60.7
X109.1Y-61.3
X109.1Y-61.9
X109.1Y-62.5
X109.1Y-77.5
X109.1Y-78.1
X109.1Y-78.7
X109.1Y-79.3
X109.1Y-94.3
X109.1Y-94.9
X109.1Y-95.5
X109.1Y-96.1
X109.1Y-111.1
X109.1Y-111.7
X109.1Y-112.3
X109.1Y-112.9
X109.1Y-127.9
X109.1Y-128.5
X109.1Y-129.1
X109.1Y-129.7
X110.4Y-57.3
X110.4Y-58.4
X110.4Y-59.25
X110.4Y-74.1
X110.4Y-75.2
X110.4Y-76.05
X110.4Y-90.9
X110.4Y-92.0
X110.4Y-92.85
X110.4Y-107.7
X110.4Y-108.8
X110.4Y-109.65
X110.4Y-124.5
X110.4Y-125.6
X110.4Y-126.45
X113.7Y-57.3
X113.7Y-58.4
X113.7Y-59.2
X113.7Y-74.1
X113.7Y-75.2
X113.7Y-76.0
X113.7Y-90.9
X113.7Y-92.0
X113.7Y-92.8
X113.7Y-107.7
X113.7Y-108.8
X113.7Y-109.6
X113.7Y-124.5
X113.7Y-125.6
X113.7Y-126.4
X114.3Y-60.3
X114.3Y-60.9
X114.3Y-61.5
X114.3Y-62.1
X114.3Y-77.1
X114.3Y-77.7
X114.3Y-78.3
X114.3Y-78.9
X114.3Y-93.9
X114.3Y-94.5
X114.3Y-95.1
X114.3Y-95.7
X114.3Y-110.7
X114.3Y-111.3
X114.3Y-111.9
X114.3Y-112.5
X114.3Y-127.5
X114.3Y-128.1
X114.3Y-128.7
X114.3Y-129.3
X117.35Y-56.549
X117.35Y-57.2
X117.35Y-73.349
X117.35Y-74.0
X117.35Y-90.149
X117.35Y-90.8
X117.35Y-106.95
X117.35Y-107.6
X117.35Y-123.749
X117.35Y-124.4
X118.5Y-58.05
X118.5Y-74.85
X118.5Y-91.65
X118.5Y-108.45
X118.5Y-125.25
X119.2Y-58.05
X119.2Y-74.85
X119.2Y-91.65
X119.2Y-108.45
X119.2Y-125.25
X119.85Y-58.05
X119.85Y-74.85
X119.85Y-91.65
X119.85Y-108.45
X119.85Y-125.25
X121.05Y-70.75
X121.05Y-87.55
X121.05Y-104.35
X121.05Y-121.15
X121.05Y-137.95
X121.7Y-70.75
X121.7Y-87.55
X121.7Y-104.35
X121.7Y-121.15
X121.7Y-137.95
X121.8Y-58.0
X121.8Y-62.0
X121.8Y-74.8
X121.8Y-78.8
X121.8Y-91.6
X121.8Y-95.6
X121.8Y-108.4
X121.8Y-112.4
X121.8Y-125.2
X121.8Y-129.2
X122.3Y-69.5
X122.3Y-86.3
X122.3Y-103.1
X122.3Y-119.9
X122.3Y-136.7
X122.45Y-70.75
X122.45Y-87.55
X122.45Y-104.35
X122.45Y-121.15
X122.45Y-137.95
X122.95Y-69.5
X122.95Y-86.3
X122.95Y-103.1
X122.95Y-119.9
X122.95Y-136.7
X123.45Y-71.55
X123.45Y-72.25
X123.45Y-88.35
X123.45Y-89.05
X123.45Y-105.15
X123.45Y-105.85
X123.45Y-121.95
X123.45Y-122.65
X123.45Y-138.75
X123.45Y-139.45
X123.6Y-69.5
X123.6Y-86.3
X123.6Y-103.1
X123.6Y-119.9
X123.6Y-136.7
X123.9Y-57.9
X123.9Y-62.1
X123.9Y-74.7
X123.9Y-78.9
X123.9Y-91.5
X123.9Y-95.7
X123.9Y-108.3
X123.9Y-112.5
X123.9Y-125.1
X123.9Y-129.3
X124.2Y-69.5
X124.2Y-86.3
X124.2Y-103.1
X124.2Y-119.9
X124.2Y-136.7
X124.4Y-63.3
X124.4Y-64.4
X124.4Y-80.1
X124.4Y-81.2
X124.4Y-96.9
X124.4Y-98.0
X124.4Y-113.7
X124.4Y-114.8
X124.4Y-130.5
X124.4Y-131.6
X124.5Y-65.1
X124.5Y-81.9
X124.5Y-98.7
X124.5Y-115.5
X124.5Y-132.3
X125.1Y-65.1
X125.1Y-81.9
X125.1Y-98.7
X125.1Y-115.5
X125.1Y-132.3
X125.6Y-67.85
X125.6Y-84.65
X125.6Y-101.45
X125.6Y-118.25
X125.6Y-135.05
X125.9Y-60.7
X125.9Y-61.3
X125.9Y-61.9
X125.9Y-62.5
X125.9Y-77.5
X125.9Y-78.1
X125.9Y-78.7
X125.9Y-79.3
X125.9Y-94.3
X125.9Y-94.9
X125.9Y-95.5
X125.9Y-96.1
X125.9Y-111.1
X125.9Y-111.7
X125.9Y-112.3
X125.9Y-112.9
X125.9Y-127.9
X125.9Y-128.5
X125.9Y-129.1
X125.9Y-129.7
X127.2Y-57.3
X127.2Y-58.4
X127.2Y-59.25
X127.2Y-74.1
X127.2Y-75.2
X127.2Y-76.05
X127.2Y-90.9
X127.2Y-92.0
X127.2Y-92.85
X127.2Y-107.7
X127.2Y-108.8
X127.2Y-109.65
X127.2Y-124.5
X127.2Y-125.6
X127.2Y-126.45
X130.5Y-57.3
X130.5Y-58.4
X130.5Y-59.2
X130.5Y-74.1
X130.5Y-75.2
X130.5Y-76.0
X130.5Y-90.9
X130.5Y-92.0
X130.5Y-92.8
X130.5Y-107.7
X130.5Y-108.8
X130.5Y-109.6
X130.5Y-124.5
X130.5Y-125.6
X130.5Y-126.4
X131.1Y-60.3
X131.1Y-60.9
X131.1Y-61.5
X131.1Y-62.1
X131.1Y-77.1
X131.1Y-77.7
X131.1Y-78.3
X131.1Y-78.9
X131.1Y-93.9
X131.1Y-94.5
X131.1Y-95.1
X131.1Y-95.7
X131.1Y-110.7
X131.1Y-111.3
X131.1Y-111.9
X131.1Y-112.5
X131.1Y-127.5
X131.1Y-128.1
X131.1Y-128.7
X131.1Y-129.3
X134.15Y-56.549
X134.15Y-57.2
X134.15Y-73.349
X134.15Y-74.0
X134.15Y-90.149
X134.15Y-90.8
X134.15Y-106.95
X134.15Y-107.6
X134.15Y-123.749
X134.15Y-124.4
X135.3Y-58.05
X135.3Y-74.85
X135.3Y-91.65
X135.3Y-108.45
X135.3Y-125.25
X136.0Y-58.05
X136.0Y-74.85
X136.0Y-91.65
X136.0Y-108.45
X136.0Y-125.25
X136.65Y-58.05
X136.65Y-74.85
X136.65Y-91.65
X136.65Y-108.45
X136.65Y-125.25
X137.85Y-70.75
X137.85Y-87.55
X137.85Y-104.35
X137.85Y-121.15
X137.85Y-137.95
X138.5Y-70.75
X138.5Y-87.55
X138.5Y-104.35
X138.5Y-121.15
X138.5Y-137.95
X138.6Y-58.0
X138.6Y-62.0
X138.6Y-74.8
X138.6Y-78.8
X138.6Y-91.6
X138.6Y-95.6
X138.6Y-108.4
X138.6Y-112.4
X138.6Y-125.2
X138.6Y-129.2
X139.1Y-69.5
X139.1Y-86.3
X139.1Y-103.1
X139.1Y-119.9
X139.1Y-136.7
X139.25Y-70.75
X139.25Y-87.55
X139.25Y-104.35
X139.25Y-121.15
X139.25Y-137.95
X139.75Y-69.5
X139.75Y-86.3
X139.75Y-103.1
X139.75Y-119.9
X139.75Y-136.7
X140.25Y-71.55
X140.25Y-72.25
X140.25Y-88.35
X140.25Y-89.05
X140.25Y-105.15
X140.25Y-105.85
X140.25Y-121.95
X140.25Y-122.65
X140.25Y-138.75
X140.25Y-139.45
X140.4Y-69.5
X140.4Y-86.3
X140.4Y-103.1
X140.4Y-119.9
X140.4Y-136.7
X140.7Y-57.9
X140.7Y-62.1
X140.7Y-74.7
X140.7Y-78.9
X140.7Y-91.5
X140.7Y-95.7
X140.7Y-108.3
X140.7Y-112.5
X140.7Y-125.1
X140.7Y-129.3
X141.0Y-69.5
X141.0Y-86.3
X141.0Y-103.1
X141.0Y-119.9
X141.0Y-136.7
X141.2Y-63.3
X141.2Y-64.4
X141.2Y-80.1
X141.2Y-81.2
X141.2Y-96.9
X141.2Y-98.0
X141.2Y-113.7
X141.2Y-114.8
X141.2Y-130.5
X141.2Y-131.6
X141.3Y-65.1
X141.3Y-81.9
X141.3Y-98.7
X141.3Y-115.5
X141.3Y-132.3
X141.9Y-65.1
X141.9Y-81.9
X141.9Y-98.7
X141.9Y-115.5
X141.9Y-132.3
X142.4Y-67.85
X142.4Y-84.65
X142.4Y-101.45
X142.4Y-118.25
X142.4Y-135.05
X142.7Y-60.7
X142.7Y-61.3
X142.7Y-61.9
X142.7Y-62.5
X142.7Y-77.5
X142.7Y-78.1
X142.7Y-78.7
X142.7Y-79.3
X142.7Y-94.3
X142.7Y-94.9
X142.7Y-95.5
X142.7Y-96.1
X142.7Y-111.1
X142.7Y-111.7
X142.7Y-112.3
X142.7Y-112.9
X142.7Y-127.9
X142.7Y-128.5
X142.7Y-129.1
X142.7Y-129.7
X144.0Y-57.3
X144.0Y-58.4
X144.0Y-59.25
X144.0Y-74.1
X144.0Y-75.2
X144.0Y-76.05
X144.0Y-90.9
X144.0Y-92.0
X144.0Y-92.85
X144.0Y-107.7
X144.0Y-108.8
X144.0Y-109.65
X144.0Y-124.5
X144.0Y-125.6
X144.0Y-126.45
X147.3Y-57.3
X147.3Y-58.4
X147.3Y-59.2
X147.3Y-74.1
X147.3Y-75.2
X147.3Y-76.0
X147.3Y-90.9
X147.3Y-92.0
X147.3Y-92.8
X147.3Y-107.7
X147.3Y-108.8
X147.3Y-109.6
X147.3Y-124.5
X147.3Y-125.6
X147.3Y-126.4
X147.9Y-60.3
X147.9Y-60.9
X147.9Y-61.5
X147.9Y-62.1
X147.9Y-77.1
X147.9Y-77.7
X147.9Y-78.3
X147.9Y-78.9
X147.9Y-93.9
X147.9Y-94.5
X147.9Y-95.1
X147.9Y-95.7
X147.9Y-110.7
X147.9Y-111.3
X147.9Y-111.9
X147.9Y-112.5
X147.9Y-127.5
X147.9Y-128.1
X147.9Y-128.7
X147.9Y-129.3
X150.95Y-56.549
X150.95Y-57.2
X150.95Y-73.349
X150.95Y-74.0
X150.95Y-90.149
X150.95Y-90.8
X150.95Y-106.95
X150.95Y-107.6
X150.95Y-123.749
X150.95Y-124.4
X152.1Y-58.05
X152.1Y-74.85
X152.1Y-91.65
X152.1Y-108.45
X152.1Y-125.25
X152.8Y-58.05
X152.8Y-74.85
X152.8Y-91.65
X152.8Y-108.45
X152.8Y-125.25
X153.45Y-58.05
X153.45Y-74.85
X153.45Y-91.65
X153.45Y-108.45
X153.45Y-125.25
T0
M30
