G04 #@! TF.GenerationSoftware,KiCad,Pcbnew,7.0.9*
G04 #@! TF.CreationDate,2024-07-27T16:50:16+02:00*
G04 #@! TF.ProjectId,Nutzen,4e75747a-656e-42e6-9b69-6361645f7063,rev?*
G04 #@! TF.SameCoordinates,Original*
G04 #@! TF.FileFunction,Profile,NP*
%FSLAX46Y46*%
G04 Gerber Fmt 4.6, Leading zero omitted, Abs format (unit mm)*
G04 Created by KiCad (PCBNEW 7.0.9) date 2024-07-27 16:50:16*
%MOMM*%
%LPD*%
G01*
G04 APERTURE LIST*
G04 #@! TA.AperFunction,Profile*
%ADD10C,0.100000*%
G04 #@! TD*
G04 APERTURE END LIST*
D10*
X110700000Y-65800000D02*
X93900000Y-65800000D01*
X93900000Y-82600000D02*
X110700000Y-82600000D01*
X93900000Y-82600000D02*
X93900000Y-99400000D01*
X110700000Y-116200000D02*
X110700000Y-99400000D01*
X127500000Y-49000000D02*
X144300000Y-49000000D01*
X93900000Y-49000000D02*
X93900000Y-65800000D01*
X77100000Y-49000000D02*
X77100000Y-65800000D01*
X93900000Y-32200000D02*
X77100000Y-32200000D01*
X144300000Y-32200000D02*
X144300000Y-49000000D01*
X110700000Y-82600000D02*
X127500000Y-82600000D01*
X127500000Y-82600000D02*
X127500000Y-65800000D01*
X127500000Y-82600000D02*
X127500000Y-99400000D01*
X127500000Y-99400000D02*
X127500000Y-116200000D01*
X77100000Y-82600000D02*
X77100000Y-99400000D01*
X144300000Y-65800000D02*
X161100000Y-65800000D01*
X144300000Y-65800000D02*
X144300000Y-82600000D01*
X77100000Y-49000000D02*
X93900000Y-49000000D01*
X93900000Y-82600000D02*
X93900000Y-65800000D01*
X77100000Y-82600000D02*
X93900000Y-82600000D01*
X144300000Y-49000000D02*
X144300000Y-32200000D01*
X127500000Y-49000000D02*
X127500000Y-32200000D01*
X110700000Y-49000000D02*
X110700000Y-65800000D01*
X127500000Y-49000000D02*
X110700000Y-49000000D01*
X161100000Y-65800000D02*
X161100000Y-49000000D01*
X110700000Y-99400000D02*
X127500000Y-99400000D01*
X93900000Y-49000000D02*
X77100000Y-49000000D01*
X127500000Y-65800000D02*
X127500000Y-82600000D01*
X110700000Y-65800000D02*
X110700000Y-49000000D01*
X127500000Y-82600000D02*
X144300000Y-82600000D01*
X127500000Y-65800000D02*
X110700000Y-65800000D01*
X127500000Y-32200000D02*
X127500000Y-49000000D01*
X93900000Y-65800000D02*
X93900000Y-49000000D01*
X127500000Y-116200000D02*
X127500000Y-99400000D01*
X144300000Y-82600000D02*
X144300000Y-99400000D01*
X144300000Y-99400000D02*
X127500000Y-99400000D01*
X93900000Y-49000000D02*
X110700000Y-49000000D01*
X161100000Y-32200000D02*
X144300000Y-32200000D01*
X127500000Y-99400000D02*
X110700000Y-99400000D01*
X127500000Y-32200000D02*
X110700000Y-32200000D01*
X127500000Y-49000000D02*
X127500000Y-65800000D01*
X144300000Y-116200000D02*
X144300000Y-99400000D01*
X110700000Y-116200000D02*
X127500000Y-116200000D01*
X93900000Y-32200000D02*
X93900000Y-49000000D01*
X127500000Y-116200000D02*
X144300000Y-116200000D01*
X110700000Y-82600000D02*
X110700000Y-99400000D01*
X161100000Y-49000000D02*
X161100000Y-32200000D01*
X93900000Y-65800000D02*
X110700000Y-65800000D01*
X93900000Y-65800000D02*
X77100000Y-65800000D01*
X161100000Y-65800000D02*
X144300000Y-65800000D01*
X127500000Y-99400000D02*
X144300000Y-99400000D01*
X161100000Y-49000000D02*
X144300000Y-49000000D01*
X110700000Y-65800000D02*
X110700000Y-82600000D01*
X144300000Y-99400000D02*
X144300000Y-82600000D01*
X144300000Y-99400000D02*
X144300000Y-116200000D01*
X93900000Y-82600000D02*
X77100000Y-82600000D01*
X110700000Y-82600000D02*
X110700000Y-65800000D01*
X77100000Y-99400000D02*
X77100000Y-116200000D01*
X77100000Y-99400000D02*
X93900000Y-99400000D01*
X127500000Y-99400000D02*
X127500000Y-82600000D01*
X110700000Y-49000000D02*
X93900000Y-49000000D01*
X144300000Y-82600000D02*
X144300000Y-65800000D01*
X144300000Y-49000000D02*
X161100000Y-49000000D01*
X77100000Y-32200000D02*
X77100000Y-49000000D01*
X144300000Y-65800000D02*
X144300000Y-49000000D01*
X110700000Y-32200000D02*
X93900000Y-32200000D01*
X110700000Y-65800000D02*
X127500000Y-65800000D01*
X93900000Y-99400000D02*
X110700000Y-99400000D01*
X93900000Y-99400000D02*
X77100000Y-99400000D01*
X93900000Y-116200000D02*
X93900000Y-99400000D01*
X144300000Y-99400000D02*
X161100000Y-99400000D01*
X110700000Y-99400000D02*
X93900000Y-99400000D01*
X161100000Y-116200000D02*
X161100000Y-99400000D01*
X127500000Y-65800000D02*
X127500000Y-49000000D01*
X110700000Y-99400000D02*
X110700000Y-116200000D01*
X144300000Y-82600000D02*
X127500000Y-82600000D01*
X144300000Y-32200000D02*
X127500000Y-32200000D01*
X144300000Y-65800000D02*
X127500000Y-65800000D01*
X161100000Y-82600000D02*
X144300000Y-82600000D01*
X127500000Y-65800000D02*
X144300000Y-65800000D01*
X93900000Y-99400000D02*
X93900000Y-82600000D01*
X77100000Y-65800000D02*
X93900000Y-65800000D01*
X161100000Y-99400000D02*
X144300000Y-99400000D01*
X161100000Y-82600000D02*
X161100000Y-65800000D01*
X127500000Y-82600000D02*
X110700000Y-82600000D01*
X110700000Y-32200000D02*
X110700000Y-49000000D01*
X110700000Y-82600000D02*
X93900000Y-82600000D01*
X93900000Y-99400000D02*
X93900000Y-116200000D01*
X77100000Y-116200000D02*
X93900000Y-116200000D01*
X161100000Y-99400000D02*
X161100000Y-82600000D01*
X144300000Y-49000000D02*
X127500000Y-49000000D01*
X144300000Y-116200000D02*
X161100000Y-116200000D01*
X93900000Y-49000000D02*
X93900000Y-32200000D01*
X144300000Y-49000000D02*
X144300000Y-65800000D01*
X77100000Y-65800000D02*
X77100000Y-82600000D01*
X110700000Y-99400000D02*
X110700000Y-82600000D01*
X93900000Y-116200000D02*
X110700000Y-116200000D01*
X144300000Y-82600000D02*
X161100000Y-82600000D01*
X110700000Y-49000000D02*
X127500000Y-49000000D01*
X93900000Y-65800000D02*
X93900000Y-82600000D01*
X110700000Y-49000000D02*
X110700000Y-32200000D01*
M02*
