M48
; DRILL file {KiCad 7.0.9} date Sat Jul 27 16:50:35 2024
; FORMAT={-:-/ absolute / metric / decimal}
; #@! TF.CreationDate,2024-07-27T16:50:35+02:00
; #@! TF.GenerationSoftware,Kicad,Pcbnew,7.0.9
; #@! TF.FileFunction,Plated,1,2,PTH
FMAT,2
METRIC
; #@! TA.AperFunction,Plated,PTH,ViaDrill
T1C0.300
; #@! TA.AperFunction,Plated,PTH,ComponentDrill
T2C1.000
%
G90
G05
T1
X78.5Y-34.2
X78.5Y-38.2
X78.5Y-51.0
X78.5Y-55.0
X78.5Y-67.8
X78.5Y-71.8
X78.5Y-84.6
X78.5Y-88.6
X78.5Y-101.4
X78.5Y-105.4
X79.0Y-45.7
X79.0Y-62.5
X79.0Y-79.3
X79.0Y-96.1
X79.0Y-112.9
X79.65Y-45.7
X79.65Y-62.5
X79.65Y-79.3
X79.65Y-96.1
X79.65Y-112.9
X80.15Y-47.0
X80.15Y-47.75
X80.15Y-48.45
X80.15Y-63.8
X80.15Y-64.55
X80.15Y-65.25
X80.15Y-80.6
X80.15Y-81.35
X80.15Y-82.05
X80.15Y-97.4
X80.15Y-98.15
X80.15Y-98.85
X80.15Y-114.2
X80.15Y-114.95
X80.15Y-115.65
X80.3Y-45.7
X80.3Y-62.5
X80.3Y-79.3
X80.3Y-96.1
X80.3Y-112.9
X80.6Y-34.1
X80.6Y-38.3
X80.6Y-50.9
X80.6Y-55.1
X80.6Y-67.7
X80.6Y-71.9
X80.6Y-84.5
X80.6Y-88.7
X80.6Y-101.3
X80.6Y-105.5
X80.9Y-45.7
X80.9Y-62.5
X80.9Y-79.3
X80.9Y-96.1
X80.9Y-112.9
X81.1Y-39.5
X81.1Y-40.6
X81.1Y-56.3
X81.1Y-57.4
X81.1Y-73.1
X81.1Y-74.2
X81.1Y-89.9
X81.1Y-91.0
X81.1Y-106.7
X81.1Y-107.8
X81.2Y-41.3
X81.2Y-58.1
X81.2Y-74.9
X81.2Y-91.7
X81.2Y-108.5
X81.8Y-41.3
X81.8Y-58.1
X81.8Y-74.9
X81.8Y-91.7
X81.8Y-108.5
X82.3Y-44.05
X82.3Y-60.85
X82.3Y-77.65
X82.3Y-94.45
X82.3Y-111.25
X82.6Y-36.9
X82.6Y-37.5
X82.6Y-38.1
X82.6Y-38.7
X82.6Y-53.7
X82.6Y-54.3
X82.6Y-54.9
X82.6Y-55.5
X82.6Y-70.5
X82.6Y-71.1
X82.6Y-71.7
X82.6Y-72.3
X82.6Y-87.3
X82.6Y-87.9
X82.6Y-88.5
X82.6Y-89.1
X82.6Y-104.1
X82.6Y-104.7
X82.6Y-105.3
X82.6Y-105.9
X83.9Y-33.5
X83.9Y-34.6
X83.9Y-35.45
X83.9Y-50.3
X83.9Y-51.4
X83.9Y-52.25
X83.9Y-67.1
X83.9Y-68.2
X83.9Y-69.05
X83.9Y-83.9
X83.9Y-85.0
X83.9Y-85.85
X83.9Y-100.7
X83.9Y-101.8
X83.9Y-102.65
X87.2Y-33.5
X87.2Y-34.6
X87.2Y-35.4
X87.2Y-50.3
X87.2Y-51.4
X87.2Y-52.2
X87.2Y-67.1
X87.2Y-68.2
X87.2Y-69.0
X87.2Y-83.9
X87.2Y-85.0
X87.2Y-85.8
X87.2Y-100.7
X87.2Y-101.8
X87.2Y-102.6
X87.8Y-36.5
X87.8Y-37.1
X87.8Y-37.7
X87.8Y-38.3
X87.8Y-53.3
X87.8Y-53.9
X87.8Y-54.5
X87.8Y-55.1
X87.8Y-70.1
X87.8Y-70.7
X87.8Y-71.3
X87.8Y-71.9
X87.8Y-86.9
X87.8Y-87.5
X87.8Y-88.1
X87.8Y-88.7
X87.8Y-103.7
X87.8Y-104.3
X87.8Y-104.9
X87.8Y-105.5
X90.85Y-32.75
X90.85Y-33.4
X90.85Y-34.15
X90.85Y-49.55
X90.85Y-50.2
X90.85Y-50.95
X90.85Y-66.35
X90.85Y-67.0
X90.85Y-67.75
X90.85Y-83.15
X90.85Y-83.8
X90.85Y-84.55
X90.85Y-99.95
X90.85Y-100.6
X90.85Y-101.35
X95.3Y-34.2
X95.3Y-38.2
X95.3Y-51.0
X95.3Y-55.0
X95.3Y-67.8
X95.3Y-71.8
X95.3Y-84.6
X95.3Y-88.6
X95.3Y-101.4
X95.3Y-105.4
X95.8Y-45.7
X95.8Y-62.5
X95.8Y-79.3
X95.8Y-96.1
X95.8Y-112.9
X96.45Y-45.7
X96.45Y-62.5
X96.45Y-79.3
X96.45Y-96.1
X96.45Y-112.9
X96.95Y-47.0
X96.95Y-47.75
X96.95Y-48.45
X96.95Y-63.8
X96.95Y-64.55
X96.95Y-65.25
X96.95Y-80.6
X96.95Y-81.35
X96.95Y-82.05
X96.95Y-97.4
X96.95Y-98.15
X96.95Y-98.85
X96.95Y-114.2
X96.95Y-114.95
X96.95Y-115.65
X97.1Y-45.7
X97.1Y-62.5
X97.1Y-79.3
X97.1Y-96.1
X97.1Y-112.9
X97.4Y-34.1
X97.4Y-38.3
X97.4Y-50.9
X97.4Y-55.1
X97.4Y-67.7
X97.4Y-71.9
X97.4Y-84.5
X97.4Y-88.7
X97.4Y-101.3
X97.4Y-105.5
X97.7Y-45.7
X97.7Y-62.5
X97.7Y-79.3
X97.7Y-96.1
X97.7Y-112.9
X97.9Y-39.5
X97.9Y-40.6
X97.9Y-56.3
X97.9Y-57.4
X97.9Y-73.1
X97.9Y-74.2
X97.9Y-89.9
X97.9Y-91.0
X97.9Y-106.7
X97.9Y-107.8
X98.0Y-41.3
X98.0Y-58.1
X98.0Y-74.9
X98.0Y-91.7
X98.0Y-108.5
X98.6Y-41.3
X98.6Y-58.1
X98.6Y-74.9
X98.6Y-91.7
X98.6Y-108.5
X99.1Y-44.05
X99.1Y-60.85
X99.1Y-77.65
X99.1Y-94.45
X99.1Y-111.25
X99.4Y-36.9
X99.4Y-37.5
X99.4Y-38.1
X99.4Y-38.7
X99.4Y-53.7
X99.4Y-54.3
X99.4Y-54.9
X99.4Y-55.5
X99.4Y-70.5
X99.4Y-71.1
X99.4Y-71.7
X99.4Y-72.3
X99.4Y-87.3
X99.4Y-87.9
X99.4Y-88.5
X99.4Y-89.1
X99.4Y-104.1
X99.4Y-104.7
X99.4Y-105.3
X99.4Y-105.9
X100.7Y-33.5
X100.7Y-34.6
X100.7Y-35.45
X100.7Y-50.3
X100.7Y-51.4
X100.7Y-52.25
X100.7Y-67.1
X100.7Y-68.2
X100.7Y-69.05
X100.7Y-83.9
X100.7Y-85.0
X100.7Y-85.85
X100.7Y-100.7
X100.7Y-101.8
X100.7Y-102.65
X104.0Y-33.5
X104.0Y-34.6
X104.0Y-35.4
X104.0Y-50.3
X104.0Y-51.4
X104.0Y-52.2
X104.0Y-67.1
X104.0Y-68.2
X104.0Y-69.0
X104.0Y-83.9
X104.0Y-85.0
X104.0Y-85.8
X104.0Y-100.7
X104.0Y-101.8
X104.0Y-102.6
X104.6Y-36.5
X104.6Y-37.1
X104.6Y-37.7
X104.6Y-38.3
X104.6Y-53.3
X104.6Y-53.9
X104.6Y-54.5
X104.6Y-55.1
X104.6Y-70.1
X104.6Y-70.7
X104.6Y-71.3
X104.6Y-71.9
X104.6Y-86.9
X104.6Y-87.5
X104.6Y-88.1
X104.6Y-88.7
X104.6Y-103.7
X104.6Y-104.3
X104.6Y-104.9
X104.6Y-105.5
X107.65Y-32.75
X107.65Y-33.4
X107.65Y-34.15
X107.65Y-49.55
X107.65Y-50.2
X107.65Y-50.95
X107.65Y-66.35
X107.65Y-67.0
X107.65Y-67.75
X107.65Y-83.15
X107.65Y-83.8
X107.65Y-84.55
X107.65Y-99.95
X107.65Y-100.6
X107.65Y-101.35
X112.1Y-34.2
X112.1Y-38.2
X112.1Y-51.0
X112.1Y-55.0
X112.1Y-67.8
X112.1Y-71.8
X112.1Y-84.6
X112.1Y-88.6
X112.1Y-101.4
X112.1Y-105.4
X112.6Y-45.7
X112.6Y-62.5
X112.6Y-79.3
X112.6Y-96.1
X112.6Y-112.9
X113.25Y-45.7
X113.25Y-62.5
X113.25Y-79.3
X113.25Y-96.1
X113.25Y-112.9
X113.75Y-47.0
X113.75Y-47.75
X113.75Y-48.45
X113.75Y-63.8
X113.75Y-64.55
X113.75Y-65.25
X113.75Y-80.6
X113.75Y-81.35
X113.75Y-82.05
X113.75Y-97.4
X113.75Y-98.15
X113.75Y-98.85
X113.75Y-114.2
X113.75Y-114.95
X113.75Y-115.65
X113.9Y-45.7
X113.9Y-62.5
X113.9Y-79.3
X113.9Y-96.1
X113.9Y-112.9
X114.2Y-34.1
X114.2Y-38.3
X114.2Y-50.9
X114.2Y-55.1
X114.2Y-67.7
X114.2Y-71.9
X114.2Y-84.5
X114.2Y-88.7
X114.2Y-101.3
X114.2Y-105.5
X114.5Y-45.7
X114.5Y-62.5
X114.5Y-79.3
X114.5Y-96.1
X114.5Y-112.9
X114.7Y-39.5
X114.7Y-40.6
X114.7Y-56.3
X114.7Y-57.4
X114.7Y-73.1
X114.7Y-74.2
X114.7Y-89.9
X114.7Y-91.0
X114.7Y-106.7
X114.7Y-107.8
X114.8Y-41.3
X114.8Y-58.1
X114.8Y-74.9
X114.8Y-91.7
X114.8Y-108.5
X115.4Y-41.3
X115.4Y-58.1
X115.4Y-74.9
X115.4Y-91.7
X115.4Y-108.5
X115.9Y-44.05
X115.9Y-60.85
X115.9Y-77.65
X115.9Y-94.45
X115.9Y-111.25
X116.2Y-36.9
X116.2Y-37.5
X116.2Y-38.1
X116.2Y-38.7
X116.2Y-53.7
X116.2Y-54.3
X116.2Y-54.9
X116.2Y-55.5
X116.2Y-70.5
X116.2Y-71.1
X116.2Y-71.7
X116.2Y-72.3
X116.2Y-87.3
X116.2Y-87.9
X116.2Y-88.5
X116.2Y-89.1
X116.2Y-104.1
X116.2Y-104.7
X116.2Y-105.3
X116.2Y-105.9
X117.5Y-33.5
X117.5Y-34.6
X117.5Y-35.45
X117.5Y-50.3
X117.5Y-51.4
X117.5Y-52.25
X117.5Y-67.1
X117.5Y-68.2
X117.5Y-69.05
X117.5Y-83.9
X117.5Y-85.0
X117.5Y-85.85
X117.5Y-100.7
X117.5Y-101.8
X117.5Y-102.65
X120.8Y-33.5
X120.8Y-34.6
X120.8Y-35.4
X120.8Y-50.3
X120.8Y-51.4
X120.8Y-52.2
X120.8Y-67.1
X120.8Y-68.2
X120.8Y-69.0
X120.8Y-83.9
X120.8Y-85.0
X120.8Y-85.8
X120.8Y-100.7
X120.8Y-101.8
X120.8Y-102.6
X121.4Y-36.5
X121.4Y-37.1
X121.4Y-37.7
X121.4Y-38.3
X121.4Y-53.3
X121.4Y-53.9
X121.4Y-54.5
X121.4Y-55.1
X121.4Y-70.1
X121.4Y-70.7
X121.4Y-71.3
X121.4Y-71.9
X121.4Y-86.9
X121.4Y-87.5
X121.4Y-88.1
X121.4Y-88.7
X121.4Y-103.7
X121.4Y-104.3
X121.4Y-104.9
X121.4Y-105.5
X124.45Y-32.75
X124.45Y-33.4
X124.45Y-34.15
X124.45Y-49.55
X124.45Y-50.2
X124.45Y-50.95
X124.45Y-66.35
X124.45Y-67.0
X124.45Y-67.75
X124.45Y-83.15
X124.45Y-83.8
X124.45Y-84.55
X124.45Y-99.95
X124.45Y-100.6
X124.45Y-101.35
X128.9Y-34.2
X128.9Y-38.2
X128.9Y-51.0
X128.9Y-55.0
X128.9Y-67.8
X128.9Y-71.8
X128.9Y-84.6
X128.9Y-88.6
X128.9Y-101.4
X128.9Y-105.4
X129.4Y-45.7
X129.4Y-62.5
X129.4Y-79.3
X129.4Y-96.1
X129.4Y-112.9
X130.05Y-45.7
X130.05Y-62.5
X130.05Y-79.3
X130.05Y-96.1
X130.05Y-112.9
X130.55Y-47.0
X130.55Y-47.75
X130.55Y-48.45
X130.55Y-63.8
X130.55Y-64.55
X130.55Y-65.25
X130.55Y-80.6
X130.55Y-81.35
X130.55Y-82.05
X130.55Y-97.4
X130.55Y-98.15
X130.55Y-98.85
X130.55Y-114.2
X130.55Y-114.95
X130.55Y-115.65
X130.7Y-45.7
X130.7Y-62.5
X130.7Y-79.3
X130.7Y-96.1
X130.7Y-112.9
X131.0Y-34.1
X131.0Y-38.3
X131.0Y-50.9
X131.0Y-55.1
X131.0Y-67.7
X131.0Y-71.9
X131.0Y-84.5
X131.0Y-88.7
X131.0Y-101.3
X131.0Y-105.5
X131.3Y-45.7
X131.3Y-62.5
X131.3Y-79.3
X131.3Y-96.1
X131.3Y-112.9
X131.5Y-39.5
X131.5Y-40.6
X131.5Y-56.3
X131.5Y-57.4
X131.5Y-73.1
X131.5Y-74.2
X131.5Y-89.9
X131.5Y-91.0
X131.5Y-106.7
X131.5Y-107.8
X131.6Y-41.3
X131.6Y-58.1
X131.6Y-74.9
X131.6Y-91.7
X131.6Y-108.5
X132.2Y-41.3
X132.2Y-58.1
X132.2Y-74.9
X132.2Y-91.7
X132.2Y-108.5
X132.7Y-44.05
X132.7Y-60.85
X132.7Y-77.65
X132.7Y-94.45
X132.7Y-111.25
X133.0Y-36.9
X133.0Y-37.5
X133.0Y-38.1
X133.0Y-38.7
X133.0Y-53.7
X133.0Y-54.3
X133.0Y-54.9
X133.0Y-55.5
X133.0Y-70.5
X133.0Y-71.1
X133.0Y-71.7
X133.0Y-72.3
X133.0Y-87.3
X133.0Y-87.9
X133.0Y-88.5
X133.0Y-89.1
X133.0Y-104.1
X133.0Y-104.7
X133.0Y-105.3
X133.0Y-105.9
X134.3Y-33.5
X134.3Y-34.6
X134.3Y-35.45
X134.3Y-50.3
X134.3Y-51.4
X134.3Y-52.25
X134.3Y-67.1
X134.3Y-68.2
X134.3Y-69.05
X134.3Y-83.9
X134.3Y-85.0
X134.3Y-85.85
X134.3Y-100.7
X134.3Y-101.8
X134.3Y-102.65
X137.6Y-33.5
X137.6Y-34.6
X137.6Y-35.4
X137.6Y-50.3
X137.6Y-51.4
X137.6Y-52.2
X137.6Y-67.1
X137.6Y-68.2
X137.6Y-69.0
X137.6Y-83.9
X137.6Y-85.0
X137.6Y-85.8
X137.6Y-100.7
X137.6Y-101.8
X137.6Y-102.6
X138.2Y-36.5
X138.2Y-37.1
X138.2Y-37.7
X138.2Y-38.3
X138.2Y-53.3
X138.2Y-53.9
X138.2Y-54.5
X138.2Y-55.1
X138.2Y-70.1
X138.2Y-70.7
X138.2Y-71.3
X138.2Y-71.9
X138.2Y-86.9
X138.2Y-87.5
X138.2Y-88.1
X138.2Y-88.7
X138.2Y-103.7
X138.2Y-104.3
X138.2Y-104.9
X138.2Y-105.5
X141.25Y-32.75
X141.25Y-33.4
X141.25Y-34.15
X141.25Y-49.55
X141.25Y-50.2
X141.25Y-50.95
X141.25Y-66.35
X141.25Y-67.0
X141.25Y-67.75
X141.25Y-83.15
X141.25Y-83.8
X141.25Y-84.55
X141.25Y-99.95
X141.25Y-100.6
X141.25Y-101.35
X145.7Y-34.2
X145.7Y-38.2
X145.7Y-51.0
X145.7Y-55.0
X145.7Y-67.8
X145.7Y-71.8
X145.7Y-84.6
X145.7Y-88.6
X145.7Y-101.4
X145.7Y-105.4
X146.2Y-45.7
X146.2Y-62.5
X146.2Y-79.3
X146.2Y-96.1
X146.2Y-112.9
X146.85Y-45.7
X146.85Y-62.5
X146.85Y-79.3
X146.85Y-96.1
X146.85Y-112.9
X147.35Y-47.0
X147.35Y-47.75
X147.35Y-48.45
X147.35Y-63.8
X147.35Y-64.55
X147.35Y-65.25
X147.35Y-80.6
X147.35Y-81.35
X147.35Y-82.05
X147.35Y-97.4
X147.35Y-98.15
X147.35Y-98.85
X147.35Y-114.2
X147.35Y-114.95
X147.35Y-115.65
X147.5Y-45.7
X147.5Y-62.5
X147.5Y-79.3
X147.5Y-96.1
X147.5Y-112.9
X147.8Y-34.1
X147.8Y-38.3
X147.8Y-50.9
X147.8Y-55.1
X147.8Y-67.7
X147.8Y-71.9
X147.8Y-84.5
X147.8Y-88.7
X147.8Y-101.3
X147.8Y-105.5
X148.1Y-45.7
X148.1Y-62.5
X148.1Y-79.3
X148.1Y-96.1
X148.1Y-112.9
X148.3Y-39.5
X148.3Y-40.6
X148.3Y-56.3
X148.3Y-57.4
X148.3Y-73.1
X148.3Y-74.2
X148.3Y-89.9
X148.3Y-91.0
X148.3Y-106.7
X148.3Y-107.8
X148.4Y-41.3
X148.4Y-58.1
X148.4Y-74.9
X148.4Y-91.7
X148.4Y-108.5
X149.0Y-41.3
X149.0Y-58.1
X149.0Y-74.9
X149.0Y-91.7
X149.0Y-108.5
X149.5Y-44.05
X149.5Y-60.85
X149.5Y-77.65
X149.5Y-94.45
X149.5Y-111.25
X149.8Y-36.9
X149.8Y-37.5
X149.8Y-38.1
X149.8Y-38.7
X149.8Y-53.7
X149.8Y-54.3
X149.8Y-54.9
X149.8Y-55.5
X149.8Y-70.5
X149.8Y-71.1
X149.8Y-71.7
X149.8Y-72.3
X149.8Y-87.3
X149.8Y-87.9
X149.8Y-88.5
X149.8Y-89.1
X149.8Y-104.1
X149.8Y-104.7
X149.8Y-105.3
X149.8Y-105.9
X151.1Y-33.5
X151.1Y-34.6
X151.1Y-35.45
X151.1Y-50.3
X151.1Y-51.4
X151.1Y-52.25
X151.1Y-67.1
X151.1Y-68.2
X151.1Y-69.05
X151.1Y-83.9
X151.1Y-85.0
X151.1Y-85.85
X151.1Y-100.7
X151.1Y-101.8
X151.1Y-102.65
X154.4Y-33.5
X154.4Y-34.6
X154.4Y-35.4
X154.4Y-50.3
X154.4Y-51.4
X154.4Y-52.2
X154.4Y-67.1
X154.4Y-68.2
X154.4Y-69.0
X154.4Y-83.9
X154.4Y-85.0
X154.4Y-85.8
X154.4Y-100.7
X154.4Y-101.8
X154.4Y-102.6
X155.0Y-36.5
X155.0Y-37.1
X155.0Y-37.7
X155.0Y-38.3
X155.0Y-53.3
X155.0Y-53.9
X155.0Y-54.5
X155.0Y-55.1
X155.0Y-70.1
X155.0Y-70.7
X155.0Y-71.3
X155.0Y-71.9
X155.0Y-86.9
X155.0Y-87.5
X155.0Y-88.1
X155.0Y-88.7
X155.0Y-103.7
X155.0Y-104.3
X155.0Y-104.9
X155.0Y-105.5
X158.05Y-32.75
X158.05Y-33.4
X158.05Y-34.15
X158.05Y-49.55
X158.05Y-50.2
X158.05Y-50.95
X158.05Y-66.35
X158.05Y-67.0
X158.05Y-67.75
X158.05Y-83.15
X158.05Y-83.8
X158.05Y-84.55
X158.05Y-99.95
X158.05Y-100.6
X158.05Y-101.35
T2
X78.45Y-47.65
X78.45Y-64.45
X78.45Y-81.25
X78.45Y-98.05
X78.45Y-114.85
X92.55Y-33.55
X92.55Y-50.35
X92.55Y-67.15
X92.55Y-83.95
X92.55Y-100.75
X95.25Y-47.65
X95.25Y-64.45
X95.25Y-81.25
X95.25Y-98.05
X95.25Y-114.85
X109.35Y-33.55
X109.35Y-50.35
X109.35Y-67.15
X109.35Y-83.95
X109.35Y-100.75
X112.05Y-47.65
X112.05Y-64.45
X112.05Y-81.25
X112.05Y-98.05
X112.05Y-114.85
X126.15Y-33.55
X126.15Y-50.35
X126.15Y-67.15
X126.15Y-83.95
X126.15Y-100.75
X128.85Y-47.65
X128.85Y-64.45
X128.85Y-81.25
X128.85Y-98.05
X128.85Y-114.85
X142.95Y-33.55
X142.95Y-50.35
X142.95Y-67.15
X142.95Y-83.95
X142.95Y-100.75
X145.65Y-47.65
X145.65Y-64.45
X145.65Y-81.25
X145.65Y-98.05
X145.65Y-114.85
X159.75Y-33.55
X159.75Y-50.35
X159.75Y-67.15
X159.75Y-83.95
X159.75Y-100.75
T0
M30
