G04 #@! TF.GenerationSoftware,KiCad,Pcbnew,7.0.9*
G04 #@! TF.CreationDate,2024-01-02T20:31:58+01:00*
G04 #@! TF.ProjectId,Nutzen,4e75747a-656e-42e6-9b69-6361645f7063,rev?*
G04 #@! TF.SameCoordinates,Original*
G04 #@! TF.FileFunction,Soldermask,Bot*
G04 #@! TF.FilePolarity,Negative*
%FSLAX46Y46*%
G04 Gerber Fmt 4.6, Leading zero omitted, Abs format (unit mm)*
G04 Created by KiCad (PCBNEW 7.0.9) date 2024-01-02 20:31:58*
%MOMM*%
%LPD*%
G01*
G04 APERTURE LIST*
G04 Aperture macros list*
%AMRoundRect*
0 Rectangle with rounded corners*
0 $1 Rounding radius*
0 $2 $3 $4 $5 $6 $7 $8 $9 X,Y pos of 4 corners*
0 Add a 4 corners polygon primitive as box body*
4,1,4,$2,$3,$4,$5,$6,$7,$8,$9,$2,$3,0*
0 Add four circle primitives for the rounded corners*
1,1,$1+$1,$2,$3*
1,1,$1+$1,$4,$5*
1,1,$1+$1,$6,$7*
1,1,$1+$1,$8,$9*
0 Add four rect primitives between the rounded corners*
20,1,$1+$1,$2,$3,$4,$5,0*
20,1,$1+$1,$4,$5,$6,$7,0*
20,1,$1+$1,$6,$7,$8,$9,0*
20,1,$1+$1,$8,$9,$2,$3,0*%
G04 Aperture macros list end*
%ADD10RoundRect,0.250000X0.750000X0.250000X-0.750000X0.250000X-0.750000X-0.250000X0.750000X-0.250000X0*%
%ADD11C,2.000000*%
G04 APERTURE END LIST*
D10*
X151850000Y-110750000D03*
D11*
X144750000Y-112350000D03*
X139550000Y-121350000D03*
X149950000Y-121350000D03*
D10*
X137650000Y-125950000D03*
X151850000Y-93950000D03*
D11*
X144750000Y-95550000D03*
X149950000Y-104550000D03*
D10*
X137650000Y-109150000D03*
D11*
X139550000Y-87750000D03*
D10*
X137650000Y-92350000D03*
D11*
X149950000Y-87750000D03*
D10*
X151850000Y-77150000D03*
D11*
X139550000Y-104550000D03*
X144750000Y-78750000D03*
X139550000Y-70950000D03*
D10*
X137650000Y-75550000D03*
X151850000Y-60350000D03*
D11*
X144750000Y-61950000D03*
X149950000Y-70950000D03*
X144750000Y-45150000D03*
X139550000Y-54150000D03*
D10*
X151850000Y-43550000D03*
D11*
X149950000Y-54150000D03*
D10*
X137650000Y-58750000D03*
X135050000Y-110750000D03*
D11*
X127950000Y-112350000D03*
X122750000Y-121350000D03*
X133150000Y-121350000D03*
D10*
X120850000Y-125950000D03*
X135050000Y-93950000D03*
D11*
X127950000Y-95550000D03*
X133150000Y-104550000D03*
D10*
X120850000Y-109150000D03*
D11*
X122750000Y-87750000D03*
D10*
X120850000Y-92350000D03*
D11*
X133150000Y-87750000D03*
D10*
X135050000Y-77150000D03*
D11*
X122750000Y-104550000D03*
X127950000Y-78750000D03*
X122750000Y-70950000D03*
D10*
X120850000Y-75550000D03*
X135050000Y-60350000D03*
D11*
X127950000Y-61950000D03*
X133150000Y-70950000D03*
X127950000Y-45150000D03*
X122750000Y-54150000D03*
D10*
X135050000Y-43550000D03*
D11*
X133150000Y-54150000D03*
D10*
X120850000Y-58750000D03*
X118250000Y-110750000D03*
D11*
X111150000Y-112350000D03*
X105950000Y-121350000D03*
X116350000Y-121350000D03*
D10*
X104050000Y-125950000D03*
X118250000Y-93950000D03*
D11*
X111150000Y-95550000D03*
X116350000Y-104550000D03*
D10*
X104050000Y-109150000D03*
D11*
X105950000Y-87750000D03*
D10*
X104050000Y-92350000D03*
D11*
X116350000Y-87750000D03*
D10*
X118250000Y-77150000D03*
D11*
X105950000Y-104550000D03*
X111150000Y-78750000D03*
X105950000Y-70950000D03*
D10*
X104050000Y-75550000D03*
X118250000Y-60350000D03*
D11*
X111150000Y-61950000D03*
X116350000Y-70950000D03*
X111150000Y-45150000D03*
X105950000Y-54150000D03*
D10*
X118250000Y-43550000D03*
D11*
X116350000Y-54150000D03*
D10*
X104050000Y-58750000D03*
X101450000Y-110750000D03*
D11*
X94350000Y-112350000D03*
X89150000Y-121350000D03*
X99550000Y-121350000D03*
D10*
X87250000Y-125950000D03*
X101450000Y-93950000D03*
D11*
X94350000Y-95550000D03*
X99550000Y-104550000D03*
D10*
X87250000Y-109150000D03*
D11*
X89150000Y-87750000D03*
D10*
X87250000Y-92350000D03*
D11*
X99550000Y-87750000D03*
D10*
X101450000Y-77150000D03*
D11*
X89150000Y-104550000D03*
X94350000Y-78750000D03*
X89150000Y-70950000D03*
D10*
X87250000Y-75550000D03*
X101450000Y-60350000D03*
D11*
X94350000Y-61950000D03*
X99550000Y-70950000D03*
X94350000Y-45150000D03*
X89150000Y-54150000D03*
D10*
X101450000Y-43550000D03*
D11*
X99550000Y-54150000D03*
D10*
X87250000Y-58750000D03*
D11*
X77550000Y-112350000D03*
X72350000Y-121350000D03*
D10*
X84650000Y-110750000D03*
D11*
X82750000Y-121350000D03*
D10*
X70450000Y-125950000D03*
D11*
X77550000Y-95550000D03*
X72350000Y-104550000D03*
D10*
X84650000Y-93950000D03*
D11*
X82750000Y-104550000D03*
D10*
X70450000Y-109150000D03*
D11*
X77550000Y-78750000D03*
X72350000Y-87750000D03*
D10*
X84650000Y-77150000D03*
D11*
X82750000Y-87750000D03*
D10*
X70450000Y-92350000D03*
D11*
X77550000Y-61950000D03*
X72350000Y-70950000D03*
D10*
X84650000Y-60350000D03*
D11*
X82750000Y-70950000D03*
D10*
X70450000Y-75550000D03*
D11*
X77550000Y-45150000D03*
X72350000Y-54150000D03*
D10*
X84650000Y-43550000D03*
D11*
X82750000Y-54150000D03*
D10*
X70450000Y-58750000D03*
M02*
