G04 #@! TF.GenerationSoftware,KiCad,Pcbnew,(6.0.7)*
G04 #@! TF.CreationDate,2022-10-27T11:43:32+02:00*
G04 #@! TF.ProjectId,hydCircCon,68796443-6972-4634-936f-6e2e6b696361,rev?*
G04 #@! TF.SameCoordinates,Original*
G04 #@! TF.FileFunction,Legend,Bot*
G04 #@! TF.FilePolarity,Positive*
%FSLAX46Y46*%
G04 Gerber Fmt 4.6, Leading zero omitted, Abs format (unit mm)*
G04 Created by KiCad (PCBNEW (6.0.7)) date 2022-10-27 11:43:32*
%MOMM*%
%LPD*%
G01*
G04 APERTURE LIST*
G04 Aperture macros list*
%AMRoundRect*
0 Rectangle with rounded corners*
0 $1 Rounding radius*
0 $2 $3 $4 $5 $6 $7 $8 $9 X,Y pos of 4 corners*
0 Add a 4 corners polygon primitive as box body*
4,1,4,$2,$3,$4,$5,$6,$7,$8,$9,$2,$3,0*
0 Add four circle primitives for the rounded corners*
1,1,$1+$1,$2,$3*
1,1,$1+$1,$4,$5*
1,1,$1+$1,$6,$7*
1,1,$1+$1,$8,$9*
0 Add four rect primitives between the rounded corners*
20,1,$1+$1,$2,$3,$4,$5,0*
20,1,$1+$1,$4,$5,$6,$7,0*
20,1,$1+$1,$6,$7,$8,$9,0*
20,1,$1+$1,$8,$9,$2,$3,0*%
G04 Aperture macros list end*
%ADD10C,0.150000*%
%ADD11C,0.120000*%
%ADD12RoundRect,0.300000X-0.620000X-0.845000X0.620000X-0.845000X0.620000X0.845000X-0.620000X0.845000X0*%
%ADD13O,1.840000X2.290000*%
%ADD14RoundRect,0.300000X-0.750000X0.600000X-0.750000X-0.600000X0.750000X-0.600000X0.750000X0.600000X0*%
%ADD15O,2.100000X1.800000*%
%ADD16RoundRect,0.300000X-0.600000X-0.725000X0.600000X-0.725000X0.600000X0.725000X-0.600000X0.725000X0*%
%ADD17O,1.800000X2.050000*%
%ADD18C,3.300000*%
%ADD19O,1.150000X2.000000*%
%ADD20RoundRect,0.050000X-0.800000X-0.800000X0.800000X-0.800000X0.800000X0.800000X-0.800000X0.800000X0*%
%ADD21C,1.700000*%
%ADD22RoundRect,0.050000X0.800000X-0.800000X0.800000X0.800000X-0.800000X0.800000X-0.800000X-0.800000X0*%
%ADD23RoundRect,0.300000X0.620000X0.845000X-0.620000X0.845000X-0.620000X-0.845000X0.620000X-0.845000X0*%
%ADD24RoundRect,0.050000X-0.850000X-0.850000X0.850000X-0.850000X0.850000X0.850000X-0.850000X0.850000X0*%
%ADD25O,1.800000X1.800000*%
%ADD26RoundRect,0.050000X0.850000X-0.850000X0.850000X0.850000X-0.850000X0.850000X-0.850000X-0.850000X0*%
%ADD27RoundRect,0.250000X-0.200000X-0.275000X0.200000X-0.275000X0.200000X0.275000X-0.200000X0.275000X0*%
%ADD28RoundRect,0.275000X-0.250000X0.225000X-0.250000X-0.225000X0.250000X-0.225000X0.250000X0.225000X0*%
%ADD29RoundRect,0.275000X0.250000X-0.225000X0.250000X0.225000X-0.250000X0.225000X-0.250000X-0.225000X0*%
%ADD30RoundRect,0.275000X-0.225000X-0.250000X0.225000X-0.250000X0.225000X0.250000X-0.225000X0.250000X0*%
%ADD31RoundRect,0.250000X-0.275000X0.200000X-0.275000X-0.200000X0.275000X-0.200000X0.275000X0.200000X0*%
%ADD32RoundRect,0.250000X0.275000X-0.200000X0.275000X0.200000X-0.275000X0.200000X-0.275000X-0.200000X0*%
%ADD33RoundRect,0.200000X0.150000X-0.512500X0.150000X0.512500X-0.150000X0.512500X-0.150000X-0.512500X0*%
%ADD34RoundRect,0.275000X0.225000X0.250000X-0.225000X0.250000X-0.225000X-0.250000X0.225000X-0.250000X0*%
%ADD35RoundRect,0.300000X-1.100000X0.325000X-1.100000X-0.325000X1.100000X-0.325000X1.100000X0.325000X0*%
%ADD36RoundRect,0.112500X0.337500X0.062500X-0.337500X0.062500X-0.337500X-0.062500X0.337500X-0.062500X0*%
%ADD37RoundRect,0.112500X0.287500X0.062500X-0.287500X0.062500X-0.287500X-0.062500X0.287500X-0.062500X0*%
%ADD38RoundRect,0.300000X0.650000X-0.325000X0.650000X0.325000X-0.650000X0.325000X-0.650000X-0.325000X0*%
%ADD39RoundRect,0.050000X-0.575000X-0.500000X0.575000X-0.500000X0.575000X0.500000X-0.575000X0.500000X0*%
%ADD40RoundRect,0.250000X0.200000X0.275000X-0.200000X0.275000X-0.200000X-0.275000X0.200000X-0.275000X0*%
%ADD41RoundRect,0.050000X-0.375000X-0.150000X0.375000X-0.150000X0.375000X0.150000X-0.375000X0.150000X0*%
%ADD42RoundRect,0.050000X-0.150000X-0.850000X0.150000X-0.850000X0.150000X0.850000X-0.150000X0.850000X0*%
%ADD43RoundRect,0.300000X1.100000X-0.325000X1.100000X0.325000X-1.100000X0.325000X-1.100000X-0.325000X0*%
%ADD44RoundRect,0.268750X0.218750X0.256250X-0.218750X0.256250X-0.218750X-0.256250X0.218750X-0.256250X0*%
%ADD45RoundRect,0.250000X0.525000X-0.200000X0.525000X0.200000X-0.525000X0.200000X-0.525000X-0.200000X0*%
%ADD46RoundRect,0.125000X0.075000X-0.225000X0.075000X0.225000X-0.075000X0.225000X-0.075000X-0.225000X0*%
%ADD47RoundRect,0.125000X0.787500X-0.075000X0.787500X0.075000X-0.787500X0.075000X-0.787500X-0.075000X0*%
%ADD48RoundRect,0.050000X-0.400000X-1.350000X0.400000X-1.350000X0.400000X1.350000X-0.400000X1.350000X0*%
%ADD49RoundRect,0.050000X0.125000X-0.250000X0.125000X0.250000X-0.125000X0.250000X-0.125000X-0.250000X0*%
%ADD50RoundRect,0.050000X0.800000X-0.450000X0.800000X0.450000X-0.800000X0.450000X-0.800000X-0.450000X0*%
%ADD51RoundRect,0.268750X-0.218750X-0.381250X0.218750X-0.381250X0.218750X0.381250X-0.218750X0.381250X0*%
%ADD52RoundRect,0.050000X-0.300000X-0.225000X0.300000X-0.225000X0.300000X0.225000X-0.300000X0.225000X0*%
%ADD53RoundRect,0.200000X0.512500X0.150000X-0.512500X0.150000X-0.512500X-0.150000X0.512500X-0.150000X0*%
G04 APERTURE END LIST*
D10*
X172202619Y-101300000D02*
X173202619Y-101300000D01*
X172726428Y-101300000D02*
X172726428Y-100728571D01*
X172202619Y-100728571D02*
X173202619Y-100728571D01*
X172869285Y-100347619D02*
X172202619Y-100109523D01*
X172869285Y-99871428D02*
X172202619Y-100109523D01*
X171964523Y-100204761D01*
X171916904Y-100252380D01*
X171869285Y-100347619D01*
X172202619Y-99061904D02*
X173202619Y-99061904D01*
X172250238Y-99061904D02*
X172202619Y-99157142D01*
X172202619Y-99347619D01*
X172250238Y-99442857D01*
X172297857Y-99490476D01*
X172393095Y-99538095D01*
X172678809Y-99538095D01*
X172774047Y-99490476D01*
X172821666Y-99442857D01*
X172869285Y-99347619D01*
X172869285Y-99157142D01*
X172821666Y-99061904D01*
X172297857Y-98014285D02*
X172250238Y-98061904D01*
X172202619Y-98204761D01*
X172202619Y-98300000D01*
X172250238Y-98442857D01*
X172345476Y-98538095D01*
X172440714Y-98585714D01*
X172631190Y-98633333D01*
X172774047Y-98633333D01*
X172964523Y-98585714D01*
X173059761Y-98538095D01*
X173155000Y-98442857D01*
X173202619Y-98300000D01*
X173202619Y-98204761D01*
X173155000Y-98061904D01*
X173107380Y-98014285D01*
X172202619Y-97585714D02*
X172869285Y-97585714D01*
X173202619Y-97585714D02*
X173155000Y-97633333D01*
X173107380Y-97585714D01*
X173155000Y-97538095D01*
X173202619Y-97585714D01*
X173107380Y-97585714D01*
X172202619Y-97109523D02*
X172869285Y-97109523D01*
X172678809Y-97109523D02*
X172774047Y-97061904D01*
X172821666Y-97014285D01*
X172869285Y-96919047D01*
X172869285Y-96823809D01*
X172250238Y-96061904D02*
X172202619Y-96157142D01*
X172202619Y-96347619D01*
X172250238Y-96442857D01*
X172297857Y-96490476D01*
X172393095Y-96538095D01*
X172678809Y-96538095D01*
X172774047Y-96490476D01*
X172821666Y-96442857D01*
X172869285Y-96347619D01*
X172869285Y-96157142D01*
X172821666Y-96061904D01*
X172297857Y-95061904D02*
X172250238Y-95109523D01*
X172202619Y-95252380D01*
X172202619Y-95347619D01*
X172250238Y-95490476D01*
X172345476Y-95585714D01*
X172440714Y-95633333D01*
X172631190Y-95680952D01*
X172774047Y-95680952D01*
X172964523Y-95633333D01*
X173059761Y-95585714D01*
X173155000Y-95490476D01*
X173202619Y-95347619D01*
X173202619Y-95252380D01*
X173155000Y-95109523D01*
X173107380Y-95061904D01*
X172202619Y-94490476D02*
X172250238Y-94585714D01*
X172297857Y-94633333D01*
X172393095Y-94680952D01*
X172678809Y-94680952D01*
X172774047Y-94633333D01*
X172821666Y-94585714D01*
X172869285Y-94490476D01*
X172869285Y-94347619D01*
X172821666Y-94252380D01*
X172774047Y-94204761D01*
X172678809Y-94157142D01*
X172393095Y-94157142D01*
X172297857Y-94204761D01*
X172250238Y-94252380D01*
X172202619Y-94347619D01*
X172202619Y-94490476D01*
X172869285Y-93728571D02*
X172202619Y-93728571D01*
X172774047Y-93728571D02*
X172821666Y-93680952D01*
X172869285Y-93585714D01*
X172869285Y-93442857D01*
X172821666Y-93347619D01*
X172726428Y-93300000D01*
X172202619Y-93300000D01*
X171592619Y-98823809D02*
X170592619Y-98490476D01*
X171592619Y-98157142D01*
X170592619Y-97300000D02*
X170592619Y-97871428D01*
X170592619Y-97585714D02*
X171592619Y-97585714D01*
X171449761Y-97680952D01*
X171354523Y-97776190D01*
X171306904Y-97871428D01*
X170687857Y-96871428D02*
X170640238Y-96823809D01*
X170592619Y-96871428D01*
X170640238Y-96919047D01*
X170687857Y-96871428D01*
X170592619Y-96871428D01*
X171592619Y-96204761D02*
X171592619Y-96109523D01*
X171545000Y-96014285D01*
X171497380Y-95966666D01*
X171402142Y-95919047D01*
X171211666Y-95871428D01*
X170973571Y-95871428D01*
X170783095Y-95919047D01*
X170687857Y-95966666D01*
X170640238Y-96014285D01*
X170592619Y-96109523D01*
X170592619Y-96204761D01*
X170640238Y-96300000D01*
X170687857Y-96347619D01*
X170783095Y-96395238D01*
X170973571Y-96442857D01*
X171211666Y-96442857D01*
X171402142Y-96395238D01*
X171497380Y-96347619D01*
X171545000Y-96300000D01*
X171592619Y-96204761D01*
D11*
X195712742Y-107722500D02*
X196187258Y-107722500D01*
X195712742Y-106677500D02*
X196187258Y-106677500D01*
X168210000Y-93984420D02*
X168210000Y-94265580D01*
X167190000Y-93984420D02*
X167190000Y-94265580D01*
X182710000Y-122015580D02*
X182710000Y-121734420D01*
X181690000Y-122015580D02*
X181690000Y-121734420D01*
X167484420Y-100765000D02*
X167765580Y-100765000D01*
X167484420Y-101785000D02*
X167765580Y-101785000D01*
X156627500Y-96062742D02*
X156627500Y-96537258D01*
X157672500Y-96062742D02*
X157672500Y-96537258D01*
X160140000Y-103309420D02*
X160140000Y-103590580D01*
X161160000Y-103309420D02*
X161160000Y-103590580D01*
X182927500Y-122087258D02*
X182927500Y-121612742D01*
X183972500Y-122087258D02*
X183972500Y-121612742D01*
X176227500Y-93762742D02*
X176227500Y-94237258D01*
X177272500Y-93762742D02*
X177272500Y-94237258D01*
X160172500Y-91387258D02*
X160172500Y-90912742D01*
X159127500Y-91387258D02*
X159127500Y-90912742D01*
X166812742Y-99652500D02*
X167287258Y-99652500D01*
X166812742Y-100697500D02*
X167287258Y-100697500D01*
X159910000Y-104500000D02*
X159910000Y-106300000D01*
X156790000Y-104500000D02*
X156790000Y-105300000D01*
X159910000Y-104500000D02*
X159910000Y-103700000D01*
X156790000Y-104500000D02*
X156790000Y-103700000D01*
X189828080Y-93810000D02*
X189546920Y-93810000D01*
X189828080Y-92790000D02*
X189546920Y-92790000D01*
X163872500Y-89837258D02*
X163872500Y-89362742D01*
X162827500Y-89837258D02*
X162827500Y-89362742D01*
X179140580Y-124190000D02*
X178859420Y-124190000D01*
X179140580Y-125210000D02*
X178859420Y-125210000D01*
X166990000Y-112338748D02*
X166990000Y-113761252D01*
X169710000Y-112338748D02*
X169710000Y-113761252D01*
X179022500Y-108337258D02*
X179022500Y-107862742D01*
X177977500Y-108337258D02*
X177977500Y-107862742D01*
X175775000Y-95650000D02*
X173775000Y-95650000D01*
X175775000Y-97650000D02*
X173775000Y-97650000D01*
X163690580Y-95710000D02*
X163409420Y-95710000D01*
X163690580Y-94690000D02*
X163409420Y-94690000D01*
X158190000Y-111290580D02*
X158190000Y-111009420D01*
X159210000Y-111290580D02*
X159210000Y-111009420D01*
X160840000Y-114059420D02*
X160840000Y-114340580D01*
X161860000Y-114059420D02*
X161860000Y-114340580D01*
X164440580Y-100635000D02*
X164159420Y-100635000D01*
X164440580Y-99615000D02*
X164159420Y-99615000D01*
X166090000Y-109361252D02*
X166090000Y-107938748D01*
X167910000Y-109361252D02*
X167910000Y-107938748D01*
X159309420Y-112590000D02*
X159590580Y-112590000D01*
X159309420Y-113610000D02*
X159590580Y-113610000D01*
X160790000Y-95784420D02*
X160790000Y-96065580D01*
X161810000Y-95784420D02*
X161810000Y-96065580D01*
X174915580Y-95410000D02*
X174634420Y-95410000D01*
X174915580Y-94390000D02*
X174634420Y-94390000D01*
X163925000Y-98850000D02*
X163925000Y-96050000D01*
X163925000Y-96050000D02*
X167225000Y-96050000D01*
X159637258Y-114772500D02*
X159162742Y-114772500D01*
X159637258Y-113727500D02*
X159162742Y-113727500D01*
X156927500Y-90962742D02*
X156927500Y-91437258D01*
X157972500Y-90962742D02*
X157972500Y-91437258D01*
X176727500Y-110562742D02*
X176727500Y-111037258D01*
X177772500Y-110562742D02*
X177772500Y-111037258D01*
X195712742Y-100227500D02*
X196187258Y-100227500D01*
X195712742Y-101272500D02*
X196187258Y-101272500D01*
X159090000Y-108309420D02*
X159090000Y-108590580D01*
X160110000Y-108309420D02*
X160110000Y-108590580D01*
D10*
X162850000Y-94200000D02*
X164350000Y-94200000D01*
X161350000Y-91950000D02*
X164350000Y-91950000D01*
D11*
X156672500Y-104937258D02*
X156672500Y-104462742D01*
X155627500Y-104937258D02*
X155627500Y-104462742D01*
X179260000Y-122661252D02*
X179260000Y-121238748D01*
X176540000Y-122661252D02*
X176540000Y-121238748D01*
X187160000Y-91762742D02*
X187160000Y-92237258D01*
X186115000Y-91762742D02*
X186115000Y-92237258D01*
X185015000Y-91762742D02*
X185015000Y-92237258D01*
X186060000Y-91762742D02*
X186060000Y-92237258D01*
X169360000Y-93984420D02*
X169360000Y-94265580D01*
X168340000Y-93984420D02*
X168340000Y-94265580D01*
X172390580Y-92410000D02*
X172109420Y-92410000D01*
X172390580Y-91390000D02*
X172109420Y-91390000D01*
X162660000Y-98834420D02*
X162660000Y-99115580D01*
X161640000Y-98834420D02*
X161640000Y-99115580D01*
X179312742Y-99877500D02*
X179787258Y-99877500D01*
X179312742Y-100922500D02*
X179787258Y-100922500D01*
X169662779Y-92385000D02*
X169337221Y-92385000D01*
X169662779Y-91365000D02*
X169337221Y-91365000D01*
X155777500Y-91437258D02*
X155777500Y-90962742D01*
X156822500Y-91437258D02*
X156822500Y-90962742D01*
X163662500Y-109925000D02*
X163662500Y-110625000D01*
X163662500Y-111925000D02*
X163662500Y-111225000D01*
X160662500Y-111925000D02*
X160662500Y-109925000D01*
X163962500Y-111925000D02*
G75*
G03*
X163962500Y-111925000I-50000J0D01*
G01*
X175360000Y-108511252D02*
X175360000Y-107088748D01*
X172640000Y-108511252D02*
X172640000Y-107088748D01*
X160625000Y-109400000D02*
X163625000Y-109400000D01*
X160625000Y-106200000D02*
X163625000Y-106200000D01*
X181620000Y-122750000D02*
X181620000Y-120750000D01*
X179380000Y-120750000D02*
X179380000Y-121750000D01*
X192210000Y-92337258D02*
X192210000Y-91862742D01*
X191165000Y-92337258D02*
X191165000Y-91862742D01*
X168310000Y-97540580D02*
X168310000Y-97259420D01*
X167290000Y-97540580D02*
X167290000Y-97259420D01*
X165910000Y-93984420D02*
X165910000Y-94265580D01*
X164890000Y-93984420D02*
X164890000Y-94265580D01*
X163860000Y-97309420D02*
X163860000Y-97590580D01*
X162840000Y-97309420D02*
X162840000Y-97590580D01*
X176227500Y-99437258D02*
X176227500Y-98962742D01*
X177272500Y-99437258D02*
X177272500Y-98962742D01*
X161927500Y-114437258D02*
X161927500Y-113962742D01*
X162972500Y-114437258D02*
X162972500Y-113962742D01*
X166500378Y-115390000D02*
X167299622Y-115390000D01*
X166500378Y-116510000D02*
X167299622Y-116510000D01*
X158740580Y-101360000D02*
X158459420Y-101360000D01*
X158740580Y-100340000D02*
X158459420Y-100340000D01*
X184862742Y-100972500D02*
X185337258Y-100972500D01*
X184862742Y-99927500D02*
X185337258Y-99927500D01*
X158362742Y-101447500D02*
X158837258Y-101447500D01*
X158362742Y-102492500D02*
X158837258Y-102492500D01*
X175237258Y-91427500D02*
X174762742Y-91427500D01*
X175237258Y-92472500D02*
X174762742Y-92472500D01*
X164090000Y-109361252D02*
X164090000Y-107938748D01*
X165910000Y-109361252D02*
X165910000Y-107938748D01*
X181412742Y-125222500D02*
X181887258Y-125222500D01*
X181412742Y-124177500D02*
X181887258Y-124177500D01*
X177260000Y-96459420D02*
X177260000Y-96740580D01*
X176240000Y-96459420D02*
X176240000Y-96740580D01*
X156450000Y-94610000D02*
X159000000Y-94610000D01*
X156450000Y-92910000D02*
X159000000Y-92910000D01*
X156450000Y-94610000D02*
X156450000Y-92910000D01*
X159072500Y-91387258D02*
X159072500Y-90912742D01*
X158027500Y-91387258D02*
X158027500Y-90912742D01*
X174762742Y-90327500D02*
X175237258Y-90327500D01*
X174762742Y-91372500D02*
X175237258Y-91372500D01*
X180260000Y-108240580D02*
X180260000Y-107959420D01*
X179240000Y-108240580D02*
X179240000Y-107959420D01*
X170460000Y-93984420D02*
X170460000Y-94265580D01*
X169440000Y-93984420D02*
X169440000Y-94265580D01*
X175590000Y-110659420D02*
X175590000Y-110940580D01*
X176610000Y-110659420D02*
X176610000Y-110940580D01*
X167060000Y-93984420D02*
X167060000Y-94265580D01*
X166040000Y-93984420D02*
X166040000Y-94265580D01*
X172437258Y-90227500D02*
X171962742Y-90227500D01*
X172437258Y-91272500D02*
X171962742Y-91272500D01*
X169460000Y-97765580D02*
X169460000Y-97484420D01*
X168440000Y-97765580D02*
X168440000Y-97484420D01*
X159327500Y-111387258D02*
X159327500Y-110912742D01*
X160372500Y-111387258D02*
X160372500Y-110912742D01*
X157612742Y-98477500D02*
X158087258Y-98477500D01*
X157612742Y-99522500D02*
X158087258Y-99522500D01*
X177870000Y-108770000D02*
X177870000Y-106770000D01*
X175630000Y-106770000D02*
X175630000Y-107770000D01*
X189200000Y-89640000D02*
X191000000Y-89640000D01*
X189200000Y-89640000D02*
X188400000Y-89640000D01*
X189200000Y-92760000D02*
X188400000Y-92760000D01*
X189200000Y-92760000D02*
X190000000Y-92760000D01*
X166760000Y-112338748D02*
X166760000Y-113761252D01*
X164040000Y-112338748D02*
X164040000Y-113761252D01*
X188862742Y-99927500D02*
X189337258Y-99927500D01*
X188862742Y-100972500D02*
X189337258Y-100972500D01*
%LPC*%
D12*
X149610000Y-95520000D03*
D13*
X152150000Y-95520000D03*
X154690000Y-95520000D03*
D14*
X196400000Y-95300000D03*
D15*
X196400000Y-97800000D03*
D16*
X181950000Y-88150000D03*
D17*
X184450000Y-88150000D03*
X186950000Y-88150000D03*
X189450000Y-88150000D03*
D14*
X187700000Y-95300000D03*
D15*
X187700000Y-97800000D03*
D16*
X171550000Y-88150000D03*
D17*
X174050000Y-88150000D03*
X176550000Y-88150000D03*
D18*
X195250000Y-89500000D03*
D14*
X179000000Y-95300000D03*
D15*
X179000000Y-97800000D03*
D19*
X162200000Y-87950000D03*
X155050000Y-87950000D03*
D12*
X149660000Y-117470000D03*
D13*
X152200000Y-117470000D03*
X154740000Y-117470000D03*
D20*
X185567621Y-104500000D03*
D21*
X188067621Y-104500000D03*
D22*
X163000000Y-124267621D03*
D21*
X163000000Y-121767621D03*
D18*
X151250000Y-123500000D03*
D23*
X190770000Y-123480000D03*
D13*
X188230000Y-123480000D03*
D18*
X151250000Y-89500000D03*
D24*
X167425000Y-87750000D03*
D25*
X167425000Y-90290000D03*
D18*
X195250000Y-123500000D03*
D12*
X149660000Y-111270000D03*
D13*
X152200000Y-111270000D03*
X154740000Y-111270000D03*
D14*
X192050000Y-95300000D03*
D15*
X192050000Y-97800000D03*
D12*
X191710000Y-104000000D03*
D13*
X194250000Y-104000000D03*
X196790000Y-104000000D03*
D26*
X163525000Y-103250000D03*
D25*
X166065000Y-103250000D03*
X168605000Y-103250000D03*
D22*
X169750000Y-124250000D03*
D21*
X169750000Y-121750000D03*
D12*
X149610000Y-101700000D03*
D13*
X152150000Y-101700000D03*
X154690000Y-101700000D03*
D14*
X183350000Y-95300000D03*
D15*
X183350000Y-97800000D03*
D12*
X191710000Y-110400000D03*
D13*
X194250000Y-110400000D03*
X196790000Y-110400000D03*
D22*
X194750000Y-118432380D03*
D21*
X194750000Y-115932380D03*
D27*
X195125000Y-107200000D03*
X196775000Y-107200000D03*
D28*
X167700000Y-93350000D03*
X167700000Y-94900000D03*
D29*
X182200000Y-122650000D03*
X182200000Y-121100000D03*
D30*
X166850000Y-101275000D03*
X168400000Y-101275000D03*
D31*
X157150000Y-95475000D03*
X157150000Y-97125000D03*
D28*
X160650000Y-102675000D03*
X160650000Y-104225000D03*
D32*
X183450000Y-122675000D03*
X183450000Y-121025000D03*
D31*
X176750000Y-93175000D03*
X176750000Y-94825000D03*
D32*
X159650000Y-91975000D03*
X159650000Y-90325000D03*
D27*
X166225000Y-100175000D03*
X167875000Y-100175000D03*
D33*
X159300000Y-105637500D03*
X158350000Y-105637500D03*
X157400000Y-105637500D03*
X157400000Y-103362500D03*
X159300000Y-103362500D03*
D34*
X190462500Y-93300000D03*
X188912500Y-93300000D03*
D32*
X163350000Y-90425000D03*
X163350000Y-88775000D03*
D34*
X179775000Y-124700000D03*
X178225000Y-124700000D03*
D35*
X168350000Y-111575000D03*
X168350000Y-114525000D03*
D32*
X178500000Y-108925000D03*
X178500000Y-107275000D03*
D36*
X175575000Y-95900000D03*
D37*
X175625000Y-96400000D03*
X175625000Y-96900000D03*
X175625000Y-97400000D03*
X173925000Y-97400000D03*
X173925000Y-96900000D03*
X173925000Y-96400000D03*
X173925000Y-95900000D03*
D34*
X164325000Y-95200000D03*
X162775000Y-95200000D03*
D29*
X158700000Y-111925000D03*
X158700000Y-110375000D03*
D28*
X161350000Y-113425000D03*
X161350000Y-114975000D03*
D34*
X165075000Y-100125000D03*
X163525000Y-100125000D03*
D38*
X167000000Y-110125000D03*
X167000000Y-107175000D03*
D30*
X158675000Y-113100000D03*
X160225000Y-113100000D03*
D28*
X161300000Y-95150000D03*
X161300000Y-96700000D03*
D34*
X175550000Y-94900000D03*
X174000000Y-94900000D03*
D39*
X164700000Y-96750000D03*
X166450000Y-96750000D03*
X166450000Y-98150000D03*
X164700000Y-98150000D03*
D40*
X160225000Y-114250000D03*
X158575000Y-114250000D03*
D31*
X157450000Y-90375000D03*
X157450000Y-92025000D03*
X177250000Y-109975000D03*
X177250000Y-111625000D03*
D27*
X195125000Y-100750000D03*
X196775000Y-100750000D03*
D28*
X159600000Y-107675000D03*
X159600000Y-109225000D03*
D41*
X161400000Y-93825000D03*
X161400000Y-93325000D03*
X161400000Y-92825000D03*
X161400000Y-92325000D03*
X164300000Y-92325000D03*
X164300000Y-92825000D03*
X164300000Y-93325000D03*
X164300000Y-93825000D03*
D42*
X162850000Y-93075000D03*
D32*
X156150000Y-105525000D03*
X156150000Y-103875000D03*
D43*
X177900000Y-123425000D03*
X177900000Y-120475000D03*
D31*
X186637500Y-91175000D03*
X186637500Y-92825000D03*
X185537500Y-91175000D03*
X185537500Y-92825000D03*
D28*
X168850000Y-93350000D03*
X168850000Y-94900000D03*
D34*
X173025000Y-91900000D03*
X171475000Y-91900000D03*
D28*
X162150000Y-98200000D03*
X162150000Y-99750000D03*
D27*
X178725000Y-100400000D03*
X180375000Y-100400000D03*
D44*
X170287500Y-91875000D03*
X168712500Y-91875000D03*
D32*
X156300000Y-92025000D03*
X156300000Y-90375000D03*
D45*
X162850000Y-111675000D03*
D46*
X161800000Y-111775000D03*
X161350000Y-111775000D03*
X160900000Y-111775000D03*
X160900000Y-110075000D03*
X161350000Y-110075000D03*
X161800000Y-110075000D03*
D45*
X162850000Y-110175000D03*
D47*
X162987500Y-110925000D03*
D43*
X174000000Y-109275000D03*
X174000000Y-106325000D03*
D48*
X161025000Y-107800000D03*
X163225000Y-107800000D03*
D49*
X181250000Y-122200000D03*
X180750000Y-122200000D03*
X180250000Y-122200000D03*
X179750000Y-122200000D03*
X179750000Y-120300000D03*
X180250000Y-120300000D03*
X180750000Y-120300000D03*
X181250000Y-120300000D03*
D50*
X180500000Y-121250000D03*
D32*
X191687500Y-92925000D03*
X191687500Y-91275000D03*
D29*
X167800000Y-98175000D03*
X167800000Y-96625000D03*
D28*
X165400000Y-93350000D03*
X165400000Y-94900000D03*
X163350000Y-96675000D03*
X163350000Y-98225000D03*
D32*
X176750000Y-100025000D03*
X176750000Y-98375000D03*
X162450000Y-115025000D03*
X162450000Y-113375000D03*
D51*
X165837500Y-115950000D03*
X167962500Y-115950000D03*
D34*
X159375000Y-100850000D03*
X157825000Y-100850000D03*
D27*
X184275000Y-100450000D03*
X185925000Y-100450000D03*
X157775000Y-101970000D03*
X159425000Y-101970000D03*
D40*
X175825000Y-91950000D03*
X174175000Y-91950000D03*
D38*
X165000000Y-110125000D03*
X165000000Y-107175000D03*
D27*
X180825000Y-124700000D03*
X182475000Y-124700000D03*
D28*
X176750000Y-95825000D03*
X176750000Y-97375000D03*
D52*
X156900000Y-93760000D03*
X159000000Y-93760000D03*
D32*
X158550000Y-91975000D03*
X158550000Y-90325000D03*
D27*
X174175000Y-90850000D03*
X175825000Y-90850000D03*
D29*
X179750000Y-108875000D03*
X179750000Y-107325000D03*
D28*
X169950000Y-93350000D03*
X169950000Y-94900000D03*
X176100000Y-110025000D03*
X176100000Y-111575000D03*
X166550000Y-93350000D03*
X166550000Y-94900000D03*
D40*
X173025000Y-90750000D03*
X171375000Y-90750000D03*
D29*
X168950000Y-98400000D03*
X168950000Y-96850000D03*
D32*
X159850000Y-111975000D03*
X159850000Y-110325000D03*
D27*
X157025000Y-99000000D03*
X158675000Y-99000000D03*
D49*
X177500000Y-108220000D03*
X177000000Y-108220000D03*
X176500000Y-108220000D03*
X176000000Y-108220000D03*
X176000000Y-106320000D03*
X176500000Y-106320000D03*
X177000000Y-106320000D03*
X177500000Y-106320000D03*
D50*
X176750000Y-107270000D03*
D53*
X190337500Y-90250000D03*
X190337500Y-91200000D03*
X190337500Y-92150000D03*
X188062500Y-92150000D03*
X188062500Y-90250000D03*
D35*
X165400000Y-111575000D03*
X165400000Y-114525000D03*
D27*
X188275000Y-100450000D03*
X189925000Y-100450000D03*
M02*
