G04 #@! TF.GenerationSoftware,KiCad,Pcbnew,(6.0.7)*
G04 #@! TF.CreationDate,2022-10-27T11:43:32+02:00*
G04 #@! TF.ProjectId,hydCircCon,68796443-6972-4634-936f-6e2e6b696361,rev?*
G04 #@! TF.SameCoordinates,Original*
G04 #@! TF.FileFunction,Paste,Top*
G04 #@! TF.FilePolarity,Positive*
%FSLAX46Y46*%
G04 Gerber Fmt 4.6, Leading zero omitted, Abs format (unit mm)*
G04 Created by KiCad (PCBNEW (6.0.7)) date 2022-10-27 11:43:32*
%MOMM*%
%LPD*%
G01*
G04 APERTURE LIST*
G04 Aperture macros list*
%AMRoundRect*
0 Rectangle with rounded corners*
0 $1 Rounding radius*
0 $2 $3 $4 $5 $6 $7 $8 $9 X,Y pos of 4 corners*
0 Add a 4 corners polygon primitive as box body*
4,1,4,$2,$3,$4,$5,$6,$7,$8,$9,$2,$3,0*
0 Add four circle primitives for the rounded corners*
1,1,$1+$1,$2,$3*
1,1,$1+$1,$4,$5*
1,1,$1+$1,$6,$7*
1,1,$1+$1,$8,$9*
0 Add four rect primitives between the rounded corners*
20,1,$1+$1,$2,$3,$4,$5,0*
20,1,$1+$1,$4,$5,$6,$7,0*
20,1,$1+$1,$6,$7,$8,$9,0*
20,1,$1+$1,$8,$9,$2,$3,0*%
G04 Aperture macros list end*
%ADD10R,2.900000X5.400000*%
%ADD11RoundRect,0.250000X1.100000X-0.325000X1.100000X0.325000X-1.100000X0.325000X-1.100000X-0.325000X0*%
%ADD12RoundRect,0.200000X-0.200000X-0.275000X0.200000X-0.275000X0.200000X0.275000X-0.200000X0.275000X0*%
%ADD13RoundRect,0.200000X0.200000X0.275000X-0.200000X0.275000X-0.200000X-0.275000X0.200000X-0.275000X0*%
%ADD14R,5.400000X2.900000*%
%ADD15RoundRect,0.200000X0.275000X-0.200000X0.275000X0.200000X-0.275000X0.200000X-0.275000X-0.200000X0*%
%ADD16R,0.400000X1.400000*%
%ADD17R,1.150000X1.450000*%
%ADD18R,1.750000X1.900000*%
%ADD19RoundRect,0.225000X0.250000X-0.225000X0.250000X0.225000X-0.250000X0.225000X-0.250000X-0.225000X0*%
%ADD20RoundRect,0.218750X-0.218750X-0.256250X0.218750X-0.256250X0.218750X0.256250X-0.218750X0.256250X0*%
%ADD21RoundRect,0.250000X-1.100000X0.325000X-1.100000X-0.325000X1.100000X-0.325000X1.100000X0.325000X0*%
%ADD22RoundRect,0.249999X-0.395001X-0.395001X0.395001X-0.395001X0.395001X0.395001X-0.395001X0.395001X0*%
%ADD23RoundRect,0.050000X-0.387500X-0.050000X0.387500X-0.050000X0.387500X0.050000X-0.387500X0.050000X0*%
%ADD24RoundRect,0.050000X-0.050000X-0.387500X0.050000X-0.387500X0.050000X0.387500X-0.050000X0.387500X0*%
G04 APERTURE END LIST*
D10*
X175150000Y-120250000D03*
X185050000Y-120250000D03*
D11*
X185400000Y-112125000D03*
X185400000Y-109175000D03*
D12*
X163375000Y-90350000D03*
X165025000Y-90350000D03*
D13*
X175650000Y-95500000D03*
X174000000Y-95500000D03*
D12*
X163525000Y-88600000D03*
X165175000Y-88600000D03*
D14*
X163800000Y-117000000D03*
X163800000Y-107100000D03*
D15*
X156750000Y-111275000D03*
X156750000Y-109625000D03*
D16*
X159925000Y-90600000D03*
X159275000Y-90600000D03*
X158625000Y-90600000D03*
X157975000Y-90600000D03*
X157325000Y-90600000D03*
D17*
X156305000Y-90180000D03*
D18*
X157500000Y-87950000D03*
D17*
X160945000Y-90180000D03*
D18*
X159750000Y-87950000D03*
D10*
X171800000Y-107250000D03*
X181700000Y-107250000D03*
D19*
X170400000Y-93275000D03*
X170400000Y-91725000D03*
D20*
X163612500Y-87500000D03*
X165187500Y-87500000D03*
D15*
X156800000Y-116475000D03*
X156800000Y-114825000D03*
D21*
X189300000Y-115225000D03*
X189300000Y-118175000D03*
D12*
X163400000Y-91450000D03*
X165050000Y-91450000D03*
D22*
X164850000Y-97475000D03*
X166450000Y-95875000D03*
X166450000Y-97475000D03*
X164850000Y-95875000D03*
D23*
X162212500Y-94075000D03*
X162212500Y-94475000D03*
X162212500Y-94875000D03*
X162212500Y-95275000D03*
X162212500Y-95675000D03*
X162212500Y-96075000D03*
X162212500Y-96475000D03*
X162212500Y-96875000D03*
X162212500Y-97275000D03*
X162212500Y-97675000D03*
X162212500Y-98075000D03*
X162212500Y-98475000D03*
X162212500Y-98875000D03*
X162212500Y-99275000D03*
D24*
X163050000Y-100112500D03*
X163450000Y-100112500D03*
X163850000Y-100112500D03*
X164250000Y-100112500D03*
X164650000Y-100112500D03*
X165050000Y-100112500D03*
X165450000Y-100112500D03*
X165850000Y-100112500D03*
X166250000Y-100112500D03*
X166650000Y-100112500D03*
X167050000Y-100112500D03*
X167450000Y-100112500D03*
X167850000Y-100112500D03*
X168250000Y-100112500D03*
D23*
X169087500Y-99275000D03*
X169087500Y-98875000D03*
X169087500Y-98475000D03*
X169087500Y-98075000D03*
X169087500Y-97675000D03*
X169087500Y-97275000D03*
X169087500Y-96875000D03*
X169087500Y-96475000D03*
X169087500Y-96075000D03*
X169087500Y-95675000D03*
X169087500Y-95275000D03*
X169087500Y-94875000D03*
X169087500Y-94475000D03*
X169087500Y-94075000D03*
D24*
X168250000Y-93237500D03*
X167850000Y-93237500D03*
X167450000Y-93237500D03*
X167050000Y-93237500D03*
X166650000Y-93237500D03*
X166250000Y-93237500D03*
X165850000Y-93237500D03*
X165450000Y-93237500D03*
X165050000Y-93237500D03*
X164650000Y-93237500D03*
X164250000Y-93237500D03*
X163850000Y-93237500D03*
X163450000Y-93237500D03*
X163050000Y-93237500D03*
D13*
X175650000Y-96800000D03*
X174000000Y-96800000D03*
M02*
