G04 #@! TF.GenerationSoftware,KiCad,Pcbnew,(6.0.7)*
G04 #@! TF.CreationDate,2022-10-27T11:47:29+02:00*
G04 #@! TF.ProjectId,Treiber,54726569-6265-4722-9e6b-696361645f70,rev?*
G04 #@! TF.SameCoordinates,Original*
G04 #@! TF.FileFunction,Legend,Top*
G04 #@! TF.FilePolarity,Positive*
%FSLAX46Y46*%
G04 Gerber Fmt 4.6, Leading zero omitted, Abs format (unit mm)*
G04 Created by KiCad (PCBNEW (6.0.7)) date 2022-10-27 11:47:29*
%MOMM*%
%LPD*%
G01*
G04 APERTURE LIST*
G04 Aperture macros list*
%AMRoundRect*
0 Rectangle with rounded corners*
0 $1 Rounding radius*
0 $2 $3 $4 $5 $6 $7 $8 $9 X,Y pos of 4 corners*
0 Add a 4 corners polygon primitive as box body*
4,1,4,$2,$3,$4,$5,$6,$7,$8,$9,$2,$3,0*
0 Add four circle primitives for the rounded corners*
1,1,$1+$1,$2,$3*
1,1,$1+$1,$4,$5*
1,1,$1+$1,$6,$7*
1,1,$1+$1,$8,$9*
0 Add four rect primitives between the rounded corners*
20,1,$1+$1,$2,$3,$4,$5,0*
20,1,$1+$1,$4,$5,$6,$7,0*
20,1,$1+$1,$6,$7,$8,$9,0*
20,1,$1+$1,$8,$9,$2,$3,0*%
%AMFreePoly0*
4,1,32,0.469135,0.146194,0.504490,0.131549,0.531549,0.104490,0.546194,0.069135,0.550000,0.050000,0.550000,-0.050000,0.546194,-0.069135,0.531549,-0.104490,0.504490,-0.131549,0.469135,-0.146194,0.450000,-0.150000,-0.250000,-0.150000,-0.250000,-0.250000,-0.253806,-0.269135,-0.268451,-0.304490,-0.295510,-0.331549,-0.330865,-0.346194,-0.350000,-0.350000,-0.450000,-0.350000,-0.469135,-0.346194,
-0.504490,-0.331549,-0.531549,-0.304490,-0.546194,-0.269135,-0.550000,-0.250000,-0.550000,0.050000,-0.546194,0.069135,-0.531549,0.104490,-0.504490,0.131549,-0.469135,0.146194,-0.450000,0.150000,0.450000,0.150000,0.469135,0.146194,0.469135,0.146194,$1*%
G04 Aperture macros list end*
%ADD10C,0.150000*%
%ADD11C,0.300000*%
%ADD12C,0.120000*%
%ADD13RoundRect,0.050000X-1.100000X-1.100000X1.100000X-1.100000X1.100000X1.100000X-1.100000X1.100000X0*%
%ADD14RoundRect,0.050000X-0.625000X-1.100000X0.625000X-1.100000X0.625000X1.100000X-0.625000X1.100000X0*%
%ADD15C,3.300000*%
%ADD16RoundRect,0.050000X2.000000X-0.750000X2.000000X0.750000X-2.000000X0.750000X-2.000000X-0.750000X0*%
%ADD17RoundRect,0.050000X-0.225000X0.300000X-0.225000X-0.300000X0.225000X-0.300000X0.225000X0.300000X0*%
%ADD18RoundRect,0.275000X-0.250000X0.225000X-0.250000X-0.225000X0.250000X-0.225000X0.250000X0.225000X0*%
%ADD19RoundRect,0.300000X-0.750000X-0.250000X0.750000X-0.250000X0.750000X0.250000X-0.750000X0.250000X0*%
%ADD20RoundRect,0.100000X-0.300000X-0.050000X0.300000X-0.050000X0.300000X0.050000X-0.300000X0.050000X0*%
%ADD21RoundRect,0.100000X-0.250000X-0.050000X0.250000X-0.050000X0.250000X0.050000X-0.250000X0.050000X0*%
%ADD22FreePoly0,0.000000*%
%ADD23RoundRect,0.250000X0.275000X-0.200000X0.275000X0.200000X-0.275000X0.200000X-0.275000X-0.200000X0*%
%ADD24C,4.400000*%
%ADD25RoundRect,0.250000X-0.275000X0.200000X-0.275000X-0.200000X0.275000X-0.200000X0.275000X0.200000X0*%
%ADD26RoundRect,0.300000X1.100000X-0.325000X1.100000X0.325000X-1.100000X0.325000X-1.100000X-0.325000X0*%
%ADD27RoundRect,0.300000X-1.100000X0.325000X-1.100000X-0.325000X1.100000X-0.325000X1.100000X0.325000X0*%
%ADD28RoundRect,0.275000X0.225000X0.250000X-0.225000X0.250000X-0.225000X-0.250000X0.225000X-0.250000X0*%
G04 APERTURE END LIST*
D10*
X258809523Y-109147380D02*
X258333333Y-109147380D01*
X258333333Y-108147380D01*
X259142857Y-108623571D02*
X259476190Y-108623571D01*
X259619047Y-109147380D02*
X259142857Y-109147380D01*
X259142857Y-108147380D01*
X259619047Y-108147380D01*
X260047619Y-109147380D02*
X260047619Y-108147380D01*
X260285714Y-108147380D01*
X260428571Y-108195000D01*
X260523809Y-108290238D01*
X260571428Y-108385476D01*
X260619047Y-108575952D01*
X260619047Y-108718809D01*
X260571428Y-108909285D01*
X260523809Y-109004523D01*
X260428571Y-109099761D01*
X260285714Y-109147380D01*
X260047619Y-109147380D01*
X260809523Y-109242619D02*
X261571428Y-109242619D01*
X261809523Y-109147380D02*
X261809523Y-108147380D01*
X262047619Y-108147380D01*
X262190476Y-108195000D01*
X262285714Y-108290238D01*
X262333333Y-108385476D01*
X262380952Y-108575952D01*
X262380952Y-108718809D01*
X262333333Y-108909285D01*
X262285714Y-109004523D01*
X262190476Y-109099761D01*
X262047619Y-109147380D01*
X261809523Y-109147380D01*
X262809523Y-109147380D02*
X262809523Y-108480714D01*
X262809523Y-108671190D02*
X262857142Y-108575952D01*
X262904761Y-108528333D01*
X263000000Y-108480714D01*
X263095238Y-108480714D01*
X263428571Y-109147380D02*
X263428571Y-108480714D01*
X263428571Y-108147380D02*
X263380952Y-108195000D01*
X263428571Y-108242619D01*
X263476190Y-108195000D01*
X263428571Y-108147380D01*
X263428571Y-108242619D01*
X263809523Y-108480714D02*
X264047619Y-109147380D01*
X264285714Y-108480714D01*
X265047619Y-109099761D02*
X264952380Y-109147380D01*
X264761904Y-109147380D01*
X264666666Y-109099761D01*
X264619047Y-109004523D01*
X264619047Y-108623571D01*
X264666666Y-108528333D01*
X264761904Y-108480714D01*
X264952380Y-108480714D01*
X265047619Y-108528333D01*
X265095238Y-108623571D01*
X265095238Y-108718809D01*
X264619047Y-108814047D01*
X265523809Y-109147380D02*
X265523809Y-108480714D01*
X265523809Y-108671190D02*
X265571428Y-108575952D01*
X265619047Y-108528333D01*
X265714285Y-108480714D01*
X265809523Y-108480714D01*
X260476190Y-109757380D02*
X260809523Y-110757380D01*
X261142857Y-109757380D01*
X262000000Y-110757380D02*
X261428571Y-110757380D01*
X261714285Y-110757380D02*
X261714285Y-109757380D01*
X261619047Y-109900238D01*
X261523809Y-109995476D01*
X261428571Y-110043095D01*
X262428571Y-110662142D02*
X262476190Y-110709761D01*
X262428571Y-110757380D01*
X262380952Y-110709761D01*
X262428571Y-110662142D01*
X262428571Y-110757380D01*
X263095238Y-109757380D02*
X263190476Y-109757380D01*
X263285714Y-109805000D01*
X263333333Y-109852619D01*
X263380952Y-109947857D01*
X263428571Y-110138333D01*
X263428571Y-110376428D01*
X263380952Y-110566904D01*
X263333333Y-110662142D01*
X263285714Y-110709761D01*
X263190476Y-110757380D01*
X263095238Y-110757380D01*
X263000000Y-110709761D01*
X262952380Y-110662142D01*
X262904761Y-110566904D01*
X262857142Y-110376428D01*
X262857142Y-110138333D01*
X262904761Y-109947857D01*
X262952380Y-109852619D01*
X263000000Y-109805000D01*
X263095238Y-109757380D01*
D11*
X356438095Y-80442857D02*
X357961904Y-80442857D01*
X86476190Y-106504761D02*
X86476190Y-104504761D01*
X87238095Y-104504761D01*
X87428571Y-104600000D01*
X87523809Y-104695238D01*
X87619047Y-104885714D01*
X87619047Y-105171428D01*
X87523809Y-105361904D01*
X87428571Y-105457142D01*
X87238095Y-105552380D01*
X86476190Y-105552380D01*
X356876190Y-106304761D02*
X356876190Y-104304761D01*
X357638095Y-104304761D01*
X357828571Y-104400000D01*
X357923809Y-104495238D01*
X358019047Y-104685714D01*
X358019047Y-104971428D01*
X357923809Y-105161904D01*
X357828571Y-105257142D01*
X357638095Y-105352380D01*
X356876190Y-105352380D01*
X86438095Y-80442857D02*
X87961904Y-80442857D01*
X86138095Y-108542857D02*
X87661904Y-108542857D01*
X86900000Y-109304761D02*
X86900000Y-107780952D01*
X356138095Y-108342857D02*
X357661904Y-108342857D01*
X356900000Y-109104761D02*
X356900000Y-107580952D01*
D10*
X331021904Y-92552380D02*
X331021904Y-91552380D01*
X331260000Y-91552380D01*
X331402857Y-91600000D01*
X331498095Y-91695238D01*
X331545714Y-91790476D01*
X331593333Y-91980952D01*
X331593333Y-92123809D01*
X331545714Y-92314285D01*
X331498095Y-92409523D01*
X331402857Y-92504761D01*
X331260000Y-92552380D01*
X331021904Y-92552380D01*
X331926666Y-91552380D02*
X332545714Y-91552380D01*
X332212380Y-91933333D01*
X332355238Y-91933333D01*
X332450476Y-91980952D01*
X332498095Y-92028571D01*
X332545714Y-92123809D01*
X332545714Y-92361904D01*
X332498095Y-92457142D01*
X332450476Y-92504761D01*
X332355238Y-92552380D01*
X332069523Y-92552380D01*
X331974285Y-92504761D01*
X331926666Y-92457142D01*
X261371904Y-92552380D02*
X261371904Y-91552380D01*
X261610000Y-91552380D01*
X261752857Y-91600000D01*
X261848095Y-91695238D01*
X261895714Y-91790476D01*
X261943333Y-91980952D01*
X261943333Y-92123809D01*
X261895714Y-92314285D01*
X261848095Y-92409523D01*
X261752857Y-92504761D01*
X261610000Y-92552380D01*
X261371904Y-92552380D01*
X262419523Y-92552380D02*
X262610000Y-92552380D01*
X262705238Y-92504761D01*
X262752857Y-92457142D01*
X262848095Y-92314285D01*
X262895714Y-92123809D01*
X262895714Y-91742857D01*
X262848095Y-91647619D01*
X262800476Y-91600000D01*
X262705238Y-91552380D01*
X262514761Y-91552380D01*
X262419523Y-91600000D01*
X262371904Y-91647619D01*
X262324285Y-91742857D01*
X262324285Y-91980952D01*
X262371904Y-92076190D01*
X262419523Y-92123809D01*
X262514761Y-92171428D01*
X262705238Y-92171428D01*
X262800476Y-92123809D01*
X262848095Y-92076190D01*
X262895714Y-91980952D01*
X168005714Y-92552380D02*
X168005714Y-91552380D01*
X168243809Y-91552380D01*
X168386666Y-91600000D01*
X168481904Y-91695238D01*
X168529523Y-91790476D01*
X168577142Y-91980952D01*
X168577142Y-92123809D01*
X168529523Y-92314285D01*
X168481904Y-92409523D01*
X168386666Y-92504761D01*
X168243809Y-92552380D01*
X168005714Y-92552380D01*
X169529523Y-92552380D02*
X168958095Y-92552380D01*
X169243809Y-92552380D02*
X169243809Y-91552380D01*
X169148571Y-91695238D01*
X169053333Y-91790476D01*
X168958095Y-91838095D01*
X169862857Y-91552380D02*
X170529523Y-91552380D01*
X170100952Y-92552380D01*
X319411904Y-92552380D02*
X319411904Y-91552380D01*
X319650000Y-91552380D01*
X319792857Y-91600000D01*
X319888095Y-91695238D01*
X319935714Y-91790476D01*
X319983333Y-91980952D01*
X319983333Y-92123809D01*
X319935714Y-92314285D01*
X319888095Y-92409523D01*
X319792857Y-92504761D01*
X319650000Y-92552380D01*
X319411904Y-92552380D01*
X320840476Y-91885714D02*
X320840476Y-92552380D01*
X320602380Y-91504761D02*
X320364285Y-92219047D01*
X320983333Y-92219047D01*
X249275714Y-92552380D02*
X249275714Y-91552380D01*
X249513809Y-91552380D01*
X249656666Y-91600000D01*
X249751904Y-91695238D01*
X249799523Y-91790476D01*
X249847142Y-91980952D01*
X249847142Y-92123809D01*
X249799523Y-92314285D01*
X249751904Y-92409523D01*
X249656666Y-92504761D01*
X249513809Y-92552380D01*
X249275714Y-92552380D01*
X250799523Y-92552380D02*
X250228095Y-92552380D01*
X250513809Y-92552380D02*
X250513809Y-91552380D01*
X250418571Y-91695238D01*
X250323333Y-91790476D01*
X250228095Y-91838095D01*
X251418571Y-91552380D02*
X251513809Y-91552380D01*
X251609047Y-91600000D01*
X251656666Y-91647619D01*
X251704285Y-91742857D01*
X251751904Y-91933333D01*
X251751904Y-92171428D01*
X251704285Y-92361904D01*
X251656666Y-92457142D01*
X251609047Y-92504761D01*
X251513809Y-92552380D01*
X251418571Y-92552380D01*
X251323333Y-92504761D01*
X251275714Y-92457142D01*
X251228095Y-92361904D01*
X251180476Y-92171428D01*
X251180476Y-91933333D01*
X251228095Y-91742857D01*
X251275714Y-91647619D01*
X251323333Y-91600000D01*
X251418571Y-91552380D01*
X109955714Y-92552380D02*
X109955714Y-91552380D01*
X110193809Y-91552380D01*
X110336666Y-91600000D01*
X110431904Y-91695238D01*
X110479523Y-91790476D01*
X110527142Y-91980952D01*
X110527142Y-92123809D01*
X110479523Y-92314285D01*
X110431904Y-92409523D01*
X110336666Y-92504761D01*
X110193809Y-92552380D01*
X109955714Y-92552380D01*
X110908095Y-91647619D02*
X110955714Y-91600000D01*
X111050952Y-91552380D01*
X111289047Y-91552380D01*
X111384285Y-91600000D01*
X111431904Y-91647619D01*
X111479523Y-91742857D01*
X111479523Y-91838095D01*
X111431904Y-91980952D01*
X110860476Y-92552380D01*
X111479523Y-92552380D01*
X111860476Y-91647619D02*
X111908095Y-91600000D01*
X112003333Y-91552380D01*
X112241428Y-91552380D01*
X112336666Y-91600000D01*
X112384285Y-91647619D01*
X112431904Y-91742857D01*
X112431904Y-91838095D01*
X112384285Y-91980952D01*
X111812857Y-92552380D01*
X112431904Y-92552380D01*
X337302380Y-105366666D02*
X337302380Y-105842857D01*
X336302380Y-105842857D01*
X337302380Y-104509523D02*
X337302380Y-105080952D01*
X337302380Y-104795238D02*
X336302380Y-104795238D01*
X336445238Y-104890476D01*
X336540476Y-104985714D01*
X336588095Y-105080952D01*
X237665714Y-92552380D02*
X237665714Y-91552380D01*
X237903809Y-91552380D01*
X238046666Y-91600000D01*
X238141904Y-91695238D01*
X238189523Y-91790476D01*
X238237142Y-91980952D01*
X238237142Y-92123809D01*
X238189523Y-92314285D01*
X238141904Y-92409523D01*
X238046666Y-92504761D01*
X237903809Y-92552380D01*
X237665714Y-92552380D01*
X239189523Y-92552380D02*
X238618095Y-92552380D01*
X238903809Y-92552380D02*
X238903809Y-91552380D01*
X238808571Y-91695238D01*
X238713333Y-91790476D01*
X238618095Y-91838095D01*
X240141904Y-92552380D02*
X239570476Y-92552380D01*
X239856190Y-92552380D02*
X239856190Y-91552380D01*
X239760952Y-91695238D01*
X239665714Y-91790476D01*
X239570476Y-91838095D01*
X353952380Y-103514285D02*
X352952380Y-103514285D01*
X352952380Y-103276190D01*
X353000000Y-103133333D01*
X353095238Y-103038095D01*
X353190476Y-102990476D01*
X353380952Y-102942857D01*
X353523809Y-102942857D01*
X353714285Y-102990476D01*
X353809523Y-103038095D01*
X353904761Y-103133333D01*
X353952380Y-103276190D01*
X353952380Y-103514285D01*
X353047619Y-102561904D02*
X353000000Y-102514285D01*
X352952380Y-102419047D01*
X352952380Y-102180952D01*
X353000000Y-102085714D01*
X353047619Y-102038095D01*
X353142857Y-101990476D01*
X353238095Y-101990476D01*
X353380952Y-102038095D01*
X353952380Y-102609523D01*
X353952380Y-101990476D01*
X352952380Y-101085714D02*
X352952380Y-101561904D01*
X353428571Y-101609523D01*
X353380952Y-101561904D01*
X353333333Y-101466666D01*
X353333333Y-101228571D01*
X353380952Y-101133333D01*
X353428571Y-101085714D01*
X353523809Y-101038095D01*
X353761904Y-101038095D01*
X353857142Y-101085714D01*
X353904761Y-101133333D01*
X353952380Y-101228571D01*
X353952380Y-101466666D01*
X353904761Y-101561904D01*
X353857142Y-101609523D01*
X344157142Y-108066666D02*
X344204761Y-108114285D01*
X344252380Y-108257142D01*
X344252380Y-108352380D01*
X344204761Y-108495238D01*
X344109523Y-108590476D01*
X344014285Y-108638095D01*
X343823809Y-108685714D01*
X343680952Y-108685714D01*
X343490476Y-108638095D01*
X343395238Y-108590476D01*
X343300000Y-108495238D01*
X343252380Y-108352380D01*
X343252380Y-108257142D01*
X343300000Y-108114285D01*
X343347619Y-108066666D01*
X343252380Y-107733333D02*
X343252380Y-107114285D01*
X343633333Y-107447619D01*
X343633333Y-107304761D01*
X343680952Y-107209523D01*
X343728571Y-107161904D01*
X343823809Y-107114285D01*
X344061904Y-107114285D01*
X344157142Y-107161904D01*
X344204761Y-107209523D01*
X344252380Y-107304761D01*
X344252380Y-107590476D01*
X344204761Y-107685714D01*
X344157142Y-107733333D01*
X307801904Y-92552380D02*
X307801904Y-91552380D01*
X308040000Y-91552380D01*
X308182857Y-91600000D01*
X308278095Y-91695238D01*
X308325714Y-91790476D01*
X308373333Y-91980952D01*
X308373333Y-92123809D01*
X308325714Y-92314285D01*
X308278095Y-92409523D01*
X308182857Y-92504761D01*
X308040000Y-92552380D01*
X307801904Y-92552380D01*
X309278095Y-91552380D02*
X308801904Y-91552380D01*
X308754285Y-92028571D01*
X308801904Y-91980952D01*
X308897142Y-91933333D01*
X309135238Y-91933333D01*
X309230476Y-91980952D01*
X309278095Y-92028571D01*
X309325714Y-92123809D01*
X309325714Y-92361904D01*
X309278095Y-92457142D01*
X309230476Y-92504761D01*
X309135238Y-92552380D01*
X308897142Y-92552380D01*
X308801904Y-92504761D01*
X308754285Y-92457142D01*
X86785714Y-92552380D02*
X86785714Y-91552380D01*
X87023809Y-91552380D01*
X87166666Y-91600000D01*
X87261904Y-91695238D01*
X87309523Y-91790476D01*
X87357142Y-91980952D01*
X87357142Y-92123809D01*
X87309523Y-92314285D01*
X87261904Y-92409523D01*
X87166666Y-92504761D01*
X87023809Y-92552380D01*
X86785714Y-92552380D01*
X87738095Y-91647619D02*
X87785714Y-91600000D01*
X87880952Y-91552380D01*
X88119047Y-91552380D01*
X88214285Y-91600000D01*
X88261904Y-91647619D01*
X88309523Y-91742857D01*
X88309523Y-91838095D01*
X88261904Y-91980952D01*
X87690476Y-92552380D01*
X88309523Y-92552380D01*
X89166666Y-91885714D02*
X89166666Y-92552380D01*
X88928571Y-91504761D02*
X88690476Y-92219047D01*
X89309523Y-92219047D01*
X226055714Y-92552380D02*
X226055714Y-91552380D01*
X226293809Y-91552380D01*
X226436666Y-91600000D01*
X226531904Y-91695238D01*
X226579523Y-91790476D01*
X226627142Y-91980952D01*
X226627142Y-92123809D01*
X226579523Y-92314285D01*
X226531904Y-92409523D01*
X226436666Y-92504761D01*
X226293809Y-92552380D01*
X226055714Y-92552380D01*
X227579523Y-92552380D02*
X227008095Y-92552380D01*
X227293809Y-92552380D02*
X227293809Y-91552380D01*
X227198571Y-91695238D01*
X227103333Y-91790476D01*
X227008095Y-91838095D01*
X227960476Y-91647619D02*
X228008095Y-91600000D01*
X228103333Y-91552380D01*
X228341428Y-91552380D01*
X228436666Y-91600000D01*
X228484285Y-91647619D01*
X228531904Y-91742857D01*
X228531904Y-91838095D01*
X228484285Y-91980952D01*
X227912857Y-92552380D01*
X228531904Y-92552380D01*
X191225714Y-92552380D02*
X191225714Y-91552380D01*
X191463809Y-91552380D01*
X191606666Y-91600000D01*
X191701904Y-91695238D01*
X191749523Y-91790476D01*
X191797142Y-91980952D01*
X191797142Y-92123809D01*
X191749523Y-92314285D01*
X191701904Y-92409523D01*
X191606666Y-92504761D01*
X191463809Y-92552380D01*
X191225714Y-92552380D01*
X192749523Y-92552380D02*
X192178095Y-92552380D01*
X192463809Y-92552380D02*
X192463809Y-91552380D01*
X192368571Y-91695238D01*
X192273333Y-91790476D01*
X192178095Y-91838095D01*
X193654285Y-91552380D02*
X193178095Y-91552380D01*
X193130476Y-92028571D01*
X193178095Y-91980952D01*
X193273333Y-91933333D01*
X193511428Y-91933333D01*
X193606666Y-91980952D01*
X193654285Y-92028571D01*
X193701904Y-92123809D01*
X193701904Y-92361904D01*
X193654285Y-92457142D01*
X193606666Y-92504761D01*
X193511428Y-92552380D01*
X193273333Y-92552380D01*
X193178095Y-92504761D01*
X193130476Y-92457142D01*
X345092095Y-103052380D02*
X345092095Y-103861904D01*
X345139714Y-103957142D01*
X345187333Y-104004761D01*
X345282571Y-104052380D01*
X345473047Y-104052380D01*
X345568285Y-104004761D01*
X345615904Y-103957142D01*
X345663523Y-103861904D01*
X345663523Y-103052380D01*
X346663523Y-104052380D02*
X346092095Y-104052380D01*
X346377809Y-104052380D02*
X346377809Y-103052380D01*
X346282571Y-103195238D01*
X346187333Y-103290476D01*
X346092095Y-103338095D01*
X144785714Y-92552380D02*
X144785714Y-91552380D01*
X145023809Y-91552380D01*
X145166666Y-91600000D01*
X145261904Y-91695238D01*
X145309523Y-91790476D01*
X145357142Y-91980952D01*
X145357142Y-92123809D01*
X145309523Y-92314285D01*
X145261904Y-92409523D01*
X145166666Y-92504761D01*
X145023809Y-92552380D01*
X144785714Y-92552380D01*
X146309523Y-92552380D02*
X145738095Y-92552380D01*
X146023809Y-92552380D02*
X146023809Y-91552380D01*
X145928571Y-91695238D01*
X145833333Y-91790476D01*
X145738095Y-91838095D01*
X146785714Y-92552380D02*
X146976190Y-92552380D01*
X147071428Y-92504761D01*
X147119047Y-92457142D01*
X147214285Y-92314285D01*
X147261904Y-92123809D01*
X147261904Y-91742857D01*
X147214285Y-91647619D01*
X147166666Y-91600000D01*
X147071428Y-91552380D01*
X146880952Y-91552380D01*
X146785714Y-91600000D01*
X146738095Y-91647619D01*
X146690476Y-91742857D01*
X146690476Y-91980952D01*
X146738095Y-92076190D01*
X146785714Y-92123809D01*
X146880952Y-92171428D01*
X147071428Y-92171428D01*
X147166666Y-92123809D01*
X147214285Y-92076190D01*
X147261904Y-91980952D01*
X353652380Y-109666666D02*
X353176190Y-110000000D01*
X353652380Y-110238095D02*
X352652380Y-110238095D01*
X352652380Y-109857142D01*
X352700000Y-109761904D01*
X352747619Y-109714285D01*
X352842857Y-109666666D01*
X352985714Y-109666666D01*
X353080952Y-109714285D01*
X353128571Y-109761904D01*
X353176190Y-109857142D01*
X353176190Y-110238095D01*
X352747619Y-109285714D02*
X352700000Y-109238095D01*
X352652380Y-109142857D01*
X352652380Y-108904761D01*
X352700000Y-108809523D01*
X352747619Y-108761904D01*
X352842857Y-108714285D01*
X352938095Y-108714285D01*
X353080952Y-108761904D01*
X353652380Y-109333333D01*
X353652380Y-108714285D01*
X98345714Y-92552380D02*
X98345714Y-91552380D01*
X98583809Y-91552380D01*
X98726666Y-91600000D01*
X98821904Y-91695238D01*
X98869523Y-91790476D01*
X98917142Y-91980952D01*
X98917142Y-92123809D01*
X98869523Y-92314285D01*
X98821904Y-92409523D01*
X98726666Y-92504761D01*
X98583809Y-92552380D01*
X98345714Y-92552380D01*
X99298095Y-91647619D02*
X99345714Y-91600000D01*
X99440952Y-91552380D01*
X99679047Y-91552380D01*
X99774285Y-91600000D01*
X99821904Y-91647619D01*
X99869523Y-91742857D01*
X99869523Y-91838095D01*
X99821904Y-91980952D01*
X99250476Y-92552380D01*
X99869523Y-92552380D01*
X100202857Y-91552380D02*
X100821904Y-91552380D01*
X100488571Y-91933333D01*
X100631428Y-91933333D01*
X100726666Y-91980952D01*
X100774285Y-92028571D01*
X100821904Y-92123809D01*
X100821904Y-92361904D01*
X100774285Y-92457142D01*
X100726666Y-92504761D01*
X100631428Y-92552380D01*
X100345714Y-92552380D01*
X100250476Y-92504761D01*
X100202857Y-92457142D01*
X352252380Y-102366666D02*
X351776190Y-102700000D01*
X352252380Y-102938095D02*
X351252380Y-102938095D01*
X351252380Y-102557142D01*
X351300000Y-102461904D01*
X351347619Y-102414285D01*
X351442857Y-102366666D01*
X351585714Y-102366666D01*
X351680952Y-102414285D01*
X351728571Y-102461904D01*
X351776190Y-102557142D01*
X351776190Y-102938095D01*
X352252380Y-101414285D02*
X352252380Y-101985714D01*
X352252380Y-101700000D02*
X351252380Y-101700000D01*
X351395238Y-101795238D01*
X351490476Y-101890476D01*
X351538095Y-101985714D01*
X348633333Y-105357142D02*
X348585714Y-105404761D01*
X348442857Y-105452380D01*
X348347619Y-105452380D01*
X348204761Y-105404761D01*
X348109523Y-105309523D01*
X348061904Y-105214285D01*
X348014285Y-105023809D01*
X348014285Y-104880952D01*
X348061904Y-104690476D01*
X348109523Y-104595238D01*
X348204761Y-104500000D01*
X348347619Y-104452380D01*
X348442857Y-104452380D01*
X348585714Y-104500000D01*
X348633333Y-104547619D01*
X349490476Y-104785714D02*
X349490476Y-105452380D01*
X349252380Y-104404761D02*
X349014285Y-105119047D01*
X349633333Y-105119047D01*
X202835714Y-92552380D02*
X202835714Y-91552380D01*
X203073809Y-91552380D01*
X203216666Y-91600000D01*
X203311904Y-91695238D01*
X203359523Y-91790476D01*
X203407142Y-91980952D01*
X203407142Y-92123809D01*
X203359523Y-92314285D01*
X203311904Y-92409523D01*
X203216666Y-92504761D01*
X203073809Y-92552380D01*
X202835714Y-92552380D01*
X204359523Y-92552380D02*
X203788095Y-92552380D01*
X204073809Y-92552380D02*
X204073809Y-91552380D01*
X203978571Y-91695238D01*
X203883333Y-91790476D01*
X203788095Y-91838095D01*
X205216666Y-91885714D02*
X205216666Y-92552380D01*
X204978571Y-91504761D02*
X204740476Y-92219047D01*
X205359523Y-92219047D01*
X133175714Y-92552380D02*
X133175714Y-91552380D01*
X133413809Y-91552380D01*
X133556666Y-91600000D01*
X133651904Y-91695238D01*
X133699523Y-91790476D01*
X133747142Y-91980952D01*
X133747142Y-92123809D01*
X133699523Y-92314285D01*
X133651904Y-92409523D01*
X133556666Y-92504761D01*
X133413809Y-92552380D01*
X133175714Y-92552380D01*
X134128095Y-91647619D02*
X134175714Y-91600000D01*
X134270952Y-91552380D01*
X134509047Y-91552380D01*
X134604285Y-91600000D01*
X134651904Y-91647619D01*
X134699523Y-91742857D01*
X134699523Y-91838095D01*
X134651904Y-91980952D01*
X134080476Y-92552380D01*
X134699523Y-92552380D01*
X135318571Y-91552380D02*
X135413809Y-91552380D01*
X135509047Y-91600000D01*
X135556666Y-91647619D01*
X135604285Y-91742857D01*
X135651904Y-91933333D01*
X135651904Y-92171428D01*
X135604285Y-92361904D01*
X135556666Y-92457142D01*
X135509047Y-92504761D01*
X135413809Y-92552380D01*
X135318571Y-92552380D01*
X135223333Y-92504761D01*
X135175714Y-92457142D01*
X135128095Y-92361904D01*
X135080476Y-92171428D01*
X135080476Y-91933333D01*
X135128095Y-91742857D01*
X135175714Y-91647619D01*
X135223333Y-91600000D01*
X135318571Y-91552380D01*
X348633333Y-109732142D02*
X348585714Y-109779761D01*
X348442857Y-109827380D01*
X348347619Y-109827380D01*
X348204761Y-109779761D01*
X348109523Y-109684523D01*
X348061904Y-109589285D01*
X348014285Y-109398809D01*
X348014285Y-109255952D01*
X348061904Y-109065476D01*
X348109523Y-108970238D01*
X348204761Y-108875000D01*
X348347619Y-108827380D01*
X348442857Y-108827380D01*
X348585714Y-108875000D01*
X348633333Y-108922619D01*
X349585714Y-109827380D02*
X349014285Y-109827380D01*
X349300000Y-109827380D02*
X349300000Y-108827380D01*
X349204761Y-108970238D01*
X349109523Y-109065476D01*
X349014285Y-109113095D01*
X354221904Y-92552380D02*
X354221904Y-91552380D01*
X354460000Y-91552380D01*
X354602857Y-91600000D01*
X354698095Y-91695238D01*
X354745714Y-91790476D01*
X354793333Y-91980952D01*
X354793333Y-92123809D01*
X354745714Y-92314285D01*
X354698095Y-92409523D01*
X354602857Y-92504761D01*
X354460000Y-92552380D01*
X354221904Y-92552380D01*
X355745714Y-92552380D02*
X355174285Y-92552380D01*
X355460000Y-92552380D02*
X355460000Y-91552380D01*
X355364761Y-91695238D01*
X355269523Y-91790476D01*
X355174285Y-91838095D01*
X214445714Y-92552380D02*
X214445714Y-91552380D01*
X214683809Y-91552380D01*
X214826666Y-91600000D01*
X214921904Y-91695238D01*
X214969523Y-91790476D01*
X215017142Y-91980952D01*
X215017142Y-92123809D01*
X214969523Y-92314285D01*
X214921904Y-92409523D01*
X214826666Y-92504761D01*
X214683809Y-92552380D01*
X214445714Y-92552380D01*
X215969523Y-92552380D02*
X215398095Y-92552380D01*
X215683809Y-92552380D02*
X215683809Y-91552380D01*
X215588571Y-91695238D01*
X215493333Y-91790476D01*
X215398095Y-91838095D01*
X216302857Y-91552380D02*
X216921904Y-91552380D01*
X216588571Y-91933333D01*
X216731428Y-91933333D01*
X216826666Y-91980952D01*
X216874285Y-92028571D01*
X216921904Y-92123809D01*
X216921904Y-92361904D01*
X216874285Y-92457142D01*
X216826666Y-92504761D01*
X216731428Y-92552380D01*
X216445714Y-92552380D01*
X216350476Y-92504761D01*
X216302857Y-92457142D01*
X156395714Y-92552380D02*
X156395714Y-91552380D01*
X156633809Y-91552380D01*
X156776666Y-91600000D01*
X156871904Y-91695238D01*
X156919523Y-91790476D01*
X156967142Y-91980952D01*
X156967142Y-92123809D01*
X156919523Y-92314285D01*
X156871904Y-92409523D01*
X156776666Y-92504761D01*
X156633809Y-92552380D01*
X156395714Y-92552380D01*
X157919523Y-92552380D02*
X157348095Y-92552380D01*
X157633809Y-92552380D02*
X157633809Y-91552380D01*
X157538571Y-91695238D01*
X157443333Y-91790476D01*
X157348095Y-91838095D01*
X158490952Y-91980952D02*
X158395714Y-91933333D01*
X158348095Y-91885714D01*
X158300476Y-91790476D01*
X158300476Y-91742857D01*
X158348095Y-91647619D01*
X158395714Y-91600000D01*
X158490952Y-91552380D01*
X158681428Y-91552380D01*
X158776666Y-91600000D01*
X158824285Y-91647619D01*
X158871904Y-91742857D01*
X158871904Y-91790476D01*
X158824285Y-91885714D01*
X158776666Y-91933333D01*
X158681428Y-91980952D01*
X158490952Y-91980952D01*
X158395714Y-92028571D01*
X158348095Y-92076190D01*
X158300476Y-92171428D01*
X158300476Y-92361904D01*
X158348095Y-92457142D01*
X158395714Y-92504761D01*
X158490952Y-92552380D01*
X158681428Y-92552380D01*
X158776666Y-92504761D01*
X158824285Y-92457142D01*
X158871904Y-92361904D01*
X158871904Y-92171428D01*
X158824285Y-92076190D01*
X158776666Y-92028571D01*
X158681428Y-91980952D01*
X296191904Y-92552380D02*
X296191904Y-91552380D01*
X296430000Y-91552380D01*
X296572857Y-91600000D01*
X296668095Y-91695238D01*
X296715714Y-91790476D01*
X296763333Y-91980952D01*
X296763333Y-92123809D01*
X296715714Y-92314285D01*
X296668095Y-92409523D01*
X296572857Y-92504761D01*
X296430000Y-92552380D01*
X296191904Y-92552380D01*
X297620476Y-91552380D02*
X297430000Y-91552380D01*
X297334761Y-91600000D01*
X297287142Y-91647619D01*
X297191904Y-91790476D01*
X297144285Y-91980952D01*
X297144285Y-92361904D01*
X297191904Y-92457142D01*
X297239523Y-92504761D01*
X297334761Y-92552380D01*
X297525238Y-92552380D01*
X297620476Y-92504761D01*
X297668095Y-92457142D01*
X297715714Y-92361904D01*
X297715714Y-92123809D01*
X297668095Y-92028571D01*
X297620476Y-91980952D01*
X297525238Y-91933333D01*
X297334761Y-91933333D01*
X297239523Y-91980952D01*
X297191904Y-92028571D01*
X297144285Y-92123809D01*
X284581904Y-92552380D02*
X284581904Y-91552380D01*
X284820000Y-91552380D01*
X284962857Y-91600000D01*
X285058095Y-91695238D01*
X285105714Y-91790476D01*
X285153333Y-91980952D01*
X285153333Y-92123809D01*
X285105714Y-92314285D01*
X285058095Y-92409523D01*
X284962857Y-92504761D01*
X284820000Y-92552380D01*
X284581904Y-92552380D01*
X285486666Y-91552380D02*
X286153333Y-91552380D01*
X285724761Y-92552380D01*
X272971904Y-92552380D02*
X272971904Y-91552380D01*
X273210000Y-91552380D01*
X273352857Y-91600000D01*
X273448095Y-91695238D01*
X273495714Y-91790476D01*
X273543333Y-91980952D01*
X273543333Y-92123809D01*
X273495714Y-92314285D01*
X273448095Y-92409523D01*
X273352857Y-92504761D01*
X273210000Y-92552380D01*
X272971904Y-92552380D01*
X274114761Y-91980952D02*
X274019523Y-91933333D01*
X273971904Y-91885714D01*
X273924285Y-91790476D01*
X273924285Y-91742857D01*
X273971904Y-91647619D01*
X274019523Y-91600000D01*
X274114761Y-91552380D01*
X274305238Y-91552380D01*
X274400476Y-91600000D01*
X274448095Y-91647619D01*
X274495714Y-91742857D01*
X274495714Y-91790476D01*
X274448095Y-91885714D01*
X274400476Y-91933333D01*
X274305238Y-91980952D01*
X274114761Y-91980952D01*
X274019523Y-92028571D01*
X273971904Y-92076190D01*
X273924285Y-92171428D01*
X273924285Y-92361904D01*
X273971904Y-92457142D01*
X274019523Y-92504761D01*
X274114761Y-92552380D01*
X274305238Y-92552380D01*
X274400476Y-92504761D01*
X274448095Y-92457142D01*
X274495714Y-92361904D01*
X274495714Y-92171428D01*
X274448095Y-92076190D01*
X274400476Y-92028571D01*
X274305238Y-91980952D01*
X345433333Y-109257142D02*
X345385714Y-109304761D01*
X345242857Y-109352380D01*
X345147619Y-109352380D01*
X345004761Y-109304761D01*
X344909523Y-109209523D01*
X344861904Y-109114285D01*
X344814285Y-108923809D01*
X344814285Y-108780952D01*
X344861904Y-108590476D01*
X344909523Y-108495238D01*
X345004761Y-108400000D01*
X345147619Y-108352380D01*
X345242857Y-108352380D01*
X345385714Y-108400000D01*
X345433333Y-108447619D01*
X345814285Y-108447619D02*
X345861904Y-108400000D01*
X345957142Y-108352380D01*
X346195238Y-108352380D01*
X346290476Y-108400000D01*
X346338095Y-108447619D01*
X346385714Y-108542857D01*
X346385714Y-108638095D01*
X346338095Y-108780952D01*
X345766666Y-109352380D01*
X346385714Y-109352380D01*
X121565714Y-92552380D02*
X121565714Y-91552380D01*
X121803809Y-91552380D01*
X121946666Y-91600000D01*
X122041904Y-91695238D01*
X122089523Y-91790476D01*
X122137142Y-91980952D01*
X122137142Y-92123809D01*
X122089523Y-92314285D01*
X122041904Y-92409523D01*
X121946666Y-92504761D01*
X121803809Y-92552380D01*
X121565714Y-92552380D01*
X122518095Y-91647619D02*
X122565714Y-91600000D01*
X122660952Y-91552380D01*
X122899047Y-91552380D01*
X122994285Y-91600000D01*
X123041904Y-91647619D01*
X123089523Y-91742857D01*
X123089523Y-91838095D01*
X123041904Y-91980952D01*
X122470476Y-92552380D01*
X123089523Y-92552380D01*
X124041904Y-92552380D02*
X123470476Y-92552380D01*
X123756190Y-92552380D02*
X123756190Y-91552380D01*
X123660952Y-91695238D01*
X123565714Y-91790476D01*
X123470476Y-91838095D01*
X342631904Y-92552380D02*
X342631904Y-91552380D01*
X342870000Y-91552380D01*
X343012857Y-91600000D01*
X343108095Y-91695238D01*
X343155714Y-91790476D01*
X343203333Y-91980952D01*
X343203333Y-92123809D01*
X343155714Y-92314285D01*
X343108095Y-92409523D01*
X343012857Y-92504761D01*
X342870000Y-92552380D01*
X342631904Y-92552380D01*
X343584285Y-91647619D02*
X343631904Y-91600000D01*
X343727142Y-91552380D01*
X343965238Y-91552380D01*
X344060476Y-91600000D01*
X344108095Y-91647619D01*
X344155714Y-91742857D01*
X344155714Y-91838095D01*
X344108095Y-91980952D01*
X343536666Y-92552380D01*
X344155714Y-92552380D01*
X179615714Y-92552380D02*
X179615714Y-91552380D01*
X179853809Y-91552380D01*
X179996666Y-91600000D01*
X180091904Y-91695238D01*
X180139523Y-91790476D01*
X180187142Y-91980952D01*
X180187142Y-92123809D01*
X180139523Y-92314285D01*
X180091904Y-92409523D01*
X179996666Y-92504761D01*
X179853809Y-92552380D01*
X179615714Y-92552380D01*
X181139523Y-92552380D02*
X180568095Y-92552380D01*
X180853809Y-92552380D02*
X180853809Y-91552380D01*
X180758571Y-91695238D01*
X180663333Y-91790476D01*
X180568095Y-91838095D01*
X181996666Y-91552380D02*
X181806190Y-91552380D01*
X181710952Y-91600000D01*
X181663333Y-91647619D01*
X181568095Y-91790476D01*
X181520476Y-91980952D01*
X181520476Y-92361904D01*
X181568095Y-92457142D01*
X181615714Y-92504761D01*
X181710952Y-92552380D01*
X181901428Y-92552380D01*
X181996666Y-92504761D01*
X182044285Y-92457142D01*
X182091904Y-92361904D01*
X182091904Y-92123809D01*
X182044285Y-92028571D01*
X181996666Y-91980952D01*
X181901428Y-91933333D01*
X181710952Y-91933333D01*
X181615714Y-91980952D01*
X181568095Y-92028571D01*
X181520476Y-92123809D01*
D12*
X333160000Y-92900000D02*
X329560000Y-92900000D01*
X329560000Y-92900000D02*
X329560000Y-96100000D01*
X333160000Y-96100000D02*
X329560000Y-96100000D01*
X263510000Y-96100000D02*
X259910000Y-96100000D01*
X259910000Y-92900000D02*
X259910000Y-96100000D01*
X263510000Y-92900000D02*
X259910000Y-92900000D01*
X170620000Y-92900000D02*
X167020000Y-92900000D01*
X167020000Y-92900000D02*
X167020000Y-96100000D01*
X170620000Y-96100000D02*
X167020000Y-96100000D01*
X321550000Y-96100000D02*
X317950000Y-96100000D01*
X317950000Y-92900000D02*
X317950000Y-96100000D01*
X321550000Y-92900000D02*
X317950000Y-92900000D01*
X251890000Y-96100000D02*
X248290000Y-96100000D01*
X248290000Y-92900000D02*
X248290000Y-96100000D01*
X251890000Y-92900000D02*
X248290000Y-92900000D01*
X112570000Y-96100000D02*
X108970000Y-96100000D01*
X108970000Y-92900000D02*
X108970000Y-96100000D01*
X112570000Y-92900000D02*
X108970000Y-92900000D01*
X342850000Y-107750000D02*
X342850000Y-102650000D01*
X337750000Y-107750000D02*
X337750000Y-102650000D01*
X240280000Y-92900000D02*
X236680000Y-92900000D01*
X240280000Y-96100000D02*
X236680000Y-96100000D01*
X236680000Y-92900000D02*
X236680000Y-96100000D01*
X354350000Y-103900000D02*
X354350000Y-106450000D01*
X354350000Y-103900000D02*
X352650000Y-103900000D01*
X352650000Y-103900000D02*
X352650000Y-106450000D01*
X343190000Y-105259420D02*
X343190000Y-105540580D01*
X344210000Y-105259420D02*
X344210000Y-105540580D01*
X309940000Y-96100000D02*
X306340000Y-96100000D01*
X306340000Y-92900000D02*
X306340000Y-96100000D01*
X309940000Y-92900000D02*
X306340000Y-92900000D01*
X89400000Y-92900000D02*
X85800000Y-92900000D01*
X85800000Y-92900000D02*
X85800000Y-96100000D01*
X89400000Y-96100000D02*
X85800000Y-96100000D01*
X228670000Y-92900000D02*
X225070000Y-92900000D01*
X225070000Y-92900000D02*
X225070000Y-96100000D01*
X228670000Y-96100000D02*
X225070000Y-96100000D01*
X193840000Y-92900000D02*
X190240000Y-92900000D01*
X193840000Y-96100000D02*
X190240000Y-96100000D01*
X190240000Y-92900000D02*
X190240000Y-96100000D01*
X345129000Y-104637000D02*
X346629000Y-104637000D01*
X345129000Y-106112000D02*
X345129000Y-105862000D01*
X346629000Y-106112000D02*
X346629000Y-105637000D01*
X345129000Y-106637000D02*
X346629000Y-106637000D01*
X345429000Y-104387000D02*
G75*
G03*
X345429000Y-104387000I-50000J0D01*
G01*
X147400000Y-96100000D02*
X143800000Y-96100000D01*
X147400000Y-92900000D02*
X143800000Y-92900000D01*
X143800000Y-92900000D02*
X143800000Y-96100000D01*
X352122500Y-109637258D02*
X352122500Y-109162742D01*
X351077500Y-109637258D02*
X351077500Y-109162742D01*
X100960000Y-92900000D02*
X97360000Y-92900000D01*
X100960000Y-96100000D02*
X97360000Y-96100000D01*
X97360000Y-92900000D02*
X97360000Y-96100000D01*
X351277500Y-104362742D02*
X351277500Y-104837258D01*
X352322500Y-104362742D02*
X352322500Y-104837258D01*
X350160000Y-105586252D02*
X350160000Y-104163748D01*
X347440000Y-105586252D02*
X347440000Y-104163748D01*
X205450000Y-96100000D02*
X201850000Y-96100000D01*
X205450000Y-92900000D02*
X201850000Y-92900000D01*
X201850000Y-92900000D02*
X201850000Y-96100000D01*
X135790000Y-96100000D02*
X132190000Y-96100000D01*
X135790000Y-92900000D02*
X132190000Y-92900000D01*
X132190000Y-92900000D02*
X132190000Y-96100000D01*
X350160000Y-108663748D02*
X350160000Y-110086252D01*
X347440000Y-108663748D02*
X347440000Y-110086252D01*
X352760000Y-92900000D02*
X352760000Y-96100000D01*
X356360000Y-96100000D02*
X352760000Y-96100000D01*
X356360000Y-92900000D02*
X352760000Y-92900000D01*
X217060000Y-92900000D02*
X213460000Y-92900000D01*
X217060000Y-96100000D02*
X213460000Y-96100000D01*
X213460000Y-92900000D02*
X213460000Y-96100000D01*
X159010000Y-96100000D02*
X155410000Y-96100000D01*
X155410000Y-92900000D02*
X155410000Y-96100000D01*
X159010000Y-92900000D02*
X155410000Y-92900000D01*
X298330000Y-96100000D02*
X294730000Y-96100000D01*
X294730000Y-92900000D02*
X294730000Y-96100000D01*
X298330000Y-92900000D02*
X294730000Y-92900000D01*
X286720000Y-96100000D02*
X283120000Y-96100000D01*
X286720000Y-92900000D02*
X283120000Y-92900000D01*
X283120000Y-92900000D02*
X283120000Y-96100000D01*
X275110000Y-92900000D02*
X271510000Y-92900000D01*
X275110000Y-96100000D02*
X271510000Y-96100000D01*
X271510000Y-92900000D02*
X271510000Y-96100000D01*
X346070580Y-106890000D02*
X345789420Y-106890000D01*
X346070580Y-107910000D02*
X345789420Y-107910000D01*
X124180000Y-92900000D02*
X120580000Y-92900000D01*
X124180000Y-96100000D02*
X120580000Y-96100000D01*
X120580000Y-92900000D02*
X120580000Y-96100000D01*
X344770000Y-92900000D02*
X341170000Y-92900000D01*
X341170000Y-92900000D02*
X341170000Y-96100000D01*
X344770000Y-96100000D02*
X341170000Y-96100000D01*
X182230000Y-96100000D02*
X178630000Y-96100000D01*
X182230000Y-92900000D02*
X178630000Y-92900000D01*
X178630000Y-92900000D02*
X178630000Y-96100000D01*
%LPC*%
D13*
X330860000Y-94500000D03*
D14*
X333135000Y-94500000D03*
D13*
X261210000Y-94500000D03*
D14*
X263485000Y-94500000D03*
D13*
X168320000Y-94500000D03*
D14*
X170595000Y-94500000D03*
D15*
X308750000Y-80500000D03*
D13*
X319250000Y-94500000D03*
D14*
X321525000Y-94500000D03*
D15*
X220750000Y-80500000D03*
X308750000Y-108500000D03*
D13*
X249590000Y-94500000D03*
D14*
X251865000Y-94500000D03*
D15*
X132750000Y-80500000D03*
D13*
X110270000Y-94500000D03*
D14*
X112545000Y-94500000D03*
D16*
X340300000Y-107000000D03*
X340300000Y-103400000D03*
D13*
X237980000Y-94500000D03*
D14*
X240255000Y-94500000D03*
D17*
X353500000Y-104350000D03*
X353500000Y-106450000D03*
D18*
X343700000Y-104625000D03*
X343700000Y-106175000D03*
D13*
X307640000Y-94500000D03*
D14*
X309915000Y-94500000D03*
D13*
X87100000Y-94500000D03*
D14*
X89375000Y-94500000D03*
D13*
X226370000Y-94500000D03*
D14*
X228645000Y-94500000D03*
D13*
X191540000Y-94500000D03*
D14*
X193815000Y-94500000D03*
D19*
X83500000Y-108500000D03*
X83500000Y-105500000D03*
D20*
X345279000Y-104937000D03*
D21*
X345229000Y-105587000D03*
D20*
X345279000Y-106387000D03*
D21*
X346529000Y-106387000D03*
X346529000Y-105362000D03*
D22*
X346329000Y-104862000D03*
D13*
X145100000Y-94500000D03*
D14*
X147375000Y-94500000D03*
D23*
X351600000Y-110225000D03*
X351600000Y-108575000D03*
D24*
X159000000Y-103500000D03*
D13*
X98660000Y-94500000D03*
D14*
X100935000Y-94500000D03*
D15*
X132750000Y-108500000D03*
D19*
X360000000Y-105500000D03*
D25*
X351800000Y-103775000D03*
X351800000Y-105425000D03*
D26*
X348800000Y-106350000D03*
X348800000Y-103400000D03*
D13*
X203150000Y-94500000D03*
D14*
X205425000Y-94500000D03*
D13*
X133490000Y-94500000D03*
D14*
X135765000Y-94500000D03*
D27*
X348800000Y-107900000D03*
X348800000Y-110850000D03*
D13*
X354060000Y-94500000D03*
D14*
X356335000Y-94500000D03*
D19*
X83500000Y-80500000D03*
X360000000Y-108500000D03*
D13*
X214760000Y-94500000D03*
D14*
X217035000Y-94500000D03*
D19*
X360000000Y-80500000D03*
D13*
X156710000Y-94500000D03*
D14*
X158985000Y-94500000D03*
D13*
X296030000Y-94500000D03*
D14*
X298305000Y-94500000D03*
D13*
X284420000Y-94500000D03*
D14*
X286695000Y-94500000D03*
D13*
X272810000Y-94500000D03*
D14*
X275085000Y-94500000D03*
D28*
X346705000Y-107400000D03*
X345155000Y-107400000D03*
D13*
X121880000Y-94500000D03*
D14*
X124155000Y-94500000D03*
D13*
X342470000Y-94500000D03*
D14*
X344745000Y-94500000D03*
D13*
X179930000Y-94500000D03*
D14*
X182205000Y-94500000D03*
D15*
X220750000Y-108500000D03*
M02*
