G04 #@! TF.GenerationSoftware,KiCad,Pcbnew,(6.0.7)*
G04 #@! TF.CreationDate,2022-10-27T11:47:29+02:00*
G04 #@! TF.ProjectId,Treiber,54726569-6265-4722-9e6b-696361645f70,rev?*
G04 #@! TF.SameCoordinates,Original*
G04 #@! TF.FileFunction,Paste,Top*
G04 #@! TF.FilePolarity,Positive*
%FSLAX46Y46*%
G04 Gerber Fmt 4.6, Leading zero omitted, Abs format (unit mm)*
G04 Created by KiCad (PCBNEW (6.0.7)) date 2022-10-27 11:47:29*
%MOMM*%
%LPD*%
G01*
G04 APERTURE LIST*
G04 Aperture macros list*
%AMRoundRect*
0 Rectangle with rounded corners*
0 $1 Rounding radius*
0 $2 $3 $4 $5 $6 $7 $8 $9 X,Y pos of 4 corners*
0 Add a 4 corners polygon primitive as box body*
4,1,4,$2,$3,$4,$5,$6,$7,$8,$9,$2,$3,0*
0 Add four circle primitives for the rounded corners*
1,1,$1+$1,$2,$3*
1,1,$1+$1,$4,$5*
1,1,$1+$1,$6,$7*
1,1,$1+$1,$8,$9*
0 Add four rect primitives between the rounded corners*
20,1,$1+$1,$2,$3,$4,$5,0*
20,1,$1+$1,$4,$5,$6,$7,0*
20,1,$1+$1,$6,$7,$8,$9,0*
20,1,$1+$1,$8,$9,$2,$3,0*%
G04 Aperture macros list end*
%ADD10C,0.100000*%
%ADD11R,2.200000X2.200000*%
%ADD12R,1.250000X2.200000*%
%ADD13R,4.000000X1.500000*%
%ADD14R,0.450000X0.600000*%
%ADD15RoundRect,0.225000X-0.250000X0.225000X-0.250000X-0.225000X0.250000X-0.225000X0.250000X0.225000X0*%
%ADD16RoundRect,0.050000X-0.250000X-0.050000X0.250000X-0.050000X0.250000X0.050000X-0.250000X0.050000X0*%
%ADD17RoundRect,0.050000X-0.300000X-0.050000X0.300000X-0.050000X0.300000X0.050000X-0.300000X0.050000X0*%
%ADD18RoundRect,0.200000X0.275000X-0.200000X0.275000X0.200000X-0.275000X0.200000X-0.275000X-0.200000X0*%
%ADD19RoundRect,0.200000X-0.275000X0.200000X-0.275000X-0.200000X0.275000X-0.200000X0.275000X0.200000X0*%
%ADD20RoundRect,0.250000X1.100000X-0.325000X1.100000X0.325000X-1.100000X0.325000X-1.100000X-0.325000X0*%
%ADD21RoundRect,0.250000X-1.100000X0.325000X-1.100000X-0.325000X1.100000X-0.325000X1.100000X0.325000X0*%
%ADD22RoundRect,0.225000X0.225000X0.250000X-0.225000X0.250000X-0.225000X-0.250000X0.225000X-0.250000X0*%
G04 APERTURE END LIST*
D10*
X344879000Y-104887000D02*
X345479000Y-104887000D01*
X346854000Y-104912000D02*
X345954000Y-104912000D01*
X345954000Y-104812000D02*
X346854000Y-104812000D01*
X345479000Y-104987000D02*
X344879000Y-104987000D01*
X345479000Y-104887000D02*
X345479000Y-104987000D01*
X345954000Y-105112000D02*
X345954000Y-104812000D01*
X346054000Y-104812000D02*
X346054000Y-105112000D01*
X346054000Y-105112000D02*
X345954000Y-105112000D01*
X346854000Y-104812000D02*
X346854000Y-104912000D01*
X344879000Y-104987000D02*
X344879000Y-104887000D01*
D11*
X330860000Y-94500000D03*
D12*
X333135000Y-94500000D03*
D11*
X261210000Y-94500000D03*
D12*
X263485000Y-94500000D03*
D11*
X168320000Y-94500000D03*
D12*
X170595000Y-94500000D03*
D11*
X319250000Y-94500000D03*
D12*
X321525000Y-94500000D03*
D11*
X249590000Y-94500000D03*
D12*
X251865000Y-94500000D03*
D11*
X110270000Y-94500000D03*
D12*
X112545000Y-94500000D03*
D13*
X340300000Y-107000000D03*
X340300000Y-103400000D03*
D11*
X237980000Y-94500000D03*
D12*
X240255000Y-94500000D03*
D14*
X353500000Y-104350000D03*
X353500000Y-106450000D03*
D15*
X343700000Y-104625000D03*
X343700000Y-106175000D03*
D11*
X307640000Y-94500000D03*
D12*
X309915000Y-94500000D03*
D11*
X87100000Y-94500000D03*
D12*
X89375000Y-94500000D03*
D11*
X226370000Y-94500000D03*
D12*
X228645000Y-94500000D03*
D11*
X191540000Y-94500000D03*
D12*
X193815000Y-94500000D03*
D16*
X345229000Y-105587000D03*
D17*
X345279000Y-106387000D03*
D16*
X346529000Y-106387000D03*
X346529000Y-105362000D03*
D11*
X145100000Y-94500000D03*
D12*
X147375000Y-94500000D03*
D18*
X351600000Y-110225000D03*
X351600000Y-108575000D03*
D11*
X98660000Y-94500000D03*
D12*
X100935000Y-94500000D03*
D19*
X351800000Y-103775000D03*
X351800000Y-105425000D03*
D20*
X348800000Y-106350000D03*
X348800000Y-103400000D03*
D11*
X203150000Y-94500000D03*
D12*
X205425000Y-94500000D03*
D11*
X133490000Y-94500000D03*
D12*
X135765000Y-94500000D03*
D21*
X348800000Y-107900000D03*
X348800000Y-110850000D03*
D11*
X354060000Y-94500000D03*
D12*
X356335000Y-94500000D03*
D11*
X214760000Y-94500000D03*
D12*
X217035000Y-94500000D03*
D11*
X156710000Y-94500000D03*
D12*
X158985000Y-94500000D03*
D11*
X296030000Y-94500000D03*
D12*
X298305000Y-94500000D03*
D11*
X284420000Y-94500000D03*
D12*
X286695000Y-94500000D03*
D11*
X272810000Y-94500000D03*
D12*
X275085000Y-94500000D03*
D22*
X346705000Y-107400000D03*
X345155000Y-107400000D03*
D11*
X121880000Y-94500000D03*
D12*
X124155000Y-94500000D03*
D11*
X342470000Y-94500000D03*
D12*
X344745000Y-94500000D03*
D11*
X179930000Y-94500000D03*
D12*
X182205000Y-94500000D03*
M02*
