%TF.GenerationSoftware,KiCad,Pcbnew,7.0.9*%
%TF.CreationDate,2025-11-01T18:49:03+01:00*%
%TF.ProjectId,Treiber,54726569-6265-4722-9e6b-696361645f70,rev?*%
%TF.SameCoordinates,Original*%
%TF.FileFunction,Drillmap*%
%TF.FilePolarity,Positive*%
%FSLAX45Y45*%
G04 Gerber Fmt 4.5, Leading zero omitted, Abs format (unit mm)*
G04 Created by KiCad (PCBNEW 7.0.9) date 2025-11-01 18:49:03*
%MOMM*%
%LPD*%
G01*
G04 APERTURE LIST*
%ADD10C,0.100000*%
%ADD11C,0.200000*%
%ADD12C,0.320000*%
%ADD13C,0.430000*%
G04 APERTURE END LIST*
D10*
X8200000Y-7900000D02*
X8200000Y-11000000D01*
X36150000Y-7900000D02*
X36150000Y-11000000D01*
X35700000Y-11150000D02*
X35700000Y-11280000D01*
X36150000Y-11000000D02*
X35850000Y-11000000D01*
X35700000Y-11280000D02*
X8350000Y-11280000D01*
X35700000Y-7750000D02*
G75*
G03*
X35850000Y-7900000I150000J0D01*
G01*
X8350000Y-11150000D02*
G75*
G03*
X8200000Y-11000000I-150000J0D01*
G01*
X35700000Y-7620000D02*
X8350000Y-7620000D01*
X36150000Y-7900000D02*
X35850000Y-7900000D01*
X35850000Y-11000000D02*
G75*
G03*
X35700000Y-11150000I0J-150000D01*
G01*
X8350000Y-11280000D02*
X8350000Y-11150000D01*
X8200000Y-7900000D02*
G75*
G03*
X8350000Y-7750000I0J150000D01*
G01*
X35700000Y-7750000D02*
X35700000Y-7620000D01*
X8350000Y-7620000D02*
X8350000Y-7750000D01*
D11*
D12*
X13115000Y-7890000D02*
X13435000Y-8210000D01*
X13435000Y-7890000D02*
X13115000Y-8210000D01*
X13115000Y-10690000D02*
X13435000Y-11010000D01*
X13435000Y-10690000D02*
X13115000Y-11010000D01*
X21915000Y-7890000D02*
X22235000Y-8210000D01*
X22235000Y-7890000D02*
X21915000Y-8210000D01*
X21915000Y-10690000D02*
X22235000Y-11010000D01*
X22235000Y-10690000D02*
X21915000Y-11010000D01*
X30715000Y-7890000D02*
X31035000Y-8210000D01*
X31035000Y-7890000D02*
X30715000Y-8210000D01*
X30715000Y-10690000D02*
X31035000Y-11010000D01*
X31035000Y-10690000D02*
X30715000Y-11010000D01*
D13*
X16115000Y-10350000D02*
G75*
G03*
X16115000Y-10350000I-215000J0D01*
G01*
D11*
X8455777Y-11596484D02*
X8455777Y-11396484D01*
X8455777Y-11396484D02*
X8503396Y-11396484D01*
X8503396Y-11396484D02*
X8531967Y-11406008D01*
X8531967Y-11406008D02*
X8551015Y-11425055D01*
X8551015Y-11425055D02*
X8560539Y-11444103D01*
X8560539Y-11444103D02*
X8570063Y-11482198D01*
X8570063Y-11482198D02*
X8570063Y-11510769D01*
X8570063Y-11510769D02*
X8560539Y-11548865D01*
X8560539Y-11548865D02*
X8551015Y-11567912D01*
X8551015Y-11567912D02*
X8531967Y-11586960D01*
X8531967Y-11586960D02*
X8503396Y-11596484D01*
X8503396Y-11596484D02*
X8455777Y-11596484D01*
X8655777Y-11596484D02*
X8655777Y-11463150D01*
X8655777Y-11501246D02*
X8665301Y-11482198D01*
X8665301Y-11482198D02*
X8674824Y-11472674D01*
X8674824Y-11472674D02*
X8693872Y-11463150D01*
X8693872Y-11463150D02*
X8712920Y-11463150D01*
X8779586Y-11596484D02*
X8779586Y-11463150D01*
X8779586Y-11396484D02*
X8770063Y-11406008D01*
X8770063Y-11406008D02*
X8779586Y-11415531D01*
X8779586Y-11415531D02*
X8789110Y-11406008D01*
X8789110Y-11406008D02*
X8779586Y-11396484D01*
X8779586Y-11396484D02*
X8779586Y-11415531D01*
X8903396Y-11596484D02*
X8884348Y-11586960D01*
X8884348Y-11586960D02*
X8874824Y-11567912D01*
X8874824Y-11567912D02*
X8874824Y-11396484D01*
X9008158Y-11596484D02*
X8989110Y-11586960D01*
X8989110Y-11586960D02*
X8979586Y-11567912D01*
X8979586Y-11567912D02*
X8979586Y-11396484D01*
X9236729Y-11596484D02*
X9236729Y-11396484D01*
X9236729Y-11396484D02*
X9303396Y-11539341D01*
X9303396Y-11539341D02*
X9370063Y-11396484D01*
X9370063Y-11396484D02*
X9370063Y-11596484D01*
X9551015Y-11596484D02*
X9551015Y-11491722D01*
X9551015Y-11491722D02*
X9541491Y-11472674D01*
X9541491Y-11472674D02*
X9522444Y-11463150D01*
X9522444Y-11463150D02*
X9484348Y-11463150D01*
X9484348Y-11463150D02*
X9465301Y-11472674D01*
X9551015Y-11586960D02*
X9531967Y-11596484D01*
X9531967Y-11596484D02*
X9484348Y-11596484D01*
X9484348Y-11596484D02*
X9465301Y-11586960D01*
X9465301Y-11586960D02*
X9455777Y-11567912D01*
X9455777Y-11567912D02*
X9455777Y-11548865D01*
X9455777Y-11548865D02*
X9465301Y-11529817D01*
X9465301Y-11529817D02*
X9484348Y-11520293D01*
X9484348Y-11520293D02*
X9531967Y-11520293D01*
X9531967Y-11520293D02*
X9551015Y-11510769D01*
X9646253Y-11463150D02*
X9646253Y-11663150D01*
X9646253Y-11472674D02*
X9665301Y-11463150D01*
X9665301Y-11463150D02*
X9703396Y-11463150D01*
X9703396Y-11463150D02*
X9722444Y-11472674D01*
X9722444Y-11472674D02*
X9731967Y-11482198D01*
X9731967Y-11482198D02*
X9741491Y-11501246D01*
X9741491Y-11501246D02*
X9741491Y-11558388D01*
X9741491Y-11558388D02*
X9731967Y-11577436D01*
X9731967Y-11577436D02*
X9722444Y-11586960D01*
X9722444Y-11586960D02*
X9703396Y-11596484D01*
X9703396Y-11596484D02*
X9665301Y-11596484D01*
X9665301Y-11596484D02*
X9646253Y-11586960D01*
X9827205Y-11577436D02*
X9836729Y-11586960D01*
X9836729Y-11586960D02*
X9827205Y-11596484D01*
X9827205Y-11596484D02*
X9817682Y-11586960D01*
X9817682Y-11586960D02*
X9827205Y-11577436D01*
X9827205Y-11577436D02*
X9827205Y-11596484D01*
X9827205Y-11472674D02*
X9836729Y-11482198D01*
X9836729Y-11482198D02*
X9827205Y-11491722D01*
X9827205Y-11491722D02*
X9817682Y-11482198D01*
X9817682Y-11482198D02*
X9827205Y-11472674D01*
X9827205Y-11472674D02*
X9827205Y-11491722D01*
X7995000Y-11825000D02*
X8195000Y-12025000D01*
X8195000Y-11825000D02*
X7995000Y-12025000D01*
X8436729Y-11816484D02*
X8560539Y-11816484D01*
X8560539Y-11816484D02*
X8493872Y-11892674D01*
X8493872Y-11892674D02*
X8522444Y-11892674D01*
X8522444Y-11892674D02*
X8541491Y-11902198D01*
X8541491Y-11902198D02*
X8551015Y-11911722D01*
X8551015Y-11911722D02*
X8560539Y-11930769D01*
X8560539Y-11930769D02*
X8560539Y-11978388D01*
X8560539Y-11978388D02*
X8551015Y-11997436D01*
X8551015Y-11997436D02*
X8541491Y-12006960D01*
X8541491Y-12006960D02*
X8522444Y-12016484D01*
X8522444Y-12016484D02*
X8465301Y-12016484D01*
X8465301Y-12016484D02*
X8446253Y-12006960D01*
X8446253Y-12006960D02*
X8436729Y-11997436D01*
X8646253Y-11997436D02*
X8655777Y-12006960D01*
X8655777Y-12006960D02*
X8646253Y-12016484D01*
X8646253Y-12016484D02*
X8636729Y-12006960D01*
X8636729Y-12006960D02*
X8646253Y-11997436D01*
X8646253Y-11997436D02*
X8646253Y-12016484D01*
X8731967Y-11835531D02*
X8741491Y-11826008D01*
X8741491Y-11826008D02*
X8760539Y-11816484D01*
X8760539Y-11816484D02*
X8808158Y-11816484D01*
X8808158Y-11816484D02*
X8827205Y-11826008D01*
X8827205Y-11826008D02*
X8836729Y-11835531D01*
X8836729Y-11835531D02*
X8846253Y-11854579D01*
X8846253Y-11854579D02*
X8846253Y-11873627D01*
X8846253Y-11873627D02*
X8836729Y-11902198D01*
X8836729Y-11902198D02*
X8722444Y-12016484D01*
X8722444Y-12016484D02*
X8846253Y-12016484D01*
X8970063Y-11816484D02*
X8989110Y-11816484D01*
X8989110Y-11816484D02*
X9008158Y-11826008D01*
X9008158Y-11826008D02*
X9017682Y-11835531D01*
X9017682Y-11835531D02*
X9027205Y-11854579D01*
X9027205Y-11854579D02*
X9036729Y-11892674D01*
X9036729Y-11892674D02*
X9036729Y-11940293D01*
X9036729Y-11940293D02*
X9027205Y-11978388D01*
X9027205Y-11978388D02*
X9017682Y-11997436D01*
X9017682Y-11997436D02*
X9008158Y-12006960D01*
X9008158Y-12006960D02*
X8989110Y-12016484D01*
X8989110Y-12016484D02*
X8970063Y-12016484D01*
X8970063Y-12016484D02*
X8951015Y-12006960D01*
X8951015Y-12006960D02*
X8941491Y-11997436D01*
X8941491Y-11997436D02*
X8931967Y-11978388D01*
X8931967Y-11978388D02*
X8922444Y-11940293D01*
X8922444Y-11940293D02*
X8922444Y-11892674D01*
X8922444Y-11892674D02*
X8931967Y-11854579D01*
X8931967Y-11854579D02*
X8941491Y-11835531D01*
X8941491Y-11835531D02*
X8951015Y-11826008D01*
X8951015Y-11826008D02*
X8970063Y-11816484D01*
X9160539Y-11816484D02*
X9179586Y-11816484D01*
X9179586Y-11816484D02*
X9198634Y-11826008D01*
X9198634Y-11826008D02*
X9208158Y-11835531D01*
X9208158Y-11835531D02*
X9217682Y-11854579D01*
X9217682Y-11854579D02*
X9227205Y-11892674D01*
X9227205Y-11892674D02*
X9227205Y-11940293D01*
X9227205Y-11940293D02*
X9217682Y-11978388D01*
X9217682Y-11978388D02*
X9208158Y-11997436D01*
X9208158Y-11997436D02*
X9198634Y-12006960D01*
X9198634Y-12006960D02*
X9179586Y-12016484D01*
X9179586Y-12016484D02*
X9160539Y-12016484D01*
X9160539Y-12016484D02*
X9141491Y-12006960D01*
X9141491Y-12006960D02*
X9131967Y-11997436D01*
X9131967Y-11997436D02*
X9122444Y-11978388D01*
X9122444Y-11978388D02*
X9112920Y-11940293D01*
X9112920Y-11940293D02*
X9112920Y-11892674D01*
X9112920Y-11892674D02*
X9122444Y-11854579D01*
X9122444Y-11854579D02*
X9131967Y-11835531D01*
X9131967Y-11835531D02*
X9141491Y-11826008D01*
X9141491Y-11826008D02*
X9160539Y-11816484D01*
X9312920Y-12016484D02*
X9312920Y-11883150D01*
X9312920Y-11902198D02*
X9322444Y-11892674D01*
X9322444Y-11892674D02*
X9341491Y-11883150D01*
X9341491Y-11883150D02*
X9370063Y-11883150D01*
X9370063Y-11883150D02*
X9389110Y-11892674D01*
X9389110Y-11892674D02*
X9398634Y-11911722D01*
X9398634Y-11911722D02*
X9398634Y-12016484D01*
X9398634Y-11911722D02*
X9408158Y-11892674D01*
X9408158Y-11892674D02*
X9427205Y-11883150D01*
X9427205Y-11883150D02*
X9455777Y-11883150D01*
X9455777Y-11883150D02*
X9474825Y-11892674D01*
X9474825Y-11892674D02*
X9484348Y-11911722D01*
X9484348Y-11911722D02*
X9484348Y-12016484D01*
X9579586Y-12016484D02*
X9579586Y-11883150D01*
X9579586Y-11902198D02*
X9589110Y-11892674D01*
X9589110Y-11892674D02*
X9608158Y-11883150D01*
X9608158Y-11883150D02*
X9636729Y-11883150D01*
X9636729Y-11883150D02*
X9655777Y-11892674D01*
X9655777Y-11892674D02*
X9665301Y-11911722D01*
X9665301Y-11911722D02*
X9665301Y-12016484D01*
X9665301Y-11911722D02*
X9674825Y-11892674D01*
X9674825Y-11892674D02*
X9693872Y-11883150D01*
X9693872Y-11883150D02*
X9722444Y-11883150D01*
X9722444Y-11883150D02*
X9741491Y-11892674D01*
X9741491Y-11892674D02*
X9751015Y-11911722D01*
X9751015Y-11911722D02*
X9751015Y-12016484D01*
X10141491Y-11806960D02*
X9970063Y-12064103D01*
X10398634Y-11816484D02*
X10417682Y-11816484D01*
X10417682Y-11816484D02*
X10436729Y-11826008D01*
X10436729Y-11826008D02*
X10446253Y-11835531D01*
X10446253Y-11835531D02*
X10455777Y-11854579D01*
X10455777Y-11854579D02*
X10465301Y-11892674D01*
X10465301Y-11892674D02*
X10465301Y-11940293D01*
X10465301Y-11940293D02*
X10455777Y-11978388D01*
X10455777Y-11978388D02*
X10446253Y-11997436D01*
X10446253Y-11997436D02*
X10436729Y-12006960D01*
X10436729Y-12006960D02*
X10417682Y-12016484D01*
X10417682Y-12016484D02*
X10398634Y-12016484D01*
X10398634Y-12016484D02*
X10379587Y-12006960D01*
X10379587Y-12006960D02*
X10370063Y-11997436D01*
X10370063Y-11997436D02*
X10360539Y-11978388D01*
X10360539Y-11978388D02*
X10351015Y-11940293D01*
X10351015Y-11940293D02*
X10351015Y-11892674D01*
X10351015Y-11892674D02*
X10360539Y-11854579D01*
X10360539Y-11854579D02*
X10370063Y-11835531D01*
X10370063Y-11835531D02*
X10379587Y-11826008D01*
X10379587Y-11826008D02*
X10398634Y-11816484D01*
X10551015Y-11997436D02*
X10560539Y-12006960D01*
X10560539Y-12006960D02*
X10551015Y-12016484D01*
X10551015Y-12016484D02*
X10541491Y-12006960D01*
X10541491Y-12006960D02*
X10551015Y-11997436D01*
X10551015Y-11997436D02*
X10551015Y-12016484D01*
X10751015Y-12016484D02*
X10636729Y-12016484D01*
X10693872Y-12016484D02*
X10693872Y-11816484D01*
X10693872Y-11816484D02*
X10674825Y-11845055D01*
X10674825Y-11845055D02*
X10655777Y-11864103D01*
X10655777Y-11864103D02*
X10636729Y-11873627D01*
X10827206Y-11835531D02*
X10836729Y-11826008D01*
X10836729Y-11826008D02*
X10855777Y-11816484D01*
X10855777Y-11816484D02*
X10903396Y-11816484D01*
X10903396Y-11816484D02*
X10922444Y-11826008D01*
X10922444Y-11826008D02*
X10931968Y-11835531D01*
X10931968Y-11835531D02*
X10941491Y-11854579D01*
X10941491Y-11854579D02*
X10941491Y-11873627D01*
X10941491Y-11873627D02*
X10931968Y-11902198D01*
X10931968Y-11902198D02*
X10817682Y-12016484D01*
X10817682Y-12016484D02*
X10941491Y-12016484D01*
X11112920Y-11816484D02*
X11074825Y-11816484D01*
X11074825Y-11816484D02*
X11055777Y-11826008D01*
X11055777Y-11826008D02*
X11046253Y-11835531D01*
X11046253Y-11835531D02*
X11027206Y-11864103D01*
X11027206Y-11864103D02*
X11017682Y-11902198D01*
X11017682Y-11902198D02*
X11017682Y-11978388D01*
X11017682Y-11978388D02*
X11027206Y-11997436D01*
X11027206Y-11997436D02*
X11036729Y-12006960D01*
X11036729Y-12006960D02*
X11055777Y-12016484D01*
X11055777Y-12016484D02*
X11093872Y-12016484D01*
X11093872Y-12016484D02*
X11112920Y-12006960D01*
X11112920Y-12006960D02*
X11122444Y-11997436D01*
X11122444Y-11997436D02*
X11131968Y-11978388D01*
X11131968Y-11978388D02*
X11131968Y-11930769D01*
X11131968Y-11930769D02*
X11122444Y-11911722D01*
X11122444Y-11911722D02*
X11112920Y-11902198D01*
X11112920Y-11902198D02*
X11093872Y-11892674D01*
X11093872Y-11892674D02*
X11055777Y-11892674D01*
X11055777Y-11892674D02*
X11036729Y-11902198D01*
X11036729Y-11902198D02*
X11027206Y-11911722D01*
X11027206Y-11911722D02*
X11017682Y-11930769D01*
X11255777Y-11816484D02*
X11274825Y-11816484D01*
X11274825Y-11816484D02*
X11293872Y-11826008D01*
X11293872Y-11826008D02*
X11303396Y-11835531D01*
X11303396Y-11835531D02*
X11312920Y-11854579D01*
X11312920Y-11854579D02*
X11322444Y-11892674D01*
X11322444Y-11892674D02*
X11322444Y-11940293D01*
X11322444Y-11940293D02*
X11312920Y-11978388D01*
X11312920Y-11978388D02*
X11303396Y-11997436D01*
X11303396Y-11997436D02*
X11293872Y-12006960D01*
X11293872Y-12006960D02*
X11274825Y-12016484D01*
X11274825Y-12016484D02*
X11255777Y-12016484D01*
X11255777Y-12016484D02*
X11236729Y-12006960D01*
X11236729Y-12006960D02*
X11227206Y-11997436D01*
X11227206Y-11997436D02*
X11217682Y-11978388D01*
X11217682Y-11978388D02*
X11208158Y-11940293D01*
X11208158Y-11940293D02*
X11208158Y-11892674D01*
X11208158Y-11892674D02*
X11217682Y-11854579D01*
X11217682Y-11854579D02*
X11227206Y-11835531D01*
X11227206Y-11835531D02*
X11236729Y-11826008D01*
X11236729Y-11826008D02*
X11255777Y-11816484D01*
X11398634Y-11816484D02*
X11398634Y-11854579D01*
X11474825Y-11816484D02*
X11474825Y-11854579D01*
X11770063Y-12092674D02*
X11760539Y-12083150D01*
X11760539Y-12083150D02*
X11741491Y-12054579D01*
X11741491Y-12054579D02*
X11731968Y-12035531D01*
X11731968Y-12035531D02*
X11722444Y-12006960D01*
X11722444Y-12006960D02*
X11712920Y-11959341D01*
X11712920Y-11959341D02*
X11712920Y-11921246D01*
X11712920Y-11921246D02*
X11722444Y-11873627D01*
X11722444Y-11873627D02*
X11731968Y-11845055D01*
X11731968Y-11845055D02*
X11741491Y-11826008D01*
X11741491Y-11826008D02*
X11760539Y-11797436D01*
X11760539Y-11797436D02*
X11770063Y-11787912D01*
X11931968Y-11816484D02*
X11893872Y-11816484D01*
X11893872Y-11816484D02*
X11874825Y-11826008D01*
X11874825Y-11826008D02*
X11865301Y-11835531D01*
X11865301Y-11835531D02*
X11846253Y-11864103D01*
X11846253Y-11864103D02*
X11836729Y-11902198D01*
X11836729Y-11902198D02*
X11836729Y-11978388D01*
X11836729Y-11978388D02*
X11846253Y-11997436D01*
X11846253Y-11997436D02*
X11855777Y-12006960D01*
X11855777Y-12006960D02*
X11874825Y-12016484D01*
X11874825Y-12016484D02*
X11912920Y-12016484D01*
X11912920Y-12016484D02*
X11931968Y-12006960D01*
X11931968Y-12006960D02*
X11941491Y-11997436D01*
X11941491Y-11997436D02*
X11951015Y-11978388D01*
X11951015Y-11978388D02*
X11951015Y-11930769D01*
X11951015Y-11930769D02*
X11941491Y-11911722D01*
X11941491Y-11911722D02*
X11931968Y-11902198D01*
X11931968Y-11902198D02*
X11912920Y-11892674D01*
X11912920Y-11892674D02*
X11874825Y-11892674D01*
X11874825Y-11892674D02*
X11855777Y-11902198D01*
X11855777Y-11902198D02*
X11846253Y-11911722D01*
X11846253Y-11911722D02*
X11836729Y-11930769D01*
X12189110Y-12016484D02*
X12189110Y-11816484D01*
X12274825Y-12016484D02*
X12274825Y-11911722D01*
X12274825Y-11911722D02*
X12265301Y-11892674D01*
X12265301Y-11892674D02*
X12246253Y-11883150D01*
X12246253Y-11883150D02*
X12217682Y-11883150D01*
X12217682Y-11883150D02*
X12198634Y-11892674D01*
X12198634Y-11892674D02*
X12189110Y-11902198D01*
X12398634Y-12016484D02*
X12379587Y-12006960D01*
X12379587Y-12006960D02*
X12370063Y-11997436D01*
X12370063Y-11997436D02*
X12360539Y-11978388D01*
X12360539Y-11978388D02*
X12360539Y-11921246D01*
X12360539Y-11921246D02*
X12370063Y-11902198D01*
X12370063Y-11902198D02*
X12379587Y-11892674D01*
X12379587Y-11892674D02*
X12398634Y-11883150D01*
X12398634Y-11883150D02*
X12427206Y-11883150D01*
X12427206Y-11883150D02*
X12446253Y-11892674D01*
X12446253Y-11892674D02*
X12455777Y-11902198D01*
X12455777Y-11902198D02*
X12465301Y-11921246D01*
X12465301Y-11921246D02*
X12465301Y-11978388D01*
X12465301Y-11978388D02*
X12455777Y-11997436D01*
X12455777Y-11997436D02*
X12446253Y-12006960D01*
X12446253Y-12006960D02*
X12427206Y-12016484D01*
X12427206Y-12016484D02*
X12398634Y-12016484D01*
X12579587Y-12016484D02*
X12560539Y-12006960D01*
X12560539Y-12006960D02*
X12551015Y-11987912D01*
X12551015Y-11987912D02*
X12551015Y-11816484D01*
X12731968Y-12006960D02*
X12712920Y-12016484D01*
X12712920Y-12016484D02*
X12674825Y-12016484D01*
X12674825Y-12016484D02*
X12655777Y-12006960D01*
X12655777Y-12006960D02*
X12646253Y-11987912D01*
X12646253Y-11987912D02*
X12646253Y-11911722D01*
X12646253Y-11911722D02*
X12655777Y-11892674D01*
X12655777Y-11892674D02*
X12674825Y-11883150D01*
X12674825Y-11883150D02*
X12712920Y-11883150D01*
X12712920Y-11883150D02*
X12731968Y-11892674D01*
X12731968Y-11892674D02*
X12741491Y-11911722D01*
X12741491Y-11911722D02*
X12741491Y-11930769D01*
X12741491Y-11930769D02*
X12646253Y-11949817D01*
X12817682Y-12006960D02*
X12836730Y-12016484D01*
X12836730Y-12016484D02*
X12874825Y-12016484D01*
X12874825Y-12016484D02*
X12893872Y-12006960D01*
X12893872Y-12006960D02*
X12903396Y-11987912D01*
X12903396Y-11987912D02*
X12903396Y-11978388D01*
X12903396Y-11978388D02*
X12893872Y-11959341D01*
X12893872Y-11959341D02*
X12874825Y-11949817D01*
X12874825Y-11949817D02*
X12846253Y-11949817D01*
X12846253Y-11949817D02*
X12827206Y-11940293D01*
X12827206Y-11940293D02*
X12817682Y-11921246D01*
X12817682Y-11921246D02*
X12817682Y-11911722D01*
X12817682Y-11911722D02*
X12827206Y-11892674D01*
X12827206Y-11892674D02*
X12846253Y-11883150D01*
X12846253Y-11883150D02*
X12874825Y-11883150D01*
X12874825Y-11883150D02*
X12893872Y-11892674D01*
X12970063Y-12092674D02*
X12979587Y-12083150D01*
X12979587Y-12083150D02*
X12998634Y-12054579D01*
X12998634Y-12054579D02*
X13008158Y-12035531D01*
X13008158Y-12035531D02*
X13017682Y-12006960D01*
X13017682Y-12006960D02*
X13027206Y-11959341D01*
X13027206Y-11959341D02*
X13027206Y-11921246D01*
X13027206Y-11921246D02*
X13017682Y-11873627D01*
X13017682Y-11873627D02*
X13008158Y-11845055D01*
X13008158Y-11845055D02*
X12998634Y-11826008D01*
X12998634Y-11826008D02*
X12979587Y-11797436D01*
X12979587Y-11797436D02*
X12970063Y-11787912D01*
X13331968Y-12092674D02*
X13322444Y-12083150D01*
X13322444Y-12083150D02*
X13303396Y-12054579D01*
X13303396Y-12054579D02*
X13293872Y-12035531D01*
X13293872Y-12035531D02*
X13284349Y-12006960D01*
X13284349Y-12006960D02*
X13274825Y-11959341D01*
X13274825Y-11959341D02*
X13274825Y-11921246D01*
X13274825Y-11921246D02*
X13284349Y-11873627D01*
X13284349Y-11873627D02*
X13293872Y-11845055D01*
X13293872Y-11845055D02*
X13303396Y-11826008D01*
X13303396Y-11826008D02*
X13322444Y-11797436D01*
X13322444Y-11797436D02*
X13331968Y-11787912D01*
X13408158Y-11883150D02*
X13408158Y-12016484D01*
X13408158Y-11902198D02*
X13417682Y-11892674D01*
X13417682Y-11892674D02*
X13436730Y-11883150D01*
X13436730Y-11883150D02*
X13465301Y-11883150D01*
X13465301Y-11883150D02*
X13484349Y-11892674D01*
X13484349Y-11892674D02*
X13493872Y-11911722D01*
X13493872Y-11911722D02*
X13493872Y-12016484D01*
X13617682Y-12016484D02*
X13598634Y-12006960D01*
X13598634Y-12006960D02*
X13589111Y-11997436D01*
X13589111Y-11997436D02*
X13579587Y-11978388D01*
X13579587Y-11978388D02*
X13579587Y-11921246D01*
X13579587Y-11921246D02*
X13589111Y-11902198D01*
X13589111Y-11902198D02*
X13598634Y-11892674D01*
X13598634Y-11892674D02*
X13617682Y-11883150D01*
X13617682Y-11883150D02*
X13646253Y-11883150D01*
X13646253Y-11883150D02*
X13665301Y-11892674D01*
X13665301Y-11892674D02*
X13674825Y-11902198D01*
X13674825Y-11902198D02*
X13684349Y-11921246D01*
X13684349Y-11921246D02*
X13684349Y-11978388D01*
X13684349Y-11978388D02*
X13674825Y-11997436D01*
X13674825Y-11997436D02*
X13665301Y-12006960D01*
X13665301Y-12006960D02*
X13646253Y-12016484D01*
X13646253Y-12016484D02*
X13617682Y-12016484D01*
X13741492Y-11883150D02*
X13817682Y-11883150D01*
X13770063Y-11816484D02*
X13770063Y-11987912D01*
X13770063Y-11987912D02*
X13779587Y-12006960D01*
X13779587Y-12006960D02*
X13798634Y-12016484D01*
X13798634Y-12016484D02*
X13817682Y-12016484D01*
X14036730Y-11883150D02*
X14036730Y-12083150D01*
X14036730Y-11892674D02*
X14055777Y-11883150D01*
X14055777Y-11883150D02*
X14093873Y-11883150D01*
X14093873Y-11883150D02*
X14112920Y-11892674D01*
X14112920Y-11892674D02*
X14122444Y-11902198D01*
X14122444Y-11902198D02*
X14131968Y-11921246D01*
X14131968Y-11921246D02*
X14131968Y-11978388D01*
X14131968Y-11978388D02*
X14122444Y-11997436D01*
X14122444Y-11997436D02*
X14112920Y-12006960D01*
X14112920Y-12006960D02*
X14093873Y-12016484D01*
X14093873Y-12016484D02*
X14055777Y-12016484D01*
X14055777Y-12016484D02*
X14036730Y-12006960D01*
X14246253Y-12016484D02*
X14227206Y-12006960D01*
X14227206Y-12006960D02*
X14217682Y-11987912D01*
X14217682Y-11987912D02*
X14217682Y-11816484D01*
X14408158Y-12016484D02*
X14408158Y-11911722D01*
X14408158Y-11911722D02*
X14398634Y-11892674D01*
X14398634Y-11892674D02*
X14379587Y-11883150D01*
X14379587Y-11883150D02*
X14341492Y-11883150D01*
X14341492Y-11883150D02*
X14322444Y-11892674D01*
X14408158Y-12006960D02*
X14389111Y-12016484D01*
X14389111Y-12016484D02*
X14341492Y-12016484D01*
X14341492Y-12016484D02*
X14322444Y-12006960D01*
X14322444Y-12006960D02*
X14312920Y-11987912D01*
X14312920Y-11987912D02*
X14312920Y-11968865D01*
X14312920Y-11968865D02*
X14322444Y-11949817D01*
X14322444Y-11949817D02*
X14341492Y-11940293D01*
X14341492Y-11940293D02*
X14389111Y-11940293D01*
X14389111Y-11940293D02*
X14408158Y-11930769D01*
X14474825Y-11883150D02*
X14551015Y-11883150D01*
X14503396Y-11816484D02*
X14503396Y-11987912D01*
X14503396Y-11987912D02*
X14512920Y-12006960D01*
X14512920Y-12006960D02*
X14531968Y-12016484D01*
X14531968Y-12016484D02*
X14551015Y-12016484D01*
X14693873Y-12006960D02*
X14674825Y-12016484D01*
X14674825Y-12016484D02*
X14636730Y-12016484D01*
X14636730Y-12016484D02*
X14617682Y-12006960D01*
X14617682Y-12006960D02*
X14608158Y-11987912D01*
X14608158Y-11987912D02*
X14608158Y-11911722D01*
X14608158Y-11911722D02*
X14617682Y-11892674D01*
X14617682Y-11892674D02*
X14636730Y-11883150D01*
X14636730Y-11883150D02*
X14674825Y-11883150D01*
X14674825Y-11883150D02*
X14693873Y-11892674D01*
X14693873Y-11892674D02*
X14703396Y-11911722D01*
X14703396Y-11911722D02*
X14703396Y-11930769D01*
X14703396Y-11930769D02*
X14608158Y-11949817D01*
X14874825Y-12016484D02*
X14874825Y-11816484D01*
X14874825Y-12006960D02*
X14855777Y-12016484D01*
X14855777Y-12016484D02*
X14817682Y-12016484D01*
X14817682Y-12016484D02*
X14798634Y-12006960D01*
X14798634Y-12006960D02*
X14789111Y-11997436D01*
X14789111Y-11997436D02*
X14779587Y-11978388D01*
X14779587Y-11978388D02*
X14779587Y-11921246D01*
X14779587Y-11921246D02*
X14789111Y-11902198D01*
X14789111Y-11902198D02*
X14798634Y-11892674D01*
X14798634Y-11892674D02*
X14817682Y-11883150D01*
X14817682Y-11883150D02*
X14855777Y-11883150D01*
X14855777Y-11883150D02*
X14874825Y-11892674D01*
X14951015Y-12092674D02*
X14960539Y-12083150D01*
X14960539Y-12083150D02*
X14979587Y-12054579D01*
X14979587Y-12054579D02*
X14989111Y-12035531D01*
X14989111Y-12035531D02*
X14998634Y-12006960D01*
X14998634Y-12006960D02*
X15008158Y-11959341D01*
X15008158Y-11959341D02*
X15008158Y-11921246D01*
X15008158Y-11921246D02*
X14998634Y-11873627D01*
X14998634Y-11873627D02*
X14989111Y-11845055D01*
X14989111Y-11845055D02*
X14979587Y-11826008D01*
X14979587Y-11826008D02*
X14960539Y-11797436D01*
X14960539Y-11797436D02*
X14951015Y-11787912D01*
X8195000Y-12245000D02*
G75*
G03*
X8195000Y-12245000I-100000J0D01*
G01*
X8541491Y-12203150D02*
X8541491Y-12336484D01*
X8493872Y-12126960D02*
X8446253Y-12269817D01*
X8446253Y-12269817D02*
X8570063Y-12269817D01*
X8646253Y-12317436D02*
X8655777Y-12326960D01*
X8655777Y-12326960D02*
X8646253Y-12336484D01*
X8646253Y-12336484D02*
X8636729Y-12326960D01*
X8636729Y-12326960D02*
X8646253Y-12317436D01*
X8646253Y-12317436D02*
X8646253Y-12336484D01*
X8722444Y-12136484D02*
X8846253Y-12136484D01*
X8846253Y-12136484D02*
X8779586Y-12212674D01*
X8779586Y-12212674D02*
X8808158Y-12212674D01*
X8808158Y-12212674D02*
X8827205Y-12222198D01*
X8827205Y-12222198D02*
X8836729Y-12231722D01*
X8836729Y-12231722D02*
X8846253Y-12250769D01*
X8846253Y-12250769D02*
X8846253Y-12298388D01*
X8846253Y-12298388D02*
X8836729Y-12317436D01*
X8836729Y-12317436D02*
X8827205Y-12326960D01*
X8827205Y-12326960D02*
X8808158Y-12336484D01*
X8808158Y-12336484D02*
X8751015Y-12336484D01*
X8751015Y-12336484D02*
X8731967Y-12326960D01*
X8731967Y-12326960D02*
X8722444Y-12317436D01*
X8970063Y-12136484D02*
X8989110Y-12136484D01*
X8989110Y-12136484D02*
X9008158Y-12146008D01*
X9008158Y-12146008D02*
X9017682Y-12155531D01*
X9017682Y-12155531D02*
X9027205Y-12174579D01*
X9027205Y-12174579D02*
X9036729Y-12212674D01*
X9036729Y-12212674D02*
X9036729Y-12260293D01*
X9036729Y-12260293D02*
X9027205Y-12298388D01*
X9027205Y-12298388D02*
X9017682Y-12317436D01*
X9017682Y-12317436D02*
X9008158Y-12326960D01*
X9008158Y-12326960D02*
X8989110Y-12336484D01*
X8989110Y-12336484D02*
X8970063Y-12336484D01*
X8970063Y-12336484D02*
X8951015Y-12326960D01*
X8951015Y-12326960D02*
X8941491Y-12317436D01*
X8941491Y-12317436D02*
X8931967Y-12298388D01*
X8931967Y-12298388D02*
X8922444Y-12260293D01*
X8922444Y-12260293D02*
X8922444Y-12212674D01*
X8922444Y-12212674D02*
X8931967Y-12174579D01*
X8931967Y-12174579D02*
X8941491Y-12155531D01*
X8941491Y-12155531D02*
X8951015Y-12146008D01*
X8951015Y-12146008D02*
X8970063Y-12136484D01*
X9160539Y-12136484D02*
X9179586Y-12136484D01*
X9179586Y-12136484D02*
X9198634Y-12146008D01*
X9198634Y-12146008D02*
X9208158Y-12155531D01*
X9208158Y-12155531D02*
X9217682Y-12174579D01*
X9217682Y-12174579D02*
X9227205Y-12212674D01*
X9227205Y-12212674D02*
X9227205Y-12260293D01*
X9227205Y-12260293D02*
X9217682Y-12298388D01*
X9217682Y-12298388D02*
X9208158Y-12317436D01*
X9208158Y-12317436D02*
X9198634Y-12326960D01*
X9198634Y-12326960D02*
X9179586Y-12336484D01*
X9179586Y-12336484D02*
X9160539Y-12336484D01*
X9160539Y-12336484D02*
X9141491Y-12326960D01*
X9141491Y-12326960D02*
X9131967Y-12317436D01*
X9131967Y-12317436D02*
X9122444Y-12298388D01*
X9122444Y-12298388D02*
X9112920Y-12260293D01*
X9112920Y-12260293D02*
X9112920Y-12212674D01*
X9112920Y-12212674D02*
X9122444Y-12174579D01*
X9122444Y-12174579D02*
X9131967Y-12155531D01*
X9131967Y-12155531D02*
X9141491Y-12146008D01*
X9141491Y-12146008D02*
X9160539Y-12136484D01*
X9312920Y-12336484D02*
X9312920Y-12203150D01*
X9312920Y-12222198D02*
X9322444Y-12212674D01*
X9322444Y-12212674D02*
X9341491Y-12203150D01*
X9341491Y-12203150D02*
X9370063Y-12203150D01*
X9370063Y-12203150D02*
X9389110Y-12212674D01*
X9389110Y-12212674D02*
X9398634Y-12231722D01*
X9398634Y-12231722D02*
X9398634Y-12336484D01*
X9398634Y-12231722D02*
X9408158Y-12212674D01*
X9408158Y-12212674D02*
X9427205Y-12203150D01*
X9427205Y-12203150D02*
X9455777Y-12203150D01*
X9455777Y-12203150D02*
X9474825Y-12212674D01*
X9474825Y-12212674D02*
X9484348Y-12231722D01*
X9484348Y-12231722D02*
X9484348Y-12336484D01*
X9579586Y-12336484D02*
X9579586Y-12203150D01*
X9579586Y-12222198D02*
X9589110Y-12212674D01*
X9589110Y-12212674D02*
X9608158Y-12203150D01*
X9608158Y-12203150D02*
X9636729Y-12203150D01*
X9636729Y-12203150D02*
X9655777Y-12212674D01*
X9655777Y-12212674D02*
X9665301Y-12231722D01*
X9665301Y-12231722D02*
X9665301Y-12336484D01*
X9665301Y-12231722D02*
X9674825Y-12212674D01*
X9674825Y-12212674D02*
X9693872Y-12203150D01*
X9693872Y-12203150D02*
X9722444Y-12203150D01*
X9722444Y-12203150D02*
X9741491Y-12212674D01*
X9741491Y-12212674D02*
X9751015Y-12231722D01*
X9751015Y-12231722D02*
X9751015Y-12336484D01*
X10141491Y-12126960D02*
X9970063Y-12384103D01*
X10398634Y-12136484D02*
X10417682Y-12136484D01*
X10417682Y-12136484D02*
X10436729Y-12146008D01*
X10436729Y-12146008D02*
X10446253Y-12155531D01*
X10446253Y-12155531D02*
X10455777Y-12174579D01*
X10455777Y-12174579D02*
X10465301Y-12212674D01*
X10465301Y-12212674D02*
X10465301Y-12260293D01*
X10465301Y-12260293D02*
X10455777Y-12298388D01*
X10455777Y-12298388D02*
X10446253Y-12317436D01*
X10446253Y-12317436D02*
X10436729Y-12326960D01*
X10436729Y-12326960D02*
X10417682Y-12336484D01*
X10417682Y-12336484D02*
X10398634Y-12336484D01*
X10398634Y-12336484D02*
X10379587Y-12326960D01*
X10379587Y-12326960D02*
X10370063Y-12317436D01*
X10370063Y-12317436D02*
X10360539Y-12298388D01*
X10360539Y-12298388D02*
X10351015Y-12260293D01*
X10351015Y-12260293D02*
X10351015Y-12212674D01*
X10351015Y-12212674D02*
X10360539Y-12174579D01*
X10360539Y-12174579D02*
X10370063Y-12155531D01*
X10370063Y-12155531D02*
X10379587Y-12146008D01*
X10379587Y-12146008D02*
X10398634Y-12136484D01*
X10551015Y-12317436D02*
X10560539Y-12326960D01*
X10560539Y-12326960D02*
X10551015Y-12336484D01*
X10551015Y-12336484D02*
X10541491Y-12326960D01*
X10541491Y-12326960D02*
X10551015Y-12317436D01*
X10551015Y-12317436D02*
X10551015Y-12336484D01*
X10751015Y-12336484D02*
X10636729Y-12336484D01*
X10693872Y-12336484D02*
X10693872Y-12136484D01*
X10693872Y-12136484D02*
X10674825Y-12165055D01*
X10674825Y-12165055D02*
X10655777Y-12184103D01*
X10655777Y-12184103D02*
X10636729Y-12193627D01*
X10922444Y-12136484D02*
X10884348Y-12136484D01*
X10884348Y-12136484D02*
X10865301Y-12146008D01*
X10865301Y-12146008D02*
X10855777Y-12155531D01*
X10855777Y-12155531D02*
X10836729Y-12184103D01*
X10836729Y-12184103D02*
X10827206Y-12222198D01*
X10827206Y-12222198D02*
X10827206Y-12298388D01*
X10827206Y-12298388D02*
X10836729Y-12317436D01*
X10836729Y-12317436D02*
X10846253Y-12326960D01*
X10846253Y-12326960D02*
X10865301Y-12336484D01*
X10865301Y-12336484D02*
X10903396Y-12336484D01*
X10903396Y-12336484D02*
X10922444Y-12326960D01*
X10922444Y-12326960D02*
X10931968Y-12317436D01*
X10931968Y-12317436D02*
X10941491Y-12298388D01*
X10941491Y-12298388D02*
X10941491Y-12250769D01*
X10941491Y-12250769D02*
X10931968Y-12231722D01*
X10931968Y-12231722D02*
X10922444Y-12222198D01*
X10922444Y-12222198D02*
X10903396Y-12212674D01*
X10903396Y-12212674D02*
X10865301Y-12212674D01*
X10865301Y-12212674D02*
X10846253Y-12222198D01*
X10846253Y-12222198D02*
X10836729Y-12231722D01*
X10836729Y-12231722D02*
X10827206Y-12250769D01*
X11036729Y-12336484D02*
X11074825Y-12336484D01*
X11074825Y-12336484D02*
X11093872Y-12326960D01*
X11093872Y-12326960D02*
X11103396Y-12317436D01*
X11103396Y-12317436D02*
X11122444Y-12288865D01*
X11122444Y-12288865D02*
X11131968Y-12250769D01*
X11131968Y-12250769D02*
X11131968Y-12174579D01*
X11131968Y-12174579D02*
X11122444Y-12155531D01*
X11122444Y-12155531D02*
X11112920Y-12146008D01*
X11112920Y-12146008D02*
X11093872Y-12136484D01*
X11093872Y-12136484D02*
X11055777Y-12136484D01*
X11055777Y-12136484D02*
X11036729Y-12146008D01*
X11036729Y-12146008D02*
X11027206Y-12155531D01*
X11027206Y-12155531D02*
X11017682Y-12174579D01*
X11017682Y-12174579D02*
X11017682Y-12222198D01*
X11017682Y-12222198D02*
X11027206Y-12241246D01*
X11027206Y-12241246D02*
X11036729Y-12250769D01*
X11036729Y-12250769D02*
X11055777Y-12260293D01*
X11055777Y-12260293D02*
X11093872Y-12260293D01*
X11093872Y-12260293D02*
X11112920Y-12250769D01*
X11112920Y-12250769D02*
X11122444Y-12241246D01*
X11122444Y-12241246D02*
X11131968Y-12222198D01*
X11198634Y-12136484D02*
X11322444Y-12136484D01*
X11322444Y-12136484D02*
X11255777Y-12212674D01*
X11255777Y-12212674D02*
X11284348Y-12212674D01*
X11284348Y-12212674D02*
X11303396Y-12222198D01*
X11303396Y-12222198D02*
X11312920Y-12231722D01*
X11312920Y-12231722D02*
X11322444Y-12250769D01*
X11322444Y-12250769D02*
X11322444Y-12298388D01*
X11322444Y-12298388D02*
X11312920Y-12317436D01*
X11312920Y-12317436D02*
X11303396Y-12326960D01*
X11303396Y-12326960D02*
X11284348Y-12336484D01*
X11284348Y-12336484D02*
X11227206Y-12336484D01*
X11227206Y-12336484D02*
X11208158Y-12326960D01*
X11208158Y-12326960D02*
X11198634Y-12317436D01*
X11398634Y-12136484D02*
X11398634Y-12174579D01*
X11474825Y-12136484D02*
X11474825Y-12174579D01*
X11770063Y-12412674D02*
X11760539Y-12403150D01*
X11760539Y-12403150D02*
X11741491Y-12374579D01*
X11741491Y-12374579D02*
X11731968Y-12355531D01*
X11731968Y-12355531D02*
X11722444Y-12326960D01*
X11722444Y-12326960D02*
X11712920Y-12279341D01*
X11712920Y-12279341D02*
X11712920Y-12241246D01*
X11712920Y-12241246D02*
X11722444Y-12193627D01*
X11722444Y-12193627D02*
X11731968Y-12165055D01*
X11731968Y-12165055D02*
X11741491Y-12146008D01*
X11741491Y-12146008D02*
X11760539Y-12117436D01*
X11760539Y-12117436D02*
X11770063Y-12107912D01*
X11951015Y-12336484D02*
X11836729Y-12336484D01*
X11893872Y-12336484D02*
X11893872Y-12136484D01*
X11893872Y-12136484D02*
X11874825Y-12165055D01*
X11874825Y-12165055D02*
X11855777Y-12184103D01*
X11855777Y-12184103D02*
X11836729Y-12193627D01*
X12189110Y-12336484D02*
X12189110Y-12136484D01*
X12274825Y-12336484D02*
X12274825Y-12231722D01*
X12274825Y-12231722D02*
X12265301Y-12212674D01*
X12265301Y-12212674D02*
X12246253Y-12203150D01*
X12246253Y-12203150D02*
X12217682Y-12203150D01*
X12217682Y-12203150D02*
X12198634Y-12212674D01*
X12198634Y-12212674D02*
X12189110Y-12222198D01*
X12398634Y-12336484D02*
X12379587Y-12326960D01*
X12379587Y-12326960D02*
X12370063Y-12317436D01*
X12370063Y-12317436D02*
X12360539Y-12298388D01*
X12360539Y-12298388D02*
X12360539Y-12241246D01*
X12360539Y-12241246D02*
X12370063Y-12222198D01*
X12370063Y-12222198D02*
X12379587Y-12212674D01*
X12379587Y-12212674D02*
X12398634Y-12203150D01*
X12398634Y-12203150D02*
X12427206Y-12203150D01*
X12427206Y-12203150D02*
X12446253Y-12212674D01*
X12446253Y-12212674D02*
X12455777Y-12222198D01*
X12455777Y-12222198D02*
X12465301Y-12241246D01*
X12465301Y-12241246D02*
X12465301Y-12298388D01*
X12465301Y-12298388D02*
X12455777Y-12317436D01*
X12455777Y-12317436D02*
X12446253Y-12326960D01*
X12446253Y-12326960D02*
X12427206Y-12336484D01*
X12427206Y-12336484D02*
X12398634Y-12336484D01*
X12579587Y-12336484D02*
X12560539Y-12326960D01*
X12560539Y-12326960D02*
X12551015Y-12307912D01*
X12551015Y-12307912D02*
X12551015Y-12136484D01*
X12731968Y-12326960D02*
X12712920Y-12336484D01*
X12712920Y-12336484D02*
X12674825Y-12336484D01*
X12674825Y-12336484D02*
X12655777Y-12326960D01*
X12655777Y-12326960D02*
X12646253Y-12307912D01*
X12646253Y-12307912D02*
X12646253Y-12231722D01*
X12646253Y-12231722D02*
X12655777Y-12212674D01*
X12655777Y-12212674D02*
X12674825Y-12203150D01*
X12674825Y-12203150D02*
X12712920Y-12203150D01*
X12712920Y-12203150D02*
X12731968Y-12212674D01*
X12731968Y-12212674D02*
X12741491Y-12231722D01*
X12741491Y-12231722D02*
X12741491Y-12250769D01*
X12741491Y-12250769D02*
X12646253Y-12269817D01*
X12808158Y-12412674D02*
X12817682Y-12403150D01*
X12817682Y-12403150D02*
X12836730Y-12374579D01*
X12836730Y-12374579D02*
X12846253Y-12355531D01*
X12846253Y-12355531D02*
X12855777Y-12326960D01*
X12855777Y-12326960D02*
X12865301Y-12279341D01*
X12865301Y-12279341D02*
X12865301Y-12241246D01*
X12865301Y-12241246D02*
X12855777Y-12193627D01*
X12855777Y-12193627D02*
X12846253Y-12165055D01*
X12846253Y-12165055D02*
X12836730Y-12146008D01*
X12836730Y-12146008D02*
X12817682Y-12117436D01*
X12817682Y-12117436D02*
X12808158Y-12107912D01*
X13170063Y-12412674D02*
X13160539Y-12403150D01*
X13160539Y-12403150D02*
X13141491Y-12374579D01*
X13141491Y-12374579D02*
X13131968Y-12355531D01*
X13131968Y-12355531D02*
X13122444Y-12326960D01*
X13122444Y-12326960D02*
X13112920Y-12279341D01*
X13112920Y-12279341D02*
X13112920Y-12241246D01*
X13112920Y-12241246D02*
X13122444Y-12193627D01*
X13122444Y-12193627D02*
X13131968Y-12165055D01*
X13131968Y-12165055D02*
X13141491Y-12146008D01*
X13141491Y-12146008D02*
X13160539Y-12117436D01*
X13160539Y-12117436D02*
X13170063Y-12107912D01*
X13246253Y-12203150D02*
X13246253Y-12336484D01*
X13246253Y-12222198D02*
X13255777Y-12212674D01*
X13255777Y-12212674D02*
X13274825Y-12203150D01*
X13274825Y-12203150D02*
X13303396Y-12203150D01*
X13303396Y-12203150D02*
X13322444Y-12212674D01*
X13322444Y-12212674D02*
X13331968Y-12231722D01*
X13331968Y-12231722D02*
X13331968Y-12336484D01*
X13455777Y-12336484D02*
X13436730Y-12326960D01*
X13436730Y-12326960D02*
X13427206Y-12317436D01*
X13427206Y-12317436D02*
X13417682Y-12298388D01*
X13417682Y-12298388D02*
X13417682Y-12241246D01*
X13417682Y-12241246D02*
X13427206Y-12222198D01*
X13427206Y-12222198D02*
X13436730Y-12212674D01*
X13436730Y-12212674D02*
X13455777Y-12203150D01*
X13455777Y-12203150D02*
X13484349Y-12203150D01*
X13484349Y-12203150D02*
X13503396Y-12212674D01*
X13503396Y-12212674D02*
X13512920Y-12222198D01*
X13512920Y-12222198D02*
X13522444Y-12241246D01*
X13522444Y-12241246D02*
X13522444Y-12298388D01*
X13522444Y-12298388D02*
X13512920Y-12317436D01*
X13512920Y-12317436D02*
X13503396Y-12326960D01*
X13503396Y-12326960D02*
X13484349Y-12336484D01*
X13484349Y-12336484D02*
X13455777Y-12336484D01*
X13579587Y-12203150D02*
X13655777Y-12203150D01*
X13608158Y-12136484D02*
X13608158Y-12307912D01*
X13608158Y-12307912D02*
X13617682Y-12326960D01*
X13617682Y-12326960D02*
X13636730Y-12336484D01*
X13636730Y-12336484D02*
X13655777Y-12336484D01*
X13874825Y-12203150D02*
X13874825Y-12403150D01*
X13874825Y-12212674D02*
X13893872Y-12203150D01*
X13893872Y-12203150D02*
X13931968Y-12203150D01*
X13931968Y-12203150D02*
X13951015Y-12212674D01*
X13951015Y-12212674D02*
X13960539Y-12222198D01*
X13960539Y-12222198D02*
X13970063Y-12241246D01*
X13970063Y-12241246D02*
X13970063Y-12298388D01*
X13970063Y-12298388D02*
X13960539Y-12317436D01*
X13960539Y-12317436D02*
X13951015Y-12326960D01*
X13951015Y-12326960D02*
X13931968Y-12336484D01*
X13931968Y-12336484D02*
X13893872Y-12336484D01*
X13893872Y-12336484D02*
X13874825Y-12326960D01*
X14084349Y-12336484D02*
X14065301Y-12326960D01*
X14065301Y-12326960D02*
X14055777Y-12307912D01*
X14055777Y-12307912D02*
X14055777Y-12136484D01*
X14246253Y-12336484D02*
X14246253Y-12231722D01*
X14246253Y-12231722D02*
X14236730Y-12212674D01*
X14236730Y-12212674D02*
X14217682Y-12203150D01*
X14217682Y-12203150D02*
X14179587Y-12203150D01*
X14179587Y-12203150D02*
X14160539Y-12212674D01*
X14246253Y-12326960D02*
X14227206Y-12336484D01*
X14227206Y-12336484D02*
X14179587Y-12336484D01*
X14179587Y-12336484D02*
X14160539Y-12326960D01*
X14160539Y-12326960D02*
X14151015Y-12307912D01*
X14151015Y-12307912D02*
X14151015Y-12288865D01*
X14151015Y-12288865D02*
X14160539Y-12269817D01*
X14160539Y-12269817D02*
X14179587Y-12260293D01*
X14179587Y-12260293D02*
X14227206Y-12260293D01*
X14227206Y-12260293D02*
X14246253Y-12250769D01*
X14312920Y-12203150D02*
X14389111Y-12203150D01*
X14341492Y-12136484D02*
X14341492Y-12307912D01*
X14341492Y-12307912D02*
X14351015Y-12326960D01*
X14351015Y-12326960D02*
X14370063Y-12336484D01*
X14370063Y-12336484D02*
X14389111Y-12336484D01*
X14531968Y-12326960D02*
X14512920Y-12336484D01*
X14512920Y-12336484D02*
X14474825Y-12336484D01*
X14474825Y-12336484D02*
X14455777Y-12326960D01*
X14455777Y-12326960D02*
X14446253Y-12307912D01*
X14446253Y-12307912D02*
X14446253Y-12231722D01*
X14446253Y-12231722D02*
X14455777Y-12212674D01*
X14455777Y-12212674D02*
X14474825Y-12203150D01*
X14474825Y-12203150D02*
X14512920Y-12203150D01*
X14512920Y-12203150D02*
X14531968Y-12212674D01*
X14531968Y-12212674D02*
X14541492Y-12231722D01*
X14541492Y-12231722D02*
X14541492Y-12250769D01*
X14541492Y-12250769D02*
X14446253Y-12269817D01*
X14712920Y-12336484D02*
X14712920Y-12136484D01*
X14712920Y-12326960D02*
X14693873Y-12336484D01*
X14693873Y-12336484D02*
X14655777Y-12336484D01*
X14655777Y-12336484D02*
X14636730Y-12326960D01*
X14636730Y-12326960D02*
X14627206Y-12317436D01*
X14627206Y-12317436D02*
X14617682Y-12298388D01*
X14617682Y-12298388D02*
X14617682Y-12241246D01*
X14617682Y-12241246D02*
X14627206Y-12222198D01*
X14627206Y-12222198D02*
X14636730Y-12212674D01*
X14636730Y-12212674D02*
X14655777Y-12203150D01*
X14655777Y-12203150D02*
X14693873Y-12203150D01*
X14693873Y-12203150D02*
X14712920Y-12212674D01*
X14789111Y-12412674D02*
X14798634Y-12403150D01*
X14798634Y-12403150D02*
X14817682Y-12374579D01*
X14817682Y-12374579D02*
X14827206Y-12355531D01*
X14827206Y-12355531D02*
X14836730Y-12326960D01*
X14836730Y-12326960D02*
X14846253Y-12279341D01*
X14846253Y-12279341D02*
X14846253Y-12241246D01*
X14846253Y-12241246D02*
X14836730Y-12193627D01*
X14836730Y-12193627D02*
X14827206Y-12165055D01*
X14827206Y-12165055D02*
X14817682Y-12146008D01*
X14817682Y-12146008D02*
X14798634Y-12117436D01*
X14798634Y-12117436D02*
X14789111Y-12107912D01*
M02*
