G04 #@! TF.GenerationSoftware,KiCad,Pcbnew,(6.0.7)*
G04 #@! TF.CreationDate,2022-10-27T11:47:29+02:00*
G04 #@! TF.ProjectId,Treiber,54726569-6265-4722-9e6b-696361645f70,rev?*
G04 #@! TF.SameCoordinates,Original*
G04 #@! TF.FileFunction,Soldermask,Top*
G04 #@! TF.FilePolarity,Negative*
%FSLAX46Y46*%
G04 Gerber Fmt 4.6, Leading zero omitted, Abs format (unit mm)*
G04 Created by KiCad (PCBNEW (6.0.7)) date 2022-10-27 11:47:29*
%MOMM*%
%LPD*%
G01*
G04 APERTURE LIST*
G04 Aperture macros list*
%AMRoundRect*
0 Rectangle with rounded corners*
0 $1 Rounding radius*
0 $2 $3 $4 $5 $6 $7 $8 $9 X,Y pos of 4 corners*
0 Add a 4 corners polygon primitive as box body*
4,1,4,$2,$3,$4,$5,$6,$7,$8,$9,$2,$3,0*
0 Add four circle primitives for the rounded corners*
1,1,$1+$1,$2,$3*
1,1,$1+$1,$4,$5*
1,1,$1+$1,$6,$7*
1,1,$1+$1,$8,$9*
0 Add four rect primitives between the rounded corners*
20,1,$1+$1,$2,$3,$4,$5,0*
20,1,$1+$1,$4,$5,$6,$7,0*
20,1,$1+$1,$6,$7,$8,$9,0*
20,1,$1+$1,$8,$9,$2,$3,0*%
%AMFreePoly0*
4,1,32,0.469135,0.146194,0.504490,0.131549,0.531549,0.104490,0.546194,0.069135,0.550000,0.050000,0.550000,-0.050000,0.546194,-0.069135,0.531549,-0.104490,0.504490,-0.131549,0.469135,-0.146194,0.450000,-0.150000,-0.250000,-0.150000,-0.250000,-0.250000,-0.253806,-0.269135,-0.268451,-0.304490,-0.295510,-0.331549,-0.330865,-0.346194,-0.350000,-0.350000,-0.450000,-0.350000,-0.469135,-0.346194,
-0.504490,-0.331549,-0.531549,-0.304490,-0.546194,-0.269135,-0.550000,-0.250000,-0.550000,0.050000,-0.546194,0.069135,-0.531549,0.104490,-0.504490,0.131549,-0.469135,0.146194,-0.450000,0.150000,0.450000,0.150000,0.469135,0.146194,0.469135,0.146194,$1*%
G04 Aperture macros list end*
%ADD10RoundRect,0.050000X-1.100000X-1.100000X1.100000X-1.100000X1.100000X1.100000X-1.100000X1.100000X0*%
%ADD11RoundRect,0.050000X-0.625000X-1.100000X0.625000X-1.100000X0.625000X1.100000X-0.625000X1.100000X0*%
%ADD12C,3.300000*%
%ADD13RoundRect,0.050000X2.000000X-0.750000X2.000000X0.750000X-2.000000X0.750000X-2.000000X-0.750000X0*%
%ADD14RoundRect,0.050000X-0.225000X0.300000X-0.225000X-0.300000X0.225000X-0.300000X0.225000X0.300000X0*%
%ADD15RoundRect,0.275000X-0.250000X0.225000X-0.250000X-0.225000X0.250000X-0.225000X0.250000X0.225000X0*%
%ADD16RoundRect,0.300000X-0.750000X-0.250000X0.750000X-0.250000X0.750000X0.250000X-0.750000X0.250000X0*%
%ADD17RoundRect,0.100000X-0.300000X-0.050000X0.300000X-0.050000X0.300000X0.050000X-0.300000X0.050000X0*%
%ADD18RoundRect,0.100000X-0.250000X-0.050000X0.250000X-0.050000X0.250000X0.050000X-0.250000X0.050000X0*%
%ADD19FreePoly0,0.000000*%
%ADD20RoundRect,0.250000X0.275000X-0.200000X0.275000X0.200000X-0.275000X0.200000X-0.275000X-0.200000X0*%
%ADD21C,4.400000*%
%ADD22RoundRect,0.250000X-0.275000X0.200000X-0.275000X-0.200000X0.275000X-0.200000X0.275000X0.200000X0*%
%ADD23RoundRect,0.300000X1.100000X-0.325000X1.100000X0.325000X-1.100000X0.325000X-1.100000X-0.325000X0*%
%ADD24RoundRect,0.300000X-1.100000X0.325000X-1.100000X-0.325000X1.100000X-0.325000X1.100000X0.325000X0*%
%ADD25RoundRect,0.275000X0.225000X0.250000X-0.225000X0.250000X-0.225000X-0.250000X0.225000X-0.250000X0*%
G04 APERTURE END LIST*
D10*
X330860000Y-94500000D03*
D11*
X333135000Y-94500000D03*
D10*
X261210000Y-94500000D03*
D11*
X263485000Y-94500000D03*
D10*
X168320000Y-94500000D03*
D11*
X170595000Y-94500000D03*
D12*
X308750000Y-80500000D03*
D10*
X319250000Y-94500000D03*
D11*
X321525000Y-94500000D03*
D12*
X220750000Y-80500000D03*
X308750000Y-108500000D03*
D10*
X249590000Y-94500000D03*
D11*
X251865000Y-94500000D03*
D12*
X132750000Y-80500000D03*
D10*
X110270000Y-94500000D03*
D11*
X112545000Y-94500000D03*
D13*
X340300000Y-107000000D03*
X340300000Y-103400000D03*
D10*
X237980000Y-94500000D03*
D11*
X240255000Y-94500000D03*
D14*
X353500000Y-104350000D03*
X353500000Y-106450000D03*
D15*
X343700000Y-104625000D03*
X343700000Y-106175000D03*
D10*
X307640000Y-94500000D03*
D11*
X309915000Y-94500000D03*
D10*
X87100000Y-94500000D03*
D11*
X89375000Y-94500000D03*
D10*
X226370000Y-94500000D03*
D11*
X228645000Y-94500000D03*
D10*
X191540000Y-94500000D03*
D11*
X193815000Y-94500000D03*
D16*
X83500000Y-108500000D03*
X83500000Y-105500000D03*
D17*
X345279000Y-104937000D03*
D18*
X345229000Y-105587000D03*
D17*
X345279000Y-106387000D03*
D18*
X346529000Y-106387000D03*
X346529000Y-105362000D03*
D19*
X346329000Y-104862000D03*
D10*
X145100000Y-94500000D03*
D11*
X147375000Y-94500000D03*
D20*
X351600000Y-110225000D03*
X351600000Y-108575000D03*
D21*
X159000000Y-103500000D03*
D10*
X98660000Y-94500000D03*
D11*
X100935000Y-94500000D03*
D12*
X132750000Y-108500000D03*
D16*
X360000000Y-105500000D03*
D22*
X351800000Y-103775000D03*
X351800000Y-105425000D03*
D23*
X348800000Y-106350000D03*
X348800000Y-103400000D03*
D10*
X203150000Y-94500000D03*
D11*
X205425000Y-94500000D03*
D10*
X133490000Y-94500000D03*
D11*
X135765000Y-94500000D03*
D24*
X348800000Y-107900000D03*
X348800000Y-110850000D03*
D10*
X354060000Y-94500000D03*
D11*
X356335000Y-94500000D03*
D16*
X83500000Y-80500000D03*
X360000000Y-108500000D03*
D10*
X214760000Y-94500000D03*
D11*
X217035000Y-94500000D03*
D16*
X360000000Y-80500000D03*
D10*
X156710000Y-94500000D03*
D11*
X158985000Y-94500000D03*
D10*
X296030000Y-94500000D03*
D11*
X298305000Y-94500000D03*
D10*
X284420000Y-94500000D03*
D11*
X286695000Y-94500000D03*
D10*
X272810000Y-94500000D03*
D11*
X275085000Y-94500000D03*
D25*
X346705000Y-107400000D03*
X345155000Y-107400000D03*
D10*
X121880000Y-94500000D03*
D11*
X124155000Y-94500000D03*
D10*
X342470000Y-94500000D03*
D11*
X344745000Y-94500000D03*
D10*
X179930000Y-94500000D03*
D11*
X182205000Y-94500000D03*
D12*
X220750000Y-108500000D03*
M02*
