%TF.GenerationSoftware,KiCad,Pcbnew,7.0.9*%
%TF.CreationDate,2025-11-01T18:49:03+01:00*%
%TF.ProjectId,Treiber,54726569-6265-4722-9e6b-696361645f70,rev?*%
%TF.SameCoordinates,Original*%
%TF.FileFunction,Drillmap*%
%TF.FilePolarity,Positive*%
%FSLAX45Y45*%
G04 Gerber Fmt 4.5, Leading zero omitted, Abs format (unit mm)*
G04 Created by KiCad (PCBNEW 7.0.9) date 2025-11-01 18:49:03*
%MOMM*%
%LPD*%
G01*
G04 APERTURE LIST*
%ADD10C,0.100000*%
%ADD11C,0.200000*%
G04 APERTURE END LIST*
D10*
X8200000Y-7900000D02*
X8200000Y-11000000D01*
X36150000Y-7900000D02*
X36150000Y-11000000D01*
X35700000Y-11150000D02*
X35700000Y-11280000D01*
X36150000Y-11000000D02*
X35850000Y-11000000D01*
X35700000Y-11280000D02*
X8350000Y-11280000D01*
X35700000Y-7750000D02*
G75*
G03*
X35850000Y-7900000I150000J0D01*
G01*
X8350000Y-11150000D02*
G75*
G03*
X8200000Y-11000000I-150000J0D01*
G01*
X35700000Y-7620000D02*
X8350000Y-7620000D01*
X36150000Y-7900000D02*
X35850000Y-7900000D01*
X35850000Y-11000000D02*
G75*
G03*
X35700000Y-11150000I0J-150000D01*
G01*
X8350000Y-11280000D02*
X8350000Y-11150000D01*
X8200000Y-7900000D02*
G75*
G03*
X8350000Y-7750000I0J150000D01*
G01*
X35700000Y-7750000D02*
X35700000Y-7620000D01*
X8350000Y-7620000D02*
X8350000Y-7750000D01*
D11*
X8455777Y-11596484D02*
X8455777Y-11396484D01*
X8455777Y-11396484D02*
X8503396Y-11396484D01*
X8503396Y-11396484D02*
X8531967Y-11406008D01*
X8531967Y-11406008D02*
X8551015Y-11425055D01*
X8551015Y-11425055D02*
X8560539Y-11444103D01*
X8560539Y-11444103D02*
X8570063Y-11482198D01*
X8570063Y-11482198D02*
X8570063Y-11510769D01*
X8570063Y-11510769D02*
X8560539Y-11548865D01*
X8560539Y-11548865D02*
X8551015Y-11567912D01*
X8551015Y-11567912D02*
X8531967Y-11586960D01*
X8531967Y-11586960D02*
X8503396Y-11596484D01*
X8503396Y-11596484D02*
X8455777Y-11596484D01*
X8655777Y-11596484D02*
X8655777Y-11463150D01*
X8655777Y-11501246D02*
X8665301Y-11482198D01*
X8665301Y-11482198D02*
X8674824Y-11472674D01*
X8674824Y-11472674D02*
X8693872Y-11463150D01*
X8693872Y-11463150D02*
X8712920Y-11463150D01*
X8779586Y-11596484D02*
X8779586Y-11463150D01*
X8779586Y-11396484D02*
X8770063Y-11406008D01*
X8770063Y-11406008D02*
X8779586Y-11415531D01*
X8779586Y-11415531D02*
X8789110Y-11406008D01*
X8789110Y-11406008D02*
X8779586Y-11396484D01*
X8779586Y-11396484D02*
X8779586Y-11415531D01*
X8903396Y-11596484D02*
X8884348Y-11586960D01*
X8884348Y-11586960D02*
X8874824Y-11567912D01*
X8874824Y-11567912D02*
X8874824Y-11396484D01*
X9008158Y-11596484D02*
X8989110Y-11586960D01*
X8989110Y-11586960D02*
X8979586Y-11567912D01*
X8979586Y-11567912D02*
X8979586Y-11396484D01*
X9236729Y-11596484D02*
X9236729Y-11396484D01*
X9236729Y-11396484D02*
X9303396Y-11539341D01*
X9303396Y-11539341D02*
X9370063Y-11396484D01*
X9370063Y-11396484D02*
X9370063Y-11596484D01*
X9551015Y-11596484D02*
X9551015Y-11491722D01*
X9551015Y-11491722D02*
X9541491Y-11472674D01*
X9541491Y-11472674D02*
X9522444Y-11463150D01*
X9522444Y-11463150D02*
X9484348Y-11463150D01*
X9484348Y-11463150D02*
X9465301Y-11472674D01*
X9551015Y-11586960D02*
X9531967Y-11596484D01*
X9531967Y-11596484D02*
X9484348Y-11596484D01*
X9484348Y-11596484D02*
X9465301Y-11586960D01*
X9465301Y-11586960D02*
X9455777Y-11567912D01*
X9455777Y-11567912D02*
X9455777Y-11548865D01*
X9455777Y-11548865D02*
X9465301Y-11529817D01*
X9465301Y-11529817D02*
X9484348Y-11520293D01*
X9484348Y-11520293D02*
X9531967Y-11520293D01*
X9531967Y-11520293D02*
X9551015Y-11510769D01*
X9646253Y-11463150D02*
X9646253Y-11663150D01*
X9646253Y-11472674D02*
X9665301Y-11463150D01*
X9665301Y-11463150D02*
X9703396Y-11463150D01*
X9703396Y-11463150D02*
X9722444Y-11472674D01*
X9722444Y-11472674D02*
X9731967Y-11482198D01*
X9731967Y-11482198D02*
X9741491Y-11501246D01*
X9741491Y-11501246D02*
X9741491Y-11558388D01*
X9741491Y-11558388D02*
X9731967Y-11577436D01*
X9731967Y-11577436D02*
X9722444Y-11586960D01*
X9722444Y-11586960D02*
X9703396Y-11596484D01*
X9703396Y-11596484D02*
X9665301Y-11596484D01*
X9665301Y-11596484D02*
X9646253Y-11586960D01*
X9827205Y-11577436D02*
X9836729Y-11586960D01*
X9836729Y-11586960D02*
X9827205Y-11596484D01*
X9827205Y-11596484D02*
X9817682Y-11586960D01*
X9817682Y-11586960D02*
X9827205Y-11577436D01*
X9827205Y-11577436D02*
X9827205Y-11596484D01*
X9827205Y-11472674D02*
X9836729Y-11482198D01*
X9836729Y-11482198D02*
X9827205Y-11491722D01*
X9827205Y-11491722D02*
X9817682Y-11482198D01*
X9817682Y-11482198D02*
X9827205Y-11472674D01*
X9827205Y-11472674D02*
X9827205Y-11491722D01*
M02*
