G04 #@! TF.GenerationSoftware,KiCad,Pcbnew,(6.0.7)*
G04 #@! TF.CreationDate,2022-10-27T11:46:26+02:00*
G04 #@! TF.ProjectId,Steuerung,53746575-6572-4756-9e67-2e6b69636164,rev?*
G04 #@! TF.SameCoordinates,Original*
G04 #@! TF.FileFunction,Soldermask,Bot*
G04 #@! TF.FilePolarity,Negative*
%FSLAX46Y46*%
G04 Gerber Fmt 4.6, Leading zero omitted, Abs format (unit mm)*
G04 Created by KiCad (PCBNEW (6.0.7)) date 2022-10-27 11:46:26*
%MOMM*%
%LPD*%
G01*
G04 APERTURE LIST*
G04 Aperture macros list*
%AMRoundRect*
0 Rectangle with rounded corners*
0 $1 Rounding radius*
0 $2 $3 $4 $5 $6 $7 $8 $9 X,Y pos of 4 corners*
0 Add a 4 corners polygon primitive as box body*
4,1,4,$2,$3,$4,$5,$6,$7,$8,$9,$2,$3,0*
0 Add four circle primitives for the rounded corners*
1,1,$1+$1,$2,$3*
1,1,$1+$1,$4,$5*
1,1,$1+$1,$6,$7*
1,1,$1+$1,$8,$9*
0 Add four rect primitives between the rounded corners*
20,1,$1+$1,$2,$3,$4,$5,0*
20,1,$1+$1,$4,$5,$6,$7,0*
20,1,$1+$1,$6,$7,$8,$9,0*
20,1,$1+$1,$8,$9,$2,$3,0*%
G04 Aperture macros list end*
%ADD10C,3.300000*%
%ADD11RoundRect,0.050000X1.300000X-1.300000X1.300000X1.300000X-1.300000X1.300000X-1.300000X-1.300000X0*%
%ADD12C,2.700000*%
%ADD13RoundRect,0.300000X-0.600000X0.600000X-0.600000X-0.600000X0.600000X-0.600000X0.600000X0.600000X0*%
%ADD14C,1.800000*%
%ADD15RoundRect,0.050000X-0.850000X0.850000X-0.850000X-0.850000X0.850000X-0.850000X0.850000X0.850000X0*%
%ADD16O,1.800000X1.800000*%
%ADD17RoundRect,0.050000X0.850000X-0.850000X0.850000X0.850000X-0.850000X0.850000X-0.850000X-0.850000X0*%
%ADD18RoundRect,0.190000X-0.170000X0.140000X-0.170000X-0.140000X0.170000X-0.140000X0.170000X0.140000X0*%
%ADD19RoundRect,0.190000X-0.140000X-0.170000X0.140000X-0.170000X0.140000X0.170000X-0.140000X0.170000X0*%
%ADD20RoundRect,0.190000X0.170000X-0.140000X0.170000X0.140000X-0.170000X0.140000X-0.170000X-0.140000X0*%
%ADD21RoundRect,0.197500X0.147500X0.172500X-0.147500X0.172500X-0.147500X-0.172500X0.147500X-0.172500X0*%
%ADD22RoundRect,0.185000X-0.135000X-0.185000X0.135000X-0.185000X0.135000X0.185000X-0.135000X0.185000X0*%
G04 APERTURE END LIST*
D10*
X173000000Y-105500000D03*
D11*
X179200000Y-103150000D03*
D12*
X185200000Y-103150000D03*
X182200000Y-98450000D03*
D10*
X173000000Y-77500000D03*
D13*
X163045000Y-76847500D03*
D14*
X163045000Y-79387500D03*
X160505000Y-76847500D03*
X160505000Y-79387500D03*
X157965000Y-76847500D03*
X157965000Y-79387500D03*
D15*
X166750000Y-84450000D03*
D16*
X164210000Y-84450000D03*
D17*
X154525000Y-84500000D03*
D16*
X157065000Y-84500000D03*
D18*
X182650000Y-75570000D03*
X182650000Y-76530000D03*
D19*
X186720000Y-74300000D03*
X187680000Y-74300000D03*
D18*
X186600000Y-75620000D03*
X186600000Y-76580000D03*
D20*
X188200000Y-81680000D03*
X188200000Y-80720000D03*
D21*
X184735000Y-75650000D03*
X183765000Y-75650000D03*
D18*
X185750000Y-75620000D03*
X185750000Y-76580000D03*
X181850000Y-75570000D03*
X181850000Y-76530000D03*
D20*
X187350000Y-81680000D03*
X187350000Y-80720000D03*
D22*
X181190000Y-81700000D03*
X182210000Y-81700000D03*
D18*
X187800000Y-75620000D03*
X187800000Y-76580000D03*
X188600000Y-75620000D03*
X188600000Y-76580000D03*
D20*
X189000000Y-81680000D03*
X189000000Y-80720000D03*
G36*
X188554020Y-81500463D02*
G01*
X188573424Y-81529506D01*
X188609332Y-81536648D01*
X188639957Y-81516185D01*
X188645306Y-81503272D01*
X188646893Y-81502054D01*
X188648741Y-81502819D01*
X188649116Y-81504427D01*
X188642000Y-81540199D01*
X188642000Y-81819801D01*
X188649605Y-81858036D01*
X188648962Y-81859930D01*
X188647000Y-81860320D01*
X188645980Y-81859537D01*
X188626576Y-81830494D01*
X188590668Y-81823352D01*
X188560043Y-81843815D01*
X188554694Y-81856728D01*
X188553107Y-81857946D01*
X188551259Y-81857181D01*
X188550884Y-81855573D01*
X188558000Y-81819801D01*
X188558000Y-81540199D01*
X188550395Y-81501964D01*
X188551038Y-81500070D01*
X188553000Y-81499680D01*
X188554020Y-81500463D01*
G37*
G36*
X188554020Y-80540463D02*
G01*
X188573424Y-80569506D01*
X188609332Y-80576648D01*
X188639957Y-80556185D01*
X188645306Y-80543272D01*
X188646893Y-80542054D01*
X188648741Y-80542819D01*
X188649116Y-80544427D01*
X188642000Y-80580199D01*
X188642000Y-80859801D01*
X188649605Y-80898036D01*
X188648962Y-80899930D01*
X188647000Y-80900320D01*
X188645980Y-80899537D01*
X188626576Y-80870494D01*
X188590668Y-80863352D01*
X188560043Y-80883815D01*
X188554694Y-80896728D01*
X188553107Y-80897946D01*
X188551259Y-80897181D01*
X188550884Y-80895573D01*
X188558000Y-80859801D01*
X188558000Y-80580199D01*
X188550395Y-80541964D01*
X188551038Y-80540070D01*
X188553000Y-80539680D01*
X188554020Y-80540463D01*
G37*
G36*
X188154020Y-76400463D02*
G01*
X188173424Y-76429506D01*
X188209332Y-76436648D01*
X188239957Y-76416185D01*
X188245306Y-76403272D01*
X188246893Y-76402054D01*
X188248741Y-76402819D01*
X188249116Y-76404427D01*
X188242000Y-76440199D01*
X188242000Y-76719801D01*
X188249605Y-76758036D01*
X188248962Y-76759930D01*
X188247000Y-76760320D01*
X188245980Y-76759537D01*
X188226576Y-76730494D01*
X188190668Y-76723352D01*
X188160043Y-76743815D01*
X188154694Y-76756728D01*
X188153107Y-76757946D01*
X188151259Y-76757181D01*
X188150884Y-76755573D01*
X188158000Y-76719801D01*
X188158000Y-76440199D01*
X188150395Y-76401964D01*
X188151038Y-76400070D01*
X188153000Y-76399680D01*
X188154020Y-76400463D01*
G37*
G36*
X182204020Y-76350463D02*
G01*
X182223424Y-76379506D01*
X182259332Y-76386648D01*
X182289957Y-76366185D01*
X182295306Y-76353272D01*
X182296893Y-76352054D01*
X182298741Y-76352819D01*
X182299116Y-76354427D01*
X182292000Y-76390199D01*
X182292000Y-76669801D01*
X182299605Y-76708036D01*
X182298962Y-76709930D01*
X182297000Y-76710320D01*
X182295980Y-76709537D01*
X182276576Y-76680494D01*
X182240668Y-76673352D01*
X182210043Y-76693815D01*
X182204694Y-76706728D01*
X182203107Y-76707946D01*
X182201259Y-76707181D01*
X182200884Y-76705573D01*
X182208000Y-76669801D01*
X182208000Y-76390199D01*
X182200395Y-76351964D01*
X182201038Y-76350070D01*
X182203000Y-76349680D01*
X182204020Y-76350463D01*
G37*
G36*
X188154020Y-75440463D02*
G01*
X188173424Y-75469506D01*
X188209332Y-75476648D01*
X188239957Y-75456185D01*
X188245306Y-75443272D01*
X188246893Y-75442054D01*
X188248741Y-75442819D01*
X188249116Y-75444427D01*
X188242000Y-75480199D01*
X188242000Y-75759801D01*
X188249605Y-75798036D01*
X188248962Y-75799930D01*
X188247000Y-75800320D01*
X188245980Y-75799537D01*
X188226576Y-75770494D01*
X188190668Y-75763352D01*
X188160043Y-75783815D01*
X188154694Y-75796728D01*
X188153107Y-75797946D01*
X188151259Y-75797181D01*
X188150884Y-75795573D01*
X188158000Y-75759801D01*
X188158000Y-75480199D01*
X188150395Y-75441964D01*
X188151038Y-75440070D01*
X188153000Y-75439680D01*
X188154020Y-75440463D01*
G37*
G36*
X182204020Y-75390463D02*
G01*
X182223424Y-75419506D01*
X182259332Y-75426648D01*
X182289957Y-75406185D01*
X182295306Y-75393272D01*
X182296893Y-75392054D01*
X182298741Y-75392819D01*
X182299116Y-75394427D01*
X182292000Y-75430199D01*
X182292000Y-75709801D01*
X182299605Y-75748036D01*
X182298962Y-75749930D01*
X182297000Y-75750320D01*
X182295980Y-75749537D01*
X182276576Y-75720494D01*
X182240668Y-75713352D01*
X182210043Y-75733815D01*
X182204694Y-75746728D01*
X182203107Y-75747946D01*
X182201259Y-75747181D01*
X182200884Y-75745573D01*
X182208000Y-75709801D01*
X182208000Y-75430199D01*
X182200395Y-75391964D01*
X182201038Y-75390070D01*
X182203000Y-75389680D01*
X182204020Y-75390463D01*
G37*
M02*
