G04 #@! TF.GenerationSoftware,KiCad,Pcbnew,(6.0.7)*
G04 #@! TF.CreationDate,2022-10-27T11:46:26+02:00*
G04 #@! TF.ProjectId,Steuerung,53746575-6572-4756-9e67-2e6b69636164,rev?*
G04 #@! TF.SameCoordinates,Original*
G04 #@! TF.FileFunction,Paste,Top*
G04 #@! TF.FilePolarity,Positive*
%FSLAX46Y46*%
G04 Gerber Fmt 4.6, Leading zero omitted, Abs format (unit mm)*
G04 Created by KiCad (PCBNEW (6.0.7)) date 2022-10-27 11:46:26*
%MOMM*%
%LPD*%
G01*
G04 APERTURE LIST*
G04 Aperture macros list*
%AMRoundRect*
0 Rectangle with rounded corners*
0 $1 Rounding radius*
0 $2 $3 $4 $5 $6 $7 $8 $9 X,Y pos of 4 corners*
0 Add a 4 corners polygon primitive as box body*
4,1,4,$2,$3,$4,$5,$6,$7,$8,$9,$2,$3,0*
0 Add four circle primitives for the rounded corners*
1,1,$1+$1,$2,$3*
1,1,$1+$1,$4,$5*
1,1,$1+$1,$6,$7*
1,1,$1+$1,$8,$9*
0 Add four rect primitives between the rounded corners*
20,1,$1+$1,$2,$3,$4,$5,0*
20,1,$1+$1,$4,$5,$6,$7,0*
20,1,$1+$1,$6,$7,$8,$9,0*
20,1,$1+$1,$8,$9,$2,$3,0*%
G04 Aperture macros list end*
%ADD10RoundRect,0.225000X0.225000X0.250000X-0.225000X0.250000X-0.225000X-0.250000X0.225000X-0.250000X0*%
%ADD11RoundRect,0.200000X-0.200000X-0.275000X0.200000X-0.275000X0.200000X0.275000X-0.200000X0.275000X0*%
%ADD12RoundRect,0.250000X0.250000X0.475000X-0.250000X0.475000X-0.250000X-0.475000X0.250000X-0.475000X0*%
%ADD13RoundRect,0.225000X0.250000X-0.225000X0.250000X0.225000X-0.250000X0.225000X-0.250000X-0.225000X0*%
%ADD14RoundRect,0.087500X-0.087500X0.087500X-0.087500X-0.087500X0.087500X-0.087500X0.087500X0.087500X0*%
%ADD15RoundRect,0.075000X-0.075000X0.100000X-0.075000X-0.100000X0.075000X-0.100000X0.075000X0.100000X0*%
%ADD16RoundRect,0.075000X-0.100000X-0.075000X0.100000X-0.075000X0.100000X0.075000X-0.100000X0.075000X0*%
%ADD17RoundRect,0.075000X0.075000X-0.100000X0.075000X0.100000X-0.075000X0.100000X-0.075000X-0.100000X0*%
%ADD18RoundRect,0.075000X0.100000X0.075000X-0.100000X0.075000X-0.100000X-0.075000X0.100000X-0.075000X0*%
%ADD19RoundRect,0.150000X0.150000X0.150000X-0.150000X0.150000X-0.150000X-0.150000X0.150000X-0.150000X0*%
%ADD20RoundRect,0.107500X0.107500X0.107500X-0.107500X0.107500X-0.107500X-0.107500X0.107500X-0.107500X0*%
%ADD21RoundRect,0.218750X-0.218750X-0.256250X0.218750X-0.256250X0.218750X0.256250X-0.218750X0.256250X0*%
%ADD22R,0.650000X0.400000*%
%ADD23R,1.550000X1.300000*%
%ADD24RoundRect,0.200000X-0.275000X0.200000X-0.275000X-0.200000X0.275000X-0.200000X0.275000X0.200000X0*%
%ADD25R,1.200000X3.700000*%
%ADD26RoundRect,0.062500X-0.062500X0.350000X-0.062500X-0.350000X0.062500X-0.350000X0.062500X0.350000X0*%
%ADD27RoundRect,0.155000X-0.335000X0.155000X-0.335000X-0.155000X0.335000X-0.155000X0.335000X0.155000X0*%
%ADD28RoundRect,0.200000X0.200000X0.275000X-0.200000X0.275000X-0.200000X-0.275000X0.200000X-0.275000X0*%
%ADD29RoundRect,0.250000X-0.262500X-0.450000X0.262500X-0.450000X0.262500X0.450000X-0.262500X0.450000X0*%
%ADD30RoundRect,0.125000X0.537500X0.125000X-0.537500X0.125000X-0.537500X-0.125000X0.537500X-0.125000X0*%
%ADD31RoundRect,0.225000X-0.225000X-0.250000X0.225000X-0.250000X0.225000X0.250000X-0.225000X0.250000X0*%
G04 APERTURE END LIST*
D10*
X154775000Y-91700000D03*
X153225000Y-91700000D03*
D11*
X167925000Y-94600000D03*
X169575000Y-94600000D03*
D12*
X153950000Y-98500000D03*
X152050000Y-98500000D03*
D13*
X176200000Y-94075000D03*
X176200000Y-92525000D03*
D12*
X158450000Y-96600000D03*
X156550000Y-96600000D03*
D14*
X189075000Y-75475000D03*
D15*
X188600000Y-75475000D03*
X188150000Y-75475000D03*
X187700000Y-75475000D03*
X187250000Y-75475000D03*
X186800000Y-75475000D03*
X186350000Y-75475000D03*
X185900000Y-75475000D03*
X185450000Y-75475000D03*
X185000000Y-75475000D03*
X184550000Y-75475000D03*
X184100000Y-75475000D03*
X183650000Y-75475000D03*
X183200000Y-75475000D03*
X182750000Y-75475000D03*
X182300000Y-75475000D03*
D14*
X181825000Y-75475000D03*
D16*
X181825000Y-75950000D03*
X181825000Y-76400000D03*
X181825000Y-76850000D03*
X181825000Y-77300000D03*
X181825000Y-77750000D03*
X181825000Y-78200000D03*
X181825000Y-78650000D03*
X181825000Y-79100000D03*
X181825000Y-79550000D03*
X181825000Y-80000000D03*
X181825000Y-80450000D03*
X181825000Y-80900000D03*
X181825000Y-81350000D03*
D14*
X181825000Y-81825000D03*
D17*
X182300000Y-81825000D03*
X182750000Y-81825000D03*
X183200000Y-81825000D03*
X183650000Y-81825000D03*
X184100000Y-81825000D03*
X184550000Y-81825000D03*
X185000000Y-81825000D03*
X185450000Y-81825000D03*
X185900000Y-81825000D03*
X186350000Y-81825000D03*
X186800000Y-81825000D03*
X187250000Y-81825000D03*
X187700000Y-81825000D03*
X188150000Y-81825000D03*
D15*
X188600000Y-81825000D03*
D14*
X189075000Y-81825000D03*
D18*
X189075000Y-81350000D03*
X189075000Y-80900000D03*
X189075000Y-80450000D03*
X189075000Y-80000000D03*
X189075000Y-79550000D03*
X189075000Y-79100000D03*
X189075000Y-78650000D03*
X189075000Y-78200000D03*
X189075000Y-77750000D03*
X189075000Y-77300000D03*
X189075000Y-76850000D03*
X189075000Y-76400000D03*
X189075000Y-75950000D03*
D19*
X187700000Y-77300000D03*
X186800000Y-77300000D03*
X185900000Y-77300000D03*
X185000000Y-77300000D03*
X184100000Y-77300000D03*
X183200000Y-77300000D03*
X183200000Y-78200000D03*
X183200000Y-79100000D03*
X183200000Y-80000000D03*
X184100000Y-80000000D03*
X185000000Y-80000000D03*
X185900000Y-80000000D03*
X186800000Y-80000000D03*
X187700000Y-80000000D03*
X187700000Y-79100000D03*
X187700000Y-78200000D03*
X186800000Y-78200000D03*
X185900000Y-78200000D03*
X185000000Y-78200000D03*
X184100000Y-78200000D03*
X184100000Y-79100000D03*
X185000000Y-79100000D03*
X185900000Y-79100000D03*
X186800000Y-79100000D03*
D20*
X192035000Y-75600000D03*
X192035000Y-81700000D03*
D21*
X160612500Y-98300000D03*
X162187500Y-98300000D03*
D22*
X148950000Y-99850000D03*
X148950000Y-100500000D03*
X148950000Y-101150000D03*
X150850000Y-101150000D03*
X150850000Y-99850000D03*
D23*
X157225000Y-93750000D03*
X165175000Y-93750000D03*
X157225000Y-89250000D03*
X165175000Y-89250000D03*
D10*
X153975000Y-92900000D03*
X152425000Y-92900000D03*
X150775000Y-98500000D03*
X149225000Y-98500000D03*
D24*
X169700000Y-95675000D03*
X169700000Y-97325000D03*
D25*
X155300000Y-99800000D03*
X158100000Y-99800000D03*
D11*
X159425000Y-84700000D03*
X161075000Y-84700000D03*
D26*
X155300000Y-94037500D03*
X154800000Y-94037500D03*
X154300000Y-94037500D03*
X153800000Y-94037500D03*
X153300000Y-94037500D03*
X153300000Y-96962500D03*
X153800000Y-96962500D03*
X154300000Y-96962500D03*
X154800000Y-96962500D03*
X155300000Y-96962500D03*
D27*
X154450000Y-95500000D03*
D28*
X172825000Y-90900000D03*
X171175000Y-90900000D03*
X164825000Y-98300000D03*
X163175000Y-98300000D03*
D10*
X166175000Y-86600000D03*
X164625000Y-86600000D03*
X169475000Y-93500000D03*
X167925000Y-93500000D03*
D29*
X172087500Y-98800000D03*
X173912500Y-98800000D03*
X172087500Y-100400000D03*
X173912500Y-100400000D03*
D30*
X174537500Y-94275000D03*
X174537500Y-93625000D03*
X174537500Y-92975000D03*
X174537500Y-92325000D03*
X172262500Y-92325000D03*
X172262500Y-92975000D03*
X172262500Y-93625000D03*
X172262500Y-94275000D03*
D31*
X172225000Y-95800000D03*
X173775000Y-95800000D03*
D24*
X170900000Y-95675000D03*
X170900000Y-97325000D03*
X175000000Y-95775000D03*
X175000000Y-97425000D03*
D31*
X173925000Y-90900000D03*
X175475000Y-90900000D03*
M02*
