G04 #@! TF.GenerationSoftware,KiCad,Pcbnew,(6.0.7)*
G04 #@! TF.CreationDate,2022-10-27T11:48:24+02:00*
G04 #@! TF.ProjectId,mainControl,6d61696e-436f-46e7-9472-6f6c2e6b6963,rev?*
G04 #@! TF.SameCoordinates,Original*
G04 #@! TF.FileFunction,Copper,L4,Bot*
G04 #@! TF.FilePolarity,Positive*
%FSLAX46Y46*%
G04 Gerber Fmt 4.6, Leading zero omitted, Abs format (unit mm)*
G04 Created by KiCad (PCBNEW (6.0.7)) date 2022-10-27 11:48:24*
%MOMM*%
%LPD*%
G01*
G04 APERTURE LIST*
G04 Aperture macros list*
%AMRoundRect*
0 Rectangle with rounded corners*
0 $1 Rounding radius*
0 $2 $3 $4 $5 $6 $7 $8 $9 X,Y pos of 4 corners*
0 Add a 4 corners polygon primitive as box body*
4,1,4,$2,$3,$4,$5,$6,$7,$8,$9,$2,$3,0*
0 Add four circle primitives for the rounded corners*
1,1,$1+$1,$2,$3*
1,1,$1+$1,$4,$5*
1,1,$1+$1,$6,$7*
1,1,$1+$1,$8,$9*
0 Add four rect primitives between the rounded corners*
20,1,$1+$1,$2,$3,$4,$5,0*
20,1,$1+$1,$4,$5,$6,$7,0*
20,1,$1+$1,$6,$7,$8,$9,0*
20,1,$1+$1,$8,$9,$2,$3,0*%
G04 Aperture macros list end*
G04 #@! TA.AperFunction,ComponentPad*
%ADD10R,1.700000X1.700000*%
G04 #@! TD*
G04 #@! TA.AperFunction,ComponentPad*
%ADD11O,1.700000X1.700000*%
G04 #@! TD*
G04 #@! TA.AperFunction,ComponentPad*
%ADD12RoundRect,0.250000X-0.620000X-0.845000X0.620000X-0.845000X0.620000X0.845000X-0.620000X0.845000X0*%
G04 #@! TD*
G04 #@! TA.AperFunction,ComponentPad*
%ADD13O,1.740000X2.190000*%
G04 #@! TD*
G04 #@! TA.AperFunction,ComponentPad*
%ADD14R,1.600000X1.600000*%
G04 #@! TD*
G04 #@! TA.AperFunction,ComponentPad*
%ADD15C,1.600000*%
G04 #@! TD*
G04 #@! TA.AperFunction,ComponentPad*
%ADD16RoundRect,0.249999X0.790001X1.550001X-0.790001X1.550001X-0.790001X-1.550001X0.790001X-1.550001X0*%
G04 #@! TD*
G04 #@! TA.AperFunction,ComponentPad*
%ADD17O,2.080000X3.600000*%
G04 #@! TD*
G04 #@! TA.AperFunction,ComponentPad*
%ADD18O,1.900000X1.050000*%
G04 #@! TD*
G04 #@! TA.AperFunction,SMDPad,CuDef*
%ADD19RoundRect,0.225000X-0.225000X-0.250000X0.225000X-0.250000X0.225000X0.250000X-0.225000X0.250000X0*%
G04 #@! TD*
G04 #@! TA.AperFunction,SMDPad,CuDef*
%ADD20RoundRect,0.218750X-0.256250X0.218750X-0.256250X-0.218750X0.256250X-0.218750X0.256250X0.218750X0*%
G04 #@! TD*
G04 #@! TA.AperFunction,SMDPad,CuDef*
%ADD21RoundRect,0.225000X0.250000X-0.225000X0.250000X0.225000X-0.250000X0.225000X-0.250000X-0.225000X0*%
G04 #@! TD*
G04 #@! TA.AperFunction,SMDPad,CuDef*
%ADD22RoundRect,0.200000X-0.275000X0.200000X-0.275000X-0.200000X0.275000X-0.200000X0.275000X0.200000X0*%
G04 #@! TD*
G04 #@! TA.AperFunction,SMDPad,CuDef*
%ADD23RoundRect,0.200000X0.200000X0.275000X-0.200000X0.275000X-0.200000X-0.275000X0.200000X-0.275000X0*%
G04 #@! TD*
G04 #@! TA.AperFunction,SMDPad,CuDef*
%ADD24RoundRect,0.200000X0.275000X-0.200000X0.275000X0.200000X-0.275000X0.200000X-0.275000X-0.200000X0*%
G04 #@! TD*
G04 #@! TA.AperFunction,SMDPad,CuDef*
%ADD25RoundRect,0.200000X-0.200000X-0.275000X0.200000X-0.275000X0.200000X0.275000X-0.200000X0.275000X0*%
G04 #@! TD*
G04 #@! TA.AperFunction,SMDPad,CuDef*
%ADD26RoundRect,0.250000X-0.325000X-1.100000X0.325000X-1.100000X0.325000X1.100000X-0.325000X1.100000X0*%
G04 #@! TD*
G04 #@! TA.AperFunction,SMDPad,CuDef*
%ADD27RoundRect,0.225000X-0.250000X0.225000X-0.250000X-0.225000X0.250000X-0.225000X0.250000X0.225000X0*%
G04 #@! TD*
G04 #@! TA.AperFunction,SMDPad,CuDef*
%ADD28RoundRect,0.225000X0.225000X0.250000X-0.225000X0.250000X-0.225000X-0.250000X0.225000X-0.250000X0*%
G04 #@! TD*
G04 #@! TA.AperFunction,SMDPad,CuDef*
%ADD29R,0.400000X0.250000*%
G04 #@! TD*
G04 #@! TA.AperFunction,SMDPad,CuDef*
%ADD30R,0.400000X0.700000*%
G04 #@! TD*
G04 #@! TA.AperFunction,SMDPad,CuDef*
%ADD31R,0.750000X0.300000*%
G04 #@! TD*
G04 #@! TA.AperFunction,SMDPad,CuDef*
%ADD32R,1.360000X1.460000*%
G04 #@! TD*
G04 #@! TA.AperFunction,SMDPad,CuDef*
%ADD33RoundRect,0.062500X-0.350000X-0.062500X0.350000X-0.062500X0.350000X0.062500X-0.350000X0.062500X0*%
G04 #@! TD*
G04 #@! TA.AperFunction,SMDPad,CuDef*
%ADD34RoundRect,0.062500X-0.062500X-0.350000X0.062500X-0.350000X0.062500X0.350000X-0.062500X0.350000X0*%
G04 #@! TD*
G04 #@! TA.AperFunction,SMDPad,CuDef*
%ADD35R,2.600000X2.600000*%
G04 #@! TD*
G04 #@! TA.AperFunction,SMDPad,CuDef*
%ADD36RoundRect,0.250000X0.650000X-0.325000X0.650000X0.325000X-0.650000X0.325000X-0.650000X-0.325000X0*%
G04 #@! TD*
G04 #@! TA.AperFunction,SMDPad,CuDef*
%ADD37R,1.000000X1.150000*%
G04 #@! TD*
G04 #@! TA.AperFunction,SMDPad,CuDef*
%ADD38R,0.300000X0.750000*%
G04 #@! TD*
G04 #@! TA.AperFunction,SMDPad,CuDef*
%ADD39R,1.700000X0.300000*%
G04 #@! TD*
G04 #@! TA.AperFunction,SMDPad,CuDef*
%ADD40RoundRect,0.250000X0.450000X-0.262500X0.450000X0.262500X-0.450000X0.262500X-0.450000X-0.262500X0*%
G04 #@! TD*
G04 #@! TA.AperFunction,SMDPad,CuDef*
%ADD41RoundRect,0.250000X0.325000X0.650000X-0.325000X0.650000X-0.325000X-0.650000X0.325000X-0.650000X0*%
G04 #@! TD*
G04 #@! TA.AperFunction,SMDPad,CuDef*
%ADD42RoundRect,0.125000X-0.537500X-0.125000X0.537500X-0.125000X0.537500X0.125000X-0.537500X0.125000X0*%
G04 #@! TD*
G04 #@! TA.AperFunction,SMDPad,CuDef*
%ADD43R,1.100000X0.600000*%
G04 #@! TD*
G04 #@! TA.AperFunction,SMDPad,CuDef*
%ADD44RoundRect,0.250000X-0.850000X0.375000X-0.850000X-0.375000X0.850000X-0.375000X0.850000X0.375000X0*%
G04 #@! TD*
G04 #@! TA.AperFunction,SMDPad,CuDef*
%ADD45RoundRect,0.250000X0.850000X-0.375000X0.850000X0.375000X-0.850000X0.375000X-0.850000X-0.375000X0*%
G04 #@! TD*
G04 #@! TA.AperFunction,SMDPad,CuDef*
%ADD46RoundRect,0.200000X0.200000X0.525000X-0.200000X0.525000X-0.200000X-0.525000X0.200000X-0.525000X0*%
G04 #@! TD*
G04 #@! TA.AperFunction,SMDPad,CuDef*
%ADD47RoundRect,0.075000X0.225000X0.075000X-0.225000X0.075000X-0.225000X-0.075000X0.225000X-0.075000X0*%
G04 #@! TD*
G04 #@! TA.AperFunction,SMDPad,CuDef*
%ADD48RoundRect,0.075000X0.075000X0.787500X-0.075000X0.787500X-0.075000X-0.787500X0.075000X-0.787500X0*%
G04 #@! TD*
G04 #@! TA.AperFunction,SMDPad,CuDef*
%ADD49R,0.330200X0.304800*%
G04 #@! TD*
G04 #@! TA.AperFunction,SMDPad,CuDef*
%ADD50R,0.304800X0.330200*%
G04 #@! TD*
G04 #@! TA.AperFunction,SMDPad,CuDef*
%ADD51RoundRect,0.218750X-0.218750X-0.381250X0.218750X-0.381250X0.218750X0.381250X-0.218750X0.381250X0*%
G04 #@! TD*
G04 #@! TA.AperFunction,SMDPad,CuDef*
%ADD52R,0.600000X0.450000*%
G04 #@! TD*
G04 #@! TA.AperFunction,SMDPad,CuDef*
%ADD53R,0.450000X0.600000*%
G04 #@! TD*
G04 #@! TA.AperFunction,ViaPad*
%ADD54C,0.500000*%
G04 #@! TD*
G04 #@! TA.AperFunction,Conductor*
%ADD55C,0.200000*%
G04 #@! TD*
G04 #@! TA.AperFunction,Conductor*
%ADD56C,0.300000*%
G04 #@! TD*
G04 #@! TA.AperFunction,Conductor*
%ADD57C,0.127000*%
G04 #@! TD*
G04 #@! TA.AperFunction,Conductor*
%ADD58C,0.500000*%
G04 #@! TD*
G04 #@! TA.AperFunction,Conductor*
%ADD59C,1.000000*%
G04 #@! TD*
G04 APERTURE END LIST*
D10*
X91650000Y-162875000D03*
D11*
X94190000Y-162875000D03*
D12*
X100800000Y-174100000D03*
D13*
X103340000Y-174100000D03*
X105880000Y-174100000D03*
D10*
X101950000Y-133375000D03*
D11*
X104490000Y-133375000D03*
X107030000Y-133375000D03*
X109570000Y-133375000D03*
D10*
X93000000Y-160075000D03*
D11*
X93000000Y-157535000D03*
X93000000Y-154995000D03*
D10*
X82900000Y-153225000D03*
D11*
X80360000Y-153225000D03*
D14*
X87582380Y-167600000D03*
D15*
X85082380Y-167600000D03*
D12*
X85160000Y-174120000D03*
D13*
X87700000Y-174120000D03*
X90240000Y-174120000D03*
D12*
X93000000Y-174100000D03*
D13*
X95540000Y-174100000D03*
X98080000Y-174100000D03*
D14*
X103382380Y-167600000D03*
D15*
X100882380Y-167600000D03*
D14*
X95482380Y-167600000D03*
D15*
X92982380Y-167600000D03*
D16*
X116240000Y-165877500D03*
D17*
X111160000Y-165877500D03*
D10*
X88700000Y-153225000D03*
D11*
X86160000Y-153225000D03*
D12*
X77360000Y-174120000D03*
D13*
X79900000Y-174120000D03*
X82440000Y-174120000D03*
D18*
X71470000Y-162955000D03*
X71470000Y-155805000D03*
X71400000Y-139050000D03*
X71400000Y-146200000D03*
D14*
X79782380Y-167600000D03*
D15*
X77282380Y-167600000D03*
D19*
X86650000Y-163400000D03*
X88200000Y-163400000D03*
D20*
X97200000Y-156612500D03*
X97200000Y-158187500D03*
D21*
X89850000Y-158775000D03*
X89850000Y-157225000D03*
D22*
X116114286Y-139650000D03*
X116114286Y-141300000D03*
D23*
X90725000Y-138300000D03*
X89075000Y-138300000D03*
D22*
X84700000Y-149575000D03*
X84700000Y-151225000D03*
D19*
X85500000Y-148400000D03*
X87050000Y-148400000D03*
X81950000Y-159600000D03*
X83500000Y-159600000D03*
D21*
X97000000Y-164975000D03*
X97000000Y-163425000D03*
D24*
X88725000Y-159625000D03*
X88725000Y-157975000D03*
D25*
X86750000Y-145800000D03*
X88400000Y-145800000D03*
X107475000Y-156300000D03*
X109125000Y-156300000D03*
D26*
X106025000Y-152100000D03*
X108975000Y-152100000D03*
D19*
X81950000Y-160700000D03*
X83500000Y-160700000D03*
D21*
X76700000Y-134575000D03*
X76700000Y-133025000D03*
D19*
X105925000Y-140250000D03*
X107475000Y-140250000D03*
D23*
X89800000Y-147100000D03*
X88150000Y-147100000D03*
D27*
X83925000Y-162325000D03*
X83925000Y-163875000D03*
D22*
X74300000Y-139325000D03*
X74300000Y-140975000D03*
D20*
X96100000Y-156612500D03*
X96100000Y-158187500D03*
D23*
X91625000Y-137000000D03*
X89975000Y-137000000D03*
D21*
X76400000Y-140875000D03*
X76400000Y-139325000D03*
D28*
X86800000Y-156700000D03*
X85250000Y-156700000D03*
D19*
X85250000Y-162200000D03*
X86800000Y-162200000D03*
D29*
X89225000Y-145325000D03*
X89225000Y-144875000D03*
D30*
X89925000Y-145100000D03*
D28*
X83625000Y-151200000D03*
X82075000Y-151200000D03*
D25*
X103575000Y-164950000D03*
X105225000Y-164950000D03*
D31*
X109000000Y-141300000D03*
X109000000Y-141800000D03*
X109000000Y-142300000D03*
X109000000Y-142800000D03*
X106000000Y-142800000D03*
X106000000Y-142300000D03*
X106000000Y-141800000D03*
X106000000Y-141300000D03*
D32*
X107500000Y-142050000D03*
D33*
X78662500Y-143550000D03*
X78662500Y-143050000D03*
X78662500Y-142550000D03*
X78662500Y-142050000D03*
X78662500Y-141550000D03*
X78662500Y-141050000D03*
D34*
X79350000Y-140362500D03*
X79850000Y-140362500D03*
X80350000Y-140362500D03*
X80850000Y-140362500D03*
X81350000Y-140362500D03*
X81850000Y-140362500D03*
D33*
X82537500Y-141050000D03*
X82537500Y-141550000D03*
X82537500Y-142050000D03*
X82537500Y-142550000D03*
X82537500Y-143050000D03*
X82537500Y-143550000D03*
D34*
X81850000Y-144237500D03*
X81350000Y-144237500D03*
X80850000Y-144237500D03*
X80350000Y-144237500D03*
X79850000Y-144237500D03*
X79350000Y-144237500D03*
D35*
X80600000Y-142300000D03*
D28*
X88635000Y-151100000D03*
X87085000Y-151100000D03*
D19*
X112525000Y-141250000D03*
X114075000Y-141250000D03*
D36*
X96500000Y-155375000D03*
X96500000Y-152425000D03*
D19*
X82650000Y-157400000D03*
X84200000Y-157400000D03*
D27*
X80725000Y-163400000D03*
X80725000Y-164950000D03*
D25*
X107475000Y-158600000D03*
X109125000Y-158600000D03*
D37*
X85325000Y-160875000D03*
X85325000Y-159125000D03*
X86725000Y-159125000D03*
X86725000Y-160875000D03*
D19*
X82650000Y-156300000D03*
X84200000Y-156300000D03*
D22*
X99600000Y-160275000D03*
X99600000Y-161925000D03*
D38*
X83075000Y-165150000D03*
X82575000Y-165150000D03*
X82075000Y-165150000D03*
X81575000Y-165150000D03*
X81575000Y-162250000D03*
X82075000Y-162250000D03*
X82575000Y-162250000D03*
X83075000Y-162250000D03*
D39*
X82325000Y-163700000D03*
D24*
X72600000Y-144025000D03*
X72600000Y-142375000D03*
D40*
X111500000Y-173512500D03*
X111500000Y-171687500D03*
D21*
X77900000Y-134575000D03*
X77900000Y-133025000D03*
D19*
X112539286Y-139950000D03*
X114089286Y-139950000D03*
D41*
X104675000Y-150500000D03*
X101725000Y-150500000D03*
D42*
X98362500Y-165075000D03*
X98362500Y-164425000D03*
X98362500Y-163775000D03*
X98362500Y-163125000D03*
X100637500Y-163125000D03*
X100637500Y-163775000D03*
X100637500Y-164425000D03*
X100637500Y-165075000D03*
D43*
X110900000Y-141650000D03*
X110900000Y-140250000D03*
D25*
X87725000Y-165050000D03*
X89375000Y-165050000D03*
D19*
X81950000Y-158500000D03*
X83500000Y-158500000D03*
D44*
X98700000Y-151525000D03*
X98700000Y-153675000D03*
D45*
X102200000Y-156375000D03*
X102200000Y-154225000D03*
D21*
X102400000Y-165075000D03*
X102400000Y-163525000D03*
D25*
X104775000Y-158600000D03*
X106425000Y-158600000D03*
D24*
X91500000Y-148025000D03*
X91500000Y-146375000D03*
D25*
X85450000Y-147100000D03*
X87100000Y-147100000D03*
D46*
X106150000Y-154612500D03*
D47*
X106250000Y-155662500D03*
X106250000Y-156112500D03*
X106250000Y-156562500D03*
X104550000Y-156562500D03*
X104550000Y-156112500D03*
X104550000Y-155662500D03*
D46*
X104650000Y-154612500D03*
D48*
X105400000Y-154475000D03*
D28*
X86800000Y-157900000D03*
X85250000Y-157900000D03*
D49*
X98965801Y-141819037D03*
X98965801Y-142319163D03*
D50*
X98631026Y-142904001D03*
X98130900Y-142904001D03*
X97630774Y-142904001D03*
D49*
X97295999Y-142319163D03*
X97295999Y-141819037D03*
D50*
X97630774Y-141234199D03*
X98130900Y-141234199D03*
X98631026Y-141234199D03*
D27*
X88725000Y-160925000D03*
X88725000Y-162475000D03*
D28*
X99005000Y-140211467D03*
X97455000Y-140211467D03*
D25*
X75875000Y-138200000D03*
X77525000Y-138200000D03*
D19*
X102225000Y-157600000D03*
X103775000Y-157600000D03*
D28*
X106375000Y-157500000D03*
X104825000Y-157500000D03*
D41*
X104675000Y-152500000D03*
X101725000Y-152500000D03*
D51*
X107337500Y-154300000D03*
X109462500Y-154300000D03*
D24*
X103014286Y-142275000D03*
X103014286Y-140625000D03*
D21*
X77500000Y-140875000D03*
X77500000Y-139325000D03*
D25*
X103575000Y-163700000D03*
X105225000Y-163700000D03*
D52*
X111964286Y-143750000D03*
X114064286Y-143750000D03*
D53*
X73800000Y-147050000D03*
X73800000Y-144950000D03*
D24*
X104314286Y-142975000D03*
X104314286Y-141325000D03*
X73800000Y-144025000D03*
X73800000Y-142375000D03*
D21*
X110200000Y-157675000D03*
X110200000Y-156125000D03*
D40*
X109500000Y-173512500D03*
X109500000Y-171687500D03*
D27*
X98450000Y-160325000D03*
X98450000Y-161875000D03*
D28*
X109075000Y-157400000D03*
X107525000Y-157400000D03*
D36*
X98900000Y-158075000D03*
X98900000Y-155125000D03*
D29*
X85925000Y-145075000D03*
X85925000Y-145525000D03*
D30*
X85225000Y-145300000D03*
D23*
X80225000Y-139100000D03*
X78575000Y-139100000D03*
X88400000Y-144600000D03*
X86750000Y-144600000D03*
D22*
X90060000Y-149475000D03*
X90060000Y-151125000D03*
D28*
X110675000Y-143850000D03*
X109125000Y-143850000D03*
D54*
X109600000Y-159800000D03*
X110600000Y-137800000D03*
X107700000Y-159800000D03*
X111500000Y-159800000D03*
X108600000Y-137800000D03*
X108600000Y-159800000D03*
X107600000Y-137800000D03*
X109600000Y-137800000D03*
X111500000Y-137800000D03*
X110500000Y-159800000D03*
X84850000Y-155550000D03*
X78650000Y-138200000D03*
X84250000Y-159600000D03*
X98100000Y-142150000D03*
X107514286Y-142450000D03*
X92555000Y-133145000D03*
X110800000Y-172600000D03*
X110150000Y-158600000D03*
X103700000Y-153100000D03*
X97006717Y-161952748D03*
X103700000Y-152500000D03*
X103700000Y-150650000D03*
X99350000Y-157050000D03*
X111350000Y-172600000D03*
X84550000Y-164550000D03*
X85800000Y-139550000D03*
X85800000Y-141750000D03*
X103700000Y-151900000D03*
X79950000Y-142950000D03*
X97450000Y-139300000D03*
X87900000Y-148900000D03*
X97150000Y-159100000D03*
X84250000Y-160700000D03*
X103700000Y-151300000D03*
X110250000Y-172600000D03*
X83600000Y-141750000D03*
X98450000Y-157000000D03*
X79950000Y-164950000D03*
X108214286Y-143850000D03*
X107514286Y-141650000D03*
X87750000Y-162400000D03*
X103700000Y-150000000D03*
X79950000Y-141650000D03*
X110750000Y-158600000D03*
X83600000Y-139550000D03*
X78850000Y-154800000D03*
X95950000Y-133150000D03*
X78945000Y-133145000D03*
X89850000Y-156400000D03*
X87750000Y-161800000D03*
X97650000Y-161950000D03*
X81250000Y-142950000D03*
X79550000Y-133150000D03*
X115014286Y-140550000D03*
X100850000Y-161500000D03*
X75500000Y-139300000D03*
X81250000Y-141650000D03*
X84250000Y-158500000D03*
X87882394Y-160596938D03*
X88150000Y-148050000D03*
X81050000Y-159550000D03*
X83300000Y-161600000D03*
X103950000Y-158600000D03*
X86350000Y-164350000D03*
X98700000Y-150500000D03*
X100700000Y-154200000D03*
X79700000Y-163400000D03*
X99350000Y-141250000D03*
X81900000Y-156850000D03*
X78650000Y-140500000D03*
X86550000Y-155750000D03*
X99450000Y-150500000D03*
X103800000Y-140650000D03*
X78650000Y-139950000D03*
X100250000Y-151600000D03*
X95400000Y-160250000D03*
X89800000Y-160176503D03*
X100700000Y-153350000D03*
X81900000Y-156250000D03*
X100700000Y-152450000D03*
X100250000Y-150500000D03*
X79550000Y-134450000D03*
X78950000Y-134450000D03*
X97950000Y-150500000D03*
X91500000Y-145450000D03*
X96550000Y-142300000D03*
X116650000Y-159450000D03*
X110750000Y-174550000D03*
X73850000Y-153950000D03*
X110100000Y-174550000D03*
X117450000Y-160250000D03*
X112050000Y-174550000D03*
X109450000Y-174550000D03*
X117050000Y-159850000D03*
X108200000Y-173900000D03*
X111400000Y-174550000D03*
X116250000Y-159050000D03*
X112700000Y-173850000D03*
X89800000Y-159550000D03*
X81050000Y-160250000D03*
X81050000Y-158000000D03*
X84500000Y-145600000D03*
X75250000Y-140950000D03*
X75300000Y-142000000D03*
X75300000Y-142626503D03*
X85950000Y-146050000D03*
X82450000Y-144350000D03*
X92750000Y-149650000D03*
X87900000Y-159900000D03*
X83100000Y-164350000D03*
X91450000Y-149200000D03*
X92000000Y-138300000D03*
X92650000Y-137000000D03*
X82188873Y-164361127D03*
X82050000Y-165950000D03*
X80897226Y-161604923D03*
X80890725Y-160963249D03*
X82700000Y-161300000D03*
X100550000Y-160450000D03*
X95950000Y-164250000D03*
X99450000Y-165050000D03*
X96850000Y-161300000D03*
X99950000Y-143750000D03*
X100980837Y-142319163D03*
X94850000Y-157700000D03*
X89733309Y-161694436D03*
X89750893Y-161068181D03*
X94800000Y-158500000D03*
X85650000Y-155300000D03*
X78850000Y-161050000D03*
X82250000Y-155350000D03*
X83965000Y-155448583D03*
D55*
X110500000Y-159800000D02*
X111500000Y-159800000D01*
X109600000Y-159800000D02*
X110500000Y-159800000D01*
X108600000Y-159800000D02*
X107700000Y-159800000D01*
X111500000Y-137800000D02*
X110700000Y-137800000D01*
X109600000Y-159800000D02*
X108600000Y-159800000D01*
X114264286Y-137800000D02*
X111500000Y-137800000D01*
X116114286Y-139650000D02*
X114264286Y-137800000D01*
X109600000Y-137800000D02*
X108600000Y-137800000D01*
X110700000Y-137800000D02*
X110600000Y-137800000D01*
X108600000Y-137800000D02*
X107600000Y-137800000D01*
X110600000Y-137800000D02*
X109600000Y-137800000D01*
X103700000Y-153100000D02*
X103700000Y-152500000D01*
D56*
X80925000Y-165150000D02*
X80725000Y-164950000D01*
D57*
X87400000Y-148400000D02*
X87900000Y-148900000D01*
D55*
X97009465Y-161950000D02*
X97650000Y-161950000D01*
D56*
X81575000Y-163875000D02*
X81750000Y-163700000D01*
D55*
X87750000Y-162400000D02*
X87750000Y-161800000D01*
X107514286Y-141650000D02*
X107514286Y-140289286D01*
X83925000Y-163875000D02*
X83925000Y-163925000D01*
X97006717Y-161952748D02*
X97009465Y-161950000D01*
D58*
X85250000Y-156700000D02*
X85250000Y-157900000D01*
X77500000Y-139325000D02*
X77500000Y-138225000D01*
X85250000Y-155950000D02*
X85250000Y-156700000D01*
X85250000Y-157900000D02*
X85250000Y-159050000D01*
D55*
X107500000Y-141664286D02*
X107514286Y-141650000D01*
D57*
X87050000Y-148400000D02*
X87400000Y-148400000D01*
D55*
X114075000Y-139964286D02*
X114089286Y-139950000D01*
X79950000Y-142950000D02*
X79850000Y-143050000D01*
X104675000Y-152500000D02*
X104075000Y-153100000D01*
X107500000Y-142435714D02*
X107500000Y-142050000D01*
D58*
X84200000Y-157400000D02*
X84200000Y-157800000D01*
D55*
X98362500Y-163725000D02*
X98062500Y-163425000D01*
D56*
X81575000Y-165150000D02*
X80925000Y-165150000D01*
D55*
X98900000Y-158075000D02*
X98900000Y-157500000D01*
X107514286Y-142450000D02*
X107514286Y-141650000D01*
X103700000Y-152500000D02*
X103700000Y-151900000D01*
X107500000Y-142050000D02*
X107500000Y-141664286D01*
X97630774Y-142669226D02*
X98100000Y-142200000D01*
X104650000Y-152525000D02*
X104675000Y-152500000D01*
D58*
X84200000Y-156200000D02*
X84200000Y-157400000D01*
D55*
X97630774Y-141680774D02*
X97769037Y-141819037D01*
D56*
X80725000Y-164950000D02*
X79950000Y-164950000D01*
D55*
X109125000Y-143850000D02*
X109125000Y-142925000D01*
X98062500Y-163425000D02*
X98362500Y-163125000D01*
D58*
X78945000Y-133145000D02*
X79545000Y-133145000D01*
X109125000Y-158600000D02*
X110150000Y-158600000D01*
X79545000Y-133145000D02*
X79550000Y-133150000D01*
D55*
X109000000Y-142800000D02*
X108250000Y-142800000D01*
X103700000Y-151300000D02*
X103700000Y-150650000D01*
D58*
X77525000Y-138200000D02*
X78650000Y-138200000D01*
X84850000Y-155550000D02*
X84200000Y-156200000D01*
D55*
X114975000Y-140589286D02*
X115014286Y-140550000D01*
X98900000Y-158075000D02*
X98900000Y-157450000D01*
X98900000Y-157450000D02*
X98450000Y-157000000D01*
D58*
X76400000Y-139325000D02*
X77500000Y-139325000D01*
D57*
X80360000Y-152890000D02*
X80360000Y-153225000D01*
D55*
X81250000Y-142950000D02*
X80600000Y-142300000D01*
X104675000Y-152500000D02*
X105625000Y-152500000D01*
X97630774Y-141234199D02*
X97630774Y-141680774D01*
X98362500Y-163775000D02*
X98362500Y-163725000D01*
X79950000Y-141650000D02*
X80600000Y-142300000D01*
X98631026Y-142904001D02*
X98631026Y-142681026D01*
X97455000Y-140211467D02*
X97455000Y-139305000D01*
X109125000Y-158600000D02*
X109275000Y-158600000D01*
X109125000Y-158600000D02*
X109125000Y-157450000D01*
D57*
X97455000Y-139305000D02*
X97450000Y-139300000D01*
D55*
X108250000Y-142800000D02*
X107500000Y-142050000D01*
X109075000Y-157400000D02*
X109925000Y-157400000D01*
X104675000Y-152500000D02*
X104675000Y-150500000D01*
D58*
X78825000Y-133025000D02*
X78945000Y-133145000D01*
X75500000Y-139300000D02*
X75525000Y-139325000D01*
X77900000Y-133025000D02*
X78825000Y-133025000D01*
D55*
X97630774Y-141234199D02*
X97630774Y-140387241D01*
D58*
X89850000Y-157225000D02*
X89850000Y-156400000D01*
X85250000Y-159050000D02*
X85325000Y-159125000D01*
D55*
X107514286Y-142064286D02*
X107500000Y-142050000D01*
X87550000Y-162200000D02*
X87750000Y-162400000D01*
X79850000Y-143050000D02*
X78662500Y-143050000D01*
D56*
X83925000Y-163875000D02*
X83750000Y-163700000D01*
D55*
X114075000Y-141250000D02*
X114075000Y-140589286D01*
X107514286Y-142450000D02*
X107500000Y-142435714D01*
X83500000Y-160700000D02*
X84250000Y-160700000D01*
D57*
X82050000Y-151200000D02*
X80360000Y-152890000D01*
D58*
X110150000Y-158600000D02*
X110750000Y-158600000D01*
D55*
X97295999Y-141819037D02*
X97769037Y-141819037D01*
D58*
X77500000Y-138225000D02*
X77525000Y-138200000D01*
D55*
X114075000Y-140589286D02*
X114975000Y-140589286D01*
X98130900Y-141234199D02*
X98130900Y-142119100D01*
D56*
X83750000Y-163700000D02*
X82325000Y-163700000D01*
D55*
X86800000Y-160950000D02*
X86725000Y-160875000D01*
D56*
X81750000Y-163700000D02*
X82325000Y-163700000D01*
D55*
X97769037Y-141819037D02*
X98100000Y-142150000D01*
D57*
X87085000Y-151100000D02*
X87085000Y-152300000D01*
D55*
X98130900Y-142119100D02*
X98100000Y-142150000D01*
D58*
X75525000Y-139325000D02*
X76400000Y-139325000D01*
D55*
X81250000Y-141650000D02*
X80600000Y-142300000D01*
X86800000Y-162200000D02*
X86800000Y-160950000D01*
X97630774Y-140387241D02*
X97455000Y-140211467D01*
X98631026Y-142681026D02*
X98100000Y-142150000D01*
D56*
X81575000Y-165150000D02*
X81575000Y-163875000D01*
D58*
X83500000Y-158500000D02*
X83500000Y-160700000D01*
D55*
X83500000Y-159600000D02*
X84250000Y-159600000D01*
X109125000Y-142925000D02*
X109000000Y-142800000D01*
X97150000Y-159100000D02*
X97200000Y-159050000D01*
X104650000Y-154612500D02*
X104650000Y-152525000D01*
X107514286Y-140289286D02*
X107475000Y-140250000D01*
D57*
X82075000Y-151200000D02*
X82050000Y-151200000D01*
D55*
X97200000Y-159050000D02*
X97200000Y-158187500D01*
X103700000Y-150650000D02*
X103700000Y-150000000D01*
D57*
X87085000Y-152300000D02*
X86160000Y-153225000D01*
D58*
X84200000Y-156300000D02*
X84200000Y-157400000D01*
D55*
X105625000Y-152500000D02*
X106025000Y-152100000D01*
X86800000Y-162200000D02*
X87550000Y-162200000D01*
X109125000Y-157450000D02*
X109075000Y-157400000D01*
X103700000Y-151900000D02*
X103700000Y-151300000D01*
X98100000Y-142200000D02*
X98100000Y-142150000D01*
X109125000Y-143850000D02*
X108214286Y-143850000D01*
D58*
X84200000Y-157800000D02*
X83500000Y-158500000D01*
X76700000Y-133025000D02*
X77900000Y-133025000D01*
D55*
X97630774Y-142904001D02*
X97630774Y-142669226D01*
X109925000Y-157400000D02*
X110200000Y-157675000D01*
X109275000Y-158600000D02*
X110200000Y-157675000D01*
X97000000Y-163425000D02*
X98062500Y-163425000D01*
X83500000Y-158500000D02*
X84250000Y-158500000D01*
D58*
X84850000Y-155550000D02*
X85250000Y-155950000D01*
D55*
X107514286Y-142450000D02*
X107514286Y-142064286D01*
X114075000Y-140589286D02*
X114075000Y-139964286D01*
X83925000Y-163925000D02*
X84550000Y-164550000D01*
X79950000Y-142950000D02*
X80600000Y-142300000D01*
X98900000Y-157500000D02*
X99350000Y-157050000D01*
X104075000Y-153100000D02*
X103700000Y-153100000D01*
X85325000Y-160875000D02*
X85325000Y-162125000D01*
X87882394Y-160582394D02*
X87300000Y-160000000D01*
X85325000Y-162125000D02*
X85250000Y-162200000D01*
X86200000Y-160000000D02*
X85325000Y-160875000D01*
X87882394Y-160596938D02*
X87882394Y-160582394D01*
X87300000Y-160000000D02*
X86200000Y-160000000D01*
D58*
X86800000Y-157900000D02*
X86800000Y-159050000D01*
X86875000Y-157975000D02*
X86800000Y-157900000D01*
X88725000Y-157975000D02*
X86875000Y-157975000D01*
X86800000Y-159050000D02*
X86725000Y-159125000D01*
D55*
X104775000Y-158600000D02*
X104775000Y-157550000D01*
D58*
X77900000Y-134575000D02*
X78825000Y-134575000D01*
D55*
X86350000Y-163700000D02*
X86650000Y-163400000D01*
X100800000Y-154200000D02*
X100700000Y-154200000D01*
D56*
X83850000Y-162250000D02*
X83925000Y-162325000D01*
D55*
X98965801Y-141568974D02*
X98631026Y-141234199D01*
X78662500Y-141050000D02*
X78662500Y-140512500D01*
D57*
X81900000Y-159550000D02*
X81950000Y-159600000D01*
D55*
X100700000Y-152450000D02*
X100250000Y-152000000D01*
X86350000Y-164350000D02*
X86350000Y-163700000D01*
X82100000Y-156850000D02*
X82650000Y-156300000D01*
X104775000Y-157550000D02*
X104825000Y-157500000D01*
D58*
X81050000Y-159550000D02*
X81900000Y-159550000D01*
D55*
X99065801Y-141234199D02*
X99334199Y-141234199D01*
X98631026Y-141234199D02*
X98631026Y-140585441D01*
X78662500Y-140512500D02*
X78650000Y-140500000D01*
X98850000Y-141450000D02*
X99065801Y-141234199D01*
X78787500Y-140362500D02*
X78650000Y-140500000D01*
X97295999Y-142319163D02*
X96569163Y-142319163D01*
X80725000Y-163400000D02*
X79700000Y-163400000D01*
X101725000Y-152500000D02*
X101725000Y-153750000D01*
X106000000Y-140325000D02*
X105925000Y-140250000D01*
X88725000Y-160925000D02*
X89051503Y-160925000D01*
X100700000Y-153350000D02*
X100700000Y-154200000D01*
D58*
X78825000Y-134575000D02*
X78950000Y-134450000D01*
D55*
X100250000Y-152000000D02*
X100250000Y-151600000D01*
X82650000Y-157400000D02*
X82200000Y-156950000D01*
X100250000Y-150500000D02*
X99450000Y-150500000D01*
X106000000Y-141300000D02*
X104339286Y-141300000D01*
X79350000Y-140362500D02*
X78787500Y-140362500D01*
X83075000Y-161825000D02*
X83300000Y-161600000D01*
X101725000Y-153750000D02*
X102200000Y-154225000D01*
X98700000Y-150500000D02*
X97950000Y-150500000D01*
X98965801Y-141819037D02*
X98965801Y-141568974D01*
D58*
X86800000Y-156700000D02*
X86800000Y-156000000D01*
D55*
X82200000Y-156950000D02*
X82100000Y-156850000D01*
D58*
X86800000Y-156000000D02*
X86550000Y-155750000D01*
X78950000Y-134450000D02*
X79550000Y-134450000D01*
D55*
X100250000Y-151600000D02*
X100250000Y-150500000D01*
X78575000Y-139100000D02*
X78575000Y-139875000D01*
X76575000Y-141050000D02*
X76400000Y-140875000D01*
X89051503Y-160925000D02*
X89800000Y-160176503D01*
X98631026Y-140585441D02*
X99005000Y-140211467D01*
D57*
X87100000Y-147100000D02*
X88150000Y-147100000D01*
D56*
X103800000Y-140650000D02*
X104314286Y-141164286D01*
D55*
X78662500Y-141550000D02*
X78662500Y-141050000D01*
D57*
X88150000Y-147100000D02*
X88150000Y-148050000D01*
D55*
X83075000Y-162725000D02*
X82700000Y-163100000D01*
D57*
X91500000Y-146375000D02*
X91500000Y-145450000D01*
D55*
X104339286Y-141300000D02*
X104314286Y-141325000D01*
D58*
X104775000Y-158600000D02*
X103950000Y-158600000D01*
D55*
X81025000Y-163100000D02*
X80725000Y-163400000D01*
X83075000Y-162250000D02*
X83075000Y-162725000D01*
X81900000Y-156850000D02*
X82100000Y-156850000D01*
X78650000Y-140500000D02*
X78650000Y-139950000D01*
D58*
X76700000Y-134575000D02*
X77900000Y-134575000D01*
D55*
X106000000Y-141300000D02*
X106000000Y-140325000D01*
X83075000Y-162250000D02*
X83075000Y-161825000D01*
X82700000Y-163100000D02*
X81025000Y-163100000D01*
D56*
X103800000Y-140650000D02*
X103775000Y-140625000D01*
D57*
X99334199Y-141234199D02*
X99350000Y-141250000D01*
D55*
X100700000Y-152450000D02*
X100700000Y-153350000D01*
D56*
X103775000Y-140625000D02*
X103014286Y-140625000D01*
D55*
X78662500Y-141050000D02*
X76575000Y-141050000D01*
D56*
X104314286Y-141164286D02*
X104314286Y-141325000D01*
D55*
X99450000Y-150500000D02*
X98700000Y-150500000D01*
X102200000Y-154225000D02*
X100825000Y-154225000D01*
D57*
X96569163Y-142319163D02*
X96550000Y-142300000D01*
D55*
X100825000Y-154225000D02*
X100800000Y-154200000D01*
X101725000Y-150500000D02*
X101725000Y-152500000D01*
X78575000Y-139875000D02*
X78650000Y-139950000D01*
D56*
X83075000Y-162250000D02*
X83850000Y-162250000D01*
D55*
X98362500Y-164425000D02*
X97550000Y-164425000D01*
X97550000Y-164425000D02*
X97000000Y-164975000D01*
D57*
X108100000Y-172750000D02*
X107700000Y-172350000D01*
X105775000Y-164700000D02*
X105225000Y-165250000D01*
X107700000Y-172350000D02*
X107700000Y-165350000D01*
D58*
X109462500Y-154300000D02*
X109900000Y-154300000D01*
X73800000Y-161050000D02*
X79782380Y-167032380D01*
X73800000Y-147050000D02*
X73800000Y-161050000D01*
D57*
X109500000Y-173512500D02*
X109500000Y-173500000D01*
D59*
X117450000Y-160250000D02*
X111450000Y-154250000D01*
D58*
X109900000Y-154300000D02*
X109950000Y-154250000D01*
D59*
X111450000Y-154250000D02*
X109950000Y-154250000D01*
X109500000Y-173512500D02*
X111500000Y-173512500D01*
D57*
X107700000Y-165350000D02*
X107050000Y-164700000D01*
D58*
X79782380Y-167600000D02*
X79782380Y-174002380D01*
X79782380Y-174002380D02*
X79900000Y-174120000D01*
D57*
X108750000Y-172750000D02*
X108100000Y-172750000D01*
D58*
X79782380Y-167032380D02*
X79782380Y-167600000D01*
D57*
X107050000Y-164700000D02*
X105775000Y-164700000D01*
X109500000Y-173500000D02*
X108750000Y-172750000D01*
D55*
X102100000Y-165075000D02*
X102400000Y-165375000D01*
X100637500Y-165075000D02*
X102100000Y-165075000D01*
X103150000Y-165375000D02*
X103575000Y-164950000D01*
X102400000Y-165375000D02*
X103150000Y-165375000D01*
X102125000Y-163825000D02*
X103450000Y-163825000D01*
X100637500Y-164425000D02*
X101525000Y-164425000D01*
X103450000Y-163825000D02*
X103575000Y-163700000D01*
X101525000Y-164425000D02*
X102125000Y-163825000D01*
X107337500Y-154300000D02*
X107400000Y-154300000D01*
X108975000Y-152725000D02*
X108975000Y-152100000D01*
X106250000Y-154712500D02*
X106150000Y-154612500D01*
X107025000Y-154612500D02*
X107337500Y-154300000D01*
X106150000Y-154612500D02*
X107025000Y-154612500D01*
X106250000Y-155662500D02*
X106250000Y-154712500D01*
X107400000Y-154300000D02*
X108975000Y-152725000D01*
X81550000Y-158500000D02*
X81050000Y-158000000D01*
X81950000Y-158500000D02*
X81550000Y-158500000D01*
D58*
X81500000Y-160450000D02*
X81750000Y-160700000D01*
X81750000Y-160700000D02*
X81950000Y-160700000D01*
X81050000Y-160250000D02*
X81250000Y-160450000D01*
D55*
X89825000Y-159525000D02*
X89800000Y-159550000D01*
D58*
X81250000Y-160450000D02*
X81500000Y-160450000D01*
X89825000Y-158475000D02*
X89825000Y-159525000D01*
D55*
X110200000Y-156125000D02*
X109300000Y-156125000D01*
X109300000Y-156125000D02*
X109125000Y-156300000D01*
X102225000Y-157600000D02*
X102225000Y-156400000D01*
X105400000Y-154475000D02*
X105400000Y-155300000D01*
X102225000Y-156400000D02*
X102200000Y-156375000D01*
X102825000Y-156375000D02*
X102200000Y-156375000D01*
X105400000Y-155300000D02*
X105037500Y-155662500D01*
X105037500Y-155662500D02*
X104550000Y-155662500D01*
X104550000Y-155662500D02*
X103537500Y-155662500D01*
X103537500Y-155662500D02*
X102825000Y-156375000D01*
X104550000Y-156112500D02*
X104187500Y-156112500D01*
X104000000Y-156300000D02*
X104000000Y-157375000D01*
X104000000Y-157375000D02*
X103775000Y-157600000D01*
X104187500Y-156112500D02*
X104000000Y-156300000D01*
X107475000Y-156300000D02*
X107475000Y-157350000D01*
X107475000Y-157350000D02*
X107525000Y-157400000D01*
X107212500Y-156562500D02*
X107475000Y-156300000D01*
X106250000Y-156562500D02*
X107212500Y-156562500D01*
X107475000Y-158600000D02*
X106425000Y-158600000D01*
X106200000Y-157500000D02*
X105600000Y-156900000D01*
X105600000Y-156300000D02*
X105787500Y-156112500D01*
X105600000Y-156900000D02*
X105600000Y-156300000D01*
X106375000Y-157500000D02*
X106200000Y-157500000D01*
X105787500Y-156112500D02*
X106250000Y-156112500D01*
X106375000Y-158550000D02*
X106425000Y-158600000D01*
X106375000Y-157500000D02*
X106375000Y-158550000D01*
X109000000Y-141800000D02*
X110750000Y-141800000D01*
X112125000Y-141650000D02*
X112525000Y-141250000D01*
X110750000Y-141800000D02*
X110900000Y-141650000D01*
X110900000Y-141650000D02*
X112125000Y-141650000D01*
X110414286Y-140250000D02*
X110900000Y-140250000D01*
X110900000Y-140250000D02*
X112125000Y-140250000D01*
X109000000Y-141300000D02*
X109364286Y-141300000D01*
X109364286Y-141300000D02*
X110414286Y-140250000D01*
X112125000Y-140250000D02*
X112425000Y-139950000D01*
X112014286Y-143800000D02*
X110725000Y-143800000D01*
X110725000Y-143800000D02*
X110675000Y-143850000D01*
X110675000Y-143110714D02*
X110675000Y-143850000D01*
X109000000Y-142300000D02*
X109864286Y-142300000D01*
X109864286Y-142300000D02*
X110675000Y-143110714D01*
D57*
X85225000Y-146875000D02*
X85450000Y-147100000D01*
X84700000Y-149200000D02*
X85500000Y-148400000D01*
X85225000Y-145300000D02*
X85225000Y-146875000D01*
D55*
X85225000Y-145300000D02*
X84800000Y-145300000D01*
D57*
X84700000Y-149575000D02*
X84700000Y-149200000D01*
X85500000Y-148400000D02*
X85500000Y-147150000D01*
X85500000Y-147150000D02*
X85450000Y-147100000D01*
D55*
X84800000Y-145300000D02*
X84500000Y-145600000D01*
D57*
X88700000Y-151165000D02*
X88635000Y-151100000D01*
D55*
X88635000Y-151100000D02*
X90035000Y-151100000D01*
X90035000Y-151100000D02*
X90060000Y-151125000D01*
D57*
X88700000Y-153225000D02*
X88700000Y-151165000D01*
X82900000Y-151925000D02*
X82900000Y-153225000D01*
D55*
X84675000Y-151200000D02*
X84700000Y-151225000D01*
X83625000Y-151200000D02*
X84675000Y-151200000D01*
D57*
X83625000Y-151200000D02*
X82900000Y-151925000D01*
D55*
X116114286Y-142250000D02*
X116114286Y-141300000D01*
X114064286Y-143750000D02*
X114614286Y-143750000D01*
X114614286Y-143750000D02*
X116114286Y-142250000D01*
D58*
X72600000Y-144025000D02*
X73800000Y-144025000D01*
X73800000Y-144950000D02*
X73800000Y-144025000D01*
D57*
X89375000Y-165050000D02*
X89475000Y-165050000D01*
X89475000Y-165050000D02*
X91650000Y-162875000D01*
D58*
X75225000Y-140975000D02*
X75250000Y-140950000D01*
X72600000Y-142375000D02*
X73800000Y-142375000D01*
X73800000Y-141475000D02*
X74300000Y-140975000D01*
X73800000Y-142375000D02*
X73800000Y-141475000D01*
X74300000Y-140975000D02*
X75225000Y-140975000D01*
D56*
X75373000Y-142073000D02*
X77727000Y-142073000D01*
D55*
X77750000Y-142050000D02*
X78662500Y-142050000D01*
X77727000Y-142073000D02*
X77750000Y-142050000D01*
D56*
X75300000Y-142000000D02*
X75373000Y-142073000D01*
X75545291Y-142500000D02*
X77700000Y-142500000D01*
D55*
X78662500Y-142550000D02*
X77750000Y-142550000D01*
D56*
X75418788Y-142626503D02*
X75545291Y-142500000D01*
D55*
X77750000Y-142550000D02*
X77700000Y-142500000D01*
D56*
X75300000Y-142626503D02*
X75418788Y-142626503D01*
D57*
X86275000Y-145075000D02*
X86750000Y-144600000D01*
X85925000Y-145075000D02*
X86275000Y-145075000D01*
X86000000Y-146100000D02*
X85950000Y-146050000D01*
X86750000Y-145800000D02*
X86450000Y-146100000D01*
X86450000Y-146100000D02*
X86000000Y-146100000D01*
X81850000Y-144237500D02*
X82337500Y-144237500D01*
X82337500Y-144237500D02*
X82450000Y-144350000D01*
X85950000Y-145550000D02*
X85925000Y-145525000D01*
X85950000Y-146050000D02*
X85950000Y-145550000D01*
X88750000Y-145800000D02*
X89225000Y-145325000D01*
X88400000Y-145800000D02*
X88750000Y-145800000D01*
X89225000Y-144875000D02*
X88675000Y-144875000D01*
X87900000Y-143750000D02*
X85650000Y-143750000D01*
X88400000Y-144600000D02*
X88400000Y-144250000D01*
X85650000Y-143750000D02*
X83050000Y-146350000D01*
X88675000Y-144875000D02*
X88400000Y-144600000D01*
X83050000Y-146350000D02*
X81050000Y-146350000D01*
X88400000Y-144250000D02*
X87900000Y-143750000D01*
X81050000Y-146350000D02*
X79850000Y-145150000D01*
X79850000Y-145150000D02*
X79850000Y-144237500D01*
X89925000Y-146975000D02*
X89800000Y-147100000D01*
D55*
X90060000Y-149475000D02*
X90485000Y-149900000D01*
D57*
X90060000Y-147360000D02*
X89800000Y-147100000D01*
D55*
X92500000Y-149900000D02*
X92750000Y-149650000D01*
X90485000Y-149900000D02*
X92500000Y-149900000D01*
D57*
X90060000Y-149475000D02*
X90060000Y-147360000D01*
X89925000Y-145100000D02*
X89925000Y-146975000D01*
D55*
X87900000Y-159900000D02*
X88175000Y-159625000D01*
X88175000Y-159625000D02*
X88725000Y-159625000D01*
D57*
X83075000Y-165150000D02*
X83175000Y-165050000D01*
X83175000Y-165050000D02*
X87725000Y-165050000D01*
X83100000Y-164350000D02*
X83100000Y-165125000D01*
X83100000Y-165125000D02*
X83075000Y-165150000D01*
X105250000Y-163850000D02*
X105846000Y-164446000D01*
X107954000Y-172204000D02*
X108246000Y-172496000D01*
D59*
X111500000Y-171687500D02*
X109500000Y-171687500D01*
D57*
X107954000Y-165244790D02*
X107954000Y-172204000D01*
X107155210Y-164446000D02*
X107954000Y-165244790D01*
X109500000Y-171700000D02*
X109500000Y-171687500D01*
X105846000Y-164446000D02*
X107155210Y-164446000D01*
X108704000Y-172496000D02*
X109500000Y-171700000D01*
X105225000Y-163850000D02*
X105250000Y-163850000D01*
X108246000Y-172496000D02*
X108704000Y-172496000D01*
D55*
X99600000Y-162500000D02*
X99600000Y-161925000D01*
X100637500Y-163125000D02*
X100225000Y-163125000D01*
X100225000Y-163125000D02*
X99600000Y-162500000D01*
D57*
X91500000Y-149150000D02*
X91450000Y-149200000D01*
X91500000Y-148025000D02*
X91500000Y-149150000D01*
D55*
X76675000Y-137400000D02*
X75875000Y-138200000D01*
X78750000Y-137400000D02*
X76675000Y-137400000D01*
X74825000Y-138800000D02*
X75275000Y-138800000D01*
X79400000Y-138050000D02*
X78750000Y-137400000D01*
X79850000Y-139950000D02*
X79400000Y-139500000D01*
X74300000Y-139325000D02*
X74825000Y-138800000D01*
X79850000Y-140362500D02*
X79850000Y-139950000D01*
X75275000Y-138800000D02*
X75875000Y-138200000D01*
X79400000Y-139500000D02*
X79400000Y-138050000D01*
X80350000Y-139225000D02*
X80225000Y-139100000D01*
X80350000Y-140362500D02*
X80350000Y-139225000D01*
X90725000Y-138300000D02*
X92000000Y-138300000D01*
D57*
X88625000Y-137850000D02*
X89075000Y-138300000D01*
X80850000Y-145050000D02*
X81300000Y-145500000D01*
X80850000Y-144237500D02*
X80850000Y-145050000D01*
X84900000Y-143850000D02*
X84900000Y-139550000D01*
X86600000Y-137850000D02*
X88625000Y-137850000D01*
X83250000Y-145500000D02*
X84900000Y-143850000D01*
X84900000Y-139550000D02*
X86600000Y-137850000D01*
X81300000Y-145500000D02*
X83250000Y-145500000D01*
D55*
X91625000Y-137000000D02*
X92650000Y-137000000D01*
D57*
X81350000Y-144237500D02*
X81350000Y-144900000D01*
X84500000Y-139400000D02*
X86500000Y-137400000D01*
X81550000Y-145100000D02*
X83050000Y-145100000D01*
X89575000Y-137400000D02*
X89975000Y-137000000D01*
X81350000Y-144900000D02*
X81550000Y-145100000D01*
X84500000Y-143650000D02*
X84500000Y-139400000D01*
X86500000Y-137400000D02*
X89575000Y-137400000D01*
X83050000Y-145100000D02*
X84500000Y-143650000D01*
X82575000Y-164575000D02*
X82300000Y-164300000D01*
X82150000Y-164322254D02*
X82188873Y-164361127D01*
X82300000Y-164300000D02*
X82150000Y-164300000D01*
X82575000Y-165150000D02*
X82575000Y-164575000D01*
X82150000Y-164300000D02*
X82150000Y-164322254D01*
X82075000Y-165925000D02*
X82075000Y-165150000D01*
X82050000Y-165950000D02*
X82075000Y-165925000D01*
X81575000Y-162075000D02*
X81575000Y-162250000D01*
X81104923Y-161604923D02*
X81575000Y-162075000D01*
X80897226Y-161604923D02*
X81104923Y-161604923D01*
X81777000Y-161450000D02*
X82075000Y-161748000D01*
X82075000Y-161748000D02*
X82075000Y-162250000D01*
X80890725Y-160963249D02*
X81013249Y-160963249D01*
X81500000Y-161450000D02*
X81777000Y-161450000D01*
X81013249Y-160963249D02*
X81500000Y-161450000D01*
X82575000Y-162250000D02*
X82575000Y-161425000D01*
X82575000Y-161425000D02*
X82700000Y-161300000D01*
D55*
X100375000Y-160275000D02*
X99600000Y-160275000D01*
X99550000Y-160325000D02*
X99600000Y-160275000D01*
X100550000Y-160450000D02*
X100375000Y-160275000D01*
X98450000Y-160325000D02*
X99550000Y-160325000D01*
X99425000Y-165075000D02*
X98362500Y-165075000D01*
D58*
X96850000Y-161300000D02*
X96850000Y-160350000D01*
X99275000Y-155125000D02*
X98900000Y-155125000D01*
X99850000Y-159300000D02*
X100450000Y-158700000D01*
X96850000Y-160350000D02*
X97900000Y-159300000D01*
X100450000Y-156300000D02*
X99275000Y-155125000D01*
X96561376Y-161300000D02*
X95950000Y-161911376D01*
X100450000Y-158700000D02*
X100450000Y-156300000D01*
X95950000Y-161911376D02*
X95950000Y-164250000D01*
X97900000Y-159300000D02*
X99850000Y-159300000D01*
D55*
X99450000Y-165050000D02*
X99425000Y-165075000D01*
D58*
X96850000Y-161300000D02*
X96561376Y-161300000D01*
D57*
X98450000Y-143750000D02*
X98130900Y-143430900D01*
D55*
X106000000Y-142800000D02*
X104489286Y-142800000D01*
D57*
X102625000Y-142975000D02*
X101850000Y-143750000D01*
X99950000Y-143750000D02*
X98450000Y-143750000D01*
D55*
X104489286Y-142800000D02*
X104314286Y-142975000D01*
D57*
X104314286Y-142975000D02*
X102625000Y-142975000D01*
X98130900Y-143430900D02*
X98130900Y-142904001D01*
X101850000Y-143750000D02*
X99950000Y-143750000D01*
D55*
X103039286Y-142300000D02*
X103014286Y-142275000D01*
D57*
X98965801Y-142319163D02*
X100980837Y-142319163D01*
X102970123Y-142319163D02*
X100980837Y-142319163D01*
X103014286Y-142275000D02*
X102970123Y-142319163D01*
D55*
X106000000Y-142300000D02*
X103039286Y-142300000D01*
D57*
X94850000Y-159261481D02*
X95240500Y-158870981D01*
X94850000Y-161150000D02*
X94850000Y-159261481D01*
X95240500Y-158090500D02*
X94850000Y-157700000D01*
X89733309Y-161694436D02*
X89777745Y-161650000D01*
X94350000Y-161650000D02*
X94850000Y-161150000D01*
X95240500Y-158870981D02*
X95240500Y-158090500D01*
X89777745Y-161650000D02*
X94350000Y-161650000D01*
X90032712Y-161350000D02*
X94050000Y-161350000D01*
X94050000Y-161350000D02*
X94350000Y-161050000D01*
X94350000Y-161050000D02*
X94350000Y-158950000D01*
X94350000Y-158950000D02*
X94800000Y-158500000D01*
X89750893Y-161068181D02*
X90032712Y-161350000D01*
X85650000Y-155300000D02*
X85650000Y-155200000D01*
X85350000Y-154900000D02*
X81850000Y-154900000D01*
X79350000Y-157400000D02*
X79350000Y-160550000D01*
X85650000Y-155200000D02*
X85350000Y-154900000D01*
X79350000Y-160550000D02*
X78850000Y-161050000D01*
X81850000Y-154900000D02*
X79350000Y-157400000D01*
X83965000Y-155448583D02*
X83866417Y-155350000D01*
X83866417Y-155350000D02*
X82250000Y-155350000D01*
G04 #@! TA.AperFunction,Conductor*
G36*
X97318306Y-155068306D02*
G01*
X97631694Y-155381694D01*
X97650000Y-155425888D01*
X97650000Y-156824112D01*
X97631694Y-156868306D01*
X97618306Y-156881694D01*
X97574112Y-156900000D01*
X96075888Y-156900000D01*
X96031694Y-156881694D01*
X95618306Y-156468306D01*
X95600000Y-156424112D01*
X95600000Y-155175888D01*
X95618306Y-155131694D01*
X95681694Y-155068306D01*
X95725888Y-155050000D01*
X97274112Y-155050000D01*
X97318306Y-155068306D01*
G37*
G04 #@! TD.AperFunction*
G04 #@! TA.AperFunction,Conductor*
G36*
X98881694Y-161618306D02*
G01*
X98900000Y-161662500D01*
X98900000Y-163787500D01*
X98881694Y-163831694D01*
X98837500Y-163850000D01*
X97025888Y-163850000D01*
X96981694Y-163831694D01*
X96618306Y-163468306D01*
X96600000Y-163424112D01*
X96600000Y-162025888D01*
X96618306Y-161981694D01*
X96916192Y-161683808D01*
X96950608Y-161666272D01*
X96965060Y-161663983D01*
X96965063Y-161663982D01*
X96968108Y-161663500D01*
X96969386Y-161662849D01*
X96973970Y-161662086D01*
X96980355Y-161658641D01*
X96994962Y-161652990D01*
X97001996Y-161651243D01*
X97006332Y-161648443D01*
X97006335Y-161648442D01*
X97036113Y-161629214D01*
X97041642Y-161626032D01*
X97074655Y-161609211D01*
X97075128Y-161610138D01*
X97106331Y-161600000D01*
X98837500Y-161600000D01*
X98881694Y-161618306D01*
G37*
G04 #@! TD.AperFunction*
G04 #@! TA.AperFunction,Conductor*
G36*
X107221699Y-159200535D02*
G01*
X107234593Y-159202233D01*
X107234601Y-159202233D01*
X107236625Y-159202500D01*
X107238672Y-159202500D01*
X107475642Y-159202499D01*
X107713374Y-159202499D01*
X107715385Y-159202234D01*
X107715390Y-159202234D01*
X107728303Y-159200534D01*
X107736459Y-159200000D01*
X108863541Y-159200000D01*
X108871699Y-159200535D01*
X108884593Y-159202233D01*
X108884601Y-159202233D01*
X108886625Y-159202500D01*
X108888672Y-159202500D01*
X109125642Y-159202499D01*
X109363374Y-159202499D01*
X109365385Y-159202234D01*
X109365390Y-159202234D01*
X109378303Y-159200534D01*
X109386459Y-159200000D01*
X112037500Y-159200000D01*
X112081694Y-159218306D01*
X112100000Y-159262500D01*
X112100000Y-160337500D01*
X112081694Y-160381694D01*
X112037500Y-160400000D01*
X107162500Y-160400000D01*
X107118306Y-160381694D01*
X107100000Y-160337500D01*
X107100000Y-159262500D01*
X107118306Y-159218306D01*
X107162500Y-159200000D01*
X107213541Y-159200000D01*
X107221699Y-159200535D01*
G37*
G04 #@! TD.AperFunction*
G04 #@! TA.AperFunction,Conductor*
G36*
X109142121Y-150820002D02*
G01*
X109188614Y-150873658D01*
X109200000Y-150926000D01*
X109200000Y-153247810D01*
X109179998Y-153315931D01*
X109163095Y-153336905D01*
X108966541Y-153533459D01*
X108953017Y-153545186D01*
X108905670Y-153580670D01*
X108870186Y-153628017D01*
X108858459Y-153641541D01*
X106776804Y-155723196D01*
X106714494Y-155757220D01*
X106643679Y-155752156D01*
X106634462Y-155748295D01*
X106570332Y-155718391D01*
X106570328Y-155718390D01*
X106561596Y-155714318D01*
X106552043Y-155713060D01*
X106552042Y-155713060D01*
X106517694Y-155708538D01*
X106517695Y-155708538D01*
X106513608Y-155708000D01*
X106160190Y-155708000D01*
X106092069Y-155687998D01*
X106071095Y-155671095D01*
X106036905Y-155636905D01*
X106002879Y-155574593D01*
X106000000Y-155547810D01*
X106000000Y-154026000D01*
X106020002Y-153957879D01*
X106073658Y-153911386D01*
X106126000Y-153900000D01*
X106700000Y-153900000D01*
X107500000Y-153100000D01*
X107500000Y-151452190D01*
X107520002Y-151384069D01*
X107536905Y-151363095D01*
X108063095Y-150836905D01*
X108125407Y-150802879D01*
X108152190Y-150800000D01*
X109074000Y-150800000D01*
X109142121Y-150820002D01*
G37*
G04 #@! TD.AperFunction*
G04 #@! TA.AperFunction,Conductor*
G36*
X97418306Y-152168306D02*
G01*
X98350000Y-153100000D01*
X99374112Y-153100000D01*
X99418306Y-153118306D01*
X99731694Y-153431694D01*
X99750000Y-153475888D01*
X99750000Y-154974112D01*
X99731694Y-155018306D01*
X99418306Y-155331694D01*
X99374112Y-155350000D01*
X98125888Y-155350000D01*
X98081694Y-155331694D01*
X97868306Y-155118306D01*
X97850000Y-155074112D01*
X97850000Y-154700000D01*
X96750000Y-153600000D01*
X96075888Y-153600000D01*
X96031694Y-153581694D01*
X95668306Y-153218306D01*
X95650000Y-153174112D01*
X95650000Y-152325888D01*
X95668306Y-152281694D01*
X95781694Y-152168306D01*
X95825888Y-152150000D01*
X97374112Y-152150000D01*
X97418306Y-152168306D01*
G37*
G04 #@! TD.AperFunction*
G04 #@! TA.AperFunction,Conductor*
G36*
X112042121Y-137220002D02*
G01*
X112088614Y-137273658D01*
X112100000Y-137326000D01*
X112100000Y-138274000D01*
X112079998Y-138342121D01*
X112026342Y-138388614D01*
X111974000Y-138400000D01*
X107226000Y-138400000D01*
X107157879Y-138379998D01*
X107111386Y-138326342D01*
X107100000Y-138274000D01*
X107100000Y-137326000D01*
X107120002Y-137257879D01*
X107173658Y-137211386D01*
X107226000Y-137200000D01*
X111974000Y-137200000D01*
X112042121Y-137220002D01*
G37*
G04 #@! TD.AperFunction*
G04 #@! TA.AperFunction,Conductor*
G36*
X78931694Y-139318306D02*
G01*
X78950000Y-139362500D01*
X78950000Y-139807584D01*
X78959322Y-139816434D01*
X78959322Y-139816435D01*
X79091288Y-139941729D01*
X79091289Y-139941729D01*
X79100000Y-139950000D01*
X79237500Y-139950000D01*
X79281694Y-139968306D01*
X79300000Y-140012500D01*
X79300000Y-140724112D01*
X79281694Y-140768306D01*
X78918306Y-141131694D01*
X78874112Y-141150000D01*
X76312500Y-141150000D01*
X76268306Y-141131694D01*
X76250000Y-141087500D01*
X76250000Y-140512500D01*
X76268306Y-140468306D01*
X76312500Y-140450000D01*
X78100000Y-140450000D01*
X78300000Y-140250000D01*
X78300000Y-139362500D01*
X78318306Y-139318306D01*
X78362500Y-139300000D01*
X78887500Y-139300000D01*
X78931694Y-139318306D01*
G37*
G04 #@! TD.AperFunction*
G04 #@! TA.AperFunction,Conductor*
G36*
X84118306Y-161368306D02*
G01*
X84381694Y-161631694D01*
X84400000Y-161675888D01*
X84400000Y-162187500D01*
X84381694Y-162231694D01*
X84337500Y-162250000D01*
X83062500Y-162250000D01*
X83018306Y-162231694D01*
X83000000Y-162187500D01*
X83000000Y-161675888D01*
X83018306Y-161631694D01*
X83281694Y-161368306D01*
X83325888Y-161350000D01*
X84074112Y-161350000D01*
X84118306Y-161368306D01*
G37*
G04 #@! TD.AperFunction*
G04 #@! TA.AperFunction,Conductor*
G36*
X87218306Y-160868306D02*
G01*
X88400000Y-162050000D01*
X88837500Y-162050000D01*
X88881694Y-162068306D01*
X88900000Y-162112500D01*
X88900000Y-163624112D01*
X88881694Y-163668306D01*
X88718306Y-163831694D01*
X88674112Y-163850000D01*
X87771923Y-163850000D01*
X87732880Y-163836304D01*
X87523457Y-163668766D01*
X87500382Y-163626864D01*
X87500000Y-163619962D01*
X87500000Y-163000000D01*
X87150000Y-162650000D01*
X86712500Y-162650000D01*
X86668306Y-162631694D01*
X86650000Y-162587500D01*
X86650000Y-160912500D01*
X86668306Y-160868306D01*
X86712500Y-160850000D01*
X87174112Y-160850000D01*
X87218306Y-160868306D01*
G37*
G04 #@! TD.AperFunction*
G04 #@! TA.AperFunction,Conductor*
G36*
X112768306Y-162068306D02*
G01*
X114281694Y-163581694D01*
X114300000Y-163625888D01*
X114300000Y-171024112D01*
X114281694Y-171068306D01*
X113218306Y-172131694D01*
X113174112Y-172150000D01*
X108575888Y-172150000D01*
X108531694Y-172131694D01*
X108268306Y-171868306D01*
X108250000Y-171824112D01*
X108250000Y-163675888D01*
X108268306Y-163631694D01*
X109831694Y-162068306D01*
X109875888Y-162050000D01*
X112724112Y-162050000D01*
X112768306Y-162068306D01*
G37*
G04 #@! TD.AperFunction*
G04 #@! TA.AperFunction,Conductor*
G36*
X104918306Y-149618306D02*
G01*
X106481694Y-151181694D01*
X106500000Y-151225888D01*
X106500000Y-152674112D01*
X106481694Y-152718306D01*
X106018306Y-153181694D01*
X105974112Y-153200000D01*
X105300000Y-153200000D01*
X105000000Y-153500000D01*
X105000000Y-154874112D01*
X104981694Y-154918306D01*
X104618306Y-155281694D01*
X104574112Y-155300000D01*
X104425888Y-155300000D01*
X104381694Y-155281694D01*
X104218306Y-155118306D01*
X104200000Y-155074112D01*
X104200000Y-153700000D01*
X104000000Y-153500000D01*
X103625888Y-153500000D01*
X103581694Y-153481694D01*
X103218306Y-153118306D01*
X103200000Y-153074112D01*
X103200000Y-150025888D01*
X103218306Y-149981694D01*
X103581694Y-149618306D01*
X103625888Y-149600000D01*
X104874112Y-149600000D01*
X104918306Y-149618306D01*
G37*
G04 #@! TD.AperFunction*
G04 #@! TA.AperFunction,Conductor*
G36*
X102042121Y-149620002D02*
G01*
X102088614Y-149673658D01*
X102100000Y-149726000D01*
X102100000Y-154674000D01*
X102079998Y-154742121D01*
X102026342Y-154788614D01*
X101974000Y-154800000D01*
X100952190Y-154800000D01*
X100884069Y-154779998D01*
X100863095Y-154763095D01*
X100436905Y-154336905D01*
X100402879Y-154274593D01*
X100400000Y-154247810D01*
X100400000Y-152700000D01*
X99900000Y-152200000D01*
X98152190Y-152200000D01*
X98084069Y-152179998D01*
X98063095Y-152163095D01*
X97636905Y-151736905D01*
X97602879Y-151674593D01*
X97600000Y-151647810D01*
X97600000Y-150452190D01*
X97620002Y-150384069D01*
X97636905Y-150363095D01*
X98363095Y-149636905D01*
X98425407Y-149602879D01*
X98452190Y-149600000D01*
X101974000Y-149600000D01*
X102042121Y-149620002D01*
G37*
G04 #@! TD.AperFunction*
G04 #@! TA.AperFunction,Conductor*
G36*
X99418306Y-156618306D02*
G01*
X99781694Y-156981694D01*
X99800000Y-157025888D01*
X99800000Y-157974112D01*
X99781694Y-158018306D01*
X99218306Y-158581694D01*
X99174112Y-158600000D01*
X95875888Y-158600000D01*
X95831694Y-158581694D01*
X95668306Y-158418306D01*
X95650000Y-158374112D01*
X95650000Y-158025888D01*
X95668306Y-157981694D01*
X96181694Y-157468306D01*
X96225888Y-157450000D01*
X97650000Y-157450000D01*
X98481694Y-156618306D01*
X98525888Y-156600000D01*
X99374112Y-156600000D01*
X99418306Y-156618306D01*
G37*
G04 #@! TD.AperFunction*
G04 #@! TA.AperFunction,Conductor*
G36*
X81317321Y-165759136D02*
G01*
X81325699Y-165764734D01*
X81399933Y-165779500D01*
X81418791Y-165779500D01*
X81486912Y-165799502D01*
X81533405Y-165853158D01*
X81543291Y-165924885D01*
X81540350Y-165943773D01*
X81541514Y-165952675D01*
X81541514Y-165952678D01*
X81557924Y-166078164D01*
X81559088Y-166087065D01*
X81617289Y-166219339D01*
X81710276Y-166329960D01*
X81717747Y-166334933D01*
X81717748Y-166334934D01*
X81823101Y-166405063D01*
X81823103Y-166405064D01*
X81830574Y-166410037D01*
X81839138Y-166412713D01*
X81839141Y-166412714D01*
X81899542Y-166431585D01*
X81968510Y-166453132D01*
X82112998Y-166455780D01*
X82132530Y-166450455D01*
X82243763Y-166420130D01*
X82243765Y-166420129D01*
X82252422Y-166417769D01*
X82375572Y-166342154D01*
X82472551Y-166235014D01*
X82535560Y-166104962D01*
X82559536Y-165962453D01*
X82559688Y-165950000D01*
X82555873Y-165923362D01*
X82566015Y-165853094D01*
X82612538Y-165799464D01*
X82680599Y-165779499D01*
X82750066Y-165779499D01*
X82800419Y-165769484D01*
X82849579Y-165769484D01*
X82899933Y-165779500D01*
X83074971Y-165779500D01*
X83250066Y-165779499D01*
X83285818Y-165772388D01*
X83312126Y-165767156D01*
X83312128Y-165767155D01*
X83324301Y-165764734D01*
X83332681Y-165759135D01*
X83378608Y-165750000D01*
X87341953Y-165750000D01*
X87383701Y-165757118D01*
X87438873Y-165776493D01*
X87446515Y-165777215D01*
X87446518Y-165777216D01*
X87461421Y-165778624D01*
X87470685Y-165779500D01*
X87724828Y-165779500D01*
X87979314Y-165779499D01*
X87982262Y-165779220D01*
X87982271Y-165779220D01*
X88003478Y-165777216D01*
X88003480Y-165777216D01*
X88011127Y-165776493D01*
X88066299Y-165757118D01*
X88108047Y-165750000D01*
X88991953Y-165750000D01*
X89033701Y-165757118D01*
X89088873Y-165776493D01*
X89096515Y-165777215D01*
X89096518Y-165777216D01*
X89111421Y-165778624D01*
X89120685Y-165779500D01*
X89374828Y-165779500D01*
X89629314Y-165779499D01*
X89632262Y-165779220D01*
X89632271Y-165779220D01*
X89653478Y-165777216D01*
X89653480Y-165777216D01*
X89661127Y-165776493D01*
X89716299Y-165757118D01*
X89758047Y-165750000D01*
X101961436Y-165750000D01*
X102005663Y-165758018D01*
X102045976Y-165773130D01*
X102104611Y-165779500D01*
X102399956Y-165779500D01*
X102695388Y-165779499D01*
X102698782Y-165779130D01*
X102698788Y-165779130D01*
X102746165Y-165773984D01*
X102746168Y-165773983D01*
X102754024Y-165773130D01*
X102794337Y-165758018D01*
X102838564Y-165750000D01*
X106197810Y-165750000D01*
X106265931Y-165770002D01*
X106286905Y-165786905D01*
X107163095Y-166663095D01*
X107197121Y-166725407D01*
X107200000Y-166752190D01*
X107200000Y-172250000D01*
X108000000Y-173050000D01*
X109983976Y-173050000D01*
X110030426Y-173060511D01*
X110030574Y-173060037D01*
X110039144Y-173062714D01*
X110039145Y-173062715D01*
X110055322Y-173067769D01*
X110168510Y-173103132D01*
X110312998Y-173105780D01*
X110332530Y-173100455D01*
X110443763Y-173070130D01*
X110443765Y-173070129D01*
X110452422Y-173067769D01*
X110460068Y-173063075D01*
X110466336Y-173060362D01*
X110516374Y-173050000D01*
X110533976Y-173050000D01*
X110580426Y-173060511D01*
X110580574Y-173060037D01*
X110589144Y-173062714D01*
X110589145Y-173062715D01*
X110605322Y-173067769D01*
X110718510Y-173103132D01*
X110862998Y-173105780D01*
X110882530Y-173100455D01*
X110993763Y-173070130D01*
X110993765Y-173070129D01*
X111002422Y-173067769D01*
X111010068Y-173063075D01*
X111016336Y-173060362D01*
X111066374Y-173050000D01*
X111083976Y-173050000D01*
X111130426Y-173060511D01*
X111130574Y-173060037D01*
X111139144Y-173062714D01*
X111139145Y-173062715D01*
X111155322Y-173067769D01*
X111268510Y-173103132D01*
X111412998Y-173105780D01*
X111432530Y-173100455D01*
X111543763Y-173070130D01*
X111543765Y-173070129D01*
X111552422Y-173067769D01*
X111560068Y-173063074D01*
X111566336Y-173060362D01*
X111616374Y-173050000D01*
X113047810Y-173050000D01*
X113115931Y-173070002D01*
X113136905Y-173086905D01*
X113563095Y-173513095D01*
X113597121Y-173575407D01*
X113600000Y-173602190D01*
X113600000Y-176147810D01*
X113579998Y-176215931D01*
X113563095Y-176236905D01*
X113136905Y-176663095D01*
X113074593Y-176697121D01*
X113047810Y-176700000D01*
X79802190Y-176700000D01*
X79734069Y-176679998D01*
X79713095Y-176663095D01*
X78536905Y-175486905D01*
X78502879Y-175424593D01*
X78500000Y-175397810D01*
X78500000Y-174398611D01*
X81315500Y-174398611D01*
X81330765Y-174558605D01*
X81391168Y-174764503D01*
X81489417Y-174955264D01*
X81621965Y-175124005D01*
X81784029Y-175264637D01*
X81969763Y-175372087D01*
X82030194Y-175393072D01*
X82166799Y-175440509D01*
X82166801Y-175440509D01*
X82172464Y-175442476D01*
X82178399Y-175443337D01*
X82178401Y-175443337D01*
X82378879Y-175472405D01*
X82378882Y-175472405D01*
X82384819Y-175473266D01*
X82599164Y-175463346D01*
X82604988Y-175461942D01*
X82604991Y-175461942D01*
X82801934Y-175414478D01*
X82801936Y-175414477D01*
X82807767Y-175413072D01*
X82813225Y-175410590D01*
X82813229Y-175410589D01*
X82988748Y-175330785D01*
X83003099Y-175324260D01*
X83178114Y-175200113D01*
X83326495Y-175045112D01*
X83347387Y-175012756D01*
X84035500Y-175012756D01*
X84042202Y-175074448D01*
X84044974Y-175081841D01*
X84044974Y-175081843D01*
X84053282Y-175104005D01*
X84092929Y-175209764D01*
X84098309Y-175216943D01*
X84098311Y-175216946D01*
X84131107Y-175260705D01*
X84179596Y-175325404D01*
X84186776Y-175330785D01*
X84288054Y-175406689D01*
X84288057Y-175406691D01*
X84295236Y-175412071D01*
X84377201Y-175442798D01*
X84423157Y-175460026D01*
X84423159Y-175460026D01*
X84430552Y-175462798D01*
X84438402Y-175463651D01*
X84438403Y-175463651D01*
X84488847Y-175469131D01*
X84492244Y-175469500D01*
X85827756Y-175469500D01*
X85831153Y-175469131D01*
X85881597Y-175463651D01*
X85881598Y-175463651D01*
X85889448Y-175462798D01*
X85896841Y-175460026D01*
X85896843Y-175460026D01*
X85942799Y-175442798D01*
X86024764Y-175412071D01*
X86031943Y-175406691D01*
X86031946Y-175406689D01*
X86133224Y-175330785D01*
X86140404Y-175325404D01*
X86188893Y-175260705D01*
X86221689Y-175216946D01*
X86221691Y-175216943D01*
X86227071Y-175209764D01*
X86266718Y-175104005D01*
X86275026Y-175081843D01*
X86275026Y-175081841D01*
X86277798Y-175074448D01*
X86284500Y-175012756D01*
X86284500Y-174398611D01*
X89115500Y-174398611D01*
X89130765Y-174558605D01*
X89191168Y-174764503D01*
X89289417Y-174955264D01*
X89421965Y-175124005D01*
X89584029Y-175264637D01*
X89769763Y-175372087D01*
X89830194Y-175393072D01*
X89966799Y-175440509D01*
X89966801Y-175440509D01*
X89972464Y-175442476D01*
X89978399Y-175443337D01*
X89978401Y-175443337D01*
X90178879Y-175472405D01*
X90178882Y-175472405D01*
X90184819Y-175473266D01*
X90399164Y-175463346D01*
X90404988Y-175461942D01*
X90404991Y-175461942D01*
X90601934Y-175414478D01*
X90601936Y-175414477D01*
X90607767Y-175413072D01*
X90613225Y-175410590D01*
X90613229Y-175410589D01*
X90788748Y-175330785D01*
X90803099Y-175324260D01*
X90978114Y-175200113D01*
X91126495Y-175045112D01*
X91160301Y-174992756D01*
X91875500Y-174992756D01*
X91875869Y-174996152D01*
X91875869Y-174996153D01*
X91877302Y-175009339D01*
X91882202Y-175054448D01*
X91884974Y-175061841D01*
X91884974Y-175061843D01*
X91892472Y-175081843D01*
X91932929Y-175189764D01*
X91938309Y-175196943D01*
X91938311Y-175196946D01*
X91971107Y-175240705D01*
X92019596Y-175305404D01*
X92026776Y-175310785D01*
X92128054Y-175386689D01*
X92128057Y-175386691D01*
X92135236Y-175392071D01*
X92218639Y-175423337D01*
X92263157Y-175440026D01*
X92263159Y-175440026D01*
X92270552Y-175442798D01*
X92278402Y-175443651D01*
X92278403Y-175443651D01*
X92328847Y-175449131D01*
X92332244Y-175449500D01*
X93667756Y-175449500D01*
X93671153Y-175449131D01*
X93721597Y-175443651D01*
X93721598Y-175443651D01*
X93729448Y-175442798D01*
X93736841Y-175440026D01*
X93736843Y-175440026D01*
X93781361Y-175423337D01*
X93864764Y-175392071D01*
X93871943Y-175386691D01*
X93871946Y-175386689D01*
X93973224Y-175310785D01*
X93980404Y-175305404D01*
X94028893Y-175240705D01*
X94061689Y-175196946D01*
X94061691Y-175196943D01*
X94067071Y-175189764D01*
X94107528Y-175081843D01*
X94115026Y-175061843D01*
X94115026Y-175061841D01*
X94117798Y-175054448D01*
X94122699Y-175009339D01*
X94124131Y-174996153D01*
X94124131Y-174996152D01*
X94124500Y-174992756D01*
X94124500Y-174378611D01*
X96955500Y-174378611D01*
X96970765Y-174538605D01*
X97031168Y-174744503D01*
X97129417Y-174935264D01*
X97261965Y-175104005D01*
X97424029Y-175244637D01*
X97609763Y-175352087D01*
X97658701Y-175369081D01*
X97806799Y-175420509D01*
X97806801Y-175420509D01*
X97812464Y-175422476D01*
X97818399Y-175423337D01*
X97818401Y-175423337D01*
X98018879Y-175452405D01*
X98018882Y-175452405D01*
X98024819Y-175453266D01*
X98239164Y-175443346D01*
X98244988Y-175441942D01*
X98244991Y-175441942D01*
X98441934Y-175394478D01*
X98441936Y-175394477D01*
X98447767Y-175393072D01*
X98453225Y-175390590D01*
X98453229Y-175390589D01*
X98599111Y-175324260D01*
X98643099Y-175304260D01*
X98818114Y-175180113D01*
X98966495Y-175025112D01*
X98987387Y-174992756D01*
X99675500Y-174992756D01*
X99675869Y-174996152D01*
X99675869Y-174996153D01*
X99677302Y-175009339D01*
X99682202Y-175054448D01*
X99684974Y-175061841D01*
X99684974Y-175061843D01*
X99692472Y-175081843D01*
X99732929Y-175189764D01*
X99738309Y-175196943D01*
X99738311Y-175196946D01*
X99771107Y-175240705D01*
X99819596Y-175305404D01*
X99826776Y-175310785D01*
X99928054Y-175386689D01*
X99928057Y-175386691D01*
X99935236Y-175392071D01*
X100018639Y-175423337D01*
X100063157Y-175440026D01*
X100063159Y-175440026D01*
X100070552Y-175442798D01*
X100078402Y-175443651D01*
X100078403Y-175443651D01*
X100128847Y-175449131D01*
X100132244Y-175449500D01*
X101467756Y-175449500D01*
X101471153Y-175449131D01*
X101521597Y-175443651D01*
X101521598Y-175443651D01*
X101529448Y-175442798D01*
X101536841Y-175440026D01*
X101536843Y-175440026D01*
X101581361Y-175423337D01*
X101664764Y-175392071D01*
X101671943Y-175386691D01*
X101671946Y-175386689D01*
X101773224Y-175310785D01*
X101780404Y-175305404D01*
X101828893Y-175240705D01*
X101861689Y-175196946D01*
X101861691Y-175196943D01*
X101867071Y-175189764D01*
X101907528Y-175081843D01*
X101915026Y-175061843D01*
X101915026Y-175061841D01*
X101917798Y-175054448D01*
X101922699Y-175009339D01*
X101924131Y-174996153D01*
X101924131Y-174996152D01*
X101924500Y-174992756D01*
X101924500Y-174378611D01*
X104755500Y-174378611D01*
X104770765Y-174538605D01*
X104831168Y-174744503D01*
X104929417Y-174935264D01*
X105061965Y-175104005D01*
X105224029Y-175244637D01*
X105409763Y-175352087D01*
X105458701Y-175369081D01*
X105606799Y-175420509D01*
X105606801Y-175420509D01*
X105612464Y-175422476D01*
X105618399Y-175423337D01*
X105618401Y-175423337D01*
X105818879Y-175452405D01*
X105818882Y-175452405D01*
X105824819Y-175453266D01*
X106039164Y-175443346D01*
X106044988Y-175441942D01*
X106044991Y-175441942D01*
X106241934Y-175394478D01*
X106241936Y-175394477D01*
X106247767Y-175393072D01*
X106253225Y-175390590D01*
X106253229Y-175390589D01*
X106399111Y-175324260D01*
X106443099Y-175304260D01*
X106618114Y-175180113D01*
X106766495Y-175025112D01*
X106882890Y-174844849D01*
X106925647Y-174738755D01*
X106960853Y-174651397D01*
X106960854Y-174651394D01*
X106963097Y-174645828D01*
X107001420Y-174449588D01*
X107003356Y-174439677D01*
X107003356Y-174439674D01*
X107004224Y-174435231D01*
X107004500Y-174429588D01*
X107004500Y-173821389D01*
X106989235Y-173661395D01*
X106928832Y-173455497D01*
X106830583Y-173264736D01*
X106698035Y-173095995D01*
X106665508Y-173067769D01*
X106606334Y-173016421D01*
X106535971Y-172955363D01*
X106350237Y-172847913D01*
X106235094Y-172807929D01*
X106153201Y-172779491D01*
X106153199Y-172779491D01*
X106147536Y-172777524D01*
X106141601Y-172776663D01*
X106141599Y-172776663D01*
X105941121Y-172747595D01*
X105941118Y-172747595D01*
X105935181Y-172746734D01*
X105720836Y-172756654D01*
X105715012Y-172758058D01*
X105715009Y-172758058D01*
X105518066Y-172805522D01*
X105518064Y-172805523D01*
X105512233Y-172806928D01*
X105506775Y-172809410D01*
X105506771Y-172809411D01*
X105426419Y-172845945D01*
X105316901Y-172895740D01*
X105141886Y-173019887D01*
X104993505Y-173174888D01*
X104877110Y-173355151D01*
X104874867Y-173360717D01*
X104828610Y-173475497D01*
X104796903Y-173554172D01*
X104755776Y-173764769D01*
X104755500Y-173770412D01*
X104755500Y-174378611D01*
X101924500Y-174378611D01*
X101924500Y-173207244D01*
X101917798Y-173145552D01*
X101908487Y-173120713D01*
X101897746Y-173092063D01*
X101867071Y-173010236D01*
X101861691Y-173003057D01*
X101861689Y-173003054D01*
X101785785Y-172901776D01*
X101780404Y-172894596D01*
X101715489Y-172845945D01*
X101671946Y-172813311D01*
X101671943Y-172813309D01*
X101664764Y-172807929D01*
X101548788Y-172764452D01*
X101536843Y-172759974D01*
X101536841Y-172759974D01*
X101529448Y-172757202D01*
X101521598Y-172756349D01*
X101521597Y-172756349D01*
X101471153Y-172750869D01*
X101471152Y-172750869D01*
X101467756Y-172750500D01*
X100132244Y-172750500D01*
X100128848Y-172750869D01*
X100128847Y-172750869D01*
X100078403Y-172756349D01*
X100078402Y-172756349D01*
X100070552Y-172757202D01*
X100063159Y-172759974D01*
X100063157Y-172759974D01*
X100051212Y-172764452D01*
X99935236Y-172807929D01*
X99928057Y-172813309D01*
X99928054Y-172813311D01*
X99884511Y-172845945D01*
X99819596Y-172894596D01*
X99814215Y-172901776D01*
X99738311Y-173003054D01*
X99738309Y-173003057D01*
X99732929Y-173010236D01*
X99702254Y-173092063D01*
X99691514Y-173120713D01*
X99682202Y-173145552D01*
X99675500Y-173207244D01*
X99675500Y-174992756D01*
X98987387Y-174992756D01*
X99082890Y-174844849D01*
X99125647Y-174738755D01*
X99160853Y-174651397D01*
X99160854Y-174651394D01*
X99163097Y-174645828D01*
X99201420Y-174449588D01*
X99203356Y-174439677D01*
X99203356Y-174439674D01*
X99204224Y-174435231D01*
X99204500Y-174429588D01*
X99204500Y-173821389D01*
X99189235Y-173661395D01*
X99128832Y-173455497D01*
X99030583Y-173264736D01*
X98898035Y-173095995D01*
X98865508Y-173067769D01*
X98806334Y-173016421D01*
X98735971Y-172955363D01*
X98550237Y-172847913D01*
X98435094Y-172807929D01*
X98353201Y-172779491D01*
X98353199Y-172779491D01*
X98347536Y-172777524D01*
X98341601Y-172776663D01*
X98341599Y-172776663D01*
X98141121Y-172747595D01*
X98141118Y-172747595D01*
X98135181Y-172746734D01*
X97920836Y-172756654D01*
X97915012Y-172758058D01*
X97915009Y-172758058D01*
X97718066Y-172805522D01*
X97718064Y-172805523D01*
X97712233Y-172806928D01*
X97706775Y-172809410D01*
X97706771Y-172809411D01*
X97626419Y-172845945D01*
X97516901Y-172895740D01*
X97341886Y-173019887D01*
X97193505Y-173174888D01*
X97077110Y-173355151D01*
X97074867Y-173360717D01*
X97028610Y-173475497D01*
X96996903Y-173554172D01*
X96955776Y-173764769D01*
X96955500Y-173770412D01*
X96955500Y-174378611D01*
X94124500Y-174378611D01*
X94124500Y-173207244D01*
X94117798Y-173145552D01*
X94108487Y-173120713D01*
X94097746Y-173092063D01*
X94067071Y-173010236D01*
X94061691Y-173003057D01*
X94061689Y-173003054D01*
X93985785Y-172901776D01*
X93980404Y-172894596D01*
X93915489Y-172845945D01*
X93871946Y-172813311D01*
X93871943Y-172813309D01*
X93864764Y-172807929D01*
X93748788Y-172764452D01*
X93736843Y-172759974D01*
X93736841Y-172759974D01*
X93729448Y-172757202D01*
X93721598Y-172756349D01*
X93721597Y-172756349D01*
X93671153Y-172750869D01*
X93671152Y-172750869D01*
X93667756Y-172750500D01*
X92332244Y-172750500D01*
X92328848Y-172750869D01*
X92328847Y-172750869D01*
X92278403Y-172756349D01*
X92278402Y-172756349D01*
X92270552Y-172757202D01*
X92263159Y-172759974D01*
X92263157Y-172759974D01*
X92251212Y-172764452D01*
X92135236Y-172807929D01*
X92128057Y-172813309D01*
X92128054Y-172813311D01*
X92084511Y-172845945D01*
X92019596Y-172894596D01*
X92014215Y-172901776D01*
X91938311Y-173003054D01*
X91938309Y-173003057D01*
X91932929Y-173010236D01*
X91902254Y-173092063D01*
X91891514Y-173120713D01*
X91882202Y-173145552D01*
X91875500Y-173207244D01*
X91875500Y-174992756D01*
X91160301Y-174992756D01*
X91242890Y-174864849D01*
X91289244Y-174749830D01*
X91320853Y-174671397D01*
X91320854Y-174671394D01*
X91323097Y-174665828D01*
X91364224Y-174455231D01*
X91364500Y-174449588D01*
X91364500Y-173841389D01*
X91349235Y-173681395D01*
X91288832Y-173475497D01*
X91190583Y-173284736D01*
X91058035Y-173115995D01*
X91002460Y-173067769D01*
X90966334Y-173036421D01*
X90895971Y-172975363D01*
X90710237Y-172867913D01*
X90595094Y-172827929D01*
X90513201Y-172799491D01*
X90513199Y-172799491D01*
X90507536Y-172797524D01*
X90501601Y-172796663D01*
X90501599Y-172796663D01*
X90301121Y-172767595D01*
X90301118Y-172767595D01*
X90295181Y-172766734D01*
X90080836Y-172776654D01*
X90075012Y-172778058D01*
X90075009Y-172778058D01*
X89878066Y-172825522D01*
X89878064Y-172825523D01*
X89872233Y-172826928D01*
X89866775Y-172829410D01*
X89866771Y-172829411D01*
X89819467Y-172850919D01*
X89676901Y-172915740D01*
X89501886Y-173039887D01*
X89353505Y-173194888D01*
X89237110Y-173375151D01*
X89234867Y-173380717D01*
X89167208Y-173548603D01*
X89156903Y-173574172D01*
X89140994Y-173655637D01*
X89118277Y-173771964D01*
X89115776Y-173784769D01*
X89115500Y-173790412D01*
X89115500Y-174398611D01*
X86284500Y-174398611D01*
X86284500Y-173227244D01*
X86284131Y-173223847D01*
X86278651Y-173173403D01*
X86278651Y-173173402D01*
X86277798Y-173165552D01*
X86270301Y-173145552D01*
X86254505Y-173103418D01*
X86227071Y-173030236D01*
X86221691Y-173023057D01*
X86221689Y-173023054D01*
X86145785Y-172921776D01*
X86140404Y-172914596D01*
X86082126Y-172870919D01*
X86031946Y-172833311D01*
X86031943Y-172833309D01*
X86024764Y-172827929D01*
X85919989Y-172788651D01*
X85896843Y-172779974D01*
X85896841Y-172779974D01*
X85889448Y-172777202D01*
X85881598Y-172776349D01*
X85881597Y-172776349D01*
X85831153Y-172770869D01*
X85831152Y-172770869D01*
X85827756Y-172770500D01*
X84492244Y-172770500D01*
X84488848Y-172770869D01*
X84488847Y-172770869D01*
X84438403Y-172776349D01*
X84438402Y-172776349D01*
X84430552Y-172777202D01*
X84423159Y-172779974D01*
X84423157Y-172779974D01*
X84400011Y-172788651D01*
X84295236Y-172827929D01*
X84288057Y-172833309D01*
X84288054Y-172833311D01*
X84237874Y-172870919D01*
X84179596Y-172914596D01*
X84174215Y-172921776D01*
X84098311Y-173023054D01*
X84098309Y-173023057D01*
X84092929Y-173030236D01*
X84065495Y-173103418D01*
X84049700Y-173145552D01*
X84042202Y-173165552D01*
X84041349Y-173173402D01*
X84041349Y-173173403D01*
X84035869Y-173223847D01*
X84035500Y-173227244D01*
X84035500Y-175012756D01*
X83347387Y-175012756D01*
X83442890Y-174864849D01*
X83489244Y-174749830D01*
X83520853Y-174671397D01*
X83520854Y-174671394D01*
X83523097Y-174665828D01*
X83564224Y-174455231D01*
X83564500Y-174449588D01*
X83564500Y-173841389D01*
X83549235Y-173681395D01*
X83488832Y-173475497D01*
X83390583Y-173284736D01*
X83258035Y-173115995D01*
X83202460Y-173067769D01*
X83166334Y-173036421D01*
X83095971Y-172975363D01*
X82910237Y-172867913D01*
X82795094Y-172827929D01*
X82713201Y-172799491D01*
X82713199Y-172799491D01*
X82707536Y-172797524D01*
X82701601Y-172796663D01*
X82701599Y-172796663D01*
X82501121Y-172767595D01*
X82501118Y-172767595D01*
X82495181Y-172766734D01*
X82280836Y-172776654D01*
X82275012Y-172778058D01*
X82275009Y-172778058D01*
X82078066Y-172825522D01*
X82078064Y-172825523D01*
X82072233Y-172826928D01*
X82066775Y-172829410D01*
X82066771Y-172829411D01*
X82019467Y-172850919D01*
X81876901Y-172915740D01*
X81701886Y-173039887D01*
X81553505Y-173194888D01*
X81437110Y-173375151D01*
X81434867Y-173380717D01*
X81367208Y-173548603D01*
X81356903Y-173574172D01*
X81340994Y-173655637D01*
X81318277Y-173771964D01*
X81315776Y-173784769D01*
X81315500Y-173790412D01*
X81315500Y-174398611D01*
X78500000Y-174398611D01*
X78500000Y-167585206D01*
X84022881Y-167585206D01*
X84040186Y-167791278D01*
X84097187Y-167990066D01*
X84100005Y-167995548D01*
X84100006Y-167995552D01*
X84188894Y-168168509D01*
X84188897Y-168168513D01*
X84191714Y-168173995D01*
X84320166Y-168336061D01*
X84477651Y-168470091D01*
X84658169Y-168570980D01*
X84854846Y-168634884D01*
X85060189Y-168659370D01*
X85066324Y-168658898D01*
X85066326Y-168658898D01*
X85260236Y-168643977D01*
X85260240Y-168643976D01*
X85266378Y-168643504D01*
X85465558Y-168587892D01*
X85471062Y-168585112D01*
X85471064Y-168585111D01*
X85644642Y-168497431D01*
X85644644Y-168497430D01*
X85650143Y-168494652D01*
X85813102Y-168367334D01*
X85817128Y-168362670D01*
X85817131Y-168362667D01*
X85944199Y-168215457D01*
X85944200Y-168215455D01*
X85948228Y-168210789D01*
X86050375Y-168030979D01*
X86083012Y-167932866D01*
X86113705Y-167840601D01*
X86113706Y-167840598D01*
X86115650Y-167834753D01*
X86141569Y-167629586D01*
X86141982Y-167600000D01*
X86140531Y-167585206D01*
X91922881Y-167585206D01*
X91940186Y-167791278D01*
X91997187Y-167990066D01*
X92000005Y-167995548D01*
X92000006Y-167995552D01*
X92088894Y-168168509D01*
X92088897Y-168168513D01*
X92091714Y-168173995D01*
X92220166Y-168336061D01*
X92377651Y-168470091D01*
X92558169Y-168570980D01*
X92754846Y-168634884D01*
X92960189Y-168659370D01*
X92966324Y-168658898D01*
X92966326Y-168658898D01*
X93160236Y-168643977D01*
X93160240Y-168643976D01*
X93166378Y-168643504D01*
X93365558Y-168587892D01*
X93371062Y-168585112D01*
X93371064Y-168585111D01*
X93544642Y-168497431D01*
X93544644Y-168497430D01*
X93550143Y-168494652D01*
X93713102Y-168367334D01*
X93717128Y-168362670D01*
X93717131Y-168362667D01*
X93844199Y-168215457D01*
X93844200Y-168215455D01*
X93848228Y-168210789D01*
X93950375Y-168030979D01*
X93983012Y-167932866D01*
X94013705Y-167840601D01*
X94013706Y-167840598D01*
X94015650Y-167834753D01*
X94041569Y-167629586D01*
X94041982Y-167600000D01*
X94040531Y-167585206D01*
X99822881Y-167585206D01*
X99840186Y-167791278D01*
X99897187Y-167990066D01*
X99900005Y-167995548D01*
X99900006Y-167995552D01*
X99988894Y-168168509D01*
X99988897Y-168168513D01*
X99991714Y-168173995D01*
X100120166Y-168336061D01*
X100277651Y-168470091D01*
X100458169Y-168570980D01*
X100654846Y-168634884D01*
X100860189Y-168659370D01*
X100866324Y-168658898D01*
X100866326Y-168658898D01*
X101060236Y-168643977D01*
X101060240Y-168643976D01*
X101066378Y-168643504D01*
X101265558Y-168587892D01*
X101271062Y-168585112D01*
X101271064Y-168585111D01*
X101444642Y-168497431D01*
X101444644Y-168497430D01*
X101450143Y-168494652D01*
X101613102Y-168367334D01*
X101617128Y-168362670D01*
X101617131Y-168362667D01*
X101744199Y-168215457D01*
X101744200Y-168215455D01*
X101748228Y-168210789D01*
X101850375Y-168030979D01*
X101883012Y-167932866D01*
X101913705Y-167840601D01*
X101913706Y-167840598D01*
X101915650Y-167834753D01*
X101941569Y-167629586D01*
X101941982Y-167600000D01*
X101921802Y-167394189D01*
X101862031Y-167196217D01*
X101764945Y-167013625D01*
X101761054Y-167008855D01*
X101761052Y-167008851D01*
X101638138Y-166858143D01*
X101638135Y-166858140D01*
X101634243Y-166853368D01*
X101627346Y-166847662D01*
X101479651Y-166725478D01*
X101479646Y-166725475D01*
X101474902Y-166721550D01*
X101469483Y-166718620D01*
X101469480Y-166718618D01*
X101298412Y-166626122D01*
X101298407Y-166626120D01*
X101292992Y-166623192D01*
X101095443Y-166562040D01*
X101089318Y-166561396D01*
X101089317Y-166561396D01*
X100895906Y-166541068D01*
X100895904Y-166541068D01*
X100889777Y-166540424D01*
X100763609Y-166551906D01*
X100689971Y-166558607D01*
X100689970Y-166558607D01*
X100683830Y-166559166D01*
X100485446Y-166617554D01*
X100479981Y-166620411D01*
X100307641Y-166710508D01*
X100307637Y-166710511D01*
X100302181Y-166713363D01*
X100141015Y-166842943D01*
X100008088Y-167001360D01*
X99908462Y-167182578D01*
X99845933Y-167379696D01*
X99822881Y-167585206D01*
X94040531Y-167585206D01*
X94021802Y-167394189D01*
X93962031Y-167196217D01*
X93864945Y-167013625D01*
X93861054Y-167008855D01*
X93861052Y-167008851D01*
X93738138Y-166858143D01*
X93738135Y-166858140D01*
X93734243Y-166853368D01*
X93727346Y-166847662D01*
X93579651Y-166725478D01*
X93579646Y-166725475D01*
X93574902Y-166721550D01*
X93569483Y-166718620D01*
X93569480Y-166718618D01*
X93398412Y-166626122D01*
X93398407Y-166626120D01*
X93392992Y-166623192D01*
X93195443Y-166562040D01*
X93189318Y-166561396D01*
X93189317Y-166561396D01*
X92995906Y-166541068D01*
X92995904Y-166541068D01*
X92989777Y-166540424D01*
X92863609Y-166551906D01*
X92789971Y-166558607D01*
X92789970Y-166558607D01*
X92783830Y-166559166D01*
X92585446Y-166617554D01*
X92579981Y-166620411D01*
X92407641Y-166710508D01*
X92407637Y-166710511D01*
X92402181Y-166713363D01*
X92241015Y-166842943D01*
X92108088Y-167001360D01*
X92008462Y-167182578D01*
X91945933Y-167379696D01*
X91922881Y-167585206D01*
X86140531Y-167585206D01*
X86121802Y-167394189D01*
X86062031Y-167196217D01*
X85964945Y-167013625D01*
X85961054Y-167008855D01*
X85961052Y-167008851D01*
X85838138Y-166858143D01*
X85838135Y-166858140D01*
X85834243Y-166853368D01*
X85827346Y-166847662D01*
X85679651Y-166725478D01*
X85679646Y-166725475D01*
X85674902Y-166721550D01*
X85669483Y-166718620D01*
X85669480Y-166718618D01*
X85498412Y-166626122D01*
X85498407Y-166626120D01*
X85492992Y-166623192D01*
X85295443Y-166562040D01*
X85289318Y-166561396D01*
X85289317Y-166561396D01*
X85095906Y-166541068D01*
X85095904Y-166541068D01*
X85089777Y-166540424D01*
X84963609Y-166551906D01*
X84889971Y-166558607D01*
X84889970Y-166558607D01*
X84883830Y-166559166D01*
X84685446Y-166617554D01*
X84679981Y-166620411D01*
X84507641Y-166710508D01*
X84507637Y-166710511D01*
X84502181Y-166713363D01*
X84341015Y-166842943D01*
X84208088Y-167001360D01*
X84108462Y-167182578D01*
X84045933Y-167379696D01*
X84022881Y-167585206D01*
X78500000Y-167585206D01*
X78500000Y-166852190D01*
X78520002Y-166784069D01*
X78536905Y-166763095D01*
X79513095Y-165786905D01*
X79575407Y-165752879D01*
X79602190Y-165750000D01*
X81271392Y-165750000D01*
X81317321Y-165759136D01*
G37*
G04 #@! TD.AperFunction*
G04 #@! TA.AperFunction,Conductor*
G36*
X82981694Y-155918306D02*
G01*
X83000000Y-155962500D01*
X83000000Y-157737500D01*
X82981694Y-157781694D01*
X82937500Y-157800000D01*
X82125888Y-157800000D01*
X82081694Y-157781694D01*
X81668306Y-157368306D01*
X81650000Y-157324112D01*
X81650000Y-156179274D01*
X81668306Y-156135080D01*
X81672488Y-156131260D01*
X81932617Y-155914486D01*
X81972629Y-155900000D01*
X82937500Y-155900000D01*
X82981694Y-155918306D01*
G37*
G04 #@! TD.AperFunction*
G04 #@! TA.AperFunction,Conductor*
G36*
X85168306Y-155918306D02*
G01*
X85581694Y-156331694D01*
X85600000Y-156375888D01*
X85600000Y-158924112D01*
X85581694Y-158968306D01*
X84500000Y-160050000D01*
X84500000Y-160924112D01*
X84481694Y-160968306D01*
X84318306Y-161131694D01*
X84274112Y-161150000D01*
X83612500Y-161150000D01*
X83568306Y-161131694D01*
X83550000Y-161087500D01*
X83550000Y-157875888D01*
X83568306Y-157831694D01*
X83750000Y-157650000D01*
X83750000Y-156225888D01*
X83768306Y-156181694D01*
X84031694Y-155918306D01*
X84075888Y-155900000D01*
X85124112Y-155900000D01*
X85168306Y-155918306D01*
G37*
G04 #@! TD.AperFunction*
G04 #@! TA.AperFunction,Conductor*
G36*
X110765931Y-157470002D02*
G01*
X110786905Y-157486905D01*
X110963095Y-157663095D01*
X110997121Y-157725407D01*
X111000000Y-157752190D01*
X111000000Y-158474000D01*
X110979998Y-158542121D01*
X110926342Y-158588614D01*
X110874000Y-158600000D01*
X109226000Y-158600000D01*
X109157879Y-158579998D01*
X109111386Y-158526342D01*
X109100000Y-158474000D01*
X109100000Y-157576000D01*
X109120002Y-157507879D01*
X109173658Y-157461386D01*
X109226000Y-157450000D01*
X110697810Y-157450000D01*
X110765931Y-157470002D01*
G37*
G04 #@! TD.AperFunction*
G04 #@! TA.AperFunction,Conductor*
G36*
X103918306Y-155168306D02*
G01*
X104250000Y-155500000D01*
X105037500Y-155500000D01*
X105081694Y-155518306D01*
X105100000Y-155562500D01*
X105100000Y-155787500D01*
X105081694Y-155831694D01*
X105037500Y-155850000D01*
X104871154Y-155850000D01*
X104854042Y-155846596D01*
X104854012Y-155846749D01*
X104797957Y-155835599D01*
X104797954Y-155835599D01*
X104794944Y-155835000D01*
X104305056Y-155835000D01*
X104302046Y-155835599D01*
X104302043Y-155835599D01*
X104245988Y-155846749D01*
X104245958Y-155846596D01*
X104228846Y-155850000D01*
X104000000Y-155850000D01*
X103650000Y-156200000D01*
X103650000Y-156774112D01*
X103631694Y-156818306D01*
X103518306Y-156931694D01*
X103474112Y-156950000D01*
X102800000Y-156950000D01*
X102650000Y-157100000D01*
X102650000Y-157824112D01*
X102631694Y-157868306D01*
X102468306Y-158031694D01*
X102424112Y-158050000D01*
X101375888Y-158050000D01*
X101331694Y-158031694D01*
X101168306Y-157868306D01*
X101150000Y-157824112D01*
X101150000Y-155475888D01*
X101168306Y-155431694D01*
X101431694Y-155168306D01*
X101475888Y-155150000D01*
X103874112Y-155150000D01*
X103918306Y-155168306D01*
G37*
G04 #@! TD.AperFunction*
M02*
