G04 #@! TF.GenerationSoftware,KiCad,Pcbnew,(6.0.7)*
G04 #@! TF.CreationDate,2022-10-27T11:48:24+02:00*
G04 #@! TF.ProjectId,mainControl,6d61696e-436f-46e7-9472-6f6c2e6b6963,rev?*
G04 #@! TF.SameCoordinates,Original*
G04 #@! TF.FileFunction,Paste,Top*
G04 #@! TF.FilePolarity,Positive*
%FSLAX46Y46*%
G04 Gerber Fmt 4.6, Leading zero omitted, Abs format (unit mm)*
G04 Created by KiCad (PCBNEW (6.0.7)) date 2022-10-27 11:48:24*
%MOMM*%
%LPD*%
G01*
G04 APERTURE LIST*
G04 Aperture macros list*
%AMRoundRect*
0 Rectangle with rounded corners*
0 $1 Rounding radius*
0 $2 $3 $4 $5 $6 $7 $8 $9 X,Y pos of 4 corners*
0 Add a 4 corners polygon primitive as box body*
4,1,4,$2,$3,$4,$5,$6,$7,$8,$9,$2,$3,0*
0 Add four circle primitives for the rounded corners*
1,1,$1+$1,$2,$3*
1,1,$1+$1,$4,$5*
1,1,$1+$1,$6,$7*
1,1,$1+$1,$8,$9*
0 Add four rect primitives between the rounded corners*
20,1,$1+$1,$2,$3,$4,$5,0*
20,1,$1+$1,$4,$5,$6,$7,0*
20,1,$1+$1,$6,$7,$8,$9,0*
20,1,$1+$1,$8,$9,$2,$3,0*%
G04 Aperture macros list end*
%ADD10RoundRect,0.200000X-0.275000X0.200000X-0.275000X-0.200000X0.275000X-0.200000X0.275000X0.200000X0*%
%ADD11RoundRect,0.200000X-0.200000X-0.275000X0.200000X-0.275000X0.200000X0.275000X-0.200000X0.275000X0*%
%ADD12RoundRect,0.218750X-0.218750X-0.256250X0.218750X-0.256250X0.218750X0.256250X-0.218750X0.256250X0*%
%ADD13R,2.000000X0.900000*%
%ADD14R,0.900000X2.000000*%
%ADD15R,5.000000X5.000000*%
%ADD16R,5.080000X1.270000*%
%ADD17RoundRect,0.200000X0.275000X-0.200000X0.275000X0.200000X-0.275000X0.200000X-0.275000X-0.200000X0*%
%ADD18RoundRect,0.200000X0.200000X0.275000X-0.200000X0.275000X-0.200000X-0.275000X0.200000X-0.275000X0*%
%ADD19RoundRect,0.225000X0.250000X-0.225000X0.250000X0.225000X-0.250000X0.225000X-0.250000X-0.225000X0*%
%ADD20O,0.200000X0.700000*%
%ADD21O,0.700000X0.200000*%
%ADD22R,0.800000X0.800000*%
%ADD23RoundRect,0.160000X-0.160000X0.245000X-0.160000X-0.245000X0.160000X-0.245000X0.160000X0.245000X0*%
%ADD24RoundRect,0.093750X-0.106250X0.093750X-0.106250X-0.093750X0.106250X-0.093750X0.106250X0.093750X0*%
%ADD25R,0.600000X0.450000*%
%ADD26R,1.400000X0.400000*%
%ADD27R,1.900000X1.750000*%
%ADD28R,1.450000X1.150000*%
%ADD29RoundRect,0.225000X0.225000X0.250000X-0.225000X0.250000X-0.225000X-0.250000X0.225000X-0.250000X0*%
%ADD30RoundRect,0.225000X-0.250000X0.225000X-0.250000X-0.225000X0.250000X-0.225000X0.250000X0.225000X0*%
%ADD31RoundRect,0.249999X0.395001X-0.395001X0.395001X0.395001X-0.395001X0.395001X-0.395001X-0.395001X0*%
%ADD32RoundRect,0.050000X0.050000X-0.387500X0.050000X0.387500X-0.050000X0.387500X-0.050000X-0.387500X0*%
%ADD33RoundRect,0.050000X0.387500X-0.050000X0.387500X0.050000X-0.387500X0.050000X-0.387500X-0.050000X0*%
G04 APERTURE END LIST*
D10*
X75470000Y-154830000D03*
X75470000Y-156480000D03*
D11*
X76075000Y-158800000D03*
X77725000Y-158800000D03*
D12*
X70735000Y-164979533D03*
X72310000Y-164979533D03*
D13*
X77200000Y-133145000D03*
X77200000Y-134415000D03*
X77200000Y-135685000D03*
X77200000Y-136955000D03*
X77200000Y-138225000D03*
X77200000Y-139495000D03*
X77200000Y-140765000D03*
X77200000Y-142035000D03*
X77200000Y-143305000D03*
X77200000Y-144575000D03*
X77200000Y-145845000D03*
X77200000Y-147115000D03*
X77200000Y-148385000D03*
X77200000Y-149655000D03*
D14*
X79985000Y-150655000D03*
X81255000Y-150655000D03*
X82525000Y-150655000D03*
X83795000Y-150655000D03*
X85065000Y-150655000D03*
X86335000Y-150655000D03*
X87605000Y-150655000D03*
X88875000Y-150655000D03*
X90145000Y-150655000D03*
X91415000Y-150655000D03*
D13*
X94200000Y-149655000D03*
X94200000Y-148385000D03*
X94200000Y-147115000D03*
X94200000Y-145845000D03*
X94200000Y-144575000D03*
X94200000Y-143305000D03*
X94200000Y-142035000D03*
X94200000Y-140765000D03*
X94200000Y-139495000D03*
X94200000Y-138225000D03*
X94200000Y-136955000D03*
X94200000Y-135685000D03*
X94200000Y-134415000D03*
X94200000Y-133145000D03*
D15*
X84700000Y-140645000D03*
D16*
X109600000Y-159785000D03*
X109600000Y-137815000D03*
D11*
X76045000Y-157655000D03*
X77695000Y-157655000D03*
D17*
X98150000Y-168625000D03*
X98150000Y-166975000D03*
D18*
X97625000Y-145800000D03*
X95975000Y-145800000D03*
D19*
X96200000Y-160250000D03*
X96200000Y-158700000D03*
D20*
X98100000Y-161675000D03*
X98500000Y-161675000D03*
X98900000Y-161675000D03*
D21*
X99575000Y-161000000D03*
X99575000Y-160600000D03*
X99575000Y-160200000D03*
D20*
X98900000Y-159525000D03*
X98500000Y-159525000D03*
X98100000Y-159525000D03*
D21*
X97425000Y-160200000D03*
X97425000Y-160600000D03*
X97425000Y-161000000D03*
D22*
X98500000Y-160600000D03*
D12*
X97412500Y-163900000D03*
X98987500Y-163900000D03*
D18*
X97525000Y-147100000D03*
X95875000Y-147100000D03*
D23*
X110400000Y-172600000D03*
X111200000Y-172600000D03*
D24*
X111450000Y-171712500D03*
X110800000Y-171712500D03*
X110150000Y-171712500D03*
X110150000Y-173487500D03*
X110800000Y-173487500D03*
X111450000Y-173487500D03*
D18*
X75025000Y-165000000D03*
X73375000Y-165000000D03*
D11*
X103429524Y-163200000D03*
X105079524Y-163200000D03*
X76070000Y-159950000D03*
X77720000Y-159950000D03*
X100775000Y-163400000D03*
X102425000Y-163400000D03*
D25*
X74220000Y-153155000D03*
X76320000Y-153155000D03*
D17*
X82400000Y-168775000D03*
X82400000Y-167125000D03*
X77870000Y-156480000D03*
X77870000Y-154830000D03*
D26*
X74120000Y-158080000D03*
X74120000Y-158730000D03*
X74120000Y-159380000D03*
X74120000Y-160030000D03*
X74120000Y-160680000D03*
D27*
X71470000Y-158255000D03*
D28*
X73700000Y-157060000D03*
D27*
X71470000Y-160505000D03*
D28*
X73700000Y-161700000D03*
D26*
X74050000Y-141325000D03*
X74050000Y-141975000D03*
X74050000Y-142625000D03*
X74050000Y-143275000D03*
X74050000Y-143925000D03*
D28*
X73630000Y-140305000D03*
D27*
X71400000Y-143750000D03*
X71400000Y-141500000D03*
D28*
X73630000Y-144945000D03*
D29*
X98975000Y-162800000D03*
X97425000Y-162800000D03*
D30*
X96100000Y-161500000D03*
X96100000Y-163050000D03*
D31*
X84525000Y-159200000D03*
X86125000Y-160800000D03*
X84525000Y-160800000D03*
X86125000Y-159200000D03*
D32*
X82725000Y-163437500D03*
X83125000Y-163437500D03*
X83525000Y-163437500D03*
X83925000Y-163437500D03*
X84325000Y-163437500D03*
X84725000Y-163437500D03*
X85125000Y-163437500D03*
X85525000Y-163437500D03*
X85925000Y-163437500D03*
X86325000Y-163437500D03*
X86725000Y-163437500D03*
X87125000Y-163437500D03*
X87525000Y-163437500D03*
X87925000Y-163437500D03*
D33*
X88762500Y-162600000D03*
X88762500Y-162200000D03*
X88762500Y-161800000D03*
X88762500Y-161400000D03*
X88762500Y-161000000D03*
X88762500Y-160600000D03*
X88762500Y-160200000D03*
X88762500Y-159800000D03*
X88762500Y-159400000D03*
X88762500Y-159000000D03*
X88762500Y-158600000D03*
X88762500Y-158200000D03*
X88762500Y-157800000D03*
X88762500Y-157400000D03*
D32*
X87925000Y-156562500D03*
X87525000Y-156562500D03*
X87125000Y-156562500D03*
X86725000Y-156562500D03*
X86325000Y-156562500D03*
X85925000Y-156562500D03*
X85525000Y-156562500D03*
X85125000Y-156562500D03*
X84725000Y-156562500D03*
X84325000Y-156562500D03*
X83925000Y-156562500D03*
X83525000Y-156562500D03*
X83125000Y-156562500D03*
X82725000Y-156562500D03*
D33*
X81887500Y-157400000D03*
X81887500Y-157800000D03*
X81887500Y-158200000D03*
X81887500Y-158600000D03*
X81887500Y-159000000D03*
X81887500Y-159400000D03*
X81887500Y-159800000D03*
X81887500Y-160200000D03*
X81887500Y-160600000D03*
X81887500Y-161000000D03*
X81887500Y-161400000D03*
X81887500Y-161800000D03*
X81887500Y-162200000D03*
X81887500Y-162600000D03*
D17*
X106050000Y-168525000D03*
X106050000Y-166875000D03*
X90250000Y-168475000D03*
X90250000Y-166825000D03*
D10*
X76570000Y-154830000D03*
X76570000Y-156480000D03*
D29*
X102375000Y-162300000D03*
X100825000Y-162300000D03*
M02*
