G04 #@! TF.GenerationSoftware,KiCad,Pcbnew,(6.0.7)*
G04 #@! TF.CreationDate,2022-10-27T11:51:29+02:00*
G04 #@! TF.ProjectId,reservoirCon,72657365-7276-46f6-9972-436f6e2e6b69,rev?*
G04 #@! TF.SameCoordinates,Original*
G04 #@! TF.FileFunction,Copper,L3,Inr*
G04 #@! TF.FilePolarity,Positive*
%FSLAX46Y46*%
G04 Gerber Fmt 4.6, Leading zero omitted, Abs format (unit mm)*
G04 Created by KiCad (PCBNEW (6.0.7)) date 2022-10-27 11:51:29*
%MOMM*%
%LPD*%
G01*
G04 APERTURE LIST*
G04 Aperture macros list*
%AMRoundRect*
0 Rectangle with rounded corners*
0 $1 Rounding radius*
0 $2 $3 $4 $5 $6 $7 $8 $9 X,Y pos of 4 corners*
0 Add a 4 corners polygon primitive as box body*
4,1,4,$2,$3,$4,$5,$6,$7,$8,$9,$2,$3,0*
0 Add four circle primitives for the rounded corners*
1,1,$1+$1,$2,$3*
1,1,$1+$1,$4,$5*
1,1,$1+$1,$6,$7*
1,1,$1+$1,$8,$9*
0 Add four rect primitives between the rounded corners*
20,1,$1+$1,$2,$3,$4,$5,0*
20,1,$1+$1,$4,$5,$6,$7,0*
20,1,$1+$1,$6,$7,$8,$9,0*
20,1,$1+$1,$8,$9,$2,$3,0*%
G04 Aperture macros list end*
G04 #@! TA.AperFunction,ComponentPad*
%ADD10RoundRect,0.250000X-0.600000X-0.750000X0.600000X-0.750000X0.600000X0.750000X-0.600000X0.750000X0*%
G04 #@! TD*
G04 #@! TA.AperFunction,ComponentPad*
%ADD11O,1.700000X2.000000*%
G04 #@! TD*
G04 #@! TA.AperFunction,ComponentPad*
%ADD12R,1.700000X1.700000*%
G04 #@! TD*
G04 #@! TA.AperFunction,ComponentPad*
%ADD13O,1.700000X1.700000*%
G04 #@! TD*
G04 #@! TA.AperFunction,ComponentPad*
%ADD14RoundRect,0.250000X0.750000X-0.600000X0.750000X0.600000X-0.750000X0.600000X-0.750000X-0.600000X0*%
G04 #@! TD*
G04 #@! TA.AperFunction,ComponentPad*
%ADD15O,2.000000X1.700000*%
G04 #@! TD*
G04 #@! TA.AperFunction,ComponentPad*
%ADD16RoundRect,0.250000X0.845000X-0.620000X0.845000X0.620000X-0.845000X0.620000X-0.845000X-0.620000X0*%
G04 #@! TD*
G04 #@! TA.AperFunction,ComponentPad*
%ADD17O,2.190000X1.740000*%
G04 #@! TD*
G04 #@! TA.AperFunction,ComponentPad*
%ADD18RoundRect,0.250000X-0.600000X-0.725000X0.600000X-0.725000X0.600000X0.725000X-0.600000X0.725000X0*%
G04 #@! TD*
G04 #@! TA.AperFunction,ComponentPad*
%ADD19O,1.700000X1.950000*%
G04 #@! TD*
G04 #@! TA.AperFunction,ComponentPad*
%ADD20O,1.050000X1.900000*%
G04 #@! TD*
G04 #@! TA.AperFunction,ViaPad*
%ADD21C,0.500000*%
G04 #@! TD*
G04 APERTURE END LIST*
D10*
X162250000Y-107000000D03*
D11*
X164750000Y-107000000D03*
D12*
X145000000Y-98200000D03*
D13*
X145000000Y-95660000D03*
D14*
X159000000Y-99150000D03*
D15*
X159000000Y-96650000D03*
D16*
X140420000Y-114440000D03*
D17*
X140420000Y-111900000D03*
X140420000Y-109360000D03*
D18*
X147950000Y-121700000D03*
D19*
X150450000Y-121700000D03*
X152950000Y-121700000D03*
X155450000Y-121700000D03*
D16*
X140420000Y-106440000D03*
D17*
X140420000Y-103900000D03*
X140420000Y-101360000D03*
D10*
X162250000Y-111300000D03*
D11*
X164750000Y-111300000D03*
D10*
X162200000Y-115600000D03*
D11*
X164700000Y-115600000D03*
D20*
X154575000Y-95800000D03*
X147425000Y-95800000D03*
D12*
X157700000Y-116325000D03*
D13*
X157700000Y-113785000D03*
X157700000Y-111245000D03*
D21*
X149600000Y-109300000D03*
X151300000Y-105800000D03*
X147600000Y-109200000D03*
X149800000Y-105800000D03*
X156000000Y-103800000D03*
X162700000Y-101100000D03*
X155000000Y-116175000D03*
X148300000Y-109200000D03*
X153800000Y-110600000D03*
X152800000Y-117000000D03*
X149300000Y-117000000D03*
X146400000Y-115000000D03*
X149100000Y-105800000D03*
X155400000Y-103800000D03*
X163509250Y-104095000D03*
X146400000Y-113600000D03*
X146400000Y-114300000D03*
X150500000Y-105800000D03*
X148600000Y-117000000D03*
X138300000Y-116000000D03*
X146754709Y-100707559D03*
X147900000Y-117000000D03*
X147600000Y-104500000D03*
X146400000Y-113000000D03*
X147600000Y-117800000D03*
X150500000Y-117800000D03*
X163700000Y-103000000D03*
X148400000Y-117800000D03*
X162400000Y-103000000D03*
X149100000Y-117800000D03*
X154400000Y-104000000D03*
X145900000Y-104000000D03*
X145700000Y-108300000D03*
X149800000Y-117800000D03*
X150526503Y-102500000D03*
X150100000Y-111200000D03*
X148748418Y-104500000D03*
X154400000Y-107900000D03*
X152700000Y-102548500D03*
X153500000Y-102400000D03*
X148100000Y-112000000D03*
X148700000Y-112000000D03*
X147500000Y-112000000D03*
X149300000Y-112000000D03*
X153100000Y-112800000D03*
X153100000Y-113500000D03*
X151600000Y-113500000D03*
X151600000Y-112800000D03*
X149900000Y-102500000D03*
X152000000Y-102555379D03*
X150637221Y-111522333D03*
X154700000Y-113800000D03*
X153900000Y-113800000D03*
X152200000Y-97200000D03*
X151600000Y-97200000D03*
X150400000Y-109400000D03*
X145800000Y-103107559D03*
X145600000Y-105700000D03*
X146600000Y-102234062D03*
X146600000Y-101607559D03*
X148000000Y-101107559D03*
X149501502Y-101291619D03*
X149517907Y-101917907D03*
G04 #@! TA.AperFunction,Conductor*
G36*
X161381694Y-94268806D02*
G01*
X161400000Y-94313000D01*
X161400000Y-98200000D01*
X163300000Y-100100000D01*
X167087000Y-100100000D01*
X167131194Y-100118306D01*
X167149500Y-100162500D01*
X167149500Y-117937500D01*
X167131194Y-117981694D01*
X167087000Y-118000000D01*
X163000000Y-118000000D01*
X161400000Y-119600000D01*
X161400000Y-123687000D01*
X161381694Y-123731194D01*
X161337500Y-123749500D01*
X143462500Y-123749500D01*
X143418306Y-123731194D01*
X143400000Y-123687000D01*
X143400000Y-120939219D01*
X146972500Y-120939219D01*
X146972501Y-122460780D01*
X146983422Y-122534979D01*
X146985562Y-122539337D01*
X146985562Y-122539338D01*
X147028839Y-122627481D01*
X147038810Y-122647790D01*
X147042462Y-122651436D01*
X147042463Y-122651437D01*
X147124098Y-122732930D01*
X147124100Y-122732932D01*
X147127753Y-122736578D01*
X147148495Y-122746717D01*
X147210748Y-122777147D01*
X147240661Y-122791769D01*
X147245464Y-122792470D01*
X147245465Y-122792470D01*
X147264015Y-122795176D01*
X147314219Y-122802500D01*
X147948321Y-122802500D01*
X148585780Y-122802499D01*
X148659979Y-122791578D01*
X148664338Y-122789438D01*
X148768155Y-122738466D01*
X148768156Y-122738465D01*
X148772790Y-122736190D01*
X148800829Y-122708102D01*
X148857930Y-122650902D01*
X148857932Y-122650900D01*
X148861578Y-122647247D01*
X148886108Y-122597064D01*
X148914638Y-122538699D01*
X148914638Y-122538698D01*
X148916769Y-122534339D01*
X148927500Y-122460781D01*
X148927500Y-121874628D01*
X149472500Y-121874628D01*
X149487527Y-122022567D01*
X149488471Y-122025580D01*
X149488472Y-122025584D01*
X149545965Y-122209043D01*
X149546912Y-122212064D01*
X149643187Y-122385749D01*
X149772421Y-122536529D01*
X149774917Y-122538465D01*
X149774920Y-122538468D01*
X149855899Y-122601281D01*
X149929333Y-122658242D01*
X149932174Y-122659640D01*
X150104670Y-122744519D01*
X150104674Y-122744520D01*
X150107514Y-122745918D01*
X150299685Y-122795975D01*
X150497997Y-122806368D01*
X150501123Y-122805895D01*
X150501127Y-122805895D01*
X150691216Y-122777147D01*
X150691219Y-122777146D01*
X150694348Y-122776673D01*
X150880718Y-122708102D01*
X151049493Y-122603457D01*
X151121907Y-122534979D01*
X151191477Y-122469190D01*
X151191478Y-122469189D01*
X151193779Y-122467013D01*
X151307682Y-122304342D01*
X151386549Y-122122091D01*
X151427159Y-121927704D01*
X151427500Y-121921197D01*
X151427500Y-121874628D01*
X151972500Y-121874628D01*
X151987527Y-122022567D01*
X151988471Y-122025580D01*
X151988472Y-122025584D01*
X152045965Y-122209043D01*
X152046912Y-122212064D01*
X152143187Y-122385749D01*
X152272421Y-122536529D01*
X152274917Y-122538465D01*
X152274920Y-122538468D01*
X152355899Y-122601281D01*
X152429333Y-122658242D01*
X152432174Y-122659640D01*
X152604670Y-122744519D01*
X152604674Y-122744520D01*
X152607514Y-122745918D01*
X152799685Y-122795975D01*
X152997997Y-122806368D01*
X153001123Y-122805895D01*
X153001127Y-122805895D01*
X153191216Y-122777147D01*
X153191219Y-122777146D01*
X153194348Y-122776673D01*
X153380718Y-122708102D01*
X153549493Y-122603457D01*
X153621907Y-122534979D01*
X153691477Y-122469190D01*
X153691478Y-122469189D01*
X153693779Y-122467013D01*
X153807682Y-122304342D01*
X153886549Y-122122091D01*
X153927159Y-121927704D01*
X153927500Y-121921197D01*
X153927500Y-121525372D01*
X153912473Y-121377433D01*
X153900817Y-121340236D01*
X153854035Y-121190957D01*
X153854034Y-121190955D01*
X153853088Y-121187936D01*
X153756813Y-121014251D01*
X153627579Y-120863471D01*
X153625083Y-120861535D01*
X153625080Y-120861532D01*
X153473168Y-120743698D01*
X153470667Y-120741758D01*
X153467826Y-120740360D01*
X153295330Y-120655481D01*
X153295326Y-120655480D01*
X153292486Y-120654082D01*
X153100315Y-120604025D01*
X152902003Y-120593632D01*
X152898877Y-120594105D01*
X152898873Y-120594105D01*
X152708784Y-120622853D01*
X152708781Y-120622854D01*
X152705652Y-120623327D01*
X152519282Y-120691898D01*
X152350507Y-120796543D01*
X152348206Y-120798719D01*
X152277417Y-120865661D01*
X152206221Y-120932987D01*
X152092318Y-121095658D01*
X152013451Y-121277909D01*
X152012805Y-121281003D01*
X152012804Y-121281005D01*
X152000430Y-121340236D01*
X151972841Y-121472296D01*
X151972500Y-121478803D01*
X151972500Y-121874628D01*
X151427500Y-121874628D01*
X151427500Y-121525372D01*
X151412473Y-121377433D01*
X151400817Y-121340236D01*
X151354035Y-121190957D01*
X151354034Y-121190955D01*
X151353088Y-121187936D01*
X151256813Y-121014251D01*
X151127579Y-120863471D01*
X151125083Y-120861535D01*
X151125080Y-120861532D01*
X150973168Y-120743698D01*
X150970667Y-120741758D01*
X150967826Y-120740360D01*
X150795330Y-120655481D01*
X150795326Y-120655480D01*
X150792486Y-120654082D01*
X150600315Y-120604025D01*
X150402003Y-120593632D01*
X150398877Y-120594105D01*
X150398873Y-120594105D01*
X150208784Y-120622853D01*
X150208781Y-120622854D01*
X150205652Y-120623327D01*
X150019282Y-120691898D01*
X149850507Y-120796543D01*
X149848206Y-120798719D01*
X149777417Y-120865661D01*
X149706221Y-120932987D01*
X149592318Y-121095658D01*
X149513451Y-121277909D01*
X149512805Y-121281003D01*
X149512804Y-121281005D01*
X149500430Y-121340236D01*
X149472841Y-121472296D01*
X149472500Y-121478803D01*
X149472500Y-121874628D01*
X148927500Y-121874628D01*
X148927499Y-120939220D01*
X148916578Y-120865021D01*
X148861190Y-120752210D01*
X148857537Y-120748563D01*
X148775902Y-120667070D01*
X148775900Y-120667068D01*
X148772247Y-120663422D01*
X148690222Y-120623327D01*
X148663699Y-120610362D01*
X148663698Y-120610362D01*
X148659339Y-120608231D01*
X148654536Y-120607530D01*
X148654535Y-120607530D01*
X148629370Y-120603859D01*
X148585781Y-120597500D01*
X147951679Y-120597500D01*
X147314220Y-120597501D01*
X147240021Y-120608422D01*
X147235663Y-120610562D01*
X147235662Y-120610562D01*
X147131845Y-120661534D01*
X147131844Y-120661535D01*
X147127210Y-120663810D01*
X147123564Y-120667462D01*
X147123563Y-120667463D01*
X147042070Y-120749098D01*
X147042068Y-120749100D01*
X147038422Y-120752753D01*
X147036154Y-120757393D01*
X146985675Y-120860662D01*
X146983231Y-120865661D01*
X146972500Y-120939219D01*
X143400000Y-120939219D01*
X143400000Y-120125888D01*
X143418306Y-120081694D01*
X146500000Y-117000000D01*
X147517794Y-117000000D01*
X147536500Y-117118108D01*
X147590789Y-117224655D01*
X147675345Y-117309211D01*
X147679724Y-117311442D01*
X147777511Y-117361268D01*
X147777512Y-117361268D01*
X147781892Y-117363500D01*
X147900000Y-117382206D01*
X148018108Y-117363500D01*
X148022488Y-117361268D01*
X148022489Y-117361268D01*
X148120276Y-117311442D01*
X148124655Y-117309211D01*
X148205806Y-117228060D01*
X148250000Y-117209754D01*
X148294194Y-117228060D01*
X148375345Y-117309211D01*
X148379724Y-117311442D01*
X148477511Y-117361268D01*
X148477512Y-117361268D01*
X148481892Y-117363500D01*
X148600000Y-117382206D01*
X148718108Y-117363500D01*
X148722488Y-117361268D01*
X148722489Y-117361268D01*
X148820276Y-117311442D01*
X148824655Y-117309211D01*
X148905806Y-117228060D01*
X148950000Y-117209754D01*
X148994194Y-117228060D01*
X149075345Y-117309211D01*
X149079724Y-117311442D01*
X149177511Y-117361268D01*
X149177512Y-117361268D01*
X149181892Y-117363500D01*
X149300000Y-117382206D01*
X149418108Y-117363500D01*
X149422488Y-117361268D01*
X149422489Y-117361268D01*
X149520276Y-117311442D01*
X149524655Y-117309211D01*
X149609211Y-117224655D01*
X149663500Y-117118108D01*
X149682206Y-117000000D01*
X152417794Y-117000000D01*
X152436500Y-117118108D01*
X152490789Y-117224655D01*
X152575345Y-117309211D01*
X152579724Y-117311442D01*
X152677511Y-117361268D01*
X152677512Y-117361268D01*
X152681892Y-117363500D01*
X152800000Y-117382206D01*
X152918108Y-117363500D01*
X152922488Y-117361268D01*
X152922489Y-117361268D01*
X153020276Y-117311442D01*
X153024655Y-117309211D01*
X153109211Y-117224655D01*
X153128113Y-117187558D01*
X156722500Y-117187558D01*
X156729898Y-117224748D01*
X156758078Y-117266922D01*
X156800252Y-117295102D01*
X156806285Y-117296302D01*
X156806287Y-117296303D01*
X156832384Y-117301494D01*
X156837442Y-117302500D01*
X158562558Y-117302500D01*
X158567616Y-117301494D01*
X158593713Y-117296303D01*
X158593715Y-117296302D01*
X158599748Y-117295102D01*
X158641922Y-117266922D01*
X158670102Y-117224748D01*
X158677500Y-117187558D01*
X158677500Y-115462442D01*
X158670102Y-115425252D01*
X158641922Y-115383078D01*
X158599748Y-115354898D01*
X158593715Y-115353698D01*
X158593713Y-115353697D01*
X158565569Y-115348099D01*
X158562558Y-115347500D01*
X156837442Y-115347500D01*
X156834431Y-115348099D01*
X156806287Y-115353697D01*
X156806285Y-115353698D01*
X156800252Y-115354898D01*
X156758078Y-115383078D01*
X156729898Y-115425252D01*
X156722500Y-115462442D01*
X156722500Y-117187558D01*
X153128113Y-117187558D01*
X153163500Y-117118108D01*
X153182206Y-117000000D01*
X153163500Y-116881892D01*
X153109211Y-116775345D01*
X153024655Y-116690789D01*
X152959395Y-116657537D01*
X152922489Y-116638732D01*
X152922488Y-116638732D01*
X152918108Y-116636500D01*
X152800000Y-116617794D01*
X152681892Y-116636500D01*
X152677512Y-116638732D01*
X152677511Y-116638732D01*
X152640605Y-116657537D01*
X152575345Y-116690789D01*
X152490789Y-116775345D01*
X152436500Y-116881892D01*
X152417794Y-117000000D01*
X149682206Y-117000000D01*
X149663500Y-116881892D01*
X149609211Y-116775345D01*
X149524655Y-116690789D01*
X149459395Y-116657537D01*
X149422489Y-116638732D01*
X149422488Y-116638732D01*
X149418108Y-116636500D01*
X149300000Y-116617794D01*
X149181892Y-116636500D01*
X149177512Y-116638732D01*
X149177511Y-116638732D01*
X149140605Y-116657537D01*
X149075345Y-116690789D01*
X148994194Y-116771940D01*
X148950000Y-116790246D01*
X148905806Y-116771940D01*
X148824655Y-116690789D01*
X148759395Y-116657537D01*
X148722489Y-116638732D01*
X148722488Y-116638732D01*
X148718108Y-116636500D01*
X148600000Y-116617794D01*
X148481892Y-116636500D01*
X148477512Y-116638732D01*
X148477511Y-116638732D01*
X148440605Y-116657537D01*
X148375345Y-116690789D01*
X148294194Y-116771940D01*
X148250000Y-116790246D01*
X148205806Y-116771940D01*
X148124655Y-116690789D01*
X148059395Y-116657537D01*
X148022489Y-116638732D01*
X148022488Y-116638732D01*
X148018108Y-116636500D01*
X147900000Y-116617794D01*
X147781892Y-116636500D01*
X147777512Y-116638732D01*
X147777511Y-116638732D01*
X147740605Y-116657537D01*
X147675345Y-116690789D01*
X147590789Y-116775345D01*
X147536500Y-116881892D01*
X147517794Y-117000000D01*
X146500000Y-117000000D01*
X147325000Y-116175000D01*
X154617794Y-116175000D01*
X154636500Y-116293108D01*
X154638732Y-116297488D01*
X154638732Y-116297489D01*
X154664611Y-116348278D01*
X154690789Y-116399655D01*
X154775345Y-116484211D01*
X154779724Y-116486442D01*
X154877511Y-116536268D01*
X154877512Y-116536268D01*
X154881892Y-116538500D01*
X155000000Y-116557206D01*
X155118108Y-116538500D01*
X155122488Y-116536268D01*
X155122489Y-116536268D01*
X155220276Y-116486442D01*
X155224655Y-116484211D01*
X155309211Y-116399655D01*
X155335389Y-116348278D01*
X155361268Y-116297489D01*
X155361268Y-116297488D01*
X155363500Y-116293108D01*
X155382206Y-116175000D01*
X155363500Y-116056892D01*
X155309211Y-115950345D01*
X155224655Y-115865789D01*
X155173278Y-115839611D01*
X155122489Y-115813732D01*
X155122488Y-115813732D01*
X155118108Y-115811500D01*
X155000000Y-115792794D01*
X154881892Y-115811500D01*
X154877512Y-115813732D01*
X154877511Y-115813732D01*
X154826722Y-115839611D01*
X154775345Y-115865789D01*
X154690789Y-115950345D01*
X154636500Y-116056892D01*
X154617794Y-116175000D01*
X147325000Y-116175000D01*
X148685781Y-114814219D01*
X161222500Y-114814219D01*
X161222501Y-116385780D01*
X161233422Y-116459979D01*
X161235562Y-116464337D01*
X161235562Y-116464338D01*
X161281159Y-116557206D01*
X161288810Y-116572790D01*
X161292462Y-116576436D01*
X161292463Y-116576437D01*
X161374098Y-116657930D01*
X161374100Y-116657932D01*
X161377753Y-116661578D01*
X161398495Y-116671717D01*
X161460748Y-116702147D01*
X161490661Y-116716769D01*
X161495464Y-116717470D01*
X161495465Y-116717470D01*
X161514015Y-116720176D01*
X161564219Y-116727500D01*
X162198321Y-116727500D01*
X162835780Y-116727499D01*
X162909979Y-116716578D01*
X162914338Y-116714438D01*
X163018155Y-116663466D01*
X163018156Y-116663465D01*
X163022790Y-116661190D01*
X163050829Y-116633102D01*
X163107930Y-116575902D01*
X163107932Y-116575900D01*
X163111578Y-116572247D01*
X163156311Y-116480734D01*
X163164638Y-116463699D01*
X163164638Y-116463698D01*
X163166769Y-116459339D01*
X163177500Y-116385781D01*
X163177500Y-115799628D01*
X163722500Y-115799628D01*
X163737527Y-115947567D01*
X163738471Y-115950580D01*
X163738472Y-115950584D01*
X163773309Y-116061748D01*
X163796912Y-116137064D01*
X163893187Y-116310749D01*
X164022421Y-116461529D01*
X164024917Y-116463465D01*
X164024920Y-116463468D01*
X164105899Y-116526281D01*
X164179333Y-116583242D01*
X164182174Y-116584640D01*
X164354670Y-116669519D01*
X164354674Y-116669520D01*
X164357514Y-116670918D01*
X164549685Y-116720975D01*
X164747997Y-116731368D01*
X164751123Y-116730895D01*
X164751127Y-116730895D01*
X164941216Y-116702147D01*
X164941219Y-116702146D01*
X164944348Y-116701673D01*
X164979994Y-116688558D01*
X165027937Y-116670918D01*
X165130718Y-116633102D01*
X165299493Y-116528457D01*
X165371907Y-116459979D01*
X165441477Y-116394190D01*
X165441478Y-116394189D01*
X165443779Y-116392013D01*
X165557682Y-116229342D01*
X165636549Y-116047091D01*
X165677159Y-115852704D01*
X165677500Y-115846197D01*
X165677500Y-115400372D01*
X165662473Y-115252433D01*
X165632255Y-115156005D01*
X165604035Y-115065957D01*
X165604034Y-115065955D01*
X165603088Y-115062936D01*
X165506813Y-114889251D01*
X165377579Y-114738471D01*
X165375083Y-114736535D01*
X165375080Y-114736532D01*
X165223168Y-114618698D01*
X165220667Y-114616758D01*
X165217826Y-114615360D01*
X165045330Y-114530481D01*
X165045326Y-114530480D01*
X165042486Y-114529082D01*
X164850315Y-114479025D01*
X164652003Y-114468632D01*
X164648877Y-114469105D01*
X164648873Y-114469105D01*
X164458784Y-114497853D01*
X164458781Y-114497854D01*
X164455652Y-114498327D01*
X164269282Y-114566898D01*
X164100507Y-114671543D01*
X164098206Y-114673719D01*
X164023167Y-114744680D01*
X163956221Y-114807987D01*
X163842318Y-114970658D01*
X163763451Y-115152909D01*
X163722841Y-115347296D01*
X163722500Y-115353803D01*
X163722500Y-115799628D01*
X163177500Y-115799628D01*
X163177499Y-114814220D01*
X163166578Y-114740021D01*
X163132137Y-114669874D01*
X163113466Y-114631845D01*
X163113465Y-114631844D01*
X163111190Y-114627210D01*
X163107537Y-114623563D01*
X163025902Y-114542070D01*
X163025900Y-114542068D01*
X163022247Y-114538422D01*
X162940222Y-114498327D01*
X162913699Y-114485362D01*
X162913698Y-114485362D01*
X162909339Y-114483231D01*
X162904536Y-114482530D01*
X162904535Y-114482530D01*
X162879370Y-114478859D01*
X162835781Y-114472500D01*
X162201679Y-114472500D01*
X161564220Y-114472501D01*
X161490021Y-114483422D01*
X161485663Y-114485562D01*
X161485662Y-114485562D01*
X161381845Y-114536534D01*
X161381844Y-114536535D01*
X161377210Y-114538810D01*
X161373564Y-114542462D01*
X161373563Y-114542463D01*
X161292070Y-114624098D01*
X161292068Y-114624100D01*
X161288422Y-114627753D01*
X161286154Y-114632393D01*
X161235675Y-114735662D01*
X161233231Y-114740661D01*
X161232530Y-114745464D01*
X161232530Y-114745465D01*
X161229439Y-114766653D01*
X161222500Y-114814219D01*
X148685781Y-114814219D01*
X150000000Y-113500000D01*
X151217794Y-113500000D01*
X151236500Y-113618108D01*
X151290789Y-113724655D01*
X151375345Y-113809211D01*
X151379724Y-113811442D01*
X151477511Y-113861268D01*
X151477512Y-113861268D01*
X151481892Y-113863500D01*
X151600000Y-113882206D01*
X151718108Y-113863500D01*
X151722488Y-113861268D01*
X151722489Y-113861268D01*
X151820276Y-113811442D01*
X151824655Y-113809211D01*
X151909211Y-113724655D01*
X151963500Y-113618108D01*
X151982206Y-113500000D01*
X152717794Y-113500000D01*
X152736500Y-113618108D01*
X152790789Y-113724655D01*
X152875345Y-113809211D01*
X152879724Y-113811442D01*
X152977511Y-113861268D01*
X152977512Y-113861268D01*
X152981892Y-113863500D01*
X153100000Y-113882206D01*
X153218108Y-113863500D01*
X153222488Y-113861268D01*
X153222489Y-113861268D01*
X153320276Y-113811442D01*
X153324655Y-113809211D01*
X153409211Y-113724655D01*
X153410950Y-113721243D01*
X153451360Y-113696483D01*
X153497873Y-113707653D01*
X153522864Y-113748441D01*
X153522863Y-113767992D01*
X153518563Y-113795140D01*
X153518563Y-113795145D01*
X153517794Y-113800000D01*
X153536500Y-113918108D01*
X153590789Y-114024655D01*
X153675345Y-114109211D01*
X153679724Y-114111442D01*
X153777511Y-114161268D01*
X153777512Y-114161268D01*
X153781892Y-114163500D01*
X153900000Y-114182206D01*
X154018108Y-114163500D01*
X154022488Y-114161268D01*
X154022489Y-114161268D01*
X154120276Y-114111442D01*
X154124655Y-114109211D01*
X154209211Y-114024655D01*
X154244312Y-113955766D01*
X154280687Y-113924700D01*
X154328375Y-113928453D01*
X154355688Y-113955766D01*
X154390789Y-114024655D01*
X154475345Y-114109211D01*
X154479724Y-114111442D01*
X154577511Y-114161268D01*
X154577512Y-114161268D01*
X154581892Y-114163500D01*
X154700000Y-114182206D01*
X154818108Y-114163500D01*
X154822488Y-114161268D01*
X154822489Y-114161268D01*
X154920276Y-114111442D01*
X154924655Y-114109211D01*
X155009211Y-114024655D01*
X155063500Y-113918108D01*
X155082206Y-113800000D01*
X155077658Y-113771286D01*
X156717866Y-113771286D01*
X156721238Y-113811442D01*
X156730749Y-113924700D01*
X156733907Y-113962311D01*
X156786746Y-114146583D01*
X156874370Y-114317082D01*
X156993443Y-114467314D01*
X157139428Y-114591557D01*
X157142092Y-114593046D01*
X157142095Y-114593048D01*
X157211514Y-114631845D01*
X157306765Y-114685079D01*
X157309669Y-114686023D01*
X157309670Y-114686023D01*
X157486168Y-114743371D01*
X157486173Y-114743372D01*
X157489081Y-114744317D01*
X157492125Y-114744680D01*
X157498708Y-114745465D01*
X157679430Y-114767015D01*
X157682472Y-114766781D01*
X157682475Y-114766781D01*
X157867514Y-114752543D01*
X157867519Y-114752542D01*
X157870562Y-114752308D01*
X157899182Y-114744317D01*
X158052260Y-114701577D01*
X158052264Y-114701576D01*
X158055199Y-114700756D01*
X158226305Y-114614324D01*
X158228703Y-114612451D01*
X158228707Y-114612448D01*
X158318786Y-114542070D01*
X158377365Y-114496303D01*
X158379362Y-114493990D01*
X158500630Y-114353500D01*
X158500634Y-114353495D01*
X158502624Y-114351189D01*
X158531704Y-114300000D01*
X158595801Y-114187170D01*
X158595803Y-114187165D01*
X158597312Y-114184509D01*
X158657821Y-114002612D01*
X158662542Y-113965247D01*
X158681627Y-113814167D01*
X158681627Y-113814166D01*
X158681847Y-113812425D01*
X158682230Y-113785000D01*
X158680886Y-113771286D01*
X158663822Y-113597257D01*
X158663524Y-113594217D01*
X158608117Y-113410701D01*
X158518120Y-113241442D01*
X158396962Y-113092887D01*
X158249256Y-112970694D01*
X158080629Y-112879518D01*
X158030189Y-112863904D01*
X157900420Y-112823734D01*
X157900417Y-112823733D01*
X157897505Y-112822832D01*
X157894472Y-112822513D01*
X157894471Y-112822513D01*
X157846787Y-112817501D01*
X157706857Y-112802794D01*
X157703824Y-112803070D01*
X157703820Y-112803070D01*
X157621118Y-112810597D01*
X157515948Y-112820168D01*
X157332050Y-112874292D01*
X157162167Y-112963105D01*
X157012770Y-113083223D01*
X156889549Y-113230072D01*
X156864660Y-113275345D01*
X156803416Y-113386748D01*
X156797198Y-113398058D01*
X156739234Y-113580783D01*
X156738894Y-113583815D01*
X156723588Y-113720276D01*
X156717866Y-113771286D01*
X155077658Y-113771286D01*
X155063500Y-113681892D01*
X155009211Y-113575345D01*
X154924655Y-113490789D01*
X154873278Y-113464611D01*
X154822489Y-113438732D01*
X154822488Y-113438732D01*
X154818108Y-113436500D01*
X154700000Y-113417794D01*
X154581892Y-113436500D01*
X154577512Y-113438732D01*
X154577511Y-113438732D01*
X154526722Y-113464611D01*
X154475345Y-113490789D01*
X154390789Y-113575345D01*
X154371474Y-113613252D01*
X154355688Y-113644234D01*
X154319313Y-113675300D01*
X154271625Y-113671547D01*
X154244312Y-113644234D01*
X154228526Y-113613252D01*
X154209211Y-113575345D01*
X154124655Y-113490789D01*
X154073278Y-113464611D01*
X154022489Y-113438732D01*
X154022488Y-113438732D01*
X154018108Y-113436500D01*
X153900000Y-113417794D01*
X153781892Y-113436500D01*
X153777512Y-113438732D01*
X153777511Y-113438732D01*
X153726722Y-113464611D01*
X153675345Y-113490789D01*
X153590789Y-113575345D01*
X153589050Y-113578757D01*
X153548640Y-113603517D01*
X153502127Y-113592347D01*
X153477136Y-113551559D01*
X153477137Y-113532008D01*
X153481437Y-113504860D01*
X153481437Y-113504855D01*
X153482206Y-113500000D01*
X153463500Y-113381892D01*
X153409211Y-113275345D01*
X153328060Y-113194194D01*
X153309754Y-113150000D01*
X153328060Y-113105806D01*
X153409211Y-113024655D01*
X153463500Y-112918108D01*
X153482206Y-112800000D01*
X153463500Y-112681892D01*
X153409211Y-112575345D01*
X153324655Y-112490789D01*
X153273278Y-112464611D01*
X153222489Y-112438732D01*
X153222488Y-112438732D01*
X153218108Y-112436500D01*
X153100000Y-112417794D01*
X152981892Y-112436500D01*
X152977512Y-112438732D01*
X152977511Y-112438732D01*
X152926722Y-112464611D01*
X152875345Y-112490789D01*
X152790789Y-112575345D01*
X152736500Y-112681892D01*
X152717794Y-112800000D01*
X152736500Y-112918108D01*
X152790789Y-113024655D01*
X152871940Y-113105806D01*
X152890246Y-113150000D01*
X152871940Y-113194194D01*
X152790789Y-113275345D01*
X152736500Y-113381892D01*
X152717794Y-113500000D01*
X151982206Y-113500000D01*
X151963500Y-113381892D01*
X151909211Y-113275345D01*
X151828060Y-113194194D01*
X151809754Y-113150000D01*
X151828060Y-113105806D01*
X151909211Y-113024655D01*
X151963500Y-112918108D01*
X151982206Y-112800000D01*
X151963500Y-112681892D01*
X151909211Y-112575345D01*
X151824655Y-112490789D01*
X151773278Y-112464611D01*
X151722489Y-112438732D01*
X151722488Y-112438732D01*
X151718108Y-112436500D01*
X151600000Y-112417794D01*
X151481892Y-112436500D01*
X151477512Y-112438732D01*
X151477511Y-112438732D01*
X151426722Y-112464611D01*
X151375345Y-112490789D01*
X151290789Y-112575345D01*
X151236500Y-112681892D01*
X151217794Y-112800000D01*
X151236500Y-112918108D01*
X151290789Y-113024655D01*
X151371940Y-113105806D01*
X151390246Y-113150000D01*
X151371940Y-113194194D01*
X151290789Y-113275345D01*
X151236500Y-113381892D01*
X151217794Y-113500000D01*
X150000000Y-113500000D01*
X150100000Y-113400000D01*
X150100000Y-111522333D01*
X150255015Y-111522333D01*
X150273721Y-111640441D01*
X150275953Y-111644821D01*
X150275953Y-111644822D01*
X150277352Y-111647567D01*
X150328010Y-111746988D01*
X150412566Y-111831544D01*
X150428830Y-111839831D01*
X150514732Y-111883601D01*
X150514733Y-111883601D01*
X150519113Y-111885833D01*
X150637221Y-111904539D01*
X150755329Y-111885833D01*
X150759709Y-111883601D01*
X150759710Y-111883601D01*
X150845612Y-111839831D01*
X150861876Y-111831544D01*
X150946432Y-111746988D01*
X150997090Y-111647567D01*
X150998489Y-111644822D01*
X150998489Y-111644821D01*
X151000721Y-111640441D01*
X151019427Y-111522333D01*
X151000721Y-111404225D01*
X150946432Y-111297678D01*
X150880040Y-111231286D01*
X156717866Y-111231286D01*
X156733907Y-111422311D01*
X156786746Y-111606583D01*
X156806237Y-111644509D01*
X156868744Y-111766134D01*
X156874370Y-111777082D01*
X156993443Y-111927314D01*
X157139428Y-112051557D01*
X157142092Y-112053046D01*
X157142095Y-112053048D01*
X157207168Y-112089416D01*
X157306765Y-112145079D01*
X157309669Y-112146023D01*
X157309670Y-112146023D01*
X157486168Y-112203371D01*
X157486173Y-112203372D01*
X157489081Y-112204317D01*
X157679430Y-112227015D01*
X157682472Y-112226781D01*
X157682475Y-112226781D01*
X157867514Y-112212543D01*
X157867519Y-112212542D01*
X157870562Y-112212308D01*
X157899182Y-112204317D01*
X158052260Y-112161577D01*
X158052264Y-112161576D01*
X158055199Y-112160756D01*
X158226305Y-112074324D01*
X158228703Y-112072451D01*
X158228707Y-112072448D01*
X158321435Y-112000000D01*
X158377365Y-111956303D01*
X158379362Y-111953990D01*
X158500630Y-111813500D01*
X158500634Y-111813495D01*
X158502624Y-111811189D01*
X158522000Y-111777082D01*
X158595801Y-111647170D01*
X158595803Y-111647165D01*
X158597312Y-111644509D01*
X158657821Y-111462612D01*
X158662542Y-111425247D01*
X158681627Y-111274167D01*
X158681627Y-111274166D01*
X158681847Y-111272425D01*
X158682230Y-111245000D01*
X158680886Y-111231286D01*
X158663822Y-111057257D01*
X158663524Y-111054217D01*
X158641783Y-110982206D01*
X158609001Y-110873629D01*
X158608117Y-110870701D01*
X158566488Y-110792408D01*
X158519555Y-110704140D01*
X158519553Y-110704137D01*
X158518120Y-110701442D01*
X158396962Y-110552887D01*
X158350220Y-110514219D01*
X161272500Y-110514219D01*
X161272501Y-112085780D01*
X161283422Y-112159979D01*
X161285562Y-112164337D01*
X161285562Y-112164338D01*
X161316158Y-112226653D01*
X161338810Y-112272790D01*
X161342462Y-112276436D01*
X161342463Y-112276437D01*
X161424098Y-112357930D01*
X161424100Y-112357932D01*
X161427753Y-112361578D01*
X161448495Y-112371717D01*
X161510748Y-112402147D01*
X161540661Y-112416769D01*
X161545464Y-112417470D01*
X161545465Y-112417470D01*
X161552958Y-112418563D01*
X161614219Y-112427500D01*
X162248321Y-112427500D01*
X162885780Y-112427499D01*
X162959979Y-112416578D01*
X162964338Y-112414438D01*
X163068155Y-112363466D01*
X163068156Y-112363465D01*
X163072790Y-112361190D01*
X163100829Y-112333102D01*
X163157930Y-112275902D01*
X163157932Y-112275900D01*
X163161578Y-112272247D01*
X163195246Y-112203371D01*
X163214638Y-112163699D01*
X163214638Y-112163698D01*
X163216769Y-112159339D01*
X163227500Y-112085781D01*
X163227500Y-111499628D01*
X163772500Y-111499628D01*
X163787527Y-111647567D01*
X163788471Y-111650580D01*
X163788472Y-111650584D01*
X163838803Y-111811189D01*
X163846912Y-111837064D01*
X163943187Y-112010749D01*
X164072421Y-112161529D01*
X164074917Y-112163465D01*
X164074920Y-112163468D01*
X164209176Y-112267607D01*
X164229333Y-112283242D01*
X164232174Y-112284640D01*
X164404670Y-112369519D01*
X164404674Y-112369520D01*
X164407514Y-112370918D01*
X164599685Y-112420975D01*
X164797997Y-112431368D01*
X164801123Y-112430895D01*
X164801127Y-112430895D01*
X164991216Y-112402147D01*
X164991219Y-112402146D01*
X164994348Y-112401673D01*
X165180718Y-112333102D01*
X165349493Y-112228457D01*
X165422540Y-112159380D01*
X165491477Y-112094190D01*
X165491478Y-112094189D01*
X165493779Y-112092013D01*
X165558207Y-112000000D01*
X165605866Y-111931936D01*
X165605867Y-111931934D01*
X165607682Y-111929342D01*
X165686549Y-111747091D01*
X165687486Y-111742609D01*
X165726666Y-111555063D01*
X165727159Y-111552704D01*
X165727500Y-111546197D01*
X165727500Y-111100372D01*
X165712473Y-110952433D01*
X165699628Y-110911442D01*
X165654035Y-110765957D01*
X165654034Y-110765955D01*
X165653088Y-110762936D01*
X165590506Y-110650036D01*
X165558348Y-110592020D01*
X165558347Y-110592019D01*
X165556813Y-110589251D01*
X165427579Y-110438471D01*
X165425083Y-110436535D01*
X165425080Y-110436532D01*
X165273168Y-110318698D01*
X165270667Y-110316758D01*
X165267826Y-110315360D01*
X165095330Y-110230481D01*
X165095326Y-110230480D01*
X165092486Y-110229082D01*
X164900315Y-110179025D01*
X164702003Y-110168632D01*
X164698877Y-110169105D01*
X164698873Y-110169105D01*
X164508784Y-110197853D01*
X164508781Y-110197854D01*
X164505652Y-110198327D01*
X164319282Y-110266898D01*
X164150507Y-110371543D01*
X164141856Y-110379724D01*
X164038449Y-110477511D01*
X164006221Y-110507987D01*
X163892318Y-110670658D01*
X163813451Y-110852909D01*
X163772841Y-111047296D01*
X163772500Y-111053803D01*
X163772500Y-111499628D01*
X163227500Y-111499628D01*
X163227499Y-110514220D01*
X163216578Y-110440021D01*
X163211284Y-110429239D01*
X163163466Y-110331845D01*
X163163465Y-110331844D01*
X163161190Y-110327210D01*
X163157537Y-110323563D01*
X163075902Y-110242070D01*
X163075900Y-110242068D01*
X163072247Y-110238422D01*
X162990222Y-110198327D01*
X162963699Y-110185362D01*
X162963698Y-110185362D01*
X162959339Y-110183231D01*
X162954536Y-110182530D01*
X162954535Y-110182530D01*
X162929370Y-110178859D01*
X162885781Y-110172500D01*
X162251679Y-110172500D01*
X161614220Y-110172501D01*
X161540021Y-110183422D01*
X161535663Y-110185562D01*
X161535662Y-110185562D01*
X161431845Y-110236534D01*
X161431844Y-110236535D01*
X161427210Y-110238810D01*
X161423564Y-110242462D01*
X161423563Y-110242463D01*
X161342070Y-110324098D01*
X161342068Y-110324100D01*
X161338422Y-110327753D01*
X161332671Y-110339518D01*
X161285675Y-110435662D01*
X161283231Y-110440661D01*
X161272500Y-110514219D01*
X158350220Y-110514219D01*
X158249256Y-110430694D01*
X158080629Y-110339518D01*
X157934443Y-110294266D01*
X157900420Y-110283734D01*
X157900417Y-110283733D01*
X157897505Y-110282832D01*
X157894472Y-110282513D01*
X157894471Y-110282513D01*
X157846787Y-110277501D01*
X157706857Y-110262794D01*
X157703824Y-110263070D01*
X157703820Y-110263070D01*
X157621118Y-110270597D01*
X157515948Y-110280168D01*
X157332050Y-110334292D01*
X157162167Y-110423105D01*
X157012770Y-110543223D01*
X156889549Y-110690072D01*
X156876806Y-110713252D01*
X156800029Y-110852909D01*
X156797198Y-110858058D01*
X156739234Y-111040783D01*
X156738233Y-111049704D01*
X156720154Y-111210891D01*
X156717866Y-111231286D01*
X150880040Y-111231286D01*
X150861876Y-111213122D01*
X150810499Y-111186944D01*
X150759710Y-111161065D01*
X150759709Y-111161065D01*
X150755329Y-111158833D01*
X150637221Y-111140127D01*
X150519113Y-111158833D01*
X150514733Y-111161065D01*
X150514732Y-111161065D01*
X150463943Y-111186944D01*
X150412566Y-111213122D01*
X150328010Y-111297678D01*
X150273721Y-111404225D01*
X150255015Y-111522333D01*
X150100000Y-111522333D01*
X150100000Y-111500000D01*
X149200000Y-110600000D01*
X153417794Y-110600000D01*
X153436500Y-110718108D01*
X153490789Y-110824655D01*
X153575345Y-110909211D01*
X153579724Y-110911442D01*
X153677511Y-110961268D01*
X153677512Y-110961268D01*
X153681892Y-110963500D01*
X153800000Y-110982206D01*
X153918108Y-110963500D01*
X153922488Y-110961268D01*
X153922489Y-110961268D01*
X154020276Y-110911442D01*
X154024655Y-110909211D01*
X154109211Y-110824655D01*
X154163500Y-110718108D01*
X154182206Y-110600000D01*
X154163500Y-110481892D01*
X154109211Y-110375345D01*
X154024655Y-110290789D01*
X153922642Y-110238810D01*
X153922489Y-110238732D01*
X153922488Y-110238732D01*
X153918108Y-110236500D01*
X153800000Y-110217794D01*
X153681892Y-110236500D01*
X153677512Y-110238732D01*
X153677511Y-110238732D01*
X153677358Y-110238810D01*
X153575345Y-110290789D01*
X153490789Y-110375345D01*
X153436500Y-110481892D01*
X153417794Y-110600000D01*
X149200000Y-110600000D01*
X148300000Y-109700000D01*
X148289009Y-109700000D01*
X148279339Y-109690330D01*
X148249580Y-109700000D01*
X147650420Y-109700000D01*
X147606226Y-109681694D01*
X147599770Y-109666109D01*
X147586317Y-109688063D01*
X147549580Y-109700000D01*
X144625888Y-109700000D01*
X144581694Y-109681694D01*
X144100000Y-109200000D01*
X147217794Y-109200000D01*
X147236500Y-109318108D01*
X147290789Y-109424655D01*
X147375345Y-109509211D01*
X147405655Y-109524655D01*
X147477511Y-109561268D01*
X147477512Y-109561268D01*
X147481892Y-109563500D01*
X147545998Y-109573653D01*
X147559357Y-109575769D01*
X147600143Y-109600763D01*
X147601242Y-109605339D01*
X147606226Y-109593306D01*
X147640643Y-109575769D01*
X147654002Y-109573653D01*
X147718108Y-109563500D01*
X147722488Y-109561268D01*
X147722489Y-109561268D01*
X147794345Y-109524655D01*
X147824655Y-109509211D01*
X147905806Y-109428060D01*
X147950000Y-109409754D01*
X147994194Y-109428060D01*
X148075345Y-109509211D01*
X148105655Y-109524655D01*
X148177511Y-109561268D01*
X148177512Y-109561268D01*
X148181892Y-109563500D01*
X148245998Y-109573653D01*
X148259357Y-109575769D01*
X148284429Y-109591134D01*
X148290028Y-109585535D01*
X148304169Y-109581546D01*
X148362155Y-109572362D01*
X148418108Y-109563500D01*
X148422488Y-109561268D01*
X148422489Y-109561268D01*
X148494345Y-109524655D01*
X148524655Y-109509211D01*
X148609211Y-109424655D01*
X148663500Y-109318108D01*
X148666368Y-109300000D01*
X149217794Y-109300000D01*
X149236500Y-109418108D01*
X149238732Y-109422488D01*
X149238732Y-109422489D01*
X149263944Y-109471970D01*
X149290789Y-109524655D01*
X149375345Y-109609211D01*
X149379724Y-109611442D01*
X149477511Y-109661268D01*
X149477512Y-109661268D01*
X149481892Y-109663500D01*
X149600000Y-109682206D01*
X149718108Y-109663500D01*
X149722488Y-109661268D01*
X149722489Y-109661268D01*
X149820276Y-109611442D01*
X149824655Y-109609211D01*
X149909211Y-109524655D01*
X149912547Y-109518108D01*
X149920228Y-109503035D01*
X149956603Y-109471970D01*
X150004291Y-109475724D01*
X150035356Y-109512098D01*
X150035731Y-109513252D01*
X150036500Y-109518108D01*
X150090789Y-109624655D01*
X150175345Y-109709211D01*
X150179724Y-109711442D01*
X150277511Y-109761268D01*
X150277512Y-109761268D01*
X150281892Y-109763500D01*
X150400000Y-109782206D01*
X150518108Y-109763500D01*
X150522488Y-109761268D01*
X150522489Y-109761268D01*
X150620276Y-109711442D01*
X150624655Y-109709211D01*
X150709211Y-109624655D01*
X150741509Y-109561268D01*
X150761268Y-109522489D01*
X150761268Y-109522488D01*
X150763500Y-109518108D01*
X150782206Y-109400000D01*
X150763500Y-109281892D01*
X150709211Y-109175345D01*
X150624655Y-109090789D01*
X150555195Y-109055397D01*
X150522489Y-109038732D01*
X150522488Y-109038732D01*
X150518108Y-109036500D01*
X150400000Y-109017794D01*
X150281892Y-109036500D01*
X150277512Y-109038732D01*
X150277511Y-109038732D01*
X150244805Y-109055397D01*
X150175345Y-109090789D01*
X150090789Y-109175345D01*
X150088558Y-109179724D01*
X150088556Y-109179727D01*
X150079772Y-109196965D01*
X150043397Y-109228030D01*
X149995709Y-109224276D01*
X149964644Y-109187902D01*
X149964269Y-109186748D01*
X149963500Y-109181892D01*
X149909211Y-109075345D01*
X149824655Y-108990789D01*
X149773278Y-108964611D01*
X149722489Y-108938732D01*
X149722488Y-108938732D01*
X149718108Y-108936500D01*
X149600000Y-108917794D01*
X149481892Y-108936500D01*
X149477512Y-108938732D01*
X149477511Y-108938732D01*
X149426722Y-108964611D01*
X149375345Y-108990789D01*
X149290789Y-109075345D01*
X149288558Y-109079724D01*
X149241608Y-109171868D01*
X149236500Y-109181892D01*
X149217794Y-109300000D01*
X148666368Y-109300000D01*
X148682206Y-109200000D01*
X148663500Y-109081892D01*
X148658393Y-109071868D01*
X148617080Y-108990789D01*
X148609211Y-108975345D01*
X148524655Y-108890789D01*
X148473278Y-108864611D01*
X148422489Y-108838732D01*
X148422488Y-108838732D01*
X148418108Y-108836500D01*
X148300000Y-108817794D01*
X148181892Y-108836500D01*
X148177512Y-108838732D01*
X148177511Y-108838732D01*
X148126722Y-108864611D01*
X148075345Y-108890789D01*
X147994194Y-108971940D01*
X147950000Y-108990246D01*
X147905806Y-108971940D01*
X147824655Y-108890789D01*
X147773278Y-108864611D01*
X147722489Y-108838732D01*
X147722488Y-108838732D01*
X147718108Y-108836500D01*
X147600000Y-108817794D01*
X147481892Y-108836500D01*
X147477512Y-108838732D01*
X147477511Y-108838732D01*
X147426722Y-108864611D01*
X147375345Y-108890789D01*
X147290789Y-108975345D01*
X147282920Y-108990789D01*
X147241608Y-109071868D01*
X147236500Y-109081892D01*
X147217794Y-109200000D01*
X144100000Y-109200000D01*
X142918306Y-108018306D01*
X142900000Y-107974112D01*
X142900000Y-106214219D01*
X161272500Y-106214219D01*
X161272501Y-107785780D01*
X161283422Y-107859979D01*
X161338810Y-107972790D01*
X161342462Y-107976436D01*
X161342463Y-107976437D01*
X161424098Y-108057930D01*
X161424100Y-108057932D01*
X161427753Y-108061578D01*
X161448495Y-108071717D01*
X161510748Y-108102147D01*
X161540661Y-108116769D01*
X161545464Y-108117470D01*
X161545465Y-108117470D01*
X161564015Y-108120176D01*
X161614219Y-108127500D01*
X162248321Y-108127500D01*
X162885780Y-108127499D01*
X162959979Y-108116578D01*
X162964338Y-108114438D01*
X163068155Y-108063466D01*
X163068156Y-108063465D01*
X163072790Y-108061190D01*
X163100829Y-108033102D01*
X163157930Y-107975902D01*
X163157932Y-107975900D01*
X163161578Y-107972247D01*
X163184047Y-107926281D01*
X163214638Y-107863699D01*
X163214638Y-107863698D01*
X163216769Y-107859339D01*
X163227500Y-107785781D01*
X163227500Y-107199628D01*
X163772500Y-107199628D01*
X163787527Y-107347567D01*
X163788471Y-107350580D01*
X163788472Y-107350584D01*
X163818716Y-107447091D01*
X163846912Y-107537064D01*
X163943187Y-107710749D01*
X164072421Y-107861529D01*
X164074917Y-107863465D01*
X164074920Y-107863468D01*
X164076042Y-107864338D01*
X164229333Y-107983242D01*
X164232174Y-107984640D01*
X164404670Y-108069519D01*
X164404674Y-108069520D01*
X164407514Y-108070918D01*
X164599685Y-108120975D01*
X164797997Y-108131368D01*
X164801123Y-108130895D01*
X164801127Y-108130895D01*
X164991216Y-108102147D01*
X164991219Y-108102146D01*
X164994348Y-108101673D01*
X165180718Y-108033102D01*
X165349493Y-107928457D01*
X165421907Y-107859979D01*
X165491477Y-107794190D01*
X165491478Y-107794189D01*
X165493779Y-107792013D01*
X165607682Y-107629342D01*
X165686549Y-107447091D01*
X165727159Y-107252704D01*
X165727500Y-107246197D01*
X165727500Y-106800372D01*
X165712473Y-106652433D01*
X165682255Y-106556005D01*
X165654035Y-106465957D01*
X165654034Y-106465955D01*
X165653088Y-106462936D01*
X165556813Y-106289251D01*
X165427579Y-106138471D01*
X165425083Y-106136535D01*
X165425080Y-106136532D01*
X165273168Y-106018698D01*
X165270667Y-106016758D01*
X165267826Y-106015360D01*
X165095330Y-105930481D01*
X165095326Y-105930480D01*
X165092486Y-105929082D01*
X164900315Y-105879025D01*
X164702003Y-105868632D01*
X164698877Y-105869105D01*
X164698873Y-105869105D01*
X164508784Y-105897853D01*
X164508781Y-105897854D01*
X164505652Y-105898327D01*
X164319282Y-105966898D01*
X164150507Y-106071543D01*
X164148206Y-106073719D01*
X164077417Y-106140661D01*
X164006221Y-106207987D01*
X163892318Y-106370658D01*
X163813451Y-106552909D01*
X163772841Y-106747296D01*
X163772500Y-106753803D01*
X163772500Y-107199628D01*
X163227500Y-107199628D01*
X163227499Y-106214220D01*
X163216578Y-106140021D01*
X163188192Y-106082206D01*
X163163466Y-106031845D01*
X163163465Y-106031844D01*
X163161190Y-106027210D01*
X163154244Y-106020276D01*
X163075902Y-105942070D01*
X163075900Y-105942068D01*
X163072247Y-105938422D01*
X162990222Y-105898327D01*
X162963699Y-105885362D01*
X162963698Y-105885362D01*
X162959339Y-105883231D01*
X162954536Y-105882530D01*
X162954535Y-105882530D01*
X162929370Y-105878859D01*
X162885781Y-105872500D01*
X162251679Y-105872500D01*
X161614220Y-105872501D01*
X161540021Y-105883422D01*
X161535663Y-105885562D01*
X161535662Y-105885562D01*
X161431845Y-105936534D01*
X161431844Y-105936535D01*
X161427210Y-105938810D01*
X161423564Y-105942462D01*
X161423563Y-105942463D01*
X161342070Y-106024098D01*
X161342068Y-106024100D01*
X161338422Y-106027753D01*
X161336154Y-106032393D01*
X161285675Y-106135662D01*
X161283231Y-106140661D01*
X161272500Y-106214219D01*
X142900000Y-106214219D01*
X142900000Y-105700000D01*
X145217794Y-105700000D01*
X145236500Y-105818108D01*
X145290789Y-105924655D01*
X145375345Y-106009211D01*
X145379724Y-106011442D01*
X145477511Y-106061268D01*
X145477512Y-106061268D01*
X145481892Y-106063500D01*
X145600000Y-106082206D01*
X145718108Y-106063500D01*
X145722488Y-106061268D01*
X145722489Y-106061268D01*
X145820276Y-106011442D01*
X145824655Y-106009211D01*
X145909211Y-105924655D01*
X145963500Y-105818108D01*
X145966368Y-105800000D01*
X148717794Y-105800000D01*
X148736500Y-105918108D01*
X148738732Y-105922488D01*
X148738732Y-105922489D01*
X148750000Y-105944603D01*
X148790789Y-106024655D01*
X148875345Y-106109211D01*
X148879724Y-106111442D01*
X148977511Y-106161268D01*
X148977512Y-106161268D01*
X148981892Y-106163500D01*
X149100000Y-106182206D01*
X149218108Y-106163500D01*
X149222488Y-106161268D01*
X149222489Y-106161268D01*
X149320276Y-106111442D01*
X149324655Y-106109211D01*
X149405806Y-106028060D01*
X149450000Y-106009754D01*
X149494194Y-106028060D01*
X149575345Y-106109211D01*
X149579724Y-106111442D01*
X149677511Y-106161268D01*
X149677512Y-106161268D01*
X149681892Y-106163500D01*
X149800000Y-106182206D01*
X149918108Y-106163500D01*
X149922488Y-106161268D01*
X149922489Y-106161268D01*
X150020276Y-106111442D01*
X150024655Y-106109211D01*
X150105806Y-106028060D01*
X150150000Y-106009754D01*
X150194194Y-106028060D01*
X150275345Y-106109211D01*
X150279724Y-106111442D01*
X150377511Y-106161268D01*
X150377512Y-106161268D01*
X150381892Y-106163500D01*
X150500000Y-106182206D01*
X150618108Y-106163500D01*
X150622488Y-106161268D01*
X150622489Y-106161268D01*
X150720276Y-106111442D01*
X150724655Y-106109211D01*
X150809211Y-106024655D01*
X150844312Y-105955766D01*
X150880687Y-105924700D01*
X150928375Y-105928453D01*
X150955688Y-105955766D01*
X150990789Y-106024655D01*
X151075345Y-106109211D01*
X151079724Y-106111442D01*
X151177511Y-106161268D01*
X151177512Y-106161268D01*
X151181892Y-106163500D01*
X151300000Y-106182206D01*
X151418108Y-106163500D01*
X151422488Y-106161268D01*
X151422489Y-106161268D01*
X151520276Y-106111442D01*
X151524655Y-106109211D01*
X151609211Y-106024655D01*
X151650000Y-105944603D01*
X151661268Y-105922489D01*
X151661268Y-105922488D01*
X151663500Y-105918108D01*
X151682206Y-105800000D01*
X151663500Y-105681892D01*
X151609211Y-105575345D01*
X151524655Y-105490789D01*
X151473278Y-105464611D01*
X151422489Y-105438732D01*
X151422488Y-105438732D01*
X151418108Y-105436500D01*
X151300000Y-105417794D01*
X151181892Y-105436500D01*
X151177512Y-105438732D01*
X151177511Y-105438732D01*
X151126722Y-105464611D01*
X151075345Y-105490789D01*
X150990789Y-105575345D01*
X150955688Y-105644234D01*
X150919313Y-105675300D01*
X150871625Y-105671547D01*
X150844312Y-105644234D01*
X150809211Y-105575345D01*
X150724655Y-105490789D01*
X150673278Y-105464611D01*
X150622489Y-105438732D01*
X150622488Y-105438732D01*
X150618108Y-105436500D01*
X150500000Y-105417794D01*
X150381892Y-105436500D01*
X150377512Y-105438732D01*
X150377511Y-105438732D01*
X150326722Y-105464611D01*
X150275345Y-105490789D01*
X150194194Y-105571940D01*
X150150000Y-105590246D01*
X150105806Y-105571940D01*
X150024655Y-105490789D01*
X149973278Y-105464611D01*
X149922489Y-105438732D01*
X149922488Y-105438732D01*
X149918108Y-105436500D01*
X149800000Y-105417794D01*
X149681892Y-105436500D01*
X149677512Y-105438732D01*
X149677511Y-105438732D01*
X149626722Y-105464611D01*
X149575345Y-105490789D01*
X149494194Y-105571940D01*
X149450000Y-105590246D01*
X149405806Y-105571940D01*
X149324655Y-105490789D01*
X149273278Y-105464611D01*
X149222489Y-105438732D01*
X149222488Y-105438732D01*
X149218108Y-105436500D01*
X149100000Y-105417794D01*
X148981892Y-105436500D01*
X148977512Y-105438732D01*
X148977511Y-105438732D01*
X148926722Y-105464611D01*
X148875345Y-105490789D01*
X148790789Y-105575345D01*
X148736500Y-105681892D01*
X148717794Y-105800000D01*
X145966368Y-105800000D01*
X145982206Y-105700000D01*
X145963500Y-105581892D01*
X145958393Y-105571868D01*
X145911442Y-105479724D01*
X145909211Y-105475345D01*
X145824655Y-105390789D01*
X145773278Y-105364611D01*
X145722489Y-105338732D01*
X145722488Y-105338732D01*
X145718108Y-105336500D01*
X145600000Y-105317794D01*
X145481892Y-105336500D01*
X145477512Y-105338732D01*
X145477511Y-105338732D01*
X145426722Y-105364611D01*
X145375345Y-105390789D01*
X145290789Y-105475345D01*
X145288558Y-105479724D01*
X145241608Y-105571868D01*
X145236500Y-105581892D01*
X145217794Y-105700000D01*
X142900000Y-105700000D01*
X142900000Y-104500000D01*
X147217794Y-104500000D01*
X147236500Y-104618108D01*
X147290789Y-104724655D01*
X147375345Y-104809211D01*
X147379724Y-104811442D01*
X147477511Y-104861268D01*
X147477512Y-104861268D01*
X147481892Y-104863500D01*
X147600000Y-104882206D01*
X147718108Y-104863500D01*
X147722488Y-104861268D01*
X147722489Y-104861268D01*
X147820276Y-104811442D01*
X147824655Y-104809211D01*
X147909211Y-104724655D01*
X147963500Y-104618108D01*
X147982206Y-104500000D01*
X147963500Y-104381892D01*
X147909211Y-104275345D01*
X147824655Y-104190789D01*
X147766717Y-104161268D01*
X147722489Y-104138732D01*
X147722488Y-104138732D01*
X147718108Y-104136500D01*
X147600000Y-104117794D01*
X147481892Y-104136500D01*
X147477512Y-104138732D01*
X147477511Y-104138732D01*
X147433283Y-104161268D01*
X147375345Y-104190789D01*
X147290789Y-104275345D01*
X147236500Y-104381892D01*
X147217794Y-104500000D01*
X142900000Y-104500000D01*
X142900000Y-103800000D01*
X155017794Y-103800000D01*
X155036500Y-103918108D01*
X155090789Y-104024655D01*
X155175345Y-104109211D01*
X155179724Y-104111442D01*
X155277511Y-104161268D01*
X155277512Y-104161268D01*
X155281892Y-104163500D01*
X155400000Y-104182206D01*
X155518108Y-104163500D01*
X155522488Y-104161268D01*
X155522489Y-104161268D01*
X155620276Y-104111442D01*
X155624655Y-104109211D01*
X155655806Y-104078060D01*
X155700000Y-104059754D01*
X155744194Y-104078060D01*
X155775345Y-104109211D01*
X155779724Y-104111442D01*
X155877511Y-104161268D01*
X155877512Y-104161268D01*
X155881892Y-104163500D01*
X156000000Y-104182206D01*
X156118108Y-104163500D01*
X156122488Y-104161268D01*
X156122489Y-104161268D01*
X156220276Y-104111442D01*
X156224655Y-104109211D01*
X156238866Y-104095000D01*
X163127044Y-104095000D01*
X163145750Y-104213108D01*
X163200039Y-104319655D01*
X163284595Y-104404211D01*
X163288974Y-104406442D01*
X163386761Y-104456268D01*
X163386762Y-104456268D01*
X163391142Y-104458500D01*
X163509250Y-104477206D01*
X163627358Y-104458500D01*
X163631738Y-104456268D01*
X163631739Y-104456268D01*
X163729526Y-104406442D01*
X163733905Y-104404211D01*
X163818461Y-104319655D01*
X163872750Y-104213108D01*
X163891456Y-104095000D01*
X163872750Y-103976892D01*
X163818461Y-103870345D01*
X163733905Y-103785789D01*
X163682528Y-103759611D01*
X163631739Y-103733732D01*
X163631738Y-103733732D01*
X163627358Y-103731500D01*
X163509250Y-103712794D01*
X163391142Y-103731500D01*
X163386762Y-103733732D01*
X163386761Y-103733732D01*
X163335972Y-103759611D01*
X163284595Y-103785789D01*
X163200039Y-103870345D01*
X163145750Y-103976892D01*
X163127044Y-104095000D01*
X156238866Y-104095000D01*
X156309211Y-104024655D01*
X156363500Y-103918108D01*
X156382206Y-103800000D01*
X156363500Y-103681892D01*
X156309211Y-103575345D01*
X156224655Y-103490789D01*
X156173278Y-103464611D01*
X156122489Y-103438732D01*
X156122488Y-103438732D01*
X156118108Y-103436500D01*
X156000000Y-103417794D01*
X155881892Y-103436500D01*
X155877512Y-103438732D01*
X155877511Y-103438732D01*
X155826722Y-103464611D01*
X155775345Y-103490789D01*
X155744194Y-103521940D01*
X155700000Y-103540246D01*
X155655806Y-103521940D01*
X155624655Y-103490789D01*
X155573278Y-103464611D01*
X155522489Y-103438732D01*
X155522488Y-103438732D01*
X155518108Y-103436500D01*
X155400000Y-103417794D01*
X155281892Y-103436500D01*
X155277512Y-103438732D01*
X155277511Y-103438732D01*
X155226722Y-103464611D01*
X155175345Y-103490789D01*
X155090789Y-103575345D01*
X155036500Y-103681892D01*
X155017794Y-103800000D01*
X142900000Y-103800000D01*
X142900000Y-103107559D01*
X145417794Y-103107559D01*
X145436500Y-103225667D01*
X145490789Y-103332214D01*
X145575345Y-103416770D01*
X145579724Y-103419001D01*
X145677511Y-103468827D01*
X145677512Y-103468827D01*
X145681892Y-103471059D01*
X145800000Y-103489765D01*
X145918108Y-103471059D01*
X145922488Y-103468827D01*
X145922489Y-103468827D01*
X146020276Y-103419001D01*
X146024655Y-103416770D01*
X146109211Y-103332214D01*
X146163500Y-103225667D01*
X146182206Y-103107559D01*
X146163500Y-102989451D01*
X146109211Y-102882904D01*
X146024655Y-102798348D01*
X145951882Y-102761268D01*
X145922489Y-102746291D01*
X145922488Y-102746291D01*
X145918108Y-102744059D01*
X145800000Y-102725353D01*
X145681892Y-102744059D01*
X145677512Y-102746291D01*
X145677511Y-102746291D01*
X145648118Y-102761268D01*
X145575345Y-102798348D01*
X145490789Y-102882904D01*
X145436500Y-102989451D01*
X145417794Y-103107559D01*
X142900000Y-103107559D01*
X142900000Y-102234062D01*
X146217794Y-102234062D01*
X146236500Y-102352170D01*
X146238732Y-102356550D01*
X146238732Y-102356551D01*
X146258397Y-102395145D01*
X146290789Y-102458717D01*
X146375345Y-102543273D01*
X146426722Y-102569451D01*
X146477511Y-102595330D01*
X146477512Y-102595330D01*
X146481892Y-102597562D01*
X146600000Y-102616268D01*
X146718108Y-102597562D01*
X146722488Y-102595330D01*
X146722489Y-102595330D01*
X146773278Y-102569451D01*
X146824655Y-102543273D01*
X146909211Y-102458717D01*
X146941603Y-102395145D01*
X146961268Y-102356551D01*
X146961268Y-102356550D01*
X146963500Y-102352170D01*
X146982206Y-102234062D01*
X146963500Y-102115954D01*
X146954007Y-102097322D01*
X146923016Y-102036500D01*
X146909211Y-102009407D01*
X146864809Y-101965005D01*
X146846503Y-101920811D01*
X146864808Y-101876617D01*
X146909211Y-101832214D01*
X146963500Y-101725667D01*
X146982206Y-101607559D01*
X146963500Y-101489451D01*
X146959809Y-101482206D01*
X146935389Y-101434281D01*
X146909211Y-101382904D01*
X146824655Y-101298348D01*
X146773278Y-101272170D01*
X146722489Y-101246291D01*
X146722488Y-101246291D01*
X146718108Y-101244059D01*
X146600000Y-101225353D01*
X146481892Y-101244059D01*
X146477512Y-101246291D01*
X146477511Y-101246291D01*
X146426722Y-101272170D01*
X146375345Y-101298348D01*
X146290789Y-101382904D01*
X146264611Y-101434281D01*
X146240192Y-101482206D01*
X146236500Y-101489451D01*
X146217794Y-101607559D01*
X146236500Y-101725667D01*
X146290789Y-101832214D01*
X146335192Y-101876617D01*
X146353498Y-101920811D01*
X146335193Y-101965003D01*
X146290789Y-102009407D01*
X146276984Y-102036500D01*
X146245994Y-102097322D01*
X146236500Y-102115954D01*
X146217794Y-102234062D01*
X142900000Y-102234062D01*
X142900000Y-101107559D01*
X147617794Y-101107559D01*
X147636500Y-101225667D01*
X147638732Y-101230047D01*
X147638732Y-101230048D01*
X147664611Y-101280837D01*
X147690789Y-101332214D01*
X147775345Y-101416770D01*
X147779724Y-101419001D01*
X147877511Y-101468827D01*
X147877512Y-101468827D01*
X147881892Y-101471059D01*
X148000000Y-101489765D01*
X148118108Y-101471059D01*
X148122488Y-101468827D01*
X148122489Y-101468827D01*
X148220276Y-101419001D01*
X148224655Y-101416770D01*
X148309211Y-101332214D01*
X148329895Y-101291619D01*
X149119296Y-101291619D01*
X149138002Y-101409727D01*
X149140234Y-101414107D01*
X149140234Y-101414108D01*
X149142727Y-101419001D01*
X149192291Y-101516274D01*
X149244789Y-101568772D01*
X149263095Y-101612966D01*
X149244790Y-101657158D01*
X149208696Y-101693252D01*
X149154407Y-101799799D01*
X149135701Y-101917907D01*
X149154407Y-102036015D01*
X149156639Y-102040395D01*
X149156639Y-102040396D01*
X149161944Y-102050808D01*
X149208696Y-102142562D01*
X149293252Y-102227118D01*
X149316409Y-102238917D01*
X149395418Y-102279175D01*
X149395419Y-102279175D01*
X149399799Y-102281407D01*
X149433522Y-102286748D01*
X149489353Y-102295591D01*
X149530140Y-102320585D01*
X149541307Y-102367099D01*
X149539016Y-102376637D01*
X149538732Y-102377511D01*
X149536500Y-102381892D01*
X149517794Y-102500000D01*
X149536500Y-102618108D01*
X149538732Y-102622488D01*
X149538732Y-102622489D01*
X149562243Y-102668631D01*
X149590789Y-102724655D01*
X149675345Y-102809211D01*
X149679724Y-102811442D01*
X149777511Y-102861268D01*
X149777512Y-102861268D01*
X149781892Y-102863500D01*
X149900000Y-102882206D01*
X150018108Y-102863500D01*
X150022488Y-102861268D01*
X150022489Y-102861268D01*
X150120276Y-102811442D01*
X150124655Y-102809211D01*
X150209211Y-102724655D01*
X150237757Y-102668631D01*
X150261268Y-102622489D01*
X150261268Y-102622488D01*
X150263500Y-102618108D01*
X150273435Y-102555379D01*
X151617794Y-102555379D01*
X151636500Y-102673487D01*
X151690789Y-102780034D01*
X151775345Y-102864590D01*
X151779724Y-102866821D01*
X151877511Y-102916647D01*
X151877512Y-102916647D01*
X151881892Y-102918879D01*
X152000000Y-102937585D01*
X152118108Y-102918879D01*
X152122488Y-102916647D01*
X152122489Y-102916647D01*
X152220276Y-102866821D01*
X152224655Y-102864590D01*
X152309211Y-102780034D01*
X152363500Y-102673487D01*
X152382206Y-102555379D01*
X152363500Y-102437271D01*
X152344510Y-102400000D01*
X153117794Y-102400000D01*
X153136500Y-102518108D01*
X153138732Y-102522488D01*
X153138732Y-102522489D01*
X153164611Y-102573278D01*
X153190789Y-102624655D01*
X153275345Y-102709211D01*
X153312479Y-102728132D01*
X153377511Y-102761268D01*
X153377512Y-102761268D01*
X153381892Y-102763500D01*
X153500000Y-102782206D01*
X153618108Y-102763500D01*
X153622488Y-102761268D01*
X153622489Y-102761268D01*
X153687521Y-102728132D01*
X153724655Y-102709211D01*
X153809211Y-102624655D01*
X153835389Y-102573278D01*
X153861268Y-102522489D01*
X153861268Y-102522488D01*
X153863500Y-102518108D01*
X153882206Y-102400000D01*
X153863500Y-102281892D01*
X153858393Y-102271868D01*
X153818773Y-102194111D01*
X153809211Y-102175345D01*
X153724655Y-102090789D01*
X153627470Y-102041270D01*
X153622489Y-102038732D01*
X153622488Y-102038732D01*
X153618108Y-102036500D01*
X153500000Y-102017794D01*
X153381892Y-102036500D01*
X153377512Y-102038732D01*
X153377511Y-102038732D01*
X153372530Y-102041270D01*
X153275345Y-102090789D01*
X153190789Y-102175345D01*
X153181227Y-102194111D01*
X153141608Y-102271868D01*
X153136500Y-102281892D01*
X153117794Y-102400000D01*
X152344510Y-102400000D01*
X152342036Y-102395145D01*
X152311442Y-102335103D01*
X152309211Y-102330724D01*
X152224655Y-102246168D01*
X152122793Y-102194266D01*
X152122489Y-102194111D01*
X152122488Y-102194111D01*
X152118108Y-102191879D01*
X152000000Y-102173173D01*
X151881892Y-102191879D01*
X151877512Y-102194111D01*
X151877511Y-102194111D01*
X151877207Y-102194266D01*
X151775345Y-102246168D01*
X151690789Y-102330724D01*
X151688558Y-102335103D01*
X151657965Y-102395145D01*
X151636500Y-102437271D01*
X151617794Y-102555379D01*
X150273435Y-102555379D01*
X150282206Y-102500000D01*
X150263500Y-102381892D01*
X150260823Y-102376637D01*
X150215021Y-102286748D01*
X150209211Y-102275345D01*
X150124655Y-102190789D01*
X150036829Y-102146039D01*
X150022489Y-102138732D01*
X150022488Y-102138732D01*
X150018108Y-102136500D01*
X149980151Y-102130488D01*
X149928554Y-102122316D01*
X149887767Y-102097322D01*
X149876600Y-102050808D01*
X149878891Y-102041270D01*
X149879176Y-102040394D01*
X149881407Y-102036015D01*
X149886172Y-102005934D01*
X149899344Y-101922762D01*
X149900113Y-101917907D01*
X149881407Y-101799799D01*
X149827118Y-101693252D01*
X149774621Y-101640755D01*
X149756315Y-101596561D01*
X149774620Y-101552367D01*
X149810713Y-101516274D01*
X149860277Y-101419001D01*
X149862770Y-101414108D01*
X149862770Y-101414107D01*
X149865002Y-101409727D01*
X149883708Y-101291619D01*
X149865002Y-101173511D01*
X149827546Y-101100000D01*
X162317794Y-101100000D01*
X162336500Y-101218108D01*
X162338732Y-101222488D01*
X162338732Y-101222489D01*
X162340583Y-101226122D01*
X162390789Y-101324655D01*
X162475345Y-101409211D01*
X162494559Y-101419001D01*
X162577511Y-101461268D01*
X162577512Y-101461268D01*
X162581892Y-101463500D01*
X162700000Y-101482206D01*
X162818108Y-101463500D01*
X162822488Y-101461268D01*
X162822489Y-101461268D01*
X162905441Y-101419001D01*
X162924655Y-101409211D01*
X163009211Y-101324655D01*
X163059417Y-101226122D01*
X163061268Y-101222489D01*
X163061268Y-101222488D01*
X163063500Y-101218108D01*
X163082206Y-101100000D01*
X163063500Y-100981892D01*
X163009211Y-100875345D01*
X162924655Y-100790789D01*
X162837324Y-100746291D01*
X162822489Y-100738732D01*
X162822488Y-100738732D01*
X162818108Y-100736500D01*
X162700000Y-100717794D01*
X162581892Y-100736500D01*
X162577512Y-100738732D01*
X162577511Y-100738732D01*
X162562676Y-100746291D01*
X162475345Y-100790789D01*
X162390789Y-100875345D01*
X162336500Y-100981892D01*
X162317794Y-101100000D01*
X149827546Y-101100000D01*
X149810713Y-101066964D01*
X149726157Y-100982408D01*
X149627647Y-100932214D01*
X149623991Y-100930351D01*
X149623990Y-100930351D01*
X149619610Y-100928119D01*
X149501502Y-100909413D01*
X149383394Y-100928119D01*
X149379014Y-100930351D01*
X149379013Y-100930351D01*
X149375357Y-100932214D01*
X149276847Y-100982408D01*
X149192291Y-101066964D01*
X149138002Y-101173511D01*
X149119296Y-101291619D01*
X148329895Y-101291619D01*
X148335389Y-101280837D01*
X148361268Y-101230048D01*
X148361268Y-101230047D01*
X148363500Y-101225667D01*
X148382206Y-101107559D01*
X148363500Y-100989451D01*
X148359912Y-100982408D01*
X148311442Y-100887283D01*
X148309211Y-100882904D01*
X148224655Y-100798348D01*
X148173278Y-100772170D01*
X148122489Y-100746291D01*
X148122488Y-100746291D01*
X148118108Y-100744059D01*
X148000000Y-100725353D01*
X147881892Y-100744059D01*
X147877512Y-100746291D01*
X147877511Y-100746291D01*
X147826722Y-100772170D01*
X147775345Y-100798348D01*
X147690789Y-100882904D01*
X147688558Y-100887283D01*
X147640089Y-100982408D01*
X147636500Y-100989451D01*
X147617794Y-101107559D01*
X142900000Y-101107559D01*
X142900000Y-100707559D01*
X146372503Y-100707559D01*
X146391209Y-100825667D01*
X146445498Y-100932214D01*
X146530054Y-101016770D01*
X146534433Y-101019001D01*
X146632220Y-101068827D01*
X146632221Y-101068827D01*
X146636601Y-101071059D01*
X146754709Y-101089765D01*
X146872817Y-101071059D01*
X146877197Y-101068827D01*
X146877198Y-101068827D01*
X146974985Y-101019001D01*
X146979364Y-101016770D01*
X147063920Y-100932214D01*
X147118209Y-100825667D01*
X147136915Y-100707559D01*
X147118209Y-100589451D01*
X147063920Y-100482904D01*
X146979364Y-100398348D01*
X146927987Y-100372170D01*
X146877198Y-100346291D01*
X146877197Y-100346291D01*
X146872817Y-100344059D01*
X146754709Y-100325353D01*
X146636601Y-100344059D01*
X146632221Y-100346291D01*
X146632220Y-100346291D01*
X146581431Y-100372170D01*
X146530054Y-100398348D01*
X146445498Y-100482904D01*
X146391209Y-100589451D01*
X146372503Y-100707559D01*
X142900000Y-100707559D01*
X142900000Y-99325888D01*
X142918306Y-99281694D01*
X143137442Y-99062558D01*
X144022500Y-99062558D01*
X144029898Y-99099748D01*
X144058078Y-99141922D01*
X144100252Y-99170102D01*
X144106285Y-99171302D01*
X144106287Y-99171303D01*
X144132384Y-99176494D01*
X144137442Y-99177500D01*
X145862558Y-99177500D01*
X145867616Y-99176494D01*
X145893713Y-99171303D01*
X145893715Y-99171302D01*
X145899748Y-99170102D01*
X145941922Y-99141922D01*
X145970102Y-99099748D01*
X145977500Y-99062558D01*
X145977500Y-98514219D01*
X157872500Y-98514219D01*
X157872501Y-99785780D01*
X157883422Y-99859979D01*
X157938810Y-99972790D01*
X157942462Y-99976436D01*
X157942463Y-99976437D01*
X158024098Y-100057930D01*
X158024100Y-100057932D01*
X158027753Y-100061578D01*
X158032393Y-100063846D01*
X158106356Y-100100000D01*
X158140661Y-100116769D01*
X158145464Y-100117470D01*
X158145465Y-100117470D01*
X158167440Y-100120676D01*
X158214219Y-100127500D01*
X158997925Y-100127500D01*
X159785780Y-100127499D01*
X159859979Y-100116578D01*
X159864338Y-100114438D01*
X159968155Y-100063466D01*
X159968156Y-100063465D01*
X159972790Y-100061190D01*
X159976437Y-100057537D01*
X160057930Y-99975902D01*
X160057932Y-99975900D01*
X160061578Y-99972247D01*
X160078923Y-99936764D01*
X160114638Y-99863699D01*
X160114638Y-99863698D01*
X160116769Y-99859339D01*
X160127500Y-99785781D01*
X160127499Y-98514220D01*
X160116578Y-98440021D01*
X160114438Y-98435662D01*
X160063466Y-98331845D01*
X160063465Y-98331844D01*
X160061190Y-98327210D01*
X159994533Y-98260669D01*
X159975902Y-98242070D01*
X159975900Y-98242068D01*
X159972247Y-98238422D01*
X159936764Y-98221077D01*
X159863699Y-98185362D01*
X159863698Y-98185362D01*
X159859339Y-98183231D01*
X159854536Y-98182530D01*
X159854535Y-98182530D01*
X159832560Y-98179324D01*
X159785781Y-98172500D01*
X159002075Y-98172500D01*
X158214220Y-98172501D01*
X158140021Y-98183422D01*
X158135663Y-98185562D01*
X158135662Y-98185562D01*
X158031845Y-98236534D01*
X158031844Y-98236535D01*
X158027210Y-98238810D01*
X158023564Y-98242462D01*
X158023563Y-98242463D01*
X157942070Y-98324098D01*
X157942068Y-98324100D01*
X157938422Y-98327753D01*
X157936154Y-98332393D01*
X157885675Y-98435662D01*
X157883231Y-98440661D01*
X157872500Y-98514219D01*
X145977500Y-98514219D01*
X145977500Y-97337442D01*
X145975041Y-97325080D01*
X145971303Y-97306287D01*
X145971302Y-97306285D01*
X145970102Y-97300252D01*
X145941922Y-97258078D01*
X145899748Y-97229898D01*
X145893715Y-97228698D01*
X145893713Y-97228697D01*
X145865569Y-97223099D01*
X145862558Y-97222500D01*
X144137442Y-97222500D01*
X144134431Y-97223099D01*
X144106287Y-97228697D01*
X144106285Y-97228698D01*
X144100252Y-97229898D01*
X144058078Y-97258078D01*
X144029898Y-97300252D01*
X144028698Y-97306285D01*
X144028697Y-97306287D01*
X144024959Y-97325080D01*
X144022500Y-97337442D01*
X144022500Y-99062558D01*
X143137442Y-99062558D01*
X143800000Y-98400000D01*
X143800000Y-97200000D01*
X151217794Y-97200000D01*
X151236500Y-97318108D01*
X151238732Y-97322488D01*
X151238732Y-97322489D01*
X151264611Y-97373278D01*
X151290789Y-97424655D01*
X151375345Y-97509211D01*
X151379724Y-97511442D01*
X151477511Y-97561268D01*
X151477512Y-97561268D01*
X151481892Y-97563500D01*
X151600000Y-97582206D01*
X151718108Y-97563500D01*
X151722488Y-97561268D01*
X151722489Y-97561268D01*
X151820276Y-97511442D01*
X151824655Y-97509211D01*
X151855806Y-97478060D01*
X151900000Y-97459754D01*
X151944194Y-97478060D01*
X151975345Y-97509211D01*
X151979724Y-97511442D01*
X152077511Y-97561268D01*
X152077512Y-97561268D01*
X152081892Y-97563500D01*
X152200000Y-97582206D01*
X152318108Y-97563500D01*
X152322488Y-97561268D01*
X152322489Y-97561268D01*
X152420276Y-97511442D01*
X152424655Y-97509211D01*
X152509211Y-97424655D01*
X152535389Y-97373278D01*
X152561268Y-97322489D01*
X152561268Y-97322488D01*
X152563500Y-97318108D01*
X152582206Y-97200000D01*
X152563500Y-97081892D01*
X152509211Y-96975345D01*
X152424655Y-96890789D01*
X152347023Y-96851233D01*
X152322489Y-96838732D01*
X152322488Y-96838732D01*
X152318108Y-96836500D01*
X152200000Y-96817794D01*
X152081892Y-96836500D01*
X152077512Y-96838732D01*
X152077511Y-96838732D01*
X152052977Y-96851233D01*
X151975345Y-96890789D01*
X151944194Y-96921940D01*
X151900000Y-96940246D01*
X151855806Y-96921940D01*
X151824655Y-96890789D01*
X151747023Y-96851233D01*
X151722489Y-96838732D01*
X151722488Y-96838732D01*
X151718108Y-96836500D01*
X151600000Y-96817794D01*
X151481892Y-96836500D01*
X151477512Y-96838732D01*
X151477511Y-96838732D01*
X151452977Y-96851233D01*
X151375345Y-96890789D01*
X151290789Y-96975345D01*
X151236500Y-97081892D01*
X151217794Y-97200000D01*
X143800000Y-97200000D01*
X143800000Y-95646286D01*
X144017866Y-95646286D01*
X144025123Y-95732712D01*
X144031365Y-95807037D01*
X144033907Y-95837311D01*
X144086746Y-96021583D01*
X144174370Y-96192082D01*
X144293443Y-96342314D01*
X144295773Y-96344297D01*
X144435598Y-96463297D01*
X144439428Y-96466557D01*
X144442092Y-96468046D01*
X144442095Y-96468048D01*
X144517870Y-96510397D01*
X144606765Y-96560079D01*
X144609669Y-96561023D01*
X144609670Y-96561023D01*
X144786168Y-96618371D01*
X144786173Y-96618372D01*
X144789081Y-96619317D01*
X144979430Y-96642015D01*
X144982472Y-96641781D01*
X144982475Y-96641781D01*
X145167514Y-96627543D01*
X145167519Y-96627542D01*
X145170562Y-96627308D01*
X145199182Y-96619317D01*
X145352260Y-96576577D01*
X145352264Y-96576576D01*
X145355199Y-96575756D01*
X145526305Y-96489324D01*
X145528703Y-96487451D01*
X145528707Y-96487448D01*
X145607523Y-96425869D01*
X145677365Y-96371303D01*
X145704455Y-96339919D01*
X145768216Y-96266052D01*
X146772500Y-96266052D01*
X146787976Y-96388560D01*
X146789423Y-96392216D01*
X146789424Y-96392218D01*
X146847218Y-96538189D01*
X146848665Y-96541843D01*
X146850974Y-96545021D01*
X146850975Y-96545023D01*
X146943255Y-96672034D01*
X146945568Y-96675217D01*
X147072594Y-96780303D01*
X147076150Y-96781976D01*
X147076151Y-96781977D01*
X147152677Y-96817987D01*
X147221764Y-96850497D01*
X147225622Y-96851233D01*
X147379839Y-96880651D01*
X147379841Y-96880651D01*
X147383704Y-96881388D01*
X147387630Y-96881141D01*
X147544314Y-96871284D01*
X147544315Y-96871284D01*
X147548238Y-96871037D01*
X147551976Y-96869822D01*
X147551978Y-96869822D01*
X147701293Y-96821306D01*
X147701294Y-96821306D01*
X147705029Y-96820092D01*
X147793256Y-96764102D01*
X147840907Y-96733862D01*
X147840909Y-96733861D01*
X147844225Y-96731756D01*
X147957079Y-96611578D01*
X148036501Y-96467110D01*
X148077500Y-96307430D01*
X148077500Y-96266052D01*
X153922500Y-96266052D01*
X153937976Y-96388560D01*
X153939423Y-96392216D01*
X153939424Y-96392218D01*
X153997218Y-96538189D01*
X153998665Y-96541843D01*
X154000974Y-96545021D01*
X154000975Y-96545023D01*
X154093255Y-96672034D01*
X154095568Y-96675217D01*
X154222594Y-96780303D01*
X154226150Y-96781976D01*
X154226151Y-96781977D01*
X154302677Y-96817987D01*
X154371764Y-96850497D01*
X154375622Y-96851233D01*
X154529839Y-96880651D01*
X154529841Y-96880651D01*
X154533704Y-96881388D01*
X154537630Y-96881141D01*
X154694314Y-96871284D01*
X154694315Y-96871284D01*
X154698238Y-96871037D01*
X154701976Y-96869822D01*
X154701978Y-96869822D01*
X154851293Y-96821306D01*
X154851294Y-96821306D01*
X154855029Y-96820092D01*
X154943256Y-96764102D01*
X154990907Y-96733862D01*
X154990909Y-96733861D01*
X154994225Y-96731756D01*
X155025927Y-96697997D01*
X157868632Y-96697997D01*
X157869105Y-96701123D01*
X157869105Y-96701127D01*
X157897853Y-96891216D01*
X157898327Y-96894348D01*
X157966898Y-97080718D01*
X158071543Y-97249493D01*
X158207987Y-97393779D01*
X158295062Y-97454749D01*
X158367876Y-97505734D01*
X158370658Y-97507682D01*
X158552909Y-97586549D01*
X158556003Y-97587195D01*
X158556005Y-97587196D01*
X158658205Y-97608547D01*
X158747296Y-97627159D01*
X158753803Y-97627500D01*
X159199628Y-97627500D01*
X159201202Y-97627340D01*
X159201204Y-97627340D01*
X159223332Y-97625092D01*
X159347567Y-97612473D01*
X159350580Y-97611529D01*
X159350584Y-97611528D01*
X159534043Y-97554035D01*
X159534045Y-97554034D01*
X159537064Y-97553088D01*
X159710749Y-97456813D01*
X159861529Y-97327579D01*
X159863465Y-97325083D01*
X159863468Y-97325080D01*
X159981302Y-97173168D01*
X159983242Y-97170667D01*
X159984640Y-97167826D01*
X160069519Y-96995330D01*
X160069520Y-96995326D01*
X160070918Y-96992486D01*
X160120975Y-96800315D01*
X160131368Y-96602003D01*
X160127191Y-96574380D01*
X160102147Y-96408784D01*
X160102146Y-96408781D01*
X160101673Y-96405652D01*
X160033102Y-96219282D01*
X159928457Y-96050507D01*
X159792013Y-95906221D01*
X159629342Y-95792318D01*
X159447091Y-95713451D01*
X159443997Y-95712805D01*
X159443995Y-95712804D01*
X159330851Y-95689167D01*
X159252704Y-95672841D01*
X159246197Y-95672500D01*
X158800372Y-95672500D01*
X158798798Y-95672660D01*
X158798796Y-95672660D01*
X158792161Y-95673334D01*
X158652433Y-95687527D01*
X158649420Y-95688471D01*
X158649416Y-95688472D01*
X158465957Y-95745965D01*
X158465955Y-95745966D01*
X158462936Y-95746912D01*
X158460169Y-95748446D01*
X158299852Y-95837311D01*
X158289251Y-95843187D01*
X158138471Y-95972421D01*
X158136535Y-95974917D01*
X158136532Y-95974920D01*
X158075813Y-96053199D01*
X158016758Y-96129333D01*
X158015360Y-96132174D01*
X157931059Y-96303497D01*
X157929082Y-96307514D01*
X157879025Y-96499685D01*
X157868632Y-96697997D01*
X155025927Y-96697997D01*
X155107079Y-96611578D01*
X155186501Y-96467110D01*
X155227500Y-96307430D01*
X155227500Y-95333948D01*
X155220177Y-95275975D01*
X155212517Y-95215345D01*
X155212024Y-95211440D01*
X155187501Y-95149500D01*
X155152782Y-95061811D01*
X155152781Y-95061809D01*
X155151335Y-95058157D01*
X155098588Y-94985557D01*
X155056745Y-94927966D01*
X155056743Y-94927964D01*
X155054432Y-94924783D01*
X154927406Y-94819697D01*
X154778236Y-94749503D01*
X154772601Y-94748428D01*
X154620161Y-94719349D01*
X154620159Y-94719349D01*
X154616296Y-94718612D01*
X154612370Y-94718859D01*
X154455686Y-94728716D01*
X154455685Y-94728716D01*
X154451762Y-94728963D01*
X154448024Y-94730178D01*
X154448022Y-94730178D01*
X154368628Y-94755975D01*
X154294971Y-94779908D01*
X154228635Y-94822006D01*
X154159093Y-94866138D01*
X154159091Y-94866139D01*
X154155775Y-94868244D01*
X154042921Y-94988422D01*
X153963499Y-95132890D01*
X153922500Y-95292570D01*
X153922500Y-96266052D01*
X148077500Y-96266052D01*
X148077500Y-95333948D01*
X148070177Y-95275975D01*
X148062517Y-95215345D01*
X148062024Y-95211440D01*
X148037501Y-95149500D01*
X148002782Y-95061811D01*
X148002781Y-95061809D01*
X148001335Y-95058157D01*
X147948588Y-94985557D01*
X147906745Y-94927966D01*
X147906743Y-94927964D01*
X147904432Y-94924783D01*
X147777406Y-94819697D01*
X147628236Y-94749503D01*
X147622601Y-94748428D01*
X147470161Y-94719349D01*
X147470159Y-94719349D01*
X147466296Y-94718612D01*
X147462370Y-94718859D01*
X147305686Y-94728716D01*
X147305685Y-94728716D01*
X147301762Y-94728963D01*
X147298024Y-94730178D01*
X147298022Y-94730178D01*
X147218628Y-94755975D01*
X147144971Y-94779908D01*
X147078635Y-94822006D01*
X147009093Y-94866138D01*
X147009091Y-94866139D01*
X147005775Y-94868244D01*
X146892921Y-94988422D01*
X146813499Y-95132890D01*
X146772500Y-95292570D01*
X146772500Y-96266052D01*
X145768216Y-96266052D01*
X145800630Y-96228500D01*
X145800634Y-96228495D01*
X145802624Y-96226189D01*
X145823544Y-96189364D01*
X145895801Y-96062170D01*
X145895803Y-96062165D01*
X145897312Y-96059509D01*
X145957821Y-95877612D01*
X145962542Y-95840247D01*
X145981627Y-95689167D01*
X145981627Y-95689166D01*
X145981847Y-95687425D01*
X145982230Y-95660000D01*
X145980886Y-95646286D01*
X145963822Y-95472257D01*
X145963524Y-95469217D01*
X145943513Y-95402936D01*
X145909001Y-95288629D01*
X145908117Y-95285701D01*
X145843399Y-95163984D01*
X145819555Y-95119140D01*
X145819553Y-95119137D01*
X145818120Y-95116442D01*
X145696962Y-94967887D01*
X145549256Y-94845694D01*
X145380629Y-94754518D01*
X145264635Y-94718612D01*
X145200420Y-94698734D01*
X145200417Y-94698733D01*
X145197505Y-94697832D01*
X145194472Y-94697513D01*
X145194471Y-94697513D01*
X145146787Y-94692501D01*
X145006857Y-94677794D01*
X145003824Y-94678070D01*
X145003820Y-94678070D01*
X144921118Y-94685597D01*
X144815948Y-94695168D01*
X144632050Y-94749292D01*
X144462167Y-94838105D01*
X144312770Y-94958223D01*
X144189549Y-95105072D01*
X144097198Y-95273058D01*
X144039234Y-95455783D01*
X144017866Y-95646286D01*
X143800000Y-95646286D01*
X143800000Y-94313000D01*
X143818306Y-94268806D01*
X143862500Y-94250500D01*
X161337500Y-94250500D01*
X161381694Y-94268806D01*
G37*
G04 #@! TD.AperFunction*
G04 #@! TA.AperFunction,Conductor*
G36*
X142481694Y-100118306D02*
G01*
X142500000Y-100162500D01*
X142500000Y-108000000D01*
X144400000Y-109900000D01*
X148074112Y-109900000D01*
X148118306Y-109918306D01*
X149781694Y-111581694D01*
X149800000Y-111625888D01*
X149800000Y-113374112D01*
X149781694Y-113418306D01*
X145218306Y-117981694D01*
X145174112Y-118000000D01*
X137713000Y-118000000D01*
X137668806Y-117981694D01*
X137650500Y-117937500D01*
X137650500Y-116000000D01*
X137917794Y-116000000D01*
X137936500Y-116118108D01*
X137990789Y-116224655D01*
X138075345Y-116309211D01*
X138126722Y-116335389D01*
X138177511Y-116361268D01*
X138177512Y-116361268D01*
X138181892Y-116363500D01*
X138300000Y-116382206D01*
X138418108Y-116363500D01*
X138422488Y-116361268D01*
X138422489Y-116361268D01*
X138473278Y-116335389D01*
X138524655Y-116309211D01*
X138609211Y-116224655D01*
X138663500Y-116118108D01*
X138682206Y-116000000D01*
X138663500Y-115881892D01*
X138609211Y-115775345D01*
X138524655Y-115690789D01*
X138473278Y-115664611D01*
X138422489Y-115638732D01*
X138422488Y-115638732D01*
X138418108Y-115636500D01*
X138300000Y-115617794D01*
X138181892Y-115636500D01*
X138177512Y-115638732D01*
X138177511Y-115638732D01*
X138126722Y-115664611D01*
X138075345Y-115690789D01*
X137990789Y-115775345D01*
X137936500Y-115881892D01*
X137917794Y-116000000D01*
X137650500Y-116000000D01*
X137650500Y-113784219D01*
X139197500Y-113784219D01*
X139197501Y-115095780D01*
X139208422Y-115169979D01*
X139263810Y-115282790D01*
X139267462Y-115286436D01*
X139267463Y-115286437D01*
X139349098Y-115367930D01*
X139349100Y-115367932D01*
X139352753Y-115371578D01*
X139465661Y-115426769D01*
X139470464Y-115427470D01*
X139470465Y-115427470D01*
X139492440Y-115430676D01*
X139539219Y-115437500D01*
X140417675Y-115437500D01*
X141300780Y-115437499D01*
X141374979Y-115426578D01*
X141379338Y-115424438D01*
X141483155Y-115373466D01*
X141483156Y-115373465D01*
X141487790Y-115371190D01*
X141547434Y-115311442D01*
X141572930Y-115285902D01*
X141572932Y-115285900D01*
X141576578Y-115282247D01*
X141620115Y-115193181D01*
X141629638Y-115173699D01*
X141629638Y-115173698D01*
X141631769Y-115169339D01*
X141642500Y-115095781D01*
X141642500Y-115000000D01*
X146017794Y-115000000D01*
X146036500Y-115118108D01*
X146090789Y-115224655D01*
X146175345Y-115309211D01*
X146179724Y-115311442D01*
X146277511Y-115361268D01*
X146277512Y-115361268D01*
X146281892Y-115363500D01*
X146400000Y-115382206D01*
X146518108Y-115363500D01*
X146522488Y-115361268D01*
X146522489Y-115361268D01*
X146620276Y-115311442D01*
X146624655Y-115309211D01*
X146709211Y-115224655D01*
X146763500Y-115118108D01*
X146782206Y-115000000D01*
X146763500Y-114881892D01*
X146709211Y-114775345D01*
X146628060Y-114694194D01*
X146609754Y-114650000D01*
X146628060Y-114605806D01*
X146709211Y-114524655D01*
X146763500Y-114418108D01*
X146782206Y-114300000D01*
X146763500Y-114181892D01*
X146709211Y-114075345D01*
X146628060Y-113994194D01*
X146609754Y-113950000D01*
X146628060Y-113905806D01*
X146709211Y-113824655D01*
X146763500Y-113718108D01*
X146782206Y-113600000D01*
X146763500Y-113481892D01*
X146748634Y-113452715D01*
X146711442Y-113379724D01*
X146709211Y-113375345D01*
X146678060Y-113344194D01*
X146659754Y-113300000D01*
X146678060Y-113255806D01*
X146709211Y-113224655D01*
X146763500Y-113118108D01*
X146782206Y-113000000D01*
X146763500Y-112881892D01*
X146709211Y-112775345D01*
X146624655Y-112690789D01*
X146552844Y-112654199D01*
X146522489Y-112638732D01*
X146522488Y-112638732D01*
X146518108Y-112636500D01*
X146400000Y-112617794D01*
X146281892Y-112636500D01*
X146277512Y-112638732D01*
X146277511Y-112638732D01*
X146247156Y-112654199D01*
X146175345Y-112690789D01*
X146090789Y-112775345D01*
X146036500Y-112881892D01*
X146017794Y-113000000D01*
X146036500Y-113118108D01*
X146090789Y-113224655D01*
X146121940Y-113255806D01*
X146140246Y-113300000D01*
X146121940Y-113344194D01*
X146090789Y-113375345D01*
X146088558Y-113379724D01*
X146051367Y-113452715D01*
X146036500Y-113481892D01*
X146017794Y-113600000D01*
X146036500Y-113718108D01*
X146090789Y-113824655D01*
X146171940Y-113905806D01*
X146190246Y-113950000D01*
X146171940Y-113994194D01*
X146090789Y-114075345D01*
X146036500Y-114181892D01*
X146017794Y-114300000D01*
X146036500Y-114418108D01*
X146090789Y-114524655D01*
X146171940Y-114605806D01*
X146190246Y-114650000D01*
X146171940Y-114694194D01*
X146090789Y-114775345D01*
X146036500Y-114881892D01*
X146017794Y-115000000D01*
X141642500Y-115000000D01*
X141642499Y-113784220D01*
X141631578Y-113710021D01*
X141626992Y-113700681D01*
X141578466Y-113601845D01*
X141578465Y-113601844D01*
X141576190Y-113597210D01*
X141572537Y-113593563D01*
X141490902Y-113512070D01*
X141490900Y-113512068D01*
X141487247Y-113508422D01*
X141424010Y-113477511D01*
X141378699Y-113455362D01*
X141378698Y-113455362D01*
X141374339Y-113453231D01*
X141369536Y-113452530D01*
X141369535Y-113452530D01*
X141347560Y-113449324D01*
X141300781Y-113442500D01*
X140422325Y-113442500D01*
X139539220Y-113442501D01*
X139465021Y-113453422D01*
X139460663Y-113455562D01*
X139460662Y-113455562D01*
X139356845Y-113506534D01*
X139356844Y-113506535D01*
X139352210Y-113508810D01*
X139348564Y-113512462D01*
X139348563Y-113512463D01*
X139267070Y-113594098D01*
X139267068Y-113594100D01*
X139263422Y-113597753D01*
X139258284Y-113608264D01*
X139210675Y-113705662D01*
X139208231Y-113710661D01*
X139207530Y-113715464D01*
X139207530Y-113715465D01*
X139206505Y-113722489D01*
X139197500Y-113784219D01*
X137650500Y-113784219D01*
X137650500Y-109408979D01*
X139193553Y-109408979D01*
X139194026Y-109412105D01*
X139194026Y-109412109D01*
X139222545Y-109600681D01*
X139223856Y-109609347D01*
X139293830Y-109799530D01*
X139400616Y-109971758D01*
X139539852Y-110118997D01*
X139542443Y-110120811D01*
X139703260Y-110233417D01*
X139703264Y-110233419D01*
X139705850Y-110235230D01*
X139891831Y-110315711D01*
X139894925Y-110316357D01*
X139894927Y-110316358D01*
X139999576Y-110338220D01*
X140090195Y-110357151D01*
X140096854Y-110357500D01*
X140695641Y-110357500D01*
X140697215Y-110357340D01*
X140697217Y-110357340D01*
X140730993Y-110353909D01*
X140846610Y-110342165D01*
X140849623Y-110341221D01*
X140849627Y-110341220D01*
X141036962Y-110282513D01*
X141036964Y-110282512D01*
X141039983Y-110281566D01*
X141217223Y-110183320D01*
X141219622Y-110181264D01*
X141219626Y-110181261D01*
X141368683Y-110053504D01*
X141368686Y-110053501D01*
X141371087Y-110051443D01*
X141432897Y-109971758D01*
X141493351Y-109893820D01*
X141493352Y-109893819D01*
X141495290Y-109891320D01*
X141540457Y-109799530D01*
X141583361Y-109712338D01*
X141583362Y-109712334D01*
X141584760Y-109709494D01*
X141635841Y-109513390D01*
X141646447Y-109311021D01*
X141637854Y-109254199D01*
X141616618Y-109113785D01*
X141616617Y-109113782D01*
X141616144Y-109110653D01*
X141546170Y-108920470D01*
X141439384Y-108748242D01*
X141300148Y-108601003D01*
X141208285Y-108536680D01*
X141136740Y-108486583D01*
X141136736Y-108486581D01*
X141134150Y-108484770D01*
X140948169Y-108404289D01*
X140945075Y-108403643D01*
X140945073Y-108403642D01*
X140826063Y-108378780D01*
X140749805Y-108362849D01*
X140743146Y-108362500D01*
X140144359Y-108362500D01*
X140142785Y-108362660D01*
X140142783Y-108362660D01*
X140119847Y-108364990D01*
X139993390Y-108377835D01*
X139990377Y-108378779D01*
X139990373Y-108378780D01*
X139803038Y-108437487D01*
X139803036Y-108437488D01*
X139800017Y-108438434D01*
X139622777Y-108536680D01*
X139620378Y-108538736D01*
X139620374Y-108538739D01*
X139471317Y-108666496D01*
X139471314Y-108666499D01*
X139468913Y-108668557D01*
X139466974Y-108671057D01*
X139466971Y-108671060D01*
X139405015Y-108750934D01*
X139344710Y-108828680D01*
X139343314Y-108831517D01*
X139298083Y-108923439D01*
X139255240Y-109010506D01*
X139204159Y-109206610D01*
X139193553Y-109408979D01*
X137650500Y-109408979D01*
X137650500Y-105784219D01*
X139197500Y-105784219D01*
X139197501Y-107095780D01*
X139208422Y-107169979D01*
X139210562Y-107174337D01*
X139210562Y-107174338D01*
X139241514Y-107237378D01*
X139263810Y-107282790D01*
X139267462Y-107286436D01*
X139267463Y-107286437D01*
X139349098Y-107367930D01*
X139349100Y-107367932D01*
X139352753Y-107371578D01*
X139465661Y-107426769D01*
X139470464Y-107427470D01*
X139470465Y-107427470D01*
X139492440Y-107430676D01*
X139539219Y-107437500D01*
X140417675Y-107437500D01*
X141300780Y-107437499D01*
X141374979Y-107426578D01*
X141415223Y-107406819D01*
X141483155Y-107373466D01*
X141483156Y-107373465D01*
X141487790Y-107371190D01*
X141491437Y-107367537D01*
X141572930Y-107285902D01*
X141572932Y-107285900D01*
X141576578Y-107282247D01*
X141620246Y-107192913D01*
X141629638Y-107173699D01*
X141629638Y-107173698D01*
X141631769Y-107169339D01*
X141642500Y-107095781D01*
X141642499Y-105784220D01*
X141631578Y-105710021D01*
X141609784Y-105665632D01*
X141578466Y-105601845D01*
X141578465Y-105601844D01*
X141576190Y-105597210D01*
X141572537Y-105593563D01*
X141490902Y-105512070D01*
X141490900Y-105512068D01*
X141487247Y-105508422D01*
X141374339Y-105453231D01*
X141369536Y-105452530D01*
X141369535Y-105452530D01*
X141347560Y-105449324D01*
X141300781Y-105442500D01*
X140422325Y-105442500D01*
X139539220Y-105442501D01*
X139465021Y-105453422D01*
X139460663Y-105455562D01*
X139460662Y-105455562D01*
X139356845Y-105506534D01*
X139356844Y-105506535D01*
X139352210Y-105508810D01*
X139348564Y-105512462D01*
X139348563Y-105512463D01*
X139267070Y-105594098D01*
X139267068Y-105594100D01*
X139263422Y-105597753D01*
X139261154Y-105602393D01*
X139210675Y-105705662D01*
X139208231Y-105710661D01*
X139197500Y-105784219D01*
X137650500Y-105784219D01*
X137650500Y-101408979D01*
X139193553Y-101408979D01*
X139194026Y-101412105D01*
X139194026Y-101412109D01*
X139223382Y-101606215D01*
X139223856Y-101609347D01*
X139293830Y-101799530D01*
X139400616Y-101971758D01*
X139539852Y-102118997D01*
X139542443Y-102120811D01*
X139703260Y-102233417D01*
X139703264Y-102233419D01*
X139705850Y-102235230D01*
X139891831Y-102315711D01*
X139894925Y-102316357D01*
X139894927Y-102316358D01*
X139999576Y-102338220D01*
X140090195Y-102357151D01*
X140096854Y-102357500D01*
X140695641Y-102357500D01*
X140697215Y-102357340D01*
X140697217Y-102357340D01*
X140723226Y-102354698D01*
X140846610Y-102342165D01*
X140849623Y-102341221D01*
X140849627Y-102341220D01*
X141036962Y-102282513D01*
X141036964Y-102282512D01*
X141039983Y-102281566D01*
X141217223Y-102183320D01*
X141219622Y-102181264D01*
X141219626Y-102181261D01*
X141368683Y-102053504D01*
X141368686Y-102053501D01*
X141371087Y-102051443D01*
X141432897Y-101971758D01*
X141493351Y-101893820D01*
X141493352Y-101893819D01*
X141495290Y-101891320D01*
X141540457Y-101799530D01*
X141583361Y-101712338D01*
X141583362Y-101712334D01*
X141584760Y-101709494D01*
X141635841Y-101513390D01*
X141646447Y-101311021D01*
X141644884Y-101300681D01*
X141616618Y-101113785D01*
X141616617Y-101113782D01*
X141616144Y-101110653D01*
X141612225Y-101100000D01*
X141579297Y-101010506D01*
X141546170Y-100920470D01*
X141439384Y-100748242D01*
X141300148Y-100601003D01*
X141208285Y-100536680D01*
X141136740Y-100486583D01*
X141136736Y-100486581D01*
X141134150Y-100484770D01*
X140948169Y-100404289D01*
X140945075Y-100403643D01*
X140945073Y-100403642D01*
X140826063Y-100378780D01*
X140749805Y-100362849D01*
X140743146Y-100362500D01*
X140144359Y-100362500D01*
X140142785Y-100362660D01*
X140142783Y-100362660D01*
X140119847Y-100364990D01*
X139993390Y-100377835D01*
X139990377Y-100378779D01*
X139990373Y-100378780D01*
X139803038Y-100437487D01*
X139803036Y-100437488D01*
X139800017Y-100438434D01*
X139622777Y-100536680D01*
X139620378Y-100538736D01*
X139620374Y-100538739D01*
X139471317Y-100666496D01*
X139471314Y-100666499D01*
X139468913Y-100668557D01*
X139466974Y-100671057D01*
X139466971Y-100671060D01*
X139405015Y-100750934D01*
X139344710Y-100828680D01*
X139343314Y-100831517D01*
X139282947Y-100954199D01*
X139255240Y-101010506D01*
X139204159Y-101206610D01*
X139193553Y-101408979D01*
X137650500Y-101408979D01*
X137650500Y-100162500D01*
X137668806Y-100118306D01*
X137713000Y-100100000D01*
X142437500Y-100100000D01*
X142481694Y-100118306D01*
G37*
G04 #@! TD.AperFunction*
M02*
