G04 #@! TF.GenerationSoftware,KiCad,Pcbnew,(6.0.7)*
G04 #@! TF.CreationDate,2022-10-27T11:50:25+02:00*
G04 #@! TF.ProjectId,pumpCon,70756d70-436f-46e2-9e6b-696361645f70,rev?*
G04 #@! TF.SameCoordinates,Original*
G04 #@! TF.FileFunction,Legend,Bot*
G04 #@! TF.FilePolarity,Positive*
%FSLAX46Y46*%
G04 Gerber Fmt 4.6, Leading zero omitted, Abs format (unit mm)*
G04 Created by KiCad (PCBNEW (6.0.7)) date 2022-10-27 11:50:25*
%MOMM*%
%LPD*%
G01*
G04 APERTURE LIST*
G04 Aperture macros list*
%AMRoundRect*
0 Rectangle with rounded corners*
0 $1 Rounding radius*
0 $2 $3 $4 $5 $6 $7 $8 $9 X,Y pos of 4 corners*
0 Add a 4 corners polygon primitive as box body*
4,1,4,$2,$3,$4,$5,$6,$7,$8,$9,$2,$3,0*
0 Add four circle primitives for the rounded corners*
1,1,$1+$1,$2,$3*
1,1,$1+$1,$4,$5*
1,1,$1+$1,$6,$7*
1,1,$1+$1,$8,$9*
0 Add four rect primitives between the rounded corners*
20,1,$1+$1,$2,$3,$4,$5,0*
20,1,$1+$1,$4,$5,$6,$7,0*
20,1,$1+$1,$6,$7,$8,$9,0*
20,1,$1+$1,$8,$9,$2,$3,0*%
%AMFreePoly0*
4,1,32,-0.330865,0.346194,-0.295510,0.331549,-0.268451,0.304490,-0.253806,0.269135,-0.250000,0.250000,-0.250000,0.150000,0.450000,0.150000,0.469135,0.146194,0.504490,0.131549,0.531549,0.104490,0.546194,0.069135,0.550000,0.050000,0.550000,-0.050000,0.546194,-0.069135,0.531549,-0.104490,0.504490,-0.131549,0.469135,-0.146194,0.450000,-0.150000,-0.450000,-0.150000,-0.469135,-0.146194,
-0.504490,-0.131549,-0.531549,-0.104490,-0.546194,-0.069135,-0.550000,-0.050000,-0.550000,0.250000,-0.546194,0.269135,-0.531549,0.304490,-0.504490,0.331549,-0.469135,0.346194,-0.450000,0.350000,-0.350000,0.350000,-0.330865,0.346194,-0.330865,0.346194,$1*%
G04 Aperture macros list end*
%ADD10C,0.150000*%
%ADD11C,0.120000*%
%ADD12O,1.150000X2.000000*%
%ADD13RoundRect,0.300000X0.620000X0.845000X-0.620000X0.845000X-0.620000X-0.845000X0.620000X-0.845000X0*%
%ADD14O,1.840000X2.290000*%
%ADD15RoundRect,0.300000X-0.600000X-0.725000X0.600000X-0.725000X0.600000X0.725000X-0.600000X0.725000X0*%
%ADD16O,1.800000X2.050000*%
%ADD17RoundRect,0.050000X-0.850000X0.850000X-0.850000X-0.850000X0.850000X-0.850000X0.850000X0.850000X0*%
%ADD18O,1.800000X1.800000*%
%ADD19RoundRect,0.300000X0.725000X-0.600000X0.725000X0.600000X-0.725000X0.600000X-0.725000X-0.600000X0*%
%ADD20O,2.050000X1.800000*%
%ADD21RoundRect,0.050000X0.850000X0.850000X-0.850000X0.850000X-0.850000X-0.850000X0.850000X-0.850000X0*%
%ADD22RoundRect,0.300000X0.750000X-0.600000X0.750000X0.600000X-0.750000X0.600000X-0.750000X-0.600000X0*%
%ADD23O,2.100000X1.800000*%
%ADD24RoundRect,0.300000X-0.845000X0.620000X-0.845000X-0.620000X0.845000X-0.620000X0.845000X0.620000X0*%
%ADD25O,2.290000X1.840000*%
%ADD26C,3.300000*%
%ADD27RoundRect,0.050000X-0.800000X-0.800000X0.800000X-0.800000X0.800000X0.800000X-0.800000X0.800000X0*%
%ADD28C,1.700000*%
%ADD29RoundRect,0.050000X-0.800000X0.800000X-0.800000X-0.800000X0.800000X-0.800000X0.800000X0.800000X0*%
%ADD30RoundRect,0.275000X-0.250000X0.225000X-0.250000X-0.225000X0.250000X-0.225000X0.250000X0.225000X0*%
%ADD31RoundRect,0.250000X-0.200000X-0.275000X0.200000X-0.275000X0.200000X0.275000X-0.200000X0.275000X0*%
%ADD32RoundRect,0.200000X0.512500X0.150000X-0.512500X0.150000X-0.512500X-0.150000X0.512500X-0.150000X0*%
%ADD33RoundRect,0.300000X0.325000X0.650000X-0.325000X0.650000X-0.325000X-0.650000X0.325000X-0.650000X0*%
%ADD34RoundRect,0.275000X0.225000X0.250000X-0.225000X0.250000X-0.225000X-0.250000X0.225000X-0.250000X0*%
%ADD35RoundRect,0.275000X-0.225000X-0.250000X0.225000X-0.250000X0.225000X0.250000X-0.225000X0.250000X0*%
%ADD36RoundRect,0.050000X1.350000X-0.400000X1.350000X0.400000X-1.350000X0.400000X-1.350000X-0.400000X0*%
%ADD37RoundRect,0.250000X0.200000X0.275000X-0.200000X0.275000X-0.200000X-0.275000X0.200000X-0.275000X0*%
%ADD38RoundRect,0.275000X0.250000X-0.225000X0.250000X0.225000X-0.250000X0.225000X-0.250000X-0.225000X0*%
%ADD39RoundRect,0.250000X-0.275000X0.200000X-0.275000X-0.200000X0.275000X-0.200000X0.275000X0.200000X0*%
%ADD40RoundRect,0.250000X0.275000X-0.200000X0.275000X0.200000X-0.275000X0.200000X-0.275000X-0.200000X0*%
%ADD41RoundRect,0.250000X0.200000X0.525000X-0.200000X0.525000X-0.200000X-0.525000X0.200000X-0.525000X0*%
%ADD42RoundRect,0.125000X0.225000X0.075000X-0.225000X0.075000X-0.225000X-0.075000X0.225000X-0.075000X0*%
%ADD43RoundRect,0.125000X0.075000X0.787500X-0.075000X0.787500X-0.075000X-0.787500X0.075000X-0.787500X0*%
%ADD44RoundRect,0.300000X-1.100000X0.325000X-1.100000X-0.325000X1.100000X-0.325000X1.100000X0.325000X0*%
%ADD45RoundRect,0.100000X-0.050000X0.300000X-0.050000X-0.300000X0.050000X-0.300000X0.050000X0.300000X0*%
%ADD46RoundRect,0.100000X-0.050000X0.250000X-0.050000X-0.250000X0.050000X-0.250000X0.050000X0.250000X0*%
%ADD47FreePoly0,270.000000*%
%ADD48RoundRect,0.150000X-0.637500X-0.100000X0.637500X-0.100000X0.637500X0.100000X-0.637500X0.100000X0*%
%ADD49RoundRect,0.050000X0.250000X0.125000X-0.250000X0.125000X-0.250000X-0.125000X0.250000X-0.125000X0*%
%ADD50RoundRect,0.050000X0.450000X0.800000X-0.450000X0.800000X-0.450000X-0.800000X0.450000X-0.800000X0*%
%ADD51RoundRect,0.300000X-0.325000X-1.100000X0.325000X-1.100000X0.325000X1.100000X-0.325000X1.100000X0*%
%ADD52RoundRect,0.300000X0.325000X1.100000X-0.325000X1.100000X-0.325000X-1.100000X0.325000X-1.100000X0*%
%ADD53RoundRect,0.268750X0.218750X0.256250X-0.218750X0.256250X-0.218750X-0.256250X0.218750X-0.256250X0*%
%ADD54RoundRect,0.300000X1.100000X-0.325000X1.100000X0.325000X-1.100000X0.325000X-1.100000X-0.325000X0*%
%ADD55RoundRect,0.050000X0.575000X0.500000X-0.575000X0.500000X-0.575000X-0.500000X0.575000X-0.500000X0*%
%ADD56RoundRect,0.050000X0.375000X0.150000X-0.375000X0.150000X-0.375000X-0.150000X0.375000X-0.150000X0*%
%ADD57RoundRect,0.050000X0.150000X0.850000X-0.150000X0.850000X-0.150000X-0.850000X0.150000X-0.850000X0*%
%ADD58RoundRect,0.050000X-2.000000X0.750000X-2.000000X-0.750000X2.000000X-0.750000X2.000000X0.750000X0*%
G04 APERTURE END LIST*
D10*
X92647380Y-89261904D02*
X91647380Y-89261904D01*
X91647380Y-89642857D01*
X91695000Y-89738095D01*
X91742619Y-89785714D01*
X91837857Y-89833333D01*
X91980714Y-89833333D01*
X92075952Y-89785714D01*
X92123571Y-89738095D01*
X92171190Y-89642857D01*
X92171190Y-89261904D01*
X91980714Y-90690476D02*
X92647380Y-90690476D01*
X91980714Y-90261904D02*
X92504523Y-90261904D01*
X92599761Y-90309523D01*
X92647380Y-90404761D01*
X92647380Y-90547619D01*
X92599761Y-90642857D01*
X92552142Y-90690476D01*
X92647380Y-91166666D02*
X91980714Y-91166666D01*
X92075952Y-91166666D02*
X92028333Y-91214285D01*
X91980714Y-91309523D01*
X91980714Y-91452380D01*
X92028333Y-91547619D01*
X92123571Y-91595238D01*
X92647380Y-91595238D01*
X92123571Y-91595238D02*
X92028333Y-91642857D01*
X91980714Y-91738095D01*
X91980714Y-91880952D01*
X92028333Y-91976190D01*
X92123571Y-92023809D01*
X92647380Y-92023809D01*
X91980714Y-92500000D02*
X92980714Y-92500000D01*
X92028333Y-92500000D02*
X91980714Y-92595238D01*
X91980714Y-92785714D01*
X92028333Y-92880952D01*
X92075952Y-92928571D01*
X92171190Y-92976190D01*
X92456904Y-92976190D01*
X92552142Y-92928571D01*
X92599761Y-92880952D01*
X92647380Y-92785714D01*
X92647380Y-92595238D01*
X92599761Y-92500000D01*
X92552142Y-93976190D02*
X92599761Y-93928571D01*
X92647380Y-93785714D01*
X92647380Y-93690476D01*
X92599761Y-93547619D01*
X92504523Y-93452380D01*
X92409285Y-93404761D01*
X92218809Y-93357142D01*
X92075952Y-93357142D01*
X91885476Y-93404761D01*
X91790238Y-93452380D01*
X91695000Y-93547619D01*
X91647380Y-93690476D01*
X91647380Y-93785714D01*
X91695000Y-93928571D01*
X91742619Y-93976190D01*
X92647380Y-94547619D02*
X92599761Y-94452380D01*
X92552142Y-94404761D01*
X92456904Y-94357142D01*
X92171190Y-94357142D01*
X92075952Y-94404761D01*
X92028333Y-94452380D01*
X91980714Y-94547619D01*
X91980714Y-94690476D01*
X92028333Y-94785714D01*
X92075952Y-94833333D01*
X92171190Y-94880952D01*
X92456904Y-94880952D01*
X92552142Y-94833333D01*
X92599761Y-94785714D01*
X92647380Y-94690476D01*
X92647380Y-94547619D01*
X91980714Y-95309523D02*
X92647380Y-95309523D01*
X92075952Y-95309523D02*
X92028333Y-95357142D01*
X91980714Y-95452380D01*
X91980714Y-95595238D01*
X92028333Y-95690476D01*
X92123571Y-95738095D01*
X92647380Y-95738095D01*
X93257380Y-90976190D02*
X94257380Y-91309523D01*
X93257380Y-91642857D01*
X94257380Y-92499999D02*
X94257380Y-91928571D01*
X94257380Y-92214285D02*
X93257380Y-92214285D01*
X93400238Y-92119047D01*
X93495476Y-92023809D01*
X93543095Y-91928571D01*
X94162142Y-92928571D02*
X94209761Y-92976190D01*
X94257380Y-92928571D01*
X94209761Y-92880952D01*
X94162142Y-92928571D01*
X94257380Y-92928571D01*
X93257380Y-93595238D02*
X93257380Y-93690476D01*
X93305000Y-93785714D01*
X93352619Y-93833333D01*
X93447857Y-93880952D01*
X93638333Y-93928571D01*
X93876428Y-93928571D01*
X94066904Y-93880952D01*
X94162142Y-93833333D01*
X94209761Y-93785714D01*
X94257380Y-93690476D01*
X94257380Y-93595238D01*
X94209761Y-93499999D01*
X94162142Y-93452380D01*
X94066904Y-93404761D01*
X93876428Y-93357142D01*
X93638333Y-93357142D01*
X93447857Y-93404761D01*
X93352619Y-93452380D01*
X93305000Y-93499999D01*
X93257380Y-93595238D01*
D11*
X80710000Y-104759420D02*
X80710000Y-105040580D01*
X79690000Y-104759420D02*
X79690000Y-105040580D01*
X98162742Y-101977500D02*
X98637258Y-101977500D01*
X98162742Y-103022500D02*
X98637258Y-103022500D01*
X92950000Y-97640000D02*
X94750000Y-97640000D01*
X92950000Y-100760000D02*
X92150000Y-100760000D01*
X92950000Y-100760000D02*
X93750000Y-100760000D01*
X92950000Y-97640000D02*
X92150000Y-97640000D01*
X64387742Y-100272500D02*
X64862258Y-100272500D01*
X64387742Y-99227500D02*
X64862258Y-99227500D01*
X99061252Y-94090000D02*
X97638748Y-94090000D01*
X99061252Y-95910000D02*
X97638748Y-95910000D01*
X95090000Y-71109420D02*
X95090000Y-71390580D01*
X96110000Y-71109420D02*
X96110000Y-71390580D01*
X64290580Y-85040000D02*
X64009420Y-85040000D01*
X64290580Y-86060000D02*
X64009420Y-86060000D01*
X103412742Y-101522500D02*
X103887258Y-101522500D01*
X103412742Y-100477500D02*
X103887258Y-100477500D01*
X84709420Y-106390000D02*
X84990580Y-106390000D01*
X84709420Y-107410000D02*
X84990580Y-107410000D01*
X97709420Y-99490000D02*
X97990580Y-99490000D01*
X97709420Y-100510000D02*
X97990580Y-100510000D01*
X99200000Y-99250000D02*
X99200000Y-96250000D01*
X96000000Y-99250000D02*
X96000000Y-96250000D01*
X96865000Y-80709420D02*
X96865000Y-80990580D01*
X95845000Y-80709420D02*
X95845000Y-80990580D01*
X64337258Y-74572500D02*
X63862742Y-74572500D01*
X64337258Y-73527500D02*
X63862742Y-73527500D01*
X83809420Y-102960000D02*
X84090580Y-102960000D01*
X83809420Y-101940000D02*
X84090580Y-101940000D01*
X78090000Y-107840580D02*
X78090000Y-107559420D01*
X79110000Y-107840580D02*
X79110000Y-107559420D01*
X105500000Y-100000000D02*
X105500000Y-97000000D01*
X102300000Y-100000000D02*
X102300000Y-97000000D01*
X102160000Y-101890580D02*
X102160000Y-101609420D01*
X101140000Y-101890580D02*
X101140000Y-101609420D01*
X64177500Y-82012742D02*
X64177500Y-82487258D01*
X65222500Y-82012742D02*
X65222500Y-82487258D01*
X96177500Y-71062742D02*
X96177500Y-71537258D01*
X97222500Y-71062742D02*
X97222500Y-71537258D01*
X89722500Y-99437258D02*
X89722500Y-98962742D01*
X88677500Y-99437258D02*
X88677500Y-98962742D01*
X78290000Y-104809420D02*
X78290000Y-105090580D01*
X79310000Y-104809420D02*
X79310000Y-105090580D01*
X101650000Y-100250000D02*
X99650000Y-100250000D01*
X101650000Y-97250000D02*
X100950000Y-97250000D01*
X99650000Y-97250000D02*
X100350000Y-97250000D01*
X101700000Y-97000000D02*
G75*
G03*
X101700000Y-97000000I-50000J0D01*
G01*
X80140580Y-100790000D02*
X79859420Y-100790000D01*
X80140580Y-101810000D02*
X79859420Y-101810000D01*
X108460000Y-97538748D02*
X108460000Y-98961252D01*
X105740000Y-97538748D02*
X105740000Y-98961252D01*
X81310000Y-108640580D02*
X81310000Y-108359420D01*
X80290000Y-108640580D02*
X80290000Y-108359420D01*
X71850000Y-101200000D02*
X71850000Y-102700000D01*
X71325000Y-101200000D02*
X71075000Y-101200000D01*
X69850000Y-101200000D02*
X69850000Y-102700000D01*
X71325000Y-102700000D02*
X70850000Y-102700000D01*
X69650000Y-101450000D02*
G75*
G03*
X69650000Y-101450000I-50000J0D01*
G01*
X68712742Y-106827500D02*
X69187258Y-106827500D01*
X68712742Y-107872500D02*
X69187258Y-107872500D01*
X86200000Y-67285000D02*
X82600000Y-67285000D01*
X86200000Y-61815000D02*
X84000000Y-61815000D01*
X86200000Y-61815000D02*
X88400000Y-61815000D01*
X86200000Y-67285000D02*
X88400000Y-67285000D01*
X86250000Y-88815000D02*
X84050000Y-88815000D01*
X86250000Y-94285000D02*
X82650000Y-94285000D01*
X86250000Y-88815000D02*
X88450000Y-88815000D01*
X86250000Y-94285000D02*
X88450000Y-94285000D01*
X98590580Y-100740000D02*
X98309420Y-100740000D01*
X98590580Y-101760000D02*
X98309420Y-101760000D01*
X88490580Y-85090000D02*
X88209420Y-85090000D01*
X88490580Y-86110000D02*
X88209420Y-86110000D01*
X64387258Y-87272500D02*
X63912742Y-87272500D01*
X64387258Y-86227500D02*
X63912742Y-86227500D01*
X81437258Y-103022500D02*
X80962742Y-103022500D01*
X81437258Y-101977500D02*
X80962742Y-101977500D01*
X99061252Y-92090000D02*
X97638748Y-92090000D01*
X99061252Y-93910000D02*
X97638748Y-93910000D01*
X69610000Y-101590580D02*
X69610000Y-101309420D01*
X68590000Y-101590580D02*
X68590000Y-101309420D01*
X96550000Y-77130000D02*
X94550000Y-77130000D01*
X94550000Y-79370000D02*
X95550000Y-79370000D01*
X103509420Y-101740000D02*
X103790580Y-101740000D01*
X103509420Y-102760000D02*
X103790580Y-102760000D01*
X78010000Y-107840580D02*
X78010000Y-107559420D01*
X76990000Y-107840580D02*
X76990000Y-107559420D01*
X84190000Y-105040580D02*
X84190000Y-104759420D01*
X85210000Y-105040580D02*
X85210000Y-104759420D01*
X100922500Y-101512742D02*
X100922500Y-101987258D01*
X99877500Y-101512742D02*
X99877500Y-101987258D01*
X90960000Y-99059420D02*
X90960000Y-99340580D01*
X89940000Y-99059420D02*
X89940000Y-99340580D01*
X82410000Y-108640580D02*
X82410000Y-108359420D01*
X81390000Y-108640580D02*
X81390000Y-108359420D01*
X100827500Y-90262742D02*
X100827500Y-90737258D01*
X101872500Y-90262742D02*
X101872500Y-90737258D01*
X87710000Y-105734420D02*
X87710000Y-106015580D01*
X86690000Y-105734420D02*
X86690000Y-106015580D01*
X69227500Y-109012742D02*
X69227500Y-109487258D01*
X70272500Y-109012742D02*
X70272500Y-109487258D01*
X101938748Y-93890000D02*
X103361252Y-93890000D01*
X101938748Y-96610000D02*
X103361252Y-96610000D01*
X93611252Y-69990000D02*
X92188748Y-69990000D01*
X93611252Y-72710000D02*
X92188748Y-72710000D01*
X92937258Y-100927500D02*
X92462742Y-100927500D01*
X92937258Y-101972500D02*
X92462742Y-101972500D01*
X88390580Y-95360000D02*
X88109420Y-95360000D01*
X88390580Y-94340000D02*
X88109420Y-94340000D01*
X71561252Y-105810000D02*
X70138748Y-105810000D01*
X71561252Y-103090000D02*
X70138748Y-103090000D01*
X63127500Y-71737258D02*
X63127500Y-71262742D01*
X64172500Y-71737258D02*
X64172500Y-71262742D01*
X102040000Y-90683748D02*
X102040000Y-92106252D01*
X104760000Y-90683748D02*
X104760000Y-92106252D01*
X77862779Y-109090000D02*
X77537221Y-109090000D01*
X77862779Y-110110000D02*
X77537221Y-110110000D01*
X76210000Y-103861252D02*
X76210000Y-102438748D01*
X73490000Y-103861252D02*
X73490000Y-102438748D01*
X92059420Y-97460000D02*
X92340580Y-97460000D01*
X92059420Y-96440000D02*
X92340580Y-96440000D01*
X64240580Y-74740000D02*
X63959420Y-74740000D01*
X64240580Y-75760000D02*
X63959420Y-75760000D01*
X73110000Y-101840580D02*
X73110000Y-101559420D01*
X72090000Y-101840580D02*
X72090000Y-101559420D01*
X84100000Y-106300000D02*
X80800000Y-106300000D01*
X84100000Y-103500000D02*
X84100000Y-106300000D01*
X86250000Y-70815000D02*
X88450000Y-70815000D01*
X86250000Y-70815000D02*
X84050000Y-70815000D01*
X86250000Y-76285000D02*
X88450000Y-76285000D01*
X86250000Y-76285000D02*
X82650000Y-76285000D01*
X87110000Y-103440580D02*
X87110000Y-103159420D01*
X86090000Y-103440580D02*
X86090000Y-103159420D01*
X79190000Y-107840580D02*
X79190000Y-107559420D01*
X80210000Y-107840580D02*
X80210000Y-107559420D01*
X95920000Y-67480000D02*
X93920000Y-67480000D01*
X93920000Y-69720000D02*
X94920000Y-69720000D01*
X86250000Y-84985000D02*
X88450000Y-84985000D01*
X86250000Y-84985000D02*
X82650000Y-84985000D01*
X86250000Y-79515000D02*
X84050000Y-79515000D01*
X86250000Y-79515000D02*
X88450000Y-79515000D01*
X96927500Y-80612742D02*
X96927500Y-81087258D01*
X97972500Y-80612742D02*
X97972500Y-81087258D01*
X94241252Y-79640000D02*
X92818748Y-79640000D01*
X94241252Y-82360000D02*
X92818748Y-82360000D01*
X83510000Y-108640580D02*
X83510000Y-108359420D01*
X82490000Y-108640580D02*
X82490000Y-108359420D01*
X99577500Y-90262742D02*
X99577500Y-90737258D01*
X100622500Y-90262742D02*
X100622500Y-90737258D01*
D10*
X85750000Y-107475000D02*
X84250000Y-107475000D01*
X87250000Y-109725000D02*
X84250000Y-109725000D01*
D11*
X65272500Y-71262742D02*
X65272500Y-71737258D01*
X64227500Y-71262742D02*
X64227500Y-71737258D01*
X63077500Y-82487258D02*
X63077500Y-82012742D01*
X64122500Y-82487258D02*
X64122500Y-82012742D01*
X68400000Y-100500000D02*
X68400000Y-105600000D01*
X63300000Y-100500000D02*
X63300000Y-105600000D01*
X88640580Y-68310000D02*
X88359420Y-68310000D01*
X88640580Y-67290000D02*
X88359420Y-67290000D01*
X87690580Y-77410000D02*
X87409420Y-77410000D01*
X87690580Y-76390000D02*
X87409420Y-76390000D01*
%LPC*%
D12*
X72825000Y-110050000D03*
X65675000Y-110050000D03*
D13*
X101770000Y-64680000D03*
D14*
X99230000Y-64680000D03*
D15*
X67800000Y-77000000D03*
D16*
X70300000Y-77000000D03*
X72800000Y-77000000D03*
X75300000Y-77000000D03*
X77800000Y-77000000D03*
D15*
X67800000Y-81500000D03*
D16*
X70300000Y-81500000D03*
X72800000Y-81500000D03*
X75300000Y-81500000D03*
X77800000Y-81500000D03*
D17*
X86475000Y-99800000D03*
D18*
X83935000Y-99800000D03*
X81395000Y-99800000D03*
D19*
X60800000Y-86100000D03*
D20*
X60800000Y-83600000D03*
X60800000Y-81100000D03*
D21*
X89175000Y-109850000D03*
D18*
X89175000Y-107310000D03*
D15*
X67800000Y-90500000D03*
D16*
X70300000Y-90500000D03*
X72800000Y-90500000D03*
X75300000Y-90500000D03*
X77800000Y-90500000D03*
D22*
X60800000Y-94200000D03*
D23*
X60800000Y-91700000D03*
D13*
X101720000Y-76230000D03*
D14*
X99180000Y-76230000D03*
D15*
X67800000Y-86000000D03*
D16*
X70300000Y-86000000D03*
X72800000Y-86000000D03*
X75300000Y-86000000D03*
X77800000Y-86000000D03*
D24*
X93580000Y-104960000D03*
D25*
X93580000Y-107500000D03*
X93580000Y-110040000D03*
D26*
X106000000Y-64500000D03*
D15*
X67800000Y-63500000D03*
D16*
X70300000Y-63500000D03*
X72800000Y-63500000D03*
X75300000Y-63500000D03*
X77800000Y-63500000D03*
D15*
X67800000Y-68000000D03*
D16*
X70300000Y-68000000D03*
X72800000Y-68000000D03*
X75300000Y-68000000D03*
X77800000Y-68000000D03*
D27*
X99950000Y-86500000D03*
D28*
X102450000Y-86500000D03*
D26*
X62000000Y-108500000D03*
D29*
X105700000Y-80217621D03*
D28*
X105700000Y-82717621D03*
D22*
X60800000Y-102350000D03*
D23*
X60800000Y-99850000D03*
D15*
X67800000Y-95000000D03*
D16*
X70300000Y-95000000D03*
X72800000Y-95000000D03*
X75300000Y-95000000D03*
X77800000Y-95000000D03*
D29*
X105650000Y-69517621D03*
D28*
X105650000Y-72017621D03*
D19*
X60800000Y-75350000D03*
D20*
X60800000Y-72850000D03*
X60800000Y-70350000D03*
D15*
X67800000Y-72500000D03*
D16*
X70300000Y-72500000D03*
X72800000Y-72500000D03*
X75300000Y-72500000D03*
X77800000Y-72500000D03*
D26*
X106000000Y-108500000D03*
X62000000Y-64500000D03*
D24*
X99780000Y-104960000D03*
D25*
X99780000Y-107500000D03*
X99780000Y-110040000D03*
D30*
X80200000Y-104125000D03*
X80200000Y-105675000D03*
D31*
X97575000Y-102500000D03*
X99225000Y-102500000D03*
D32*
X94087500Y-98250000D03*
X94087500Y-99200000D03*
X94087500Y-100150000D03*
X91812500Y-100150000D03*
X91812500Y-98250000D03*
D31*
X63800000Y-99750000D03*
X65450000Y-99750000D03*
D33*
X99825000Y-95000000D03*
X96875000Y-95000000D03*
D30*
X95600000Y-70475000D03*
X95600000Y-72025000D03*
D34*
X64925000Y-85550000D03*
X63375000Y-85550000D03*
D31*
X102825000Y-101000000D03*
X104475000Y-101000000D03*
D35*
X84075000Y-106900000D03*
X85625000Y-106900000D03*
X97075000Y-100000000D03*
X98625000Y-100000000D03*
D36*
X97600000Y-98850000D03*
X97600000Y-96650000D03*
D30*
X96355000Y-80075000D03*
X96355000Y-81625000D03*
D37*
X64925000Y-74050000D03*
X63275000Y-74050000D03*
D35*
X83175000Y-102450000D03*
X84725000Y-102450000D03*
D38*
X78600000Y-108475000D03*
X78600000Y-106925000D03*
D36*
X103900000Y-99600000D03*
X103900000Y-97400000D03*
D38*
X101650000Y-102525000D03*
X101650000Y-100975000D03*
D39*
X64700000Y-81425000D03*
X64700000Y-83075000D03*
X96700000Y-70475000D03*
X96700000Y-72125000D03*
D40*
X89200000Y-100025000D03*
X89200000Y-98375000D03*
D30*
X78800000Y-104175000D03*
X78800000Y-105725000D03*
D41*
X101400000Y-98062500D03*
D42*
X101500000Y-99112500D03*
X101500000Y-99562500D03*
X101500000Y-100012500D03*
X99800000Y-100012500D03*
X99800000Y-99562500D03*
X99800000Y-99112500D03*
D41*
X99900000Y-98062500D03*
D43*
X100650000Y-97925000D03*
D34*
X80775000Y-101300000D03*
X79225000Y-101300000D03*
D44*
X107100000Y-96775000D03*
X107100000Y-99725000D03*
D38*
X80800000Y-109275000D03*
X80800000Y-107725000D03*
D45*
X70150000Y-101350000D03*
D46*
X70800000Y-101300000D03*
D45*
X71600000Y-101350000D03*
D46*
X71600000Y-102600000D03*
X70575000Y-102600000D03*
D47*
X70075000Y-102400000D03*
D31*
X68125000Y-107350000D03*
X69775000Y-107350000D03*
D48*
X83337500Y-66825000D03*
X83337500Y-66175000D03*
X83337500Y-65525000D03*
X83337500Y-64875000D03*
X83337500Y-64225000D03*
X83337500Y-63575000D03*
X83337500Y-62925000D03*
X83337500Y-62275000D03*
X89062500Y-62275000D03*
X89062500Y-62925000D03*
X89062500Y-63575000D03*
X89062500Y-64225000D03*
X89062500Y-64875000D03*
X89062500Y-65525000D03*
X89062500Y-66175000D03*
X89062500Y-66825000D03*
X83387500Y-93825000D03*
X83387500Y-93175000D03*
X83387500Y-92525000D03*
X83387500Y-91875000D03*
X83387500Y-91225000D03*
X83387500Y-90575000D03*
X83387500Y-89925000D03*
X83387500Y-89275000D03*
X89112500Y-89275000D03*
X89112500Y-89925000D03*
X89112500Y-90575000D03*
X89112500Y-91225000D03*
X89112500Y-91875000D03*
X89112500Y-92525000D03*
X89112500Y-93175000D03*
X89112500Y-93825000D03*
D34*
X99225000Y-101250000D03*
X97675000Y-101250000D03*
X89125000Y-85600000D03*
X87575000Y-85600000D03*
D37*
X64975000Y-86750000D03*
X63325000Y-86750000D03*
X82025000Y-102500000D03*
X80375000Y-102500000D03*
D33*
X99825000Y-93000000D03*
X96875000Y-93000000D03*
D38*
X69100000Y-102225000D03*
X69100000Y-100675000D03*
D49*
X96000000Y-77500000D03*
X96000000Y-78000000D03*
X96000000Y-78500000D03*
X96000000Y-79000000D03*
X94100000Y-79000000D03*
X94100000Y-78500000D03*
X94100000Y-78000000D03*
X94100000Y-77500000D03*
D50*
X95050000Y-78250000D03*
D35*
X102875000Y-102250000D03*
X104425000Y-102250000D03*
D38*
X77500000Y-108475000D03*
X77500000Y-106925000D03*
X84700000Y-105675000D03*
X84700000Y-104125000D03*
D39*
X100400000Y-100925000D03*
X100400000Y-102575000D03*
D30*
X90450000Y-98425000D03*
X90450000Y-99975000D03*
D38*
X81900000Y-109275000D03*
X81900000Y-107725000D03*
D39*
X101350000Y-89675000D03*
X101350000Y-91325000D03*
D30*
X87200000Y-105100000D03*
X87200000Y-106650000D03*
D39*
X69750000Y-108425000D03*
X69750000Y-110075000D03*
D51*
X101175000Y-95250000D03*
X104125000Y-95250000D03*
D52*
X94375000Y-71350000D03*
X91425000Y-71350000D03*
D37*
X93525000Y-101450000D03*
X91875000Y-101450000D03*
D34*
X89025000Y-94850000D03*
X87475000Y-94850000D03*
D52*
X72325000Y-104450000D03*
X69375000Y-104450000D03*
D40*
X63650000Y-72325000D03*
X63650000Y-70675000D03*
D44*
X103400000Y-89920000D03*
X103400000Y-92870000D03*
D53*
X78487500Y-109600000D03*
X76912500Y-109600000D03*
D54*
X74850000Y-104625000D03*
X74850000Y-101675000D03*
D35*
X91425000Y-96950000D03*
X92975000Y-96950000D03*
D34*
X64875000Y-75250000D03*
X63325000Y-75250000D03*
D38*
X72600000Y-102475000D03*
X72600000Y-100925000D03*
D55*
X83325000Y-105600000D03*
X81575000Y-105600000D03*
X81575000Y-104200000D03*
X83325000Y-104200000D03*
D48*
X83387500Y-75825000D03*
X83387500Y-75175000D03*
X83387500Y-74525000D03*
X83387500Y-73875000D03*
X83387500Y-73225000D03*
X83387500Y-72575000D03*
X83387500Y-71925000D03*
X83387500Y-71275000D03*
X89112500Y-71275000D03*
X89112500Y-71925000D03*
X89112500Y-72575000D03*
X89112500Y-73225000D03*
X89112500Y-73875000D03*
X89112500Y-74525000D03*
X89112500Y-75175000D03*
X89112500Y-75825000D03*
D38*
X86600000Y-104075000D03*
X86600000Y-102525000D03*
X79700000Y-108475000D03*
X79700000Y-106925000D03*
D49*
X95370000Y-67850000D03*
X95370000Y-68350000D03*
X95370000Y-68850000D03*
X95370000Y-69350000D03*
X93470000Y-69350000D03*
X93470000Y-68850000D03*
X93470000Y-68350000D03*
X93470000Y-67850000D03*
D50*
X94420000Y-68600000D03*
D48*
X83387500Y-84525000D03*
X83387500Y-83875000D03*
X83387500Y-83225000D03*
X83387500Y-82575000D03*
X83387500Y-81925000D03*
X83387500Y-81275000D03*
X83387500Y-80625000D03*
X83387500Y-79975000D03*
X89112500Y-79975000D03*
X89112500Y-80625000D03*
X89112500Y-81275000D03*
X89112500Y-81925000D03*
X89112500Y-82575000D03*
X89112500Y-83225000D03*
X89112500Y-83875000D03*
X89112500Y-84525000D03*
D39*
X97450000Y-80025000D03*
X97450000Y-81675000D03*
D52*
X95005000Y-81000000D03*
X92055000Y-81000000D03*
D38*
X83000000Y-109275000D03*
X83000000Y-107725000D03*
D39*
X100100000Y-89675000D03*
X100100000Y-91325000D03*
D56*
X87200000Y-107850000D03*
X87200000Y-108350000D03*
X87200000Y-108850000D03*
X87200000Y-109350000D03*
X84300000Y-109350000D03*
X84300000Y-108850000D03*
X84300000Y-108350000D03*
X84300000Y-107850000D03*
D57*
X85750000Y-108600000D03*
D39*
X64750000Y-70675000D03*
X64750000Y-72325000D03*
D40*
X63600000Y-83075000D03*
X63600000Y-81425000D03*
D58*
X65850000Y-101250000D03*
X65850000Y-104850000D03*
D34*
X89275000Y-67800000D03*
X87725000Y-67800000D03*
X88325000Y-76900000D03*
X86775000Y-76900000D03*
M02*
