G04 #@! TF.GenerationSoftware,KiCad,Pcbnew,(6.0.7)*
G04 #@! TF.CreationDate,2022-10-27T11:50:25+02:00*
G04 #@! TF.ProjectId,pumpCon,70756d70-436f-46e2-9e6b-696361645f70,rev?*
G04 #@! TF.SameCoordinates,Original*
G04 #@! TF.FileFunction,Copper,L4,Bot*
G04 #@! TF.FilePolarity,Positive*
%FSLAX46Y46*%
G04 Gerber Fmt 4.6, Leading zero omitted, Abs format (unit mm)*
G04 Created by KiCad (PCBNEW (6.0.7)) date 2022-10-27 11:50:25*
%MOMM*%
%LPD*%
G01*
G04 APERTURE LIST*
G04 Aperture macros list*
%AMRoundRect*
0 Rectangle with rounded corners*
0 $1 Rounding radius*
0 $2 $3 $4 $5 $6 $7 $8 $9 X,Y pos of 4 corners*
0 Add a 4 corners polygon primitive as box body*
4,1,4,$2,$3,$4,$5,$6,$7,$8,$9,$2,$3,0*
0 Add four circle primitives for the rounded corners*
1,1,$1+$1,$2,$3*
1,1,$1+$1,$4,$5*
1,1,$1+$1,$6,$7*
1,1,$1+$1,$8,$9*
0 Add four rect primitives between the rounded corners*
20,1,$1+$1,$2,$3,$4,$5,0*
20,1,$1+$1,$4,$5,$6,$7,0*
20,1,$1+$1,$6,$7,$8,$9,0*
20,1,$1+$1,$8,$9,$2,$3,0*%
%AMFreePoly0*
4,1,17,-0.314645,0.285355,-0.300000,0.250000,-0.300000,0.100000,0.450000,0.100000,0.485355,0.085355,0.500000,0.050000,0.500000,-0.050000,0.485355,-0.085355,0.450000,-0.100000,-0.450000,-0.100000,-0.485355,-0.085355,-0.500000,-0.050000,-0.500000,0.250000,-0.485355,0.285355,-0.450000,0.300000,-0.350000,0.300000,-0.314645,0.285355,-0.314645,0.285355,$1*%
G04 Aperture macros list end*
G04 #@! TA.AperFunction,ComponentPad*
%ADD10O,1.050000X1.900000*%
G04 #@! TD*
G04 #@! TA.AperFunction,ComponentPad*
%ADD11RoundRect,0.250000X0.620000X0.845000X-0.620000X0.845000X-0.620000X-0.845000X0.620000X-0.845000X0*%
G04 #@! TD*
G04 #@! TA.AperFunction,ComponentPad*
%ADD12O,1.740000X2.190000*%
G04 #@! TD*
G04 #@! TA.AperFunction,ComponentPad*
%ADD13RoundRect,0.250000X-0.600000X-0.725000X0.600000X-0.725000X0.600000X0.725000X-0.600000X0.725000X0*%
G04 #@! TD*
G04 #@! TA.AperFunction,ComponentPad*
%ADD14O,1.700000X1.950000*%
G04 #@! TD*
G04 #@! TA.AperFunction,ComponentPad*
%ADD15R,1.700000X1.700000*%
G04 #@! TD*
G04 #@! TA.AperFunction,ComponentPad*
%ADD16O,1.700000X1.700000*%
G04 #@! TD*
G04 #@! TA.AperFunction,ComponentPad*
%ADD17RoundRect,0.250000X0.725000X-0.600000X0.725000X0.600000X-0.725000X0.600000X-0.725000X-0.600000X0*%
G04 #@! TD*
G04 #@! TA.AperFunction,ComponentPad*
%ADD18O,1.950000X1.700000*%
G04 #@! TD*
G04 #@! TA.AperFunction,ComponentPad*
%ADD19RoundRect,0.250000X0.750000X-0.600000X0.750000X0.600000X-0.750000X0.600000X-0.750000X-0.600000X0*%
G04 #@! TD*
G04 #@! TA.AperFunction,ComponentPad*
%ADD20O,2.000000X1.700000*%
G04 #@! TD*
G04 #@! TA.AperFunction,ComponentPad*
%ADD21RoundRect,0.250000X-0.845000X0.620000X-0.845000X-0.620000X0.845000X-0.620000X0.845000X0.620000X0*%
G04 #@! TD*
G04 #@! TA.AperFunction,ComponentPad*
%ADD22O,2.190000X1.740000*%
G04 #@! TD*
G04 #@! TA.AperFunction,ComponentPad*
%ADD23R,1.600000X1.600000*%
G04 #@! TD*
G04 #@! TA.AperFunction,ComponentPad*
%ADD24C,1.600000*%
G04 #@! TD*
G04 #@! TA.AperFunction,SMDPad,CuDef*
%ADD25RoundRect,0.225000X-0.250000X0.225000X-0.250000X-0.225000X0.250000X-0.225000X0.250000X0.225000X0*%
G04 #@! TD*
G04 #@! TA.AperFunction,SMDPad,CuDef*
%ADD26RoundRect,0.200000X-0.200000X-0.275000X0.200000X-0.275000X0.200000X0.275000X-0.200000X0.275000X0*%
G04 #@! TD*
G04 #@! TA.AperFunction,SMDPad,CuDef*
%ADD27RoundRect,0.150000X0.512500X0.150000X-0.512500X0.150000X-0.512500X-0.150000X0.512500X-0.150000X0*%
G04 #@! TD*
G04 #@! TA.AperFunction,SMDPad,CuDef*
%ADD28RoundRect,0.250000X0.325000X0.650000X-0.325000X0.650000X-0.325000X-0.650000X0.325000X-0.650000X0*%
G04 #@! TD*
G04 #@! TA.AperFunction,SMDPad,CuDef*
%ADD29RoundRect,0.225000X0.225000X0.250000X-0.225000X0.250000X-0.225000X-0.250000X0.225000X-0.250000X0*%
G04 #@! TD*
G04 #@! TA.AperFunction,SMDPad,CuDef*
%ADD30RoundRect,0.225000X-0.225000X-0.250000X0.225000X-0.250000X0.225000X0.250000X-0.225000X0.250000X0*%
G04 #@! TD*
G04 #@! TA.AperFunction,SMDPad,CuDef*
%ADD31R,2.700000X0.800000*%
G04 #@! TD*
G04 #@! TA.AperFunction,SMDPad,CuDef*
%ADD32RoundRect,0.200000X0.200000X0.275000X-0.200000X0.275000X-0.200000X-0.275000X0.200000X-0.275000X0*%
G04 #@! TD*
G04 #@! TA.AperFunction,SMDPad,CuDef*
%ADD33RoundRect,0.225000X0.250000X-0.225000X0.250000X0.225000X-0.250000X0.225000X-0.250000X-0.225000X0*%
G04 #@! TD*
G04 #@! TA.AperFunction,SMDPad,CuDef*
%ADD34RoundRect,0.200000X-0.275000X0.200000X-0.275000X-0.200000X0.275000X-0.200000X0.275000X0.200000X0*%
G04 #@! TD*
G04 #@! TA.AperFunction,SMDPad,CuDef*
%ADD35RoundRect,0.200000X0.275000X-0.200000X0.275000X0.200000X-0.275000X0.200000X-0.275000X-0.200000X0*%
G04 #@! TD*
G04 #@! TA.AperFunction,SMDPad,CuDef*
%ADD36RoundRect,0.200000X0.200000X0.525000X-0.200000X0.525000X-0.200000X-0.525000X0.200000X-0.525000X0*%
G04 #@! TD*
G04 #@! TA.AperFunction,SMDPad,CuDef*
%ADD37RoundRect,0.075000X0.225000X0.075000X-0.225000X0.075000X-0.225000X-0.075000X0.225000X-0.075000X0*%
G04 #@! TD*
G04 #@! TA.AperFunction,SMDPad,CuDef*
%ADD38RoundRect,0.075000X0.075000X0.787500X-0.075000X0.787500X-0.075000X-0.787500X0.075000X-0.787500X0*%
G04 #@! TD*
G04 #@! TA.AperFunction,SMDPad,CuDef*
%ADD39RoundRect,0.250000X-1.100000X0.325000X-1.100000X-0.325000X1.100000X-0.325000X1.100000X0.325000X0*%
G04 #@! TD*
G04 #@! TA.AperFunction,SMDPad,CuDef*
%ADD40RoundRect,0.050000X-0.050000X0.300000X-0.050000X-0.300000X0.050000X-0.300000X0.050000X0.300000X0*%
G04 #@! TD*
G04 #@! TA.AperFunction,SMDPad,CuDef*
%ADD41RoundRect,0.050000X-0.050000X0.250000X-0.050000X-0.250000X0.050000X-0.250000X0.050000X0.250000X0*%
G04 #@! TD*
G04 #@! TA.AperFunction,SMDPad,CuDef*
%ADD42FreePoly0,270.000000*%
G04 #@! TD*
G04 #@! TA.AperFunction,SMDPad,CuDef*
%ADD43RoundRect,0.100000X-0.637500X-0.100000X0.637500X-0.100000X0.637500X0.100000X-0.637500X0.100000X0*%
G04 #@! TD*
G04 #@! TA.AperFunction,SMDPad,CuDef*
%ADD44R,0.500000X0.250000*%
G04 #@! TD*
G04 #@! TA.AperFunction,SMDPad,CuDef*
%ADD45R,0.900000X1.600000*%
G04 #@! TD*
G04 #@! TA.AperFunction,SMDPad,CuDef*
%ADD46RoundRect,0.250000X-0.325000X-1.100000X0.325000X-1.100000X0.325000X1.100000X-0.325000X1.100000X0*%
G04 #@! TD*
G04 #@! TA.AperFunction,SMDPad,CuDef*
%ADD47RoundRect,0.250000X0.325000X1.100000X-0.325000X1.100000X-0.325000X-1.100000X0.325000X-1.100000X0*%
G04 #@! TD*
G04 #@! TA.AperFunction,SMDPad,CuDef*
%ADD48RoundRect,0.218750X0.218750X0.256250X-0.218750X0.256250X-0.218750X-0.256250X0.218750X-0.256250X0*%
G04 #@! TD*
G04 #@! TA.AperFunction,SMDPad,CuDef*
%ADD49RoundRect,0.250000X1.100000X-0.325000X1.100000X0.325000X-1.100000X0.325000X-1.100000X-0.325000X0*%
G04 #@! TD*
G04 #@! TA.AperFunction,SMDPad,CuDef*
%ADD50R,1.150000X1.000000*%
G04 #@! TD*
G04 #@! TA.AperFunction,SMDPad,CuDef*
%ADD51R,0.750000X0.300000*%
G04 #@! TD*
G04 #@! TA.AperFunction,SMDPad,CuDef*
%ADD52R,0.300000X1.700000*%
G04 #@! TD*
G04 #@! TA.AperFunction,SMDPad,CuDef*
%ADD53R,4.000000X1.500000*%
G04 #@! TD*
G04 #@! TA.AperFunction,ViaPad*
%ADD54C,0.500000*%
G04 #@! TD*
G04 #@! TA.AperFunction,Conductor*
%ADD55C,0.127000*%
G04 #@! TD*
G04 #@! TA.AperFunction,Conductor*
%ADD56C,0.500000*%
G04 #@! TD*
G04 #@! TA.AperFunction,Conductor*
%ADD57C,0.200000*%
G04 #@! TD*
G04 #@! TA.AperFunction,Conductor*
%ADD58C,0.300000*%
G04 #@! TD*
G04 #@! TA.AperFunction,Conductor*
%ADD59C,1.000000*%
G04 #@! TD*
G04 APERTURE END LIST*
D10*
X72825000Y-110050000D03*
X65675000Y-110050000D03*
D11*
X101770000Y-64680000D03*
D12*
X99230000Y-64680000D03*
D13*
X67800000Y-77000000D03*
D14*
X70300000Y-77000000D03*
X72800000Y-77000000D03*
X75300000Y-77000000D03*
X77800000Y-77000000D03*
D13*
X67800000Y-81500000D03*
D14*
X70300000Y-81500000D03*
X72800000Y-81500000D03*
X75300000Y-81500000D03*
X77800000Y-81500000D03*
D15*
X86475000Y-99800000D03*
D16*
X83935000Y-99800000D03*
X81395000Y-99800000D03*
D17*
X60800000Y-86100000D03*
D18*
X60800000Y-83600000D03*
X60800000Y-81100000D03*
D15*
X89175000Y-109850000D03*
D16*
X89175000Y-107310000D03*
D13*
X67800000Y-90500000D03*
D14*
X70300000Y-90500000D03*
X72800000Y-90500000D03*
X75300000Y-90500000D03*
X77800000Y-90500000D03*
D19*
X60800000Y-94200000D03*
D20*
X60800000Y-91700000D03*
D11*
X101720000Y-76230000D03*
D12*
X99180000Y-76230000D03*
D13*
X67800000Y-86000000D03*
D14*
X70300000Y-86000000D03*
X72800000Y-86000000D03*
X75300000Y-86000000D03*
X77800000Y-86000000D03*
D21*
X93580000Y-104960000D03*
D22*
X93580000Y-107500000D03*
X93580000Y-110040000D03*
D13*
X67800000Y-63500000D03*
D14*
X70300000Y-63500000D03*
X72800000Y-63500000D03*
X75300000Y-63500000D03*
X77800000Y-63500000D03*
D13*
X67800000Y-68000000D03*
D14*
X70300000Y-68000000D03*
X72800000Y-68000000D03*
X75300000Y-68000000D03*
X77800000Y-68000000D03*
D23*
X99950000Y-86500000D03*
D24*
X102450000Y-86500000D03*
D23*
X105700000Y-80217621D03*
D24*
X105700000Y-82717621D03*
D19*
X60800000Y-102350000D03*
D20*
X60800000Y-99850000D03*
D13*
X67800000Y-95000000D03*
D14*
X70300000Y-95000000D03*
X72800000Y-95000000D03*
X75300000Y-95000000D03*
X77800000Y-95000000D03*
D23*
X105650000Y-69517621D03*
D24*
X105650000Y-72017621D03*
D17*
X60800000Y-75350000D03*
D18*
X60800000Y-72850000D03*
X60800000Y-70350000D03*
D13*
X67800000Y-72500000D03*
D14*
X70300000Y-72500000D03*
X72800000Y-72500000D03*
X75300000Y-72500000D03*
X77800000Y-72500000D03*
D21*
X99780000Y-104960000D03*
D22*
X99780000Y-107500000D03*
X99780000Y-110040000D03*
D25*
X80200000Y-104125000D03*
X80200000Y-105675000D03*
D26*
X97575000Y-102500000D03*
X99225000Y-102500000D03*
D27*
X94087500Y-98250000D03*
X94087500Y-99200000D03*
X94087500Y-100150000D03*
X91812500Y-100150000D03*
X91812500Y-98250000D03*
D26*
X63800000Y-99750000D03*
X65450000Y-99750000D03*
D28*
X99825000Y-95000000D03*
X96875000Y-95000000D03*
D25*
X95600000Y-70475000D03*
X95600000Y-72025000D03*
D29*
X64925000Y-85550000D03*
X63375000Y-85550000D03*
D26*
X102825000Y-101000000D03*
X104475000Y-101000000D03*
D30*
X84075000Y-106900000D03*
X85625000Y-106900000D03*
X97075000Y-100000000D03*
X98625000Y-100000000D03*
D31*
X97600000Y-98850000D03*
X97600000Y-96650000D03*
D25*
X96355000Y-80075000D03*
X96355000Y-81625000D03*
D32*
X64925000Y-74050000D03*
X63275000Y-74050000D03*
D30*
X83175000Y-102450000D03*
X84725000Y-102450000D03*
D33*
X78600000Y-108475000D03*
X78600000Y-106925000D03*
D31*
X103900000Y-99600000D03*
X103900000Y-97400000D03*
D33*
X101650000Y-102525000D03*
X101650000Y-100975000D03*
D34*
X64700000Y-81425000D03*
X64700000Y-83075000D03*
X96700000Y-70475000D03*
X96700000Y-72125000D03*
D35*
X89200000Y-100025000D03*
X89200000Y-98375000D03*
D25*
X78800000Y-104175000D03*
X78800000Y-105725000D03*
D36*
X101400000Y-98062500D03*
D37*
X101500000Y-99112500D03*
X101500000Y-99562500D03*
X101500000Y-100012500D03*
X99800000Y-100012500D03*
X99800000Y-99562500D03*
X99800000Y-99112500D03*
D36*
X99900000Y-98062500D03*
D38*
X100650000Y-97925000D03*
D29*
X80775000Y-101300000D03*
X79225000Y-101300000D03*
D39*
X107100000Y-96775000D03*
X107100000Y-99725000D03*
D33*
X80800000Y-109275000D03*
X80800000Y-107725000D03*
D40*
X70150000Y-101350000D03*
D41*
X70800000Y-101300000D03*
D40*
X71600000Y-101350000D03*
D41*
X71600000Y-102600000D03*
X70575000Y-102600000D03*
D42*
X70075000Y-102400000D03*
D26*
X68125000Y-107350000D03*
X69775000Y-107350000D03*
D43*
X83337500Y-66825000D03*
X83337500Y-66175000D03*
X83337500Y-65525000D03*
X83337500Y-64875000D03*
X83337500Y-64225000D03*
X83337500Y-63575000D03*
X83337500Y-62925000D03*
X83337500Y-62275000D03*
X89062500Y-62275000D03*
X89062500Y-62925000D03*
X89062500Y-63575000D03*
X89062500Y-64225000D03*
X89062500Y-64875000D03*
X89062500Y-65525000D03*
X89062500Y-66175000D03*
X89062500Y-66825000D03*
X83387500Y-93825000D03*
X83387500Y-93175000D03*
X83387500Y-92525000D03*
X83387500Y-91875000D03*
X83387500Y-91225000D03*
X83387500Y-90575000D03*
X83387500Y-89925000D03*
X83387500Y-89275000D03*
X89112500Y-89275000D03*
X89112500Y-89925000D03*
X89112500Y-90575000D03*
X89112500Y-91225000D03*
X89112500Y-91875000D03*
X89112500Y-92525000D03*
X89112500Y-93175000D03*
X89112500Y-93825000D03*
D29*
X99225000Y-101250000D03*
X97675000Y-101250000D03*
X89125000Y-85600000D03*
X87575000Y-85600000D03*
D32*
X64975000Y-86750000D03*
X63325000Y-86750000D03*
X82025000Y-102500000D03*
X80375000Y-102500000D03*
D28*
X99825000Y-93000000D03*
X96875000Y-93000000D03*
D33*
X69100000Y-102225000D03*
X69100000Y-100675000D03*
D44*
X96000000Y-77500000D03*
X96000000Y-78000000D03*
X96000000Y-78500000D03*
X96000000Y-79000000D03*
X94100000Y-79000000D03*
X94100000Y-78500000D03*
X94100000Y-78000000D03*
X94100000Y-77500000D03*
D45*
X95050000Y-78250000D03*
D30*
X102875000Y-102250000D03*
X104425000Y-102250000D03*
D33*
X77500000Y-108475000D03*
X77500000Y-106925000D03*
X84700000Y-105675000D03*
X84700000Y-104125000D03*
D34*
X100400000Y-100925000D03*
X100400000Y-102575000D03*
D25*
X90450000Y-98425000D03*
X90450000Y-99975000D03*
D33*
X81900000Y-109275000D03*
X81900000Y-107725000D03*
D34*
X101350000Y-89675000D03*
X101350000Y-91325000D03*
D25*
X87200000Y-105100000D03*
X87200000Y-106650000D03*
D34*
X69750000Y-108425000D03*
X69750000Y-110075000D03*
D46*
X101175000Y-95250000D03*
X104125000Y-95250000D03*
D47*
X94375000Y-71350000D03*
X91425000Y-71350000D03*
D32*
X93525000Y-101450000D03*
X91875000Y-101450000D03*
D29*
X89025000Y-94850000D03*
X87475000Y-94850000D03*
D47*
X72325000Y-104450000D03*
X69375000Y-104450000D03*
D35*
X63650000Y-72325000D03*
X63650000Y-70675000D03*
D39*
X103400000Y-89920000D03*
X103400000Y-92870000D03*
D48*
X78487500Y-109600000D03*
X76912500Y-109600000D03*
D49*
X74850000Y-104625000D03*
X74850000Y-101675000D03*
D30*
X91425000Y-96950000D03*
X92975000Y-96950000D03*
D29*
X64875000Y-75250000D03*
X63325000Y-75250000D03*
D33*
X72600000Y-102475000D03*
X72600000Y-100925000D03*
D50*
X83325000Y-105600000D03*
X81575000Y-105600000D03*
X81575000Y-104200000D03*
X83325000Y-104200000D03*
D43*
X83387500Y-75825000D03*
X83387500Y-75175000D03*
X83387500Y-74525000D03*
X83387500Y-73875000D03*
X83387500Y-73225000D03*
X83387500Y-72575000D03*
X83387500Y-71925000D03*
X83387500Y-71275000D03*
X89112500Y-71275000D03*
X89112500Y-71925000D03*
X89112500Y-72575000D03*
X89112500Y-73225000D03*
X89112500Y-73875000D03*
X89112500Y-74525000D03*
X89112500Y-75175000D03*
X89112500Y-75825000D03*
D33*
X86600000Y-104075000D03*
X86600000Y-102525000D03*
X79700000Y-108475000D03*
X79700000Y-106925000D03*
D44*
X95370000Y-67850000D03*
X95370000Y-68350000D03*
X95370000Y-68850000D03*
X95370000Y-69350000D03*
X93470000Y-69350000D03*
X93470000Y-68850000D03*
X93470000Y-68350000D03*
X93470000Y-67850000D03*
D45*
X94420000Y-68600000D03*
D43*
X83387500Y-84525000D03*
X83387500Y-83875000D03*
X83387500Y-83225000D03*
X83387500Y-82575000D03*
X83387500Y-81925000D03*
X83387500Y-81275000D03*
X83387500Y-80625000D03*
X83387500Y-79975000D03*
X89112500Y-79975000D03*
X89112500Y-80625000D03*
X89112500Y-81275000D03*
X89112500Y-81925000D03*
X89112500Y-82575000D03*
X89112500Y-83225000D03*
X89112500Y-83875000D03*
X89112500Y-84525000D03*
D34*
X97450000Y-80025000D03*
X97450000Y-81675000D03*
D47*
X95005000Y-81000000D03*
X92055000Y-81000000D03*
D33*
X83000000Y-109275000D03*
X83000000Y-107725000D03*
D34*
X100100000Y-89675000D03*
X100100000Y-91325000D03*
D51*
X87200000Y-107850000D03*
X87200000Y-108350000D03*
X87200000Y-108850000D03*
X87200000Y-109350000D03*
X84300000Y-109350000D03*
X84300000Y-108850000D03*
X84300000Y-108350000D03*
X84300000Y-107850000D03*
D52*
X85750000Y-108600000D03*
D34*
X64750000Y-70675000D03*
X64750000Y-72325000D03*
D35*
X63600000Y-83075000D03*
X63600000Y-81425000D03*
D53*
X65850000Y-101250000D03*
X65850000Y-104850000D03*
D29*
X89275000Y-67800000D03*
X87725000Y-67800000D03*
X88325000Y-76900000D03*
X86775000Y-76900000D03*
D54*
X82700000Y-103300000D03*
X101450000Y-93576502D03*
X82250000Y-87250000D03*
X82250000Y-81900000D03*
X71550000Y-106800000D03*
X79573207Y-106202901D03*
X82200000Y-63700000D03*
X92950000Y-99450000D03*
X100600000Y-82950000D03*
X90750000Y-102700000D03*
X73250000Y-103050000D03*
X81550000Y-106850000D03*
X106200000Y-97700000D03*
X82250000Y-106850000D03*
X77450000Y-106150000D03*
X95050000Y-77900000D03*
X98650000Y-71450000D03*
X85650000Y-102450000D03*
X82250000Y-96100000D03*
X82250000Y-68300000D03*
X73950000Y-103050000D03*
X83400000Y-79450000D03*
X82250000Y-77100000D03*
X72750000Y-98550000D03*
X86701681Y-109932592D03*
X87000000Y-75950000D03*
X84600000Y-103300000D03*
X107600000Y-97700000D03*
X100600000Y-82050000D03*
X80900000Y-106850000D03*
X100250000Y-96500000D03*
X94100000Y-81000000D03*
X92950000Y-100875000D03*
X106900000Y-97700000D03*
X83200000Y-101450000D03*
X82250000Y-94900000D03*
X72450000Y-107800000D03*
X75800000Y-103049152D03*
X83000000Y-106850000D03*
X93450000Y-72000000D03*
X82200000Y-90800000D03*
X75090000Y-103050000D03*
X102100000Y-95000000D03*
X82250000Y-78250000D03*
X92975000Y-98475000D03*
X88448500Y-67800000D03*
X102100000Y-95650000D03*
X82212500Y-89837500D03*
X100600000Y-81200000D03*
X78450000Y-101300000D03*
X82150000Y-62750000D03*
X87550000Y-93950000D03*
X85306716Y-109510000D03*
X100500000Y-71450000D03*
X100800000Y-93576502D03*
X82250000Y-80700000D03*
X99550000Y-71450000D03*
X95050000Y-78650000D03*
X99600000Y-96500000D03*
X66400000Y-99950000D03*
X93450000Y-70750000D03*
X82250000Y-72800000D03*
X82250000Y-86250000D03*
X86800000Y-85650000D03*
X94100000Y-80350000D03*
X82250000Y-69300000D03*
X94300000Y-68200000D03*
X93450000Y-71350000D03*
X82250000Y-71750000D03*
X86437100Y-107100000D03*
X102100000Y-94350000D03*
X94300000Y-69000000D03*
X94100000Y-81800000D03*
X76600000Y-104400000D03*
X76000000Y-109950000D03*
X88050000Y-75850000D03*
X87900000Y-71950000D03*
X77600000Y-109200000D03*
X84800000Y-107400000D03*
X86398500Y-104939746D03*
X90050000Y-67750000D03*
X89100000Y-86350000D03*
X90160000Y-80600000D03*
X78050000Y-104900000D03*
X81800000Y-110150000D03*
X79700000Y-107800000D03*
X87950000Y-62950000D03*
X66400000Y-99250000D03*
X82300000Y-101650000D03*
X69100000Y-98964000D03*
X91350000Y-99000000D03*
X89200000Y-99100000D03*
X91950000Y-99000000D03*
X77186127Y-100736127D03*
X79200000Y-109350000D03*
X77700000Y-100300000D03*
X74000000Y-100750000D03*
X102950000Y-98900000D03*
X73400000Y-100750000D03*
X75150000Y-100750000D03*
X104900000Y-98900000D03*
X106900000Y-98550000D03*
X74600000Y-100750000D03*
X104250000Y-98900000D03*
X103600000Y-98900000D03*
X106300000Y-98550000D03*
X107500000Y-98550000D03*
X82582692Y-108527764D03*
X80551500Y-108572508D03*
X81640000Y-101350000D03*
X81750000Y-75050000D03*
X80800000Y-70800000D03*
X95800000Y-93100000D03*
X95800000Y-94300000D03*
X95800000Y-95500000D03*
X81750000Y-66050000D03*
X81750000Y-65500000D03*
X95800000Y-94900000D03*
X81750000Y-83500000D03*
X81750000Y-84050000D03*
X81750000Y-84600000D03*
X81750000Y-92350000D03*
X80050000Y-79900000D03*
X80787500Y-85262500D03*
X81750000Y-75600000D03*
X80787500Y-94087500D03*
X81750000Y-74500000D03*
X80050000Y-62200000D03*
X80787500Y-67337500D03*
X80750000Y-88700000D03*
X81750000Y-66600000D03*
X95800000Y-92500000D03*
X95800000Y-93700000D03*
X81750000Y-92900000D03*
X81750000Y-93450000D03*
X98600000Y-85850000D03*
X99200000Y-85150000D03*
X98600000Y-87450000D03*
X93000000Y-81850000D03*
X93000000Y-81000000D03*
X92450000Y-71350000D03*
X100300000Y-87950000D03*
X92450000Y-70750000D03*
X92450000Y-71950000D03*
X100000000Y-85150000D03*
X99350000Y-87950000D03*
X93000000Y-80100000D03*
X98600000Y-86600000D03*
X92550000Y-89500000D03*
X97406246Y-73593293D03*
X68000000Y-108600000D03*
X89550000Y-76600000D03*
X89550000Y-77800000D03*
X89550000Y-78400000D03*
X89550000Y-79000000D03*
X89550000Y-77200000D03*
X90200000Y-68550000D03*
X90200000Y-66900000D03*
X90200000Y-69150000D03*
X90200000Y-69750000D03*
X82000000Y-103276500D03*
X86400000Y-110600000D03*
X71050000Y-102100000D03*
X72550000Y-99800000D03*
X66400000Y-98300000D03*
X93150000Y-87400000D03*
X96150000Y-73650000D03*
X86500000Y-108400000D03*
X84700000Y-110550000D03*
X83750000Y-110250000D03*
X83200000Y-110700000D03*
X82760000Y-110150000D03*
X90790000Y-73050000D03*
X90790000Y-64050000D03*
X90400000Y-81900000D03*
X87450000Y-103600000D03*
X90450000Y-91200000D03*
X90350000Y-72550000D03*
X90400000Y-81250000D03*
X87600000Y-102900000D03*
X90350000Y-63550000D03*
X88000000Y-90550000D03*
X88850000Y-102700000D03*
X91230000Y-64550000D03*
X90900000Y-82300000D03*
X90450000Y-91900000D03*
X88089296Y-103882959D03*
X91230000Y-73600000D03*
X94284500Y-88200000D03*
X96600000Y-74200000D03*
X97250000Y-74200000D03*
X94740000Y-88750000D03*
X84372920Y-69427080D03*
X84650000Y-64250000D03*
X84650000Y-63550000D03*
X84650000Y-62900000D03*
X84400000Y-68801071D03*
X84414093Y-68164799D03*
X84650000Y-64900000D03*
X84349884Y-70053159D03*
X84300000Y-79100000D03*
X84500000Y-78500000D03*
X84600000Y-77850000D03*
X84926500Y-77200000D03*
X84600000Y-73900000D03*
X84600000Y-73250000D03*
X84600000Y-71900000D03*
X84500000Y-87500000D03*
X84600000Y-86850000D03*
X84700000Y-91900000D03*
X84650000Y-91250000D03*
X84650000Y-90550000D03*
X84650000Y-89900000D03*
X90300000Y-71300000D03*
X90300000Y-65500000D03*
X90150000Y-79950000D03*
X90150000Y-74550000D03*
X90188873Y-83311127D03*
X88000000Y-89250000D03*
X84926500Y-86200000D03*
X84423498Y-82600000D03*
X84423498Y-81903006D03*
X84423498Y-81276503D03*
X84423498Y-80650000D03*
X84600000Y-72550000D03*
X84500000Y-88150000D03*
X84550000Y-96200000D03*
X84650000Y-95550000D03*
X84976500Y-94900000D03*
X87900000Y-93150000D03*
X78600000Y-102700000D03*
D55*
X82700000Y-103300000D02*
X82450000Y-103550000D01*
X84625000Y-105600000D02*
X84700000Y-105675000D01*
X82450000Y-103550000D02*
X82450000Y-104725000D01*
X82450000Y-104725000D02*
X83325000Y-105600000D01*
X83325000Y-105600000D02*
X84625000Y-105600000D01*
X61450000Y-86750000D02*
X60800000Y-86100000D01*
D56*
X99780000Y-104960000D02*
X99780000Y-103620000D01*
D55*
X63325000Y-86750000D02*
X61450000Y-86750000D01*
D57*
X75090000Y-103050000D02*
X73950000Y-103050000D01*
D56*
X93150000Y-99200000D02*
X92975000Y-99375000D01*
D57*
X72600000Y-104175000D02*
X72325000Y-104450000D01*
X75600848Y-103049152D02*
X75800000Y-103049152D01*
D55*
X85450000Y-109550000D02*
X85346716Y-109550000D01*
X85750000Y-109250000D02*
X85450000Y-109550000D01*
D56*
X84725000Y-102450000D02*
X85650000Y-102450000D01*
D55*
X87200000Y-109350000D02*
X87000000Y-109350000D01*
D58*
X66400000Y-99950000D02*
X66200000Y-99750000D01*
D57*
X72600000Y-102475000D02*
X72600000Y-104175000D01*
X73250000Y-103050000D02*
X73950000Y-103050000D01*
D58*
X69775000Y-110050000D02*
X72825000Y-110050000D01*
D57*
X94100000Y-78000000D02*
X94950000Y-78000000D01*
X83387500Y-79975000D02*
X83387500Y-79462500D01*
D56*
X92950000Y-99450000D02*
X92950000Y-100875000D01*
D57*
X71600000Y-102600000D02*
X72475000Y-102600000D01*
X83387500Y-71275000D02*
X82725000Y-71275000D01*
D55*
X63375000Y-85550000D02*
X63375000Y-86700000D01*
D58*
X66200000Y-99750000D02*
X65450000Y-99750000D01*
D56*
X92975000Y-96950000D02*
X92975000Y-98475000D01*
D58*
X69750000Y-110075000D02*
X69775000Y-110050000D01*
D55*
X63275000Y-75200000D02*
X63325000Y-75250000D01*
X85346716Y-109550000D02*
X85306716Y-109510000D01*
D57*
X93470000Y-68350000D02*
X94150000Y-68350000D01*
X83387500Y-89275000D02*
X82775000Y-89275000D01*
X87525000Y-85650000D02*
X87575000Y-85600000D01*
D56*
X86237100Y-106900000D02*
X85625000Y-106900000D01*
D57*
X72600000Y-102475000D02*
X73175000Y-103050000D01*
D56*
X101650000Y-102525000D02*
X102600000Y-102525000D01*
D55*
X60900000Y-75250000D02*
X60800000Y-75350000D01*
D57*
X73175000Y-103050000D02*
X73250000Y-103050000D01*
D55*
X86701681Y-109648319D02*
X86701681Y-109932592D01*
D56*
X92975000Y-99375000D02*
X92950000Y-99400000D01*
D55*
X85750000Y-108600000D02*
X85750000Y-107025000D01*
D57*
X87475000Y-94025000D02*
X87550000Y-93950000D01*
X83387500Y-79462500D02*
X83400000Y-79450000D01*
X86800000Y-85650000D02*
X87525000Y-85650000D01*
D58*
X88448500Y-67800000D02*
X87725000Y-67800000D01*
D55*
X85750000Y-107025000D02*
X85625000Y-106900000D01*
X86887100Y-106650000D02*
X87200000Y-106650000D01*
D56*
X86437100Y-107100000D02*
X86237100Y-106900000D01*
D57*
X94950000Y-78000000D02*
X95050000Y-77900000D01*
D56*
X86525000Y-102450000D02*
X86600000Y-102525000D01*
X94087500Y-99200000D02*
X93150000Y-99200000D01*
D57*
X94150000Y-68350000D02*
X94300000Y-68200000D01*
D56*
X101600000Y-102575000D02*
X101650000Y-102525000D01*
D58*
X79225000Y-101300000D02*
X78450000Y-101300000D01*
D55*
X63275000Y-74050000D02*
X63275000Y-75200000D01*
D56*
X95630000Y-81625000D02*
X95005000Y-81000000D01*
D59*
X74850000Y-104625000D02*
X72500000Y-104625000D01*
D57*
X82150000Y-62750000D02*
X82625000Y-62275000D01*
D56*
X92950000Y-100875000D02*
X93525000Y-101450000D01*
X92975000Y-98475000D02*
X92975000Y-99375000D01*
D55*
X87000000Y-109350000D02*
X86701681Y-109648319D01*
D57*
X75600000Y-103050000D02*
X75600848Y-103049152D01*
X82625000Y-62275000D02*
X83387500Y-62275000D01*
D56*
X86437100Y-107100000D02*
X86887100Y-106650000D01*
X102600000Y-102525000D02*
X102875000Y-102250000D01*
X99780000Y-103620000D02*
X100400000Y-103000000D01*
D57*
X72475000Y-102600000D02*
X72600000Y-102475000D01*
D56*
X100400000Y-102575000D02*
X101600000Y-102575000D01*
X96355000Y-81625000D02*
X95630000Y-81625000D01*
D57*
X87000000Y-76675000D02*
X86775000Y-76900000D01*
X75090000Y-103050000D02*
X75600000Y-103050000D01*
D56*
X100400000Y-103000000D02*
X100400000Y-102575000D01*
D57*
X82775000Y-89275000D02*
X82212500Y-89837500D01*
D59*
X72500000Y-104625000D02*
X72325000Y-104450000D01*
D56*
X92950000Y-99400000D02*
X92950000Y-99450000D01*
D57*
X87475000Y-94850000D02*
X87475000Y-94025000D01*
X87000000Y-75950000D02*
X87000000Y-76675000D01*
D55*
X63375000Y-86700000D02*
X63325000Y-86750000D01*
X63325000Y-75250000D02*
X60900000Y-75250000D01*
D57*
X82725000Y-71275000D02*
X82250000Y-71750000D01*
D55*
X85750000Y-108600000D02*
X85750000Y-109250000D01*
D56*
X85650000Y-102450000D02*
X86525000Y-102450000D01*
D55*
X80275000Y-104200000D02*
X80200000Y-104125000D01*
X80200000Y-104125000D02*
X80200000Y-102675000D01*
X81575000Y-104200000D02*
X80275000Y-104200000D01*
X80200000Y-102675000D02*
X80375000Y-102500000D01*
D58*
X77406250Y-109106250D02*
X76912500Y-109600000D01*
D55*
X84300000Y-107125000D02*
X84075000Y-106900000D01*
D58*
X84300000Y-107850000D02*
X84300000Y-107500000D01*
D55*
X86398500Y-104276500D02*
X86600000Y-104075000D01*
D56*
X90875000Y-98425000D02*
X91050000Y-98250000D01*
D58*
X82375000Y-101650000D02*
X82300000Y-101650000D01*
D57*
X89112500Y-80625000D02*
X90135000Y-80625000D01*
D56*
X91725000Y-88975000D02*
X89100000Y-86350000D01*
D55*
X81800000Y-110150000D02*
X81800000Y-109375000D01*
D58*
X83175000Y-102450000D02*
X82375000Y-101650000D01*
D56*
X91700000Y-93200000D02*
X91700000Y-89000000D01*
D58*
X90050000Y-67750000D02*
X89325000Y-67750000D01*
D57*
X90425000Y-89925000D02*
X90450000Y-89900000D01*
D56*
X91700000Y-89000000D02*
X91725000Y-88975000D01*
D58*
X84300000Y-107500000D02*
X84300000Y-107125000D01*
X78800000Y-104175000D02*
X78775000Y-104175000D01*
D56*
X90125000Y-94775000D02*
X91700000Y-93200000D01*
D58*
X77500000Y-109012500D02*
X77406250Y-109106250D01*
D56*
X91425000Y-96075000D02*
X90125000Y-94775000D01*
D55*
X77406250Y-109106250D02*
X77500000Y-109200000D01*
D58*
X78775000Y-104175000D02*
X78050000Y-104900000D01*
D56*
X91425000Y-96950000D02*
X91425000Y-96075000D01*
D57*
X89125000Y-85950000D02*
X89125000Y-84537500D01*
D56*
X91050000Y-98250000D02*
X91812500Y-98250000D01*
D57*
X89112500Y-71925000D02*
X87925000Y-71925000D01*
D56*
X86398500Y-104939746D02*
X87039746Y-104939746D01*
D58*
X84300000Y-107500000D02*
X84700000Y-107500000D01*
D57*
X89100000Y-94775000D02*
X90125000Y-94775000D01*
D58*
X89112500Y-67637500D02*
X89275000Y-67800000D01*
D57*
X89125000Y-84537500D02*
X89112500Y-84525000D01*
X89112500Y-94762500D02*
X89025000Y-94850000D01*
D58*
X84700000Y-107500000D02*
X84800000Y-107400000D01*
D55*
X79700000Y-107800000D02*
X79700000Y-108475000D01*
D57*
X89112500Y-93825000D02*
X89112500Y-94762500D01*
D56*
X91425000Y-96950000D02*
X91425000Y-97862500D01*
D58*
X89112500Y-66825000D02*
X89112500Y-67637500D01*
D57*
X88325000Y-76612500D02*
X89112500Y-75825000D01*
D56*
X91425000Y-97862500D02*
X91812500Y-98250000D01*
D57*
X90450000Y-89900000D02*
X90800000Y-89900000D01*
X89062500Y-62925000D02*
X87975000Y-62925000D01*
X87925000Y-71925000D02*
X87900000Y-71950000D01*
D56*
X90450000Y-98425000D02*
X90875000Y-98425000D01*
X86398500Y-104939746D02*
X86398500Y-104276500D01*
D55*
X87039746Y-104939746D02*
X87200000Y-105100000D01*
D57*
X88050000Y-75850000D02*
X88075000Y-75825000D01*
X90800000Y-89900000D02*
X91725000Y-88975000D01*
D56*
X89200000Y-98375000D02*
X90400000Y-98375000D01*
D57*
X88075000Y-75825000D02*
X89112500Y-75825000D01*
X87975000Y-62925000D02*
X87950000Y-62950000D01*
D58*
X89325000Y-67750000D02*
X89275000Y-67800000D01*
D57*
X89025000Y-94850000D02*
X89100000Y-94775000D01*
X89112500Y-89925000D02*
X90425000Y-89925000D01*
D58*
X77500000Y-108475000D02*
X77500000Y-109012500D01*
D57*
X90135000Y-80625000D02*
X90160000Y-80600000D01*
D56*
X90400000Y-98375000D02*
X90450000Y-98425000D01*
D55*
X81800000Y-109375000D02*
X81900000Y-109275000D01*
D57*
X89100000Y-85625000D02*
X89125000Y-85600000D01*
D55*
X77500000Y-109200000D02*
X77600000Y-109200000D01*
D57*
X89100000Y-86350000D02*
X89100000Y-85625000D01*
X88325000Y-76900000D02*
X88325000Y-76612500D01*
D55*
X64700000Y-83075000D02*
X64700000Y-85325000D01*
X64975000Y-86750000D02*
X64975000Y-95875000D01*
X75300000Y-98050000D02*
X77150000Y-99900000D01*
X64925000Y-86700000D02*
X64975000Y-86750000D01*
X64925000Y-85550000D02*
X64925000Y-86700000D01*
X77150000Y-99900000D02*
X77150000Y-100700000D01*
X64975000Y-95875000D02*
X67150000Y-98050000D01*
X64700000Y-85325000D02*
X64925000Y-85550000D01*
X77150000Y-100700000D02*
X77186127Y-100736127D01*
X67150000Y-98050000D02*
X75300000Y-98050000D01*
D56*
X78487500Y-109600000D02*
X78487500Y-108587500D01*
D55*
X78487500Y-108587500D02*
X78600000Y-108475000D01*
D56*
X78487500Y-109600000D02*
X78950000Y-109600000D01*
X78950000Y-109600000D02*
X79200000Y-109350000D01*
D55*
X67850000Y-97750000D02*
X65750000Y-95650000D01*
X64750000Y-73875000D02*
X64925000Y-74050000D01*
X65750000Y-95650000D02*
X65750000Y-76125000D01*
X64925000Y-75200000D02*
X64875000Y-75250000D01*
X64750000Y-72325000D02*
X64750000Y-73875000D01*
X77700000Y-100300000D02*
X77700000Y-100000000D01*
X64925000Y-74050000D02*
X64925000Y-75200000D01*
X75450000Y-97750000D02*
X67850000Y-97750000D01*
X65750000Y-76125000D02*
X64875000Y-75250000D01*
X77700000Y-100000000D02*
X75450000Y-97750000D01*
D56*
X89200000Y-100025000D02*
X90400000Y-100025000D01*
X91875000Y-101450000D02*
X91875000Y-100212500D01*
X91875000Y-100212500D02*
X91812500Y-100150000D01*
X90450000Y-99975000D02*
X91637500Y-99975000D01*
X91637500Y-99975000D02*
X91812500Y-100150000D01*
X90400000Y-100025000D02*
X90450000Y-99975000D01*
D57*
X69825000Y-101500000D02*
X69100000Y-102225000D01*
X70150000Y-101350000D02*
X70000000Y-101500000D01*
X70000000Y-101500000D02*
X69825000Y-101500000D01*
X70800000Y-100800000D02*
X70600000Y-100600000D01*
X70600000Y-100600000D02*
X69175000Y-100600000D01*
D58*
X65850000Y-101250000D02*
X67050000Y-101250000D01*
D57*
X70800000Y-101300000D02*
X70800000Y-100800000D01*
D58*
X67625000Y-100675000D02*
X69100000Y-100675000D01*
D57*
X69175000Y-100600000D02*
X69100000Y-100675000D01*
D58*
X67050000Y-101250000D02*
X67625000Y-100675000D01*
D56*
X106975000Y-99600000D02*
X107100000Y-99725000D01*
D57*
X72175000Y-101350000D02*
X72600000Y-100925000D01*
D56*
X103900000Y-99600000D02*
X106975000Y-99600000D01*
X74100000Y-100925000D02*
X74850000Y-101675000D01*
D57*
X71600000Y-101350000D02*
X72175000Y-101350000D01*
D56*
X72600000Y-100925000D02*
X74100000Y-100925000D01*
D59*
X65850000Y-104850000D02*
X68975000Y-104850000D01*
D56*
X60800000Y-102350000D02*
X63300000Y-104850000D01*
X63300000Y-104850000D02*
X65850000Y-104850000D01*
D59*
X68975000Y-104850000D02*
X69375000Y-104450000D01*
D55*
X82582692Y-108857692D02*
X82582692Y-108527764D01*
X83000000Y-109275000D02*
X82582692Y-108857692D01*
D58*
X80775000Y-101300000D02*
X81590000Y-101300000D01*
X80551500Y-109026500D02*
X80800000Y-109275000D01*
X80551500Y-108572508D02*
X80551500Y-109026500D01*
X81590000Y-101300000D02*
X81640000Y-101350000D01*
D57*
X104475000Y-101000000D02*
X104475000Y-102200000D01*
X104475000Y-102200000D02*
X104425000Y-102250000D01*
D58*
X100650000Y-98900000D02*
X100437500Y-99112500D01*
X100437500Y-99112500D02*
X99800000Y-99112500D01*
X97862500Y-99112500D02*
X97600000Y-98850000D01*
X100650000Y-97925000D02*
X100650000Y-98900000D01*
X99800000Y-99112500D02*
X97862500Y-99112500D01*
X98900000Y-100000000D02*
X98625000Y-100000000D01*
X99337500Y-99562500D02*
X98900000Y-100000000D01*
X99800000Y-99562500D02*
X99337500Y-99562500D01*
D57*
X101500000Y-100825000D02*
X101650000Y-100975000D01*
X101500000Y-100012500D02*
X101500000Y-100825000D01*
X102800000Y-100975000D02*
X102825000Y-101000000D01*
X101650000Y-100975000D02*
X102800000Y-100975000D01*
X100400000Y-100925000D02*
X99550000Y-100925000D01*
X99550000Y-100925000D02*
X99225000Y-101250000D01*
X100400000Y-100150000D02*
X100400000Y-100925000D01*
X99225000Y-101250000D02*
X99225000Y-102500000D01*
X101500000Y-99562500D02*
X100987500Y-99562500D01*
X100987500Y-99562500D02*
X100400000Y-100150000D01*
D55*
X62700000Y-72850000D02*
X60800000Y-72850000D01*
D56*
X97575000Y-102500000D02*
X97575000Y-101350000D01*
X97575000Y-101350000D02*
X97675000Y-101250000D01*
X96400000Y-101250000D02*
X95550000Y-100400000D01*
X95550000Y-97450000D02*
X96350000Y-96650000D01*
X96350000Y-96650000D02*
X97600000Y-96650000D01*
D55*
X63225000Y-72325000D02*
X62700000Y-72850000D01*
X63075000Y-83600000D02*
X60800000Y-83600000D01*
D56*
X95550000Y-100400000D02*
X95550000Y-97450000D01*
D55*
X63650000Y-72325000D02*
X63225000Y-72325000D01*
X63600000Y-83075000D02*
X63075000Y-83600000D01*
D56*
X97675000Y-101250000D02*
X96400000Y-101250000D01*
D57*
X97400000Y-80075000D02*
X97450000Y-80025000D01*
X96000000Y-79720000D02*
X96355000Y-80075000D01*
X96000000Y-79000000D02*
X96000000Y-79720000D01*
X96355000Y-80075000D02*
X97400000Y-80075000D01*
X95370000Y-69350000D02*
X95370000Y-70245000D01*
X95370000Y-70245000D02*
X95600000Y-70475000D01*
X96700000Y-70475000D02*
X95600000Y-70475000D01*
D55*
X98800000Y-78650000D02*
X97650000Y-77500000D01*
X92550000Y-89500000D02*
X94650000Y-89500000D01*
X94650000Y-89500000D02*
X95900000Y-88250000D01*
X98800000Y-82950000D02*
X98800000Y-78650000D01*
X95900000Y-85850000D02*
X95900000Y-88250000D01*
X97650000Y-77500000D02*
X96000000Y-77500000D01*
X95900000Y-85850000D02*
X98800000Y-82950000D01*
X97908000Y-73091539D02*
X97908000Y-69058000D01*
X97908000Y-69058000D02*
X96700000Y-67850000D01*
X97406246Y-73593293D02*
X97908000Y-73091539D01*
X96700000Y-67850000D02*
X95370000Y-67850000D01*
D58*
X68125000Y-107350000D02*
X68125000Y-108475000D01*
X68125000Y-108475000D02*
X68000000Y-108600000D01*
D55*
X63275000Y-81100000D02*
X63600000Y-81425000D01*
X60800000Y-81100000D02*
X63275000Y-81100000D01*
X63600000Y-81425000D02*
X64700000Y-81425000D01*
X64750000Y-70675000D02*
X63650000Y-70675000D01*
X63325000Y-70350000D02*
X60800000Y-70350000D01*
X63650000Y-70675000D02*
X63325000Y-70350000D01*
D58*
X63800000Y-99750000D02*
X63700000Y-99850000D01*
D55*
X63250000Y-102900000D02*
X62600000Y-102250000D01*
X70075000Y-102400000D02*
X70075000Y-102900000D01*
D56*
X60900000Y-99750000D02*
X60800000Y-99850000D01*
D55*
X70075000Y-102900000D02*
X63250000Y-102900000D01*
X62600000Y-102250000D02*
X62600000Y-99850000D01*
D58*
X63700000Y-99850000D02*
X62600000Y-99850000D01*
X62600000Y-99850000D02*
X60800000Y-99850000D01*
D56*
X63800000Y-99750000D02*
X60900000Y-99750000D01*
D58*
X89650000Y-78500000D02*
X89550000Y-78400000D01*
X94100000Y-78500000D02*
X89650000Y-78500000D01*
X90500000Y-68850000D02*
X90200000Y-68550000D01*
X93470000Y-68850000D02*
X90500000Y-68850000D01*
D55*
X82025000Y-102500000D02*
X82025000Y-103251500D01*
X82025000Y-103251500D02*
X82000000Y-103276500D01*
X88050000Y-109700000D02*
X88050000Y-108000000D01*
X88050000Y-108000000D02*
X87900000Y-107850000D01*
X87150000Y-110600000D02*
X88050000Y-109700000D01*
X86400000Y-110600000D02*
X87150000Y-110600000D01*
X87900000Y-107850000D02*
X87200000Y-107850000D01*
D57*
X70575000Y-102600000D02*
X70575000Y-102575000D01*
X70575000Y-102575000D02*
X71050000Y-102100000D01*
D55*
X67504000Y-99404000D02*
X66400000Y-98300000D01*
X72154000Y-99404000D02*
X67504000Y-99404000D01*
X72550000Y-99800000D02*
X72154000Y-99404000D01*
X93150000Y-87000000D02*
X97450000Y-82700000D01*
X97450000Y-82700000D02*
X97450000Y-81675000D01*
X93150000Y-87400000D02*
X93150000Y-87000000D01*
X96150000Y-73650000D02*
X96150000Y-73100000D01*
X96150000Y-73100000D02*
X96700000Y-72550000D01*
X96700000Y-72550000D02*
X96700000Y-72125000D01*
X86550000Y-108350000D02*
X86500000Y-108400000D01*
X87200000Y-108350000D02*
X86550000Y-108350000D01*
X85200000Y-109950000D02*
X84700000Y-110450000D01*
X86000000Y-109950000D02*
X85200000Y-109950000D01*
X86250000Y-109700000D02*
X86000000Y-109950000D01*
X87200000Y-108850000D02*
X86750000Y-108850000D01*
X86250000Y-109350000D02*
X86250000Y-109700000D01*
X84700000Y-110450000D02*
X84700000Y-110550000D01*
X86750000Y-108850000D02*
X86250000Y-109350000D01*
X83750000Y-110250000D02*
X84050000Y-109950000D01*
X84050000Y-109950000D02*
X84050000Y-109450000D01*
X84050000Y-109450000D02*
X84150000Y-109350000D01*
X84150000Y-109350000D02*
X84300000Y-109350000D01*
X83200000Y-110700000D02*
X83922962Y-110700000D01*
X84865500Y-109757462D02*
X84865500Y-109009500D01*
X83922962Y-110700000D02*
X84865500Y-109757462D01*
X84865500Y-109009500D02*
X84706000Y-108850000D01*
X84706000Y-108850000D02*
X84300000Y-108850000D01*
X83700000Y-108900000D02*
X83696000Y-108904000D01*
X83696000Y-108904000D02*
X83696000Y-109654000D01*
X83700000Y-108448000D02*
X83700000Y-108900000D01*
X83200000Y-110150000D02*
X83696000Y-109654000D01*
X83200000Y-110150000D02*
X82760000Y-110150000D01*
X84300000Y-108350000D02*
X83798000Y-108350000D01*
X83798000Y-108350000D02*
X83700000Y-108448000D01*
X90615000Y-73225000D02*
X89112500Y-73225000D01*
X85950000Y-96600000D02*
X85950000Y-92750000D01*
X88146000Y-102436790D02*
X87900000Y-102190790D01*
X87475000Y-91225000D02*
X89112500Y-91225000D01*
X90790000Y-73050000D02*
X90615000Y-73225000D01*
X85950000Y-92750000D02*
X87475000Y-91225000D01*
X90400000Y-81900000D02*
X90375000Y-81925000D01*
X90790000Y-64050000D02*
X90615000Y-64225000D01*
X87750000Y-103600000D02*
X88146000Y-103204000D01*
X90615000Y-64225000D02*
X89112500Y-64225000D01*
X87900000Y-102190790D02*
X87900000Y-98550000D01*
X90425000Y-91225000D02*
X89112500Y-91225000D01*
X90375000Y-81925000D02*
X89112500Y-81925000D01*
X87900000Y-98550000D02*
X85950000Y-96600000D01*
X88146000Y-103204000D02*
X88146000Y-102436790D01*
X90450000Y-91200000D02*
X90425000Y-91225000D01*
X87450000Y-103600000D02*
X87750000Y-103600000D01*
X88000000Y-90550000D02*
X88025000Y-90575000D01*
X89112500Y-63575000D02*
X90325000Y-63575000D01*
X85650000Y-92350000D02*
X87450000Y-90550000D01*
X85650000Y-96700000D02*
X85650000Y-92350000D01*
X90400000Y-81250000D02*
X90375000Y-81275000D01*
X90325000Y-72575000D02*
X90350000Y-72550000D01*
X88025000Y-90575000D02*
X89112500Y-90575000D01*
X87450000Y-90550000D02*
X88000000Y-90550000D01*
X90325000Y-63575000D02*
X90350000Y-63550000D01*
X89112500Y-72575000D02*
X90325000Y-72575000D01*
X90375000Y-81275000D02*
X89112500Y-81275000D01*
X87600000Y-98650000D02*
X85650000Y-96700000D01*
X87600000Y-102900000D02*
X87600000Y-98650000D01*
X87475000Y-92525000D02*
X89112500Y-92525000D01*
X86500000Y-96390790D02*
X86500000Y-93500000D01*
X88534500Y-101975290D02*
X88534500Y-98425290D01*
X88850000Y-102700000D02*
X88850000Y-102290790D01*
X88850000Y-102290790D02*
X88534500Y-101975290D01*
X88534500Y-98425290D02*
X86500000Y-96390790D01*
X86500000Y-93500000D02*
X87475000Y-92525000D01*
X90450000Y-91900000D02*
X90425000Y-91875000D01*
X90425000Y-91875000D02*
X89112500Y-91875000D01*
X86204000Y-93196000D02*
X87525000Y-91875000D01*
X90900000Y-82300000D02*
X90625000Y-82575000D01*
X88400000Y-103572255D02*
X88400000Y-102331580D01*
X90625000Y-82575000D02*
X89112500Y-82575000D01*
X88154000Y-98404000D02*
X86204000Y-96454000D01*
X91230000Y-73600000D02*
X90955000Y-73875000D01*
X88089296Y-103882959D02*
X88400000Y-103572255D01*
X88154000Y-102085580D02*
X88154000Y-98404000D01*
X87525000Y-91875000D02*
X89112500Y-91875000D01*
X86204000Y-96454000D02*
X86204000Y-93196000D01*
X91230000Y-64550000D02*
X90905000Y-64875000D01*
X88400000Y-102331580D02*
X88154000Y-102085580D01*
X90905000Y-64875000D02*
X89112500Y-64875000D01*
X90955000Y-73875000D02*
X89112500Y-73875000D01*
X94300000Y-88184500D02*
X94300000Y-86400000D01*
X96000000Y-78500000D02*
X97500000Y-78500000D01*
X94300000Y-86400000D02*
X98250000Y-82450000D01*
X98250000Y-79250000D02*
X97500000Y-78500000D01*
X94284500Y-88200000D02*
X94300000Y-88184500D01*
X98250000Y-82450000D02*
X98250000Y-79250000D01*
X96600000Y-74200000D02*
X96600000Y-73400000D01*
X97400000Y-72600000D02*
X97400000Y-69800000D01*
X97400000Y-69800000D02*
X96450000Y-68850000D01*
X96450000Y-68850000D02*
X95370000Y-68850000D01*
X96600000Y-73400000D02*
X97400000Y-72600000D01*
X97654000Y-69404000D02*
X96600000Y-68350000D01*
X97250000Y-74200000D02*
X96950000Y-73900000D01*
X97654000Y-72705210D02*
X97654000Y-69404000D01*
X96950000Y-73409210D02*
X97654000Y-72705210D01*
X96950000Y-73900000D02*
X96950000Y-73409210D01*
X96600000Y-68350000D02*
X95370000Y-68350000D01*
X98504000Y-78904000D02*
X97600000Y-78000000D01*
X98504000Y-82696000D02*
X98504000Y-78904000D01*
X94740000Y-88032538D02*
X94700000Y-87992538D01*
X94740000Y-88750000D02*
X94740000Y-88032538D01*
X94700000Y-87992538D02*
X94700000Y-86500000D01*
X97600000Y-78000000D02*
X96000000Y-78000000D01*
X94700000Y-86500000D02*
X98504000Y-82696000D01*
D57*
X84177080Y-69427080D02*
X83387500Y-68637500D01*
X84372920Y-69427080D02*
X84177080Y-69427080D01*
X83387500Y-68637500D02*
X83387500Y-66825000D01*
X83387500Y-64225000D02*
X84625000Y-64225000D01*
D58*
X84650000Y-64250000D02*
X84625000Y-64225000D01*
X84650000Y-63550000D02*
X84625000Y-63575000D01*
D57*
X83387500Y-63575000D02*
X84625000Y-63575000D01*
X83387500Y-62925000D02*
X84625000Y-62925000D01*
D58*
X84650000Y-62900000D02*
X84625000Y-62925000D01*
D57*
X84051071Y-68801071D02*
X83800000Y-68550000D01*
X84400000Y-68801071D02*
X84051071Y-68801071D01*
X84352000Y-67298000D02*
X84352000Y-66352000D01*
X83800000Y-67850000D02*
X84352000Y-67298000D01*
X83800000Y-68550000D02*
X83800000Y-67850000D01*
X84175000Y-66175000D02*
X83387500Y-66175000D01*
X84352000Y-66352000D02*
X84175000Y-66175000D01*
X84950000Y-67628892D02*
X84950000Y-66050000D01*
X84414093Y-68164799D02*
X84950000Y-67628892D01*
X84425000Y-65525000D02*
X84950000Y-66050000D01*
X83387500Y-65525000D02*
X84425000Y-65525000D01*
X83387500Y-64875000D02*
X84625000Y-64875000D01*
D58*
X84650000Y-64900000D02*
X84625000Y-64875000D01*
D57*
X85600000Y-67850000D02*
X87275000Y-66175000D01*
X84996841Y-70053159D02*
X85600000Y-69450000D01*
X87275000Y-66175000D02*
X89112500Y-66175000D01*
X85600000Y-69450000D02*
X85600000Y-67850000D01*
X84349884Y-70053159D02*
X84996841Y-70053159D01*
X85550000Y-76300000D02*
X86675000Y-75175000D01*
X86675000Y-75175000D02*
X89062500Y-75175000D01*
X85550000Y-78450000D02*
X85550000Y-76300000D01*
X84300000Y-79100000D02*
X84900000Y-79100000D01*
X84900000Y-79100000D02*
X85550000Y-78450000D01*
X84000000Y-78050000D02*
X84000000Y-75950000D01*
X84000000Y-75950000D02*
X83875000Y-75825000D01*
X83875000Y-75825000D02*
X83337500Y-75825000D01*
X84500000Y-78500000D02*
X84450000Y-78500000D01*
X84450000Y-78500000D02*
X84000000Y-78050000D01*
X84600000Y-77800000D02*
X84450000Y-77650000D01*
X84450000Y-77650000D02*
X84450000Y-75500000D01*
X84600000Y-77850000D02*
X84600000Y-77800000D01*
X84125000Y-75175000D02*
X83337500Y-75175000D01*
X84450000Y-75500000D02*
X84125000Y-75175000D01*
X84425000Y-74525000D02*
X83387500Y-74525000D01*
X84926500Y-77200000D02*
X84900000Y-77173500D01*
X84900000Y-75000000D02*
X84425000Y-74525000D01*
X84900000Y-77173500D02*
X84900000Y-75000000D01*
X83337500Y-73875000D02*
X84575000Y-73875000D01*
D58*
X84600000Y-73900000D02*
X84575000Y-73875000D01*
X84600000Y-73250000D02*
X84575000Y-73225000D01*
D57*
X83337500Y-73225000D02*
X84575000Y-73225000D01*
D58*
X84600000Y-71900000D02*
X84575000Y-71925000D01*
D57*
X83337500Y-71925000D02*
X84575000Y-71925000D01*
X83387500Y-86437500D02*
X83387500Y-84525000D01*
X84450000Y-87500000D02*
X83387500Y-86437500D01*
X84500000Y-87500000D02*
X84450000Y-87500000D01*
X84450000Y-84150000D02*
X84175000Y-83875000D01*
X84175000Y-83875000D02*
X83387500Y-83875000D01*
X84450000Y-86650000D02*
X84450000Y-84150000D01*
X84600000Y-86850000D02*
X84600000Y-86800000D01*
X84600000Y-86800000D02*
X84450000Y-86650000D01*
D58*
X84650000Y-91900000D02*
X84625000Y-91875000D01*
X84700000Y-91900000D02*
X84650000Y-91900000D01*
D57*
X83387500Y-91875000D02*
X84625000Y-91875000D01*
D58*
X84650000Y-91250000D02*
X84625000Y-91225000D01*
D57*
X83387500Y-91225000D02*
X84625000Y-91225000D01*
D58*
X84650000Y-90550000D02*
X84625000Y-90575000D01*
D57*
X83387500Y-90575000D02*
X84625000Y-90575000D01*
D58*
X84650000Y-89900000D02*
X84625000Y-89925000D01*
D57*
X83387500Y-89925000D02*
X84625000Y-89925000D01*
D55*
X90300000Y-71300000D02*
X89137500Y-71300000D01*
X90275000Y-65525000D02*
X90300000Y-65500000D01*
X89137500Y-71300000D02*
X89112500Y-71275000D01*
X89112500Y-65525000D02*
X90275000Y-65525000D01*
X90150000Y-74550000D02*
X90125000Y-74525000D01*
X90125000Y-74525000D02*
X89112500Y-74525000D01*
X90125000Y-79975000D02*
X89112500Y-79975000D01*
X90150000Y-79950000D02*
X90125000Y-79975000D01*
X90102746Y-83225000D02*
X89112500Y-83225000D01*
X89087500Y-89250000D02*
X89112500Y-89275000D01*
X90188873Y-83311127D02*
X90102746Y-83225000D01*
X88000000Y-89250000D02*
X89087500Y-89250000D01*
D57*
X84926500Y-86200000D02*
X84900000Y-86173500D01*
X84900000Y-86173500D02*
X84900000Y-83950000D01*
X84175000Y-83225000D02*
X83387500Y-83225000D01*
X84900000Y-83950000D02*
X84175000Y-83225000D01*
X83412500Y-82600000D02*
X83387500Y-82575000D01*
X84423498Y-82600000D02*
X83412500Y-82600000D01*
X84423498Y-81903006D02*
X83409494Y-81903006D01*
X83409494Y-81903006D02*
X83387500Y-81925000D01*
X83389003Y-81276503D02*
X83387500Y-81275000D01*
X84423498Y-81276503D02*
X83389003Y-81276503D01*
X84423498Y-80650000D02*
X83412500Y-80650000D01*
X83412500Y-80650000D02*
X83387500Y-80625000D01*
X83337500Y-72575000D02*
X84575000Y-72575000D01*
D58*
X84600000Y-72550000D02*
X84575000Y-72575000D01*
D57*
X84850000Y-88150000D02*
X84500000Y-88150000D01*
X85550000Y-85450000D02*
X85550000Y-87450000D01*
X89112500Y-83875000D02*
X87125000Y-83875000D01*
X87125000Y-83875000D02*
X85550000Y-85450000D01*
X85550000Y-87450000D02*
X84850000Y-88150000D01*
X84050000Y-95700000D02*
X84050000Y-95600000D01*
X84050000Y-93950000D02*
X83925000Y-93825000D01*
X83925000Y-93825000D02*
X83387500Y-93825000D01*
X84550000Y-96200000D02*
X84050000Y-95700000D01*
X84050000Y-95600000D02*
X84050000Y-93950000D01*
X84500000Y-95400000D02*
X84500000Y-93500000D01*
X84175000Y-93175000D02*
X83387500Y-93175000D01*
X84650000Y-95550000D02*
X84500000Y-95400000D01*
X84500000Y-93500000D02*
X84175000Y-93175000D01*
X84275000Y-92525000D02*
X83387500Y-92525000D01*
X84976500Y-93226500D02*
X84275000Y-92525000D01*
X84976500Y-94900000D02*
X84976500Y-93226500D01*
X87925000Y-93175000D02*
X89112500Y-93175000D01*
X87900000Y-93150000D02*
X87925000Y-93175000D01*
D56*
X103155000Y-89675000D02*
X103400000Y-89920000D01*
X100100000Y-89675000D02*
X101350000Y-89675000D01*
X101350000Y-89675000D02*
X103155000Y-89675000D01*
D55*
X69775000Y-107350000D02*
X73150000Y-107350000D01*
X77150000Y-105250000D02*
X77150000Y-104150000D01*
X74600000Y-105900000D02*
X76500000Y-105900000D01*
X76500000Y-105900000D02*
X77150000Y-105250000D01*
X77150000Y-104150000D02*
X78600000Y-102700000D01*
X73150000Y-107350000D02*
X74600000Y-105900000D01*
D58*
X69750000Y-107375000D02*
X69775000Y-107350000D01*
X69750000Y-108425000D02*
X69750000Y-107375000D01*
G04 #@! TA.AperFunction,Conductor*
G36*
X97365931Y-92220002D02*
G01*
X97386905Y-92236905D01*
X97463095Y-92313095D01*
X97497121Y-92375407D01*
X97500000Y-92402190D01*
X97500000Y-94950000D01*
X98813095Y-96263095D01*
X98847121Y-96325407D01*
X98850000Y-96352190D01*
X98850000Y-97047810D01*
X98829998Y-97115931D01*
X98813095Y-97136905D01*
X98586905Y-97363095D01*
X98524593Y-97397121D01*
X98497810Y-97400000D01*
X96350000Y-97400000D01*
X95950000Y-97800000D01*
X95950000Y-99547810D01*
X95929998Y-99615931D01*
X95913095Y-99636905D01*
X95186905Y-100363095D01*
X95124593Y-100397121D01*
X95097810Y-100400000D01*
X93726000Y-100400000D01*
X93657879Y-100379998D01*
X93611386Y-100326342D01*
X93600000Y-100274000D01*
X93600000Y-99880500D01*
X93620002Y-99812379D01*
X93673658Y-99765886D01*
X93726000Y-99754500D01*
X94631834Y-99754500D01*
X94726555Y-99739498D01*
X94840723Y-99681326D01*
X94931326Y-99590723D01*
X94989498Y-99476555D01*
X95004500Y-99381834D01*
X95004500Y-99018166D01*
X94989498Y-98923445D01*
X94931326Y-98809277D01*
X94840723Y-98718674D01*
X94726555Y-98660502D01*
X94631834Y-98645500D01*
X93726000Y-98645500D01*
X93657879Y-98625498D01*
X93611386Y-98571842D01*
X93600000Y-98519500D01*
X93600000Y-97507730D01*
X93615480Y-97447221D01*
X93619532Y-97439820D01*
X93624917Y-97432635D01*
X93638231Y-97397121D01*
X93670358Y-97311419D01*
X93670358Y-97311418D01*
X93673130Y-97304024D01*
X93679500Y-97245389D01*
X93679499Y-96654612D01*
X93673130Y-96595976D01*
X93624917Y-96467365D01*
X93619532Y-96460180D01*
X93615480Y-96452779D01*
X93600000Y-96392270D01*
X93600000Y-92952190D01*
X93620002Y-92884069D01*
X93636905Y-92863095D01*
X94263095Y-92236905D01*
X94325407Y-92202879D01*
X94352190Y-92200000D01*
X97297810Y-92200000D01*
X97365931Y-92220002D01*
G37*
G04 #@! TD.AperFunction*
G04 #@! TA.AperFunction,Conductor*
G36*
X92615931Y-66670002D02*
G01*
X92636905Y-66686905D01*
X92803595Y-66853595D01*
X92837621Y-66915907D01*
X92840500Y-66942690D01*
X92840500Y-67747810D01*
X92840589Y-67749465D01*
X92840589Y-67749477D01*
X92841541Y-67767247D01*
X92841986Y-67775545D01*
X92844865Y-67802328D01*
X92875123Y-67898961D01*
X92878088Y-67904391D01*
X92878089Y-67904393D01*
X92884586Y-67916291D01*
X92900000Y-67976679D01*
X92900000Y-68550000D01*
X93100000Y-68750000D01*
X93110650Y-68750000D01*
X93131575Y-68761426D01*
X93181777Y-68811628D01*
X93196868Y-68881002D01*
X93172057Y-68947523D01*
X93124423Y-68984525D01*
X93120699Y-68985266D01*
X93112321Y-68990864D01*
X93066392Y-69000000D01*
X92550000Y-69000000D01*
X92036905Y-69513095D01*
X91974593Y-69547121D01*
X91947810Y-69550000D01*
X91150000Y-69550000D01*
X90941464Y-69758536D01*
X90896599Y-69787423D01*
X90855236Y-69802929D01*
X90848057Y-69808309D01*
X90848054Y-69808311D01*
X90760023Y-69874287D01*
X90739596Y-69889596D01*
X90734215Y-69896776D01*
X90657179Y-69999565D01*
X90600320Y-70042080D01*
X90556353Y-70050000D01*
X90152190Y-70050000D01*
X90084069Y-70029998D01*
X90063095Y-70013095D01*
X89936905Y-69886905D01*
X89902879Y-69824593D01*
X89900000Y-69797810D01*
X89900000Y-68380207D01*
X89920002Y-68312086D01*
X89973658Y-68265593D01*
X90028309Y-68254228D01*
X90038742Y-68254419D01*
X90112998Y-68255780D01*
X90156086Y-68244033D01*
X90243763Y-68220130D01*
X90243765Y-68220129D01*
X90252422Y-68217769D01*
X90375572Y-68142154D01*
X90472551Y-68035014D01*
X90535560Y-67904962D01*
X90559536Y-67762453D01*
X90559688Y-67750000D01*
X90549347Y-67677796D01*
X90540474Y-67615835D01*
X90540473Y-67615833D01*
X90539201Y-67606948D01*
X90479388Y-67475395D01*
X90473530Y-67468596D01*
X90473527Y-67468592D01*
X90390916Y-67372718D01*
X90390913Y-67372716D01*
X90385056Y-67365918D01*
X90263790Y-67287317D01*
X90125337Y-67245910D01*
X90118887Y-67245871D01*
X90055625Y-67216552D01*
X90017575Y-67156613D01*
X90017971Y-67085617D01*
X90025468Y-67066455D01*
X90040127Y-67036467D01*
X90040128Y-67036463D01*
X90044423Y-67027677D01*
X90054500Y-66958602D01*
X90054500Y-66776000D01*
X90074502Y-66707879D01*
X90128158Y-66661386D01*
X90180500Y-66650000D01*
X92547810Y-66650000D01*
X92615931Y-66670002D01*
G37*
G04 #@! TD.AperFunction*
G04 #@! TA.AperFunction,Conductor*
G36*
X98815931Y-97920002D02*
G01*
X98836905Y-97936905D01*
X99208596Y-98308596D01*
X99242622Y-98370908D01*
X99245501Y-98397689D01*
X99245501Y-98641814D01*
X99248507Y-98673627D01*
X99293791Y-98802576D01*
X99374990Y-98912510D01*
X99382561Y-98918102D01*
X99399548Y-98930649D01*
X99442458Y-98987210D01*
X99447978Y-99057992D01*
X99414354Y-99120522D01*
X99352261Y-99154946D01*
X99324688Y-99158000D01*
X99305666Y-99158000D01*
X99305662Y-99158001D01*
X99273434Y-99158001D01*
X99263997Y-99161067D01*
X99263998Y-99161067D01*
X99252218Y-99164894D01*
X99232993Y-99169510D01*
X99210945Y-99173002D01*
X99191060Y-99183134D01*
X99172796Y-99190699D01*
X99161007Y-99194530D01*
X99161006Y-99194531D01*
X99151571Y-99197596D01*
X99143547Y-99203426D01*
X99143545Y-99203427D01*
X99133523Y-99210709D01*
X99116664Y-99221041D01*
X99100206Y-99229427D01*
X99096775Y-99231175D01*
X99095884Y-99229427D01*
X99032564Y-99250000D01*
X98150000Y-99250000D01*
X97950000Y-99400000D01*
X97950000Y-99561436D01*
X97941982Y-99605663D01*
X97926870Y-99645976D01*
X97920500Y-99704611D01*
X97920501Y-99990283D01*
X97920501Y-100177309D01*
X97900499Y-100245430D01*
X97883596Y-100266404D01*
X97736905Y-100413095D01*
X97674593Y-100447121D01*
X97647810Y-100450000D01*
X96502190Y-100450000D01*
X96434069Y-100429998D01*
X96413095Y-100413095D01*
X96336905Y-100336905D01*
X96302879Y-100274593D01*
X96300000Y-100247810D01*
X96300000Y-98152190D01*
X96320002Y-98084069D01*
X96336905Y-98063095D01*
X96463095Y-97936905D01*
X96525407Y-97902879D01*
X96552190Y-97900000D01*
X98747810Y-97900000D01*
X98815931Y-97920002D01*
G37*
G04 #@! TD.AperFunction*
G04 #@! TA.AperFunction,Conductor*
G36*
X96512471Y-74701245D02*
G01*
X96518510Y-74703132D01*
X96662998Y-74705780D01*
X96671663Y-74703418D01*
X96680565Y-74702309D01*
X96680618Y-74702737D01*
X96701066Y-74700000D01*
X97146994Y-74700000D01*
X97162471Y-74701245D01*
X97168510Y-74703132D01*
X97312998Y-74705780D01*
X97321663Y-74703418D01*
X97330565Y-74702309D01*
X97330618Y-74702737D01*
X97351066Y-74700000D01*
X99497810Y-74700000D01*
X99565931Y-74720002D01*
X99586905Y-74736905D01*
X100063095Y-75213095D01*
X100097121Y-75275407D01*
X100100000Y-75302190D01*
X100100000Y-77497810D01*
X100079998Y-77565931D01*
X100063095Y-77586905D01*
X99486905Y-78163095D01*
X99424593Y-78197121D01*
X99397810Y-78200000D01*
X98851910Y-78200000D01*
X98783789Y-78179998D01*
X98762815Y-78163095D01*
X97888569Y-77288849D01*
X97881143Y-77280745D01*
X97864648Y-77261087D01*
X97857560Y-77252640D01*
X97848015Y-77247129D01*
X97848011Y-77247126D01*
X97825790Y-77234297D01*
X97816520Y-77228392D01*
X97795496Y-77213671D01*
X97786466Y-77207348D01*
X97775814Y-77204494D01*
X97772953Y-77203160D01*
X97769987Y-77202081D01*
X97760440Y-77196568D01*
X97749584Y-77194654D01*
X97749579Y-77194652D01*
X97724310Y-77190196D01*
X97713581Y-77187818D01*
X97688794Y-77181177D01*
X97678143Y-77178323D01*
X97645522Y-77181177D01*
X97641590Y-77181521D01*
X97630608Y-77182000D01*
X97134190Y-77182000D01*
X97066069Y-77161998D01*
X97045095Y-77145095D01*
X96950000Y-77050000D01*
X94600000Y-77050000D01*
X94350000Y-77300000D01*
X94350000Y-77389900D01*
X94347579Y-77414481D01*
X94345500Y-77424933D01*
X94345500Y-77431121D01*
X94344985Y-77436350D01*
X94318403Y-77502182D01*
X94260449Y-77543192D01*
X94219592Y-77550000D01*
X93976000Y-77550000D01*
X93907879Y-77529998D01*
X93861386Y-77476342D01*
X93850000Y-77424000D01*
X93850000Y-75752190D01*
X93870002Y-75684069D01*
X93886905Y-75663095D01*
X94813095Y-74736905D01*
X94875407Y-74702879D01*
X94902190Y-74700000D01*
X96496994Y-74700000D01*
X96512471Y-74701245D01*
G37*
G04 #@! TD.AperFunction*
G04 #@! TA.AperFunction,Conductor*
G36*
X99515931Y-63070002D02*
G01*
X99536905Y-63086905D01*
X100113095Y-63663095D01*
X100147121Y-63725407D01*
X100150000Y-63752190D01*
X100150000Y-65697810D01*
X100129998Y-65765931D01*
X100113095Y-65786905D01*
X99786905Y-66113095D01*
X99724593Y-66147121D01*
X99697810Y-66150000D01*
X94800000Y-66150000D01*
X93700000Y-67250000D01*
X93700000Y-67824000D01*
X93679998Y-67892121D01*
X93626342Y-67938614D01*
X93574000Y-67950000D01*
X93302190Y-67950000D01*
X93234069Y-67929998D01*
X93213095Y-67913095D01*
X93136905Y-67836905D01*
X93102879Y-67774593D01*
X93100000Y-67747810D01*
X93100000Y-63502190D01*
X93120002Y-63434069D01*
X93136905Y-63413095D01*
X93463095Y-63086905D01*
X93525407Y-63052879D01*
X93552190Y-63050000D01*
X99447810Y-63050000D01*
X99515931Y-63070002D01*
G37*
G04 #@! TD.AperFunction*
G04 #@! TA.AperFunction,Conductor*
G36*
X72198683Y-100170002D02*
G01*
X72207622Y-100176803D01*
X72210276Y-100179960D01*
X72246250Y-100203906D01*
X72323101Y-100255063D01*
X72323103Y-100255064D01*
X72330574Y-100260037D01*
X72339138Y-100262713D01*
X72339141Y-100262714D01*
X72376722Y-100274455D01*
X72468510Y-100303132D01*
X72612998Y-100305780D01*
X72638579Y-100298806D01*
X72743763Y-100270130D01*
X72743765Y-100270129D01*
X72752422Y-100267769D01*
X72875572Y-100192154D01*
X72881596Y-100185499D01*
X72888501Y-100179766D01*
X72890785Y-100182516D01*
X72936780Y-100154357D01*
X72969629Y-100150000D01*
X75547810Y-100150000D01*
X75615931Y-100170002D01*
X75636905Y-100186905D01*
X75863095Y-100413095D01*
X75897121Y-100475407D01*
X75900000Y-100502190D01*
X75900000Y-101524000D01*
X75879998Y-101592121D01*
X75826342Y-101638614D01*
X75774000Y-101650000D01*
X71626000Y-101650000D01*
X71557879Y-101629998D01*
X71511386Y-101576342D01*
X71500000Y-101524000D01*
X71500000Y-101513663D01*
X71501282Y-101495732D01*
X71504361Y-101474320D01*
X71504361Y-101474313D01*
X71505000Y-101469872D01*
X71505000Y-101408887D01*
X71503438Y-101383258D01*
X71503395Y-101381185D01*
X71503734Y-101378326D01*
X71503249Y-101372158D01*
X71503338Y-101367641D01*
X71503578Y-101361965D01*
X71504239Y-101351785D01*
X71504240Y-101351760D01*
X71504288Y-101351026D01*
X71504758Y-101340154D01*
X71505000Y-101328946D01*
X71505000Y-101067013D01*
X71515759Y-101016066D01*
X71525256Y-100994584D01*
X71525256Y-100994583D01*
X71526580Y-100991589D01*
X71543139Y-100940285D01*
X71553899Y-100889338D01*
X71554240Y-100886075D01*
X71559160Y-100838973D01*
X71559160Y-100838967D01*
X71559500Y-100835715D01*
X71559500Y-100302190D01*
X71559407Y-100300455D01*
X71559369Y-100299734D01*
X71559388Y-100299656D01*
X71559365Y-100298812D01*
X71559588Y-100298806D01*
X71575702Y-100230642D01*
X71596094Y-100203906D01*
X71613095Y-100186905D01*
X71675407Y-100152879D01*
X71702190Y-100150000D01*
X72130562Y-100150000D01*
X72198683Y-100170002D01*
G37*
G04 #@! TD.AperFunction*
G04 #@! TA.AperFunction,Conductor*
G36*
X94142121Y-78924502D02*
G01*
X94188614Y-78978158D01*
X94200000Y-79030500D01*
X94200000Y-79297810D01*
X94179998Y-79365931D01*
X94163095Y-79386905D01*
X93300000Y-80250000D01*
X93300000Y-81947810D01*
X93279998Y-82015931D01*
X93263095Y-82036905D01*
X93036905Y-82263095D01*
X92974593Y-82297121D01*
X92947810Y-82300000D01*
X91923347Y-82300000D01*
X91855226Y-82279998D01*
X91808733Y-82226342D01*
X91797376Y-82176680D01*
X91792507Y-81947810D01*
X91756383Y-80250000D01*
X91751144Y-80003755D01*
X91769692Y-79935224D01*
X91788020Y-79911980D01*
X92013095Y-79686905D01*
X92075407Y-79652879D01*
X92102190Y-79650000D01*
X92700000Y-79650000D01*
X93408595Y-78941405D01*
X93470907Y-78907379D01*
X93497690Y-78904500D01*
X94074000Y-78904500D01*
X94142121Y-78924502D01*
G37*
G04 #@! TD.AperFunction*
G04 #@! TA.AperFunction,Conductor*
G36*
X67423069Y-99712635D02*
G01*
X67429695Y-99713804D01*
X67440419Y-99716182D01*
X67465212Y-99722825D01*
X67465214Y-99722825D01*
X67475857Y-99725677D01*
X67486832Y-99724717D01*
X67486833Y-99724717D01*
X67501668Y-99723419D01*
X67512416Y-99722479D01*
X67523394Y-99722000D01*
X70719810Y-99722000D01*
X70787931Y-99742002D01*
X70808905Y-99758905D01*
X71263095Y-100213095D01*
X71297121Y-100275407D01*
X71300000Y-100302190D01*
X71300000Y-100835715D01*
X71289240Y-100886662D01*
X71248534Y-100978737D01*
X71245500Y-101004762D01*
X71245500Y-101328946D01*
X71245030Y-101339818D01*
X71241706Y-101378198D01*
X71244217Y-101388308D01*
X71245034Y-101398688D01*
X71244260Y-101398749D01*
X71245500Y-101408887D01*
X71245500Y-101469872D01*
X71225498Y-101537993D01*
X71171842Y-101584486D01*
X71118732Y-101595870D01*
X70980827Y-101595028D01*
X70972193Y-101597495D01*
X70963306Y-101598713D01*
X70963149Y-101597565D01*
X70945780Y-101600000D01*
X70652190Y-101600000D01*
X70584069Y-101579998D01*
X70563095Y-101563095D01*
X70541405Y-101541405D01*
X70507379Y-101479093D01*
X70504500Y-101452310D01*
X70504500Y-101405700D01*
X70504798Y-101400963D01*
X70506568Y-101395045D01*
X70504597Y-101344876D01*
X70504500Y-101339930D01*
X70504500Y-101004762D01*
X70501341Y-100978211D01*
X70460677Y-100886662D01*
X70460017Y-100885177D01*
X70455293Y-100874542D01*
X70447059Y-100866322D01*
X70383244Y-100802618D01*
X70383242Y-100802617D01*
X70375012Y-100794401D01*
X70341654Y-100779654D01*
X70328991Y-100770974D01*
X70328708Y-100771492D01*
X70312811Y-100762811D01*
X70300000Y-100750000D01*
X70288120Y-100750000D01*
X70271354Y-100747756D01*
X70271263Y-100748534D01*
X70245238Y-100745500D01*
X70054762Y-100745500D01*
X70051074Y-100745939D01*
X70051070Y-100745939D01*
X70028211Y-100748659D01*
X70028106Y-100747781D01*
X70011655Y-100750000D01*
X69000000Y-100750000D01*
X67889095Y-101860905D01*
X67826783Y-101894931D01*
X67755968Y-101889866D01*
X67710905Y-101860905D01*
X66539095Y-100689095D01*
X66505069Y-100626783D01*
X66510134Y-100555968D01*
X66539095Y-100510905D01*
X66669141Y-100380859D01*
X66692307Y-100362579D01*
X66694347Y-100361326D01*
X66725572Y-100342154D01*
X66822551Y-100235014D01*
X66826463Y-100226939D01*
X66826729Y-100226545D01*
X66842093Y-100207907D01*
X67303831Y-99746169D01*
X67366143Y-99712143D01*
X67414810Y-99711179D01*
X67423069Y-99712635D01*
G37*
G04 #@! TD.AperFunction*
G04 #@! TA.AperFunction,Conductor*
G36*
X94792121Y-67920002D02*
G01*
X94838614Y-67973658D01*
X94850000Y-68026000D01*
X94850000Y-71150000D01*
X95250000Y-71550000D01*
X95797810Y-71550000D01*
X95865931Y-71570002D01*
X95886905Y-71586905D01*
X95960434Y-71660434D01*
X95994460Y-71722746D01*
X95990221Y-71791279D01*
X95973507Y-71838873D01*
X95970500Y-71870685D01*
X95970501Y-72379314D01*
X95970780Y-72382262D01*
X95970780Y-72382271D01*
X95973507Y-72411127D01*
X95970259Y-72411434D01*
X95966299Y-72467531D01*
X95937298Y-72512702D01*
X95836905Y-72613095D01*
X95774593Y-72647121D01*
X95747810Y-72650000D01*
X93552190Y-72650000D01*
X93484069Y-72629998D01*
X93463095Y-72613095D01*
X93186905Y-72336905D01*
X93152879Y-72274593D01*
X93150000Y-72247810D01*
X93150000Y-70702190D01*
X93170002Y-70634069D01*
X93186905Y-70613095D01*
X94000000Y-69800000D01*
X94000000Y-68026000D01*
X94020002Y-67957879D01*
X94073658Y-67911386D01*
X94126000Y-67900000D01*
X94724000Y-67900000D01*
X94792121Y-67920002D01*
G37*
G04 #@! TD.AperFunction*
G04 #@! TA.AperFunction,Conductor*
G36*
X95437622Y-77520002D02*
G01*
X95484115Y-77573658D01*
X95495501Y-77626000D01*
X95495501Y-77650066D01*
X95496709Y-77656138D01*
X95497579Y-77660514D01*
X95500000Y-77685093D01*
X95500000Y-77814900D01*
X95497579Y-77839481D01*
X95495500Y-77849933D01*
X95495501Y-78150066D01*
X95496709Y-78156138D01*
X95497579Y-78160514D01*
X95500000Y-78185093D01*
X95500000Y-78314900D01*
X95497579Y-78339481D01*
X95495500Y-78349933D01*
X95495501Y-78650066D01*
X95496709Y-78656138D01*
X95497579Y-78660514D01*
X95500000Y-78685093D01*
X95500000Y-78814900D01*
X95497579Y-78839481D01*
X95495500Y-78849933D01*
X95495501Y-79150066D01*
X95496709Y-79156138D01*
X95497579Y-79160514D01*
X95500000Y-79185093D01*
X95500000Y-82224000D01*
X95479998Y-82292121D01*
X95426342Y-82338614D01*
X95374000Y-82350000D01*
X94302190Y-82350000D01*
X94234069Y-82329998D01*
X94213095Y-82313095D01*
X93836905Y-81936905D01*
X93802879Y-81874593D01*
X93800000Y-81847810D01*
X93800000Y-80302190D01*
X93820002Y-80234069D01*
X93836905Y-80213095D01*
X94600000Y-79450000D01*
X94600000Y-79185100D01*
X94602421Y-79160519D01*
X94603293Y-79156135D01*
X94604500Y-79150067D01*
X94604499Y-78849934D01*
X94602421Y-78839486D01*
X94600000Y-78814907D01*
X94600000Y-78685100D01*
X94602421Y-78660519D01*
X94603293Y-78656135D01*
X94604500Y-78650067D01*
X94604499Y-78349934D01*
X94602421Y-78339486D01*
X94600000Y-78314907D01*
X94600000Y-77685100D01*
X94602421Y-77660519D01*
X94603293Y-77656135D01*
X94604500Y-77650067D01*
X94604500Y-77626000D01*
X94624502Y-77557879D01*
X94678158Y-77511386D01*
X94730500Y-77500000D01*
X95369501Y-77500000D01*
X95437622Y-77520002D01*
G37*
G04 #@! TD.AperFunction*
G04 #@! TA.AperFunction,Conductor*
G36*
X101665931Y-90970002D02*
G01*
X101686905Y-90986905D01*
X101763095Y-91063095D01*
X101797121Y-91125407D01*
X101800000Y-91152190D01*
X101800000Y-92448997D01*
X101799263Y-92462605D01*
X101795500Y-92497244D01*
X101795500Y-93242756D01*
X101795869Y-93246152D01*
X101795869Y-93246153D01*
X101799263Y-93277395D01*
X101800000Y-93291003D01*
X101800000Y-93500000D01*
X102363095Y-94063095D01*
X102397121Y-94125407D01*
X102400000Y-94152190D01*
X102400000Y-95747810D01*
X102379998Y-95815931D01*
X102363095Y-95836905D01*
X101446405Y-96753595D01*
X101384093Y-96787621D01*
X101357310Y-96790500D01*
X101352190Y-96790500D01*
X101350535Y-96790589D01*
X101350523Y-96790589D01*
X101327022Y-96791848D01*
X101324455Y-96791986D01*
X101322778Y-96792166D01*
X101322769Y-96792167D01*
X101303830Y-96794203D01*
X101303829Y-96794203D01*
X101297672Y-96794865D01*
X101242645Y-96812095D01*
X101206943Y-96823274D01*
X101206940Y-96823275D01*
X101201039Y-96825123D01*
X101195615Y-96828085D01*
X101195610Y-96828087D01*
X101164436Y-96845110D01*
X101138727Y-96859149D01*
X101135123Y-96861847D01*
X101117729Y-96874868D01*
X101051209Y-96899679D01*
X101042220Y-96900000D01*
X101005531Y-96900000D01*
X100933258Y-96877211D01*
X100924704Y-96871221D01*
X100916909Y-96863426D01*
X100834768Y-96825123D01*
X100820329Y-96818390D01*
X100820328Y-96818390D01*
X100811596Y-96814318D01*
X100802043Y-96813060D01*
X100802042Y-96813060D01*
X100767694Y-96808538D01*
X100767695Y-96808538D01*
X100763608Y-96808000D01*
X100536392Y-96808000D01*
X100532305Y-96808538D01*
X100532306Y-96808538D01*
X100497958Y-96813060D01*
X100497957Y-96813060D01*
X100488404Y-96814318D01*
X100479672Y-96818390D01*
X100479671Y-96818390D01*
X100393084Y-96858766D01*
X100383091Y-96863426D01*
X100300926Y-96945591D01*
X100251818Y-97050904D01*
X100245500Y-97098892D01*
X100245500Y-97874000D01*
X100225498Y-97942121D01*
X100171842Y-97988614D01*
X100119500Y-98000000D01*
X99552190Y-98000000D01*
X99484069Y-97979998D01*
X99463095Y-97963095D01*
X99286905Y-97786905D01*
X99252879Y-97724593D01*
X99250000Y-97697810D01*
X99250000Y-91302190D01*
X99270002Y-91234069D01*
X99286905Y-91213095D01*
X99513095Y-90986905D01*
X99575407Y-90952879D01*
X99602190Y-90950000D01*
X101597810Y-90950000D01*
X101665931Y-90970002D01*
G37*
G04 #@! TD.AperFunction*
G04 #@! TA.AperFunction,Conductor*
G36*
X108115931Y-98270002D02*
G01*
X108136905Y-98286905D01*
X108363095Y-98513095D01*
X108397121Y-98575407D01*
X108400000Y-98602190D01*
X108400000Y-99274000D01*
X108379998Y-99342121D01*
X108326342Y-99388614D01*
X108274000Y-99400000D01*
X102676000Y-99400000D01*
X102607879Y-99379998D01*
X102561386Y-99326342D01*
X102550000Y-99274000D01*
X102550000Y-98902190D01*
X102570002Y-98834069D01*
X102586905Y-98813095D01*
X102713095Y-98686905D01*
X102775407Y-98652879D01*
X102802190Y-98650000D01*
X105550000Y-98650000D01*
X105913095Y-98286905D01*
X105975407Y-98252879D01*
X106002190Y-98250000D01*
X108047810Y-98250000D01*
X108115931Y-98270002D01*
G37*
G04 #@! TD.AperFunction*
G04 #@! TA.AperFunction,Conductor*
G36*
X92965931Y-76320002D02*
G01*
X92986905Y-76336905D01*
X93513095Y-76863095D01*
X93547121Y-76925407D01*
X93550000Y-76952190D01*
X93550000Y-78297810D01*
X93529998Y-78365931D01*
X93513095Y-78386905D01*
X92586905Y-79313095D01*
X92524593Y-79347121D01*
X92497810Y-79350000D01*
X89402190Y-79350000D01*
X89334069Y-79329998D01*
X89313095Y-79313095D01*
X89236905Y-79236905D01*
X89202879Y-79174593D01*
X89200000Y-79147810D01*
X89200000Y-76552190D01*
X89220002Y-76484069D01*
X89236905Y-76463095D01*
X89363095Y-76336905D01*
X89425407Y-76302879D01*
X89452190Y-76300000D01*
X92897810Y-76300000D01*
X92965931Y-76320002D01*
G37*
G04 #@! TD.AperFunction*
G04 #@! TA.AperFunction,Conductor*
G36*
X92292121Y-98370002D02*
G01*
X92338614Y-98423658D01*
X92350000Y-98476000D01*
X92350000Y-98897810D01*
X92329998Y-98965931D01*
X92313095Y-98986905D01*
X91936905Y-99363095D01*
X91874593Y-99397121D01*
X91847810Y-99400000D01*
X91074572Y-99400000D01*
X91006451Y-99379998D01*
X90999007Y-99374826D01*
X90939817Y-99330465D01*
X90939814Y-99330463D01*
X90932635Y-99325083D01*
X90894299Y-99310712D01*
X90811419Y-99279642D01*
X90811418Y-99279642D01*
X90804024Y-99276870D01*
X90796174Y-99276017D01*
X90796173Y-99276017D01*
X90748786Y-99270869D01*
X90748785Y-99270869D01*
X90745389Y-99270500D01*
X90450044Y-99270500D01*
X90154612Y-99270501D01*
X90151218Y-99270870D01*
X90151212Y-99270870D01*
X90103834Y-99276016D01*
X90103830Y-99276017D01*
X90095976Y-99276870D01*
X89967365Y-99325083D01*
X89960186Y-99330463D01*
X89960183Y-99330465D01*
X89900993Y-99374826D01*
X89834487Y-99399674D01*
X89825428Y-99400000D01*
X89658047Y-99400000D01*
X89616299Y-99392882D01*
X89561127Y-99373507D01*
X89553485Y-99372785D01*
X89553482Y-99372784D01*
X89538579Y-99371376D01*
X89529315Y-99370500D01*
X89521658Y-99370500D01*
X89122690Y-99370501D01*
X89054571Y-99350499D01*
X89033596Y-99333596D01*
X88889405Y-99189405D01*
X88855379Y-99127093D01*
X88852500Y-99100310D01*
X88852500Y-98476000D01*
X88872502Y-98407879D01*
X88926158Y-98361386D01*
X88978500Y-98350000D01*
X92224000Y-98350000D01*
X92292121Y-98370002D01*
G37*
G04 #@! TD.AperFunction*
G04 #@! TA.AperFunction,Conductor*
G36*
X108242121Y-96920002D02*
G01*
X108288614Y-96973658D01*
X108300000Y-97026000D01*
X108300000Y-97497810D01*
X108279998Y-97565931D01*
X108263095Y-97586905D01*
X107936905Y-97913095D01*
X107874593Y-97947121D01*
X107847810Y-97950000D01*
X106152190Y-97950000D01*
X106084069Y-97929998D01*
X106063095Y-97913095D01*
X105786905Y-97636905D01*
X105752879Y-97574593D01*
X105750000Y-97547810D01*
X105750000Y-97026000D01*
X105770002Y-96957879D01*
X105823658Y-96911386D01*
X105876000Y-96900000D01*
X108174000Y-96900000D01*
X108242121Y-96920002D01*
G37*
G04 #@! TD.AperFunction*
G04 #@! TA.AperFunction,Conductor*
G36*
X85092121Y-102470002D02*
G01*
X85138614Y-102523658D01*
X85150000Y-102576000D01*
X85150000Y-104247810D01*
X85129998Y-104315931D01*
X85113095Y-104336905D01*
X84936905Y-104513095D01*
X84874593Y-104547121D01*
X84847810Y-104550000D01*
X83405157Y-104550000D01*
X83337036Y-104529998D01*
X83290543Y-104476342D01*
X83281189Y-104446539D01*
X83211810Y-104064951D01*
X83219304Y-103994351D01*
X83246683Y-103953317D01*
X84300000Y-102900000D01*
X84300000Y-102576000D01*
X84320002Y-102507879D01*
X84373658Y-102461386D01*
X84426000Y-102450000D01*
X85024000Y-102450000D01*
X85092121Y-102470002D01*
G37*
G04 #@! TD.AperFunction*
G04 #@! TA.AperFunction,Conductor*
G36*
X104915931Y-92320002D02*
G01*
X104936905Y-92336905D01*
X105213095Y-92613095D01*
X105247121Y-92675407D01*
X105250000Y-92702190D01*
X105250000Y-98197810D01*
X105229998Y-98265931D01*
X105213095Y-98286905D01*
X105186905Y-98313095D01*
X105124593Y-98347121D01*
X105097810Y-98350000D01*
X102450000Y-98350000D01*
X101766543Y-99033457D01*
X101728621Y-99059502D01*
X101531435Y-99147140D01*
X101480262Y-99158000D01*
X101260190Y-99158000D01*
X101192069Y-99137998D01*
X101171095Y-99121095D01*
X101136905Y-99086905D01*
X101102879Y-99024593D01*
X101100000Y-98997810D01*
X101100000Y-97302190D01*
X101120002Y-97234069D01*
X101136905Y-97213095D01*
X101263095Y-97086905D01*
X101325407Y-97052879D01*
X101352190Y-97050000D01*
X102900000Y-97050000D01*
X102900000Y-93900000D01*
X102236905Y-93236905D01*
X102202879Y-93174593D01*
X102200000Y-93147810D01*
X102200000Y-92426000D01*
X102220002Y-92357879D01*
X102273658Y-92311386D01*
X102326000Y-92300000D01*
X104847810Y-92300000D01*
X104915931Y-92320002D01*
G37*
G04 #@! TD.AperFunction*
G04 #@! TA.AperFunction,Conductor*
G36*
X73065931Y-102320002D02*
G01*
X73086905Y-102336905D01*
X73450000Y-102700000D01*
X75597810Y-102700000D01*
X75665931Y-102720002D01*
X75686905Y-102736905D01*
X76013095Y-103063095D01*
X76047121Y-103125407D01*
X76050000Y-103152190D01*
X76050000Y-104674000D01*
X76029998Y-104742121D01*
X75976342Y-104788614D01*
X75924000Y-104800000D01*
X71900000Y-104800000D01*
X71900000Y-105624000D01*
X71879998Y-105692121D01*
X71826342Y-105738614D01*
X71774000Y-105750000D01*
X71326000Y-105750000D01*
X71257879Y-105729998D01*
X71211386Y-105676342D01*
X71200000Y-105624000D01*
X71200000Y-103409015D01*
X71220002Y-103340894D01*
X71245337Y-103312219D01*
X71486083Y-103111598D01*
X71486084Y-103111597D01*
X71500000Y-103100000D01*
X71500000Y-102426000D01*
X71520002Y-102357879D01*
X71573658Y-102311386D01*
X71626000Y-102300000D01*
X72997810Y-102300000D01*
X73065931Y-102320002D01*
G37*
G04 #@! TD.AperFunction*
G04 #@! TA.AperFunction,Conductor*
G36*
X93642121Y-69270002D02*
G01*
X93688614Y-69323658D01*
X93700000Y-69376000D01*
X93700000Y-69447810D01*
X93679998Y-69515931D01*
X93663095Y-69536905D01*
X92750000Y-70450000D01*
X92750000Y-72040291D01*
X92729998Y-72108412D01*
X92703788Y-72137810D01*
X92234810Y-72521519D01*
X92169421Y-72549175D01*
X92155022Y-72550000D01*
X91076000Y-72550000D01*
X91007879Y-72529998D01*
X90961386Y-72476342D01*
X90950000Y-72424000D01*
X90950000Y-70352190D01*
X90970002Y-70284069D01*
X90986905Y-70263095D01*
X91363095Y-69886905D01*
X91425407Y-69852879D01*
X91452190Y-69850000D01*
X92100000Y-69850000D01*
X92653595Y-69296405D01*
X92715907Y-69262379D01*
X92742690Y-69259500D01*
X93066392Y-69259500D01*
X93110998Y-69255107D01*
X93123347Y-69254500D01*
X93501834Y-69254500D01*
X93520453Y-69251551D01*
X93540164Y-69250000D01*
X93574000Y-69250000D01*
X93642121Y-69270002D01*
G37*
G04 #@! TD.AperFunction*
G04 #@! TA.AperFunction,Conductor*
G36*
X82115931Y-105370002D02*
G01*
X82136905Y-105386905D01*
X82263095Y-105513095D01*
X82297121Y-105575407D01*
X82300000Y-105602190D01*
X82300000Y-106350000D01*
X82500000Y-106550000D01*
X83047810Y-106550000D01*
X83115931Y-106570002D01*
X83136905Y-106586905D01*
X83333595Y-106783595D01*
X83367621Y-106845907D01*
X83370500Y-106872690D01*
X83370501Y-107195388D01*
X83376870Y-107254024D01*
X83379644Y-107261423D01*
X83379644Y-107261424D01*
X83380870Y-107264693D01*
X83381069Y-107267417D01*
X83381471Y-107269106D01*
X83381198Y-107269171D01*
X83386053Y-107335500D01*
X83351983Y-107398017D01*
X82836905Y-107913095D01*
X82774593Y-107947121D01*
X82747810Y-107950000D01*
X81102190Y-107950000D01*
X81034069Y-107929998D01*
X81013095Y-107913095D01*
X80450000Y-107350000D01*
X79965908Y-107350000D01*
X79916648Y-107339170D01*
X79913790Y-107337317D01*
X79905193Y-107334746D01*
X79905191Y-107334745D01*
X79783938Y-107298482D01*
X79783936Y-107298482D01*
X79775337Y-107295910D01*
X79766363Y-107295855D01*
X79766361Y-107295855D01*
X79703082Y-107295469D01*
X79630827Y-107295028D01*
X79622196Y-107297495D01*
X79622194Y-107297495D01*
X79500510Y-107332272D01*
X79500508Y-107332273D01*
X79491879Y-107334739D01*
X79484928Y-107339125D01*
X79433983Y-107350000D01*
X77352190Y-107350000D01*
X77284069Y-107329998D01*
X77263095Y-107313095D01*
X77086905Y-107136905D01*
X77052879Y-107074593D01*
X77050000Y-107047810D01*
X77050000Y-106202190D01*
X77070002Y-106134069D01*
X77086905Y-106113095D01*
X77783822Y-105416178D01*
X77846134Y-105382152D01*
X77910491Y-105385006D01*
X77959940Y-105400455D01*
X77959943Y-105400456D01*
X77968510Y-105403132D01*
X78112998Y-105405780D01*
X78132530Y-105400455D01*
X78243763Y-105370130D01*
X78243765Y-105370129D01*
X78252422Y-105367769D01*
X78260068Y-105363074D01*
X78266336Y-105360362D01*
X78316374Y-105350000D01*
X82047810Y-105350000D01*
X82115931Y-105370002D01*
G37*
G04 #@! TD.AperFunction*
M02*
