M48
; DRILL file {KiCad (6.0.7)} date Thu Oct 27 11:50:33 2022
; FORMAT={-:-/ absolute / metric / decimal}
; #@! TF.CreationDate,2022-10-27T11:50:33+02:00
; #@! TF.GenerationSoftware,Kicad,Pcbnew,(6.0.7)
; #@! TF.FileFunction,Plated,1,4,PTH
FMAT,2
METRIC
; #@! TA.AperFunction,Plated,PTH,ViaDrill
T1C0.200
; #@! TA.AperFunction,Plated,PTH,ComponentDrill
T2C0.450
; #@! TA.AperFunction,Plated,PTH,ComponentDrill
T3C0.800
; #@! TA.AperFunction,Plated,PTH,ComponentDrill
T4C0.950
; #@! TA.AperFunction,Plated,PTH,ComponentDrill
T5C1.000
; #@! TA.AperFunction,Plated,PTH,ComponentDrill
T6C1.190
%
G90
G05
T1
X66.4Y-98.3
X66.4Y-99.25
X66.4Y-99.95
X68.0Y-108.6
X69.1Y-98.964
X71.05Y-102.1
X71.55Y-106.8
X72.45Y-107.8
X72.55Y-99.8
X72.75Y-98.55
X73.25Y-103.05
X73.4Y-100.75
X73.95Y-103.05
X74.0Y-100.75
X74.6Y-100.75
X75.09Y-103.05
X75.15Y-100.75
X75.8Y-103.049
X76.0Y-109.95
X76.6Y-104.4
X77.186Y-100.736
X77.45Y-106.15
X77.6Y-109.2
X77.7Y-100.3
X78.05Y-104.9
X78.45Y-101.3
X78.6Y-102.7
X79.2Y-109.35
X79.573Y-106.203
X79.7Y-107.8
X80.05Y-62.2
X80.05Y-79.9
X80.551Y-108.573
X80.75Y-88.7
X80.787Y-67.337
X80.787Y-85.263
X80.787Y-94.087
X80.8Y-70.8
X80.9Y-106.85
X81.55Y-106.85
X81.64Y-101.35
X81.75Y-65.5
X81.75Y-66.05
X81.75Y-66.6
X81.75Y-74.5
X81.75Y-75.05
X81.75Y-75.6
X81.75Y-83.5
X81.75Y-84.05
X81.75Y-84.6
X81.75Y-92.35
X81.75Y-92.9
X81.75Y-93.45
X81.8Y-110.15
X82.0Y-103.276
X82.15Y-62.75
X82.2Y-63.7
X82.2Y-90.8
X82.212Y-89.837
X82.25Y-68.3
X82.25Y-69.3
X82.25Y-71.75
X82.25Y-72.8
X82.25Y-77.1
X82.25Y-78.25
X82.25Y-80.7
X82.25Y-81.9
X82.25Y-86.25
X82.25Y-87.25
X82.25Y-94.9
X82.25Y-96.1
X82.25Y-106.85
X82.3Y-101.65
X82.583Y-108.528
X82.7Y-103.3
X82.76Y-110.15
X83.0Y-106.85
X83.2Y-101.45
X83.2Y-110.7
X83.4Y-79.45
X83.75Y-110.25
X84.3Y-79.1
X84.35Y-70.053
X84.373Y-69.427
X84.4Y-68.801
X84.414Y-68.165
X84.423Y-80.65
X84.423Y-81.277
X84.423Y-81.903
X84.423Y-82.6
X84.5Y-78.5
X84.5Y-87.5
X84.5Y-88.15
X84.55Y-96.2
X84.6Y-71.9
X84.6Y-72.55
X84.6Y-73.25
X84.6Y-73.9
X84.6Y-77.85
X84.6Y-86.85
X84.6Y-103.3
X84.65Y-62.9
X84.65Y-63.55
X84.65Y-64.25
X84.65Y-64.9
X84.65Y-89.9
X84.65Y-90.55
X84.65Y-91.25
X84.65Y-95.55
X84.7Y-91.9
X84.7Y-110.55
X84.8Y-107.4
X84.926Y-77.2
X84.926Y-86.2
X84.977Y-94.9
X85.307Y-109.51
X85.65Y-102.45
X86.398Y-104.94
X86.4Y-110.6
X86.437Y-107.1
X86.5Y-108.4
X86.702Y-109.933
X86.8Y-85.65
X87.0Y-75.95
X87.45Y-103.6
X87.55Y-93.95
X87.6Y-102.9
X87.9Y-71.95
X87.9Y-93.15
X87.95Y-62.95
X88.0Y-89.25
X88.0Y-90.55
X88.05Y-75.85
X88.089Y-103.883
X88.448Y-67.8
X88.85Y-102.7
X89.1Y-86.35
X89.2Y-99.1
X89.55Y-76.6
X89.55Y-77.2
X89.55Y-77.8
X89.55Y-78.4
X89.55Y-79.0
X90.05Y-67.75
X90.15Y-74.55
X90.15Y-79.95
X90.16Y-80.6
X90.189Y-83.311
X90.2Y-66.9
X90.2Y-68.55
X90.2Y-69.15
X90.2Y-69.75
X90.3Y-65.5
X90.3Y-71.3
X90.35Y-63.55
X90.35Y-72.55
X90.4Y-81.25
X90.4Y-81.9
X90.45Y-91.2
X90.45Y-91.9
X90.75Y-102.7
X90.79Y-64.05
X90.79Y-73.05
X90.9Y-82.3
X91.23Y-64.55
X91.23Y-73.6
X91.35Y-99.0
X91.95Y-99.0
X92.45Y-70.75
X92.45Y-71.35
X92.45Y-71.95
X92.55Y-89.5
X92.95Y-99.45
X92.95Y-100.875
X92.975Y-98.475
X93.0Y-80.1
X93.0Y-81.0
X93.0Y-81.85
X93.15Y-87.4
X93.45Y-70.75
X93.45Y-71.35
X93.45Y-72.0
X94.1Y-80.35
X94.1Y-81.0
X94.1Y-81.8
X94.284Y-88.2
X94.3Y-68.2
X94.3Y-69.0
X94.74Y-88.75
X95.05Y-77.9
X95.05Y-78.65
X95.8Y-92.5
X95.8Y-93.1
X95.8Y-93.7
X95.8Y-94.3
X95.8Y-94.9
X95.8Y-95.5
X96.15Y-73.65
X96.6Y-74.2
X97.25Y-74.2
X97.406Y-73.593
X98.6Y-85.85
X98.6Y-86.6
X98.6Y-87.45
X98.65Y-71.45
X99.2Y-85.15
X99.35Y-87.95
X99.55Y-71.45
X99.6Y-96.5
X100.0Y-85.15
X100.25Y-96.5
X100.3Y-87.95
X100.5Y-71.45
X100.6Y-81.2
X100.6Y-82.05
X100.6Y-82.95
X100.8Y-93.577
X101.45Y-93.577
X102.1Y-94.35
X102.1Y-95.0
X102.1Y-95.65
X102.95Y-98.9
X103.6Y-98.9
X104.25Y-98.9
X104.9Y-98.9
X106.2Y-97.7
X106.3Y-98.55
X106.9Y-97.7
X106.9Y-98.55
X107.5Y-98.55
X107.6Y-97.7
T3
X99.95Y-86.5
X102.45Y-86.5
X105.65Y-69.518
X105.65Y-72.018
X105.7Y-80.218
X105.7Y-82.718
T4
X60.8Y-70.35
X60.8Y-72.85
X60.8Y-75.35
X60.8Y-81.1
X60.8Y-83.6
X60.8Y-86.1
X67.8Y-63.5
X67.8Y-68.0
X67.8Y-72.5
X67.8Y-77.0
X67.8Y-81.5
X67.8Y-86.0
X67.8Y-90.5
X67.8Y-95.0
X70.3Y-63.5
X70.3Y-68.0
X70.3Y-72.5
X70.3Y-77.0
X70.3Y-81.5
X70.3Y-86.0
X70.3Y-90.5
X70.3Y-95.0
X72.8Y-63.5
X72.8Y-68.0
X72.8Y-72.5
X72.8Y-77.0
X72.8Y-81.5
X72.8Y-86.0
X72.8Y-90.5
X72.8Y-95.0
X75.3Y-63.5
X75.3Y-68.0
X75.3Y-72.5
X75.3Y-77.0
X75.3Y-81.5
X75.3Y-86.0
X75.3Y-90.5
X75.3Y-95.0
X77.8Y-63.5
X77.8Y-68.0
X77.8Y-72.5
X77.8Y-77.0
X77.8Y-81.5
X77.8Y-86.0
X77.8Y-90.5
X77.8Y-95.0
T5
X60.8Y-91.7
X60.8Y-94.2
X60.8Y-99.85
X60.8Y-102.35
X81.395Y-99.8
X83.935Y-99.8
X86.475Y-99.8
X89.175Y-107.31
X89.175Y-109.85
T6
X93.58Y-104.96
X93.58Y-107.5
X93.58Y-110.04
X99.18Y-76.23
X99.23Y-64.68
X99.78Y-104.96
X99.78Y-107.5
X99.78Y-110.04
X101.72Y-76.23
X101.77Y-64.68
T2
X65.675Y-110.45G85X65.675Y-109.65
G05
X72.825Y-109.65G85X72.825Y-110.45
G05
T0
M30
