%TF.GenerationSoftware,KiCad,Pcbnew,(6.0.7)*%
%TF.CreationDate,2022-10-27T11:49:25+02:00*%
%TF.ProjectId,PressureSensor,50726573-7375-4726-9553-656e736f722e,rev?*%
%TF.SameCoordinates,Original*%
%TF.FileFunction,Drillmap*%
%TF.FilePolarity,Positive*%
%FSLAX45Y45*%
G04 Gerber Fmt 4.5, Leading zero omitted, Abs format (unit mm)*
G04 Created by KiCad (PCBNEW (6.0.7)) date 2022-10-27 11:49:25*
%MOMM*%
%LPD*%
G01*
G04 APERTURE LIST*
%ADD10C,0.100000*%
%ADD11C,0.200000*%
G04 APERTURE END LIST*
D10*
X16800000Y-7400000D02*
G75*
G03*
X16800000Y-7400000I-500000J0D01*
G01*
D11*
X16052619Y-8215476D02*
X16052619Y-8015476D01*
X16100238Y-8015476D01*
X16128809Y-8025000D01*
X16147857Y-8044048D01*
X16157381Y-8063095D01*
X16166905Y-8101190D01*
X16166905Y-8129762D01*
X16157381Y-8167857D01*
X16147857Y-8186905D01*
X16128809Y-8205952D01*
X16100238Y-8215476D01*
X16052619Y-8215476D01*
X16252619Y-8215476D02*
X16252619Y-8082143D01*
X16252619Y-8120238D02*
X16262143Y-8101190D01*
X16271667Y-8091667D01*
X16290714Y-8082143D01*
X16309762Y-8082143D01*
X16376428Y-8215476D02*
X16376428Y-8082143D01*
X16376428Y-8015476D02*
X16366905Y-8025000D01*
X16376428Y-8034524D01*
X16385952Y-8025000D01*
X16376428Y-8015476D01*
X16376428Y-8034524D01*
X16500238Y-8215476D02*
X16481190Y-8205952D01*
X16471667Y-8186905D01*
X16471667Y-8015476D01*
X16605000Y-8215476D02*
X16585952Y-8205952D01*
X16576428Y-8186905D01*
X16576428Y-8015476D01*
X16833571Y-8215476D02*
X16833571Y-8015476D01*
X16900238Y-8158333D01*
X16966905Y-8015476D01*
X16966905Y-8215476D01*
X17147857Y-8215476D02*
X17147857Y-8110714D01*
X17138333Y-8091667D01*
X17119286Y-8082143D01*
X17081190Y-8082143D01*
X17062143Y-8091667D01*
X17147857Y-8205952D02*
X17128810Y-8215476D01*
X17081190Y-8215476D01*
X17062143Y-8205952D01*
X17052619Y-8186905D01*
X17052619Y-8167857D01*
X17062143Y-8148809D01*
X17081190Y-8139286D01*
X17128810Y-8139286D01*
X17147857Y-8129762D01*
X17243095Y-8082143D02*
X17243095Y-8282143D01*
X17243095Y-8091667D02*
X17262143Y-8082143D01*
X17300238Y-8082143D01*
X17319286Y-8091667D01*
X17328810Y-8101190D01*
X17338333Y-8120238D01*
X17338333Y-8177381D01*
X17328810Y-8196428D01*
X17319286Y-8205952D01*
X17300238Y-8215476D01*
X17262143Y-8215476D01*
X17243095Y-8205952D01*
X17424048Y-8196428D02*
X17433571Y-8205952D01*
X17424048Y-8215476D01*
X17414524Y-8205952D01*
X17424048Y-8196428D01*
X17424048Y-8215476D01*
X17424048Y-8091667D02*
X17433571Y-8101190D01*
X17424048Y-8110714D01*
X17414524Y-8101190D01*
X17424048Y-8091667D01*
X17424048Y-8110714D01*
M02*
