G04 #@! TF.GenerationSoftware,KiCad,Pcbnew,(6.0.7)*
G04 #@! TF.CreationDate,2022-10-27T11:51:29+02:00*
G04 #@! TF.ProjectId,reservoirCon,72657365-7276-46f6-9972-436f6e2e6b69,rev?*
G04 #@! TF.SameCoordinates,Original*
G04 #@! TF.FileFunction,Soldermask,Top*
G04 #@! TF.FilePolarity,Negative*
%FSLAX46Y46*%
G04 Gerber Fmt 4.6, Leading zero omitted, Abs format (unit mm)*
G04 Created by KiCad (PCBNEW (6.0.7)) date 2022-10-27 11:51:29*
%MOMM*%
%LPD*%
G01*
G04 APERTURE LIST*
G04 Aperture macros list*
%AMRoundRect*
0 Rectangle with rounded corners*
0 $1 Rounding radius*
0 $2 $3 $4 $5 $6 $7 $8 $9 X,Y pos of 4 corners*
0 Add a 4 corners polygon primitive as box body*
4,1,4,$2,$3,$4,$5,$6,$7,$8,$9,$2,$3,0*
0 Add four circle primitives for the rounded corners*
1,1,$1+$1,$2,$3*
1,1,$1+$1,$4,$5*
1,1,$1+$1,$6,$7*
1,1,$1+$1,$8,$9*
0 Add four rect primitives between the rounded corners*
20,1,$1+$1,$2,$3,$4,$5,0*
20,1,$1+$1,$4,$5,$6,$7,0*
20,1,$1+$1,$6,$7,$8,$9,0*
20,1,$1+$1,$8,$9,$2,$3,0*%
G04 Aperture macros list end*
%ADD10RoundRect,0.300000X-0.600000X-0.750000X0.600000X-0.750000X0.600000X0.750000X-0.600000X0.750000X0*%
%ADD11O,1.800000X2.100000*%
%ADD12RoundRect,0.250000X-0.275000X0.200000X-0.275000X-0.200000X0.275000X-0.200000X0.275000X0.200000X0*%
%ADD13RoundRect,0.250000X-0.200000X-0.275000X0.200000X-0.275000X0.200000X0.275000X-0.200000X0.275000X0*%
%ADD14RoundRect,0.250000X0.275000X-0.200000X0.275000X0.200000X-0.275000X0.200000X-0.275000X-0.200000X0*%
%ADD15RoundRect,0.100000X-0.387500X-0.050000X0.387500X-0.050000X0.387500X0.050000X-0.387500X0.050000X0*%
%ADD16RoundRect,0.100000X-0.050000X-0.387500X0.050000X-0.387500X0.050000X0.387500X-0.050000X0.387500X0*%
%ADD17RoundRect,0.050000X-1.600000X-1.600000X1.600000X-1.600000X1.600000X1.600000X-1.600000X1.600000X0*%
%ADD18RoundRect,0.050000X0.850000X0.850000X-0.850000X0.850000X-0.850000X-0.850000X0.850000X-0.850000X0*%
%ADD19O,1.800000X1.800000*%
%ADD20RoundRect,0.250000X0.200000X0.275000X-0.200000X0.275000X-0.200000X-0.275000X0.200000X-0.275000X0*%
%ADD21C,3.300000*%
%ADD22RoundRect,0.300000X0.750000X-0.600000X0.750000X0.600000X-0.750000X0.600000X-0.750000X-0.600000X0*%
%ADD23O,2.100000X1.800000*%
%ADD24RoundRect,0.300000X0.845000X-0.620000X0.845000X0.620000X-0.845000X0.620000X-0.845000X-0.620000X0*%
%ADD25O,2.290000X1.840000*%
%ADD26RoundRect,0.300000X-0.600000X-0.725000X0.600000X-0.725000X0.600000X0.725000X-0.600000X0.725000X0*%
%ADD27O,1.800000X2.050000*%
%ADD28RoundRect,0.275000X0.250000X-0.225000X0.250000X0.225000X-0.250000X0.225000X-0.250000X-0.225000X0*%
%ADD29RoundRect,0.200000X0.512500X0.150000X-0.512500X0.150000X-0.512500X-0.150000X0.512500X-0.150000X0*%
%ADD30RoundRect,0.275000X-0.250000X0.225000X-0.250000X-0.225000X0.250000X-0.225000X0.250000X0.225000X0*%
%ADD31RoundRect,0.268750X-0.218750X-0.256250X0.218750X-0.256250X0.218750X0.256250X-0.218750X0.256250X0*%
%ADD32RoundRect,0.268750X0.218750X0.381250X-0.218750X0.381250X-0.218750X-0.381250X0.218750X-0.381250X0*%
%ADD33RoundRect,0.275000X0.225000X0.250000X-0.225000X0.250000X-0.225000X-0.250000X0.225000X-0.250000X0*%
%ADD34RoundRect,0.050000X0.200000X0.700000X-0.200000X0.700000X-0.200000X-0.700000X0.200000X-0.700000X0*%
%ADD35RoundRect,0.050000X0.875000X0.950000X-0.875000X0.950000X-0.875000X-0.950000X0.875000X-0.950000X0*%
%ADD36RoundRect,0.050000X0.575000X0.725000X-0.575000X0.725000X-0.575000X-0.725000X0.575000X-0.725000X0*%
%ADD37O,1.150000X2.000000*%
%ADD38RoundRect,0.300000X1.100000X-0.325000X1.100000X0.325000X-1.100000X0.325000X-1.100000X-0.325000X0*%
G04 APERTURE END LIST*
D10*
X162250000Y-107000000D03*
D11*
X164750000Y-107000000D03*
D12*
X166333750Y-101450000D03*
X166333750Y-103100000D03*
D13*
X144675000Y-118900000D03*
X146325000Y-118900000D03*
D14*
X151700000Y-116225000D03*
X151700000Y-114575000D03*
D15*
X146662500Y-104200000D03*
X146662500Y-104600000D03*
X146662500Y-105000000D03*
X146662500Y-105400000D03*
X146662500Y-105800000D03*
X146662500Y-106200000D03*
X146662500Y-106600000D03*
X146662500Y-107000000D03*
X146662500Y-107400000D03*
X146662500Y-107800000D03*
X146662500Y-108200000D03*
X146662500Y-108600000D03*
X146662500Y-109000000D03*
X146662500Y-109400000D03*
D16*
X147500000Y-110237500D03*
X147900000Y-110237500D03*
X148300000Y-110237500D03*
X148700000Y-110237500D03*
X149100000Y-110237500D03*
X149500000Y-110237500D03*
X149900000Y-110237500D03*
X150300000Y-110237500D03*
X150700000Y-110237500D03*
X151100000Y-110237500D03*
X151500000Y-110237500D03*
X151900000Y-110237500D03*
X152300000Y-110237500D03*
X152700000Y-110237500D03*
D15*
X153537500Y-109400000D03*
X153537500Y-109000000D03*
X153537500Y-108600000D03*
X153537500Y-108200000D03*
X153537500Y-107800000D03*
X153537500Y-107400000D03*
X153537500Y-107000000D03*
X153537500Y-106600000D03*
X153537500Y-106200000D03*
X153537500Y-105800000D03*
X153537500Y-105400000D03*
X153537500Y-105000000D03*
X153537500Y-104600000D03*
X153537500Y-104200000D03*
D16*
X152700000Y-103362500D03*
X152300000Y-103362500D03*
X151900000Y-103362500D03*
X151500000Y-103362500D03*
X151100000Y-103362500D03*
X150700000Y-103362500D03*
X150300000Y-103362500D03*
X149900000Y-103362500D03*
X149500000Y-103362500D03*
X149100000Y-103362500D03*
X148700000Y-103362500D03*
X148300000Y-103362500D03*
X147900000Y-103362500D03*
X147500000Y-103362500D03*
D17*
X150100000Y-106800000D03*
D18*
X145000000Y-98200000D03*
D19*
X145000000Y-95660000D03*
D20*
X142725000Y-117000000D03*
X141075000Y-117000000D03*
D21*
X164400000Y-97000000D03*
D22*
X159000000Y-99150000D03*
D23*
X159000000Y-96650000D03*
D21*
X164400000Y-121000000D03*
D24*
X140420000Y-114440000D03*
D25*
X140420000Y-111900000D03*
X140420000Y-109360000D03*
D26*
X147950000Y-121700000D03*
D27*
X150450000Y-121700000D03*
X152950000Y-121700000D03*
X155450000Y-121700000D03*
D28*
X154300000Y-116175000D03*
X154300000Y-114625000D03*
D12*
X153000000Y-114575000D03*
X153000000Y-116225000D03*
D29*
X164821250Y-104095000D03*
X164821250Y-103145000D03*
X164821250Y-102195000D03*
X162546250Y-102195000D03*
X162546250Y-104095000D03*
D30*
X161033750Y-102800000D03*
X161033750Y-104350000D03*
X150400000Y-114625000D03*
X150400000Y-116175000D03*
D24*
X140420000Y-106440000D03*
D25*
X140420000Y-103900000D03*
X140420000Y-101360000D03*
D10*
X162250000Y-111300000D03*
D11*
X164750000Y-111300000D03*
D13*
X156600000Y-107700000D03*
X158250000Y-107700000D03*
D14*
X144300000Y-101825000D03*
X144300000Y-100175000D03*
D21*
X140400000Y-121000000D03*
D14*
X158496250Y-104390000D03*
X158496250Y-102740000D03*
D31*
X138312500Y-117000000D03*
X139887500Y-117000000D03*
D32*
X152362500Y-113200000D03*
X150237500Y-113200000D03*
D28*
X155600000Y-115575000D03*
X155600000Y-114025000D03*
D13*
X156600000Y-106500000D03*
X158250000Y-106500000D03*
D14*
X144300000Y-108625000D03*
X144300000Y-106975000D03*
X159783750Y-104370000D03*
X159783750Y-102720000D03*
D13*
X154075000Y-112900000D03*
X155725000Y-112900000D03*
X156600000Y-108900000D03*
X158250000Y-108900000D03*
D33*
X165008750Y-101075000D03*
X163458750Y-101075000D03*
D10*
X162200000Y-115600000D03*
D11*
X164700000Y-115600000D03*
D12*
X144300000Y-103075000D03*
X144300000Y-104725000D03*
D21*
X140400000Y-97000000D03*
D34*
X152300000Y-98450000D03*
X151650000Y-98450000D03*
X151000000Y-98450000D03*
X150350000Y-98450000D03*
X149700000Y-98450000D03*
D35*
X149875000Y-95800000D03*
X152125000Y-95800000D03*
D36*
X148680000Y-98030000D03*
D37*
X154575000Y-95800000D03*
X147425000Y-95800000D03*
D36*
X153320000Y-98030000D03*
D38*
X148200000Y-116175000D03*
X148200000Y-113225000D03*
D12*
X150800000Y-99975000D03*
X150800000Y-101625000D03*
X152000000Y-99975000D03*
X152000000Y-101625000D03*
D18*
X157700000Y-116325000D03*
D19*
X157700000Y-113785000D03*
X157700000Y-111245000D03*
D13*
X144675000Y-117600000D03*
X146325000Y-117600000D03*
M02*
