M48
; DRILL file {KiCad (6.0.7)} date Thu Oct 27 11:51:32 2022
; FORMAT={-:-/ absolute / metric / decimal}
; #@! TF.CreationDate,2022-10-27T11:51:32+02:00
; #@! TF.GenerationSoftware,Kicad,Pcbnew,(6.0.7)
; #@! TF.FileFunction,Plated,1,4,PTH
FMAT,2
METRIC
; #@! TA.AperFunction,Plated,PTH,ViaDrill
T1C0.200
; #@! TA.AperFunction,Plated,PTH,ComponentDrill
T2C0.450
; #@! TA.AperFunction,Plated,PTH,ComponentDrill
T3C0.950
; #@! TA.AperFunction,Plated,PTH,ComponentDrill
T4C1.000
; #@! TA.AperFunction,Plated,PTH,ComponentDrill
T5C1.190
%
G90
G05
T1
X138.3Y-116.0
X145.6Y-105.7
X145.7Y-108.3
X145.8Y-103.108
X145.9Y-104.0
X146.4Y-113.0
X146.4Y-113.6
X146.4Y-114.3
X146.4Y-115.0
X146.6Y-101.608
X146.6Y-102.234
X146.755Y-100.708
X147.5Y-112.0
X147.6Y-104.5
X147.6Y-109.2
X147.6Y-117.8
X147.9Y-117.0
X148.0Y-101.108
X148.1Y-112.0
X148.3Y-109.2
X148.4Y-117.8
X148.6Y-117.0
X148.7Y-112.0
X148.748Y-104.5
X149.1Y-105.8
X149.1Y-117.8
X149.3Y-112.0
X149.3Y-117.0
X149.502Y-101.292
X149.518Y-101.918
X149.6Y-109.3
X149.8Y-105.8
X149.8Y-117.8
X149.9Y-102.5
X150.1Y-111.2
X150.4Y-109.4
X150.5Y-105.8
X150.5Y-117.8
X150.527Y-102.5
X150.637Y-111.522
X151.3Y-105.8
X151.6Y-97.2
X151.6Y-112.8
X151.6Y-113.5
X152.0Y-102.555
X152.2Y-97.2
X152.7Y-102.548
X152.8Y-117.0
X153.1Y-112.8
X153.1Y-113.5
X153.5Y-102.4
X153.8Y-110.6
X153.9Y-113.8
X154.4Y-104.0
X154.4Y-107.9
X154.7Y-113.8
X155.0Y-116.175
X155.4Y-103.8
X156.0Y-103.8
X162.4Y-103.0
X162.7Y-101.1
X163.509Y-104.095
X163.7Y-103.0
T3
X147.95Y-121.7
X150.45Y-121.7
X152.95Y-121.7
X155.45Y-121.7
T4
X145.0Y-95.66
X145.0Y-98.2
X157.7Y-111.245
X157.7Y-113.785
X157.7Y-116.325
X159.0Y-96.65
X159.0Y-99.15
X162.2Y-115.6
X162.25Y-107.0
X162.25Y-111.3
X164.7Y-115.6
X164.75Y-107.0
X164.75Y-111.3
T5
X140.42Y-101.36
X140.42Y-103.9
X140.42Y-106.44
X140.42Y-109.36
X140.42Y-111.9
X140.42Y-114.44
T2
X147.425Y-96.2G85X147.425Y-95.4
G05
X154.575Y-95.4G85X154.575Y-96.2
G05
T0
M30
