G04 #@! TF.GenerationSoftware,KiCad,Pcbnew,(6.0.7)*
G04 #@! TF.CreationDate,2022-10-27T11:51:29+02:00*
G04 #@! TF.ProjectId,reservoirCon,72657365-7276-46f6-9972-436f6e2e6b69,rev?*
G04 #@! TF.SameCoordinates,Original*
G04 #@! TF.FileFunction,Copper,L4,Bot*
G04 #@! TF.FilePolarity,Positive*
%FSLAX46Y46*%
G04 Gerber Fmt 4.6, Leading zero omitted, Abs format (unit mm)*
G04 Created by KiCad (PCBNEW (6.0.7)) date 2022-10-27 11:51:29*
%MOMM*%
%LPD*%
G01*
G04 APERTURE LIST*
G04 Aperture macros list*
%AMRoundRect*
0 Rectangle with rounded corners*
0 $1 Rounding radius*
0 $2 $3 $4 $5 $6 $7 $8 $9 X,Y pos of 4 corners*
0 Add a 4 corners polygon primitive as box body*
4,1,4,$2,$3,$4,$5,$6,$7,$8,$9,$2,$3,0*
0 Add four circle primitives for the rounded corners*
1,1,$1+$1,$2,$3*
1,1,$1+$1,$4,$5*
1,1,$1+$1,$6,$7*
1,1,$1+$1,$8,$9*
0 Add four rect primitives between the rounded corners*
20,1,$1+$1,$2,$3,$4,$5,0*
20,1,$1+$1,$4,$5,$6,$7,0*
20,1,$1+$1,$6,$7,$8,$9,0*
20,1,$1+$1,$8,$9,$2,$3,0*%
G04 Aperture macros list end*
G04 #@! TA.AperFunction,ComponentPad*
%ADD10RoundRect,0.250000X-0.600000X-0.750000X0.600000X-0.750000X0.600000X0.750000X-0.600000X0.750000X0*%
G04 #@! TD*
G04 #@! TA.AperFunction,ComponentPad*
%ADD11O,1.700000X2.000000*%
G04 #@! TD*
G04 #@! TA.AperFunction,ComponentPad*
%ADD12R,1.700000X1.700000*%
G04 #@! TD*
G04 #@! TA.AperFunction,ComponentPad*
%ADD13O,1.700000X1.700000*%
G04 #@! TD*
G04 #@! TA.AperFunction,ComponentPad*
%ADD14RoundRect,0.250000X0.750000X-0.600000X0.750000X0.600000X-0.750000X0.600000X-0.750000X-0.600000X0*%
G04 #@! TD*
G04 #@! TA.AperFunction,ComponentPad*
%ADD15O,2.000000X1.700000*%
G04 #@! TD*
G04 #@! TA.AperFunction,ComponentPad*
%ADD16RoundRect,0.250000X0.845000X-0.620000X0.845000X0.620000X-0.845000X0.620000X-0.845000X-0.620000X0*%
G04 #@! TD*
G04 #@! TA.AperFunction,ComponentPad*
%ADD17O,2.190000X1.740000*%
G04 #@! TD*
G04 #@! TA.AperFunction,ComponentPad*
%ADD18RoundRect,0.250000X-0.600000X-0.725000X0.600000X-0.725000X0.600000X0.725000X-0.600000X0.725000X0*%
G04 #@! TD*
G04 #@! TA.AperFunction,ComponentPad*
%ADD19O,1.700000X1.950000*%
G04 #@! TD*
G04 #@! TA.AperFunction,ComponentPad*
%ADD20O,1.050000X1.900000*%
G04 #@! TD*
G04 #@! TA.AperFunction,SMDPad,CuDef*
%ADD21RoundRect,0.225000X-0.225000X-0.250000X0.225000X-0.250000X0.225000X0.250000X-0.225000X0.250000X0*%
G04 #@! TD*
G04 #@! TA.AperFunction,SMDPad,CuDef*
%ADD22RoundRect,0.250000X-0.325000X-1.100000X0.325000X-1.100000X0.325000X1.100000X-0.325000X1.100000X0*%
G04 #@! TD*
G04 #@! TA.AperFunction,SMDPad,CuDef*
%ADD23RoundRect,0.200000X-0.525000X0.200000X-0.525000X-0.200000X0.525000X-0.200000X0.525000X0.200000X0*%
G04 #@! TD*
G04 #@! TA.AperFunction,SMDPad,CuDef*
%ADD24RoundRect,0.075000X-0.075000X0.225000X-0.075000X-0.225000X0.075000X-0.225000X0.075000X0.225000X0*%
G04 #@! TD*
G04 #@! TA.AperFunction,SMDPad,CuDef*
%ADD25RoundRect,0.075000X-0.787500X0.075000X-0.787500X-0.075000X0.787500X-0.075000X0.787500X0.075000X0*%
G04 #@! TD*
G04 #@! TA.AperFunction,SMDPad,CuDef*
%ADD26RoundRect,0.225000X-0.250000X0.225000X-0.250000X-0.225000X0.250000X-0.225000X0.250000X0.225000X0*%
G04 #@! TD*
G04 #@! TA.AperFunction,SMDPad,CuDef*
%ADD27RoundRect,0.250000X0.375000X0.850000X-0.375000X0.850000X-0.375000X-0.850000X0.375000X-0.850000X0*%
G04 #@! TD*
G04 #@! TA.AperFunction,SMDPad,CuDef*
%ADD28RoundRect,0.250000X-0.650000X0.325000X-0.650000X-0.325000X0.650000X-0.325000X0.650000X0.325000X0*%
G04 #@! TD*
G04 #@! TA.AperFunction,SMDPad,CuDef*
%ADD29R,1.150000X1.000000*%
G04 #@! TD*
G04 #@! TA.AperFunction,SMDPad,CuDef*
%ADD30R,0.750000X0.300000*%
G04 #@! TD*
G04 #@! TA.AperFunction,SMDPad,CuDef*
%ADD31R,0.300000X1.700000*%
G04 #@! TD*
G04 #@! TA.AperFunction,SMDPad,CuDef*
%ADD32RoundRect,0.200000X-0.200000X-0.275000X0.200000X-0.275000X0.200000X0.275000X-0.200000X0.275000X0*%
G04 #@! TD*
G04 #@! TA.AperFunction,SMDPad,CuDef*
%ADD33RoundRect,0.225000X0.225000X0.250000X-0.225000X0.250000X-0.225000X-0.250000X0.225000X-0.250000X0*%
G04 #@! TD*
G04 #@! TA.AperFunction,SMDPad,CuDef*
%ADD34RoundRect,0.200000X0.275000X-0.200000X0.275000X0.200000X-0.275000X0.200000X-0.275000X-0.200000X0*%
G04 #@! TD*
G04 #@! TA.AperFunction,SMDPad,CuDef*
%ADD35R,0.600000X0.450000*%
G04 #@! TD*
G04 #@! TA.AperFunction,SMDPad,CuDef*
%ADD36RoundRect,0.225000X0.250000X-0.225000X0.250000X0.225000X-0.250000X0.225000X-0.250000X-0.225000X0*%
G04 #@! TD*
G04 #@! TA.AperFunction,SMDPad,CuDef*
%ADD37RoundRect,0.200000X-0.275000X0.200000X-0.275000X-0.200000X0.275000X-0.200000X0.275000X0.200000X0*%
G04 #@! TD*
G04 #@! TA.AperFunction,SMDPad,CuDef*
%ADD38RoundRect,0.218750X0.218750X0.256250X-0.218750X0.256250X-0.218750X-0.256250X0.218750X-0.256250X0*%
G04 #@! TD*
G04 #@! TA.AperFunction,ViaPad*
%ADD39C,0.500000*%
G04 #@! TD*
G04 #@! TA.AperFunction,Conductor*
%ADD40C,0.200000*%
G04 #@! TD*
G04 #@! TA.AperFunction,Conductor*
%ADD41C,0.500000*%
G04 #@! TD*
G04 #@! TA.AperFunction,Conductor*
%ADD42C,0.300000*%
G04 #@! TD*
G04 #@! TA.AperFunction,Conductor*
%ADD43C,0.127000*%
G04 #@! TD*
G04 #@! TA.AperFunction,Conductor*
%ADD44C,2.000000*%
G04 #@! TD*
G04 APERTURE END LIST*
D10*
X162250000Y-107000000D03*
D11*
X164750000Y-107000000D03*
D12*
X145000000Y-98200000D03*
D13*
X145000000Y-95660000D03*
D14*
X159000000Y-99150000D03*
D15*
X159000000Y-96650000D03*
D16*
X140420000Y-114440000D03*
D17*
X140420000Y-111900000D03*
X140420000Y-109360000D03*
D18*
X147950000Y-121700000D03*
D19*
X150450000Y-121700000D03*
X152950000Y-121700000D03*
X155450000Y-121700000D03*
D16*
X140420000Y-106440000D03*
D17*
X140420000Y-103900000D03*
X140420000Y-101360000D03*
D10*
X162250000Y-111300000D03*
D11*
X164750000Y-111300000D03*
D10*
X162200000Y-115600000D03*
D11*
X164700000Y-115600000D03*
D20*
X154575000Y-95800000D03*
X147425000Y-95800000D03*
D12*
X157700000Y-116325000D03*
D13*
X157700000Y-113785000D03*
X157700000Y-111245000D03*
D21*
X151625000Y-111300000D03*
X153175000Y-111300000D03*
D22*
X147400000Y-114000000D03*
X150350000Y-114000000D03*
D23*
X152512500Y-114700000D03*
D24*
X153562500Y-114600000D03*
X154012500Y-114600000D03*
X154462500Y-114600000D03*
X154462500Y-116300000D03*
X154012500Y-116300000D03*
X153562500Y-116300000D03*
D23*
X152512500Y-116200000D03*
D25*
X152375000Y-115450000D03*
D26*
X147900000Y-106725000D03*
X147900000Y-108275000D03*
D27*
X153975000Y-118600000D03*
X151825000Y-118600000D03*
D28*
X150000000Y-116125000D03*
X150000000Y-119075000D03*
D29*
X149325000Y-106850000D03*
X151075000Y-106850000D03*
X151075000Y-108250000D03*
X149325000Y-108250000D03*
D26*
X146600000Y-108425000D03*
X146600000Y-109975000D03*
D21*
X146725000Y-105400000D03*
X148275000Y-105400000D03*
D30*
X145850000Y-102657559D03*
X145850000Y-102157559D03*
X145850000Y-101657559D03*
X145850000Y-101157559D03*
X148750000Y-101157559D03*
X148750000Y-101657559D03*
X148750000Y-102157559D03*
X148750000Y-102657559D03*
D31*
X147300000Y-101907559D03*
D26*
X149700000Y-103425000D03*
X149700000Y-104975000D03*
D32*
X149875000Y-99400000D03*
X151525000Y-99400000D03*
D26*
X151900000Y-103425000D03*
X151900000Y-104975000D03*
D28*
X147900000Y-116125000D03*
X147900000Y-119075000D03*
D21*
X154425000Y-104900000D03*
X155975000Y-104900000D03*
D33*
X149275000Y-110300000D03*
X147725000Y-110300000D03*
D34*
X154000000Y-99825000D03*
X154000000Y-98175000D03*
D35*
X146750000Y-99400000D03*
X148850000Y-99400000D03*
D26*
X150800000Y-103425000D03*
X150800000Y-104975000D03*
D32*
X150475000Y-110200000D03*
X152125000Y-110200000D03*
D26*
X153000000Y-103425000D03*
X153000000Y-104975000D03*
D21*
X154225000Y-102900000D03*
X155775000Y-102900000D03*
D33*
X148575000Y-103700000D03*
X147025000Y-103700000D03*
D36*
X153600000Y-107475000D03*
X153600000Y-105925000D03*
X152500000Y-108375000D03*
X152500000Y-106825000D03*
D37*
X152800000Y-98175000D03*
X152800000Y-99825000D03*
D36*
X155400000Y-118675000D03*
X155400000Y-117125000D03*
D32*
X149875000Y-98200000D03*
X151525000Y-98200000D03*
D38*
X154187500Y-101700000D03*
X152612500Y-101700000D03*
D39*
X149600000Y-109300000D03*
X151300000Y-105800000D03*
X147600000Y-109200000D03*
X149800000Y-105800000D03*
X156000000Y-103800000D03*
X162700000Y-101100000D03*
X155000000Y-116175000D03*
X148300000Y-109200000D03*
X153800000Y-110600000D03*
X152800000Y-117000000D03*
X149300000Y-117000000D03*
X146400000Y-115000000D03*
X149100000Y-105800000D03*
X155400000Y-103800000D03*
X163509250Y-104095000D03*
X146400000Y-113600000D03*
X146400000Y-114300000D03*
X150500000Y-105800000D03*
X148600000Y-117000000D03*
X138300000Y-116000000D03*
X146754709Y-100707559D03*
X147900000Y-117000000D03*
X147600000Y-104500000D03*
X146400000Y-113000000D03*
X147600000Y-117800000D03*
X150500000Y-117800000D03*
X163700000Y-103000000D03*
X148400000Y-117800000D03*
X162400000Y-103000000D03*
X149100000Y-117800000D03*
X154400000Y-104000000D03*
X145900000Y-104000000D03*
X145700000Y-108300000D03*
X149800000Y-117800000D03*
X150526503Y-102500000D03*
X150100000Y-111200000D03*
X148748418Y-104500000D03*
X154400000Y-107900000D03*
X152700000Y-102548500D03*
X153500000Y-102400000D03*
X148100000Y-112000000D03*
X148700000Y-112000000D03*
X147500000Y-112000000D03*
X149300000Y-112000000D03*
X153100000Y-112800000D03*
X153100000Y-113500000D03*
X151600000Y-113500000D03*
X151600000Y-112800000D03*
X149900000Y-102500000D03*
X152000000Y-102555379D03*
X150637221Y-111522333D03*
X154700000Y-113800000D03*
X153900000Y-113800000D03*
X152200000Y-97200000D03*
X151600000Y-97200000D03*
X150400000Y-109400000D03*
X145800000Y-103107559D03*
X145600000Y-105700000D03*
X146600000Y-102234062D03*
X146600000Y-101607559D03*
X148000000Y-101107559D03*
X149501502Y-101291619D03*
X149517907Y-101917907D03*
D40*
X150200000Y-108900000D02*
X150200000Y-107725000D01*
X148025000Y-106850000D02*
X147900000Y-106725000D01*
X149600000Y-109300000D02*
X149800000Y-109300000D01*
X149325000Y-106850000D02*
X148025000Y-106850000D01*
X149800000Y-109300000D02*
X150200000Y-108900000D01*
X150200000Y-107725000D02*
X149325000Y-106850000D01*
D41*
X153800000Y-110600000D02*
X153175000Y-111225000D01*
D42*
X147300000Y-104200000D02*
X147300000Y-101907559D01*
D41*
X147925000Y-109825000D02*
X147925000Y-110100000D01*
X147925000Y-109575000D02*
X147925000Y-109525000D01*
X148300000Y-109200000D02*
X147925000Y-109575000D01*
X155975000Y-103825000D02*
X156000000Y-103800000D01*
X147925000Y-108250000D02*
X147925000Y-108825000D01*
X155775000Y-103425000D02*
X155400000Y-103800000D01*
D42*
X146900000Y-100707559D02*
X147300000Y-101107559D01*
D40*
X152500000Y-106825000D02*
X151100000Y-106825000D01*
D41*
X153175000Y-111225000D02*
X153175000Y-111300000D01*
X146600000Y-109975000D02*
X147775000Y-109975000D01*
D42*
X146754709Y-100707559D02*
X146900000Y-100707559D01*
D41*
X154000000Y-96375000D02*
X154575000Y-95800000D01*
D40*
X147925000Y-108250000D02*
X147900000Y-108275000D01*
D42*
X147600000Y-104500000D02*
X147300000Y-104200000D01*
D41*
X154000000Y-98175000D02*
X154000000Y-96375000D01*
X155975000Y-104900000D02*
X155975000Y-103825000D01*
D42*
X147300000Y-101107559D02*
X147300000Y-101907559D01*
D41*
X147925000Y-109525000D02*
X147600000Y-109200000D01*
X147925000Y-110100000D02*
X147725000Y-110300000D01*
X155400000Y-103800000D02*
X156000000Y-103800000D01*
D42*
X146304709Y-101157559D02*
X146754709Y-100707559D01*
D41*
X147775000Y-109975000D02*
X147925000Y-109825000D01*
X147925000Y-109575000D02*
X147925000Y-109825000D01*
X155775000Y-102900000D02*
X155775000Y-103425000D01*
X149325000Y-108250000D02*
X147925000Y-108250000D01*
X147925000Y-108825000D02*
X148300000Y-109200000D01*
D42*
X145850000Y-101157559D02*
X146304709Y-101157559D01*
D40*
X151100000Y-106825000D02*
X151075000Y-106850000D01*
X152125000Y-108750000D02*
X152500000Y-108375000D01*
X152500000Y-108375000D02*
X151200000Y-108375000D01*
X151200000Y-108375000D02*
X151075000Y-108250000D01*
X152125000Y-110200000D02*
X152125000Y-108750000D01*
X145700000Y-108300000D02*
X146475000Y-108300000D01*
D41*
X153600000Y-107475000D02*
X153975000Y-107475000D01*
D42*
X145900000Y-104600000D02*
X145900000Y-104000000D01*
D41*
X153975000Y-107475000D02*
X154400000Y-107900000D01*
D40*
X146475000Y-108300000D02*
X146600000Y-108425000D01*
D41*
X153000000Y-102848500D02*
X153000000Y-103425000D01*
D42*
X148750000Y-104050000D02*
X148750000Y-104498418D01*
D40*
X154425000Y-104025000D02*
X154400000Y-104000000D01*
D41*
X150526503Y-102500000D02*
X150800000Y-102773497D01*
D43*
X148748418Y-104500000D02*
X148750000Y-104498418D01*
D41*
X152700000Y-102548500D02*
X153000000Y-102848500D01*
X154425000Y-104900000D02*
X154425000Y-104025000D01*
D43*
X148750000Y-104498418D02*
X148750000Y-103657559D01*
D40*
X150100000Y-111200000D02*
X150100000Y-111125000D01*
D41*
X152700000Y-102548500D02*
X152700000Y-101787500D01*
D42*
X145900000Y-104600000D02*
X146700000Y-105400000D01*
D40*
X150100000Y-111125000D02*
X149275000Y-110300000D01*
D42*
X148750000Y-102657559D02*
X148750000Y-103657559D01*
D41*
X150800000Y-102773497D02*
X150800000Y-103425000D01*
X152700000Y-101787500D02*
X152612500Y-101700000D01*
D42*
X146725000Y-105400000D02*
X146700000Y-105400000D01*
D41*
X154187500Y-101712500D02*
X153500000Y-102400000D01*
X154000000Y-102900000D02*
X153500000Y-102400000D01*
X154187500Y-101700000D02*
X154187500Y-101712500D01*
X154225000Y-102900000D02*
X154000000Y-102900000D01*
D44*
X143500000Y-111000000D02*
X142600000Y-111900000D01*
X140420000Y-103900000D02*
X142500000Y-103900000D01*
X142500000Y-103900000D02*
X143500000Y-104900000D01*
D42*
X141000000Y-103900000D02*
X140420000Y-103900000D01*
D44*
X143500000Y-104900000D02*
X143500000Y-111000000D01*
D42*
X145500000Y-99400000D02*
X141000000Y-103900000D01*
X146750000Y-99400000D02*
X145500000Y-99400000D01*
D44*
X142600000Y-111900000D02*
X140420000Y-111900000D01*
D41*
X149700000Y-102700000D02*
X149700000Y-103425000D01*
D40*
X150637221Y-111522333D02*
X150859554Y-111300000D01*
D41*
X149900000Y-102500000D02*
X149700000Y-102700000D01*
X151900000Y-102655379D02*
X151900000Y-103425000D01*
X152000000Y-102555379D02*
X151900000Y-102655379D01*
D40*
X150859554Y-111300000D02*
X151625000Y-111300000D01*
D42*
X153562500Y-115662500D02*
X153562500Y-116300000D01*
X152375000Y-115450000D02*
X153350000Y-115450000D01*
X155400000Y-118675000D02*
X154050000Y-118675000D01*
X154050000Y-118675000D02*
X153975000Y-118600000D01*
X153562500Y-118187500D02*
X153975000Y-118600000D01*
X153562500Y-116300000D02*
X153562500Y-118187500D01*
X153350000Y-115450000D02*
X153562500Y-115662500D01*
X155175000Y-116900000D02*
X155400000Y-117125000D01*
X154264697Y-116900000D02*
X155175000Y-116900000D01*
X154012500Y-116300000D02*
X154012500Y-116647803D01*
X154012500Y-116647803D02*
X154264697Y-116900000D01*
D40*
X154462500Y-114037500D02*
X154462500Y-114600000D01*
X154700000Y-113800000D02*
X154462500Y-114037500D01*
X154012500Y-114600000D02*
X154012500Y-113912500D01*
X154012500Y-113912500D02*
X153900000Y-113800000D01*
D42*
X149875000Y-99400000D02*
X149875000Y-98200000D01*
X148850000Y-99400000D02*
X149875000Y-99400000D01*
X151550000Y-98175000D02*
X151525000Y-98200000D01*
X151600000Y-97200000D02*
X152200000Y-97200000D01*
X152800000Y-97800000D02*
X152200000Y-97200000D01*
X151525000Y-99400000D02*
X151525000Y-98200000D01*
X152800000Y-98175000D02*
X152800000Y-97800000D01*
X152800000Y-98175000D02*
X151550000Y-98175000D01*
D40*
X150475000Y-109475000D02*
X150475000Y-110200000D01*
X150400000Y-109400000D02*
X150475000Y-109475000D01*
D43*
X145800000Y-103107559D02*
X145800000Y-102707559D01*
X145800000Y-102707559D02*
X145850000Y-102657559D01*
D40*
X154000000Y-99825000D02*
X152800000Y-99825000D01*
X145100000Y-100900000D02*
X145100000Y-105200000D01*
X148300000Y-100300000D02*
X148100000Y-100100000D01*
X152325000Y-100300000D02*
X148300000Y-100300000D01*
X145100000Y-105200000D02*
X145600000Y-105700000D01*
X145900000Y-100100000D02*
X145100000Y-100900000D01*
X148100000Y-100100000D02*
X145900000Y-100100000D01*
X152800000Y-99825000D02*
X152325000Y-100300000D01*
D43*
X146600000Y-102234062D02*
X145926503Y-102234062D01*
X145926503Y-102234062D02*
X145850000Y-102157559D01*
X146600000Y-101607559D02*
X145900000Y-101607559D01*
X145900000Y-101607559D02*
X145850000Y-101657559D01*
X148000000Y-101107559D02*
X148700000Y-101107559D01*
X148700000Y-101107559D02*
X148750000Y-101157559D01*
X149315500Y-101477621D02*
X149315500Y-101498059D01*
X149501502Y-101291619D02*
X149315500Y-101477621D01*
X149315500Y-101498059D02*
X149156000Y-101657559D01*
X149156000Y-101657559D02*
X148750000Y-101657559D01*
X149517907Y-101917907D02*
X149278255Y-102157559D01*
X149278255Y-102157559D02*
X148750000Y-102157559D01*
G04 #@! TA.AperFunction,Conductor*
G36*
X149493306Y-108418306D02*
G01*
X149511612Y-108462500D01*
X149493306Y-108506694D01*
X148100000Y-109900000D01*
X148100000Y-110137500D01*
X148081694Y-110181694D01*
X148037500Y-110200000D01*
X146862500Y-110200000D01*
X146818306Y-110181694D01*
X146800000Y-110137500D01*
X146800000Y-109625888D01*
X146818306Y-109581694D01*
X147500000Y-108900000D01*
X147500000Y-108462500D01*
X147518306Y-108418306D01*
X147562500Y-108400000D01*
X149449112Y-108400000D01*
X149493306Y-108418306D01*
G37*
G04 #@! TD.AperFunction*
G04 #@! TA.AperFunction,Conductor*
G36*
X147122087Y-111818306D02*
G01*
X147140393Y-111862500D01*
X147137692Y-111879553D01*
X147136500Y-111881892D01*
X147117794Y-112000000D01*
X147136500Y-112118108D01*
X147190789Y-112224655D01*
X147275345Y-112309211D01*
X147279724Y-112311442D01*
X147377511Y-112361268D01*
X147377512Y-112361268D01*
X147381892Y-112363500D01*
X147500000Y-112382206D01*
X147618108Y-112363500D01*
X147622488Y-112361268D01*
X147622489Y-112361268D01*
X147720276Y-112311442D01*
X147724655Y-112309211D01*
X147755806Y-112278060D01*
X147800000Y-112259754D01*
X147844194Y-112278060D01*
X147875345Y-112309211D01*
X147879724Y-112311442D01*
X147977511Y-112361268D01*
X147977512Y-112361268D01*
X147981892Y-112363500D01*
X148100000Y-112382206D01*
X148104855Y-112381437D01*
X148104856Y-112381437D01*
X148139514Y-112375948D01*
X148186028Y-112387116D01*
X148193485Y-112393485D01*
X148781694Y-112981694D01*
X148800000Y-113025888D01*
X148800000Y-115200000D01*
X149400000Y-115800000D01*
X152874112Y-115800000D01*
X152918306Y-115818306D01*
X153181694Y-116081694D01*
X153200000Y-116125888D01*
X153200000Y-116874112D01*
X153181694Y-116918306D01*
X152918306Y-117181694D01*
X152874112Y-117200000D01*
X146225888Y-117200000D01*
X146181694Y-117181694D01*
X145218306Y-116218306D01*
X145200000Y-116174112D01*
X145200000Y-112825888D01*
X145218306Y-112781694D01*
X146181694Y-111818306D01*
X146225888Y-111800000D01*
X147077893Y-111800000D01*
X147122087Y-111818306D01*
G37*
G04 #@! TD.AperFunction*
G04 #@! TA.AperFunction,Conductor*
G36*
X153289988Y-104618306D02*
G01*
X153307666Y-104653661D01*
X153400000Y-105300000D01*
X153681694Y-105581694D01*
X153700000Y-105625888D01*
X153700000Y-106174112D01*
X153681694Y-106218306D01*
X153118306Y-106781694D01*
X153074112Y-106800000D01*
X150825888Y-106800000D01*
X150781694Y-106781694D01*
X150100000Y-106100000D01*
X148725888Y-106100000D01*
X148681694Y-106081694D01*
X148418306Y-105818306D01*
X148400000Y-105774112D01*
X148400000Y-105062500D01*
X148418306Y-105018306D01*
X148462500Y-105000000D01*
X148900000Y-105000000D01*
X149281694Y-104618306D01*
X149325888Y-104600000D01*
X153245794Y-104600000D01*
X153289988Y-104618306D01*
G37*
G04 #@! TD.AperFunction*
G04 #@! TA.AperFunction,Conductor*
G36*
X152118306Y-117518306D02*
G01*
X152281694Y-117681694D01*
X152300000Y-117725888D01*
X152300000Y-119674112D01*
X152281694Y-119718306D01*
X151818306Y-120181694D01*
X151774112Y-120200000D01*
X147525888Y-120200000D01*
X147481694Y-120181694D01*
X147018306Y-119718306D01*
X147000000Y-119674112D01*
X147000000Y-117925888D01*
X147018306Y-117881694D01*
X147381694Y-117518306D01*
X147425888Y-117500000D01*
X152074112Y-117500000D01*
X152118306Y-117518306D01*
G37*
G04 #@! TD.AperFunction*
G04 #@! TA.AperFunction,Conductor*
G36*
X153618306Y-117018306D02*
G01*
X153900000Y-117300000D01*
X154374112Y-117300000D01*
X154418306Y-117318306D01*
X155000000Y-117900000D01*
X155774112Y-117900000D01*
X155818306Y-117918306D01*
X155981694Y-118081694D01*
X156000000Y-118125888D01*
X156000000Y-119074112D01*
X155981694Y-119118306D01*
X155418306Y-119681694D01*
X155374112Y-119700000D01*
X153225888Y-119700000D01*
X153181694Y-119681694D01*
X152918306Y-119418306D01*
X152900000Y-119374112D01*
X152900000Y-117625888D01*
X152918306Y-117581694D01*
X153481694Y-117018306D01*
X153525888Y-117000000D01*
X153574112Y-117000000D01*
X153618306Y-117018306D01*
G37*
G04 #@! TD.AperFunction*
G04 #@! TA.AperFunction,Conductor*
G36*
X152918306Y-112018306D02*
G01*
X153681694Y-112781694D01*
X153700000Y-112825888D01*
X153700000Y-113441982D01*
X153681694Y-113486176D01*
X153677696Y-113489591D01*
X153675345Y-113490789D01*
X153590789Y-113575345D01*
X153536500Y-113681892D01*
X153517794Y-113800000D01*
X153536500Y-113918108D01*
X153590789Y-114024655D01*
X153675345Y-114109211D01*
X153675326Y-114109230D01*
X153699231Y-114148242D01*
X153700000Y-114158018D01*
X153700000Y-115037500D01*
X153681694Y-115081694D01*
X153637500Y-115100000D01*
X151200000Y-115100000D01*
X151018306Y-115281694D01*
X150974112Y-115300000D01*
X149325888Y-115300000D01*
X149281694Y-115281694D01*
X149118306Y-115118306D01*
X149100000Y-115074112D01*
X149100000Y-112725888D01*
X149118306Y-112681694D01*
X149448606Y-112351394D01*
X149464425Y-112339900D01*
X149520276Y-112311442D01*
X149524655Y-112309211D01*
X149609211Y-112224655D01*
X149639900Y-112164425D01*
X149651394Y-112148606D01*
X149781694Y-112018306D01*
X149825888Y-112000000D01*
X152874112Y-112000000D01*
X152918306Y-112018306D01*
G37*
G04 #@! TD.AperFunction*
M02*
