%TF.GenerationSoftware,KiCad,Pcbnew,(6.0.7)*%
%TF.CreationDate,2022-10-27T11:51:33+02:00*%
%TF.ProjectId,reservoirCon,72657365-7276-46f6-9972-436f6e2e6b69,rev?*%
%TF.SameCoordinates,Original*%
%TF.FileFunction,Drillmap*%
%TF.FilePolarity,Positive*%
%FSLAX45Y45*%
G04 Gerber Fmt 4.5, Leading zero omitted, Abs format (unit mm)*
G04 Created by KiCad (PCBNEW (6.0.7)) date 2022-10-27 11:51:33*
%MOMM*%
%LPD*%
G01*
G04 APERTURE LIST*
%ADD10C,0.100000*%
%ADD11C,0.200000*%
%ADD12C,0.320000*%
G04 APERTURE END LIST*
D10*
X16740000Y-9700000D02*
G75*
G03*
X16440000Y-9400000I-300000J0D01*
G01*
X16440000Y-12400000D02*
G75*
G03*
X16740000Y-12100000I0J300000D01*
G01*
X14040000Y-9400000D02*
G75*
G03*
X13740000Y-9700000I0J-300000D01*
G01*
X14040000Y-9400000D02*
X16440000Y-9400000D01*
X13740000Y-12100000D02*
G75*
G03*
X14040000Y-12400000I300000J0D01*
G01*
X13740000Y-12100000D02*
X13740000Y-9700000D01*
X14040000Y-12400000D02*
X16440000Y-12400000D01*
X16740000Y-12100000D02*
X16740000Y-9700000D01*
D11*
D12*
X13880000Y-9540000D02*
X14200000Y-9860000D01*
X14200000Y-9540000D02*
X13880000Y-9860000D01*
X13880000Y-11940000D02*
X14200000Y-12260000D01*
X14200000Y-11940000D02*
X13880000Y-12260000D01*
X16280000Y-9540000D02*
X16600000Y-9860000D01*
X16600000Y-9540000D02*
X16280000Y-9860000D01*
X16280000Y-11940000D02*
X16600000Y-12260000D01*
X16600000Y-11940000D02*
X16280000Y-12260000D01*
D11*
X13992619Y-12715476D02*
X13992619Y-12515476D01*
X14040238Y-12515476D01*
X14068809Y-12525000D01*
X14087857Y-12544048D01*
X14097381Y-12563095D01*
X14106905Y-12601190D01*
X14106905Y-12629762D01*
X14097381Y-12667857D01*
X14087857Y-12686905D01*
X14068809Y-12705952D01*
X14040238Y-12715476D01*
X13992619Y-12715476D01*
X14192619Y-12715476D02*
X14192619Y-12582143D01*
X14192619Y-12620238D02*
X14202143Y-12601190D01*
X14211667Y-12591667D01*
X14230714Y-12582143D01*
X14249762Y-12582143D01*
X14316428Y-12715476D02*
X14316428Y-12582143D01*
X14316428Y-12515476D02*
X14306905Y-12525000D01*
X14316428Y-12534524D01*
X14325952Y-12525000D01*
X14316428Y-12515476D01*
X14316428Y-12534524D01*
X14440238Y-12715476D02*
X14421190Y-12705952D01*
X14411667Y-12686905D01*
X14411667Y-12515476D01*
X14545000Y-12715476D02*
X14525952Y-12705952D01*
X14516428Y-12686905D01*
X14516428Y-12515476D01*
X14773571Y-12715476D02*
X14773571Y-12515476D01*
X14840238Y-12658333D01*
X14906905Y-12515476D01*
X14906905Y-12715476D01*
X15087857Y-12715476D02*
X15087857Y-12610714D01*
X15078333Y-12591667D01*
X15059286Y-12582143D01*
X15021190Y-12582143D01*
X15002143Y-12591667D01*
X15087857Y-12705952D02*
X15068809Y-12715476D01*
X15021190Y-12715476D01*
X15002143Y-12705952D01*
X14992619Y-12686905D01*
X14992619Y-12667857D01*
X15002143Y-12648809D01*
X15021190Y-12639286D01*
X15068809Y-12639286D01*
X15087857Y-12629762D01*
X15183095Y-12582143D02*
X15183095Y-12782143D01*
X15183095Y-12591667D02*
X15202143Y-12582143D01*
X15240238Y-12582143D01*
X15259286Y-12591667D01*
X15268809Y-12601190D01*
X15278333Y-12620238D01*
X15278333Y-12677381D01*
X15268809Y-12696428D01*
X15259286Y-12705952D01*
X15240238Y-12715476D01*
X15202143Y-12715476D01*
X15183095Y-12705952D01*
X15364048Y-12696428D02*
X15373571Y-12705952D01*
X15364048Y-12715476D01*
X15354524Y-12705952D01*
X15364048Y-12696428D01*
X15364048Y-12715476D01*
X15364048Y-12591667D02*
X15373571Y-12601190D01*
X15364048Y-12610714D01*
X15354524Y-12601190D01*
X15364048Y-12591667D01*
X15364048Y-12610714D01*
X13535000Y-12945000D02*
X13735000Y-13145000D01*
X13735000Y-12945000D02*
X13535000Y-13145000D01*
X13973571Y-12935476D02*
X14097381Y-12935476D01*
X14030714Y-13011667D01*
X14059286Y-13011667D01*
X14078333Y-13021190D01*
X14087857Y-13030714D01*
X14097381Y-13049762D01*
X14097381Y-13097381D01*
X14087857Y-13116428D01*
X14078333Y-13125952D01*
X14059286Y-13135476D01*
X14002143Y-13135476D01*
X13983095Y-13125952D01*
X13973571Y-13116428D01*
X14183095Y-13116428D02*
X14192619Y-13125952D01*
X14183095Y-13135476D01*
X14173571Y-13125952D01*
X14183095Y-13116428D01*
X14183095Y-13135476D01*
X14268809Y-12954524D02*
X14278333Y-12945000D01*
X14297381Y-12935476D01*
X14345000Y-12935476D01*
X14364048Y-12945000D01*
X14373571Y-12954524D01*
X14383095Y-12973571D01*
X14383095Y-12992619D01*
X14373571Y-13021190D01*
X14259286Y-13135476D01*
X14383095Y-13135476D01*
X14506905Y-12935476D02*
X14525952Y-12935476D01*
X14545000Y-12945000D01*
X14554524Y-12954524D01*
X14564048Y-12973571D01*
X14573571Y-13011667D01*
X14573571Y-13059286D01*
X14564048Y-13097381D01*
X14554524Y-13116428D01*
X14545000Y-13125952D01*
X14525952Y-13135476D01*
X14506905Y-13135476D01*
X14487857Y-13125952D01*
X14478333Y-13116428D01*
X14468809Y-13097381D01*
X14459286Y-13059286D01*
X14459286Y-13011667D01*
X14468809Y-12973571D01*
X14478333Y-12954524D01*
X14487857Y-12945000D01*
X14506905Y-12935476D01*
X14697381Y-12935476D02*
X14716428Y-12935476D01*
X14735476Y-12945000D01*
X14745000Y-12954524D01*
X14754524Y-12973571D01*
X14764048Y-13011667D01*
X14764048Y-13059286D01*
X14754524Y-13097381D01*
X14745000Y-13116428D01*
X14735476Y-13125952D01*
X14716428Y-13135476D01*
X14697381Y-13135476D01*
X14678333Y-13125952D01*
X14668809Y-13116428D01*
X14659286Y-13097381D01*
X14649762Y-13059286D01*
X14649762Y-13011667D01*
X14659286Y-12973571D01*
X14668809Y-12954524D01*
X14678333Y-12945000D01*
X14697381Y-12935476D01*
X14849762Y-13135476D02*
X14849762Y-13002143D01*
X14849762Y-13021190D02*
X14859286Y-13011667D01*
X14878333Y-13002143D01*
X14906905Y-13002143D01*
X14925952Y-13011667D01*
X14935476Y-13030714D01*
X14935476Y-13135476D01*
X14935476Y-13030714D02*
X14945000Y-13011667D01*
X14964048Y-13002143D01*
X14992619Y-13002143D01*
X15011667Y-13011667D01*
X15021190Y-13030714D01*
X15021190Y-13135476D01*
X15116428Y-13135476D02*
X15116428Y-13002143D01*
X15116428Y-13021190D02*
X15125952Y-13011667D01*
X15145000Y-13002143D01*
X15173571Y-13002143D01*
X15192619Y-13011667D01*
X15202143Y-13030714D01*
X15202143Y-13135476D01*
X15202143Y-13030714D02*
X15211667Y-13011667D01*
X15230714Y-13002143D01*
X15259286Y-13002143D01*
X15278333Y-13011667D01*
X15287857Y-13030714D01*
X15287857Y-13135476D01*
X15678333Y-12925952D02*
X15506905Y-13183095D01*
X15935476Y-12935476D02*
X15954524Y-12935476D01*
X15973571Y-12945000D01*
X15983095Y-12954524D01*
X15992619Y-12973571D01*
X16002143Y-13011667D01*
X16002143Y-13059286D01*
X15992619Y-13097381D01*
X15983095Y-13116428D01*
X15973571Y-13125952D01*
X15954524Y-13135476D01*
X15935476Y-13135476D01*
X15916428Y-13125952D01*
X15906905Y-13116428D01*
X15897381Y-13097381D01*
X15887857Y-13059286D01*
X15887857Y-13011667D01*
X15897381Y-12973571D01*
X15906905Y-12954524D01*
X15916428Y-12945000D01*
X15935476Y-12935476D01*
X16087857Y-13116428D02*
X16097381Y-13125952D01*
X16087857Y-13135476D01*
X16078333Y-13125952D01*
X16087857Y-13116428D01*
X16087857Y-13135476D01*
X16287857Y-13135476D02*
X16173571Y-13135476D01*
X16230714Y-13135476D02*
X16230714Y-12935476D01*
X16211667Y-12964048D01*
X16192619Y-12983095D01*
X16173571Y-12992619D01*
X16364048Y-12954524D02*
X16373571Y-12945000D01*
X16392619Y-12935476D01*
X16440238Y-12935476D01*
X16459286Y-12945000D01*
X16468809Y-12954524D01*
X16478333Y-12973571D01*
X16478333Y-12992619D01*
X16468809Y-13021190D01*
X16354524Y-13135476D01*
X16478333Y-13135476D01*
X16649762Y-12935476D02*
X16611667Y-12935476D01*
X16592619Y-12945000D01*
X16583095Y-12954524D01*
X16564048Y-12983095D01*
X16554524Y-13021190D01*
X16554524Y-13097381D01*
X16564048Y-13116428D01*
X16573571Y-13125952D01*
X16592619Y-13135476D01*
X16630714Y-13135476D01*
X16649762Y-13125952D01*
X16659286Y-13116428D01*
X16668809Y-13097381D01*
X16668809Y-13049762D01*
X16659286Y-13030714D01*
X16649762Y-13021190D01*
X16630714Y-13011667D01*
X16592619Y-13011667D01*
X16573571Y-13021190D01*
X16564048Y-13030714D01*
X16554524Y-13049762D01*
X16792619Y-12935476D02*
X16811667Y-12935476D01*
X16830714Y-12945000D01*
X16840238Y-12954524D01*
X16849762Y-12973571D01*
X16859286Y-13011667D01*
X16859286Y-13059286D01*
X16849762Y-13097381D01*
X16840238Y-13116428D01*
X16830714Y-13125952D01*
X16811667Y-13135476D01*
X16792619Y-13135476D01*
X16773571Y-13125952D01*
X16764048Y-13116428D01*
X16754524Y-13097381D01*
X16745000Y-13059286D01*
X16745000Y-13011667D01*
X16754524Y-12973571D01*
X16764048Y-12954524D01*
X16773571Y-12945000D01*
X16792619Y-12935476D01*
X16935476Y-12935476D02*
X16935476Y-12973571D01*
X17011667Y-12935476D02*
X17011667Y-12973571D01*
X17306905Y-13211667D02*
X17297381Y-13202143D01*
X17278333Y-13173571D01*
X17268810Y-13154524D01*
X17259286Y-13125952D01*
X17249762Y-13078333D01*
X17249762Y-13040238D01*
X17259286Y-12992619D01*
X17268810Y-12964048D01*
X17278333Y-12945000D01*
X17297381Y-12916428D01*
X17306905Y-12906905D01*
X17468810Y-13002143D02*
X17468810Y-13135476D01*
X17421190Y-12925952D02*
X17373571Y-13068809D01*
X17497381Y-13068809D01*
X17725952Y-13135476D02*
X17725952Y-12935476D01*
X17811667Y-13135476D02*
X17811667Y-13030714D01*
X17802143Y-13011667D01*
X17783095Y-13002143D01*
X17754524Y-13002143D01*
X17735476Y-13011667D01*
X17725952Y-13021190D01*
X17935476Y-13135476D02*
X17916429Y-13125952D01*
X17906905Y-13116428D01*
X17897381Y-13097381D01*
X17897381Y-13040238D01*
X17906905Y-13021190D01*
X17916429Y-13011667D01*
X17935476Y-13002143D01*
X17964048Y-13002143D01*
X17983095Y-13011667D01*
X17992619Y-13021190D01*
X18002143Y-13040238D01*
X18002143Y-13097381D01*
X17992619Y-13116428D01*
X17983095Y-13125952D01*
X17964048Y-13135476D01*
X17935476Y-13135476D01*
X18116429Y-13135476D02*
X18097381Y-13125952D01*
X18087857Y-13106905D01*
X18087857Y-12935476D01*
X18268810Y-13125952D02*
X18249762Y-13135476D01*
X18211667Y-13135476D01*
X18192619Y-13125952D01*
X18183095Y-13106905D01*
X18183095Y-13030714D01*
X18192619Y-13011667D01*
X18211667Y-13002143D01*
X18249762Y-13002143D01*
X18268810Y-13011667D01*
X18278333Y-13030714D01*
X18278333Y-13049762D01*
X18183095Y-13068809D01*
X18354524Y-13125952D02*
X18373571Y-13135476D01*
X18411667Y-13135476D01*
X18430714Y-13125952D01*
X18440238Y-13106905D01*
X18440238Y-13097381D01*
X18430714Y-13078333D01*
X18411667Y-13068809D01*
X18383095Y-13068809D01*
X18364048Y-13059286D01*
X18354524Y-13040238D01*
X18354524Y-13030714D01*
X18364048Y-13011667D01*
X18383095Y-13002143D01*
X18411667Y-13002143D01*
X18430714Y-13011667D01*
X18506905Y-13211667D02*
X18516429Y-13202143D01*
X18535476Y-13173571D01*
X18545000Y-13154524D01*
X18554524Y-13125952D01*
X18564048Y-13078333D01*
X18564048Y-13040238D01*
X18554524Y-12992619D01*
X18545000Y-12964048D01*
X18535476Y-12945000D01*
X18516429Y-12916428D01*
X18506905Y-12906905D01*
X18868810Y-13211667D02*
X18859286Y-13202143D01*
X18840238Y-13173571D01*
X18830714Y-13154524D01*
X18821190Y-13125952D01*
X18811667Y-13078333D01*
X18811667Y-13040238D01*
X18821190Y-12992619D01*
X18830714Y-12964048D01*
X18840238Y-12945000D01*
X18859286Y-12916428D01*
X18868810Y-12906905D01*
X18945000Y-13002143D02*
X18945000Y-13135476D01*
X18945000Y-13021190D02*
X18954524Y-13011667D01*
X18973571Y-13002143D01*
X19002143Y-13002143D01*
X19021190Y-13011667D01*
X19030714Y-13030714D01*
X19030714Y-13135476D01*
X19154524Y-13135476D02*
X19135476Y-13125952D01*
X19125952Y-13116428D01*
X19116429Y-13097381D01*
X19116429Y-13040238D01*
X19125952Y-13021190D01*
X19135476Y-13011667D01*
X19154524Y-13002143D01*
X19183095Y-13002143D01*
X19202143Y-13011667D01*
X19211667Y-13021190D01*
X19221190Y-13040238D01*
X19221190Y-13097381D01*
X19211667Y-13116428D01*
X19202143Y-13125952D01*
X19183095Y-13135476D01*
X19154524Y-13135476D01*
X19278333Y-13002143D02*
X19354524Y-13002143D01*
X19306905Y-12935476D02*
X19306905Y-13106905D01*
X19316429Y-13125952D01*
X19335476Y-13135476D01*
X19354524Y-13135476D01*
X19573571Y-13002143D02*
X19573571Y-13202143D01*
X19573571Y-13011667D02*
X19592619Y-13002143D01*
X19630714Y-13002143D01*
X19649762Y-13011667D01*
X19659286Y-13021190D01*
X19668810Y-13040238D01*
X19668810Y-13097381D01*
X19659286Y-13116428D01*
X19649762Y-13125952D01*
X19630714Y-13135476D01*
X19592619Y-13135476D01*
X19573571Y-13125952D01*
X19783095Y-13135476D02*
X19764048Y-13125952D01*
X19754524Y-13106905D01*
X19754524Y-12935476D01*
X19945000Y-13135476D02*
X19945000Y-13030714D01*
X19935476Y-13011667D01*
X19916429Y-13002143D01*
X19878333Y-13002143D01*
X19859286Y-13011667D01*
X19945000Y-13125952D02*
X19925952Y-13135476D01*
X19878333Y-13135476D01*
X19859286Y-13125952D01*
X19849762Y-13106905D01*
X19849762Y-13087857D01*
X19859286Y-13068809D01*
X19878333Y-13059286D01*
X19925952Y-13059286D01*
X19945000Y-13049762D01*
X20011667Y-13002143D02*
X20087857Y-13002143D01*
X20040238Y-12935476D02*
X20040238Y-13106905D01*
X20049762Y-13125952D01*
X20068810Y-13135476D01*
X20087857Y-13135476D01*
X20230714Y-13125952D02*
X20211667Y-13135476D01*
X20173571Y-13135476D01*
X20154524Y-13125952D01*
X20145000Y-13106905D01*
X20145000Y-13030714D01*
X20154524Y-13011667D01*
X20173571Y-13002143D01*
X20211667Y-13002143D01*
X20230714Y-13011667D01*
X20240238Y-13030714D01*
X20240238Y-13049762D01*
X20145000Y-13068809D01*
X20411667Y-13135476D02*
X20411667Y-12935476D01*
X20411667Y-13125952D02*
X20392619Y-13135476D01*
X20354524Y-13135476D01*
X20335476Y-13125952D01*
X20325952Y-13116428D01*
X20316429Y-13097381D01*
X20316429Y-13040238D01*
X20325952Y-13021190D01*
X20335476Y-13011667D01*
X20354524Y-13002143D01*
X20392619Y-13002143D01*
X20411667Y-13011667D01*
X20487857Y-13211667D02*
X20497381Y-13202143D01*
X20516429Y-13173571D01*
X20525952Y-13154524D01*
X20535476Y-13125952D01*
X20545000Y-13078333D01*
X20545000Y-13040238D01*
X20535476Y-12992619D01*
X20525952Y-12964048D01*
X20516429Y-12945000D01*
X20497381Y-12916428D01*
X20487857Y-12906905D01*
M02*
