M48
; DRILL file {KiCad (6.0.7)} date Thu Oct 27 11:54:32 2022
; FORMAT={-:-/ absolute / metric / decimal}
; #@! TF.CreationDate,2022-10-27T11:54:32+02:00
; #@! TF.GenerationSoftware,Kicad,Pcbnew,(6.0.7)
; #@! TF.FileFunction,Plated,1,4,PTH
FMAT,2
METRIC
; #@! TA.AperFunction,Plated,PTH,ViaDrill
T1C0.200
; #@! TA.AperFunction,Plated,PTH,ComponentDrill
T2C0.450
; #@! TA.AperFunction,Plated,PTH,ComponentDrill
T3C0.890
; #@! TA.AperFunction,Plated,PTH,ComponentDrill
T4C0.950
; #@! TA.AperFunction,Plated,PTH,ComponentDrill
T5C1.000
; #@! TA.AperFunction,Plated,PTH,ComponentDrill
T6C1.190
; #@! TA.AperFunction,Plated,PTH,ComponentDrill
T7C2.010
%
G90
G05
T1
X210.714Y-105.493
X210.8Y-107.2
X211.3Y-102.7
X211.8Y-114.173
X211.8Y-114.8
X211.8Y-115.5
X212.0Y-113.4
X212.4Y-109.6
X212.65Y-116.15
X212.912Y-102.8
X213.248Y-105.95
X213.25Y-118.05
X213.6Y-114.665
X214.037Y-102.8
X214.75Y-115.95
X215.5Y-107.3
X215.6Y-102.7
X215.681Y-110.825
X216.65Y-110.75
X217.2Y-109.7
X217.4Y-105.6
X217.4Y-106.7
X217.5Y-110.7
X217.9Y-124.05
X218.0Y-120.35
X218.3Y-110.9
X218.409Y-114.187
X218.65Y-115.75
X218.65Y-116.614
X218.65Y-117.4
X218.65Y-118.25
X219.15Y-114.15
X219.5Y-117.3
X219.5Y-118.05
X219.9Y-114.1
X220.2Y-107.8
X220.675Y-114.123
X221.05Y-112.05
X221.3Y-107.2
X221.45Y-114.123
X221.45Y-121.45
X222.3Y-114.073
X222.3Y-116.1
X222.3Y-122.4
X222.6Y-110.6
X222.6Y-111.5
X222.7Y-104.4
X222.9Y-116.8
X222.95Y-116.1
X223.1Y-114.073
X223.4Y-119.1
X223.6Y-116.1
X223.85Y-114.073
X224.7Y-117.1
X225.0Y-110.3
X225.1Y-104.4
X225.5Y-119.2
X225.9Y-107.9
X225.95Y-113.3
X226.611Y-110.894
X227.232Y-110.976
X227.6Y-110.1
X228.3Y-110.2
X228.6Y-108.55
X228.8Y-109.16
X229.05Y-108.1
X229.05Y-116.4
X229.05Y-117.3
X229.05Y-118.2
X229.5Y-112.448
X230.1Y-114.9
X230.2Y-112.44
X231.9Y-109.427
X231.998Y-108.8
X232.3Y-114.0
X233.0Y-107.1
X233.1Y-96.0
X233.1Y-97.6
X233.2Y-115.75
X233.3Y-110.5
X233.425Y-113.875
X233.5Y-108.8
X233.627Y-107.1
X234.047Y-113.948
X234.1Y-115.7
X234.2Y-110.5
X234.255Y-107.052
X234.75Y-113.95
X234.8Y-115.7
X234.88Y-107.1
X235.2Y-110.5
X235.6Y-106.3
X236.182Y-106.533
X236.265Y-107.155
X236.35Y-110.65
X236.8Y-97.6
X236.9Y-107.15
X237.7Y-108.05
X238.0Y-114.9
X238.15Y-115.7
X238.7Y-113.0
X238.9Y-111.55
X239.9Y-102.35
X240.0Y-116.9
X240.5Y-104.09
X241.2Y-105.725
X242.5Y-113.7
X242.5Y-114.6
X242.546Y-115.322
T3
X221.36Y-102.7
X223.9Y-102.7
T4
X243.0Y-98.65
X243.0Y-101.15
X243.0Y-103.65
X243.0Y-106.15
T5
X211.7Y-98.65
X211.7Y-101.15
X227.55Y-106.375
X230.09Y-106.375
X232.36Y-117.5
X234.25Y-91.8
X234.35Y-100.0
X234.35Y-104.3
X234.9Y-117.5
X236.75Y-91.8
X236.85Y-100.0
X236.85Y-104.3
X237.44Y-117.5
T6
X224.76Y-121.92
X227.3Y-121.92
X229.84Y-121.92
X232.96Y-121.92
X235.5Y-121.92
X238.04Y-121.92
T7
X218.82Y-97.62
X228.98Y-97.62
T2
X243.6Y-110.425G85X244.4Y-110.425
G05
X244.4Y-117.575G85X243.6Y-117.575
G05
T0
M30
