G04 #@! TF.GenerationSoftware,KiCad,Pcbnew,(6.0.7)*
G04 #@! TF.CreationDate,2022-10-27T11:54:22+02:00*
G04 #@! TF.ProjectId,sensorNode,73656e73-6f72-44e6-9f64-652e6b696361,rev?*
G04 #@! TF.SameCoordinates,Original*
G04 #@! TF.FileFunction,Legend,Top*
G04 #@! TF.FilePolarity,Positive*
%FSLAX46Y46*%
G04 Gerber Fmt 4.6, Leading zero omitted, Abs format (unit mm)*
G04 Created by KiCad (PCBNEW (6.0.7)) date 2022-10-27 11:54:22*
%MOMM*%
%LPD*%
G01*
G04 APERTURE LIST*
G04 Aperture macros list*
%AMRoundRect*
0 Rectangle with rounded corners*
0 $1 Rounding radius*
0 $2 $3 $4 $5 $6 $7 $8 $9 X,Y pos of 4 corners*
0 Add a 4 corners polygon primitive as box body*
4,1,4,$2,$3,$4,$5,$6,$7,$8,$9,$2,$3,0*
0 Add four circle primitives for the rounded corners*
1,1,$1+$1,$2,$3*
1,1,$1+$1,$4,$5*
1,1,$1+$1,$6,$7*
1,1,$1+$1,$8,$9*
0 Add four rect primitives between the rounded corners*
20,1,$1+$1,$2,$3,$4,$5,0*
20,1,$1+$1,$4,$5,$6,$7,0*
20,1,$1+$1,$6,$7,$8,$9,0*
20,1,$1+$1,$8,$9,$2,$3,0*%
G04 Aperture macros list end*
%ADD10C,0.150000*%
%ADD11C,0.120000*%
%ADD12RoundRect,0.275000X0.225000X0.250000X-0.225000X0.250000X-0.225000X-0.250000X0.225000X-0.250000X0*%
%ADD13RoundRect,0.250000X0.275000X-0.200000X0.275000X0.200000X-0.275000X0.200000X-0.275000X-0.200000X0*%
%ADD14RoundRect,0.100000X-0.387500X-0.050000X0.387500X-0.050000X0.387500X0.050000X-0.387500X0.050000X0*%
%ADD15RoundRect,0.100000X-0.050000X-0.387500X0.050000X-0.387500X0.050000X0.387500X-0.050000X0.387500X0*%
%ADD16RoundRect,0.050000X-1.600000X-1.600000X1.600000X-1.600000X1.600000X1.600000X-1.600000X1.600000X0*%
%ADD17RoundRect,0.268750X0.218750X0.256250X-0.218750X0.256250X-0.218750X-0.256250X0.218750X-0.256250X0*%
%ADD18RoundRect,0.050000X0.850000X-0.850000X0.850000X0.850000X-0.850000X0.850000X-0.850000X-0.850000X0*%
%ADD19O,1.800000X1.800000*%
%ADD20RoundRect,0.268750X0.256250X-0.218750X0.256250X0.218750X-0.256250X0.218750X-0.256250X-0.218750X0*%
%ADD21RoundRect,0.275000X-0.225000X-0.250000X0.225000X-0.250000X0.225000X0.250000X-0.225000X0.250000X0*%
%ADD22RoundRect,0.275000X-0.250000X0.225000X-0.250000X-0.225000X0.250000X-0.225000X0.250000X0.225000X0*%
%ADD23RoundRect,0.275000X0.250000X-0.225000X0.250000X0.225000X-0.250000X0.225000X-0.250000X-0.225000X0*%
%ADD24RoundRect,0.268750X-0.256250X0.218750X-0.256250X-0.218750X0.256250X-0.218750X0.256250X0.218750X0*%
%ADD25RoundRect,0.125000X-0.075000X0.225000X-0.075000X-0.225000X0.075000X-0.225000X0.075000X0.225000X0*%
%ADD26RoundRect,0.112500X-0.062500X0.237500X-0.062500X-0.237500X0.062500X-0.237500X0.062500X0.237500X0*%
%ADD27RoundRect,0.137500X-0.212500X0.087500X-0.212500X-0.087500X0.212500X-0.087500X0.212500X0.087500X0*%
%ADD28RoundRect,0.300000X-0.600000X-0.750000X0.600000X-0.750000X0.600000X0.750000X-0.600000X0.750000X0*%
%ADD29O,1.800000X2.100000*%
%ADD30RoundRect,0.250000X-0.275000X0.200000X-0.275000X-0.200000X0.275000X-0.200000X0.275000X0.200000X0*%
%ADD31RoundRect,0.200000X-0.512500X-0.150000X0.512500X-0.150000X0.512500X0.150000X-0.512500X0.150000X0*%
%ADD32C,3.300000*%
%ADD33RoundRect,0.300000X-0.620000X-0.845000X0.620000X-0.845000X0.620000X0.845000X-0.620000X0.845000X0*%
%ADD34O,1.840000X2.290000*%
%ADD35RoundRect,0.250000X0.200000X0.275000X-0.200000X0.275000X-0.200000X-0.275000X0.200000X-0.275000X0*%
%ADD36RoundRect,0.300000X0.750000X-0.600000X0.750000X0.600000X-0.750000X0.600000X-0.750000X-0.600000X0*%
%ADD37O,2.100000X1.800000*%
%ADD38O,1.700000X2.600000*%
%ADD39O,3.600000X7.100000*%
%ADD40O,0.800000X0.300000*%
%ADD41O,0.300000X0.800000*%
%ADD42RoundRect,0.050000X0.500000X0.500000X-0.500000X0.500000X-0.500000X-0.500000X0.500000X-0.500000X0*%
%ADD43RoundRect,0.300000X0.850000X-0.375000X0.850000X0.375000X-0.850000X0.375000X-0.850000X-0.375000X0*%
%ADD44RoundRect,0.268750X-0.218750X-0.256250X0.218750X-0.256250X0.218750X0.256250X-0.218750X0.256250X0*%
%ADD45RoundRect,0.300000X0.325000X0.650000X-0.325000X0.650000X-0.325000X-0.650000X0.325000X-0.650000X0*%
%ADD46RoundRect,0.050000X0.700000X-0.200000X0.700000X0.200000X-0.700000X0.200000X-0.700000X-0.200000X0*%
%ADD47RoundRect,0.050000X0.725000X-0.575000X0.725000X0.575000X-0.725000X0.575000X-0.725000X-0.575000X0*%
%ADD48RoundRect,0.050000X0.950000X-0.875000X0.950000X0.875000X-0.950000X0.875000X-0.950000X-0.875000X0*%
%ADD49O,2.000000X1.150000*%
%ADD50RoundRect,0.300000X0.650000X-0.325000X0.650000X0.325000X-0.650000X0.325000X-0.650000X-0.325000X0*%
%ADD51RoundRect,0.300000X0.725000X-0.600000X0.725000X0.600000X-0.725000X0.600000X-0.725000X-0.600000X0*%
%ADD52O,2.050000X1.800000*%
%ADD53RoundRect,0.050000X0.225000X-0.300000X0.225000X0.300000X-0.225000X0.300000X-0.225000X-0.300000X0*%
G04 APERTURE END LIST*
D10*
X232571428Y-95599761D02*
X232714285Y-95647380D01*
X232952380Y-95647380D01*
X233047619Y-95599761D01*
X233095238Y-95552142D01*
X233142857Y-95456904D01*
X233142857Y-95361666D01*
X233095238Y-95266428D01*
X233047619Y-95218809D01*
X232952380Y-95171190D01*
X232761904Y-95123571D01*
X232666666Y-95075952D01*
X232619047Y-95028333D01*
X232571428Y-94933095D01*
X232571428Y-94837857D01*
X232619047Y-94742619D01*
X232666666Y-94695000D01*
X232761904Y-94647380D01*
X233000000Y-94647380D01*
X233142857Y-94695000D01*
X233952380Y-95599761D02*
X233857142Y-95647380D01*
X233666666Y-95647380D01*
X233571428Y-95599761D01*
X233523809Y-95504523D01*
X233523809Y-95123571D01*
X233571428Y-95028333D01*
X233666666Y-94980714D01*
X233857142Y-94980714D01*
X233952380Y-95028333D01*
X234000000Y-95123571D01*
X234000000Y-95218809D01*
X233523809Y-95314047D01*
X234428571Y-94980714D02*
X234428571Y-95647380D01*
X234428571Y-95075952D02*
X234476190Y-95028333D01*
X234571428Y-94980714D01*
X234714285Y-94980714D01*
X234809523Y-95028333D01*
X234857142Y-95123571D01*
X234857142Y-95647380D01*
X235285714Y-95599761D02*
X235380952Y-95647380D01*
X235571428Y-95647380D01*
X235666666Y-95599761D01*
X235714285Y-95504523D01*
X235714285Y-95456904D01*
X235666666Y-95361666D01*
X235571428Y-95314047D01*
X235428571Y-95314047D01*
X235333333Y-95266428D01*
X235285714Y-95171190D01*
X235285714Y-95123571D01*
X235333333Y-95028333D01*
X235428571Y-94980714D01*
X235571428Y-94980714D01*
X235666666Y-95028333D01*
X236142857Y-95647380D02*
X236142857Y-94647380D01*
X236714285Y-95647380D01*
X236714285Y-94647380D01*
X237333333Y-95647380D02*
X237238095Y-95599761D01*
X237190476Y-95552142D01*
X237142857Y-95456904D01*
X237142857Y-95171190D01*
X237190476Y-95075952D01*
X237238095Y-95028333D01*
X237333333Y-94980714D01*
X237476190Y-94980714D01*
X237571428Y-95028333D01*
X237619047Y-95075952D01*
X237666666Y-95171190D01*
X237666666Y-95456904D01*
X237619047Y-95552142D01*
X237571428Y-95599761D01*
X237476190Y-95647380D01*
X237333333Y-95647380D01*
X238523809Y-95647380D02*
X238523809Y-94647380D01*
X238523809Y-95599761D02*
X238428571Y-95647380D01*
X238238095Y-95647380D01*
X238142857Y-95599761D01*
X238095238Y-95552142D01*
X238047619Y-95456904D01*
X238047619Y-95171190D01*
X238095238Y-95075952D01*
X238142857Y-95028333D01*
X238238095Y-94980714D01*
X238428571Y-94980714D01*
X238523809Y-95028333D01*
X239380952Y-95599761D02*
X239285714Y-95647380D01*
X239095238Y-95647380D01*
X239000000Y-95599761D01*
X238952380Y-95504523D01*
X238952380Y-95123571D01*
X239000000Y-95028333D01*
X239095238Y-94980714D01*
X239285714Y-94980714D01*
X239380952Y-95028333D01*
X239428571Y-95123571D01*
X239428571Y-95218809D01*
X238952380Y-95314047D01*
X234476190Y-96257380D02*
X234809523Y-97257380D01*
X235142857Y-96257380D01*
X236000000Y-97257380D02*
X235428571Y-97257380D01*
X235714285Y-97257380D02*
X235714285Y-96257380D01*
X235619047Y-96400238D01*
X235523809Y-96495476D01*
X235428571Y-96543095D01*
X236428571Y-97162142D02*
X236476190Y-97209761D01*
X236428571Y-97257380D01*
X236380952Y-97209761D01*
X236428571Y-97162142D01*
X236428571Y-97257380D01*
X237095238Y-96257380D02*
X237190476Y-96257380D01*
X237285714Y-96305000D01*
X237333333Y-96352619D01*
X237380952Y-96447857D01*
X237428571Y-96638333D01*
X237428571Y-96876428D01*
X237380952Y-97066904D01*
X237333333Y-97162142D01*
X237285714Y-97209761D01*
X237190476Y-97257380D01*
X237095238Y-97257380D01*
X237000000Y-97209761D01*
X236952380Y-97162142D01*
X236904761Y-97066904D01*
X236857142Y-96876428D01*
X236857142Y-96638333D01*
X236904761Y-96447857D01*
X236952380Y-96352619D01*
X237000000Y-96305000D01*
X237095238Y-96257380D01*
D11*
X212640580Y-116577500D02*
X212359420Y-116577500D01*
X212640580Y-117597500D02*
X212359420Y-117597500D01*
X239277500Y-114637258D02*
X239277500Y-114162742D01*
X240322500Y-114637258D02*
X240322500Y-114162742D01*
X230815000Y-115010000D02*
X230815000Y-114360000D01*
X237385000Y-115010000D02*
X238035000Y-115010000D01*
X238035000Y-107790000D02*
X238035000Y-108440000D01*
X237385000Y-107790000D02*
X238035000Y-107790000D01*
X231465000Y-115010000D02*
X230815000Y-115010000D01*
X231465000Y-107790000D02*
X230815000Y-107790000D01*
X238035000Y-115010000D02*
X238035000Y-114360000D01*
X213587779Y-104290000D02*
X213262221Y-104290000D01*
X213587779Y-105310000D02*
X213262221Y-105310000D01*
X226462779Y-117510000D02*
X226137221Y-117510000D01*
X226462779Y-116490000D02*
X226137221Y-116490000D01*
X233630000Y-118830000D02*
X238770000Y-118830000D01*
X233630000Y-116170000D02*
X238770000Y-116170000D01*
X238770000Y-118830000D02*
X238770000Y-116170000D01*
X232360000Y-118830000D02*
X231030000Y-118830000D01*
X233630000Y-118830000D02*
X233630000Y-116170000D01*
X231030000Y-118830000D02*
X231030000Y-117500000D01*
X214362779Y-108990000D02*
X214037221Y-108990000D01*
X214362779Y-110010000D02*
X214037221Y-110010000D01*
X217510000Y-115362779D02*
X217510000Y-115037221D01*
X216490000Y-115362779D02*
X216490000Y-115037221D01*
X224662779Y-111710000D02*
X224337221Y-111710000D01*
X224662779Y-110690000D02*
X224337221Y-110690000D01*
X219459420Y-122440000D02*
X219740580Y-122440000D01*
X219459420Y-123460000D02*
X219740580Y-123460000D01*
X215290000Y-115046920D02*
X215290000Y-115328080D01*
X216310000Y-115046920D02*
X216310000Y-115328080D01*
X210840000Y-105740580D02*
X210840000Y-105459420D01*
X211860000Y-105740580D02*
X211860000Y-105459420D01*
X211665000Y-111337221D02*
X211665000Y-111662779D01*
X212685000Y-111337221D02*
X212685000Y-111662779D01*
X212200000Y-107050000D02*
X212200000Y-107500000D01*
X214200000Y-108550000D02*
X214200000Y-108100000D01*
X214200000Y-107200000D02*
X214200000Y-107500000D01*
X212200000Y-108100000D02*
X212200000Y-108550000D01*
X231640000Y-92610000D02*
X232640000Y-92610000D01*
X231340000Y-91910000D02*
X231340000Y-94410000D01*
X239360000Y-92610000D02*
X238360000Y-92610000D01*
X231640000Y-91800000D02*
X232140000Y-91800000D01*
X238360000Y-92610000D02*
X238360000Y-94110000D01*
X231340000Y-94410000D02*
X233840000Y-94410000D01*
X232140000Y-91800000D02*
X232140000Y-90590000D01*
X231640000Y-90090000D02*
X231640000Y-94110000D01*
X232140000Y-90590000D02*
X238860000Y-90590000D01*
X232640000Y-92610000D02*
X232640000Y-94110000D01*
X231640000Y-94110000D02*
X239360000Y-94110000D01*
X238860000Y-90590000D02*
X238860000Y-91800000D01*
X239360000Y-90090000D02*
X231640000Y-90090000D01*
X239360000Y-94110000D02*
X239360000Y-90090000D01*
X238860000Y-91800000D02*
X239360000Y-91800000D01*
X219622500Y-119662742D02*
X219622500Y-120137258D01*
X218577500Y-119662742D02*
X218577500Y-120137258D01*
X222500000Y-110460000D02*
X221700000Y-110460000D01*
X222500000Y-107340000D02*
X220700000Y-107340000D01*
X222500000Y-110460000D02*
X223300000Y-110460000D01*
X222500000Y-107340000D02*
X223300000Y-107340000D01*
X239460000Y-98290000D02*
X231740000Y-98290000D01*
X239460000Y-100810000D02*
X238460000Y-100810000D01*
X231440000Y-102610000D02*
X233940000Y-102610000D01*
X239460000Y-102310000D02*
X239460000Y-98290000D01*
X238960000Y-98790000D02*
X238960000Y-100000000D01*
X231740000Y-102310000D02*
X239460000Y-102310000D01*
X231740000Y-98290000D02*
X231740000Y-102310000D01*
X231740000Y-100000000D02*
X232240000Y-100000000D01*
X231440000Y-100110000D02*
X231440000Y-102610000D01*
X232240000Y-100000000D02*
X232240000Y-98790000D01*
X232740000Y-100810000D02*
X232740000Y-102310000D01*
X238460000Y-100810000D02*
X238460000Y-102310000D01*
X231740000Y-100810000D02*
X232740000Y-100810000D01*
X232240000Y-98790000D02*
X238960000Y-98790000D01*
X238960000Y-100000000D02*
X239460000Y-100000000D01*
X219140580Y-106110000D02*
X218859420Y-106110000D01*
X219140580Y-105090000D02*
X218859420Y-105090000D01*
X226462779Y-118710000D02*
X226137221Y-118710000D01*
X226462779Y-117690000D02*
X226137221Y-117690000D01*
X228820000Y-105045000D02*
X231420000Y-105045000D01*
X228820000Y-107705000D02*
X228820000Y-105045000D01*
X231420000Y-107705000D02*
X231420000Y-105045000D01*
X226220000Y-105045000D02*
X227550000Y-105045000D01*
X226220000Y-106375000D02*
X226220000Y-105045000D01*
X228820000Y-107705000D02*
X231420000Y-107705000D01*
X239420000Y-124910000D02*
X239420000Y-118890000D01*
X232960000Y-123910000D02*
X238040000Y-123910000D01*
X237240000Y-119490000D02*
X238840000Y-119490000D01*
X238840000Y-119490000D02*
X238840000Y-118890000D01*
X232160000Y-118890000D02*
X232160000Y-119490000D01*
X231580000Y-124910000D02*
X239420000Y-124910000D01*
X237790000Y-123380000D02*
X238040000Y-123910000D01*
X237790000Y-124910000D02*
X237790000Y-123910000D01*
X231290000Y-119920000D02*
X231290000Y-123920000D01*
X237240000Y-118890000D02*
X237240000Y-119490000D01*
X234700000Y-119490000D02*
X236300000Y-119490000D01*
X234700000Y-118890000D02*
X234700000Y-119490000D01*
X232960000Y-124910000D02*
X232960000Y-123910000D01*
X233210000Y-124910000D02*
X233210000Y-123910000D01*
X231580000Y-118890000D02*
X231580000Y-124910000D01*
X239420000Y-118890000D02*
X231580000Y-118890000D01*
X233210000Y-123380000D02*
X237790000Y-123380000D01*
X238040000Y-123910000D02*
X238040000Y-124910000D01*
X236300000Y-119490000D02*
X236300000Y-118890000D01*
X232960000Y-123910000D02*
X233210000Y-123380000D01*
X232160000Y-119490000D02*
X233760000Y-119490000D01*
X233760000Y-119490000D02*
X233760000Y-118890000D01*
X219837258Y-121277500D02*
X219362742Y-121277500D01*
X219837258Y-122322500D02*
X219362742Y-122322500D01*
X210390000Y-111337221D02*
X210390000Y-111662779D01*
X211410000Y-111337221D02*
X211410000Y-111662779D01*
X212510000Y-103760000D02*
X212510000Y-102760000D01*
X209990000Y-103760000D02*
X214010000Y-103760000D01*
X210490000Y-96540000D02*
X211700000Y-96540000D01*
X211810000Y-104060000D02*
X214310000Y-104060000D01*
X212510000Y-102760000D02*
X214010000Y-102760000D01*
X211700000Y-96540000D02*
X211700000Y-96040000D01*
X212510000Y-97040000D02*
X214010000Y-97040000D01*
X214010000Y-103760000D02*
X214010000Y-96040000D01*
X210490000Y-103260000D02*
X210490000Y-96540000D01*
X212510000Y-96040000D02*
X212510000Y-97040000D01*
X209990000Y-96040000D02*
X209990000Y-103760000D01*
X211700000Y-103260000D02*
X210490000Y-103260000D01*
X214010000Y-96040000D02*
X209990000Y-96040000D01*
X211700000Y-103760000D02*
X211700000Y-103260000D01*
X214310000Y-104060000D02*
X214310000Y-101560000D01*
X223900000Y-90200000D02*
X222900000Y-91200000D01*
X231400000Y-105000000D02*
X216400000Y-105000000D01*
X223900000Y-90200000D02*
X224900000Y-91200000D01*
X216400000Y-90000000D02*
X231400000Y-90000000D01*
X216400000Y-105000000D02*
X216400000Y-90000000D01*
X231400000Y-90000000D02*
X231400000Y-105000000D01*
X211810000Y-108637221D02*
X211810000Y-108962779D01*
X210790000Y-108637221D02*
X210790000Y-108962779D01*
X220977500Y-123012742D02*
X220977500Y-123487258D01*
X222022500Y-123012742D02*
X222022500Y-123487258D01*
X212450000Y-115937500D02*
X212450000Y-115587500D01*
X214750000Y-113637500D02*
X214750000Y-113987500D01*
X214400000Y-115937500D02*
X214950000Y-115937500D01*
X214400000Y-113637500D02*
X214750000Y-113637500D01*
X212800000Y-115937500D02*
X212450000Y-115937500D01*
X212450000Y-113637500D02*
X212450000Y-113987500D01*
X212800000Y-113637500D02*
X212450000Y-113637500D01*
X222167500Y-116461252D02*
X222167500Y-115938748D01*
X219947500Y-116461252D02*
X219947500Y-115938748D01*
X218837221Y-106290000D02*
X219162779Y-106290000D01*
X218837221Y-107310000D02*
X219162779Y-107310000D01*
X232240000Y-104300000D02*
X232240000Y-103090000D01*
X238960000Y-103090000D02*
X238960000Y-104300000D01*
X231440000Y-106910000D02*
X233940000Y-106910000D01*
X231740000Y-104300000D02*
X232240000Y-104300000D01*
X239460000Y-102590000D02*
X231740000Y-102590000D01*
X238960000Y-104300000D02*
X239460000Y-104300000D01*
X239460000Y-105110000D02*
X238460000Y-105110000D01*
X231740000Y-106610000D02*
X239460000Y-106610000D01*
X238460000Y-105110000D02*
X238460000Y-106610000D01*
X239460000Y-106610000D02*
X239460000Y-102590000D01*
X232740000Y-105110000D02*
X232740000Y-106610000D01*
X231740000Y-102590000D02*
X231740000Y-106610000D01*
X231440000Y-104410000D02*
X231440000Y-106910000D01*
X231740000Y-105110000D02*
X232740000Y-105110000D01*
X232240000Y-103090000D02*
X238960000Y-103090000D01*
X239777500Y-108237258D02*
X239777500Y-107762742D01*
X240822500Y-108237258D02*
X240822500Y-107762742D01*
X217910000Y-112462779D02*
X217910000Y-112137221D01*
X216890000Y-112462779D02*
X216890000Y-112137221D01*
X238677500Y-108237258D02*
X238677500Y-107762742D01*
X239722500Y-108237258D02*
X239722500Y-107762742D01*
X229040000Y-118890000D02*
X229040000Y-119490000D01*
X231220000Y-124910000D02*
X231220000Y-118890000D01*
X231220000Y-118890000D02*
X223380000Y-118890000D01*
X229590000Y-124910000D02*
X229590000Y-123910000D01*
X226500000Y-119490000D02*
X228100000Y-119490000D01*
X224760000Y-124910000D02*
X224760000Y-123910000D01*
X223960000Y-118890000D02*
X223960000Y-119490000D01*
X223380000Y-118890000D02*
X223380000Y-124910000D01*
X225010000Y-123380000D02*
X229590000Y-123380000D01*
X230640000Y-119490000D02*
X230640000Y-118890000D01*
X224760000Y-123910000D02*
X225010000Y-123380000D01*
X229840000Y-123910000D02*
X229840000Y-124910000D01*
X224760000Y-123910000D02*
X229840000Y-123910000D01*
X229040000Y-119490000D02*
X230640000Y-119490000D01*
X225010000Y-124910000D02*
X225010000Y-123910000D01*
X223380000Y-124910000D02*
X231220000Y-124910000D01*
X226500000Y-118890000D02*
X226500000Y-119490000D01*
X223960000Y-119490000D02*
X225560000Y-119490000D01*
X225560000Y-119490000D02*
X225560000Y-118890000D01*
X228100000Y-119490000D02*
X228100000Y-118890000D01*
X223090000Y-119920000D02*
X223090000Y-123920000D01*
X229590000Y-123380000D02*
X229840000Y-123910000D01*
X214790000Y-105459420D02*
X214790000Y-105740580D01*
X215810000Y-105459420D02*
X215810000Y-105740580D01*
X225510000Y-108559420D02*
X225510000Y-108840580D01*
X224490000Y-108559420D02*
X224490000Y-108840580D01*
X213159420Y-105590000D02*
X213440580Y-105590000D01*
X213159420Y-106610000D02*
X213440580Y-106610000D01*
X213885000Y-111640580D02*
X213885000Y-111359420D01*
X212865000Y-111640580D02*
X212865000Y-111359420D01*
X222062779Y-105690000D02*
X221737221Y-105690000D01*
X222062779Y-106710000D02*
X221737221Y-106710000D01*
X227311252Y-114290000D02*
X225888748Y-114290000D01*
X227311252Y-116110000D02*
X225888748Y-116110000D01*
X215085000Y-111662779D02*
X215085000Y-111337221D01*
X214065000Y-111662779D02*
X214065000Y-111337221D01*
X240390000Y-115760000D02*
X240390000Y-115310000D01*
X241090000Y-117810000D02*
X241090000Y-117150000D01*
X245390000Y-117810000D02*
X245180000Y-117810000D01*
X245390000Y-110190000D02*
X245180000Y-110190000D01*
X240390000Y-115760000D02*
X240780000Y-115760000D01*
X242820000Y-117810000D02*
X241090000Y-117810000D01*
X241090000Y-110190000D02*
X241090000Y-110840000D01*
X242820000Y-110190000D02*
X241090000Y-110190000D01*
X224310000Y-117161252D02*
X224310000Y-115738748D01*
X222490000Y-117161252D02*
X222490000Y-115738748D01*
X220810000Y-120040580D02*
X220810000Y-119759420D01*
X219790000Y-120040580D02*
X219790000Y-119759420D01*
X228937258Y-113822500D02*
X228462742Y-113822500D01*
X228937258Y-112777500D02*
X228462742Y-112777500D01*
X243810000Y-108760000D02*
X243810000Y-107760000D01*
X241290000Y-96040000D02*
X241290000Y-108760000D01*
X245610000Y-109060000D02*
X245610000Y-106560000D01*
X243110000Y-109060000D02*
X245610000Y-109060000D01*
X243000000Y-108260000D02*
X241790000Y-108260000D01*
X243810000Y-96040000D02*
X243810000Y-97040000D01*
X245310000Y-96040000D02*
X241290000Y-96040000D01*
X243810000Y-107760000D02*
X245310000Y-107760000D01*
X241790000Y-108260000D02*
X241790000Y-96540000D01*
X241290000Y-108760000D02*
X245310000Y-108760000D01*
X243000000Y-108760000D02*
X243000000Y-108260000D01*
X243810000Y-97040000D02*
X245310000Y-97040000D01*
X243000000Y-96540000D02*
X243000000Y-96040000D01*
X245310000Y-108760000D02*
X245310000Y-96040000D01*
X241790000Y-96540000D02*
X243000000Y-96540000D01*
X219459420Y-124610000D02*
X219740580Y-124610000D01*
X219459420Y-123590000D02*
X219740580Y-123590000D01*
X240322500Y-112037258D02*
X240322500Y-111562742D01*
X239277500Y-112037258D02*
X239277500Y-111562742D01*
X226812500Y-112565000D02*
X224527500Y-112565000D01*
X224527500Y-114035000D02*
X226812500Y-114035000D01*
X224527500Y-112565000D02*
X224527500Y-114035000D01*
X216810000Y-112440580D02*
X216810000Y-112159420D01*
X215790000Y-112440580D02*
X215790000Y-112159420D01*
X240850000Y-118800000D02*
X240850000Y-116250000D01*
X239150000Y-118800000D02*
X240850000Y-118800000D01*
X239150000Y-118800000D02*
X239150000Y-116250000D01*
X215059420Y-116577500D02*
X215340580Y-116577500D01*
X215059420Y-117597500D02*
X215340580Y-117597500D01*
%LPC*%
D12*
X213275000Y-117087500D03*
X211725000Y-117087500D03*
D13*
X239800000Y-115225000D03*
X239800000Y-113575000D03*
D14*
X230987500Y-108800000D03*
X230987500Y-109200000D03*
X230987500Y-109600000D03*
X230987500Y-110000000D03*
X230987500Y-110400000D03*
X230987500Y-110800000D03*
X230987500Y-111200000D03*
X230987500Y-111600000D03*
X230987500Y-112000000D03*
X230987500Y-112400000D03*
X230987500Y-112800000D03*
X230987500Y-113200000D03*
X230987500Y-113600000D03*
X230987500Y-114000000D03*
D15*
X231825000Y-114837500D03*
X232225000Y-114837500D03*
X232625000Y-114837500D03*
X233025000Y-114837500D03*
X233425000Y-114837500D03*
X233825000Y-114837500D03*
X234225000Y-114837500D03*
X234625000Y-114837500D03*
X235025000Y-114837500D03*
X235425000Y-114837500D03*
X235825000Y-114837500D03*
X236225000Y-114837500D03*
X236625000Y-114837500D03*
X237025000Y-114837500D03*
D14*
X237862500Y-114000000D03*
X237862500Y-113600000D03*
X237862500Y-113200000D03*
X237862500Y-112800000D03*
X237862500Y-112400000D03*
X237862500Y-112000000D03*
X237862500Y-111600000D03*
X237862500Y-111200000D03*
X237862500Y-110800000D03*
X237862500Y-110400000D03*
X237862500Y-110000000D03*
X237862500Y-109600000D03*
X237862500Y-109200000D03*
X237862500Y-108800000D03*
D15*
X237025000Y-107962500D03*
X236625000Y-107962500D03*
X236225000Y-107962500D03*
X235825000Y-107962500D03*
X235425000Y-107962500D03*
X235025000Y-107962500D03*
X234625000Y-107962500D03*
X234225000Y-107962500D03*
X233825000Y-107962500D03*
X233425000Y-107962500D03*
X233025000Y-107962500D03*
X232625000Y-107962500D03*
X232225000Y-107962500D03*
X231825000Y-107962500D03*
D16*
X234425000Y-111400000D03*
D17*
X214212500Y-104800000D03*
X212637500Y-104800000D03*
X227087500Y-117000000D03*
X225512500Y-117000000D03*
D18*
X232360000Y-117500000D03*
D19*
X234900000Y-117500000D03*
X237440000Y-117500000D03*
D17*
X214987500Y-109500000D03*
X213412500Y-109500000D03*
D20*
X217000000Y-115987500D03*
X217000000Y-114412500D03*
D17*
X225287500Y-111200000D03*
X223712500Y-111200000D03*
D21*
X218825000Y-122950000D03*
X220375000Y-122950000D03*
D22*
X215800000Y-114412500D03*
X215800000Y-115962500D03*
D23*
X211350000Y-106375000D03*
X211350000Y-104825000D03*
D24*
X212175000Y-110712500D03*
X212175000Y-112287500D03*
D25*
X213950000Y-107175000D03*
D26*
X213450000Y-107175000D03*
X212950000Y-107175000D03*
D25*
X212450000Y-107175000D03*
D27*
X212325000Y-107800000D03*
D25*
X212450000Y-108425000D03*
D26*
X212950000Y-108425000D03*
X213450000Y-108425000D03*
D25*
X213950000Y-108425000D03*
D27*
X214075000Y-107800000D03*
D28*
X234250000Y-91800000D03*
D29*
X236750000Y-91800000D03*
D30*
X219100000Y-119075000D03*
X219100000Y-120725000D03*
D31*
X221362500Y-107950000D03*
X221362500Y-108900000D03*
X221362500Y-109850000D03*
X223637500Y-109850000D03*
X223637500Y-107950000D03*
D32*
X213000000Y-93000000D03*
D28*
X234350000Y-100000000D03*
D29*
X236850000Y-100000000D03*
D12*
X219775000Y-105600000D03*
X218225000Y-105600000D03*
D17*
X227087500Y-118200000D03*
X225512500Y-118200000D03*
D18*
X227550000Y-106375000D03*
D19*
X230090000Y-106375000D03*
D33*
X232960000Y-121920000D03*
D34*
X235500000Y-121920000D03*
X238040000Y-121920000D03*
D35*
X220425000Y-121800000D03*
X218775000Y-121800000D03*
D24*
X210900000Y-110712500D03*
X210900000Y-112287500D03*
D36*
X211700000Y-101150000D03*
D37*
X211700000Y-98650000D03*
D38*
X223900000Y-102700000D03*
D39*
X228980000Y-97620000D03*
D38*
X221360000Y-102700000D03*
D39*
X218820000Y-97620000D03*
D24*
X211300000Y-108012500D03*
X211300000Y-109587500D03*
D32*
X242500000Y-122000000D03*
D30*
X221500000Y-122425000D03*
X221500000Y-124075000D03*
D40*
X214675000Y-115187500D03*
X214675000Y-114787500D03*
X214675000Y-114387500D03*
D41*
X214000000Y-113712500D03*
X213600000Y-113712500D03*
X213200000Y-113712500D03*
D40*
X212525000Y-114387500D03*
X212525000Y-114787500D03*
X212525000Y-115187500D03*
D41*
X213200000Y-115862500D03*
X213600000Y-115862500D03*
X214000000Y-115862500D03*
D42*
X213600000Y-114787500D03*
D43*
X221057500Y-117275000D03*
X221057500Y-115125000D03*
D44*
X218212500Y-106800000D03*
X219787500Y-106800000D03*
D28*
X234350000Y-104300000D03*
D29*
X236850000Y-104300000D03*
D13*
X240300000Y-108825000D03*
X240300000Y-107175000D03*
D20*
X217400000Y-113087500D03*
X217400000Y-111512500D03*
D13*
X239200000Y-108825000D03*
X239200000Y-107175000D03*
D33*
X224760000Y-121920000D03*
D34*
X227300000Y-121920000D03*
X229840000Y-121920000D03*
D22*
X215300000Y-104825000D03*
X215300000Y-106375000D03*
X225000000Y-107925000D03*
X225000000Y-109475000D03*
D21*
X212525000Y-106100000D03*
X214075000Y-106100000D03*
D23*
X213375000Y-112275000D03*
X213375000Y-110725000D03*
D17*
X222687500Y-106200000D03*
X221112500Y-106200000D03*
D45*
X228075000Y-115200000D03*
X225125000Y-115200000D03*
D20*
X214575000Y-112287500D03*
X214575000Y-110712500D03*
D32*
X242500000Y-93000000D03*
D46*
X241350000Y-115300000D03*
X241350000Y-114650000D03*
X241350000Y-114000000D03*
X241350000Y-113350000D03*
X241350000Y-112700000D03*
D47*
X241770000Y-111680000D03*
D48*
X244000000Y-115125000D03*
X244000000Y-112875000D03*
D49*
X244000000Y-117575000D03*
X244000000Y-110425000D03*
D47*
X241770000Y-116320000D03*
D50*
X223400000Y-117925000D03*
X223400000Y-114975000D03*
D23*
X220300000Y-120675000D03*
X220300000Y-119125000D03*
D35*
X229525000Y-113300000D03*
X227875000Y-113300000D03*
D51*
X243000000Y-106150000D03*
D52*
X243000000Y-103650000D03*
X243000000Y-101150000D03*
X243000000Y-98650000D03*
D21*
X218825000Y-124100000D03*
X220375000Y-124100000D03*
D13*
X239800000Y-112625000D03*
X239800000Y-110975000D03*
D44*
X225225000Y-113300000D03*
X226800000Y-113300000D03*
D23*
X216300000Y-113075000D03*
X216300000Y-111525000D03*
D53*
X240000000Y-118350000D03*
X240000000Y-116250000D03*
D32*
X213000000Y-122000000D03*
D21*
X214425000Y-117087500D03*
X215975000Y-117087500D03*
M02*
