M48
; DRILL file {KiCad (6.0.7)} date Thu Oct 27 11:55:26 2022
; FORMAT={-:-/ absolute / metric / decimal}
; #@! TF.CreationDate,2022-10-27T11:55:26+02:00
; #@! TF.GenerationSoftware,Kicad,Pcbnew,(6.0.7)
; #@! TF.FileFunction,Plated,1,4,PTH
FMAT,2
METRIC
; #@! TA.AperFunction,Plated,PTH,ViaDrill
T1C0.200
; #@! TA.AperFunction,Plated,PTH,ComponentDrill
T2C0.450
; #@! TA.AperFunction,Plated,PTH,ComponentDrill
T3C1.000
; #@! TA.AperFunction,Plated,PTH,ComponentDrill
T4C1.190
%
G90
G05
T1
X215.973Y-58.573
X216.1Y-61.6
X216.66Y-58.711
X216.96Y-55.74
X217.04Y-54.55
X217.63Y-55.74
X218.14Y-47.6
X218.2Y-49.3
X218.2Y-49.927
X218.2Y-60.7
X218.2Y-62.7
X218.448Y-59.7
X218.7Y-53.3
X219.5Y-45.9
X219.564Y-54.391
X220.098Y-49.2
X220.1Y-47.6
X220.1Y-48.5
X220.493Y-51.723
X220.7Y-60.0
X221.1Y-54.96
X221.7Y-51.8
X221.85Y-53.5
X222.1Y-44.8
X222.3Y-55.4
X222.65Y-53.45
X222.8Y-46.6
X223.1Y-55.4
X223.1Y-58.4
X223.4Y-48.7
X223.489Y-53.511
X223.5Y-49.7
X223.5Y-51.7
X223.5Y-61.5
X223.789Y-56.089
X223.8Y-44.2
X224.5Y-46.6
X225.2Y-44.2
X225.326Y-49.6
X225.326Y-51.0
X225.773Y-45.9
X225.974Y-56.473
X226.6Y-56.5
X226.86Y-49.0
X226.934Y-48.256
X226.95Y-53.15
X227.0Y-51.2
X227.0Y-52.5
X227.1Y-57.5
X227.2Y-60.6
X227.3Y-47.2
X227.3Y-45.891
X227.303Y-46.518
X228.239Y-60.439
X228.4Y-57.5
X228.507Y-61.327
X228.55Y-58.777
X228.865Y-60.45
X229.39Y-59.867
X229.9Y-48.8
X230.5Y-49.55
X230.589Y-60.539
X230.6Y-57.5
X230.7Y-55.8
X230.9Y-46.6
X231.189Y-58.911
X231.25Y-53.3
X231.3Y-41.0
X231.36Y-57.5
X231.4Y-44.7
X231.5Y-46.6
X231.76Y-55.5
X231.95Y-53.3
X232.069Y-58.948
X232.1Y-46.6
X232.25Y-57.5
X232.6Y-51.3
X232.7Y-39.6
X232.75Y-62.7
X233.05Y-60.301
X233.062Y-60.938
X233.2Y-51.3
X233.25Y-56.35
X233.25Y-57.0
X233.95Y-63.25
X234.1Y-53.4
X234.1Y-54.4
X234.1Y-58.998
X234.7Y-53.4
X234.7Y-54.4
X235.05Y-78.3
X235.1Y-63.25
X235.3Y-53.4
X235.3Y-54.4
X235.35Y-59.0
X235.7Y-40.5
X235.746Y-56.55
X235.75Y-78.3
X235.9Y-53.4
X235.9Y-54.4
X235.9Y-61.502
X235.9Y-62.0
T3
X216.475Y-45.875
X216.475Y-48.415
X216.475Y-50.955
X228.65Y-46.85
X228.65Y-49.39
T4
X216.575Y-41.32
X219.115Y-41.32
X221.655Y-41.32
X224.575Y-41.32
X227.115Y-41.32
X229.655Y-41.32
T2
X234.6Y-39.325G85X235.4Y-39.325
G05
X235.4Y-46.475G85X234.6Y-46.475
G05
T0
M30
