G04 #@! TF.GenerationSoftware,KiCad,Pcbnew,(6.0.7)*
G04 #@! TF.CreationDate,2022-10-27T11:55:22+02:00*
G04 #@! TF.ProjectId,soilMoistureSensor,736f696c-4d6f-4697-9374-75726553656e,rev?*
G04 #@! TF.SameCoordinates,Original*
G04 #@! TF.FileFunction,Legend,Top*
G04 #@! TF.FilePolarity,Positive*
%FSLAX46Y46*%
G04 Gerber Fmt 4.6, Leading zero omitted, Abs format (unit mm)*
G04 Created by KiCad (PCBNEW (6.0.7)) date 2022-10-27 11:55:22*
%MOMM*%
%LPD*%
G01*
G04 APERTURE LIST*
G04 Aperture macros list*
%AMRoundRect*
0 Rectangle with rounded corners*
0 $1 Rounding radius*
0 $2 $3 $4 $5 $6 $7 $8 $9 X,Y pos of 4 corners*
0 Add a 4 corners polygon primitive as box body*
4,1,4,$2,$3,$4,$5,$6,$7,$8,$9,$2,$3,0*
0 Add four circle primitives for the rounded corners*
1,1,$1+$1,$2,$3*
1,1,$1+$1,$4,$5*
1,1,$1+$1,$6,$7*
1,1,$1+$1,$8,$9*
0 Add four rect primitives between the rounded corners*
20,1,$1+$1,$2,$3,$4,$5,0*
20,1,$1+$1,$4,$5,$6,$7,0*
20,1,$1+$1,$6,$7,$8,$9,0*
20,1,$1+$1,$8,$9,$2,$3,0*%
G04 Aperture macros list end*
%ADD10C,0.150000*%
%ADD11C,0.120000*%
%ADD12RoundRect,0.300000X-0.650000X0.325000X-0.650000X-0.325000X0.650000X-0.325000X0.650000X0.325000X0*%
%ADD13RoundRect,0.275000X-0.225000X-0.250000X0.225000X-0.250000X0.225000X0.250000X-0.225000X0.250000X0*%
%ADD14RoundRect,0.300000X1.100000X-0.325000X1.100000X0.325000X-1.100000X0.325000X-1.100000X-0.325000X0*%
%ADD15RoundRect,0.250000X-0.275000X0.200000X-0.275000X-0.200000X0.275000X-0.200000X0.275000X0.200000X0*%
%ADD16RoundRect,0.050000X0.150000X0.400000X-0.150000X0.400000X-0.150000X-0.400000X0.150000X-0.400000X0*%
%ADD17RoundRect,0.250000X0.200000X0.275000X-0.200000X0.275000X-0.200000X-0.275000X0.200000X-0.275000X0*%
%ADD18RoundRect,0.250000X-0.200000X-0.275000X0.200000X-0.275000X0.200000X0.275000X-0.200000X0.275000X0*%
%ADD19RoundRect,0.275000X0.250000X-0.225000X0.250000X0.225000X-0.250000X0.225000X-0.250000X-0.225000X0*%
%ADD20RoundRect,0.050000X0.700000X-0.200000X0.700000X0.200000X-0.700000X0.200000X-0.700000X-0.200000X0*%
%ADD21O,2.000000X1.150000*%
%ADD22RoundRect,0.050000X0.725000X-0.575000X0.725000X0.575000X-0.725000X0.575000X-0.725000X-0.575000X0*%
%ADD23RoundRect,0.050000X0.950000X-0.875000X0.950000X0.875000X-0.950000X0.875000X-0.950000X-0.875000X0*%
%ADD24RoundRect,0.268750X0.218750X0.381250X-0.218750X0.381250X-0.218750X-0.381250X0.218750X-0.381250X0*%
%ADD25RoundRect,0.275000X-0.250000X0.225000X-0.250000X-0.225000X0.250000X-0.225000X0.250000X0.225000X0*%
%ADD26RoundRect,0.300000X-0.850000X0.375000X-0.850000X-0.375000X0.850000X-0.375000X0.850000X0.375000X0*%
%ADD27RoundRect,0.150000X0.100000X-0.712500X0.100000X0.712500X-0.100000X0.712500X-0.100000X-0.712500X0*%
%ADD28RoundRect,0.275000X0.225000X0.250000X-0.225000X0.250000X-0.225000X-0.250000X0.225000X-0.250000X0*%
%ADD29RoundRect,0.112500X0.062500X-0.337500X0.062500X0.337500X-0.062500X0.337500X-0.062500X-0.337500X0*%
%ADD30RoundRect,0.112500X0.062500X-0.287500X0.062500X0.287500X-0.062500X0.287500X-0.062500X-0.287500X0*%
%ADD31RoundRect,0.268750X-0.218750X-0.256250X0.218750X-0.256250X0.218750X0.256250X-0.218750X0.256250X0*%
%ADD32RoundRect,0.250000X-0.525000X0.200000X-0.525000X-0.200000X0.525000X-0.200000X0.525000X0.200000X0*%
%ADD33RoundRect,0.125000X-0.075000X0.225000X-0.075000X-0.225000X0.075000X-0.225000X0.075000X0.225000X0*%
%ADD34RoundRect,0.125000X-0.787500X0.075000X-0.787500X-0.075000X0.787500X-0.075000X0.787500X0.075000X0*%
%ADD35RoundRect,0.250000X0.275000X-0.200000X0.275000X0.200000X-0.275000X0.200000X-0.275000X-0.200000X0*%
%ADD36RoundRect,0.268750X0.256250X-0.218750X0.256250X0.218750X-0.256250X0.218750X-0.256250X-0.218750X0*%
%ADD37RoundRect,0.050000X-0.150000X-0.400000X0.150000X-0.400000X0.150000X0.400000X-0.150000X0.400000X0*%
%ADD38RoundRect,0.050000X-0.850000X-0.850000X0.850000X-0.850000X0.850000X0.850000X-0.850000X0.850000X0*%
%ADD39O,1.800000X1.800000*%
%ADD40RoundRect,0.100000X-0.050000X0.387500X-0.050000X-0.387500X0.050000X-0.387500X0.050000X0.387500X0*%
%ADD41RoundRect,0.100000X-0.387500X0.050000X-0.387500X-0.050000X0.387500X-0.050000X0.387500X0.050000X0*%
%ADD42RoundRect,0.050000X-1.600000X1.600000X-1.600000X-1.600000X1.600000X-1.600000X1.600000X1.600000X0*%
%ADD43RoundRect,0.050000X0.200000X-0.125000X0.200000X0.125000X-0.200000X0.125000X-0.200000X-0.125000X0*%
%ADD44RoundRect,0.050000X0.200000X-0.350000X0.200000X0.350000X-0.200000X0.350000X-0.200000X-0.350000X0*%
%ADD45RoundRect,0.112500X-0.062500X0.237500X-0.062500X-0.237500X0.062500X-0.237500X0.062500X0.237500X0*%
%ADD46RoundRect,0.137500X-0.212500X0.087500X-0.212500X-0.087500X0.212500X-0.087500X0.212500X0.087500X0*%
%ADD47RoundRect,0.050000X0.850000X0.850000X-0.850000X0.850000X-0.850000X-0.850000X0.850000X-0.850000X0*%
%ADD48RoundRect,0.300000X-0.620000X-0.845000X0.620000X-0.845000X0.620000X0.845000X-0.620000X0.845000X0*%
%ADD49O,1.840000X2.290000*%
G04 APERTURE END LIST*
D10*
X218504761Y-108104761D02*
X218552380Y-107961904D01*
X218552380Y-107723809D01*
X218504761Y-107628571D01*
X218457142Y-107580952D01*
X218361904Y-107533333D01*
X218266666Y-107533333D01*
X218171428Y-107580952D01*
X218123809Y-107628571D01*
X218076190Y-107723809D01*
X218028571Y-107914285D01*
X217980952Y-108009523D01*
X217933333Y-108057142D01*
X217838095Y-108104761D01*
X217742857Y-108104761D01*
X217647619Y-108057142D01*
X217600000Y-108009523D01*
X217552380Y-107914285D01*
X217552380Y-107676190D01*
X217600000Y-107533333D01*
X218552380Y-106961904D02*
X218504761Y-107057142D01*
X218457142Y-107104761D01*
X218361904Y-107152380D01*
X218076190Y-107152380D01*
X217980952Y-107104761D01*
X217933333Y-107057142D01*
X217885714Y-106961904D01*
X217885714Y-106819047D01*
X217933333Y-106723809D01*
X217980952Y-106676190D01*
X218076190Y-106628571D01*
X218361904Y-106628571D01*
X218457142Y-106676190D01*
X218504761Y-106723809D01*
X218552380Y-106819047D01*
X218552380Y-106961904D01*
X218552380Y-106200000D02*
X217885714Y-106200000D01*
X217552380Y-106200000D02*
X217600000Y-106247619D01*
X217647619Y-106200000D01*
X217600000Y-106152380D01*
X217552380Y-106200000D01*
X217647619Y-106200000D01*
X218552380Y-105580952D02*
X218504761Y-105676190D01*
X218409523Y-105723809D01*
X217552380Y-105723809D01*
X218552380Y-105200000D02*
X217552380Y-105200000D01*
X218266666Y-104866666D01*
X217552380Y-104533333D01*
X218552380Y-104533333D01*
X218552380Y-103914285D02*
X218504761Y-104009523D01*
X218457142Y-104057142D01*
X218361904Y-104104761D01*
X218076190Y-104104761D01*
X217980952Y-104057142D01*
X217933333Y-104009523D01*
X217885714Y-103914285D01*
X217885714Y-103771428D01*
X217933333Y-103676190D01*
X217980952Y-103628571D01*
X218076190Y-103580952D01*
X218361904Y-103580952D01*
X218457142Y-103628571D01*
X218504761Y-103676190D01*
X218552380Y-103771428D01*
X218552380Y-103914285D01*
X218552380Y-103152380D02*
X217885714Y-103152380D01*
X217552380Y-103152380D02*
X217600000Y-103200000D01*
X217647619Y-103152380D01*
X217600000Y-103104761D01*
X217552380Y-103152380D01*
X217647619Y-103152380D01*
X218504761Y-102723809D02*
X218552380Y-102628571D01*
X218552380Y-102438095D01*
X218504761Y-102342857D01*
X218409523Y-102295238D01*
X218361904Y-102295238D01*
X218266666Y-102342857D01*
X218219047Y-102438095D01*
X218219047Y-102580952D01*
X218171428Y-102676190D01*
X218076190Y-102723809D01*
X218028571Y-102723809D01*
X217933333Y-102676190D01*
X217885714Y-102580952D01*
X217885714Y-102438095D01*
X217933333Y-102342857D01*
X217885714Y-102009523D02*
X217885714Y-101628571D01*
X217552380Y-101866666D02*
X218409523Y-101866666D01*
X218504761Y-101819047D01*
X218552380Y-101723809D01*
X218552380Y-101628571D01*
X217885714Y-100866666D02*
X218552380Y-100866666D01*
X217885714Y-101295238D02*
X218409523Y-101295238D01*
X218504761Y-101247619D01*
X218552380Y-101152380D01*
X218552380Y-101009523D01*
X218504761Y-100914285D01*
X218457142Y-100866666D01*
X218552380Y-100390476D02*
X217885714Y-100390476D01*
X218076190Y-100390476D02*
X217980952Y-100342857D01*
X217933333Y-100295238D01*
X217885714Y-100200000D01*
X217885714Y-100104761D01*
X218504761Y-99390476D02*
X218552380Y-99485714D01*
X218552380Y-99676190D01*
X218504761Y-99771428D01*
X218409523Y-99819047D01*
X218028571Y-99819047D01*
X217933333Y-99771428D01*
X217885714Y-99676190D01*
X217885714Y-99485714D01*
X217933333Y-99390476D01*
X218028571Y-99342857D01*
X218123809Y-99342857D01*
X218219047Y-99819047D01*
X218504761Y-98961904D02*
X218552380Y-98819047D01*
X218552380Y-98580952D01*
X218504761Y-98485714D01*
X218457142Y-98438095D01*
X218361904Y-98390476D01*
X218266666Y-98390476D01*
X218171428Y-98438095D01*
X218123809Y-98485714D01*
X218076190Y-98580952D01*
X218028571Y-98771428D01*
X217980952Y-98866666D01*
X217933333Y-98914285D01*
X217838095Y-98961904D01*
X217742857Y-98961904D01*
X217647619Y-98914285D01*
X217600000Y-98866666D01*
X217552380Y-98771428D01*
X217552380Y-98533333D01*
X217600000Y-98390476D01*
X218504761Y-97580952D02*
X218552380Y-97676190D01*
X218552380Y-97866666D01*
X218504761Y-97961904D01*
X218409523Y-98009523D01*
X218028571Y-98009523D01*
X217933333Y-97961904D01*
X217885714Y-97866666D01*
X217885714Y-97676190D01*
X217933333Y-97580952D01*
X218028571Y-97533333D01*
X218123809Y-97533333D01*
X218219047Y-98009523D01*
X217885714Y-97104761D02*
X218552380Y-97104761D01*
X217980952Y-97104761D02*
X217933333Y-97057142D01*
X217885714Y-96961904D01*
X217885714Y-96819047D01*
X217933333Y-96723809D01*
X218028571Y-96676190D01*
X218552380Y-96676190D01*
X218504761Y-96247619D02*
X218552380Y-96152380D01*
X218552380Y-95961904D01*
X218504761Y-95866666D01*
X218409523Y-95819047D01*
X218361904Y-95819047D01*
X218266666Y-95866666D01*
X218219047Y-95961904D01*
X218219047Y-96104761D01*
X218171428Y-96200000D01*
X218076190Y-96247619D01*
X218028571Y-96247619D01*
X217933333Y-96200000D01*
X217885714Y-96104761D01*
X217885714Y-95961904D01*
X217933333Y-95866666D01*
X218552380Y-95247619D02*
X218504761Y-95342857D01*
X218457142Y-95390476D01*
X218361904Y-95438095D01*
X218076190Y-95438095D01*
X217980952Y-95390476D01*
X217933333Y-95342857D01*
X217885714Y-95247619D01*
X217885714Y-95104761D01*
X217933333Y-95009523D01*
X217980952Y-94961904D01*
X218076190Y-94914285D01*
X218361904Y-94914285D01*
X218457142Y-94961904D01*
X218504761Y-95009523D01*
X218552380Y-95104761D01*
X218552380Y-95247619D01*
X218552380Y-94485714D02*
X217885714Y-94485714D01*
X218076190Y-94485714D02*
X217980952Y-94438095D01*
X217933333Y-94390476D01*
X217885714Y-94295238D01*
X217885714Y-94200000D01*
X217552380Y-93247619D02*
X218552380Y-92914285D01*
X217552380Y-92580952D01*
X218552380Y-91723809D02*
X218552380Y-92295238D01*
X218552380Y-92009523D02*
X217552380Y-92009523D01*
X217695238Y-92104761D01*
X217790476Y-92200000D01*
X217838095Y-92295238D01*
X218457142Y-91295238D02*
X218504761Y-91247619D01*
X218552380Y-91295238D01*
X218504761Y-91342857D01*
X218457142Y-91295238D01*
X218552380Y-91295238D01*
X217552380Y-90628571D02*
X217552380Y-90533333D01*
X217600000Y-90438095D01*
X217647619Y-90390476D01*
X217742857Y-90342857D01*
X217933333Y-90295238D01*
X218171428Y-90295238D01*
X218361904Y-90342857D01*
X218457142Y-90390476D01*
X218504761Y-90438095D01*
X218552380Y-90533333D01*
X218552380Y-90628571D01*
X218504761Y-90723809D01*
X218457142Y-90771428D01*
X218361904Y-90819047D01*
X218171428Y-90866666D01*
X217933333Y-90866666D01*
X217742857Y-90819047D01*
X217647619Y-90771428D01*
X217600000Y-90723809D01*
X217552380Y-90628571D01*
D11*
X232390000Y-53188748D02*
X232390000Y-54611252D01*
X234210000Y-53188748D02*
X234210000Y-54611252D01*
X216859420Y-60210000D02*
X217140580Y-60210000D01*
X216859420Y-59190000D02*
X217140580Y-59190000D01*
X236260000Y-50311252D02*
X236260000Y-48888748D01*
X233540000Y-50311252D02*
X233540000Y-48888748D01*
X218777500Y-58737742D02*
X218777500Y-59212258D01*
X219822500Y-58737742D02*
X219822500Y-59212258D01*
X230346428Y-59275000D02*
X230346428Y-57075000D01*
X232546428Y-59275000D02*
X232546428Y-56275000D01*
X223433686Y-57877500D02*
X222959170Y-57877500D01*
X223433686Y-58922500D02*
X222959170Y-58922500D01*
X224962742Y-59577500D02*
X225437258Y-59577500D01*
X224962742Y-60622500D02*
X225437258Y-60622500D01*
X228790000Y-52140580D02*
X228790000Y-51859420D01*
X229810000Y-52140580D02*
X229810000Y-51859420D01*
X233820000Y-46710000D02*
X232090000Y-46710000D01*
X233820000Y-39090000D02*
X232090000Y-39090000D01*
X236390000Y-46710000D02*
X236180000Y-46710000D01*
X232090000Y-46710000D02*
X232090000Y-46050000D01*
X236390000Y-39090000D02*
X236180000Y-39090000D01*
X231390000Y-44660000D02*
X231780000Y-44660000D01*
X231390000Y-44660000D02*
X231390000Y-44210000D01*
X232090000Y-39090000D02*
X232090000Y-39740000D01*
X225412258Y-61822500D02*
X224937742Y-61822500D01*
X225412258Y-60777500D02*
X224937742Y-60777500D01*
X234859420Y-60360000D02*
X235140580Y-60360000D01*
X234859420Y-59340000D02*
X235140580Y-59340000D01*
X232299622Y-47040000D02*
X231500378Y-47040000D01*
X232299622Y-48160000D02*
X231500378Y-48160000D01*
X232640000Y-58559420D02*
X232640000Y-58840580D01*
X233660000Y-58559420D02*
X233660000Y-58840580D01*
X219936428Y-55115580D02*
X219936428Y-54834420D01*
X220956428Y-55115580D02*
X220956428Y-54834420D01*
X218723928Y-56037742D02*
X218723928Y-56512258D01*
X219768928Y-56037742D02*
X219768928Y-56512258D01*
X232210000Y-53038748D02*
X232210000Y-53561252D01*
X229990000Y-53038748D02*
X229990000Y-53561252D01*
X215390000Y-55320000D02*
X215390000Y-53820000D01*
X218610000Y-55320000D02*
X218610000Y-56820000D01*
X215390000Y-55320000D02*
X215390000Y-58245000D01*
X218610000Y-55320000D02*
X218610000Y-53820000D01*
X227440580Y-54310000D02*
X227159420Y-54310000D01*
X227440580Y-53290000D02*
X227159420Y-53290000D01*
X219702734Y-42977500D02*
X219228218Y-42977500D01*
X219702734Y-44022500D02*
X219228218Y-44022500D01*
X235700000Y-58400000D02*
X235700000Y-56400000D01*
X233700000Y-58400000D02*
X233700000Y-56400000D01*
X215280476Y-42765000D02*
X215280476Y-44235000D01*
X215280476Y-44235000D02*
X217565476Y-44235000D01*
X217565476Y-42765000D02*
X215280476Y-42765000D01*
X230222500Y-43962742D02*
X230222500Y-44437258D01*
X229177500Y-43962742D02*
X229177500Y-44437258D01*
X233200000Y-50600000D02*
X233200000Y-49900000D01*
X230200000Y-48600000D02*
X230200000Y-50600000D01*
X233200000Y-48600000D02*
X233200000Y-49300000D01*
X233500000Y-48600000D02*
G75*
G03*
X233500000Y-48600000I-50000J0D01*
G01*
X234472500Y-62037258D02*
X234472500Y-61562742D01*
X233427500Y-62037258D02*
X233427500Y-61562742D01*
X227390000Y-52062779D02*
X227390000Y-51737221D01*
X228410000Y-52062779D02*
X228410000Y-51737221D01*
X234390000Y-53188748D02*
X234390000Y-54611252D01*
X236210000Y-53188748D02*
X236210000Y-54611252D01*
X230156428Y-57534420D02*
X230156428Y-57815580D01*
X229136428Y-57534420D02*
X229136428Y-57815580D01*
X231322500Y-44462742D02*
X231322500Y-44937258D01*
X230277500Y-44462742D02*
X230277500Y-44937258D01*
X226556428Y-57934420D02*
X226556428Y-58215580D01*
X225536428Y-57934420D02*
X225536428Y-58215580D01*
X226746428Y-56975000D02*
X226746428Y-59975000D01*
X228946428Y-56975000D02*
X228946428Y-59175000D01*
X222037742Y-44022500D02*
X222512258Y-44022500D01*
X222037742Y-42977500D02*
X222512258Y-42977500D01*
X215145000Y-44545000D02*
X216475000Y-44545000D01*
X215145000Y-52285000D02*
X217805000Y-52285000D01*
X215145000Y-47145000D02*
X217805000Y-47145000D01*
X217805000Y-47145000D02*
X217805000Y-52285000D01*
X215145000Y-47145000D02*
X215145000Y-52285000D01*
X215145000Y-45875000D02*
X215145000Y-44545000D01*
X222162742Y-58977500D02*
X222637258Y-58977500D01*
X222162742Y-60022500D02*
X222637258Y-60022500D01*
X231390000Y-61409420D02*
X231390000Y-61690580D01*
X232410000Y-61409420D02*
X232410000Y-61690580D01*
X225210000Y-55740580D02*
X225210000Y-55459420D01*
X224190000Y-55740580D02*
X224190000Y-55459420D01*
X235622500Y-62037258D02*
X235622500Y-61562742D01*
X234577500Y-62037258D02*
X234577500Y-61562742D01*
X226285000Y-52810000D02*
X225635000Y-52810000D01*
X226285000Y-46240000D02*
X226285000Y-45590000D01*
X219065000Y-45590000D02*
X219715000Y-45590000D01*
X219065000Y-52160000D02*
X219065000Y-52810000D01*
X219065000Y-52810000D02*
X219715000Y-52810000D01*
X219065000Y-46240000D02*
X219065000Y-45590000D01*
X226285000Y-52160000D02*
X226285000Y-52810000D01*
X235550000Y-79500000D02*
X236050000Y-79500000D01*
X236050000Y-79500000D02*
X236050000Y-79000000D01*
X225537258Y-43922500D02*
X225062742Y-43922500D01*
X225537258Y-42877500D02*
X225062742Y-42877500D01*
X222659420Y-55210000D02*
X222940580Y-55210000D01*
X222659420Y-54190000D02*
X222940580Y-54190000D01*
X228883686Y-55897500D02*
X228409170Y-55897500D01*
X228883686Y-54852500D02*
X228409170Y-54852500D01*
X219973928Y-57462742D02*
X219973928Y-57937258D01*
X221018928Y-57462742D02*
X221018928Y-57937258D01*
X221296428Y-55950000D02*
X221296428Y-56400000D01*
X221296428Y-57000000D02*
X221296428Y-57450000D01*
X223296428Y-57450000D02*
X223296428Y-57000000D01*
X223296428Y-56100000D02*
X223296428Y-56400000D01*
%LPC*%
D12*
X233300000Y-52425000D03*
X233300000Y-55375000D03*
D13*
X216225000Y-59700000D03*
X217775000Y-59700000D03*
D14*
X234900000Y-51075000D03*
X234900000Y-48125000D03*
D15*
X219300000Y-58150000D03*
X219300000Y-59800000D03*
D16*
X232196428Y-56625000D03*
X231696428Y-56625000D03*
X231196428Y-56625000D03*
X230696428Y-56625000D03*
X230696428Y-59725000D03*
X231196428Y-59725000D03*
X231696428Y-59725000D03*
X232196428Y-59725000D03*
D17*
X224021428Y-58400000D03*
X222371428Y-58400000D03*
D18*
X224375000Y-60100000D03*
X226025000Y-60100000D03*
D19*
X229300000Y-52775000D03*
X229300000Y-51225000D03*
D20*
X232350000Y-44200000D03*
X232350000Y-43550000D03*
X232350000Y-42900000D03*
X232350000Y-42250000D03*
X232350000Y-41600000D03*
D21*
X235000000Y-46475000D03*
D22*
X232770000Y-40580000D03*
X232770000Y-45220000D03*
D21*
X235000000Y-39325000D03*
D23*
X235000000Y-44025000D03*
X235000000Y-41775000D03*
D17*
X226000000Y-61300000D03*
X224350000Y-61300000D03*
D13*
X234225000Y-59850000D03*
X235775000Y-59850000D03*
D24*
X232962500Y-47600000D03*
X230837500Y-47600000D03*
D25*
X233150000Y-57925000D03*
X233150000Y-59475000D03*
D19*
X220446428Y-55750000D03*
X220446428Y-54200000D03*
D15*
X219246428Y-55450000D03*
X219246428Y-57100000D03*
D26*
X231100000Y-52225000D03*
X231100000Y-54375000D03*
D27*
X216025000Y-57432500D03*
X216675000Y-57432500D03*
X217325000Y-57432500D03*
X217975000Y-57432500D03*
X217975000Y-53207500D03*
X217325000Y-53207500D03*
X216675000Y-53207500D03*
X216025000Y-53207500D03*
D28*
X228075000Y-53800000D03*
X226525000Y-53800000D03*
D17*
X220290476Y-43500000D03*
X218640476Y-43500000D03*
D29*
X233950000Y-58200000D03*
D30*
X234450000Y-58250000D03*
X234950000Y-58250000D03*
X235450000Y-58250000D03*
X235450000Y-56550000D03*
X234950000Y-56550000D03*
X234450000Y-56550000D03*
X233950000Y-56550000D03*
D31*
X215977976Y-43500000D03*
X217552976Y-43500000D03*
D15*
X229700000Y-43375000D03*
X229700000Y-45025000D03*
D32*
X232387500Y-48850000D03*
D33*
X231337500Y-48750000D03*
X230887500Y-48750000D03*
X230437500Y-48750000D03*
X230437500Y-50450000D03*
X230887500Y-50450000D03*
X231337500Y-50450000D03*
D32*
X232387500Y-50350000D03*
D34*
X232525000Y-49600000D03*
D35*
X233950000Y-62625000D03*
X233950000Y-60975000D03*
D36*
X227900000Y-52687500D03*
X227900000Y-51112500D03*
D12*
X235300000Y-52425000D03*
X235300000Y-55375000D03*
D25*
X229646428Y-56900000D03*
X229646428Y-58450000D03*
D15*
X230800000Y-43875000D03*
X230800000Y-45525000D03*
D25*
X226046428Y-57300000D03*
X226046428Y-58850000D03*
D37*
X227096428Y-59625000D03*
X227596428Y-59625000D03*
X228096428Y-59625000D03*
X228596428Y-59625000D03*
X228596428Y-56525000D03*
X228096428Y-56525000D03*
X227596428Y-56525000D03*
X227096428Y-56525000D03*
D18*
X221450000Y-43500000D03*
X223100000Y-43500000D03*
D38*
X216475000Y-45875000D03*
D39*
X216475000Y-48415000D03*
X216475000Y-50955000D03*
D18*
X221575000Y-59500000D03*
X223225000Y-59500000D03*
D25*
X231900000Y-60775000D03*
X231900000Y-62325000D03*
D19*
X224700000Y-56375000D03*
X224700000Y-54825000D03*
D35*
X235100000Y-62625000D03*
X235100000Y-60975000D03*
D40*
X225275000Y-45762500D03*
X224875000Y-45762500D03*
X224475000Y-45762500D03*
X224075000Y-45762500D03*
X223675000Y-45762500D03*
X223275000Y-45762500D03*
X222875000Y-45762500D03*
X222475000Y-45762500D03*
X222075000Y-45762500D03*
X221675000Y-45762500D03*
X221275000Y-45762500D03*
X220875000Y-45762500D03*
X220475000Y-45762500D03*
X220075000Y-45762500D03*
D41*
X219237500Y-46600000D03*
X219237500Y-47000000D03*
X219237500Y-47400000D03*
X219237500Y-47800000D03*
X219237500Y-48200000D03*
X219237500Y-48600000D03*
X219237500Y-49000000D03*
X219237500Y-49400000D03*
X219237500Y-49800000D03*
X219237500Y-50200000D03*
X219237500Y-50600000D03*
X219237500Y-51000000D03*
X219237500Y-51400000D03*
X219237500Y-51800000D03*
D40*
X220075000Y-52637500D03*
X220475000Y-52637500D03*
X220875000Y-52637500D03*
X221275000Y-52637500D03*
X221675000Y-52637500D03*
X222075000Y-52637500D03*
X222475000Y-52637500D03*
X222875000Y-52637500D03*
X223275000Y-52637500D03*
X223675000Y-52637500D03*
X224075000Y-52637500D03*
X224475000Y-52637500D03*
X224875000Y-52637500D03*
X225275000Y-52637500D03*
D41*
X226112500Y-51800000D03*
X226112500Y-51400000D03*
X226112500Y-51000000D03*
X226112500Y-50600000D03*
X226112500Y-50200000D03*
X226112500Y-49800000D03*
X226112500Y-49400000D03*
X226112500Y-49000000D03*
X226112500Y-48600000D03*
X226112500Y-48200000D03*
X226112500Y-47800000D03*
X226112500Y-47400000D03*
X226112500Y-47000000D03*
X226112500Y-46600000D03*
D42*
X222675000Y-49200000D03*
D43*
X235700000Y-79225000D03*
X235700000Y-78775000D03*
D44*
X235000000Y-79000000D03*
D17*
X226125000Y-43400000D03*
X224475000Y-43400000D03*
D13*
X222025000Y-54700000D03*
X223575000Y-54700000D03*
D17*
X229471428Y-55375000D03*
X227821428Y-55375000D03*
D15*
X220496428Y-56875000D03*
X220496428Y-58525000D03*
D33*
X223046428Y-56075000D03*
D45*
X222546428Y-56075000D03*
X222046428Y-56075000D03*
D33*
X221546428Y-56075000D03*
D46*
X221421428Y-56700000D03*
D33*
X221546428Y-57325000D03*
D45*
X222046428Y-57325000D03*
X222546428Y-57325000D03*
D33*
X223046428Y-57325000D03*
D46*
X223171428Y-56700000D03*
D47*
X228650000Y-46850000D03*
D39*
X228650000Y-49390000D03*
D48*
X224575000Y-41320000D03*
D49*
X227115000Y-41320000D03*
X229655000Y-41320000D03*
D48*
X216575000Y-41320000D03*
D49*
X219115000Y-41320000D03*
X221655000Y-41320000D03*
M02*
