G04 #@! TF.GenerationSoftware,KiCad,Pcbnew,(6.0.7)*
G04 #@! TF.CreationDate,2022-10-27T11:33:35+02:00*
G04 #@! TF.ProjectId,DualLevelSensor,4475616c-4c65-4766-956c-53656e736f72,rev?*
G04 #@! TF.SameCoordinates,Original*
G04 #@! TF.FileFunction,Copper,L1,Top*
G04 #@! TF.FilePolarity,Positive*
%FSLAX46Y46*%
G04 Gerber Fmt 4.6, Leading zero omitted, Abs format (unit mm)*
G04 Created by KiCad (PCBNEW (6.0.7)) date 2022-10-27 11:33:35*
%MOMM*%
%LPD*%
G01*
G04 APERTURE LIST*
G04 Aperture macros list*
%AMRoundRect*
0 Rectangle with rounded corners*
0 $1 Rounding radius*
0 $2 $3 $4 $5 $6 $7 $8 $9 X,Y pos of 4 corners*
0 Add a 4 corners polygon primitive as box body*
4,1,4,$2,$3,$4,$5,$6,$7,$8,$9,$2,$3,0*
0 Add four circle primitives for the rounded corners*
1,1,$1+$1,$2,$3*
1,1,$1+$1,$4,$5*
1,1,$1+$1,$6,$7*
1,1,$1+$1,$8,$9*
0 Add four rect primitives between the rounded corners*
20,1,$1+$1,$2,$3,$4,$5,0*
20,1,$1+$1,$4,$5,$6,$7,0*
20,1,$1+$1,$6,$7,$8,$9,0*
20,1,$1+$1,$8,$9,$2,$3,0*%
G04 Aperture macros list end*
G04 #@! TA.AperFunction,SMDPad,CuDef*
%ADD10RoundRect,0.200000X0.200000X0.275000X-0.200000X0.275000X-0.200000X-0.275000X0.200000X-0.275000X0*%
G04 #@! TD*
G04 #@! TA.AperFunction,SMDPad,CuDef*
%ADD11RoundRect,0.250000X-0.375000X-0.850000X0.375000X-0.850000X0.375000X0.850000X-0.375000X0.850000X0*%
G04 #@! TD*
G04 #@! TA.AperFunction,SMDPad,CuDef*
%ADD12R,0.400000X1.400000*%
G04 #@! TD*
G04 #@! TA.AperFunction,SMDPad,CuDef*
%ADD13R,1.150000X1.450000*%
G04 #@! TD*
G04 #@! TA.AperFunction,SMDPad,CuDef*
%ADD14R,1.750000X1.900000*%
G04 #@! TD*
G04 #@! TA.AperFunction,ComponentPad*
%ADD15O,1.050000X1.900000*%
G04 #@! TD*
G04 #@! TA.AperFunction,SMDPad,CuDef*
%ADD16RoundRect,0.225000X-0.225000X-0.250000X0.225000X-0.250000X0.225000X0.250000X-0.225000X0.250000X0*%
G04 #@! TD*
G04 #@! TA.AperFunction,ComponentPad*
%ADD17R,1.700000X1.700000*%
G04 #@! TD*
G04 #@! TA.AperFunction,ComponentPad*
%ADD18O,1.700000X1.700000*%
G04 #@! TD*
G04 #@! TA.AperFunction,SMDPad,CuDef*
%ADD19RoundRect,0.250000X-7.500000X-3.312500X7.500000X-3.312500X7.500000X3.312500X-7.500000X3.312500X0*%
G04 #@! TD*
G04 #@! TA.AperFunction,SMDPad,CuDef*
%ADD20RoundRect,0.218750X-0.381250X0.218750X-0.381250X-0.218750X0.381250X-0.218750X0.381250X0.218750X0*%
G04 #@! TD*
G04 #@! TA.AperFunction,SMDPad,CuDef*
%ADD21RoundRect,0.250000X-0.250000X-0.250000X0.250000X-0.250000X0.250000X0.250000X-0.250000X0.250000X0*%
G04 #@! TD*
G04 #@! TA.AperFunction,SMDPad,CuDef*
%ADD22RoundRect,0.050000X-0.387500X-0.050000X0.387500X-0.050000X0.387500X0.050000X-0.387500X0.050000X0*%
G04 #@! TD*
G04 #@! TA.AperFunction,SMDPad,CuDef*
%ADD23RoundRect,0.050000X-0.050000X-0.387500X0.050000X-0.387500X0.050000X0.387500X-0.050000X0.387500X0*%
G04 #@! TD*
G04 #@! TA.AperFunction,SMDPad,CuDef*
%ADD24R,3.200000X3.200000*%
G04 #@! TD*
G04 #@! TA.AperFunction,SMDPad,CuDef*
%ADD25RoundRect,0.225000X0.225000X0.250000X-0.225000X0.250000X-0.225000X-0.250000X0.225000X-0.250000X0*%
G04 #@! TD*
G04 #@! TA.AperFunction,SMDPad,CuDef*
%ADD26RoundRect,0.200000X-0.200000X-0.525000X0.200000X-0.525000X0.200000X0.525000X-0.200000X0.525000X0*%
G04 #@! TD*
G04 #@! TA.AperFunction,SMDPad,CuDef*
%ADD27RoundRect,0.075000X-0.225000X-0.075000X0.225000X-0.075000X0.225000X0.075000X-0.225000X0.075000X0*%
G04 #@! TD*
G04 #@! TA.AperFunction,SMDPad,CuDef*
%ADD28RoundRect,0.075000X-0.075000X-0.787500X0.075000X-0.787500X0.075000X0.787500X-0.075000X0.787500X0*%
G04 #@! TD*
G04 #@! TA.AperFunction,SMDPad,CuDef*
%ADD29RoundRect,0.200000X0.275000X-0.200000X0.275000X0.200000X-0.275000X0.200000X-0.275000X-0.200000X0*%
G04 #@! TD*
G04 #@! TA.AperFunction,SMDPad,CuDef*
%ADD30R,0.450000X0.600000*%
G04 #@! TD*
G04 #@! TA.AperFunction,SMDPad,CuDef*
%ADD31RoundRect,0.250000X-0.325000X-0.650000X0.325000X-0.650000X0.325000X0.650000X-0.325000X0.650000X0*%
G04 #@! TD*
G04 #@! TA.AperFunction,SMDPad,CuDef*
%ADD32RoundRect,0.200000X-0.200000X-0.275000X0.200000X-0.275000X0.200000X0.275000X-0.200000X0.275000X0*%
G04 #@! TD*
G04 #@! TA.AperFunction,SMDPad,CuDef*
%ADD33RoundRect,0.200000X-0.275000X0.200000X-0.275000X-0.200000X0.275000X-0.200000X0.275000X0.200000X0*%
G04 #@! TD*
G04 #@! TA.AperFunction,SMDPad,CuDef*
%ADD34RoundRect,0.250000X0.325000X1.100000X-0.325000X1.100000X-0.325000X-1.100000X0.325000X-1.100000X0*%
G04 #@! TD*
G04 #@! TA.AperFunction,SMDPad,CuDef*
%ADD35RoundRect,0.218750X-0.256250X0.218750X-0.256250X-0.218750X0.256250X-0.218750X0.256250X0.218750X0*%
G04 #@! TD*
G04 #@! TA.AperFunction,ComponentPad*
%ADD36RoundRect,0.250000X-0.845000X0.620000X-0.845000X-0.620000X0.845000X-0.620000X0.845000X0.620000X0*%
G04 #@! TD*
G04 #@! TA.AperFunction,ComponentPad*
%ADD37O,2.190000X1.740000*%
G04 #@! TD*
G04 #@! TA.AperFunction,ViaPad*
%ADD38C,0.500000*%
G04 #@! TD*
G04 #@! TA.AperFunction,Conductor*
%ADD39C,0.127000*%
G04 #@! TD*
G04 #@! TA.AperFunction,Conductor*
%ADD40C,0.500000*%
G04 #@! TD*
G04 #@! TA.AperFunction,Conductor*
%ADD41C,0.300000*%
G04 #@! TD*
G04 #@! TA.AperFunction,Conductor*
%ADD42C,0.200000*%
G04 #@! TD*
G04 APERTURE END LIST*
D10*
X82975000Y-38450000D03*
X81325000Y-38450000D03*
D11*
X85150000Y-35550000D03*
X87300000Y-35550000D03*
D12*
X105800000Y-33900000D03*
X105150000Y-33900000D03*
X104500000Y-33900000D03*
X103850000Y-33900000D03*
X103200000Y-33900000D03*
D13*
X102180000Y-33480000D03*
D14*
X103375000Y-31250000D03*
X105625000Y-31250000D03*
D15*
X108075000Y-31250000D03*
X100925000Y-31250000D03*
D13*
X106820000Y-33480000D03*
D16*
X108925000Y-38750000D03*
X110475000Y-38750000D03*
D17*
X79050000Y-39175000D03*
D18*
X76510000Y-39175000D03*
D19*
X85000000Y-115063000D03*
D20*
X80400000Y-33637500D03*
X80400000Y-35762500D03*
D19*
X85000000Y-63313000D03*
D21*
X97500000Y-43250000D03*
D22*
X91312500Y-32150000D03*
X91312500Y-32550000D03*
X91312500Y-32950000D03*
X91312500Y-33350000D03*
X91312500Y-33750000D03*
X91312500Y-34150000D03*
X91312500Y-34550000D03*
X91312500Y-34950000D03*
X91312500Y-35350000D03*
X91312500Y-35750000D03*
X91312500Y-36150000D03*
X91312500Y-36550000D03*
X91312500Y-36950000D03*
X91312500Y-37350000D03*
D23*
X92150000Y-38187500D03*
X92550000Y-38187500D03*
X92950000Y-38187500D03*
X93350000Y-38187500D03*
X93750000Y-38187500D03*
X94150000Y-38187500D03*
X94550000Y-38187500D03*
X94950000Y-38187500D03*
X95350000Y-38187500D03*
X95750000Y-38187500D03*
X96150000Y-38187500D03*
X96550000Y-38187500D03*
X96950000Y-38187500D03*
X97350000Y-38187500D03*
D22*
X98187500Y-37350000D03*
X98187500Y-36950000D03*
X98187500Y-36550000D03*
X98187500Y-36150000D03*
X98187500Y-35750000D03*
X98187500Y-35350000D03*
X98187500Y-34950000D03*
X98187500Y-34550000D03*
X98187500Y-34150000D03*
X98187500Y-33750000D03*
X98187500Y-33350000D03*
X98187500Y-32950000D03*
X98187500Y-32550000D03*
X98187500Y-32150000D03*
D23*
X97350000Y-31312500D03*
X96950000Y-31312500D03*
X96550000Y-31312500D03*
X96150000Y-31312500D03*
X95750000Y-31312500D03*
X95350000Y-31312500D03*
X94950000Y-31312500D03*
X94550000Y-31312500D03*
X94150000Y-31312500D03*
X93750000Y-31312500D03*
X93350000Y-31312500D03*
X92950000Y-31312500D03*
X92550000Y-31312500D03*
X92150000Y-31312500D03*
D24*
X94750000Y-34750000D03*
D25*
X85600000Y-37350000D03*
X84050000Y-37350000D03*
D26*
X81975000Y-34462500D03*
D27*
X81875000Y-35512500D03*
X81875000Y-35962500D03*
X81875000Y-36412500D03*
X83575000Y-36412500D03*
X83575000Y-35962500D03*
X83575000Y-35512500D03*
D26*
X83475000Y-34462500D03*
D28*
X82725000Y-34325000D03*
D29*
X114000000Y-36925000D03*
X114000000Y-35275000D03*
D19*
X85000000Y-46063000D03*
X85000000Y-80563000D03*
D30*
X109800000Y-33450000D03*
X109800000Y-35550000D03*
D19*
X85000000Y-97813000D03*
D31*
X85250000Y-33300000D03*
X88200000Y-33300000D03*
D19*
X85000000Y-89188000D03*
X85000000Y-54688000D03*
D32*
X108875000Y-37650000D03*
X110525000Y-37650000D03*
D25*
X82925000Y-37350000D03*
X81375000Y-37350000D03*
D33*
X76100000Y-35775000D03*
X76100000Y-37425000D03*
D19*
X85000000Y-71938000D03*
D31*
X85250000Y-31300000D03*
X88200000Y-31300000D03*
D34*
X83800000Y-31750000D03*
X80850000Y-31750000D03*
D35*
X109600000Y-30812500D03*
X109600000Y-32387500D03*
D29*
X99650000Y-33575000D03*
X99650000Y-31925000D03*
D19*
X85000000Y-106438000D03*
X85000000Y-123688000D03*
D36*
X111920000Y-31360000D03*
D37*
X111920000Y-33900000D03*
X111920000Y-36440000D03*
D17*
X107500000Y-35750000D03*
D18*
X104960000Y-35750000D03*
X102420000Y-35750000D03*
D36*
X78170000Y-31360000D03*
D37*
X78170000Y-33900000D03*
X78170000Y-36440000D03*
D38*
X94050000Y-37250000D03*
X93200000Y-33750000D03*
X86200000Y-30750000D03*
X98700000Y-39550000D03*
X100550000Y-34550000D03*
X86200000Y-32900000D03*
X95100000Y-33800000D03*
X81123571Y-36510000D03*
X89700000Y-32850000D03*
X111500000Y-38750000D03*
X89250000Y-31000000D03*
X107800000Y-33000000D03*
X86200000Y-31800000D03*
X84250000Y-33450000D03*
X101488873Y-34540000D03*
X107800000Y-33950000D03*
X93986127Y-39006000D03*
X93250000Y-37250000D03*
X96100000Y-33800000D03*
X84250000Y-34050000D03*
X90048500Y-36381314D03*
X86200000Y-33850000D03*
X87150000Y-30750000D03*
X98950000Y-35800000D03*
X97200000Y-30600000D03*
X87150000Y-32900000D03*
X98700000Y-31400000D03*
X95167978Y-30602996D03*
X87150000Y-33850000D03*
X94950000Y-37240000D03*
X87150000Y-31800000D03*
X90500000Y-35750000D03*
X90450000Y-32050000D03*
X94500000Y-40750000D03*
X75500000Y-129500000D03*
X94500000Y-129500000D03*
X75500000Y-40750000D03*
X95500000Y-40750000D03*
X114500000Y-40750000D03*
X114500000Y-129500000D03*
X95500000Y-129500000D03*
X96550000Y-30600000D03*
X94541483Y-30599959D03*
X95550000Y-39001500D03*
X82600000Y-36300000D03*
X81048500Y-35000000D03*
X105800000Y-32940000D03*
X105150000Y-32940000D03*
X103910890Y-34990785D03*
X101061796Y-35796303D03*
X97386234Y-37196558D03*
X98761127Y-38344000D03*
X81000000Y-39950000D03*
X81000000Y-46000000D03*
X82100000Y-39950000D03*
X82100000Y-54700000D03*
X83200000Y-63300000D03*
X83200000Y-39950000D03*
X84300000Y-71900000D03*
X84300000Y-39950000D03*
X85400000Y-39950000D03*
X85400000Y-80563000D03*
X86500000Y-89200000D03*
X86500000Y-39950000D03*
X87600000Y-97800000D03*
X87600000Y-39950000D03*
X88700000Y-39950000D03*
X88700000Y-106400000D03*
X89800000Y-39950000D03*
X88700000Y-114800000D03*
X90900000Y-39950000D03*
X88700000Y-123700000D03*
X99650000Y-39950000D03*
X99600000Y-46100000D03*
X100750000Y-39950000D03*
X100700000Y-54600000D03*
X101850000Y-39950000D03*
X101800000Y-63300000D03*
X102950000Y-39950000D03*
X102900000Y-71900000D03*
X104000000Y-80600000D03*
X104050000Y-39950000D03*
X105150000Y-39950000D03*
X105200000Y-89100000D03*
X106300000Y-97800000D03*
X106250000Y-39950000D03*
X107300000Y-106400000D03*
X107350000Y-39950000D03*
X108450000Y-39950000D03*
X108500000Y-115000000D03*
X109550000Y-39950000D03*
X109600000Y-123700000D03*
X94923497Y-39001500D03*
X97113873Y-32836127D03*
X97150000Y-32200000D03*
X89250000Y-32350000D03*
X108600000Y-34500000D03*
X88350000Y-34600000D03*
X80250000Y-37600000D03*
X111550000Y-38100000D03*
X97043357Y-33458648D03*
X101200000Y-33000000D03*
X79600000Y-37800000D03*
X92150000Y-36800000D03*
X89250000Y-31650000D03*
X92861127Y-30538873D03*
X93487415Y-30555257D03*
X92950000Y-32126500D03*
X92200000Y-32150000D03*
D39*
X94050000Y-37250000D02*
X94150000Y-37350000D01*
X94150000Y-37350000D02*
X94150000Y-38187500D01*
D40*
X81123571Y-37098571D02*
X81375000Y-37350000D01*
D39*
X86200000Y-32900000D02*
X86200000Y-31800000D01*
X93250000Y-37250000D02*
X93327038Y-37250000D01*
D40*
X110475000Y-38750000D02*
X111500000Y-38750000D01*
D41*
X101488873Y-34171127D02*
X102180000Y-33480000D01*
X105625000Y-31250000D02*
X108075000Y-31250000D01*
D40*
X81123571Y-36510000D02*
X81123571Y-37098571D01*
D39*
X84250000Y-34050000D02*
X84250000Y-33450000D01*
D41*
X101478873Y-34550000D02*
X101488873Y-34540000D01*
D39*
X93750000Y-37672962D02*
X93750000Y-38187500D01*
D40*
X107300000Y-33000000D02*
X107550000Y-33000000D01*
D39*
X93750000Y-38769873D02*
X93986127Y-39006000D01*
D40*
X106820000Y-33480000D02*
X107290000Y-33950000D01*
D41*
X109600000Y-30812500D02*
X108512500Y-30812500D01*
D39*
X85250000Y-33300000D02*
X85650000Y-33300000D01*
D40*
X107550000Y-33000000D02*
X107800000Y-33000000D01*
D41*
X103200000Y-33900000D02*
X102600000Y-33900000D01*
X101488873Y-34540000D02*
X101488873Y-34171127D01*
X108512500Y-30812500D02*
X108075000Y-31250000D01*
D40*
X106820000Y-33480000D02*
X107300000Y-33000000D01*
D39*
X93750000Y-38187500D02*
X93750000Y-38769873D01*
D41*
X105625000Y-31250000D02*
X103375000Y-31250000D01*
D40*
X107290000Y-33950000D02*
X107800000Y-33950000D01*
D41*
X102600000Y-33900000D02*
X102180000Y-33480000D01*
D39*
X93327038Y-37250000D02*
X93750000Y-37672962D01*
X85650000Y-33300000D02*
X86200000Y-33850000D01*
D41*
X103375000Y-31250000D02*
X100925000Y-31250000D01*
X100550000Y-34550000D02*
X101478873Y-34550000D01*
D39*
X95350000Y-30785018D02*
X95350000Y-31312500D01*
X97350000Y-30750000D02*
X97350000Y-31312500D01*
X90550000Y-32150000D02*
X91312500Y-32150000D01*
X96950000Y-30850000D02*
X96950000Y-31312500D01*
X98700000Y-31400000D02*
X98187500Y-31912500D01*
X97200000Y-30600000D02*
X97350000Y-30750000D01*
X90450000Y-32050000D02*
X90550000Y-32150000D01*
X95167978Y-30602996D02*
X94950000Y-30820974D01*
X91312500Y-35750000D02*
X90500000Y-35750000D01*
X97200000Y-30600000D02*
X96950000Y-30850000D01*
X98900000Y-35750000D02*
X98187500Y-35750000D01*
X98950000Y-35800000D02*
X98900000Y-35750000D01*
X94950000Y-37240000D02*
X94950000Y-38187500D01*
X94950000Y-30820974D02*
X94950000Y-31312500D01*
X98187500Y-31912500D02*
X98187500Y-32150000D01*
X95167978Y-30602996D02*
X95350000Y-30785018D01*
X86857950Y-37896000D02*
X86523950Y-38230000D01*
D40*
X75500000Y-129500000D02*
X75500000Y-40750000D01*
D39*
X86523950Y-38230000D02*
X83270000Y-38230000D01*
D42*
X82975000Y-38450000D02*
X82550000Y-38450000D01*
D39*
X88250000Y-35400000D02*
X88250000Y-37050000D01*
X83270000Y-38230000D02*
X83050000Y-38450000D01*
D42*
X81790500Y-39209500D02*
X80790500Y-39209500D01*
X82550000Y-38450000D02*
X81790500Y-39209500D01*
D40*
X81500000Y-40750000D02*
X94500000Y-40750000D01*
D39*
X91312500Y-33350000D02*
X90300000Y-33350000D01*
D42*
X80790500Y-39209500D02*
X80500000Y-39500000D01*
X80500000Y-39500000D02*
X80500000Y-40750000D01*
D39*
X87396000Y-37896000D02*
X86857950Y-37896000D01*
D40*
X94500000Y-129500000D02*
X94500000Y-40750000D01*
X80500000Y-40750000D02*
X81500000Y-40750000D01*
X94500000Y-129500000D02*
X75500000Y-129500000D01*
D39*
X83075000Y-38250000D02*
X83075000Y-37200000D01*
D40*
X80500000Y-40750000D02*
X75500000Y-40750000D01*
D39*
X87400000Y-37900000D02*
X87396000Y-37896000D01*
X88250000Y-37050000D02*
X87400000Y-37900000D01*
X83050000Y-38450000D02*
X82975000Y-38450000D01*
X90300000Y-33350000D02*
X88250000Y-35400000D01*
D42*
X108925000Y-38750000D02*
X109250000Y-38750000D01*
X110250000Y-39750000D02*
X110250000Y-40750000D01*
X109250000Y-38750000D02*
X110250000Y-39750000D01*
D39*
X108679000Y-37454000D02*
X101486890Y-37454000D01*
X101486890Y-37454000D02*
X100368580Y-36335690D01*
D40*
X95500000Y-40750000D02*
X95500000Y-129500000D01*
X114500000Y-40750000D02*
X114500000Y-129500000D01*
D39*
X108725000Y-38450000D02*
X108725000Y-37400000D01*
D40*
X110250000Y-40750000D02*
X95500000Y-40750000D01*
D39*
X100368580Y-35927790D02*
X99390790Y-34950000D01*
D40*
X114500000Y-40750000D02*
X110250000Y-40750000D01*
X114500000Y-129500000D02*
X95500000Y-129500000D01*
D39*
X100368580Y-36335690D02*
X100368580Y-35927790D01*
X108875000Y-37650000D02*
X108679000Y-37454000D01*
X99390790Y-34950000D02*
X98187500Y-34950000D01*
D40*
X78500000Y-33900000D02*
X78170000Y-33900000D01*
D41*
X109800000Y-33450000D02*
X111470000Y-33450000D01*
D40*
X80362500Y-35762500D02*
X78500000Y-33900000D01*
D41*
X111470000Y-33450000D02*
X111920000Y-33900000D01*
D40*
X80400000Y-35762500D02*
X80362500Y-35762500D01*
D42*
X85600000Y-37350000D02*
X85600000Y-36000000D01*
X85600000Y-36000000D02*
X85150000Y-35550000D01*
X83962500Y-35962500D02*
X84100000Y-36100000D01*
X84102000Y-36152000D02*
X84100000Y-36150000D01*
X84050000Y-37350000D02*
X84102000Y-37298000D01*
X84102000Y-37298000D02*
X84102000Y-36152000D01*
X83575000Y-35962500D02*
X83962500Y-35962500D01*
D39*
X95350000Y-38801500D02*
X95350000Y-38187500D01*
X94541483Y-30599959D02*
X94550000Y-30608476D01*
X95550000Y-39001500D02*
X95350000Y-38801500D01*
X96550000Y-30600000D02*
X96550000Y-31312500D01*
X94550000Y-30608476D02*
X94550000Y-31312500D01*
D42*
X82600000Y-36300000D02*
X82487500Y-36412500D01*
X82487500Y-36412500D02*
X81875000Y-36412500D01*
X81048500Y-35000000D02*
X81348000Y-35299500D01*
X81597908Y-35962500D02*
X81875000Y-35962500D01*
X81348000Y-35712592D02*
X81597908Y-35962500D01*
X81348000Y-35299500D02*
X81348000Y-35712592D01*
D41*
X105800000Y-33900000D02*
X105800000Y-32940000D01*
D39*
X109487500Y-32500000D02*
X109600000Y-32387500D01*
X99650000Y-31925000D02*
X100225000Y-32500000D01*
X100225000Y-32500000D02*
X109487500Y-32500000D01*
X105150000Y-33900000D02*
X105150000Y-32940000D01*
X104500000Y-33900000D02*
X104500000Y-34500000D01*
X103920105Y-35000000D02*
X103910890Y-34990785D01*
X104500000Y-34500000D02*
X104000000Y-35000000D01*
X104000000Y-35000000D02*
X103920105Y-35000000D01*
X101061796Y-35796303D02*
X101061796Y-36111796D01*
X95750000Y-37700000D02*
X95750000Y-38187500D01*
X97386234Y-37196558D02*
X97082792Y-37500000D01*
X101800000Y-36850000D02*
X106400000Y-36850000D01*
X101061796Y-36111796D02*
X101800000Y-36850000D01*
X106400000Y-36850000D02*
X107500000Y-35750000D01*
X97082792Y-37500000D02*
X95950000Y-37500000D01*
X95950000Y-37500000D02*
X95750000Y-37700000D01*
X97650000Y-39150000D02*
X96350000Y-39150000D01*
X96150000Y-38950000D02*
X96150000Y-38187500D01*
X98456000Y-38344000D02*
X97650000Y-39150000D01*
X98761127Y-38344000D02*
X98456000Y-38344000D01*
X96350000Y-39150000D02*
X96150000Y-38950000D01*
X111920000Y-36440000D02*
X113515000Y-36440000D01*
X113515000Y-36440000D02*
X114000000Y-36925000D01*
X76100000Y-35775000D02*
X76765000Y-36440000D01*
X76765000Y-36440000D02*
X78170000Y-36440000D01*
X88504000Y-35546000D02*
X90300000Y-33750000D01*
X86959160Y-38154000D02*
X87546000Y-38154000D01*
X81400000Y-39500000D02*
X82140790Y-39500000D01*
X82385290Y-39255500D02*
X83544500Y-39255500D01*
X90300000Y-33750000D02*
X91312500Y-33750000D01*
X88504000Y-37196000D02*
X88504000Y-35546000D01*
X86629160Y-38484000D02*
X86959160Y-38154000D01*
X84316000Y-38484000D02*
X86629160Y-38484000D01*
X81000000Y-39900000D02*
X81400000Y-39500000D01*
X82140790Y-39500000D02*
X82385290Y-39255500D01*
X83544500Y-39255500D02*
X84316000Y-38484000D01*
X87546000Y-38154000D02*
X88504000Y-37196000D01*
X82490500Y-39509500D02*
X83681290Y-39509500D01*
X87673580Y-38408000D02*
X88758000Y-37323580D01*
X86734370Y-38738000D02*
X87064370Y-38408000D01*
X82100000Y-39900000D02*
X82490500Y-39509500D01*
X84452790Y-38738000D02*
X86734370Y-38738000D01*
X88758000Y-35692000D02*
X90300000Y-34150000D01*
X90300000Y-34150000D02*
X91312500Y-34150000D01*
X88758000Y-37323580D02*
X88758000Y-35692000D01*
X83681290Y-39509500D02*
X84452790Y-38738000D01*
X87064370Y-38408000D02*
X87673580Y-38408000D01*
X86839580Y-38992000D02*
X87169580Y-38662000D01*
X87169580Y-38662000D02*
X87778790Y-38662000D01*
X90340790Y-34550000D02*
X91312500Y-34550000D01*
X83675000Y-39875000D02*
X84558000Y-38992000D01*
X87778790Y-38662000D02*
X89012000Y-37428790D01*
X89012000Y-37428790D02*
X89012000Y-35878790D01*
X89012000Y-35878790D02*
X90340790Y-34550000D01*
X84558000Y-38992000D02*
X86839580Y-38992000D01*
X83225000Y-39875000D02*
X83675000Y-39875000D01*
X84954000Y-39246000D02*
X86944790Y-39246000D01*
X86944790Y-39246000D02*
X87274790Y-38916000D01*
X89266000Y-37534000D02*
X89266000Y-35984000D01*
X90300000Y-34950000D02*
X91312500Y-34950000D01*
X87274790Y-38916000D02*
X87884000Y-38916000D01*
X87884000Y-38916000D02*
X89266000Y-37534000D01*
X84300000Y-39900000D02*
X84954000Y-39246000D01*
X89266000Y-35984000D02*
X90300000Y-34950000D01*
X87380000Y-39170000D02*
X88030000Y-39170000D01*
X91272000Y-35309500D02*
X91312500Y-35350000D01*
X88030000Y-39170000D02*
X89520000Y-37680000D01*
X85400000Y-39950000D02*
X85850000Y-39500000D01*
X90317538Y-35309500D02*
X91272000Y-35309500D01*
X89520000Y-37680000D02*
X89520000Y-36107038D01*
X87050000Y-39500000D02*
X87380000Y-39170000D01*
X85850000Y-39500000D02*
X87050000Y-39500000D01*
X89520000Y-36107038D02*
X90317538Y-35309500D01*
X90934882Y-36150000D02*
X90176500Y-36908382D01*
X91312500Y-36150000D02*
X90934882Y-36150000D01*
X90176500Y-37423500D02*
X88176000Y-39424000D01*
X88176000Y-39424000D02*
X87503038Y-39424000D01*
X90176500Y-36908382D02*
X90176500Y-37423500D01*
X86977038Y-39950000D02*
X86500000Y-39950000D01*
X87503038Y-39424000D02*
X86977038Y-39950000D01*
X91312500Y-36550000D02*
X90934882Y-36550000D01*
X88040790Y-39950000D02*
X87600000Y-39950000D01*
X90934882Y-36550000D02*
X90430500Y-37054382D01*
X90430500Y-37560290D02*
X88040790Y-39950000D01*
X90430500Y-37054382D02*
X90430500Y-37560290D01*
X88700000Y-39650000D02*
X88700000Y-39950000D01*
X90684500Y-37200382D02*
X90684500Y-37665500D01*
X90684500Y-37665500D02*
X88700000Y-39650000D01*
X91312500Y-36950000D02*
X90934882Y-36950000D01*
X90934882Y-36950000D02*
X90684500Y-37200382D01*
X91312500Y-37637500D02*
X90050000Y-38900000D01*
X90050000Y-38900000D02*
X89800000Y-39150000D01*
X91312500Y-37350000D02*
X91312500Y-37637500D01*
X89800000Y-39150000D02*
X89800000Y-39950000D01*
X92150000Y-38187500D02*
X92150000Y-38800000D01*
X92150000Y-38800000D02*
X91000000Y-39950000D01*
X91000000Y-39950000D02*
X90900000Y-39950000D01*
X98918962Y-39954000D02*
X99646000Y-39954000D01*
X92550000Y-38187500D02*
X92550000Y-38959210D01*
X99646000Y-39954000D02*
X99650000Y-39950000D01*
X92550000Y-38959210D02*
X93581290Y-39990500D01*
X98882462Y-39990500D02*
X98918962Y-39954000D01*
X93581290Y-39990500D02*
X98882462Y-39990500D01*
X98490500Y-39109500D02*
X97900000Y-39700000D01*
X97900000Y-39700000D02*
X93650000Y-39700000D01*
X99909500Y-39109500D02*
X98490500Y-39109500D01*
X92950000Y-39000000D02*
X92950000Y-38187500D01*
X100750000Y-39950000D02*
X99909500Y-39109500D01*
X93650000Y-39700000D02*
X92950000Y-39000000D01*
X100990500Y-39509500D02*
X100668710Y-39509500D01*
X98359210Y-38800000D02*
X97713210Y-39446000D01*
X100668710Y-39509500D02*
X99959210Y-38800000D01*
X99959210Y-38800000D02*
X98359210Y-38800000D01*
X93796000Y-39446000D02*
X93350000Y-39000000D01*
X93350000Y-39000000D02*
X93350000Y-38187500D01*
X101850000Y-39950000D02*
X101424000Y-39524000D01*
X101424000Y-39524000D02*
X101024000Y-39524000D01*
X97713210Y-39446000D02*
X93796000Y-39446000D01*
X102270000Y-39270000D02*
X101129210Y-39270000D01*
X102950000Y-39950000D02*
X102270000Y-39270000D01*
X100764420Y-39246000D02*
X99422420Y-37904000D01*
X97550000Y-38850000D02*
X97234882Y-38850000D01*
X101105210Y-39246000D02*
X100764420Y-39246000D01*
X99422420Y-37904000D02*
X98496000Y-37904000D01*
X96950000Y-38565118D02*
X96950000Y-38187500D01*
X98496000Y-37904000D02*
X97550000Y-38850000D01*
X97234882Y-38850000D02*
X96950000Y-38565118D01*
X101129210Y-39270000D02*
X101105210Y-39246000D01*
X101234420Y-39016000D02*
X101210420Y-38992000D01*
X104050000Y-39950000D02*
X104050000Y-39900000D01*
X99527630Y-37650000D02*
X97800000Y-37650000D01*
X97800000Y-37650000D02*
X97350000Y-38100000D01*
X97350000Y-38100000D02*
X97350000Y-38187500D01*
X104050000Y-39900000D02*
X103166000Y-39016000D01*
X103166000Y-39016000D02*
X101234420Y-39016000D01*
X101210420Y-38992000D02*
X100869630Y-38992000D01*
X100869630Y-38992000D02*
X99527630Y-37650000D01*
X101315630Y-38738000D02*
X100974840Y-38738000D01*
X101339630Y-38762000D02*
X101315630Y-38738000D01*
X99586840Y-37350000D02*
X98187500Y-37350000D01*
X105150000Y-39950000D02*
X103962000Y-38762000D01*
X100974840Y-38738000D02*
X99586840Y-37350000D01*
X103962000Y-38762000D02*
X101339630Y-38762000D01*
X101080050Y-38484000D02*
X99546050Y-36950000D01*
X104808000Y-38508000D02*
X101444840Y-38508000D01*
X106250000Y-39950000D02*
X104808000Y-38508000D01*
X101420840Y-38484000D02*
X101080050Y-38484000D01*
X101444840Y-38508000D02*
X101420840Y-38484000D01*
X99546050Y-36950000D02*
X98187500Y-36950000D01*
X106450000Y-39050000D02*
X105654000Y-38254000D01*
X101526050Y-38230000D02*
X101185260Y-38230000D01*
X105654000Y-38254000D02*
X101550050Y-38254000D01*
X99505260Y-36550000D02*
X98187500Y-36550000D01*
X101185260Y-38230000D02*
X99505260Y-36550000D01*
X107350000Y-39950000D02*
X106450000Y-39050000D01*
X101550050Y-38254000D02*
X101526050Y-38230000D01*
X98565118Y-36150000D02*
X98187500Y-36150000D01*
X99610470Y-36296000D02*
X98711118Y-36296000D01*
X98711118Y-36296000D02*
X98565118Y-36150000D01*
X101631260Y-37976000D02*
X101290470Y-37976000D01*
X101290470Y-37976000D02*
X99610470Y-36296000D01*
X101655260Y-38000000D02*
X101631260Y-37976000D01*
X106500000Y-38000000D02*
X101655260Y-38000000D01*
X108450000Y-39950000D02*
X106500000Y-38000000D01*
X108527894Y-39415500D02*
X106820394Y-37708000D01*
X108565500Y-39415500D02*
X108527894Y-39415500D01*
X100114580Y-36440900D02*
X100114580Y-36033000D01*
X106820394Y-37708000D02*
X101381680Y-37708000D01*
X100114580Y-36033000D02*
X99431580Y-35350000D01*
X109550000Y-39950000D02*
X109100000Y-39950000D01*
X99431580Y-35350000D02*
X98187500Y-35350000D01*
X101381680Y-37708000D02*
X100114580Y-36440900D01*
X109100000Y-39950000D02*
X108565500Y-39415500D01*
X94550000Y-38628003D02*
X94550000Y-38187500D01*
X94923497Y-39001500D02*
X94550000Y-38628003D01*
X96745337Y-32836127D02*
X95750000Y-31840790D01*
X95750000Y-31840790D02*
X95750000Y-31312500D01*
X97113873Y-32836127D02*
X96745337Y-32836127D01*
X97150000Y-32200000D02*
X96550000Y-32200000D01*
X96150000Y-31800000D02*
X96150000Y-31312500D01*
X96550000Y-32200000D02*
X96150000Y-31800000D01*
X89500000Y-32350000D02*
X89850000Y-32000000D01*
X89850000Y-32000000D02*
X89850000Y-31809210D01*
X90346710Y-31312500D02*
X92150000Y-31312500D01*
X89250000Y-32350000D02*
X89500000Y-32350000D01*
X89850000Y-31809210D02*
X90346710Y-31312500D01*
D41*
X108750000Y-34500000D02*
X109800000Y-35550000D01*
X108600000Y-34500000D02*
X108750000Y-34500000D01*
D39*
X90650000Y-32550000D02*
X91312500Y-32550000D01*
D40*
X80250000Y-37600000D02*
X81100000Y-38450000D01*
D39*
X88600000Y-34600000D02*
X90650000Y-32550000D01*
D40*
X81100000Y-38450000D02*
X81325000Y-38450000D01*
D39*
X88350000Y-34600000D02*
X88600000Y-34600000D01*
X97043357Y-33458648D02*
X97008648Y-33458648D01*
X97008648Y-33458648D02*
X96400000Y-32850000D01*
X92450000Y-32850000D02*
X92350000Y-32950000D01*
X92350000Y-32950000D02*
X91312500Y-32950000D01*
X111550000Y-38100000D02*
X110800000Y-37350000D01*
D40*
X111100000Y-37650000D02*
X110525000Y-37650000D01*
D39*
X96400000Y-32850000D02*
X92450000Y-32850000D01*
X110800000Y-37350000D02*
X110325000Y-37350000D01*
D40*
X111550000Y-38100000D02*
X111100000Y-37650000D01*
D39*
X98187500Y-33750000D02*
X99475000Y-33750000D01*
X99475000Y-33750000D02*
X99650000Y-33575000D01*
X101200000Y-33000000D02*
X101000000Y-32800000D01*
X99250000Y-32800000D02*
X98700000Y-33350000D01*
X98700000Y-33350000D02*
X98187500Y-33350000D01*
X101000000Y-32800000D02*
X99250000Y-32800000D01*
X100622580Y-36230480D02*
X100622580Y-35822580D01*
X98925000Y-34384210D02*
X98690790Y-34150000D01*
X98925000Y-34575000D02*
X98925000Y-34384210D01*
X98187500Y-34550000D02*
X98900000Y-34550000D01*
X100622580Y-35822580D02*
X99375000Y-34575000D01*
X101592100Y-37200000D02*
X100622580Y-36230480D01*
X114000000Y-35275000D02*
X111125000Y-35275000D01*
X109850000Y-36550000D02*
X108800000Y-36550000D01*
X98900000Y-34550000D02*
X98925000Y-34575000D01*
X108150000Y-37200000D02*
X101592100Y-37200000D01*
X98690790Y-34150000D02*
X98187500Y-34150000D01*
X111125000Y-35275000D02*
X109850000Y-36550000D01*
X99375000Y-34575000D02*
X98925000Y-34575000D01*
X108800000Y-36550000D02*
X108150000Y-37200000D01*
X96850000Y-36550000D02*
X96850000Y-35450000D01*
X98187500Y-32550000D02*
X98187500Y-32950000D01*
X92400000Y-36550000D02*
X96850000Y-36550000D01*
X92150000Y-36800000D02*
X92400000Y-36550000D01*
X97550000Y-34750000D02*
X97550000Y-33150000D01*
X97550000Y-33150000D02*
X97750000Y-32950000D01*
X96850000Y-35450000D02*
X97550000Y-34750000D01*
X76475000Y-37800000D02*
X79600000Y-37800000D01*
X76100000Y-37425000D02*
X76475000Y-37800000D01*
X97750000Y-32950000D02*
X98187500Y-32950000D01*
X90700000Y-30600000D02*
X92300000Y-30600000D01*
X89250000Y-31650000D02*
X89650000Y-31650000D01*
X92550000Y-30850000D02*
X92550000Y-31312500D01*
X89650000Y-31650000D02*
X90700000Y-30600000D01*
X92300000Y-30600000D02*
X92550000Y-30850000D01*
X92950000Y-31312500D02*
X92950000Y-30627746D01*
X92950000Y-30627746D02*
X92861127Y-30538873D01*
X93487415Y-30555257D02*
X93350000Y-30692672D01*
X93350000Y-30692672D02*
X93350000Y-31312500D01*
X93750000Y-31690118D02*
X93750000Y-31312500D01*
X93313618Y-32126500D02*
X93750000Y-31690118D01*
X92950000Y-32126500D02*
X93313618Y-32126500D01*
X93273118Y-32567000D02*
X94150000Y-31690118D01*
X94150000Y-31690118D02*
X94150000Y-31312500D01*
X92617000Y-32567000D02*
X93273118Y-32567000D01*
X92200000Y-32150000D02*
X92617000Y-32567000D01*
D42*
X81875000Y-34562500D02*
X81975000Y-34462500D01*
X81875000Y-35512500D02*
X81875000Y-34562500D01*
G04 #@! TA.AperFunction,Conductor*
G36*
X86168306Y-30468306D02*
G01*
X86431694Y-30731694D01*
X86450000Y-30775888D01*
X86450000Y-33924112D01*
X86431694Y-33968306D01*
X86118306Y-34281694D01*
X86074112Y-34300000D01*
X83211560Y-34300000D01*
X83167366Y-34281694D01*
X83149067Y-34238447D01*
X83144305Y-33924112D01*
X83100401Y-31026441D01*
X83118700Y-30981300D01*
X83631694Y-30468306D01*
X83675888Y-30450000D01*
X86124112Y-30450000D01*
X86168306Y-30468306D01*
G37*
G04 #@! TD.AperFunction*
G04 #@! TA.AperFunction,Conductor*
G36*
X114481694Y-40768306D02*
G01*
X114500000Y-40812500D01*
X114500000Y-129437500D01*
X114481694Y-129481694D01*
X114437500Y-129500000D01*
X95562500Y-129500000D01*
X95518306Y-129481694D01*
X95500000Y-129437500D01*
X95500000Y-123700000D01*
X109217794Y-123700000D01*
X109236500Y-123818108D01*
X109290789Y-123924655D01*
X109375345Y-124009211D01*
X109379724Y-124011442D01*
X109477511Y-124061268D01*
X109477512Y-124061268D01*
X109481892Y-124063500D01*
X109600000Y-124082206D01*
X109718108Y-124063500D01*
X109722488Y-124061268D01*
X109722489Y-124061268D01*
X109820276Y-124011442D01*
X109824655Y-124009211D01*
X109909211Y-123924655D01*
X109963500Y-123818108D01*
X109982206Y-123700000D01*
X109963500Y-123581892D01*
X109909211Y-123475345D01*
X109824655Y-123390789D01*
X109773278Y-123364611D01*
X109722489Y-123338732D01*
X109722488Y-123338732D01*
X109718108Y-123336500D01*
X109600000Y-123317794D01*
X109481892Y-123336500D01*
X109477512Y-123338732D01*
X109477511Y-123338732D01*
X109426722Y-123364611D01*
X109375345Y-123390789D01*
X109290789Y-123475345D01*
X109236500Y-123581892D01*
X109217794Y-123700000D01*
X95500000Y-123700000D01*
X95500000Y-115000000D01*
X108117794Y-115000000D01*
X108136500Y-115118108D01*
X108190789Y-115224655D01*
X108275345Y-115309211D01*
X108279724Y-115311442D01*
X108377511Y-115361268D01*
X108377512Y-115361268D01*
X108381892Y-115363500D01*
X108500000Y-115382206D01*
X108618108Y-115363500D01*
X108622488Y-115361268D01*
X108622489Y-115361268D01*
X108720276Y-115311442D01*
X108724655Y-115309211D01*
X108809211Y-115224655D01*
X108863500Y-115118108D01*
X108882206Y-115000000D01*
X108863500Y-114881892D01*
X108809211Y-114775345D01*
X108724655Y-114690789D01*
X108673278Y-114664611D01*
X108622489Y-114638732D01*
X108622488Y-114638732D01*
X108618108Y-114636500D01*
X108500000Y-114617794D01*
X108381892Y-114636500D01*
X108377512Y-114638732D01*
X108377511Y-114638732D01*
X108326722Y-114664611D01*
X108275345Y-114690789D01*
X108190789Y-114775345D01*
X108136500Y-114881892D01*
X108117794Y-115000000D01*
X95500000Y-115000000D01*
X95500000Y-106400000D01*
X106917794Y-106400000D01*
X106936500Y-106518108D01*
X106990789Y-106624655D01*
X107075345Y-106709211D01*
X107079724Y-106711442D01*
X107177511Y-106761268D01*
X107177512Y-106761268D01*
X107181892Y-106763500D01*
X107300000Y-106782206D01*
X107418108Y-106763500D01*
X107422488Y-106761268D01*
X107422489Y-106761268D01*
X107520276Y-106711442D01*
X107524655Y-106709211D01*
X107609211Y-106624655D01*
X107663500Y-106518108D01*
X107682206Y-106400000D01*
X107663500Y-106281892D01*
X107609211Y-106175345D01*
X107524655Y-106090789D01*
X107473278Y-106064611D01*
X107422489Y-106038732D01*
X107422488Y-106038732D01*
X107418108Y-106036500D01*
X107300000Y-106017794D01*
X107181892Y-106036500D01*
X107177512Y-106038732D01*
X107177511Y-106038732D01*
X107126722Y-106064611D01*
X107075345Y-106090789D01*
X106990789Y-106175345D01*
X106936500Y-106281892D01*
X106917794Y-106400000D01*
X95500000Y-106400000D01*
X95500000Y-97800000D01*
X105917794Y-97800000D01*
X105936500Y-97918108D01*
X105990789Y-98024655D01*
X106075345Y-98109211D01*
X106079724Y-98111442D01*
X106177511Y-98161268D01*
X106177512Y-98161268D01*
X106181892Y-98163500D01*
X106300000Y-98182206D01*
X106418108Y-98163500D01*
X106422488Y-98161268D01*
X106422489Y-98161268D01*
X106520276Y-98111442D01*
X106524655Y-98109211D01*
X106609211Y-98024655D01*
X106663500Y-97918108D01*
X106682206Y-97800000D01*
X106663500Y-97681892D01*
X106609211Y-97575345D01*
X106524655Y-97490789D01*
X106473278Y-97464611D01*
X106422489Y-97438732D01*
X106422488Y-97438732D01*
X106418108Y-97436500D01*
X106300000Y-97417794D01*
X106181892Y-97436500D01*
X106177512Y-97438732D01*
X106177511Y-97438732D01*
X106126722Y-97464611D01*
X106075345Y-97490789D01*
X105990789Y-97575345D01*
X105936500Y-97681892D01*
X105917794Y-97800000D01*
X95500000Y-97800000D01*
X95500000Y-89100000D01*
X104817794Y-89100000D01*
X104836500Y-89218108D01*
X104890789Y-89324655D01*
X104975345Y-89409211D01*
X104979724Y-89411442D01*
X105077511Y-89461268D01*
X105077512Y-89461268D01*
X105081892Y-89463500D01*
X105200000Y-89482206D01*
X105318108Y-89463500D01*
X105322488Y-89461268D01*
X105322489Y-89461268D01*
X105420276Y-89411442D01*
X105424655Y-89409211D01*
X105509211Y-89324655D01*
X105563500Y-89218108D01*
X105582206Y-89100000D01*
X105563500Y-88981892D01*
X105509211Y-88875345D01*
X105424655Y-88790789D01*
X105373278Y-88764611D01*
X105322489Y-88738732D01*
X105322488Y-88738732D01*
X105318108Y-88736500D01*
X105200000Y-88717794D01*
X105081892Y-88736500D01*
X105077512Y-88738732D01*
X105077511Y-88738732D01*
X105026722Y-88764611D01*
X104975345Y-88790789D01*
X104890789Y-88875345D01*
X104836500Y-88981892D01*
X104817794Y-89100000D01*
X95500000Y-89100000D01*
X95500000Y-80600000D01*
X103617794Y-80600000D01*
X103636500Y-80718108D01*
X103690789Y-80824655D01*
X103775345Y-80909211D01*
X103779724Y-80911442D01*
X103877511Y-80961268D01*
X103877512Y-80961268D01*
X103881892Y-80963500D01*
X104000000Y-80982206D01*
X104118108Y-80963500D01*
X104122488Y-80961268D01*
X104122489Y-80961268D01*
X104220276Y-80911442D01*
X104224655Y-80909211D01*
X104309211Y-80824655D01*
X104363500Y-80718108D01*
X104382206Y-80600000D01*
X104363500Y-80481892D01*
X104309211Y-80375345D01*
X104224655Y-80290789D01*
X104173278Y-80264611D01*
X104122489Y-80238732D01*
X104122488Y-80238732D01*
X104118108Y-80236500D01*
X104000000Y-80217794D01*
X103881892Y-80236500D01*
X103877512Y-80238732D01*
X103877511Y-80238732D01*
X103826722Y-80264611D01*
X103775345Y-80290789D01*
X103690789Y-80375345D01*
X103636500Y-80481892D01*
X103617794Y-80600000D01*
X95500000Y-80600000D01*
X95500000Y-71900000D01*
X102517794Y-71900000D01*
X102536500Y-72018108D01*
X102590789Y-72124655D01*
X102675345Y-72209211D01*
X102679724Y-72211442D01*
X102777511Y-72261268D01*
X102777512Y-72261268D01*
X102781892Y-72263500D01*
X102900000Y-72282206D01*
X103018108Y-72263500D01*
X103022488Y-72261268D01*
X103022489Y-72261268D01*
X103120276Y-72211442D01*
X103124655Y-72209211D01*
X103209211Y-72124655D01*
X103263500Y-72018108D01*
X103282206Y-71900000D01*
X103263500Y-71781892D01*
X103209211Y-71675345D01*
X103124655Y-71590789D01*
X103073278Y-71564611D01*
X103022489Y-71538732D01*
X103022488Y-71538732D01*
X103018108Y-71536500D01*
X102900000Y-71517794D01*
X102781892Y-71536500D01*
X102777512Y-71538732D01*
X102777511Y-71538732D01*
X102726722Y-71564611D01*
X102675345Y-71590789D01*
X102590789Y-71675345D01*
X102536500Y-71781892D01*
X102517794Y-71900000D01*
X95500000Y-71900000D01*
X95500000Y-63300000D01*
X101417794Y-63300000D01*
X101436500Y-63418108D01*
X101490789Y-63524655D01*
X101575345Y-63609211D01*
X101579724Y-63611442D01*
X101677511Y-63661268D01*
X101677512Y-63661268D01*
X101681892Y-63663500D01*
X101800000Y-63682206D01*
X101918108Y-63663500D01*
X101922488Y-63661268D01*
X101922489Y-63661268D01*
X102020276Y-63611442D01*
X102024655Y-63609211D01*
X102109211Y-63524655D01*
X102163500Y-63418108D01*
X102182206Y-63300000D01*
X102163500Y-63181892D01*
X102109211Y-63075345D01*
X102024655Y-62990789D01*
X101973278Y-62964611D01*
X101922489Y-62938732D01*
X101922488Y-62938732D01*
X101918108Y-62936500D01*
X101800000Y-62917794D01*
X101681892Y-62936500D01*
X101677512Y-62938732D01*
X101677511Y-62938732D01*
X101626722Y-62964611D01*
X101575345Y-62990789D01*
X101490789Y-63075345D01*
X101436500Y-63181892D01*
X101417794Y-63300000D01*
X95500000Y-63300000D01*
X95500000Y-54600000D01*
X100317794Y-54600000D01*
X100336500Y-54718108D01*
X100390789Y-54824655D01*
X100475345Y-54909211D01*
X100479724Y-54911442D01*
X100577511Y-54961268D01*
X100577512Y-54961268D01*
X100581892Y-54963500D01*
X100700000Y-54982206D01*
X100818108Y-54963500D01*
X100822488Y-54961268D01*
X100822489Y-54961268D01*
X100920276Y-54911442D01*
X100924655Y-54909211D01*
X101009211Y-54824655D01*
X101063500Y-54718108D01*
X101082206Y-54600000D01*
X101063500Y-54481892D01*
X101009211Y-54375345D01*
X100924655Y-54290789D01*
X100873278Y-54264611D01*
X100822489Y-54238732D01*
X100822488Y-54238732D01*
X100818108Y-54236500D01*
X100700000Y-54217794D01*
X100581892Y-54236500D01*
X100577512Y-54238732D01*
X100577511Y-54238732D01*
X100526722Y-54264611D01*
X100475345Y-54290789D01*
X100390789Y-54375345D01*
X100336500Y-54481892D01*
X100317794Y-54600000D01*
X95500000Y-54600000D01*
X95500000Y-46100000D01*
X99217794Y-46100000D01*
X99236500Y-46218108D01*
X99290789Y-46324655D01*
X99375345Y-46409211D01*
X99379724Y-46411442D01*
X99477511Y-46461268D01*
X99477512Y-46461268D01*
X99481892Y-46463500D01*
X99600000Y-46482206D01*
X99718108Y-46463500D01*
X99722488Y-46461268D01*
X99722489Y-46461268D01*
X99820276Y-46411442D01*
X99824655Y-46409211D01*
X99909211Y-46324655D01*
X99963500Y-46218108D01*
X99982206Y-46100000D01*
X99963500Y-45981892D01*
X99909211Y-45875345D01*
X99824655Y-45790789D01*
X99773278Y-45764611D01*
X99722489Y-45738732D01*
X99722488Y-45738732D01*
X99718108Y-45736500D01*
X99600000Y-45717794D01*
X99481892Y-45736500D01*
X99477512Y-45738732D01*
X99477511Y-45738732D01*
X99426722Y-45764611D01*
X99375345Y-45790789D01*
X99290789Y-45875345D01*
X99236500Y-45981892D01*
X99217794Y-46100000D01*
X95500000Y-46100000D01*
X95500000Y-40812500D01*
X95518306Y-40768306D01*
X95562500Y-40750000D01*
X114437500Y-40750000D01*
X114481694Y-40768306D01*
G37*
G04 #@! TD.AperFunction*
G04 #@! TA.AperFunction,Conductor*
G36*
X82931694Y-33468306D02*
G01*
X82950000Y-33512500D01*
X82950000Y-33876041D01*
X82949465Y-33884199D01*
X82947767Y-33897093D01*
X82947767Y-33897101D01*
X82947500Y-33899125D01*
X82947501Y-35025874D01*
X82947766Y-35027885D01*
X82947766Y-35027890D01*
X82949466Y-35040803D01*
X82950000Y-35048959D01*
X82950000Y-35100000D01*
X82972380Y-35122380D01*
X82984830Y-35140160D01*
X83000277Y-35173287D01*
X83000279Y-35173289D01*
X83002589Y-35178244D01*
X83084256Y-35259911D01*
X83089211Y-35262221D01*
X83089213Y-35262223D01*
X83122340Y-35277670D01*
X83140120Y-35290120D01*
X83150000Y-35300000D01*
X83162431Y-35300000D01*
X83169410Y-35302891D01*
X83182785Y-35305856D01*
X83188929Y-35308721D01*
X83202295Y-35310481D01*
X83234593Y-35314733D01*
X83234601Y-35314733D01*
X83236625Y-35315000D01*
X83238672Y-35315000D01*
X83475642Y-35314999D01*
X83713374Y-35314999D01*
X83715385Y-35314734D01*
X83715390Y-35314734D01*
X83756331Y-35309345D01*
X83756332Y-35309345D01*
X83761071Y-35308721D01*
X83800961Y-35290120D01*
X83860787Y-35262223D01*
X83860789Y-35262221D01*
X83865744Y-35259911D01*
X83947411Y-35178244D01*
X83949721Y-35173289D01*
X83949723Y-35173287D01*
X83994200Y-35077906D01*
X83994201Y-35077903D01*
X83996221Y-35073571D01*
X83999222Y-35050778D01*
X84000000Y-35050000D01*
X84000000Y-35044865D01*
X84001408Y-35034171D01*
X84002233Y-35027907D01*
X84002233Y-35027899D01*
X84002500Y-35025875D01*
X84002500Y-34723388D01*
X84020806Y-34679194D01*
X84181694Y-34518306D01*
X84225888Y-34500000D01*
X85587500Y-34500000D01*
X85631694Y-34518306D01*
X85650000Y-34562500D01*
X85650000Y-36537500D01*
X85631694Y-36581694D01*
X85587500Y-36600000D01*
X84525888Y-36600000D01*
X84481694Y-36581694D01*
X84347806Y-36447806D01*
X84329500Y-36403612D01*
X84329500Y-36159573D01*
X84329586Y-36156302D01*
X84331374Y-36122177D01*
X84331718Y-36115616D01*
X84329364Y-36109483D01*
X84328851Y-36106243D01*
X84328168Y-36093198D01*
X84329374Y-36070178D01*
X84329718Y-36063616D01*
X84327364Y-36057485D01*
X84327364Y-36057482D01*
X84304151Y-35997010D01*
X84300000Y-35974612D01*
X84300000Y-35800000D01*
X84150000Y-35650000D01*
X82675888Y-35650000D01*
X82631694Y-35631694D01*
X82520649Y-35520649D01*
X82502343Y-35476455D01*
X82506682Y-35454118D01*
X82507131Y-35453260D01*
X82527133Y-35385139D01*
X82532500Y-35347810D01*
X82532500Y-33512500D01*
X82550806Y-33468306D01*
X82595000Y-33450000D01*
X82887500Y-33450000D01*
X82931694Y-33468306D01*
G37*
G04 #@! TD.AperFunction*
G04 #@! TA.AperFunction,Conductor*
G36*
X112081694Y-30418306D02*
G01*
X112100000Y-30462500D01*
X112100000Y-32137500D01*
X112081694Y-32181694D01*
X112037500Y-32200000D01*
X110264999Y-32200000D01*
X110220805Y-32181694D01*
X110202499Y-32137500D01*
X110202499Y-32128182D01*
X110195861Y-32077752D01*
X110144256Y-31967086D01*
X110057914Y-31880744D01*
X109947248Y-31829139D01*
X109929922Y-31826858D01*
X109898850Y-31822767D01*
X109898844Y-31822767D01*
X109896819Y-31822500D01*
X109894772Y-31822500D01*
X109599201Y-31822501D01*
X109303182Y-31822501D01*
X109301170Y-31822766D01*
X109301167Y-31822766D01*
X109257492Y-31828515D01*
X109257491Y-31828515D01*
X109252752Y-31829139D01*
X109142086Y-31880744D01*
X109055744Y-31967086D01*
X109004139Y-32077752D01*
X108997500Y-32128181D01*
X108997500Y-32137500D01*
X108979194Y-32181694D01*
X108935000Y-32200000D01*
X100962500Y-32200000D01*
X100918306Y-32181694D01*
X100900000Y-32137500D01*
X100900000Y-30462500D01*
X100918306Y-30418306D01*
X100962500Y-30400000D01*
X112037500Y-30400000D01*
X112081694Y-30418306D01*
G37*
G04 #@! TD.AperFunction*
G04 #@! TA.AperFunction,Conductor*
G36*
X88518306Y-30468306D02*
G01*
X88731694Y-30681694D01*
X88750000Y-30725888D01*
X88750000Y-33887500D01*
X88731694Y-33931694D01*
X88687500Y-33950000D01*
X87800000Y-33950000D01*
X87800000Y-34537500D01*
X87781694Y-34581694D01*
X87737500Y-34600000D01*
X86812500Y-34600000D01*
X86768306Y-34581694D01*
X86750000Y-34537500D01*
X86750000Y-30825888D01*
X86768306Y-30781694D01*
X87081694Y-30468306D01*
X87125888Y-30450000D01*
X88474112Y-30450000D01*
X88518306Y-30468306D01*
G37*
G04 #@! TD.AperFunction*
G04 #@! TA.AperFunction,Conductor*
G36*
X82115931Y-30420002D02*
G01*
X82136905Y-30436905D01*
X82363095Y-30663095D01*
X82397121Y-30725407D01*
X82400000Y-30752190D01*
X82400000Y-35347810D01*
X82379998Y-35415931D01*
X82363095Y-35436905D01*
X82236905Y-35563095D01*
X82174593Y-35597121D01*
X82147810Y-35600000D01*
X81826000Y-35600000D01*
X81757879Y-35579998D01*
X81711386Y-35526342D01*
X81700000Y-35474000D01*
X81700000Y-35000000D01*
X81100000Y-34400000D01*
X80252190Y-34400000D01*
X80184069Y-34379998D01*
X80163095Y-34363095D01*
X79536905Y-33736905D01*
X79502879Y-33674593D01*
X79500000Y-33647810D01*
X79500000Y-30652190D01*
X79520002Y-30584069D01*
X79536905Y-30563095D01*
X79663095Y-30436905D01*
X79725407Y-30402879D01*
X79752190Y-30400000D01*
X82047810Y-30400000D01*
X82115931Y-30420002D01*
G37*
G04 #@! TD.AperFunction*
M02*
