%TF.GenerationSoftware,KiCad,Pcbnew,(6.0.7)*%
%TF.CreationDate,2022-10-27T11:34:40+02:00*%
%TF.ProjectId,DualLevelSensor,4475616c-4c65-4766-956c-53656e736f72,rev?*%
%TF.SameCoordinates,Original*%
%TF.FileFunction,Drillmap*%
%TF.FilePolarity,Positive*%
%FSLAX45Y45*%
G04 Gerber Fmt 4.5, Leading zero omitted, Abs format (unit mm)*
G04 Created by KiCad (PCBNEW (6.0.7)) date 2022-10-27 11:34:40*
%MOMM*%
%LPD*%
G01*
G04 APERTURE LIST*
%ADD10C,0.100000*%
%ADD11C,0.200000*%
%ADD12C,0.320000*%
G04 APERTURE END LIST*
D10*
X11500000Y-3900000D02*
X11500000Y-13000000D01*
X7150000Y-3000000D02*
X11850000Y-3000000D01*
X7150000Y-3700000D02*
X7300000Y-3700000D01*
X7150000Y-3000000D02*
G75*
G03*
X7150000Y-3700000I0J-350000D01*
G01*
X11850000Y-3700000D02*
G75*
G03*
X11850000Y-3000000I0J350000D01*
G01*
X7500000Y-3900000D02*
G75*
G03*
X7300000Y-3700000I-200000J0D01*
G01*
X7500000Y-13000000D02*
X11500000Y-13000000D01*
X11850000Y-3700000D02*
X11700000Y-3700000D01*
X11700000Y-3700000D02*
G75*
G03*
X11500000Y-3900000I0J-200000D01*
G01*
X7500000Y-3900000D02*
X7500000Y-13000000D01*
D11*
D12*
X6990000Y-3190000D02*
X7310000Y-3510000D01*
X7310000Y-3190000D02*
X6990000Y-3510000D01*
X11690000Y-3190000D02*
X12010000Y-3510000D01*
X12010000Y-3190000D02*
X11690000Y-3510000D01*
D11*
X7052619Y-13315476D02*
X7052619Y-13115476D01*
X7100238Y-13115476D01*
X7128809Y-13125000D01*
X7147857Y-13144048D01*
X7157381Y-13163095D01*
X7166905Y-13201190D01*
X7166905Y-13229762D01*
X7157381Y-13267857D01*
X7147857Y-13286905D01*
X7128809Y-13305952D01*
X7100238Y-13315476D01*
X7052619Y-13315476D01*
X7252619Y-13315476D02*
X7252619Y-13182143D01*
X7252619Y-13220238D02*
X7262143Y-13201190D01*
X7271667Y-13191667D01*
X7290714Y-13182143D01*
X7309762Y-13182143D01*
X7376428Y-13315476D02*
X7376428Y-13182143D01*
X7376428Y-13115476D02*
X7366905Y-13125000D01*
X7376428Y-13134524D01*
X7385952Y-13125000D01*
X7376428Y-13115476D01*
X7376428Y-13134524D01*
X7500238Y-13315476D02*
X7481190Y-13305952D01*
X7471667Y-13286905D01*
X7471667Y-13115476D01*
X7605000Y-13315476D02*
X7585952Y-13305952D01*
X7576428Y-13286905D01*
X7576428Y-13115476D01*
X7833571Y-13315476D02*
X7833571Y-13115476D01*
X7900238Y-13258333D01*
X7966905Y-13115476D01*
X7966905Y-13315476D01*
X8147857Y-13315476D02*
X8147857Y-13210714D01*
X8138333Y-13191667D01*
X8119286Y-13182143D01*
X8081190Y-13182143D01*
X8062143Y-13191667D01*
X8147857Y-13305952D02*
X8128809Y-13315476D01*
X8081190Y-13315476D01*
X8062143Y-13305952D01*
X8052619Y-13286905D01*
X8052619Y-13267857D01*
X8062143Y-13248809D01*
X8081190Y-13239286D01*
X8128809Y-13239286D01*
X8147857Y-13229762D01*
X8243095Y-13182143D02*
X8243095Y-13382143D01*
X8243095Y-13191667D02*
X8262143Y-13182143D01*
X8300238Y-13182143D01*
X8319286Y-13191667D01*
X8328809Y-13201190D01*
X8338333Y-13220238D01*
X8338333Y-13277381D01*
X8328809Y-13296428D01*
X8319286Y-13305952D01*
X8300238Y-13315476D01*
X8262143Y-13315476D01*
X8243095Y-13305952D01*
X8424048Y-13296428D02*
X8433571Y-13305952D01*
X8424048Y-13315476D01*
X8414524Y-13305952D01*
X8424048Y-13296428D01*
X8424048Y-13315476D01*
X8424048Y-13191667D02*
X8433571Y-13201190D01*
X8424048Y-13210714D01*
X8414524Y-13201190D01*
X8424048Y-13191667D01*
X8424048Y-13210714D01*
X6595000Y-13545000D02*
X6795000Y-13745000D01*
X6795000Y-13545000D02*
X6595000Y-13745000D01*
X7033571Y-13535476D02*
X7157381Y-13535476D01*
X7090714Y-13611667D01*
X7119286Y-13611667D01*
X7138333Y-13621190D01*
X7147857Y-13630714D01*
X7157381Y-13649762D01*
X7157381Y-13697381D01*
X7147857Y-13716428D01*
X7138333Y-13725952D01*
X7119286Y-13735476D01*
X7062143Y-13735476D01*
X7043095Y-13725952D01*
X7033571Y-13716428D01*
X7243095Y-13716428D02*
X7252619Y-13725952D01*
X7243095Y-13735476D01*
X7233571Y-13725952D01*
X7243095Y-13716428D01*
X7243095Y-13735476D01*
X7328809Y-13554524D02*
X7338333Y-13545000D01*
X7357381Y-13535476D01*
X7405000Y-13535476D01*
X7424048Y-13545000D01*
X7433571Y-13554524D01*
X7443095Y-13573571D01*
X7443095Y-13592619D01*
X7433571Y-13621190D01*
X7319286Y-13735476D01*
X7443095Y-13735476D01*
X7566905Y-13535476D02*
X7585952Y-13535476D01*
X7605000Y-13545000D01*
X7614524Y-13554524D01*
X7624048Y-13573571D01*
X7633571Y-13611667D01*
X7633571Y-13659286D01*
X7624048Y-13697381D01*
X7614524Y-13716428D01*
X7605000Y-13725952D01*
X7585952Y-13735476D01*
X7566905Y-13735476D01*
X7547857Y-13725952D01*
X7538333Y-13716428D01*
X7528809Y-13697381D01*
X7519286Y-13659286D01*
X7519286Y-13611667D01*
X7528809Y-13573571D01*
X7538333Y-13554524D01*
X7547857Y-13545000D01*
X7566905Y-13535476D01*
X7757381Y-13535476D02*
X7776428Y-13535476D01*
X7795476Y-13545000D01*
X7805000Y-13554524D01*
X7814524Y-13573571D01*
X7824048Y-13611667D01*
X7824048Y-13659286D01*
X7814524Y-13697381D01*
X7805000Y-13716428D01*
X7795476Y-13725952D01*
X7776428Y-13735476D01*
X7757381Y-13735476D01*
X7738333Y-13725952D01*
X7728809Y-13716428D01*
X7719286Y-13697381D01*
X7709762Y-13659286D01*
X7709762Y-13611667D01*
X7719286Y-13573571D01*
X7728809Y-13554524D01*
X7738333Y-13545000D01*
X7757381Y-13535476D01*
X7909762Y-13735476D02*
X7909762Y-13602143D01*
X7909762Y-13621190D02*
X7919286Y-13611667D01*
X7938333Y-13602143D01*
X7966905Y-13602143D01*
X7985952Y-13611667D01*
X7995476Y-13630714D01*
X7995476Y-13735476D01*
X7995476Y-13630714D02*
X8005000Y-13611667D01*
X8024048Y-13602143D01*
X8052619Y-13602143D01*
X8071667Y-13611667D01*
X8081190Y-13630714D01*
X8081190Y-13735476D01*
X8176428Y-13735476D02*
X8176428Y-13602143D01*
X8176428Y-13621190D02*
X8185952Y-13611667D01*
X8205000Y-13602143D01*
X8233571Y-13602143D01*
X8252619Y-13611667D01*
X8262143Y-13630714D01*
X8262143Y-13735476D01*
X8262143Y-13630714D02*
X8271667Y-13611667D01*
X8290714Y-13602143D01*
X8319286Y-13602143D01*
X8338333Y-13611667D01*
X8347857Y-13630714D01*
X8347857Y-13735476D01*
X8738333Y-13525952D02*
X8566905Y-13783095D01*
X8995476Y-13535476D02*
X9014524Y-13535476D01*
X9033571Y-13545000D01*
X9043095Y-13554524D01*
X9052619Y-13573571D01*
X9062143Y-13611667D01*
X9062143Y-13659286D01*
X9052619Y-13697381D01*
X9043095Y-13716428D01*
X9033571Y-13725952D01*
X9014524Y-13735476D01*
X8995476Y-13735476D01*
X8976429Y-13725952D01*
X8966905Y-13716428D01*
X8957381Y-13697381D01*
X8947857Y-13659286D01*
X8947857Y-13611667D01*
X8957381Y-13573571D01*
X8966905Y-13554524D01*
X8976429Y-13545000D01*
X8995476Y-13535476D01*
X9147857Y-13716428D02*
X9157381Y-13725952D01*
X9147857Y-13735476D01*
X9138333Y-13725952D01*
X9147857Y-13716428D01*
X9147857Y-13735476D01*
X9347857Y-13735476D02*
X9233571Y-13735476D01*
X9290714Y-13735476D02*
X9290714Y-13535476D01*
X9271667Y-13564048D01*
X9252619Y-13583095D01*
X9233571Y-13592619D01*
X9424048Y-13554524D02*
X9433571Y-13545000D01*
X9452619Y-13535476D01*
X9500238Y-13535476D01*
X9519286Y-13545000D01*
X9528810Y-13554524D01*
X9538333Y-13573571D01*
X9538333Y-13592619D01*
X9528810Y-13621190D01*
X9414524Y-13735476D01*
X9538333Y-13735476D01*
X9709762Y-13535476D02*
X9671667Y-13535476D01*
X9652619Y-13545000D01*
X9643095Y-13554524D01*
X9624048Y-13583095D01*
X9614524Y-13621190D01*
X9614524Y-13697381D01*
X9624048Y-13716428D01*
X9633571Y-13725952D01*
X9652619Y-13735476D01*
X9690714Y-13735476D01*
X9709762Y-13725952D01*
X9719286Y-13716428D01*
X9728810Y-13697381D01*
X9728810Y-13649762D01*
X9719286Y-13630714D01*
X9709762Y-13621190D01*
X9690714Y-13611667D01*
X9652619Y-13611667D01*
X9633571Y-13621190D01*
X9624048Y-13630714D01*
X9614524Y-13649762D01*
X9852619Y-13535476D02*
X9871667Y-13535476D01*
X9890714Y-13545000D01*
X9900238Y-13554524D01*
X9909762Y-13573571D01*
X9919286Y-13611667D01*
X9919286Y-13659286D01*
X9909762Y-13697381D01*
X9900238Y-13716428D01*
X9890714Y-13725952D01*
X9871667Y-13735476D01*
X9852619Y-13735476D01*
X9833571Y-13725952D01*
X9824048Y-13716428D01*
X9814524Y-13697381D01*
X9805000Y-13659286D01*
X9805000Y-13611667D01*
X9814524Y-13573571D01*
X9824048Y-13554524D01*
X9833571Y-13545000D01*
X9852619Y-13535476D01*
X9995476Y-13535476D02*
X9995476Y-13573571D01*
X10071667Y-13535476D02*
X10071667Y-13573571D01*
X10366905Y-13811667D02*
X10357381Y-13802143D01*
X10338333Y-13773571D01*
X10328810Y-13754524D01*
X10319286Y-13725952D01*
X10309762Y-13678333D01*
X10309762Y-13640238D01*
X10319286Y-13592619D01*
X10328810Y-13564048D01*
X10338333Y-13545000D01*
X10357381Y-13516428D01*
X10366905Y-13506905D01*
X10433571Y-13554524D02*
X10443095Y-13545000D01*
X10462143Y-13535476D01*
X10509762Y-13535476D01*
X10528810Y-13545000D01*
X10538333Y-13554524D01*
X10547857Y-13573571D01*
X10547857Y-13592619D01*
X10538333Y-13621190D01*
X10424048Y-13735476D01*
X10547857Y-13735476D01*
X10785952Y-13735476D02*
X10785952Y-13535476D01*
X10871667Y-13735476D02*
X10871667Y-13630714D01*
X10862143Y-13611667D01*
X10843095Y-13602143D01*
X10814524Y-13602143D01*
X10795476Y-13611667D01*
X10785952Y-13621190D01*
X10995476Y-13735476D02*
X10976429Y-13725952D01*
X10966905Y-13716428D01*
X10957381Y-13697381D01*
X10957381Y-13640238D01*
X10966905Y-13621190D01*
X10976429Y-13611667D01*
X10995476Y-13602143D01*
X11024048Y-13602143D01*
X11043095Y-13611667D01*
X11052619Y-13621190D01*
X11062143Y-13640238D01*
X11062143Y-13697381D01*
X11052619Y-13716428D01*
X11043095Y-13725952D01*
X11024048Y-13735476D01*
X10995476Y-13735476D01*
X11176429Y-13735476D02*
X11157381Y-13725952D01*
X11147857Y-13706905D01*
X11147857Y-13535476D01*
X11328809Y-13725952D02*
X11309762Y-13735476D01*
X11271667Y-13735476D01*
X11252619Y-13725952D01*
X11243095Y-13706905D01*
X11243095Y-13630714D01*
X11252619Y-13611667D01*
X11271667Y-13602143D01*
X11309762Y-13602143D01*
X11328809Y-13611667D01*
X11338333Y-13630714D01*
X11338333Y-13649762D01*
X11243095Y-13668809D01*
X11414524Y-13725952D02*
X11433571Y-13735476D01*
X11471667Y-13735476D01*
X11490714Y-13725952D01*
X11500238Y-13706905D01*
X11500238Y-13697381D01*
X11490714Y-13678333D01*
X11471667Y-13668809D01*
X11443095Y-13668809D01*
X11424048Y-13659286D01*
X11414524Y-13640238D01*
X11414524Y-13630714D01*
X11424048Y-13611667D01*
X11443095Y-13602143D01*
X11471667Y-13602143D01*
X11490714Y-13611667D01*
X11566905Y-13811667D02*
X11576428Y-13802143D01*
X11595476Y-13773571D01*
X11605000Y-13754524D01*
X11614524Y-13725952D01*
X11624048Y-13678333D01*
X11624048Y-13640238D01*
X11614524Y-13592619D01*
X11605000Y-13564048D01*
X11595476Y-13545000D01*
X11576428Y-13516428D01*
X11566905Y-13506905D01*
X11928809Y-13811667D02*
X11919286Y-13802143D01*
X11900238Y-13773571D01*
X11890714Y-13754524D01*
X11881190Y-13725952D01*
X11871667Y-13678333D01*
X11871667Y-13640238D01*
X11881190Y-13592619D01*
X11890714Y-13564048D01*
X11900238Y-13545000D01*
X11919286Y-13516428D01*
X11928809Y-13506905D01*
X12005000Y-13602143D02*
X12005000Y-13735476D01*
X12005000Y-13621190D02*
X12014524Y-13611667D01*
X12033571Y-13602143D01*
X12062143Y-13602143D01*
X12081190Y-13611667D01*
X12090714Y-13630714D01*
X12090714Y-13735476D01*
X12214524Y-13735476D02*
X12195476Y-13725952D01*
X12185952Y-13716428D01*
X12176428Y-13697381D01*
X12176428Y-13640238D01*
X12185952Y-13621190D01*
X12195476Y-13611667D01*
X12214524Y-13602143D01*
X12243095Y-13602143D01*
X12262143Y-13611667D01*
X12271667Y-13621190D01*
X12281190Y-13640238D01*
X12281190Y-13697381D01*
X12271667Y-13716428D01*
X12262143Y-13725952D01*
X12243095Y-13735476D01*
X12214524Y-13735476D01*
X12338333Y-13602143D02*
X12414524Y-13602143D01*
X12366905Y-13535476D02*
X12366905Y-13706905D01*
X12376428Y-13725952D01*
X12395476Y-13735476D01*
X12414524Y-13735476D01*
X12633571Y-13602143D02*
X12633571Y-13802143D01*
X12633571Y-13611667D02*
X12652619Y-13602143D01*
X12690714Y-13602143D01*
X12709762Y-13611667D01*
X12719286Y-13621190D01*
X12728809Y-13640238D01*
X12728809Y-13697381D01*
X12719286Y-13716428D01*
X12709762Y-13725952D01*
X12690714Y-13735476D01*
X12652619Y-13735476D01*
X12633571Y-13725952D01*
X12843095Y-13735476D02*
X12824048Y-13725952D01*
X12814524Y-13706905D01*
X12814524Y-13535476D01*
X13005000Y-13735476D02*
X13005000Y-13630714D01*
X12995476Y-13611667D01*
X12976428Y-13602143D01*
X12938333Y-13602143D01*
X12919286Y-13611667D01*
X13005000Y-13725952D02*
X12985952Y-13735476D01*
X12938333Y-13735476D01*
X12919286Y-13725952D01*
X12909762Y-13706905D01*
X12909762Y-13687857D01*
X12919286Y-13668809D01*
X12938333Y-13659286D01*
X12985952Y-13659286D01*
X13005000Y-13649762D01*
X13071667Y-13602143D02*
X13147857Y-13602143D01*
X13100238Y-13535476D02*
X13100238Y-13706905D01*
X13109762Y-13725952D01*
X13128809Y-13735476D01*
X13147857Y-13735476D01*
X13290714Y-13725952D02*
X13271667Y-13735476D01*
X13233571Y-13735476D01*
X13214524Y-13725952D01*
X13205000Y-13706905D01*
X13205000Y-13630714D01*
X13214524Y-13611667D01*
X13233571Y-13602143D01*
X13271667Y-13602143D01*
X13290714Y-13611667D01*
X13300238Y-13630714D01*
X13300238Y-13649762D01*
X13205000Y-13668809D01*
X13471667Y-13735476D02*
X13471667Y-13535476D01*
X13471667Y-13725952D02*
X13452619Y-13735476D01*
X13414524Y-13735476D01*
X13395476Y-13725952D01*
X13385952Y-13716428D01*
X13376428Y-13697381D01*
X13376428Y-13640238D01*
X13385952Y-13621190D01*
X13395476Y-13611667D01*
X13414524Y-13602143D01*
X13452619Y-13602143D01*
X13471667Y-13611667D01*
X13547857Y-13811667D02*
X13557381Y-13802143D01*
X13576428Y-13773571D01*
X13585952Y-13754524D01*
X13595476Y-13725952D01*
X13605000Y-13678333D01*
X13605000Y-13640238D01*
X13595476Y-13592619D01*
X13585952Y-13564048D01*
X13576428Y-13545000D01*
X13557381Y-13516428D01*
X13547857Y-13506905D01*
M02*
