G04 #@! TF.GenerationSoftware,KiCad,Pcbnew,(6.0.7)*
G04 #@! TF.CreationDate,2022-10-27T11:33:35+02:00*
G04 #@! TF.ProjectId,DualLevelSensor,4475616c-4c65-4766-956c-53656e736f72,rev?*
G04 #@! TF.SameCoordinates,Original*
G04 #@! TF.FileFunction,Copper,L4,Bot*
G04 #@! TF.FilePolarity,Positive*
%FSLAX46Y46*%
G04 Gerber Fmt 4.6, Leading zero omitted, Abs format (unit mm)*
G04 Created by KiCad (PCBNEW (6.0.7)) date 2022-10-27 11:33:35*
%MOMM*%
%LPD*%
G01*
G04 APERTURE LIST*
G04 Aperture macros list*
%AMRoundRect*
0 Rectangle with rounded corners*
0 $1 Rounding radius*
0 $2 $3 $4 $5 $6 $7 $8 $9 X,Y pos of 4 corners*
0 Add a 4 corners polygon primitive as box body*
4,1,4,$2,$3,$4,$5,$6,$7,$8,$9,$2,$3,0*
0 Add four circle primitives for the rounded corners*
1,1,$1+$1,$2,$3*
1,1,$1+$1,$4,$5*
1,1,$1+$1,$6,$7*
1,1,$1+$1,$8,$9*
0 Add four rect primitives between the rounded corners*
20,1,$1+$1,$2,$3,$4,$5,0*
20,1,$1+$1,$4,$5,$6,$7,0*
20,1,$1+$1,$6,$7,$8,$9,0*
20,1,$1+$1,$8,$9,$2,$3,0*%
G04 Aperture macros list end*
G04 #@! TA.AperFunction,ComponentPad*
%ADD10O,1.050000X1.900000*%
G04 #@! TD*
G04 #@! TA.AperFunction,ComponentPad*
%ADD11R,1.700000X1.700000*%
G04 #@! TD*
G04 #@! TA.AperFunction,ComponentPad*
%ADD12O,1.700000X1.700000*%
G04 #@! TD*
G04 #@! TA.AperFunction,SMDPad,CuDef*
%ADD13RoundRect,0.200000X0.275000X-0.200000X0.275000X0.200000X-0.275000X0.200000X-0.275000X-0.200000X0*%
G04 #@! TD*
G04 #@! TA.AperFunction,SMDPad,CuDef*
%ADD14RoundRect,0.250000X-7.500000X-3.312500X7.500000X-3.312500X7.500000X3.312500X-7.500000X3.312500X0*%
G04 #@! TD*
G04 #@! TA.AperFunction,SMDPad,CuDef*
%ADD15RoundRect,0.200000X-0.275000X0.200000X-0.275000X-0.200000X0.275000X-0.200000X0.275000X0.200000X0*%
G04 #@! TD*
G04 #@! TA.AperFunction,SMDPad,CuDef*
%ADD16RoundRect,0.225000X-0.250000X0.225000X-0.250000X-0.225000X0.250000X-0.225000X0.250000X0.225000X0*%
G04 #@! TD*
G04 #@! TA.AperFunction,SMDPad,CuDef*
%ADD17RoundRect,0.250000X0.250000X0.250000X-0.250000X0.250000X-0.250000X-0.250000X0.250000X-0.250000X0*%
G04 #@! TD*
G04 #@! TA.AperFunction,SMDPad,CuDef*
%ADD18R,1.150000X1.000000*%
G04 #@! TD*
G04 #@! TA.AperFunction,SMDPad,CuDef*
%ADD19RoundRect,0.225000X0.225000X0.250000X-0.225000X0.250000X-0.225000X-0.250000X0.225000X-0.250000X0*%
G04 #@! TD*
G04 #@! TA.AperFunction,SMDPad,CuDef*
%ADD20RoundRect,0.225000X-0.225000X-0.250000X0.225000X-0.250000X0.225000X0.250000X-0.225000X0.250000X0*%
G04 #@! TD*
G04 #@! TA.AperFunction,SMDPad,CuDef*
%ADD21RoundRect,0.200000X-0.200000X-0.275000X0.200000X-0.275000X0.200000X0.275000X-0.200000X0.275000X0*%
G04 #@! TD*
G04 #@! TA.AperFunction,SMDPad,CuDef*
%ADD22RoundRect,0.225000X0.250000X-0.225000X0.250000X0.225000X-0.250000X0.225000X-0.250000X-0.225000X0*%
G04 #@! TD*
G04 #@! TA.AperFunction,SMDPad,CuDef*
%ADD23RoundRect,0.200000X0.200000X0.275000X-0.200000X0.275000X-0.200000X-0.275000X0.200000X-0.275000X0*%
G04 #@! TD*
G04 #@! TA.AperFunction,ComponentPad*
%ADD24RoundRect,0.250000X-0.845000X0.620000X-0.845000X-0.620000X0.845000X-0.620000X0.845000X0.620000X0*%
G04 #@! TD*
G04 #@! TA.AperFunction,ComponentPad*
%ADD25O,2.190000X1.740000*%
G04 #@! TD*
G04 #@! TA.AperFunction,SMDPad,CuDef*
%ADD26R,0.750000X0.300000*%
G04 #@! TD*
G04 #@! TA.AperFunction,SMDPad,CuDef*
%ADD27R,0.300000X1.700000*%
G04 #@! TD*
G04 #@! TA.AperFunction,ViaPad*
%ADD28C,0.500000*%
G04 #@! TD*
G04 #@! TA.AperFunction,Conductor*
%ADD29C,0.127000*%
G04 #@! TD*
G04 #@! TA.AperFunction,Conductor*
%ADD30C,0.300000*%
G04 #@! TD*
G04 #@! TA.AperFunction,Conductor*
%ADD31C,0.200000*%
G04 #@! TD*
G04 #@! TA.AperFunction,Conductor*
%ADD32C,0.500000*%
G04 #@! TD*
G04 APERTURE END LIST*
D10*
X108075000Y-31250000D03*
X100925000Y-31250000D03*
D11*
X79050000Y-39175000D03*
D12*
X76510000Y-39175000D03*
D13*
X85400000Y-39275000D03*
X85400000Y-37625000D03*
X107350000Y-39275000D03*
X107350000Y-37625000D03*
D14*
X105000000Y-106438000D03*
D15*
X106700000Y-32075000D03*
X106700000Y-33725000D03*
D16*
X95100000Y-31425000D03*
X95100000Y-32975000D03*
D13*
X101850000Y-39275000D03*
X101850000Y-37625000D03*
X102950000Y-39275000D03*
X102950000Y-37625000D03*
D14*
X105000000Y-89188000D03*
X105000000Y-46063000D03*
D17*
X77000000Y-42750000D03*
D18*
X94875000Y-34700000D03*
X96625000Y-34700000D03*
X96625000Y-36100000D03*
X94875000Y-36100000D03*
D19*
X91225000Y-33600000D03*
X89675000Y-33600000D03*
D13*
X82100000Y-39275000D03*
X82100000Y-37625000D03*
D16*
X85275000Y-34475000D03*
X85275000Y-36025000D03*
X96250000Y-31425000D03*
X96250000Y-32975000D03*
D13*
X105150000Y-39275000D03*
X105150000Y-37625000D03*
D20*
X98025000Y-30850000D03*
X99575000Y-30850000D03*
D21*
X81850000Y-33650000D03*
X83500000Y-33650000D03*
D19*
X83425000Y-34850000D03*
X81875000Y-34850000D03*
D22*
X98000000Y-36175000D03*
X98000000Y-34625000D03*
D13*
X106250000Y-39275000D03*
X106250000Y-37625000D03*
D23*
X103925000Y-30800000D03*
X102275000Y-30800000D03*
D14*
X105000000Y-80563000D03*
D20*
X81900000Y-32500000D03*
X83450000Y-32500000D03*
D13*
X89800000Y-39275000D03*
X89800000Y-37625000D03*
X88700000Y-39275000D03*
X88700000Y-37625000D03*
X109550000Y-39275000D03*
X109550000Y-37625000D03*
X83200000Y-39275000D03*
X83200000Y-37625000D03*
D15*
X105500000Y-32075000D03*
X105500000Y-33725000D03*
D14*
X105000000Y-115063000D03*
D23*
X83500000Y-31400000D03*
X81850000Y-31400000D03*
X104125000Y-33800000D03*
X102475000Y-33800000D03*
D14*
X105000000Y-63313000D03*
D20*
X96325000Y-39350000D03*
X97875000Y-39350000D03*
D13*
X100750000Y-39275000D03*
X100750000Y-37625000D03*
D21*
X95625000Y-38150000D03*
X97275000Y-38150000D03*
D24*
X111920000Y-31360000D03*
D25*
X111920000Y-33900000D03*
X111920000Y-36440000D03*
D23*
X104125000Y-32650000D03*
X102475000Y-32650000D03*
D26*
X88350000Y-32500000D03*
X88350000Y-32000000D03*
X88350000Y-31500000D03*
X88350000Y-31000000D03*
X91250000Y-31000000D03*
X91250000Y-31500000D03*
X91250000Y-32000000D03*
X91250000Y-32500000D03*
D27*
X89800000Y-31750000D03*
D23*
X106775000Y-30800000D03*
X105125000Y-30800000D03*
D13*
X81000000Y-39275000D03*
X81000000Y-37625000D03*
D11*
X107500000Y-35750000D03*
D12*
X104960000Y-35750000D03*
X102420000Y-35750000D03*
D13*
X104050000Y-39275000D03*
X104050000Y-37625000D03*
D14*
X105000000Y-97813000D03*
D15*
X87250000Y-34775000D03*
X87250000Y-36425000D03*
D19*
X90875000Y-36500000D03*
X89325000Y-36500000D03*
D14*
X105000000Y-54688000D03*
X105000000Y-71938000D03*
X105000000Y-123688000D03*
D13*
X99650000Y-39275000D03*
X99650000Y-37625000D03*
D24*
X78170000Y-31360000D03*
D25*
X78170000Y-33900000D03*
X78170000Y-36440000D03*
D13*
X108450000Y-39275000D03*
X108450000Y-37625000D03*
D20*
X98025000Y-32000000D03*
X99575000Y-32000000D03*
D13*
X84300000Y-39275000D03*
X84300000Y-37625000D03*
X87600000Y-39275000D03*
X87600000Y-37625000D03*
D16*
X93950000Y-31675000D03*
X93950000Y-33225000D03*
X93550000Y-34625000D03*
X93550000Y-36175000D03*
D13*
X86500000Y-39275000D03*
X86500000Y-37625000D03*
D21*
X81850000Y-36000000D03*
X83500000Y-36000000D03*
D22*
X99800000Y-35775000D03*
X99800000Y-34225000D03*
D19*
X94575000Y-38100000D03*
X93025000Y-38100000D03*
D13*
X90900000Y-39275000D03*
X90900000Y-37625000D03*
D19*
X91225000Y-34750000D03*
X89675000Y-34750000D03*
D28*
X94050000Y-37250000D03*
X93200000Y-33750000D03*
X86200000Y-30750000D03*
X98700000Y-39550000D03*
X100550000Y-34550000D03*
X86200000Y-32900000D03*
X95100000Y-33800000D03*
X81123571Y-36510000D03*
X89700000Y-32850000D03*
X111500000Y-38750000D03*
X89250000Y-31000000D03*
X107800000Y-33000000D03*
X86200000Y-31800000D03*
X84250000Y-33450000D03*
X101488873Y-34540000D03*
X107800000Y-33950000D03*
X93986127Y-39006000D03*
X93250000Y-37250000D03*
X96100000Y-33800000D03*
X84250000Y-34050000D03*
X90048500Y-36381314D03*
X86200000Y-33850000D03*
X87150000Y-30750000D03*
X98950000Y-35800000D03*
X97200000Y-30600000D03*
X87150000Y-32900000D03*
X98700000Y-31400000D03*
X95167978Y-30602996D03*
X87150000Y-33850000D03*
X94950000Y-37240000D03*
X87150000Y-31800000D03*
X90500000Y-35750000D03*
X90450000Y-32050000D03*
X94500000Y-40750000D03*
X75500000Y-129500000D03*
X94500000Y-129500000D03*
X75500000Y-40750000D03*
X95500000Y-40750000D03*
X114500000Y-40750000D03*
X114500000Y-129500000D03*
X95500000Y-129500000D03*
X96550000Y-30600000D03*
X94541483Y-30599959D03*
X95550000Y-39001500D03*
X82600000Y-36300000D03*
X81048500Y-35000000D03*
X105800000Y-32940000D03*
X105150000Y-32940000D03*
X103910890Y-34990785D03*
X101061796Y-35796303D03*
X97386234Y-37196558D03*
X98761127Y-38344000D03*
X81000000Y-39950000D03*
X81000000Y-46000000D03*
X82100000Y-39950000D03*
X82100000Y-54700000D03*
X83200000Y-63300000D03*
X83200000Y-39950000D03*
X84300000Y-71900000D03*
X84300000Y-39950000D03*
X85400000Y-39950000D03*
X85400000Y-80563000D03*
X86500000Y-89200000D03*
X86500000Y-39950000D03*
X87600000Y-97800000D03*
X87600000Y-39950000D03*
X88700000Y-39950000D03*
X88700000Y-106400000D03*
X89800000Y-39950000D03*
X88700000Y-114800000D03*
X90900000Y-39950000D03*
X88700000Y-123700000D03*
X99650000Y-39950000D03*
X99600000Y-46100000D03*
X100750000Y-39950000D03*
X100700000Y-54600000D03*
X101850000Y-39950000D03*
X101800000Y-63300000D03*
X102950000Y-39950000D03*
X102900000Y-71900000D03*
X104000000Y-80600000D03*
X104050000Y-39950000D03*
X105150000Y-39950000D03*
X105200000Y-89100000D03*
X106300000Y-97800000D03*
X106250000Y-39950000D03*
X107300000Y-106400000D03*
X107350000Y-39950000D03*
X108450000Y-39950000D03*
X108500000Y-115000000D03*
X109550000Y-39950000D03*
X109600000Y-123700000D03*
X94923497Y-39001500D03*
X97113873Y-32836127D03*
X97150000Y-32200000D03*
X89250000Y-32350000D03*
X108600000Y-34500000D03*
X88350000Y-34600000D03*
X80250000Y-37600000D03*
X111550000Y-38100000D03*
X97043357Y-33458648D03*
X101200000Y-33000000D03*
X79600000Y-37800000D03*
X92150000Y-36800000D03*
X89250000Y-31650000D03*
X92861127Y-30538873D03*
X93487415Y-30555257D03*
X92950000Y-32126500D03*
X92200000Y-32150000D03*
D29*
X94050000Y-37250000D02*
X94050000Y-37050000D01*
X95650000Y-36800000D02*
X95750000Y-36700000D01*
X95750000Y-36700000D02*
X95750000Y-35575000D01*
X94300000Y-36800000D02*
X95650000Y-36800000D01*
X94875000Y-34700000D02*
X93625000Y-34700000D01*
X94050000Y-37050000D02*
X94300000Y-36800000D01*
X95750000Y-35575000D02*
X94875000Y-34700000D01*
X93625000Y-34700000D02*
X93550000Y-34625000D01*
D30*
X102275000Y-30900000D02*
X101275000Y-30900000D01*
D31*
X89250000Y-31000000D02*
X89600000Y-31000000D01*
D30*
X93250000Y-37250000D02*
X93250000Y-36475000D01*
X93250000Y-36475000D02*
X93550000Y-36175000D01*
X93250000Y-37975000D02*
X93025000Y-38200000D01*
X96625000Y-34325000D02*
X96625000Y-34700000D01*
D31*
X89600000Y-31000000D02*
X89800000Y-31200000D01*
D32*
X89475000Y-36500000D02*
X89475000Y-34950000D01*
D30*
X93831000Y-39006000D02*
X93025000Y-38200000D01*
X94850000Y-33225000D02*
X95100000Y-32975000D01*
D31*
X89800000Y-31750000D02*
X89800000Y-32750000D01*
D30*
X100175000Y-32000000D02*
X100925000Y-31250000D01*
D31*
X89800000Y-32750000D02*
X89700000Y-32850000D01*
D30*
X99575000Y-32000000D02*
X100175000Y-32000000D01*
X95100000Y-33800000D02*
X95100000Y-32975000D01*
X93625000Y-36100000D02*
X93550000Y-36175000D01*
X100125000Y-34550000D02*
X99800000Y-34225000D01*
X101275000Y-30900000D02*
X100925000Y-31250000D01*
D31*
X89443686Y-36381314D02*
X90048500Y-36381314D01*
D30*
X93950000Y-33225000D02*
X94850000Y-33225000D01*
X96625000Y-34700000D02*
X97925000Y-34700000D01*
X93200000Y-33750000D02*
X93425000Y-33750000D01*
X93986127Y-39006000D02*
X93831000Y-39006000D01*
D31*
X89325000Y-36500000D02*
X89443686Y-36381314D01*
D30*
X99575000Y-30850000D02*
X99575000Y-32000000D01*
X96250000Y-33650000D02*
X96250000Y-32975000D01*
X99400000Y-34625000D02*
X99800000Y-34225000D01*
D31*
X89800000Y-31200000D02*
X89800000Y-31750000D01*
D32*
X89700000Y-32850000D02*
X89700000Y-34725000D01*
D30*
X95100000Y-32975000D02*
X96250000Y-32975000D01*
D31*
X88350000Y-31000000D02*
X89250000Y-31000000D01*
D29*
X83500000Y-33650000D02*
X83850000Y-33650000D01*
D32*
X89475000Y-34950000D02*
X89675000Y-34750000D01*
D30*
X96100000Y-33800000D02*
X96625000Y-34325000D01*
X97925000Y-34700000D02*
X98000000Y-34625000D01*
D29*
X83850000Y-33650000D02*
X84250000Y-34050000D01*
D31*
X98500000Y-39350000D02*
X98700000Y-39550000D01*
D30*
X93425000Y-33750000D02*
X93950000Y-33225000D01*
X96100000Y-33800000D02*
X96250000Y-33650000D01*
D32*
X89700000Y-34725000D02*
X89675000Y-34750000D01*
D30*
X98000000Y-34625000D02*
X99400000Y-34625000D01*
X94875000Y-36100000D02*
X93625000Y-36100000D01*
D31*
X97875000Y-39350000D02*
X98500000Y-39350000D01*
D30*
X100550000Y-34550000D02*
X100125000Y-34550000D01*
X93250000Y-37250000D02*
X93250000Y-37975000D01*
D29*
X96625000Y-36100000D02*
X97925000Y-36100000D01*
X97275000Y-38150000D02*
X96625000Y-37500000D01*
X97925000Y-36100000D02*
X98000000Y-36175000D01*
X96625000Y-37500000D02*
X96625000Y-36100000D01*
D32*
X91225000Y-32975000D02*
X91225000Y-33600000D01*
D31*
X86600000Y-31250000D02*
X83650000Y-31250000D01*
D30*
X98950000Y-35800000D02*
X99775000Y-35800000D01*
D32*
X95168483Y-31356517D02*
X95168483Y-30602996D01*
D30*
X99775000Y-35800000D02*
X99800000Y-35775000D01*
D31*
X94950000Y-37825000D02*
X94575000Y-38200000D01*
D32*
X97200000Y-30600000D02*
X97775000Y-30600000D01*
X90700000Y-32750000D02*
X91000000Y-32750000D01*
X95100000Y-31425000D02*
X95168483Y-31356517D01*
X97775000Y-30600000D02*
X98025000Y-30850000D01*
X90500000Y-35750000D02*
X90700000Y-35750000D01*
X91225000Y-34750000D02*
X91225000Y-33600000D01*
X91225000Y-35225000D02*
X91225000Y-34750000D01*
X91025000Y-36500000D02*
X91025000Y-36275000D01*
D31*
X83650000Y-31250000D02*
X83500000Y-31400000D01*
D32*
X90450000Y-32500000D02*
X90700000Y-32750000D01*
D31*
X83450000Y-31450000D02*
X83500000Y-31400000D01*
D32*
X91000000Y-32750000D02*
X91225000Y-32975000D01*
D31*
X87150000Y-31800000D02*
X86600000Y-31250000D01*
D32*
X90700000Y-35750000D02*
X91225000Y-35225000D01*
D31*
X94950000Y-37240000D02*
X94950000Y-37825000D01*
D32*
X91025000Y-36275000D02*
X90500000Y-35750000D01*
D31*
X83450000Y-32500000D02*
X83450000Y-31450000D01*
X91250000Y-32500000D02*
X90450000Y-32500000D01*
X91000000Y-32750000D02*
X91250000Y-32500000D01*
D32*
X98025000Y-32000000D02*
X98025000Y-30850000D01*
X90450000Y-32050000D02*
X90450000Y-32500000D01*
X75500000Y-40750000D02*
X75500000Y-129500000D01*
X75500000Y-129500000D02*
X94500000Y-129500000D01*
X94500000Y-40750000D02*
X75500000Y-40750000D01*
X94500000Y-129500000D02*
X94500000Y-40750000D01*
X114500000Y-129500000D02*
X114500000Y-40750000D01*
X114500000Y-40750000D02*
X95500000Y-40750000D01*
X95500000Y-129500000D02*
X114500000Y-129500000D01*
X95500000Y-40750000D02*
X95500000Y-129500000D01*
D31*
X83500000Y-36000000D02*
X85250000Y-36000000D01*
X85250000Y-36000000D02*
X85275000Y-36025000D01*
D30*
X94550000Y-32150000D02*
X94552000Y-32152000D01*
D29*
X96026500Y-39001500D02*
X96225000Y-39200000D01*
D30*
X94552000Y-32152000D02*
X95998000Y-32152000D01*
X92250000Y-38609935D02*
X93280565Y-39640500D01*
X95550000Y-39350000D02*
X95550000Y-39001500D01*
X93280565Y-39640500D02*
X95259500Y-39640500D01*
D29*
X95550000Y-39001500D02*
X96026500Y-39001500D01*
D30*
X92673000Y-33302000D02*
X92673000Y-36577709D01*
X95976500Y-39001500D02*
X96325000Y-39350000D01*
X95550000Y-39001500D02*
X95976500Y-39001500D01*
X95998000Y-32152000D02*
X96250000Y-31900000D01*
X92677000Y-37123000D02*
X92250000Y-37550000D01*
X95259500Y-39640500D02*
X95550000Y-39350000D01*
D32*
X93950000Y-31191442D02*
X94541483Y-30599959D01*
X93950000Y-31425000D02*
X93950000Y-31191442D01*
D30*
X96250000Y-31900000D02*
X96250000Y-31425000D01*
D32*
X96550000Y-31125000D02*
X96250000Y-31425000D01*
X96550000Y-30600000D02*
X96550000Y-31125000D01*
D30*
X92250000Y-37550000D02*
X92250000Y-38609935D01*
X92677000Y-36581709D02*
X92677000Y-37123000D01*
X92673000Y-36577709D02*
X92677000Y-36581709D01*
X94200000Y-32150000D02*
X94550000Y-32150000D01*
X93950000Y-31900000D02*
X94200000Y-32150000D01*
X93950000Y-31425000D02*
X93950000Y-31900000D01*
X94000000Y-31975000D02*
X92673000Y-33302000D01*
D31*
X82300000Y-36000000D02*
X81850000Y-36000000D01*
X81875000Y-35975000D02*
X81850000Y-36000000D01*
X81875000Y-34850000D02*
X81875000Y-35975000D01*
X82600000Y-36300000D02*
X82300000Y-36000000D01*
X81048500Y-35000000D02*
X81050000Y-34998500D01*
X81050000Y-34998500D02*
X81050000Y-34450000D01*
X81850000Y-31400000D02*
X81850000Y-33650000D01*
X81050000Y-34450000D02*
X81850000Y-33650000D01*
D30*
X105500000Y-32075000D02*
X106700000Y-32075000D01*
X105800000Y-32940000D02*
X105800000Y-32375000D01*
X106700000Y-32075000D02*
X106700000Y-30875000D01*
X105800000Y-32940000D02*
X105800000Y-32475000D01*
X106700000Y-30875000D02*
X106775000Y-30800000D01*
X105800000Y-32375000D02*
X105500000Y-32075000D01*
D29*
X104165000Y-32940000D02*
X103875000Y-32650000D01*
X105150000Y-32940000D02*
X104165000Y-32940000D01*
X103910890Y-34990785D02*
X103910890Y-33835890D01*
X97386234Y-37196558D02*
X98453442Y-37196558D01*
X98996000Y-36654000D02*
X98996000Y-36646000D01*
X100454000Y-36646000D02*
X101061796Y-36038204D01*
X98996000Y-36646000D02*
X100454000Y-36646000D01*
X101061796Y-36038204D02*
X101061796Y-35796303D01*
X98453442Y-37196558D02*
X98996000Y-36654000D01*
X98761127Y-37388873D02*
X98761127Y-38344000D01*
X99250000Y-36900000D02*
X98761127Y-37388873D01*
X102420000Y-35750000D02*
X101270000Y-36900000D01*
X101270000Y-36900000D02*
X99250000Y-36900000D01*
X81000000Y-39275000D02*
X81000000Y-39950000D01*
X82100000Y-39275000D02*
X82100000Y-39950000D01*
X83200000Y-39275000D02*
X83200000Y-39950000D01*
X84300000Y-39275000D02*
X84300000Y-39950000D01*
X85400000Y-39275000D02*
X85400000Y-39950000D01*
X86500000Y-39275000D02*
X86500000Y-39950000D01*
X87600000Y-39275000D02*
X87600000Y-39950000D01*
X88700000Y-39275000D02*
X88700000Y-39950000D01*
X89800000Y-39275000D02*
X89800000Y-39950000D01*
X90900000Y-39275000D02*
X90900000Y-39950000D01*
X99650000Y-39950000D02*
X99650000Y-39275000D01*
X100750000Y-39275000D02*
X100750000Y-39950000D01*
X101850000Y-39275000D02*
X101850000Y-39950000D01*
X102950000Y-39275000D02*
X102950000Y-39950000D01*
X104050000Y-39275000D02*
X104050000Y-39950000D01*
X105150000Y-39275000D02*
X105150000Y-39950000D01*
X106250000Y-39275000D02*
X106250000Y-39950000D01*
X107350000Y-39275000D02*
X107350000Y-39950000D01*
X108450000Y-39275000D02*
X108450000Y-39950000D01*
X109550000Y-39275000D02*
X109550000Y-39950000D01*
X94923497Y-39001500D02*
X95475000Y-38449997D01*
X97113873Y-32836127D02*
X97376917Y-32836127D01*
X100940790Y-33800000D02*
X102225000Y-33800000D01*
X100390790Y-33250000D02*
X100940790Y-33800000D01*
X97790790Y-33250000D02*
X100390790Y-33250000D01*
X97376917Y-32836127D02*
X97790790Y-33250000D01*
X100496000Y-32996000D02*
X101000000Y-33500000D01*
X97946000Y-32996000D02*
X100496000Y-32996000D01*
X102172962Y-32650000D02*
X102225000Y-32650000D01*
X101000000Y-33500000D02*
X101322962Y-33500000D01*
X97150000Y-32200000D02*
X97946000Y-32996000D01*
X101322962Y-33500000D02*
X102172962Y-32650000D01*
X88350000Y-32500000D02*
X88350000Y-33675000D01*
X89000000Y-32600000D02*
X88350000Y-32600000D01*
X89250000Y-32350000D02*
X89000000Y-32600000D01*
X88350000Y-33675000D02*
X87250000Y-34775000D01*
D30*
X106700000Y-34000000D02*
X107000000Y-34300000D01*
X105500000Y-33725000D02*
X106700000Y-33725000D01*
X106700000Y-33725000D02*
X106700000Y-34000000D01*
X107177000Y-34477000D02*
X108000000Y-34477000D01*
X107000000Y-34300000D02*
X107177000Y-34477000D01*
X108577000Y-34477000D02*
X108600000Y-34500000D01*
X108000000Y-34477000D02*
X108577000Y-34477000D01*
D32*
X88350000Y-37275000D02*
X88700000Y-37625000D01*
D29*
X82075000Y-37600000D02*
X82100000Y-37625000D01*
D32*
X90875000Y-37600000D02*
X90900000Y-37625000D01*
D29*
X80250000Y-37600000D02*
X82075000Y-37600000D01*
D32*
X80250000Y-37600000D02*
X90875000Y-37600000D01*
D29*
X88125000Y-37625000D02*
X90900000Y-37625000D01*
D32*
X88350000Y-34600000D02*
X88350000Y-37275000D01*
D29*
X81000000Y-37625000D02*
X88125000Y-37625000D01*
D32*
X111550000Y-38100000D02*
X110025000Y-38100000D01*
D29*
X101700000Y-34100000D02*
X102100000Y-34500000D01*
X100850000Y-34100000D02*
X101700000Y-34100000D01*
X109550000Y-37575000D02*
X99650000Y-37575000D01*
D32*
X109550000Y-37625000D02*
X99650000Y-37625000D01*
D29*
X103575000Y-35275000D02*
X103575000Y-37575000D01*
X100725000Y-33975000D02*
X100850000Y-34100000D01*
X102100000Y-34500000D02*
X102800000Y-34500000D01*
X97043357Y-33458648D02*
X97088709Y-33504000D01*
X100254000Y-33504000D02*
X100725000Y-33975000D01*
X102800000Y-34500000D02*
X103575000Y-35275000D01*
X97088709Y-33504000D02*
X100254000Y-33504000D01*
D32*
X110025000Y-38100000D02*
X109550000Y-37625000D01*
D29*
X101200000Y-33000000D02*
X101200000Y-32500000D01*
X102840500Y-31984500D02*
X103925000Y-30900000D01*
D30*
X105125000Y-30900000D02*
X103925000Y-30900000D01*
D29*
X101200000Y-32500000D02*
X101715500Y-31984500D01*
X101715500Y-31984500D02*
X102840500Y-31984500D01*
X80406000Y-38450000D02*
X79756000Y-37800000D01*
X91900000Y-37050000D02*
X91900000Y-37652250D01*
X79756000Y-37800000D02*
X79600000Y-37800000D01*
X92150000Y-36800000D02*
X91900000Y-37050000D01*
X91900000Y-37652250D02*
X91102250Y-38450000D01*
X91102250Y-38450000D02*
X80406000Y-38450000D01*
X88800000Y-32100000D02*
X88350000Y-32100000D01*
X89250000Y-31650000D02*
X88800000Y-32100000D01*
X87911127Y-30538873D02*
X92861127Y-30538873D01*
X88350000Y-31600000D02*
X87944000Y-31600000D01*
X87750000Y-30700000D02*
X87911127Y-30538873D01*
X87750000Y-31406000D02*
X87750000Y-30700000D01*
X87944000Y-31600000D02*
X87750000Y-31406000D01*
X93150000Y-31100000D02*
X91450000Y-31100000D01*
X91450000Y-31100000D02*
X91350000Y-31000000D01*
X93487415Y-30762585D02*
X93150000Y-31100000D01*
X93487415Y-30555257D02*
X93487415Y-30762585D01*
X92950000Y-32126500D02*
X92323500Y-31500000D01*
X92323500Y-31500000D02*
X91350000Y-31500000D01*
X92200000Y-32150000D02*
X92200000Y-31999462D01*
X92200000Y-31999462D02*
X92150538Y-31950000D01*
X92150538Y-31950000D02*
X91400000Y-31950000D01*
X79700000Y-36950000D02*
X79050000Y-37600000D01*
X79050000Y-37600000D02*
X79050000Y-39175000D01*
X87250000Y-36425000D02*
X86725000Y-36950000D01*
X86725000Y-36950000D02*
X79700000Y-36950000D01*
G04 #@! TA.AperFunction,Conductor*
G36*
X94481694Y-40768306D02*
G01*
X94500000Y-40812500D01*
X94500000Y-129437500D01*
X94481694Y-129481694D01*
X94437500Y-129500000D01*
X75562500Y-129500000D01*
X75518306Y-129481694D01*
X75500000Y-129437500D01*
X75500000Y-123700000D01*
X88317794Y-123700000D01*
X88336500Y-123818108D01*
X88390789Y-123924655D01*
X88475345Y-124009211D01*
X88479724Y-124011442D01*
X88577511Y-124061268D01*
X88577512Y-124061268D01*
X88581892Y-124063500D01*
X88700000Y-124082206D01*
X88818108Y-124063500D01*
X88822488Y-124061268D01*
X88822489Y-124061268D01*
X88920276Y-124011442D01*
X88924655Y-124009211D01*
X89009211Y-123924655D01*
X89063500Y-123818108D01*
X89082206Y-123700000D01*
X89063500Y-123581892D01*
X89009211Y-123475345D01*
X88924655Y-123390789D01*
X88873278Y-123364611D01*
X88822489Y-123338732D01*
X88822488Y-123338732D01*
X88818108Y-123336500D01*
X88700000Y-123317794D01*
X88581892Y-123336500D01*
X88577512Y-123338732D01*
X88577511Y-123338732D01*
X88526722Y-123364611D01*
X88475345Y-123390789D01*
X88390789Y-123475345D01*
X88336500Y-123581892D01*
X88317794Y-123700000D01*
X75500000Y-123700000D01*
X75500000Y-114800000D01*
X88317794Y-114800000D01*
X88336500Y-114918108D01*
X88390789Y-115024655D01*
X88475345Y-115109211D01*
X88479724Y-115111442D01*
X88577511Y-115161268D01*
X88577512Y-115161268D01*
X88581892Y-115163500D01*
X88700000Y-115182206D01*
X88818108Y-115163500D01*
X88822488Y-115161268D01*
X88822489Y-115161268D01*
X88920276Y-115111442D01*
X88924655Y-115109211D01*
X89009211Y-115024655D01*
X89063500Y-114918108D01*
X89082206Y-114800000D01*
X89063500Y-114681892D01*
X89009211Y-114575345D01*
X88924655Y-114490789D01*
X88873278Y-114464611D01*
X88822489Y-114438732D01*
X88822488Y-114438732D01*
X88818108Y-114436500D01*
X88700000Y-114417794D01*
X88581892Y-114436500D01*
X88577512Y-114438732D01*
X88577511Y-114438732D01*
X88526722Y-114464611D01*
X88475345Y-114490789D01*
X88390789Y-114575345D01*
X88336500Y-114681892D01*
X88317794Y-114800000D01*
X75500000Y-114800000D01*
X75500000Y-106400000D01*
X88317794Y-106400000D01*
X88336500Y-106518108D01*
X88390789Y-106624655D01*
X88475345Y-106709211D01*
X88479724Y-106711442D01*
X88577511Y-106761268D01*
X88577512Y-106761268D01*
X88581892Y-106763500D01*
X88700000Y-106782206D01*
X88818108Y-106763500D01*
X88822488Y-106761268D01*
X88822489Y-106761268D01*
X88920276Y-106711442D01*
X88924655Y-106709211D01*
X89009211Y-106624655D01*
X89063500Y-106518108D01*
X89082206Y-106400000D01*
X89063500Y-106281892D01*
X89009211Y-106175345D01*
X88924655Y-106090789D01*
X88873278Y-106064611D01*
X88822489Y-106038732D01*
X88822488Y-106038732D01*
X88818108Y-106036500D01*
X88700000Y-106017794D01*
X88581892Y-106036500D01*
X88577512Y-106038732D01*
X88577511Y-106038732D01*
X88526722Y-106064611D01*
X88475345Y-106090789D01*
X88390789Y-106175345D01*
X88336500Y-106281892D01*
X88317794Y-106400000D01*
X75500000Y-106400000D01*
X75500000Y-97800000D01*
X87217794Y-97800000D01*
X87236500Y-97918108D01*
X87290789Y-98024655D01*
X87375345Y-98109211D01*
X87379724Y-98111442D01*
X87477511Y-98161268D01*
X87477512Y-98161268D01*
X87481892Y-98163500D01*
X87600000Y-98182206D01*
X87718108Y-98163500D01*
X87722488Y-98161268D01*
X87722489Y-98161268D01*
X87820276Y-98111442D01*
X87824655Y-98109211D01*
X87909211Y-98024655D01*
X87963500Y-97918108D01*
X87982206Y-97800000D01*
X87963500Y-97681892D01*
X87909211Y-97575345D01*
X87824655Y-97490789D01*
X87773278Y-97464611D01*
X87722489Y-97438732D01*
X87722488Y-97438732D01*
X87718108Y-97436500D01*
X87600000Y-97417794D01*
X87481892Y-97436500D01*
X87477512Y-97438732D01*
X87477511Y-97438732D01*
X87426722Y-97464611D01*
X87375345Y-97490789D01*
X87290789Y-97575345D01*
X87236500Y-97681892D01*
X87217794Y-97800000D01*
X75500000Y-97800000D01*
X75500000Y-89200000D01*
X86117794Y-89200000D01*
X86136500Y-89318108D01*
X86190789Y-89424655D01*
X86275345Y-89509211D01*
X86279724Y-89511442D01*
X86377511Y-89561268D01*
X86377512Y-89561268D01*
X86381892Y-89563500D01*
X86500000Y-89582206D01*
X86618108Y-89563500D01*
X86622488Y-89561268D01*
X86622489Y-89561268D01*
X86720276Y-89511442D01*
X86724655Y-89509211D01*
X86809211Y-89424655D01*
X86863500Y-89318108D01*
X86882206Y-89200000D01*
X86863500Y-89081892D01*
X86809211Y-88975345D01*
X86724655Y-88890789D01*
X86673278Y-88864611D01*
X86622489Y-88838732D01*
X86622488Y-88838732D01*
X86618108Y-88836500D01*
X86500000Y-88817794D01*
X86381892Y-88836500D01*
X86377512Y-88838732D01*
X86377511Y-88838732D01*
X86326722Y-88864611D01*
X86275345Y-88890789D01*
X86190789Y-88975345D01*
X86136500Y-89081892D01*
X86117794Y-89200000D01*
X75500000Y-89200000D01*
X75500000Y-80563000D01*
X85017794Y-80563000D01*
X85036500Y-80681108D01*
X85090789Y-80787655D01*
X85175345Y-80872211D01*
X85179724Y-80874442D01*
X85277511Y-80924268D01*
X85277512Y-80924268D01*
X85281892Y-80926500D01*
X85400000Y-80945206D01*
X85518108Y-80926500D01*
X85522488Y-80924268D01*
X85522489Y-80924268D01*
X85620276Y-80874442D01*
X85624655Y-80872211D01*
X85709211Y-80787655D01*
X85763500Y-80681108D01*
X85782206Y-80563000D01*
X85763500Y-80444892D01*
X85709211Y-80338345D01*
X85624655Y-80253789D01*
X85573278Y-80227611D01*
X85522489Y-80201732D01*
X85522488Y-80201732D01*
X85518108Y-80199500D01*
X85400000Y-80180794D01*
X85281892Y-80199500D01*
X85277512Y-80201732D01*
X85277511Y-80201732D01*
X85226722Y-80227611D01*
X85175345Y-80253789D01*
X85090789Y-80338345D01*
X85036500Y-80444892D01*
X85017794Y-80563000D01*
X75500000Y-80563000D01*
X75500000Y-71900000D01*
X83917794Y-71900000D01*
X83936500Y-72018108D01*
X83990789Y-72124655D01*
X84075345Y-72209211D01*
X84079724Y-72211442D01*
X84177511Y-72261268D01*
X84177512Y-72261268D01*
X84181892Y-72263500D01*
X84300000Y-72282206D01*
X84418108Y-72263500D01*
X84422488Y-72261268D01*
X84422489Y-72261268D01*
X84520276Y-72211442D01*
X84524655Y-72209211D01*
X84609211Y-72124655D01*
X84663500Y-72018108D01*
X84682206Y-71900000D01*
X84663500Y-71781892D01*
X84609211Y-71675345D01*
X84524655Y-71590789D01*
X84473278Y-71564611D01*
X84422489Y-71538732D01*
X84422488Y-71538732D01*
X84418108Y-71536500D01*
X84300000Y-71517794D01*
X84181892Y-71536500D01*
X84177512Y-71538732D01*
X84177511Y-71538732D01*
X84126722Y-71564611D01*
X84075345Y-71590789D01*
X83990789Y-71675345D01*
X83936500Y-71781892D01*
X83917794Y-71900000D01*
X75500000Y-71900000D01*
X75500000Y-63300000D01*
X82817794Y-63300000D01*
X82836500Y-63418108D01*
X82890789Y-63524655D01*
X82975345Y-63609211D01*
X82979724Y-63611442D01*
X83077511Y-63661268D01*
X83077512Y-63661268D01*
X83081892Y-63663500D01*
X83200000Y-63682206D01*
X83318108Y-63663500D01*
X83322488Y-63661268D01*
X83322489Y-63661268D01*
X83420276Y-63611442D01*
X83424655Y-63609211D01*
X83509211Y-63524655D01*
X83563500Y-63418108D01*
X83582206Y-63300000D01*
X83563500Y-63181892D01*
X83509211Y-63075345D01*
X83424655Y-62990789D01*
X83373278Y-62964611D01*
X83322489Y-62938732D01*
X83322488Y-62938732D01*
X83318108Y-62936500D01*
X83200000Y-62917794D01*
X83081892Y-62936500D01*
X83077512Y-62938732D01*
X83077511Y-62938732D01*
X83026722Y-62964611D01*
X82975345Y-62990789D01*
X82890789Y-63075345D01*
X82836500Y-63181892D01*
X82817794Y-63300000D01*
X75500000Y-63300000D01*
X75500000Y-54700000D01*
X81717794Y-54700000D01*
X81736500Y-54818108D01*
X81790789Y-54924655D01*
X81875345Y-55009211D01*
X81879724Y-55011442D01*
X81977511Y-55061268D01*
X81977512Y-55061268D01*
X81981892Y-55063500D01*
X82100000Y-55082206D01*
X82218108Y-55063500D01*
X82222488Y-55061268D01*
X82222489Y-55061268D01*
X82320276Y-55011442D01*
X82324655Y-55009211D01*
X82409211Y-54924655D01*
X82463500Y-54818108D01*
X82482206Y-54700000D01*
X82463500Y-54581892D01*
X82409211Y-54475345D01*
X82324655Y-54390789D01*
X82273278Y-54364611D01*
X82222489Y-54338732D01*
X82222488Y-54338732D01*
X82218108Y-54336500D01*
X82100000Y-54317794D01*
X81981892Y-54336500D01*
X81977512Y-54338732D01*
X81977511Y-54338732D01*
X81926722Y-54364611D01*
X81875345Y-54390789D01*
X81790789Y-54475345D01*
X81736500Y-54581892D01*
X81717794Y-54700000D01*
X75500000Y-54700000D01*
X75500000Y-46000000D01*
X80617794Y-46000000D01*
X80636500Y-46118108D01*
X80690789Y-46224655D01*
X80775345Y-46309211D01*
X80779724Y-46311442D01*
X80877511Y-46361268D01*
X80877512Y-46361268D01*
X80881892Y-46363500D01*
X81000000Y-46382206D01*
X81118108Y-46363500D01*
X81122488Y-46361268D01*
X81122489Y-46361268D01*
X81220276Y-46311442D01*
X81224655Y-46309211D01*
X81309211Y-46224655D01*
X81363500Y-46118108D01*
X81382206Y-46000000D01*
X81363500Y-45881892D01*
X81309211Y-45775345D01*
X81224655Y-45690789D01*
X81173278Y-45664611D01*
X81122489Y-45638732D01*
X81122488Y-45638732D01*
X81118108Y-45636500D01*
X81000000Y-45617794D01*
X80881892Y-45636500D01*
X80877512Y-45638732D01*
X80877511Y-45638732D01*
X80826722Y-45664611D01*
X80775345Y-45690789D01*
X80690789Y-45775345D01*
X80636500Y-45881892D01*
X80617794Y-46000000D01*
X75500000Y-46000000D01*
X75500000Y-40812500D01*
X75518306Y-40768306D01*
X75562500Y-40750000D01*
X94437500Y-40750000D01*
X94481694Y-40768306D01*
G37*
G04 #@! TD.AperFunction*
G04 #@! TA.AperFunction,Conductor*
G36*
X111481694Y-30418306D02*
G01*
X111500000Y-30462500D01*
X111500000Y-32137500D01*
X111481694Y-32181694D01*
X111437500Y-32200000D01*
X108062500Y-32200000D01*
X108018306Y-32181694D01*
X108000000Y-32137500D01*
X108000000Y-30462500D01*
X108018306Y-30418306D01*
X108062500Y-30400000D01*
X111437500Y-30400000D01*
X111481694Y-30418306D01*
G37*
G04 #@! TD.AperFunction*
G04 #@! TA.AperFunction,Conductor*
G36*
X101918146Y-30317448D02*
G01*
X102080819Y-30473865D01*
X102100000Y-30518917D01*
X102100000Y-31274112D01*
X102081694Y-31318306D01*
X100918306Y-32481694D01*
X100874112Y-32500000D01*
X99725888Y-32500000D01*
X99681694Y-32481694D01*
X99418306Y-32218306D01*
X99400000Y-32174112D01*
X99400000Y-30725888D01*
X99418306Y-30681694D01*
X99781694Y-30318306D01*
X99825888Y-30300000D01*
X101874827Y-30300000D01*
X101918146Y-30317448D01*
G37*
G04 #@! TD.AperFunction*
G04 #@! TA.AperFunction,Conductor*
G36*
X86118306Y-33218306D02*
G01*
X86431694Y-33531694D01*
X86450000Y-33575888D01*
X86450000Y-34224112D01*
X86431694Y-34268306D01*
X85768306Y-34931694D01*
X85724112Y-34950000D01*
X83362500Y-34950000D01*
X83318306Y-34931694D01*
X83300000Y-34887500D01*
X83300000Y-33262500D01*
X83318306Y-33218306D01*
X83362500Y-33200000D01*
X86074112Y-33200000D01*
X86118306Y-33218306D01*
G37*
G04 #@! TD.AperFunction*
M02*
