G04 #@! TF.GenerationSoftware,KiCad,Pcbnew,(6.0.7)*
G04 #@! TF.CreationDate,2022-10-27T11:39:27+02:00*
G04 #@! TF.ProjectId,FluidPresenceSensor,466c7569-6450-4726-9573-656e63655365,rev?*
G04 #@! TF.SameCoordinates,Original*
G04 #@! TF.FileFunction,Paste,Bot*
G04 #@! TF.FilePolarity,Positive*
%FSLAX46Y46*%
G04 Gerber Fmt 4.6, Leading zero omitted, Abs format (unit mm)*
G04 Created by KiCad (PCBNEW (6.0.7)) date 2022-10-27 11:39:27*
%MOMM*%
%LPD*%
G01*
G04 APERTURE LIST*
G04 Aperture macros list*
%AMRoundRect*
0 Rectangle with rounded corners*
0 $1 Rounding radius*
0 $2 $3 $4 $5 $6 $7 $8 $9 X,Y pos of 4 corners*
0 Add a 4 corners polygon primitive as box body*
4,1,4,$2,$3,$4,$5,$6,$7,$8,$9,$2,$3,0*
0 Add four circle primitives for the rounded corners*
1,1,$1+$1,$2,$3*
1,1,$1+$1,$4,$5*
1,1,$1+$1,$6,$7*
1,1,$1+$1,$8,$9*
0 Add four rect primitives between the rounded corners*
20,1,$1+$1,$2,$3,$4,$5,0*
20,1,$1+$1,$4,$5,$6,$7,0*
20,1,$1+$1,$6,$7,$8,$9,0*
20,1,$1+$1,$8,$9,$2,$3,0*%
G04 Aperture macros list end*
%ADD10RoundRect,0.200000X0.275000X-0.200000X0.275000X0.200000X-0.275000X0.200000X-0.275000X-0.200000X0*%
%ADD11RoundRect,0.200000X-0.275000X0.200000X-0.275000X-0.200000X0.275000X-0.200000X0.275000X0.200000X0*%
%ADD12RoundRect,0.225000X-0.250000X0.225000X-0.250000X-0.225000X0.250000X-0.225000X0.250000X0.225000X0*%
%ADD13R,1.150000X1.000000*%
%ADD14RoundRect,0.225000X0.225000X0.250000X-0.225000X0.250000X-0.225000X-0.250000X0.225000X-0.250000X0*%
%ADD15RoundRect,0.225000X-0.225000X-0.250000X0.225000X-0.250000X0.225000X0.250000X-0.225000X0.250000X0*%
%ADD16RoundRect,0.200000X-0.200000X-0.275000X0.200000X-0.275000X0.200000X0.275000X-0.200000X0.275000X0*%
%ADD17RoundRect,0.225000X0.250000X-0.225000X0.250000X0.225000X-0.250000X0.225000X-0.250000X-0.225000X0*%
%ADD18RoundRect,0.200000X0.200000X0.275000X-0.200000X0.275000X-0.200000X-0.275000X0.200000X-0.275000X0*%
%ADD19R,0.750000X0.300000*%
%ADD20R,0.300000X1.700000*%
G04 APERTURE END LIST*
D10*
X87600000Y-39225000D03*
X87600000Y-37575000D03*
X107350000Y-39275000D03*
X107350000Y-37625000D03*
D11*
X106700000Y-32075000D03*
X106700000Y-33725000D03*
D12*
X95100000Y-31425000D03*
X95100000Y-32975000D03*
D10*
X101850000Y-39275000D03*
X101850000Y-37625000D03*
X102950000Y-39275000D03*
X102950000Y-37625000D03*
D13*
X94875000Y-34700000D03*
X96625000Y-34700000D03*
X96625000Y-36100000D03*
X94875000Y-36100000D03*
D14*
X91225000Y-33600000D03*
X89675000Y-33600000D03*
D10*
X84300000Y-39225000D03*
X84300000Y-37575000D03*
D12*
X85275000Y-34475000D03*
X85275000Y-36025000D03*
X96250000Y-31425000D03*
X96250000Y-32975000D03*
D10*
X105150000Y-39275000D03*
X105150000Y-37625000D03*
D15*
X98025000Y-30850000D03*
X99575000Y-30850000D03*
D16*
X81850000Y-33650000D03*
X83500000Y-33650000D03*
D14*
X83425000Y-34850000D03*
X81875000Y-34850000D03*
D17*
X98000000Y-36175000D03*
X98000000Y-34625000D03*
D10*
X106250000Y-39275000D03*
X106250000Y-37625000D03*
D18*
X103925000Y-30800000D03*
X102275000Y-30800000D03*
D15*
X81900000Y-32500000D03*
X83450000Y-32500000D03*
D10*
X90900000Y-39225000D03*
X90900000Y-37575000D03*
X85400000Y-39225000D03*
X85400000Y-37575000D03*
D11*
X105500000Y-32075000D03*
X105500000Y-33725000D03*
D18*
X83500000Y-31400000D03*
X81850000Y-31400000D03*
X104125000Y-33800000D03*
X102475000Y-33800000D03*
D15*
X96325000Y-39350000D03*
X97875000Y-39350000D03*
D10*
X100750000Y-39275000D03*
X100750000Y-37625000D03*
D16*
X95625000Y-38150000D03*
X97275000Y-38150000D03*
D18*
X104125000Y-32650000D03*
X102475000Y-32650000D03*
D19*
X88350000Y-32500000D03*
X88350000Y-32000000D03*
X88350000Y-31500000D03*
X88350000Y-31000000D03*
X91250000Y-31000000D03*
X91250000Y-31500000D03*
X91250000Y-32000000D03*
X91250000Y-32500000D03*
D20*
X89800000Y-31750000D03*
D18*
X106775000Y-30800000D03*
X105125000Y-30800000D03*
D10*
X83200000Y-39225000D03*
X83200000Y-37575000D03*
X104050000Y-39275000D03*
X104050000Y-37625000D03*
D11*
X87250000Y-34775000D03*
X87250000Y-36425000D03*
D14*
X90875000Y-36500000D03*
X89325000Y-36500000D03*
D10*
X99650000Y-39275000D03*
X99650000Y-37625000D03*
D15*
X98025000Y-32000000D03*
X99575000Y-32000000D03*
D10*
X86500000Y-39225000D03*
X86500000Y-37575000D03*
X89800000Y-39225000D03*
X89800000Y-37575000D03*
D12*
X93950000Y-31675000D03*
X93950000Y-33225000D03*
X93550000Y-34625000D03*
X93550000Y-36175000D03*
D10*
X88700000Y-39225000D03*
X88700000Y-37575000D03*
D16*
X81850000Y-36000000D03*
X83500000Y-36000000D03*
D17*
X99800000Y-35775000D03*
X99800000Y-34225000D03*
D14*
X94575000Y-38100000D03*
X93025000Y-38100000D03*
X91225000Y-34750000D03*
X89675000Y-34750000D03*
M02*
