G04 #@! TF.GenerationSoftware,KiCad,Pcbnew,(6.0.7)*
G04 #@! TF.CreationDate,2022-10-27T11:39:27+02:00*
G04 #@! TF.ProjectId,FluidPresenceSensor,466c7569-6450-4726-9573-656e63655365,rev?*
G04 #@! TF.SameCoordinates,Original*
G04 #@! TF.FileFunction,Copper,L1,Top*
G04 #@! TF.FilePolarity,Positive*
%FSLAX46Y46*%
G04 Gerber Fmt 4.6, Leading zero omitted, Abs format (unit mm)*
G04 Created by KiCad (PCBNEW (6.0.7)) date 2022-10-27 11:39:27*
%MOMM*%
%LPD*%
G01*
G04 APERTURE LIST*
G04 Aperture macros list*
%AMRoundRect*
0 Rectangle with rounded corners*
0 $1 Rounding radius*
0 $2 $3 $4 $5 $6 $7 $8 $9 X,Y pos of 4 corners*
0 Add a 4 corners polygon primitive as box body*
4,1,4,$2,$3,$4,$5,$6,$7,$8,$9,$2,$3,0*
0 Add four circle primitives for the rounded corners*
1,1,$1+$1,$2,$3*
1,1,$1+$1,$4,$5*
1,1,$1+$1,$6,$7*
1,1,$1+$1,$8,$9*
0 Add four rect primitives between the rounded corners*
20,1,$1+$1,$2,$3,$4,$5,0*
20,1,$1+$1,$4,$5,$6,$7,0*
20,1,$1+$1,$6,$7,$8,$9,0*
20,1,$1+$1,$8,$9,$2,$3,0*%
G04 Aperture macros list end*
G04 #@! TA.AperFunction,SMDPad,CuDef*
%ADD10RoundRect,0.200000X0.200000X0.275000X-0.200000X0.275000X-0.200000X-0.275000X0.200000X-0.275000X0*%
G04 #@! TD*
G04 #@! TA.AperFunction,SMDPad,CuDef*
%ADD11RoundRect,0.250000X-0.375000X-0.850000X0.375000X-0.850000X0.375000X0.850000X-0.375000X0.850000X0*%
G04 #@! TD*
G04 #@! TA.AperFunction,SMDPad,CuDef*
%ADD12R,0.400000X1.400000*%
G04 #@! TD*
G04 #@! TA.AperFunction,SMDPad,CuDef*
%ADD13R,1.150000X1.450000*%
G04 #@! TD*
G04 #@! TA.AperFunction,SMDPad,CuDef*
%ADD14R,1.750000X1.900000*%
G04 #@! TD*
G04 #@! TA.AperFunction,ComponentPad*
%ADD15O,1.050000X1.900000*%
G04 #@! TD*
G04 #@! TA.AperFunction,SMDPad,CuDef*
%ADD16RoundRect,0.225000X-0.225000X-0.250000X0.225000X-0.250000X0.225000X0.250000X-0.225000X0.250000X0*%
G04 #@! TD*
G04 #@! TA.AperFunction,ComponentPad*
%ADD17R,1.700000X1.700000*%
G04 #@! TD*
G04 #@! TA.AperFunction,ComponentPad*
%ADD18O,1.700000X1.700000*%
G04 #@! TD*
G04 #@! TA.AperFunction,SMDPad,CuDef*
%ADD19RoundRect,0.218750X-0.381250X0.218750X-0.381250X-0.218750X0.381250X-0.218750X0.381250X0.218750X0*%
G04 #@! TD*
G04 #@! TA.AperFunction,SMDPad,CuDef*
%ADD20RoundRect,0.050000X-0.387500X-0.050000X0.387500X-0.050000X0.387500X0.050000X-0.387500X0.050000X0*%
G04 #@! TD*
G04 #@! TA.AperFunction,SMDPad,CuDef*
%ADD21RoundRect,0.050000X-0.050000X-0.387500X0.050000X-0.387500X0.050000X0.387500X-0.050000X0.387500X0*%
G04 #@! TD*
G04 #@! TA.AperFunction,SMDPad,CuDef*
%ADD22R,3.200000X3.200000*%
G04 #@! TD*
G04 #@! TA.AperFunction,SMDPad,CuDef*
%ADD23RoundRect,0.225000X0.225000X0.250000X-0.225000X0.250000X-0.225000X-0.250000X0.225000X-0.250000X0*%
G04 #@! TD*
G04 #@! TA.AperFunction,SMDPad,CuDef*
%ADD24RoundRect,0.200000X-0.200000X-0.525000X0.200000X-0.525000X0.200000X0.525000X-0.200000X0.525000X0*%
G04 #@! TD*
G04 #@! TA.AperFunction,SMDPad,CuDef*
%ADD25RoundRect,0.075000X-0.225000X-0.075000X0.225000X-0.075000X0.225000X0.075000X-0.225000X0.075000X0*%
G04 #@! TD*
G04 #@! TA.AperFunction,SMDPad,CuDef*
%ADD26RoundRect,0.075000X-0.075000X-0.787500X0.075000X-0.787500X0.075000X0.787500X-0.075000X0.787500X0*%
G04 #@! TD*
G04 #@! TA.AperFunction,SMDPad,CuDef*
%ADD27RoundRect,0.200000X0.275000X-0.200000X0.275000X0.200000X-0.275000X0.200000X-0.275000X-0.200000X0*%
G04 #@! TD*
G04 #@! TA.AperFunction,SMDPad,CuDef*
%ADD28R,0.450000X0.600000*%
G04 #@! TD*
G04 #@! TA.AperFunction,SMDPad,CuDef*
%ADD29RoundRect,0.250000X-0.325000X-0.650000X0.325000X-0.650000X0.325000X0.650000X-0.325000X0.650000X0*%
G04 #@! TD*
G04 #@! TA.AperFunction,SMDPad,CuDef*
%ADD30RoundRect,0.200000X-0.200000X-0.275000X0.200000X-0.275000X0.200000X0.275000X-0.200000X0.275000X0*%
G04 #@! TD*
G04 #@! TA.AperFunction,SMDPad,CuDef*
%ADD31RoundRect,0.200000X-0.275000X0.200000X-0.275000X-0.200000X0.275000X-0.200000X0.275000X0.200000X0*%
G04 #@! TD*
G04 #@! TA.AperFunction,SMDPad,CuDef*
%ADD32RoundRect,0.250000X0.325000X1.100000X-0.325000X1.100000X-0.325000X-1.100000X0.325000X-1.100000X0*%
G04 #@! TD*
G04 #@! TA.AperFunction,SMDPad,CuDef*
%ADD33RoundRect,0.218750X-0.256250X0.218750X-0.256250X-0.218750X0.256250X-0.218750X0.256250X0.218750X0*%
G04 #@! TD*
G04 #@! TA.AperFunction,ComponentPad*
%ADD34RoundRect,0.250000X-0.845000X0.620000X-0.845000X-0.620000X0.845000X-0.620000X0.845000X0.620000X0*%
G04 #@! TD*
G04 #@! TA.AperFunction,ComponentPad*
%ADD35O,2.190000X1.740000*%
G04 #@! TD*
G04 #@! TA.AperFunction,ViaPad*
%ADD36C,0.500000*%
G04 #@! TD*
G04 #@! TA.AperFunction,Conductor*
%ADD37C,0.127000*%
G04 #@! TD*
G04 #@! TA.AperFunction,Conductor*
%ADD38C,0.500000*%
G04 #@! TD*
G04 #@! TA.AperFunction,Conductor*
%ADD39C,0.300000*%
G04 #@! TD*
G04 #@! TA.AperFunction,Conductor*
%ADD40C,0.200000*%
G04 #@! TD*
G04 APERTURE END LIST*
D10*
X82975000Y-38450000D03*
X81325000Y-38450000D03*
D11*
X85150000Y-35550000D03*
X87300000Y-35550000D03*
D12*
X105800000Y-33900000D03*
X105150000Y-33900000D03*
X104500000Y-33900000D03*
X103850000Y-33900000D03*
X103200000Y-33900000D03*
D13*
X102180000Y-33480000D03*
D14*
X103375000Y-31250000D03*
X105625000Y-31250000D03*
D15*
X108075000Y-31250000D03*
X100925000Y-31250000D03*
D13*
X106820000Y-33480000D03*
D16*
X108925000Y-38750000D03*
X110475000Y-38750000D03*
D17*
X79050000Y-39175000D03*
D18*
X76510000Y-39175000D03*
D19*
X80400000Y-33637500D03*
X80400000Y-35762500D03*
D20*
X91312500Y-32150000D03*
X91312500Y-32550000D03*
X91312500Y-32950000D03*
X91312500Y-33350000D03*
X91312500Y-33750000D03*
X91312500Y-34150000D03*
X91312500Y-34550000D03*
X91312500Y-34950000D03*
X91312500Y-35350000D03*
X91312500Y-35750000D03*
X91312500Y-36150000D03*
X91312500Y-36550000D03*
X91312500Y-36950000D03*
X91312500Y-37350000D03*
D21*
X92150000Y-38187500D03*
X92550000Y-38187500D03*
X92950000Y-38187500D03*
X93350000Y-38187500D03*
X93750000Y-38187500D03*
X94150000Y-38187500D03*
X94550000Y-38187500D03*
X94950000Y-38187500D03*
X95350000Y-38187500D03*
X95750000Y-38187500D03*
X96150000Y-38187500D03*
X96550000Y-38187500D03*
X96950000Y-38187500D03*
X97350000Y-38187500D03*
D20*
X98187500Y-37350000D03*
X98187500Y-36950000D03*
X98187500Y-36550000D03*
X98187500Y-36150000D03*
X98187500Y-35750000D03*
X98187500Y-35350000D03*
X98187500Y-34950000D03*
X98187500Y-34550000D03*
X98187500Y-34150000D03*
X98187500Y-33750000D03*
X98187500Y-33350000D03*
X98187500Y-32950000D03*
X98187500Y-32550000D03*
X98187500Y-32150000D03*
D21*
X97350000Y-31312500D03*
X96950000Y-31312500D03*
X96550000Y-31312500D03*
X96150000Y-31312500D03*
X95750000Y-31312500D03*
X95350000Y-31312500D03*
X94950000Y-31312500D03*
X94550000Y-31312500D03*
X94150000Y-31312500D03*
X93750000Y-31312500D03*
X93350000Y-31312500D03*
X92950000Y-31312500D03*
X92550000Y-31312500D03*
X92150000Y-31312500D03*
D22*
X94750000Y-34750000D03*
D23*
X85600000Y-37350000D03*
X84050000Y-37350000D03*
D24*
X81975000Y-34462500D03*
D25*
X81875000Y-35512500D03*
X81875000Y-35962500D03*
X81875000Y-36412500D03*
X83575000Y-36412500D03*
X83575000Y-35962500D03*
X83575000Y-35512500D03*
D24*
X83475000Y-34462500D03*
D26*
X82725000Y-34325000D03*
D27*
X114000000Y-36925000D03*
X114000000Y-35275000D03*
D28*
X109800000Y-33450000D03*
X109800000Y-35550000D03*
D29*
X85250000Y-33300000D03*
X88200000Y-33300000D03*
D30*
X108875000Y-37650000D03*
X110525000Y-37650000D03*
D23*
X82925000Y-37350000D03*
X81375000Y-37350000D03*
D31*
X76100000Y-35775000D03*
X76100000Y-37425000D03*
D29*
X85250000Y-31300000D03*
X88200000Y-31300000D03*
D32*
X83800000Y-31750000D03*
X80850000Y-31750000D03*
D33*
X109600000Y-30812500D03*
X109600000Y-32387500D03*
D27*
X99650000Y-33575000D03*
X99650000Y-31925000D03*
D34*
X111920000Y-31360000D03*
D35*
X111920000Y-33900000D03*
X111920000Y-36440000D03*
D17*
X107500000Y-35750000D03*
D18*
X104960000Y-35750000D03*
X102420000Y-35750000D03*
D34*
X78170000Y-31360000D03*
D35*
X78170000Y-33900000D03*
X78170000Y-36440000D03*
D36*
X94050000Y-37250000D03*
X93200000Y-33750000D03*
X86200000Y-30750000D03*
X98700000Y-39550000D03*
X100550000Y-34550000D03*
X86200000Y-32900000D03*
X95100000Y-33800000D03*
X81123571Y-36510000D03*
X89700000Y-32850000D03*
X111500000Y-38750000D03*
X89250000Y-31000000D03*
X107800000Y-33000000D03*
X86200000Y-31800000D03*
X84250000Y-33450000D03*
X101488873Y-34540000D03*
X107800000Y-33950000D03*
X93986127Y-39006000D03*
X93250000Y-37250000D03*
X96100000Y-33800000D03*
X84250000Y-34050000D03*
X90048500Y-36381314D03*
X86200000Y-33850000D03*
X87150000Y-30750000D03*
X98950000Y-35800000D03*
X97200000Y-30600000D03*
X87150000Y-32900000D03*
X98700000Y-31400000D03*
X95167978Y-30602996D03*
X87150000Y-33850000D03*
X94950000Y-37240000D03*
X87150000Y-31800000D03*
X90500000Y-35750000D03*
X90450000Y-32050000D03*
X96550000Y-30600000D03*
X94541483Y-30599959D03*
X95550000Y-39001500D03*
X82600000Y-36300000D03*
X81048500Y-35000000D03*
X105800000Y-32940000D03*
X105150000Y-32940000D03*
X103910890Y-34990785D03*
X101061796Y-35796303D03*
X97386234Y-37196558D03*
X98761127Y-38344000D03*
X94923497Y-39001500D03*
X97113873Y-32836127D03*
X97150000Y-32200000D03*
X89250000Y-32350000D03*
X108600000Y-34500000D03*
X101200000Y-33000000D03*
X79600000Y-37800000D03*
X92150000Y-36800000D03*
X89250000Y-31650000D03*
X92861127Y-30538873D03*
X93487415Y-30555257D03*
X92950000Y-32126500D03*
X92200000Y-32150000D03*
X86950000Y-70150000D03*
X86950000Y-75600000D03*
X75850000Y-41000000D03*
X87000000Y-86950000D03*
X76150000Y-65350000D03*
X81800000Y-40450000D03*
X86950000Y-64200000D03*
X89950000Y-41800000D03*
X86950000Y-58650000D03*
X86950000Y-52850000D03*
X86950000Y-47150000D03*
X76500000Y-91500000D03*
X86950000Y-81600000D03*
X113500000Y-91500000D03*
X103100000Y-87200000D03*
X108300000Y-92200000D03*
X103050000Y-75850000D03*
X103050000Y-47050000D03*
X103050000Y-58400000D03*
X103050000Y-64400000D03*
X103050000Y-53000000D03*
X114100000Y-40400000D03*
X103050000Y-81250000D03*
X103050000Y-69900000D03*
X100300000Y-41300000D03*
X108850000Y-40450000D03*
X84000000Y-83000000D03*
X83200000Y-39950000D03*
X85500000Y-83000000D03*
X84300000Y-39950000D03*
X84000000Y-71600000D03*
X85400000Y-39950000D03*
X86500000Y-39950000D03*
X85500000Y-71600000D03*
X88700000Y-39950000D03*
X85500000Y-60200000D03*
X89800000Y-39950000D03*
X84000000Y-48800000D03*
X85500000Y-48750000D03*
X90900000Y-39950000D03*
X99650000Y-39950000D03*
X104550000Y-54500000D03*
X100750000Y-39950000D03*
X106050000Y-54500000D03*
X101850000Y-39950000D03*
X104500000Y-65900000D03*
X102950000Y-39950000D03*
X106000000Y-65900000D03*
X104050000Y-39950000D03*
X104500000Y-77300000D03*
X106000000Y-77300000D03*
X105150000Y-39950000D03*
X104500000Y-88700000D03*
X106250000Y-39950000D03*
X106000000Y-88700000D03*
X107350000Y-39950000D03*
X88350000Y-34600000D03*
X80250000Y-37600000D03*
X111550000Y-38100000D03*
X97043357Y-33458648D03*
X84000000Y-60200000D03*
X87600000Y-39950000D03*
D37*
X94050000Y-37250000D02*
X94150000Y-37350000D01*
X94150000Y-37350000D02*
X94150000Y-38187500D01*
D38*
X81123571Y-37098571D02*
X81375000Y-37350000D01*
D37*
X86200000Y-32900000D02*
X86200000Y-31800000D01*
X93250000Y-37250000D02*
X93327038Y-37250000D01*
D38*
X110475000Y-38750000D02*
X111500000Y-38750000D01*
D39*
X101488873Y-34171127D02*
X102180000Y-33480000D01*
X105625000Y-31250000D02*
X108075000Y-31250000D01*
D38*
X81123571Y-36510000D02*
X81123571Y-37098571D01*
D37*
X84250000Y-34050000D02*
X84250000Y-33450000D01*
D39*
X101478873Y-34550000D02*
X101488873Y-34540000D01*
D37*
X93750000Y-37672962D02*
X93750000Y-38187500D01*
D38*
X107300000Y-33000000D02*
X107550000Y-33000000D01*
D37*
X93750000Y-38769873D02*
X93986127Y-39006000D01*
D38*
X106820000Y-33480000D02*
X107290000Y-33950000D01*
D39*
X109600000Y-30812500D02*
X108512500Y-30812500D01*
D37*
X85250000Y-33300000D02*
X85650000Y-33300000D01*
D38*
X107550000Y-33000000D02*
X107800000Y-33000000D01*
D39*
X103200000Y-33900000D02*
X102600000Y-33900000D01*
X101488873Y-34540000D02*
X101488873Y-34171127D01*
X108512500Y-30812500D02*
X108075000Y-31250000D01*
D38*
X106820000Y-33480000D02*
X107300000Y-33000000D01*
D37*
X93750000Y-38187500D02*
X93750000Y-38769873D01*
D39*
X105625000Y-31250000D02*
X103375000Y-31250000D01*
D38*
X107290000Y-33950000D02*
X107800000Y-33950000D01*
D39*
X102600000Y-33900000D02*
X102180000Y-33480000D01*
D37*
X93327038Y-37250000D02*
X93750000Y-37672962D01*
X85650000Y-33300000D02*
X86200000Y-33850000D01*
D39*
X103375000Y-31250000D02*
X100925000Y-31250000D01*
X100550000Y-34550000D02*
X101478873Y-34550000D01*
D37*
X95350000Y-30785018D02*
X95350000Y-31312500D01*
X97350000Y-30750000D02*
X97350000Y-31312500D01*
X90550000Y-32150000D02*
X91312500Y-32150000D01*
X96950000Y-30850000D02*
X96950000Y-31312500D01*
X98700000Y-31400000D02*
X98187500Y-31912500D01*
X97200000Y-30600000D02*
X97350000Y-30750000D01*
X90450000Y-32050000D02*
X90550000Y-32150000D01*
X95167978Y-30602996D02*
X94950000Y-30820974D01*
X91312500Y-35750000D02*
X90500000Y-35750000D01*
X97200000Y-30600000D02*
X96950000Y-30850000D01*
X98900000Y-35750000D02*
X98187500Y-35750000D01*
X98950000Y-35800000D02*
X98900000Y-35750000D01*
X94950000Y-37240000D02*
X94950000Y-38187500D01*
X94950000Y-30820974D02*
X94950000Y-31312500D01*
X98187500Y-31912500D02*
X98187500Y-32150000D01*
X95167978Y-30602996D02*
X95350000Y-30785018D01*
D38*
X78500000Y-33900000D02*
X78170000Y-33900000D01*
D39*
X109800000Y-33450000D02*
X111470000Y-33450000D01*
D38*
X80362500Y-35762500D02*
X78500000Y-33900000D01*
D39*
X111470000Y-33450000D02*
X111920000Y-33900000D01*
D38*
X80400000Y-35762500D02*
X80362500Y-35762500D01*
D40*
X85600000Y-37350000D02*
X85600000Y-36000000D01*
X85600000Y-36000000D02*
X85150000Y-35550000D01*
X83962500Y-35962500D02*
X84100000Y-36100000D01*
X84102000Y-36152000D02*
X84100000Y-36150000D01*
X84050000Y-37350000D02*
X84102000Y-37298000D01*
X84102000Y-37298000D02*
X84102000Y-36152000D01*
X83575000Y-35962500D02*
X83962500Y-35962500D01*
D37*
X95350000Y-38801500D02*
X95350000Y-38187500D01*
X94541483Y-30599959D02*
X94550000Y-30608476D01*
X95550000Y-39001500D02*
X95350000Y-38801500D01*
X96550000Y-30600000D02*
X96550000Y-31312500D01*
X94550000Y-30608476D02*
X94550000Y-31312500D01*
D40*
X82600000Y-36300000D02*
X82487500Y-36412500D01*
X82487500Y-36412500D02*
X81875000Y-36412500D01*
X81048500Y-35000000D02*
X81348000Y-35299500D01*
X81597908Y-35962500D02*
X81875000Y-35962500D01*
X81348000Y-35712592D02*
X81597908Y-35962500D01*
X81348000Y-35299500D02*
X81348000Y-35712592D01*
D39*
X105800000Y-33900000D02*
X105800000Y-32940000D01*
D37*
X109487500Y-32500000D02*
X109600000Y-32387500D01*
X99650000Y-31925000D02*
X100225000Y-32500000D01*
X100225000Y-32500000D02*
X109487500Y-32500000D01*
X105150000Y-33900000D02*
X105150000Y-32940000D01*
X104500000Y-33900000D02*
X104500000Y-34500000D01*
X103920105Y-35000000D02*
X103910890Y-34990785D01*
X104500000Y-34500000D02*
X104000000Y-35000000D01*
X104000000Y-35000000D02*
X103920105Y-35000000D01*
X101061796Y-35796303D02*
X101061796Y-36111796D01*
X95750000Y-37700000D02*
X95750000Y-38187500D01*
X97386234Y-37196558D02*
X97082792Y-37500000D01*
X101800000Y-36850000D02*
X106400000Y-36850000D01*
X101061796Y-36111796D02*
X101800000Y-36850000D01*
X106400000Y-36850000D02*
X107500000Y-35750000D01*
X97082792Y-37500000D02*
X95950000Y-37500000D01*
X95950000Y-37500000D02*
X95750000Y-37700000D01*
X97650000Y-39150000D02*
X96350000Y-39150000D01*
X96150000Y-38950000D02*
X96150000Y-38187500D01*
X98456000Y-38344000D02*
X97650000Y-39150000D01*
X98761127Y-38344000D02*
X98456000Y-38344000D01*
X96350000Y-39150000D02*
X96150000Y-38950000D01*
X111920000Y-36440000D02*
X113515000Y-36440000D01*
X113515000Y-36440000D02*
X114000000Y-36925000D01*
X76100000Y-35775000D02*
X76765000Y-36440000D01*
X76765000Y-36440000D02*
X78170000Y-36440000D01*
X94550000Y-38628003D02*
X94550000Y-38187500D01*
X94923497Y-39001500D02*
X94550000Y-38628003D01*
X96745337Y-32836127D02*
X95750000Y-31840790D01*
X95750000Y-31840790D02*
X95750000Y-31312500D01*
X97113873Y-32836127D02*
X96745337Y-32836127D01*
X97150000Y-32200000D02*
X96550000Y-32200000D01*
X96150000Y-31800000D02*
X96150000Y-31312500D01*
X96550000Y-32200000D02*
X96150000Y-31800000D01*
X89500000Y-32350000D02*
X89850000Y-32000000D01*
X89850000Y-32000000D02*
X89850000Y-31809210D01*
X90346710Y-31312500D02*
X92150000Y-31312500D01*
X89250000Y-32350000D02*
X89500000Y-32350000D01*
X89850000Y-31809210D02*
X90346710Y-31312500D01*
D39*
X108750000Y-34500000D02*
X109800000Y-35550000D01*
X108600000Y-34500000D02*
X108750000Y-34500000D01*
D37*
X98187500Y-33750000D02*
X99475000Y-33750000D01*
X99475000Y-33750000D02*
X99650000Y-33575000D01*
X101200000Y-33000000D02*
X101000000Y-32800000D01*
X99250000Y-32800000D02*
X98700000Y-33350000D01*
X98700000Y-33350000D02*
X98187500Y-33350000D01*
X101000000Y-32800000D02*
X99250000Y-32800000D01*
X100622580Y-36230480D02*
X100622580Y-35822580D01*
X98925000Y-34384210D02*
X98690790Y-34150000D01*
X98925000Y-34575000D02*
X98925000Y-34384210D01*
X98187500Y-34550000D02*
X98900000Y-34550000D01*
X100622580Y-35822580D02*
X99375000Y-34575000D01*
X101592100Y-37200000D02*
X100622580Y-36230480D01*
X114000000Y-35275000D02*
X111125000Y-35275000D01*
X109850000Y-36550000D02*
X108800000Y-36550000D01*
X98900000Y-34550000D02*
X98925000Y-34575000D01*
X108150000Y-37200000D02*
X101592100Y-37200000D01*
X98690790Y-34150000D02*
X98187500Y-34150000D01*
X111125000Y-35275000D02*
X109850000Y-36550000D01*
X99375000Y-34575000D02*
X98925000Y-34575000D01*
X108800000Y-36550000D02*
X108150000Y-37200000D01*
X96850000Y-36550000D02*
X96850000Y-35450000D01*
X98187500Y-32550000D02*
X98187500Y-32950000D01*
X92400000Y-36550000D02*
X96850000Y-36550000D01*
X92150000Y-36800000D02*
X92400000Y-36550000D01*
X97550000Y-34750000D02*
X97550000Y-33150000D01*
X97550000Y-33150000D02*
X97750000Y-32950000D01*
X96850000Y-35450000D02*
X97550000Y-34750000D01*
X76475000Y-37800000D02*
X79600000Y-37800000D01*
X76100000Y-37425000D02*
X76475000Y-37800000D01*
X97750000Y-32950000D02*
X98187500Y-32950000D01*
X90700000Y-30600000D02*
X92300000Y-30600000D01*
X89250000Y-31650000D02*
X89650000Y-31650000D01*
X92550000Y-30850000D02*
X92550000Y-31312500D01*
X89650000Y-31650000D02*
X90700000Y-30600000D01*
X92300000Y-30600000D02*
X92550000Y-30850000D01*
X92950000Y-31312500D02*
X92950000Y-30627746D01*
X92950000Y-30627746D02*
X92861127Y-30538873D01*
X93487415Y-30555257D02*
X93350000Y-30692672D01*
X93350000Y-30692672D02*
X93350000Y-31312500D01*
X93750000Y-31690118D02*
X93750000Y-31312500D01*
X93313618Y-32126500D02*
X93750000Y-31690118D01*
X92950000Y-32126500D02*
X93313618Y-32126500D01*
X93273118Y-32567000D02*
X94150000Y-31690118D01*
X94150000Y-31690118D02*
X94150000Y-31312500D01*
X92617000Y-32567000D02*
X93273118Y-32567000D01*
X92200000Y-32150000D02*
X92617000Y-32567000D01*
D40*
X81875000Y-34562500D02*
X81975000Y-34462500D01*
X81875000Y-35512500D02*
X81875000Y-34562500D01*
D37*
X82975000Y-38725000D02*
X81800000Y-39900000D01*
X86857950Y-37896000D02*
X86523950Y-38230000D01*
X81800000Y-39900000D02*
X81800000Y-40450000D01*
X89500000Y-34150000D02*
X89350000Y-34300000D01*
X86523950Y-38230000D02*
X83270000Y-38230000D01*
X88250000Y-35400000D02*
X88250000Y-37050000D01*
X83270000Y-38230000D02*
X83050000Y-38450000D01*
X82975000Y-38450000D02*
X82975000Y-38725000D01*
X87396000Y-37896000D02*
X86857950Y-37896000D01*
X83075000Y-38250000D02*
X83075000Y-37200000D01*
X87400000Y-37900000D02*
X87396000Y-37896000D01*
X89350000Y-34300000D02*
X88250000Y-35400000D01*
X88250000Y-37050000D02*
X87400000Y-37900000D01*
X83050000Y-38450000D02*
X82975000Y-38450000D01*
X91312500Y-34150000D02*
X89500000Y-34150000D01*
X98700000Y-36250000D02*
X100282890Y-36250000D01*
X100416445Y-36383555D02*
X100368580Y-36335690D01*
X101486890Y-37454000D02*
X100416445Y-36383555D01*
X108679000Y-37454000D02*
X101486890Y-37454000D01*
X98600000Y-36150000D02*
X98700000Y-36250000D01*
X108725000Y-38450000D02*
X108725000Y-37400000D01*
X108925000Y-40375000D02*
X108850000Y-40450000D01*
X108925000Y-38750000D02*
X108925000Y-40375000D01*
X98187500Y-36150000D02*
X98600000Y-36150000D01*
X108875000Y-37650000D02*
X108679000Y-37454000D01*
X100282890Y-36250000D02*
X100416445Y-36383555D01*
X86839580Y-38992000D02*
X87169580Y-38662000D01*
X87169580Y-38662000D02*
X87778790Y-38662000D01*
X90340790Y-34550000D02*
X91312500Y-34550000D01*
X83675000Y-39875000D02*
X84558000Y-38992000D01*
X87778790Y-38662000D02*
X89012000Y-37428790D01*
X89012000Y-37428790D02*
X89012000Y-35878790D01*
X89012000Y-35878790D02*
X90340790Y-34550000D01*
X84558000Y-38992000D02*
X86839580Y-38992000D01*
X83225000Y-39875000D02*
X83675000Y-39875000D01*
X84954000Y-39246000D02*
X86944790Y-39246000D01*
X86944790Y-39246000D02*
X87274790Y-38916000D01*
X89266000Y-37534000D02*
X89266000Y-35984000D01*
X90300000Y-34950000D02*
X91312500Y-34950000D01*
X87274790Y-38916000D02*
X87884000Y-38916000D01*
X87884000Y-38916000D02*
X89266000Y-37534000D01*
X84300000Y-39900000D02*
X84954000Y-39246000D01*
X89266000Y-35984000D02*
X90300000Y-34950000D01*
X87380000Y-39170000D02*
X88030000Y-39170000D01*
X91272000Y-35309500D02*
X91312500Y-35350000D01*
X88030000Y-39170000D02*
X89520000Y-37680000D01*
X85400000Y-39950000D02*
X85850000Y-39500000D01*
X90317538Y-35309500D02*
X91272000Y-35309500D01*
X89520000Y-37680000D02*
X89520000Y-36107038D01*
X87050000Y-39500000D02*
X87380000Y-39170000D01*
X85850000Y-39500000D02*
X87050000Y-39500000D01*
X89520000Y-36107038D02*
X90317538Y-35309500D01*
X90934882Y-36150000D02*
X90176500Y-36908382D01*
X91312500Y-36150000D02*
X90934882Y-36150000D01*
X90176500Y-37423500D02*
X88176000Y-39424000D01*
X88176000Y-39424000D02*
X87503038Y-39424000D01*
X90176500Y-36908382D02*
X90176500Y-37423500D01*
X86977038Y-39950000D02*
X86500000Y-39950000D01*
X87503038Y-39424000D02*
X86977038Y-39950000D01*
X88700000Y-39650000D02*
X88700000Y-39950000D01*
X90684500Y-37200382D02*
X90684500Y-37665500D01*
X90684500Y-37665500D02*
X88700000Y-39650000D01*
X91312500Y-36950000D02*
X90934882Y-36950000D01*
X90934882Y-36950000D02*
X90684500Y-37200382D01*
X91312500Y-37637500D02*
X90050000Y-38900000D01*
X90050000Y-38900000D02*
X89800000Y-39150000D01*
X91312500Y-37350000D02*
X91312500Y-37637500D01*
X89800000Y-39150000D02*
X89800000Y-39950000D01*
X92150000Y-38187500D02*
X92150000Y-38800000D01*
X92150000Y-38800000D02*
X91000000Y-39950000D01*
X91000000Y-39950000D02*
X90900000Y-39950000D01*
X98918962Y-39954000D02*
X99646000Y-39954000D01*
X92550000Y-38187500D02*
X92550000Y-38959210D01*
X99646000Y-39954000D02*
X99650000Y-39950000D01*
X92550000Y-38959210D02*
X93581290Y-39990500D01*
X98882462Y-39990500D02*
X98918962Y-39954000D01*
X93581290Y-39990500D02*
X98882462Y-39990500D01*
X98490500Y-39109500D02*
X97900000Y-39700000D01*
X97900000Y-39700000D02*
X93650000Y-39700000D01*
X99909500Y-39109500D02*
X98490500Y-39109500D01*
X92950000Y-39000000D02*
X92950000Y-38187500D01*
X100750000Y-39950000D02*
X99909500Y-39109500D01*
X93650000Y-39700000D02*
X92950000Y-39000000D01*
X100990500Y-39509500D02*
X100668710Y-39509500D01*
X101424000Y-39524000D02*
X101024000Y-39524000D01*
X98359210Y-38800000D02*
X97713210Y-39446000D01*
X100668710Y-39509500D02*
X99959210Y-38800000D01*
X101850000Y-39950000D02*
X101424000Y-39524000D01*
X99959210Y-38800000D02*
X98359210Y-38800000D01*
X93796000Y-39446000D02*
X93350000Y-39000000D01*
X93350000Y-39000000D02*
X93350000Y-38187500D01*
X97713210Y-39446000D02*
X93796000Y-39446000D01*
X100618420Y-39100000D02*
X99422420Y-37904000D01*
X102950000Y-39950000D02*
X102100000Y-39100000D01*
X97550000Y-38850000D02*
X97234882Y-38850000D01*
X97234882Y-38850000D02*
X96950000Y-38565118D01*
X98496000Y-37904000D02*
X97550000Y-38850000D01*
X96950000Y-38565118D02*
X96950000Y-38187500D01*
X99422420Y-37904000D02*
X98496000Y-37904000D01*
X102100000Y-39100000D02*
X100618420Y-39100000D01*
X102900000Y-38750000D02*
X100627630Y-38750000D01*
X100627630Y-38750000D02*
X99527630Y-37650000D01*
X97350000Y-38100000D02*
X97350000Y-38187500D01*
X104050000Y-39900000D02*
X102900000Y-38750000D01*
X97800000Y-37650000D02*
X97350000Y-38100000D01*
X104050000Y-39950000D02*
X104050000Y-39900000D01*
X99527630Y-37650000D02*
X97800000Y-37650000D01*
X100636840Y-38400000D02*
X99586840Y-37350000D01*
X103600000Y-38400000D02*
X100636840Y-38400000D01*
X99586840Y-37350000D02*
X98187500Y-37350000D01*
X105150000Y-39950000D02*
X103600000Y-38400000D01*
X106250000Y-39950000D02*
X104400000Y-38100000D01*
X99546050Y-36950000D02*
X98187500Y-36950000D01*
X100696050Y-38100000D02*
X99546050Y-36950000D01*
X104400000Y-38100000D02*
X100696050Y-38100000D01*
X107350000Y-39950000D02*
X105200000Y-37800000D01*
X105200000Y-37800000D02*
X100755260Y-37800000D01*
X100755260Y-37800000D02*
X99505260Y-36550000D01*
X99505260Y-36550000D02*
X98187500Y-36550000D01*
X89850000Y-33350000D02*
X89775000Y-33425000D01*
X91312500Y-33350000D02*
X89850000Y-33350000D01*
D38*
X80250000Y-37600000D02*
X81100000Y-38450000D01*
X81100000Y-38450000D02*
X81325000Y-38450000D01*
D37*
X88600000Y-34600000D02*
X89775000Y-33425000D01*
X88350000Y-34600000D02*
X88600000Y-34600000D01*
X97043357Y-33458648D02*
X97008648Y-33458648D01*
X97008648Y-33458648D02*
X96400000Y-32850000D01*
X92450000Y-32850000D02*
X92350000Y-32950000D01*
X91312500Y-33750000D02*
X92050000Y-33750000D01*
X111550000Y-38100000D02*
X110800000Y-37350000D01*
D38*
X111100000Y-37650000D02*
X110525000Y-37650000D01*
D37*
X96400000Y-32850000D02*
X92450000Y-32850000D01*
X110800000Y-37350000D02*
X110325000Y-37350000D01*
D38*
X111550000Y-38100000D02*
X111100000Y-37650000D01*
D37*
X92350000Y-33450000D02*
X92350000Y-32950000D01*
X92050000Y-33750000D02*
X92350000Y-33450000D01*
X91312500Y-36550000D02*
X90934882Y-36550000D01*
X88040790Y-39950000D02*
X87600000Y-39950000D01*
X90934882Y-36550000D02*
X90430500Y-37054382D01*
X90430500Y-37560290D02*
X88040790Y-39950000D01*
X90430500Y-37054382D02*
X90430500Y-37560290D01*
G04 #@! TA.AperFunction,Conductor*
G36*
X82419533Y-40070002D02*
G01*
X82466026Y-40123658D01*
X82470964Y-40136210D01*
X82514402Y-40266791D01*
X82518049Y-40272813D01*
X82518050Y-40272815D01*
X82584506Y-40382546D01*
X82601624Y-40410812D01*
X82718586Y-40531929D01*
X82724483Y-40535788D01*
X82853577Y-40620266D01*
X82853581Y-40620268D01*
X82859475Y-40624125D01*
X83017289Y-40682815D01*
X83024270Y-40683746D01*
X83024272Y-40683747D01*
X83069812Y-40689823D01*
X83184183Y-40705083D01*
X83191194Y-40704445D01*
X83191198Y-40704445D01*
X83344843Y-40690462D01*
X83351864Y-40689823D01*
X83358566Y-40687645D01*
X83358568Y-40687645D01*
X83505298Y-40639970D01*
X83505301Y-40639969D01*
X83511997Y-40637793D01*
X83656623Y-40551578D01*
X83662516Y-40545966D01*
X83663146Y-40545642D01*
X83667335Y-40542462D01*
X83667894Y-40543198D01*
X83725640Y-40513472D01*
X83796311Y-40520264D01*
X83817853Y-40533050D01*
X83818586Y-40531929D01*
X83953577Y-40620266D01*
X83953581Y-40620268D01*
X83959475Y-40624125D01*
X84117289Y-40682815D01*
X84124270Y-40683746D01*
X84124272Y-40683747D01*
X84169812Y-40689823D01*
X84284183Y-40705083D01*
X84291194Y-40704445D01*
X84291198Y-40704445D01*
X84444843Y-40690462D01*
X84451864Y-40689823D01*
X84458566Y-40687645D01*
X84458568Y-40687645D01*
X84605298Y-40639970D01*
X84605301Y-40639969D01*
X84611997Y-40637793D01*
X84756623Y-40551578D01*
X84762516Y-40545966D01*
X84763146Y-40545642D01*
X84767335Y-40542462D01*
X84767894Y-40543198D01*
X84825640Y-40513472D01*
X84896311Y-40520264D01*
X84917853Y-40533050D01*
X84918586Y-40531929D01*
X85053577Y-40620266D01*
X85053581Y-40620268D01*
X85059475Y-40624125D01*
X85217289Y-40682815D01*
X85224270Y-40683746D01*
X85224272Y-40683747D01*
X85269812Y-40689823D01*
X85384183Y-40705083D01*
X85391194Y-40704445D01*
X85391198Y-40704445D01*
X85544843Y-40690462D01*
X85551864Y-40689823D01*
X85558566Y-40687645D01*
X85558568Y-40687645D01*
X85705298Y-40639970D01*
X85705301Y-40639969D01*
X85711997Y-40637793D01*
X85856623Y-40551578D01*
X85862516Y-40545966D01*
X85863146Y-40545642D01*
X85867335Y-40542462D01*
X85867894Y-40543198D01*
X85925640Y-40513472D01*
X85996311Y-40520264D01*
X86017853Y-40533050D01*
X86018586Y-40531929D01*
X86153577Y-40620266D01*
X86153581Y-40620268D01*
X86159475Y-40624125D01*
X86317289Y-40682815D01*
X86324270Y-40683746D01*
X86324272Y-40683747D01*
X86369812Y-40689823D01*
X86484183Y-40705083D01*
X86491194Y-40704445D01*
X86491198Y-40704445D01*
X86644843Y-40690462D01*
X86651864Y-40689823D01*
X86658566Y-40687645D01*
X86658568Y-40687645D01*
X86805298Y-40639970D01*
X86805301Y-40639969D01*
X86811997Y-40637793D01*
X86956623Y-40551578D01*
X86962517Y-40545966D01*
X86963146Y-40545642D01*
X86967335Y-40542462D01*
X86967894Y-40543198D01*
X87025640Y-40513472D01*
X87096311Y-40520264D01*
X87117853Y-40533050D01*
X87118586Y-40531929D01*
X87253577Y-40620266D01*
X87253581Y-40620268D01*
X87259475Y-40624125D01*
X87417289Y-40682815D01*
X87424270Y-40683746D01*
X87424272Y-40683747D01*
X87469812Y-40689823D01*
X87584183Y-40705083D01*
X87591194Y-40704445D01*
X87591198Y-40704445D01*
X87744843Y-40690462D01*
X87751864Y-40689823D01*
X87758566Y-40687645D01*
X87758568Y-40687645D01*
X87905298Y-40639970D01*
X87905301Y-40639969D01*
X87911997Y-40637793D01*
X88056623Y-40551578D01*
X88062516Y-40545966D01*
X88063146Y-40545642D01*
X88067335Y-40542462D01*
X88067894Y-40543198D01*
X88125640Y-40513472D01*
X88196311Y-40520264D01*
X88217853Y-40533050D01*
X88218586Y-40531929D01*
X88353577Y-40620266D01*
X88353581Y-40620268D01*
X88359475Y-40624125D01*
X88517289Y-40682815D01*
X88524270Y-40683746D01*
X88524272Y-40683747D01*
X88569812Y-40689823D01*
X88684183Y-40705083D01*
X88691194Y-40704445D01*
X88691198Y-40704445D01*
X88844843Y-40690462D01*
X88851864Y-40689823D01*
X88858566Y-40687645D01*
X88858568Y-40687645D01*
X89005298Y-40639970D01*
X89005301Y-40639969D01*
X89011997Y-40637793D01*
X89156623Y-40551578D01*
X89162516Y-40545966D01*
X89163146Y-40545642D01*
X89167335Y-40542462D01*
X89167894Y-40543198D01*
X89225640Y-40513472D01*
X89296311Y-40520264D01*
X89317853Y-40533050D01*
X89318586Y-40531929D01*
X89453577Y-40620266D01*
X89453581Y-40620268D01*
X89459475Y-40624125D01*
X89617289Y-40682815D01*
X89624270Y-40683746D01*
X89624272Y-40683747D01*
X89669812Y-40689823D01*
X89784183Y-40705083D01*
X89791194Y-40704445D01*
X89791198Y-40704445D01*
X89944843Y-40690462D01*
X89951864Y-40689823D01*
X89958566Y-40687645D01*
X89958568Y-40687645D01*
X90105298Y-40639970D01*
X90105301Y-40639969D01*
X90111997Y-40637793D01*
X90256623Y-40551578D01*
X90262516Y-40545966D01*
X90263146Y-40545642D01*
X90267335Y-40542462D01*
X90267894Y-40543198D01*
X90325640Y-40513472D01*
X90396311Y-40520264D01*
X90417853Y-40533050D01*
X90418586Y-40531929D01*
X90542994Y-40613340D01*
X90589042Y-40667376D01*
X90600000Y-40718771D01*
X90600000Y-41448355D01*
X90579998Y-41516476D01*
X90563753Y-41536788D01*
X89701128Y-42412288D01*
X89639069Y-42446774D01*
X89568218Y-42442234D01*
X89533985Y-42423288D01*
X89530533Y-42420601D01*
X89513744Y-42407534D01*
X89434325Y-42364555D01*
X89328780Y-42307436D01*
X89328777Y-42307435D01*
X89324195Y-42304955D01*
X89120348Y-42234974D01*
X89115214Y-42234117D01*
X89115209Y-42234116D01*
X88912899Y-42200357D01*
X88912897Y-42200357D01*
X88907762Y-42199500D01*
X88692238Y-42199500D01*
X88687103Y-42200357D01*
X88687101Y-42200357D01*
X88484791Y-42234116D01*
X88484786Y-42234117D01*
X88479652Y-42234974D01*
X88275805Y-42304955D01*
X88271223Y-42307435D01*
X88271220Y-42307436D01*
X88165675Y-42364555D01*
X88086256Y-42407534D01*
X88082146Y-42410733D01*
X87930828Y-42528509D01*
X87916177Y-42539912D01*
X87770206Y-42698479D01*
X87652325Y-42878909D01*
X87650231Y-42883683D01*
X87573710Y-43058133D01*
X87565749Y-43076281D01*
X87564471Y-43081329D01*
X87564469Y-43081334D01*
X87530580Y-43215159D01*
X87512841Y-43285211D01*
X87512411Y-43290402D01*
X87512410Y-43290407D01*
X87497252Y-43473338D01*
X87496182Y-43482314D01*
X87496086Y-43482934D01*
X87494391Y-43493823D01*
X87495103Y-43499271D01*
X87495043Y-43500000D01*
X87495199Y-43500000D01*
X87498436Y-43524755D01*
X87499500Y-43541092D01*
X87499500Y-44595131D01*
X87479498Y-44663252D01*
X87463253Y-44683564D01*
X87250000Y-44900000D01*
X87250000Y-92373500D01*
X87229998Y-92441621D01*
X87176342Y-92488114D01*
X87124000Y-92499500D01*
X77048741Y-92499500D01*
X77029357Y-92498000D01*
X77015050Y-92495772D01*
X77015047Y-92495772D01*
X77006177Y-92494391D01*
X76997275Y-92495555D01*
X76997273Y-92495555D01*
X76993969Y-92495987D01*
X76991363Y-92496328D01*
X76966041Y-92497071D01*
X76832564Y-92487525D01*
X76795590Y-92484880D01*
X76777796Y-92482322D01*
X76756927Y-92477782D01*
X76586343Y-92440674D01*
X76569098Y-92435610D01*
X76385526Y-92367140D01*
X76369174Y-92359673D01*
X76197217Y-92265778D01*
X76182093Y-92256058D01*
X76025247Y-92138644D01*
X76011661Y-92126871D01*
X75873129Y-91988339D01*
X75861356Y-91974753D01*
X75743942Y-91817907D01*
X75734222Y-91802783D01*
X75640327Y-91630826D01*
X75632860Y-91614474D01*
X75564390Y-91430902D01*
X75559324Y-91413652D01*
X75535223Y-91302856D01*
X75517678Y-91222204D01*
X75515120Y-91204410D01*
X75503685Y-91044537D01*
X75504758Y-91022044D01*
X75504253Y-91021999D01*
X75504688Y-91017159D01*
X75505496Y-91012354D01*
X75505647Y-91000000D01*
X75501773Y-90972949D01*
X75500500Y-90955087D01*
X75500500Y-89632200D01*
X76398747Y-89632200D01*
X76399306Y-89636444D01*
X76399306Y-89636448D01*
X76415699Y-89760969D01*
X76436129Y-89916149D01*
X76511702Y-90192398D01*
X76513386Y-90196346D01*
X76618629Y-90443083D01*
X76624068Y-90455835D01*
X76771146Y-90701585D01*
X76773830Y-90704936D01*
X76773832Y-90704938D01*
X76821198Y-90764060D01*
X76950215Y-90925100D01*
X77157962Y-91122245D01*
X77390543Y-91289371D01*
X77643653Y-91423386D01*
X77912610Y-91521810D01*
X78192436Y-91582822D01*
X78231901Y-91585928D01*
X78414597Y-91600307D01*
X78414604Y-91600307D01*
X78417053Y-91600500D01*
X78571992Y-91600500D01*
X78574128Y-91600354D01*
X78574139Y-91600354D01*
X78781460Y-91586220D01*
X78781466Y-91586219D01*
X78785737Y-91585928D01*
X78789932Y-91585059D01*
X78789934Y-91585059D01*
X78925962Y-91556889D01*
X79066186Y-91527850D01*
X79336158Y-91432248D01*
X79590658Y-91300891D01*
X79594159Y-91298430D01*
X79594163Y-91298428D01*
X79821471Y-91138673D01*
X79821477Y-91138668D01*
X79824976Y-91136209D01*
X79966326Y-91004859D01*
X80031633Y-90944172D01*
X80031636Y-90944169D01*
X80034776Y-90941251D01*
X80045575Y-90928058D01*
X80213461Y-90722941D01*
X80216177Y-90719623D01*
X80365820Y-90475427D01*
X80372802Y-90459522D01*
X80479214Y-90217110D01*
X80479215Y-90217106D01*
X80480938Y-90213182D01*
X80559400Y-89937739D01*
X80599754Y-89654196D01*
X80600915Y-89432400D01*
X80601231Y-89372086D01*
X80601231Y-89372080D01*
X80601253Y-89367800D01*
X80597798Y-89341552D01*
X80564431Y-89088107D01*
X80563871Y-89083851D01*
X80549516Y-89031376D01*
X80489430Y-88811741D01*
X80488298Y-88807602D01*
X80375932Y-88544165D01*
X80228854Y-88298415D01*
X80049785Y-88074900D01*
X79842038Y-87877755D01*
X79609457Y-87710629D01*
X79356347Y-87576614D01*
X79087390Y-87478190D01*
X78807564Y-87417178D01*
X78764389Y-87413780D01*
X78585403Y-87399693D01*
X78585396Y-87399693D01*
X78582947Y-87399500D01*
X78428008Y-87399500D01*
X78425872Y-87399646D01*
X78425861Y-87399646D01*
X78218540Y-87413780D01*
X78218534Y-87413781D01*
X78214263Y-87414072D01*
X78210068Y-87414941D01*
X78210066Y-87414941D01*
X78074039Y-87443111D01*
X77933814Y-87472150D01*
X77663842Y-87567752D01*
X77409342Y-87699109D01*
X77405841Y-87701570D01*
X77405837Y-87701572D01*
X77178529Y-87861327D01*
X77178523Y-87861332D01*
X77175024Y-87863791D01*
X76965224Y-88058749D01*
X76962510Y-88062065D01*
X76962507Y-88062068D01*
X76850362Y-88199083D01*
X76783823Y-88280377D01*
X76634180Y-88524573D01*
X76632453Y-88528507D01*
X76632452Y-88528509D01*
X76525444Y-88772280D01*
X76519062Y-88786818D01*
X76440600Y-89062261D01*
X76400246Y-89345804D01*
X76399984Y-89395952D01*
X76399002Y-89583553D01*
X76398747Y-89632200D01*
X75500500Y-89632200D01*
X75500500Y-82989455D01*
X83244825Y-82989455D01*
X83245512Y-82996462D01*
X83245512Y-82996465D01*
X83248311Y-83025010D01*
X83261255Y-83157025D01*
X83314402Y-83316791D01*
X83318049Y-83322813D01*
X83318050Y-83322815D01*
X83390261Y-83442049D01*
X83401624Y-83460812D01*
X83406513Y-83465875D01*
X83406514Y-83465876D01*
X83441192Y-83501786D01*
X83518586Y-83581929D01*
X83524483Y-83585788D01*
X83653577Y-83670266D01*
X83653581Y-83670268D01*
X83659475Y-83674125D01*
X83817289Y-83732815D01*
X83824270Y-83733746D01*
X83824272Y-83733747D01*
X83869812Y-83739823D01*
X83984183Y-83755083D01*
X83991194Y-83754445D01*
X83991198Y-83754445D01*
X84144843Y-83740462D01*
X84151864Y-83739823D01*
X84158566Y-83737645D01*
X84158568Y-83737645D01*
X84305298Y-83689970D01*
X84305301Y-83689969D01*
X84311997Y-83687793D01*
X84456623Y-83601578D01*
X84461717Y-83596727D01*
X84461721Y-83596724D01*
X84573454Y-83490322D01*
X84573455Y-83490320D01*
X84578554Y-83485465D01*
X84585681Y-83474739D01*
X84639441Y-83393823D01*
X84645503Y-83384699D01*
X84699861Y-83339029D01*
X84770280Y-83329997D01*
X84834404Y-83360471D01*
X84858227Y-83389155D01*
X84901624Y-83460812D01*
X84906513Y-83465875D01*
X84906514Y-83465876D01*
X84941192Y-83501786D01*
X85018586Y-83581929D01*
X85024483Y-83585788D01*
X85153577Y-83670266D01*
X85153581Y-83670268D01*
X85159475Y-83674125D01*
X85317289Y-83732815D01*
X85324270Y-83733746D01*
X85324272Y-83733747D01*
X85369812Y-83739823D01*
X85484183Y-83755083D01*
X85491194Y-83754445D01*
X85491198Y-83754445D01*
X85644843Y-83740462D01*
X85651864Y-83739823D01*
X85658566Y-83737645D01*
X85658568Y-83737645D01*
X85805298Y-83689970D01*
X85805301Y-83689969D01*
X85811997Y-83687793D01*
X85956623Y-83601578D01*
X85961717Y-83596727D01*
X85961721Y-83596724D01*
X86073454Y-83490322D01*
X86073455Y-83490320D01*
X86078554Y-83485465D01*
X86085681Y-83474739D01*
X86139441Y-83393823D01*
X86171731Y-83345223D01*
X86231521Y-83187823D01*
X86254955Y-83021088D01*
X86255249Y-83000000D01*
X86253283Y-82982468D01*
X86237266Y-82839672D01*
X86237265Y-82839669D01*
X86236481Y-82832676D01*
X86181108Y-82673668D01*
X86091884Y-82530879D01*
X86083723Y-82522661D01*
X85978205Y-82416403D01*
X85978201Y-82416400D01*
X85973242Y-82411406D01*
X85831079Y-82321187D01*
X85672462Y-82264706D01*
X85665474Y-82263873D01*
X85665471Y-82263872D01*
X85572300Y-82252762D01*
X85505273Y-82244769D01*
X85498270Y-82245505D01*
X85498269Y-82245505D01*
X85452712Y-82250293D01*
X85337821Y-82262369D01*
X85331155Y-82264638D01*
X85331152Y-82264639D01*
X85185098Y-82314360D01*
X85185095Y-82314361D01*
X85178431Y-82316630D01*
X85172436Y-82320318D01*
X85172432Y-82320320D01*
X85041021Y-82401165D01*
X85041019Y-82401167D01*
X85035022Y-82404856D01*
X84914724Y-82522661D01*
X84910908Y-82528583D01*
X84855759Y-82614157D01*
X84802045Y-82660582D01*
X84731758Y-82670597D01*
X84667215Y-82641022D01*
X84642994Y-82612672D01*
X84595617Y-82536853D01*
X84591884Y-82530879D01*
X84583723Y-82522661D01*
X84478205Y-82416403D01*
X84478201Y-82416400D01*
X84473242Y-82411406D01*
X84331079Y-82321187D01*
X84172462Y-82264706D01*
X84165474Y-82263873D01*
X84165471Y-82263872D01*
X84072300Y-82252762D01*
X84005273Y-82244769D01*
X83998270Y-82245505D01*
X83998269Y-82245505D01*
X83952712Y-82250293D01*
X83837821Y-82262369D01*
X83831155Y-82264638D01*
X83831152Y-82264639D01*
X83685098Y-82314360D01*
X83685095Y-82314361D01*
X83678431Y-82316630D01*
X83672436Y-82320318D01*
X83672432Y-82320320D01*
X83541021Y-82401165D01*
X83541019Y-82401167D01*
X83535022Y-82404856D01*
X83414724Y-82522661D01*
X83323515Y-82664190D01*
X83265927Y-82822409D01*
X83244825Y-82989455D01*
X75500500Y-82989455D01*
X75500500Y-71589455D01*
X83244825Y-71589455D01*
X83245512Y-71596462D01*
X83245512Y-71596465D01*
X83248311Y-71625010D01*
X83261255Y-71757025D01*
X83314402Y-71916791D01*
X83318049Y-71922813D01*
X83318050Y-71922815D01*
X83390261Y-72042049D01*
X83401624Y-72060812D01*
X83406513Y-72065875D01*
X83406514Y-72065876D01*
X83441192Y-72101786D01*
X83518586Y-72181929D01*
X83524483Y-72185788D01*
X83653577Y-72270266D01*
X83653581Y-72270268D01*
X83659475Y-72274125D01*
X83817289Y-72332815D01*
X83824270Y-72333746D01*
X83824272Y-72333747D01*
X83869812Y-72339823D01*
X83984183Y-72355083D01*
X83991194Y-72354445D01*
X83991198Y-72354445D01*
X84144843Y-72340462D01*
X84151864Y-72339823D01*
X84158566Y-72337645D01*
X84158568Y-72337645D01*
X84305298Y-72289970D01*
X84305301Y-72289969D01*
X84311997Y-72287793D01*
X84456623Y-72201578D01*
X84461717Y-72196727D01*
X84461721Y-72196724D01*
X84573454Y-72090322D01*
X84573455Y-72090320D01*
X84578554Y-72085465D01*
X84585681Y-72074739D01*
X84639441Y-71993823D01*
X84645503Y-71984699D01*
X84699861Y-71939029D01*
X84770280Y-71929997D01*
X84834404Y-71960471D01*
X84858227Y-71989155D01*
X84901624Y-72060812D01*
X84906513Y-72065875D01*
X84906514Y-72065876D01*
X84941192Y-72101786D01*
X85018586Y-72181929D01*
X85024483Y-72185788D01*
X85153577Y-72270266D01*
X85153581Y-72270268D01*
X85159475Y-72274125D01*
X85317289Y-72332815D01*
X85324270Y-72333746D01*
X85324272Y-72333747D01*
X85369812Y-72339823D01*
X85484183Y-72355083D01*
X85491194Y-72354445D01*
X85491198Y-72354445D01*
X85644843Y-72340462D01*
X85651864Y-72339823D01*
X85658566Y-72337645D01*
X85658568Y-72337645D01*
X85805298Y-72289970D01*
X85805301Y-72289969D01*
X85811997Y-72287793D01*
X85956623Y-72201578D01*
X85961717Y-72196727D01*
X85961721Y-72196724D01*
X86073454Y-72090322D01*
X86073455Y-72090320D01*
X86078554Y-72085465D01*
X86085681Y-72074739D01*
X86139441Y-71993823D01*
X86171731Y-71945223D01*
X86231521Y-71787823D01*
X86254955Y-71621088D01*
X86255249Y-71600000D01*
X86253283Y-71582468D01*
X86237266Y-71439672D01*
X86237265Y-71439669D01*
X86236481Y-71432676D01*
X86181108Y-71273668D01*
X86091884Y-71130879D01*
X86083723Y-71122661D01*
X85978205Y-71016403D01*
X85978201Y-71016400D01*
X85973242Y-71011406D01*
X85831079Y-70921187D01*
X85672462Y-70864706D01*
X85665474Y-70863873D01*
X85665471Y-70863872D01*
X85572300Y-70852762D01*
X85505273Y-70844769D01*
X85498270Y-70845505D01*
X85498269Y-70845505D01*
X85452712Y-70850293D01*
X85337821Y-70862369D01*
X85331155Y-70864638D01*
X85331152Y-70864639D01*
X85185098Y-70914360D01*
X85185095Y-70914361D01*
X85178431Y-70916630D01*
X85172436Y-70920318D01*
X85172432Y-70920320D01*
X85041021Y-71001165D01*
X85041019Y-71001167D01*
X85035022Y-71004856D01*
X84914724Y-71122661D01*
X84910908Y-71128583D01*
X84855759Y-71214157D01*
X84802045Y-71260582D01*
X84731758Y-71270597D01*
X84667215Y-71241022D01*
X84642994Y-71212672D01*
X84595617Y-71136853D01*
X84591884Y-71130879D01*
X84583723Y-71122661D01*
X84478205Y-71016403D01*
X84478201Y-71016400D01*
X84473242Y-71011406D01*
X84331079Y-70921187D01*
X84172462Y-70864706D01*
X84165474Y-70863873D01*
X84165471Y-70863872D01*
X84072300Y-70852762D01*
X84005273Y-70844769D01*
X83998270Y-70845505D01*
X83998269Y-70845505D01*
X83952712Y-70850293D01*
X83837821Y-70862369D01*
X83831155Y-70864638D01*
X83831152Y-70864639D01*
X83685098Y-70914360D01*
X83685095Y-70914361D01*
X83678431Y-70916630D01*
X83672436Y-70920318D01*
X83672432Y-70920320D01*
X83541021Y-71001165D01*
X83541019Y-71001167D01*
X83535022Y-71004856D01*
X83414724Y-71122661D01*
X83323515Y-71264190D01*
X83265927Y-71422409D01*
X83244825Y-71589455D01*
X75500500Y-71589455D01*
X75500500Y-60189455D01*
X83244825Y-60189455D01*
X83245512Y-60196462D01*
X83245512Y-60196465D01*
X83248311Y-60225010D01*
X83261255Y-60357025D01*
X83314402Y-60516791D01*
X83318049Y-60522813D01*
X83318050Y-60522815D01*
X83390261Y-60642049D01*
X83401624Y-60660812D01*
X83406513Y-60665875D01*
X83406514Y-60665876D01*
X83441192Y-60701786D01*
X83518586Y-60781929D01*
X83524483Y-60785788D01*
X83653577Y-60870266D01*
X83653581Y-60870268D01*
X83659475Y-60874125D01*
X83817289Y-60932815D01*
X83824270Y-60933746D01*
X83824272Y-60933747D01*
X83869812Y-60939823D01*
X83984183Y-60955083D01*
X83991194Y-60954445D01*
X83991198Y-60954445D01*
X84144843Y-60940462D01*
X84151864Y-60939823D01*
X84158566Y-60937645D01*
X84158568Y-60937645D01*
X84305298Y-60889970D01*
X84305301Y-60889969D01*
X84311997Y-60887793D01*
X84456623Y-60801578D01*
X84461717Y-60796727D01*
X84461721Y-60796724D01*
X84573454Y-60690322D01*
X84573455Y-60690320D01*
X84578554Y-60685465D01*
X84585681Y-60674739D01*
X84639441Y-60593823D01*
X84645503Y-60584699D01*
X84699861Y-60539029D01*
X84770280Y-60529997D01*
X84834404Y-60560471D01*
X84858227Y-60589155D01*
X84901624Y-60660812D01*
X84906513Y-60665875D01*
X84906514Y-60665876D01*
X84941192Y-60701786D01*
X85018586Y-60781929D01*
X85024483Y-60785788D01*
X85153577Y-60870266D01*
X85153581Y-60870268D01*
X85159475Y-60874125D01*
X85317289Y-60932815D01*
X85324270Y-60933746D01*
X85324272Y-60933747D01*
X85369812Y-60939823D01*
X85484183Y-60955083D01*
X85491194Y-60954445D01*
X85491198Y-60954445D01*
X85644843Y-60940462D01*
X85651864Y-60939823D01*
X85658566Y-60937645D01*
X85658568Y-60937645D01*
X85805298Y-60889970D01*
X85805301Y-60889969D01*
X85811997Y-60887793D01*
X85956623Y-60801578D01*
X85961717Y-60796727D01*
X85961721Y-60796724D01*
X86073454Y-60690322D01*
X86073455Y-60690320D01*
X86078554Y-60685465D01*
X86085681Y-60674739D01*
X86139441Y-60593823D01*
X86171731Y-60545223D01*
X86231521Y-60387823D01*
X86254955Y-60221088D01*
X86255249Y-60200000D01*
X86253283Y-60182468D01*
X86237266Y-60039672D01*
X86237265Y-60039669D01*
X86236481Y-60032676D01*
X86181108Y-59873668D01*
X86091884Y-59730879D01*
X86083723Y-59722661D01*
X85978205Y-59616403D01*
X85978201Y-59616400D01*
X85973242Y-59611406D01*
X85831079Y-59521187D01*
X85672462Y-59464706D01*
X85665474Y-59463873D01*
X85665471Y-59463872D01*
X85572300Y-59452762D01*
X85505273Y-59444769D01*
X85498270Y-59445505D01*
X85498269Y-59445505D01*
X85452712Y-59450293D01*
X85337821Y-59462369D01*
X85331155Y-59464638D01*
X85331152Y-59464639D01*
X85185098Y-59514360D01*
X85185095Y-59514361D01*
X85178431Y-59516630D01*
X85172436Y-59520318D01*
X85172432Y-59520320D01*
X85041021Y-59601165D01*
X85041019Y-59601167D01*
X85035022Y-59604856D01*
X84914724Y-59722661D01*
X84910908Y-59728583D01*
X84855759Y-59814157D01*
X84802045Y-59860582D01*
X84731758Y-59870597D01*
X84667215Y-59841022D01*
X84642994Y-59812672D01*
X84595617Y-59736853D01*
X84591884Y-59730879D01*
X84583723Y-59722661D01*
X84478205Y-59616403D01*
X84478201Y-59616400D01*
X84473242Y-59611406D01*
X84331079Y-59521187D01*
X84172462Y-59464706D01*
X84165474Y-59463873D01*
X84165471Y-59463872D01*
X84072300Y-59452762D01*
X84005273Y-59444769D01*
X83998270Y-59445505D01*
X83998269Y-59445505D01*
X83952712Y-59450293D01*
X83837821Y-59462369D01*
X83831155Y-59464638D01*
X83831152Y-59464639D01*
X83685098Y-59514360D01*
X83685095Y-59514361D01*
X83678431Y-59516630D01*
X83672436Y-59520318D01*
X83672432Y-59520320D01*
X83541021Y-59601165D01*
X83541019Y-59601167D01*
X83535022Y-59604856D01*
X83414724Y-59722661D01*
X83323515Y-59864190D01*
X83265927Y-60022409D01*
X83244825Y-60189455D01*
X75500500Y-60189455D01*
X75500500Y-48789455D01*
X83244825Y-48789455D01*
X83261255Y-48957025D01*
X83314402Y-49116791D01*
X83318049Y-49122813D01*
X83318050Y-49122815D01*
X83390261Y-49242049D01*
X83401624Y-49260812D01*
X83406513Y-49265875D01*
X83406514Y-49265876D01*
X83441192Y-49301786D01*
X83518586Y-49381929D01*
X83524483Y-49385788D01*
X83653577Y-49470266D01*
X83653581Y-49470268D01*
X83659475Y-49474125D01*
X83817289Y-49532815D01*
X83824270Y-49533746D01*
X83824272Y-49533747D01*
X83869812Y-49539823D01*
X83984183Y-49555083D01*
X83991194Y-49554445D01*
X83991198Y-49554445D01*
X84144843Y-49540462D01*
X84151864Y-49539823D01*
X84158566Y-49537645D01*
X84158568Y-49537645D01*
X84305298Y-49489970D01*
X84305301Y-49489969D01*
X84311997Y-49487793D01*
X84456623Y-49401578D01*
X84461717Y-49396727D01*
X84461721Y-49396724D01*
X84573454Y-49290322D01*
X84573455Y-49290320D01*
X84578554Y-49285465D01*
X84635337Y-49200000D01*
X84661345Y-49160856D01*
X84715703Y-49115186D01*
X84786123Y-49106154D01*
X84850247Y-49136628D01*
X84874069Y-49165313D01*
X84894635Y-49199271D01*
X84901624Y-49210812D01*
X84906513Y-49215875D01*
X84906514Y-49215876D01*
X84931789Y-49242049D01*
X85018586Y-49331929D01*
X85024483Y-49335788D01*
X85153577Y-49420266D01*
X85153581Y-49420268D01*
X85159475Y-49424125D01*
X85317289Y-49482815D01*
X85324270Y-49483746D01*
X85324272Y-49483747D01*
X85369812Y-49489823D01*
X85484183Y-49505083D01*
X85491194Y-49504445D01*
X85491198Y-49504445D01*
X85644843Y-49490462D01*
X85651864Y-49489823D01*
X85658566Y-49487645D01*
X85658568Y-49487645D01*
X85805298Y-49439970D01*
X85805301Y-49439969D01*
X85811997Y-49437793D01*
X85956623Y-49351578D01*
X85961717Y-49346727D01*
X85961721Y-49346724D01*
X86073454Y-49240322D01*
X86073455Y-49240320D01*
X86078554Y-49235465D01*
X86094934Y-49210812D01*
X86157401Y-49116791D01*
X86171731Y-49095223D01*
X86231521Y-48937823D01*
X86246675Y-48829999D01*
X86254404Y-48775010D01*
X86254404Y-48775006D01*
X86254955Y-48771088D01*
X86255249Y-48750000D01*
X86236481Y-48582676D01*
X86181108Y-48423668D01*
X86091884Y-48280879D01*
X86083723Y-48272661D01*
X85978205Y-48166403D01*
X85978201Y-48166400D01*
X85973242Y-48161406D01*
X85831079Y-48071187D01*
X85672462Y-48014706D01*
X85665474Y-48013873D01*
X85665471Y-48013872D01*
X85572300Y-48002762D01*
X85505273Y-47994769D01*
X85498270Y-47995505D01*
X85498269Y-47995505D01*
X85452712Y-48000293D01*
X85337821Y-48012369D01*
X85331155Y-48014638D01*
X85331152Y-48014639D01*
X85185098Y-48064360D01*
X85185095Y-48064361D01*
X85178431Y-48066630D01*
X85172436Y-48070318D01*
X85172432Y-48070320D01*
X85041021Y-48151165D01*
X85041019Y-48151167D01*
X85035022Y-48154856D01*
X84914724Y-48272661D01*
X84910908Y-48278583D01*
X84839896Y-48388771D01*
X84786182Y-48435196D01*
X84715895Y-48445211D01*
X84651352Y-48415636D01*
X84627131Y-48387286D01*
X84595617Y-48336853D01*
X84591884Y-48330879D01*
X84583723Y-48322661D01*
X84478205Y-48216403D01*
X84478201Y-48216400D01*
X84473242Y-48211406D01*
X84331079Y-48121187D01*
X84172462Y-48064706D01*
X84165474Y-48063873D01*
X84165471Y-48063872D01*
X84072300Y-48052762D01*
X84005273Y-48044769D01*
X83998270Y-48045505D01*
X83998269Y-48045505D01*
X83952712Y-48050293D01*
X83837821Y-48062369D01*
X83831155Y-48064638D01*
X83831152Y-48064639D01*
X83685098Y-48114360D01*
X83685095Y-48114361D01*
X83678431Y-48116630D01*
X83672436Y-48120318D01*
X83672432Y-48120320D01*
X83541021Y-48201165D01*
X83541019Y-48201167D01*
X83535022Y-48204856D01*
X83414724Y-48322661D01*
X83323515Y-48464190D01*
X83265927Y-48622409D01*
X83244825Y-48789455D01*
X75500500Y-48789455D01*
X75500500Y-43632200D01*
X76398747Y-43632200D01*
X76399306Y-43636444D01*
X76399306Y-43636448D01*
X76403770Y-43670356D01*
X76436129Y-43916149D01*
X76437262Y-43920289D01*
X76437262Y-43920291D01*
X76440873Y-43933492D01*
X76511702Y-44192398D01*
X76624068Y-44455835D01*
X76771146Y-44701585D01*
X76773830Y-44704936D01*
X76773832Y-44704938D01*
X76829174Y-44774016D01*
X76950215Y-44925100D01*
X77157962Y-45122245D01*
X77390543Y-45289371D01*
X77643653Y-45423386D01*
X77912610Y-45521810D01*
X78192436Y-45582822D01*
X78231901Y-45585928D01*
X78414597Y-45600307D01*
X78414604Y-45600307D01*
X78417053Y-45600500D01*
X78571992Y-45600500D01*
X78574128Y-45600354D01*
X78574139Y-45600354D01*
X78781460Y-45586220D01*
X78781466Y-45586219D01*
X78785737Y-45585928D01*
X78789932Y-45585059D01*
X78789934Y-45585059D01*
X78925961Y-45556889D01*
X79066186Y-45527850D01*
X79336158Y-45432248D01*
X79590658Y-45300891D01*
X79594159Y-45298430D01*
X79594163Y-45298428D01*
X79821471Y-45138673D01*
X79821477Y-45138668D01*
X79824976Y-45136209D01*
X79978518Y-44993529D01*
X80031633Y-44944172D01*
X80031636Y-44944169D01*
X80034776Y-44941251D01*
X80045575Y-44928058D01*
X80213461Y-44722941D01*
X80216177Y-44719623D01*
X80365820Y-44475427D01*
X80372802Y-44459522D01*
X80479214Y-44217110D01*
X80479215Y-44217106D01*
X80480938Y-44213182D01*
X80559400Y-43937739D01*
X80599754Y-43654196D01*
X80600920Y-43431376D01*
X80601231Y-43372086D01*
X80601231Y-43372080D01*
X80601253Y-43367800D01*
X80597798Y-43341552D01*
X80564431Y-43088107D01*
X80563871Y-43083851D01*
X80488298Y-42807602D01*
X80375932Y-42544165D01*
X80228854Y-42298415D01*
X80049785Y-42074900D01*
X79842038Y-41877755D01*
X79609457Y-41710629D01*
X79356347Y-41576614D01*
X79087390Y-41478190D01*
X78807564Y-41417178D01*
X78764389Y-41413780D01*
X78585403Y-41399693D01*
X78585396Y-41399693D01*
X78582947Y-41399500D01*
X78428008Y-41399500D01*
X78425872Y-41399646D01*
X78425861Y-41399646D01*
X78218540Y-41413780D01*
X78218534Y-41413781D01*
X78214263Y-41414072D01*
X78210068Y-41414941D01*
X78210066Y-41414941D01*
X78074039Y-41443111D01*
X77933814Y-41472150D01*
X77663842Y-41567752D01*
X77409342Y-41699109D01*
X77405841Y-41701570D01*
X77405837Y-41701572D01*
X77178529Y-41861327D01*
X77178523Y-41861332D01*
X77175024Y-41863791D01*
X76965224Y-42058749D01*
X76962510Y-42062065D01*
X76962507Y-42062068D01*
X76949256Y-42078258D01*
X76783823Y-42280377D01*
X76634180Y-42524573D01*
X76632453Y-42528507D01*
X76632452Y-42528509D01*
X76555924Y-42702845D01*
X76519062Y-42786818D01*
X76440600Y-43062261D01*
X76400246Y-43345804D01*
X76399555Y-43477844D01*
X76399048Y-43574739D01*
X76398747Y-43632200D01*
X75500500Y-43632200D01*
X75500500Y-40358841D01*
X75520502Y-40290720D01*
X75574158Y-40244227D01*
X75644432Y-40234123D01*
X75698771Y-40255628D01*
X75755319Y-40295223D01*
X75832170Y-40349035D01*
X75837152Y-40351358D01*
X75837157Y-40351361D01*
X76017519Y-40435465D01*
X76046337Y-40448903D01*
X76051645Y-40450325D01*
X76051647Y-40450326D01*
X76269277Y-40508639D01*
X76274592Y-40510063D01*
X76510000Y-40530659D01*
X76745408Y-40510063D01*
X76750723Y-40508639D01*
X76968353Y-40450326D01*
X76968355Y-40450325D01*
X76973663Y-40448903D01*
X77002481Y-40435465D01*
X77182843Y-40351361D01*
X77182848Y-40351358D01*
X77187830Y-40349035D01*
X77192339Y-40345878D01*
X77376890Y-40216654D01*
X77376893Y-40216652D01*
X77381401Y-40213495D01*
X77501011Y-40093885D01*
X77563323Y-40059859D01*
X77634138Y-40064924D01*
X77690974Y-40107471D01*
X77708088Y-40138752D01*
X77737292Y-40216654D01*
X77756474Y-40267824D01*
X77761854Y-40275003D01*
X77761856Y-40275006D01*
X77819082Y-40351361D01*
X77842454Y-40382546D01*
X77849635Y-40387928D01*
X77949994Y-40463144D01*
X77949997Y-40463146D01*
X77957176Y-40468526D01*
X78039995Y-40499573D01*
X78084025Y-40516079D01*
X78084027Y-40516079D01*
X78091420Y-40518851D01*
X78099270Y-40519704D01*
X78099271Y-40519704D01*
X78104426Y-40520264D01*
X78152623Y-40525500D01*
X79049868Y-40525500D01*
X79947376Y-40525499D01*
X79950770Y-40525130D01*
X79950776Y-40525130D01*
X80000722Y-40519705D01*
X80000726Y-40519704D01*
X80008580Y-40518851D01*
X80142824Y-40468526D01*
X80150003Y-40463146D01*
X80150006Y-40463144D01*
X80250365Y-40387928D01*
X80257546Y-40382546D01*
X80280918Y-40351361D01*
X80338144Y-40275006D01*
X80338146Y-40275003D01*
X80343526Y-40267824D01*
X80393851Y-40133580D01*
X80396663Y-40134634D01*
X80424892Y-40085213D01*
X80487845Y-40052389D01*
X80512263Y-40050000D01*
X82351412Y-40050000D01*
X82419533Y-40070002D01*
G37*
G04 #@! TD.AperFunction*
G04 #@! TA.AperFunction,Conductor*
G36*
X86168306Y-30468306D02*
G01*
X86431694Y-30731694D01*
X86450000Y-30775888D01*
X86450000Y-33924112D01*
X86431694Y-33968306D01*
X86118306Y-34281694D01*
X86074112Y-34300000D01*
X83211560Y-34300000D01*
X83167366Y-34281694D01*
X83149067Y-34238447D01*
X83144305Y-33924112D01*
X83100401Y-31026441D01*
X83118700Y-30981300D01*
X83631694Y-30468306D01*
X83675888Y-30450000D01*
X86124112Y-30450000D01*
X86168306Y-30468306D01*
G37*
G04 #@! TD.AperFunction*
G04 #@! TA.AperFunction,Conductor*
G36*
X82931694Y-33468306D02*
G01*
X82950000Y-33512500D01*
X82950000Y-33876041D01*
X82949465Y-33884199D01*
X82947767Y-33897093D01*
X82947767Y-33897101D01*
X82947500Y-33899125D01*
X82947501Y-35025874D01*
X82947766Y-35027885D01*
X82947766Y-35027890D01*
X82949466Y-35040803D01*
X82950000Y-35048959D01*
X82950000Y-35100000D01*
X82972380Y-35122380D01*
X82984830Y-35140160D01*
X83000277Y-35173287D01*
X83000279Y-35173289D01*
X83002589Y-35178244D01*
X83084256Y-35259911D01*
X83089211Y-35262221D01*
X83089213Y-35262223D01*
X83122340Y-35277670D01*
X83140120Y-35290120D01*
X83150000Y-35300000D01*
X83162431Y-35300000D01*
X83169410Y-35302891D01*
X83182785Y-35305856D01*
X83188929Y-35308721D01*
X83202295Y-35310481D01*
X83234593Y-35314733D01*
X83234601Y-35314733D01*
X83236625Y-35315000D01*
X83238672Y-35315000D01*
X83475642Y-35314999D01*
X83713374Y-35314999D01*
X83715385Y-35314734D01*
X83715390Y-35314734D01*
X83756331Y-35309345D01*
X83756332Y-35309345D01*
X83761071Y-35308721D01*
X83800961Y-35290120D01*
X83860787Y-35262223D01*
X83860789Y-35262221D01*
X83865744Y-35259911D01*
X83947411Y-35178244D01*
X83949721Y-35173289D01*
X83949723Y-35173287D01*
X83994200Y-35077906D01*
X83994201Y-35077903D01*
X83996221Y-35073571D01*
X83999222Y-35050778D01*
X84000000Y-35050000D01*
X84000000Y-35044865D01*
X84001408Y-35034171D01*
X84002233Y-35027907D01*
X84002233Y-35027899D01*
X84002500Y-35025875D01*
X84002500Y-34723388D01*
X84020806Y-34679194D01*
X84181694Y-34518306D01*
X84225888Y-34500000D01*
X85587500Y-34500000D01*
X85631694Y-34518306D01*
X85650000Y-34562500D01*
X85650000Y-36537500D01*
X85631694Y-36581694D01*
X85587500Y-36600000D01*
X84525888Y-36600000D01*
X84481694Y-36581694D01*
X84347806Y-36447806D01*
X84329500Y-36403612D01*
X84329500Y-36159573D01*
X84329586Y-36156302D01*
X84331374Y-36122177D01*
X84331718Y-36115616D01*
X84329364Y-36109483D01*
X84328851Y-36106243D01*
X84328168Y-36093198D01*
X84329374Y-36070178D01*
X84329718Y-36063616D01*
X84327364Y-36057485D01*
X84327364Y-36057482D01*
X84304151Y-35997010D01*
X84300000Y-35974612D01*
X84300000Y-35800000D01*
X84150000Y-35650000D01*
X82675888Y-35650000D01*
X82631694Y-35631694D01*
X82520649Y-35520649D01*
X82502343Y-35476455D01*
X82506682Y-35454118D01*
X82507131Y-35453260D01*
X82527133Y-35385139D01*
X82532500Y-35347810D01*
X82532500Y-33512500D01*
X82550806Y-33468306D01*
X82595000Y-33450000D01*
X82887500Y-33450000D01*
X82931694Y-33468306D01*
G37*
G04 #@! TD.AperFunction*
G04 #@! TA.AperFunction,Conductor*
G36*
X114441621Y-40070002D02*
G01*
X114488114Y-40123658D01*
X114499500Y-40176000D01*
X114499500Y-90951259D01*
X114498000Y-90970643D01*
X114494391Y-90993823D01*
X114495555Y-91002725D01*
X114495555Y-91002727D01*
X114496328Y-91008635D01*
X114497071Y-91033961D01*
X114484880Y-91204410D01*
X114482322Y-91222204D01*
X114464778Y-91302856D01*
X114440676Y-91413652D01*
X114435610Y-91430902D01*
X114367140Y-91614474D01*
X114359673Y-91630826D01*
X114265778Y-91802783D01*
X114256058Y-91817907D01*
X114138644Y-91974753D01*
X114126871Y-91988339D01*
X113988339Y-92126871D01*
X113974753Y-92138644D01*
X113817907Y-92256058D01*
X113802783Y-92265778D01*
X113630826Y-92359673D01*
X113614474Y-92367140D01*
X113430902Y-92435610D01*
X113413657Y-92440674D01*
X113243073Y-92477782D01*
X113222204Y-92482322D01*
X113204410Y-92484880D01*
X113180663Y-92486578D01*
X113040967Y-92496570D01*
X113024022Y-92495865D01*
X113024022Y-92495882D01*
X113015049Y-92495772D01*
X113006177Y-92494391D01*
X112997275Y-92495555D01*
X112997272Y-92495555D01*
X112975244Y-92498436D01*
X112958907Y-92499500D01*
X102876000Y-92499500D01*
X102807879Y-92479498D01*
X102761386Y-92425842D01*
X102750000Y-92373500D01*
X102750000Y-89632200D01*
X109398747Y-89632200D01*
X109399306Y-89636444D01*
X109399306Y-89636448D01*
X109415699Y-89760969D01*
X109436129Y-89916149D01*
X109511702Y-90192398D01*
X109513386Y-90196346D01*
X109608341Y-90418963D01*
X109624068Y-90455835D01*
X109771146Y-90701585D01*
X109773830Y-90704936D01*
X109773832Y-90704938D01*
X109821198Y-90764060D01*
X109950215Y-90925100D01*
X110157962Y-91122245D01*
X110390543Y-91289371D01*
X110643653Y-91423386D01*
X110912610Y-91521810D01*
X111192436Y-91582822D01*
X111231901Y-91585928D01*
X111414597Y-91600307D01*
X111414604Y-91600307D01*
X111417053Y-91600500D01*
X111571992Y-91600500D01*
X111574128Y-91600354D01*
X111574139Y-91600354D01*
X111781460Y-91586220D01*
X111781466Y-91586219D01*
X111785737Y-91585928D01*
X111789932Y-91585059D01*
X111789934Y-91585059D01*
X111925962Y-91556889D01*
X112066186Y-91527850D01*
X112336158Y-91432248D01*
X112590658Y-91300891D01*
X112594159Y-91298430D01*
X112594163Y-91298428D01*
X112821471Y-91138673D01*
X112821477Y-91138668D01*
X112824976Y-91136209D01*
X112968620Y-91002727D01*
X113031633Y-90944172D01*
X113031636Y-90944169D01*
X113034776Y-90941251D01*
X113045575Y-90928058D01*
X113213461Y-90722941D01*
X113216177Y-90719623D01*
X113365820Y-90475427D01*
X113372802Y-90459522D01*
X113479214Y-90217110D01*
X113479215Y-90217106D01*
X113480938Y-90213182D01*
X113559400Y-89937739D01*
X113599754Y-89654196D01*
X113600796Y-89455083D01*
X113601231Y-89372086D01*
X113601231Y-89372080D01*
X113601253Y-89367800D01*
X113597798Y-89341552D01*
X113577888Y-89190322D01*
X113563871Y-89083851D01*
X113547174Y-89022815D01*
X113520129Y-88923958D01*
X113488298Y-88807602D01*
X113453069Y-88725010D01*
X113377618Y-88548117D01*
X113377616Y-88548113D01*
X113375932Y-88544165D01*
X113228854Y-88298415D01*
X113049785Y-88074900D01*
X112842038Y-87877755D01*
X112609457Y-87710629D01*
X112356347Y-87576614D01*
X112087390Y-87478190D01*
X111807564Y-87417178D01*
X111764389Y-87413780D01*
X111585403Y-87399693D01*
X111585396Y-87399693D01*
X111582947Y-87399500D01*
X111428008Y-87399500D01*
X111425872Y-87399646D01*
X111425861Y-87399646D01*
X111218540Y-87413780D01*
X111218534Y-87413781D01*
X111214263Y-87414072D01*
X111210068Y-87414941D01*
X111210066Y-87414941D01*
X111074039Y-87443111D01*
X110933814Y-87472150D01*
X110663842Y-87567752D01*
X110409342Y-87699109D01*
X110405841Y-87701570D01*
X110405837Y-87701572D01*
X110178529Y-87861327D01*
X110178523Y-87861332D01*
X110175024Y-87863791D01*
X110130726Y-87904955D01*
X110005646Y-88021187D01*
X109965224Y-88058749D01*
X109962510Y-88062065D01*
X109962507Y-88062068D01*
X109850362Y-88199083D01*
X109783823Y-88280377D01*
X109634180Y-88524573D01*
X109632453Y-88528507D01*
X109632452Y-88528509D01*
X109547916Y-88721088D01*
X109519062Y-88786818D01*
X109440600Y-89062261D01*
X109424592Y-89174739D01*
X109408788Y-89285788D01*
X109400246Y-89345804D01*
X109399674Y-89455083D01*
X109399002Y-89583553D01*
X109398747Y-89632200D01*
X102750000Y-89632200D01*
X102750000Y-88689455D01*
X103744825Y-88689455D01*
X103745512Y-88696462D01*
X103745512Y-88696465D01*
X103748311Y-88725010D01*
X103761255Y-88857025D01*
X103814402Y-89016791D01*
X103818049Y-89022813D01*
X103818050Y-89022815D01*
X103891035Y-89143327D01*
X103901624Y-89160812D01*
X103906513Y-89165875D01*
X103906514Y-89165876D01*
X103952668Y-89213669D01*
X104018586Y-89281929D01*
X104024483Y-89285788D01*
X104153577Y-89370266D01*
X104153581Y-89370268D01*
X104159475Y-89374125D01*
X104317289Y-89432815D01*
X104324270Y-89433746D01*
X104324272Y-89433747D01*
X104369812Y-89439823D01*
X104484183Y-89455083D01*
X104491194Y-89454445D01*
X104491198Y-89454445D01*
X104644843Y-89440462D01*
X104651864Y-89439823D01*
X104658566Y-89437645D01*
X104658568Y-89437645D01*
X104805298Y-89389970D01*
X104805301Y-89389969D01*
X104811997Y-89387793D01*
X104956623Y-89301578D01*
X104961717Y-89296727D01*
X104961721Y-89296724D01*
X105073454Y-89190322D01*
X105073455Y-89190320D01*
X105078554Y-89185465D01*
X105085681Y-89174739D01*
X105139441Y-89093823D01*
X105145503Y-89084699D01*
X105199861Y-89039029D01*
X105270280Y-89029997D01*
X105334404Y-89060471D01*
X105358227Y-89089155D01*
X105401624Y-89160812D01*
X105406513Y-89165875D01*
X105406514Y-89165876D01*
X105452668Y-89213669D01*
X105518586Y-89281929D01*
X105524483Y-89285788D01*
X105653577Y-89370266D01*
X105653581Y-89370268D01*
X105659475Y-89374125D01*
X105817289Y-89432815D01*
X105824270Y-89433746D01*
X105824272Y-89433747D01*
X105869812Y-89439823D01*
X105984183Y-89455083D01*
X105991194Y-89454445D01*
X105991198Y-89454445D01*
X106144843Y-89440462D01*
X106151864Y-89439823D01*
X106158566Y-89437645D01*
X106158568Y-89437645D01*
X106305298Y-89389970D01*
X106305301Y-89389969D01*
X106311997Y-89387793D01*
X106456623Y-89301578D01*
X106461717Y-89296727D01*
X106461721Y-89296724D01*
X106573454Y-89190322D01*
X106573455Y-89190320D01*
X106578554Y-89185465D01*
X106585681Y-89174739D01*
X106639441Y-89093823D01*
X106671731Y-89045223D01*
X106731521Y-88887823D01*
X106754955Y-88721088D01*
X106755249Y-88700000D01*
X106752589Y-88676281D01*
X106737266Y-88539672D01*
X106737265Y-88539669D01*
X106736481Y-88532676D01*
X106681108Y-88373668D01*
X106591884Y-88230879D01*
X106583723Y-88222661D01*
X106478205Y-88116403D01*
X106478201Y-88116400D01*
X106473242Y-88111406D01*
X106331079Y-88021187D01*
X106172462Y-87964706D01*
X106165474Y-87963873D01*
X106165471Y-87963872D01*
X106072300Y-87952762D01*
X106005273Y-87944769D01*
X105998270Y-87945505D01*
X105998269Y-87945505D01*
X105952712Y-87950293D01*
X105837821Y-87962369D01*
X105831155Y-87964638D01*
X105831152Y-87964639D01*
X105685098Y-88014360D01*
X105685095Y-88014361D01*
X105678431Y-88016630D01*
X105672436Y-88020318D01*
X105672432Y-88020320D01*
X105541021Y-88101165D01*
X105541019Y-88101167D01*
X105535022Y-88104856D01*
X105414724Y-88222661D01*
X105410908Y-88228583D01*
X105355759Y-88314157D01*
X105302045Y-88360582D01*
X105231758Y-88370597D01*
X105167215Y-88341022D01*
X105142994Y-88312672D01*
X105095617Y-88236853D01*
X105091884Y-88230879D01*
X105083723Y-88222661D01*
X104978205Y-88116403D01*
X104978201Y-88116400D01*
X104973242Y-88111406D01*
X104831079Y-88021187D01*
X104672462Y-87964706D01*
X104665474Y-87963873D01*
X104665471Y-87963872D01*
X104572300Y-87952762D01*
X104505273Y-87944769D01*
X104498270Y-87945505D01*
X104498269Y-87945505D01*
X104452712Y-87950293D01*
X104337821Y-87962369D01*
X104331155Y-87964638D01*
X104331152Y-87964639D01*
X104185098Y-88014360D01*
X104185095Y-88014361D01*
X104178431Y-88016630D01*
X104172436Y-88020318D01*
X104172432Y-88020320D01*
X104041021Y-88101165D01*
X104041019Y-88101167D01*
X104035022Y-88104856D01*
X103914724Y-88222661D01*
X103823515Y-88364190D01*
X103765927Y-88522409D01*
X103744825Y-88689455D01*
X102750000Y-88689455D01*
X102750000Y-77289455D01*
X103744825Y-77289455D01*
X103745512Y-77296462D01*
X103745512Y-77296465D01*
X103748311Y-77325010D01*
X103761255Y-77457025D01*
X103814402Y-77616791D01*
X103818049Y-77622813D01*
X103818050Y-77622815D01*
X103891035Y-77743327D01*
X103901624Y-77760812D01*
X103906513Y-77765875D01*
X103906514Y-77765876D01*
X103952668Y-77813669D01*
X104018586Y-77881929D01*
X104024483Y-77885788D01*
X104153577Y-77970266D01*
X104153581Y-77970268D01*
X104159475Y-77974125D01*
X104317289Y-78032815D01*
X104324270Y-78033746D01*
X104324272Y-78033747D01*
X104369812Y-78039823D01*
X104484183Y-78055083D01*
X104491194Y-78054445D01*
X104491198Y-78054445D01*
X104644843Y-78040462D01*
X104651864Y-78039823D01*
X104658566Y-78037645D01*
X104658568Y-78037645D01*
X104805298Y-77989970D01*
X104805301Y-77989969D01*
X104811997Y-77987793D01*
X104956623Y-77901578D01*
X104961717Y-77896727D01*
X104961721Y-77896724D01*
X105073454Y-77790322D01*
X105073455Y-77790320D01*
X105078554Y-77785465D01*
X105085681Y-77774739D01*
X105139441Y-77693823D01*
X105145503Y-77684699D01*
X105199861Y-77639029D01*
X105270280Y-77629997D01*
X105334404Y-77660471D01*
X105358227Y-77689155D01*
X105401624Y-77760812D01*
X105406513Y-77765875D01*
X105406514Y-77765876D01*
X105452668Y-77813669D01*
X105518586Y-77881929D01*
X105524483Y-77885788D01*
X105653577Y-77970266D01*
X105653581Y-77970268D01*
X105659475Y-77974125D01*
X105817289Y-78032815D01*
X105824270Y-78033746D01*
X105824272Y-78033747D01*
X105869812Y-78039823D01*
X105984183Y-78055083D01*
X105991194Y-78054445D01*
X105991198Y-78054445D01*
X106144843Y-78040462D01*
X106151864Y-78039823D01*
X106158566Y-78037645D01*
X106158568Y-78037645D01*
X106305298Y-77989970D01*
X106305301Y-77989969D01*
X106311997Y-77987793D01*
X106456623Y-77901578D01*
X106461717Y-77896727D01*
X106461721Y-77896724D01*
X106573454Y-77790322D01*
X106573455Y-77790320D01*
X106578554Y-77785465D01*
X106585681Y-77774739D01*
X106639441Y-77693823D01*
X106671731Y-77645223D01*
X106731521Y-77487823D01*
X106754955Y-77321088D01*
X106755249Y-77300000D01*
X106752589Y-77276281D01*
X106737266Y-77139672D01*
X106737265Y-77139669D01*
X106736481Y-77132676D01*
X106681108Y-76973668D01*
X106591884Y-76830879D01*
X106583723Y-76822661D01*
X106478205Y-76716403D01*
X106478201Y-76716400D01*
X106473242Y-76711406D01*
X106331079Y-76621187D01*
X106172462Y-76564706D01*
X106165474Y-76563873D01*
X106165471Y-76563872D01*
X106072300Y-76552762D01*
X106005273Y-76544769D01*
X105998270Y-76545505D01*
X105998269Y-76545505D01*
X105952712Y-76550293D01*
X105837821Y-76562369D01*
X105831155Y-76564638D01*
X105831152Y-76564639D01*
X105685098Y-76614360D01*
X105685095Y-76614361D01*
X105678431Y-76616630D01*
X105672436Y-76620318D01*
X105672432Y-76620320D01*
X105541021Y-76701165D01*
X105541019Y-76701167D01*
X105535022Y-76704856D01*
X105414724Y-76822661D01*
X105410908Y-76828583D01*
X105355759Y-76914157D01*
X105302045Y-76960582D01*
X105231758Y-76970597D01*
X105167215Y-76941022D01*
X105142994Y-76912672D01*
X105095617Y-76836853D01*
X105091884Y-76830879D01*
X105083723Y-76822661D01*
X104978205Y-76716403D01*
X104978201Y-76716400D01*
X104973242Y-76711406D01*
X104831079Y-76621187D01*
X104672462Y-76564706D01*
X104665474Y-76563873D01*
X104665471Y-76563872D01*
X104572300Y-76552762D01*
X104505273Y-76544769D01*
X104498270Y-76545505D01*
X104498269Y-76545505D01*
X104452712Y-76550293D01*
X104337821Y-76562369D01*
X104331155Y-76564638D01*
X104331152Y-76564639D01*
X104185098Y-76614360D01*
X104185095Y-76614361D01*
X104178431Y-76616630D01*
X104172436Y-76620318D01*
X104172432Y-76620320D01*
X104041021Y-76701165D01*
X104041019Y-76701167D01*
X104035022Y-76704856D01*
X103914724Y-76822661D01*
X103823515Y-76964190D01*
X103765927Y-77122409D01*
X103744825Y-77289455D01*
X102750000Y-77289455D01*
X102750000Y-65889455D01*
X103744825Y-65889455D01*
X103745512Y-65896462D01*
X103745512Y-65896465D01*
X103748311Y-65925010D01*
X103761255Y-66057025D01*
X103814402Y-66216791D01*
X103818049Y-66222813D01*
X103818050Y-66222815D01*
X103891035Y-66343327D01*
X103901624Y-66360812D01*
X103906513Y-66365875D01*
X103906514Y-66365876D01*
X103952668Y-66413669D01*
X104018586Y-66481929D01*
X104024483Y-66485788D01*
X104153577Y-66570266D01*
X104153581Y-66570268D01*
X104159475Y-66574125D01*
X104317289Y-66632815D01*
X104324270Y-66633746D01*
X104324272Y-66633747D01*
X104369812Y-66639823D01*
X104484183Y-66655083D01*
X104491194Y-66654445D01*
X104491198Y-66654445D01*
X104644843Y-66640462D01*
X104651864Y-66639823D01*
X104658566Y-66637645D01*
X104658568Y-66637645D01*
X104805298Y-66589970D01*
X104805301Y-66589969D01*
X104811997Y-66587793D01*
X104956623Y-66501578D01*
X104961717Y-66496727D01*
X104961721Y-66496724D01*
X105073454Y-66390322D01*
X105073455Y-66390320D01*
X105078554Y-66385465D01*
X105085681Y-66374739D01*
X105139441Y-66293823D01*
X105145503Y-66284699D01*
X105199861Y-66239029D01*
X105270280Y-66229997D01*
X105334404Y-66260471D01*
X105358227Y-66289155D01*
X105401624Y-66360812D01*
X105406513Y-66365875D01*
X105406514Y-66365876D01*
X105452668Y-66413669D01*
X105518586Y-66481929D01*
X105524483Y-66485788D01*
X105653577Y-66570266D01*
X105653581Y-66570268D01*
X105659475Y-66574125D01*
X105817289Y-66632815D01*
X105824270Y-66633746D01*
X105824272Y-66633747D01*
X105869812Y-66639823D01*
X105984183Y-66655083D01*
X105991194Y-66654445D01*
X105991198Y-66654445D01*
X106144843Y-66640462D01*
X106151864Y-66639823D01*
X106158566Y-66637645D01*
X106158568Y-66637645D01*
X106305298Y-66589970D01*
X106305301Y-66589969D01*
X106311997Y-66587793D01*
X106456623Y-66501578D01*
X106461717Y-66496727D01*
X106461721Y-66496724D01*
X106573454Y-66390322D01*
X106573455Y-66390320D01*
X106578554Y-66385465D01*
X106585681Y-66374739D01*
X106639441Y-66293823D01*
X106671731Y-66245223D01*
X106731521Y-66087823D01*
X106754955Y-65921088D01*
X106755249Y-65900000D01*
X106752589Y-65876281D01*
X106737266Y-65739672D01*
X106737265Y-65739669D01*
X106736481Y-65732676D01*
X106681108Y-65573668D01*
X106591884Y-65430879D01*
X106583723Y-65422661D01*
X106478205Y-65316403D01*
X106478201Y-65316400D01*
X106473242Y-65311406D01*
X106331079Y-65221187D01*
X106172462Y-65164706D01*
X106165474Y-65163873D01*
X106165471Y-65163872D01*
X106072300Y-65152762D01*
X106005273Y-65144769D01*
X105998270Y-65145505D01*
X105998269Y-65145505D01*
X105952712Y-65150293D01*
X105837821Y-65162369D01*
X105831155Y-65164638D01*
X105831152Y-65164639D01*
X105685098Y-65214360D01*
X105685095Y-65214361D01*
X105678431Y-65216630D01*
X105672436Y-65220318D01*
X105672432Y-65220320D01*
X105541021Y-65301165D01*
X105541019Y-65301167D01*
X105535022Y-65304856D01*
X105414724Y-65422661D01*
X105410908Y-65428583D01*
X105355759Y-65514157D01*
X105302045Y-65560582D01*
X105231758Y-65570597D01*
X105167215Y-65541022D01*
X105142994Y-65512672D01*
X105095617Y-65436853D01*
X105091884Y-65430879D01*
X105083723Y-65422661D01*
X104978205Y-65316403D01*
X104978201Y-65316400D01*
X104973242Y-65311406D01*
X104831079Y-65221187D01*
X104672462Y-65164706D01*
X104665474Y-65163873D01*
X104665471Y-65163872D01*
X104572300Y-65152762D01*
X104505273Y-65144769D01*
X104498270Y-65145505D01*
X104498269Y-65145505D01*
X104452712Y-65150293D01*
X104337821Y-65162369D01*
X104331155Y-65164638D01*
X104331152Y-65164639D01*
X104185098Y-65214360D01*
X104185095Y-65214361D01*
X104178431Y-65216630D01*
X104172436Y-65220318D01*
X104172432Y-65220320D01*
X104041021Y-65301165D01*
X104041019Y-65301167D01*
X104035022Y-65304856D01*
X103914724Y-65422661D01*
X103823515Y-65564190D01*
X103765927Y-65722409D01*
X103744825Y-65889455D01*
X102750000Y-65889455D01*
X102750000Y-54489455D01*
X103794825Y-54489455D01*
X103795512Y-54496462D01*
X103795512Y-54496465D01*
X103798311Y-54525010D01*
X103811255Y-54657025D01*
X103864402Y-54816791D01*
X103868049Y-54822813D01*
X103868050Y-54822815D01*
X103941035Y-54943327D01*
X103951624Y-54960812D01*
X103956513Y-54965875D01*
X103956514Y-54965876D01*
X104002668Y-55013669D01*
X104068586Y-55081929D01*
X104074483Y-55085788D01*
X104203577Y-55170266D01*
X104203581Y-55170268D01*
X104209475Y-55174125D01*
X104367289Y-55232815D01*
X104374270Y-55233746D01*
X104374272Y-55233747D01*
X104419812Y-55239823D01*
X104534183Y-55255083D01*
X104541194Y-55254445D01*
X104541198Y-55254445D01*
X104694843Y-55240462D01*
X104701864Y-55239823D01*
X104708566Y-55237645D01*
X104708568Y-55237645D01*
X104855298Y-55189970D01*
X104855301Y-55189969D01*
X104861997Y-55187793D01*
X105006623Y-55101578D01*
X105011717Y-55096727D01*
X105011721Y-55096724D01*
X105123454Y-54990322D01*
X105123455Y-54990320D01*
X105128554Y-54985465D01*
X105135681Y-54974739D01*
X105189441Y-54893823D01*
X105195503Y-54884699D01*
X105249861Y-54839029D01*
X105320280Y-54829997D01*
X105384404Y-54860471D01*
X105408227Y-54889155D01*
X105451624Y-54960812D01*
X105456513Y-54965875D01*
X105456514Y-54965876D01*
X105502668Y-55013669D01*
X105568586Y-55081929D01*
X105574483Y-55085788D01*
X105703577Y-55170266D01*
X105703581Y-55170268D01*
X105709475Y-55174125D01*
X105867289Y-55232815D01*
X105874270Y-55233746D01*
X105874272Y-55233747D01*
X105919812Y-55239823D01*
X106034183Y-55255083D01*
X106041194Y-55254445D01*
X106041198Y-55254445D01*
X106194843Y-55240462D01*
X106201864Y-55239823D01*
X106208566Y-55237645D01*
X106208568Y-55237645D01*
X106355298Y-55189970D01*
X106355301Y-55189969D01*
X106361997Y-55187793D01*
X106506623Y-55101578D01*
X106511717Y-55096727D01*
X106511721Y-55096724D01*
X106623454Y-54990322D01*
X106623455Y-54990320D01*
X106628554Y-54985465D01*
X106635681Y-54974739D01*
X106689441Y-54893823D01*
X106721731Y-54845223D01*
X106781521Y-54687823D01*
X106804955Y-54521088D01*
X106805249Y-54500000D01*
X106802589Y-54476281D01*
X106787266Y-54339672D01*
X106787265Y-54339669D01*
X106786481Y-54332676D01*
X106731108Y-54173668D01*
X106641884Y-54030879D01*
X106633723Y-54022661D01*
X106528205Y-53916403D01*
X106528201Y-53916400D01*
X106523242Y-53911406D01*
X106381079Y-53821187D01*
X106222462Y-53764706D01*
X106215474Y-53763873D01*
X106215471Y-53763872D01*
X106122300Y-53752762D01*
X106055273Y-53744769D01*
X106048270Y-53745505D01*
X106048269Y-53745505D01*
X106002712Y-53750293D01*
X105887821Y-53762369D01*
X105881155Y-53764638D01*
X105881152Y-53764639D01*
X105735098Y-53814360D01*
X105735095Y-53814361D01*
X105728431Y-53816630D01*
X105722436Y-53820318D01*
X105722432Y-53820320D01*
X105591021Y-53901165D01*
X105591019Y-53901167D01*
X105585022Y-53904856D01*
X105464724Y-54022661D01*
X105460908Y-54028583D01*
X105405759Y-54114157D01*
X105352045Y-54160582D01*
X105281758Y-54170597D01*
X105217215Y-54141022D01*
X105192994Y-54112672D01*
X105145617Y-54036853D01*
X105141884Y-54030879D01*
X105133723Y-54022661D01*
X105028205Y-53916403D01*
X105028201Y-53916400D01*
X105023242Y-53911406D01*
X104881079Y-53821187D01*
X104722462Y-53764706D01*
X104715474Y-53763873D01*
X104715471Y-53763872D01*
X104622300Y-53752762D01*
X104555273Y-53744769D01*
X104548270Y-53745505D01*
X104548269Y-53745505D01*
X104502712Y-53750293D01*
X104387821Y-53762369D01*
X104381155Y-53764638D01*
X104381152Y-53764639D01*
X104235098Y-53814360D01*
X104235095Y-53814361D01*
X104228431Y-53816630D01*
X104222436Y-53820318D01*
X104222432Y-53820320D01*
X104091021Y-53901165D01*
X104091019Y-53901167D01*
X104085022Y-53904856D01*
X103964724Y-54022661D01*
X103873515Y-54164190D01*
X103815927Y-54322409D01*
X103794825Y-54489455D01*
X102750000Y-54489455D01*
X102750000Y-44100000D01*
X102637405Y-43987405D01*
X102603379Y-43925093D01*
X102600500Y-43898310D01*
X102600500Y-43632200D01*
X109398747Y-43632200D01*
X109399306Y-43636444D01*
X109399306Y-43636448D01*
X109405303Y-43681997D01*
X109436129Y-43916149D01*
X109437262Y-43920289D01*
X109437262Y-43920291D01*
X109440873Y-43933492D01*
X109511702Y-44192398D01*
X109624068Y-44455835D01*
X109771146Y-44701585D01*
X109773830Y-44704936D01*
X109773832Y-44704938D01*
X109785597Y-44719623D01*
X109950215Y-44925100D01*
X110157962Y-45122245D01*
X110390543Y-45289371D01*
X110643653Y-45423386D01*
X110912610Y-45521810D01*
X111192436Y-45582822D01*
X111231901Y-45585928D01*
X111414597Y-45600307D01*
X111414604Y-45600307D01*
X111417053Y-45600500D01*
X111571992Y-45600500D01*
X111574128Y-45600354D01*
X111574139Y-45600354D01*
X111781460Y-45586220D01*
X111781466Y-45586219D01*
X111785737Y-45585928D01*
X111789932Y-45585059D01*
X111789934Y-45585059D01*
X111925961Y-45556889D01*
X112066186Y-45527850D01*
X112336158Y-45432248D01*
X112590658Y-45300891D01*
X112594159Y-45298430D01*
X112594163Y-45298428D01*
X112821471Y-45138673D01*
X112821477Y-45138668D01*
X112824976Y-45136209D01*
X112978518Y-44993529D01*
X113031633Y-44944172D01*
X113031636Y-44944169D01*
X113034776Y-44941251D01*
X113045575Y-44928058D01*
X113171657Y-44774016D01*
X113216177Y-44719623D01*
X113365820Y-44475427D01*
X113372802Y-44459522D01*
X113479214Y-44217110D01*
X113479215Y-44217106D01*
X113480938Y-44213182D01*
X113559400Y-43937739D01*
X113599754Y-43654196D01*
X113600662Y-43480672D01*
X113601231Y-43372086D01*
X113601231Y-43372080D01*
X113601253Y-43367800D01*
X113597798Y-43341552D01*
X113579228Y-43200500D01*
X113563871Y-43083851D01*
X113561181Y-43074016D01*
X113489430Y-42811741D01*
X113488298Y-42807602D01*
X113375932Y-42544165D01*
X113228854Y-42298415D01*
X113177343Y-42234118D01*
X113052475Y-42078258D01*
X113049785Y-42074900D01*
X112842038Y-41877755D01*
X112609457Y-41710629D01*
X112356347Y-41576614D01*
X112087390Y-41478190D01*
X111807564Y-41417178D01*
X111764389Y-41413780D01*
X111585403Y-41399693D01*
X111585396Y-41399693D01*
X111582947Y-41399500D01*
X111428008Y-41399500D01*
X111425872Y-41399646D01*
X111425861Y-41399646D01*
X111218540Y-41413780D01*
X111218534Y-41413781D01*
X111214263Y-41414072D01*
X111210068Y-41414941D01*
X111210066Y-41414941D01*
X111074039Y-41443111D01*
X110933814Y-41472150D01*
X110663842Y-41567752D01*
X110409342Y-41699109D01*
X110405841Y-41701570D01*
X110405837Y-41701572D01*
X110178529Y-41861327D01*
X110178523Y-41861332D01*
X110175024Y-41863791D01*
X109965224Y-42058749D01*
X109962510Y-42062065D01*
X109962507Y-42062068D01*
X109949256Y-42078258D01*
X109783823Y-42280377D01*
X109634180Y-42524573D01*
X109632453Y-42528507D01*
X109632452Y-42528509D01*
X109555924Y-42702845D01*
X109519062Y-42786818D01*
X109440600Y-43062261D01*
X109400246Y-43345804D01*
X109399830Y-43425261D01*
X109399048Y-43574739D01*
X109398747Y-43632200D01*
X102600500Y-43632200D01*
X102600500Y-43552576D01*
X102602246Y-43531671D01*
X102604689Y-43517148D01*
X102605496Y-43512354D01*
X102605647Y-43500000D01*
X102604542Y-43492285D01*
X102603701Y-43484837D01*
X102587590Y-43290407D01*
X102587589Y-43290402D01*
X102587159Y-43285211D01*
X102569420Y-43215159D01*
X102535531Y-43081334D01*
X102535529Y-43081329D01*
X102534251Y-43076281D01*
X102526291Y-43058133D01*
X102449769Y-42883683D01*
X102447675Y-42878909D01*
X102329794Y-42698479D01*
X102183823Y-42539912D01*
X102169173Y-42528509D01*
X102017854Y-42410733D01*
X102013744Y-42407534D01*
X101934325Y-42364555D01*
X101828780Y-42307436D01*
X101828777Y-42307435D01*
X101824195Y-42304955D01*
X101620348Y-42234974D01*
X101615214Y-42234117D01*
X101615209Y-42234116D01*
X101412899Y-42200357D01*
X101412897Y-42200357D01*
X101407762Y-42199500D01*
X101192238Y-42199500D01*
X101187103Y-42200357D01*
X101187101Y-42200357D01*
X101085643Y-42217287D01*
X100979652Y-42234974D01*
X100974728Y-42236665D01*
X100973865Y-42236883D01*
X100902919Y-42234218D01*
X100853835Y-42203835D01*
X99936905Y-41286905D01*
X99902879Y-41224593D01*
X99900000Y-41197810D01*
X99900000Y-40746256D01*
X99920002Y-40678135D01*
X99963580Y-40640448D01*
X99961997Y-40637793D01*
X100100577Y-40555182D01*
X100106623Y-40551578D01*
X100112516Y-40545966D01*
X100113146Y-40545642D01*
X100117335Y-40542462D01*
X100117894Y-40543198D01*
X100175640Y-40513472D01*
X100246311Y-40520264D01*
X100267853Y-40533050D01*
X100268586Y-40531929D01*
X100403577Y-40620266D01*
X100403581Y-40620268D01*
X100409475Y-40624125D01*
X100567289Y-40682815D01*
X100574270Y-40683746D01*
X100574272Y-40683747D01*
X100619812Y-40689823D01*
X100734183Y-40705083D01*
X100741194Y-40704445D01*
X100741198Y-40704445D01*
X100894843Y-40690462D01*
X100901864Y-40689823D01*
X100908566Y-40687645D01*
X100908568Y-40687645D01*
X101055298Y-40639970D01*
X101055301Y-40639969D01*
X101061997Y-40637793D01*
X101206623Y-40551578D01*
X101212516Y-40545966D01*
X101213146Y-40545642D01*
X101217335Y-40542462D01*
X101217894Y-40543198D01*
X101275640Y-40513472D01*
X101346311Y-40520264D01*
X101367853Y-40533050D01*
X101368586Y-40531929D01*
X101503577Y-40620266D01*
X101503581Y-40620268D01*
X101509475Y-40624125D01*
X101667289Y-40682815D01*
X101674270Y-40683746D01*
X101674272Y-40683747D01*
X101719812Y-40689823D01*
X101834183Y-40705083D01*
X101841194Y-40704445D01*
X101841198Y-40704445D01*
X101994843Y-40690462D01*
X102001864Y-40689823D01*
X102008566Y-40687645D01*
X102008568Y-40687645D01*
X102155298Y-40639970D01*
X102155301Y-40639969D01*
X102161997Y-40637793D01*
X102306623Y-40551578D01*
X102312516Y-40545966D01*
X102313146Y-40545642D01*
X102317335Y-40542462D01*
X102317894Y-40543198D01*
X102375640Y-40513472D01*
X102446311Y-40520264D01*
X102467853Y-40533050D01*
X102468586Y-40531929D01*
X102603577Y-40620266D01*
X102603581Y-40620268D01*
X102609475Y-40624125D01*
X102767289Y-40682815D01*
X102774270Y-40683746D01*
X102774272Y-40683747D01*
X102819812Y-40689823D01*
X102934183Y-40705083D01*
X102941194Y-40704445D01*
X102941198Y-40704445D01*
X103094843Y-40690462D01*
X103101864Y-40689823D01*
X103108566Y-40687645D01*
X103108568Y-40687645D01*
X103255298Y-40639970D01*
X103255301Y-40639969D01*
X103261997Y-40637793D01*
X103406623Y-40551578D01*
X103412516Y-40545966D01*
X103413146Y-40545642D01*
X103417335Y-40542462D01*
X103417894Y-40543198D01*
X103475640Y-40513472D01*
X103546311Y-40520264D01*
X103567853Y-40533050D01*
X103568586Y-40531929D01*
X103703577Y-40620266D01*
X103703581Y-40620268D01*
X103709475Y-40624125D01*
X103867289Y-40682815D01*
X103874270Y-40683746D01*
X103874272Y-40683747D01*
X103919812Y-40689823D01*
X104034183Y-40705083D01*
X104041194Y-40704445D01*
X104041198Y-40704445D01*
X104194843Y-40690462D01*
X104201864Y-40689823D01*
X104208566Y-40687645D01*
X104208568Y-40687645D01*
X104355298Y-40639970D01*
X104355301Y-40639969D01*
X104361997Y-40637793D01*
X104506623Y-40551578D01*
X104512516Y-40545966D01*
X104513146Y-40545642D01*
X104517335Y-40542462D01*
X104517894Y-40543198D01*
X104575640Y-40513472D01*
X104646311Y-40520264D01*
X104667853Y-40533050D01*
X104668586Y-40531929D01*
X104803577Y-40620266D01*
X104803581Y-40620268D01*
X104809475Y-40624125D01*
X104967289Y-40682815D01*
X104974270Y-40683746D01*
X104974272Y-40683747D01*
X105019812Y-40689823D01*
X105134183Y-40705083D01*
X105141194Y-40704445D01*
X105141198Y-40704445D01*
X105294843Y-40690462D01*
X105301864Y-40689823D01*
X105308566Y-40687645D01*
X105308568Y-40687645D01*
X105455298Y-40639970D01*
X105455301Y-40639969D01*
X105461997Y-40637793D01*
X105606623Y-40551578D01*
X105612516Y-40545966D01*
X105613146Y-40545642D01*
X105617335Y-40542462D01*
X105617894Y-40543198D01*
X105675640Y-40513472D01*
X105746311Y-40520264D01*
X105767853Y-40533050D01*
X105768586Y-40531929D01*
X105903577Y-40620266D01*
X105903581Y-40620268D01*
X105909475Y-40624125D01*
X106067289Y-40682815D01*
X106074270Y-40683746D01*
X106074272Y-40683747D01*
X106119812Y-40689823D01*
X106234183Y-40705083D01*
X106241194Y-40704445D01*
X106241198Y-40704445D01*
X106394843Y-40690462D01*
X106401864Y-40689823D01*
X106408566Y-40687645D01*
X106408568Y-40687645D01*
X106555298Y-40639970D01*
X106555301Y-40639969D01*
X106561997Y-40637793D01*
X106706623Y-40551578D01*
X106712516Y-40545966D01*
X106713146Y-40545642D01*
X106717335Y-40542462D01*
X106717894Y-40543198D01*
X106775640Y-40513472D01*
X106846311Y-40520264D01*
X106867853Y-40533050D01*
X106868586Y-40531929D01*
X107003577Y-40620266D01*
X107003581Y-40620268D01*
X107009475Y-40624125D01*
X107167289Y-40682815D01*
X107174270Y-40683746D01*
X107174272Y-40683747D01*
X107219812Y-40689823D01*
X107334183Y-40705083D01*
X107341194Y-40704445D01*
X107341198Y-40704445D01*
X107494843Y-40690462D01*
X107501864Y-40689823D01*
X107508566Y-40687645D01*
X107508568Y-40687645D01*
X107655298Y-40639970D01*
X107655301Y-40639969D01*
X107661997Y-40637793D01*
X107806623Y-40551578D01*
X107811717Y-40546727D01*
X107811721Y-40546724D01*
X107923454Y-40440322D01*
X107923455Y-40440320D01*
X107928554Y-40435465D01*
X108021731Y-40295223D01*
X108081521Y-40137823D01*
X108082748Y-40138289D01*
X108115270Y-40083657D01*
X108178803Y-40051970D01*
X108200995Y-40050000D01*
X114373500Y-40050000D01*
X114441621Y-40070002D01*
G37*
G04 #@! TD.AperFunction*
G04 #@! TA.AperFunction,Conductor*
G36*
X112081694Y-30418306D02*
G01*
X112100000Y-30462500D01*
X112100000Y-32137500D01*
X112081694Y-32181694D01*
X112037500Y-32200000D01*
X110264999Y-32200000D01*
X110220805Y-32181694D01*
X110202499Y-32137500D01*
X110202499Y-32128182D01*
X110195861Y-32077752D01*
X110144256Y-31967086D01*
X110057914Y-31880744D01*
X109947248Y-31829139D01*
X109929922Y-31826858D01*
X109898850Y-31822767D01*
X109898844Y-31822767D01*
X109896819Y-31822500D01*
X109894772Y-31822500D01*
X109599201Y-31822501D01*
X109303182Y-31822501D01*
X109301170Y-31822766D01*
X109301167Y-31822766D01*
X109257492Y-31828515D01*
X109257491Y-31828515D01*
X109252752Y-31829139D01*
X109142086Y-31880744D01*
X109055744Y-31967086D01*
X109004139Y-32077752D01*
X108997500Y-32128181D01*
X108997500Y-32137500D01*
X108979194Y-32181694D01*
X108935000Y-32200000D01*
X100962500Y-32200000D01*
X100918306Y-32181694D01*
X100900000Y-32137500D01*
X100900000Y-30462500D01*
X100918306Y-30418306D01*
X100962500Y-30400000D01*
X112037500Y-30400000D01*
X112081694Y-30418306D01*
G37*
G04 #@! TD.AperFunction*
G04 #@! TA.AperFunction,Conductor*
G36*
X88518306Y-30468306D02*
G01*
X88731694Y-30681694D01*
X88750000Y-30725888D01*
X88750000Y-33887500D01*
X88731694Y-33931694D01*
X88687500Y-33950000D01*
X87800000Y-33950000D01*
X87800000Y-34537500D01*
X87781694Y-34581694D01*
X87737500Y-34600000D01*
X86812500Y-34600000D01*
X86768306Y-34581694D01*
X86750000Y-34537500D01*
X86750000Y-30825888D01*
X86768306Y-30781694D01*
X87081694Y-30468306D01*
X87125888Y-30450000D01*
X88474112Y-30450000D01*
X88518306Y-30468306D01*
G37*
G04 #@! TD.AperFunction*
G04 #@! TA.AperFunction,Conductor*
G36*
X82115931Y-30420002D02*
G01*
X82136905Y-30436905D01*
X82363095Y-30663095D01*
X82397121Y-30725407D01*
X82400000Y-30752190D01*
X82400000Y-35347810D01*
X82379998Y-35415931D01*
X82363095Y-35436905D01*
X82236905Y-35563095D01*
X82174593Y-35597121D01*
X82147810Y-35600000D01*
X81826000Y-35600000D01*
X81757879Y-35579998D01*
X81711386Y-35526342D01*
X81700000Y-35474000D01*
X81700000Y-35000000D01*
X81100000Y-34400000D01*
X80252190Y-34400000D01*
X80184069Y-34379998D01*
X80163095Y-34363095D01*
X79536905Y-33736905D01*
X79502879Y-33674593D01*
X79500000Y-33647810D01*
X79500000Y-30652190D01*
X79520002Y-30584069D01*
X79536905Y-30563095D01*
X79663095Y-30436905D01*
X79725407Y-30402879D01*
X79752190Y-30400000D01*
X82047810Y-30400000D01*
X82115931Y-30420002D01*
G37*
G04 #@! TD.AperFunction*
M02*
