G04 #@! TF.GenerationSoftware,KiCad,Pcbnew,(6.0.7)*
G04 #@! TF.CreationDate,2022-10-27T11:39:27+02:00*
G04 #@! TF.ProjectId,FluidPresenceSensor,466c7569-6450-4726-9573-656e63655365,rev?*
G04 #@! TF.SameCoordinates,Original*
G04 #@! TF.FileFunction,Copper,L4,Bot*
G04 #@! TF.FilePolarity,Positive*
%FSLAX46Y46*%
G04 Gerber Fmt 4.6, Leading zero omitted, Abs format (unit mm)*
G04 Created by KiCad (PCBNEW (6.0.7)) date 2022-10-27 11:39:27*
%MOMM*%
%LPD*%
G01*
G04 APERTURE LIST*
G04 Aperture macros list*
%AMRoundRect*
0 Rectangle with rounded corners*
0 $1 Rounding radius*
0 $2 $3 $4 $5 $6 $7 $8 $9 X,Y pos of 4 corners*
0 Add a 4 corners polygon primitive as box body*
4,1,4,$2,$3,$4,$5,$6,$7,$8,$9,$2,$3,0*
0 Add four circle primitives for the rounded corners*
1,1,$1+$1,$2,$3*
1,1,$1+$1,$4,$5*
1,1,$1+$1,$6,$7*
1,1,$1+$1,$8,$9*
0 Add four rect primitives between the rounded corners*
20,1,$1+$1,$2,$3,$4,$5,0*
20,1,$1+$1,$4,$5,$6,$7,0*
20,1,$1+$1,$6,$7,$8,$9,0*
20,1,$1+$1,$8,$9,$2,$3,0*%
G04 Aperture macros list end*
G04 #@! TA.AperFunction,ComponentPad*
%ADD10O,1.050000X1.900000*%
G04 #@! TD*
G04 #@! TA.AperFunction,ComponentPad*
%ADD11R,1.700000X1.700000*%
G04 #@! TD*
G04 #@! TA.AperFunction,ComponentPad*
%ADD12O,1.700000X1.700000*%
G04 #@! TD*
G04 #@! TA.AperFunction,SMDPad,CuDef*
%ADD13RoundRect,0.125000X2.375000X0.375000X-2.375000X0.375000X-2.375000X-0.375000X2.375000X-0.375000X0*%
G04 #@! TD*
G04 #@! TA.AperFunction,SMDPad,CuDef*
%ADD14RoundRect,0.200000X0.275000X-0.200000X0.275000X0.200000X-0.275000X0.200000X-0.275000X-0.200000X0*%
G04 #@! TD*
G04 #@! TA.AperFunction,SMDPad,CuDef*
%ADD15RoundRect,0.125000X-0.125000X-0.375000X0.125000X-0.375000X0.125000X0.375000X-0.125000X0.375000X0*%
G04 #@! TD*
G04 #@! TA.AperFunction,SMDPad,CuDef*
%ADD16RoundRect,0.200000X-0.275000X0.200000X-0.275000X-0.200000X0.275000X-0.200000X0.275000X0.200000X0*%
G04 #@! TD*
G04 #@! TA.AperFunction,SMDPad,CuDef*
%ADD17RoundRect,0.225000X-0.250000X0.225000X-0.250000X-0.225000X0.250000X-0.225000X0.250000X0.225000X0*%
G04 #@! TD*
G04 #@! TA.AperFunction,SMDPad,CuDef*
%ADD18R,1.150000X1.000000*%
G04 #@! TD*
G04 #@! TA.AperFunction,SMDPad,CuDef*
%ADD19RoundRect,0.225000X0.225000X0.250000X-0.225000X0.250000X-0.225000X-0.250000X0.225000X-0.250000X0*%
G04 #@! TD*
G04 #@! TA.AperFunction,SMDPad,CuDef*
%ADD20RoundRect,0.125000X0.125000X0.375000X-0.125000X0.375000X-0.125000X-0.375000X0.125000X-0.375000X0*%
G04 #@! TD*
G04 #@! TA.AperFunction,SMDPad,CuDef*
%ADD21RoundRect,0.225000X-0.225000X-0.250000X0.225000X-0.250000X0.225000X0.250000X-0.225000X0.250000X0*%
G04 #@! TD*
G04 #@! TA.AperFunction,SMDPad,CuDef*
%ADD22RoundRect,0.200000X-0.200000X-0.275000X0.200000X-0.275000X0.200000X0.275000X-0.200000X0.275000X0*%
G04 #@! TD*
G04 #@! TA.AperFunction,SMDPad,CuDef*
%ADD23RoundRect,0.225000X0.250000X-0.225000X0.250000X0.225000X-0.250000X0.225000X-0.250000X-0.225000X0*%
G04 #@! TD*
G04 #@! TA.AperFunction,SMDPad,CuDef*
%ADD24RoundRect,0.200000X0.200000X0.275000X-0.200000X0.275000X-0.200000X-0.275000X0.200000X-0.275000X0*%
G04 #@! TD*
G04 #@! TA.AperFunction,ComponentPad*
%ADD25RoundRect,0.250000X-0.845000X0.620000X-0.845000X-0.620000X0.845000X-0.620000X0.845000X0.620000X0*%
G04 #@! TD*
G04 #@! TA.AperFunction,ComponentPad*
%ADD26O,2.190000X1.740000*%
G04 #@! TD*
G04 #@! TA.AperFunction,SMDPad,CuDef*
%ADD27R,0.750000X0.300000*%
G04 #@! TD*
G04 #@! TA.AperFunction,SMDPad,CuDef*
%ADD28R,0.300000X1.700000*%
G04 #@! TD*
G04 #@! TA.AperFunction,ViaPad*
%ADD29C,0.500000*%
G04 #@! TD*
G04 #@! TA.AperFunction,Conductor*
%ADD30C,0.127000*%
G04 #@! TD*
G04 #@! TA.AperFunction,Conductor*
%ADD31C,0.300000*%
G04 #@! TD*
G04 #@! TA.AperFunction,Conductor*
%ADD32C,0.200000*%
G04 #@! TD*
G04 #@! TA.AperFunction,Conductor*
%ADD33C,0.500000*%
G04 #@! TD*
G04 APERTURE END LIST*
D10*
X108075000Y-31250000D03*
X100925000Y-31250000D03*
D11*
X79050000Y-39175000D03*
D12*
X76510000Y-39175000D03*
D13*
X105250000Y-91200000D03*
D14*
X87600000Y-39225000D03*
X87600000Y-37575000D03*
X107350000Y-39275000D03*
X107350000Y-37625000D03*
D15*
X106000000Y-88700000D03*
D16*
X106700000Y-32075000D03*
X106700000Y-33725000D03*
D17*
X95100000Y-31425000D03*
X95100000Y-32975000D03*
D14*
X101850000Y-39275000D03*
X101850000Y-37625000D03*
X102950000Y-39275000D03*
X102950000Y-37625000D03*
D15*
X106000000Y-77300000D03*
X104550000Y-54500000D03*
D13*
X84750000Y-85500000D03*
D18*
X94875000Y-34700000D03*
X96625000Y-34700000D03*
X96625000Y-36100000D03*
X94875000Y-36100000D03*
D19*
X91225000Y-33600000D03*
X89675000Y-33600000D03*
D20*
X84000000Y-71600000D03*
X103000000Y-88700000D03*
D14*
X84300000Y-39225000D03*
X84300000Y-37575000D03*
D13*
X84750000Y-68400000D03*
D17*
X85275000Y-34475000D03*
X85275000Y-36025000D03*
X96250000Y-31425000D03*
X96250000Y-32975000D03*
D20*
X87000000Y-48800000D03*
D14*
X105150000Y-39275000D03*
X105150000Y-37625000D03*
D21*
X98025000Y-30850000D03*
X99575000Y-30850000D03*
D22*
X81850000Y-33650000D03*
X83500000Y-33650000D03*
D19*
X83425000Y-34850000D03*
X81875000Y-34850000D03*
D13*
X84750000Y-91200000D03*
D20*
X82500000Y-48800000D03*
X107500000Y-77300000D03*
D13*
X105250000Y-85500000D03*
D23*
X98000000Y-36175000D03*
X98000000Y-34625000D03*
D13*
X105250000Y-62700000D03*
D20*
X84000000Y-83000000D03*
D14*
X106250000Y-39275000D03*
X106250000Y-37625000D03*
D13*
X105250000Y-48800000D03*
X105250000Y-74100000D03*
X105250000Y-43100000D03*
X84750000Y-57000000D03*
D24*
X103925000Y-30800000D03*
X102275000Y-30800000D03*
D20*
X82500000Y-83000000D03*
D13*
X84750000Y-74100000D03*
X84750000Y-88700000D03*
D15*
X104500000Y-77300000D03*
D20*
X84000000Y-60200000D03*
D21*
X81900000Y-32500000D03*
X83450000Y-32500000D03*
D13*
X105250000Y-51300000D03*
D14*
X90900000Y-39225000D03*
X90900000Y-37575000D03*
D20*
X87000000Y-71600000D03*
D13*
X84750000Y-77300000D03*
D20*
X84000000Y-48800000D03*
D13*
X105250000Y-45600000D03*
D14*
X85400000Y-39225000D03*
X85400000Y-37575000D03*
D16*
X105500000Y-32075000D03*
X105500000Y-33725000D03*
D13*
X105250000Y-57000000D03*
D20*
X85500000Y-60200000D03*
D24*
X83500000Y-31400000D03*
X81850000Y-31400000D03*
X104125000Y-33800000D03*
X102475000Y-33800000D03*
D15*
X104500000Y-65900000D03*
D21*
X96325000Y-39350000D03*
X97875000Y-39350000D03*
D20*
X103000000Y-65900000D03*
X107500000Y-65900000D03*
D14*
X100750000Y-39275000D03*
X100750000Y-37625000D03*
D13*
X105250000Y-71600000D03*
D20*
X85500000Y-83000000D03*
D22*
X95625000Y-38150000D03*
X97275000Y-38150000D03*
D25*
X111920000Y-31360000D03*
D26*
X111920000Y-33900000D03*
X111920000Y-36440000D03*
D13*
X84750000Y-54500000D03*
D24*
X104125000Y-32650000D03*
X102475000Y-32650000D03*
D20*
X82500000Y-71600000D03*
D27*
X88350000Y-32500000D03*
X88350000Y-32000000D03*
X88350000Y-31500000D03*
X88350000Y-31000000D03*
X91250000Y-31000000D03*
X91250000Y-31500000D03*
X91250000Y-32000000D03*
X91250000Y-32500000D03*
D28*
X89800000Y-31750000D03*
D24*
X106775000Y-30800000D03*
X105125000Y-30800000D03*
D14*
X83200000Y-39225000D03*
X83200000Y-37575000D03*
D11*
X107500000Y-35750000D03*
D12*
X104960000Y-35750000D03*
X102420000Y-35750000D03*
D14*
X104050000Y-39275000D03*
X104050000Y-37625000D03*
D15*
X104500000Y-88700000D03*
D16*
X87250000Y-34775000D03*
X87250000Y-36425000D03*
D13*
X105250000Y-68400000D03*
X84750000Y-43100000D03*
D19*
X90875000Y-36500000D03*
X89325000Y-36500000D03*
D13*
X84750000Y-79800000D03*
D15*
X106050000Y-54500000D03*
X106000000Y-65900000D03*
D14*
X99650000Y-39275000D03*
X99650000Y-37625000D03*
D25*
X78170000Y-31360000D03*
D26*
X78170000Y-33900000D03*
X78170000Y-36440000D03*
D13*
X84750000Y-45600000D03*
D21*
X98025000Y-32000000D03*
X99575000Y-32000000D03*
D14*
X86500000Y-39225000D03*
X86500000Y-37575000D03*
X89800000Y-39225000D03*
X89800000Y-37575000D03*
D17*
X93950000Y-31675000D03*
X93950000Y-33225000D03*
D20*
X85500000Y-71600000D03*
D17*
X93550000Y-34625000D03*
X93550000Y-36175000D03*
D14*
X88700000Y-39225000D03*
X88700000Y-37575000D03*
D13*
X105250000Y-60200000D03*
D22*
X81850000Y-36000000D03*
X83500000Y-36000000D03*
D20*
X82500000Y-60200000D03*
D13*
X105250000Y-79800000D03*
X84750000Y-65900000D03*
X84750000Y-51300000D03*
D23*
X99800000Y-35775000D03*
X99800000Y-34225000D03*
D20*
X103050000Y-54500000D03*
X87000000Y-83000000D03*
X107500000Y-88700000D03*
D19*
X94575000Y-38100000D03*
X93025000Y-38100000D03*
D20*
X87000000Y-60200000D03*
D19*
X91225000Y-34750000D03*
X89675000Y-34750000D03*
D20*
X103000000Y-77300000D03*
X107550000Y-54500000D03*
D13*
X84750000Y-62700000D03*
X105250000Y-83000000D03*
D20*
X85500000Y-48800000D03*
D29*
X94050000Y-37250000D03*
X93200000Y-33750000D03*
X86200000Y-30750000D03*
X98700000Y-39550000D03*
X100550000Y-34550000D03*
X86200000Y-32900000D03*
X95100000Y-33800000D03*
X81123571Y-36510000D03*
X89700000Y-32850000D03*
X111500000Y-38750000D03*
X89250000Y-31000000D03*
X107800000Y-33000000D03*
X86200000Y-31800000D03*
X84250000Y-33450000D03*
X101488873Y-34540000D03*
X107800000Y-33950000D03*
X93986127Y-39006000D03*
X93250000Y-37250000D03*
X96100000Y-33800000D03*
X84250000Y-34050000D03*
X90048500Y-36381314D03*
X86200000Y-33850000D03*
X87150000Y-30750000D03*
X98950000Y-35800000D03*
X97200000Y-30600000D03*
X87150000Y-32900000D03*
X98700000Y-31400000D03*
X95167978Y-30602996D03*
X87150000Y-33850000D03*
X94950000Y-37240000D03*
X87150000Y-31800000D03*
X90500000Y-35750000D03*
X90450000Y-32050000D03*
X96550000Y-30600000D03*
X94541483Y-30599959D03*
X95550000Y-39001500D03*
X82600000Y-36300000D03*
X81048500Y-35000000D03*
X105800000Y-32940000D03*
X105150000Y-32940000D03*
X103910890Y-34990785D03*
X101061796Y-35796303D03*
X97386234Y-37196558D03*
X98761127Y-38344000D03*
X94923497Y-39001500D03*
X97113873Y-32836127D03*
X97150000Y-32200000D03*
X89250000Y-32350000D03*
X108600000Y-34500000D03*
X101200000Y-33000000D03*
X79600000Y-37800000D03*
X92150000Y-36800000D03*
X89250000Y-31650000D03*
X92861127Y-30538873D03*
X93487415Y-30555257D03*
X92950000Y-32126500D03*
X92200000Y-32150000D03*
X86950000Y-70150000D03*
X86950000Y-75600000D03*
X75850000Y-41000000D03*
X87000000Y-86950000D03*
X76150000Y-65350000D03*
X81800000Y-40450000D03*
X86950000Y-64200000D03*
X89950000Y-41800000D03*
X86950000Y-58650000D03*
X86950000Y-52850000D03*
X86950000Y-47150000D03*
X76500000Y-91500000D03*
X86950000Y-81600000D03*
X113500000Y-91500000D03*
X103100000Y-87200000D03*
X108300000Y-92200000D03*
X103050000Y-75850000D03*
X103050000Y-47050000D03*
X103050000Y-58400000D03*
X103050000Y-64400000D03*
X103050000Y-53000000D03*
X114100000Y-40400000D03*
X103050000Y-81250000D03*
X103050000Y-69900000D03*
X100300000Y-41300000D03*
X108850000Y-40450000D03*
X84000000Y-83000000D03*
X83200000Y-39950000D03*
X85500000Y-83000000D03*
X84300000Y-39950000D03*
X84000000Y-71600000D03*
X85400000Y-39950000D03*
X86500000Y-39950000D03*
X85500000Y-71600000D03*
X88700000Y-39950000D03*
X85500000Y-60200000D03*
X89800000Y-39950000D03*
X84000000Y-48800000D03*
X85500000Y-48750000D03*
X90900000Y-39950000D03*
X99650000Y-39950000D03*
X104550000Y-54500000D03*
X100750000Y-39950000D03*
X106050000Y-54500000D03*
X101850000Y-39950000D03*
X104500000Y-65900000D03*
X102950000Y-39950000D03*
X106000000Y-65900000D03*
X104050000Y-39950000D03*
X104500000Y-77300000D03*
X106000000Y-77300000D03*
X105150000Y-39950000D03*
X104500000Y-88700000D03*
X106250000Y-39950000D03*
X106000000Y-88700000D03*
X107350000Y-39950000D03*
X88350000Y-34600000D03*
X80250000Y-37600000D03*
X111550000Y-38100000D03*
X97043357Y-33458648D03*
X84000000Y-60200000D03*
X87600000Y-39950000D03*
D30*
X94050000Y-37250000D02*
X94050000Y-37050000D01*
X95650000Y-36800000D02*
X95750000Y-36700000D01*
X95750000Y-36700000D02*
X95750000Y-35575000D01*
X94300000Y-36800000D02*
X95650000Y-36800000D01*
X94875000Y-34700000D02*
X93625000Y-34700000D01*
X94050000Y-37050000D02*
X94300000Y-36800000D01*
X95750000Y-35575000D02*
X94875000Y-34700000D01*
X93625000Y-34700000D02*
X93550000Y-34625000D01*
D31*
X102275000Y-30900000D02*
X101275000Y-30900000D01*
D32*
X89250000Y-31000000D02*
X89600000Y-31000000D01*
D31*
X93250000Y-37250000D02*
X93250000Y-36475000D01*
X93250000Y-36475000D02*
X93550000Y-36175000D01*
X93250000Y-37975000D02*
X93025000Y-38200000D01*
X96625000Y-34325000D02*
X96625000Y-34700000D01*
D32*
X89600000Y-31000000D02*
X89800000Y-31200000D01*
D33*
X89475000Y-36500000D02*
X89475000Y-34950000D01*
D31*
X93831000Y-39006000D02*
X93025000Y-38200000D01*
X94850000Y-33225000D02*
X95100000Y-32975000D01*
D32*
X89800000Y-31750000D02*
X89800000Y-32750000D01*
D31*
X100175000Y-32000000D02*
X100925000Y-31250000D01*
D32*
X89800000Y-32750000D02*
X89700000Y-32850000D01*
D31*
X99575000Y-32000000D02*
X100175000Y-32000000D01*
X95100000Y-33800000D02*
X95100000Y-32975000D01*
X93625000Y-36100000D02*
X93550000Y-36175000D01*
X100125000Y-34550000D02*
X99800000Y-34225000D01*
X101275000Y-30900000D02*
X100925000Y-31250000D01*
D32*
X89443686Y-36381314D02*
X90048500Y-36381314D01*
D31*
X93950000Y-33225000D02*
X94850000Y-33225000D01*
X96625000Y-34700000D02*
X97925000Y-34700000D01*
X93200000Y-33750000D02*
X93425000Y-33750000D01*
X93986127Y-39006000D02*
X93831000Y-39006000D01*
D32*
X89325000Y-36500000D02*
X89443686Y-36381314D01*
D31*
X99575000Y-30850000D02*
X99575000Y-32000000D01*
X96250000Y-33650000D02*
X96250000Y-32975000D01*
X99400000Y-34625000D02*
X99800000Y-34225000D01*
D32*
X89800000Y-31200000D02*
X89800000Y-31750000D01*
D33*
X89700000Y-32850000D02*
X89700000Y-34725000D01*
D31*
X95100000Y-32975000D02*
X96250000Y-32975000D01*
D32*
X88350000Y-31000000D02*
X89250000Y-31000000D01*
D30*
X83500000Y-33650000D02*
X83850000Y-33650000D01*
D33*
X89475000Y-34950000D02*
X89675000Y-34750000D01*
D31*
X96100000Y-33800000D02*
X96625000Y-34325000D01*
X97925000Y-34700000D02*
X98000000Y-34625000D01*
D30*
X83850000Y-33650000D02*
X84250000Y-34050000D01*
D32*
X98500000Y-39350000D02*
X98700000Y-39550000D01*
D31*
X93425000Y-33750000D02*
X93950000Y-33225000D01*
X96100000Y-33800000D02*
X96250000Y-33650000D01*
D33*
X89700000Y-34725000D02*
X89675000Y-34750000D01*
D31*
X98000000Y-34625000D02*
X99400000Y-34625000D01*
X94875000Y-36100000D02*
X93625000Y-36100000D01*
D32*
X97875000Y-39350000D02*
X98500000Y-39350000D01*
D31*
X100550000Y-34550000D02*
X100125000Y-34550000D01*
X93250000Y-37250000D02*
X93250000Y-37975000D01*
D30*
X96625000Y-36100000D02*
X97925000Y-36100000D01*
X97275000Y-38150000D02*
X96625000Y-37500000D01*
X97925000Y-36100000D02*
X98000000Y-36175000D01*
X96625000Y-37500000D02*
X96625000Y-36100000D01*
D33*
X91225000Y-32975000D02*
X91225000Y-33600000D01*
D32*
X86600000Y-31250000D02*
X83650000Y-31250000D01*
D31*
X98950000Y-35800000D02*
X99775000Y-35800000D01*
D33*
X95168483Y-31356517D02*
X95168483Y-30602996D01*
D31*
X99775000Y-35800000D02*
X99800000Y-35775000D01*
D32*
X94950000Y-37825000D02*
X94575000Y-38200000D01*
D33*
X97200000Y-30600000D02*
X97775000Y-30600000D01*
X90700000Y-32750000D02*
X91000000Y-32750000D01*
X95100000Y-31425000D02*
X95168483Y-31356517D01*
X97775000Y-30600000D02*
X98025000Y-30850000D01*
X90500000Y-35750000D02*
X90700000Y-35750000D01*
X91225000Y-34750000D02*
X91225000Y-33600000D01*
X91225000Y-35225000D02*
X91225000Y-34750000D01*
X91025000Y-36500000D02*
X91025000Y-36275000D01*
D32*
X83650000Y-31250000D02*
X83500000Y-31400000D01*
D33*
X90450000Y-32500000D02*
X90700000Y-32750000D01*
D32*
X83450000Y-31450000D02*
X83500000Y-31400000D01*
D33*
X91000000Y-32750000D02*
X91225000Y-32975000D01*
D32*
X87150000Y-31800000D02*
X86600000Y-31250000D01*
D33*
X90700000Y-35750000D02*
X91225000Y-35225000D01*
D32*
X94950000Y-37240000D02*
X94950000Y-37825000D01*
D33*
X91025000Y-36275000D02*
X90500000Y-35750000D01*
D32*
X83450000Y-32500000D02*
X83450000Y-31450000D01*
X91250000Y-32500000D02*
X90450000Y-32500000D01*
X91000000Y-32750000D02*
X91250000Y-32500000D01*
D33*
X98025000Y-32000000D02*
X98025000Y-30850000D01*
X90450000Y-32050000D02*
X90450000Y-32500000D01*
D32*
X83500000Y-36000000D02*
X85250000Y-36000000D01*
X85250000Y-36000000D02*
X85275000Y-36025000D01*
D31*
X94550000Y-32150000D02*
X94552000Y-32152000D01*
D30*
X96026500Y-39001500D02*
X96225000Y-39200000D01*
D31*
X94552000Y-32152000D02*
X95998000Y-32152000D01*
X92250000Y-38609935D02*
X93280565Y-39640500D01*
X95550000Y-39350000D02*
X95550000Y-39001500D01*
X93280565Y-39640500D02*
X95259500Y-39640500D01*
D30*
X95550000Y-39001500D02*
X96026500Y-39001500D01*
D31*
X92673000Y-33302000D02*
X92673000Y-36577709D01*
X95976500Y-39001500D02*
X96325000Y-39350000D01*
X95550000Y-39001500D02*
X95976500Y-39001500D01*
X95998000Y-32152000D02*
X96250000Y-31900000D01*
X92677000Y-37123000D02*
X92250000Y-37550000D01*
X95259500Y-39640500D02*
X95550000Y-39350000D01*
D33*
X93950000Y-31191442D02*
X94541483Y-30599959D01*
X93950000Y-31425000D02*
X93950000Y-31191442D01*
D31*
X96250000Y-31900000D02*
X96250000Y-31425000D01*
D33*
X96550000Y-31125000D02*
X96250000Y-31425000D01*
X96550000Y-30600000D02*
X96550000Y-31125000D01*
D31*
X92250000Y-37550000D02*
X92250000Y-38609935D01*
X92677000Y-36581709D02*
X92677000Y-37123000D01*
X92673000Y-36577709D02*
X92677000Y-36581709D01*
X94200000Y-32150000D02*
X94550000Y-32150000D01*
X93950000Y-31900000D02*
X94200000Y-32150000D01*
X93950000Y-31425000D02*
X93950000Y-31900000D01*
X94000000Y-31975000D02*
X92673000Y-33302000D01*
D32*
X82300000Y-36000000D02*
X81850000Y-36000000D01*
X81875000Y-35975000D02*
X81850000Y-36000000D01*
X81875000Y-34850000D02*
X81875000Y-35975000D01*
X82600000Y-36300000D02*
X82300000Y-36000000D01*
X81048500Y-35000000D02*
X81050000Y-34998500D01*
X81050000Y-34998500D02*
X81050000Y-34450000D01*
X81850000Y-31400000D02*
X81850000Y-33650000D01*
X81050000Y-34450000D02*
X81850000Y-33650000D01*
D31*
X105500000Y-32075000D02*
X106700000Y-32075000D01*
X105800000Y-32940000D02*
X105800000Y-32375000D01*
X106700000Y-32075000D02*
X106700000Y-30875000D01*
X105800000Y-32940000D02*
X105800000Y-32475000D01*
X106700000Y-30875000D02*
X106775000Y-30800000D01*
X105800000Y-32375000D02*
X105500000Y-32075000D01*
D30*
X104165000Y-32940000D02*
X103875000Y-32650000D01*
X105150000Y-32940000D02*
X104165000Y-32940000D01*
X103910890Y-34990785D02*
X103910890Y-33835890D01*
X97386234Y-37196558D02*
X98453442Y-37196558D01*
X98996000Y-36654000D02*
X98996000Y-36646000D01*
X100454000Y-36646000D02*
X101061796Y-36038204D01*
X98996000Y-36646000D02*
X100454000Y-36646000D01*
X101061796Y-36038204D02*
X101061796Y-35796303D01*
X98453442Y-37196558D02*
X98996000Y-36654000D01*
X98761127Y-37388873D02*
X98761127Y-38344000D01*
X99250000Y-36900000D02*
X98761127Y-37388873D01*
X102420000Y-35750000D02*
X101270000Y-36900000D01*
X101270000Y-36900000D02*
X99250000Y-36900000D01*
X94923497Y-39001500D02*
X95475000Y-38449997D01*
X97113873Y-32836127D02*
X97376917Y-32836127D01*
X100940790Y-33800000D02*
X102225000Y-33800000D01*
X100390790Y-33250000D02*
X100940790Y-33800000D01*
X97790790Y-33250000D02*
X100390790Y-33250000D01*
X97376917Y-32836127D02*
X97790790Y-33250000D01*
X100496000Y-32996000D02*
X101000000Y-33500000D01*
X97946000Y-32996000D02*
X100496000Y-32996000D01*
X102172962Y-32650000D02*
X102225000Y-32650000D01*
X101000000Y-33500000D02*
X101322962Y-33500000D01*
X97150000Y-32200000D02*
X97946000Y-32996000D01*
X101322962Y-33500000D02*
X102172962Y-32650000D01*
X88350000Y-32500000D02*
X88350000Y-33675000D01*
X89000000Y-32600000D02*
X88350000Y-32600000D01*
X89250000Y-32350000D02*
X89000000Y-32600000D01*
X88350000Y-33675000D02*
X87250000Y-34775000D01*
D31*
X106700000Y-34000000D02*
X107000000Y-34300000D01*
X105500000Y-33725000D02*
X106700000Y-33725000D01*
X106700000Y-33725000D02*
X106700000Y-34000000D01*
X107177000Y-34477000D02*
X108000000Y-34477000D01*
X107000000Y-34300000D02*
X107177000Y-34477000D01*
X108577000Y-34477000D02*
X108600000Y-34500000D01*
X108000000Y-34477000D02*
X108577000Y-34477000D01*
D30*
X101200000Y-33000000D02*
X101200000Y-32500000D01*
X102840500Y-31984500D02*
X103925000Y-30900000D01*
D31*
X105125000Y-30900000D02*
X103925000Y-30900000D01*
D30*
X101200000Y-32500000D02*
X101715500Y-31984500D01*
X101715500Y-31984500D02*
X102840500Y-31984500D01*
X80406000Y-38450000D02*
X79756000Y-37800000D01*
X91900000Y-37050000D02*
X91900000Y-37652250D01*
X79756000Y-37800000D02*
X79600000Y-37800000D01*
X92150000Y-36800000D02*
X91900000Y-37050000D01*
X91900000Y-37652250D02*
X91102250Y-38450000D01*
X91102250Y-38450000D02*
X80406000Y-38450000D01*
X88800000Y-32100000D02*
X88350000Y-32100000D01*
X89250000Y-31650000D02*
X88800000Y-32100000D01*
X87911127Y-30538873D02*
X92861127Y-30538873D01*
X88350000Y-31600000D02*
X87944000Y-31600000D01*
X87750000Y-30700000D02*
X87911127Y-30538873D01*
X87750000Y-31406000D02*
X87750000Y-30700000D01*
X87944000Y-31600000D02*
X87750000Y-31406000D01*
X93150000Y-31100000D02*
X91450000Y-31100000D01*
X91450000Y-31100000D02*
X91350000Y-31000000D01*
X93487415Y-30762585D02*
X93150000Y-31100000D01*
X93487415Y-30555257D02*
X93487415Y-30762585D01*
X92950000Y-32126500D02*
X92323500Y-31500000D01*
X92323500Y-31500000D02*
X91350000Y-31500000D01*
X92200000Y-32150000D02*
X92200000Y-31999462D01*
X92200000Y-31999462D02*
X92150538Y-31950000D01*
X92150538Y-31950000D02*
X91400000Y-31950000D01*
X79700000Y-36950000D02*
X79050000Y-37600000D01*
X79050000Y-37600000D02*
X79050000Y-39175000D01*
X87250000Y-36425000D02*
X86725000Y-36950000D01*
X86725000Y-36950000D02*
X79700000Y-36950000D01*
X83200000Y-39275000D02*
X83200000Y-39950000D01*
X84300000Y-39275000D02*
X84300000Y-39950000D01*
X85400000Y-39275000D02*
X85400000Y-39950000D01*
X86500000Y-39275000D02*
X86500000Y-39950000D01*
X88700000Y-39275000D02*
X88700000Y-39950000D01*
X89800000Y-39275000D02*
X89800000Y-39950000D01*
X90900000Y-39275000D02*
X90900000Y-39950000D01*
X99650000Y-39950000D02*
X99650000Y-39275000D01*
X100750000Y-39275000D02*
X100750000Y-39950000D01*
X101850000Y-39275000D02*
X101850000Y-39950000D01*
X102950000Y-39275000D02*
X102950000Y-39950000D01*
X104050000Y-39275000D02*
X104050000Y-39950000D01*
X105150000Y-39275000D02*
X105150000Y-39950000D01*
X106250000Y-39275000D02*
X106250000Y-39950000D01*
X107350000Y-39275000D02*
X107350000Y-39950000D01*
D33*
X88350000Y-37275000D02*
X88700000Y-37625000D01*
X90875000Y-37600000D02*
X90900000Y-37625000D01*
X80250000Y-37600000D02*
X90875000Y-37600000D01*
D30*
X88125000Y-37625000D02*
X90900000Y-37625000D01*
D33*
X88350000Y-34600000D02*
X88350000Y-37275000D01*
D30*
X81000000Y-37625000D02*
X88125000Y-37625000D01*
D33*
X111550000Y-38100000D02*
X110025000Y-38100000D01*
D30*
X101700000Y-34100000D02*
X102100000Y-34500000D01*
X100850000Y-34100000D02*
X101700000Y-34100000D01*
X109550000Y-37575000D02*
X99650000Y-37575000D01*
D33*
X109550000Y-37625000D02*
X99650000Y-37625000D01*
D30*
X103575000Y-35275000D02*
X103575000Y-37575000D01*
X100725000Y-33975000D02*
X100850000Y-34100000D01*
X102100000Y-34500000D02*
X102800000Y-34500000D01*
X97043357Y-33458648D02*
X97088709Y-33504000D01*
X100254000Y-33504000D02*
X100725000Y-33975000D01*
X102800000Y-34500000D02*
X103575000Y-35275000D01*
X97088709Y-33504000D02*
X100254000Y-33504000D01*
D33*
X110025000Y-38100000D02*
X109550000Y-37625000D01*
D30*
X87600000Y-39275000D02*
X87600000Y-39950000D01*
G04 #@! TA.AperFunction,Conductor*
G36*
X114441621Y-40070002D02*
G01*
X114488114Y-40123658D01*
X114499500Y-40176000D01*
X114499500Y-90951259D01*
X114498000Y-90970643D01*
X114494391Y-90993823D01*
X114495555Y-91002725D01*
X114495555Y-91002727D01*
X114496328Y-91008635D01*
X114497071Y-91033959D01*
X114494398Y-91071329D01*
X114484880Y-91204410D01*
X114482322Y-91222204D01*
X114459526Y-91327000D01*
X114440676Y-91413652D01*
X114435610Y-91430902D01*
X114367140Y-91614474D01*
X114359673Y-91630826D01*
X114265778Y-91802783D01*
X114256058Y-91817907D01*
X114138644Y-91974753D01*
X114126871Y-91988339D01*
X113988339Y-92126871D01*
X113974753Y-92138644D01*
X113817907Y-92256058D01*
X113802783Y-92265778D01*
X113630826Y-92359673D01*
X113614474Y-92367140D01*
X113430902Y-92435610D01*
X113413657Y-92440674D01*
X113243073Y-92477782D01*
X113222204Y-92482322D01*
X113204410Y-92484880D01*
X113180663Y-92486578D01*
X113040967Y-92496570D01*
X113024022Y-92495865D01*
X113024022Y-92495882D01*
X113015049Y-92495772D01*
X113006177Y-92494391D01*
X112997275Y-92495555D01*
X112997272Y-92495555D01*
X112975244Y-92498436D01*
X112958907Y-92499500D01*
X102876000Y-92499500D01*
X102807879Y-92479498D01*
X102761386Y-92425842D01*
X102750000Y-92373500D01*
X102750000Y-92080000D01*
X102770002Y-92011879D01*
X102823658Y-91965386D01*
X102876000Y-91954000D01*
X105104885Y-91954000D01*
X105120124Y-91949525D01*
X105121329Y-91948135D01*
X105123000Y-91940452D01*
X105123000Y-91935885D01*
X105377000Y-91935885D01*
X105381475Y-91951124D01*
X105382865Y-91952329D01*
X105390548Y-91954000D01*
X107656320Y-91954000D01*
X107665481Y-91953330D01*
X107725731Y-91944461D01*
X107744205Y-91938720D01*
X107839328Y-91892017D01*
X107856033Y-91880057D01*
X107930459Y-91805501D01*
X107942391Y-91788773D01*
X107988931Y-91693561D01*
X107994639Y-91675094D01*
X108003340Y-91615453D01*
X108004000Y-91606353D01*
X108004000Y-91345115D01*
X107999525Y-91329876D01*
X107998135Y-91328671D01*
X107990452Y-91327000D01*
X105395115Y-91327000D01*
X105379876Y-91331475D01*
X105378671Y-91332865D01*
X105377000Y-91340548D01*
X105377000Y-91935885D01*
X105123000Y-91935885D01*
X105123000Y-91054885D01*
X105377000Y-91054885D01*
X105381475Y-91070124D01*
X105382865Y-91071329D01*
X105390548Y-91073000D01*
X107985885Y-91073000D01*
X108001124Y-91068525D01*
X108002329Y-91067135D01*
X108004000Y-91059452D01*
X108004000Y-90793680D01*
X108003330Y-90784519D01*
X107994461Y-90724269D01*
X107988720Y-90705795D01*
X107942017Y-90610672D01*
X107930057Y-90593967D01*
X107855501Y-90519541D01*
X107838773Y-90507609D01*
X107743561Y-90461069D01*
X107725094Y-90455361D01*
X107665453Y-90446660D01*
X107656353Y-90446000D01*
X105395115Y-90446000D01*
X105379876Y-90450475D01*
X105378671Y-90451865D01*
X105377000Y-90459548D01*
X105377000Y-91054885D01*
X105123000Y-91054885D01*
X105123000Y-90464115D01*
X105118525Y-90448876D01*
X105117135Y-90447671D01*
X105109452Y-90446000D01*
X102876000Y-90446000D01*
X102807879Y-90425998D01*
X102761386Y-90372342D01*
X102750000Y-90320000D01*
X102750000Y-89579119D01*
X102770002Y-89510998D01*
X102823658Y-89464505D01*
X102840502Y-89458223D01*
X102870124Y-89449525D01*
X102871329Y-89448135D01*
X102873000Y-89440452D01*
X102873000Y-89435885D01*
X103127000Y-89435885D01*
X103131475Y-89451124D01*
X103132865Y-89452329D01*
X103140548Y-89454000D01*
X103156320Y-89454000D01*
X103165481Y-89453330D01*
X103225731Y-89444461D01*
X103244205Y-89438720D01*
X103339328Y-89392017D01*
X103356033Y-89380057D01*
X103430459Y-89305501D01*
X103442391Y-89288773D01*
X103488931Y-89193561D01*
X103494639Y-89175093D01*
X103499920Y-89138894D01*
X103529546Y-89074374D01*
X103589351Y-89036113D01*
X103660347Y-89036259D01*
X103719994Y-89074766D01*
X103749354Y-89139407D01*
X103750212Y-89147200D01*
X103752291Y-89173627D01*
X103754086Y-89179804D01*
X103754087Y-89179810D01*
X103792519Y-89312095D01*
X103796382Y-89325390D01*
X103810996Y-89350101D01*
X103872792Y-89454593D01*
X103872794Y-89454596D01*
X103876830Y-89461420D01*
X103988580Y-89573170D01*
X103995404Y-89577206D01*
X103995407Y-89577208D01*
X104081147Y-89627914D01*
X104124610Y-89653618D01*
X104132221Y-89655829D01*
X104132223Y-89655830D01*
X104180743Y-89669926D01*
X104276373Y-89697709D01*
X104297674Y-89699385D01*
X104309380Y-89700307D01*
X104309389Y-89700307D01*
X104311837Y-89700500D01*
X104499847Y-89700500D01*
X104688162Y-89700499D01*
X104706854Y-89699028D01*
X104717209Y-89698214D01*
X104717210Y-89698214D01*
X104723627Y-89697709D01*
X104729807Y-89695914D01*
X104729810Y-89695913D01*
X104867777Y-89655830D01*
X104867779Y-89655829D01*
X104875390Y-89653618D01*
X104918853Y-89627914D01*
X105004593Y-89577208D01*
X105004596Y-89577206D01*
X105011420Y-89573170D01*
X105123170Y-89461420D01*
X105141549Y-89430344D01*
X105193439Y-89381893D01*
X105263290Y-89369188D01*
X105328921Y-89396263D01*
X105358450Y-89430342D01*
X105376830Y-89461420D01*
X105488580Y-89573170D01*
X105495404Y-89577206D01*
X105495407Y-89577208D01*
X105581147Y-89627914D01*
X105624610Y-89653618D01*
X105632221Y-89655829D01*
X105632223Y-89655830D01*
X105680743Y-89669926D01*
X105776373Y-89697709D01*
X105797674Y-89699385D01*
X105809380Y-89700307D01*
X105809389Y-89700307D01*
X105811837Y-89700500D01*
X105999847Y-89700500D01*
X106188162Y-89700499D01*
X106206854Y-89699028D01*
X106217209Y-89698214D01*
X106217210Y-89698214D01*
X106223627Y-89697709D01*
X106229807Y-89695914D01*
X106229810Y-89695913D01*
X106367777Y-89655830D01*
X106367779Y-89655829D01*
X106375390Y-89653618D01*
X106411606Y-89632200D01*
X109398747Y-89632200D01*
X109399306Y-89636444D01*
X109399306Y-89636448D01*
X109407739Y-89700500D01*
X109436129Y-89916149D01*
X109511702Y-90192398D01*
X109513386Y-90196346D01*
X109622375Y-90451865D01*
X109624068Y-90455835D01*
X109771146Y-90701585D01*
X109773830Y-90704936D01*
X109773832Y-90704938D01*
X109844928Y-90793680D01*
X109950215Y-90925100D01*
X110157962Y-91122245D01*
X110390543Y-91289371D01*
X110643653Y-91423386D01*
X110912610Y-91521810D01*
X111192436Y-91582822D01*
X111231901Y-91585928D01*
X111414597Y-91600307D01*
X111414604Y-91600307D01*
X111417053Y-91600500D01*
X111571992Y-91600500D01*
X111574128Y-91600354D01*
X111574139Y-91600354D01*
X111781460Y-91586220D01*
X111781466Y-91586219D01*
X111785737Y-91585928D01*
X111789932Y-91585059D01*
X111789934Y-91585059D01*
X111925962Y-91556889D01*
X112066186Y-91527850D01*
X112336158Y-91432248D01*
X112528709Y-91332865D01*
X112586851Y-91302856D01*
X112586852Y-91302856D01*
X112590658Y-91300891D01*
X112594159Y-91298430D01*
X112594163Y-91298428D01*
X112821471Y-91138673D01*
X112821477Y-91138668D01*
X112824976Y-91136209D01*
X112968620Y-91002727D01*
X113031633Y-90944172D01*
X113031636Y-90944169D01*
X113034776Y-90941251D01*
X113045575Y-90928058D01*
X113213461Y-90722941D01*
X113216177Y-90719623D01*
X113365820Y-90475427D01*
X113372123Y-90461069D01*
X113479214Y-90217110D01*
X113479215Y-90217106D01*
X113480938Y-90213182D01*
X113559400Y-89937739D01*
X113593164Y-89700499D01*
X113599149Y-89658448D01*
X113599149Y-89658446D01*
X113599754Y-89654196D01*
X113600926Y-89430346D01*
X113601231Y-89372086D01*
X113601231Y-89372080D01*
X113601253Y-89367800D01*
X113597798Y-89341552D01*
X113571117Y-89138894D01*
X113563871Y-89083851D01*
X113561279Y-89074374D01*
X113494062Y-88828671D01*
X113488298Y-88807602D01*
X113458244Y-88737141D01*
X113377618Y-88548117D01*
X113377616Y-88548113D01*
X113375932Y-88544165D01*
X113228854Y-88298415D01*
X113199551Y-88261838D01*
X113065487Y-88094499D01*
X113049785Y-88074900D01*
X112842038Y-87877755D01*
X112609457Y-87710629D01*
X112356347Y-87576614D01*
X112087390Y-87478190D01*
X111807564Y-87417178D01*
X111764389Y-87413780D01*
X111585403Y-87399693D01*
X111585396Y-87399693D01*
X111582947Y-87399500D01*
X111428008Y-87399500D01*
X111425872Y-87399646D01*
X111425861Y-87399646D01*
X111218540Y-87413780D01*
X111218534Y-87413781D01*
X111214263Y-87414072D01*
X111210068Y-87414941D01*
X111210066Y-87414941D01*
X111074039Y-87443111D01*
X110933814Y-87472150D01*
X110663842Y-87567752D01*
X110409342Y-87699109D01*
X110405841Y-87701570D01*
X110405837Y-87701572D01*
X110178529Y-87861327D01*
X110178523Y-87861332D01*
X110175024Y-87863791D01*
X109965224Y-88058749D01*
X109962510Y-88062065D01*
X109962507Y-88062068D01*
X109850362Y-88199083D01*
X109783823Y-88280377D01*
X109634180Y-88524573D01*
X109632453Y-88528507D01*
X109632452Y-88528509D01*
X109534000Y-88752789D01*
X109519062Y-88786818D01*
X109440600Y-89062261D01*
X109400246Y-89345804D01*
X109399683Y-89453330D01*
X109399002Y-89583553D01*
X109398747Y-89632200D01*
X106411606Y-89632200D01*
X106418853Y-89627914D01*
X106504593Y-89577208D01*
X106504596Y-89577206D01*
X106511420Y-89573170D01*
X106623170Y-89461420D01*
X106627206Y-89454596D01*
X106627208Y-89454593D01*
X106689004Y-89350101D01*
X106703618Y-89325390D01*
X106709115Y-89306471D01*
X106736076Y-89213669D01*
X106747709Y-89173627D01*
X106748215Y-89167209D01*
X106749801Y-89147043D01*
X106775085Y-89080701D01*
X106832223Y-89038561D01*
X106903073Y-89034000D01*
X106965141Y-89068469D01*
X106998721Y-89131022D01*
X107000070Y-89138577D01*
X107005539Y-89175731D01*
X107011280Y-89194205D01*
X107057983Y-89289328D01*
X107069943Y-89306033D01*
X107144499Y-89380459D01*
X107161227Y-89392391D01*
X107256439Y-89438931D01*
X107274906Y-89444639D01*
X107334547Y-89453340D01*
X107343647Y-89454000D01*
X107354885Y-89454000D01*
X107370124Y-89449525D01*
X107371329Y-89448135D01*
X107373000Y-89440452D01*
X107373000Y-89435885D01*
X107627000Y-89435885D01*
X107631475Y-89451124D01*
X107632865Y-89452329D01*
X107640548Y-89454000D01*
X107656320Y-89454000D01*
X107665481Y-89453330D01*
X107725731Y-89444461D01*
X107744205Y-89438720D01*
X107839328Y-89392017D01*
X107856033Y-89380057D01*
X107930459Y-89305501D01*
X107942391Y-89288773D01*
X107988931Y-89193561D01*
X107994639Y-89175094D01*
X108003340Y-89115453D01*
X108004000Y-89106353D01*
X108004000Y-88845115D01*
X107999525Y-88829876D01*
X107998135Y-88828671D01*
X107990452Y-88827000D01*
X107645115Y-88827000D01*
X107629876Y-88831475D01*
X107628671Y-88832865D01*
X107627000Y-88840548D01*
X107627000Y-89435885D01*
X107373000Y-89435885D01*
X107373000Y-88554885D01*
X107627000Y-88554885D01*
X107631475Y-88570124D01*
X107632865Y-88571329D01*
X107640548Y-88573000D01*
X107985885Y-88573000D01*
X108001124Y-88568525D01*
X108002329Y-88567135D01*
X108004000Y-88559452D01*
X108004000Y-88293680D01*
X108003330Y-88284519D01*
X107994461Y-88224269D01*
X107988720Y-88205795D01*
X107942017Y-88110672D01*
X107930057Y-88093967D01*
X107855501Y-88019541D01*
X107838773Y-88007609D01*
X107743561Y-87961069D01*
X107725094Y-87955361D01*
X107665453Y-87946660D01*
X107656353Y-87946000D01*
X107645115Y-87946000D01*
X107629876Y-87950475D01*
X107628671Y-87951865D01*
X107627000Y-87959548D01*
X107627000Y-88554885D01*
X107373000Y-88554885D01*
X107373000Y-87964115D01*
X107368525Y-87948876D01*
X107367135Y-87947671D01*
X107359452Y-87946000D01*
X107343680Y-87946000D01*
X107334519Y-87946670D01*
X107274269Y-87955539D01*
X107255795Y-87961280D01*
X107160672Y-88007983D01*
X107143967Y-88019943D01*
X107069541Y-88094499D01*
X107057609Y-88111227D01*
X107011069Y-88206439D01*
X107005361Y-88224907D01*
X107000080Y-88261106D01*
X106970454Y-88325626D01*
X106910649Y-88363887D01*
X106839653Y-88363741D01*
X106780006Y-88325234D01*
X106750646Y-88260593D01*
X106749788Y-88252800D01*
X106748214Y-88232791D01*
X106748213Y-88232784D01*
X106747709Y-88226373D01*
X106703618Y-88074610D01*
X106663994Y-88007609D01*
X106627208Y-87945407D01*
X106627206Y-87945404D01*
X106623170Y-87938580D01*
X106511420Y-87826830D01*
X106504596Y-87822794D01*
X106504593Y-87822792D01*
X106382216Y-87750419D01*
X106382217Y-87750419D01*
X106375390Y-87746382D01*
X106367779Y-87744171D01*
X106367777Y-87744170D01*
X106319257Y-87730074D01*
X106223627Y-87702291D01*
X106202326Y-87700615D01*
X106190620Y-87699693D01*
X106190611Y-87699693D01*
X106188163Y-87699500D01*
X106000153Y-87699500D01*
X105811838Y-87699501D01*
X105793146Y-87700972D01*
X105782791Y-87701786D01*
X105782790Y-87701786D01*
X105776373Y-87702291D01*
X105770193Y-87704086D01*
X105770190Y-87704087D01*
X105632223Y-87744170D01*
X105632221Y-87744171D01*
X105624610Y-87746382D01*
X105617783Y-87750419D01*
X105617784Y-87750419D01*
X105495407Y-87822792D01*
X105495404Y-87822794D01*
X105488580Y-87826830D01*
X105376830Y-87938580D01*
X105358451Y-87969656D01*
X105306561Y-88018107D01*
X105236710Y-88030812D01*
X105171079Y-88003737D01*
X105141550Y-87969658D01*
X105123170Y-87938580D01*
X105011420Y-87826830D01*
X105004596Y-87822794D01*
X105004593Y-87822792D01*
X104882216Y-87750419D01*
X104882217Y-87750419D01*
X104875390Y-87746382D01*
X104867779Y-87744171D01*
X104867777Y-87744170D01*
X104819257Y-87730074D01*
X104723627Y-87702291D01*
X104702326Y-87700615D01*
X104690620Y-87699693D01*
X104690611Y-87699693D01*
X104688163Y-87699500D01*
X104500153Y-87699500D01*
X104311838Y-87699501D01*
X104293146Y-87700972D01*
X104282791Y-87701786D01*
X104282790Y-87701786D01*
X104276373Y-87702291D01*
X104270193Y-87704086D01*
X104270190Y-87704087D01*
X104132223Y-87744170D01*
X104132221Y-87744171D01*
X104124610Y-87746382D01*
X104117783Y-87750419D01*
X104117784Y-87750419D01*
X103995407Y-87822792D01*
X103995404Y-87822794D01*
X103988580Y-87826830D01*
X103876830Y-87938580D01*
X103872794Y-87945404D01*
X103872792Y-87945407D01*
X103836006Y-88007609D01*
X103796382Y-88074610D01*
X103752291Y-88226373D01*
X103751787Y-88232780D01*
X103751786Y-88232784D01*
X103750199Y-88252957D01*
X103724915Y-88319299D01*
X103667777Y-88361439D01*
X103596927Y-88366000D01*
X103534859Y-88331531D01*
X103501279Y-88268978D01*
X103499930Y-88261423D01*
X103494461Y-88224269D01*
X103488720Y-88205795D01*
X103442017Y-88110672D01*
X103430057Y-88093967D01*
X103355501Y-88019541D01*
X103338773Y-88007609D01*
X103243561Y-87961069D01*
X103225094Y-87955361D01*
X103165453Y-87946660D01*
X103156353Y-87946000D01*
X103145115Y-87946000D01*
X103129876Y-87950475D01*
X103128671Y-87951865D01*
X103127000Y-87959548D01*
X103127000Y-89435885D01*
X102873000Y-89435885D01*
X102873000Y-87964115D01*
X102868525Y-87948876D01*
X102867135Y-87947671D01*
X102849218Y-87943774D01*
X102786906Y-87909750D01*
X102752880Y-87847438D01*
X102750000Y-87820653D01*
X102750000Y-86626500D01*
X102770002Y-86558379D01*
X102823658Y-86511886D01*
X102876000Y-86500500D01*
X107507192Y-86500499D01*
X107688162Y-86500499D01*
X107706854Y-86499028D01*
X107717209Y-86498214D01*
X107717210Y-86498214D01*
X107723627Y-86497709D01*
X107729807Y-86495914D01*
X107729810Y-86495913D01*
X107867777Y-86455830D01*
X107867779Y-86455829D01*
X107875390Y-86453618D01*
X107965208Y-86400500D01*
X108004593Y-86377208D01*
X108004596Y-86377206D01*
X108011420Y-86373170D01*
X108123170Y-86261420D01*
X108127206Y-86254596D01*
X108127208Y-86254593D01*
X108199581Y-86132216D01*
X108203618Y-86125390D01*
X108247709Y-85973627D01*
X108250500Y-85938163D01*
X108250499Y-85217791D01*
X108251782Y-85199859D01*
X108254858Y-85178463D01*
X108255500Y-85174000D01*
X108255500Y-83076000D01*
X108251222Y-83036205D01*
X108250500Y-83022737D01*
X108250499Y-82564311D01*
X108250499Y-82561838D01*
X108247709Y-82526373D01*
X108245041Y-82517187D01*
X108205830Y-82382223D01*
X108205829Y-82382221D01*
X108203618Y-82374610D01*
X108186862Y-82346277D01*
X108127208Y-82245407D01*
X108127206Y-82245404D01*
X108123170Y-82238580D01*
X108011420Y-82126830D01*
X108004596Y-82122794D01*
X108004593Y-82122792D01*
X107882216Y-82050419D01*
X107882217Y-82050419D01*
X107875390Y-82046382D01*
X107867779Y-82044171D01*
X107867777Y-82044170D01*
X107819257Y-82030074D01*
X107723627Y-82002291D01*
X107702326Y-82000615D01*
X107690620Y-81999693D01*
X107690611Y-81999693D01*
X107688163Y-81999500D01*
X107507472Y-81999500D01*
X102876000Y-81999501D01*
X102807879Y-81979499D01*
X102761386Y-81925843D01*
X102750000Y-81873501D01*
X102750000Y-80680000D01*
X102770002Y-80611879D01*
X102823658Y-80565386D01*
X102876000Y-80554000D01*
X105104885Y-80554000D01*
X105120124Y-80549525D01*
X105121329Y-80548135D01*
X105123000Y-80540452D01*
X105123000Y-80535885D01*
X105377000Y-80535885D01*
X105381475Y-80551124D01*
X105382865Y-80552329D01*
X105390548Y-80554000D01*
X107656320Y-80554000D01*
X107665481Y-80553330D01*
X107725731Y-80544461D01*
X107744205Y-80538720D01*
X107839328Y-80492017D01*
X107856033Y-80480057D01*
X107930459Y-80405501D01*
X107942391Y-80388773D01*
X107988931Y-80293561D01*
X107994639Y-80275094D01*
X108003340Y-80215453D01*
X108004000Y-80206353D01*
X108004000Y-79945115D01*
X107999525Y-79929876D01*
X107998135Y-79928671D01*
X107990452Y-79927000D01*
X105395115Y-79927000D01*
X105379876Y-79931475D01*
X105378671Y-79932865D01*
X105377000Y-79940548D01*
X105377000Y-80535885D01*
X105123000Y-80535885D01*
X105123000Y-79654885D01*
X105377000Y-79654885D01*
X105381475Y-79670124D01*
X105382865Y-79671329D01*
X105390548Y-79673000D01*
X107985885Y-79673000D01*
X108001124Y-79668525D01*
X108002329Y-79667135D01*
X108004000Y-79659452D01*
X108004000Y-79393680D01*
X108003330Y-79384519D01*
X107994461Y-79324269D01*
X107988720Y-79305795D01*
X107942017Y-79210672D01*
X107930057Y-79193967D01*
X107855501Y-79119541D01*
X107838773Y-79107609D01*
X107743561Y-79061069D01*
X107725094Y-79055361D01*
X107665453Y-79046660D01*
X107656353Y-79046000D01*
X105395115Y-79046000D01*
X105379876Y-79050475D01*
X105378671Y-79051865D01*
X105377000Y-79059548D01*
X105377000Y-79654885D01*
X105123000Y-79654885D01*
X105123000Y-79064115D01*
X105118525Y-79048876D01*
X105117135Y-79047671D01*
X105109452Y-79046000D01*
X102876000Y-79046000D01*
X102807879Y-79025998D01*
X102761386Y-78972342D01*
X102750000Y-78920000D01*
X102750000Y-78179119D01*
X102770002Y-78110998D01*
X102823658Y-78064505D01*
X102840502Y-78058223D01*
X102870124Y-78049525D01*
X102871329Y-78048135D01*
X102873000Y-78040452D01*
X102873000Y-78035885D01*
X103127000Y-78035885D01*
X103131475Y-78051124D01*
X103132865Y-78052329D01*
X103140548Y-78054000D01*
X103156320Y-78054000D01*
X103165481Y-78053330D01*
X103225731Y-78044461D01*
X103244205Y-78038720D01*
X103339328Y-77992017D01*
X103356033Y-77980057D01*
X103430459Y-77905501D01*
X103442391Y-77888773D01*
X103488931Y-77793561D01*
X103494639Y-77775093D01*
X103499920Y-77738894D01*
X103529546Y-77674374D01*
X103589351Y-77636113D01*
X103660347Y-77636259D01*
X103719994Y-77674766D01*
X103749354Y-77739407D01*
X103750212Y-77747200D01*
X103752291Y-77773627D01*
X103754086Y-77779804D01*
X103754087Y-77779810D01*
X103792519Y-77912095D01*
X103796382Y-77925390D01*
X103813138Y-77953723D01*
X103872792Y-78054593D01*
X103872794Y-78054596D01*
X103876830Y-78061420D01*
X103988580Y-78173170D01*
X103995404Y-78177206D01*
X103995407Y-78177208D01*
X104096277Y-78236862D01*
X104124610Y-78253618D01*
X104132221Y-78255829D01*
X104132223Y-78255830D01*
X104180743Y-78269926D01*
X104276373Y-78297709D01*
X104297674Y-78299385D01*
X104309380Y-78300307D01*
X104309389Y-78300307D01*
X104311837Y-78300500D01*
X104499847Y-78300500D01*
X104688162Y-78300499D01*
X104706854Y-78299028D01*
X104717209Y-78298214D01*
X104717210Y-78298214D01*
X104723627Y-78297709D01*
X104729807Y-78295914D01*
X104729810Y-78295913D01*
X104867777Y-78255830D01*
X104867779Y-78255829D01*
X104875390Y-78253618D01*
X104903723Y-78236862D01*
X105004593Y-78177208D01*
X105004596Y-78177206D01*
X105011420Y-78173170D01*
X105123170Y-78061420D01*
X105141549Y-78030344D01*
X105193439Y-77981893D01*
X105263290Y-77969188D01*
X105328921Y-77996263D01*
X105358450Y-78030342D01*
X105376830Y-78061420D01*
X105488580Y-78173170D01*
X105495404Y-78177206D01*
X105495407Y-78177208D01*
X105596277Y-78236862D01*
X105624610Y-78253618D01*
X105632221Y-78255829D01*
X105632223Y-78255830D01*
X105680743Y-78269926D01*
X105776373Y-78297709D01*
X105797674Y-78299385D01*
X105809380Y-78300307D01*
X105809389Y-78300307D01*
X105811837Y-78300500D01*
X105999847Y-78300500D01*
X106188162Y-78300499D01*
X106206854Y-78299028D01*
X106217209Y-78298214D01*
X106217210Y-78298214D01*
X106223627Y-78297709D01*
X106229807Y-78295914D01*
X106229810Y-78295913D01*
X106367777Y-78255830D01*
X106367779Y-78255829D01*
X106375390Y-78253618D01*
X106403723Y-78236862D01*
X106504593Y-78177208D01*
X106504596Y-78177206D01*
X106511420Y-78173170D01*
X106623170Y-78061420D01*
X106627206Y-78054596D01*
X106627208Y-78054593D01*
X106686862Y-77953723D01*
X106703618Y-77925390D01*
X106709115Y-77906471D01*
X106736076Y-77813669D01*
X106747709Y-77773627D01*
X106748215Y-77767209D01*
X106749801Y-77747043D01*
X106775085Y-77680701D01*
X106832223Y-77638561D01*
X106903073Y-77634000D01*
X106965141Y-77668469D01*
X106998721Y-77731022D01*
X107000070Y-77738577D01*
X107005539Y-77775731D01*
X107011280Y-77794205D01*
X107057983Y-77889328D01*
X107069943Y-77906033D01*
X107144499Y-77980459D01*
X107161227Y-77992391D01*
X107256439Y-78038931D01*
X107274906Y-78044639D01*
X107334547Y-78053340D01*
X107343647Y-78054000D01*
X107354885Y-78054000D01*
X107370124Y-78049525D01*
X107371329Y-78048135D01*
X107373000Y-78040452D01*
X107373000Y-78035885D01*
X107627000Y-78035885D01*
X107631475Y-78051124D01*
X107632865Y-78052329D01*
X107640548Y-78054000D01*
X107656320Y-78054000D01*
X107665481Y-78053330D01*
X107725731Y-78044461D01*
X107744205Y-78038720D01*
X107839328Y-77992017D01*
X107856033Y-77980057D01*
X107930459Y-77905501D01*
X107942391Y-77888773D01*
X107988931Y-77793561D01*
X107994639Y-77775094D01*
X108003340Y-77715453D01*
X108004000Y-77706353D01*
X108004000Y-77445115D01*
X107999525Y-77429876D01*
X107998135Y-77428671D01*
X107990452Y-77427000D01*
X107645115Y-77427000D01*
X107629876Y-77431475D01*
X107628671Y-77432865D01*
X107627000Y-77440548D01*
X107627000Y-78035885D01*
X107373000Y-78035885D01*
X107373000Y-77154885D01*
X107627000Y-77154885D01*
X107631475Y-77170124D01*
X107632865Y-77171329D01*
X107640548Y-77173000D01*
X107985885Y-77173000D01*
X108001124Y-77168525D01*
X108002329Y-77167135D01*
X108004000Y-77159452D01*
X108004000Y-76893680D01*
X108003330Y-76884519D01*
X107994461Y-76824269D01*
X107988720Y-76805795D01*
X107942017Y-76710672D01*
X107930057Y-76693967D01*
X107855501Y-76619541D01*
X107838773Y-76607609D01*
X107743561Y-76561069D01*
X107725094Y-76555361D01*
X107665453Y-76546660D01*
X107656353Y-76546000D01*
X107645115Y-76546000D01*
X107629876Y-76550475D01*
X107628671Y-76551865D01*
X107627000Y-76559548D01*
X107627000Y-77154885D01*
X107373000Y-77154885D01*
X107373000Y-76564115D01*
X107368525Y-76548876D01*
X107367135Y-76547671D01*
X107359452Y-76546000D01*
X107343680Y-76546000D01*
X107334519Y-76546670D01*
X107274269Y-76555539D01*
X107255795Y-76561280D01*
X107160672Y-76607983D01*
X107143967Y-76619943D01*
X107069541Y-76694499D01*
X107057609Y-76711227D01*
X107011069Y-76806439D01*
X107005361Y-76824907D01*
X107000080Y-76861106D01*
X106970454Y-76925626D01*
X106910649Y-76963887D01*
X106839653Y-76963741D01*
X106780006Y-76925234D01*
X106750646Y-76860593D01*
X106749788Y-76852800D01*
X106748214Y-76832791D01*
X106748213Y-76832784D01*
X106747709Y-76826373D01*
X106703618Y-76674610D01*
X106663994Y-76607609D01*
X106627208Y-76545407D01*
X106627206Y-76545404D01*
X106623170Y-76538580D01*
X106511420Y-76426830D01*
X106504596Y-76422794D01*
X106504593Y-76422792D01*
X106382216Y-76350419D01*
X106382217Y-76350419D01*
X106375390Y-76346382D01*
X106367779Y-76344171D01*
X106367777Y-76344170D01*
X106319257Y-76330074D01*
X106223627Y-76302291D01*
X106202326Y-76300615D01*
X106190620Y-76299693D01*
X106190611Y-76299693D01*
X106188163Y-76299500D01*
X106000153Y-76299500D01*
X105811838Y-76299501D01*
X105793146Y-76300972D01*
X105782791Y-76301786D01*
X105782790Y-76301786D01*
X105776373Y-76302291D01*
X105770193Y-76304086D01*
X105770190Y-76304087D01*
X105632223Y-76344170D01*
X105632221Y-76344171D01*
X105624610Y-76346382D01*
X105617783Y-76350419D01*
X105617784Y-76350419D01*
X105495407Y-76422792D01*
X105495404Y-76422794D01*
X105488580Y-76426830D01*
X105376830Y-76538580D01*
X105358451Y-76569656D01*
X105306561Y-76618107D01*
X105236710Y-76630812D01*
X105171079Y-76603737D01*
X105141550Y-76569658D01*
X105123170Y-76538580D01*
X105011420Y-76426830D01*
X105004596Y-76422794D01*
X105004593Y-76422792D01*
X104882216Y-76350419D01*
X104882217Y-76350419D01*
X104875390Y-76346382D01*
X104867779Y-76344171D01*
X104867777Y-76344170D01*
X104819257Y-76330074D01*
X104723627Y-76302291D01*
X104702326Y-76300615D01*
X104690620Y-76299693D01*
X104690611Y-76299693D01*
X104688163Y-76299500D01*
X104500153Y-76299500D01*
X104311838Y-76299501D01*
X104293146Y-76300972D01*
X104282791Y-76301786D01*
X104282790Y-76301786D01*
X104276373Y-76302291D01*
X104270193Y-76304086D01*
X104270190Y-76304087D01*
X104132223Y-76344170D01*
X104132221Y-76344171D01*
X104124610Y-76346382D01*
X104117783Y-76350419D01*
X104117784Y-76350419D01*
X103995407Y-76422792D01*
X103995404Y-76422794D01*
X103988580Y-76426830D01*
X103876830Y-76538580D01*
X103872794Y-76545404D01*
X103872792Y-76545407D01*
X103836006Y-76607609D01*
X103796382Y-76674610D01*
X103752291Y-76826373D01*
X103751787Y-76832780D01*
X103751786Y-76832784D01*
X103750199Y-76852957D01*
X103724915Y-76919299D01*
X103667777Y-76961439D01*
X103596927Y-76966000D01*
X103534859Y-76931531D01*
X103501279Y-76868978D01*
X103499930Y-76861423D01*
X103494461Y-76824269D01*
X103488720Y-76805795D01*
X103442017Y-76710672D01*
X103430057Y-76693967D01*
X103355501Y-76619541D01*
X103338773Y-76607609D01*
X103243561Y-76561069D01*
X103225094Y-76555361D01*
X103165453Y-76546660D01*
X103156353Y-76546000D01*
X103145115Y-76546000D01*
X103129876Y-76550475D01*
X103128671Y-76551865D01*
X103127000Y-76559548D01*
X103127000Y-78035885D01*
X102873000Y-78035885D01*
X102873000Y-76564115D01*
X102868525Y-76548876D01*
X102867135Y-76547671D01*
X102849218Y-76543774D01*
X102786906Y-76509750D01*
X102752880Y-76447438D01*
X102750000Y-76420653D01*
X102750000Y-75226500D01*
X102770002Y-75158379D01*
X102823658Y-75111886D01*
X102876000Y-75100500D01*
X107507192Y-75100499D01*
X107688162Y-75100499D01*
X107706854Y-75099028D01*
X107717209Y-75098214D01*
X107717210Y-75098214D01*
X107723627Y-75097709D01*
X107729807Y-75095914D01*
X107729810Y-75095913D01*
X107867777Y-75055830D01*
X107867779Y-75055829D01*
X107875390Y-75053618D01*
X107965208Y-75000500D01*
X108004593Y-74977208D01*
X108004596Y-74977206D01*
X108011420Y-74973170D01*
X108123170Y-74861420D01*
X108127206Y-74854596D01*
X108127208Y-74854593D01*
X108199581Y-74732216D01*
X108203618Y-74725390D01*
X108247709Y-74573627D01*
X108250500Y-74538163D01*
X108250499Y-73917791D01*
X108251782Y-73899858D01*
X108254858Y-73878462D01*
X108255500Y-73874000D01*
X108255500Y-71776000D01*
X108251222Y-71736206D01*
X108250500Y-71722738D01*
X108250499Y-71164311D01*
X108250499Y-71161838D01*
X108247709Y-71126373D01*
X108245041Y-71117187D01*
X108205830Y-70982223D01*
X108205829Y-70982221D01*
X108203618Y-70974610D01*
X108186862Y-70946277D01*
X108127208Y-70845407D01*
X108127206Y-70845404D01*
X108123170Y-70838580D01*
X108011420Y-70726830D01*
X108004596Y-70722794D01*
X108004593Y-70722792D01*
X107882216Y-70650419D01*
X107882217Y-70650419D01*
X107875390Y-70646382D01*
X107867779Y-70644171D01*
X107867777Y-70644170D01*
X107819257Y-70630074D01*
X107723627Y-70602291D01*
X107702326Y-70600615D01*
X107690620Y-70599693D01*
X107690611Y-70599693D01*
X107688163Y-70599500D01*
X107507472Y-70599500D01*
X102876000Y-70599501D01*
X102807879Y-70579499D01*
X102761386Y-70525843D01*
X102750000Y-70473501D01*
X102750000Y-69280000D01*
X102770002Y-69211879D01*
X102823658Y-69165386D01*
X102876000Y-69154000D01*
X105104885Y-69154000D01*
X105120124Y-69149525D01*
X105121329Y-69148135D01*
X105123000Y-69140452D01*
X105123000Y-69135885D01*
X105377000Y-69135885D01*
X105381475Y-69151124D01*
X105382865Y-69152329D01*
X105390548Y-69154000D01*
X107656320Y-69154000D01*
X107665481Y-69153330D01*
X107725731Y-69144461D01*
X107744205Y-69138720D01*
X107839328Y-69092017D01*
X107856033Y-69080057D01*
X107930459Y-69005501D01*
X107942391Y-68988773D01*
X107988931Y-68893561D01*
X107994639Y-68875094D01*
X108003340Y-68815453D01*
X108004000Y-68806353D01*
X108004000Y-68545115D01*
X107999525Y-68529876D01*
X107998135Y-68528671D01*
X107990452Y-68527000D01*
X105395115Y-68527000D01*
X105379876Y-68531475D01*
X105378671Y-68532865D01*
X105377000Y-68540548D01*
X105377000Y-69135885D01*
X105123000Y-69135885D01*
X105123000Y-68254885D01*
X105377000Y-68254885D01*
X105381475Y-68270124D01*
X105382865Y-68271329D01*
X105390548Y-68273000D01*
X107985885Y-68273000D01*
X108001124Y-68268525D01*
X108002329Y-68267135D01*
X108004000Y-68259452D01*
X108004000Y-67993680D01*
X108003330Y-67984519D01*
X107994461Y-67924269D01*
X107988720Y-67905795D01*
X107942017Y-67810672D01*
X107930057Y-67793967D01*
X107855501Y-67719541D01*
X107838773Y-67707609D01*
X107743561Y-67661069D01*
X107725094Y-67655361D01*
X107665453Y-67646660D01*
X107656353Y-67646000D01*
X105395115Y-67646000D01*
X105379876Y-67650475D01*
X105378671Y-67651865D01*
X105377000Y-67659548D01*
X105377000Y-68254885D01*
X105123000Y-68254885D01*
X105123000Y-67664115D01*
X105118525Y-67648876D01*
X105117135Y-67647671D01*
X105109452Y-67646000D01*
X102876000Y-67646000D01*
X102807879Y-67625998D01*
X102761386Y-67572342D01*
X102750000Y-67520000D01*
X102750000Y-66779119D01*
X102770002Y-66710998D01*
X102823658Y-66664505D01*
X102840502Y-66658223D01*
X102870124Y-66649525D01*
X102871329Y-66648135D01*
X102873000Y-66640452D01*
X102873000Y-66635885D01*
X103127000Y-66635885D01*
X103131475Y-66651124D01*
X103132865Y-66652329D01*
X103140548Y-66654000D01*
X103156320Y-66654000D01*
X103165481Y-66653330D01*
X103225731Y-66644461D01*
X103244205Y-66638720D01*
X103339328Y-66592017D01*
X103356033Y-66580057D01*
X103430459Y-66505501D01*
X103442391Y-66488773D01*
X103488931Y-66393561D01*
X103494639Y-66375093D01*
X103499920Y-66338894D01*
X103529546Y-66274374D01*
X103589351Y-66236113D01*
X103660347Y-66236259D01*
X103719994Y-66274766D01*
X103749354Y-66339407D01*
X103750212Y-66347200D01*
X103752291Y-66373627D01*
X103754086Y-66379804D01*
X103754087Y-66379810D01*
X103792519Y-66512095D01*
X103796382Y-66525390D01*
X103813138Y-66553723D01*
X103872792Y-66654593D01*
X103872794Y-66654596D01*
X103876830Y-66661420D01*
X103988580Y-66773170D01*
X103995404Y-66777206D01*
X103995407Y-66777208D01*
X104096277Y-66836862D01*
X104124610Y-66853618D01*
X104132221Y-66855829D01*
X104132223Y-66855830D01*
X104180743Y-66869926D01*
X104276373Y-66897709D01*
X104297674Y-66899385D01*
X104309380Y-66900307D01*
X104309389Y-66900307D01*
X104311837Y-66900500D01*
X104499847Y-66900500D01*
X104688162Y-66900499D01*
X104706854Y-66899028D01*
X104717209Y-66898214D01*
X104717210Y-66898214D01*
X104723627Y-66897709D01*
X104729807Y-66895914D01*
X104729810Y-66895913D01*
X104867777Y-66855830D01*
X104867779Y-66855829D01*
X104875390Y-66853618D01*
X104903723Y-66836862D01*
X105004593Y-66777208D01*
X105004596Y-66777206D01*
X105011420Y-66773170D01*
X105123170Y-66661420D01*
X105141549Y-66630344D01*
X105193439Y-66581893D01*
X105263290Y-66569188D01*
X105328921Y-66596263D01*
X105358450Y-66630342D01*
X105376830Y-66661420D01*
X105488580Y-66773170D01*
X105495404Y-66777206D01*
X105495407Y-66777208D01*
X105596277Y-66836862D01*
X105624610Y-66853618D01*
X105632221Y-66855829D01*
X105632223Y-66855830D01*
X105680743Y-66869926D01*
X105776373Y-66897709D01*
X105797674Y-66899385D01*
X105809380Y-66900307D01*
X105809389Y-66900307D01*
X105811837Y-66900500D01*
X105999847Y-66900500D01*
X106188162Y-66900499D01*
X106206854Y-66899028D01*
X106217209Y-66898214D01*
X106217210Y-66898214D01*
X106223627Y-66897709D01*
X106229807Y-66895914D01*
X106229810Y-66895913D01*
X106367777Y-66855830D01*
X106367779Y-66855829D01*
X106375390Y-66853618D01*
X106403723Y-66836862D01*
X106504593Y-66777208D01*
X106504596Y-66777206D01*
X106511420Y-66773170D01*
X106623170Y-66661420D01*
X106627206Y-66654596D01*
X106627208Y-66654593D01*
X106686862Y-66553723D01*
X106703618Y-66525390D01*
X106709115Y-66506471D01*
X106736076Y-66413669D01*
X106747709Y-66373627D01*
X106748215Y-66367209D01*
X106749801Y-66347043D01*
X106775085Y-66280701D01*
X106832223Y-66238561D01*
X106903073Y-66234000D01*
X106965141Y-66268469D01*
X106998721Y-66331022D01*
X107000070Y-66338577D01*
X107005539Y-66375731D01*
X107011280Y-66394205D01*
X107057983Y-66489328D01*
X107069943Y-66506033D01*
X107144499Y-66580459D01*
X107161227Y-66592391D01*
X107256439Y-66638931D01*
X107274906Y-66644639D01*
X107334547Y-66653340D01*
X107343647Y-66654000D01*
X107354885Y-66654000D01*
X107370124Y-66649525D01*
X107371329Y-66648135D01*
X107373000Y-66640452D01*
X107373000Y-66635885D01*
X107627000Y-66635885D01*
X107631475Y-66651124D01*
X107632865Y-66652329D01*
X107640548Y-66654000D01*
X107656320Y-66654000D01*
X107665481Y-66653330D01*
X107725731Y-66644461D01*
X107744205Y-66638720D01*
X107839328Y-66592017D01*
X107856033Y-66580057D01*
X107930459Y-66505501D01*
X107942391Y-66488773D01*
X107988931Y-66393561D01*
X107994639Y-66375094D01*
X108003340Y-66315453D01*
X108004000Y-66306353D01*
X108004000Y-66045115D01*
X107999525Y-66029876D01*
X107998135Y-66028671D01*
X107990452Y-66027000D01*
X107645115Y-66027000D01*
X107629876Y-66031475D01*
X107628671Y-66032865D01*
X107627000Y-66040548D01*
X107627000Y-66635885D01*
X107373000Y-66635885D01*
X107373000Y-65754885D01*
X107627000Y-65754885D01*
X107631475Y-65770124D01*
X107632865Y-65771329D01*
X107640548Y-65773000D01*
X107985885Y-65773000D01*
X108001124Y-65768525D01*
X108002329Y-65767135D01*
X108004000Y-65759452D01*
X108004000Y-65493680D01*
X108003330Y-65484519D01*
X107994461Y-65424269D01*
X107988720Y-65405795D01*
X107942017Y-65310672D01*
X107930057Y-65293967D01*
X107855501Y-65219541D01*
X107838773Y-65207609D01*
X107743561Y-65161069D01*
X107725094Y-65155361D01*
X107665453Y-65146660D01*
X107656353Y-65146000D01*
X107645115Y-65146000D01*
X107629876Y-65150475D01*
X107628671Y-65151865D01*
X107627000Y-65159548D01*
X107627000Y-65754885D01*
X107373000Y-65754885D01*
X107373000Y-65164115D01*
X107368525Y-65148876D01*
X107367135Y-65147671D01*
X107359452Y-65146000D01*
X107343680Y-65146000D01*
X107334519Y-65146670D01*
X107274269Y-65155539D01*
X107255795Y-65161280D01*
X107160672Y-65207983D01*
X107143967Y-65219943D01*
X107069541Y-65294499D01*
X107057609Y-65311227D01*
X107011069Y-65406439D01*
X107005361Y-65424907D01*
X107000080Y-65461106D01*
X106970454Y-65525626D01*
X106910649Y-65563887D01*
X106839653Y-65563741D01*
X106780006Y-65525234D01*
X106750646Y-65460593D01*
X106749788Y-65452800D01*
X106748214Y-65432791D01*
X106748213Y-65432784D01*
X106747709Y-65426373D01*
X106703618Y-65274610D01*
X106663994Y-65207609D01*
X106627208Y-65145407D01*
X106627206Y-65145404D01*
X106623170Y-65138580D01*
X106511420Y-65026830D01*
X106504596Y-65022794D01*
X106504593Y-65022792D01*
X106382216Y-64950419D01*
X106382217Y-64950419D01*
X106375390Y-64946382D01*
X106367779Y-64944171D01*
X106367777Y-64944170D01*
X106319257Y-64930074D01*
X106223627Y-64902291D01*
X106202326Y-64900615D01*
X106190620Y-64899693D01*
X106190611Y-64899693D01*
X106188163Y-64899500D01*
X106000153Y-64899500D01*
X105811838Y-64899501D01*
X105793146Y-64900972D01*
X105782791Y-64901786D01*
X105782790Y-64901786D01*
X105776373Y-64902291D01*
X105770193Y-64904086D01*
X105770190Y-64904087D01*
X105632223Y-64944170D01*
X105632221Y-64944171D01*
X105624610Y-64946382D01*
X105617783Y-64950419D01*
X105617784Y-64950419D01*
X105495407Y-65022792D01*
X105495404Y-65022794D01*
X105488580Y-65026830D01*
X105376830Y-65138580D01*
X105358451Y-65169656D01*
X105306561Y-65218107D01*
X105236710Y-65230812D01*
X105171079Y-65203737D01*
X105141550Y-65169658D01*
X105123170Y-65138580D01*
X105011420Y-65026830D01*
X105004596Y-65022794D01*
X105004593Y-65022792D01*
X104882216Y-64950419D01*
X104882217Y-64950419D01*
X104875390Y-64946382D01*
X104867779Y-64944171D01*
X104867777Y-64944170D01*
X104819257Y-64930074D01*
X104723627Y-64902291D01*
X104702326Y-64900615D01*
X104690620Y-64899693D01*
X104690611Y-64899693D01*
X104688163Y-64899500D01*
X104500153Y-64899500D01*
X104311838Y-64899501D01*
X104293146Y-64900972D01*
X104282791Y-64901786D01*
X104282790Y-64901786D01*
X104276373Y-64902291D01*
X104270193Y-64904086D01*
X104270190Y-64904087D01*
X104132223Y-64944170D01*
X104132221Y-64944171D01*
X104124610Y-64946382D01*
X104117783Y-64950419D01*
X104117784Y-64950419D01*
X103995407Y-65022792D01*
X103995404Y-65022794D01*
X103988580Y-65026830D01*
X103876830Y-65138580D01*
X103872794Y-65145404D01*
X103872792Y-65145407D01*
X103836006Y-65207609D01*
X103796382Y-65274610D01*
X103752291Y-65426373D01*
X103751787Y-65432780D01*
X103751786Y-65432784D01*
X103750199Y-65452957D01*
X103724915Y-65519299D01*
X103667777Y-65561439D01*
X103596927Y-65566000D01*
X103534859Y-65531531D01*
X103501279Y-65468978D01*
X103499930Y-65461423D01*
X103494461Y-65424269D01*
X103488720Y-65405795D01*
X103442017Y-65310672D01*
X103430057Y-65293967D01*
X103355501Y-65219541D01*
X103338773Y-65207609D01*
X103243561Y-65161069D01*
X103225094Y-65155361D01*
X103165453Y-65146660D01*
X103156353Y-65146000D01*
X103145115Y-65146000D01*
X103129876Y-65150475D01*
X103128671Y-65151865D01*
X103127000Y-65159548D01*
X103127000Y-66635885D01*
X102873000Y-66635885D01*
X102873000Y-65164115D01*
X102868525Y-65148876D01*
X102867135Y-65147671D01*
X102849218Y-65143774D01*
X102786906Y-65109750D01*
X102752880Y-65047438D01*
X102750000Y-65020653D01*
X102750000Y-63826500D01*
X102770002Y-63758379D01*
X102823658Y-63711886D01*
X102876000Y-63700500D01*
X107507192Y-63700499D01*
X107688162Y-63700499D01*
X107706854Y-63699028D01*
X107717209Y-63698214D01*
X107717210Y-63698214D01*
X107723627Y-63697709D01*
X107729807Y-63695914D01*
X107729810Y-63695913D01*
X107867777Y-63655830D01*
X107867779Y-63655829D01*
X107875390Y-63653618D01*
X107965208Y-63600500D01*
X108004593Y-63577208D01*
X108004596Y-63577206D01*
X108011420Y-63573170D01*
X108123170Y-63461420D01*
X108127206Y-63454596D01*
X108127208Y-63454593D01*
X108199581Y-63332216D01*
X108203618Y-63325390D01*
X108247709Y-63173627D01*
X108250500Y-63138163D01*
X108250499Y-62417791D01*
X108251782Y-62399859D01*
X108254858Y-62378463D01*
X108255500Y-62374000D01*
X108255500Y-60276000D01*
X108251222Y-60236205D01*
X108250500Y-60222737D01*
X108250499Y-59764311D01*
X108250499Y-59761838D01*
X108247709Y-59726373D01*
X108245041Y-59717187D01*
X108205830Y-59582223D01*
X108205829Y-59582221D01*
X108203618Y-59574610D01*
X108186862Y-59546277D01*
X108127208Y-59445407D01*
X108127206Y-59445404D01*
X108123170Y-59438580D01*
X108011420Y-59326830D01*
X108004596Y-59322794D01*
X108004593Y-59322792D01*
X107882216Y-59250419D01*
X107882217Y-59250419D01*
X107875390Y-59246382D01*
X107867779Y-59244171D01*
X107867777Y-59244170D01*
X107819257Y-59230074D01*
X107723627Y-59202291D01*
X107702326Y-59200615D01*
X107690620Y-59199693D01*
X107690611Y-59199693D01*
X107688163Y-59199500D01*
X107507472Y-59199500D01*
X102876000Y-59199501D01*
X102807879Y-59179499D01*
X102761386Y-59125843D01*
X102750000Y-59073501D01*
X102750000Y-57880000D01*
X102770002Y-57811879D01*
X102823658Y-57765386D01*
X102876000Y-57754000D01*
X105104885Y-57754000D01*
X105120124Y-57749525D01*
X105121329Y-57748135D01*
X105123000Y-57740452D01*
X105123000Y-57735885D01*
X105377000Y-57735885D01*
X105381475Y-57751124D01*
X105382865Y-57752329D01*
X105390548Y-57754000D01*
X107656320Y-57754000D01*
X107665481Y-57753330D01*
X107725731Y-57744461D01*
X107744205Y-57738720D01*
X107839328Y-57692017D01*
X107856033Y-57680057D01*
X107930459Y-57605501D01*
X107942391Y-57588773D01*
X107988931Y-57493561D01*
X107994639Y-57475094D01*
X108003340Y-57415453D01*
X108004000Y-57406353D01*
X108004000Y-57145115D01*
X107999525Y-57129876D01*
X107998135Y-57128671D01*
X107990452Y-57127000D01*
X105395115Y-57127000D01*
X105379876Y-57131475D01*
X105378671Y-57132865D01*
X105377000Y-57140548D01*
X105377000Y-57735885D01*
X105123000Y-57735885D01*
X105123000Y-56854885D01*
X105377000Y-56854885D01*
X105381475Y-56870124D01*
X105382865Y-56871329D01*
X105390548Y-56873000D01*
X107985885Y-56873000D01*
X108001124Y-56868525D01*
X108002329Y-56867135D01*
X108004000Y-56859452D01*
X108004000Y-56593680D01*
X108003330Y-56584519D01*
X107994461Y-56524269D01*
X107988720Y-56505795D01*
X107942017Y-56410672D01*
X107930057Y-56393967D01*
X107855501Y-56319541D01*
X107838773Y-56307609D01*
X107743561Y-56261069D01*
X107725094Y-56255361D01*
X107665453Y-56246660D01*
X107656353Y-56246000D01*
X105395115Y-56246000D01*
X105379876Y-56250475D01*
X105378671Y-56251865D01*
X105377000Y-56259548D01*
X105377000Y-56854885D01*
X105123000Y-56854885D01*
X105123000Y-56264115D01*
X105118525Y-56248876D01*
X105117135Y-56247671D01*
X105109452Y-56246000D01*
X102876000Y-56246000D01*
X102807879Y-56225998D01*
X102761386Y-56172342D01*
X102750000Y-56120000D01*
X102750000Y-55379051D01*
X102770002Y-55310930D01*
X102823658Y-55264437D01*
X102885122Y-55253382D01*
X102893636Y-55254000D01*
X102904885Y-55254000D01*
X102920124Y-55249525D01*
X102921329Y-55248135D01*
X102923000Y-55240452D01*
X102923000Y-55235885D01*
X103177000Y-55235885D01*
X103181475Y-55251124D01*
X103182865Y-55252329D01*
X103190548Y-55254000D01*
X103206320Y-55254000D01*
X103215481Y-55253330D01*
X103275731Y-55244461D01*
X103294205Y-55238720D01*
X103389328Y-55192017D01*
X103406033Y-55180057D01*
X103480459Y-55105501D01*
X103492391Y-55088773D01*
X103538931Y-54993561D01*
X103544639Y-54975093D01*
X103549920Y-54938894D01*
X103579546Y-54874374D01*
X103639351Y-54836113D01*
X103710347Y-54836259D01*
X103769994Y-54874766D01*
X103799354Y-54939407D01*
X103800212Y-54947200D01*
X103802291Y-54973627D01*
X103804086Y-54979804D01*
X103804087Y-54979810D01*
X103842519Y-55112095D01*
X103846382Y-55125390D01*
X103863138Y-55153723D01*
X103922792Y-55254593D01*
X103922794Y-55254596D01*
X103926830Y-55261420D01*
X104038580Y-55373170D01*
X104045404Y-55377206D01*
X104045407Y-55377208D01*
X104146277Y-55436862D01*
X104174610Y-55453618D01*
X104182221Y-55455829D01*
X104182223Y-55455830D01*
X104230743Y-55469926D01*
X104326373Y-55497709D01*
X104347674Y-55499385D01*
X104359380Y-55500307D01*
X104359389Y-55500307D01*
X104361837Y-55500500D01*
X104549847Y-55500500D01*
X104738162Y-55500499D01*
X104756854Y-55499028D01*
X104767209Y-55498214D01*
X104767210Y-55498214D01*
X104773627Y-55497709D01*
X104779807Y-55495914D01*
X104779810Y-55495913D01*
X104917777Y-55455830D01*
X104917779Y-55455829D01*
X104925390Y-55453618D01*
X104953723Y-55436862D01*
X105054593Y-55377208D01*
X105054596Y-55377206D01*
X105061420Y-55373170D01*
X105173170Y-55261420D01*
X105191549Y-55230344D01*
X105243439Y-55181893D01*
X105313290Y-55169188D01*
X105378921Y-55196263D01*
X105408450Y-55230342D01*
X105426830Y-55261420D01*
X105538580Y-55373170D01*
X105545404Y-55377206D01*
X105545407Y-55377208D01*
X105646277Y-55436862D01*
X105674610Y-55453618D01*
X105682221Y-55455829D01*
X105682223Y-55455830D01*
X105730743Y-55469926D01*
X105826373Y-55497709D01*
X105847674Y-55499385D01*
X105859380Y-55500307D01*
X105859389Y-55500307D01*
X105861837Y-55500500D01*
X106049847Y-55500500D01*
X106238162Y-55500499D01*
X106256854Y-55499028D01*
X106267209Y-55498214D01*
X106267210Y-55498214D01*
X106273627Y-55497709D01*
X106279807Y-55495914D01*
X106279810Y-55495913D01*
X106417777Y-55455830D01*
X106417779Y-55455829D01*
X106425390Y-55453618D01*
X106453723Y-55436862D01*
X106554593Y-55377208D01*
X106554596Y-55377206D01*
X106561420Y-55373170D01*
X106673170Y-55261420D01*
X106677206Y-55254596D01*
X106677208Y-55254593D01*
X106736862Y-55153723D01*
X106753618Y-55125390D01*
X106759115Y-55106471D01*
X106786076Y-55013669D01*
X106797709Y-54973627D01*
X106798215Y-54967209D01*
X106799801Y-54947043D01*
X106825085Y-54880701D01*
X106882223Y-54838561D01*
X106953073Y-54834000D01*
X107015141Y-54868469D01*
X107048721Y-54931022D01*
X107050070Y-54938577D01*
X107055539Y-54975731D01*
X107061280Y-54994205D01*
X107107983Y-55089328D01*
X107119943Y-55106033D01*
X107194499Y-55180459D01*
X107211227Y-55192391D01*
X107306439Y-55238931D01*
X107324906Y-55244639D01*
X107384547Y-55253340D01*
X107393647Y-55254000D01*
X107404885Y-55254000D01*
X107420124Y-55249525D01*
X107421329Y-55248135D01*
X107423000Y-55240452D01*
X107423000Y-55235885D01*
X107677000Y-55235885D01*
X107681475Y-55251124D01*
X107682865Y-55252329D01*
X107690548Y-55254000D01*
X107706320Y-55254000D01*
X107715481Y-55253330D01*
X107775731Y-55244461D01*
X107794205Y-55238720D01*
X107889328Y-55192017D01*
X107906033Y-55180057D01*
X107980459Y-55105501D01*
X107992391Y-55088773D01*
X108038931Y-54993561D01*
X108044639Y-54975094D01*
X108053340Y-54915453D01*
X108054000Y-54906353D01*
X108054000Y-54645115D01*
X108049525Y-54629876D01*
X108048135Y-54628671D01*
X108040452Y-54627000D01*
X107695115Y-54627000D01*
X107679876Y-54631475D01*
X107678671Y-54632865D01*
X107677000Y-54640548D01*
X107677000Y-55235885D01*
X107423000Y-55235885D01*
X107423000Y-54354885D01*
X107677000Y-54354885D01*
X107681475Y-54370124D01*
X107682865Y-54371329D01*
X107690548Y-54373000D01*
X108035885Y-54373000D01*
X108051124Y-54368525D01*
X108052329Y-54367135D01*
X108054000Y-54359452D01*
X108054000Y-54093680D01*
X108053330Y-54084519D01*
X108044461Y-54024269D01*
X108038720Y-54005795D01*
X107992017Y-53910672D01*
X107980057Y-53893967D01*
X107905501Y-53819541D01*
X107888773Y-53807609D01*
X107793561Y-53761069D01*
X107775094Y-53755361D01*
X107715453Y-53746660D01*
X107706353Y-53746000D01*
X107695115Y-53746000D01*
X107679876Y-53750475D01*
X107678671Y-53751865D01*
X107677000Y-53759548D01*
X107677000Y-54354885D01*
X107423000Y-54354885D01*
X107423000Y-53764115D01*
X107418525Y-53748876D01*
X107417135Y-53747671D01*
X107409452Y-53746000D01*
X107393680Y-53746000D01*
X107384519Y-53746670D01*
X107324269Y-53755539D01*
X107305795Y-53761280D01*
X107210672Y-53807983D01*
X107193967Y-53819943D01*
X107119541Y-53894499D01*
X107107609Y-53911227D01*
X107061069Y-54006439D01*
X107055361Y-54024907D01*
X107050080Y-54061106D01*
X107020454Y-54125626D01*
X106960649Y-54163887D01*
X106889653Y-54163741D01*
X106830006Y-54125234D01*
X106800646Y-54060593D01*
X106799788Y-54052800D01*
X106798214Y-54032791D01*
X106798213Y-54032784D01*
X106797709Y-54026373D01*
X106753618Y-53874610D01*
X106713994Y-53807609D01*
X106677208Y-53745407D01*
X106677206Y-53745404D01*
X106673170Y-53738580D01*
X106561420Y-53626830D01*
X106554596Y-53622794D01*
X106554593Y-53622792D01*
X106432216Y-53550419D01*
X106432217Y-53550419D01*
X106425390Y-53546382D01*
X106417779Y-53544171D01*
X106417777Y-53544170D01*
X106369257Y-53530074D01*
X106273627Y-53502291D01*
X106252326Y-53500615D01*
X106240620Y-53499693D01*
X106240611Y-53499693D01*
X106238163Y-53499500D01*
X106050153Y-53499500D01*
X105861838Y-53499501D01*
X105843146Y-53500972D01*
X105832791Y-53501786D01*
X105832790Y-53501786D01*
X105826373Y-53502291D01*
X105820193Y-53504086D01*
X105820190Y-53504087D01*
X105682223Y-53544170D01*
X105682221Y-53544171D01*
X105674610Y-53546382D01*
X105667783Y-53550419D01*
X105667784Y-53550419D01*
X105545407Y-53622792D01*
X105545404Y-53622794D01*
X105538580Y-53626830D01*
X105426830Y-53738580D01*
X105408451Y-53769656D01*
X105356561Y-53818107D01*
X105286710Y-53830812D01*
X105221079Y-53803737D01*
X105191550Y-53769658D01*
X105173170Y-53738580D01*
X105061420Y-53626830D01*
X105054596Y-53622794D01*
X105054593Y-53622792D01*
X104932216Y-53550419D01*
X104932217Y-53550419D01*
X104925390Y-53546382D01*
X104917779Y-53544171D01*
X104917777Y-53544170D01*
X104869257Y-53530074D01*
X104773627Y-53502291D01*
X104752326Y-53500615D01*
X104740620Y-53499693D01*
X104740611Y-53499693D01*
X104738163Y-53499500D01*
X104550153Y-53499500D01*
X104361838Y-53499501D01*
X104343146Y-53500972D01*
X104332791Y-53501786D01*
X104332790Y-53501786D01*
X104326373Y-53502291D01*
X104320193Y-53504086D01*
X104320190Y-53504087D01*
X104182223Y-53544170D01*
X104182221Y-53544171D01*
X104174610Y-53546382D01*
X104167783Y-53550419D01*
X104167784Y-53550419D01*
X104045407Y-53622792D01*
X104045404Y-53622794D01*
X104038580Y-53626830D01*
X103926830Y-53738580D01*
X103922794Y-53745404D01*
X103922792Y-53745407D01*
X103886006Y-53807609D01*
X103846382Y-53874610D01*
X103802291Y-54026373D01*
X103801787Y-54032780D01*
X103801786Y-54032784D01*
X103800199Y-54052957D01*
X103774915Y-54119299D01*
X103717777Y-54161439D01*
X103646927Y-54166000D01*
X103584859Y-54131531D01*
X103551279Y-54068978D01*
X103549930Y-54061423D01*
X103544461Y-54024269D01*
X103538720Y-54005795D01*
X103492017Y-53910672D01*
X103480057Y-53893967D01*
X103405501Y-53819541D01*
X103388773Y-53807609D01*
X103293561Y-53761069D01*
X103275094Y-53755361D01*
X103215453Y-53746660D01*
X103206353Y-53746000D01*
X103195115Y-53746000D01*
X103179876Y-53750475D01*
X103178671Y-53751865D01*
X103177000Y-53759548D01*
X103177000Y-55235885D01*
X102923000Y-55235885D01*
X102923000Y-53764115D01*
X102918525Y-53748876D01*
X102917135Y-53747671D01*
X102909452Y-53746000D01*
X102893682Y-53746000D01*
X102885198Y-53746621D01*
X102815799Y-53731645D01*
X102765513Y-53681527D01*
X102750000Y-53620957D01*
X102750000Y-52426500D01*
X102770002Y-52358379D01*
X102823658Y-52311886D01*
X102876000Y-52300500D01*
X107507191Y-52300499D01*
X107688162Y-52300499D01*
X107706854Y-52299028D01*
X107717209Y-52298214D01*
X107717210Y-52298214D01*
X107723627Y-52297709D01*
X107729807Y-52295914D01*
X107729810Y-52295913D01*
X107867777Y-52255830D01*
X107867779Y-52255829D01*
X107875390Y-52253618D01*
X107965208Y-52200500D01*
X108004593Y-52177208D01*
X108004596Y-52177206D01*
X108011420Y-52173170D01*
X108123170Y-52061420D01*
X108127206Y-52054596D01*
X108127208Y-52054593D01*
X108199581Y-51932216D01*
X108203618Y-51925390D01*
X108247709Y-51773627D01*
X108250500Y-51738163D01*
X108250499Y-51117791D01*
X108251782Y-51099858D01*
X108254858Y-51078462D01*
X108255500Y-51074000D01*
X108255500Y-48976000D01*
X108251222Y-48936206D01*
X108250500Y-48922738D01*
X108250499Y-48364311D01*
X108250499Y-48361838D01*
X108247709Y-48326373D01*
X108245041Y-48317187D01*
X108205830Y-48182223D01*
X108205829Y-48182221D01*
X108203618Y-48174610D01*
X108186862Y-48146277D01*
X108127208Y-48045407D01*
X108127206Y-48045404D01*
X108123170Y-48038580D01*
X108011420Y-47926830D01*
X108004596Y-47922794D01*
X108004593Y-47922792D01*
X107882216Y-47850419D01*
X107882217Y-47850419D01*
X107875390Y-47846382D01*
X107867779Y-47844171D01*
X107867777Y-47844170D01*
X107819257Y-47830074D01*
X107723627Y-47802291D01*
X107702326Y-47800615D01*
X107690620Y-47799693D01*
X107690611Y-47799693D01*
X107688163Y-47799500D01*
X107507472Y-47799500D01*
X102876000Y-47799501D01*
X102807879Y-47779499D01*
X102761386Y-47725843D01*
X102750000Y-47673501D01*
X102750000Y-46480000D01*
X102770002Y-46411879D01*
X102823658Y-46365386D01*
X102876000Y-46354000D01*
X105104885Y-46354000D01*
X105120124Y-46349525D01*
X105121329Y-46348135D01*
X105123000Y-46340452D01*
X105123000Y-46335885D01*
X105377000Y-46335885D01*
X105381475Y-46351124D01*
X105382865Y-46352329D01*
X105390548Y-46354000D01*
X107656320Y-46354000D01*
X107665481Y-46353330D01*
X107725731Y-46344461D01*
X107744205Y-46338720D01*
X107839328Y-46292017D01*
X107856033Y-46280057D01*
X107930459Y-46205501D01*
X107942391Y-46188773D01*
X107988931Y-46093561D01*
X107994639Y-46075094D01*
X108003340Y-46015453D01*
X108004000Y-46006353D01*
X108004000Y-45745115D01*
X107999525Y-45729876D01*
X107998135Y-45728671D01*
X107990452Y-45727000D01*
X105395115Y-45727000D01*
X105379876Y-45731475D01*
X105378671Y-45732865D01*
X105377000Y-45740548D01*
X105377000Y-46335885D01*
X105123000Y-46335885D01*
X105123000Y-45454885D01*
X105377000Y-45454885D01*
X105381475Y-45470124D01*
X105382865Y-45471329D01*
X105390548Y-45473000D01*
X107985885Y-45473000D01*
X108001124Y-45468525D01*
X108002329Y-45467135D01*
X108004000Y-45459452D01*
X108004000Y-45193680D01*
X108003330Y-45184519D01*
X107994461Y-45124269D01*
X107988720Y-45105795D01*
X107942017Y-45010672D01*
X107930057Y-44993967D01*
X107855501Y-44919541D01*
X107838773Y-44907609D01*
X107743561Y-44861069D01*
X107725094Y-44855361D01*
X107665453Y-44846660D01*
X107656353Y-44846000D01*
X105395115Y-44846000D01*
X105379876Y-44850475D01*
X105378671Y-44851865D01*
X105377000Y-44859548D01*
X105377000Y-45454885D01*
X105123000Y-45454885D01*
X105123000Y-44864115D01*
X105118525Y-44848876D01*
X105117135Y-44847671D01*
X105109452Y-44846000D01*
X102876000Y-44846000D01*
X102807879Y-44825998D01*
X102761386Y-44772342D01*
X102750000Y-44720000D01*
X102750000Y-44100000D01*
X102715381Y-44065381D01*
X102681355Y-44003069D01*
X102686420Y-43932254D01*
X102728967Y-43875418D01*
X102795487Y-43850607D01*
X102822666Y-43851606D01*
X102834550Y-43853340D01*
X102843647Y-43854000D01*
X105104885Y-43854000D01*
X105120124Y-43849525D01*
X105121329Y-43848135D01*
X105123000Y-43840452D01*
X105123000Y-43835885D01*
X105377000Y-43835885D01*
X105381475Y-43851124D01*
X105382865Y-43852329D01*
X105390548Y-43854000D01*
X107656320Y-43854000D01*
X107665481Y-43853330D01*
X107725731Y-43844461D01*
X107744205Y-43838720D01*
X107839328Y-43792017D01*
X107856033Y-43780057D01*
X107930459Y-43705501D01*
X107942391Y-43688773D01*
X107970044Y-43632200D01*
X109398747Y-43632200D01*
X109399306Y-43636444D01*
X109399306Y-43636448D01*
X109405303Y-43681997D01*
X109436129Y-43916149D01*
X109437262Y-43920289D01*
X109437262Y-43920291D01*
X109440535Y-43932254D01*
X109511702Y-44192398D01*
X109624068Y-44455835D01*
X109771146Y-44701585D01*
X109773830Y-44704936D01*
X109773832Y-44704938D01*
X109785597Y-44719623D01*
X109950215Y-44925100D01*
X110157962Y-45122245D01*
X110390543Y-45289371D01*
X110643653Y-45423386D01*
X110912610Y-45521810D01*
X111192436Y-45582822D01*
X111231901Y-45585928D01*
X111414597Y-45600307D01*
X111414604Y-45600307D01*
X111417053Y-45600500D01*
X111571992Y-45600500D01*
X111574128Y-45600354D01*
X111574139Y-45600354D01*
X111781460Y-45586220D01*
X111781466Y-45586219D01*
X111785737Y-45585928D01*
X111789932Y-45585059D01*
X111789934Y-45585059D01*
X111925961Y-45556889D01*
X112066186Y-45527850D01*
X112336158Y-45432248D01*
X112590658Y-45300891D01*
X112594159Y-45298430D01*
X112594163Y-45298428D01*
X112821471Y-45138673D01*
X112821477Y-45138668D01*
X112824976Y-45136209D01*
X112978518Y-44993529D01*
X113031633Y-44944172D01*
X113031636Y-44944169D01*
X113034776Y-44941251D01*
X113045575Y-44928058D01*
X113173027Y-44772342D01*
X113216177Y-44719623D01*
X113365820Y-44475427D01*
X113372802Y-44459522D01*
X113479214Y-44217110D01*
X113479215Y-44217106D01*
X113480938Y-44213182D01*
X113559400Y-43937739D01*
X113599754Y-43654196D01*
X113600662Y-43480672D01*
X113601231Y-43372086D01*
X113601231Y-43372080D01*
X113601253Y-43367800D01*
X113597798Y-43341552D01*
X113579228Y-43200500D01*
X113563871Y-43083851D01*
X113561181Y-43074016D01*
X113533546Y-42973000D01*
X113488298Y-42807602D01*
X113439706Y-42693680D01*
X113377618Y-42548117D01*
X113377616Y-42548113D01*
X113375932Y-42544165D01*
X113228854Y-42298415D01*
X113177343Y-42234118D01*
X113052475Y-42078258D01*
X113049785Y-42074900D01*
X112842038Y-41877755D01*
X112609457Y-41710629D01*
X112356347Y-41576614D01*
X112087390Y-41478190D01*
X111807564Y-41417178D01*
X111764389Y-41413780D01*
X111585403Y-41399693D01*
X111585396Y-41399693D01*
X111582947Y-41399500D01*
X111428008Y-41399500D01*
X111425872Y-41399646D01*
X111425861Y-41399646D01*
X111218540Y-41413780D01*
X111218534Y-41413781D01*
X111214263Y-41414072D01*
X111210068Y-41414941D01*
X111210066Y-41414941D01*
X111074039Y-41443111D01*
X110933814Y-41472150D01*
X110663842Y-41567752D01*
X110409342Y-41699109D01*
X110405841Y-41701570D01*
X110405837Y-41701572D01*
X110178529Y-41861327D01*
X110178523Y-41861332D01*
X110175024Y-41863791D01*
X109965224Y-42058749D01*
X109962510Y-42062065D01*
X109962507Y-42062068D01*
X109949256Y-42078258D01*
X109783823Y-42280377D01*
X109698297Y-42419943D01*
X109642699Y-42510672D01*
X109634180Y-42524573D01*
X109632453Y-42528507D01*
X109632452Y-42528509D01*
X109556648Y-42701196D01*
X109519062Y-42786818D01*
X109440600Y-43062261D01*
X109400246Y-43345804D01*
X109399830Y-43425261D01*
X109399048Y-43574739D01*
X109398747Y-43632200D01*
X107970044Y-43632200D01*
X107988931Y-43593561D01*
X107994639Y-43575094D01*
X108003340Y-43515453D01*
X108004000Y-43506353D01*
X108004000Y-43245115D01*
X107999525Y-43229876D01*
X107998135Y-43228671D01*
X107990452Y-43227000D01*
X105395115Y-43227000D01*
X105379876Y-43231475D01*
X105378671Y-43232865D01*
X105377000Y-43240548D01*
X105377000Y-43835885D01*
X105123000Y-43835885D01*
X105123000Y-42954885D01*
X105377000Y-42954885D01*
X105381475Y-42970124D01*
X105382865Y-42971329D01*
X105390548Y-42973000D01*
X107985885Y-42973000D01*
X108001124Y-42968525D01*
X108002329Y-42967135D01*
X108004000Y-42959452D01*
X108004000Y-42693680D01*
X108003330Y-42684519D01*
X107994461Y-42624269D01*
X107988720Y-42605795D01*
X107942017Y-42510672D01*
X107930057Y-42493967D01*
X107855501Y-42419541D01*
X107838773Y-42407609D01*
X107743561Y-42361069D01*
X107725094Y-42355361D01*
X107665453Y-42346660D01*
X107656353Y-42346000D01*
X105395115Y-42346000D01*
X105379876Y-42350475D01*
X105378671Y-42351865D01*
X105377000Y-42359548D01*
X105377000Y-42954885D01*
X105123000Y-42954885D01*
X105123000Y-42364115D01*
X105118525Y-42348876D01*
X105117135Y-42347671D01*
X105109452Y-42346000D01*
X102843680Y-42346000D01*
X102834519Y-42346670D01*
X102774269Y-42355539D01*
X102755795Y-42361280D01*
X102660672Y-42407983D01*
X102643967Y-42419943D01*
X102569541Y-42494499D01*
X102557609Y-42511227D01*
X102511068Y-42606441D01*
X102508904Y-42613442D01*
X102469679Y-42672619D01*
X102404687Y-42701196D01*
X102334563Y-42690099D01*
X102295823Y-42661576D01*
X102183823Y-42539912D01*
X102169173Y-42528509D01*
X102017854Y-42410733D01*
X102013744Y-42407534D01*
X101910877Y-42351865D01*
X101828780Y-42307436D01*
X101828777Y-42307435D01*
X101824195Y-42304955D01*
X101620348Y-42234974D01*
X101615214Y-42234117D01*
X101615209Y-42234116D01*
X101412899Y-42200357D01*
X101412897Y-42200357D01*
X101407762Y-42199500D01*
X101192238Y-42199500D01*
X101187103Y-42200357D01*
X101187101Y-42200357D01*
X101085643Y-42217287D01*
X100979652Y-42234974D01*
X100974728Y-42236665D01*
X100973865Y-42236883D01*
X100902919Y-42234218D01*
X100853835Y-42203835D01*
X99936905Y-41286905D01*
X99902879Y-41224593D01*
X99900000Y-41197810D01*
X99900000Y-40746256D01*
X99920002Y-40678135D01*
X99963580Y-40640448D01*
X99961997Y-40637793D01*
X100100577Y-40555182D01*
X100106623Y-40551578D01*
X100112516Y-40545966D01*
X100113146Y-40545642D01*
X100117335Y-40542462D01*
X100117894Y-40543198D01*
X100175640Y-40513472D01*
X100246311Y-40520264D01*
X100267853Y-40533050D01*
X100268586Y-40531929D01*
X100403577Y-40620266D01*
X100403581Y-40620268D01*
X100409475Y-40624125D01*
X100567289Y-40682815D01*
X100574270Y-40683746D01*
X100574272Y-40683747D01*
X100619812Y-40689823D01*
X100734183Y-40705083D01*
X100741194Y-40704445D01*
X100741198Y-40704445D01*
X100894843Y-40690462D01*
X100901864Y-40689823D01*
X100908566Y-40687645D01*
X100908568Y-40687645D01*
X101055298Y-40639970D01*
X101055301Y-40639969D01*
X101061997Y-40637793D01*
X101206623Y-40551578D01*
X101212516Y-40545966D01*
X101213146Y-40545642D01*
X101217335Y-40542462D01*
X101217894Y-40543198D01*
X101275640Y-40513472D01*
X101346311Y-40520264D01*
X101367853Y-40533050D01*
X101368586Y-40531929D01*
X101503577Y-40620266D01*
X101503581Y-40620268D01*
X101509475Y-40624125D01*
X101667289Y-40682815D01*
X101674270Y-40683746D01*
X101674272Y-40683747D01*
X101719812Y-40689823D01*
X101834183Y-40705083D01*
X101841194Y-40704445D01*
X101841198Y-40704445D01*
X101994843Y-40690462D01*
X102001864Y-40689823D01*
X102008566Y-40687645D01*
X102008568Y-40687645D01*
X102155298Y-40639970D01*
X102155301Y-40639969D01*
X102161997Y-40637793D01*
X102306623Y-40551578D01*
X102312516Y-40545966D01*
X102313146Y-40545642D01*
X102317335Y-40542462D01*
X102317894Y-40543198D01*
X102375640Y-40513472D01*
X102446311Y-40520264D01*
X102467853Y-40533050D01*
X102468586Y-40531929D01*
X102603577Y-40620266D01*
X102603581Y-40620268D01*
X102609475Y-40624125D01*
X102767289Y-40682815D01*
X102774270Y-40683746D01*
X102774272Y-40683747D01*
X102819812Y-40689823D01*
X102934183Y-40705083D01*
X102941194Y-40704445D01*
X102941198Y-40704445D01*
X103094843Y-40690462D01*
X103101864Y-40689823D01*
X103108566Y-40687645D01*
X103108568Y-40687645D01*
X103255298Y-40639970D01*
X103255301Y-40639969D01*
X103261997Y-40637793D01*
X103406623Y-40551578D01*
X103412516Y-40545966D01*
X103413146Y-40545642D01*
X103417335Y-40542462D01*
X103417894Y-40543198D01*
X103475640Y-40513472D01*
X103546311Y-40520264D01*
X103567853Y-40533050D01*
X103568586Y-40531929D01*
X103703577Y-40620266D01*
X103703581Y-40620268D01*
X103709475Y-40624125D01*
X103867289Y-40682815D01*
X103874270Y-40683746D01*
X103874272Y-40683747D01*
X103919812Y-40689823D01*
X104034183Y-40705083D01*
X104041194Y-40704445D01*
X104041198Y-40704445D01*
X104194843Y-40690462D01*
X104201864Y-40689823D01*
X104208566Y-40687645D01*
X104208568Y-40687645D01*
X104355298Y-40639970D01*
X104355301Y-40639969D01*
X104361997Y-40637793D01*
X104506623Y-40551578D01*
X104512516Y-40545966D01*
X104513146Y-40545642D01*
X104517335Y-40542462D01*
X104517894Y-40543198D01*
X104575640Y-40513472D01*
X104646311Y-40520264D01*
X104667853Y-40533050D01*
X104668586Y-40531929D01*
X104803577Y-40620266D01*
X104803581Y-40620268D01*
X104809475Y-40624125D01*
X104967289Y-40682815D01*
X104974270Y-40683746D01*
X104974272Y-40683747D01*
X105019812Y-40689823D01*
X105134183Y-40705083D01*
X105141194Y-40704445D01*
X105141198Y-40704445D01*
X105294843Y-40690462D01*
X105301864Y-40689823D01*
X105308566Y-40687645D01*
X105308568Y-40687645D01*
X105455298Y-40639970D01*
X105455301Y-40639969D01*
X105461997Y-40637793D01*
X105606623Y-40551578D01*
X105612516Y-40545966D01*
X105613146Y-40545642D01*
X105617335Y-40542462D01*
X105617894Y-40543198D01*
X105675640Y-40513472D01*
X105746311Y-40520264D01*
X105767853Y-40533050D01*
X105768586Y-40531929D01*
X105903577Y-40620266D01*
X105903581Y-40620268D01*
X105909475Y-40624125D01*
X106067289Y-40682815D01*
X106074270Y-40683746D01*
X106074272Y-40683747D01*
X106119812Y-40689823D01*
X106234183Y-40705083D01*
X106241194Y-40704445D01*
X106241198Y-40704445D01*
X106394843Y-40690462D01*
X106401864Y-40689823D01*
X106408566Y-40687645D01*
X106408568Y-40687645D01*
X106555298Y-40639970D01*
X106555301Y-40639969D01*
X106561997Y-40637793D01*
X106706623Y-40551578D01*
X106712516Y-40545966D01*
X106713146Y-40545642D01*
X106717335Y-40542462D01*
X106717894Y-40543198D01*
X106775640Y-40513472D01*
X106846311Y-40520264D01*
X106867853Y-40533050D01*
X106868586Y-40531929D01*
X107003577Y-40620266D01*
X107003581Y-40620268D01*
X107009475Y-40624125D01*
X107167289Y-40682815D01*
X107174270Y-40683746D01*
X107174272Y-40683747D01*
X107219812Y-40689823D01*
X107334183Y-40705083D01*
X107341194Y-40704445D01*
X107341198Y-40704445D01*
X107494843Y-40690462D01*
X107501864Y-40689823D01*
X107508566Y-40687645D01*
X107508568Y-40687645D01*
X107655298Y-40639970D01*
X107655301Y-40639969D01*
X107661997Y-40637793D01*
X107806623Y-40551578D01*
X107811717Y-40546727D01*
X107811721Y-40546724D01*
X107923454Y-40440322D01*
X107923455Y-40440320D01*
X107928554Y-40435465D01*
X107944934Y-40410812D01*
X108017836Y-40301085D01*
X108021731Y-40295223D01*
X108081521Y-40137823D01*
X108082748Y-40138289D01*
X108115270Y-40083657D01*
X108178803Y-40051970D01*
X108200995Y-40050000D01*
X114373500Y-40050000D01*
X114441621Y-40070002D01*
G37*
G04 #@! TD.AperFunction*
G04 #@! TA.AperFunction,Conductor*
G36*
X82419533Y-40070002D02*
G01*
X82466026Y-40123658D01*
X82470964Y-40136210D01*
X82514402Y-40266791D01*
X82518049Y-40272813D01*
X82518050Y-40272815D01*
X82584506Y-40382546D01*
X82601624Y-40410812D01*
X82718586Y-40531929D01*
X82724483Y-40535788D01*
X82853577Y-40620266D01*
X82853581Y-40620268D01*
X82859475Y-40624125D01*
X83017289Y-40682815D01*
X83024270Y-40683746D01*
X83024272Y-40683747D01*
X83069812Y-40689823D01*
X83184183Y-40705083D01*
X83191194Y-40704445D01*
X83191198Y-40704445D01*
X83344843Y-40690462D01*
X83351864Y-40689823D01*
X83358566Y-40687645D01*
X83358568Y-40687645D01*
X83505298Y-40639970D01*
X83505301Y-40639969D01*
X83511997Y-40637793D01*
X83656623Y-40551578D01*
X83662516Y-40545966D01*
X83663146Y-40545642D01*
X83667335Y-40542462D01*
X83667894Y-40543198D01*
X83725640Y-40513472D01*
X83796311Y-40520264D01*
X83817853Y-40533050D01*
X83818586Y-40531929D01*
X83953577Y-40620266D01*
X83953581Y-40620268D01*
X83959475Y-40624125D01*
X84117289Y-40682815D01*
X84124270Y-40683746D01*
X84124272Y-40683747D01*
X84169812Y-40689823D01*
X84284183Y-40705083D01*
X84291194Y-40704445D01*
X84291198Y-40704445D01*
X84444843Y-40690462D01*
X84451864Y-40689823D01*
X84458566Y-40687645D01*
X84458568Y-40687645D01*
X84605298Y-40639970D01*
X84605301Y-40639969D01*
X84611997Y-40637793D01*
X84756623Y-40551578D01*
X84762516Y-40545966D01*
X84763146Y-40545642D01*
X84767335Y-40542462D01*
X84767894Y-40543198D01*
X84825640Y-40513472D01*
X84896311Y-40520264D01*
X84917853Y-40533050D01*
X84918586Y-40531929D01*
X85053577Y-40620266D01*
X85053581Y-40620268D01*
X85059475Y-40624125D01*
X85217289Y-40682815D01*
X85224270Y-40683746D01*
X85224272Y-40683747D01*
X85269812Y-40689823D01*
X85384183Y-40705083D01*
X85391194Y-40704445D01*
X85391198Y-40704445D01*
X85544843Y-40690462D01*
X85551864Y-40689823D01*
X85558566Y-40687645D01*
X85558568Y-40687645D01*
X85705298Y-40639970D01*
X85705301Y-40639969D01*
X85711997Y-40637793D01*
X85856623Y-40551578D01*
X85862516Y-40545966D01*
X85863146Y-40545642D01*
X85867335Y-40542462D01*
X85867894Y-40543198D01*
X85925640Y-40513472D01*
X85996311Y-40520264D01*
X86017853Y-40533050D01*
X86018586Y-40531929D01*
X86153577Y-40620266D01*
X86153581Y-40620268D01*
X86159475Y-40624125D01*
X86317289Y-40682815D01*
X86324270Y-40683746D01*
X86324272Y-40683747D01*
X86369812Y-40689823D01*
X86484183Y-40705083D01*
X86491194Y-40704445D01*
X86491198Y-40704445D01*
X86644843Y-40690462D01*
X86651864Y-40689823D01*
X86658566Y-40687645D01*
X86658568Y-40687645D01*
X86805298Y-40639970D01*
X86805301Y-40639969D01*
X86811997Y-40637793D01*
X86956623Y-40551578D01*
X86962516Y-40545966D01*
X86963146Y-40545642D01*
X86967335Y-40542462D01*
X86967894Y-40543198D01*
X87025640Y-40513472D01*
X87096311Y-40520264D01*
X87117853Y-40533050D01*
X87118586Y-40531929D01*
X87253577Y-40620266D01*
X87253581Y-40620268D01*
X87259475Y-40624125D01*
X87417289Y-40682815D01*
X87424270Y-40683746D01*
X87424272Y-40683747D01*
X87469812Y-40689823D01*
X87584183Y-40705083D01*
X87591194Y-40704445D01*
X87591198Y-40704445D01*
X87744843Y-40690462D01*
X87751864Y-40689823D01*
X87758566Y-40687645D01*
X87758568Y-40687645D01*
X87905298Y-40639970D01*
X87905301Y-40639969D01*
X87911997Y-40637793D01*
X88056623Y-40551578D01*
X88062516Y-40545966D01*
X88063146Y-40545642D01*
X88067335Y-40542462D01*
X88067894Y-40543198D01*
X88125640Y-40513472D01*
X88196311Y-40520264D01*
X88217853Y-40533050D01*
X88218586Y-40531929D01*
X88353577Y-40620266D01*
X88353581Y-40620268D01*
X88359475Y-40624125D01*
X88517289Y-40682815D01*
X88524270Y-40683746D01*
X88524272Y-40683747D01*
X88569812Y-40689823D01*
X88684183Y-40705083D01*
X88691194Y-40704445D01*
X88691198Y-40704445D01*
X88844843Y-40690462D01*
X88851864Y-40689823D01*
X88858566Y-40687645D01*
X88858568Y-40687645D01*
X89005298Y-40639970D01*
X89005301Y-40639969D01*
X89011997Y-40637793D01*
X89156623Y-40551578D01*
X89162516Y-40545966D01*
X89163146Y-40545642D01*
X89167335Y-40542462D01*
X89167894Y-40543198D01*
X89225640Y-40513472D01*
X89296311Y-40520264D01*
X89317853Y-40533050D01*
X89318586Y-40531929D01*
X89453577Y-40620266D01*
X89453581Y-40620268D01*
X89459475Y-40624125D01*
X89617289Y-40682815D01*
X89624270Y-40683746D01*
X89624272Y-40683747D01*
X89669812Y-40689823D01*
X89784183Y-40705083D01*
X89791194Y-40704445D01*
X89791198Y-40704445D01*
X89944843Y-40690462D01*
X89951864Y-40689823D01*
X89958566Y-40687645D01*
X89958568Y-40687645D01*
X90105298Y-40639970D01*
X90105301Y-40639969D01*
X90111997Y-40637793D01*
X90256623Y-40551578D01*
X90262516Y-40545966D01*
X90263146Y-40545642D01*
X90267335Y-40542462D01*
X90267894Y-40543198D01*
X90325640Y-40513472D01*
X90396311Y-40520264D01*
X90417853Y-40533050D01*
X90418586Y-40531929D01*
X90542994Y-40613340D01*
X90589042Y-40667376D01*
X90600000Y-40718771D01*
X90600000Y-41448355D01*
X90579998Y-41516476D01*
X90563753Y-41536788D01*
X89701128Y-42412288D01*
X89639069Y-42446774D01*
X89568218Y-42442234D01*
X89533985Y-42423288D01*
X89530533Y-42420601D01*
X89513744Y-42407534D01*
X89398944Y-42345407D01*
X89328780Y-42307436D01*
X89328777Y-42307435D01*
X89324195Y-42304955D01*
X89120348Y-42234974D01*
X89115214Y-42234117D01*
X89115209Y-42234116D01*
X88912899Y-42200357D01*
X88912897Y-42200357D01*
X88907762Y-42199500D01*
X88692238Y-42199500D01*
X88687103Y-42200357D01*
X88687101Y-42200357D01*
X88484791Y-42234116D01*
X88484786Y-42234117D01*
X88479652Y-42234974D01*
X88275805Y-42304955D01*
X88271223Y-42307435D01*
X88271220Y-42307436D01*
X88201056Y-42345407D01*
X88086256Y-42407534D01*
X88082146Y-42410733D01*
X87930828Y-42528509D01*
X87916177Y-42539912D01*
X87913031Y-42543330D01*
X87849515Y-42574679D01*
X87778969Y-42566693D01*
X87723939Y-42521836D01*
X87706843Y-42485711D01*
X87703618Y-42474610D01*
X87665841Y-42410733D01*
X87627208Y-42345407D01*
X87627206Y-42345404D01*
X87623170Y-42338580D01*
X87511420Y-42226830D01*
X87504596Y-42222794D01*
X87504593Y-42222792D01*
X87382216Y-42150419D01*
X87382217Y-42150419D01*
X87375390Y-42146382D01*
X87367779Y-42144171D01*
X87367777Y-42144170D01*
X87319257Y-42130074D01*
X87223627Y-42102291D01*
X87202326Y-42100615D01*
X87190620Y-42099693D01*
X87190611Y-42099693D01*
X87188163Y-42099500D01*
X84751974Y-42099500D01*
X82311838Y-42099501D01*
X82293146Y-42100972D01*
X82282791Y-42101786D01*
X82282790Y-42101786D01*
X82276373Y-42102291D01*
X82270193Y-42104086D01*
X82270190Y-42104087D01*
X82132223Y-42144170D01*
X82132221Y-42144171D01*
X82124610Y-42146382D01*
X82117783Y-42150419D01*
X82117784Y-42150419D01*
X81995407Y-42222792D01*
X81995404Y-42222794D01*
X81988580Y-42226830D01*
X81876830Y-42338580D01*
X81872794Y-42345404D01*
X81872792Y-42345407D01*
X81834159Y-42410733D01*
X81796382Y-42474610D01*
X81794171Y-42482221D01*
X81794171Y-42482222D01*
X81752291Y-42626373D01*
X81749500Y-42661837D01*
X81749500Y-42664306D01*
X81749501Y-43182210D01*
X81748218Y-43200143D01*
X81744500Y-43226000D01*
X81744500Y-45324000D01*
X81744860Y-45327346D01*
X81744860Y-45327351D01*
X81748778Y-45363793D01*
X81749500Y-45377261D01*
X81749501Y-46038162D01*
X81752291Y-46073627D01*
X81796382Y-46225390D01*
X81800419Y-46232216D01*
X81872792Y-46354593D01*
X81872794Y-46354596D01*
X81876830Y-46361420D01*
X81988580Y-46473170D01*
X81995404Y-46477206D01*
X81995407Y-46477208D01*
X82034792Y-46500500D01*
X82124610Y-46553618D01*
X82132221Y-46555829D01*
X82132223Y-46555830D01*
X82180743Y-46569926D01*
X82276373Y-46597709D01*
X82297674Y-46599385D01*
X82309380Y-46600307D01*
X82309389Y-46600307D01*
X82311837Y-46600500D01*
X82492528Y-46600500D01*
X87124000Y-46600499D01*
X87192121Y-46620501D01*
X87238614Y-46674157D01*
X87250000Y-46726499D01*
X87250000Y-47920881D01*
X87229998Y-47989002D01*
X87176342Y-48035495D01*
X87159498Y-48041777D01*
X87129876Y-48050475D01*
X87128671Y-48051865D01*
X87127000Y-48059548D01*
X87127000Y-49535885D01*
X87131475Y-49551124D01*
X87132865Y-49552329D01*
X87150782Y-49556226D01*
X87213094Y-49590250D01*
X87247120Y-49652562D01*
X87250000Y-49679347D01*
X87250000Y-50420000D01*
X87229998Y-50488121D01*
X87176342Y-50534614D01*
X87124000Y-50546000D01*
X84895115Y-50546000D01*
X84879876Y-50550475D01*
X84878671Y-50551865D01*
X84877000Y-50559548D01*
X84877000Y-52035885D01*
X84881475Y-52051124D01*
X84882865Y-52052329D01*
X84890548Y-52054000D01*
X87124000Y-52054000D01*
X87192121Y-52074002D01*
X87238614Y-52127658D01*
X87250000Y-52180000D01*
X87250000Y-53373500D01*
X87229998Y-53441621D01*
X87176342Y-53488114D01*
X87124000Y-53499500D01*
X82492809Y-53499501D01*
X82311838Y-53499501D01*
X82293146Y-53500972D01*
X82282791Y-53501786D01*
X82282790Y-53501786D01*
X82276373Y-53502291D01*
X82270193Y-53504086D01*
X82270190Y-53504087D01*
X82132223Y-53544170D01*
X82132221Y-53544171D01*
X82124610Y-53546382D01*
X82117783Y-53550419D01*
X82117784Y-53550419D01*
X81995407Y-53622792D01*
X81995404Y-53622794D01*
X81988580Y-53626830D01*
X81876830Y-53738580D01*
X81872794Y-53745404D01*
X81872792Y-53745407D01*
X81813138Y-53846277D01*
X81796382Y-53874610D01*
X81752291Y-54026373D01*
X81749500Y-54061837D01*
X81749500Y-54064306D01*
X81749501Y-54582210D01*
X81748218Y-54600143D01*
X81744500Y-54626000D01*
X81744500Y-56724000D01*
X81744860Y-56727346D01*
X81744860Y-56727351D01*
X81748778Y-56763793D01*
X81749500Y-56777261D01*
X81749501Y-57438162D01*
X81752291Y-57473627D01*
X81796382Y-57625390D01*
X81800419Y-57632216D01*
X81872792Y-57754593D01*
X81872794Y-57754596D01*
X81876830Y-57761420D01*
X81988580Y-57873170D01*
X81995404Y-57877206D01*
X81995407Y-57877208D01*
X82034792Y-57900500D01*
X82124610Y-57953618D01*
X82132221Y-57955829D01*
X82132223Y-57955830D01*
X82180743Y-57969926D01*
X82276373Y-57997709D01*
X82297674Y-57999385D01*
X82309380Y-58000307D01*
X82309389Y-58000307D01*
X82311837Y-58000500D01*
X82492528Y-58000500D01*
X87124000Y-58000499D01*
X87192121Y-58020501D01*
X87238614Y-58074157D01*
X87250000Y-58126499D01*
X87250000Y-59320881D01*
X87229998Y-59389002D01*
X87176342Y-59435495D01*
X87159498Y-59441777D01*
X87129876Y-59450475D01*
X87128671Y-59451865D01*
X87127000Y-59459548D01*
X87127000Y-60935885D01*
X87131475Y-60951124D01*
X87132865Y-60952329D01*
X87150782Y-60956226D01*
X87213094Y-60990250D01*
X87247120Y-61052562D01*
X87250000Y-61079347D01*
X87250000Y-61820000D01*
X87229998Y-61888121D01*
X87176342Y-61934614D01*
X87124000Y-61946000D01*
X84895115Y-61946000D01*
X84879876Y-61950475D01*
X84878671Y-61951865D01*
X84877000Y-61959548D01*
X84877000Y-63435885D01*
X84881475Y-63451124D01*
X84882865Y-63452329D01*
X84890548Y-63454000D01*
X87124000Y-63454000D01*
X87192121Y-63474002D01*
X87238614Y-63527658D01*
X87250000Y-63580000D01*
X87250000Y-64773500D01*
X87229998Y-64841621D01*
X87176342Y-64888114D01*
X87124000Y-64899500D01*
X82492809Y-64899501D01*
X82311838Y-64899501D01*
X82293146Y-64900972D01*
X82282791Y-64901786D01*
X82282790Y-64901786D01*
X82276373Y-64902291D01*
X82270193Y-64904086D01*
X82270190Y-64904087D01*
X82132223Y-64944170D01*
X82132221Y-64944171D01*
X82124610Y-64946382D01*
X82117783Y-64950419D01*
X82117784Y-64950419D01*
X81995407Y-65022792D01*
X81995404Y-65022794D01*
X81988580Y-65026830D01*
X81876830Y-65138580D01*
X81872794Y-65145404D01*
X81872792Y-65145407D01*
X81813138Y-65246277D01*
X81796382Y-65274610D01*
X81752291Y-65426373D01*
X81749500Y-65461837D01*
X81749500Y-65464306D01*
X81749501Y-65932210D01*
X81748218Y-65950143D01*
X81744500Y-65976000D01*
X81744500Y-68074000D01*
X81744860Y-68077348D01*
X81748778Y-68113791D01*
X81749500Y-68127260D01*
X81749501Y-68838162D01*
X81752291Y-68873627D01*
X81796382Y-69025390D01*
X81800419Y-69032216D01*
X81872792Y-69154593D01*
X81872794Y-69154596D01*
X81876830Y-69161420D01*
X81988580Y-69273170D01*
X81995404Y-69277206D01*
X81995407Y-69277208D01*
X82034792Y-69300500D01*
X82124610Y-69353618D01*
X82132221Y-69355829D01*
X82132223Y-69355830D01*
X82180743Y-69369926D01*
X82276373Y-69397709D01*
X82297674Y-69399385D01*
X82309380Y-69400307D01*
X82309389Y-69400307D01*
X82311837Y-69400500D01*
X82492528Y-69400500D01*
X87124000Y-69400499D01*
X87192121Y-69420501D01*
X87238614Y-69474157D01*
X87250000Y-69526499D01*
X87250000Y-70720881D01*
X87229998Y-70789002D01*
X87176342Y-70835495D01*
X87159498Y-70841777D01*
X87129876Y-70850475D01*
X87128671Y-70851865D01*
X87127000Y-70859548D01*
X87127000Y-72335885D01*
X87131475Y-72351124D01*
X87132865Y-72352329D01*
X87150782Y-72356226D01*
X87213094Y-72390250D01*
X87247120Y-72452562D01*
X87250000Y-72479347D01*
X87250000Y-73220000D01*
X87229998Y-73288121D01*
X87176342Y-73334614D01*
X87124000Y-73346000D01*
X84895115Y-73346000D01*
X84879876Y-73350475D01*
X84878671Y-73351865D01*
X84877000Y-73359548D01*
X84877000Y-74835885D01*
X84881475Y-74851124D01*
X84882865Y-74852329D01*
X84890548Y-74854000D01*
X87124000Y-74854000D01*
X87192121Y-74874002D01*
X87238614Y-74927658D01*
X87250000Y-74980000D01*
X87250000Y-76173500D01*
X87229998Y-76241621D01*
X87176342Y-76288114D01*
X87124000Y-76299500D01*
X82492809Y-76299501D01*
X82311838Y-76299501D01*
X82293146Y-76300972D01*
X82282791Y-76301786D01*
X82282790Y-76301786D01*
X82276373Y-76302291D01*
X82270193Y-76304086D01*
X82270190Y-76304087D01*
X82132223Y-76344170D01*
X82132221Y-76344171D01*
X82124610Y-76346382D01*
X82117783Y-76350419D01*
X82117784Y-76350419D01*
X81995407Y-76422792D01*
X81995404Y-76422794D01*
X81988580Y-76426830D01*
X81876830Y-76538580D01*
X81872794Y-76545404D01*
X81872792Y-76545407D01*
X81813138Y-76646277D01*
X81796382Y-76674610D01*
X81752291Y-76826373D01*
X81749500Y-76861837D01*
X81749500Y-76864306D01*
X81749501Y-77382210D01*
X81748218Y-77400143D01*
X81744500Y-77426000D01*
X81744500Y-79524000D01*
X81744860Y-79527346D01*
X81744860Y-79527351D01*
X81748778Y-79563793D01*
X81749500Y-79577261D01*
X81749501Y-80238162D01*
X81752291Y-80273627D01*
X81796382Y-80425390D01*
X81800419Y-80432216D01*
X81872792Y-80554593D01*
X81872794Y-80554596D01*
X81876830Y-80561420D01*
X81988580Y-80673170D01*
X81995404Y-80677206D01*
X81995407Y-80677208D01*
X82034792Y-80700500D01*
X82124610Y-80753618D01*
X82132221Y-80755829D01*
X82132223Y-80755830D01*
X82180743Y-80769926D01*
X82276373Y-80797709D01*
X82297674Y-80799385D01*
X82309380Y-80800307D01*
X82309389Y-80800307D01*
X82311837Y-80800500D01*
X82492528Y-80800500D01*
X87124000Y-80800499D01*
X87192121Y-80820501D01*
X87238614Y-80874157D01*
X87250000Y-80926499D01*
X87250000Y-82120881D01*
X87229998Y-82189002D01*
X87176342Y-82235495D01*
X87159498Y-82241777D01*
X87129876Y-82250475D01*
X87128671Y-82251865D01*
X87127000Y-82259548D01*
X87127000Y-83735885D01*
X87131475Y-83751124D01*
X87132865Y-83752329D01*
X87150782Y-83756226D01*
X87213094Y-83790250D01*
X87247120Y-83852562D01*
X87250000Y-83879347D01*
X87250000Y-84620000D01*
X87229998Y-84688121D01*
X87176342Y-84734614D01*
X87124000Y-84746000D01*
X84895115Y-84746000D01*
X84879876Y-84750475D01*
X84878671Y-84751865D01*
X84877000Y-84759548D01*
X84877000Y-86235885D01*
X84881475Y-86251124D01*
X84882865Y-86252329D01*
X84890548Y-86254000D01*
X87124000Y-86254000D01*
X87192121Y-86274002D01*
X87238614Y-86327658D01*
X87250000Y-86380000D01*
X87250000Y-87573500D01*
X87229998Y-87641621D01*
X87176342Y-87688114D01*
X87124000Y-87699500D01*
X82492809Y-87699501D01*
X82311838Y-87699501D01*
X82293146Y-87700972D01*
X82282791Y-87701786D01*
X82282790Y-87701786D01*
X82276373Y-87702291D01*
X82270193Y-87704086D01*
X82270190Y-87704087D01*
X82132223Y-87744170D01*
X82132221Y-87744171D01*
X82124610Y-87746382D01*
X82117783Y-87750419D01*
X82117784Y-87750419D01*
X81995407Y-87822792D01*
X81995404Y-87822794D01*
X81988580Y-87826830D01*
X81876830Y-87938580D01*
X81872794Y-87945404D01*
X81872792Y-87945407D01*
X81813138Y-88046277D01*
X81796382Y-88074610D01*
X81752291Y-88226373D01*
X81749500Y-88261837D01*
X81749501Y-88524573D01*
X81749501Y-88782210D01*
X81748218Y-88800143D01*
X81744500Y-88826000D01*
X81744500Y-90924000D01*
X81744860Y-90927346D01*
X81744860Y-90927351D01*
X81748778Y-90963793D01*
X81749500Y-90977261D01*
X81749501Y-91638162D01*
X81752291Y-91673627D01*
X81754086Y-91679807D01*
X81754087Y-91679810D01*
X81794170Y-91817777D01*
X81796382Y-91825390D01*
X81800419Y-91832216D01*
X81872792Y-91954593D01*
X81872794Y-91954596D01*
X81876830Y-91961420D01*
X81988580Y-92073170D01*
X81995404Y-92077206D01*
X81995407Y-92077208D01*
X82034792Y-92100500D01*
X82124610Y-92153618D01*
X82132221Y-92155829D01*
X82132223Y-92155830D01*
X82180743Y-92169926D01*
X82276373Y-92197709D01*
X82297674Y-92199385D01*
X82309380Y-92200307D01*
X82309389Y-92200307D01*
X82311837Y-92200500D01*
X82492528Y-92200500D01*
X87124000Y-92200499D01*
X87192121Y-92220501D01*
X87238614Y-92274157D01*
X87250000Y-92326499D01*
X87250000Y-92373500D01*
X87229998Y-92441621D01*
X87176342Y-92488114D01*
X87124000Y-92499500D01*
X77048741Y-92499500D01*
X77029357Y-92498000D01*
X77015050Y-92495772D01*
X77015047Y-92495772D01*
X77006177Y-92494391D01*
X76997275Y-92495555D01*
X76997273Y-92495555D01*
X76993969Y-92495987D01*
X76991363Y-92496328D01*
X76966041Y-92497071D01*
X76832564Y-92487525D01*
X76795590Y-92484880D01*
X76777796Y-92482322D01*
X76756927Y-92477782D01*
X76586343Y-92440674D01*
X76569098Y-92435610D01*
X76385526Y-92367140D01*
X76369174Y-92359673D01*
X76197217Y-92265778D01*
X76182093Y-92256058D01*
X76025247Y-92138644D01*
X76011661Y-92126871D01*
X75873129Y-91988339D01*
X75861356Y-91974753D01*
X75743942Y-91817907D01*
X75734222Y-91802783D01*
X75640327Y-91630826D01*
X75632860Y-91614474D01*
X75564390Y-91430902D01*
X75559324Y-91413652D01*
X75535223Y-91302856D01*
X75517678Y-91222204D01*
X75515120Y-91204410D01*
X75503685Y-91044537D01*
X75504758Y-91022044D01*
X75504253Y-91021999D01*
X75504688Y-91017159D01*
X75505496Y-91012354D01*
X75505647Y-91000000D01*
X75501773Y-90972949D01*
X75500500Y-90955087D01*
X75500500Y-89632200D01*
X76398747Y-89632200D01*
X76399306Y-89636444D01*
X76399306Y-89636448D01*
X76415699Y-89760969D01*
X76436129Y-89916149D01*
X76511702Y-90192398D01*
X76513386Y-90196346D01*
X76618629Y-90443083D01*
X76624068Y-90455835D01*
X76771146Y-90701585D01*
X76950215Y-90925100D01*
X77157962Y-91122245D01*
X77390543Y-91289371D01*
X77643653Y-91423386D01*
X77912610Y-91521810D01*
X78192436Y-91582822D01*
X78231901Y-91585928D01*
X78414597Y-91600307D01*
X78414604Y-91600307D01*
X78417053Y-91600500D01*
X78571992Y-91600500D01*
X78574128Y-91600354D01*
X78574139Y-91600354D01*
X78781460Y-91586220D01*
X78781466Y-91586219D01*
X78785737Y-91585928D01*
X78789932Y-91585059D01*
X78789934Y-91585059D01*
X78925962Y-91556889D01*
X79066186Y-91527850D01*
X79336158Y-91432248D01*
X79590658Y-91300891D01*
X79594159Y-91298430D01*
X79594163Y-91298428D01*
X79821471Y-91138673D01*
X79821477Y-91138668D01*
X79824976Y-91136209D01*
X79966326Y-91004859D01*
X80031633Y-90944172D01*
X80031636Y-90944169D01*
X80034776Y-90941251D01*
X80045575Y-90928058D01*
X80213461Y-90722941D01*
X80216177Y-90719623D01*
X80365820Y-90475427D01*
X80372802Y-90459522D01*
X80479214Y-90217110D01*
X80479215Y-90217106D01*
X80480938Y-90213182D01*
X80559400Y-89937739D01*
X80599754Y-89654196D01*
X80600915Y-89432400D01*
X80601231Y-89372086D01*
X80601231Y-89372080D01*
X80601253Y-89367800D01*
X80597798Y-89341552D01*
X80564431Y-89088107D01*
X80563871Y-89083851D01*
X80549516Y-89031376D01*
X80502003Y-88857699D01*
X80488298Y-88807602D01*
X80375932Y-88544165D01*
X80228854Y-88298415D01*
X80199551Y-88261838D01*
X80052475Y-88078258D01*
X80049785Y-88074900D01*
X79842038Y-87877755D01*
X79609457Y-87710629D01*
X79356347Y-87576614D01*
X79087390Y-87478190D01*
X78807564Y-87417178D01*
X78764389Y-87413780D01*
X78585403Y-87399693D01*
X78585396Y-87399693D01*
X78582947Y-87399500D01*
X78428008Y-87399500D01*
X78425872Y-87399646D01*
X78425861Y-87399646D01*
X78218540Y-87413780D01*
X78218534Y-87413781D01*
X78214263Y-87414072D01*
X78210068Y-87414941D01*
X78210066Y-87414941D01*
X78074039Y-87443111D01*
X77933814Y-87472150D01*
X77663842Y-87567752D01*
X77409342Y-87699109D01*
X77405841Y-87701570D01*
X77405837Y-87701572D01*
X77178529Y-87861327D01*
X77178523Y-87861332D01*
X77175024Y-87863791D01*
X76965224Y-88058749D01*
X76962510Y-88062065D01*
X76962507Y-88062068D01*
X76850362Y-88199083D01*
X76783823Y-88280377D01*
X76634180Y-88524573D01*
X76632453Y-88528507D01*
X76632452Y-88528509D01*
X76525444Y-88772280D01*
X76519062Y-88786818D01*
X76440600Y-89062261D01*
X76400246Y-89345804D01*
X76399984Y-89395952D01*
X76399002Y-89583553D01*
X76398747Y-89632200D01*
X75500500Y-89632200D01*
X75500500Y-85906320D01*
X81996000Y-85906320D01*
X81996670Y-85915481D01*
X82005539Y-85975731D01*
X82011280Y-85994205D01*
X82057983Y-86089328D01*
X82069943Y-86106033D01*
X82144499Y-86180459D01*
X82161227Y-86192391D01*
X82256439Y-86238931D01*
X82274906Y-86244639D01*
X82334547Y-86253340D01*
X82343647Y-86254000D01*
X84604885Y-86254000D01*
X84620124Y-86249525D01*
X84621329Y-86248135D01*
X84623000Y-86240452D01*
X84623000Y-85645115D01*
X84618525Y-85629876D01*
X84617135Y-85628671D01*
X84609452Y-85627000D01*
X82014115Y-85627000D01*
X81998876Y-85631475D01*
X81997671Y-85632865D01*
X81996000Y-85640548D01*
X81996000Y-85906320D01*
X75500500Y-85906320D01*
X75500500Y-85354885D01*
X81996000Y-85354885D01*
X82000475Y-85370124D01*
X82001865Y-85371329D01*
X82009548Y-85373000D01*
X84604885Y-85373000D01*
X84620124Y-85368525D01*
X84621329Y-85367135D01*
X84623000Y-85359452D01*
X84623000Y-84764115D01*
X84618525Y-84748876D01*
X84617135Y-84747671D01*
X84609452Y-84746000D01*
X82343680Y-84746000D01*
X82334519Y-84746670D01*
X82274269Y-84755539D01*
X82255795Y-84761280D01*
X82160672Y-84807983D01*
X82143967Y-84819943D01*
X82069541Y-84894499D01*
X82057609Y-84911227D01*
X82011069Y-85006439D01*
X82005361Y-85024906D01*
X81996660Y-85084547D01*
X81996000Y-85093647D01*
X81996000Y-85354885D01*
X75500500Y-85354885D01*
X75500500Y-83406320D01*
X81996000Y-83406320D01*
X81996670Y-83415481D01*
X82005539Y-83475731D01*
X82011280Y-83494205D01*
X82057983Y-83589328D01*
X82069943Y-83606033D01*
X82144499Y-83680459D01*
X82161227Y-83692391D01*
X82256439Y-83738931D01*
X82274906Y-83744639D01*
X82334547Y-83753340D01*
X82343647Y-83754000D01*
X82354885Y-83754000D01*
X82370124Y-83749525D01*
X82371329Y-83748135D01*
X82373000Y-83740452D01*
X82373000Y-83735885D01*
X82627000Y-83735885D01*
X82631475Y-83751124D01*
X82632865Y-83752329D01*
X82640548Y-83754000D01*
X82656320Y-83754000D01*
X82665481Y-83753330D01*
X82725731Y-83744461D01*
X82744205Y-83738720D01*
X82839328Y-83692017D01*
X82856033Y-83680057D01*
X82930459Y-83605501D01*
X82942391Y-83588773D01*
X82988931Y-83493561D01*
X82994639Y-83475093D01*
X82999920Y-83438894D01*
X83029546Y-83374374D01*
X83089351Y-83336113D01*
X83160347Y-83336259D01*
X83219994Y-83374766D01*
X83249354Y-83439407D01*
X83250212Y-83447200D01*
X83252291Y-83473627D01*
X83254086Y-83479804D01*
X83254087Y-83479810D01*
X83292519Y-83612095D01*
X83296382Y-83625390D01*
X83300419Y-83632216D01*
X83372792Y-83754593D01*
X83372794Y-83754596D01*
X83376830Y-83761420D01*
X83488580Y-83873170D01*
X83495404Y-83877206D01*
X83495407Y-83877208D01*
X83596277Y-83936862D01*
X83624610Y-83953618D01*
X83632221Y-83955829D01*
X83632223Y-83955830D01*
X83680743Y-83969926D01*
X83776373Y-83997709D01*
X83797674Y-83999385D01*
X83809380Y-84000307D01*
X83809389Y-84000307D01*
X83811837Y-84000500D01*
X83999847Y-84000500D01*
X84188162Y-84000499D01*
X84206854Y-83999028D01*
X84217209Y-83998214D01*
X84217210Y-83998214D01*
X84223627Y-83997709D01*
X84229807Y-83995914D01*
X84229810Y-83995913D01*
X84367777Y-83955830D01*
X84367779Y-83955829D01*
X84375390Y-83953618D01*
X84403723Y-83936862D01*
X84504593Y-83877208D01*
X84504596Y-83877206D01*
X84511420Y-83873170D01*
X84623170Y-83761420D01*
X84641549Y-83730344D01*
X84693439Y-83681893D01*
X84763290Y-83669188D01*
X84828921Y-83696263D01*
X84858450Y-83730342D01*
X84876830Y-83761420D01*
X84988580Y-83873170D01*
X84995404Y-83877206D01*
X84995407Y-83877208D01*
X85096277Y-83936862D01*
X85124610Y-83953618D01*
X85132221Y-83955829D01*
X85132223Y-83955830D01*
X85180743Y-83969926D01*
X85276373Y-83997709D01*
X85297674Y-83999385D01*
X85309380Y-84000307D01*
X85309389Y-84000307D01*
X85311837Y-84000500D01*
X85499847Y-84000500D01*
X85688162Y-84000499D01*
X85706854Y-83999028D01*
X85717209Y-83998214D01*
X85717210Y-83998214D01*
X85723627Y-83997709D01*
X85729807Y-83995914D01*
X85729810Y-83995913D01*
X85867777Y-83955830D01*
X85867779Y-83955829D01*
X85875390Y-83953618D01*
X85903723Y-83936862D01*
X86004593Y-83877208D01*
X86004596Y-83877206D01*
X86011420Y-83873170D01*
X86123170Y-83761420D01*
X86127206Y-83754596D01*
X86127208Y-83754593D01*
X86199581Y-83632216D01*
X86203618Y-83625390D01*
X86209115Y-83606471D01*
X86239528Y-83501786D01*
X86247709Y-83473627D01*
X86248215Y-83467209D01*
X86249801Y-83447043D01*
X86275085Y-83380701D01*
X86332223Y-83338561D01*
X86403073Y-83334000D01*
X86465141Y-83368469D01*
X86498721Y-83431022D01*
X86500070Y-83438577D01*
X86505539Y-83475731D01*
X86511280Y-83494205D01*
X86557983Y-83589328D01*
X86569943Y-83606033D01*
X86644499Y-83680459D01*
X86661227Y-83692391D01*
X86756439Y-83738931D01*
X86774906Y-83744639D01*
X86834547Y-83753340D01*
X86843647Y-83754000D01*
X86854885Y-83754000D01*
X86870124Y-83749525D01*
X86871329Y-83748135D01*
X86873000Y-83740452D01*
X86873000Y-82264115D01*
X86868525Y-82248876D01*
X86867135Y-82247671D01*
X86859452Y-82246000D01*
X86843680Y-82246000D01*
X86834519Y-82246670D01*
X86774269Y-82255539D01*
X86755795Y-82261280D01*
X86660672Y-82307983D01*
X86643967Y-82319943D01*
X86569541Y-82394499D01*
X86557609Y-82411227D01*
X86511069Y-82506439D01*
X86505361Y-82524907D01*
X86500080Y-82561106D01*
X86470454Y-82625626D01*
X86410649Y-82663887D01*
X86339653Y-82663741D01*
X86280006Y-82625234D01*
X86250646Y-82560593D01*
X86249788Y-82552800D01*
X86248214Y-82532791D01*
X86248213Y-82532784D01*
X86247709Y-82526373D01*
X86203618Y-82374610D01*
X86163994Y-82307609D01*
X86127208Y-82245407D01*
X86127206Y-82245404D01*
X86123170Y-82238580D01*
X86011420Y-82126830D01*
X86004596Y-82122794D01*
X86004593Y-82122792D01*
X85882216Y-82050419D01*
X85882217Y-82050419D01*
X85875390Y-82046382D01*
X85867779Y-82044171D01*
X85867777Y-82044170D01*
X85819257Y-82030074D01*
X85723627Y-82002291D01*
X85702326Y-82000615D01*
X85690620Y-81999693D01*
X85690611Y-81999693D01*
X85688163Y-81999500D01*
X85500153Y-81999500D01*
X85311838Y-81999501D01*
X85293146Y-82000972D01*
X85282791Y-82001786D01*
X85282790Y-82001786D01*
X85276373Y-82002291D01*
X85270193Y-82004086D01*
X85270190Y-82004087D01*
X85132223Y-82044170D01*
X85132221Y-82044171D01*
X85124610Y-82046382D01*
X85117783Y-82050419D01*
X85117784Y-82050419D01*
X84995407Y-82122792D01*
X84995404Y-82122794D01*
X84988580Y-82126830D01*
X84876830Y-82238580D01*
X84858451Y-82269656D01*
X84806561Y-82318107D01*
X84736710Y-82330812D01*
X84671079Y-82303737D01*
X84641550Y-82269658D01*
X84623170Y-82238580D01*
X84511420Y-82126830D01*
X84504596Y-82122794D01*
X84504593Y-82122792D01*
X84382216Y-82050419D01*
X84382217Y-82050419D01*
X84375390Y-82046382D01*
X84367779Y-82044171D01*
X84367777Y-82044170D01*
X84319257Y-82030074D01*
X84223627Y-82002291D01*
X84202326Y-82000615D01*
X84190620Y-81999693D01*
X84190611Y-81999693D01*
X84188163Y-81999500D01*
X84000153Y-81999500D01*
X83811838Y-81999501D01*
X83793146Y-82000972D01*
X83782791Y-82001786D01*
X83782790Y-82001786D01*
X83776373Y-82002291D01*
X83770193Y-82004086D01*
X83770190Y-82004087D01*
X83632223Y-82044170D01*
X83632221Y-82044171D01*
X83624610Y-82046382D01*
X83617783Y-82050419D01*
X83617784Y-82050419D01*
X83495407Y-82122792D01*
X83495404Y-82122794D01*
X83488580Y-82126830D01*
X83376830Y-82238580D01*
X83372794Y-82245404D01*
X83372792Y-82245407D01*
X83336006Y-82307609D01*
X83296382Y-82374610D01*
X83252291Y-82526373D01*
X83251787Y-82532780D01*
X83251786Y-82532784D01*
X83250199Y-82552957D01*
X83224915Y-82619299D01*
X83167777Y-82661439D01*
X83096927Y-82666000D01*
X83034859Y-82631531D01*
X83001279Y-82568978D01*
X82999930Y-82561423D01*
X82994461Y-82524269D01*
X82988720Y-82505795D01*
X82942017Y-82410672D01*
X82930057Y-82393967D01*
X82855501Y-82319541D01*
X82838773Y-82307609D01*
X82743561Y-82261069D01*
X82725094Y-82255361D01*
X82665453Y-82246660D01*
X82656353Y-82246000D01*
X82645115Y-82246000D01*
X82629876Y-82250475D01*
X82628671Y-82251865D01*
X82627000Y-82259548D01*
X82627000Y-83735885D01*
X82373000Y-83735885D01*
X82373000Y-83145115D01*
X82368525Y-83129876D01*
X82367135Y-83128671D01*
X82359452Y-83127000D01*
X82014115Y-83127000D01*
X81998876Y-83131475D01*
X81997671Y-83132865D01*
X81996000Y-83140548D01*
X81996000Y-83406320D01*
X75500500Y-83406320D01*
X75500500Y-82854885D01*
X81996000Y-82854885D01*
X82000475Y-82870124D01*
X82001865Y-82871329D01*
X82009548Y-82873000D01*
X82354885Y-82873000D01*
X82370124Y-82868525D01*
X82371329Y-82867135D01*
X82373000Y-82859452D01*
X82373000Y-82264115D01*
X82368525Y-82248876D01*
X82367135Y-82247671D01*
X82359452Y-82246000D01*
X82343680Y-82246000D01*
X82334519Y-82246670D01*
X82274269Y-82255539D01*
X82255795Y-82261280D01*
X82160672Y-82307983D01*
X82143967Y-82319943D01*
X82069541Y-82394499D01*
X82057609Y-82411227D01*
X82011069Y-82506439D01*
X82005361Y-82524906D01*
X81996660Y-82584547D01*
X81996000Y-82593647D01*
X81996000Y-82854885D01*
X75500500Y-82854885D01*
X75500500Y-74506320D01*
X81996000Y-74506320D01*
X81996670Y-74515481D01*
X82005539Y-74575731D01*
X82011280Y-74594205D01*
X82057983Y-74689328D01*
X82069943Y-74706033D01*
X82144499Y-74780459D01*
X82161227Y-74792391D01*
X82256439Y-74838931D01*
X82274906Y-74844639D01*
X82334547Y-74853340D01*
X82343647Y-74854000D01*
X84604885Y-74854000D01*
X84620124Y-74849525D01*
X84621329Y-74848135D01*
X84623000Y-74840452D01*
X84623000Y-74245115D01*
X84618525Y-74229876D01*
X84617135Y-74228671D01*
X84609452Y-74227000D01*
X82014115Y-74227000D01*
X81998876Y-74231475D01*
X81997671Y-74232865D01*
X81996000Y-74240548D01*
X81996000Y-74506320D01*
X75500500Y-74506320D01*
X75500500Y-73954885D01*
X81996000Y-73954885D01*
X82000475Y-73970124D01*
X82001865Y-73971329D01*
X82009548Y-73973000D01*
X84604885Y-73973000D01*
X84620124Y-73968525D01*
X84621329Y-73967135D01*
X84623000Y-73959452D01*
X84623000Y-73364115D01*
X84618525Y-73348876D01*
X84617135Y-73347671D01*
X84609452Y-73346000D01*
X82343680Y-73346000D01*
X82334519Y-73346670D01*
X82274269Y-73355539D01*
X82255795Y-73361280D01*
X82160672Y-73407983D01*
X82143967Y-73419943D01*
X82069541Y-73494499D01*
X82057609Y-73511227D01*
X82011069Y-73606439D01*
X82005361Y-73624906D01*
X81996660Y-73684547D01*
X81996000Y-73693647D01*
X81996000Y-73954885D01*
X75500500Y-73954885D01*
X75500500Y-72006320D01*
X81996000Y-72006320D01*
X81996670Y-72015481D01*
X82005539Y-72075731D01*
X82011280Y-72094205D01*
X82057983Y-72189328D01*
X82069943Y-72206033D01*
X82144499Y-72280459D01*
X82161227Y-72292391D01*
X82256439Y-72338931D01*
X82274906Y-72344639D01*
X82334547Y-72353340D01*
X82343647Y-72354000D01*
X82354885Y-72354000D01*
X82370124Y-72349525D01*
X82371329Y-72348135D01*
X82373000Y-72340452D01*
X82373000Y-72335885D01*
X82627000Y-72335885D01*
X82631475Y-72351124D01*
X82632865Y-72352329D01*
X82640548Y-72354000D01*
X82656320Y-72354000D01*
X82665481Y-72353330D01*
X82725731Y-72344461D01*
X82744205Y-72338720D01*
X82839328Y-72292017D01*
X82856033Y-72280057D01*
X82930459Y-72205501D01*
X82942391Y-72188773D01*
X82988931Y-72093561D01*
X82994639Y-72075093D01*
X82999920Y-72038894D01*
X83029546Y-71974374D01*
X83089351Y-71936113D01*
X83160347Y-71936259D01*
X83219994Y-71974766D01*
X83249354Y-72039407D01*
X83250212Y-72047200D01*
X83252291Y-72073627D01*
X83254086Y-72079804D01*
X83254087Y-72079810D01*
X83292519Y-72212095D01*
X83296382Y-72225390D01*
X83300419Y-72232216D01*
X83372792Y-72354593D01*
X83372794Y-72354596D01*
X83376830Y-72361420D01*
X83488580Y-72473170D01*
X83495404Y-72477206D01*
X83495407Y-72477208D01*
X83596277Y-72536862D01*
X83624610Y-72553618D01*
X83632221Y-72555829D01*
X83632223Y-72555830D01*
X83680743Y-72569926D01*
X83776373Y-72597709D01*
X83797674Y-72599385D01*
X83809380Y-72600307D01*
X83809389Y-72600307D01*
X83811837Y-72600500D01*
X83999847Y-72600500D01*
X84188162Y-72600499D01*
X84206854Y-72599028D01*
X84217209Y-72598214D01*
X84217210Y-72598214D01*
X84223627Y-72597709D01*
X84229807Y-72595914D01*
X84229810Y-72595913D01*
X84367777Y-72555830D01*
X84367779Y-72555829D01*
X84375390Y-72553618D01*
X84403723Y-72536862D01*
X84504593Y-72477208D01*
X84504596Y-72477206D01*
X84511420Y-72473170D01*
X84623170Y-72361420D01*
X84641549Y-72330344D01*
X84693439Y-72281893D01*
X84763290Y-72269188D01*
X84828921Y-72296263D01*
X84858450Y-72330342D01*
X84876830Y-72361420D01*
X84988580Y-72473170D01*
X84995404Y-72477206D01*
X84995407Y-72477208D01*
X85096277Y-72536862D01*
X85124610Y-72553618D01*
X85132221Y-72555829D01*
X85132223Y-72555830D01*
X85180743Y-72569926D01*
X85276373Y-72597709D01*
X85297674Y-72599385D01*
X85309380Y-72600307D01*
X85309389Y-72600307D01*
X85311837Y-72600500D01*
X85499847Y-72600500D01*
X85688162Y-72600499D01*
X85706854Y-72599028D01*
X85717209Y-72598214D01*
X85717210Y-72598214D01*
X85723627Y-72597709D01*
X85729807Y-72595914D01*
X85729810Y-72595913D01*
X85867777Y-72555830D01*
X85867779Y-72555829D01*
X85875390Y-72553618D01*
X85903723Y-72536862D01*
X86004593Y-72477208D01*
X86004596Y-72477206D01*
X86011420Y-72473170D01*
X86123170Y-72361420D01*
X86127206Y-72354596D01*
X86127208Y-72354593D01*
X86199581Y-72232216D01*
X86203618Y-72225390D01*
X86209115Y-72206471D01*
X86239528Y-72101786D01*
X86247709Y-72073627D01*
X86248215Y-72067209D01*
X86249801Y-72047043D01*
X86275085Y-71980701D01*
X86332223Y-71938561D01*
X86403073Y-71934000D01*
X86465141Y-71968469D01*
X86498721Y-72031022D01*
X86500070Y-72038577D01*
X86505539Y-72075731D01*
X86511280Y-72094205D01*
X86557983Y-72189328D01*
X86569943Y-72206033D01*
X86644499Y-72280459D01*
X86661227Y-72292391D01*
X86756439Y-72338931D01*
X86774906Y-72344639D01*
X86834547Y-72353340D01*
X86843647Y-72354000D01*
X86854885Y-72354000D01*
X86870124Y-72349525D01*
X86871329Y-72348135D01*
X86873000Y-72340452D01*
X86873000Y-70864115D01*
X86868525Y-70848876D01*
X86867135Y-70847671D01*
X86859452Y-70846000D01*
X86843680Y-70846000D01*
X86834519Y-70846670D01*
X86774269Y-70855539D01*
X86755795Y-70861280D01*
X86660672Y-70907983D01*
X86643967Y-70919943D01*
X86569541Y-70994499D01*
X86557609Y-71011227D01*
X86511069Y-71106439D01*
X86505361Y-71124907D01*
X86500080Y-71161106D01*
X86470454Y-71225626D01*
X86410649Y-71263887D01*
X86339653Y-71263741D01*
X86280006Y-71225234D01*
X86250646Y-71160593D01*
X86249788Y-71152800D01*
X86248214Y-71132791D01*
X86248213Y-71132784D01*
X86247709Y-71126373D01*
X86203618Y-70974610D01*
X86163994Y-70907609D01*
X86127208Y-70845407D01*
X86127206Y-70845404D01*
X86123170Y-70838580D01*
X86011420Y-70726830D01*
X86004596Y-70722794D01*
X86004593Y-70722792D01*
X85882216Y-70650419D01*
X85882217Y-70650419D01*
X85875390Y-70646382D01*
X85867779Y-70644171D01*
X85867777Y-70644170D01*
X85819257Y-70630074D01*
X85723627Y-70602291D01*
X85702326Y-70600615D01*
X85690620Y-70599693D01*
X85690611Y-70599693D01*
X85688163Y-70599500D01*
X85500153Y-70599500D01*
X85311838Y-70599501D01*
X85293146Y-70600972D01*
X85282791Y-70601786D01*
X85282790Y-70601786D01*
X85276373Y-70602291D01*
X85270193Y-70604086D01*
X85270190Y-70604087D01*
X85132223Y-70644170D01*
X85132221Y-70644171D01*
X85124610Y-70646382D01*
X85117783Y-70650419D01*
X85117784Y-70650419D01*
X84995407Y-70722792D01*
X84995404Y-70722794D01*
X84988580Y-70726830D01*
X84876830Y-70838580D01*
X84858451Y-70869656D01*
X84806561Y-70918107D01*
X84736710Y-70930812D01*
X84671079Y-70903737D01*
X84641550Y-70869658D01*
X84623170Y-70838580D01*
X84511420Y-70726830D01*
X84504596Y-70722794D01*
X84504593Y-70722792D01*
X84382216Y-70650419D01*
X84382217Y-70650419D01*
X84375390Y-70646382D01*
X84367779Y-70644171D01*
X84367777Y-70644170D01*
X84319257Y-70630074D01*
X84223627Y-70602291D01*
X84202326Y-70600615D01*
X84190620Y-70599693D01*
X84190611Y-70599693D01*
X84188163Y-70599500D01*
X84000153Y-70599500D01*
X83811838Y-70599501D01*
X83793146Y-70600972D01*
X83782791Y-70601786D01*
X83782790Y-70601786D01*
X83776373Y-70602291D01*
X83770193Y-70604086D01*
X83770190Y-70604087D01*
X83632223Y-70644170D01*
X83632221Y-70644171D01*
X83624610Y-70646382D01*
X83617783Y-70650419D01*
X83617784Y-70650419D01*
X83495407Y-70722792D01*
X83495404Y-70722794D01*
X83488580Y-70726830D01*
X83376830Y-70838580D01*
X83372794Y-70845404D01*
X83372792Y-70845407D01*
X83336006Y-70907609D01*
X83296382Y-70974610D01*
X83252291Y-71126373D01*
X83251787Y-71132780D01*
X83251786Y-71132784D01*
X83250199Y-71152957D01*
X83224915Y-71219299D01*
X83167777Y-71261439D01*
X83096927Y-71266000D01*
X83034859Y-71231531D01*
X83001279Y-71168978D01*
X82999930Y-71161423D01*
X82994461Y-71124269D01*
X82988720Y-71105795D01*
X82942017Y-71010672D01*
X82930057Y-70993967D01*
X82855501Y-70919541D01*
X82838773Y-70907609D01*
X82743561Y-70861069D01*
X82725094Y-70855361D01*
X82665453Y-70846660D01*
X82656353Y-70846000D01*
X82645115Y-70846000D01*
X82629876Y-70850475D01*
X82628671Y-70851865D01*
X82627000Y-70859548D01*
X82627000Y-72335885D01*
X82373000Y-72335885D01*
X82373000Y-71745115D01*
X82368525Y-71729876D01*
X82367135Y-71728671D01*
X82359452Y-71727000D01*
X82014115Y-71727000D01*
X81998876Y-71731475D01*
X81997671Y-71732865D01*
X81996000Y-71740548D01*
X81996000Y-72006320D01*
X75500500Y-72006320D01*
X75500500Y-71454885D01*
X81996000Y-71454885D01*
X82000475Y-71470124D01*
X82001865Y-71471329D01*
X82009548Y-71473000D01*
X82354885Y-71473000D01*
X82370124Y-71468525D01*
X82371329Y-71467135D01*
X82373000Y-71459452D01*
X82373000Y-70864115D01*
X82368525Y-70848876D01*
X82367135Y-70847671D01*
X82359452Y-70846000D01*
X82343680Y-70846000D01*
X82334519Y-70846670D01*
X82274269Y-70855539D01*
X82255795Y-70861280D01*
X82160672Y-70907983D01*
X82143967Y-70919943D01*
X82069541Y-70994499D01*
X82057609Y-71011227D01*
X82011069Y-71106439D01*
X82005361Y-71124906D01*
X81996660Y-71184547D01*
X81996000Y-71193647D01*
X81996000Y-71454885D01*
X75500500Y-71454885D01*
X75500500Y-63106320D01*
X81996000Y-63106320D01*
X81996670Y-63115481D01*
X82005539Y-63175731D01*
X82011280Y-63194205D01*
X82057983Y-63289328D01*
X82069943Y-63306033D01*
X82144499Y-63380459D01*
X82161227Y-63392391D01*
X82256439Y-63438931D01*
X82274906Y-63444639D01*
X82334547Y-63453340D01*
X82343647Y-63454000D01*
X84604885Y-63454000D01*
X84620124Y-63449525D01*
X84621329Y-63448135D01*
X84623000Y-63440452D01*
X84623000Y-62845115D01*
X84618525Y-62829876D01*
X84617135Y-62828671D01*
X84609452Y-62827000D01*
X82014115Y-62827000D01*
X81998876Y-62831475D01*
X81997671Y-62832865D01*
X81996000Y-62840548D01*
X81996000Y-63106320D01*
X75500500Y-63106320D01*
X75500500Y-62554885D01*
X81996000Y-62554885D01*
X82000475Y-62570124D01*
X82001865Y-62571329D01*
X82009548Y-62573000D01*
X84604885Y-62573000D01*
X84620124Y-62568525D01*
X84621329Y-62567135D01*
X84623000Y-62559452D01*
X84623000Y-61964115D01*
X84618525Y-61948876D01*
X84617135Y-61947671D01*
X84609452Y-61946000D01*
X82343680Y-61946000D01*
X82334519Y-61946670D01*
X82274269Y-61955539D01*
X82255795Y-61961280D01*
X82160672Y-62007983D01*
X82143967Y-62019943D01*
X82069541Y-62094499D01*
X82057609Y-62111227D01*
X82011069Y-62206439D01*
X82005361Y-62224906D01*
X81996660Y-62284547D01*
X81996000Y-62293647D01*
X81996000Y-62554885D01*
X75500500Y-62554885D01*
X75500500Y-60606320D01*
X81996000Y-60606320D01*
X81996670Y-60615481D01*
X82005539Y-60675731D01*
X82011280Y-60694205D01*
X82057983Y-60789328D01*
X82069943Y-60806033D01*
X82144499Y-60880459D01*
X82161227Y-60892391D01*
X82256439Y-60938931D01*
X82274906Y-60944639D01*
X82334547Y-60953340D01*
X82343647Y-60954000D01*
X82354885Y-60954000D01*
X82370124Y-60949525D01*
X82371329Y-60948135D01*
X82373000Y-60940452D01*
X82373000Y-60935885D01*
X82627000Y-60935885D01*
X82631475Y-60951124D01*
X82632865Y-60952329D01*
X82640548Y-60954000D01*
X82656320Y-60954000D01*
X82665481Y-60953330D01*
X82725731Y-60944461D01*
X82744205Y-60938720D01*
X82839328Y-60892017D01*
X82856033Y-60880057D01*
X82930459Y-60805501D01*
X82942391Y-60788773D01*
X82988931Y-60693561D01*
X82994639Y-60675093D01*
X82999920Y-60638894D01*
X83029546Y-60574374D01*
X83089351Y-60536113D01*
X83160347Y-60536259D01*
X83219994Y-60574766D01*
X83249354Y-60639407D01*
X83250212Y-60647200D01*
X83252291Y-60673627D01*
X83254086Y-60679804D01*
X83254087Y-60679810D01*
X83292519Y-60812095D01*
X83296382Y-60825390D01*
X83300419Y-60832216D01*
X83372792Y-60954593D01*
X83372794Y-60954596D01*
X83376830Y-60961420D01*
X83488580Y-61073170D01*
X83495404Y-61077206D01*
X83495407Y-61077208D01*
X83596277Y-61136862D01*
X83624610Y-61153618D01*
X83632221Y-61155829D01*
X83632223Y-61155830D01*
X83680743Y-61169926D01*
X83776373Y-61197709D01*
X83797674Y-61199385D01*
X83809380Y-61200307D01*
X83809389Y-61200307D01*
X83811837Y-61200500D01*
X83999847Y-61200500D01*
X84188162Y-61200499D01*
X84206854Y-61199028D01*
X84217209Y-61198214D01*
X84217210Y-61198214D01*
X84223627Y-61197709D01*
X84229807Y-61195914D01*
X84229810Y-61195913D01*
X84367777Y-61155830D01*
X84367779Y-61155829D01*
X84375390Y-61153618D01*
X84403723Y-61136862D01*
X84504593Y-61077208D01*
X84504596Y-61077206D01*
X84511420Y-61073170D01*
X84623170Y-60961420D01*
X84641549Y-60930344D01*
X84693439Y-60881893D01*
X84763290Y-60869188D01*
X84828921Y-60896263D01*
X84858450Y-60930342D01*
X84876830Y-60961420D01*
X84988580Y-61073170D01*
X84995404Y-61077206D01*
X84995407Y-61077208D01*
X85096277Y-61136862D01*
X85124610Y-61153618D01*
X85132221Y-61155829D01*
X85132223Y-61155830D01*
X85180743Y-61169926D01*
X85276373Y-61197709D01*
X85297674Y-61199385D01*
X85309380Y-61200307D01*
X85309389Y-61200307D01*
X85311837Y-61200500D01*
X85499847Y-61200500D01*
X85688162Y-61200499D01*
X85706854Y-61199028D01*
X85717209Y-61198214D01*
X85717210Y-61198214D01*
X85723627Y-61197709D01*
X85729807Y-61195914D01*
X85729810Y-61195913D01*
X85867777Y-61155830D01*
X85867779Y-61155829D01*
X85875390Y-61153618D01*
X85903723Y-61136862D01*
X86004593Y-61077208D01*
X86004596Y-61077206D01*
X86011420Y-61073170D01*
X86123170Y-60961420D01*
X86127206Y-60954596D01*
X86127208Y-60954593D01*
X86199581Y-60832216D01*
X86203618Y-60825390D01*
X86209115Y-60806471D01*
X86239528Y-60701786D01*
X86247709Y-60673627D01*
X86248215Y-60667209D01*
X86249801Y-60647043D01*
X86275085Y-60580701D01*
X86332223Y-60538561D01*
X86403073Y-60534000D01*
X86465141Y-60568469D01*
X86498721Y-60631022D01*
X86500070Y-60638577D01*
X86505539Y-60675731D01*
X86511280Y-60694205D01*
X86557983Y-60789328D01*
X86569943Y-60806033D01*
X86644499Y-60880459D01*
X86661227Y-60892391D01*
X86756439Y-60938931D01*
X86774906Y-60944639D01*
X86834547Y-60953340D01*
X86843647Y-60954000D01*
X86854885Y-60954000D01*
X86870124Y-60949525D01*
X86871329Y-60948135D01*
X86873000Y-60940452D01*
X86873000Y-59464115D01*
X86868525Y-59448876D01*
X86867135Y-59447671D01*
X86859452Y-59446000D01*
X86843680Y-59446000D01*
X86834519Y-59446670D01*
X86774269Y-59455539D01*
X86755795Y-59461280D01*
X86660672Y-59507983D01*
X86643967Y-59519943D01*
X86569541Y-59594499D01*
X86557609Y-59611227D01*
X86511069Y-59706439D01*
X86505361Y-59724907D01*
X86500080Y-59761106D01*
X86470454Y-59825626D01*
X86410649Y-59863887D01*
X86339653Y-59863741D01*
X86280006Y-59825234D01*
X86250646Y-59760593D01*
X86249788Y-59752800D01*
X86248214Y-59732791D01*
X86248213Y-59732784D01*
X86247709Y-59726373D01*
X86203618Y-59574610D01*
X86163994Y-59507609D01*
X86127208Y-59445407D01*
X86127206Y-59445404D01*
X86123170Y-59438580D01*
X86011420Y-59326830D01*
X86004596Y-59322794D01*
X86004593Y-59322792D01*
X85882216Y-59250419D01*
X85882217Y-59250419D01*
X85875390Y-59246382D01*
X85867779Y-59244171D01*
X85867777Y-59244170D01*
X85819257Y-59230074D01*
X85723627Y-59202291D01*
X85702326Y-59200615D01*
X85690620Y-59199693D01*
X85690611Y-59199693D01*
X85688163Y-59199500D01*
X85500153Y-59199500D01*
X85311838Y-59199501D01*
X85293146Y-59200972D01*
X85282791Y-59201786D01*
X85282790Y-59201786D01*
X85276373Y-59202291D01*
X85270193Y-59204086D01*
X85270190Y-59204087D01*
X85132223Y-59244170D01*
X85132221Y-59244171D01*
X85124610Y-59246382D01*
X85117783Y-59250419D01*
X85117784Y-59250419D01*
X84995407Y-59322792D01*
X84995404Y-59322794D01*
X84988580Y-59326830D01*
X84876830Y-59438580D01*
X84858451Y-59469656D01*
X84806561Y-59518107D01*
X84736710Y-59530812D01*
X84671079Y-59503737D01*
X84641550Y-59469658D01*
X84623170Y-59438580D01*
X84511420Y-59326830D01*
X84504596Y-59322794D01*
X84504593Y-59322792D01*
X84382216Y-59250419D01*
X84382217Y-59250419D01*
X84375390Y-59246382D01*
X84367779Y-59244171D01*
X84367777Y-59244170D01*
X84319257Y-59230074D01*
X84223627Y-59202291D01*
X84202326Y-59200615D01*
X84190620Y-59199693D01*
X84190611Y-59199693D01*
X84188163Y-59199500D01*
X84000153Y-59199500D01*
X83811838Y-59199501D01*
X83793146Y-59200972D01*
X83782791Y-59201786D01*
X83782790Y-59201786D01*
X83776373Y-59202291D01*
X83770193Y-59204086D01*
X83770190Y-59204087D01*
X83632223Y-59244170D01*
X83632221Y-59244171D01*
X83624610Y-59246382D01*
X83617783Y-59250419D01*
X83617784Y-59250419D01*
X83495407Y-59322792D01*
X83495404Y-59322794D01*
X83488580Y-59326830D01*
X83376830Y-59438580D01*
X83372794Y-59445404D01*
X83372792Y-59445407D01*
X83336006Y-59507609D01*
X83296382Y-59574610D01*
X83252291Y-59726373D01*
X83251787Y-59732780D01*
X83251786Y-59732784D01*
X83250199Y-59752957D01*
X83224915Y-59819299D01*
X83167777Y-59861439D01*
X83096927Y-59866000D01*
X83034859Y-59831531D01*
X83001279Y-59768978D01*
X82999930Y-59761423D01*
X82994461Y-59724269D01*
X82988720Y-59705795D01*
X82942017Y-59610672D01*
X82930057Y-59593967D01*
X82855501Y-59519541D01*
X82838773Y-59507609D01*
X82743561Y-59461069D01*
X82725094Y-59455361D01*
X82665453Y-59446660D01*
X82656353Y-59446000D01*
X82645115Y-59446000D01*
X82629876Y-59450475D01*
X82628671Y-59451865D01*
X82627000Y-59459548D01*
X82627000Y-60935885D01*
X82373000Y-60935885D01*
X82373000Y-60345115D01*
X82368525Y-60329876D01*
X82367135Y-60328671D01*
X82359452Y-60327000D01*
X82014115Y-60327000D01*
X81998876Y-60331475D01*
X81997671Y-60332865D01*
X81996000Y-60340548D01*
X81996000Y-60606320D01*
X75500500Y-60606320D01*
X75500500Y-60054885D01*
X81996000Y-60054885D01*
X82000475Y-60070124D01*
X82001865Y-60071329D01*
X82009548Y-60073000D01*
X82354885Y-60073000D01*
X82370124Y-60068525D01*
X82371329Y-60067135D01*
X82373000Y-60059452D01*
X82373000Y-59464115D01*
X82368525Y-59448876D01*
X82367135Y-59447671D01*
X82359452Y-59446000D01*
X82343680Y-59446000D01*
X82334519Y-59446670D01*
X82274269Y-59455539D01*
X82255795Y-59461280D01*
X82160672Y-59507983D01*
X82143967Y-59519943D01*
X82069541Y-59594499D01*
X82057609Y-59611227D01*
X82011069Y-59706439D01*
X82005361Y-59724906D01*
X81996660Y-59784547D01*
X81996000Y-59793647D01*
X81996000Y-60054885D01*
X75500500Y-60054885D01*
X75500500Y-51706320D01*
X81996000Y-51706320D01*
X81996670Y-51715481D01*
X82005539Y-51775731D01*
X82011280Y-51794205D01*
X82057983Y-51889328D01*
X82069943Y-51906033D01*
X82144499Y-51980459D01*
X82161227Y-51992391D01*
X82256439Y-52038931D01*
X82274906Y-52044639D01*
X82334547Y-52053340D01*
X82343647Y-52054000D01*
X84604885Y-52054000D01*
X84620124Y-52049525D01*
X84621329Y-52048135D01*
X84623000Y-52040452D01*
X84623000Y-51445115D01*
X84618525Y-51429876D01*
X84617135Y-51428671D01*
X84609452Y-51427000D01*
X82014115Y-51427000D01*
X81998876Y-51431475D01*
X81997671Y-51432865D01*
X81996000Y-51440548D01*
X81996000Y-51706320D01*
X75500500Y-51706320D01*
X75500500Y-51154885D01*
X81996000Y-51154885D01*
X82000475Y-51170124D01*
X82001865Y-51171329D01*
X82009548Y-51173000D01*
X84604885Y-51173000D01*
X84620124Y-51168525D01*
X84621329Y-51167135D01*
X84623000Y-51159452D01*
X84623000Y-50564115D01*
X84618525Y-50548876D01*
X84617135Y-50547671D01*
X84609452Y-50546000D01*
X82343680Y-50546000D01*
X82334519Y-50546670D01*
X82274269Y-50555539D01*
X82255795Y-50561280D01*
X82160672Y-50607983D01*
X82143967Y-50619943D01*
X82069541Y-50694499D01*
X82057609Y-50711227D01*
X82011069Y-50806439D01*
X82005361Y-50824906D01*
X81996660Y-50884547D01*
X81996000Y-50893647D01*
X81996000Y-51154885D01*
X75500500Y-51154885D01*
X75500500Y-49206320D01*
X81996000Y-49206320D01*
X81996670Y-49215481D01*
X82005539Y-49275731D01*
X82011280Y-49294205D01*
X82057983Y-49389328D01*
X82069943Y-49406033D01*
X82144499Y-49480459D01*
X82161227Y-49492391D01*
X82256439Y-49538931D01*
X82274906Y-49544639D01*
X82334547Y-49553340D01*
X82343647Y-49554000D01*
X82354885Y-49554000D01*
X82370124Y-49549525D01*
X82371329Y-49548135D01*
X82373000Y-49540452D01*
X82373000Y-49535885D01*
X82627000Y-49535885D01*
X82631475Y-49551124D01*
X82632865Y-49552329D01*
X82640548Y-49554000D01*
X82656320Y-49554000D01*
X82665481Y-49553330D01*
X82725731Y-49544461D01*
X82744205Y-49538720D01*
X82839328Y-49492017D01*
X82856033Y-49480057D01*
X82930459Y-49405501D01*
X82942391Y-49388773D01*
X82988931Y-49293561D01*
X82994639Y-49275093D01*
X82999920Y-49238894D01*
X83029546Y-49174374D01*
X83089351Y-49136113D01*
X83160347Y-49136259D01*
X83219994Y-49174766D01*
X83249354Y-49239407D01*
X83250212Y-49247200D01*
X83252291Y-49273627D01*
X83254086Y-49279804D01*
X83254087Y-49279810D01*
X83292519Y-49412095D01*
X83296382Y-49425390D01*
X83300419Y-49432216D01*
X83372792Y-49554593D01*
X83372794Y-49554596D01*
X83376830Y-49561420D01*
X83488580Y-49673170D01*
X83495404Y-49677206D01*
X83495407Y-49677208D01*
X83596277Y-49736862D01*
X83624610Y-49753618D01*
X83632221Y-49755829D01*
X83632223Y-49755830D01*
X83680743Y-49769926D01*
X83776373Y-49797709D01*
X83797674Y-49799385D01*
X83809380Y-49800307D01*
X83809389Y-49800307D01*
X83811837Y-49800500D01*
X83999847Y-49800500D01*
X84188162Y-49800499D01*
X84206854Y-49799028D01*
X84217209Y-49798214D01*
X84217210Y-49798214D01*
X84223627Y-49797709D01*
X84229807Y-49795914D01*
X84229810Y-49795913D01*
X84367777Y-49755830D01*
X84367779Y-49755829D01*
X84375390Y-49753618D01*
X84403723Y-49736862D01*
X84504593Y-49677208D01*
X84504596Y-49677206D01*
X84511420Y-49673170D01*
X84623170Y-49561420D01*
X84641549Y-49530344D01*
X84693439Y-49481893D01*
X84763290Y-49469188D01*
X84828921Y-49496263D01*
X84858450Y-49530342D01*
X84876830Y-49561420D01*
X84988580Y-49673170D01*
X84995404Y-49677206D01*
X84995407Y-49677208D01*
X85096277Y-49736862D01*
X85124610Y-49753618D01*
X85132221Y-49755829D01*
X85132223Y-49755830D01*
X85180743Y-49769926D01*
X85276373Y-49797709D01*
X85297674Y-49799385D01*
X85309380Y-49800307D01*
X85309389Y-49800307D01*
X85311837Y-49800500D01*
X85499847Y-49800500D01*
X85688162Y-49800499D01*
X85706854Y-49799028D01*
X85717209Y-49798214D01*
X85717210Y-49798214D01*
X85723627Y-49797709D01*
X85729807Y-49795914D01*
X85729810Y-49795913D01*
X85867777Y-49755830D01*
X85867779Y-49755829D01*
X85875390Y-49753618D01*
X85903723Y-49736862D01*
X86004593Y-49677208D01*
X86004596Y-49677206D01*
X86011420Y-49673170D01*
X86123170Y-49561420D01*
X86127206Y-49554596D01*
X86127208Y-49554593D01*
X86199581Y-49432216D01*
X86203618Y-49425390D01*
X86209115Y-49406471D01*
X86239528Y-49301786D01*
X86247709Y-49273627D01*
X86248215Y-49267209D01*
X86249801Y-49247043D01*
X86275085Y-49180701D01*
X86332223Y-49138561D01*
X86403073Y-49134000D01*
X86465141Y-49168469D01*
X86498721Y-49231022D01*
X86500070Y-49238577D01*
X86505539Y-49275731D01*
X86511280Y-49294205D01*
X86557983Y-49389328D01*
X86569943Y-49406033D01*
X86644499Y-49480459D01*
X86661227Y-49492391D01*
X86756439Y-49538931D01*
X86774906Y-49544639D01*
X86834547Y-49553340D01*
X86843647Y-49554000D01*
X86854885Y-49554000D01*
X86870124Y-49549525D01*
X86871329Y-49548135D01*
X86873000Y-49540452D01*
X86873000Y-48064115D01*
X86868525Y-48048876D01*
X86867135Y-48047671D01*
X86859452Y-48046000D01*
X86843680Y-48046000D01*
X86834519Y-48046670D01*
X86774269Y-48055539D01*
X86755795Y-48061280D01*
X86660672Y-48107983D01*
X86643967Y-48119943D01*
X86569541Y-48194499D01*
X86557609Y-48211227D01*
X86511069Y-48306439D01*
X86505361Y-48324907D01*
X86500080Y-48361106D01*
X86470454Y-48425626D01*
X86410649Y-48463887D01*
X86339653Y-48463741D01*
X86280006Y-48425234D01*
X86250646Y-48360593D01*
X86249788Y-48352800D01*
X86248214Y-48332791D01*
X86248213Y-48332784D01*
X86247709Y-48326373D01*
X86203618Y-48174610D01*
X86163994Y-48107609D01*
X86127208Y-48045407D01*
X86127206Y-48045404D01*
X86123170Y-48038580D01*
X86011420Y-47926830D01*
X86004596Y-47922794D01*
X86004593Y-47922792D01*
X85882216Y-47850419D01*
X85882217Y-47850419D01*
X85875390Y-47846382D01*
X85867779Y-47844171D01*
X85867777Y-47844170D01*
X85819257Y-47830074D01*
X85723627Y-47802291D01*
X85702326Y-47800615D01*
X85690620Y-47799693D01*
X85690611Y-47799693D01*
X85688163Y-47799500D01*
X85500153Y-47799500D01*
X85311838Y-47799501D01*
X85293146Y-47800972D01*
X85282791Y-47801786D01*
X85282790Y-47801786D01*
X85276373Y-47802291D01*
X85270193Y-47804086D01*
X85270190Y-47804087D01*
X85132223Y-47844170D01*
X85132221Y-47844171D01*
X85124610Y-47846382D01*
X85117783Y-47850419D01*
X85117784Y-47850419D01*
X84995407Y-47922792D01*
X84995404Y-47922794D01*
X84988580Y-47926830D01*
X84876830Y-48038580D01*
X84858451Y-48069656D01*
X84806561Y-48118107D01*
X84736710Y-48130812D01*
X84671079Y-48103737D01*
X84641550Y-48069658D01*
X84623170Y-48038580D01*
X84511420Y-47926830D01*
X84504596Y-47922794D01*
X84504593Y-47922792D01*
X84382216Y-47850419D01*
X84382217Y-47850419D01*
X84375390Y-47846382D01*
X84367779Y-47844171D01*
X84367777Y-47844170D01*
X84319257Y-47830074D01*
X84223627Y-47802291D01*
X84202326Y-47800615D01*
X84190620Y-47799693D01*
X84190611Y-47799693D01*
X84188163Y-47799500D01*
X84000153Y-47799500D01*
X83811838Y-47799501D01*
X83793146Y-47800972D01*
X83782791Y-47801786D01*
X83782790Y-47801786D01*
X83776373Y-47802291D01*
X83770193Y-47804086D01*
X83770190Y-47804087D01*
X83632223Y-47844170D01*
X83632221Y-47844171D01*
X83624610Y-47846382D01*
X83617783Y-47850419D01*
X83617784Y-47850419D01*
X83495407Y-47922792D01*
X83495404Y-47922794D01*
X83488580Y-47926830D01*
X83376830Y-48038580D01*
X83372794Y-48045404D01*
X83372792Y-48045407D01*
X83336006Y-48107609D01*
X83296382Y-48174610D01*
X83252291Y-48326373D01*
X83251787Y-48332780D01*
X83251786Y-48332784D01*
X83250199Y-48352957D01*
X83224915Y-48419299D01*
X83167777Y-48461439D01*
X83096927Y-48466000D01*
X83034859Y-48431531D01*
X83001279Y-48368978D01*
X82999930Y-48361423D01*
X82994461Y-48324269D01*
X82988720Y-48305795D01*
X82942017Y-48210672D01*
X82930057Y-48193967D01*
X82855501Y-48119541D01*
X82838773Y-48107609D01*
X82743561Y-48061069D01*
X82725094Y-48055361D01*
X82665453Y-48046660D01*
X82656353Y-48046000D01*
X82645115Y-48046000D01*
X82629876Y-48050475D01*
X82628671Y-48051865D01*
X82627000Y-48059548D01*
X82627000Y-49535885D01*
X82373000Y-49535885D01*
X82373000Y-48945115D01*
X82368525Y-48929876D01*
X82367135Y-48928671D01*
X82359452Y-48927000D01*
X82014115Y-48927000D01*
X81998876Y-48931475D01*
X81997671Y-48932865D01*
X81996000Y-48940548D01*
X81996000Y-49206320D01*
X75500500Y-49206320D01*
X75500500Y-48654885D01*
X81996000Y-48654885D01*
X82000475Y-48670124D01*
X82001865Y-48671329D01*
X82009548Y-48673000D01*
X82354885Y-48673000D01*
X82370124Y-48668525D01*
X82371329Y-48667135D01*
X82373000Y-48659452D01*
X82373000Y-48064115D01*
X82368525Y-48048876D01*
X82367135Y-48047671D01*
X82359452Y-48046000D01*
X82343680Y-48046000D01*
X82334519Y-48046670D01*
X82274269Y-48055539D01*
X82255795Y-48061280D01*
X82160672Y-48107983D01*
X82143967Y-48119943D01*
X82069541Y-48194499D01*
X82057609Y-48211227D01*
X82011069Y-48306439D01*
X82005361Y-48324906D01*
X81996660Y-48384547D01*
X81996000Y-48393647D01*
X81996000Y-48654885D01*
X75500500Y-48654885D01*
X75500500Y-43632200D01*
X76398747Y-43632200D01*
X76399306Y-43636444D01*
X76399306Y-43636448D01*
X76403770Y-43670356D01*
X76436129Y-43916149D01*
X76437262Y-43920289D01*
X76437262Y-43920291D01*
X76440873Y-43933492D01*
X76511702Y-44192398D01*
X76624068Y-44455835D01*
X76771146Y-44701585D01*
X76773830Y-44704936D01*
X76773832Y-44704938D01*
X76829174Y-44774016D01*
X76950215Y-44925100D01*
X77157962Y-45122245D01*
X77390543Y-45289371D01*
X77643653Y-45423386D01*
X77912610Y-45521810D01*
X78192436Y-45582822D01*
X78231901Y-45585928D01*
X78414597Y-45600307D01*
X78414604Y-45600307D01*
X78417053Y-45600500D01*
X78571992Y-45600500D01*
X78574128Y-45600354D01*
X78574139Y-45600354D01*
X78781460Y-45586220D01*
X78781466Y-45586219D01*
X78785737Y-45585928D01*
X78789932Y-45585059D01*
X78789934Y-45585059D01*
X78925961Y-45556889D01*
X79066186Y-45527850D01*
X79336158Y-45432248D01*
X79590658Y-45300891D01*
X79594159Y-45298430D01*
X79594163Y-45298428D01*
X79821471Y-45138673D01*
X79821477Y-45138668D01*
X79824976Y-45136209D01*
X79978518Y-44993529D01*
X80031633Y-44944172D01*
X80031636Y-44944169D01*
X80034776Y-44941251D01*
X80045575Y-44928058D01*
X80213461Y-44722941D01*
X80216177Y-44719623D01*
X80365820Y-44475427D01*
X80372802Y-44459522D01*
X80479214Y-44217110D01*
X80479215Y-44217106D01*
X80480938Y-44213182D01*
X80559400Y-43937739D01*
X80599754Y-43654196D01*
X80600920Y-43431376D01*
X80601231Y-43372086D01*
X80601231Y-43372080D01*
X80601253Y-43367800D01*
X80597798Y-43341552D01*
X80564431Y-43088107D01*
X80563871Y-43083851D01*
X80488298Y-42807602D01*
X80408362Y-42620196D01*
X80377618Y-42548117D01*
X80377616Y-42548113D01*
X80375932Y-42544165D01*
X80228854Y-42298415D01*
X80049785Y-42074900D01*
X79842038Y-41877755D01*
X79609457Y-41710629D01*
X79356347Y-41576614D01*
X79087390Y-41478190D01*
X78807564Y-41417178D01*
X78764389Y-41413780D01*
X78585403Y-41399693D01*
X78585396Y-41399693D01*
X78582947Y-41399500D01*
X78428008Y-41399500D01*
X78425872Y-41399646D01*
X78425861Y-41399646D01*
X78218540Y-41413780D01*
X78218534Y-41413781D01*
X78214263Y-41414072D01*
X78210068Y-41414941D01*
X78210066Y-41414941D01*
X78074039Y-41443111D01*
X77933814Y-41472150D01*
X77663842Y-41567752D01*
X77409342Y-41699109D01*
X77405841Y-41701570D01*
X77405837Y-41701572D01*
X77178529Y-41861327D01*
X77178523Y-41861332D01*
X77175024Y-41863791D01*
X76965224Y-42058749D01*
X76962510Y-42062065D01*
X76962507Y-42062068D01*
X76929585Y-42102291D01*
X76783823Y-42280377D01*
X76634180Y-42524573D01*
X76632453Y-42528507D01*
X76632452Y-42528509D01*
X76573925Y-42661838D01*
X76519062Y-42786818D01*
X76440600Y-43062261D01*
X76400246Y-43345804D01*
X76399798Y-43431376D01*
X76399048Y-43574739D01*
X76398747Y-43632200D01*
X75500500Y-43632200D01*
X75500500Y-40358841D01*
X75520502Y-40290720D01*
X75574158Y-40244227D01*
X75644432Y-40234123D01*
X75698771Y-40255628D01*
X75755319Y-40295223D01*
X75832170Y-40349035D01*
X75837152Y-40351358D01*
X75837157Y-40351361D01*
X76017519Y-40435465D01*
X76046337Y-40448903D01*
X76051645Y-40450325D01*
X76051647Y-40450326D01*
X76269277Y-40508639D01*
X76274592Y-40510063D01*
X76510000Y-40530659D01*
X76745408Y-40510063D01*
X76750723Y-40508639D01*
X76968353Y-40450326D01*
X76968355Y-40450325D01*
X76973663Y-40448903D01*
X77002481Y-40435465D01*
X77182843Y-40351361D01*
X77182848Y-40351358D01*
X77187830Y-40349035D01*
X77192339Y-40345878D01*
X77376890Y-40216654D01*
X77376893Y-40216652D01*
X77381401Y-40213495D01*
X77501011Y-40093885D01*
X77563323Y-40059859D01*
X77634138Y-40064924D01*
X77690974Y-40107471D01*
X77708088Y-40138752D01*
X77737292Y-40216654D01*
X77756474Y-40267824D01*
X77761854Y-40275003D01*
X77761856Y-40275006D01*
X77819082Y-40351361D01*
X77842454Y-40382546D01*
X77849635Y-40387928D01*
X77949994Y-40463144D01*
X77949997Y-40463146D01*
X77957176Y-40468526D01*
X78046561Y-40502034D01*
X78084025Y-40516079D01*
X78084027Y-40516079D01*
X78091420Y-40518851D01*
X78099270Y-40519704D01*
X78099271Y-40519704D01*
X78104426Y-40520264D01*
X78152623Y-40525500D01*
X79049868Y-40525500D01*
X79947376Y-40525499D01*
X79950770Y-40525130D01*
X79950776Y-40525130D01*
X80000722Y-40519705D01*
X80000726Y-40519704D01*
X80008580Y-40518851D01*
X80142824Y-40468526D01*
X80150003Y-40463146D01*
X80150006Y-40463144D01*
X80250365Y-40387928D01*
X80257546Y-40382546D01*
X80280918Y-40351361D01*
X80338144Y-40275006D01*
X80338146Y-40275003D01*
X80343526Y-40267824D01*
X80393851Y-40133580D01*
X80396663Y-40134634D01*
X80424892Y-40085213D01*
X80487845Y-40052389D01*
X80512263Y-40050000D01*
X82351412Y-40050000D01*
X82419533Y-40070002D01*
G37*
G04 #@! TD.AperFunction*
G04 #@! TA.AperFunction,Conductor*
G36*
X107692121Y-60170002D02*
G01*
X107738614Y-60223658D01*
X107750000Y-60276000D01*
X107750000Y-62374000D01*
X107729998Y-62442121D01*
X107676342Y-62488614D01*
X107624000Y-62500000D01*
X102876000Y-62500000D01*
X102807879Y-62479998D01*
X102761386Y-62426342D01*
X102750000Y-62374000D01*
X102750000Y-60276000D01*
X102770002Y-60207879D01*
X102823658Y-60161386D01*
X102876000Y-60150000D01*
X107624000Y-60150000D01*
X107692121Y-60170002D01*
G37*
G04 #@! TD.AperFunction*
G04 #@! TA.AperFunction,Conductor*
G36*
X87192121Y-43120002D02*
G01*
X87238614Y-43173658D01*
X87250000Y-43226000D01*
X87250000Y-45324000D01*
X87229998Y-45392121D01*
X87176342Y-45438614D01*
X87124000Y-45450000D01*
X82376000Y-45450000D01*
X82307879Y-45429998D01*
X82261386Y-45376342D01*
X82250000Y-45324000D01*
X82250000Y-43226000D01*
X82270002Y-43157879D01*
X82323658Y-43111386D01*
X82376000Y-43100000D01*
X87124000Y-43100000D01*
X87192121Y-43120002D01*
G37*
G04 #@! TD.AperFunction*
G04 #@! TA.AperFunction,Conductor*
G36*
X87192121Y-65870002D02*
G01*
X87238614Y-65923658D01*
X87250000Y-65976000D01*
X87250000Y-68074000D01*
X87229998Y-68142121D01*
X87176342Y-68188614D01*
X87124000Y-68200000D01*
X82376000Y-68200000D01*
X82307879Y-68179998D01*
X82261386Y-68126342D01*
X82250000Y-68074000D01*
X82250000Y-65976000D01*
X82270002Y-65907879D01*
X82323658Y-65861386D01*
X82376000Y-65850000D01*
X87124000Y-65850000D01*
X87192121Y-65870002D01*
G37*
G04 #@! TD.AperFunction*
G04 #@! TA.AperFunction,Conductor*
G36*
X87192121Y-77320002D02*
G01*
X87238614Y-77373658D01*
X87250000Y-77426000D01*
X87250000Y-79524000D01*
X87229998Y-79592121D01*
X87176342Y-79638614D01*
X87124000Y-79650000D01*
X82376000Y-79650000D01*
X82307879Y-79629998D01*
X82261386Y-79576342D01*
X82250000Y-79524000D01*
X82250000Y-77426000D01*
X82270002Y-77357879D01*
X82323658Y-77311386D01*
X82376000Y-77300000D01*
X87124000Y-77300000D01*
X87192121Y-77320002D01*
G37*
G04 #@! TD.AperFunction*
G04 #@! TA.AperFunction,Conductor*
G36*
X107692121Y-48870002D02*
G01*
X107738614Y-48923658D01*
X107750000Y-48976000D01*
X107750000Y-51074000D01*
X107729998Y-51142121D01*
X107676342Y-51188614D01*
X107624000Y-51200000D01*
X102876000Y-51200000D01*
X102807879Y-51179998D01*
X102761386Y-51126342D01*
X102750000Y-51074000D01*
X102750000Y-48976000D01*
X102770002Y-48907879D01*
X102823658Y-48861386D01*
X102876000Y-48850000D01*
X107624000Y-48850000D01*
X107692121Y-48870002D01*
G37*
G04 #@! TD.AperFunction*
G04 #@! TA.AperFunction,Conductor*
G36*
X107692121Y-82970002D02*
G01*
X107738614Y-83023658D01*
X107750000Y-83076000D01*
X107750000Y-85174000D01*
X107729998Y-85242121D01*
X107676342Y-85288614D01*
X107624000Y-85300000D01*
X102876000Y-85300000D01*
X102807879Y-85279998D01*
X102761386Y-85226342D01*
X102750000Y-85174000D01*
X102750000Y-83076000D01*
X102770002Y-83007879D01*
X102823658Y-82961386D01*
X102876000Y-82950000D01*
X107624000Y-82950000D01*
X107692121Y-82970002D01*
G37*
G04 #@! TD.AperFunction*
G04 #@! TA.AperFunction,Conductor*
G36*
X87192121Y-54520002D02*
G01*
X87238614Y-54573658D01*
X87250000Y-54626000D01*
X87250000Y-56724000D01*
X87229998Y-56792121D01*
X87176342Y-56838614D01*
X87124000Y-56850000D01*
X82376000Y-56850000D01*
X82307879Y-56829998D01*
X82261386Y-56776342D01*
X82250000Y-56724000D01*
X82250000Y-54626000D01*
X82270002Y-54557879D01*
X82323658Y-54511386D01*
X82376000Y-54500000D01*
X87124000Y-54500000D01*
X87192121Y-54520002D01*
G37*
G04 #@! TD.AperFunction*
G04 #@! TA.AperFunction,Conductor*
G36*
X87192121Y-88720002D02*
G01*
X87238614Y-88773658D01*
X87250000Y-88826000D01*
X87250000Y-90924000D01*
X87229998Y-90992121D01*
X87176342Y-91038614D01*
X87124000Y-91050000D01*
X82376000Y-91050000D01*
X82307879Y-91029998D01*
X82261386Y-90976342D01*
X82250000Y-90924000D01*
X82250000Y-88826000D01*
X82270002Y-88757879D01*
X82323658Y-88711386D01*
X82376000Y-88700000D01*
X87124000Y-88700000D01*
X87192121Y-88720002D01*
G37*
G04 #@! TD.AperFunction*
G04 #@! TA.AperFunction,Conductor*
G36*
X111481694Y-30418306D02*
G01*
X111500000Y-30462500D01*
X111500000Y-32137500D01*
X111481694Y-32181694D01*
X111437500Y-32200000D01*
X108062500Y-32200000D01*
X108018306Y-32181694D01*
X108000000Y-32137500D01*
X108000000Y-30462500D01*
X108018306Y-30418306D01*
X108062500Y-30400000D01*
X111437500Y-30400000D01*
X111481694Y-30418306D01*
G37*
G04 #@! TD.AperFunction*
G04 #@! TA.AperFunction,Conductor*
G36*
X107692121Y-71670002D02*
G01*
X107738614Y-71723658D01*
X107750000Y-71776000D01*
X107750000Y-73874000D01*
X107729998Y-73942121D01*
X107676342Y-73988614D01*
X107624000Y-74000000D01*
X102876000Y-74000000D01*
X102807879Y-73979998D01*
X102761386Y-73926342D01*
X102750000Y-73874000D01*
X102750000Y-71776000D01*
X102770002Y-71707879D01*
X102823658Y-71661386D01*
X102876000Y-71650000D01*
X107624000Y-71650000D01*
X107692121Y-71670002D01*
G37*
G04 #@! TD.AperFunction*
G04 #@! TA.AperFunction,Conductor*
G36*
X101918146Y-30317448D02*
G01*
X102080819Y-30473865D01*
X102100000Y-30518917D01*
X102100000Y-31274112D01*
X102081694Y-31318306D01*
X100918306Y-32481694D01*
X100874112Y-32500000D01*
X99725888Y-32500000D01*
X99681694Y-32481694D01*
X99418306Y-32218306D01*
X99400000Y-32174112D01*
X99400000Y-30725888D01*
X99418306Y-30681694D01*
X99781694Y-30318306D01*
X99825888Y-30300000D01*
X101874827Y-30300000D01*
X101918146Y-30317448D01*
G37*
G04 #@! TD.AperFunction*
G04 #@! TA.AperFunction,Conductor*
G36*
X86118306Y-33218306D02*
G01*
X86431694Y-33531694D01*
X86450000Y-33575888D01*
X86450000Y-34224112D01*
X86431694Y-34268306D01*
X85768306Y-34931694D01*
X85724112Y-34950000D01*
X83362500Y-34950000D01*
X83318306Y-34931694D01*
X83300000Y-34887500D01*
X83300000Y-33262500D01*
X83318306Y-33218306D01*
X83362500Y-33200000D01*
X86074112Y-33200000D01*
X86118306Y-33218306D01*
G37*
G04 #@! TD.AperFunction*
M02*
