G04 #@! TF.GenerationSoftware,KiCad,Pcbnew,(6.0.7)*
G04 #@! TF.CreationDate,2022-10-27T11:42:29+02:00*
G04 #@! TF.ProjectId,FPS_AR,4650535f-4152-42e6-9b69-6361645f7063,rev?*
G04 #@! TF.SameCoordinates,Original*
G04 #@! TF.FileFunction,Legend,Bot*
G04 #@! TF.FilePolarity,Positive*
%FSLAX46Y46*%
G04 Gerber Fmt 4.6, Leading zero omitted, Abs format (unit mm)*
G04 Created by KiCad (PCBNEW (6.0.7)) date 2022-10-27 11:42:29*
%MOMM*%
%LPD*%
G01*
G04 APERTURE LIST*
G04 Aperture macros list*
%AMRoundRect*
0 Rectangle with rounded corners*
0 $1 Rounding radius*
0 $2 $3 $4 $5 $6 $7 $8 $9 X,Y pos of 4 corners*
0 Add a 4 corners polygon primitive as box body*
4,1,4,$2,$3,$4,$5,$6,$7,$8,$9,$2,$3,0*
0 Add four circle primitives for the rounded corners*
1,1,$1+$1,$2,$3*
1,1,$1+$1,$4,$5*
1,1,$1+$1,$6,$7*
1,1,$1+$1,$8,$9*
0 Add four rect primitives between the rounded corners*
20,1,$1+$1,$2,$3,$4,$5,0*
20,1,$1+$1,$4,$5,$6,$7,0*
20,1,$1+$1,$6,$7,$8,$9,0*
20,1,$1+$1,$8,$9,$2,$3,0*%
G04 Aperture macros list end*
%ADD10C,0.150000*%
%ADD11RoundRect,0.175000X2.375000X0.375000X-2.375000X0.375000X-2.375000X-0.375000X2.375000X-0.375000X0*%
G04 APERTURE END LIST*
D10*
X118790476Y-76428571D02*
X119123809Y-76428571D01*
X119123809Y-76952380D02*
X119123809Y-75952380D01*
X118647619Y-75952380D01*
X118266666Y-76952380D02*
X118266666Y-75952380D01*
X117885714Y-75952380D01*
X117790476Y-76000000D01*
X117742857Y-76047619D01*
X117695238Y-76142857D01*
X117695238Y-76285714D01*
X117742857Y-76380952D01*
X117790476Y-76428571D01*
X117885714Y-76476190D01*
X118266666Y-76476190D01*
X116695238Y-76857142D02*
X116742857Y-76904761D01*
X116885714Y-76952380D01*
X116980952Y-76952380D01*
X117123809Y-76904761D01*
X117219047Y-76809523D01*
X117266666Y-76714285D01*
X117314285Y-76523809D01*
X117314285Y-76380952D01*
X117266666Y-76190476D01*
X117219047Y-76095238D01*
X117123809Y-76000000D01*
X116980952Y-75952380D01*
X116885714Y-75952380D01*
X116742857Y-76000000D01*
X116695238Y-76047619D01*
X116504761Y-77047619D02*
X115742857Y-77047619D01*
X115552380Y-76666666D02*
X115076190Y-76666666D01*
X115647619Y-76952380D02*
X115314285Y-75952380D01*
X114980952Y-76952380D01*
X114647619Y-76285714D02*
X114647619Y-76952380D01*
X114647619Y-76380952D02*
X114600000Y-76333333D01*
X114504761Y-76285714D01*
X114361904Y-76285714D01*
X114266666Y-76333333D01*
X114219047Y-76428571D01*
X114219047Y-76952380D01*
X113885714Y-76285714D02*
X113504761Y-76285714D01*
X113742857Y-75952380D02*
X113742857Y-76809523D01*
X113695238Y-76904761D01*
X113600000Y-76952380D01*
X113504761Y-76952380D01*
X112790476Y-76904761D02*
X112885714Y-76952380D01*
X113076190Y-76952380D01*
X113171428Y-76904761D01*
X113219047Y-76809523D01*
X113219047Y-76428571D01*
X113171428Y-76333333D01*
X113076190Y-76285714D01*
X112885714Y-76285714D01*
X112790476Y-76333333D01*
X112742857Y-76428571D01*
X112742857Y-76523809D01*
X113219047Y-76619047D01*
X112314285Y-76285714D02*
X112314285Y-76952380D01*
X112314285Y-76380952D02*
X112266666Y-76333333D01*
X112171428Y-76285714D01*
X112028571Y-76285714D01*
X111933333Y-76333333D01*
X111885714Y-76428571D01*
X111885714Y-76952380D01*
X111409523Y-76285714D02*
X111409523Y-76952380D01*
X111409523Y-76380952D02*
X111361904Y-76333333D01*
X111266666Y-76285714D01*
X111123809Y-76285714D01*
X111028571Y-76333333D01*
X110980952Y-76428571D01*
X110980952Y-76952380D01*
X110076190Y-76952380D02*
X110076190Y-76428571D01*
X110123809Y-76333333D01*
X110219047Y-76285714D01*
X110409523Y-76285714D01*
X110504761Y-76333333D01*
X110076190Y-76904761D02*
X110171428Y-76952380D01*
X110409523Y-76952380D01*
X110504761Y-76904761D01*
X110552380Y-76809523D01*
X110552380Y-76714285D01*
X110504761Y-76619047D01*
X110409523Y-76571428D01*
X110171428Y-76571428D01*
X110076190Y-76523809D01*
X109028571Y-76952380D02*
X109361904Y-76476190D01*
X109600000Y-76952380D02*
X109600000Y-75952380D01*
X109219047Y-75952380D01*
X109123809Y-76000000D01*
X109076190Y-76047619D01*
X109028571Y-76142857D01*
X109028571Y-76285714D01*
X109076190Y-76380952D01*
X109123809Y-76428571D01*
X109219047Y-76476190D01*
X109600000Y-76476190D01*
X107980952Y-75952380D02*
X107647619Y-76952380D01*
X107314285Y-75952380D01*
X106457142Y-76952380D02*
X107028571Y-76952380D01*
X106742857Y-76952380D02*
X106742857Y-75952380D01*
X106838095Y-76095238D01*
X106933333Y-76190476D01*
X107028571Y-76238095D01*
X106028571Y-76857142D02*
X105980952Y-76904761D01*
X106028571Y-76952380D01*
X106076190Y-76904761D01*
X106028571Y-76857142D01*
X106028571Y-76952380D01*
X105361904Y-75952380D02*
X105266666Y-75952380D01*
X105171428Y-76000000D01*
X105123809Y-76047619D01*
X105076190Y-76142857D01*
X105028571Y-76333333D01*
X105028571Y-76571428D01*
X105076190Y-76761904D01*
X105123809Y-76857142D01*
X105171428Y-76904761D01*
X105266666Y-76952380D01*
X105361904Y-76952380D01*
X105457142Y-76904761D01*
X105504761Y-76857142D01*
X105552380Y-76761904D01*
X105600000Y-76571428D01*
X105600000Y-76333333D01*
X105552380Y-76142857D01*
X105504761Y-76047619D01*
X105457142Y-76000000D01*
X105361904Y-75952380D01*
%LPC*%
D11*
X101600000Y-80700000D03*
X122100000Y-80700000D03*
M02*
