G04 #@! TF.GenerationSoftware,KiCad,Pcbnew,(6.0.7)*
G04 #@! TF.CreationDate,2022-10-27T11:49:18+02:00*
G04 #@! TF.ProjectId,PressureSensor,50726573-7375-4726-9553-656e736f722e,rev?*
G04 #@! TF.SameCoordinates,Original*
G04 #@! TF.FileFunction,Soldermask,Top*
G04 #@! TF.FilePolarity,Negative*
%FSLAX46Y46*%
G04 Gerber Fmt 4.6, Leading zero omitted, Abs format (unit mm)*
G04 Created by KiCad (PCBNEW (6.0.7)) date 2022-10-27 11:49:18*
%MOMM*%
%LPD*%
G01*
G04 APERTURE LIST*
G04 Aperture macros list*
%AMRoundRect*
0 Rectangle with rounded corners*
0 $1 Rounding radius*
0 $2 $3 $4 $5 $6 $7 $8 $9 X,Y pos of 4 corners*
0 Add a 4 corners polygon primitive as box body*
4,1,4,$2,$3,$4,$5,$6,$7,$8,$9,$2,$3,0*
0 Add four circle primitives for the rounded corners*
1,1,$1+$1,$2,$3*
1,1,$1+$1,$4,$5*
1,1,$1+$1,$6,$7*
1,1,$1+$1,$8,$9*
0 Add four rect primitives between the rounded corners*
20,1,$1+$1,$2,$3,$4,$5,0*
20,1,$1+$1,$4,$5,$6,$7,0*
20,1,$1+$1,$6,$7,$8,$9,0*
20,1,$1+$1,$8,$9,$2,$3,0*%
G04 Aperture macros list end*
%ADD10RoundRect,0.050000X0.165100X-0.152400X0.165100X0.152400X-0.165100X0.152400X-0.165100X-0.152400X0*%
%ADD11RoundRect,0.050000X-0.152400X-0.165100X0.152400X-0.165100X0.152400X0.165100X-0.152400X0.165100X0*%
G04 APERTURE END LIST*
D10*
X162184199Y-73769037D03*
X162184199Y-74269163D03*
D11*
X162518974Y-74854001D03*
X163019100Y-74854001D03*
X163519226Y-74854001D03*
D10*
X163854001Y-74269163D03*
X163854001Y-73769037D03*
D11*
X163519226Y-73184199D03*
X163019100Y-73184199D03*
X162518974Y-73184199D03*
G36*
X163223163Y-74687860D02*
G01*
X163242587Y-74716931D01*
X163278495Y-74724074D01*
X163309119Y-74703611D01*
X163314978Y-74689467D01*
X163316565Y-74688249D01*
X163318413Y-74689014D01*
X163318826Y-74690232D01*
X163318826Y-75019031D01*
X163317826Y-75020763D01*
X163315826Y-75020763D01*
X163315163Y-75020142D01*
X163295739Y-74991071D01*
X163259831Y-74983928D01*
X163229207Y-75004391D01*
X163223348Y-75018535D01*
X163221761Y-75019753D01*
X163219913Y-75018988D01*
X163219500Y-75017770D01*
X163219500Y-74688971D01*
X163220500Y-74687239D01*
X163222500Y-74687239D01*
X163223163Y-74687860D01*
G37*
G36*
X162723037Y-74687860D02*
G01*
X162742461Y-74716931D01*
X162778369Y-74724074D01*
X162808993Y-74703611D01*
X162814852Y-74689467D01*
X162816439Y-74688249D01*
X162818287Y-74689014D01*
X162818700Y-74690232D01*
X162818700Y-75019031D01*
X162817700Y-75020763D01*
X162815700Y-75020763D01*
X162815037Y-75020142D01*
X162795613Y-74991071D01*
X162759705Y-74983928D01*
X162729081Y-75004391D01*
X162723222Y-75018535D01*
X162721635Y-75019753D01*
X162719787Y-75018988D01*
X162719374Y-75017770D01*
X162719374Y-74688971D01*
X162720374Y-74687239D01*
X162722374Y-74687239D01*
X162723037Y-74687860D01*
G37*
G36*
X164020763Y-73970437D02*
G01*
X164020763Y-73972437D01*
X164020142Y-73973100D01*
X163991071Y-73992524D01*
X163983928Y-74028432D01*
X164004391Y-74059056D01*
X164018535Y-74064915D01*
X164019753Y-74066502D01*
X164018988Y-74068350D01*
X164017770Y-74068763D01*
X163688971Y-74068763D01*
X163687239Y-74067763D01*
X163687239Y-74065763D01*
X163687860Y-74065100D01*
X163716931Y-74045676D01*
X163724074Y-74009768D01*
X163703611Y-73979144D01*
X163689467Y-73973285D01*
X163688249Y-73971698D01*
X163689014Y-73969850D01*
X163690232Y-73969437D01*
X164019031Y-73969437D01*
X164020763Y-73970437D01*
G37*
G36*
X162350961Y-73970437D02*
G01*
X162350961Y-73972437D01*
X162350340Y-73973100D01*
X162321269Y-73992524D01*
X162314126Y-74028432D01*
X162334589Y-74059056D01*
X162348733Y-74064915D01*
X162349951Y-74066502D01*
X162349186Y-74068350D01*
X162347968Y-74068763D01*
X162019169Y-74068763D01*
X162017437Y-74067763D01*
X162017437Y-74065763D01*
X162018058Y-74065100D01*
X162047129Y-74045676D01*
X162054272Y-74009768D01*
X162033809Y-73979144D01*
X162019665Y-73973285D01*
X162018447Y-73971698D01*
X162019212Y-73969850D01*
X162020430Y-73969437D01*
X162349229Y-73969437D01*
X162350961Y-73970437D01*
G37*
G36*
X162723037Y-73018058D02*
G01*
X162742461Y-73047129D01*
X162778369Y-73054272D01*
X162808993Y-73033809D01*
X162814852Y-73019665D01*
X162816439Y-73018447D01*
X162818287Y-73019212D01*
X162818700Y-73020430D01*
X162818700Y-73349229D01*
X162817700Y-73350961D01*
X162815700Y-73350961D01*
X162815037Y-73350340D01*
X162795613Y-73321269D01*
X162759705Y-73314126D01*
X162729081Y-73334589D01*
X162723222Y-73348733D01*
X162721635Y-73349951D01*
X162719787Y-73349186D01*
X162719374Y-73347968D01*
X162719374Y-73019169D01*
X162720374Y-73017437D01*
X162722374Y-73017437D01*
X162723037Y-73018058D01*
G37*
G36*
X163223163Y-73018058D02*
G01*
X163242587Y-73047129D01*
X163278495Y-73054272D01*
X163309119Y-73033809D01*
X163314978Y-73019665D01*
X163316565Y-73018447D01*
X163318413Y-73019212D01*
X163318826Y-73020430D01*
X163318826Y-73349229D01*
X163317826Y-73350961D01*
X163315826Y-73350961D01*
X163315163Y-73350340D01*
X163295739Y-73321269D01*
X163259831Y-73314126D01*
X163229207Y-73334589D01*
X163223348Y-73348733D01*
X163221761Y-73349951D01*
X163219913Y-73349186D01*
X163219500Y-73347968D01*
X163219500Y-73019169D01*
X163220500Y-73017437D01*
X163222500Y-73017437D01*
X163223163Y-73018058D01*
G37*
M02*
